<?xml version="1.0" encoding="utf-8" standalone="no"?>
<!DOCTYPE svg PUBLIC "-//W3C//DTD SVG 1.1//EN"
  "http://www.w3.org/Graphics/SVG/1.1/DTD/svg11.dtd">
<!-- Created with matplotlib (http://matplotlib.org/) -->
<svg height="487pt" version="1.1" viewBox="0 0 495 487" width="495pt" xmlns="http://www.w3.org/2000/svg" xmlns:xlink="http://www.w3.org/1999/xlink">
 <defs>
  <style type="text/css">
*{stroke-linecap:butt;stroke-linejoin:round;}
  </style>
 </defs>
 <g id="figure_1">
  <g id="patch_1">
   <path d="
M0 487.763
L495.828 487.763
L495.828 0
L0 0
z
" style="fill:#ffffff;"/>
  </g>
  <g id="axes_1">
   <g id="patch_2">
    <path clip-path="url(#p01953426ad)" d="
M98.8455 458.599
L98.8455 409.495
L140.509 409.495
L140.509 415.447
L104.425 415.447
L104.053 415.819
L104.053 458.599
z
" style="opacity:0.6;stroke:#000000;stroke-linejoin:miter;"/>
   </g>
   <g id="patch_3">
    <path clip-path="url(#p01953426ad)" d="
M50.1135 391.639
L49.7415 391.267
L42.6735 391.267
L41.9295 390.523
L41.5575 390.523
L40.4415 389.407
L39.6975 389.407
L36.7215 386.431
L36.7215 386.059
L35.6055 384.943
L35.6055 384.571
L34.8615 383.827
L34.8615 383.455
L34.4895 383.083
L34.4895 382.711
L34.1175 382.339
L34.1175 381.967
L33.7455 381.595
L33.7455 380.851
L33.0015 380.107
L33.0015 379.735
L32.6295 379.363
L32.6295 378.619
L31.8855 377.875
L31.8855 369.691
L32.2575 369.319
L32.2575 368.575
L32.6295 368.203
L32.6295 367.459
L33.0015 367.087
L33.0015 366.715
L33.7455 365.971
L33.7455 365.227
L34.8615 364.111
L34.8615 363.367
L35.9775 362.251
L36.3495 362.251
L38.2095 360.391
L38.5815 360.391
L39.3255 359.647
L39.6975 359.647
L40.0695 359.275
L43.0455 359.275
L43.4175 358.903
L43.7895 358.903
L44.1615 358.531
L45.2775 358.531
L45.6495 358.159
L53.8335 358.159
L54.5775 358.903
L55.6935 358.903
L56.0655 359.275
L56.4375 359.275
L57.1815 360.019
L57.5535 360.019
L58.2975 360.763
L59.0415 360.763
L62.3895 364.111
L62.7615 364.111
L65.3655 366.715
L65.3655 367.087
L66.1095 367.831
L66.1095 377.875
L65.7375 378.247
L65.7375 378.991
L64.6215 380.107
L64.6215 381.223
L63.5055 382.339
L63.5055 382.711
L63.1335 383.083
L63.1335 383.827
L61.2735 385.687
L61.2735 386.059
L57.9255 389.407
L57.5535 389.407
L56.4375 390.523
L54.9495 390.523
L54.5775 390.895
L53.0895 390.895
L52.7175 391.267
L51.9735 391.267
L51.6015 391.639
z
" style="fill:#008000;opacity:0.6;stroke:#008000;stroke-linejoin:miter;"/>
   </g>
   <g id="patch_4">
    <path clip-path="url(#p01953426ad)" d="
M98.8455 458.599
L98.8455 409.495
L140.509 409.495
L140.509 415.447
L104.053 415.819
L104.053 458.599
z
" style="fill:none;opacity:0.6;stroke:#000000;stroke-linejoin:miter;"/>
   </g>
   <g id="patch_5">
    <path clip-path="url(#p01953426ad)" d="
M56.4375 390.523
L42.6735 391.267
L34.8615 383.827
L31.8855 369.691
L39.3255 359.647
L53.8335 358.159
L66.1095 367.831
L65.7375 378.991
z
" style="fill:none;opacity:0.6;stroke:#000000;stroke-linejoin:miter;"/>
   </g>
   <g id="patch_6">
    <path clip-path="url(#p01953426ad)" d="
M192.217 458.599
L191.473 457.855
L191.473 457.483
L191.101 457.111
L191.101 456.739
L190.729 456.367
L190.729 455.995
L189.985 455.251
L189.985 454.879
L189.613 454.507
L189.613 454.135
L188.869 453.391
L188.869 453.019
L188.497 452.647
L188.497 452.275
L187.753 451.531
L187.753 451.159
L187.381 450.787
L187.381 450.415
L186.637 449.671
L186.637 449.299
L186.265 448.927
L186.265 448.555
L185.893 448.183
L185.893 447.811
L185.149 447.067
L185.149 446.695
L184.777 446.323
L184.777 445.951
L184.033 445.207
L184.033 444.835
L183.661 444.463
L183.661 444.091
L182.917 443.347
L182.917 442.975
L182.545 442.603
L182.545 442.231
L181.801 441.487
L181.801 441.115
L181.429 440.743
L181.429 440.371
L181.057 439.999
L181.057 439.627
L180.313 438.883
L180.313 438.511
L179.941 438.139
L179.941 437.767
L179.197 437.023
L179.197 436.651
L178.825 436.279
L178.825 435.907
L178.081 435.163
L178.081 434.791
L177.709 434.419
L177.709 434.047
L176.965 433.303
L176.965 432.931
L176.593 432.559
L176.593 432.187
L176.221 431.815
L176.221 431.443
L175.477 430.699
L175.477 430.327
L175.105 429.955
L175.105 429.583
L174.361 428.839
L174.361 428.467
L173.989 428.095
L173.989 427.723
L173.245 426.979
L173.245 426.607
L172.873 426.235
L172.873 425.863
L172.129 425.119
L172.129 424.747
L171.757 424.375
L171.757 424.003
L171.385 423.631
L171.385 423.259
L170.641 422.515
L170.641 422.143
L170.269 421.771
L170.269 421.399
L169.525 420.655
L169.525 420.283
L169.153 419.911
L169.153 419.539
L168.409 418.795
L168.409 418.423
L168.037 418.051
L168.037 417.679
L167.293 416.935
L167.293 416.563
L166.921 416.191
L166.921 415.819
L166.549 415.447
L166.549 415.075
L165.805 414.331
L165.805 413.959
L218.629 413.959
L218.629 414.331
L218.257 414.703
L218.257 415.075
L217.513 415.819
L217.513 416.191
L217.141 416.563
L217.141 416.935
L216.397 417.679
L216.397 418.051
L216.025 418.423
L216.025 418.795
L215.281 419.539
L215.281 419.911
L214.909 420.283
L214.909 420.655
L214.537 421.027
L214.537 421.399
L213.793 422.143
L213.793 422.515
L213.421 422.887
L213.421 423.259
L212.677 424.003
L212.677 424.375
L212.305 424.747
L212.305 425.119
L211.561 425.863
L211.561 426.235
L211.189 426.607
L211.189 426.979
L210.445 427.723
L210.445 428.095
L210.073 428.467
L210.073 428.839
L209.701 429.211
L209.701 429.583
L208.957 430.327
L208.957 430.699
L208.585 431.071
L208.585 431.443
L207.841 432.187
L207.841 432.559
L207.469 432.931
L207.469 433.303
L206.725 434.047
L206.725 434.419
L206.353 434.791
L206.353 435.163
L205.609 435.907
L205.609 436.279
L205.237 436.651
L205.237 437.023
L204.865 437.395
L204.865 437.767
L204.121 438.511
L204.121 438.883
L203.749 439.255
L203.749 439.627
L203.005 440.371
L203.005 440.743
L202.633 441.115
L202.633 441.487
L201.889 442.231
L201.889 442.603
L201.517 442.975
L201.517 443.347
L200.773 444.091
L200.773 444.463
L200.401 444.835
L200.401 445.207
L200.029 445.579
L200.029 445.951
L199.285 446.695
L199.285 447.067
L198.913 447.439
L198.913 447.811
L198.169 448.555
L198.169 448.927
L197.797 449.299
L197.797 449.671
L197.053 450.415
L197.053 450.787
L196.681 451.159
L196.681 451.531
L195.937 452.275
L195.937 452.647
L195.565 453.019
L195.565 453.391
L195.193 453.763
L195.193 454.135
L194.449 454.879
L194.449 455.251
L194.077 455.623
L194.077 455.995
L193.333 456.739
L193.333 457.111
L192.961 457.483
L192.961 457.855
z
" style="opacity:0.6;stroke:#000000;stroke-linejoin:miter;"/>
   </g>
   <g id="patch_7">
    <path clip-path="url(#p01953426ad)" d="
M218.629 414.331
L192.217 458.599
L165.805 413.959
z
" style="fill:none;opacity:0.6;stroke:#000000;stroke-linejoin:miter;"/>
   </g>
   <g id="patch_8">
    <path clip-path="url(#p01953426ad)" d="
M56.4375 390.523
L42.6735 391.267
L34.8615 383.827
L31.8855 369.691
L39.3255 359.647
L53.8335 358.159
L66.1095 367.831
L65.7375 378.991
z
" style="fill:none;opacity:0.6;stroke:#000000;stroke-linejoin:miter;"/>
   </g>
   <g id="patch_9">
    <path clip-path="url(#p01953426ad)" d="
M232.765 458.599
L232.765 413.959
L277.405 413.959
L277.405 458.599
z
" style="opacity:0.6;stroke:#000000;stroke-linejoin:miter;"/>
   </g>
   <g id="patch_10">
    <path clip-path="url(#p01953426ad)" d="
M232.765 458.599
L232.765 413.959
L277.405 413.959
L277.405 458.599
z
" style="fill:none;opacity:0.6;stroke:#000000;stroke-linejoin:miter;"/>
   </g>
   <g id="patch_11">
    <path clip-path="url(#p01953426ad)" d="
M56.4375 390.523
L42.6735 391.267
L34.8615 383.827
L31.8855 369.691
L39.3255 359.647
L53.8335 358.159
L66.1095 367.831
L65.7375 378.991
z
" style="fill:none;opacity:0.6;stroke:#000000;stroke-linejoin:miter;"/>
   </g>
   <g id="patch_12">
    <path clip-path="url(#p01953426ad)" d="
M321.673 458.599
L321.673 437.023
L321.301 436.651
L299.725 436.651
L299.725 430.327
L321.301 430.327
L321.673 429.955
L321.673 408.379
L327.997 408.379
L327.997 429.955
L328.369 430.327
L349.945 430.327
L349.945 436.651
L328.369 436.651
L327.997 437.023
L327.997 458.599
z
" style="opacity:0.6;stroke:#000000;stroke-linejoin:miter;"/>
   </g>
   <g id="patch_13">
    <path clip-path="url(#p01953426ad)" d="
M321.673 458.599
L321.673 437.023
L299.725 436.651
L299.725 430.327
L321.301 430.327
L321.673 408.379
L327.997 408.379
L327.997 429.955
L349.945 430.327
L349.945 436.651
L328.369 436.651
L327.997 458.599
z
" style="fill:none;opacity:0.6;stroke:#000000;stroke-linejoin:miter;"/>
   </g>
   <g id="patch_14">
    <path clip-path="url(#p01953426ad)" d="
M56.4375 390.523
L42.6735 391.267
L34.8615 383.827
L31.8855 369.691
L39.3255 359.647
L53.8335 358.159
L66.1095 367.831
L65.7375 378.991
z
" style="fill:none;opacity:0.6;stroke:#000000;stroke-linejoin:miter;"/>
   </g>
   <g id="patch_15">
    <path clip-path="url(#p01953426ad)" d="
M388.261 458.599
L387.889 458.227
L386.029 458.227
L385.657 457.855
L384.913 457.855
L384.541 457.483
L383.797 457.483
L383.425 457.111
L382.681 457.111
L382.309 456.739
L381.565 456.739
L381.193 456.367
L380.821 456.367
L380.449 455.995
L380.077 455.995
L379.705 455.623
L379.333 455.623
L378.589 454.879
L378.217 454.879
L377.845 454.507
L377.473 454.507
L376.357 453.391
L375.985 453.391
L371.893 449.299
L371.893 448.927
L370.777 447.811
L370.777 447.439
L370.405 447.067
L370.405 446.695
L369.661 445.951
L369.661 445.579
L369.289 445.207
L369.289 444.835
L368.917 444.463
L368.917 444.091
L368.545 443.719
L368.545 442.975
L368.173 442.603
L368.173 442.231
L367.801 441.859
L367.801 441.115
L367.429 440.743
L367.429 439.627
L367.057 439.255
L367.057 437.767
L366.685 437.395
L366.685 429.583
L367.057 429.211
L367.057 427.723
L367.429 427.351
L367.429 426.235
L367.801 425.863
L367.801 425.119
L368.173 424.747
L368.173 424.003
L368.545 423.631
L368.545 423.259
L368.917 422.887
L368.917 422.515
L369.289 422.143
L369.289 421.771
L369.661 421.399
L369.661 421.027
L370.033 420.655
L370.033 420.283
L370.777 419.539
L370.777 419.167
L371.521 418.423
L371.521 418.051
L376.357 413.215
L376.729 413.215
L377.473 412.471
L377.845 412.471
L378.589 411.727
L378.961 411.727
L379.333 411.355
L379.705 411.355
L380.077 410.983
L380.449 410.983
L380.821 410.611
L381.193 410.611
L381.565 410.239
L381.937 410.239
L382.309 409.867
L383.053 409.867
L383.425 409.495
L384.169 409.495
L384.541 409.123
L385.657 409.123
L386.029 408.751
L387.145 408.751
L387.517 408.379
L396.073 408.379
L396.445 408.751
L397.933 408.751
L398.305 409.123
L399.421 409.123
L399.793 409.495
L400.165 409.495
L400.537 409.867
L401.281 409.867
L401.653 410.239
L402.025 410.239
L402.397 410.611
L402.769 410.611
L403.141 410.983
L403.885 410.983
L404.629 411.727
L405.001 411.727
L405.745 412.471
L406.117 412.471
L406.861 413.215
L407.233 413.215
L409.093 415.075
L409.465 415.075
L410.209 415.819
L410.209 416.191
L412.069 418.051
L412.069 418.423
L412.813 419.167
L412.813 419.539
L413.557 420.283
L413.557 420.655
L414.301 421.399
L414.301 422.143
L414.673 422.515
L414.673 422.887
L415.045 423.259
L415.045 423.631
L415.417 424.003
L415.417 424.747
L415.789 425.119
L415.789 425.491
L416.161 425.863
L416.161 426.979
L416.533 427.351
L416.533 428.839
L416.905 429.211
L416.905 437.395
L416.533 437.767
L416.533 439.255
L416.161 439.627
L416.161 440.743
L415.789 441.115
L415.789 441.859
L415.417 442.231
L415.417 442.975
L415.045 443.347
L415.045 443.719
L414.673 444.091
L414.673 444.463
L414.301 444.835
L414.301 445.207
L413.929 445.579
L413.929 445.951
L413.557 446.323
L413.557 446.695
L412.813 447.439
L412.813 447.811
L411.697 448.927
L411.697 449.299
L407.605 453.391
L407.233 453.391
L406.117 454.507
L405.745 454.507
L405.373 454.879
L405.001 454.879
L404.257 455.623
L403.885 455.623
L403.513 455.995
L403.141 455.995
L402.769 456.367
L402.397 456.367
L402.025 456.739
L401.281 456.739
L400.909 457.111
L400.537 457.111
L400.165 457.483
L399.421 457.483
L399.049 457.855
L397.933 457.855
L397.561 458.227
L395.701 458.227
L395.329 458.599
z
" style="opacity:0.6;stroke:#000000;stroke-linejoin:miter;"/>
   </g>
   <g id="patch_16">
    <path clip-path="url(#p01953426ad)" d="
M386.029 458.227
L377.473 454.507
L369.661 445.951
L366.685 437.395
L367.429 426.235
L378.589 411.727
L387.517 408.379
L399.421 409.123
L414.301 421.399
L416.161 440.743
L404.257 455.623
z
" style="fill:none;opacity:0.6;stroke:#000000;stroke-linejoin:miter;"/>
   </g>
   <g id="patch_17">
    <path clip-path="url(#p01953426ad)" d="
M56.4375 390.523
L42.6735 391.267
L34.8615 383.827
L31.8855 369.691
L39.3255 359.647
L53.8335 358.159
L66.1095 367.831
L65.7375 378.991
z
" style="fill:none;opacity:0.6;stroke:#000000;stroke-linejoin:miter;"/>
   </g>
   <g id="patch_18">
    <path clip-path="url(#p01953426ad)" d="
M37.4655 324.679
L37.0935 324.307
L36.3495 324.307
L35.2335 323.191
L35.2335 322.819
L34.4895 322.075
L34.4895 321.331
L34.1175 320.959
L34.1175 319.843
L34.4895 319.471
L34.4895 318.727
L35.9775 317.239
L36.7215 317.239
L37.0935 316.867
L37.0935 316.495
L38.2095 315.379
L38.2095 315.007
L39.3255 313.891
L40.0695 313.891
L40.4415 313.519
L40.8135 313.519
L41.5575 312.775
L41.5575 312.403
L42.6735 311.287
L43.0455 311.287
L44.5335 309.799
L44.9055 309.799
L45.6495 309.055
L46.0215 309.055
L47.1375 307.939
L46.7655 307.567
L46.3935 307.567
L46.0215 307.195
L45.6495 307.195
L44.9055 306.451
L44.5335 306.451
L43.4175 305.335
L43.0455 305.335
L39.3255 301.615
L38.5815 301.615
L37.0935 300.127
L36.7215 300.127
L32.2575 295.663
L32.2575 295.291
L31.8855 294.919
L31.8855 293.803
L32.2575 293.431
L32.2575 292.687
L33.0015 291.943
L33.7455 291.943
L34.1175 291.571
L34.4895 291.943
L35.2335 291.943
L36.3495 293.059
L36.7215 293.059
L38.2095 294.547
L38.5815 294.547
L41.1855 297.151
L41.5575 297.151
L44.9055 300.499
L45.2775 300.499
L46.0215 301.243
L47.5095 301.243
L47.8815 301.615
L48.2535 301.615
L49.7415 303.103
L50.4855 303.103
L51.2295 303.847
L52.7175 302.359
L52.7175 301.987
L53.4615 301.243
L53.4615 300.871
L55.6935 298.639
L55.6935 298.267
L58.6695 295.291
L58.6695 294.919
L61.6455 291.943
L61.6455 291.571
L62.0175 291.199
L62.0175 290.827
L62.3895 290.455
L62.3895 290.083
L63.1335 289.339
L63.5055 289.339
L64.2495 288.595
L64.6215 288.595
L65.7375 287.479
L66.1095 287.479
L66.4815 287.107
L66.8535 287.107
L67.2255 286.735
L67.9695 286.735
L68.3415 286.363
L70.2015 286.363
L70.5735 286.735
L70.9455 286.735
L71.6895 287.479
L71.6895 287.851
L72.0615 288.223
L72.0615 288.967
L71.6895 289.339
L71.6895 289.711
L71.3175 290.083
L71.3175 290.455
L70.9455 290.827
L70.9455 291.199
L66.8535 295.291
L66.8535 295.663
L65.7375 296.779
L65.7375 297.151
L64.2495 298.639
L64.2495 299.011
L63.8775 299.011
L63.5055 299.383
L63.5055 299.755
L60.5295 302.731
L60.5295 303.103
L59.4135 304.219
L59.4135 304.591
L58.6695 305.335
L58.2975 305.335
L57.9255 305.707
L57.5535 305.707
L56.4375 306.823
L56.4375 307.195
L56.8095 307.567
L57.1815 307.567
L57.5535 307.939
L57.9255 307.939
L59.0415 309.055
L59.4135 309.055
L59.7855 309.427
L60.1575 309.427
L60.5295 309.799
L61.2735 309.799
L62.0175 310.543
L62.7615 310.543
L63.1335 310.915
L63.5055 310.915
L64.2495 311.659
L64.6215 311.659
L65.3655 312.403
L65.7375 312.403
L67.9695 314.635
L68.3415 314.635
L69.4575 315.751
L70.2015 315.751
L71.6895 317.239
L71.6895 317.611
L72.0615 317.983
L72.0615 319.471
L71.6895 319.843
L71.6895 320.587
L70.9455 321.331
L70.5735 321.331
L70.2015 321.703
L70.2015 322.447
L69.0855 323.563
L67.9695 323.563
L67.5975 323.935
L66.4815 323.935
L66.1095 323.563
L65.7375 323.563
L64.9935 322.819
L64.9935 322.447
L64.6215 322.075
L64.6215 320.959
L62.7615 319.099
L62.3895 319.099
L62.0175 318.727
L61.6455 318.727
L60.1575 317.239
L59.4135 317.239
L58.6695 316.495
L58.6695 316.123
L58.2975 315.751
L57.9255 315.751
L57.9255 315.379
L57.1815 314.635
L56.4375 314.635
L54.5775 312.775
L54.2055 312.775
L53.0895 311.659
L51.2295 313.519
L50.8575 313.519
L49.7415 314.635
L49.3695 314.635
L48.2535 315.751
L47.8815 315.751
L47.5095 316.123
L47.1375 316.123
L45.2775 317.983
L45.2775 318.355
L43.7895 319.843
L43.4175 319.843
L43.0455 320.215
L43.0455 320.587
L42.6735 320.959
L42.3015 320.959
L41.9295 321.331
L41.9295 321.703
L40.8135 322.819
L40.4415 322.819
L38.9535 324.307
L38.5815 324.307
L38.2095 324.679
z
" style="fill:#008000;opacity:0.6;stroke:#008000;stroke-linejoin:miter;"/>
   </g>
   <g id="patch_19">
    <path clip-path="url(#p01953426ad)" d="
M98.8455 458.599
L98.8455 409.495
L140.509 409.495
L140.509 415.447
L104.053 415.819
L104.053 458.599
z
" style="fill:none;opacity:0.6;stroke:#000000;stroke-linejoin:miter;"/>
   </g>
   <g id="patch_20">
    <path clip-path="url(#p01953426ad)" d="
M36.3495 324.307
L34.4895 318.727
L47.1375 307.939
L32.2575 292.687
L51.2295 303.847
L63.1335 289.339
L70.9455 286.735
L56.4375 306.823
L71.6895 317.239
L70.2015 322.447
L65.7375 323.563
L53.0895 311.659
z
" style="fill:none;opacity:0.6;stroke:#000000;stroke-linejoin:miter;"/>
   </g>
   <g id="patch_21">
    <path clip-path="url(#p01953426ad)" d="
M218.629 414.331
L192.217 458.599
L165.805 413.959
z
" style="fill:none;opacity:0.6;stroke:#000000;stroke-linejoin:miter;"/>
   </g>
   <g id="patch_22">
    <path clip-path="url(#p01953426ad)" d="
M36.3495 324.307
L34.4895 318.727
L47.1375 307.939
L32.2575 292.687
L51.2295 303.847
L63.1335 289.339
L70.9455 286.735
L56.4375 306.823
L71.6895 317.239
L70.2015 322.447
L65.7375 323.563
L53.0895 311.659
z
" style="fill:none;opacity:0.6;stroke:#000000;stroke-linejoin:miter;"/>
   </g>
   <g id="patch_23">
    <path clip-path="url(#p01953426ad)" d="
M232.765 458.599
L232.765 413.959
L277.405 413.959
L277.405 458.599
z
" style="fill:none;opacity:0.6;stroke:#000000;stroke-linejoin:miter;"/>
   </g>
   <g id="patch_24">
    <path clip-path="url(#p01953426ad)" d="
M36.3495 324.307
L34.4895 318.727
L47.1375 307.939
L32.2575 292.687
L51.2295 303.847
L63.1335 289.339
L70.9455 286.735
L56.4375 306.823
L71.6895 317.239
L70.2015 322.447
L65.7375 323.563
L53.0895 311.659
z
" style="fill:none;opacity:0.6;stroke:#000000;stroke-linejoin:miter;"/>
   </g>
   <g id="patch_25">
    <path clip-path="url(#p01953426ad)" d="
M321.673 458.599
L321.673 437.023
L299.725 436.651
L299.725 430.327
L321.301 430.327
L321.673 408.379
L327.997 408.379
L327.997 429.955
L349.945 430.327
L349.945 436.651
L328.369 436.651
L327.997 458.599
z
" style="fill:none;opacity:0.6;stroke:#000000;stroke-linejoin:miter;"/>
   </g>
   <g id="patch_26">
    <path clip-path="url(#p01953426ad)" d="
M36.3495 324.307
L34.4895 318.727
L47.1375 307.939
L32.2575 292.687
L51.2295 303.847
L63.1335 289.339
L70.9455 286.735
L56.4375 306.823
L71.6895 317.239
L70.2015 322.447
L65.7375 323.563
L53.0895 311.659
z
" style="fill:none;opacity:0.6;stroke:#000000;stroke-linejoin:miter;"/>
   </g>
   <g id="patch_27">
    <path clip-path="url(#p01953426ad)" d="
M386.029 458.227
L377.473 454.507
L369.661 445.951
L366.685 437.395
L367.429 426.235
L378.589 411.727
L387.517 408.379
L399.421 409.123
L414.301 421.399
L416.161 440.743
L404.257 455.623
z
" style="fill:none;opacity:0.6;stroke:#000000;stroke-linejoin:miter;"/>
   </g>
   <g id="patch_28">
    <path clip-path="url(#p01953426ad)" d="
M36.3495 324.307
L34.4895 318.727
L47.1375 307.939
L32.2575 292.687
L51.2295 303.847
L63.1335 289.339
L70.9455 286.735
L56.4375 306.823
L71.6895 317.239
L70.2015 322.447
L65.7375 323.563
L53.0895 311.659
z
" style="fill:none;opacity:0.6;stroke:#000000;stroke-linejoin:miter;"/>
   </g>
   <g id="patch_29">
    <path clip-path="url(#p01953426ad)" d="
M33.7455 257.719
L33.3735 257.347
L33.0015 257.347
L32.2575 256.603
L32.2575 256.231
L31.8855 255.859
L31.8855 253.627
L32.2575 253.255
L32.2575 252.883
L33.0015 252.139
L33.3735 252.139
L33.7455 251.767
L35.2335 251.767
L35.6055 251.395
L37.8375 251.395
L38.2095 251.023
L40.0695 251.023
L40.4415 250.651
L41.9295 250.651
L42.3015 250.279
L52.7175 250.279
L53.0895 250.651
L53.4615 250.651
L53.8335 251.023
L54.5775 251.023
L54.9495 251.395
L56.0655 251.395
L56.4375 251.767
L57.1815 251.767
L57.5535 251.395
L57.5535 240.235
L57.1815 239.863
L57.1815 217.171
L57.5535 216.799
L57.5535 216.427
L58.6695 215.311
L59.0415 215.311
L59.4135 214.939
L60.9015 214.939
L61.2735 215.311
L61.6455 215.311
L62.7615 216.427
L62.7615 216.799
L63.1335 217.171
L63.1335 237.631
L63.5055 238.003
L63.5055 255.115
L63.1335 255.487
L63.1335 255.859
L62.0175 256.975
L61.6455 256.975
L61.2735 257.347
L60.9015 257.347
L60.5295 257.719
L53.8335 257.719
L53.4615 257.347
L53.0895 257.347
L52.7175 256.975
L51.6015 256.975
L51.2295 256.603
L50.8575 256.603
L50.4855 256.231
L45.6495 256.231
L45.2775 256.603
L43.4175 256.603
L43.0455 256.975
L41.9295 256.975
L41.5575 257.347
L39.3255 257.347
L38.9535 257.719
z
" style="fill:#008000;opacity:0.6;stroke:#008000;stroke-linejoin:miter;"/>
   </g>
   <g id="patch_30">
    <path clip-path="url(#p01953426ad)" d="
M98.8455 458.599
L98.8455 409.495
L140.509 409.495
L140.509 415.447
L104.053 415.819
L104.053 458.599
z
" style="fill:none;opacity:0.6;stroke:#000000;stroke-linejoin:miter;"/>
   </g>
   <g id="patch_31">
    <path clip-path="url(#p01953426ad)" d="
M33.0015 257.347
L33.7455 251.767
L57.5535 251.395
L57.1815 217.171
L61.6455 215.311
L63.1335 255.859
z
" style="fill:none;opacity:0.6;stroke:#000000;stroke-linejoin:miter;"/>
   </g>
   <g id="patch_32">
    <path clip-path="url(#p01953426ad)" d="
M218.629 414.331
L192.217 458.599
L165.805 413.959
z
" style="fill:none;opacity:0.6;stroke:#000000;stroke-linejoin:miter;"/>
   </g>
   <g id="patch_33">
    <path clip-path="url(#p01953426ad)" d="
M33.0015 257.347
L33.7455 251.767
L57.5535 251.395
L57.1815 217.171
L61.6455 215.311
L63.1335 255.859
z
" style="fill:none;opacity:0.6;stroke:#000000;stroke-linejoin:miter;"/>
   </g>
   <g id="patch_34">
    <path clip-path="url(#p01953426ad)" d="
M232.765 458.599
L232.765 413.959
L277.405 413.959
L277.405 458.599
z
" style="fill:none;opacity:0.6;stroke:#000000;stroke-linejoin:miter;"/>
   </g>
   <g id="patch_35">
    <path clip-path="url(#p01953426ad)" d="
M33.0015 257.347
L33.7455 251.767
L57.5535 251.395
L57.1815 217.171
L61.6455 215.311
L63.1335 255.859
z
" style="fill:none;opacity:0.6;stroke:#000000;stroke-linejoin:miter;"/>
   </g>
   <g id="patch_36">
    <path clip-path="url(#p01953426ad)" d="
M321.673 458.599
L321.673 437.023
L299.725 436.651
L299.725 430.327
L321.301 430.327
L321.673 408.379
L327.997 408.379
L327.997 429.955
L349.945 430.327
L349.945 436.651
L328.369 436.651
L327.997 458.599
z
" style="fill:none;opacity:0.6;stroke:#000000;stroke-linejoin:miter;"/>
   </g>
   <g id="patch_37">
    <path clip-path="url(#p01953426ad)" d="
M33.0015 257.347
L33.7455 251.767
L57.5535 251.395
L57.1815 217.171
L61.6455 215.311
L63.1335 255.859
z
" style="fill:none;opacity:0.6;stroke:#000000;stroke-linejoin:miter;"/>
   </g>
   <g id="patch_38">
    <path clip-path="url(#p01953426ad)" d="
M386.029 458.227
L377.473 454.507
L369.661 445.951
L366.685 437.395
L367.429 426.235
L378.589 411.727
L387.517 408.379
L399.421 409.123
L414.301 421.399
L416.161 440.743
L404.257 455.623
z
" style="fill:none;opacity:0.6;stroke:#000000;stroke-linejoin:miter;"/>
   </g>
   <g id="patch_39">
    <path clip-path="url(#p01953426ad)" d="
M33.0015 257.347
L33.7455 251.767
L57.5535 251.395
L57.1815 217.171
L61.6455 215.311
L63.1335 255.859
z
" style="fill:none;opacity:0.6;stroke:#000000;stroke-linejoin:miter;"/>
   </g>
   <g id="patch_40">
    <path clip-path="url(#p01953426ad)" d="
M48.9975 190.759
L48.6255 190.387
L43.4175 190.387
L43.0455 190.015
L41.1855 190.015
L40.8135 189.643
L39.6975 189.643
L39.3255 189.271
L38.5815 189.271
L38.2095 188.899
L36.7215 188.899
L36.3495 188.527
L34.4895 188.527
L33.7455 189.271
L32.6295 189.271
L31.8855 188.527
L31.8855 187.411
L33.0015 186.295
L33.0015 184.435
L33.3735 184.063
L33.3735 182.575
L33.7455 182.203
L33.7455 180.343
L34.1175 179.971
L34.1175 172.531
L34.4895 172.159
L34.4895 170.671
L34.8615 170.299
L34.8615 162.115
L34.1175 161.371
L34.1175 160.255
L33.7455 159.883
L33.7455 152.815
L34.4895 152.071
L34.4895 150.955
L35.2335 150.211
L35.6055 150.211
L36.3495 149.467
L51.2295 149.467
L51.6015 149.839
L52.3455 149.839
L52.7175 150.211
L53.8335 150.211
L54.5775 150.955
L56.0655 150.955
L56.4375 151.327
L58.6695 151.327
L59.0415 151.699
L59.4135 151.699
L59.7855 152.071
L60.5295 152.071
L60.9015 152.443
L66.1095 152.443
L66.4815 152.071
L66.4815 151.699
L67.2255 150.955
L67.9695 150.955
L68.7135 151.699
L68.7135 154.675
L69.0855 155.047
L69.0855 160.999
L69.4575 161.371
L69.4575 166.207
L69.8295 166.579
L69.8295 168.811
L70.2015 169.183
L70.2015 182.575
L69.8295 182.947
L69.8295 184.063
L69.4575 184.435
L69.4575 185.179
L69.0855 185.551
L69.0855 186.667
L68.7135 187.039
L68.7135 190.015
L67.9695 190.759
z
" style="fill:#008000;opacity:0.6;stroke:#008000;stroke-linejoin:miter;"/>
   </g>
   <g id="patch_41">
    <path clip-path="url(#p01953426ad)" d="
M98.8455 458.599
L98.8455 409.495
L140.509 409.495
L140.509 415.447
L104.053 415.819
L104.053 458.599
z
" style="fill:none;opacity:0.6;stroke:#000000;stroke-linejoin:miter;"/>
   </g>
   <g id="patch_42">
    <path clip-path="url(#p01953426ad)" d="
M32.6295 189.271
L34.4895 150.955
L67.9695 150.955
L68.7135 190.015
z
" style="fill:none;opacity:0.6;stroke:#000000;stroke-linejoin:miter;"/>
   </g>
   <g id="patch_43">
    <path clip-path="url(#p01953426ad)" d="
M218.629 414.331
L192.217 458.599
L165.805 413.959
z
" style="fill:none;opacity:0.6;stroke:#000000;stroke-linejoin:miter;"/>
   </g>
   <g id="patch_44">
    <path clip-path="url(#p01953426ad)" d="
M32.6295 189.271
L34.4895 150.955
L67.9695 150.955
L68.7135 190.015
z
" style="fill:none;opacity:0.6;stroke:#000000;stroke-linejoin:miter;"/>
   </g>
   <g id="patch_45">
    <path clip-path="url(#p01953426ad)" d="
M232.765 458.599
L232.765 413.959
L277.405 413.959
L277.405 458.599
z
" style="fill:none;opacity:0.6;stroke:#000000;stroke-linejoin:miter;"/>
   </g>
   <g id="patch_46">
    <path clip-path="url(#p01953426ad)" d="
M32.6295 189.271
L34.4895 150.955
L67.9695 150.955
L68.7135 190.015
z
" style="fill:none;opacity:0.6;stroke:#000000;stroke-linejoin:miter;"/>
   </g>
   <g id="patch_47">
    <path clip-path="url(#p01953426ad)" d="
M321.673 458.599
L321.673 437.023
L299.725 436.651
L299.725 430.327
L321.301 430.327
L321.673 408.379
L327.997 408.379
L327.997 429.955
L349.945 430.327
L349.945 436.651
L328.369 436.651
L327.997 458.599
z
" style="fill:none;opacity:0.6;stroke:#000000;stroke-linejoin:miter;"/>
   </g>
   <g id="patch_48">
    <path clip-path="url(#p01953426ad)" d="
M32.6295 189.271
L34.4895 150.955
L67.9695 150.955
L68.7135 190.015
z
" style="fill:none;opacity:0.6;stroke:#000000;stroke-linejoin:miter;"/>
   </g>
   <g id="patch_49">
    <path clip-path="url(#p01953426ad)" d="
M386.029 458.227
L377.473 454.507
L369.661 445.951
L366.685 437.395
L367.429 426.235
L378.589 411.727
L387.517 408.379
L399.421 409.123
L414.301 421.399
L416.161 440.743
L404.257 455.623
z
" style="fill:none;opacity:0.6;stroke:#000000;stroke-linejoin:miter;"/>
   </g>
   <g id="patch_50">
    <path clip-path="url(#p01953426ad)" d="
M32.6295 189.271
L34.4895 150.955
L67.9695 150.955
L68.7135 190.015
z
" style="fill:none;opacity:0.6;stroke:#000000;stroke-linejoin:miter;"/>
   </g>
   <g id="patch_51">
    <path clip-path="url(#p01953426ad)" d="
M58.6695 123.799
L57.9255 123.055
L57.9255 121.567
L57.5535 121.195
L57.5535 120.823
L56.4375 119.707
L56.4375 119.335
L56.0655 118.963
L56.0655 118.591
L55.6935 118.219
L55.6935 117.847
L52.7175 114.871
L52.3455 114.871
L51.2295 113.755
L51.2295 113.383
L48.9975 111.151
L48.9975 110.779
L44.9055 106.687
L44.9055 106.315
L44.1615 105.571
L44.1615 105.199
L40.4415 101.479
L40.4415 100.735
L39.3255 99.6188
L39.3255 99.2468
L31.8855 91.8068
L31.8855 90.3188
L32.6295 89.5748
L43.0455 89.5748
L43.7895 88.8308
L46.0215 88.8308
L46.3935 88.4588
L48.2535 88.4588
L48.6255 88.0868
L60.1575 88.0868
L60.5295 87.7148
L61.2735 87.7148
L61.6455 87.3428
L62.0175 87.3428
L62.3895 86.9708
L62.7615 86.9708
L63.1335 86.5988
L63.8775 86.5988
L64.2495 86.2268
L65.3655 86.2268
L65.7375 85.8548
L66.8535 85.8548
L67.2255 85.4828
L67.5975 85.4828
L67.9695 85.1108
L68.3415 85.1108
L69.0855 84.3668
L69.4575 84.3668
L69.8295 83.9948
L70.2015 83.9948
L70.5735 83.6228
L71.6895 83.6228
L72.0615 83.2508
L72.4335 83.2508
L72.8055 82.8788
L74.2935 82.8788
L75.0375 83.6228
L75.0375 85.8548
L74.6655 86.2268
L74.6655 86.9708
L73.1775 88.4588
L73.1775 88.8308
L72.4335 89.5748
L72.4335 90.3188
L71.6895 91.0628
L71.6895 91.4348
L71.3175 91.8068
L71.3175 92.1788
L70.9455 92.5508
L70.9455 92.9228
L69.4575 94.4108
L69.4575 94.7828
L68.7135 95.5268
L68.7135 96.2708
L67.9695 97.0148
L67.9695 97.7588
L67.5975 98.1308
L67.5975 98.5028
L67.2255 98.8748
L67.2255 100.363
L66.4815 101.107
L66.4815 102.595
L66.1095 102.967
L66.1095 103.711
L65.7375 104.083
L65.7375 104.827
L65.3655 105.199
L65.3655 106.687
L64.6215 107.431
L64.6215 109.663
L64.2495 110.035
L64.2495 110.779
L63.8775 111.151
L63.8775 112.639
L63.5055 113.011
L63.5055 113.383
L62.7615 114.127
L62.7615 115.243
L62.3895 115.615
L62.3895 116.731
L61.6455 117.475
L61.6455 118.591
L61.2735 118.963
L61.2735 119.335
L60.5295 120.079
L60.5295 121.939
L60.1575 122.311
L60.1575 123.055
L59.4135 123.799
z
" style="fill:#008000;opacity:0.6;stroke:#008000;stroke-linejoin:miter;"/>
   </g>
   <g id="patch_52">
    <path clip-path="url(#p01953426ad)" d="
M98.8455 458.599
L98.8455 409.495
L140.509 409.495
L140.509 415.447
L104.053 415.819
L104.053 458.599
z
" style="fill:none;opacity:0.6;stroke:#000000;stroke-linejoin:miter;"/>
   </g>
   <g id="patch_53">
    <path clip-path="url(#p01953426ad)" d="
M58.6695 123.799
L31.8855 90.3188
L74.2935 82.8788
z
" style="fill:none;opacity:0.6;stroke:#000000;stroke-linejoin:miter;"/>
   </g>
   <g id="patch_54">
    <path clip-path="url(#p01953426ad)" d="
M218.629 414.331
L192.217 458.599
L165.805 413.959
z
" style="fill:none;opacity:0.6;stroke:#000000;stroke-linejoin:miter;"/>
   </g>
   <g id="patch_55">
    <path clip-path="url(#p01953426ad)" d="
M58.6695 123.799
L31.8855 90.3188
L74.2935 82.8788
z
" style="fill:none;opacity:0.6;stroke:#000000;stroke-linejoin:miter;"/>
   </g>
   <g id="patch_56">
    <path clip-path="url(#p01953426ad)" d="
M232.765 458.599
L232.765 413.959
L277.405 413.959
L277.405 458.599
z
" style="fill:none;opacity:0.6;stroke:#000000;stroke-linejoin:miter;"/>
   </g>
   <g id="patch_57">
    <path clip-path="url(#p01953426ad)" d="
M58.6695 123.799
L31.8855 90.3188
L74.2935 82.8788
z
" style="fill:none;opacity:0.6;stroke:#000000;stroke-linejoin:miter;"/>
   </g>
   <g id="patch_58">
    <path clip-path="url(#p01953426ad)" d="
M321.673 458.599
L321.673 437.023
L299.725 436.651
L299.725 430.327
L321.301 430.327
L321.673 408.379
L327.997 408.379
L327.997 429.955
L349.945 430.327
L349.945 436.651
L328.369 436.651
L327.997 458.599
z
" style="fill:none;opacity:0.6;stroke:#000000;stroke-linejoin:miter;"/>
   </g>
   <g id="patch_59">
    <path clip-path="url(#p01953426ad)" d="
M58.6695 123.799
L31.8855 90.3188
L74.2935 82.8788
z
" style="fill:none;opacity:0.6;stroke:#000000;stroke-linejoin:miter;"/>
   </g>
   <g id="patch_60">
    <path clip-path="url(#p01953426ad)" d="
M386.029 458.227
L377.473 454.507
L369.661 445.951
L366.685 437.395
L367.429 426.235
L378.589 411.727
L387.517 408.379
L399.421 409.123
L414.301 421.399
L416.161 440.743
L404.257 455.623
z
" style="fill:none;opacity:0.6;stroke:#000000;stroke-linejoin:miter;"/>
   </g>
   <g id="patch_61">
    <path clip-path="url(#p01953426ad)" d="
M58.6695 123.799
L31.8855 90.3188
L74.2935 82.8788
z
" style="fill:none;opacity:0.6;stroke:#000000;stroke-linejoin:miter;"/>
   </g>
   <g id="text_1">
    <!-- 0 -->
    <defs>
     <path d="
M50.3906 35.7969
Q50.3906 27.1562 49.1406 20.3125
Q47.9062 13.4844 45.1406 8.73438
Q42.3906 4 38.0312 1.5
Q33.6875 -0.984375 27.4844 -0.984375
Q21.7344 -0.984375 17.4531 1.5
Q13.1875 4 10.375 8.73438
Q7.5625 13.4844 6.17188 20.3125
Q4.78125 27.1562 4.78125 35.7969
Q4.78125 44.4375 6.03125 51.2656
Q7.28125 58.1094 9.98438 62.8125
Q12.7031 67.5312 17.0156 70.0156
Q21.3438 72.5156 27.4844 72.5156
Q33.2969 72.5156 37.5938 70.0469
Q41.8906 67.5781 44.7188 62.8594
Q47.5625 58.1562 48.9688 51.3125
Q50.3906 44.4844 50.3906 35.7969
M13.8125 35.7969
Q13.8125 28.4688 14.5469 23
Q15.2812 17.5312 16.8906 13.8906
Q18.5 10.25 21.1094 8.42188
Q23.7344 6.59375 27.4844 6.59375
Q31.25 6.59375 33.8906 8.39062
Q36.5312 10.2031 38.2031 13.8125
Q39.8906 17.4375 40.6406 22.9219
Q41.4062 28.4219 41.4062 35.7969
Q41.4062 43.1094 40.6406 48.5781
Q39.8906 54.0469 38.2031 57.6562
Q36.5312 61.2812 33.8906 63.0781
Q31.25 64.8906 27.4844 64.8906
Q23.7344 64.8906 21.1094 63.0781
Q18.5 61.2812 16.8906 57.6562
Q15.2812 54.0469 14.5469 48.5781
Q13.8125 43.1094 13.8125 35.7969" id="WenQuanYiMicroHei-30"/>
    </defs>
    <g transform="translate(115.74081625 477.198780938)scale(0.14 -0.14)">
     <use xlink:href="#WenQuanYiMicroHei-30"/>
    </g>
   </g>
   <g id="text_2">
    <!-- 0 -->
    <g transform="translate(10.09281625 371.550780938)scale(0.14 -0.14)">
     <use xlink:href="#WenQuanYiMicroHei-30"/>
    </g>
   </g>
   <g id="text_3">
    <!-- 0.9164 -->
    <defs>
     <path d="
M50.2031 40.9219
Q50.2031 35.7969 49.6875 30.6875
Q49.1719 25.5938 47.875 20.9531
Q46.5781 16.3125 44.3281 12.2812
Q42.0938 8.25 38.625 5.3125
Q35.1562 2.39062 30.3125 0.703125
Q25.4844 -0.984375 19 -0.984375
Q18.0625 -0.984375 16.9375 -0.921875
Q15.8281 -0.875 14.7031 -0.75
Q13.5781 -0.640625 12.5 -0.484375
Q11.4219 -0.34375 10.5938 -0.09375
L10.5938 7.51562
Q12.3125 6.89062 14.4531 6.59375
Q16.6094 6.29688 18.7031 6.29688
Q25.2969 6.29688 29.5469 8.59375
Q33.7969 10.8906 36.2812 14.8125
Q38.7656 18.75 39.8125 23.9688
Q40.875 29.2031 41.1094 35.0156
L40.4844 35.0156
Q39.5 33.25 38.125 31.7344
Q36.7656 30.2188 34.9062 29.0938
Q33.0625 27.9844 30.7188 27.3438
Q28.375 26.7031 25.4844 26.7031
Q20.8438 26.7031 17.0781 28.1406
Q13.3281 29.5938 10.6875 32.375
Q8.0625 35.1562 6.60938 39.1875
Q5.17188 43.2188 5.17188 48.3906
Q5.17188 53.9531 6.70312 58.4219
Q8.25 62.8906 11.0625 65.9844
Q13.875 69.0938 17.8906 70.75
Q21.9219 72.4062 26.9062 72.4062
Q31.8438 72.4062 36.0781 70.5
Q40.3281 68.6094 43.4531 64.7031
Q46.5781 60.7969 48.3906 54.8594
Q50.2031 48.9219 50.2031 40.9219
M27 64.8906
Q24.0781 64.8906 21.6562 63.9062
Q19.2344 62.9375 17.4688 60.8906
Q15.7188 58.8438 14.7656 55.7344
Q13.8125 52.6406 13.8125 48.3906
Q13.8125 44.9688 14.625 42.25
Q15.4375 39.5469 17.0469 37.6406
Q18.6562 35.75 21.0625 34.7188
Q23.4844 33.6875 26.7031 33.6875
Q30.0312 33.6875 32.7188 34.8281
Q35.4062 35.9844 37.2969 37.8125
Q39.2031 39.6562 40.25 42
Q41.3125 44.3438 41.3125 46.6875
Q41.3125 49.9531 40.4062 53.2031
Q39.5 56.4531 37.7188 59.0625
Q35.9375 61.6719 33.25 63.2812
Q30.5625 64.8906 27 64.8906" id="WenQuanYiMicroHei-39"/>
     <path d="
M53.0781 16.0156
L42.6719 16.0156
L42.6719 0
L34.0781 0
L34.0781 16.0156
L1.125 16.0156
L1.125 23.7812
L33.5 71.7812
L42.6719 71.7812
L42.6719 24.125
L53.0781 24.125
z

M34.0781 24.125
L34.0781 41.5
Q34.0781 44.2344 34.1562 47.2344
Q34.2344 50.25 34.3281 53.0938
Q34.4219 55.9531 34.5469 58.4375
Q34.6719 60.9375 34.7188 62.5938
L34.2812 62.5938
Q33.9375 61.625 33.4219 60.4219
Q32.9062 59.2344 32.2969 58.0312
Q31.6875 56.8438 31.0469 55.7188
Q30.4219 54.5938 29.8906 53.8125
L9.8125 24.125
z
" id="WenQuanYiMicroHei-34"/>
     <path d="
M7.17188 5.42188
Q7.17188 7.28125 7.65625 8.5625
Q8.15625 9.85938 8.98438 10.6562
Q9.8125 11.4688 10.9375 11.8281
Q12.0625 12.2031 13.375 12.2031
Q14.6562 12.2031 15.7969 11.8281
Q16.9375 11.4688 17.7656 10.6562
Q18.6094 9.85938 19.0938 8.5625
Q19.5781 7.28125 19.5781 5.42188
Q19.5781 3.60938 19.0938 2.3125
Q18.6094 1.03125 17.7656 0.1875
Q16.9375 -0.640625 15.7969 -1.03125
Q14.6562 -1.42188 13.375 -1.42188
Q12.0625 -1.42188 10.9375 -1.03125
Q9.8125 -0.640625 8.98438 0.1875
Q8.15625 1.03125 7.65625 2.3125
Q7.17188 3.60938 7.17188 5.42188" id="WenQuanYiMicroHei-2e"/>
     <path d="
M34.7188 0
L26.125 0
L26.125 44.5781
Q26.125 46.6875 26.1406 49.0781
Q26.1719 51.4688 26.2344 53.8281
Q26.3125 56.2031 26.3906 58.375
Q26.4688 60.5469 26.5156 62.2031
Q25.6875 61.3281 25.0469 60.6875
Q24.4219 60.0625 23.75 59.4688
Q23.0938 58.8906 22.3594 58.2188
Q21.625 57.5625 20.6094 56.6875
L13.375 50.7812
L8.6875 56.7812
L27.3906 71.3906
L34.7188 71.3906
z
" id="WenQuanYiMicroHei-31"/>
     <path d="
M5.51562 30.5156
Q5.51562 35.6406 6.03125 40.7188
Q6.54688 45.7969 7.82812 50.4531
Q9.125 55.125 11.375 59.125
Q13.625 63.1406 17.0938 66.0938
Q20.5625 69.0469 25.3906 70.7188
Q30.2188 72.4062 36.7188 72.4062
Q37.6406 72.4062 38.7656 72.3594
Q39.8906 72.3125 41.0312 72.1875
Q42.1875 72.0781 43.2344 71.9062
Q44.2812 71.7344 45.125 71.4844
L45.125 63.9219
Q43.4062 64.5 41.25 64.7969
Q39.1094 65.0938 37.0156 65.0938
Q32.625 65.0938 29.2656 64.0312
Q25.9219 62.9844 23.4844 61.0781
Q21.0469 59.1875 19.4062 56.5469
Q17.7812 53.9062 16.75 50.7031
Q15.7188 47.5156 15.2344 43.8906
Q14.75 40.2812 14.5938 36.375
L15.1875 36.375
Q16.1562 38.1406 17.5469 39.6719
Q18.9531 41.2188 20.7969 42.3125
Q22.6562 43.4062 24.9688 44.0312
Q27.2969 44.6719 30.1719 44.6719
Q34.8125 44.6719 38.5625 43.2344
Q42.3281 41.7969 44.9688 39.0156
Q47.6094 36.2344 49.0469 32.2031
Q50.4844 28.1719 50.4844 23
Q50.4844 17.4375 48.9688 12.9844
Q47.4688 8.54688 44.625 5.4375
Q41.7969 2.34375 37.7969 0.671875
Q33.7969 -0.984375 28.8125 -0.984375
Q23.9219 -0.984375 19.6406 0.921875
Q15.375 2.82812 12.25 6.73438
Q9.125 10.6406 7.3125 16.5469
Q5.51562 22.4688 5.51562 30.5156
M28.7188 6.5
Q31.6406 6.5 34.0469 7.5
Q36.4688 8.5 38.2188 10.5156
Q39.9844 12.5469 40.9375 15.6406
Q41.8906 18.75 41.8906 23
Q41.8906 26.4219 41.0781 29.125
Q40.2812 31.8438 38.6719 33.7344
Q37.0625 35.6406 34.6406 36.6719
Q32.2344 37.7031 29 37.7031
Q25.7344 37.7031 23.0156 36.5469
Q20.3125 35.4062 18.4062 33.5625
Q16.5 31.7344 15.4531 29.3906
Q14.4062 27.0469 14.4062 24.7031
Q14.4062 21.4375 15.3125 18.1875
Q16.2188 14.9375 18 12.3438
Q19.7812 9.76562 22.4531 8.125
Q25.1406 6.5 28.7188 6.5" id="WenQuanYiMicroHei-36"/>
    </defs>
    <g transform="translate(95.2997225 382.403030938)scale(0.16 -0.16)">
     <use xlink:href="#WenQuanYiMicroHei-30"/>
     <use x="55.078125" xlink:href="#WenQuanYiMicroHei-2e"/>
     <use x="81.884765625" xlink:href="#WenQuanYiMicroHei-39"/>
     <use x="136.962890625" xlink:href="#WenQuanYiMicroHei-31"/>
     <use x="192.041015625" xlink:href="#WenQuanYiMicroHei-36"/>
     <use x="247.119140625" xlink:href="#WenQuanYiMicroHei-34"/>
    </g>
   </g>
   <g id="text_4">
    <!-- 1 -->
    <g transform="translate(184.071285 477.198780938)scale(0.14 -0.14)">
     <use xlink:href="#WenQuanYiMicroHei-31"/>
    </g>
   </g>
   <g id="text_5">
    <!-- 0.4778 -->
    <defs>
     <path d="
M27.5938 72.5156
Q31.6875 72.5156 35.3281 71.4375
Q38.9688 70.3594 41.7188 68.2031
Q44.4844 66.0625 46.0938 62.8438
Q47.7031 59.625 47.7031 55.3281
Q47.7031 52.0469 46.7188 49.4062
Q45.75 46.7812 44.0312 44.6562
Q42.3281 42.5312 39.9844 40.8438
Q37.6406 39.1562 34.9062 37.7969
Q37.75 36.2812 40.4531 34.4219
Q43.1719 32.5625 45.2812 30.25
Q47.4062 27.9375 48.7031 25.0469
Q50 22.1719 50 18.6094
Q50 14.1094 48.3594 10.4688
Q46.7344 6.84375 43.7812 4.29688
Q40.8281 1.76562 36.6875 0.390625
Q32.5625 -0.984375 27.5938 -0.984375
Q22.2188 -0.984375 18.0469 0.328125
Q13.875 1.65625 11.0156 4.125
Q8.15625 6.59375 6.65625 10.1562
Q5.17188 13.7188 5.17188 18.2188
Q5.17188 21.875 6.26562 24.7969
Q7.375 27.7344 9.21875 30.0781
Q11.0781 32.4219 13.6094 34.2188
Q16.1562 36.0312 19 37.4062
Q16.6094 38.9219 14.5 40.7031
Q12.4062 42.4844 10.8594 44.6719
Q9.32812 46.875 8.42188 49.5312
Q7.51562 52.2031 7.51562 55.4219
Q7.51562 59.6719 9.15625 62.8594
Q10.7969 66.0625 13.5781 68.2031
Q16.3594 70.3594 20 71.4375
Q23.6406 72.5156 27.5938 72.5156
M13.9219 18.1094
Q13.9219 15.5312 14.7031 13.3594
Q15.4844 11.1875 17.1406 9.64062
Q18.7969 8.10938 21.3281 7.25
Q23.875 6.39062 27.3906 6.39062
Q30.8125 6.39062 33.4219 7.25
Q36.0312 8.10938 37.7812 9.6875
Q39.5469 11.2812 40.4219 13.5156
Q41.3125 15.7656 41.3125 18.5
Q41.3125 21.0469 40.3594 23.0938
Q39.4062 25.1406 37.625 26.8906
Q35.8438 28.6562 33.3438 30.2188
Q30.8594 31.7812 27.7812 33.2969
L26.3125 33.9844
Q20.1719 31.0625 17.0469 27.2656
Q13.9219 23.4844 13.9219 18.1094
M27.4844 65.0938
Q22.3125 65.0938 19.2656 62.5
Q16.2188 59.9062 16.2188 54.9844
Q16.2188 52.2031 17.0625 50.1875
Q17.9219 48.1875 19.4375 46.625
Q20.9531 45.0625 23.0781 43.8125
Q25.2031 42.5781 27.6875 41.4062
Q30.0312 42.4844 32.1094 43.75
Q34.1875 45.0156 35.7188 46.625
Q37.25 48.25 38.125 50.2969
Q39.0156 52.3438 39.0156 54.9844
Q39.0156 59.9062 35.9375 62.5
Q32.8594 65.0938 27.4844 65.0938" id="WenQuanYiMicroHei-38"/>
     <path d="
M13.7188 0
L41.2188 63.2812
L4.39062 63.2812
L4.39062 71.3906
L50.2969 71.3906
L50.2969 64.3125
L23.1875 0
z
" id="WenQuanYiMicroHei-37"/>
    </defs>
    <g transform="translate(162.5059725 382.403030938)scale(0.16 -0.16)">
     <use xlink:href="#WenQuanYiMicroHei-30"/>
     <use x="55.078125" xlink:href="#WenQuanYiMicroHei-2e"/>
     <use x="81.884765625" xlink:href="#WenQuanYiMicroHei-34"/>
     <use x="136.962890625" xlink:href="#WenQuanYiMicroHei-37"/>
     <use x="192.041015625" xlink:href="#WenQuanYiMicroHei-37"/>
     <use x="247.119140625" xlink:href="#WenQuanYiMicroHei-38"/>
    </g>
   </g>
   <g id="text_6">
    <!-- 2 -->
    <defs>
     <path d="
M49.2188 0
L4.6875 0
L4.6875 7.625
L21.7812 26.2188
Q25.4375 30.1719 28.3125 33.4375
Q31.2031 36.7188 33.2188 39.8438
Q35.25 42.9688 36.3281 46.1094
Q37.4062 49.2656 37.4062 52.9844
Q37.4062 55.8594 36.5781 58.0469
Q35.75 60.25 34.2031 61.7812
Q32.6719 63.3281 30.5625 64.1094
Q28.4688 64.8906 25.875 64.8906
Q21.2344 64.8906 17.5 63.0156
Q13.7656 61.1406 10.4062 58.2031
L5.42188 64.0156
Q7.375 65.7656 9.60938 67.2969
Q11.8594 68.8438 14.4531 69.9688
Q17.0469 71.0938 19.9219 71.75
Q22.7969 72.4062 25.9844 72.4062
Q30.6719 72.4062 34.4531 71.0938
Q38.2344 69.7812 40.8594 67.3125
Q43.5 64.8438 44.9375 61.2969
Q46.3906 57.7656 46.3906 53.3281
Q46.3906 49.1719 45.0938 45.4062
Q43.7969 41.6562 41.5312 38.0156
Q39.2656 34.375 36.1094 30.7031
Q32.9531 27.0469 29.2969 23.0938
L15.5781 8.5
L15.5781 8.10938
L49.2188 8.10938
z
" id="WenQuanYiMicroHei-32"/>
    </defs>
    <g transform="translate(249.736285 477.198780938)scale(0.14 -0.14)">
     <use xlink:href="#WenQuanYiMicroHei-32"/>
    </g>
   </g>
   <g id="text_7">
    <!-- 0.0225 -->
    <defs>
     <path d="
M26.6094 43.7969
Q31.4531 43.7969 35.625 42.4531
Q39.7969 41.1094 42.8906 38.4688
Q46 35.8438 47.75 31.9375
Q49.5156 28.0312 49.5156 22.9062
Q49.5156 17.3281 47.8438 12.8906
Q46.1875 8.45312 42.9219 5.375
Q39.6562 2.29688 34.8438 0.65625
Q30.0312 -0.984375 23.7812 -0.984375
Q21.2969 -0.984375 18.875 -0.734375
Q16.4531 -0.484375 14.2344 -0.015625
Q12.0156 0.4375 10.0156 1.17188
Q8.01562 1.90625 6.39062 2.875
L6.39062 11.2812
Q8.01562 10.1562 10.1875 9.28125
Q12.3594 8.40625 14.75 7.8125
Q17.1406 7.23438 19.5469 6.90625
Q21.9688 6.59375 24.0312 6.59375
Q27.875 6.59375 30.9062 7.5
Q33.9375 8.40625 36.0312 10.2969
Q38.1406 12.2031 39.25 15.0781
Q40.375 17.9688 40.375 21.9219
Q40.375 28.9062 36.0781 32.5938
Q31.7812 36.2812 23.5781 36.2812
Q22.2656 36.2812 20.7188 36.1562
Q19.1875 36.0312 17.6406 35.8281
Q16.1094 35.6406 14.7188 35.4219
Q13.3281 35.2031 12.3125 35.0156
L7.90625 37.7969
L10.5938 71.3906
L44.2812 71.3906
L44.2812 63.2812
L18.3125 63.2812
L16.4062 42.8281
Q17.9688 43.1094 20.5312 43.4531
Q23.0938 43.7969 26.6094 43.7969" id="WenQuanYiMicroHei-35"/>
    </defs>
    <g transform="translate(229.5047225 382.403030938)scale(0.16 -0.16)">
     <use xlink:href="#WenQuanYiMicroHei-30"/>
     <use x="55.078125" xlink:href="#WenQuanYiMicroHei-2e"/>
     <use x="81.884765625" xlink:href="#WenQuanYiMicroHei-30"/>
     <use x="136.962890625" xlink:href="#WenQuanYiMicroHei-32"/>
     <use x="192.041015625" xlink:href="#WenQuanYiMicroHei-32"/>
     <use x="247.119140625" xlink:href="#WenQuanYiMicroHei-35"/>
    </g>
   </g>
   <g id="text_8">
    <!-- 3 -->
    <defs>
     <path d="
M46.9219 54.6875
Q46.9219 51.125 45.7969 48.1875
Q44.6719 45.2656 42.6406 43.1094
Q40.625 40.9688 37.7969 39.5781
Q34.9688 38.1875 31.5 37.5938
L31.5 37.3125
Q40.1406 36.2344 44.625 31.8125
Q49.125 27.3906 49.125 20.3125
Q49.125 15.625 47.5312 11.7188
Q45.9531 7.8125 42.7188 4.98438
Q39.5 2.15625 34.5625 0.578125
Q29.6406 -0.984375 22.9062 -0.984375
Q17.5781 -0.984375 12.8594 -0.140625
Q8.15625 0.6875 4 2.875
L4 11.1875
Q8.25 8.9375 13.2031 7.71875
Q18.1719 6.5 22.7031 6.5
Q27.2031 6.5 30.4688 7.46875
Q33.7344 8.45312 35.8594 10.25
Q37.9844 12.0625 38.9844 14.6875
Q39.9844 17.3281 39.9844 20.6094
Q39.9844 23.9219 38.6875 26.2812
Q37.4062 28.6562 35.0156 30.1875
Q32.625 31.7344 29.1719 32.4688
Q25.7344 33.2031 21.3906 33.2031
L14.8906 33.2031
L14.8906 40.5781
L21.3906 40.5781
Q25.3438 40.5781 28.4219 41.5469
Q31.5 42.5312 33.5625 44.3281
Q35.6406 46.1406 36.7188 48.625
Q37.7969 51.125 37.7969 54.1094
Q37.7969 56.6406 36.9062 58.6406
Q36.0312 60.6406 34.4219 62.0312
Q32.8125 63.4219 30.5625 64.1562
Q28.3281 64.8906 25.5938 64.8906
Q20.3594 64.8906 16.375 63.25
Q12.4062 61.625 8.79688 58.9844
L4.29688 65.0938
Q6.15625 66.6094 8.42188 67.9219
Q10.6875 69.2344 13.375 70.2344
Q16.0625 71.2344 19.1094 71.8125
Q22.1719 72.4062 25.5938 72.4062
Q30.8594 72.4062 34.8281 71.0938
Q38.8125 69.7812 41.5 67.4062
Q44.1875 65.0469 45.5469 61.7969
Q46.9219 58.5469 46.9219 54.6875" id="WenQuanYiMicroHei-33"/>
    </defs>
    <g transform="translate(316.6547225 477.198780938)scale(0.14 -0.14)">
     <use xlink:href="#WenQuanYiMicroHei-33"/>
    </g>
   </g>
   <g id="text_9">
    <!-- 0.4552 -->
    <g transform="translate(296.4884725 382.403030938)scale(0.16 -0.16)">
     <use xlink:href="#WenQuanYiMicroHei-30"/>
     <use x="55.078125" xlink:href="#WenQuanYiMicroHei-2e"/>
     <use x="81.884765625" xlink:href="#WenQuanYiMicroHei-34"/>
     <use x="136.962890625" xlink:href="#WenQuanYiMicroHei-35"/>
     <use x="192.041015625" xlink:href="#WenQuanYiMicroHei-35"/>
     <use x="247.119140625" xlink:href="#WenQuanYiMicroHei-32"/>
    </g>
   </g>
   <g id="text_10">
    <!-- 4 -->
    <g transform="translate(383.13675375 477.198780938)scale(0.14 -0.14)">
     <use xlink:href="#WenQuanYiMicroHei-34"/>
    </g>
   </g>
   <g id="text_11">
    <!-- 0.0016 -->
    <g style="fill:#ff0000;" transform="translate(363.3472225 382.403030938)scale(0.16 -0.16)">
     <use xlink:href="#WenQuanYiMicroHei-30"/>
     <use x="55.078125" xlink:href="#WenQuanYiMicroHei-2e"/>
     <use x="81.884765625" xlink:href="#WenQuanYiMicroHei-30"/>
     <use x="136.962890625" xlink:href="#WenQuanYiMicroHei-30"/>
     <use x="192.041015625" xlink:href="#WenQuanYiMicroHei-31"/>
     <use x="247.119140625" xlink:href="#WenQuanYiMicroHei-36"/>
    </g>
   </g>
   <g id="text_12">
    <!-- 1 -->
    <g transform="translate(11.463285 304.590780937)scale(0.14 -0.14)">
     <use xlink:href="#WenQuanYiMicroHei-31"/>
    </g>
   </g>
   <g id="text_13">
    <!-- 0.7890 -->
    <g transform="translate(95.5147225 315.443030938)scale(0.16 -0.16)">
     <use xlink:href="#WenQuanYiMicroHei-30"/>
     <use x="55.078125" xlink:href="#WenQuanYiMicroHei-2e"/>
     <use x="81.884765625" xlink:href="#WenQuanYiMicroHei-37"/>
     <use x="136.962890625" xlink:href="#WenQuanYiMicroHei-38"/>
     <use x="192.041015625" xlink:href="#WenQuanYiMicroHei-39"/>
     <use x="247.119140625" xlink:href="#WenQuanYiMicroHei-30"/>
    </g>
   </g>
   <g id="text_14">
    <!-- 0.7661 -->
    <g transform="translate(163.7284725 315.443030938)scale(0.16 -0.16)">
     <use xlink:href="#WenQuanYiMicroHei-30"/>
     <use x="55.078125" xlink:href="#WenQuanYiMicroHei-2e"/>
     <use x="81.884765625" xlink:href="#WenQuanYiMicroHei-37"/>
     <use x="136.962890625" xlink:href="#WenQuanYiMicroHei-36"/>
     <use x="192.041015625" xlink:href="#WenQuanYiMicroHei-36"/>
     <use x="247.119140625" xlink:href="#WenQuanYiMicroHei-31"/>
    </g>
   </g>
   <g id="text_15">
    <!-- 0.8274 -->
    <g transform="translate(229.2197225 315.443030938)scale(0.16 -0.16)">
     <use xlink:href="#WenQuanYiMicroHei-30"/>
     <use x="55.078125" xlink:href="#WenQuanYiMicroHei-2e"/>
     <use x="81.884765625" xlink:href="#WenQuanYiMicroHei-38"/>
     <use x="136.962890625" xlink:href="#WenQuanYiMicroHei-32"/>
     <use x="192.041015625" xlink:href="#WenQuanYiMicroHei-37"/>
     <use x="247.119140625" xlink:href="#WenQuanYiMicroHei-34"/>
    </g>
   </g>
   <g id="text_16">
    <!-- 0.0185 -->
    <g style="fill:#ff0000;" transform="translate(296.4647225 315.443030938)scale(0.16 -0.16)">
     <use xlink:href="#WenQuanYiMicroHei-30"/>
     <use x="55.078125" xlink:href="#WenQuanYiMicroHei-2e"/>
     <use x="81.884765625" xlink:href="#WenQuanYiMicroHei-30"/>
     <use x="136.962890625" xlink:href="#WenQuanYiMicroHei-31"/>
     <use x="192.041015625" xlink:href="#WenQuanYiMicroHei-38"/>
     <use x="247.119140625" xlink:href="#WenQuanYiMicroHei-35"/>
    </g>
   </g>
   <g id="text_17">
    <!-- 0.8726 -->
    <g transform="translate(363.3472225 315.443030938)scale(0.16 -0.16)">
     <use xlink:href="#WenQuanYiMicroHei-30"/>
     <use x="55.078125" xlink:href="#WenQuanYiMicroHei-2e"/>
     <use x="81.884765625" xlink:href="#WenQuanYiMicroHei-38"/>
     <use x="136.962890625" xlink:href="#WenQuanYiMicroHei-37"/>
     <use x="192.041015625" xlink:href="#WenQuanYiMicroHei-32"/>
     <use x="247.119140625" xlink:href="#WenQuanYiMicroHei-36"/>
    </g>
   </g>
   <g id="text_18">
    <!-- 2 -->
    <g transform="translate(10.168285 237.630780938)scale(0.14 -0.14)">
     <use xlink:href="#WenQuanYiMicroHei-32"/>
    </g>
   </g>
   <g id="text_19">
    <!-- 0.3808 -->
    <g style="fill:#ff0000;" transform="translate(95.5459725 248.483030938)scale(0.16 -0.16)">
     <use xlink:href="#WenQuanYiMicroHei-30"/>
     <use x="55.078125" xlink:href="#WenQuanYiMicroHei-2e"/>
     <use x="81.884765625" xlink:href="#WenQuanYiMicroHei-33"/>
     <use x="136.962890625" xlink:href="#WenQuanYiMicroHei-38"/>
     <use x="192.041015625" xlink:href="#WenQuanYiMicroHei-30"/>
     <use x="247.119140625" xlink:href="#WenQuanYiMicroHei-38"/>
    </g>
   </g>
   <g id="text_20">
    <!-- 5.4120 -->
    <g transform="translate(162.6034725 248.483030938)scale(0.16 -0.16)">
     <use xlink:href="#WenQuanYiMicroHei-35"/>
     <use x="55.078125" xlink:href="#WenQuanYiMicroHei-2e"/>
     <use x="81.884765625" xlink:href="#WenQuanYiMicroHei-34"/>
     <use x="136.962890625" xlink:href="#WenQuanYiMicroHei-31"/>
     <use x="192.041015625" xlink:href="#WenQuanYiMicroHei-32"/>
     <use x="247.119140625" xlink:href="#WenQuanYiMicroHei-30"/>
    </g>
   </g>
   <g id="text_21">
    <!-- 3.9073 -->
    <g transform="translate(229.4734725 248.483030938)scale(0.16 -0.16)">
     <use xlink:href="#WenQuanYiMicroHei-33"/>
     <use x="55.078125" xlink:href="#WenQuanYiMicroHei-2e"/>
     <use x="81.884765625" xlink:href="#WenQuanYiMicroHei-39"/>
     <use x="136.962890625" xlink:href="#WenQuanYiMicroHei-30"/>
     <use x="192.041015625" xlink:href="#WenQuanYiMicroHei-37"/>
     <use x="247.119140625" xlink:href="#WenQuanYiMicroHei-33"/>
    </g>
   </g>
   <g id="text_22">
    <!-- 1.7352 -->
    <g transform="translate(296.8009725 248.483030938)scale(0.16 -0.16)">
     <use xlink:href="#WenQuanYiMicroHei-31"/>
     <use x="55.078125" xlink:href="#WenQuanYiMicroHei-2e"/>
     <use x="81.884765625" xlink:href="#WenQuanYiMicroHei-37"/>
     <use x="136.962890625" xlink:href="#WenQuanYiMicroHei-33"/>
     <use x="192.041015625" xlink:href="#WenQuanYiMicroHei-35"/>
     <use x="247.119140625" xlink:href="#WenQuanYiMicroHei-32"/>
    </g>
   </g>
   <g id="text_23">
    <!-- 4.0285 -->
    <g transform="translate(363.1322225 248.483030938)scale(0.16 -0.16)">
     <use xlink:href="#WenQuanYiMicroHei-34"/>
     <use x="55.078125" xlink:href="#WenQuanYiMicroHei-2e"/>
     <use x="81.884765625" xlink:href="#WenQuanYiMicroHei-30"/>
     <use x="136.962890625" xlink:href="#WenQuanYiMicroHei-32"/>
     <use x="192.041015625" xlink:href="#WenQuanYiMicroHei-38"/>
     <use x="247.119140625" xlink:href="#WenQuanYiMicroHei-35"/>
    </g>
   </g>
   <g id="text_24">
    <!-- 3 -->
    <g transform="translate(10.1267225 170.670780938)scale(0.14 -0.14)">
     <use xlink:href="#WenQuanYiMicroHei-33"/>
    </g>
   </g>
   <g id="text_25">
    <!-- 0.9225 -->
    <g transform="translate(95.5847225 181.523030938)scale(0.16 -0.16)">
     <use xlink:href="#WenQuanYiMicroHei-30"/>
     <use x="55.078125" xlink:href="#WenQuanYiMicroHei-2e"/>
     <use x="81.884765625" xlink:href="#WenQuanYiMicroHei-39"/>
     <use x="136.962890625" xlink:href="#WenQuanYiMicroHei-32"/>
     <use x="192.041015625" xlink:href="#WenQuanYiMicroHei-32"/>
     <use x="247.119140625" xlink:href="#WenQuanYiMicroHei-35"/>
    </g>
   </g>
   <g id="text_26">
    <!-- 0.5160 -->
    <g transform="translate(162.4747225 181.523030938)scale(0.16 -0.16)">
     <use xlink:href="#WenQuanYiMicroHei-30"/>
     <use x="55.078125" xlink:href="#WenQuanYiMicroHei-2e"/>
     <use x="81.884765625" xlink:href="#WenQuanYiMicroHei-35"/>
     <use x="136.962890625" xlink:href="#WenQuanYiMicroHei-31"/>
     <use x="192.041015625" xlink:href="#WenQuanYiMicroHei-36"/>
     <use x="247.119140625" xlink:href="#WenQuanYiMicroHei-30"/>
    </g>
   </g>
   <g id="text_27">
    <!-- 0.0034 -->
    <g style="fill:#ff0000;" transform="translate(229.2197225 181.523030938)scale(0.16 -0.16)">
     <use xlink:href="#WenQuanYiMicroHei-30"/>
     <use x="55.078125" xlink:href="#WenQuanYiMicroHei-2e"/>
     <use x="81.884765625" xlink:href="#WenQuanYiMicroHei-30"/>
     <use x="136.962890625" xlink:href="#WenQuanYiMicroHei-30"/>
     <use x="192.041015625" xlink:href="#WenQuanYiMicroHei-33"/>
     <use x="247.119140625" xlink:href="#WenQuanYiMicroHei-34"/>
    </g>
   </g>
   <g id="text_28">
    <!-- 0.4407 -->
    <g transform="translate(296.4022225 181.523030938)scale(0.16 -0.16)">
     <use xlink:href="#WenQuanYiMicroHei-30"/>
     <use x="55.078125" xlink:href="#WenQuanYiMicroHei-2e"/>
     <use x="81.884765625" xlink:href="#WenQuanYiMicroHei-34"/>
     <use x="136.962890625" xlink:href="#WenQuanYiMicroHei-34"/>
     <use x="192.041015625" xlink:href="#WenQuanYiMicroHei-30"/>
     <use x="247.119140625" xlink:href="#WenQuanYiMicroHei-37"/>
    </g>
   </g>
   <g id="text_29">
    <!-- 0.0282 -->
    <g transform="translate(363.4484725 181.523030938)scale(0.16 -0.16)">
     <use xlink:href="#WenQuanYiMicroHei-30"/>
     <use x="55.078125" xlink:href="#WenQuanYiMicroHei-2e"/>
     <use x="81.884765625" xlink:href="#WenQuanYiMicroHei-30"/>
     <use x="136.962890625" xlink:href="#WenQuanYiMicroHei-32"/>
     <use x="192.041015625" xlink:href="#WenQuanYiMicroHei-38"/>
     <use x="247.119140625" xlink:href="#WenQuanYiMicroHei-32"/>
    </g>
   </g>
   <g id="text_30">
    <!-- 4 -->
    <g transform="translate(9.64875375 103.710780938)scale(0.14 -0.14)">
     <use xlink:href="#WenQuanYiMicroHei-34"/>
    </g>
   </g>
   <g id="text_31">
    <!-- 0.8628 -->
    <g transform="translate(95.5459725 114.563030938)scale(0.16 -0.16)">
     <use xlink:href="#WenQuanYiMicroHei-30"/>
     <use x="55.078125" xlink:href="#WenQuanYiMicroHei-2e"/>
     <use x="81.884765625" xlink:href="#WenQuanYiMicroHei-38"/>
     <use x="136.962890625" xlink:href="#WenQuanYiMicroHei-36"/>
     <use x="192.041015625" xlink:href="#WenQuanYiMicroHei-32"/>
     <use x="247.119140625" xlink:href="#WenQuanYiMicroHei-38"/>
    </g>
   </g>
   <g id="text_32">
    <!-- 0.0221 -->
    <g style="fill:#ff0000;" transform="translate(163.7284725 114.563030938)scale(0.16 -0.16)">
     <use xlink:href="#WenQuanYiMicroHei-30"/>
     <use x="55.078125" xlink:href="#WenQuanYiMicroHei-2e"/>
     <use x="81.884765625" xlink:href="#WenQuanYiMicroHei-30"/>
     <use x="136.962890625" xlink:href="#WenQuanYiMicroHei-32"/>
     <use x="192.041015625" xlink:href="#WenQuanYiMicroHei-32"/>
     <use x="247.119140625" xlink:href="#WenQuanYiMicroHei-31"/>
    </g>
   </g>
   <g id="text_33">
    <!-- 0.0875 -->
    <g transform="translate(229.5047225 114.563030938)scale(0.16 -0.16)">
     <use xlink:href="#WenQuanYiMicroHei-30"/>
     <use x="55.078125" xlink:href="#WenQuanYiMicroHei-2e"/>
     <use x="81.884765625" xlink:href="#WenQuanYiMicroHei-30"/>
     <use x="136.962890625" xlink:href="#WenQuanYiMicroHei-38"/>
     <use x="192.041015625" xlink:href="#WenQuanYiMicroHei-37"/>
     <use x="247.119140625" xlink:href="#WenQuanYiMicroHei-35"/>
    </g>
   </g>
   <g id="text_34">
    <!-- 0.3939 -->
    <g transform="translate(296.4097225 114.563030938)scale(0.16 -0.16)">
     <use xlink:href="#WenQuanYiMicroHei-30"/>
     <use x="55.078125" xlink:href="#WenQuanYiMicroHei-2e"/>
     <use x="81.884765625" xlink:href="#WenQuanYiMicroHei-33"/>
     <use x="136.962890625" xlink:href="#WenQuanYiMicroHei-39"/>
     <use x="192.041015625" xlink:href="#WenQuanYiMicroHei-33"/>
     <use x="247.119140625" xlink:href="#WenQuanYiMicroHei-39"/>
    </g>
   </g>
   <g id="text_35">
    <!-- 0.1144 -->
    <g transform="translate(363.1397225 114.563030938)scale(0.16 -0.16)">
     <use xlink:href="#WenQuanYiMicroHei-30"/>
     <use x="55.078125" xlink:href="#WenQuanYiMicroHei-2e"/>
     <use x="81.884765625" xlink:href="#WenQuanYiMicroHei-31"/>
     <use x="136.962890625" xlink:href="#WenQuanYiMicroHei-31"/>
     <use x="192.041015625" xlink:href="#WenQuanYiMicroHei-34"/>
     <use x="247.119140625" xlink:href="#WenQuanYiMicroHei-34"/>
    </g>
   </g>
  </g>
 </g>
 <defs>
  <clipPath id="p01953426ad">
   <rect height="446.4" width="446.4" x="31.8854725" y="12.1987809375"/>
  </clipPath>
 </defs>
</svg>
