<?xml version="1.0" encoding="utf-8" standalone="no"?>
<!DOCTYPE svg PUBLIC "-//W3C//DTD SVG 1.1//EN"
  "http://www.w3.org/Graphics/SVG/1.1/DTD/svg11.dtd">
<!-- Created with matplotlib (http://matplotlib.org/) -->
<svg height="275pt" version="1.1" viewBox="0 0 480 275" width="480pt" xmlns="http://www.w3.org/2000/svg" xmlns:xlink="http://www.w3.org/1999/xlink">
 <defs>
  <style type="text/css">
*{stroke-linecap:butt;stroke-linejoin:round;}
  </style>
 </defs>
 <g id="figure_1">
  <g id="patch_1">
   <path d="
M0 275.256
L480.448 275.256
L480.448 -5.68434e-14
L0 -5.68434e-14
z
" style="fill:#ffffff;"/>
  </g>
  <g id="axes_1">
   <g id="patch_2">
    <path d="
M26.8484 254.059
L473.248 254.059
L473.248 12.1988
L26.8484 12.1988
z
" style="fill:#ffffff;"/>
   </g>
   <g id="PolyCollection_1">
    <defs>
     <path d="
M217.753 -72.1532
L286.65 -71.4355
L285.933 -31.9628
L217.035 -32.6805
z
" id="C0_0_8803407f64"/>
     <path d="
M237.13 -65.694
L227.083 -60.6702
L225.647 -59.9525
L225.647 -46.3165
L227.083 -45.5988
L237.13 -40.5751
L238.565 -40.5751
L248.613 -45.5988
L250.048 -46.3165
L250.048 -59.9525
L248.613 -60.6702
L238.565 -65.694
z
" id="C0_1_4e71846f0d"/>
     <path d="
M236.412 -62.8233
L239.283 -62.8233
L243.589 -60.6702
L245.025 -59.2349
L247.178 -58.5172
L247.895 -48.4696
L246.46 -47.0342
L240.001 -44.1635
L237.848 -42.7281
L235.695 -44.1635
L230.671 -46.3165
L228.518 -47.7519
L228.518 -58.5172
L232.106 -59.9525
L233.542 -61.3879
z
" id="C0_2_d719a2e434"/>
     <path d="
M270.144 -64.9763
L269.426 -62.8233
L268.708 -60.6702
L267.991 -58.5172
L266.555 -57.0818
L257.943 -57.0818
L259.378 -55.6464
L262.249 -53.4934
L262.967 -53.4934
L265.12 -51.3403
L265.12 -49.1873
L264.402 -46.3165
L263.684 -44.1635
L262.967 -43.4458
L262.249 -41.2927
L265.837 -44.1635
L268.708 -46.3165
L271.579 -46.3165
L272.297 -46.3165
L275.167 -44.1635
L278.756 -41.2927
L278.038 -43.4458
L277.32 -45.5988
L276.603 -46.3165
L275.885 -49.1873
L275.885 -51.3403
L277.32 -52.7757
L280.909 -55.6464
L281.627 -55.6464
L283.062 -57.0818
L274.45 -57.0818
L273.014 -58.5172
L272.297 -60.6702
L272.297 -62.1056
L271.579 -64.2587
L270.861 -64.9763
L270.861 -66.4117
z
" id="C0_3_24ac6d768b"/>
     <path d="
M267.991 -48.4696
z
" id="C0_4_e9e4c526df"/>
     <path d="
M271.579 -56.3641
L271.579 -54.9288
L275.167 -54.2111
L273.014 -52.058
L273.014 -50.6226
L273.014 -48.4696
L271.579 -49.905
L268.708 -49.1873
L267.991 -52.058
L265.837 -54.2111
L269.426 -54.9288
z
" id="C0_5_c0eb399115"/>
     <path d="
M212.729 -76.4593
L212.729 -27.6567
L290.956 -27.6567
L290.956 -76.4593
z
" id="C0_6_18faa1f9d7"/>
     <path d="
M106.511 -239.374
L124.454 -239.374
L128.042 -238.656
L130.913 -237.938
L133.066 -237.221
L135.219 -236.503
L137.372 -235.785
L145.984 -231.479
L148.137 -230.044
L150.29 -228.608
L153.161 -226.455
L158.902 -221.432
L163.926 -226.455
L166.797 -228.608
L168.95 -230.044
L171.103 -231.479
L179.715 -235.785
L181.868 -236.503
L184.021 -237.221
L186.174 -237.938
L189.045 -238.656
L192.634 -239.374
L210.576 -239.374
L214.164 -238.656
L217.035 -237.938
L219.188 -237.221
L221.341 -236.503
L223.494 -235.785
L232.106 -231.479
L234.259 -230.044
L236.412 -228.608
L239.283 -226.455
L247.895 -217.843
L250.766 -214.255
L252.201 -212.102
L253.637 -209.949
L258.661 -199.901
L259.378 -197.748
L260.096 -195.595
L260.814 -193.442
L261.531 -190.571
L262.249 -186.983
L262.967 -181.241
L262.967 -171.194
L262.249 -165.452
L261.531 -161.864
L260.814 -158.993
L260.096 -156.84
L259.378 -154.687
L258.661 -152.534
L257.225 -150.381
L257.225 -148.945
L255.79 -146.075
L254.355 -144.639
L253.637 -142.486
L252.201 -140.333
L250.766 -138.18
L248.613 -135.309
L241.436 -127.415
L221.341 -107.32
L204.117 -89.3776
L204.117 -88.6599
L185.457 -69.2824
L166.079 -49.1873
L158.185 -42.0104
L151.726 -48.4696
L131.63 -69.2824
L112.971 -88.6599
L95.7462 -106.602
L95.7462 -107.32
L75.651 -127.415
L68.4741 -135.309
L66.3211 -138.18
L64.8857 -140.333
L63.4504 -142.486
L62.7327 -144.639
L61.2973 -146.075
L59.8619 -148.945
L59.8619 -150.381
L58.4266 -152.534
L57.7089 -154.687
L56.9912 -156.84
L56.2735 -158.993
L55.5558 -161.864
L54.8381 -165.452
L54.1205 -171.194
L54.1205 -181.241
L54.8381 -186.983
L55.5558 -190.571
L56.2735 -193.442
L56.9912 -195.595
L57.7089 -197.748
L58.4266 -199.901
L63.4504 -209.949
L64.8857 -212.102
L66.3211 -214.255
L69.1918 -217.843
L77.8041 -226.455
L80.6748 -228.608
L82.8278 -230.044
L84.9809 -231.479
L93.5931 -235.785
L95.7462 -236.503
L97.8992 -237.221
L100.052 -237.938
L102.923 -238.656
z
" id="C0_7_356be1ec0f"/>
     <path d="
M113.688 -230.044
L109.382 -229.326
L105.794 -228.608
L103.641 -227.891
L101.488 -227.173
L99.3346 -226.455
L90.7224 -222.149
L88.5693 -220.714
L84.9809 -217.843
L77.0864 -209.949
L74.9333 -207.078
L73.4979 -204.925
L72.0626 -202.772
L69.1918 -197.03
L69.1918 -195.595
L67.7565 -193.442
L67.0388 -191.289
L66.3211 -189.136
L65.6034 -186.265
L64.8857 -182.677
L64.168 -176.217
L64.168 -169.758
L64.8857 -163.299
L65.6034 -159.711
L66.3211 -156.84
L67.0388 -154.687
L67.7565 -152.534
L68.4741 -150.381
L72.0626 -143.204
L73.4979 -141.769
L74.2156 -139.616
L76.3687 -136.745
L81.3925 -131.003
L100.77 -110.908
L120.147 -91.5307
L137.372 -73.5886
L137.372 -72.8709
L157.467 -52.058
L159.62 -52.058
L179.715 -72.8709
L196.94 -90.813
L196.94 -91.5307
L216.317 -110.908
L235.695 -131.003
L240.719 -136.745
L242.872 -139.616
L243.589 -141.769
L245.025 -143.204
L248.613 -150.381
L249.331 -152.534
L250.048 -154.687
L250.766 -156.84
L251.484 -159.711
L252.201 -163.299
L252.919 -169.758
L252.919 -176.217
L252.201 -182.677
L251.484 -186.265
L250.766 -189.136
L250.048 -191.289
L249.331 -193.442
L247.895 -195.595
L247.895 -197.03
L245.025 -202.772
L243.589 -204.925
L242.154 -207.078
L240.001 -209.949
L232.106 -217.843
L228.518 -220.714
L226.365 -222.149
L217.753 -226.455
L215.6 -227.173
L213.446 -227.891
L211.293 -228.608
L207.705 -229.326
L203.399 -230.044
L191.916 -230.044
L187.61 -229.326
L184.021 -228.608
L181.868 -227.891
L179.715 -227.173
L177.562 -226.455
L170.385 -222.867
L168.232 -221.432
L166.079 -219.996
L163.209 -217.843
L158.185 -213.537
L153.879 -217.843
L150.29 -220.714
L148.137 -221.432
L146.702 -222.867
L139.525 -226.455
L137.372 -227.173
L135.219 -227.891
L133.066 -228.608
L129.477 -229.326
L125.171 -230.044
z
" id="C0_8_fba9fbc1c4"/>
     <path d="
M115.841 -221.432
L130.913 -221.432
L134.501 -220.714
L136.654 -219.996
L138.807 -219.279
L140.96 -218.561
L143.113 -217.126
L144.549 -217.126
L145.984 -215.69
L149.573 -214.255
L151.726 -212.819
L154.596 -209.949
L158.902 -207.078
L161.773 -209.949
L165.362 -212.819
L167.515 -214.255
L171.103 -215.69
L172.538 -217.126
L173.974 -217.126
L176.127 -218.561
L178.28 -219.279
L180.433 -219.996
L182.586 -220.714
L186.174 -221.432
L201.246 -221.432
L204.834 -220.714
L206.987 -219.996
L209.858 -219.279
L212.011 -217.843
L213.446 -217.843
L216.317 -216.408
L217.753 -214.972
L219.906 -214.255
L222.059 -212.819
L224.929 -210.666
L232.106 -203.49
L234.259 -200.619
L235.695 -198.466
L237.13 -196.313
L240.001 -190.571
L240.719 -188.418
L241.436 -186.265
L242.154 -184.112
L242.872 -181.241
L243.589 -177.653
L243.589 -161.864
L242.872 -158.275
L242.154 -155.405
L241.436 -152.534
L240.001 -150.381
L240.001 -148.945
L236.412 -141.769
L234.977 -139.616
L232.824 -136.745
L221.341 -124.544
L203.399 -105.884
L184.739 -86.5069
L165.362 -66.4117
L158.185 -59.9525
L151.726 -66.4117
L132.348 -86.5069
L113.688 -105.884
L95.7462 -124.544
L84.2632 -136.745
L82.1102 -139.616
L80.6748 -141.769
L77.0864 -148.945
L77.0864 -150.381
L75.651 -152.534
L74.9333 -155.405
L74.2156 -158.275
L73.4979 -161.864
L73.4979 -177.653
L74.2156 -181.241
L74.9333 -184.112
L75.651 -186.265
L76.3687 -188.418
L77.0864 -190.571
L79.9571 -196.313
L81.3925 -198.466
L82.8278 -200.619
L84.9809 -203.49
L92.1578 -210.666
L95.0285 -212.819
L97.1815 -214.255
L99.3346 -214.972
L100.77 -216.408
L103.641 -217.843
L105.076 -217.843
L107.229 -219.279
L110.1 -219.996
L112.253 -220.714
z
" id="C0_9_c6bca8e3c2"/>
     <path d="
M121.583 -212.102
L117.994 -211.384
L115.124 -210.666
L112.971 -209.949
L110.818 -209.231
L105.076 -206.36
L102.923 -204.925
L100.052 -202.772
L93.5931 -196.313
L91.4401 -193.442
L90.0047 -191.289
L86.4163 -184.112
L85.6986 -181.959
L84.9809 -179.806
L84.2632 -177.653
L83.5455 -174.064
L83.5455 -158.993
L84.2632 -155.405
L84.9809 -153.252
L85.6986 -151.099
L86.4163 -148.945
L90.0047 -141.769
L91.4401 -139.616
L92.8754 -137.463
L100.77 -128.85
L120.865 -108.755
L138.09 -90.813
L138.09 -90.0953
L156.749 -70.7178
L158.902 -69.2824
L160.338 -70.7178
L178.998 -90.0953
L196.222 -108.037
L196.222 -108.755
L216.317 -128.85
L224.212 -137.463
L225.647 -139.616
L227.083 -141.769
L227.8 -143.922
L229.236 -145.357
L229.236 -146.792
L230.671 -148.945
L231.389 -151.099
L232.106 -153.252
L232.824 -155.405
L233.542 -158.993
L233.542 -174.064
L232.824 -177.653
L232.106 -179.806
L231.389 -181.959
L230.671 -184.112
L227.083 -191.289
L225.647 -193.442
L223.494 -196.313
L217.035 -202.772
L214.164 -204.925
L212.011 -206.36
L206.27 -209.231
L204.117 -209.949
L201.964 -210.666
L199.093 -211.384
L195.504 -212.102
L184.739 -212.102
L180.433 -211.384
L177.562 -210.666
L175.409 -209.949
L173.256 -208.513
L171.821 -208.513
L168.95 -207.078
L166.797 -205.643
L164.644 -204.207
L162.491 -202.054
L158.185 -199.183
L155.314 -202.054
L152.443 -204.207
L150.29 -205.643
L148.137 -207.078
L145.266 -208.513
L143.831 -208.513
L141.678 -209.949
L139.525 -210.666
L136.654 -211.384
L132.348 -212.102
z
" id="C0_a_e96769c766"/>
     <path d="
M124.454 -203.49
L137.372 -203.49
L140.96 -202.772
L143.113 -202.054
L145.266 -201.336
L151.008 -198.466
L153.161 -197.03
L158.902 -192.007
L163.926 -197.03
L166.079 -198.466
L171.821 -201.336
L173.974 -202.054
L176.127 -202.772
L179.715 -203.49
L192.634 -203.49
L195.504 -202.772
L197.657 -202.054
L199.81 -201.336
L205.552 -198.466
L207.705 -197.03
L210.576 -194.877
L215.6 -189.854
L217.753 -186.983
L219.188 -184.83
L222.059 -179.088
L222.776 -176.935
L223.494 -174.782
L224.212 -172.629
L224.929 -169.041
L224.929 -157.558
L224.212 -153.969
L223.494 -151.099
L222.776 -148.945
L219.188 -141.769
L217.753 -139.616
L216.317 -137.463
L204.117 -124.544
L184.739 -105.167
L166.797 -86.5069
L166.797 -85.7892
L158.185 -77.8947
L150.29 -85.7892
L132.348 -104.449
L132.348 -105.167
L112.971 -124.544
L101.488 -136.745
L99.3346 -139.616
L97.8992 -141.769
L94.3108 -148.945
L93.5931 -151.099
L92.8754 -153.969
L92.1578 -157.558
L92.1578 -169.041
L92.8754 -172.629
L93.5931 -174.782
L94.3108 -176.935
L95.0285 -179.088
L97.8992 -184.83
L99.3346 -186.983
L101.488 -189.854
L106.511 -194.877
L109.382 -197.03
L111.535 -198.466
L117.277 -201.336
L119.43 -202.054
L121.583 -202.772
z
" id="C0_b_9f71ad2ccf"/>
     <path d="
M130.195 -194.16
L126.607 -193.442
L124.454 -192.724
L122.301 -191.289
L120.865 -191.289
L119.43 -189.854
L117.277 -189.136
L114.406 -186.983
L109.382 -181.959
L107.947 -179.806
L106.511 -177.653
L104.358 -173.347
L103.641 -171.194
L102.923 -169.041
L102.205 -165.452
L102.205 -154.687
L102.923 -151.099
L103.641 -148.945
L104.358 -146.792
L106.511 -142.486
L107.947 -140.333
L109.382 -138.18
L120.865 -125.98
L138.807 -107.32
L156.749 -88.6599
L158.902 -87.2246
L160.338 -88.6599
L178.28 -107.32
L196.222 -125.98
L207.705 -138.18
L209.858 -141.051
L212.729 -146.792
L213.446 -148.945
L214.164 -151.099
L214.882 -154.687
L214.882 -165.452
L214.164 -169.041
L213.446 -171.194
L212.729 -173.347
L210.576 -177.653
L209.14 -179.806
L207.705 -181.959
L202.681 -186.983
L199.81 -189.136
L197.657 -189.854
L196.222 -191.289
L194.787 -191.289
L192.634 -192.724
L190.481 -193.442
L186.892 -194.16
L176.845 -194.16
L173.974 -193.442
L171.821 -192.724
L169.668 -192.007
L165.362 -189.854
L163.209 -188.418
L160.338 -185.547
L157.467 -185.547
L156.749 -185.547
L153.879 -188.418
L151.726 -189.854
L147.419 -192.007
L145.266 -192.724
L143.113 -193.442
L140.243 -194.16
z
" id="C0_c_1051d1f858"/>
     <path d="
M133.783 -185.547
L144.549 -185.547
L147.419 -184.83
L153.161 -181.959
L155.314 -180.524
L158.902 -177.653
L161.773 -180.524
L163.926 -181.959
L169.668 -184.83
L172.538 -185.547
L184.021 -185.547
L186.174 -184.83
L188.328 -184.112
L191.198 -182.677
L193.351 -181.241
L195.504 -179.806
L199.093 -176.217
L201.246 -173.347
L202.681 -171.194
L204.117 -168.323
L204.834 -166.17
L205.552 -164.017
L206.27 -160.428
L206.27 -153.252
L205.552 -149.663
L204.834 -147.51
L204.117 -145.357
L202.681 -142.486
L201.246 -140.333
L199.81 -138.18
L184.739 -122.391
L166.079 -103.014
L158.185 -95.8368
L151.008 -103.014
L132.348 -122.391
L117.277 -138.18
L115.841 -140.333
L114.406 -142.486
L112.971 -145.357
L112.253 -147.51
L111.535 -149.663
L110.818 -153.252
L110.818 -160.428
L111.535 -164.017
L112.253 -166.17
L112.971 -168.323
L114.406 -171.194
L115.841 -173.347
L117.994 -176.217
L121.583 -179.806
L123.736 -181.241
L125.889 -182.677
L128.76 -184.112
L130.913 -184.83
z
" id="C0_d_5f38581ad3"/>
     <path d="
M138.807 -176.217
L136.654 -175.5
L134.501 -174.782
L131.63 -173.347
L128.76 -171.194
L125.889 -168.323
L124.454 -166.17
L122.301 -161.864
L121.583 -159.711
L120.865 -155.405
L120.865 -151.816
L121.583 -147.51
L122.301 -145.357
L124.454 -141.051
L125.889 -138.898
L138.09 -125.98
L156.749 -106.602
L158.902 -105.167
L160.338 -106.602
L178.998 -125.98
L191.198 -138.898
L192.634 -141.051
L194.787 -145.357
L195.504 -147.51
L196.222 -151.816
L196.222 -155.405
L195.504 -159.711
L194.787 -161.864
L192.634 -166.17
L191.198 -168.323
L188.328 -171.194
L185.457 -173.347
L182.586 -174.782
L180.433 -175.5
L178.28 -176.217
L170.385 -176.217
L167.515 -175.5
L161.773 -172.629
L158.185 -169.758
L155.314 -172.629
L149.573 -175.5
L146.702 -176.217
z
" id="C0_e_92b0e1cf9a"/>
     <path d="
M142.396 -167.605
L151.008 -167.605
L153.161 -166.888
L154.596 -166.17
L156.032 -164.735
L158.902 -163.299
L160.338 -164.735
L162.491 -166.17
L163.926 -166.888
L166.079 -167.605
L174.692 -167.605
L176.845 -166.888
L178.998 -165.452
L181.151 -164.017
L182.586 -162.581
L184.739 -159.711
L186.174 -156.84
L186.892 -154.687
L186.892 -146.075
L186.174 -143.922
L184.739 -141.051
L183.304 -138.898
L166.079 -120.956
L158.185 -113.779
L151.726 -120.238
L133.783 -138.898
L132.348 -141.051
L130.913 -143.922
L130.195 -146.075
L130.195 -154.687
L130.913 -156.84
L132.348 -159.711
L134.501 -162.581
L135.937 -164.017
L138.09 -165.452
L140.243 -166.888
z
" id="C0_f_6a42f7aebc"/>
     <path d="
M148.137 -158.275
L143.831 -156.122
L142.396 -154.687
L140.96 -152.534
L140.243 -150.381
L140.243 -143.922
L140.96 -141.769
L142.396 -139.616
L157.467 -123.827
L159.62 -123.827
L174.692 -139.616
L176.127 -141.769
L176.845 -143.922
L176.845 -150.381
L176.127 -152.534
L174.692 -154.687
L173.256 -156.122
L168.95 -158.275
L163.926 -158.275
L161.773 -157.558
L160.338 -156.122
L157.467 -156.122
L156.749 -156.122
L155.314 -157.558
L153.161 -158.275
z
" id="C0_10_d0e64965e9"/>
     <path d="
M152.443 -149.663
L156.749 -149.663
L158.902 -148.228
L160.338 -149.663
L164.644 -149.663
L167.515 -146.792
L168.232 -145.357
L168.232 -142.486
L167.515 -141.051
L165.362 -138.18
L158.185 -131.721
L151.726 -138.18
L149.573 -141.051
L148.855 -142.486
L148.855 -145.357
L149.573 -146.792
z
" id="C0_11_7b2b0a3ea3"/>
     <path d="
M104.358 -247.986
L100.052 -247.268
L97.1815 -246.551
L94.3108 -245.833
L92.1578 -245.115
L90.0047 -244.398
L87.8516 -243.68
L85.6986 -242.245
L84.2632 -242.245
L81.3925 -240.809
L79.9571 -239.374
L77.8041 -238.656
L75.651 -237.221
L73.4979 -235.785
L70.6272 -233.632
L60.5796 -223.585
L58.4266 -220.714
L56.9912 -218.561
L55.5558 -216.408
L54.1205 -212.819
L52.6851 -211.384
L51.9674 -209.949
L51.9674 -208.513
L49.8143 -204.925
L49.0967 -202.772
L48.379 -200.619
L47.6613 -197.748
L46.9436 -195.595
L46.2259 -192.007
L45.5082 -186.983
L45.5082 -171.911
L46.2259 -166.888
L46.9436 -163.299
L47.6613 -160.428
L48.379 -158.275
L49.0967 -156.122
L49.8143 -153.969
L51.2497 -151.816
L51.2497 -150.381
L54.1205 -144.639
L55.5558 -142.486
L56.9912 -140.333
L58.4266 -138.18
L60.5796 -135.309
L64.8857 -130.286
L82.1102 -112.344
L102.205 -91.5307
L121.583 -72.1532
L140.243 -52.7757
L140.243 -52.058
L158.902 -33.3982
L176.845 -52.058
L195.504 -71.4355
L195.504 -72.1532
L214.882 -91.5307
L234.977 -112.344
L252.201 -130.286
L256.508 -135.309
L258.661 -138.18
L260.096 -140.333
L261.531 -142.486
L262.967 -144.639
L265.837 -150.381
L265.837 -151.816
L267.273 -153.969
L267.991 -156.122
L268.708 -158.275
L269.426 -160.428
L270.144 -163.299
L270.861 -166.888
L271.579 -171.911
L271.579 -186.983
L270.861 -192.007
L270.144 -195.595
L269.426 -197.748
L268.708 -200.619
L267.991 -202.772
L267.273 -204.925
L265.12 -208.513
L265.12 -209.949
L264.402 -211.384
L262.967 -212.819
L261.531 -216.408
L260.096 -218.561
L258.661 -220.714
L256.508 -223.585
L246.46 -233.632
L243.589 -235.785
L241.436 -237.221
L239.283 -238.656
L237.13 -239.374
L235.695 -240.809
L232.824 -242.245
L231.389 -242.245
L229.236 -243.68
L227.083 -244.398
L224.929 -245.115
L222.776 -245.833
L219.906 -246.551
L217.035 -247.268
L212.729 -247.986
L198.375 -247.986
L194.069 -247.268
L191.198 -246.551
L188.328 -245.833
L186.174 -245.115
L184.021 -244.398
L181.868 -243.68
L179.715 -242.245
L178.28 -242.245
L173.974 -240.091
L172.538 -238.656
L170.385 -237.938
L168.232 -236.503
L165.362 -234.35
L158.185 -227.891
L151.726 -234.35
L148.855 -236.503
L146.702 -237.938
L144.549 -238.656
L143.113 -240.091
L138.807 -242.245
L137.372 -242.245
L135.219 -243.68
L133.066 -244.398
L130.913 -245.115
L128.76 -245.833
L125.889 -246.551
L123.018 -247.268
L118.712 -247.986
z
" id="C0_12_60bf91b468"/>
     <path d="
M377.079 -242.245
L378.514 -240.091
L379.232 -237.938
L380.667 -235.785
L388.562 -235.785
L389.997 -234.35
L390.715 -232.915
L392.15 -230.044
L392.868 -228.608
L400.762 -228.608
L402.915 -226.455
L403.633 -224.302
L404.351 -222.867
L405.786 -221.432
L414.398 -220.714
L415.116 -218.561
L416.551 -217.126
L417.269 -214.972
L426.599 -213.537
L428.034 -211.384
L429.47 -207.796
L438.082 -207.078
L439.517 -205.643
L440.235 -204.207
L441.67 -201.336
L442.388 -199.901
L450.283 -199.901
L451.718 -198.466
L453.153 -196.313
L454.589 -193.442
L454.589 -191.289
L453.153 -189.854
L451.718 -186.265
L451 -184.83
L452.436 -183.394
L454.589 -179.088
L454.589 -176.935
L453.153 -175.5
L451.718 -171.911
L451 -170.476
L452.436 -169.041
L454.589 -164.735
L454.589 -162.581
L453.153 -161.146
L452.436 -158.993
L451 -157.558
L451 -156.122
L452.436 -154.687
L454.589 -150.381
L454.589 -148.945
L452.436 -144.639
L451 -143.204
L451 -141.769
L452.436 -140.333
L453.153 -138.18
L454.589 -136.745
L454.589 -134.592
L452.436 -130.286
L451.718 -127.415
L453.153 -123.827
L454.589 -122.391
L454.589 -120.238
L452.436 -115.932
L451.718 -113.061
L453.153 -109.473
L454.589 -108.037
L454.589 -105.884
L453.153 -103.014
L451.718 -100.861
L450.283 -99.4252
L442.388 -99.4252
L441.67 -97.9898
L440.235 -95.1191
L439.517 -93.6837
L438.082 -92.2484
L429.47 -91.5307
L428.034 -87.9423
L426.599 -85.7892
L417.269 -84.3538
L416.551 -82.2008
L415.116 -80.7654
L414.398 -78.6124
L405.786 -77.8947
L404.351 -76.4593
L403.633 -75.0239
L402.915 -72.8709
L400.762 -70.7178
L392.868 -70.7178
L392.15 -69.2824
L390.715 -66.4117
L389.997 -64.9763
L388.562 -63.541
L380.667 -63.541
L379.232 -61.3879
L378.514 -59.2349
L377.079 -57.0818
L367.749 -57.0818
L366.313 -59.2349
L365.596 -61.3879
L364.16 -63.541
L356.266 -63.541
L354.83 -64.9763
L354.113 -66.4117
L352.677 -69.2824
L351.96 -70.7178
L344.065 -70.7178
L341.912 -72.8709
L341.194 -75.0239
L340.477 -76.4593
L339.041 -77.8947
L330.429 -78.6124
L329.711 -80.7654
L328.276 -82.2008
L327.558 -84.3538
L318.228 -85.7892
L316.793 -87.9423
L315.358 -91.5307
L306.746 -92.2484
L305.31 -93.6837
L304.592 -95.1191
L303.157 -97.9898
L302.439 -99.4252
L294.545 -99.4252
L293.11 -100.861
L291.674 -103.014
L290.239 -105.884
L290.239 -108.037
L291.674 -109.473
L293.11 -113.061
L293.827 -114.497
L292.392 -115.932
L290.239 -120.238
L290.239 -122.391
L291.674 -123.827
L293.11 -127.415
L293.827 -128.85
L292.392 -130.286
L290.239 -134.592
L290.239 -136.745
L291.674 -138.18
L293.11 -141.769
L293.827 -143.204
L292.392 -144.639
L290.239 -148.945
L290.239 -150.381
L292.392 -154.687
L293.827 -156.122
L293.827 -157.558
L292.392 -158.993
L291.674 -161.146
L290.239 -162.581
L290.239 -164.735
L292.392 -169.041
L293.11 -171.911
L291.674 -175.5
L290.239 -176.935
L290.239 -179.088
L292.392 -183.394
L293.11 -186.265
L291.674 -189.854
L290.239 -191.289
L290.239 -193.442
L291.674 -196.313
L293.11 -198.466
L294.545 -199.901
L302.439 -199.901
L303.157 -201.336
L304.592 -204.207
L305.31 -205.643
L306.746 -207.078
L315.358 -207.796
L316.793 -211.384
L318.228 -213.537
L327.558 -214.972
L328.276 -217.126
L329.711 -218.561
L330.429 -220.714
L339.041 -221.432
L340.477 -222.867
L341.194 -224.302
L341.912 -226.455
L344.065 -228.608
L351.96 -228.608
L352.677 -230.044
L354.113 -232.915
L354.83 -234.35
L356.266 -235.785
L364.16 -235.785
L365.596 -237.938
L366.313 -240.091
L367.749 -242.245
z
" id="C0_13_a8a1d4ffb0"/>
     <path d="
M367.749 -227.173
L366.313 -225.02
L365.596 -222.867
L363.443 -220.714
L356.266 -220.714
L354.83 -219.279
L354.113 -217.126
L352.677 -214.972
L351.242 -213.537
L343.347 -213.537
L342.63 -212.102
L341.194 -209.231
L340.477 -207.796
L339.041 -206.36
L330.429 -205.643
L328.994 -202.054
L327.558 -199.901
L318.228 -198.466
L317.511 -196.313
L316.075 -194.16
L313.922 -192.007
L306.746 -192.007
L305.31 -190.571
L303.157 -186.265
L303.157 -184.112
L303.875 -182.677
L305.31 -181.241
L306.028 -179.088
L306.746 -177.653
L305.31 -176.217
L303.157 -171.911
L303.157 -169.758
L304.592 -168.323
L306.028 -164.735
L306.746 -163.299
L305.31 -161.864
L304.592 -159.711
L303.157 -158.275
L303.157 -155.405
L304.592 -153.969
L305.31 -152.534
L306.746 -149.663
L305.31 -147.51
L304.592 -145.357
L303.157 -143.922
L302.439 -142.486
L303.157 -141.051
L304.592 -139.616
L305.31 -138.18
L306.028 -134.592
L305.31 -132.439
L304.592 -131.003
L303.157 -129.568
L303.157 -127.415
L305.31 -123.109
L306.028 -120.238
L304.592 -116.65
L303.157 -115.214
L303.157 -113.061
L305.31 -108.755
L306.746 -107.32
L313.922 -107.32
L316.075 -105.167
L317.511 -103.014
L318.228 -100.861
L327.558 -99.4252
L328.994 -97.2722
L330.429 -93.6837
L339.041 -92.9661
L340.477 -91.5307
L341.194 -90.0953
L342.63 -87.2246
L343.347 -85.7892
L351.242 -85.7892
L352.677 -84.3538
L354.113 -82.2008
L354.83 -80.0477
L356.266 -78.6124
L363.443 -78.6124
L365.596 -76.4593
L366.313 -74.3062
L367.749 -72.1532
L377.079 -72.1532
L378.514 -74.3062
L379.232 -76.4593
L381.385 -78.6124
L388.562 -78.6124
L389.997 -80.0477
L390.715 -82.2008
L392.15 -84.3538
L393.585 -85.7892
L401.48 -85.7892
L402.198 -87.2246
L403.633 -90.0953
L404.351 -91.5307
L405.786 -92.9661
L414.398 -93.6837
L415.834 -97.2722
L417.269 -99.4252
L426.599 -100.861
L427.317 -103.014
L428.752 -105.167
L430.905 -107.32
L438.082 -107.32
L439.517 -108.755
L441.67 -113.061
L441.67 -115.214
L440.953 -116.65
L439.517 -118.085
L438.8 -120.238
L438.082 -121.673
L439.517 -123.109
L441.67 -127.415
L441.67 -129.568
L440.235 -131.003
L439.517 -132.439
L438.082 -135.309
L439.517 -137.463
L440.235 -139.616
L441.67 -141.051
L442.388 -142.486
L441.67 -143.922
L440.235 -145.357
L439.517 -146.792
L438.082 -149.663
L439.517 -151.816
L440.235 -153.969
L441.67 -155.405
L442.388 -156.84
L441.67 -158.275
L440.235 -159.711
L439.517 -161.146
L438.082 -164.017
L439.517 -166.17
L440.235 -168.323
L441.67 -169.758
L441.67 -171.911
L439.517 -176.217
L438.8 -179.088
L439.517 -181.241
L440.953 -182.677
L441.67 -184.112
L441.67 -186.265
L439.517 -190.571
L438.082 -192.007
L430.905 -192.007
L428.752 -194.16
L427.317 -196.313
L426.599 -198.466
L417.269 -199.901
L415.834 -202.054
L414.398 -205.643
L405.786 -206.36
L404.351 -207.796
L403.633 -209.231
L402.198 -212.102
L401.48 -213.537
L393.585 -213.537
L392.15 -214.972
L390.715 -217.126
L389.997 -219.279
L388.562 -220.714
L381.385 -220.714
L379.232 -222.867
L378.514 -225.02
L377.079 -227.173
z
" id="C0_14_50814688f1"/>
     <path d="
M368.466 -214.255
L376.361 -214.255
L377.796 -212.819
L378.514 -211.384
L379.232 -209.231
L380.667 -207.078
L388.562 -207.078
L389.997 -205.643
L391.432 -203.49
L392.15 -201.336
L393.585 -199.901
L400.762 -199.901
L402.915 -197.748
L403.633 -195.595
L405.068 -193.442
L414.398 -192.007
L415.116 -189.854
L416.551 -188.418
L417.269 -186.265
L425.881 -185.547
L427.317 -184.112
L428.752 -180.524
L430.187 -179.088
L430.187 -177.653
L429.47 -176.217
L428.034 -174.782
L426.599 -171.911
L426.599 -170.476
L428.752 -166.17
L430.187 -164.735
L430.187 -163.299
L429.47 -161.864
L428.034 -160.428
L426.599 -157.558
L426.599 -156.122
L428.752 -151.816
L430.187 -150.381
L430.187 -148.945
L428.752 -147.51
L426.599 -143.204
L426.599 -141.769
L428.034 -138.898
L429.47 -137.463
L430.187 -136.027
L430.187 -134.592
L428.752 -133.156
L426.599 -128.85
L426.599 -127.415
L428.034 -124.544
L429.47 -123.109
L430.187 -121.673
L430.187 -120.238
L428.752 -118.803
L427.317 -115.214
L425.881 -113.779
L417.269 -113.061
L416.551 -110.908
L415.116 -109.473
L414.398 -107.32
L405.068 -105.884
L403.633 -103.731
L402.915 -101.578
L400.762 -99.4252
L393.585 -99.4252
L392.15 -97.9898
L391.432 -95.8368
L389.997 -93.6837
L388.562 -92.2484
L380.667 -92.2484
L379.232 -90.0953
L378.514 -87.9423
L377.796 -86.5069
L376.361 -85.0715
L368.466 -85.0715
L367.031 -86.5069
L366.313 -87.9423
L365.596 -90.0953
L364.16 -92.2484
L356.266 -92.2484
L354.83 -93.6837
L353.395 -95.8368
L352.677 -97.9898
L351.242 -99.4252
L344.065 -99.4252
L341.912 -101.578
L341.194 -103.731
L339.759 -105.884
L330.429 -107.32
L329.711 -109.473
L328.276 -110.908
L327.558 -113.061
L318.946 -113.779
L317.511 -115.214
L316.075 -118.803
L314.64 -120.238
L314.64 -121.673
L315.358 -123.109
L316.793 -124.544
L318.228 -127.415
L318.228 -128.85
L316.075 -133.156
L314.64 -134.592
L314.64 -136.027
L315.358 -137.463
L316.793 -138.898
L318.228 -141.769
L318.228 -143.204
L316.075 -147.51
L314.64 -148.945
L314.64 -150.381
L316.075 -151.816
L318.228 -156.122
L318.228 -157.558
L316.793 -160.428
L315.358 -161.864
L314.64 -163.299
L314.64 -164.735
L316.075 -166.17
L318.228 -170.476
L318.228 -171.911
L316.793 -174.782
L315.358 -176.217
L314.64 -177.653
L314.64 -179.088
L316.075 -180.524
L317.511 -184.112
L318.946 -185.547
L327.558 -186.265
L328.276 -188.418
L329.711 -189.854
L330.429 -192.007
L339.759 -193.442
L341.194 -195.595
L341.912 -197.748
L344.065 -199.901
L351.242 -199.901
L352.677 -201.336
L353.395 -203.49
L354.83 -205.643
L356.266 -207.078
L364.16 -207.078
L365.596 -209.231
L366.313 -211.384
L367.031 -212.819
z
" id="C0_15_ba1cec9ce3"/>
     <path d="
M367.749 -198.466
L366.313 -196.313
L365.596 -194.16
L363.443 -192.007
L355.548 -192.007
L354.83 -190.571
L354.113 -188.418
L352.677 -186.265
L351.242 -184.83
L343.347 -184.83
L341.912 -182.677
L340.477 -179.088
L331.865 -178.371
L330.429 -176.935
L329.711 -174.782
L328.276 -173.347
L327.558 -171.911
L327.558 -170.476
L328.276 -169.041
L329.711 -167.605
L331.147 -164.735
L331.147 -163.299
L329.711 -160.428
L328.276 -158.993
L327.558 -157.558
L327.558 -156.122
L328.276 -154.687
L329.711 -153.252
L331.147 -150.381
L331.147 -148.945
L329.711 -146.075
L328.276 -144.639
L327.558 -143.204
L327.558 -141.769
L328.994 -140.333
L331.147 -136.027
L331.147 -134.592
L329.711 -131.721
L328.276 -130.286
L327.558 -128.85
L327.558 -127.415
L328.994 -125.98
L330.429 -122.391
L339.041 -121.673
L340.477 -120.238
L341.194 -118.803
L342.63 -115.932
L343.347 -114.497
L351.242 -114.497
L352.677 -113.061
L354.113 -110.908
L354.83 -108.755
L355.548 -107.32
L363.443 -107.32
L365.596 -105.167
L366.313 -103.014
L367.749 -100.861
L377.079 -100.861
L378.514 -103.014
L379.232 -105.167
L381.385 -107.32
L389.279 -107.32
L389.997 -108.755
L390.715 -110.908
L392.15 -113.061
L393.585 -114.497
L401.48 -114.497
L402.198 -115.932
L403.633 -118.803
L404.351 -120.238
L405.786 -121.673
L414.398 -122.391
L415.834 -125.98
L417.269 -127.415
L417.269 -128.85
L416.551 -130.286
L415.116 -131.721
L413.681 -134.592
L413.681 -136.027
L415.834 -140.333
L417.269 -141.769
L417.269 -143.204
L416.551 -144.639
L415.116 -146.075
L413.681 -148.945
L413.681 -150.381
L415.116 -153.252
L416.551 -154.687
L417.269 -156.122
L417.269 -157.558
L416.551 -158.993
L415.116 -160.428
L413.681 -163.299
L413.681 -164.735
L415.116 -167.605
L416.551 -169.041
L417.269 -170.476
L417.269 -171.911
L415.834 -173.347
L414.398 -176.935
L412.963 -178.371
L404.351 -179.088
L402.915 -182.677
L401.48 -184.83
L393.585 -184.83
L392.15 -186.265
L390.715 -188.418
L389.997 -190.571
L389.279 -192.007
L381.385 -192.007
L379.232 -194.16
L378.514 -196.313
L377.079 -198.466
z
" id="C0_16_b0ef41b116"/>
     <path d="
M368.466 -185.547
L376.361 -185.547
L377.796 -184.112
L378.514 -182.677
L379.949 -179.806
L380.667 -178.371
L388.562 -178.371
L389.997 -176.935
L391.432 -174.782
L392.15 -172.629
L393.585 -171.194
L402.198 -170.476
L403.633 -166.888
L405.068 -165.452
L405.786 -164.017
L405.068 -162.581
L403.633 -161.146
L402.915 -159.711
L401.48 -156.84
L402.915 -154.687
L403.633 -152.534
L405.068 -151.099
L405.786 -149.663
L405.068 -148.228
L403.633 -146.792
L402.915 -145.357
L401.48 -142.486
L402.198 -141.051
L402.915 -139.616
L404.351 -138.18
L405.068 -136.745
L405.786 -135.309
L405.068 -133.874
L403.633 -132.439
L402.198 -128.85
L393.585 -128.133
L392.15 -126.697
L391.432 -124.544
L389.997 -122.391
L388.562 -120.956
L380.667 -120.956
L379.949 -119.52
L378.514 -116.65
L377.796 -115.214
L376.361 -113.779
L368.466 -113.779
L367.031 -115.214
L366.313 -116.65
L364.878 -119.52
L364.16 -120.956
L356.266 -120.956
L354.83 -122.391
L353.395 -124.544
L352.677 -126.697
L351.242 -128.133
L342.63 -128.85
L341.194 -132.439
L339.759 -133.874
L339.041 -135.309
L339.759 -136.745
L340.477 -138.18
L341.912 -139.616
L342.63 -141.051
L343.347 -142.486
L341.912 -144.639
L341.194 -146.792
L339.759 -148.228
L339.041 -149.663
L339.759 -151.099
L341.194 -152.534
L341.912 -153.969
L343.347 -156.84
L341.912 -158.993
L341.194 -161.146
L339.759 -162.581
L339.041 -164.017
L339.759 -165.452
L341.194 -166.888
L342.63 -170.476
L351.242 -171.194
L352.677 -172.629
L354.113 -176.217
L356.266 -178.371
L363.443 -178.371
L364.878 -179.806
L366.313 -181.959
L367.031 -184.112
z
" id="C0_17_25fb53c05b"/>
     <path d="
M369.184 -171.194
L367.031 -169.041
L365.596 -165.452
L364.16 -164.017
L355.548 -163.299
L354.83 -161.146
L353.395 -159.711
L352.677 -158.275
L351.96 -156.84
L352.677 -155.405
L353.395 -153.969
L354.83 -152.534
L355.548 -151.099
L356.266 -149.663
L355.548 -148.228
L354.83 -146.792
L353.395 -145.357
L352.677 -143.922
L351.96 -142.486
L352.677 -141.051
L354.113 -139.616
L354.83 -137.463
L355.548 -136.027
L363.443 -136.027
L365.596 -133.874
L367.031 -130.286
L368.466 -128.85
L376.361 -128.85
L377.796 -130.286
L379.232 -133.874
L381.385 -136.027
L389.279 -136.027
L389.997 -137.463
L390.715 -139.616
L392.15 -141.051
L392.868 -142.486
L392.15 -143.922
L391.432 -145.357
L389.997 -146.792
L389.279 -148.228
L388.562 -149.663
L389.279 -151.099
L389.997 -152.534
L391.432 -153.969
L392.15 -155.405
L392.868 -156.84
L392.15 -158.275
L391.432 -159.711
L389.997 -161.146
L389.279 -163.299
L380.667 -164.017
L379.232 -165.452
L377.796 -169.041
L375.643 -171.194
z
" id="C0_18_c9e078a441"/>
     <path d="
M368.466 -156.84
L376.361 -156.84
L377.796 -155.405
L378.514 -153.252
L379.949 -151.816
L380.667 -150.381
L380.667 -148.945
L379.949 -147.51
L378.514 -146.075
L377.796 -143.922
L376.361 -142.486
L368.466 -142.486
L367.031 -143.922
L366.313 -146.075
L364.878 -147.51
L364.16 -148.945
L364.16 -150.381
L364.878 -151.816
L366.313 -153.252
L367.031 -155.405
z
" id="C0_19_3dd45fa097"/>
     <path d="
M367.749 -255.881
L367.031 -253.727
L365.596 -252.292
L364.878 -250.139
L356.266 -249.421
L354.83 -247.986
L354.113 -246.551
L353.395 -244.398
L351.242 -242.245
L343.347 -242.245
L342.63 -240.809
L341.194 -237.938
L340.477 -236.503
L339.041 -235.068
L331.147 -235.068
L329.711 -232.915
L328.994 -230.762
L328.276 -229.326
L326.841 -227.891
L318.228 -227.173
L317.511 -225.02
L316.075 -223.585
L315.358 -221.432
L306.028 -219.996
L304.592 -217.843
L303.875 -215.69
L301.722 -213.537
L293.827 -213.537
L293.11 -212.102
L292.392 -209.949
L290.956 -207.796
L289.521 -206.36
L281.627 -206.36
L280.191 -204.207
L278.756 -200.619
L278.756 -197.748
L280.191 -196.313
L281.627 -193.442
L281.627 -191.289
L280.191 -189.854
L279.474 -187.7
L278.038 -186.265
L278.038 -184.83
L278.756 -183.394
L280.191 -181.959
L281.627 -179.088
L281.627 -176.935
L280.191 -175.5
L279.474 -173.347
L278.038 -171.911
L278.038 -170.476
L279.474 -169.041
L281.627 -164.735
L281.627 -163.299
L279.474 -158.993
L278.038 -157.558
L278.038 -156.122
L279.474 -154.687
L281.627 -150.381
L281.627 -148.945
L279.474 -144.639
L278.038 -143.204
L278.038 -141.769
L279.474 -140.333
L280.191 -138.18
L281.627 -136.745
L281.627 -134.592
L279.474 -130.286
L278.038 -128.85
L278.038 -127.415
L279.474 -125.98
L280.191 -123.827
L281.627 -122.391
L281.627 -120.238
L280.191 -117.367
L278.756 -115.932
L278.038 -114.497
L278.038 -113.061
L279.474 -111.626
L280.191 -109.473
L281.627 -108.037
L281.627 -105.884
L280.191 -103.014
L278.756 -101.578
L278.756 -98.7075
L280.191 -95.1191
L281.627 -92.9661
L289.521 -92.9661
L290.956 -91.5307
L292.392 -89.3776
L293.11 -87.2246
L293.827 -85.7892
L301.722 -85.7892
L303.875 -83.6361
L304.592 -81.4831
L306.028 -79.33
L315.358 -77.8947
L316.075 -75.7416
L317.511 -74.3062
L318.228 -72.1532
L326.841 -71.4355
L328.276 -70.0001
L328.994 -68.5648
L329.711 -66.4117
L331.147 -64.2587
L339.041 -64.2587
L340.477 -62.8233
L341.194 -61.3879
L342.63 -58.5172
L343.347 -57.0818
L351.242 -57.0818
L353.395 -54.9288
L354.113 -52.7757
L354.83 -51.3403
L356.266 -49.905
L364.878 -49.1873
L365.596 -47.0342
L367.031 -45.5988
L367.749 -43.4458
L377.079 -43.4458
L377.796 -45.5988
L379.232 -47.0342
L379.949 -49.1873
L388.562 -49.905
L389.997 -51.3403
L390.715 -52.7757
L391.432 -54.9288
L393.585 -57.0818
L401.48 -57.0818
L402.198 -58.5172
L403.633 -61.3879
L404.351 -62.8233
L405.786 -64.2587
L413.681 -64.2587
L415.116 -66.4117
L415.834 -68.5648
L416.551 -70.0001
L417.987 -71.4355
L426.599 -72.1532
L427.317 -74.3062
L428.752 -75.7416
L429.47 -77.8947
L438.082 -78.6124
L439.517 -80.0477
L440.235 -81.4831
L440.953 -83.6361
L443.106 -85.7892
L451 -85.7892
L451.718 -87.2246
L452.436 -89.3776
L453.871 -91.5307
L455.306 -92.9661
L463.201 -92.9661
L464.636 -95.1191
L466.072 -98.7075
L466.072 -101.578
L464.636 -103.014
L463.201 -105.884
L463.201 -108.037
L464.636 -109.473
L465.354 -111.626
L466.789 -113.061
L466.789 -114.497
L466.072 -115.932
L464.636 -117.367
L463.201 -120.238
L463.201 -122.391
L464.636 -123.827
L465.354 -125.98
L466.789 -127.415
L466.789 -128.85
L465.354 -130.286
L463.201 -134.592
L463.201 -136.027
L465.354 -140.333
L466.789 -141.769
L466.789 -143.204
L465.354 -144.639
L463.201 -148.945
L463.201 -150.381
L465.354 -154.687
L466.789 -156.122
L466.789 -157.558
L465.354 -158.993
L463.201 -163.299
L463.201 -164.735
L465.354 -169.041
L466.789 -170.476
L466.789 -171.911
L465.354 -173.347
L464.636 -175.5
L463.201 -176.935
L463.201 -179.088
L464.636 -181.959
L466.072 -183.394
L466.789 -184.83
L466.789 -186.265
L465.354 -187.7
L464.636 -189.854
L463.201 -191.289
L463.201 -193.442
L464.636 -196.313
L466.072 -197.748
L466.072 -200.619
L464.636 -204.207
L463.201 -206.36
L455.306 -206.36
L453.871 -207.796
L452.436 -209.949
L451.718 -212.102
L451 -213.537
L443.106 -213.537
L440.953 -215.69
L440.235 -217.843
L439.517 -219.279
L438.082 -220.714
L429.47 -221.432
L428.752 -223.585
L427.317 -225.02
L426.599 -227.173
L417.987 -227.891
L416.551 -229.326
L415.834 -230.762
L415.116 -232.915
L413.681 -235.068
L405.786 -235.068
L404.351 -236.503
L403.633 -237.938
L402.198 -240.809
L401.48 -242.245
L393.585 -242.245
L391.432 -244.398
L390.715 -246.551
L389.997 -247.986
L388.562 -249.421
L379.949 -250.139
L379.232 -252.292
L377.796 -253.727
L377.079 -255.881
z
" id="C0_1a_bd3cdefe6f"/>
    </defs>
    <g clip-path="url(#p3384afb5e8)">
     <use style="fill:none;stroke:#0000e8;" x="0.0" xlink:href="#C0_0_8803407f64" y="275.256149886"/>
    </g>
    <g clip-path="url(#p3384afb5e8)">
     <use style="fill:none;stroke:#0038ff;" x="0.0" xlink:href="#C0_1_4e71846f0d" y="275.256149886"/>
    </g>
    <g clip-path="url(#p3384afb5e8)">
     <use style="fill:none;stroke:#0094ff;" x="0.0" xlink:href="#C0_2_d719a2e434" y="275.256149886"/>
    </g>
    <g clip-path="url(#p3384afb5e8)">
     <use style="fill:none;stroke:#0038ff;" x="0.0" xlink:href="#C0_3_24ac6d768b" y="275.256149886"/>
    </g>
    <g clip-path="url(#p3384afb5e8)">
     <use style="fill:none;stroke:#0094ff;" x="0.0" xlink:href="#C0_4_e9e4c526df" y="275.256149886"/>
    </g>
    <g clip-path="url(#p3384afb5e8)">
     <use style="fill:none;stroke:#0094ff;" x="0.0" xlink:href="#C0_5_c0eb399115" y="275.256149886"/>
    </g>
    <g clip-path="url(#p3384afb5e8)">
     <use style="fill:none;stroke:#000080;" x="0.0" xlink:href="#C0_6_18faa1f9d7" y="275.256149886"/>
    </g>
    <g clip-path="url(#p3384afb5e8)">
     <use style="fill:none;stroke:#0000e8;" x="0.0" xlink:href="#C0_7_356be1ec0f" y="275.256149886"/>
    </g>
    <g clip-path="url(#p3384afb5e8)">
     <use style="fill:none;stroke:#0038ff;" x="0.0" xlink:href="#C0_8_fba9fbc1c4" y="275.256149886"/>
    </g>
    <g clip-path="url(#p3384afb5e8)">
     <use style="fill:none;stroke:#0094ff;" x="0.0" xlink:href="#C0_9_c6bca8e3c2" y="275.256149886"/>
    </g>
    <g clip-path="url(#p3384afb5e8)">
     <use style="fill:none;stroke:#0cf4eb;" x="0.0" xlink:href="#C0_a_e96769c766" y="275.256149886"/>
    </g>
    <g clip-path="url(#p3384afb5e8)">
     <use style="fill:none;stroke:#56ffa0;" x="0.0" xlink:href="#C0_b_9f71ad2ccf" y="275.256149886"/>
    </g>
    <g clip-path="url(#p3384afb5e8)">
     <use style="fill:none;stroke:#a0ff56;" x="0.0" xlink:href="#C0_c_1051d1f858" y="275.256149886"/>
    </g>
    <g clip-path="url(#p3384afb5e8)">
     <use style="fill:none;stroke:#ebff0c;" x="0.0" xlink:href="#C0_d_5f38581ad3" y="275.256149886"/>
    </g>
    <g clip-path="url(#p3384afb5e8)">
     <use style="fill:none;stroke:#ffab00;" x="0.0" xlink:href="#C0_e_92b0e1cf9a" y="275.256149886"/>
    </g>
    <g clip-path="url(#p3384afb5e8)">
     <use style="fill:none;stroke:#ff5500;" x="0.0" xlink:href="#C0_f_6a42f7aebc" y="275.256149886"/>
    </g>
    <g clip-path="url(#p3384afb5e8)">
     <use style="fill:none;stroke:#e80000;" x="0.0" xlink:href="#C0_10_d0e64965e9" y="275.256149886"/>
    </g>
    <g clip-path="url(#p3384afb5e8)">
     <use style="fill:none;stroke:#800000;" x="0.0" xlink:href="#C0_11_7b2b0a3ea3" y="275.256149886"/>
    </g>
    <g clip-path="url(#p3384afb5e8)">
     <use style="fill:none;stroke:#000080;" x="0.0" xlink:href="#C0_12_60bf91b468" y="275.256149886"/>
    </g>
    <g clip-path="url(#p3384afb5e8)">
     <use style="fill:none;stroke:#0000e8;" x="0.0" xlink:href="#C0_13_a8a1d4ffb0" y="275.256149886"/>
    </g>
    <g clip-path="url(#p3384afb5e8)">
     <use style="fill:none;stroke:#0038ff;" x="0.0" xlink:href="#C0_14_50814688f1" y="275.256149886"/>
    </g>
    <g clip-path="url(#p3384afb5e8)">
     <use style="fill:none;stroke:#0094ff;" x="0.0" xlink:href="#C0_15_ba1cec9ce3" y="275.256149886"/>
    </g>
    <g clip-path="url(#p3384afb5e8)">
     <use style="fill:none;stroke:#0cf4eb;" x="0.0" xlink:href="#C0_16_b0ef41b116" y="275.256149886"/>
    </g>
    <g clip-path="url(#p3384afb5e8)">
     <use style="fill:none;stroke:#56ffa0;" x="0.0" xlink:href="#C0_17_25fb53c05b" y="275.256149886"/>
    </g>
    <g clip-path="url(#p3384afb5e8)">
     <use style="fill:none;stroke:#a0ff56;" x="0.0" xlink:href="#C0_18_c9e078a441" y="275.256149886"/>
    </g>
    <g clip-path="url(#p3384afb5e8)">
     <use style="fill:none;stroke:#ebff0c;" x="0.0" xlink:href="#C0_19_3dd45fa097" y="275.256149886"/>
    </g>
    <g clip-path="url(#p3384afb5e8)">
     <use style="fill:none;stroke:#000080;" x="0.0" xlink:href="#C0_1a_bd3cdefe6f" y="275.256149886"/>
    </g>
   </g>
   <g id="patch_3">
    <path d="
M26.8484 12.1988
L473.248 12.1988" style="fill:none;stroke:#000000;stroke-linecap:square;stroke-linejoin:miter;"/>
   </g>
   <g id="patch_4">
    <path d="
M473.248 254.059
L473.248 12.1988" style="fill:none;stroke:#000000;stroke-linecap:square;stroke-linejoin:miter;"/>
   </g>
   <g id="patch_5">
    <path d="
M26.8484 254.059
L473.248 254.059" style="fill:none;stroke:#000000;stroke-linecap:square;stroke-linejoin:miter;"/>
   </g>
   <g id="patch_6">
    <path d="
M26.8484 254.059
L26.8484 12.1988" style="fill:none;stroke:#000000;stroke-linecap:square;stroke-linejoin:miter;"/>
   </g>
   <g id="matplotlib.axis_1">
    <g id="xtick_1">
     <g id="line2d_1">
      <defs>
       <path d="
M0 0
L0 -4" id="m93b0483c22" style="stroke:#000000;stroke-width:0.5;"/>
      </defs>
      <g>
       <use style="stroke:#000000;stroke-width:0.5;" x="26.848425625" xlink:href="#m93b0483c22" y="254.058588011"/>
      </g>
     </g>
     <g id="line2d_2">
      <defs>
       <path d="
M0 0
L0 4" id="m741efc42ff" style="stroke:#000000;stroke-width:0.5;"/>
      </defs>
      <g>
       <use style="stroke:#000000;stroke-width:0.5;" x="26.848425625" xlink:href="#m741efc42ff" y="12.1987809375"/>
      </g>
     </g>
     <g id="text_1">
      <!-- 0 -->
      <defs>
       <path d="
M50.3906 35.7969
Q50.3906 27.1562 49.1406 20.3125
Q47.9062 13.4844 45.1406 8.73438
Q42.3906 4 38.0312 1.5
Q33.6875 -0.984375 27.4844 -0.984375
Q21.7344 -0.984375 17.4531 1.5
Q13.1875 4 10.375 8.73438
Q7.5625 13.4844 6.17188 20.3125
Q4.78125 27.1562 4.78125 35.7969
Q4.78125 44.4375 6.03125 51.2656
Q7.28125 58.1094 9.98438 62.8125
Q12.7031 67.5312 17.0156 70.0156
Q21.3438 72.5156 27.4844 72.5156
Q33.2969 72.5156 37.5938 70.0469
Q41.8906 67.5781 44.7188 62.8594
Q47.5625 58.1562 48.9688 51.3125
Q50.3906 44.4844 50.3906 35.7969
M13.8125 35.7969
Q13.8125 28.4688 14.5469 23
Q15.2812 17.5312 16.8906 13.8906
Q18.5 10.25 21.1094 8.42188
Q23.7344 6.59375 27.4844 6.59375
Q31.25 6.59375 33.8906 8.39062
Q36.5312 10.2031 38.2031 13.8125
Q39.8906 17.4375 40.6406 22.9219
Q41.4062 28.4219 41.4062 35.7969
Q41.4062 43.1094 40.6406 48.5781
Q39.8906 54.0469 38.2031 57.6562
Q36.5312 61.2812 33.8906 63.0781
Q31.25 64.8906 27.4844 64.8906
Q23.7344 64.8906 21.1094 63.0781
Q18.5 61.2812 16.8906 57.6562
Q15.2812 54.0469 14.5469 48.5781
Q13.8125 43.1094 13.8125 35.7969" id="WenQuanYiMicroHei-30"/>
      </defs>
      <g transform="translate(24.5688690625 265.653986136)scale(0.09996 -0.09996)">
       <use xlink:href="#WenQuanYiMicroHei-30"/>
      </g>
     </g>
    </g>
    <g id="xtick_2">
     <g id="line2d_3">
      <g>
       <use style="stroke:#000000;stroke-width:0.5;" x="98.616914371" xlink:href="#m93b0483c22" y="254.058588011"/>
      </g>
     </g>
     <g id="line2d_4">
      <g>
       <use style="stroke:#000000;stroke-width:0.5;" x="98.616914371" xlink:href="#m741efc42ff" y="12.1987809375"/>
      </g>
     </g>
     <g id="text_2">
      <!-- 100 -->
      <defs>
       <path d="
M34.7188 0
L26.125 0
L26.125 44.5781
Q26.125 46.6875 26.1406 49.0781
Q26.1719 51.4688 26.2344 53.8281
Q26.3125 56.2031 26.3906 58.375
Q26.4688 60.5469 26.5156 62.2031
Q25.6875 61.3281 25.0469 60.6875
Q24.4219 60.0625 23.75 59.4688
Q23.0938 58.8906 22.3594 58.2188
Q21.625 57.5625 20.6094 56.6875
L13.375 50.7812
L8.6875 56.7812
L27.3906 71.3906
L34.7188 71.3906
z
" id="WenQuanYiMicroHei-31"/>
      </defs>
      <g transform="translate(91.0269828085 265.653986136)scale(0.09996 -0.09996)">
       <use xlink:href="#WenQuanYiMicroHei-31"/>
       <use x="55.078125" xlink:href="#WenQuanYiMicroHei-30"/>
       <use x="110.15625" xlink:href="#WenQuanYiMicroHei-30"/>
      </g>
     </g>
    </g>
    <g id="xtick_3">
     <g id="line2d_5">
      <g>
       <use style="stroke:#000000;stroke-width:0.5;" x="170.385403117" xlink:href="#m93b0483c22" y="254.058588011"/>
      </g>
     </g>
     <g id="line2d_6">
      <g>
       <use style="stroke:#000000;stroke-width:0.5;" x="170.385403117" xlink:href="#m741efc42ff" y="12.1987809375"/>
      </g>
     </g>
     <g id="text_3">
      <!-- 200 -->
      <defs>
       <path d="
M49.2188 0
L4.6875 0
L4.6875 7.625
L21.7812 26.2188
Q25.4375 30.1719 28.3125 33.4375
Q31.2031 36.7188 33.2188 39.8438
Q35.25 42.9688 36.3281 46.1094
Q37.4062 49.2656 37.4062 52.9844
Q37.4062 55.8594 36.5781 58.0469
Q35.75 60.25 34.2031 61.7812
Q32.6719 63.3281 30.5625 64.1094
Q28.4688 64.8906 25.875 64.8906
Q21.2344 64.8906 17.5 63.0156
Q13.7656 61.1406 10.4062 58.2031
L5.42188 64.0156
Q7.375 65.7656 9.60938 67.2969
Q11.8594 68.8438 14.4531 69.9688
Q17.0469 71.0938 19.9219 71.75
Q22.7969 72.4062 25.9844 72.4062
Q30.6719 72.4062 34.4531 71.0938
Q38.2344 69.7812 40.8594 67.3125
Q43.5 64.8438 44.9375 61.2969
Q46.3906 57.7656 46.3906 53.3281
Q46.3906 49.1719 45.0938 45.4062
Q43.7969 41.6562 41.5312 38.0156
Q39.2656 34.375 36.1094 30.7031
Q32.9531 27.0469 29.2969 23.0938
L15.5781 8.5
L15.5781 8.10938
L49.2188 8.10938
z
" id="WenQuanYiMicroHei-32"/>
      </defs>
      <g transform="translate(162.595551554 265.653986136)scale(0.09996 -0.09996)">
       <use xlink:href="#WenQuanYiMicroHei-32"/>
       <use x="55.078125" xlink:href="#WenQuanYiMicroHei-30"/>
       <use x="110.15625" xlink:href="#WenQuanYiMicroHei-30"/>
      </g>
     </g>
    </g>
    <g id="xtick_4">
     <g id="line2d_7">
      <g>
       <use style="stroke:#000000;stroke-width:0.5;" x="242.153891863" xlink:href="#m93b0483c22" y="254.058588011"/>
      </g>
     </g>
     <g id="line2d_8">
      <g>
       <use style="stroke:#000000;stroke-width:0.5;" x="242.153891863" xlink:href="#m741efc42ff" y="12.1987809375"/>
      </g>
     </g>
     <g id="text_4">
      <!-- 300 -->
      <defs>
       <path d="
M46.9219 54.6875
Q46.9219 51.125 45.7969 48.1875
Q44.6719 45.2656 42.6406 43.1094
Q40.625 40.9688 37.7969 39.5781
Q34.9688 38.1875 31.5 37.5938
L31.5 37.3125
Q40.1406 36.2344 44.625 31.8125
Q49.125 27.3906 49.125 20.3125
Q49.125 15.625 47.5312 11.7188
Q45.9531 7.8125 42.7188 4.98438
Q39.5 2.15625 34.5625 0.578125
Q29.6406 -0.984375 22.9062 -0.984375
Q17.5781 -0.984375 12.8594 -0.140625
Q8.15625 0.6875 4 2.875
L4 11.1875
Q8.25 8.9375 13.2031 7.71875
Q18.1719 6.5 22.7031 6.5
Q27.2031 6.5 30.4688 7.46875
Q33.7344 8.45312 35.8594 10.25
Q37.9844 12.0625 38.9844 14.6875
Q39.9844 17.3281 39.9844 20.6094
Q39.9844 23.9219 38.6875 26.2812
Q37.4062 28.6562 35.0156 30.1875
Q32.625 31.7344 29.1719 32.4688
Q25.7344 33.2031 21.3906 33.2031
L14.8906 33.2031
L14.8906 40.5781
L21.3906 40.5781
Q25.3438 40.5781 28.4219 41.5469
Q31.5 42.5312 33.5625 44.3281
Q35.6406 46.1406 36.7188 48.625
Q37.7969 51.125 37.7969 54.1094
Q37.7969 56.6406 36.9062 58.6406
Q36.0312 60.6406 34.4219 62.0312
Q32.8125 63.4219 30.5625 64.1562
Q28.3281 64.8906 25.5938 64.8906
Q20.3594 64.8906 16.375 63.25
Q12.4062 61.625 8.79688 58.9844
L4.29688 65.0938
Q6.15625 66.6094 8.42188 67.9219
Q10.6875 69.2344 13.375 70.2344
Q16.0625 71.2344 19.1094 71.8125
Q22.1719 72.4062 25.5938 72.4062
Q30.8594 72.4062 34.8281 71.0938
Q38.8125 69.7812 41.5 67.4062
Q44.1875 65.0469 45.5469 61.7969
Q46.9219 58.5469 46.9219 54.6875" id="WenQuanYiMicroHei-33"/>
      </defs>
      <g transform="translate(234.32967905 265.653986136)scale(0.09996 -0.09996)">
       <use xlink:href="#WenQuanYiMicroHei-33"/>
       <use x="55.078125" xlink:href="#WenQuanYiMicroHei-30"/>
       <use x="110.15625" xlink:href="#WenQuanYiMicroHei-30"/>
      </g>
     </g>
    </g>
    <g id="xtick_5">
     <g id="line2d_9">
      <g>
       <use style="stroke:#000000;stroke-width:0.5;" x="313.922380609" xlink:href="#m93b0483c22" y="254.058588011"/>
      </g>
     </g>
     <g id="line2d_10">
      <g>
       <use style="stroke:#000000;stroke-width:0.5;" x="313.922380609" xlink:href="#m741efc42ff" y="12.1987809375"/>
      </g>
     </g>
     <g id="text_5">
      <!-- 400 -->
      <defs>
       <path d="
M53.0781 16.0156
L42.6719 16.0156
L42.6719 0
L34.0781 0
L34.0781 16.0156
L1.125 16.0156
L1.125 23.7812
L33.5 71.7812
L42.6719 71.7812
L42.6719 24.125
L53.0781 24.125
z

M34.0781 24.125
L34.0781 41.5
Q34.0781 44.2344 34.1562 47.2344
Q34.2344 50.25 34.3281 53.0938
Q34.4219 55.9531 34.5469 58.4375
Q34.6719 60.9375 34.7188 62.5938
L34.2812 62.5938
Q33.9375 61.625 33.4219 60.4219
Q32.9062 59.2344 32.2969 58.0312
Q31.6875 56.8438 31.0469 55.7188
Q30.4219 54.5938 29.8906 53.8125
L9.8125 24.125
z
" id="WenQuanYiMicroHei-34"/>
      </defs>
      <g transform="translate(305.954475296 265.653986136)scale(0.09996 -0.09996)">
       <use xlink:href="#WenQuanYiMicroHei-34"/>
       <use x="55.078125" xlink:href="#WenQuanYiMicroHei-30"/>
       <use x="110.15625" xlink:href="#WenQuanYiMicroHei-30"/>
      </g>
     </g>
    </g>
    <g id="xtick_6">
     <g id="line2d_11">
      <g>
       <use style="stroke:#000000;stroke-width:0.5;" x="385.690869355" xlink:href="#m93b0483c22" y="254.058588011"/>
      </g>
     </g>
     <g id="line2d_12">
      <g>
       <use style="stroke:#000000;stroke-width:0.5;" x="385.690869355" xlink:href="#m741efc42ff" y="12.1987809375"/>
      </g>
     </g>
     <g id="text_6">
      <!-- 500 -->
      <defs>
       <path d="
M26.6094 43.7969
Q31.4531 43.7969 35.625 42.4531
Q39.7969 41.1094 42.8906 38.4688
Q46 35.8438 47.75 31.9375
Q49.5156 28.0312 49.5156 22.9062
Q49.5156 17.3281 47.8438 12.8906
Q46.1875 8.45312 42.9219 5.375
Q39.6562 2.29688 34.8438 0.65625
Q30.0312 -0.984375 23.7812 -0.984375
Q21.2969 -0.984375 18.875 -0.734375
Q16.4531 -0.484375 14.2344 -0.015625
Q12.0156 0.4375 10.0156 1.17188
Q8.01562 1.90625 6.39062 2.875
L6.39062 11.2812
Q8.01562 10.1562 10.1875 9.28125
Q12.3594 8.40625 14.75 7.8125
Q17.1406 7.23438 19.5469 6.90625
Q21.9688 6.59375 24.0312 6.59375
Q27.875 6.59375 30.9062 7.5
Q33.9375 8.40625 36.0312 10.2969
Q38.1406 12.2031 39.25 15.0781
Q40.375 17.9688 40.375 21.9219
Q40.375 28.9062 36.0781 32.5938
Q31.7812 36.2812 23.5781 36.2812
Q22.2656 36.2812 20.7188 36.1562
Q19.1875 36.0312 17.6406 35.8281
Q16.1094 35.6406 14.7188 35.4219
Q13.3281 35.2031 12.3125 35.0156
L7.90625 37.7969
L10.5938 71.3906
L44.2812 71.3906
L44.2812 63.2812
L18.3125 63.2812
L16.4062 42.8281
Q17.9688 43.1094 20.5312 43.4531
Q23.0938 43.7969 26.6094 43.7969" id="WenQuanYiMicroHei-35"/>
      </defs>
      <g transform="translate(377.98613998 265.653986136)scale(0.09996 -0.09996)">
       <use xlink:href="#WenQuanYiMicroHei-35"/>
       <use x="55.078125" xlink:href="#WenQuanYiMicroHei-30"/>
       <use x="110.15625" xlink:href="#WenQuanYiMicroHei-30"/>
      </g>
     </g>
    </g>
    <g id="xtick_7">
     <g id="line2d_13">
      <g>
       <use style="stroke:#000000;stroke-width:0.5;" x="457.459358101" xlink:href="#m93b0483c22" y="254.058588011"/>
      </g>
     </g>
     <g id="line2d_14">
      <g>
       <use style="stroke:#000000;stroke-width:0.5;" x="457.459358101" xlink:href="#m741efc42ff" y="12.1987809375"/>
      </g>
     </g>
     <g id="text_7">
      <!-- 600 -->
      <defs>
       <path d="
M5.51562 30.5156
Q5.51562 35.6406 6.03125 40.7188
Q6.54688 45.7969 7.82812 50.4531
Q9.125 55.125 11.375 59.125
Q13.625 63.1406 17.0938 66.0938
Q20.5625 69.0469 25.3906 70.7188
Q30.2188 72.4062 36.7188 72.4062
Q37.6406 72.4062 38.7656 72.3594
Q39.8906 72.3125 41.0312 72.1875
Q42.1875 72.0781 43.2344 71.9062
Q44.2812 71.7344 45.125 71.4844
L45.125 63.9219
Q43.4062 64.5 41.25 64.7969
Q39.1094 65.0938 37.0156 65.0938
Q32.625 65.0938 29.2656 64.0312
Q25.9219 62.9844 23.4844 61.0781
Q21.0469 59.1875 19.4062 56.5469
Q17.7812 53.9062 16.75 50.7031
Q15.7188 47.5156 15.2344 43.8906
Q14.75 40.2812 14.5938 36.375
L15.1875 36.375
Q16.1562 38.1406 17.5469 39.6719
Q18.9531 41.2188 20.7969 42.3125
Q22.6562 43.4062 24.9688 44.0312
Q27.2969 44.6719 30.1719 44.6719
Q34.8125 44.6719 38.5625 43.2344
Q42.3281 41.7969 44.9688 39.0156
Q47.6094 36.2344 49.0469 32.2031
Q50.4844 28.1719 50.4844 23
Q50.4844 17.4375 48.9688 12.9844
Q47.4688 8.54688 44.625 5.4375
Q41.7969 2.34375 37.7969 0.671875
Q33.7969 -0.984375 28.8125 -0.984375
Q23.9219 -0.984375 19.6406 0.921875
Q15.375 2.82812 12.25 6.73438
Q9.125 10.6406 7.3125 16.5469
Q5.51562 22.4688 5.51562 30.5156
M28.7188 6.5
Q31.6406 6.5 34.0469 7.5
Q36.4688 8.5 38.2188 10.5156
Q39.9844 12.5469 40.9375 15.6406
Q41.8906 18.75 41.8906 23
Q41.8906 26.4219 41.0781 29.125
Q40.2812 31.8438 38.6719 33.7344
Q37.0625 35.6406 34.6406 36.6719
Q32.2344 37.7031 29 37.7031
Q25.7344 37.7031 23.0156 36.5469
Q20.3125 35.4062 18.4062 33.5625
Q16.5 31.7344 15.4531 29.3906
Q14.4062 27.0469 14.4062 24.7031
Q14.4062 21.4375 15.3125 18.1875
Q16.2188 14.9375 18 12.3438
Q19.7812 9.76562 22.4531 8.125
Q25.1406 6.5 28.7188 6.5" id="WenQuanYiMicroHei-36"/>
      </defs>
      <g transform="translate(449.710896226 265.653986136)scale(0.09996 -0.09996)">
       <use xlink:href="#WenQuanYiMicroHei-36"/>
       <use x="55.078125" xlink:href="#WenQuanYiMicroHei-30"/>
       <use x="110.15625" xlink:href="#WenQuanYiMicroHei-30"/>
      </g>
     </g>
    </g>
   </g>
   <g id="matplotlib.axis_2">
    <g id="ytick_1">
     <g id="line2d_15">
      <defs>
       <path d="
M0 0
L4 0" id="m728421d6d4" style="stroke:#000000;stroke-width:0.5;"/>
      </defs>
      <g>
       <use style="stroke:#000000;stroke-width:0.5;" x="26.848425625" xlink:href="#m728421d6d4" y="12.1987809375"/>
      </g>
     </g>
     <g id="line2d_16">
      <defs>
       <path d="
M0 0
L-4 0" id="mcb0005524f" style="stroke:#000000;stroke-width:0.5;"/>
      </defs>
      <g>
       <use style="stroke:#000000;stroke-width:0.5;" x="473.248425625" xlink:href="#mcb0005524f" y="12.1987809375"/>
      </g>
     </g>
     <g id="text_8">
      <!-- 0 -->
      <g transform="translate(18.2893125 14.795398125)scale(0.09996 -0.09996)">
       <use xlink:href="#WenQuanYiMicroHei-30"/>
      </g>
     </g>
    </g>
    <g id="ytick_2">
     <g id="line2d_17">
      <g>
       <use style="stroke:#000000;stroke-width:0.5;" x="26.848425625" xlink:href="#m728421d6d4" y="48.0830253105"/>
      </g>
     </g>
     <g id="line2d_18">
      <g>
       <use style="stroke:#000000;stroke-width:0.5;" x="473.248425625" xlink:href="#mcb0005524f" y="48.0830253105"/>
      </g>
     </g>
     <g id="text_9">
      <!-- 50 -->
      <g transform="translate(12.94457625 50.679642498)scale(0.09996 -0.09996)">
       <use xlink:href="#WenQuanYiMicroHei-35"/>
       <use x="55.078125" xlink:href="#WenQuanYiMicroHei-30"/>
      </g>
     </g>
    </g>
    <g id="ytick_3">
     <g id="line2d_19">
      <g>
       <use style="stroke:#000000;stroke-width:0.5;" x="26.848425625" xlink:href="#m728421d6d4" y="83.9672696835"/>
      </g>
     </g>
     <g id="line2d_20">
      <g>
       <use style="stroke:#000000;stroke-width:0.5;" x="473.248425625" xlink:href="#mcb0005524f" y="83.9672696835"/>
      </g>
     </g>
     <g id="text_10">
      <!-- 100 -->
      <g transform="translate(7.6685625 86.563886871)scale(0.09996 -0.09996)">
       <use xlink:href="#WenQuanYiMicroHei-31"/>
       <use x="55.078125" xlink:href="#WenQuanYiMicroHei-30"/>
       <use x="110.15625" xlink:href="#WenQuanYiMicroHei-30"/>
      </g>
     </g>
    </g>
    <g id="ytick_4">
     <g id="line2d_21">
      <g>
       <use style="stroke:#000000;stroke-width:0.5;" x="26.848425625" xlink:href="#m728421d6d4" y="119.851514056"/>
      </g>
     </g>
     <g id="line2d_22">
      <g>
       <use style="stroke:#000000;stroke-width:0.5;" x="473.248425625" xlink:href="#mcb0005524f" y="119.851514056"/>
      </g>
     </g>
     <g id="text_11">
      <!-- 150 -->
      <g transform="translate(7.6685625 122.448131244)scale(0.09996 -0.09996)">
       <use xlink:href="#WenQuanYiMicroHei-31"/>
       <use x="55.078125" xlink:href="#WenQuanYiMicroHei-35"/>
       <use x="110.15625" xlink:href="#WenQuanYiMicroHei-30"/>
      </g>
     </g>
    </g>
    <g id="ytick_5">
     <g id="line2d_23">
      <g>
       <use style="stroke:#000000;stroke-width:0.5;" x="26.848425625" xlink:href="#m728421d6d4" y="155.735758429"/>
      </g>
     </g>
     <g id="line2d_24">
      <g>
       <use style="stroke:#000000;stroke-width:0.5;" x="473.248425625" xlink:href="#mcb0005524f" y="155.735758429"/>
      </g>
     </g>
     <g id="text_12">
      <!-- 200 -->
      <g transform="translate(7.2687225 158.332375617)scale(0.09996 -0.09996)">
       <use xlink:href="#WenQuanYiMicroHei-32"/>
       <use x="55.078125" xlink:href="#WenQuanYiMicroHei-30"/>
       <use x="110.15625" xlink:href="#WenQuanYiMicroHei-30"/>
      </g>
     </g>
    </g>
    <g id="ytick_6">
     <g id="line2d_25">
      <g>
       <use style="stroke:#000000;stroke-width:0.5;" x="26.848425625" xlink:href="#m728421d6d4" y="191.620002802"/>
      </g>
     </g>
     <g id="line2d_26">
      <g>
       <use style="stroke:#000000;stroke-width:0.5;" x="473.248425625" xlink:href="#mcb0005524f" y="191.620002802"/>
      </g>
     </g>
     <g id="text_13">
      <!-- 250 -->
      <g transform="translate(7.2687225 194.21661999)scale(0.09996 -0.09996)">
       <use xlink:href="#WenQuanYiMicroHei-32"/>
       <use x="55.078125" xlink:href="#WenQuanYiMicroHei-35"/>
       <use x="110.15625" xlink:href="#WenQuanYiMicroHei-30"/>
      </g>
     </g>
    </g>
    <g id="ytick_7">
     <g id="line2d_27">
      <g>
       <use style="stroke:#000000;stroke-width:0.5;" x="26.848425625" xlink:href="#m728421d6d4" y="227.504247175"/>
      </g>
     </g>
     <g id="line2d_28">
      <g>
       <use style="stroke:#000000;stroke-width:0.5;" x="473.248425625" xlink:href="#mcb0005524f" y="227.504247175"/>
      </g>
     </g>
     <g id="text_14">
      <!-- 300 -->
      <g transform="translate(7.2 230.100864363)scale(0.09996 -0.09996)">
       <use xlink:href="#WenQuanYiMicroHei-33"/>
       <use x="55.078125" xlink:href="#WenQuanYiMicroHei-30"/>
       <use x="110.15625" xlink:href="#WenQuanYiMicroHei-30"/>
      </g>
     </g>
    </g>
   </g>
  </g>
 </g>
 <defs>
  <clipPath id="p3384afb5e8">
   <rect height="241.859807074" width="446.4" x="26.848425625" y="12.1987809375"/>
  </clipPath>
 </defs>
</svg>
