<?xml version="1.0" encoding="utf-8" standalone="no"?>
<!DOCTYPE svg PUBLIC "-//W3C//DTD SVG 1.1//EN"
  "http://www.w3.org/Graphics/SVG/1.1/DTD/svg11.dtd">
<!-- Created with matplotlib (http://matplotlib.org/) -->
<svg height="210pt" version="1.1" viewBox="0 0 377 210" width="377pt" xmlns="http://www.w3.org/2000/svg" xmlns:xlink="http://www.w3.org/1999/xlink">
 <defs>
  <style type="text/css">
*{stroke-linecap:butt;stroke-linejoin:round;}
  </style>
 </defs>
 <g id="figure_1">
  <g id="patch_1">
   <path d="
M0 210.024
L377.607 210.024
L377.607 0
L0 0
z
" style="fill:#ffffff;"/>
  </g>
  <g id="axes_1">
   <g id="patch_2">
    <path d="
M29.4302 188.826
L364.23 188.826
L364.23 16.026
L29.4302 16.026
z
" style="fill:#ffffff;"/>
   </g>
   <g id="line2d_1">
    <path clip-path="url(#pbe0156594e)" d="
M29.4302 44.826
L32.812 44.826
L36.1938 44.826
L39.5757 44.826
L42.9575 44.826
L46.3393 44.826
L49.7211 44.826
L53.1029 44.826
L56.4848 44.826
L59.8666 44.826
L63.2484 44.826
L66.6302 44.826
L70.012 44.826
L73.3938 44.826
L76.7757 44.826
L80.1575 44.826
L83.5393 44.826
L86.9211 44.826
L90.3029 44.826
L93.6848 44.826
L97.0666 44.826
L100.448 44.826
L103.83 44.826
L107.212 44.826
L110.594 44.826
L113.976 44.826
L117.357 44.826
L120.739 44.826
L124.121 44.826
L127.503 44.826
L130.885 44.826
L134.267 44.826
L137.648 44.826
L141.03 44.826
L144.412 44.826
L147.794 44.826
L151.176 44.826
L154.557 44.826
L157.939 44.826
L161.321 44.826
L164.703 44.826
L168.085 44.826
L171.467 44.826
L174.848 44.826
L178.23 44.826
L181.612 44.826
L184.994 44.826
L188.376 44.826
L191.757 44.826
L195.139 44.826
L198.521 44.826
L201.903 44.826
L205.285 44.826
L208.667 44.826
L212.048 44.826
L215.43 44.826
L218.812 44.826
L222.194 44.826
L225.576 44.826
L228.957 44.826
L232.339 44.826
L235.721 44.826
L239.103 44.826
L242.485 44.826
L245.867 44.826
L249.248 44.826
L252.63 44.826
L256.012 44.826
L259.394 44.826
L262.776 44.826
L266.157 44.826
L269.539 44.826
L272.921 44.826
L276.303 44.826
L279.685 44.826
L283.067 44.826
L286.448 44.826
L289.83 44.826
L293.212 44.826
L296.594 44.826
L299.976 44.826
L303.357 44.826
L306.739 44.826
L310.121 44.826
L313.503 44.826
L316.885 44.826
L320.267 44.826
L323.648 44.826
L327.03 44.826
L330.412 44.826
L333.794 44.826
L337.176 44.826
L340.557 44.826
L343.939 44.826
L347.321 44.826
L350.703 44.826
L354.085 44.826
L357.467 44.826
L360.848 44.826
L364.23 44.826" style="fill:none;stroke:#348abd;stroke-linecap:square;stroke-width:2;"/>
   </g>
   <g id="line2d_2">
    <path clip-path="url(#pbe0156594e)" d="
M29.4302 160.026
L32.812 158.862
L36.1938 157.699
L39.5757 156.535
L42.9575 155.371
L46.3393 154.208
L49.7211 153.044
L53.1029 151.881
L56.4848 150.717
L59.8666 149.553
L63.2484 148.39
L66.6302 147.226
L70.012 146.062
L73.3938 144.899
L76.7757 143.735
L80.1575 142.571
L83.5393 141.408
L86.9211 140.244
L90.3029 139.081
L93.6848 137.917
L97.0666 136.753
L100.448 135.59
L103.83 134.426
L107.212 133.262
L110.594 132.099
L113.976 130.935
L117.357 129.771
L120.739 128.608
L124.121 127.444
L127.503 126.281
L130.885 125.117
L134.267 123.953
L137.648 122.79
L141.03 121.626
L144.412 120.462
L147.794 119.299
L151.176 118.135
L154.557 116.971
L157.939 115.808
L161.321 114.644
L164.703 113.481
L168.085 112.317
L171.467 111.153
L174.848 109.99
L178.23 108.826
L181.612 107.662
L184.994 106.499
L188.376 105.335
L191.757 104.171
L195.139 103.008
L198.521 101.844
L201.903 100.681
L205.285 99.5169
L208.667 98.3533
L212.048 97.1896
L215.43 96.026
L218.812 94.8624
L222.194 93.6987
L225.576 92.5351
L228.957 91.3715
L232.339 90.2078
L235.721 89.0442
L239.103 87.8805
L242.485 86.7169
L245.867 85.5533
L249.248 84.3896
L252.63 83.226
L256.012 82.0624
L259.394 80.8987
L262.776 79.7351
L266.157 78.5715
L269.539 77.4078
L272.921 76.2442
L276.303 75.0805
L279.685 73.9169
L283.067 72.7533
L286.448 71.5896
L289.83 70.426
L293.212 69.2624
L296.594 68.0987
L299.976 66.9351
L303.357 65.7715
L306.739 64.6078
L310.121 63.4442
L313.503 62.2805
L316.885 61.1169
L320.267 59.9533
L323.648 58.7896
L327.03 57.626
L330.412 56.4624
L333.794 55.2987
L337.176 54.1351
L340.557 52.9715
L343.939 51.8078
L347.321 50.6442
L350.703 49.4805
L354.085 48.3169
L357.467 47.1533
L360.848 45.9896
L364.23 44.826" style="fill:none;stroke:#a60628;stroke-linecap:square;stroke-width:2;"/>
   </g>
   <g id="line2d_3">
    <path clip-path="url(#pbe0156594e)" d="
M29.4302 44.826
L32.812 49.4335
L36.1938 53.947
L39.5757 58.3665
L42.9575 62.6919
L46.3393 66.9233
L49.7211 71.0607
L53.1029 75.1041
L56.4848 79.0534
L59.8666 82.9086
L63.2484 86.6699
L66.6302 90.3371
L70.012 93.9103
L73.3938 97.3895
L76.7757 100.775
L80.1575 104.066
L83.5393 107.263
L86.9211 110.366
L90.3029 113.375
L93.6848 116.29
L97.0666 119.111
L100.448 121.838
L103.83 124.47
L107.212 127.009
L110.594 129.454
L113.976 131.805
L117.357 134.062
L120.739 136.224
L124.121 138.293
L127.503 140.268
L130.885 142.148
L134.267 143.935
L137.648 145.627
L141.03 147.226
L144.412 148.73
L147.794 150.141
L151.176 151.457
L154.557 152.68
L157.939 153.808
L161.321 154.843
L164.703 155.783
L168.085 156.629
L171.467 157.381
L174.848 158.04
L178.23 158.604
L181.612 159.074
L184.994 159.45
L188.376 159.732
L191.757 159.92
L195.139 160.014
L198.521 160.014
L201.903 159.92
L205.285 159.732
L208.667 159.45
L212.048 159.074
L215.43 158.604
L218.812 158.04
L222.194 157.381
L225.576 156.629
L228.957 155.783
L232.339 154.843
L235.721 153.808
L239.103 152.68
L242.485 151.457
L245.867 150.141
L249.248 148.73
L252.63 147.226
L256.012 145.627
L259.394 143.935
L262.776 142.148
L266.157 140.268
L269.539 138.293
L272.921 136.224
L276.303 134.062
L279.685 131.805
L283.067 129.454
L286.448 127.009
L289.83 124.47
L293.212 121.838
L296.594 119.111
L299.976 116.29
L303.357 113.375
L306.739 110.366
L310.121 107.263
L313.503 104.066
L316.885 100.775
L320.267 97.3895
L323.648 93.9103
L327.03 90.3371
L330.412 86.6699
L333.794 82.9086
L337.176 79.0534
L340.557 75.1041
L343.939 71.0607
L347.321 66.9233
L350.703 62.6919
L354.085 58.3665
L357.467 53.947
L360.848 49.4335
L364.23 44.826" style="fill:none;stroke:#7a68a6;stroke-linecap:square;stroke-width:2;"/>
   </g>
   <g id="line2d_4">
    <path clip-path="url(#pbe0156594e)" d="
M29.4302 160.026
L32.812 149.833
L36.1938 140.194
L39.5757 131.095
L42.9575 122.527
L46.3393 114.477
L49.7211 106.935
L53.1029 99.8879
L56.4848 93.3256
L59.8666 87.2362
L63.2484 81.6085
L66.6302 76.4309
L70.012 71.6922
L73.3938 67.3809
L76.7757 63.4856
L80.1575 59.9949
L83.5393 56.8975
L86.9211 54.1819
L90.3029 51.8367
L93.6848 49.8505
L97.0666 48.212
L100.448 46.9096
L103.83 45.9322
L107.212 45.2681
L110.594 44.9061
L113.976 44.8348
L117.357 45.0427
L120.739 45.5184
L124.121 46.2506
L127.503 47.2278
L130.885 48.4387
L134.267 49.8719
L137.648 51.5159
L141.03 53.3593
L144.412 55.3909
L147.794 57.599
L151.176 59.9725
L154.557 62.4998
L157.939 65.1696
L161.321 67.9705
L164.703 70.8911
L168.085 73.9199
L171.467 77.0456
L174.848 80.2568
L178.23 83.542
L181.612 86.89
L184.994 90.2893
L188.376 93.7284
L191.757 97.196
L195.139 100.681
L198.521 104.171
L201.903 107.656
L205.285 111.124
L208.667 114.563
L212.048 117.962
L215.43 121.31
L218.812 124.595
L222.194 127.806
L225.576 130.932
L228.957 133.961
L232.339 136.881
L235.721 139.682
L239.103 142.352
L242.485 144.879
L245.867 147.253
L249.248 149.461
L252.63 151.493
L256.012 153.336
L259.394 154.98
L262.776 156.413
L266.157 157.624
L269.539 158.601
L272.921 159.334
L276.303 159.809
L279.685 160.017
L283.067 159.946
L286.448 159.584
L289.83 158.92
L293.212 157.942
L296.594 156.64
L299.976 155.002
L303.357 153.015
L306.739 150.67
L310.121 147.955
L313.503 144.857
L316.885 141.366
L320.267 137.471
L323.648 133.16
L327.03 128.421
L330.412 123.244
L333.794 117.616
L337.176 111.526
L340.557 104.964
L343.939 97.9173
L347.321 90.3747
L350.703 82.325
L354.085 73.7566
L357.467 64.6583
L360.848 55.0185
L364.23 44.826" style="fill:none;stroke:#467821;stroke-linecap:square;stroke-width:2;"/>
   </g>
   <g id="line2d_5">
    <path clip-path="url(#pbe0156594e)" d="
M29.4302 44.826
L32.812 62.519
L36.1938 78.4215
L39.5757 92.6218
L42.9575 105.207
L46.3393 116.261
L49.7211 125.867
L53.1029 134.106
L56.4848 141.058
L59.8666 146.799
L63.2484 151.406
L66.6302 154.952
L70.012 157.508
L73.3938 159.145
L76.7757 159.931
L80.1575 159.933
L83.5393 159.214
L86.9211 157.837
L90.3029 155.864
L93.6848 153.352
L97.0666 150.36
L100.448 146.942
L103.83 143.152
L107.212 139.042
L110.594 134.661
L113.976 130.057
L117.357 125.276
L120.739 120.362
L124.121 115.358
L127.503 110.304
L130.885 105.239
L134.267 100.2
L137.648 95.2216
L141.03 90.3371
L144.412 85.5779
L147.794 80.9733
L151.176 76.551
L154.557 72.3369
L157.939 68.3549
L161.321 64.627
L164.703 61.1735
L168.085 58.0129
L171.467 55.1617
L174.848 52.6346
L178.23 50.4447
L181.612 48.6028
L184.994 47.1182
L188.376 45.9984
L191.757 45.2488
L195.139 44.873
L198.521 44.873
L201.903 45.2488
L205.285 45.9984
L208.667 47.1182
L212.048 48.6028
L215.43 50.4447
L218.812 52.6346
L222.194 55.1617
L225.576 58.0129
L228.957 61.1735
L232.339 64.627
L235.721 68.3549
L239.103 72.3369
L242.485 76.551
L245.867 80.9733
L249.248 85.5779
L252.63 90.3371
L256.012 95.2216
L259.394 100.2
L262.776 105.239
L266.157 110.304
L269.539 115.358
L272.921 120.362
L276.303 125.276
L279.685 130.057
L283.067 134.661
L286.448 139.042
L289.83 143.152
L293.212 146.942
L296.594 150.36
L299.976 153.352
L303.357 155.864
L306.739 157.837
L310.121 159.214
L313.503 159.933
L316.885 159.931
L320.267 159.145
L323.648 157.508
L327.03 154.952
L330.412 151.406
L333.794 146.799
L337.176 141.058
L340.557 134.106
L343.939 125.867
L347.321 116.261
L350.703 105.207
L354.085 92.6218
L357.467 78.4215
L360.848 62.519
L364.23 44.826" style="fill:none;stroke:#cf4457;stroke-linecap:square;stroke-width:2;"/>
   </g>
   <g id="patch_3">
    <path d="
M29.4302 16.026
L364.23 16.026" style="fill:none;stroke:#000000;stroke-linecap:square;stroke-linejoin:miter;"/>
   </g>
   <g id="patch_4">
    <path d="
M364.23 188.826
L364.23 16.026" style="fill:none;stroke:#000000;stroke-linecap:square;stroke-linejoin:miter;"/>
   </g>
   <g id="patch_5">
    <path d="
M29.4302 188.826
L364.23 188.826" style="fill:none;stroke:#000000;stroke-linecap:square;stroke-linejoin:miter;"/>
   </g>
   <g id="patch_6">
    <path d="
M29.4302 188.826
L29.4302 16.026" style="fill:none;stroke:#000000;stroke-linecap:square;stroke-linejoin:miter;"/>
   </g>
   <g id="matplotlib.axis_1">
    <g id="xtick_1">
     <g id="line2d_6">
      <defs>
       <path d="
M0 0
L0 -4" id="m93b0483c22" style="stroke:#000000;stroke-width:0.5;"/>
      </defs>
      <g>
       <use style="stroke:#000000;stroke-width:0.5;" x="29.430205" xlink:href="#m93b0483c22" y="188.826"/>
      </g>
     </g>
     <g id="line2d_7">
      <defs>
       <path d="
M0 0
L0 4" id="m741efc42ff" style="stroke:#000000;stroke-width:0.5;"/>
      </defs>
      <g>
       <use style="stroke:#000000;stroke-width:0.5;" x="29.430205" xlink:href="#m741efc42ff" y="16.026"/>
      </g>
     </g>
     <g id="text_1">
      <!-- −1.0 -->
      <defs>
       <path d="
M34.7188 0
L26.125 0
L26.125 44.5781
Q26.125 46.6875 26.1406 49.0781
Q26.1719 51.4688 26.2344 53.8281
Q26.3125 56.2031 26.3906 58.375
Q26.4688 60.5469 26.5156 62.2031
Q25.6875 61.3281 25.0469 60.6875
Q24.4219 60.0625 23.75 59.4688
Q23.0938 58.8906 22.3594 58.2188
Q21.625 57.5625 20.6094 56.6875
L13.375 50.7812
L8.6875 56.7812
L27.3906 71.3906
L34.7188 71.3906
z
" id="WenQuanYiMicroHei-31"/>
       <path d="
M50.3906 35.7969
Q50.3906 27.1562 49.1406 20.3125
Q47.9062 13.4844 45.1406 8.73438
Q42.3906 4 38.0312 1.5
Q33.6875 -0.984375 27.4844 -0.984375
Q21.7344 -0.984375 17.4531 1.5
Q13.1875 4 10.375 8.73438
Q7.5625 13.4844 6.17188 20.3125
Q4.78125 27.1562 4.78125 35.7969
Q4.78125 44.4375 6.03125 51.2656
Q7.28125 58.1094 9.98438 62.8125
Q12.7031 67.5312 17.0156 70.0156
Q21.3438 72.5156 27.4844 72.5156
Q33.2969 72.5156 37.5938 70.0469
Q41.8906 67.5781 44.7188 62.8594
Q47.5625 58.1562 48.9688 51.3125
Q50.3906 44.4844 50.3906 35.7969
M13.8125 35.7969
Q13.8125 28.4688 14.5469 23
Q15.2812 17.5312 16.8906 13.8906
Q18.5 10.25 21.1094 8.42188
Q23.7344 6.59375 27.4844 6.59375
Q31.25 6.59375 33.8906 8.39062
Q36.5312 10.2031 38.2031 13.8125
Q39.8906 17.4375 40.6406 22.9219
Q41.4062 28.4219 41.4062 35.7969
Q41.4062 43.1094 40.6406 48.5781
Q39.8906 54.0469 38.2031 57.6562
Q36.5312 61.2812 33.8906 63.0781
Q31.25 64.8906 27.4844 64.8906
Q23.7344 64.8906 21.1094 63.0781
Q18.5 61.2812 16.8906 57.6562
Q15.2812 54.0469 14.5469 48.5781
Q13.8125 43.1094 13.8125 35.7969" id="WenQuanYiMicroHei-30"/>
       <path d="
M4.98438 31.5938
L4.98438 38.9219
L50.0938 38.9219
L50.0938 31.5938
z
" id="WenQuanYiMicroHei-2212"/>
       <path d="
M7.17188 5.42188
Q7.17188 7.28125 7.65625 8.5625
Q8.15625 9.85938 8.98438 10.6562
Q9.8125 11.4688 10.9375 11.8281
Q12.0625 12.2031 13.375 12.2031
Q14.6562 12.2031 15.7969 11.8281
Q16.9375 11.4688 17.7656 10.6562
Q18.6094 9.85938 19.0938 8.5625
Q19.5781 7.28125 19.5781 5.42188
Q19.5781 3.60938 19.0938 2.3125
Q18.6094 1.03125 17.7656 0.1875
Q16.9375 -0.640625 15.7969 -1.03125
Q14.6562 -1.42188 13.375 -1.42188
Q12.0625 -1.42188 10.9375 -1.03125
Q9.8125 -0.640625 8.98438 0.1875
Q8.15625 1.03125 7.65625 2.3125
Q7.17188 3.60938 7.17188 5.42188" id="WenQuanYiMicroHei-2e"/>
      </defs>
      <g transform="translate(20.3151025 200.421398125)scale(0.09996 -0.09996)">
       <use xlink:href="#WenQuanYiMicroHei-2212"/>
       <use x="55.078125" xlink:href="#WenQuanYiMicroHei-31"/>
       <use x="110.15625" xlink:href="#WenQuanYiMicroHei-2e"/>
       <use x="136.962890625" xlink:href="#WenQuanYiMicroHei-30"/>
      </g>
     </g>
    </g>
    <g id="xtick_2">
     <g id="line2d_8">
      <g>
       <use style="stroke:#000000;stroke-width:0.5;" x="113.130205" xlink:href="#m93b0483c22" y="188.826"/>
      </g>
     </g>
     <g id="line2d_9">
      <g>
       <use style="stroke:#000000;stroke-width:0.5;" x="113.130205" xlink:href="#m741efc42ff" y="16.026"/>
      </g>
     </g>
     <g id="text_2">
      <!-- −0.5 -->
      <defs>
       <path d="
M26.6094 43.7969
Q31.4531 43.7969 35.625 42.4531
Q39.7969 41.1094 42.8906 38.4688
Q46 35.8438 47.75 31.9375
Q49.5156 28.0312 49.5156 22.9062
Q49.5156 17.3281 47.8438 12.8906
Q46.1875 8.45312 42.9219 5.375
Q39.6562 2.29688 34.8438 0.65625
Q30.0312 -0.984375 23.7812 -0.984375
Q21.2969 -0.984375 18.875 -0.734375
Q16.4531 -0.484375 14.2344 -0.015625
Q12.0156 0.4375 10.0156 1.17188
Q8.01562 1.90625 6.39062 2.875
L6.39062 11.2812
Q8.01562 10.1562 10.1875 9.28125
Q12.3594 8.40625 14.75 7.8125
Q17.1406 7.23438 19.5469 6.90625
Q21.9688 6.59375 24.0312 6.59375
Q27.875 6.59375 30.9062 7.5
Q33.9375 8.40625 36.0312 10.2969
Q38.1406 12.2031 39.25 15.0781
Q40.375 17.9688 40.375 21.9219
Q40.375 28.9062 36.0781 32.5938
Q31.7812 36.2812 23.5781 36.2812
Q22.2656 36.2812 20.7188 36.1562
Q19.1875 36.0312 17.6406 35.8281
Q16.1094 35.6406 14.7188 35.4219
Q13.3281 35.2031 12.3125 35.0156
L7.90625 37.7969
L10.5938 71.3906
L44.2812 71.3906
L44.2812 63.2812
L18.3125 63.2812
L16.4062 42.8281
Q17.9688 43.1094 20.5312 43.4531
Q23.0938 43.7969 26.6094 43.7969" id="WenQuanYiMicroHei-35"/>
      </defs>
      <g transform="translate(104.058835 200.421398125)scale(0.09996 -0.09996)">
       <use xlink:href="#WenQuanYiMicroHei-2212"/>
       <use x="55.078125" xlink:href="#WenQuanYiMicroHei-30"/>
       <use x="110.15625" xlink:href="#WenQuanYiMicroHei-2e"/>
       <use x="136.962890625" xlink:href="#WenQuanYiMicroHei-35"/>
      </g>
     </g>
    </g>
    <g id="xtick_3">
     <g id="line2d_10">
      <g>
       <use style="stroke:#000000;stroke-width:0.5;" x="196.830205" xlink:href="#m93b0483c22" y="188.826"/>
      </g>
     </g>
     <g id="line2d_11">
      <g>
       <use style="stroke:#000000;stroke-width:0.5;" x="196.830205" xlink:href="#m741efc42ff" y="16.026"/>
      </g>
     </g>
     <g id="text_3">
      <!-- 0.0 -->
      <g transform="translate(190.457755 200.421398125)scale(0.09996 -0.09996)">
       <use xlink:href="#WenQuanYiMicroHei-30"/>
       <use x="55.078125" xlink:href="#WenQuanYiMicroHei-2e"/>
       <use x="81.884765625" xlink:href="#WenQuanYiMicroHei-30"/>
      </g>
     </g>
    </g>
    <g id="xtick_4">
     <g id="line2d_12">
      <g>
       <use style="stroke:#000000;stroke-width:0.5;" x="280.530205" xlink:href="#m93b0483c22" y="188.826"/>
      </g>
     </g>
     <g id="line2d_13">
      <g>
       <use style="stroke:#000000;stroke-width:0.5;" x="280.530205" xlink:href="#m741efc42ff" y="16.026"/>
      </g>
     </g>
     <g id="text_4">
      <!-- 0.5 -->
      <g transform="translate(274.2014875 200.421398125)scale(0.09996 -0.09996)">
       <use xlink:href="#WenQuanYiMicroHei-30"/>
       <use x="55.078125" xlink:href="#WenQuanYiMicroHei-2e"/>
       <use x="81.884765625" xlink:href="#WenQuanYiMicroHei-35"/>
      </g>
     </g>
    </g>
    <g id="xtick_5">
     <g id="line2d_14">
      <g>
       <use style="stroke:#000000;stroke-width:0.5;" x="364.230205" xlink:href="#m93b0483c22" y="188.826"/>
      </g>
     </g>
     <g id="line2d_15">
      <g>
       <use style="stroke:#000000;stroke-width:0.5;" x="364.230205" xlink:href="#m741efc42ff" y="16.026"/>
      </g>
     </g>
     <g id="text_5">
      <!-- 1.0 -->
      <g transform="translate(358.052989375 200.421398125)scale(0.09996 -0.09996)">
       <use xlink:href="#WenQuanYiMicroHei-31"/>
       <use x="55.078125" xlink:href="#WenQuanYiMicroHei-2e"/>
       <use x="81.884765625" xlink:href="#WenQuanYiMicroHei-30"/>
      </g>
     </g>
    </g>
   </g>
   <g id="matplotlib.axis_2">
    <g id="ytick_1">
     <g id="line2d_16">
      <defs>
       <path d="
M0 0
L4 0" id="m728421d6d4" style="stroke:#000000;stroke-width:0.5;"/>
      </defs>
      <g>
       <use style="stroke:#000000;stroke-width:0.5;" x="29.430205" xlink:href="#m728421d6d4" y="188.826"/>
      </g>
     </g>
     <g id="line2d_17">
      <defs>
       <path d="
M0 0
L-4 0" id="mcb0005524f" style="stroke:#000000;stroke-width:0.5;"/>
      </defs>
      <g>
       <use style="stroke:#000000;stroke-width:0.5;" x="364.230205" xlink:href="#mcb0005524f" y="188.826"/>
      </g>
     </g>
     <g id="text_6">
      <!-- −1.5 -->
      <g transform="translate(7.287465 191.422617188)scale(0.09996 -0.09996)">
       <use xlink:href="#WenQuanYiMicroHei-2212"/>
       <use x="55.078125" xlink:href="#WenQuanYiMicroHei-31"/>
       <use x="110.15625" xlink:href="#WenQuanYiMicroHei-2e"/>
       <use x="136.962890625" xlink:href="#WenQuanYiMicroHei-35"/>
      </g>
     </g>
    </g>
    <g id="ytick_2">
     <g id="line2d_18">
      <g>
       <use style="stroke:#000000;stroke-width:0.5;" x="29.430205" xlink:href="#m728421d6d4" y="160.026"/>
      </g>
     </g>
     <g id="line2d_19">
      <g>
       <use style="stroke:#000000;stroke-width:0.5;" x="364.230205" xlink:href="#mcb0005524f" y="160.026"/>
      </g>
     </g>
     <g id="text_7">
      <!-- −1.0 -->
      <g transform="translate(7.2 162.622617188)scale(0.09996 -0.09996)">
       <use xlink:href="#WenQuanYiMicroHei-2212"/>
       <use x="55.078125" xlink:href="#WenQuanYiMicroHei-31"/>
       <use x="110.15625" xlink:href="#WenQuanYiMicroHei-2e"/>
       <use x="136.962890625" xlink:href="#WenQuanYiMicroHei-30"/>
      </g>
     </g>
    </g>
    <g id="ytick_3">
     <g id="line2d_20">
      <g>
       <use style="stroke:#000000;stroke-width:0.5;" x="29.430205" xlink:href="#m728421d6d4" y="131.226"/>
      </g>
     </g>
     <g id="line2d_21">
      <g>
       <use style="stroke:#000000;stroke-width:0.5;" x="364.230205" xlink:href="#mcb0005524f" y="131.226"/>
      </g>
     </g>
     <g id="text_8">
      <!-- −0.5 -->
      <g transform="translate(7.287465 133.822617188)scale(0.09996 -0.09996)">
       <use xlink:href="#WenQuanYiMicroHei-2212"/>
       <use x="55.078125" xlink:href="#WenQuanYiMicroHei-30"/>
       <use x="110.15625" xlink:href="#WenQuanYiMicroHei-2e"/>
       <use x="136.962890625" xlink:href="#WenQuanYiMicroHei-35"/>
      </g>
     </g>
    </g>
    <g id="ytick_4">
     <g id="line2d_22">
      <g>
       <use style="stroke:#000000;stroke-width:0.5;" x="29.430205" xlink:href="#m728421d6d4" y="102.426"/>
      </g>
     </g>
     <g id="line2d_23">
      <g>
       <use style="stroke:#000000;stroke-width:0.5;" x="364.230205" xlink:href="#mcb0005524f" y="102.426"/>
      </g>
     </g>
     <g id="text_9">
      <!-- 0.0 -->
      <g transform="translate(12.685305 105.022617188)scale(0.09996 -0.09996)">
       <use xlink:href="#WenQuanYiMicroHei-30"/>
       <use x="55.078125" xlink:href="#WenQuanYiMicroHei-2e"/>
       <use x="81.884765625" xlink:href="#WenQuanYiMicroHei-30"/>
      </g>
     </g>
    </g>
    <g id="ytick_5">
     <g id="line2d_24">
      <g>
       <use style="stroke:#000000;stroke-width:0.5;" x="29.430205" xlink:href="#m728421d6d4" y="73.626"/>
      </g>
     </g>
     <g id="line2d_25">
      <g>
       <use style="stroke:#000000;stroke-width:0.5;" x="364.230205" xlink:href="#mcb0005524f" y="73.626"/>
      </g>
     </g>
     <g id="text_10">
      <!-- 0.5 -->
      <g transform="translate(12.77277 76.2226171875)scale(0.09996 -0.09996)">
       <use xlink:href="#WenQuanYiMicroHei-30"/>
       <use x="55.078125" xlink:href="#WenQuanYiMicroHei-2e"/>
       <use x="81.884765625" xlink:href="#WenQuanYiMicroHei-35"/>
      </g>
     </g>
    </g>
    <g id="ytick_6">
     <g id="line2d_26">
      <g>
       <use style="stroke:#000000;stroke-width:0.5;" x="29.430205" xlink:href="#m728421d6d4" y="44.826"/>
      </g>
     </g>
     <g id="line2d_27">
      <g>
       <use style="stroke:#000000;stroke-width:0.5;" x="364.230205" xlink:href="#mcb0005524f" y="44.826"/>
      </g>
     </g>
     <g id="text_11">
      <!-- 1.0 -->
      <g transform="translate(13.07577375 47.4226171875)scale(0.09996 -0.09996)">
       <use xlink:href="#WenQuanYiMicroHei-31"/>
       <use x="55.078125" xlink:href="#WenQuanYiMicroHei-2e"/>
       <use x="81.884765625" xlink:href="#WenQuanYiMicroHei-30"/>
      </g>
     </g>
    </g>
    <g id="ytick_7">
     <g id="line2d_28">
      <g>
       <use style="stroke:#000000;stroke-width:0.5;" x="29.430205" xlink:href="#m728421d6d4" y="16.026"/>
      </g>
     </g>
     <g id="line2d_29">
      <g>
       <use style="stroke:#000000;stroke-width:0.5;" x="364.230205" xlink:href="#mcb0005524f" y="16.026"/>
      </g>
     </g>
     <g id="text_12">
      <!-- 1.5 -->
      <g transform="translate(13.16323875 18.6226171875)scale(0.09996 -0.09996)">
       <use xlink:href="#WenQuanYiMicroHei-31"/>
       <use x="55.078125" xlink:href="#WenQuanYiMicroHei-2e"/>
       <use x="81.884765625" xlink:href="#WenQuanYiMicroHei-35"/>
      </g>
     </g>
    </g>
   </g>
   <g id="legend_1">
    <g id="patch_7">
     <path d="
M57.6359 25.5911
L336.025 25.5911
Q338.024 25.5911 338.024 23.5919
L338.024 9.1992
Q338.024 7.2 336.025 7.2
L57.6359 7.2
Q55.6367 7.2 55.6367 9.1992
L55.6367 23.5919
Q55.6367 25.5911 57.6359 25.5911
z
" style="fill:#ffffff;stroke:#000000;stroke-linejoin:miter;"/>
    </g>
    <g id="line2d_30">
     <path d="
M62.6339 15.2952
L76.6283 15.2952" style="fill:none;stroke:#348abd;stroke-linecap:square;stroke-width:2;"/>
    </g>
    <g id="line2d_31"/>
    <g id="text_13">
     <!-- $T_0$ -->
     <defs>
      <path d="
M25 -2.20312
Q12.75 -2.20312 8.32812 7.875
Q3.90625 17.9688 3.90625 31.8906
Q3.90625 40.5781 5.48438 48.2344
Q7.07812 55.9062 11.7812 61.25
Q16.5 66.6094 25 66.6094
Q31.5938 66.6094 35.7812 63.375
Q39.9844 60.1562 42.1875 55.0469
Q44.3906 49.9531 45.1875 44.1094
Q46 38.2812 46 31.8906
Q46 23.2969 44.4062 15.7969
Q42.8281 8.29688 38.1875 3.04688
Q33.5469 -2.20312 25 -2.20312
M25 0.390625
Q30.5625 0.390625 33.2969 6.09375
Q36.0312 11.8125 36.6719 18.75
Q37.3125 25.6875 37.3125 33.5
Q37.3125 41.0156 36.6719 47.3594
Q36.0312 53.7188 33.3125 58.8594
Q30.6094 64.0156 25 64.0156
Q19.3438 64.0156 16.6094 58.8281
Q13.875 53.6562 13.2344 47.3281
Q12.5938 41.0156 12.5938 33.5
Q12.5938 27.9375 12.8594 23
Q13.1406 18.0625 14.3125 12.8125
Q15.4844 7.5625 18.0938 3.96875
Q20.7031 0.390625 25 0.390625" id="Cmr10-30"/>
      <path d="
M4.59375 1.3125
Q4.64062 1.5625 4.8125 2.1875
Q4.98438 2.82812 5.25 3.17188
Q5.51562 3.51562 6 3.51562
Q14.5938 3.51562 17.3906 4
Q20.0625 4.6875 20.6094 6.89062
L34.2812 61.8125
Q34.7188 63.0312 34.7188 64.0156
Q34.7188 64.7969 31.2031 64.7969
L25.3906 64.7969
Q18.7031 64.7969 15.0625 62.7344
Q11.4219 60.6875 9.71875 57.3125
Q8.01562 53.9531 5.32812 46.2969
Q4.98438 45.4062 4.29688 45.4062
L3.42188 45.4062
Q2.39062 45.4062 2.39062 46.6875
L9.51562 67.3906
Q9.71875 68.3125 10.5 68.3125
L69.5781 68.3125
Q70.6094 68.3125 70.6094 67
L67.2812 46.2969
Q67.2812 46 66.9375 45.7031
Q66.6094 45.4062 66.3125 45.4062
L65.375 45.4062
Q64.4062 45.4062 64.4062 46.6875
Q65.4844 53.7656 65.4844 56.6875
Q65.4844 60.2031 64.0156 62
Q62.5469 63.8125 60.2031 64.2969
Q57.8594 64.7969 54.1094 64.7969
L48.1875 64.7969
Q45.5156 64.7969 44.5781 64.2969
Q43.6562 63.8125 43.0156 61.375
L29.2969 6.5
Q29.25 6.29688 29.2188 6.09375
Q29.2031 5.90625 29.1094 5.60938
Q29.1094 4.34375 30.6094 4
Q33.2031 3.51562 41.7031 3.51562
Q42.6719 3.51562 42.6719 2.20312
Q42.3281 0.78125 42.125 0.390625
Q41.9375 0 41.0156 0
L5.60938 0
Q4.59375 0 4.59375 1.3125" id="Cmmi10-54"/>
     </defs>
     <g transform="translate(87.623905 18.793798125)scale(0.09996 -0.09996)">
      <use transform="translate(0.0 0.6875)" xlink:href="#Cmmi10-54"/>
      <use transform="translate(58.3984375 -24.821875)scale(0.7)" xlink:href="#Cmr10-30"/>
     </g>
    </g>
    <g id="line2d_32">
     <path d="
M121.51 15.2952
L135.505 15.2952" style="fill:none;stroke:#a60628;stroke-linecap:square;stroke-width:2;"/>
    </g>
    <g id="line2d_33"/>
    <g id="text_14">
     <!-- $T_1$ -->
     <defs>
      <path d="
M9.28125 0
L9.28125 3.51562
Q21.7812 3.51562 21.7812 6.6875
L21.7812 59.1875
Q16.6094 56.6875 8.6875 56.6875
L8.6875 60.2031
Q20.9531 60.2031 27.2031 66.6094
L28.6094 66.6094
Q28.9531 66.6094 29.2656 66.3281
Q29.5938 66.0625 29.5938 65.7188
L29.5938 6.6875
Q29.5938 3.51562 42.0938 3.51562
L42.0938 0
z
" id="Cmr10-31"/>
     </defs>
     <g transform="translate(146.500345 18.793798125)scale(0.09996 -0.09996)">
      <use transform="translate(0.0 0.6875)" xlink:href="#Cmmi10-54"/>
      <use transform="translate(58.3984375 -24.821875)scale(0.7)" xlink:href="#Cmr10-31"/>
     </g>
    </g>
    <g id="line2d_34">
     <path d="
M180.387 15.2952
L194.381 15.2952" style="fill:none;stroke:#7a68a6;stroke-linecap:square;stroke-width:2;"/>
    </g>
    <g id="line2d_35"/>
    <g id="text_15">
     <!-- $T_2$ -->
     <defs>
      <path d="
M4.98438 0
L4.98438 2.6875
Q4.98438 2.9375 5.17188 3.21875
L20.7031 20.4062
Q24.2188 24.2188 26.4062 26.7969
Q28.6094 29.3906 30.75 32.7656
Q32.9062 36.1406 34.1562 39.625
Q35.4062 43.1094 35.4062 47.0156
Q35.4062 51.125 33.8906 54.8594
Q32.375 58.5938 29.375 60.8438
Q26.375 63.0938 22.125 63.0938
Q17.7812 63.0938 14.3125 60.4688
Q10.8438 57.8594 9.42188 53.7188
Q9.8125 53.8125 10.5 53.8125
Q12.75 53.8125 14.3281 52.2969
Q15.9219 50.7812 15.9219 48.3906
Q15.9219 46.0938 14.3281 44.5
Q12.75 42.9219 10.5 42.9219
Q8.15625 42.9219 6.5625 44.5469
Q4.98438 46.1875 4.98438 48.3906
Q4.98438 52.1562 6.39062 55.4375
Q7.8125 58.7344 10.4688 61.2969
Q13.1406 63.875 16.4844 65.2344
Q19.8281 66.6094 23.5781 66.6094
Q29.2969 66.6094 34.2188 64.1875
Q39.1562 61.7656 42.0312 57.3438
Q44.9219 52.9375 44.9219 47.0156
Q44.9219 42.6719 43.0156 38.7656
Q41.1094 34.8594 38.125 31.6562
Q35.1562 28.4688 30.5156 24.4062
Q25.875 20.3594 24.4219 19
L13.0938 8.10938
L22.7031 8.10938
Q29.7812 8.10938 34.5469 8.21875
Q39.3125 8.34375 39.5938 8.59375
Q40.7656 9.85938 42 17.8281
L44.9219 17.8281
L42.0938 0
z
" id="Cmr10-32"/>
     </defs>
     <g transform="translate(205.376785 18.793798125)scale(0.09996 -0.09996)">
      <use transform="translate(0.0 0.6875)" xlink:href="#Cmmi10-54"/>
      <use transform="translate(58.3984375 -24.821875)scale(0.7)" xlink:href="#Cmr10-32"/>
     </g>
    </g>
    <g id="line2d_36">
     <path d="
M239.263 15.2952
L253.258 15.2952" style="fill:none;stroke:#467821;stroke-linecap:square;stroke-width:2;"/>
    </g>
    <g id="line2d_37"/>
    <g id="text_16">
     <!-- $T_3$ -->
     <defs>
      <path d="
M9.51562 7.71875
Q11.8594 4.29688 15.8125 2.64062
Q19.7812 0.984375 24.3125 0.984375
Q30.125 0.984375 32.5625 5.9375
Q35.0156 10.8906 35.0156 17.1875
Q35.0156 20.0156 34.5 22.8438
Q33.9844 25.6875 32.7656 28.125
Q31.5469 30.5625 29.4219 32.0312
Q27.2969 33.5 24.2188 33.5
L17.5781 33.5
Q16.7031 33.5 16.7031 34.4219
L16.7031 35.2969
Q16.7031 36.0781 17.5781 36.0781
L23.0938 36.5312
Q26.6094 36.5312 28.9219 39.1562
Q31.25 41.7969 32.3281 45.5781
Q33.4062 49.3594 33.4062 52.7812
Q33.4062 57.5625 31.1562 60.6406
Q28.9062 63.7188 24.3125 63.7188
Q20.5156 63.7188 17.0469 62.2812
Q13.5781 60.8438 11.5312 57.9062
Q11.7188 57.9531 11.8594 57.9844
Q12.0156 58.0156 12.2031 58.0156
Q14.4531 58.0156 15.9688 56.4531
Q17.4844 54.8906 17.4844 52.6875
Q17.4844 50.5312 15.9688 48.9688
Q14.4531 47.4062 12.2031 47.4062
Q10.0156 47.4062 8.45312 48.9688
Q6.89062 50.5312 6.89062 52.6875
Q6.89062 56.9844 9.46875 60.1562
Q12.0625 63.3281 16.1406 64.9688
Q20.2188 66.6094 24.3125 66.6094
Q27.3438 66.6094 30.7031 65.7031
Q34.0781 64.7969 36.8125 63.1094
Q39.5469 61.4219 41.2812 58.7812
Q43.0156 56.1562 43.0156 52.7812
Q43.0156 48.5781 41.1406 45.0156
Q39.2656 41.4531 35.9844 38.8594
Q32.7188 36.2812 28.8125 35.0156
Q33.1562 34.1875 37.0625 31.7344
Q40.9688 29.2969 43.3281 25.4844
Q45.7031 21.6875 45.7031 17.2812
Q45.7031 11.7656 42.6719 7.29688
Q39.6562 2.82812 34.7188 0.3125
Q29.7812 -2.20312 24.3125 -2.20312
Q19.625 -2.20312 14.9062 -0.40625
Q10.2031 1.375 7.20312 4.9375
Q4.20312 8.5 4.20312 13.4844
Q4.20312 15.9688 5.85938 17.625
Q7.51562 19.2812 10.0156 19.2812
Q11.625 19.2812 12.9688 18.5312
Q14.3125 17.7812 15.0625 16.4062
Q15.8281 15.0469 15.8281 13.4844
Q15.8281 11.0312 14.1094 9.375
Q12.4062 7.71875 10.0156 7.71875
z
" id="Cmr10-33"/>
     </defs>
     <g transform="translate(264.253225 18.793798125)scale(0.09996 -0.09996)">
      <use transform="translate(0.0 0.6875)" xlink:href="#Cmmi10-54"/>
      <use transform="translate(58.3984375 -24.821875)scale(0.7)" xlink:href="#Cmr10-33"/>
     </g>
    </g>
    <g id="line2d_38">
     <path d="
M298.14 15.2952
L312.134 15.2952" style="fill:none;stroke:#cf4457;stroke-linecap:square;stroke-width:2;"/>
    </g>
    <g id="line2d_39"/>
    <g id="text_17">
     <!-- $T_4$ -->
     <defs>
      <path d="
M2.78125 16.5
L2.78125 20.0156
L33.6875 66.1094
Q34.0312 66.6094 34.7188 66.6094
L36.1875 66.6094
Q37.3125 66.6094 37.3125 65.4844
L37.3125 20.0156
L47.125 20.0156
L47.125 16.5
L37.3125 16.5
L37.3125 6.6875
Q37.3125 4.64062 40.2344 4.07812
Q43.1719 3.51562 47.0156 3.51562
L47.0156 0
L19.4844 0
L19.4844 3.51562
Q23.3438 3.51562 26.2656 4.07812
Q29.2031 4.64062 29.2031 6.6875
L29.2031 16.5
z

M6.10938 20.0156
L29.7812 20.0156
L29.7812 55.4219
z
" id="Cmr10-34"/>
     </defs>
     <g transform="translate(323.129665 18.793798125)scale(0.09996 -0.09996)">
      <use transform="translate(0.0 0.6875)" xlink:href="#Cmmi10-54"/>
      <use transform="translate(58.3984375 -24.821875)scale(0.7)" xlink:href="#Cmr10-34"/>
     </g>
    </g>
   </g>
  </g>
 </g>
 <defs>
  <clipPath id="pbe0156594e">
   <rect height="172.8" width="334.8" x="29.430205" y="16.026"/>
  </clipPath>
 </defs>
</svg>
