<?xml version="1.0" encoding="utf-8" standalone="no"?>
<!DOCTYPE svg PUBLIC "-//W3C//DTD SVG 1.1//EN"
  "http://www.w3.org/Graphics/SVG/1.1/DTD/svg11.dtd">
<!-- Created with matplotlib (http://matplotlib.org/) -->
<svg height="263pt" version="1.1" viewBox="0 0 545 263" width="545pt" xmlns="http://www.w3.org/2000/svg" xmlns:xlink="http://www.w3.org/1999/xlink">
 <defs>
  <style type="text/css">
*{stroke-linecap:butt;stroke-linejoin:round;}
  </style>
 </defs>
 <g id="figure_1">
  <g id="patch_1">
   <path d="
M0 263.796
L545.007 263.796
L545.007 -5.68434e-14
L0 -5.68434e-14
z
" style="fill:#ffffff;"/>
  </g>
  <g id="axes_1">
   <g id="patch_2">
    <path d="
M29.4302 242.599
L531.63 242.599
L531.63 12.1988
L29.4302 12.1988
z
" style="fill:#ffffff;"/>
   </g>
   <g id="line2d_1">
    <path clip-path="url(#p66d213601c)" d="
M29.4302 157.707
L29.9329 168.924
L30.4356 178.373
L30.9383 185.708
L31.441 190.666
L31.9437 193.081
L32.4464 192.888
L32.9491 190.125
L33.4518 184.929
L33.9545 177.534
L34.9599 157.488
L37.9762 88.101
L38.4789 80.1608
L38.9816 74.2969
L39.4843 70.746
L39.987 69.6545
L40.4897 71.0734
L40.9924 74.9574
L41.4951 81.1667
L42.5005 99.5718
L44.0086 136.635
L45.5167 174.167
L46.5221 193.403
L47.0248 200.176
L47.5275 204.715
L48.0302 206.869
L48.5329 206.574
L49.0356 203.858
L49.5383 198.838
L50.041 191.715
L51.0464 172.326
L54.5653 93.3575
L55.068 86.2912
L55.5707 81.2796
L56.0734 78.499
L56.5762 78.0442
L57.0789 79.926
L57.5816 84.0712
L58.0843 90.3259
L59.0897 108.185
L60.5978 143.183
L62.1059 178.129
L63.1113 195.957
L63.614 202.231
L64.1167 206.436
L64.6194 208.426
L65.1221 208.135
L65.6248 205.575
L66.1275 200.834
L66.6302 194.076
L67.6356 175.491
L69.1437 139.957
L70.6518 104.681
L71.6572 86.44
L72.1599 79.841
L72.6626 75.215
L73.1653 72.6984
L73.668 72.3562
L74.1707 74.1802
L74.6734 78.0904
L75.1762 83.9377
L76.1816 100.537
L77.6897 133.035
L79.1978 165.779
L80.2032 182.841
L80.7059 189.022
L81.2086 193.339
L81.7113 195.642
L82.214 195.848
L82.7167 193.939
L83.2194 189.968
L83.7221 184.05
L84.7275 167.138
L85.7329 145.23
L88.2464 86.4047
L89.2518 68.5403
L89.7545 61.9793
L90.2572 57.2546
L90.7599 54.4865
L91.2626 53.7345
L91.7653 54.9955
L92.268 58.2046
L92.7707 63.2378
L93.7762 78.01
L94.7816 97.3337
L97.2951 148.672
L98.3005 163.587
L98.8032 168.76
L99.3059 172.169
L99.8086 173.702
L100.311 173.299
L100.814 170.962
L101.317 166.745
L101.819 160.762
L102.825 144.187
L103.83 123.052
L106.344 65.9694
L107.349 47.9248
L107.852 40.986
L108.355 35.684
L108.857 32.1468
L109.36 30.4515
L109.863 30.623
L110.365 32.6337
L110.868 36.4043
L111.371 41.8069
L112.376 56.7779
L113.884 86.0093
L115.895 125.543
L116.9 140.435
L117.403 145.843
L117.906 149.675
L118.409 151.818
L118.911 152.209
L119.414 150.832
L119.917 147.719
L120.419 142.949
L121.425 128.97
L122.43 110.336
L125.949 37.966
L126.955 23.9221
L127.457 19.0645
L127.96 15.8146
L128.463 14.2442
L128.965 14.3818
L129.468 16.212
L129.971 19.6764
L130.473 24.6754
L131.479 38.6922
L132.484 56.7766
L135.5 115.98
L136.506 130.751
L137.009 136.269
L137.511 140.356
L138.014 142.917
L138.517 143.895
L139.019 143.272
L139.522 141.072
L140.025 137.354
L140.528 132.218
L141.533 118.247
L142.538 100.555
L145.555 43.222
L146.56 28.8384
L147.063 23.4133
L147.565 19.3466
L148.068 16.7343
L148.571 15.6378
L149.073 16.0831
L149.576 18.0606
L150.079 21.5256
L150.582 26.3996
L151.587 39.9042
L152.592 57.3675
L156.614 133.939
L157.619 146.508
L158.122 150.916
L158.625 153.954
L159.128 155.572
L159.63 155.749
L160.133 154.5
L160.636 151.868
L161.138 147.927
L162.144 136.557
L163.149 121.498
L167.171 54.4612
L168.176 43.6319
L168.679 39.9521
L169.182 37.5504
L169.684 36.4845
L170.187 36.7838
L170.69 38.4494
L171.192 41.4542
L171.695 45.7436
L172.7 57.8305
L173.706 73.792
L175.214 102.277
L177.225 141.127
L178.23 157.675
L179.236 170.661
L179.738 175.528
L180.241 179.198
L180.744 181.618
L181.246 182.758
L181.749 182.614
L182.252 181.206
L182.755 178.579
L183.257 174.801
L184.263 164.172
L185.268 150.258
L187.279 117.41
L188.787 93.6301
L189.792 80.5771
L190.798 70.9899
L191.3 67.7434
L191.803 65.6218
L192.306 64.6684
L192.809 64.9054
L193.311 66.3323
L193.814 68.9274
L194.317 72.6476
L195.322 83.1914
L196.328 97.2422
L197.836 122.741
L200.349 167.248
L201.355 182.295
L202.36 194.231
L202.863 198.79
L203.365 202.314
L203.868 204.751
L204.371 206.071
L204.873 206.261
L205.376 205.329
L205.879 203.298
L206.382 200.214
L206.884 196.137
L207.89 185.323
L208.895 171.636
L210.906 139.553
L212.917 108.371
L213.922 95.6796
L214.928 86.0378
L215.43 82.5531
L215.933 80.0324
L216.436 78.5114
L216.938 78.009
L217.441 78.528
L217.944 80.0549
L218.446 82.5604
L218.949 85.9998
L219.955 95.4315
L220.96 107.727
L222.468 129.776
L225.484 175.238
L226.49 187.388
L227.495 196.724
L227.998 200.158
L228.5 202.698
L229.003 204.307
L229.506 204.961
L230.009 204.651
L230.511 203.382
L231.014 201.171
L231.517 198.05
L232.522 189.264
L233.528 177.513
L235.036 155.767
L239.057 92.9173
L240.063 80.498
L241.068 70.7429
L242.073 64.0888
L242.576 62.0139
L243.079 60.7987
L243.582 60.4474
L244.084 60.9525
L244.587 62.2955
L245.09 64.4469
L245.592 67.3667
L246.598 75.3047
L247.603 85.6104
L249.111 104.147
L252.63 149.241
L253.636 159.428
L254.641 167.323
L255.144 170.275
L255.646 172.507
L256.149 173.988
L256.652 174.697
L257.155 174.621
L257.657 173.76
L258.16 172.118
L258.663 169.713
L259.165 166.57
L260.171 158.213
L261.176 147.407
L262.684 127.66
L267.711 55.4099
L268.717 44.2696
L269.722 35.3856
L270.728 29.0712
L271.23 26.9441
L271.733 25.524
L272.236 24.8166
L272.738 24.8202
L273.241 25.5252
L273.744 26.9151
L274.246 28.9662
L275.252 34.9243
L276.257 43.085
L277.263 53.05
L278.771 70.3546
L282.29 112.645
L283.798 127.491
L284.803 135.227
L285.809 140.878
L286.311 142.852
L286.814 144.234
L287.317 145.012
L287.819 145.181
L288.322 144.741
L288.825 143.699
L289.328 142.066
L289.83 139.86
L290.836 133.827
L291.841 125.84
L292.846 116.209
L294.355 99.4854
L298.879 46.2133
L300.387 32.0849
L301.392 24.6942
L302.398 19.2119
L302.9 17.2421
L303.403 15.8077
L303.906 14.9185
L304.409 14.5804
L304.911 14.7942
L305.414 15.5566
L305.917 16.8598
L306.419 18.692
L307.425 23.8749
L308.43 30.932
L309.436 39.6356
L310.944 55.1705
L312.955 78.8295
L316.473 120.612
L317.982 135.817
L318.987 144.371
L319.992 151.421
L320.998 156.818
L322.003 160.463
L322.506 161.612
L323.009 162.31
L323.511 162.559
L324.014 162.365
L324.517 161.736
L325.019 160.683
L325.522 159.22
L326.528 155.137
L327.533 149.649
L328.538 142.952
L330.046 131.14
L332.56 108.842
L335.073 86.8213
L336.582 75.3446
L337.587 68.8596
L338.592 63.5093
L339.598 59.4315
L340.603 56.73
L341.106 55.9183
L341.609 55.4736
L342.111 55.3991
L342.614 55.6954
L343.117 56.3614
L343.619 57.3934
L344.122 58.786
L345.128 62.6209
L346.133 67.7833
L347.138 74.1628
L348.646 85.7138
L350.155 99.1595
L352.668 124.11
L356.187 159.34
L358.198 176.973
L359.706 188.069
L360.711 194.234
L361.717 199.308
L362.722 203.227
L363.728 205.95
L364.23 206.855
L364.733 207.456
L365.236 207.752
L365.738 207.747
L366.241 207.444
L366.744 206.847
L367.246 205.963
L368.252 203.361
L369.257 199.706
L370.263 195.083
L371.268 189.587
L372.776 179.946
L374.787 165.11
L378.306 136.531
L381.322 112.79
L383.333 98.8896
L384.841 89.967
L386.349 82.5725
L387.355 78.5687
L388.36 75.3415
L389.365 72.9083
L390.371 71.2747
L390.873 70.7564
L391.376 70.4351
L391.879 70.3084
L392.382 70.3733
L392.884 70.6263
L393.387 71.0633
L394.392 72.47
L395.398 74.5503
L396.403 77.2537
L397.409 80.524
L398.917 86.3566
L400.425 93.1018
L402.436 103.106
L409.473 139.528
L411.484 148.27
L412.992 153.878
L414.5 158.54
L415.506 161.077
L416.511 163.133
L417.517 164.694
L418.522 165.751
L419.528 166.3
L420.03 166.384
L420.533 166.341
L421.036 166.173
L422.041 165.464
L423.046 164.269
L424.052 162.604
L425.057 160.486
L426.063 157.938
L427.571 153.365
L429.079 147.974
L431.09 139.69
L433.1 130.391
L436.117 115.128
L445.165 67.9073
L447.679 56.3015
L449.69 47.9092
L451.7 40.4296
L453.711 33.9431
L455.219 29.763
L456.728 26.1852
L458.236 23.2157
L459.744 20.8534
L460.749 19.6127
L461.755 18.6355
L462.76 17.9173
L463.765 17.4528
L464.771 17.2358
L465.776 17.2594
L466.782 17.5161
L467.787 17.9977
L468.792 18.6957
L469.798 19.6009
L471.306 21.3267
L472.814 23.4649
L474.322 25.9816
L476.333 29.8666
L478.344 34.2815
L480.857 40.422
L483.873 48.5005
L487.895 60.0674
L500.463 96.8605
L503.982 106.19
L506.998 113.564
L509.511 119.201
L512.025 124.329
L514.538 128.913
L516.549 132.167
L518.56 135.041
L520.571 137.523
L522.582 139.605
L524.09 140.899
L525.598 141.961
L527.106 142.789
L528.614 143.381
L530.122 143.737
L531.63 143.856
L531.63 143.856" style="fill:none;stroke:#000000;stroke-dasharray:6.000000,6.000000;stroke-dashoffset:0.0;stroke-width:2.0;"/>
   </g>
   <g id="line2d_2">
    <path clip-path="url(#p66d213601c)" d="
M29.4302 157.707
L29.9329 168.924
L30.4356 178.373
L30.9383 185.708
L31.441 190.666
L31.9437 193.081
L32.4464 192.888
L32.9491 190.125
L33.4518 184.929
L33.9545 177.534
L34.9599 157.488
L37.9762 88.101
L38.4789 80.1608
L38.9816 74.2969
L39.4843 70.746
L39.987 69.6545
L40.4897 71.0734
L40.9924 74.9574
L41.4951 81.1667
L42.5005 99.5718
L44.0086 136.635
L45.5167 174.167
L46.5221 193.403
L47.0248 200.176
L47.5275 204.715
L48.0302 206.869
L48.5329 206.574
L49.0356 203.858
L49.5383 198.838
L50.041 191.715
L51.0464 172.326
L54.5653 93.3575
L55.068 86.2912
L55.5707 81.2796
L56.0734 78.499
L56.5762 78.0442
L57.0789 79.926
L57.5816 84.0712
L58.0843 90.3259
L59.0897 108.185
L60.5978 143.183
L62.1059 178.129
L63.1113 195.957
L63.614 202.231
L64.1167 206.436
L64.6194 208.426
L65.1221 208.135
L65.6248 205.575
L66.1275 200.834
L66.6302 194.076
L67.6356 175.491
L69.1437 139.957
L70.6518 104.681
L71.6572 86.44
L72.1599 79.841
L72.6626 75.215
L73.1653 72.6984
L73.668 72.3562
L74.1707 74.1802
L74.6734 78.0904
L75.1762 83.9377
L76.1816 100.537
L77.6897 133.035
L79.1978 165.779
L80.2032 182.841
L80.7059 189.022
L81.2086 193.339
L81.7113 195.642
L82.214 195.848
L82.7167 193.939
L83.2194 189.968
L83.7221 184.05
L84.7275 167.138
L85.7329 145.23
L88.2464 86.4047
L89.2518 68.5403
L89.7545 61.9793
L90.2572 57.2546
L90.7599 54.4865
L91.2626 53.7345
L91.7653 54.9955
L92.268 58.2046
L92.7707 63.2378
L93.7762 78.01
L94.7816 97.3337
L97.2951 148.672
L98.3005 163.587
L98.8032 168.76
L99.3059 172.169
L99.8086 173.702
L100.311 173.299
L100.814 170.962
L101.317 166.745
L101.819 160.762
L102.825 144.187
L103.83 123.052
L106.344 65.9694
L107.349 47.9248
L107.852 40.986
L108.355 35.684
L108.857 32.1468
L109.36 30.4515
L109.863 30.623
L110.365 32.6337
L110.868 36.4043
L111.371 41.8069
L112.376 56.7779
L113.884 86.0093
L115.895 125.543
L116.9 140.435
L117.403 145.843
L117.906 149.675
L118.409 151.818
L118.911 152.209
L119.414 150.832
L119.917 147.719
L120.419 142.949
L121.425 128.97
L122.43 110.336
L125.949 37.966
L126.955 23.9221
L127.457 19.0645
L127.96 15.8146
L128.463 14.2442
L128.965 14.3818
L129.468 16.212
L129.971 19.6764
L130.473 24.6754
L131.479 38.6922
L132.484 56.7766
L135.5 115.98
L136.506 130.751
L137.009 136.269
L137.511 140.356
L138.014 142.917
L138.517 143.895
L139.019 143.272
L139.522 141.072
L140.025 137.354
L140.528 132.218
L141.533 118.247
L142.538 100.555
L145.555 43.222
L146.56 28.8384
L147.063 23.4133
L147.565 19.3466
L148.068 16.7343
L148.571 15.6378
L149.073 16.0831
L149.576 18.0606
L150.079 21.5256
L150.582 26.3996
L151.587 39.9042
L152.592 57.3675
L156.614 133.939
L157.619 146.508
L158.122 150.916
L158.625 153.954
L159.128 155.572
L159.63 155.749
L160.133 154.5
L160.636 151.868
L161.138 147.927
L162.144 136.557
L163.149 121.498
L167.171 54.4612
L168.176 43.6319
L168.679 39.9521
L169.182 37.5504
L169.684 36.4845
L170.187 36.7838
L170.69 38.4494
L171.192 41.4542
L171.695 45.7436
L172.7 57.8305
L173.706 73.792
L175.214 102.277
L177.225 141.127
L178.23 157.675
L179.236 170.661
L179.738 175.528
L180.241 179.198
L180.744 181.618
L181.246 182.758
L181.749 182.614
L182.252 181.206
L182.755 178.579
L183.257 174.801
L184.263 164.172
L185.268 150.258
L187.279 117.41
L188.787 93.6301
L189.792 80.5771
L190.798 70.9899
L191.3 67.7434
L191.803 65.6218
L192.306 64.6684
L192.809 64.9054
L193.311 66.3323
L193.814 68.9274
L194.317 72.6476
L195.322 83.1914
L196.328 97.2422
L197.836 122.741
L200.349 167.248
L201.355 182.295
L202.36 194.231
L202.863 198.79
L203.365 202.314
L203.868 204.751
L204.371 206.071
L204.873 206.261
L205.376 205.329
L205.879 203.298
L206.382 200.214
L206.884 196.137
L207.89 185.323
L208.895 171.636
L210.906 139.553
L212.917 108.371
L213.922 95.6796
L214.928 86.0378
L215.43 82.5531
L215.933 80.0324
L216.436 78.5114
L216.938 78.009
L217.441 78.528
L217.944 80.0549
L218.446 82.5604
L218.949 85.9998
L219.955 95.4315
L220.96 107.727
L222.468 129.776
L225.484 175.238
L226.49 187.388
L227.495 196.724
L227.998 200.158
L228.5 202.698
L229.003 204.307
L229.506 204.961
L230.009 204.651
L230.511 203.382
L231.014 201.171
L231.517 198.05
L232.522 189.264
L233.528 177.513
L235.036 155.767
L239.057 92.9173
L240.063 80.498
L241.068 70.7429
L242.073 64.0888
L242.576 62.0139
L243.079 60.7987
L243.582 60.4474
L244.084 60.9525
L244.587 62.2955
L245.09 64.4469
L245.592 67.3667
L246.598 75.3047
L247.603 85.6104
L249.111 104.147
L252.63 149.241
L253.636 159.428
L254.641 167.323
L255.144 170.275
L255.646 172.507
L256.149 173.988
L256.652 174.697
L257.155 174.621
L257.657 173.76
L258.16 172.118
L258.663 169.713
L259.165 166.57
L260.171 158.213
L261.176 147.407
L262.684 127.66
L267.711 55.4099
L268.717 44.2696
L269.722 35.3856
L270.728 29.0712
L271.23 26.9441
L271.733 25.524
L272.236 24.8166
L272.738 24.8202
L273.241 25.5252
L273.744 26.9151
L274.246 28.9662
L275.252 34.9243
L276.257 43.085
L277.263 53.05
L278.771 70.3546
L282.29 112.645
L283.798 127.491
L284.803 135.227
L285.809 140.878
L286.311 142.852
L286.814 144.234
L287.317 145.012
L287.819 145.181
L288.322 144.741
L288.825 143.699
L289.328 142.066
L289.83 139.86
L290.836 133.827
L291.841 125.84
L292.846 116.209
L294.355 99.4854
L298.879 46.2133
L300.387 32.0849
L301.392 24.6942
L302.398 19.2119
L302.9 17.2421
L303.403 15.8077
L303.906 14.9185
L304.409 14.5804
L304.911 14.7942
L305.414 15.5566
L305.917 16.8598
L306.419 18.692
L307.425 23.8749
L308.43 30.932
L309.436 39.6356
L310.944 55.1705
L312.955 78.8295
L316.473 120.612
L317.982 135.817
L318.987 144.371
L319.992 151.421
L320.998 156.818
L322.003 160.463
L322.506 161.612
L323.009 162.31
L323.511 162.559
L324.014 162.365
L324.517 161.736
L325.019 160.683
L325.522 159.22
L326.528 155.137
L327.533 149.649
L328.538 142.952
L330.046 131.14
L332.56 108.842
L335.073 86.8213
L336.582 75.3446
L337.587 68.8596
L338.592 63.5093
L339.598 59.4315
L340.603 56.73
L341.106 55.9183
L341.609 55.4736
L342.111 55.3991
L342.614 55.6954
L343.117 56.3614
L343.619 57.3934
L344.122 58.786
L345.128 62.6209
L346.133 67.7833
L347.138 74.1628
L348.646 85.7138
L350.155 99.1595
L352.668 124.11
L356.187 159.34
L358.198 176.973
L359.706 188.069
L360.711 194.234
L361.717 199.308
L362.722 203.227
L363.728 205.95
L364.23 206.855
L364.733 207.456
L365.236 207.752
L365.738 207.747
L366.241 207.444
L366.744 206.847
L367.246 205.963
L368.252 203.361
L369.257 199.706
L370.263 195.083
L371.268 189.587
L372.776 179.946
L374.787 165.11
L378.306 136.531
L381.322 112.79
L383.333 98.8896
L384.841 89.967
L386.349 82.5725
L387.355 78.5687
L388.36 75.3415
L389.365 72.9083
L390.371 71.2747
L390.873 70.7564
L391.376 70.4351
L391.879 70.3084
L392.382 70.3733
L392.884 70.6263
L393.387 71.0633
L394.392 72.47
L395.398 74.5503
L396.403 77.2537
L397.409 80.524
L398.917 86.3566
L400.425 93.1018
L402.436 103.106
L409.473 139.528
L411.484 148.27
L412.992 153.878
L414.5 158.54
L415.506 161.077
L416.511 163.133
L417.517 164.694
L418.522 165.751
L419.528 166.3
L420.03 166.384
L420.533 166.341
L421.036 166.173
L422.041 165.464
L423.046 164.269
L424.052 162.604
L425.057 160.486
L426.063 157.938
L427.571 153.365
L429.079 147.974
L431.09 139.69
L433.1 130.391
L436.117 115.128
L445.165 67.9073
L447.679 56.3015
L449.69 47.9092
L451.7 40.4296
L453.711 33.9431
L455.219 29.763
L456.728 26.1852
L458.236 23.2157
L459.744 20.8534
L460.749 19.6127
L461.755 18.6355
L462.76 17.9173
L463.765 17.4528
L464.771 17.2358
L465.776 17.2594
L466.782 17.5161
L467.787 17.9977
L468.792 18.6957
L469.798 19.6009
L471.306 21.3267
L472.814 23.4649
L474.322 25.9816
L476.333 29.8666
L478.344 34.2815
L480.857 40.422
L483.873 48.5005
L487.895 60.0674
L500.463 96.8605
L503.982 106.19
L506.998 113.564
L509.511 119.201
L512.025 124.329
L514.538 128.913
L516.549 132.167
L518.56 135.041
L520.571 137.523
L522.582 139.605
L524.09 140.899
L525.598 141.961
L527.106 142.789
L528.614 143.381
L530.122 143.737
L531.63 143.856
L531.63 143.856" style="fill:none;opacity:0.6;stroke:#348abd;stroke-linecap:square;stroke-width:2.0;"/>
   </g>
   <g id="line2d_3">
    <path clip-path="url(#p66d213601c)" d="
M29.4302 160.613
L29.9329 167.411
L30.4356 181.253
L30.9383 187.544
L31.441 189.059
L32.4464 190.385
L32.9491 190.24
L33.4518 187.622
L33.9545 181.478
L34.4572 171.691
L35.4626 144.686
L36.468 116.358
L37.4734 94.4797
L37.9762 86.8497
L38.4789 81.3248
L38.9816 77.687
L39.4843 75.7086
L39.987 75.2419
L40.4897 76.2412
L40.9924 78.7558
L41.4951 82.8977
L41.9978 88.7888
L42.5005 96.5054
L43.5059 117.236
L45.014 157.364
L46.0194 184.044
L47.0248 204.635
L47.5275 211.211
L48.0302 214.766
L48.5329 215.087
L49.0356 212.136
L49.5383 206.044
L50.041 197.11
L51.0464 172.583
L53.5599 101.912
L54.5653 82.9757
L55.068 77.2999
L55.5707 74.4092
L56.0734 74.3367
L56.5762 76.9923
L57.0789 82.1749
L57.5816 89.5863
L58.587 109.534
L61.6032 177.177
L62.6086 191.322
L63.1113 195.609
L63.614 197.918
L64.1167 198.252
L64.6194 196.683
L65.1221 193.344
L65.6248 188.422
L66.6302 174.782
L68.1383 149.029
L69.6464 123.787
L70.6518 110.486
L71.1545 105.41
L71.6572 101.521
L72.1599 98.8705
L72.6626 97.4706
L73.1653 97.295
L73.668 98.2827
L74.1707 100.342
L74.6734 103.354
L75.6789 111.667
L77.187 127.405
L78.6951 143.069
L79.7005 151.525
L80.7059 157.408
L81.2086 159.222
L81.7113 160.241
L82.214 160.46
L82.7167 159.894
L83.2194 158.574
L83.7221 156.55
L84.7275 150.659
L85.7329 142.861
L90.2572 104.364
L91.2626 98.8838
L91.7653 96.865
L92.268 95.3468
L92.7707 94.3302
L93.2734 93.8052
L93.7762 93.7523
L94.2789 94.1431
L94.7816 94.9411
L95.2843 96.1032
L96.2897 99.321
L97.7978 105.549
L99.8086 114.077
L100.814 117.507
L101.819 119.955
L102.322 120.741
L102.825 121.212
L103.328 121.357
L103.83 121.172
L104.333 120.659
L104.836 119.825
L105.338 118.684
L106.344 115.557
L107.349 111.47
L108.857 104.085
L112.376 85.8859
L113.382 81.6026
L114.387 78.0873
L115.392 75.4539
L116.398 73.7591
L116.9 73.2659
L117.403 73.0032
L117.906 72.963
L118.409 73.1345
L118.911 73.504
L119.917 74.772
L120.922 76.6188
L122.43 80.0997
L125.446 87.4138
L126.452 89.3616
L127.457 90.8526
L128.463 91.8043
L128.965 92.0614
L129.468 92.1681
L129.971 92.1237
L130.473 91.9294
L130.976 91.5885
L131.982 90.4895
L132.987 88.8884
L133.992 86.8701
L135.5 83.29
L139.019 74.4408
L140.528 71.379
L141.533 69.8243
L142.538 68.7379
L143.544 68.1649
L144.046 68.0791
L144.549 68.1287
L145.052 68.3132
L146.057 69.079
L147.063 70.3483
L148.068 72.075
L149.073 74.1981
L150.582 77.9644
L153.095 85.0921
L155.609 92.1249
L157.117 95.8068
L158.625 98.8537
L159.63 100.473
L160.636 101.743
L161.641 102.662
L162.646 103.241
L163.652 103.506
L164.657 103.492
L165.663 103.245
L167.171 102.554
L171.695 100.085
L172.7 99.8362
L173.706 99.8077
L174.711 100.037
L175.717 100.554
L176.722 101.377
L177.728 102.515
L178.733 103.966
L179.738 105.721
L181.246 108.874
L182.755 112.556
L184.765 118.047
L189.792 132.194
L191.3 135.86
L192.809 139.005
L194.317 141.531
L195.322 142.839
L196.328 143.837
L197.333 144.523
L198.338 144.905
L199.344 144.996
L200.349 144.819
L201.355 144.4
L202.36 143.772
L203.868 142.516
L205.879 140.468
L209.398 136.789
L210.906 135.51
L212.414 134.561
L213.419 134.149
L214.425 133.93
L215.43 133.911
L216.436 134.095
L217.441 134.476
L218.446 135.043
L219.955 136.204
L221.463 137.666
L223.976 140.492
L226.992 143.83
L228.5 145.18
L229.506 145.879
L230.511 146.381
L231.517 146.656
L232.522 146.683
L233.528 146.442
L234.533 145.92
L235.538 145.109
L236.544 144.008
L237.549 142.622
L239.057 140.028
L240.565 136.871
L242.073 133.234
L244.084 127.819
L251.625 106.747
L253.133 103.329
L254.641 100.422
L256.149 98.0853
L257.155 96.8638
L258.16 95.9155
L259.165 95.2376
L260.171 94.8216
L261.176 94.6534
L262.182 94.7135
L263.187 94.9775
L264.695 95.6922
L266.203 96.6879
L271.23 100.374
L272.738 101.079
L273.744 101.335
L274.749 101.384
L275.755 101.203
L276.76 100.771
L277.765 100.076
L278.771 99.1092
L279.776 97.8696
L280.782 96.3623
L282.29 93.6261
L283.798 90.3799
L285.809 85.4273
L292.846 67.1007
L294.355 64.0577
L295.36 62.3923
L296.365 61.0654
L297.371 60.1124
L298.376 59.563
L299.382 59.4405
L300.387 59.761
L301.392 60.533
L302.398 61.7572
L303.403 63.4259
L304.409 65.5235
L305.414 68.026
L306.922 72.4676
L308.43 77.6093
L310.441 85.2549
L316.473 108.85
L317.982 113.726
L319.49 117.783
L320.495 119.951
L321.5 121.646
L322.506 122.837
L323.511 123.505
L324.014 123.64
L324.517 123.642
L325.019 123.51
L325.522 123.248
L326.528 122.335
L327.533 120.929
L328.538 119.062
L329.544 116.78
L331.052 112.7
L333.063 106.393
L337.084 93.2497
L338.592 89.0616
L339.598 86.7366
L340.603 84.8823
L341.609 83.5747
L342.111 83.1474
L342.614 82.8814
L343.117 82.7835
L343.619 82.8599
L344.122 83.1159
L344.625 83.5561
L345.128 84.1843
L346.133 86.015
L347.138 88.6199
L348.144 91.996
L349.149 96.1243
L350.657 103.648
L352.165 112.601
L354.176 126.311
L357.192 149.01
L360.209 171.319
L361.717 181.214
L363.225 189.692
L364.23 194.362
L365.236 198.129
L366.241 200.905
L366.744 201.899
L367.246 202.62
L367.749 203.062
L368.252 203.221
L368.755 203.093
L369.257 202.675
L369.76 201.968
L370.263 200.97
L371.268 198.115
L372.273 194.14
L373.279 189.097
L374.284 183.061
L375.792 172.351
L377.3 160.007
L379.814 137.101
L383.836 99.9898
L385.344 87.7423
L386.852 77.1937
L387.857 71.3115
L388.863 66.4668
L389.868 62.7362
L390.873 60.1734
L391.376 59.34
L391.879 58.8075
L392.382 58.5756
L392.884 58.6425
L393.387 59.0048
L393.89 59.6575
L394.392 60.5943
L395.398 63.2871
L396.403 67.0035
L397.409 71.6439
L398.917 80.0757
L400.425 89.8639
L403.441 111.485
L405.955 129.169
L407.463 138.689
L408.971 146.958
L410.479 153.731
L411.484 157.345
L412.49 160.219
L413.495 162.361
L414.5 163.798
L415.003 164.265
L415.506 164.573
L416.009 164.73
L416.511 164.744
L417.014 164.625
L418.019 164.022
L419.025 163.001
L420.03 161.64
L421.538 159.13
L423.549 155.254
L427.571 146.862
L430.084 141.186
L431.592 137.333
L433.1 132.909
L434.609 127.718
L436.117 121.598
L437.625 114.458
L439.133 106.3
L441.144 94.0475
L448.182 49.0529
L449.69 41.5972
L450.695 37.4359
L451.7 33.966
L452.706 31.1891
L453.711 29.0743
L454.717 27.5594
L455.722 26.5545
L456.728 25.9485
L457.733 25.6159
L461.252 24.7999
L462.257 24.2497
L463.263 23.4569
L464.268 22.4273
L465.776 20.551
L467.787 17.961
L468.792 16.9354
L469.798 16.2903
L470.3 16.1552
L470.803 16.1662
L471.306 16.3366
L471.809 16.6773
L472.311 17.1962
L473.317 18.7842
L474.322 21.0962
L475.328 24.0697
L476.836 29.4971
L480.857 45.1109
L481.863 48.226
L482.868 50.7755
L483.873 52.7546
L484.879 54.2422
L486.387 55.9125
L487.895 57.6035
L488.9 59.1626
L489.906 61.3207
L490.911 64.2133
L491.917 67.8707
L493.425 74.5593
L496.441 88.934
L497.446 92.7953
L498.452 95.7634
L499.457 97.784
L500.463 98.9867
L501.468 99.6767
L502.473 100.286
L502.976 100.71
L503.479 101.289
L503.982 102.071
L504.484 103.091
L505.49 105.917
L506.495 109.729
L509.511 122.747
L510.517 125.558
L511.019 126.416
L511.522 126.903
L512.025 127.053
L512.528 126.93
L514.538 125.813
L515.041 125.981
L515.544 126.531
L516.046 127.513
L516.549 128.923
L517.555 132.752
L519.063 138.763
L519.565 140.094
L520.068 140.834
L520.571 140.929
L521.073 140.422
L522.079 138.295
L522.582 137.234
L523.084 136.608
L523.587 136.69
L524.09 137.626
L524.592 139.365
L526.1 145.651
L526.603 146.246
L527.106 145.437
L528.614 139.774
L529.117 140.554
L530.122 146.875
L530.625 146.563
L531.128 141.34
L531.63 147.435
L531.63 147.435" style="fill:none;opacity:0.6;stroke:#a60628;stroke-linecap:square;stroke-width:2.0;"/>
   </g>
   <g id="patch_3">
    <path d="
M29.4302 12.1988
L531.63 12.1988" style="fill:none;stroke:#000000;stroke-linecap:square;stroke-linejoin:miter;"/>
   </g>
   <g id="patch_4">
    <path d="
M531.63 242.599
L531.63 12.1988" style="fill:none;stroke:#000000;stroke-linecap:square;stroke-linejoin:miter;"/>
   </g>
   <g id="patch_5">
    <path d="
M29.4302 242.599
L531.63 242.599" style="fill:none;stroke:#000000;stroke-linecap:square;stroke-linejoin:miter;"/>
   </g>
   <g id="patch_6">
    <path d="
M29.4302 242.599
L29.4302 12.1988" style="fill:none;stroke:#000000;stroke-linecap:square;stroke-linejoin:miter;"/>
   </g>
   <g id="matplotlib.axis_1">
    <g id="xtick_1">
     <g id="line2d_4">
      <defs>
       <path d="
M0 0
L0 -4" id="m93b0483c22" style="stroke:#000000;stroke-width:0.5;"/>
      </defs>
      <g>
       <use style="stroke:#000000;stroke-width:0.5;" x="29.430205" xlink:href="#m93b0483c22" y="242.598780937"/>
      </g>
     </g>
     <g id="line2d_5">
      <defs>
       <path d="
M0 0
L0 4" id="m741efc42ff" style="stroke:#000000;stroke-width:0.5;"/>
      </defs>
      <g>
       <use style="stroke:#000000;stroke-width:0.5;" x="29.430205" xlink:href="#m741efc42ff" y="12.1987809375"/>
      </g>
     </g>
     <g id="text_1">
      <!-- −1.0 -->
      <defs>
       <path d="
M34.7188 0
L26.125 0
L26.125 44.5781
Q26.125 46.6875 26.1406 49.0781
Q26.1719 51.4688 26.2344 53.8281
Q26.3125 56.2031 26.3906 58.375
Q26.4688 60.5469 26.5156 62.2031
Q25.6875 61.3281 25.0469 60.6875
Q24.4219 60.0625 23.75 59.4688
Q23.0938 58.8906 22.3594 58.2188
Q21.625 57.5625 20.6094 56.6875
L13.375 50.7812
L8.6875 56.7812
L27.3906 71.3906
L34.7188 71.3906
z
" id="WenQuanYiMicroHei-31"/>
       <path d="
M50.3906 35.7969
Q50.3906 27.1562 49.1406 20.3125
Q47.9062 13.4844 45.1406 8.73438
Q42.3906 4 38.0312 1.5
Q33.6875 -0.984375 27.4844 -0.984375
Q21.7344 -0.984375 17.4531 1.5
Q13.1875 4 10.375 8.73438
Q7.5625 13.4844 6.17188 20.3125
Q4.78125 27.1562 4.78125 35.7969
Q4.78125 44.4375 6.03125 51.2656
Q7.28125 58.1094 9.98438 62.8125
Q12.7031 67.5312 17.0156 70.0156
Q21.3438 72.5156 27.4844 72.5156
Q33.2969 72.5156 37.5938 70.0469
Q41.8906 67.5781 44.7188 62.8594
Q47.5625 58.1562 48.9688 51.3125
Q50.3906 44.4844 50.3906 35.7969
M13.8125 35.7969
Q13.8125 28.4688 14.5469 23
Q15.2812 17.5312 16.8906 13.8906
Q18.5 10.25 21.1094 8.42188
Q23.7344 6.59375 27.4844 6.59375
Q31.25 6.59375 33.8906 8.39062
Q36.5312 10.2031 38.2031 13.8125
Q39.8906 17.4375 40.6406 22.9219
Q41.4062 28.4219 41.4062 35.7969
Q41.4062 43.1094 40.6406 48.5781
Q39.8906 54.0469 38.2031 57.6562
Q36.5312 61.2812 33.8906 63.0781
Q31.25 64.8906 27.4844 64.8906
Q23.7344 64.8906 21.1094 63.0781
Q18.5 61.2812 16.8906 57.6562
Q15.2812 54.0469 14.5469 48.5781
Q13.8125 43.1094 13.8125 35.7969" id="WenQuanYiMicroHei-30"/>
       <path d="
M4.98438 31.5938
L4.98438 38.9219
L50.0938 38.9219
L50.0938 31.5938
z
" id="WenQuanYiMicroHei-2212"/>
       <path d="
M7.17188 5.42188
Q7.17188 7.28125 7.65625 8.5625
Q8.15625 9.85938 8.98438 10.6562
Q9.8125 11.4688 10.9375 11.8281
Q12.0625 12.2031 13.375 12.2031
Q14.6562 12.2031 15.7969 11.8281
Q16.9375 11.4688 17.7656 10.6562
Q18.6094 9.85938 19.0938 8.5625
Q19.5781 7.28125 19.5781 5.42188
Q19.5781 3.60938 19.0938 2.3125
Q18.6094 1.03125 17.7656 0.1875
Q16.9375 -0.640625 15.7969 -1.03125
Q14.6562 -1.42188 13.375 -1.42188
Q12.0625 -1.42188 10.9375 -1.03125
Q9.8125 -0.640625 8.98438 0.1875
Q8.15625 1.03125 7.65625 2.3125
Q7.17188 3.60938 7.17188 5.42188" id="WenQuanYiMicroHei-2e"/>
      </defs>
      <g transform="translate(20.3151025 254.194179062)scale(0.09996 -0.09996)">
       <use xlink:href="#WenQuanYiMicroHei-2212"/>
       <use x="55.078125" xlink:href="#WenQuanYiMicroHei-31"/>
       <use x="110.15625" xlink:href="#WenQuanYiMicroHei-2e"/>
       <use x="136.962890625" xlink:href="#WenQuanYiMicroHei-30"/>
      </g>
     </g>
    </g>
    <g id="xtick_2">
     <g id="line2d_6">
      <g>
       <use style="stroke:#000000;stroke-width:0.5;" x="154.980205" xlink:href="#m93b0483c22" y="242.598780937"/>
      </g>
     </g>
     <g id="line2d_7">
      <g>
       <use style="stroke:#000000;stroke-width:0.5;" x="154.980205" xlink:href="#m741efc42ff" y="12.1987809375"/>
      </g>
     </g>
     <g id="text_2">
      <!-- −0.5 -->
      <defs>
       <path d="
M26.6094 43.7969
Q31.4531 43.7969 35.625 42.4531
Q39.7969 41.1094 42.8906 38.4688
Q46 35.8438 47.75 31.9375
Q49.5156 28.0312 49.5156 22.9062
Q49.5156 17.3281 47.8438 12.8906
Q46.1875 8.45312 42.9219 5.375
Q39.6562 2.29688 34.8438 0.65625
Q30.0312 -0.984375 23.7812 -0.984375
Q21.2969 -0.984375 18.875 -0.734375
Q16.4531 -0.484375 14.2344 -0.015625
Q12.0156 0.4375 10.0156 1.17188
Q8.01562 1.90625 6.39062 2.875
L6.39062 11.2812
Q8.01562 10.1562 10.1875 9.28125
Q12.3594 8.40625 14.75 7.8125
Q17.1406 7.23438 19.5469 6.90625
Q21.9688 6.59375 24.0312 6.59375
Q27.875 6.59375 30.9062 7.5
Q33.9375 8.40625 36.0312 10.2969
Q38.1406 12.2031 39.25 15.0781
Q40.375 17.9688 40.375 21.9219
Q40.375 28.9062 36.0781 32.5938
Q31.7812 36.2812 23.5781 36.2812
Q22.2656 36.2812 20.7188 36.1562
Q19.1875 36.0312 17.6406 35.8281
Q16.1094 35.6406 14.7188 35.4219
Q13.3281 35.2031 12.3125 35.0156
L7.90625 37.7969
L10.5938 71.3906
L44.2812 71.3906
L44.2812 63.2812
L18.3125 63.2812
L16.4062 42.8281
Q17.9688 43.1094 20.5312 43.4531
Q23.0938 43.7969 26.6094 43.7969" id="WenQuanYiMicroHei-35"/>
      </defs>
      <g transform="translate(145.908835 254.194179062)scale(0.09996 -0.09996)">
       <use xlink:href="#WenQuanYiMicroHei-2212"/>
       <use x="55.078125" xlink:href="#WenQuanYiMicroHei-30"/>
       <use x="110.15625" xlink:href="#WenQuanYiMicroHei-2e"/>
       <use x="136.962890625" xlink:href="#WenQuanYiMicroHei-35"/>
      </g>
     </g>
    </g>
    <g id="xtick_3">
     <g id="line2d_8">
      <g>
       <use style="stroke:#000000;stroke-width:0.5;" x="280.530205" xlink:href="#m93b0483c22" y="242.598780937"/>
      </g>
     </g>
     <g id="line2d_9">
      <g>
       <use style="stroke:#000000;stroke-width:0.5;" x="280.530205" xlink:href="#m741efc42ff" y="12.1987809375"/>
      </g>
     </g>
     <g id="text_3">
      <!-- 0.0 -->
      <g transform="translate(274.157755 254.194179062)scale(0.09996 -0.09996)">
       <use xlink:href="#WenQuanYiMicroHei-30"/>
       <use x="55.078125" xlink:href="#WenQuanYiMicroHei-2e"/>
       <use x="81.884765625" xlink:href="#WenQuanYiMicroHei-30"/>
      </g>
     </g>
    </g>
    <g id="xtick_4">
     <g id="line2d_10">
      <g>
       <use style="stroke:#000000;stroke-width:0.5;" x="406.080205" xlink:href="#m93b0483c22" y="242.598780937"/>
      </g>
     </g>
     <g id="line2d_11">
      <g>
       <use style="stroke:#000000;stroke-width:0.5;" x="406.080205" xlink:href="#m741efc42ff" y="12.1987809375"/>
      </g>
     </g>
     <g id="text_4">
      <!-- 0.5 -->
      <g transform="translate(399.7514875 254.194179062)scale(0.09996 -0.09996)">
       <use xlink:href="#WenQuanYiMicroHei-30"/>
       <use x="55.078125" xlink:href="#WenQuanYiMicroHei-2e"/>
       <use x="81.884765625" xlink:href="#WenQuanYiMicroHei-35"/>
      </g>
     </g>
    </g>
    <g id="xtick_5">
     <g id="line2d_12">
      <g>
       <use style="stroke:#000000;stroke-width:0.5;" x="531.630205" xlink:href="#m93b0483c22" y="242.598780937"/>
      </g>
     </g>
     <g id="line2d_13">
      <g>
       <use style="stroke:#000000;stroke-width:0.5;" x="531.630205" xlink:href="#m741efc42ff" y="12.1987809375"/>
      </g>
     </g>
     <g id="text_5">
      <!-- 1.0 -->
      <g transform="translate(525.452989375 254.194179062)scale(0.09996 -0.09996)">
       <use xlink:href="#WenQuanYiMicroHei-31"/>
       <use x="55.078125" xlink:href="#WenQuanYiMicroHei-2e"/>
       <use x="81.884765625" xlink:href="#WenQuanYiMicroHei-30"/>
      </g>
     </g>
    </g>
   </g>
   <g id="matplotlib.axis_2">
    <g id="ytick_1">
     <g id="line2d_14">
      <defs>
       <path d="
M0 0
L4 0" id="m728421d6d4" style="stroke:#000000;stroke-width:0.5;"/>
      </defs>
      <g>
       <use style="stroke:#000000;stroke-width:0.5;" x="29.430205" xlink:href="#m728421d6d4" y="242.598780937"/>
      </g>
     </g>
     <g id="line2d_15">
      <defs>
       <path d="
M0 0
L-4 0" id="mcb0005524f" style="stroke:#000000;stroke-width:0.5;"/>
      </defs>
      <g>
       <use style="stroke:#000000;stroke-width:0.5;" x="531.630205" xlink:href="#mcb0005524f" y="242.598780937"/>
      </g>
     </g>
     <g id="text_6">
      <!-- −1.5 -->
      <g transform="translate(7.287465 245.195398125)scale(0.09996 -0.09996)">
       <use xlink:href="#WenQuanYiMicroHei-2212"/>
       <use x="55.078125" xlink:href="#WenQuanYiMicroHei-31"/>
       <use x="110.15625" xlink:href="#WenQuanYiMicroHei-2e"/>
       <use x="136.962890625" xlink:href="#WenQuanYiMicroHei-35"/>
      </g>
     </g>
    </g>
    <g id="ytick_2">
     <g id="line2d_16">
      <g>
       <use style="stroke:#000000;stroke-width:0.5;" x="29.430205" xlink:href="#m728421d6d4" y="209.684495223"/>
      </g>
     </g>
     <g id="line2d_17">
      <g>
       <use style="stroke:#000000;stroke-width:0.5;" x="531.630205" xlink:href="#mcb0005524f" y="209.684495223"/>
      </g>
     </g>
     <g id="text_7">
      <!-- −1.0 -->
      <g transform="translate(7.2 212.281112411)scale(0.09996 -0.09996)">
       <use xlink:href="#WenQuanYiMicroHei-2212"/>
       <use x="55.078125" xlink:href="#WenQuanYiMicroHei-31"/>
       <use x="110.15625" xlink:href="#WenQuanYiMicroHei-2e"/>
       <use x="136.962890625" xlink:href="#WenQuanYiMicroHei-30"/>
      </g>
     </g>
    </g>
    <g id="ytick_3">
     <g id="line2d_18">
      <g>
       <use style="stroke:#000000;stroke-width:0.5;" x="29.430205" xlink:href="#m728421d6d4" y="176.770209509"/>
      </g>
     </g>
     <g id="line2d_19">
      <g>
       <use style="stroke:#000000;stroke-width:0.5;" x="531.630205" xlink:href="#mcb0005524f" y="176.770209509"/>
      </g>
     </g>
     <g id="text_8">
      <!-- −0.5 -->
      <g transform="translate(7.287465 179.366826696)scale(0.09996 -0.09996)">
       <use xlink:href="#WenQuanYiMicroHei-2212"/>
       <use x="55.078125" xlink:href="#WenQuanYiMicroHei-30"/>
       <use x="110.15625" xlink:href="#WenQuanYiMicroHei-2e"/>
       <use x="136.962890625" xlink:href="#WenQuanYiMicroHei-35"/>
      </g>
     </g>
    </g>
    <g id="ytick_4">
     <g id="line2d_20">
      <g>
       <use style="stroke:#000000;stroke-width:0.5;" x="29.430205" xlink:href="#m728421d6d4" y="143.855923795"/>
      </g>
     </g>
     <g id="line2d_21">
      <g>
       <use style="stroke:#000000;stroke-width:0.5;" x="531.630205" xlink:href="#mcb0005524f" y="143.855923795"/>
      </g>
     </g>
     <g id="text_9">
      <!-- 0.0 -->
      <g transform="translate(12.685305 146.452540982)scale(0.09996 -0.09996)">
       <use xlink:href="#WenQuanYiMicroHei-30"/>
       <use x="55.078125" xlink:href="#WenQuanYiMicroHei-2e"/>
       <use x="81.884765625" xlink:href="#WenQuanYiMicroHei-30"/>
      </g>
     </g>
    </g>
    <g id="ytick_5">
     <g id="line2d_22">
      <g>
       <use style="stroke:#000000;stroke-width:0.5;" x="29.430205" xlink:href="#m728421d6d4" y="110.94163808"/>
      </g>
     </g>
     <g id="line2d_23">
      <g>
       <use style="stroke:#000000;stroke-width:0.5;" x="531.630205" xlink:href="#mcb0005524f" y="110.94163808"/>
      </g>
     </g>
     <g id="text_10">
      <!-- 0.5 -->
      <g transform="translate(12.77277 113.538255268)scale(0.09996 -0.09996)">
       <use xlink:href="#WenQuanYiMicroHei-30"/>
       <use x="55.078125" xlink:href="#WenQuanYiMicroHei-2e"/>
       <use x="81.884765625" xlink:href="#WenQuanYiMicroHei-35"/>
      </g>
     </g>
    </g>
    <g id="ytick_6">
     <g id="line2d_24">
      <g>
       <use style="stroke:#000000;stroke-width:0.5;" x="29.430205" xlink:href="#m728421d6d4" y="78.0273523661"/>
      </g>
     </g>
     <g id="line2d_25">
      <g>
       <use style="stroke:#000000;stroke-width:0.5;" x="531.630205" xlink:href="#mcb0005524f" y="78.0273523661"/>
      </g>
     </g>
     <g id="text_11">
      <!-- 1.0 -->
      <g transform="translate(13.07577375 80.6239695536)scale(0.09996 -0.09996)">
       <use xlink:href="#WenQuanYiMicroHei-31"/>
       <use x="55.078125" xlink:href="#WenQuanYiMicroHei-2e"/>
       <use x="81.884765625" xlink:href="#WenQuanYiMicroHei-30"/>
      </g>
     </g>
    </g>
    <g id="ytick_7">
     <g id="line2d_26">
      <g>
       <use style="stroke:#000000;stroke-width:0.5;" x="29.430205" xlink:href="#m728421d6d4" y="45.1130666518"/>
      </g>
     </g>
     <g id="line2d_27">
      <g>
       <use style="stroke:#000000;stroke-width:0.5;" x="531.630205" xlink:href="#mcb0005524f" y="45.1130666518"/>
      </g>
     </g>
     <g id="text_12">
      <!-- 1.5 -->
      <g transform="translate(13.16323875 47.7096838393)scale(0.09996 -0.09996)">
       <use xlink:href="#WenQuanYiMicroHei-31"/>
       <use x="55.078125" xlink:href="#WenQuanYiMicroHei-2e"/>
       <use x="81.884765625" xlink:href="#WenQuanYiMicroHei-35"/>
      </g>
     </g>
    </g>
    <g id="ytick_8">
     <g id="line2d_28">
      <g>
       <use style="stroke:#000000;stroke-width:0.5;" x="29.430205" xlink:href="#m728421d6d4" y="12.1987809375"/>
      </g>
     </g>
     <g id="line2d_29">
      <g>
       <use style="stroke:#000000;stroke-width:0.5;" x="531.630205" xlink:href="#mcb0005524f" y="12.1987809375"/>
      </g>
     </g>
     <g id="text_13">
      <!-- 2.0 -->
      <defs>
       <path d="
M49.2188 0
L4.6875 0
L4.6875 7.625
L21.7812 26.2188
Q25.4375 30.1719 28.3125 33.4375
Q31.2031 36.7188 33.2188 39.8438
Q35.25 42.9688 36.3281 46.1094
Q37.4062 49.2656 37.4062 52.9844
Q37.4062 55.8594 36.5781 58.0469
Q35.75 60.25 34.2031 61.7812
Q32.6719 63.3281 30.5625 64.1094
Q28.4688 64.8906 25.875 64.8906
Q21.2344 64.8906 17.5 63.0156
Q13.7656 61.1406 10.4062 58.2031
L5.42188 64.0156
Q7.375 65.7656 9.60938 67.2969
Q11.8594 68.8438 14.4531 69.9688
Q17.0469 71.0938 19.9219 71.75
Q22.7969 72.4062 25.9844 72.4062
Q30.6719 72.4062 34.4531 71.0938
Q38.2344 69.7812 40.8594 67.3125
Q43.5 64.8438 44.9375 61.2969
Q46.3906 57.7656 46.3906 53.3281
Q46.3906 49.1719 45.0938 45.4062
Q43.7969 41.6562 41.5312 38.0156
Q39.2656 34.375 36.1094 30.7031
Q32.9531 27.0469 29.2969 23.0938
L15.5781 8.5
L15.5781 8.10938
L49.2188 8.10938
z
" id="WenQuanYiMicroHei-32"/>
      </defs>
      <g transform="translate(12.67593375 14.795398125)scale(0.09996 -0.09996)">
       <use xlink:href="#WenQuanYiMicroHei-32"/>
       <use x="55.078125" xlink:href="#WenQuanYiMicroHei-2e"/>
       <use x="81.884765625" xlink:href="#WenQuanYiMicroHei-30"/>
      </g>
     </g>
    </g>
   </g>
   <g id="legend_1">
    <g id="patch_7">
     <path d="
M428.884 237.601
L526.632 237.601
L526.632 189.412
L428.884 189.412
z
" style="fill:#ffffff;stroke:#000000;stroke-linejoin:miter;"/>
    </g>
    <g id="line2d_30">
     <path d="
M435.881 197.507
L449.875 197.507" style="fill:none;stroke:#000000;stroke-dasharray:6.000000,6.000000;stroke-dashoffset:0.0;stroke-width:2.0;"/>
    </g>
    <g id="line2d_31"/>
    <g id="text_14">
     <!-- $g(x)$ -->
     <defs>
      <path d="
M31 -24.8125
Q25.4375 -20.4062 21.4062 -14.7188
Q17.3906 -9.03125 14.8125 -2.57812
Q12.25 3.85938 10.9844 10.8906
Q9.71875 17.9219 9.71875 25
Q9.71875 32.1719 10.9844 39.2031
Q12.25 46.2344 14.8594 52.7344
Q17.4844 59.2344 21.5312 64.8906
Q25.5938 70.5625 31 74.8125
Q31 75 31.5 75
L32.4219 75
Q32.7188 75 32.9531 74.7344
Q33.2031 74.4688 33.2031 74.125
Q33.2031 73.6875 33.0156 73.4844
Q28.125 68.7031 24.875 63.2344
Q21.625 57.7656 19.6406 51.5781
Q17.6719 45.4062 16.7969 38.7812
Q15.9219 32.1719 15.9219 25
Q15.9219 -6.78125 32.9062 -23.2969
Q33.2031 -23.5781 33.2031 -24.125
Q33.2031 -24.3594 32.9375 -24.6719
Q32.6719 -25 32.4219 -25
L31.5 -25
Q31 -25 31 -24.8125" id="Cmr10-28"/>
      <path d="
M6.5 -25
Q5.60938 -25 5.60938 -24.125
Q5.60938 -23.6875 5.8125 -23.4844
Q22.9062 -6.78125 22.9062 25
Q22.9062 56.7812 6 73.2969
Q5.60938 73.5312 5.60938 74.125
Q5.60938 74.4688 5.875 74.7344
Q6.15625 75 6.5 75
L7.42188 75
Q7.71875 75 7.90625 74.8125
Q15.0938 69.1406 19.875 61.0312
Q24.6562 52.9375 26.875 43.75
Q29.1094 34.5781 29.1094 25
Q29.1094 17.9219 27.9062 11.0625
Q26.7031 4.20312 24.0938 -2.45312
Q21.4844 -9.125 17.4844 -14.7656
Q13.4844 -20.4062 7.90625 -24.8125
Q7.71875 -25 7.42188 -25
z
" id="Cmr10-29"/>
      <path d="
M7.8125 2.875
Q9.57812 1.51562 12.7969 1.51562
Q15.9219 1.51562 18.3125 4.51562
Q20.7031 7.51562 21.5781 11.0781
L26.125 28.8125
Q27.2031 33.6406 27.2031 35.4062
Q27.2031 37.8906 25.8125 39.75
Q24.4219 41.6094 21.9219 41.6094
Q18.75 41.6094 15.9688 39.625
Q13.1875 37.6406 11.2812 34.5938
Q9.375 31.5469 8.59375 28.4219
Q8.40625 27.7812 7.8125 27.7812
L6.59375 27.7812
Q5.8125 27.7812 5.8125 28.7188
L5.8125 29
Q6.78125 32.7188 9.125 36.25
Q11.4688 39.7969 14.8594 41.9844
Q18.2656 44.1875 22.125 44.1875
Q25.7812 44.1875 28.7344 42.2344
Q31.6875 40.2812 32.9062 36.9219
Q34.625 39.9844 37.2812 42.0781
Q39.9375 44.1875 43.1094 44.1875
Q45.2656 44.1875 47.5 43.4219
Q49.75 42.6719 51.1719 41.1094
Q52.5938 39.5469 52.5938 37.2031
Q52.5938 34.6719 50.9531 32.8281
Q49.3125 31 46.7812 31
Q45.1719 31 44.0938 32.0312
Q43.0156 33.0625 43.0156 34.625
Q43.0156 36.7188 44.4531 38.2969
Q45.9062 39.8906 47.9062 40.1875
Q46.0938 41.6094 42.9219 41.6094
Q39.7031 41.6094 37.3281 38.625
Q34.9688 35.6406 33.9844 31.9844
L29.5938 14.3125
Q28.5156 10.2969 28.5156 7.71875
Q28.5156 5.17188 29.9531 3.34375
Q31.3906 1.51562 33.7969 1.51562
Q38.4844 1.51562 42.1562 5.64062
Q45.8438 9.76562 47.0156 14.7031
Q47.2188 15.2812 47.7969 15.2812
L49.0312 15.2812
Q49.4219 15.2812 49.6562 15.0156
Q49.9062 14.75 49.9062 14.4062
Q49.9062 14.3125 49.8125 14.1094
Q48.3906 8.15625 43.8438 3.51562
Q39.3125 -1.125 33.5938 -1.125
Q29.9375 -1.125 26.9844 0.84375
Q24.0312 2.82812 22.7969 6.20312
Q21.2344 3.26562 18.4688 1.0625
Q15.7188 -1.125 12.5938 -1.125
Q10.4531 -1.125 8.17188 -0.359375
Q5.90625 0.390625 4.48438 1.95312
Q3.07812 3.51562 3.07812 5.90625
Q3.07812 8.25 4.70312 10.1719
Q6.34375 12.1094 8.79688 12.1094
Q10.4531 12.1094 11.5781 11.1094
Q12.7031 10.1094 12.7031 8.5
Q12.7031 6.39062 11.2969 4.82812
Q9.90625 3.26562 7.8125 2.875" id="Cmmi10-78"/>
      <path d="
M1.42188 -14.3125
Q1.42188 -11.8594 3.09375 -10.0312
Q4.78125 -8.20312 7.17188 -8.20312
Q8.79688 -8.20312 9.89062 -9.20312
Q10.9844 -10.2031 10.9844 -11.8125
Q10.9844 -13.625 9.95312 -15.0625
Q8.9375 -16.5 7.32812 -17.0938
Q10.0156 -17.9219 15.7188 -17.9219
Q20.3125 -17.9219 24.125 -14.375
Q27.9375 -10.8438 29.1094 -6.20312
L31.9844 5.51562
Q26.5625 0 20.7031 0
Q16.4062 0 13.3438 2.1875
Q10.2969 4.39062 8.6875 8.04688
Q7.07812 11.7188 7.07812 15.8281
Q7.07812 20.4062 8.95312 25.4375
Q10.8438 30.4688 14.2344 34.7656
Q17.625 39.0625 22.0156 41.625
Q26.4219 44.1875 31.2969 44.1875
Q34.2344 44.1875 36.5781 42.5781
Q38.9219 40.9688 40.2812 38.2812
Q41.2656 42.1875 44.5781 42.1875
Q45.8438 42.1875 46.7188 41.4219
Q47.6094 40.6719 47.6094 39.4062
Q47.6094 39.1094 47.5781 38.9531
Q47.5625 38.8125 47.5156 38.625
L36.0781 -6.78125
Q35.2969 -9.90625 33.2031 -12.5
Q31.1094 -15.0938 28.2656 -16.8281
Q25.4375 -18.5625 22.0625 -19.5312
Q18.7031 -20.5156 15.5781 -20.5156
Q9.85938 -20.5156 5.64062 -19.4062
Q1.42188 -18.3125 1.42188 -14.3125
M20.9062 2.59375
Q27.2969 2.59375 33.5 11.375
L39.0156 33.2031
Q38.3281 36.6719 36.2812 39.1406
Q34.2344 41.6094 31.1094 41.6094
Q27.7812 41.6094 24.8281 38.8906
Q21.875 36.1875 19.9219 32.4219
Q18.0625 28.8125 16.3281 22.0469
Q14.5938 15.2812 14.5938 11.375
Q14.5938 7.95312 16.1562 5.26562
Q17.7188 2.59375 20.9062 2.59375" id="Cmmi10-67"/>
     </defs>
     <g transform="translate(460.87102 201.006049687)scale(0.09996 -0.09996)">
      <use xlink:href="#Cmmi10-67"/>
      <use transform="translate(47.705078125 0.0)" xlink:href="#Cmr10-28"/>
      <use transform="translate(86.5234375 0.0)" xlink:href="#Cmmi10-78"/>
      <use transform="translate(143.603515625 0.0)" xlink:href="#Cmr10-29"/>
     </g>
    </g>
    <g id="line2d_32">
     <path d="
M435.881 212.653
L449.875 212.653" style="fill:none;opacity:0.6;stroke:#348abd;stroke-linecap:square;stroke-width:2.0;"/>
    </g>
    <g id="line2d_33"/>
    <g id="text_15">
     <!-- Chebyshev fit -->
     <defs>
      <path id="WenQuanYiMicroHei-20"/>
      <path d="
M29.6875 -0.984375
Q24.3125 -0.984375 19.875 0.828125
Q15.4375 2.64062 12.2344 6.10938
Q9.03125 9.57812 7.26562 14.7031
Q5.51562 19.8281 5.51562 26.4219
Q5.51562 33.0625 7.125 38.2812
Q8.73438 43.5 11.6562 47.1406
Q14.5938 50.7812 18.6719 52.6875
Q22.75 54.5938 27.6875 54.5938
Q32.5156 54.5938 36.375 52.8594
Q40.2344 51.125 42.9219 47.9688
Q45.6094 44.8281 47.0469 40.4062
Q48.4844 35.9844 48.4844 30.6094
L48.4844 25.0938
L14.7031 25.0938
Q14.9375 15.6719 18.6719 11.2188
Q22.4062 6.78125 29.7812 6.78125
Q32.2812 6.78125 34.4062 7.03125
Q36.5312 7.28125 38.5 7.73438
Q40.4844 8.20312 42.3281 8.90625
Q44.1875 9.625 46.0938 10.5
L46.0938 2.59375
Q44.1406 1.65625 42.25 0.96875
Q40.375 0.296875 38.3906 -0.140625
Q36.4219 -0.59375 34.2969 -0.78125
Q32.1719 -0.984375 29.6875 -0.984375
M27.4844 47.2188
Q21.9219 47.2188 18.6719 43.4062
Q15.4375 39.5938 14.8906 32.3281
L38.9219 32.3281
Q38.9219 35.6406 38.25 38.3906
Q37.5938 41.1562 36.2031 43.1094
Q34.8125 45.0625 32.6562 46.1406
Q30.5156 47.2188 27.4844 47.2188" id="WenQuanYiMicroHei-65"/>
      <path d="
M38.7188 64.4062
Q33.5 64.4062 29.25 62.4219
Q25 60.4531 22 56.7344
Q19 53.0312 17.3594 47.7031
Q15.7188 42.3906 15.7188 35.6875
Q15.7188 28.8125 17.1562 23.4531
Q18.6094 18.1094 21.4844 14.4531
Q24.3594 10.7969 28.6562 8.89062
Q32.9531 6.98438 38.7188 6.98438
Q43.0625 6.98438 46.9688 7.82812
Q50.875 8.6875 54.6875 9.8125
L54.6875 1.90625
Q52.7812 1.17188 50.875 0.609375
Q48.9688 0.046875 46.8906 -0.296875
Q44.8281 -0.640625 42.4531 -0.8125
Q40.0938 -0.984375 37.2031 -0.984375
Q29.2031 -0.984375 23.3438 1.65625
Q17.4844 4.29688 13.6406 9.125
Q9.8125 13.9688 7.95312 20.75
Q6.10938 27.5469 6.10938 35.7969
Q6.10938 43.8906 8.23438 50.625
Q10.3594 57.375 14.4844 62.2031
Q18.6094 67.0469 24.7031 69.7188
Q30.8125 72.4062 38.7188 72.4062
Q44 72.4062 48.7812 71.3281
Q53.5625 70.2656 57.4219 68.2188
L53.6094 60.5938
Q50.5312 62.1562 46.9219 63.2812
Q43.3125 64.4062 38.7188 64.4062" id="WenQuanYiMicroHei-43"/>
      <path d="
M31.7812 46.9219
L19.8281 46.9219
L19.8281 0
L10.8906 0
L10.8906 46.9219
L1.42188 46.9219
L1.42188 50.5938
L10.8906 53.9062
L10.8906 58.5938
Q10.8906 63.8125 11.9844 67.25
Q13.0938 70.7031 15.1562 72.75
Q17.2344 74.8125 20.2656 75.6562
Q23.2969 76.5156 27.0938 76.5156
Q29.9844 76.5156 32.3906 75.9531
Q34.8125 75.3906 36.7188 74.7031
L34.4219 67.8281
Q32.9062 68.3594 31.125 68.7656
Q29.3438 69.1875 27.3906 69.1875
Q25.4375 69.1875 24.0156 68.7188
Q22.6094 68.2656 21.6719 67.0938
Q20.75 65.9219 20.2812 63.8906
Q19.8281 61.8594 19.8281 58.6875
L19.8281 53.6094
L31.7812 53.6094
z
" id="WenQuanYiMicroHei-66"/>
      <path d="
M24.7031 6.29688
Q25.5938 6.29688 26.6875 6.39062
Q27.7812 6.5 28.7969 6.64062
Q29.8281 6.78125 30.6875 6.96875
Q31.5469 7.17188 31.9844 7.32812
L31.9844 0.59375
Q31.3438 0.296875 30.3594 0
Q29.3906 -0.296875 28.2188 -0.515625
Q27.0469 -0.734375 25.7812 -0.859375
Q24.5156 -0.984375 23.2969 -0.984375
Q20.2656 -0.984375 17.6719 -0.1875
Q15.0938 0.59375 13.2031 2.48438
Q11.3281 4.39062 10.25 7.64062
Q9.1875 10.8906 9.1875 15.8281
L9.1875 46.9219
L1.60938 46.9219
L1.60938 50.875
L9.1875 54.6875
L12.9844 65.9219
L18.1094 65.9219
L18.1094 53.6094
L31.5938 53.6094
L31.5938 46.9219
L18.1094 46.9219
L18.1094 15.8281
Q18.1094 11.0781 19.6406 8.6875
Q21.1875 6.29688 24.7031 6.29688" id="WenQuanYiMicroHei-74"/>
      <path d="
M40.5781 14.7031
Q40.5781 10.7969 39.1562 7.85938
Q37.75 4.9375 35.0781 2.95312
Q32.4219 0.984375 28.6562 0
Q24.9062 -0.984375 20.2188 -0.984375
Q14.8906 -0.984375 11.0781 -0.125
Q7.28125 0.734375 4.39062 2.39062
L4.39062 10.5
Q5.90625 9.71875 7.76562 8.95312
Q9.625 8.20312 11.6719 7.60938
Q13.7188 7.03125 15.8906 6.65625
Q18.0625 6.29688 20.2188 6.29688
Q23.3906 6.29688 25.6094 6.82812
Q27.8281 7.375 29.2188 8.375
Q30.6094 9.375 31.25 10.8125
Q31.8906 12.25 31.8906 14.0156
Q31.8906 15.5312 31.3906 16.75
Q30.9062 17.9688 29.6094 19.1562
Q28.3281 20.3594 26.0781 21.5781
Q23.8281 22.7969 20.3125 24.3125
Q16.7969 25.8281 13.9844 27.2969
Q11.1875 28.7656 9.23438 30.5625
Q7.28125 32.375 6.21875 34.7344
Q5.17188 37.1094 5.17188 40.375
Q5.17188 43.7969 6.51562 46.4531
Q7.85938 49.125 10.2969 50.9219
Q12.75 52.7344 16.1562 53.6562
Q19.5781 54.5938 23.7812 54.5938
Q28.5156 54.5938 32.4375 53.5625
Q36.375 52.5469 39.8906 50.875
L36.8125 43.7031
Q33.6406 45.125 30.2969 46.1719
Q26.9531 47.2188 23.4844 47.2188
Q18.5 47.2188 16.1094 45.5781
Q13.7188 43.9531 13.7188 40.9219
Q13.7188 39.2031 14.2812 37.9375
Q14.8438 36.6719 16.2031 35.5469
Q17.5781 34.4219 19.875 33.2656
Q22.1719 32.125 25.5938 30.7188
Q29.1094 29.25 31.8594 27.7812
Q34.625 26.3125 36.5781 24.4844
Q38.5312 22.6562 39.5469 20.3125
Q40.5781 17.9688 40.5781 14.7031" id="WenQuanYiMicroHei-73"/>
      <path d="
M32.7188 54.5938
Q37.3125 54.5938 41.0625 52.8281
Q44.8281 51.0781 47.4844 47.5781
Q50.1406 44.0938 51.6094 38.9062
Q53.0781 33.7344 53.0781 26.9062
Q53.0781 20.0156 51.6094 14.8125
Q50.1406 9.625 47.4844 6.10938
Q44.8281 2.59375 41.0625 0.796875
Q37.3125 -0.984375 32.7188 -0.984375
Q29.8281 -0.984375 27.4844 -0.34375
Q25.1406 0.296875 23.2656 1.34375
Q21.3906 2.39062 19.9375 3.79688
Q18.5 5.21875 17.3906 6.78125
L16.7969 6.78125
L14.9844 0
L8.5 0
L8.5 75.9844
L17.3906 75.9844
L17.3906 57.625
Q17.3906 55.9062 17.3281 53.9688
Q17.2812 52.0469 17.1875 50.3906
Q17.0938 48.4375 17 46.5781
L17.3906 46.5781
Q18.5 48.2969 19.9219 49.75
Q21.3438 51.2188 23.2188 52.2969
Q25.0938 53.375 27.4375 53.9844
Q29.7812 54.5938 32.7188 54.5938
M31 47.2188
Q27.0938 47.2188 24.4844 45.9688
Q21.875 44.7344 20.2812 42.1875
Q18.7031 39.6562 18.0469 35.8438
Q17.3906 32.0312 17.3906 26.9062
Q17.3906 21.9688 18.0469 18.1406
Q18.7031 14.3125 20.2812 11.6875
Q21.875 9.07812 24.5156 7.73438
Q27.1562 6.39062 31.1094 6.39062
Q37.7031 6.39062 40.7969 11.7188
Q43.8906 17.0469 43.8906 27
Q43.8906 37.1562 40.7969 42.1875
Q37.7031 47.2188 31 47.2188" id="WenQuanYiMicroHei-62"/>
      <path d="
M18.3125 0
L0 53.6094
L9.1875 53.6094
L18.8906 23.7812
Q19.4375 22.1719 20.1719 19.625
Q20.9062 17.0938 21.625 14.4531
Q22.3594 11.8125 22.9688 9.46875
Q23.5781 7.125 23.7812 5.90625
L24.125 5.90625
Q24.3594 7.125 24.9375 9.46875
Q25.5312 11.8125 26.2656 14.4531
Q27 17.0938 27.7344 19.625
Q28.4688 22.1719 29 23.7812
L38.7188 53.6094
L47.9062 53.6094
L29.5938 0
z
" id="WenQuanYiMicroHei-76"/>
      <path d="
M42 0
L42 34.5156
Q42 40.875 39.4219 44.0469
Q36.8594 47.2188 31.3906 47.2188
Q27.4375 47.2188 24.75 45.9375
Q22.0781 44.6719 20.4375 42.1875
Q18.7969 39.7031 18.0938 36.0781
Q17.3906 32.4688 17.3906 27.7812
L17.3906 0
L8.5 0
L8.5 75.9844
L17.3906 75.9844
L17.3906 53.4219
L17 46.3906
L17.4844 46.3906
Q18.7031 48.4844 20.3906 50.0156
Q22.0781 51.5625 24.0781 52.5781
Q26.0781 53.6094 28.3125 54.0938
Q30.5625 54.5938 32.9062 54.5938
Q41.8438 54.5938 46.3594 49.9219
Q50.875 45.2656 50.875 35.0156
L50.875 0
z
" id="WenQuanYiMicroHei-68"/>
      <path d="
M17.3906 0
L8.5 0
L8.5 53.6094
L17.3906 53.6094
z

M7.8125 68.1094
Q7.8125 71.0469 9.29688 72.3594
Q10.7969 73.6875 12.9844 73.6875
Q14.0625 73.6875 15.0156 73.3594
Q15.9688 73.0469 16.6719 72.3594
Q17.3906 71.6875 17.7969 70.625
Q18.2188 69.5781 18.2188 68.1094
Q18.2188 65.2812 16.6719 63.8906
Q15.1406 62.5 12.9844 62.5
Q10.7969 62.5 9.29688 63.8594
Q7.8125 65.2344 7.8125 68.1094" id="WenQuanYiMicroHei-69"/>
      <path d="
M0.484375 53.6094
L9.71875 53.6094
L20.2188 23.6875
Q20.9062 21.7344 21.6094 19.5781
Q22.3125 17.4375 22.9219 15.2812
Q23.5312 13.1406 23.9688 11.125
Q24.4219 9.125 24.6094 7.42188
L24.9062 7.42188
Q25.1406 8.64062 25.6719 10.7344
Q26.2188 12.8438 26.875 15.2031
Q27.5469 17.5781 28.25 19.875
Q28.9531 22.1719 29.5 23.7812
L39.2031 53.6094
L48.3906 53.6094
L27.2031 -6.98438
Q25.8281 -10.9375 24.2344 -14.0781
Q22.6562 -17.2344 20.5469 -19.4219
Q18.4531 -21.625 15.625 -22.8281
Q12.7969 -24.0312 8.89062 -24.0312
Q6.34375 -24.0312 4.48438 -23.75
Q2.64062 -23.4844 1.3125 -23.1875
L1.3125 -16.1094
Q2.34375 -16.3594 3.90625 -16.5312
Q5.46875 -16.7031 7.17188 -16.7031
Q9.51562 -16.7031 11.2188 -16.1406
Q12.9375 -15.5781 14.2031 -14.5
Q15.4844 -13.4219 16.375 -11.8594
Q17.2812 -10.2969 18.0156 -8.29688
L20.7969 -0.484375
z
" id="WenQuanYiMicroHei-79"/>
     </defs>
     <g transform="translate(460.87102 216.151551562)scale(0.09996 -0.09996)">
      <use xlink:href="#WenQuanYiMicroHei-43"/>
      <use x="60.302734375" xlink:href="#WenQuanYiMicroHei-68"/>
      <use x="119.189453125" xlink:href="#WenQuanYiMicroHei-65"/>
      <use x="172.705078125" xlink:href="#WenQuanYiMicroHei-62"/>
      <use x="231.298828125" xlink:href="#WenQuanYiMicroHei-79"/>
      <use x="280.17578125" xlink:href="#WenQuanYiMicroHei-73"/>
      <use x="325.29296875" xlink:href="#WenQuanYiMicroHei-68"/>
      <use x="384.1796875" xlink:href="#WenQuanYiMicroHei-65"/>
      <use x="437.6953125" xlink:href="#WenQuanYiMicroHei-76"/>
      <use x="485.595703125" xlink:href="#WenQuanYiMicroHei-20"/>
      <use x="511.572265625" xlink:href="#WenQuanYiMicroHei-66"/>
      <use x="544.482421875" xlink:href="#WenQuanYiMicroHei-69"/>
      <use x="570.361328125" xlink:href="#WenQuanYiMicroHei-74"/>
     </g>
    </g>
    <g id="line2d_34">
     <path d="
M435.881 227.702
L449.875 227.702" style="fill:none;opacity:0.6;stroke:#a60628;stroke-linecap:square;stroke-width:2.0;"/>
    </g>
    <g id="line2d_35"/>
    <g id="text_16">
     <!-- Polynomial fit -->
     <defs>
      <path d="
M72.7031 0
L72.7031 34.5156
Q72.7031 40.875 70.2656 44.0469
Q67.8281 47.2188 62.7031 47.2188
Q59.125 47.2188 56.6406 46.0625
Q54.1562 44.9219 52.5625 42.7031
Q50.9844 40.4844 50.25 37.1875
Q49.5156 33.8906 49.5156 29.5938
L49.5156 0
L40.5781 0
L40.5781 34.5156
Q40.5781 40.875 38.1562 44.0469
Q35.75 47.2188 30.6094 47.2188
Q26.8594 47.2188 24.3125 45.9375
Q21.7812 44.6719 20.2344 42.1875
Q18.7031 39.7031 18.0469 36.0781
Q17.3906 32.4688 17.3906 27.7812
L17.3906 0
L8.5 0
L8.5 53.6094
L15.7188 53.6094
L17 46.3906
L17.4844 46.3906
Q18.6562 48.4844 20.2656 50.0156
Q21.875 51.5625 23.7969 52.5781
Q25.7344 53.6094 27.9062 54.0938
Q30.0781 54.5938 32.3281 54.5938
Q38.1875 54.5938 42.0625 52.4375
Q45.9531 50.2969 47.7969 45.7031
L48.1875 45.7031
Q49.4688 48 51.25 49.6562
Q53.0312 51.3125 55.1562 52.4062
Q57.2812 53.5156 59.625 54.0469
Q61.9688 54.5938 64.4062 54.5938
Q72.9531 54.5938 77.2656 49.9219
Q81.5938 45.2656 81.5938 35.0156
L81.5938 0
z
" id="WenQuanYiMicroHei-6d"/>
      <path d="
M42 0
L42 34.5156
Q42 40.875 39.4219 44.0469
Q36.8594 47.2188 31.3906 47.2188
Q27.4375 47.2188 24.75 45.9375
Q22.0781 44.6719 20.4375 42.1875
Q18.7969 39.7031 18.0938 36.0781
Q17.3906 32.4688 17.3906 27.7812
L17.3906 0
L8.5 0
L8.5 53.6094
L15.7188 53.6094
L17 46.3906
L17.4844 46.3906
Q18.7031 48.4844 20.3906 50.0156
Q22.0781 51.5625 24.0781 52.5781
Q26.0781 53.6094 28.3125 54.0938
Q30.5625 54.5938 32.9062 54.5938
Q41.8438 54.5938 46.3594 49.9219
Q50.875 45.2656 50.875 35.0156
L50.875 0
z
" id="WenQuanYiMicroHei-6e"/>
      <path d="
M52.2031 26.9062
Q52.2031 20.2188 50.5625 15.0156
Q48.9219 9.8125 45.875 6.26562
Q42.8281 2.73438 38.4688 0.875
Q34.125 -0.984375 28.7188 -0.984375
Q23.6875 -0.984375 19.4375 0.875
Q15.1875 2.73438 12.0781 6.26562
Q8.98438 9.8125 7.25 15.0156
Q5.51562 20.2188 5.51562 26.9062
Q5.51562 33.5469 7.15625 38.6875
Q8.79688 43.8438 11.8125 47.375
Q14.8438 50.9219 19.2031 52.75
Q23.5781 54.5938 29 54.5938
Q34.0312 54.5938 38.2812 52.75
Q42.5312 50.9219 45.625 47.375
Q48.7344 43.8438 50.4688 38.6875
Q52.2031 33.5469 52.2031 26.9062
M14.7031 26.9062
Q14.7031 16.7031 18.0469 11.5469
Q21.3906 6.39062 28.9062 6.39062
Q36.4219 6.39062 39.7188 11.5469
Q43.0156 16.7031 43.0156 26.9062
Q43.0156 37.1094 39.6719 42.1562
Q36.3281 47.2188 28.8125 47.2188
Q21.2969 47.2188 18 42.1562
Q14.7031 37.1094 14.7031 26.9062" id="WenQuanYiMicroHei-6f"/>
      <path d="
M17.3906 0
L8.5 0
L8.5 75.9844
L17.3906 75.9844
z
" id="WenQuanYiMicroHei-6c"/>
      <path d="
M38.7188 0
L36.9219 7.42188
L36.5312 7.42188
Q34.9062 5.21875 33.2969 3.625
Q31.6875 2.04688 29.7812 1.01562
Q27.875 0 25.5312 -0.484375
Q23.1875 -0.984375 20.125 -0.984375
Q16.75 -0.984375 13.9062 -0.03125
Q11.0781 0.921875 9 2.90625
Q6.9375 4.89062 5.76562 7.89062
Q4.59375 10.8906 4.59375 14.9844
Q4.59375 23 10.2344 27.2969
Q15.875 31.5938 27.3906 31.9844
L36.375 32.3281
L36.375 35.6875
Q36.375 38.9688 35.6719 41.1562
Q34.9688 43.3594 33.625 44.7031
Q32.2812 46.0469 30.2969 46.625
Q28.3281 47.2188 25.7812 47.2188
Q21.7344 47.2188 18.2344 46.0469
Q14.75 44.875 11.5312 43.2188
L8.40625 49.9062
Q12.0156 51.8594 16.4531 53.2188
Q20.9062 54.5938 25.7812 54.5938
Q30.7656 54.5938 34.3906 53.5938
Q38.0312 52.5938 40.4062 50.4219
Q42.7812 48.25 43.9531 44.875
Q45.125 41.5 45.125 36.7188
L45.125 0
z

M22.4062 6.20312
Q25.3906 6.20312 27.9219 7.125
Q30.4688 8.0625 32.3281 9.9375
Q34.1875 11.8125 35.2344 14.6719
Q36.2812 17.5312 36.2812 21.3906
L36.2812 26.2188
L29.2969 25.875
Q24.9062 25.6875 21.9219 24.9062
Q18.9531 24.125 17.1562 22.7344
Q15.375 21.3438 14.5938 19.3594
Q13.8125 17.3906 13.8125 14.8906
Q13.8125 10.4062 16.1875 8.29688
Q18.5625 6.20312 22.4062 6.20312" id="WenQuanYiMicroHei-61"/>
      <path d="
M52.4844 50.4844
Q52.4844 46.0469 51.1406 41.9375
Q49.8125 37.8438 46.7344 34.6875
Q43.6562 31.5469 38.5938 29.6562
Q33.5469 27.7812 26.125 27.7812
L18.7969 27.7812
L18.7969 0
L9.71875 0
L9.71875 71.3906
L27.3906 71.3906
Q33.9375 71.3906 38.6719 70
Q43.4062 68.6094 46.4844 65.9375
Q49.5625 63.2812 51.0156 59.375
Q52.4844 55.4688 52.4844 50.4844
M18.7969 35.5
L25.0938 35.5
Q29.6406 35.5 33.0312 36.2812
Q36.4219 37.0625 38.6406 38.7969
Q40.875 40.5312 41.9844 43.2812
Q43.1094 46.0469 43.1094 50
Q43.1094 56.9375 39.1094 60.2812
Q35.1094 63.625 26.6094 63.625
L18.7969 63.625
z
" id="WenQuanYiMicroHei-50"/>
     </defs>
     <g transform="translate(460.87102 231.200217187)scale(0.09996 -0.09996)">
      <use xlink:href="#WenQuanYiMicroHei-50"/>
      <use x="57.6171875" xlink:href="#WenQuanYiMicroHei-6f"/>
      <use x="115.33203125" xlink:href="#WenQuanYiMicroHei-6c"/>
      <use x="141.2109375" xlink:href="#WenQuanYiMicroHei-79"/>
      <use x="190.087890625" xlink:href="#WenQuanYiMicroHei-6e"/>
      <use x="248.974609375" xlink:href="#WenQuanYiMicroHei-6f"/>
      <use x="306.689453125" xlink:href="#WenQuanYiMicroHei-6d"/>
      <use x="396.2890625" xlink:href="#WenQuanYiMicroHei-69"/>
      <use x="422.16796875" xlink:href="#WenQuanYiMicroHei-61"/>
      <use x="475.244140625" xlink:href="#WenQuanYiMicroHei-6c"/>
      <use x="501.123046875" xlink:href="#WenQuanYiMicroHei-20"/>
      <use x="527.099609375" xlink:href="#WenQuanYiMicroHei-66"/>
      <use x="560.009765625" xlink:href="#WenQuanYiMicroHei-69"/>
      <use x="585.888671875" xlink:href="#WenQuanYiMicroHei-74"/>
     </g>
    </g>
   </g>
  </g>
 </g>
 <defs>
  <clipPath id="p66d213601c">
   <rect height="230.4" width="502.2" x="29.430205" y="12.1987809375"/>
  </clipPath>
 </defs>
</svg>
