<?xml version="1.0" encoding="utf-8" standalone="no"?>
<!DOCTYPE svg PUBLIC "-//W3C//DTD SVG 1.1//EN"
  "http://www.w3.org/Graphics/SVG/1.1/DTD/svg11.dtd">
<!-- Created with matplotlib (http://matplotlib.org/) -->
<svg height="263pt" version="1.1" viewBox="0 0 712 263" width="712pt" xmlns="http://www.w3.org/2000/svg" xmlns:xlink="http://www.w3.org/1999/xlink">
 <defs>
  <style type="text/css">
*{stroke-linecap:butt;stroke-linejoin:round;}
  </style>
 </defs>
 <g id="figure_1">
  <g id="patch_1">
   <path d="
M0 263.796
L712.32 263.796
L712.32 0
L0 0
z
" style="fill:#ffffff;"/>
  </g>
  <g id="axes_1">
   <g id="patch_2">
    <path d="
M29.3427 242.599
L333.706 242.599
L333.706 12.1988
L29.3427 12.1988
z
" style="fill:#ffffff;"/>
   </g>
   <g id="line2d_1">
    <path clip-path="url(#pab151114d1)" d="
M29.3427 192.974
L44.6374 192.177
L56.8731 191.333
L67.5794 190.381
L76.7562 189.346
L84.4035 188.277
L92.0508 186.96
L98.1687 185.677
L104.287 184.131
L108.875 182.758
L113.463 181.16
L118.052 179.289
L122.64 177.088
L125.699 175.401
L128.758 173.511
L131.817 171.388
L134.876 169.001
L137.935 166.313
L140.994 163.288
L144.053 159.885
L147.112 156.069
L150.171 151.807
L153.229 147.083
L156.288 141.905
L159.347 136.32
L165.465 124.429
L168.524 118.579
L171.583 113.243
L173.112 110.899
L174.642 108.842
L176.171 107.124
L177.701 105.791
L179.23 104.879
L180.76 104.417
L182.289 104.417
L183.819 104.879
L185.348 105.791
L186.878 107.124
L188.407 108.842
L189.937 110.899
L191.466 113.243
L194.525 118.579
L199.113 127.431
L203.702 136.32
L206.761 141.905
L209.82 147.083
L212.879 151.807
L215.938 156.069
L218.996 159.885
L222.055 163.288
L225.114 166.313
L228.173 169.001
L231.232 171.388
L234.291 173.511
L237.35 175.401
L240.409 177.088
L244.997 179.289
L249.586 181.16
L254.174 182.758
L258.763 184.131
L264.88 185.677
L270.998 186.96
L277.116 188.036
L284.763 189.149
L293.94 190.224
L304.647 191.211
L316.882 192.083
L330.647 192.833
L333.706 192.974
L333.706 192.974" style="fill:none;stroke:#348abd;stroke-dasharray:6.000000,6.000000;stroke-dashoffset:0.0;stroke-width:2.0;"/>
   </g>
   <g id="line2d_2">
    <defs>
     <path d="
M0 3
C0.795609 3 1.55874 2.6839 2.12132 2.12132
C2.6839 1.55874 3 0.795609 3 0
C3 -0.795609 2.6839 -1.55874 2.12132 -2.12132
C1.55874 -2.6839 0.795609 -3 0 -3
C-0.795609 -3 -1.55874 -2.6839 -2.12132 -2.12132
C-2.6839 -1.55874 -3 -0.795609 -3 0
C-3 0.795609 -2.6839 1.55874 -2.12132 2.12132
C-1.55874 2.6839 -0.795609 3 0 3
z
" id="m21c3f7e587" style="stroke:#000000;stroke-width:0.5;"/>
    </defs>
    <g clip-path="url(#pab151114d1)">
     <use style="fill:#a60628;stroke:#000000;stroke-width:0.5;" x="29.34274" xlink:href="#m21c3f7e587" y="192.974165553"/>
     <use style="fill:#a60628;stroke:#000000;stroke-width:0.5;" x="59.7791036364" xlink:href="#m21c3f7e587" y="191.097604467"/>
     <use style="fill:#a60628;stroke:#000000;stroke-width:0.5;" x="90.2154672727" xlink:href="#m21c3f7e587" y="187.302780938"/>
     <use style="fill:#a60628;stroke:#000000;stroke-width:0.5;" x="120.651830909" xlink:href="#m21c3f7e587" y="178.086780938"/>
     <use style="fill:#a60628;stroke:#000000;stroke-width:0.5;" x="151.088194545" xlink:href="#m21c3f7e587" y="150.438780938"/>
     <use style="fill:#a60628;stroke:#000000;stroke-width:0.5;" x="181.524558182" xlink:href="#m21c3f7e587" y="104.358780938"/>
     <use style="fill:#a60628;stroke:#000000;stroke-width:0.5;" x="211.960921818" xlink:href="#m21c3f7e587" y="150.438780938"/>
     <use style="fill:#a60628;stroke:#000000;stroke-width:0.5;" x="242.397285455" xlink:href="#m21c3f7e587" y="178.086780938"/>
     <use style="fill:#a60628;stroke:#000000;stroke-width:0.5;" x="272.833649091" xlink:href="#m21c3f7e587" y="187.302780938"/>
     <use style="fill:#a60628;stroke:#000000;stroke-width:0.5;" x="303.270012727" xlink:href="#m21c3f7e587" y="191.097604467"/>
     <use style="fill:#a60628;stroke:#000000;stroke-width:0.5;" x="333.706376364" xlink:href="#m21c3f7e587" y="192.974165553"/>
    </g>
   </g>
   <g id="line2d_3">
    <path clip-path="url(#pab151114d1)" d="
M29.3427 192.974
L30.8722 129.331
L32.4017 82.7419
L33.9311 50.4232
L35.4606 29.9179
L36.9901 19.0677
L38.5195 15.9861
L40.049 19.0329
L41.5785 26.7906
L43.1079 38.0427
L44.6374 51.7537
L47.6963 83.2025
L52.2847 131.352
L53.8142 146.001
L55.3437 159.515
L56.8731 171.738
L58.4026 182.574
L59.9321 191.972
L61.4615 199.923
L62.991 206.451
L64.5204 211.608
L66.0499 215.468
L67.5794 218.119
L69.1088 219.665
L70.6383 220.216
L72.1678 219.889
L73.6972 218.8
L75.2267 217.069
L76.7562 214.81
L78.2856 212.134
L81.3446 205.946
L87.4624 192.701
L90.5214 186.745
L92.0508 184.103
L93.5803 181.725
L95.1098 179.631
L96.6392 177.835
L98.1687 176.34
L99.6982 175.144
L101.228 174.241
L102.757 173.615
L104.287 173.25
L105.816 173.121
L107.345 173.204
L108.875 173.47
L110.404 173.886
L113.463 175.041
L119.581 177.696
L122.64 178.677
L124.17 178.98
L125.699 179.124
L127.229 179.089
L128.758 178.857
L130.287 178.412
L131.817 177.742
L133.346 176.84
L134.876 175.699
L136.405 174.319
L137.935 172.7
L139.464 170.848
L140.994 168.77
L142.523 166.477
L145.582 161.304
L148.641 155.469
L151.7 149.144
L162.406 126.178
L165.465 120.295
L168.524 115.103
L170.054 112.824
L171.583 110.784
L173.112 109
L174.642 107.489
L176.171 106.263
L177.701 105.335
L179.23 104.711
L180.76 104.398
L182.289 104.398
L183.819 104.711
L185.348 105.335
L186.878 106.263
L188.407 107.489
L189.937 109
L191.466 110.784
L192.996 112.824
L194.525 115.103
L197.584 120.295
L200.643 126.178
L203.702 132.548
L214.408 155.469
L217.467 161.304
L220.526 166.477
L222.055 168.77
L223.585 170.848
L225.114 172.7
L226.644 174.319
L228.173 175.699
L229.703 176.84
L231.232 177.742
L232.762 178.412
L234.291 178.857
L235.821 179.089
L237.35 179.124
L238.88 178.98
L240.409 178.677
L243.468 177.696
L248.056 175.712
L251.115 174.421
L252.645 173.886
L254.174 173.47
L255.704 173.204
L257.233 173.121
L258.763 173.25
L260.292 173.615
L261.821 174.241
L263.351 175.144
L264.88 176.34
L266.41 177.835
L267.939 179.631
L269.469 181.725
L270.998 184.103
L272.528 186.745
L275.587 192.701
L280.175 202.623
L283.234 209.146
L284.763 212.134
L286.293 214.81
L287.822 217.069
L289.352 218.8
L290.881 219.889
L292.411 220.216
L293.94 219.665
L295.47 218.119
L296.999 215.468
L298.529 211.608
L300.058 206.451
L301.588 199.923
L303.117 191.972
L304.647 182.574
L306.176 171.738
L307.705 159.515
L309.235 146.001
L312.294 115.79
L318.412 51.7537
L319.941 38.0427
L321.471 26.7906
L323 19.0329
L324.53 15.9861
L326.059 19.0677
L327.589 29.9179
L329.118 50.4232
L330.647 82.7419
L332.177 129.331
L333.706 192.974
L333.706 192.974" style="fill:none;stroke:#7a68a6;stroke-linecap:square;stroke-width:2.0;"/>
   </g>
   <g id="patch_3">
    <path d="
M29.3427 12.1988
L333.706 12.1988" style="fill:none;stroke:#000000;stroke-linecap:square;stroke-linejoin:miter;"/>
   </g>
   <g id="patch_4">
    <path d="
M333.706 242.599
L333.706 12.1988" style="fill:none;stroke:#000000;stroke-linecap:square;stroke-linejoin:miter;"/>
   </g>
   <g id="patch_5">
    <path d="
M29.3427 242.599
L333.706 242.599" style="fill:none;stroke:#000000;stroke-linecap:square;stroke-linejoin:miter;"/>
   </g>
   <g id="patch_6">
    <path d="
M29.3427 242.599
L29.3427 12.1988" style="fill:none;stroke:#000000;stroke-linecap:square;stroke-linejoin:miter;"/>
   </g>
   <g id="matplotlib.axis_1">
    <g id="xtick_1">
     <g id="line2d_4">
      <defs>
       <path d="
M0 0
L0 -4" id="m93b0483c22" style="stroke:#000000;stroke-width:0.5;"/>
      </defs>
      <g>
       <use style="stroke:#000000;stroke-width:0.5;" x="29.34274" xlink:href="#m93b0483c22" y="242.598780938"/>
      </g>
     </g>
     <g id="line2d_5">
      <defs>
       <path d="
M0 0
L0 4" id="m741efc42ff" style="stroke:#000000;stroke-width:0.5;"/>
      </defs>
      <g>
       <use style="stroke:#000000;stroke-width:0.5;" x="29.34274" xlink:href="#m741efc42ff" y="12.1987809375"/>
      </g>
     </g>
     <g id="text_1">
      <!-- −1.0 -->
      <defs>
       <path d="
M34.7188 0
L26.125 0
L26.125 44.5781
Q26.125 46.6875 26.1406 49.0781
Q26.1719 51.4688 26.2344 53.8281
Q26.3125 56.2031 26.3906 58.375
Q26.4688 60.5469 26.5156 62.2031
Q25.6875 61.3281 25.0469 60.6875
Q24.4219 60.0625 23.75 59.4688
Q23.0938 58.8906 22.3594 58.2188
Q21.625 57.5625 20.6094 56.6875
L13.375 50.7812
L8.6875 56.7812
L27.3906 71.3906
L34.7188 71.3906
z
" id="WenQuanYiMicroHei-31"/>
       <path d="
M50.3906 35.7969
Q50.3906 27.1562 49.1406 20.3125
Q47.9062 13.4844 45.1406 8.73438
Q42.3906 4 38.0312 1.5
Q33.6875 -0.984375 27.4844 -0.984375
Q21.7344 -0.984375 17.4531 1.5
Q13.1875 4 10.375 8.73438
Q7.5625 13.4844 6.17188 20.3125
Q4.78125 27.1562 4.78125 35.7969
Q4.78125 44.4375 6.03125 51.2656
Q7.28125 58.1094 9.98438 62.8125
Q12.7031 67.5312 17.0156 70.0156
Q21.3438 72.5156 27.4844 72.5156
Q33.2969 72.5156 37.5938 70.0469
Q41.8906 67.5781 44.7188 62.8594
Q47.5625 58.1562 48.9688 51.3125
Q50.3906 44.4844 50.3906 35.7969
M13.8125 35.7969
Q13.8125 28.4688 14.5469 23
Q15.2812 17.5312 16.8906 13.8906
Q18.5 10.25 21.1094 8.42188
Q23.7344 6.59375 27.4844 6.59375
Q31.25 6.59375 33.8906 8.39062
Q36.5312 10.2031 38.2031 13.8125
Q39.8906 17.4375 40.6406 22.9219
Q41.4062 28.4219 41.4062 35.7969
Q41.4062 43.1094 40.6406 48.5781
Q39.8906 54.0469 38.2031 57.6562
Q36.5312 61.2812 33.8906 63.0781
Q31.25 64.8906 27.4844 64.8906
Q23.7344 64.8906 21.1094 63.0781
Q18.5 61.2812 16.8906 57.6562
Q15.2812 54.0469 14.5469 48.5781
Q13.8125 43.1094 13.8125 35.7969" id="WenQuanYiMicroHei-30"/>
       <path d="
M4.98438 31.5938
L4.98438 38.9219
L50.0938 38.9219
L50.0938 31.5938
z
" id="WenQuanYiMicroHei-2212"/>
       <path d="
M7.17188 5.42188
Q7.17188 7.28125 7.65625 8.5625
Q8.15625 9.85938 8.98438 10.6562
Q9.8125 11.4688 10.9375 11.8281
Q12.0625 12.2031 13.375 12.2031
Q14.6562 12.2031 15.7969 11.8281
Q16.9375 11.4688 17.7656 10.6562
Q18.6094 9.85938 19.0938 8.5625
Q19.5781 7.28125 19.5781 5.42188
Q19.5781 3.60938 19.0938 2.3125
Q18.6094 1.03125 17.7656 0.1875
Q16.9375 -0.640625 15.7969 -1.03125
Q14.6562 -1.42188 13.375 -1.42188
Q12.0625 -1.42188 10.9375 -1.03125
Q9.8125 -0.640625 8.98438 0.1875
Q8.15625 1.03125 7.65625 2.3125
Q7.17188 3.60938 7.17188 5.42188" id="WenQuanYiMicroHei-2e"/>
      </defs>
      <g transform="translate(20.2276375 254.194179063)scale(0.09996 -0.09996)">
       <use xlink:href="#WenQuanYiMicroHei-2212"/>
       <use x="55.078125" xlink:href="#WenQuanYiMicroHei-31"/>
       <use x="110.15625" xlink:href="#WenQuanYiMicroHei-2e"/>
       <use x="136.962890625" xlink:href="#WenQuanYiMicroHei-30"/>
      </g>
     </g>
    </g>
    <g id="xtick_2">
     <g id="line2d_6">
      <g>
       <use style="stroke:#000000;stroke-width:0.5;" x="105.433649091" xlink:href="#m93b0483c22" y="242.598780938"/>
      </g>
     </g>
     <g id="line2d_7">
      <g>
       <use style="stroke:#000000;stroke-width:0.5;" x="105.433649091" xlink:href="#m741efc42ff" y="12.1987809375"/>
      </g>
     </g>
     <g id="text_2">
      <!-- −0.5 -->
      <defs>
       <path d="
M26.6094 43.7969
Q31.4531 43.7969 35.625 42.4531
Q39.7969 41.1094 42.8906 38.4688
Q46 35.8438 47.75 31.9375
Q49.5156 28.0312 49.5156 22.9062
Q49.5156 17.3281 47.8438 12.8906
Q46.1875 8.45312 42.9219 5.375
Q39.6562 2.29688 34.8438 0.65625
Q30.0312 -0.984375 23.7812 -0.984375
Q21.2969 -0.984375 18.875 -0.734375
Q16.4531 -0.484375 14.2344 -0.015625
Q12.0156 0.4375 10.0156 1.17188
Q8.01562 1.90625 6.39062 2.875
L6.39062 11.2812
Q8.01562 10.1562 10.1875 9.28125
Q12.3594 8.40625 14.75 7.8125
Q17.1406 7.23438 19.5469 6.90625
Q21.9688 6.59375 24.0312 6.59375
Q27.875 6.59375 30.9062 7.5
Q33.9375 8.40625 36.0312 10.2969
Q38.1406 12.2031 39.25 15.0781
Q40.375 17.9688 40.375 21.9219
Q40.375 28.9062 36.0781 32.5938
Q31.7812 36.2812 23.5781 36.2812
Q22.2656 36.2812 20.7188 36.1562
Q19.1875 36.0312 17.6406 35.8281
Q16.1094 35.6406 14.7188 35.4219
Q13.3281 35.2031 12.3125 35.0156
L7.90625 37.7969
L10.5938 71.3906
L44.2812 71.3906
L44.2812 63.2812
L18.3125 63.2812
L16.4062 42.8281
Q17.9688 43.1094 20.5312 43.4531
Q23.0938 43.7969 26.6094 43.7969" id="WenQuanYiMicroHei-35"/>
      </defs>
      <g transform="translate(96.3622790909 254.194179063)scale(0.09996 -0.09996)">
       <use xlink:href="#WenQuanYiMicroHei-2212"/>
       <use x="55.078125" xlink:href="#WenQuanYiMicroHei-30"/>
       <use x="110.15625" xlink:href="#WenQuanYiMicroHei-2e"/>
       <use x="136.962890625" xlink:href="#WenQuanYiMicroHei-35"/>
      </g>
     </g>
    </g>
    <g id="xtick_3">
     <g id="line2d_8">
      <g>
       <use style="stroke:#000000;stroke-width:0.5;" x="181.524558182" xlink:href="#m93b0483c22" y="242.598780938"/>
      </g>
     </g>
     <g id="line2d_9">
      <g>
       <use style="stroke:#000000;stroke-width:0.5;" x="181.524558182" xlink:href="#m741efc42ff" y="12.1987809375"/>
      </g>
     </g>
     <g id="text_3">
      <!-- 0.0 -->
      <g transform="translate(175.152108182 254.194179063)scale(0.09996 -0.09996)">
       <use xlink:href="#WenQuanYiMicroHei-30"/>
       <use x="55.078125" xlink:href="#WenQuanYiMicroHei-2e"/>
       <use x="81.884765625" xlink:href="#WenQuanYiMicroHei-30"/>
      </g>
     </g>
    </g>
    <g id="xtick_4">
     <g id="line2d_10">
      <g>
       <use style="stroke:#000000;stroke-width:0.5;" x="257.615467273" xlink:href="#m93b0483c22" y="242.598780938"/>
      </g>
     </g>
     <g id="line2d_11">
      <g>
       <use style="stroke:#000000;stroke-width:0.5;" x="257.615467273" xlink:href="#m741efc42ff" y="12.1987809375"/>
      </g>
     </g>
     <g id="text_4">
      <!-- 0.5 -->
      <g transform="translate(251.286749773 254.194179063)scale(0.09996 -0.09996)">
       <use xlink:href="#WenQuanYiMicroHei-30"/>
       <use x="55.078125" xlink:href="#WenQuanYiMicroHei-2e"/>
       <use x="81.884765625" xlink:href="#WenQuanYiMicroHei-35"/>
      </g>
     </g>
    </g>
    <g id="xtick_5">
     <g id="line2d_12">
      <g>
       <use style="stroke:#000000;stroke-width:0.5;" x="333.706376364" xlink:href="#m93b0483c22" y="242.598780938"/>
      </g>
     </g>
     <g id="line2d_13">
      <g>
       <use style="stroke:#000000;stroke-width:0.5;" x="333.706376364" xlink:href="#m741efc42ff" y="12.1987809375"/>
      </g>
     </g>
     <g id="text_5">
      <!-- 1.0 -->
      <g transform="translate(327.529160739 254.194179063)scale(0.09996 -0.09996)">
       <use xlink:href="#WenQuanYiMicroHei-31"/>
       <use x="55.078125" xlink:href="#WenQuanYiMicroHei-2e"/>
       <use x="81.884765625" xlink:href="#WenQuanYiMicroHei-30"/>
      </g>
     </g>
    </g>
   </g>
   <g id="matplotlib.axis_2">
    <g id="ytick_1">
     <g id="line2d_14">
      <defs>
       <path d="
M0 0
L4 0" id="m728421d6d4" style="stroke:#000000;stroke-width:0.5;"/>
      </defs>
      <g>
       <use style="stroke:#000000;stroke-width:0.5;" x="29.34274" xlink:href="#m728421d6d4" y="242.598780938"/>
      </g>
     </g>
     <g id="line2d_15">
      <defs>
       <path d="
M0 0
L-4 0" id="mcb0005524f" style="stroke:#000000;stroke-width:0.5;"/>
      </defs>
      <g>
       <use style="stroke:#000000;stroke-width:0.5;" x="333.706376364" xlink:href="#mcb0005524f" y="242.598780938"/>
      </g>
     </g>
     <g id="text_6">
      <!-- −0.5 -->
      <g transform="translate(7.2 245.195398125)scale(0.09996 -0.09996)">
       <use xlink:href="#WenQuanYiMicroHei-2212"/>
       <use x="55.078125" xlink:href="#WenQuanYiMicroHei-30"/>
       <use x="110.15625" xlink:href="#WenQuanYiMicroHei-2e"/>
       <use x="136.962890625" xlink:href="#WenQuanYiMicroHei-35"/>
      </g>
     </g>
    </g>
    <g id="ytick_2">
     <g id="line2d_16">
      <g>
       <use style="stroke:#000000;stroke-width:0.5;" x="29.34274" xlink:href="#m728421d6d4" y="196.518780938"/>
      </g>
     </g>
     <g id="line2d_17">
      <g>
       <use style="stroke:#000000;stroke-width:0.5;" x="333.706376364" xlink:href="#mcb0005524f" y="196.518780938"/>
      </g>
     </g>
     <g id="text_7">
      <!-- 0.0 -->
      <g transform="translate(12.59784 199.115398125)scale(0.09996 -0.09996)">
       <use xlink:href="#WenQuanYiMicroHei-30"/>
       <use x="55.078125" xlink:href="#WenQuanYiMicroHei-2e"/>
       <use x="81.884765625" xlink:href="#WenQuanYiMicroHei-30"/>
      </g>
     </g>
    </g>
    <g id="ytick_3">
     <g id="line2d_18">
      <g>
       <use style="stroke:#000000;stroke-width:0.5;" x="29.34274" xlink:href="#m728421d6d4" y="150.438780938"/>
      </g>
     </g>
     <g id="line2d_19">
      <g>
       <use style="stroke:#000000;stroke-width:0.5;" x="333.706376364" xlink:href="#mcb0005524f" y="150.438780938"/>
      </g>
     </g>
     <g id="text_8">
      <!-- 0.5 -->
      <g transform="translate(12.685305 153.035398125)scale(0.09996 -0.09996)">
       <use xlink:href="#WenQuanYiMicroHei-30"/>
       <use x="55.078125" xlink:href="#WenQuanYiMicroHei-2e"/>
       <use x="81.884765625" xlink:href="#WenQuanYiMicroHei-35"/>
      </g>
     </g>
    </g>
    <g id="ytick_4">
     <g id="line2d_20">
      <g>
       <use style="stroke:#000000;stroke-width:0.5;" x="29.34274" xlink:href="#m728421d6d4" y="104.358780938"/>
      </g>
     </g>
     <g id="line2d_21">
      <g>
       <use style="stroke:#000000;stroke-width:0.5;" x="333.706376364" xlink:href="#mcb0005524f" y="104.358780938"/>
      </g>
     </g>
     <g id="text_9">
      <!-- 1.0 -->
      <g transform="translate(12.98830875 106.955398125)scale(0.09996 -0.09996)">
       <use xlink:href="#WenQuanYiMicroHei-31"/>
       <use x="55.078125" xlink:href="#WenQuanYiMicroHei-2e"/>
       <use x="81.884765625" xlink:href="#WenQuanYiMicroHei-30"/>
      </g>
     </g>
    </g>
    <g id="ytick_5">
     <g id="line2d_22">
      <g>
       <use style="stroke:#000000;stroke-width:0.5;" x="29.34274" xlink:href="#m728421d6d4" y="58.2787809375"/>
      </g>
     </g>
     <g id="line2d_23">
      <g>
       <use style="stroke:#000000;stroke-width:0.5;" x="333.706376364" xlink:href="#mcb0005524f" y="58.2787809375"/>
      </g>
     </g>
     <g id="text_10">
      <!-- 1.5 -->
      <g transform="translate(13.07577375 60.875398125)scale(0.09996 -0.09996)">
       <use xlink:href="#WenQuanYiMicroHei-31"/>
       <use x="55.078125" xlink:href="#WenQuanYiMicroHei-2e"/>
       <use x="81.884765625" xlink:href="#WenQuanYiMicroHei-35"/>
      </g>
     </g>
    </g>
    <g id="ytick_6">
     <g id="line2d_24">
      <g>
       <use style="stroke:#000000;stroke-width:0.5;" x="29.34274" xlink:href="#m728421d6d4" y="12.1987809375"/>
      </g>
     </g>
     <g id="line2d_25">
      <g>
       <use style="stroke:#000000;stroke-width:0.5;" x="333.706376364" xlink:href="#mcb0005524f" y="12.1987809375"/>
      </g>
     </g>
     <g id="text_11">
      <!-- 2.0 -->
      <defs>
       <path d="
M49.2188 0
L4.6875 0
L4.6875 7.625
L21.7812 26.2188
Q25.4375 30.1719 28.3125 33.4375
Q31.2031 36.7188 33.2188 39.8438
Q35.25 42.9688 36.3281 46.1094
Q37.4062 49.2656 37.4062 52.9844
Q37.4062 55.8594 36.5781 58.0469
Q35.75 60.25 34.2031 61.7812
Q32.6719 63.3281 30.5625 64.1094
Q28.4688 64.8906 25.875 64.8906
Q21.2344 64.8906 17.5 63.0156
Q13.7656 61.1406 10.4062 58.2031
L5.42188 64.0156
Q7.375 65.7656 9.60938 67.2969
Q11.8594 68.8438 14.4531 69.9688
Q17.0469 71.0938 19.9219 71.75
Q22.7969 72.4062 25.9844 72.4062
Q30.6719 72.4062 34.4531 71.0938
Q38.2344 69.7812 40.8594 67.3125
Q43.5 64.8438 44.9375 61.2969
Q46.3906 57.7656 46.3906 53.3281
Q46.3906 49.1719 45.0938 45.4062
Q43.7969 41.6562 41.5312 38.0156
Q39.2656 34.375 36.1094 30.7031
Q32.9531 27.0469 29.2969 23.0938
L15.5781 8.5
L15.5781 8.10938
L49.2188 8.10938
z
" id="WenQuanYiMicroHei-32"/>
      </defs>
      <g transform="translate(12.58846875 14.795398125)scale(0.09996 -0.09996)">
       <use xlink:href="#WenQuanYiMicroHei-32"/>
       <use x="55.078125" xlink:href="#WenQuanYiMicroHei-2e"/>
       <use x="81.884765625" xlink:href="#WenQuanYiMicroHei-30"/>
      </g>
     </g>
    </g>
   </g>
   <g id="legend_1">
    <g id="patch_7">
     <path d="
M139.03 65.2791
L224.019 65.2791
L224.019 17.1968
L139.03 17.1968
z
" style="fill:#ffffff;stroke:#000000;stroke-linejoin:miter;"/>
    </g>
    <g id="line2d_26">
     <path d="
M146.027 25.292
L160.021 25.292" style="fill:none;stroke:#348abd;stroke-dasharray:6.000000,6.000000;stroke-dashoffset:0.0;stroke-width:2.0;"/>
    </g>
    <g id="line2d_27"/>
    <g id="text_12">
     <!-- $f(x)$ -->
     <defs>
      <path d="
M31 -24.8125
Q25.4375 -20.4062 21.4062 -14.7188
Q17.3906 -9.03125 14.8125 -2.57812
Q12.25 3.85938 10.9844 10.8906
Q9.71875 17.9219 9.71875 25
Q9.71875 32.1719 10.9844 39.2031
Q12.25 46.2344 14.8594 52.7344
Q17.4844 59.2344 21.5312 64.8906
Q25.5938 70.5625 31 74.8125
Q31 75 31.5 75
L32.4219 75
Q32.7188 75 32.9531 74.7344
Q33.2031 74.4688 33.2031 74.125
Q33.2031 73.6875 33.0156 73.4844
Q28.125 68.7031 24.875 63.2344
Q21.625 57.7656 19.6406 51.5781
Q17.6719 45.4062 16.7969 38.7812
Q15.9219 32.1719 15.9219 25
Q15.9219 -6.78125 32.9062 -23.2969
Q33.2031 -23.5781 33.2031 -24.125
Q33.2031 -24.3594 32.9375 -24.6719
Q32.6719 -25 32.4219 -25
L31.5 -25
Q31 -25 31 -24.8125" id="Cmr10-28"/>
      <path d="
M6.5 -25
Q5.60938 -25 5.60938 -24.125
Q5.60938 -23.6875 5.8125 -23.4844
Q22.9062 -6.78125 22.9062 25
Q22.9062 56.7812 6 73.2969
Q5.60938 73.5312 5.60938 74.125
Q5.60938 74.4688 5.875 74.7344
Q6.15625 75 6.5 75
L7.42188 75
Q7.71875 75 7.90625 74.8125
Q15.0938 69.1406 19.875 61.0312
Q24.6562 52.9375 26.875 43.75
Q29.1094 34.5781 29.1094 25
Q29.1094 17.9219 27.9062 11.0625
Q26.7031 4.20312 24.0938 -2.45312
Q21.4844 -9.125 17.4844 -14.7656
Q13.4844 -20.4062 7.90625 -24.8125
Q7.71875 -25 7.42188 -25
z
" id="Cmr10-29"/>
      <path d="
M7.8125 2.875
Q9.57812 1.51562 12.7969 1.51562
Q15.9219 1.51562 18.3125 4.51562
Q20.7031 7.51562 21.5781 11.0781
L26.125 28.8125
Q27.2031 33.6406 27.2031 35.4062
Q27.2031 37.8906 25.8125 39.75
Q24.4219 41.6094 21.9219 41.6094
Q18.75 41.6094 15.9688 39.625
Q13.1875 37.6406 11.2812 34.5938
Q9.375 31.5469 8.59375 28.4219
Q8.40625 27.7812 7.8125 27.7812
L6.59375 27.7812
Q5.8125 27.7812 5.8125 28.7188
L5.8125 29
Q6.78125 32.7188 9.125 36.25
Q11.4688 39.7969 14.8594 41.9844
Q18.2656 44.1875 22.125 44.1875
Q25.7812 44.1875 28.7344 42.2344
Q31.6875 40.2812 32.9062 36.9219
Q34.625 39.9844 37.2812 42.0781
Q39.9375 44.1875 43.1094 44.1875
Q45.2656 44.1875 47.5 43.4219
Q49.75 42.6719 51.1719 41.1094
Q52.5938 39.5469 52.5938 37.2031
Q52.5938 34.6719 50.9531 32.8281
Q49.3125 31 46.7812 31
Q45.1719 31 44.0938 32.0312
Q43.0156 33.0625 43.0156 34.625
Q43.0156 36.7188 44.4531 38.2969
Q45.9062 39.8906 47.9062 40.1875
Q46.0938 41.6094 42.9219 41.6094
Q39.7031 41.6094 37.3281 38.625
Q34.9688 35.6406 33.9844 31.9844
L29.5938 14.3125
Q28.5156 10.2969 28.5156 7.71875
Q28.5156 5.17188 29.9531 3.34375
Q31.3906 1.51562 33.7969 1.51562
Q38.4844 1.51562 42.1562 5.64062
Q45.8438 9.76562 47.0156 14.7031
Q47.2188 15.2812 47.7969 15.2812
L49.0312 15.2812
Q49.4219 15.2812 49.6562 15.0156
Q49.9062 14.75 49.9062 14.4062
Q49.9062 14.3125 49.8125 14.1094
Q48.3906 8.15625 43.8438 3.51562
Q39.3125 -1.125 33.5938 -1.125
Q29.9375 -1.125 26.9844 0.84375
Q24.0312 2.82812 22.7969 6.20312
Q21.2344 3.26562 18.4688 1.0625
Q15.7188 -1.125 12.5938 -1.125
Q10.4531 -1.125 8.17188 -0.359375
Q5.90625 0.390625 4.48438 1.95312
Q3.07812 3.51562 3.07812 5.90625
Q3.07812 8.25 4.70312 10.1719
Q6.34375 12.1094 8.79688 12.1094
Q10.4531 12.1094 11.5781 11.1094
Q12.7031 10.1094 12.7031 8.5
Q12.7031 6.39062 11.2969 4.82812
Q9.90625 3.26562 7.8125 2.875" id="Cmmi10-78"/>
      <path d="
M9.71875 -16.5
Q11.5781 -17.9219 14.2031 -17.9219
Q17.7812 -17.9219 20.0156 -10.0156
Q20.9531 -6.20312 25.0938 15.0938
L29.6875 39.5938
L21.0938 39.5938
Q20.125 39.5938 20.125 40.9219
Q20.5156 43.1094 21.3906 43.1094
L30.3281 43.1094
L31.5 49.6094
Q32.0781 52.6406 32.5625 54.8125
Q33.0625 56.9844 33.625 58.8281
Q34.1875 60.6875 35.2969 62.9844
Q37.0156 66.2656 39.9219 68.3906
Q42.8281 70.5156 46.1875 70.5156
Q48.3906 70.5156 50.4688 69.7031
Q52.5469 68.8906 53.8594 67.2812
Q55.1719 65.6719 55.1719 63.4844
Q55.1719 60.9375 53.4844 59.0469
Q51.8125 57.1719 49.4219 57.1719
Q47.7969 57.1719 46.6562 58.1719
Q45.5156 59.1875 45.5156 60.7969
Q45.5156 62.9844 47 64.625
Q48.4844 66.2656 50.6875 66.5
Q48.8281 67.9219 46.0938 67.9219
Q44.5781 67.9219 43.2344 66.5
Q41.8906 65.0938 41.5 63.4844
Q40.875 60.9375 38.7188 49.7031
L37.5 43.1094
L47.7969 43.1094
Q48.7812 43.1094 48.7812 41.7969
Q48.7344 41.5469 48.5781 40.9375
Q48.4375 40.3281 48.1719 39.9531
Q47.9062 39.5938 47.5156 39.5938
L36.8125 39.5938
L32.1719 15.1875
Q31.2969 9.85938 30.1406 4.35938
Q29 -1.125 26.9219 -6.90625
Q24.8594 -12.7031 21.625 -16.6094
Q18.4062 -20.5156 14.0156 -20.5156
Q10.6406 -20.5156 7.98438 -18.5781
Q5.32812 -16.6562 5.32812 -13.4844
Q5.32812 -10.9375 6.95312 -9.04688
Q8.59375 -7.17188 11.0781 -7.17188
Q12.75 -7.17188 13.8594 -8.17188
Q14.9844 -9.1875 14.9844 -10.7969
Q14.9844 -12.9375 13.3906 -14.7188
Q11.8125 -16.5 9.71875 -16.5" id="Cmmi10-66"/>
     </defs>
     <g transform="translate(171.017044119 28.7905790625)scale(0.09996 -0.09996)">
      <use xlink:href="#Cmmi10-66"/>
      <use transform="translate(48.876953125 0.0)" xlink:href="#Cmr10-28"/>
      <use transform="translate(87.6953125 0.0)" xlink:href="#Cmmi10-78"/>
      <use transform="translate(144.775390625 0.0)" xlink:href="#Cmr10-29"/>
     </g>
    </g>
    <g id="line2d_28"/>
    <g id="line2d_29">
     <g>
      <use style="fill:#a60628;stroke:#000000;stroke-width:0.5;" x="146.027044119" xlink:href="#m21c3f7e587" y="40.3843771875"/>
      <use style="fill:#a60628;stroke:#000000;stroke-width:0.5;" x="160.021444119" xlink:href="#m21c3f7e587" y="40.3843771875"/>
     </g>
    </g>
    <g id="text_13">
     <!-- 插值点 -->
     <defs>
      <path d="
M87.5 80.4688
L91.4062 73.8281
Q80.8594 71.4844 68.3594 69.9219
L68.3594 59.375
L94.9219 59.375
L94.9219 52.3438
L68.3594 52.3438
L68.3594 1.5625
L84.7656 1.5625
L84.7656 17.9688
L72.6562 17.9688
L72.6562 24.2188
L84.7656 24.2188
L84.7656 35.5469
L72.6562 35.5469
L72.6562 42.5781
L92.1875 42.5781
L92.1875 -9.375
L84.7656 -9.375
L84.7656 -5.46875
L44.9219 -5.46875
L44.9219 -8.98438
L37.5 -8.98438
L37.5 39.4531
Q47.2656 42.1875 53.9062 46.4844
L59.375 40.625
Q52.7344 36.7188 44.9219 34.375
L44.9219 23.8281
L56.6406 23.8281
L56.6406 17.1875
L44.9219 17.1875
L44.9219 1.5625
L60.9375 1.5625
L60.9375 52.3438
L35.1562 52.3438
L35.1562 59.375
L60.9375 59.375
L60.9375 69.1406
Q51.1719 67.9688 39.8438 67.5781
L37.5 74.6094
Q62.5 74.6094 87.5 80.4688
M5.85938 64.4531
L15.2344 64.4531
L15.2344 80.8594
L22.6562 80.8594
L22.6562 64.4531
L32.0312 64.4531
L32.0312 57.0312
L22.6562 57.0312
L22.6562 37.5
L30.0781 41.7969
L31.6406 34.7656
Q27.3438 31.6406 22.6562 28.9062
L22.6562 1.17188
Q22.6562 -4.6875 21.0938 -6.82812
Q19.5312 -8.98438 15.2344 -8.98438
Q11.3281 -8.98438 7.8125 -8.20312
L5.85938 -0.78125
Q10.1562 -1.5625 14.0625 -1.5625
Q15.2344 -1.5625 15.2344 3.125
L15.2344 25
Q11.3281 22.6562 7.03125 20.7031
L4.29688 28.9062
Q10.1562 31.25 15.2344 33.9844
L15.2344 57.0312
L5.85938 57.0312
z
" id="WenQuanYiMicroHei-63d2"/>
      <path d="
M24.6094 80.8594
L32.4219 78.5156
Q29.2969 69.5312 25.3906 60.5469
L25.3906 -8.98438
L17.5781 -8.98438
L17.5781 45.7031
Q12.8906 38.2812 7.8125 32.0312
L3.90625 39.8438
Q18.3594 59.375 24.6094 80.8594
M35.1562 71.4844
L59.375 71.4844
L59.375 80.4688
L67.1875 80.4688
L67.1875 71.4844
L91.7969 71.4844
L91.7969 64.4531
L67.1875 64.4531
L67.1875 55.4688
L87.1094 55.4688
L87.1094 1.17188
L94.5312 1.17188
L94.5312 -5.46875
L30.0781 -5.46875
L30.0781 1.17188
L41.0156 1.17188
L41.0156 55.4688
L59.375 55.4688
L59.375 64.4531
L35.1562 64.4531
z

M48.8281 41.4062
L79.2969 41.4062
L79.2969 48.8281
L48.8281 48.8281
z

M48.8281 27.7344
L79.2969 27.7344
L79.2969 35.5469
L48.8281 35.5469
z

M48.8281 14.4531
L79.2969 14.4531
L79.2969 21.875
L48.8281 21.875
z

M48.8281 1.17188
L79.2969 1.17188
L79.2969 8.59375
L48.8281 8.59375
z
" id="WenQuanYiMicroHei-503c"/>
      <path d="
M82.8125 16.0156
Q89.8438 6.64062 94.5312 -4.29688
L87.1094 -8.59375
Q83.2031 2.34375 75.7812 11.7188
z

M16.7969 14.8438
L23.8281 10.9375
Q17.9688 -1.5625 12.1094 -8.59375
L5.46875 -2.73438
Q12.5 5.46875 16.7969 14.8438
M60.5469 13.6719
Q66.0156 5.85938 69.9219 -3.51562
L61.7188 -7.03125
Q58.2031 2.73438 53.125 10.5469
z

M38.6719 12.5
Q44.1406 3.51562 46.0938 -5.46875
L37.5 -8.20312
Q35.5469 1.95312 30.4688 10.5469
z

M44.1406 80.8594
L51.9531 80.8594
L51.9531 70.3125
L90.2344 70.3125
L90.2344 62.8906
L51.9531 62.8906
L51.9531 50
L84.375 50
L84.375 18.75
L15.2344 18.75
L15.2344 50
L44.1406 50
z

M23.0469 26.1719
L76.5625 26.1719
L76.5625 42.5781
L23.0469 42.5781
z
" id="WenQuanYiMicroHei-70b9"/>
     </defs>
     <g transform="translate(171.017044119 43.8829771875)scale(0.09996 -0.09996)">
      <use xlink:href="#WenQuanYiMicroHei-63d2"/>
      <use x="100.0" xlink:href="#WenQuanYiMicroHei-503c"/>
      <use x="200.0" xlink:href="#WenQuanYiMicroHei-70b9"/>
     </g>
    </g>
    <g id="line2d_30">
     <path d="
M146.027 55.3799
L160.021 55.3799" style="fill:none;stroke:#7a68a6;stroke-linecap:square;stroke-width:2.0;"/>
    </g>
    <g id="line2d_31"/>
    <g id="text_14">
     <!-- 插值多项式 -->
     <defs>
      <path d="
M7.03125 64.0625
L55.8594 64.0625
Q55.0781 72.2656 55.0781 80.8594
L63.6719 80.8594
Q63.6719 71.875 64.0625 64.0625
L93.3594 64.0625
L93.3594 56.6406
L64.4531 56.6406
Q66.4062 30.8594 73.8281 12.5
Q78.9062 0.390625 82.0312 0.390625
Q85.5469 0.390625 87.5 18.75
L94.5312 16.0156
Q92.5781 0.78125 89.6406 -4.09375
Q86.7188 -8.98438 82.0312 -8.98438
Q75.3906 -8.98438 68.75 4.6875
Q58.9844 25.3906 56.25 56.6406
L7.03125 56.6406
z

M76.1719 80.8594
Q82.8125 77.3438 87.8906 72.2656
L82.8125 66.0156
Q77.3438 71.875 71.0938 75.7812
z

M10.1562 40.625
L51.5625 40.625
L51.5625 33.2031
L33.9844 33.2031
L33.9844 8.20312
Q44.9219 9.76562 53.9062 11.7188
L55.0781 4.29688
Q34.375 -0.78125 8.59375 -3.90625
L7.03125 4.29688
Q17.1875 5.46875 26.1719 7.03125
L26.1719 33.2031
L10.1562 33.2031
z
" id="WenQuanYiMicroHei-5f0f"/>
      <path d="
M50.3906 81.6406
L58.2031 80.0781
Q55.0781 76.1719 51.1719 73.0469
L83.5938 73.0469
L83.5938 66.0156
Q68.3594 42.1875 13.6719 34.375
L10.5469 42.1875
Q60.9375 47.2656 74.6094 66.0156
L41.4062 66.0156
L35.9375 62.8906
Q40.2344 59.7656 44.5312 56.25
L39.0625 50.7812
Q34.375 55.0781 28.5156 59.375
Q23.4375 57.0312 18.3594 55.4688
L13.2812 60.9375
Q31.25 67.1875 38.6719 72.6562
L39.0625 73.0469
L39.4531 73.0469
Q46.0938 77.3438 50.3906 81.6406
M55.0781 42.1875
L62.1094 38.6719
Q59.7656 36.7188 57.0312 34.7656
L87.1094 34.7656
L87.1094 27.7344
Q69.9219 -0.390625 9.375 -9.375
L6.25 -1.5625
Q63.2812 5.07812 78.125 27.7344
L47.6562 27.7344
Q41.0156 23.0469 37.1094 21.4844
Q42.1875 17.9688 46.875 14.0625
L41.0156 8.20312
Q35.9375 12.8906 29.6875 17.5781
Q24.2188 14.8438 18.75 12.8906
L14.0625 19.5312
Q37.1094 27.3438 55.0781 42.1875" id="WenQuanYiMicroHei-591a"/>
      <path d="
M89.8438 62.8906
L89.8438 12.1094
L82.0312 12.1094
L82.0312 55.8594
L50 55.8594
L50 11.7188
L42.5781 11.7188
L42.5781 62.8906
L59.7656 62.8906
Q60.5469 66.7969 60.9375 70.7031
L38.6719 70.7031
L38.6719 77.7344
L92.9688 77.7344
L92.9688 70.7031
L68.75 70.7031
Q68.3594 66.7969 67.5781 62.8906
z

M62.5 47.6562
L69.9219 47.6562
Q69.9219 30.0781 69.5312 29.2969
Q69.5312 15.2344 62.1094 6.04688
Q54.6875 -3.125 38.2812 -8.98438
L33.2031 -2.34375
Q45.3125 1.5625 51.75 7.03125
Q58.2031 12.5 60.3438 18.75
Q62.5 25 62.5 47.6562
M73.0469 12.8906
Q83.9844 6.25 94.9219 -2.73438
L89.0625 -8.98438
Q79.6875 0 67.1875 8.59375
z

M5.85938 72.2656
L34.375 72.2656
L34.375 64.8438
L24.2188 64.8438
L24.2188 15.625
L34.7656 19.9219
L35.9375 12.8906
Q22.6562 7.03125 6.64062 3.125
L5.07812 10.5469
Q10.9375 12.1094 16.4062 13.2812
L16.4062 64.8438
L5.85938 64.8438
z
" id="WenQuanYiMicroHei-9879"/>
     </defs>
     <g transform="translate(171.017044119 58.8785390625)scale(0.09996 -0.09996)">
      <use xlink:href="#WenQuanYiMicroHei-63d2"/>
      <use x="100.0" xlink:href="#WenQuanYiMicroHei-503c"/>
      <use x="200.0" xlink:href="#WenQuanYiMicroHei-591a"/>
      <use x="300.0" xlink:href="#WenQuanYiMicroHei-9879"/>
      <use x="400.0" xlink:href="#WenQuanYiMicroHei-5f0f"/>
     </g>
    </g>
   </g>
  </g>
  <g id="axes_2">
   <g id="patch_8">
    <path d="
M394.579 242.599
L698.943 242.599
L698.943 12.1988
L394.579 12.1988
z
" style="fill:#ffffff;"/>
   </g>
   <g id="line2d_32">
    <path clip-path="url(#p858c7692c7)" d="
M394.579 196.814
L405.285 195.706
L414.462 194.548
L422.109 193.396
L429.757 192.03
L435.875 190.747
L441.993 189.256
L448.11 187.511
L452.699 186.001
L457.287 184.286
L461.876 182.326
L466.464 180.078
L471.052 177.485
L474.111 175.531
L477.17 173.369
L480.229 170.971
L483.288 168.304
L486.347 165.332
L489.406 162.011
L492.465 158.292
L495.524 154.119
L498.583 149.43
L501.642 144.153
L504.701 138.212
L507.76 131.527
L510.818 124.016
L513.877 115.608
L516.936 106.25
L519.995 95.9285
L523.054 84.6974
L527.643 66.521
L533.76 41.8233
L536.819 30.7083
L538.349 25.8243
L539.878 21.5391
L541.408 17.9598
L542.937 15.1819
L544.467 13.2835
L545.996 12.3199
L547.526 12.3199
L549.055 13.2835
L550.585 15.1819
L552.114 17.9598
L553.644 21.5391
L555.173 25.8243
L556.702 30.7083
L559.761 41.8233
L564.35 60.266
L568.938 78.7841
L571.997 90.4198
L575.056 101.208
L578.115 111.05
L581.174 119.928
L584.233 127.879
L587.292 134.968
L590.351 141.27
L593.41 146.869
L596.469 151.843
L599.527 156.266
L602.586 160.204
L605.645 163.718
L608.704 166.859
L611.763 169.673
L614.822 172.201
L617.881 174.478
L620.94 176.533
L623.999 178.392
L628.587 180.863
L633.176 183.009
L637.764 184.882
L642.353 186.526
L646.941 187.974
L653.059 189.65
L659.177 191.086
L666.824 192.605
L674.471 193.88
L683.648 195.154
L692.825 196.209
L698.943 196.814
L698.943 196.814" style="fill:none;stroke:#348abd;stroke-dasharray:6.000000,6.000000;stroke-dashoffset:0.0;stroke-width:2.0;"/>
   </g>
   <g id="line2d_33">
    <g clip-path="url(#p858c7692c7)">
     <use style="fill:#a60628;stroke:#000000;stroke-width:0.5;" x="396.128095117" xlink:href="#m21c3f7e587" y="196.66749733"/>
     <use style="fill:#a60628;stroke:#000000;stroke-width:0.5;" x="408.331470889" xlink:href="#m21c3f7e587" y="195.345044324"/>
     <use style="fill:#a60628;stroke:#000000;stroke-width:0.5;" x="431.749577503" xlink:href="#m21c3f7e587" y="191.632460445"/>
     <use style="fill:#a60628;stroke:#000000;stroke-width:0.5;" x="464.485219234" xlink:href="#m21c3f7e587" y="181.086612742"/>
     <use style="fill:#a60628;stroke:#000000;stroke-width:0.5;" x="503.886349077" xlink:href="#m21c3f7e587" y="139.86275041"/>
     <use style="fill:#a60628;stroke:#000000;stroke-width:0.5;" x="546.760921818" xlink:href="#m21c3f7e587" y="12.1987809375"/>
     <use style="fill:#a60628;stroke:#000000;stroke-width:0.5;" x="589.635494559" xlink:href="#m21c3f7e587" y="139.86275041"/>
     <use style="fill:#a60628;stroke:#000000;stroke-width:0.5;" x="629.036624402" xlink:href="#m21c3f7e587" y="181.086612742"/>
     <use style="fill:#a60628;stroke:#000000;stroke-width:0.5;" x="661.772266134" xlink:href="#m21c3f7e587" y="191.632460445"/>
     <use style="fill:#a60628;stroke:#000000;stroke-width:0.5;" x="685.190372748" xlink:href="#m21c3f7e587" y="195.345044324"/>
     <use style="fill:#a60628;stroke:#000000;stroke-width:0.5;" x="697.393748519" xlink:href="#m21c3f7e587" y="196.66749733"/>
    </g>
   </g>
   <g id="line2d_34">
    <path clip-path="url(#p858c7692c7)" d="
M394.579 205.222
L396.109 196.754
L397.638 191.415
L399.168 188.519
L400.697 187.479
L402.226 187.797
L403.756 189.058
L405.285 190.918
L411.403 199.517
L412.933 201.171
L414.462 202.447
L415.992 203.306
L417.521 203.733
L419.051 203.73
L420.58 203.316
L422.109 202.522
L423.639 201.384
L425.168 199.951
L426.698 198.27
L429.757 194.381
L437.404 183.97
L440.463 180.456
L441.993 178.97
L443.522 177.695
L445.051 176.645
L446.581 175.829
L448.11 175.252
L449.64 174.912
L451.169 174.804
L452.699 174.918
L454.228 175.239
L455.758 175.749
L457.287 176.428
L460.346 178.19
L463.405 180.303
L467.993 183.583
L471.052 185.464
L472.582 186.217
L474.111 186.803
L475.641 187.193
L477.17 187.362
L478.7 187.283
L480.229 186.933
L481.759 186.293
L483.288 185.345
L484.818 184.074
L486.347 182.468
L487.876 180.518
L489.406 178.218
L490.935 175.566
L492.465 172.562
L493.994 169.21
L495.524 165.517
L497.053 161.493
L500.112 152.503
L503.171 142.376
L506.23 131.289
L509.289 119.451
L515.407 94.5066
L521.525 69.6707
L524.584 57.9913
L527.643 47.1661
L530.702 37.4472
L532.231 33.0748
L533.76 29.0622
L535.29 25.433
L536.819 22.2088
L538.349 19.4087
L539.878 17.0494
L541.408 15.1448
L542.937 13.7064
L544.467 12.7426
L545.996 12.2593
L547.526 12.2593
L549.055 12.7426
L550.585 13.7064
L552.114 15.1448
L553.644 17.0494
L555.173 19.4087
L556.702 22.2088
L558.232 25.433
L559.761 29.0622
L561.291 33.0748
L564.35 42.1535
L567.409 52.4557
L570.468 63.7407
L575.056 81.9354
L585.762 125.449
L588.821 136.94
L591.88 147.572
L594.939 157.149
L597.998 165.517
L599.527 169.21
L601.057 172.562
L602.586 175.566
L604.116 178.218
L605.645 180.518
L607.175 182.468
L608.704 184.074
L610.234 185.345
L611.763 186.293
L613.293 186.933
L614.822 187.283
L616.352 187.362
L617.881 187.193
L619.411 186.803
L620.94 186.217
L622.469 185.464
L625.528 183.583
L634.705 177.251
L636.235 176.428
L637.764 175.749
L639.294 175.239
L640.823 174.918
L642.353 174.804
L643.882 174.912
L645.411 175.252
L646.941 175.829
L648.47 176.645
L650 177.695
L651.529 178.97
L653.059 180.456
L656.118 183.97
L659.177 188.013
L665.294 196.396
L666.824 198.27
L668.353 199.951
L669.883 201.384
L671.412 202.522
L672.942 203.316
L674.471 203.73
L676.001 203.733
L677.53 203.306
L679.06 202.447
L680.589 201.171
L682.119 199.517
L683.648 197.549
L688.236 190.918
L689.766 189.058
L691.295 187.797
L692.825 187.479
L694.354 188.519
L695.884 191.415
L697.413 196.754
L698.943 205.222
L698.943 205.222" style="fill:none;stroke:#7a68a6;stroke-linecap:square;stroke-width:2.0;"/>
   </g>
   <g id="patch_9">
    <path d="
M394.579 12.1988
L698.943 12.1988" style="fill:none;stroke:#000000;stroke-linecap:square;stroke-linejoin:miter;"/>
   </g>
   <g id="patch_10">
    <path d="
M698.943 242.599
L698.943 12.1988" style="fill:none;stroke:#000000;stroke-linecap:square;stroke-linejoin:miter;"/>
   </g>
   <g id="patch_11">
    <path d="
M394.579 242.599
L698.943 242.599" style="fill:none;stroke:#000000;stroke-linecap:square;stroke-linejoin:miter;"/>
   </g>
   <g id="patch_12">
    <path d="
M394.579 242.599
L394.579 12.1988" style="fill:none;stroke:#000000;stroke-linecap:square;stroke-linejoin:miter;"/>
   </g>
   <g id="matplotlib.axis_3">
    <g id="xtick_6">
     <g id="line2d_35">
      <g>
       <use style="stroke:#000000;stroke-width:0.5;" x="394.579103636" xlink:href="#m93b0483c22" y="242.598780938"/>
      </g>
     </g>
     <g id="line2d_36">
      <g>
       <use style="stroke:#000000;stroke-width:0.5;" x="394.579103636" xlink:href="#m741efc42ff" y="12.1987809375"/>
      </g>
     </g>
     <g id="text_15">
      <!-- −1.0 -->
      <g transform="translate(385.464001136 254.194179063)scale(0.09996 -0.09996)">
       <use xlink:href="#WenQuanYiMicroHei-2212"/>
       <use x="55.078125" xlink:href="#WenQuanYiMicroHei-31"/>
       <use x="110.15625" xlink:href="#WenQuanYiMicroHei-2e"/>
       <use x="136.962890625" xlink:href="#WenQuanYiMicroHei-30"/>
      </g>
     </g>
    </g>
    <g id="xtick_7">
     <g id="line2d_37">
      <g>
       <use style="stroke:#000000;stroke-width:0.5;" x="470.670012727" xlink:href="#m93b0483c22" y="242.598780938"/>
      </g>
     </g>
     <g id="line2d_38">
      <g>
       <use style="stroke:#000000;stroke-width:0.5;" x="470.670012727" xlink:href="#m741efc42ff" y="12.1987809375"/>
      </g>
     </g>
     <g id="text_16">
      <!-- −0.5 -->
      <g transform="translate(461.598642727 254.194179063)scale(0.09996 -0.09996)">
       <use xlink:href="#WenQuanYiMicroHei-2212"/>
       <use x="55.078125" xlink:href="#WenQuanYiMicroHei-30"/>
       <use x="110.15625" xlink:href="#WenQuanYiMicroHei-2e"/>
       <use x="136.962890625" xlink:href="#WenQuanYiMicroHei-35"/>
      </g>
     </g>
    </g>
    <g id="xtick_8">
     <g id="line2d_39">
      <g>
       <use style="stroke:#000000;stroke-width:0.5;" x="546.760921818" xlink:href="#m93b0483c22" y="242.598780938"/>
      </g>
     </g>
     <g id="line2d_40">
      <g>
       <use style="stroke:#000000;stroke-width:0.5;" x="546.760921818" xlink:href="#m741efc42ff" y="12.1987809375"/>
      </g>
     </g>
     <g id="text_17">
      <!-- 0.0 -->
      <g transform="translate(540.388471818 254.194179063)scale(0.09996 -0.09996)">
       <use xlink:href="#WenQuanYiMicroHei-30"/>
       <use x="55.078125" xlink:href="#WenQuanYiMicroHei-2e"/>
       <use x="81.884765625" xlink:href="#WenQuanYiMicroHei-30"/>
      </g>
     </g>
    </g>
    <g id="xtick_9">
     <g id="line2d_41">
      <g>
       <use style="stroke:#000000;stroke-width:0.5;" x="622.851830909" xlink:href="#m93b0483c22" y="242.598780938"/>
      </g>
     </g>
     <g id="line2d_42">
      <g>
       <use style="stroke:#000000;stroke-width:0.5;" x="622.851830909" xlink:href="#m741efc42ff" y="12.1987809375"/>
      </g>
     </g>
     <g id="text_18">
      <!-- 0.5 -->
      <g transform="translate(616.523113409 254.194179063)scale(0.09996 -0.09996)">
       <use xlink:href="#WenQuanYiMicroHei-30"/>
       <use x="55.078125" xlink:href="#WenQuanYiMicroHei-2e"/>
       <use x="81.884765625" xlink:href="#WenQuanYiMicroHei-35"/>
      </g>
     </g>
    </g>
    <g id="xtick_10">
     <g id="line2d_43">
      <g>
       <use style="stroke:#000000;stroke-width:0.5;" x="698.94274" xlink:href="#m93b0483c22" y="242.598780938"/>
      </g>
     </g>
     <g id="line2d_44">
      <g>
       <use style="stroke:#000000;stroke-width:0.5;" x="698.94274" xlink:href="#m741efc42ff" y="12.1987809375"/>
      </g>
     </g>
     <g id="text_19">
      <!-- 1.0 -->
      <g transform="translate(692.765524375 254.194179063)scale(0.09996 -0.09996)">
       <use xlink:href="#WenQuanYiMicroHei-31"/>
       <use x="55.078125" xlink:href="#WenQuanYiMicroHei-2e"/>
       <use x="81.884765625" xlink:href="#WenQuanYiMicroHei-30"/>
      </g>
     </g>
    </g>
   </g>
   <g id="matplotlib.axis_4">
    <g id="ytick_7">
     <g id="line2d_45">
      <g>
       <use style="stroke:#000000;stroke-width:0.5;" x="394.579103636" xlink:href="#m728421d6d4" y="242.598780938"/>
      </g>
     </g>
     <g id="line2d_46">
      <g>
       <use style="stroke:#000000;stroke-width:0.5;" x="698.94274" xlink:href="#mcb0005524f" y="242.598780938"/>
      </g>
     </g>
     <g id="text_20">
      <!-- −0.2 -->
      <g transform="translate(372.466039261 245.195398125)scale(0.09996 -0.09996)">
       <use xlink:href="#WenQuanYiMicroHei-2212"/>
       <use x="55.078125" xlink:href="#WenQuanYiMicroHei-30"/>
       <use x="110.15625" xlink:href="#WenQuanYiMicroHei-2e"/>
       <use x="136.962890625" xlink:href="#WenQuanYiMicroHei-32"/>
      </g>
     </g>
    </g>
    <g id="ytick_8">
     <g id="line2d_47">
      <g>
       <use style="stroke:#000000;stroke-width:0.5;" x="394.579103636" xlink:href="#m728421d6d4" y="204.198780938"/>
      </g>
     </g>
     <g id="line2d_48">
      <g>
       <use style="stroke:#000000;stroke-width:0.5;" x="698.94274" xlink:href="#mcb0005524f" y="204.198780938"/>
      </g>
     </g>
     <g id="text_21">
      <!-- 0.0 -->
      <g transform="translate(377.834203636 206.795398125)scale(0.09996 -0.09996)">
       <use xlink:href="#WenQuanYiMicroHei-30"/>
       <use x="55.078125" xlink:href="#WenQuanYiMicroHei-2e"/>
       <use x="81.884765625" xlink:href="#WenQuanYiMicroHei-30"/>
      </g>
     </g>
    </g>
    <g id="ytick_9">
     <g id="line2d_49">
      <g>
       <use style="stroke:#000000;stroke-width:0.5;" x="394.579103636" xlink:href="#m728421d6d4" y="165.798780938"/>
      </g>
     </g>
     <g id="line2d_50">
      <g>
       <use style="stroke:#000000;stroke-width:0.5;" x="698.94274" xlink:href="#mcb0005524f" y="165.798780938"/>
      </g>
     </g>
     <g id="text_22">
      <!-- 0.2 -->
      <g transform="translate(377.951344261 168.395398125)scale(0.09996 -0.09996)">
       <use xlink:href="#WenQuanYiMicroHei-30"/>
       <use x="55.078125" xlink:href="#WenQuanYiMicroHei-2e"/>
       <use x="81.884765625" xlink:href="#WenQuanYiMicroHei-32"/>
      </g>
     </g>
    </g>
    <g id="ytick_10">
     <g id="line2d_51">
      <g>
       <use style="stroke:#000000;stroke-width:0.5;" x="394.579103636" xlink:href="#m728421d6d4" y="127.398780938"/>
      </g>
     </g>
     <g id="line2d_52">
      <g>
       <use style="stroke:#000000;stroke-width:0.5;" x="698.94274" xlink:href="#mcb0005524f" y="127.398780938"/>
      </g>
     </g>
     <g id="text_23">
      <!-- 0.4 -->
      <defs>
       <path d="
M53.0781 16.0156
L42.6719 16.0156
L42.6719 0
L34.0781 0
L34.0781 16.0156
L1.125 16.0156
L1.125 23.7812
L33.5 71.7812
L42.6719 71.7812
L42.6719 24.125
L53.0781 24.125
z

M34.0781 24.125
L34.0781 41.5
Q34.0781 44.2344 34.1562 47.2344
Q34.2344 50.25 34.3281 53.0938
Q34.4219 55.9531 34.5469 58.4375
Q34.6719 60.9375 34.7188 62.5938
L34.2812 62.5938
Q33.9375 61.625 33.4219 60.4219
Q32.9062 59.2344 32.2969 58.0312
Q31.6875 56.8438 31.0469 55.7188
Q30.4219 54.5938 29.8906 53.8125
L9.8125 24.125
z
" id="WenQuanYiMicroHei-34"/>
      </defs>
      <g transform="translate(377.565561136 129.995398125)scale(0.09996 -0.09996)">
       <use xlink:href="#WenQuanYiMicroHei-30"/>
       <use x="55.078125" xlink:href="#WenQuanYiMicroHei-2e"/>
       <use x="81.884765625" xlink:href="#WenQuanYiMicroHei-34"/>
      </g>
     </g>
    </g>
    <g id="ytick_11">
     <g id="line2d_53">
      <g>
       <use style="stroke:#000000;stroke-width:0.5;" x="394.579103636" xlink:href="#m728421d6d4" y="88.9987809375"/>
      </g>
     </g>
     <g id="line2d_54">
      <g>
       <use style="stroke:#000000;stroke-width:0.5;" x="698.94274" xlink:href="#mcb0005524f" y="88.9987809375"/>
      </g>
     </g>
     <g id="text_24">
      <!-- 0.6 -->
      <defs>
       <path d="
M5.51562 30.5156
Q5.51562 35.6406 6.03125 40.7188
Q6.54688 45.7969 7.82812 50.4531
Q9.125 55.125 11.375 59.125
Q13.625 63.1406 17.0938 66.0938
Q20.5625 69.0469 25.3906 70.7188
Q30.2188 72.4062 36.7188 72.4062
Q37.6406 72.4062 38.7656 72.3594
Q39.8906 72.3125 41.0312 72.1875
Q42.1875 72.0781 43.2344 71.9062
Q44.2812 71.7344 45.125 71.4844
L45.125 63.9219
Q43.4062 64.5 41.25 64.7969
Q39.1094 65.0938 37.0156 65.0938
Q32.625 65.0938 29.2656 64.0312
Q25.9219 62.9844 23.4844 61.0781
Q21.0469 59.1875 19.4062 56.5469
Q17.7812 53.9062 16.75 50.7031
Q15.7188 47.5156 15.2344 43.8906
Q14.75 40.2812 14.5938 36.375
L15.1875 36.375
Q16.1562 38.1406 17.5469 39.6719
Q18.9531 41.2188 20.7969 42.3125
Q22.6562 43.4062 24.9688 44.0312
Q27.2969 44.6719 30.1719 44.6719
Q34.8125 44.6719 38.5625 43.2344
Q42.3281 41.7969 44.9688 39.0156
Q47.6094 36.2344 49.0469 32.2031
Q50.4844 28.1719 50.4844 23
Q50.4844 17.4375 48.9688 12.9844
Q47.4688 8.54688 44.625 5.4375
Q41.7969 2.34375 37.7969 0.671875
Q33.7969 -0.984375 28.8125 -0.984375
Q23.9219 -0.984375 19.6406 0.921875
Q15.375 2.82812 12.25 6.73438
Q9.125 10.6406 7.3125 16.5469
Q5.51562 22.4688 5.51562 30.5156
M28.7188 6.5
Q31.6406 6.5 34.0469 7.5
Q36.4688 8.5 38.2188 10.5156
Q39.9844 12.5469 40.9375 15.6406
Q41.8906 18.75 41.8906 23
Q41.8906 26.4219 41.0781 29.125
Q40.2812 31.8438 38.6719 33.7344
Q37.0625 35.6406 34.6406 36.6719
Q32.2344 37.7031 29 37.7031
Q25.7344 37.7031 23.0156 36.5469
Q20.3125 35.4062 18.4062 33.5625
Q16.5 31.7344 15.4531 29.3906
Q14.4062 27.0469 14.4062 24.7031
Q14.4062 21.4375 15.3125 18.1875
Q16.2188 14.9375 18 12.3438
Q19.7812 9.76562 22.4531 8.125
Q25.1406 6.5 28.7188 6.5" id="WenQuanYiMicroHei-36"/>
      </defs>
      <g transform="translate(377.824832386 91.595398125)scale(0.09996 -0.09996)">
       <use xlink:href="#WenQuanYiMicroHei-30"/>
       <use x="55.078125" xlink:href="#WenQuanYiMicroHei-2e"/>
       <use x="81.884765625" xlink:href="#WenQuanYiMicroHei-36"/>
      </g>
     </g>
    </g>
    <g id="ytick_12">
     <g id="line2d_55">
      <g>
       <use style="stroke:#000000;stroke-width:0.5;" x="394.579103636" xlink:href="#m728421d6d4" y="50.5987809375"/>
      </g>
     </g>
     <g id="line2d_56">
      <g>
       <use style="stroke:#000000;stroke-width:0.5;" x="698.94274" xlink:href="#mcb0005524f" y="50.5987809375"/>
      </g>
     </g>
     <g id="text_25">
      <!-- 0.8 -->
      <defs>
       <path d="
M27.5938 72.5156
Q31.6875 72.5156 35.3281 71.4375
Q38.9688 70.3594 41.7188 68.2031
Q44.4844 66.0625 46.0938 62.8438
Q47.7031 59.625 47.7031 55.3281
Q47.7031 52.0469 46.7188 49.4062
Q45.75 46.7812 44.0312 44.6562
Q42.3281 42.5312 39.9844 40.8438
Q37.6406 39.1562 34.9062 37.7969
Q37.75 36.2812 40.4531 34.4219
Q43.1719 32.5625 45.2812 30.25
Q47.4062 27.9375 48.7031 25.0469
Q50 22.1719 50 18.6094
Q50 14.1094 48.3594 10.4688
Q46.7344 6.84375 43.7812 4.29688
Q40.8281 1.76562 36.6875 0.390625
Q32.5625 -0.984375 27.5938 -0.984375
Q22.2188 -0.984375 18.0469 0.328125
Q13.875 1.65625 11.0156 4.125
Q8.15625 6.59375 6.65625 10.1562
Q5.17188 13.7188 5.17188 18.2188
Q5.17188 21.875 6.26562 24.7969
Q7.375 27.7344 9.21875 30.0781
Q11.0781 32.4219 13.6094 34.2188
Q16.1562 36.0312 19 37.4062
Q16.6094 38.9219 14.5 40.7031
Q12.4062 42.4844 10.8594 44.6719
Q9.32812 46.875 8.42188 49.5312
Q7.51562 52.2031 7.51562 55.4219
Q7.51562 59.6719 9.15625 62.8594
Q10.7969 66.0625 13.5781 68.2031
Q16.3594 70.3594 20 71.4375
Q23.6406 72.5156 27.5938 72.5156
M13.9219 18.1094
Q13.9219 15.5312 14.7031 13.3594
Q15.4844 11.1875 17.1406 9.64062
Q18.7969 8.10938 21.3281 7.25
Q23.875 6.39062 27.3906 6.39062
Q30.8125 6.39062 33.4219 7.25
Q36.0312 8.10938 37.7812 9.6875
Q39.5469 11.2812 40.4219 13.5156
Q41.3125 15.7656 41.3125 18.5
Q41.3125 21.0469 40.3594 23.0938
Q39.4062 25.1406 37.625 26.8906
Q35.8438 28.6562 33.3438 30.2188
Q30.8594 31.7812 27.7812 33.2969
L26.3125 33.9844
Q20.1719 31.0625 17.0469 27.2656
Q13.9219 23.4844 13.9219 18.1094
M27.4844 65.0938
Q22.3125 65.0938 19.2656 62.5
Q16.2188 59.9062 16.2188 54.9844
Q16.2188 52.2031 17.0625 50.1875
Q17.9219 48.1875 19.4375 46.625
Q20.9531 45.0625 23.0781 43.8125
Q25.2031 42.5781 27.6875 41.4062
Q30.0312 42.4844 32.1094 43.75
Q34.1875 45.0156 35.7188 46.625
Q37.25 48.25 38.125 50.2969
Q39.0156 52.3438 39.0156 54.9844
Q39.0156 59.9062 35.9375 62.5
Q32.8594 65.0938 27.4844 65.0938" id="WenQuanYiMicroHei-38"/>
      </defs>
      <g transform="translate(377.873250511 53.195398125)scale(0.09996 -0.09996)">
       <use xlink:href="#WenQuanYiMicroHei-30"/>
       <use x="55.078125" xlink:href="#WenQuanYiMicroHei-2e"/>
       <use x="81.884765625" xlink:href="#WenQuanYiMicroHei-38"/>
      </g>
     </g>
    </g>
    <g id="ytick_13">
     <g id="line2d_57">
      <g>
       <use style="stroke:#000000;stroke-width:0.5;" x="394.579103636" xlink:href="#m728421d6d4" y="12.1987809375"/>
      </g>
     </g>
     <g id="line2d_58">
      <g>
       <use style="stroke:#000000;stroke-width:0.5;" x="698.94274" xlink:href="#mcb0005524f" y="12.1987809375"/>
      </g>
     </g>
     <g id="text_26">
      <!-- 1.0 -->
      <g transform="translate(378.224672386 14.795398125)scale(0.09996 -0.09996)">
       <use xlink:href="#WenQuanYiMicroHei-31"/>
       <use x="55.078125" xlink:href="#WenQuanYiMicroHei-2e"/>
       <use x="81.884765625" xlink:href="#WenQuanYiMicroHei-30"/>
      </g>
     </g>
    </g>
   </g>
  </g>
 </g>
 <defs>
  <clipPath id="pab151114d1">
   <rect height="230.4" width="304.363636364" x="29.34274" y="12.1987809375"/>
  </clipPath>
  <clipPath id="p858c7692c7">
   <rect height="230.4" width="304.363636364" x="394.579103636" y="12.1987809375"/>
  </clipPath>
 </defs>
</svg>
