<?xml version="1.0" encoding="utf-8" standalone="no"?>
<!DOCTYPE svg PUBLIC "-//W3C//DTD SVG 1.1//EN"
  "http://www.w3.org/Graphics/SVG/1.1/DTD/svg11.dtd">
<!-- Created with matplotlib (http://matplotlib.org/) -->
<svg height="393pt" version="1.1" viewBox="0 0 502 393" width="502pt" xmlns="http://www.w3.org/2000/svg" xmlns:xlink="http://www.w3.org/1999/xlink">
 <defs>
  <style type="text/css">
*{stroke-linecap:butt;stroke-linejoin:round;}
  </style>
 </defs>
 <g id="figure_1">
  <g id="patch_1">
   <path d="
M0 393.994
L502.938 393.994
L502.938 0
L0 0
z
" style="fill:#ffffff;"/>
  </g>
  <g id="axes_1">
   <g id="patch_2">
    <path d="
M41.7476 357.799
L488.148 357.799
L488.148 12.1988
L41.7476 12.1988
z
" style="fill:#ffffff;"/>
   </g>
   <g id="PathCollection_1">
    <defs>
     <path d="
M0 2.23607
C0.593012 2.23607 1.16182 2.00046 1.58114 1.58114
C2.00046 1.16182 2.23607 0.593012 2.23607 0
C2.23607 -0.593012 2.00046 -1.16182 1.58114 -1.58114
C1.16182 -2.00046 0.593012 -2.23607 0 -2.23607
C-0.593012 -2.23607 -1.16182 -2.00046 -1.58114 -1.58114
C-2.00046 -1.16182 -2.23607 -0.593012 -2.23607 0
C-2.23607 0.593012 -2.00046 1.16182 -1.58114 1.58114
C-1.16182 2.00046 -0.593012 2.23607 0 2.23607
z
" id="m892ea4c8d5" style="stroke:#000000;"/>
    </defs>
    <g clip-path="url(#p76930340b4)">
     <use style="fill:#0000ff;stroke:#000000;" x="393.826183739" xlink:href="#m892ea4c8d5" y="80.1580336385"/>
     <use style="fill:#0000ff;stroke:#000000;" x="298.050872461" xlink:href="#m892ea4c8d5" y="155.565890852"/>
     <use style="fill:#0000ff;stroke:#000000;" x="342.412685376" xlink:href="#m892ea4c8d5" y="107.935991736"/>
     <use style="fill:#0000ff;stroke:#000000;" x="256.878836125" xlink:href="#m892ea4c8d5" y="156.584395826"/>
     <use style="fill:#0000ff;stroke:#000000;" x="401.41862504" xlink:href="#m892ea4c8d5" y="106.376727378"/>
     <use style="fill:#0000ff;stroke:#000000;" x="195.005695187" xlink:href="#m892ea4c8d5" y="189.649853014"/>
     <use style="fill:#0000ff;stroke:#000000;" x="304.894400825" xlink:href="#m892ea4c8d5" y="117.907956679"/>
     <use style="fill:#0000ff;stroke:#000000;" x="413.121968136" xlink:href="#m892ea4c8d5" y="73.5831062281"/>
     <use style="fill:#0000ff;stroke:#000000;" x="144.587353007" xlink:href="#m892ea4c8d5" y="239.335778323"/>
     <use style="fill:#0000ff;stroke:#000000;" x="411.615740084" xlink:href="#m892ea4c8d5" y="65.9964003607"/>
     <use style="fill:#0000ff;stroke:#000000;" x="193.612019795" xlink:href="#m892ea4c8d5" y="182.772367907"/>
     <use style="fill:#0000ff;stroke:#000000;" x="420.890854835" xlink:href="#m892ea4c8d5" y="39.9932390777"/>
     <use style="fill:#0000ff;stroke:#000000;" x="298.78644859" xlink:href="#m892ea4c8d5" y="127.392960781"/>
     <use style="fill:#0000ff;stroke:#000000;" x="405.682180046" xlink:href="#m892ea4c8d5" y="62.0241732477"/>
     <use style="fill:#0000ff;stroke:#000000;" x="182.609116871" xlink:href="#m892ea4c8d5" y="164.201318979"/>
     <use style="fill:#0000ff;stroke:#000000;" x="235.621800635" xlink:href="#m892ea4c8d5" y="176.870321262"/>
     <use style="fill:#0000ff;stroke:#000000;" x="143.798944467" xlink:href="#m892ea4c8d5" y="205.102253879"/>
     <use style="fill:#0000ff;stroke:#000000;" x="208.488433799" xlink:href="#m892ea4c8d5" y="219.95622419"/>
     <use style="fill:#0000ff;stroke:#000000;" x="350.189274759" xlink:href="#m892ea4c8d5" y="108.601222427"/>
     <use style="fill:#0000ff;stroke:#000000;" x="275.638628381" xlink:href="#m892ea4c8d5" y="118.095556056"/>
     <use style="fill:#0000ff;stroke:#000000;" x="304.778276408" xlink:href="#m892ea4c8d5" y="140.454960433"/>
     <use style="fill:#0000ff;stroke:#000000;" x="194.478875529" xlink:href="#m892ea4c8d5" y="204.039315829"/>
     <use style="fill:#0000ff;stroke:#000000;" x="325.775235059" xlink:href="#m892ea4c8d5" y="126.598247501"/>
     <use style="fill:#0000ff;stroke:#000000;" x="332.488980066" xlink:href="#m892ea4c8d5" y="112.764244827"/>
     <use style="fill:#0000ff;stroke:#000000;" x="239.531449808" xlink:href="#m892ea4c8d5" y="152.22821792"/>
     <use style="fill:#0000ff;stroke:#000000;" x="136.53421344" xlink:href="#m892ea4c8d5" y="248.342118039"/>
     <use style="fill:#0000ff;stroke:#000000;" x="249.821330228" xlink:href="#m892ea4c8d5" y="153.679951519"/>
     <use style="fill:#0000ff;stroke:#000000;" x="161.141320737" xlink:href="#m892ea4c8d5" y="206.29411955"/>
     <use style="fill:#0000ff;stroke:#000000;" x="382.124014547" xlink:href="#m892ea4c8d5" y="83.9328269951"/>
     <use style="fill:#0000ff;stroke:#000000;" x="320.685932056" xlink:href="#m892ea4c8d5" y="118.345536897"/>
     <use style="fill:#0000ff;stroke:#000000;" x="253.047260284" xlink:href="#m892ea4c8d5" y="175.18952149"/>
     <use style="fill:#0000ff;stroke:#000000;" x="376.651752927" xlink:href="#m892ea4c8d5" y="77.1732960909"/>
     <use style="fill:#0000ff;stroke:#000000;" x="366.021005385" xlink:href="#m892ea4c8d5" y="116.947492983"/>
     <use style="fill:#0000ff;stroke:#000000;" x="257.270557013" xlink:href="#m892ea4c8d5" y="102.846392678"/>
     <use style="fill:#0000ff;stroke:#000000;" x="420.978918786" xlink:href="#m892ea4c8d5" y="52.6018509156"/>
     <use style="fill:#0000ff;stroke:#000000;" x="222.373351626" xlink:href="#m892ea4c8d5" y="176.233231902"/>
     <use style="fill:#0000ff;stroke:#000000;" x="185.877779041" xlink:href="#m892ea4c8d5" y="214.37697148"/>
     <use style="fill:#0000ff;stroke:#000000;" x="168.40198501" xlink:href="#m892ea4c8d5" y="228.475516327"/>
     <use style="fill:#0000ff;stroke:#000000;" x="415.937301453" xlink:href="#m892ea4c8d5" y="82.1982919403"/>
     <use style="fill:#0000ff;stroke:#000000;" x="186.981261802" xlink:href="#m892ea4c8d5" y="214.960386614"/>
     <use style="fill:#0000ff;stroke:#000000;" x="154.196328709" xlink:href="#m892ea4c8d5" y="220.426487477"/>
     <use style="fill:#0000ff;stroke:#000000;" x="200.651227415" xlink:href="#m892ea4c8d5" y="172.586176743"/>
     <use style="fill:#0000ff;stroke:#000000;" x="313.384131328" xlink:href="#m892ea4c8d5" y="125.679558586"/>
     <use style="fill:#0000ff;stroke:#000000;" x="283.673159655" xlink:href="#m892ea4c8d5" y="113.609938295"/>
     <use style="fill:#0000ff;stroke:#000000;" x="116.832450189" xlink:href="#m892ea4c8d5" y="223.028083591"/>
     <use style="fill:#0000ff;stroke:#000000;" x="205.687618959" xlink:href="#m892ea4c8d5" y="156.780095723"/>
     <use style="fill:#0000ff;stroke:#000000;" x="327.112804184" xlink:href="#m892ea4c8d5" y="84.8515245321"/>
     <use style="fill:#0000ff;stroke:#000000;" x="125.955660877" xlink:href="#m892ea4c8d5" y="225.05648177"/>
     <use style="fill:#0000ff;stroke:#000000;" x="265.882125792" xlink:href="#m892ea4c8d5" y="139.228064655"/>
     <use style="fill:#0000ff;stroke:#000000;" x="375.119809501" xlink:href="#m892ea4c8d5" y="76.3922506784"/>
     <use style="fill:#0000ff;stroke:#000000;" x="285.344895378" xlink:href="#m892ea4c8d5" y="143.749578686"/>
     <use style="fill:#0000ff;stroke:#000000;" x="347.342452866" xlink:href="#m892ea4c8d5" y="90.7143765292"/>
     <use style="fill:#0000ff;stroke:#000000;" x="407.522057026" xlink:href="#m892ea4c8d5" y="58.1624028625"/>
     <use style="fill:#0000ff;stroke:#000000;" x="374.16953796" xlink:href="#m892ea4c8d5" y="61.9481353897"/>
     <use style="fill:#0000ff;stroke:#000000;" x="356.626882146" xlink:href="#m892ea4c8d5" y="68.2767564816"/>
     <use style="fill:#0000ff;stroke:#000000;" x="414.983919906" xlink:href="#m892ea4c8d5" y="72.9317608356"/>
     <use style="fill:#0000ff;stroke:#000000;" x="246.249177686" xlink:href="#m892ea4c8d5" y="164.818731073"/>
     <use style="fill:#0000ff;stroke:#000000;" x="255.447626897" xlink:href="#m892ea4c8d5" y="151.470142901"/>
     <use style="fill:#0000ff;stroke:#000000;" x="280.770924868" xlink:href="#m892ea4c8d5" y="155.146164754"/>
     <use style="fill:#0000ff;stroke:#000000;" x="248.621395374" xlink:href="#m892ea4c8d5" y="189.527044325"/>
     <use style="fill:#0000ff;stroke:#000000;" x="245.362794263" xlink:href="#m892ea4c8d5" y="155.68412992"/>
     <use style="fill:#0000ff;stroke:#000000;" x="236.911599598" xlink:href="#m892ea4c8d5" y="165.381335668"/>
     <use style="fill:#0000ff;stroke:#000000;" x="141.447943419" xlink:href="#m892ea4c8d5" y="218.571313084"/>
     <use style="fill:#0000ff;stroke:#000000;" x="296.825711154" xlink:href="#m892ea4c8d5" y="130.075366024"/>
     <use style="fill:#0000ff;stroke:#000000;" x="202.239406051" xlink:href="#m892ea4c8d5" y="206.993814615"/>
     <use style="fill:#0000ff;stroke:#000000;" x="310.170519527" xlink:href="#m892ea4c8d5" y="101.833384182"/>
     <use style="fill:#0000ff;stroke:#000000;" x="118.643880268" xlink:href="#m892ea4c8d5" y="249.374768151"/>
     <use style="fill:#0000ff;stroke:#000000;" x="140.484901693" xlink:href="#m892ea4c8d5" y="256.638337621"/>
     <use style="fill:#0000ff;stroke:#000000;" x="349.473956643" xlink:href="#m892ea4c8d5" y="94.7380301542"/>
     <use style="fill:#0000ff;stroke:#000000;" x="398.761279131" xlink:href="#m892ea4c8d5" y="63.433374551"/>
     <use style="fill:#0000ff;stroke:#000000;" x="376.885849454" xlink:href="#m892ea4c8d5" y="57.4871402873"/>
     <use style="fill:#0000ff;stroke:#000000;" x="145.715732891" xlink:href="#m892ea4c8d5" y="178.352453276"/>
     <use style="fill:#0000ff;stroke:#000000;" x="248.068005201" xlink:href="#m892ea4c8d5" y="152.233773341"/>
     <use style="fill:#0000ff;stroke:#000000;" x="123.095707438" xlink:href="#m892ea4c8d5" y="239.219085174"/>
     <use style="fill:#0000ff;stroke:#000000;" x="306.183870649" xlink:href="#m892ea4c8d5" y="136.220861375"/>
     <use style="fill:#0000ff;stroke:#000000;" x="198.969695193" xlink:href="#m892ea4c8d5" y="158.27346802"/>
     <use style="fill:#0000ff;stroke:#000000;" x="285.275405349" xlink:href="#m892ea4c8d5" y="143.24574569"/>
     <use style="fill:#0000ff;stroke:#000000;" x="229.760743689" xlink:href="#m892ea4c8d5" y="163.622632878"/>
     <use style="fill:#0000ff;stroke:#000000;" x="359.639745536" xlink:href="#m892ea4c8d5" y="95.5264757455"/>
     <use style="fill:#0000ff;stroke:#000000;" x="126.817878391" xlink:href="#m892ea4c8d5" y="229.31033297"/>
     <use style="fill:#0000ff;stroke:#000000;" x="135.519704401" xlink:href="#m892ea4c8d5" y="238.044859174"/>
     <use style="fill:#0000ff;stroke:#000000;" x="165.025524033" xlink:href="#m892ea4c8d5" y="182.353583891"/>
     <use style="fill:#0000ff;stroke:#000000;" x="361.413194942" xlink:href="#m892ea4c8d5" y="109.287113924"/>
     <use style="fill:#0000ff;stroke:#000000;" x="381.247150647" xlink:href="#m892ea4c8d5" y="52.451245098"/>
     <use style="fill:#0000ff;stroke:#000000;" x="155.217245871" xlink:href="#m892ea4c8d5" y="212.689519207"/>
     <use style="fill:#0000ff;stroke:#000000;" x="185.577266727" xlink:href="#m892ea4c8d5" y="215.291399856"/>
     <use style="fill:#0000ff;stroke:#000000;" x="295.534208387" xlink:href="#m892ea4c8d5" y="129.862117176"/>
     <use style="fill:#0000ff;stroke:#000000;" x="269.064429783" xlink:href="#m892ea4c8d5" y="155.565887437"/>
     <use style="fill:#0000ff;stroke:#000000;" x="298.981804208" xlink:href="#m892ea4c8d5" y="92.8995795245"/>
     <use style="fill:#0000ff;stroke:#000000;" x="239.4847996" xlink:href="#m892ea4c8d5" y="168.882535907"/>
     <use style="fill:#0000ff;stroke:#000000;" x="350.694242652" xlink:href="#m892ea4c8d5" y="61.7055285468"/>
     <use style="fill:#0000ff;stroke:#000000;" x="170.144334056" xlink:href="#m892ea4c8d5" y="211.548506673"/>
     <use style="fill:#0000ff;stroke:#000000;" x="394.982750739" xlink:href="#m892ea4c8d5" y="85.4011227585"/>
     <use style="fill:#0000ff;stroke:#000000;" x="153.665105271" xlink:href="#m892ea4c8d5" y="210.472643684"/>
     <use style="fill:#0000ff;stroke:#000000;" x="145.106407706" xlink:href="#m892ea4c8d5" y="225.469768081"/>
     <use style="fill:#0000ff;stroke:#000000;" x="336.312097621" xlink:href="#m892ea4c8d5" y="112.888198775"/>
     <use style="fill:#0000ff;stroke:#000000;" x="264.271436129" xlink:href="#m892ea4c8d5" y="134.706760384"/>
     <use style="fill:#0000ff;stroke:#000000;" x="310.858257577" xlink:href="#m892ea4c8d5" y="87.8628082613"/>
     <use style="fill:#0000ff;stroke:#000000;" x="188.810058341" xlink:href="#m892ea4c8d5" y="184.489774461"/>
     <use style="fill:#0000ff;stroke:#000000;" x="168.249943255" xlink:href="#m892ea4c8d5" y="220.713283363"/>
    </g>
   </g>
   <g id="PathCollection_2">
    <defs>
     <path d="
M-2.23607 2.23607
L2.23607 -2.23607
M-2.23607 -2.23607
L2.23607 2.23607" id="md0f72b9a1a" style="stroke:#ff0000;"/>
    </defs>
    <g clip-path="url(#p76930340b4)">
     <use style="fill:#ff0000;stroke:#ff0000;" x="195.005695187" xlink:href="#md0f72b9a1a" y="189.649853014"/>
     <use style="fill:#ff0000;stroke:#ff0000;" x="144.587353007" xlink:href="#md0f72b9a1a" y="239.335778323"/>
     <use style="fill:#ff0000;stroke:#ff0000;" x="193.612019795" xlink:href="#md0f72b9a1a" y="182.772367907"/>
     <use style="fill:#ff0000;stroke:#ff0000;" x="182.609116871" xlink:href="#md0f72b9a1a" y="164.201318979"/>
     <use style="fill:#ff0000;stroke:#ff0000;" x="143.798944467" xlink:href="#md0f72b9a1a" y="205.102253879"/>
     <use style="fill:#ff0000;stroke:#ff0000;" x="208.488433799" xlink:href="#md0f72b9a1a" y="219.95622419"/>
     <use style="fill:#ff0000;stroke:#ff0000;" x="194.478875529" xlink:href="#md0f72b9a1a" y="204.039315829"/>
     <use style="fill:#ff0000;stroke:#ff0000;" x="161.141320737" xlink:href="#md0f72b9a1a" y="206.29411955"/>
     <use style="fill:#ff0000;stroke:#ff0000;" x="222.373351626" xlink:href="#md0f72b9a1a" y="176.233231902"/>
     <use style="fill:#ff0000;stroke:#ff0000;" x="185.877779041" xlink:href="#md0f72b9a1a" y="214.37697148"/>
     <use style="fill:#ff0000;stroke:#ff0000;" x="168.40198501" xlink:href="#md0f72b9a1a" y="228.475516327"/>
     <use style="fill:#ff0000;stroke:#ff0000;" x="186.981261802" xlink:href="#md0f72b9a1a" y="214.960386614"/>
     <use style="fill:#ff0000;stroke:#ff0000;" x="154.196328709" xlink:href="#md0f72b9a1a" y="220.426487477"/>
     <use style="fill:#ff0000;stroke:#ff0000;" x="200.651227415" xlink:href="#md0f72b9a1a" y="172.586176743"/>
     <use style="fill:#ff0000;stroke:#ff0000;" x="116.832450189" xlink:href="#md0f72b9a1a" y="223.028083591"/>
     <use style="fill:#ff0000;stroke:#ff0000;" x="205.687618959" xlink:href="#md0f72b9a1a" y="156.780095723"/>
     <use style="fill:#ff0000;stroke:#ff0000;" x="125.955660877" xlink:href="#md0f72b9a1a" y="225.05648177"/>
     <use style="fill:#ff0000;stroke:#ff0000;" x="141.447943419" xlink:href="#md0f72b9a1a" y="218.571313084"/>
     <use style="fill:#ff0000;stroke:#ff0000;" x="202.239406051" xlink:href="#md0f72b9a1a" y="206.993814615"/>
     <use style="fill:#ff0000;stroke:#ff0000;" x="145.715732891" xlink:href="#md0f72b9a1a" y="178.352453276"/>
     <use style="fill:#ff0000;stroke:#ff0000;" x="123.095707438" xlink:href="#md0f72b9a1a" y="239.219085174"/>
     <use style="fill:#ff0000;stroke:#ff0000;" x="198.969695193" xlink:href="#md0f72b9a1a" y="158.27346802"/>
     <use style="fill:#ff0000;stroke:#ff0000;" x="229.760743689" xlink:href="#md0f72b9a1a" y="163.622632878"/>
     <use style="fill:#ff0000;stroke:#ff0000;" x="126.817878391" xlink:href="#md0f72b9a1a" y="229.31033297"/>
     <use style="fill:#ff0000;stroke:#ff0000;" x="135.519704401" xlink:href="#md0f72b9a1a" y="238.044859174"/>
     <use style="fill:#ff0000;stroke:#ff0000;" x="165.025524033" xlink:href="#md0f72b9a1a" y="182.353583891"/>
     <use style="fill:#ff0000;stroke:#ff0000;" x="155.217245871" xlink:href="#md0f72b9a1a" y="212.689519207"/>
     <use style="fill:#ff0000;stroke:#ff0000;" x="185.577266727" xlink:href="#md0f72b9a1a" y="215.291399856"/>
     <use style="fill:#ff0000;stroke:#ff0000;" x="170.144334056" xlink:href="#md0f72b9a1a" y="211.548506673"/>
     <use style="fill:#ff0000;stroke:#ff0000;" x="153.665105271" xlink:href="#md0f72b9a1a" y="210.472643684"/>
     <use style="fill:#ff0000;stroke:#ff0000;" x="145.106407706" xlink:href="#md0f72b9a1a" y="225.469768081"/>
     <use style="fill:#ff0000;stroke:#ff0000;" x="188.810058341" xlink:href="#md0f72b9a1a" y="184.489774461"/>
     <use style="fill:#ff0000;stroke:#ff0000;" x="168.249943255" xlink:href="#md0f72b9a1a" y="220.713283363"/>
    </g>
   </g>
   <g id="patch_3">
    <path clip-path="url(#p76930340b4)" d="
M41.7476 242.599
L233.062 242.599
L233.062 12.1988
L41.7476 12.1988
z
" style="fill:#0000ff;opacity:0.3;stroke:#000000;stroke-linejoin:miter;"/>
   </g>
   <g id="line2d_1">
    <path clip-path="url(#p76930340b4)" d="
M41.7476 242.599
L488.148 242.599" style="fill:none;stroke:#000000;stroke-dasharray:6.000000,6.000000;stroke-dashoffset:0.0;stroke-width:2.0;"/>
   </g>
   <g id="line2d_2">
    <path clip-path="url(#p76930340b4)" d="
M233.062 357.799
L233.062 12.1988" style="fill:none;stroke:#000000;stroke-dasharray:6.000000,6.000000;stroke-dashoffset:0.0;stroke-width:2.0;"/>
   </g>
   <g id="line2d_3">
    <path clip-path="url(#p76930340b4)" d="
M105.519 319.399
L488.148 88.9988" style="fill:none;stroke:#348abd;stroke-linecap:square;stroke-width:2.0;"/>
   </g>
   <g id="patch_4">
    <path d="
M41.7476 12.1988
L488.148 12.1988" style="fill:none;stroke:#000000;stroke-linecap:square;stroke-linejoin:miter;"/>
   </g>
   <g id="patch_5">
    <path d="
M488.148 357.799
L488.148 12.1988" style="fill:none;stroke:#000000;stroke-linecap:square;stroke-linejoin:miter;"/>
   </g>
   <g id="patch_6">
    <path d="
M41.7476 357.799
L488.148 357.799" style="fill:none;stroke:#000000;stroke-linecap:square;stroke-linejoin:miter;"/>
   </g>
   <g id="patch_7">
    <path d="
M41.7476 357.799
L41.7476 12.1988" style="fill:none;stroke:#000000;stroke-linecap:square;stroke-linejoin:miter;"/>
   </g>
   <g id="matplotlib.axis_1">
    <g id="xtick_1">
     <g id="line2d_4">
      <defs>
       <path d="
M0 0
L0 -4" id="m93b0483c22" style="stroke:#000000;stroke-width:0.5;"/>
      </defs>
      <g>
       <use style="stroke:#000000;stroke-width:0.5;" x="41.747589375" xlink:href="#m93b0483c22" y="357.798780937"/>
      </g>
     </g>
     <g id="line2d_5">
      <defs>
       <path d="
M0 0
L0 4" id="m741efc42ff" style="stroke:#000000;stroke-width:0.5;"/>
      </defs>
      <g>
       <use style="stroke:#000000;stroke-width:0.5;" x="41.747589375" xlink:href="#m741efc42ff" y="12.1987809375"/>
      </g>
     </g>
     <g id="text_1">
      <!-- −20 -->
      <defs>
       <path d="
M49.2188 0
L4.6875 0
L4.6875 7.625
L21.7812 26.2188
Q25.4375 30.1719 28.3125 33.4375
Q31.2031 36.7188 33.2188 39.8438
Q35.25 42.9688 36.3281 46.1094
Q37.4062 49.2656 37.4062 52.9844
Q37.4062 55.8594 36.5781 58.0469
Q35.75 60.25 34.2031 61.7812
Q32.6719 63.3281 30.5625 64.1094
Q28.4688 64.8906 25.875 64.8906
Q21.2344 64.8906 17.5 63.0156
Q13.7656 61.1406 10.4062 58.2031
L5.42188 64.0156
Q7.375 65.7656 9.60938 67.2969
Q11.8594 68.8438 14.4531 69.9688
Q17.0469 71.0938 19.9219 71.75
Q22.7969 72.4062 25.9844 72.4062
Q30.6719 72.4062 34.4531 71.0938
Q38.2344 69.7812 40.8594 67.3125
Q43.5 64.8438 44.9375 61.2969
Q46.3906 57.7656 46.3906 53.3281
Q46.3906 49.1719 45.0938 45.4062
Q43.7969 41.6562 41.5312 38.0156
Q39.2656 34.375 36.1094 30.7031
Q32.9531 27.0469 29.2969 23.0938
L15.5781 8.5
L15.5781 8.10938
L49.2188 8.10938
z
" id="WenQuanYiMicroHei-32"/>
       <path d="
M50.3906 35.7969
Q50.3906 27.1562 49.1406 20.3125
Q47.9062 13.4844 45.1406 8.73438
Q42.3906 4 38.0312 1.5
Q33.6875 -0.984375 27.4844 -0.984375
Q21.7344 -0.984375 17.4531 1.5
Q13.1875 4 10.375 8.73438
Q7.5625 13.4844 6.17188 20.3125
Q4.78125 27.1562 4.78125 35.7969
Q4.78125 44.4375 6.03125 51.2656
Q7.28125 58.1094 9.98438 62.8125
Q12.7031 67.5312 17.0156 70.0156
Q21.3438 72.5156 27.4844 72.5156
Q33.2969 72.5156 37.5938 70.0469
Q41.8906 67.5781 44.7188 62.8594
Q47.5625 58.1562 48.9688 51.3125
Q50.3906 44.4844 50.3906 35.7969
M13.8125 35.7969
Q13.8125 28.4688 14.5469 23
Q15.2812 17.5312 16.8906 13.8906
Q18.5 10.25 21.1094 8.42188
Q23.7344 6.59375 27.4844 6.59375
Q31.25 6.59375 33.8906 8.39062
Q36.5312 10.2031 38.2031 13.8125
Q39.8906 17.4375 40.6406 22.9219
Q41.4062 28.4219 41.4062 35.7969
Q41.4062 43.1094 40.6406 48.5781
Q39.8906 54.0469 38.2031 57.6562
Q36.5312 61.2812 33.8906 63.0781
Q31.25 64.8906 27.4844 64.8906
Q23.7344 64.8906 21.1094 63.0781
Q18.5 61.2812 16.8906 57.6562
Q15.2812 54.0469 14.5469 48.5781
Q13.8125 43.1094 13.8125 35.7969" id="WenQuanYiMicroHei-30"/>
       <path d="
M4.98438 31.5938
L4.98438 38.9219
L50.0938 38.9219
L50.0938 31.5938
z
" id="WenQuanYiMicroHei-2212"/>
      </defs>
      <g transform="translate(33.972575625 369.394179062)scale(0.09996 -0.09996)">
       <use xlink:href="#WenQuanYiMicroHei-2212"/>
       <use x="55.078125" xlink:href="#WenQuanYiMicroHei-32"/>
       <use x="110.15625" xlink:href="#WenQuanYiMicroHei-30"/>
      </g>
     </g>
    </g>
    <g id="xtick_2">
     <g id="line2d_6">
      <g>
       <use style="stroke:#000000;stroke-width:0.5;" x="105.519017946" xlink:href="#m93b0483c22" y="357.798780937"/>
      </g>
     </g>
     <g id="line2d_7">
      <g>
       <use style="stroke:#000000;stroke-width:0.5;" x="105.519017946" xlink:href="#m741efc42ff" y="12.1987809375"/>
      </g>
     </g>
     <g id="text_2">
      <!-- 0 -->
      <g transform="translate(103.239461384 369.394179062)scale(0.09996 -0.09996)">
       <use xlink:href="#WenQuanYiMicroHei-30"/>
      </g>
     </g>
    </g>
    <g id="xtick_3">
     <g id="line2d_8">
      <g>
       <use style="stroke:#000000;stroke-width:0.5;" x="169.290446518" xlink:href="#m93b0483c22" y="357.798780937"/>
      </g>
     </g>
     <g id="line2d_9">
      <g>
       <use style="stroke:#000000;stroke-width:0.5;" x="169.290446518" xlink:href="#m741efc42ff" y="12.1987809375"/>
      </g>
     </g>
     <g id="text_3">
      <!-- 20 -->
      <g transform="translate(164.253399643 369.394179062)scale(0.09996 -0.09996)">
       <use xlink:href="#WenQuanYiMicroHei-32"/>
       <use x="55.078125" xlink:href="#WenQuanYiMicroHei-30"/>
      </g>
     </g>
    </g>
    <g id="xtick_4">
     <g id="line2d_10">
      <g>
       <use style="stroke:#000000;stroke-width:0.5;" x="233.061875089" xlink:href="#m93b0483c22" y="357.798780937"/>
      </g>
     </g>
     <g id="line2d_11">
      <g>
       <use style="stroke:#000000;stroke-width:0.5;" x="233.061875089" xlink:href="#m741efc42ff" y="12.1987809375"/>
      </g>
     </g>
     <g id="text_4">
      <!-- 40 -->
      <defs>
       <path d="
M53.0781 16.0156
L42.6719 16.0156
L42.6719 0
L34.0781 0
L34.0781 16.0156
L1.125 16.0156
L1.125 23.7812
L33.5 71.7812
L42.6719 71.7812
L42.6719 24.125
L53.0781 24.125
z

M34.0781 24.125
L34.0781 41.5
Q34.0781 44.2344 34.1562 47.2344
Q34.2344 50.25 34.3281 53.0938
Q34.4219 55.9531 34.5469 58.4375
Q34.6719 60.9375 34.7188 62.5938
L34.2812 62.5938
Q33.9375 61.625 33.4219 60.4219
Q32.9062 59.2344 32.2969 58.0312
Q31.6875 56.8438 31.0469 55.7188
Q30.4219 54.5938 29.8906 53.8125
L9.8125 24.125
z
" id="WenQuanYiMicroHei-34"/>
      </defs>
      <g transform="translate(227.846774464 369.394179062)scale(0.09996 -0.09996)">
       <use xlink:href="#WenQuanYiMicroHei-34"/>
       <use x="55.078125" xlink:href="#WenQuanYiMicroHei-30"/>
      </g>
     </g>
    </g>
    <g id="xtick_5">
     <g id="line2d_12">
      <g>
       <use style="stroke:#000000;stroke-width:0.5;" x="296.833303661" xlink:href="#m93b0483c22" y="357.798780937"/>
      </g>
     </g>
     <g id="line2d_13">
      <g>
       <use style="stroke:#000000;stroke-width:0.5;" x="296.833303661" xlink:href="#m741efc42ff" y="12.1987809375"/>
      </g>
     </g>
     <g id="text_5">
      <!-- 60 -->
      <defs>
       <path d="
M5.51562 30.5156
Q5.51562 35.6406 6.03125 40.7188
Q6.54688 45.7969 7.82812 50.4531
Q9.125 55.125 11.375 59.125
Q13.625 63.1406 17.0938 66.0938
Q20.5625 69.0469 25.3906 70.7188
Q30.2188 72.4062 36.7188 72.4062
Q37.6406 72.4062 38.7656 72.3594
Q39.8906 72.3125 41.0312 72.1875
Q42.1875 72.0781 43.2344 71.9062
Q44.2812 71.7344 45.125 71.4844
L45.125 63.9219
Q43.4062 64.5 41.25 64.7969
Q39.1094 65.0938 37.0156 65.0938
Q32.625 65.0938 29.2656 64.0312
Q25.9219 62.9844 23.4844 61.0781
Q21.0469 59.1875 19.4062 56.5469
Q17.7812 53.9062 16.75 50.7031
Q15.7188 47.5156 15.2344 43.8906
Q14.75 40.2812 14.5938 36.375
L15.1875 36.375
Q16.1562 38.1406 17.5469 39.6719
Q18.9531 41.2188 20.7969 42.3125
Q22.6562 43.4062 24.9688 44.0312
Q27.2969 44.6719 30.1719 44.6719
Q34.8125 44.6719 38.5625 43.2344
Q42.3281 41.7969 44.9688 39.0156
Q47.6094 36.2344 49.0469 32.2031
Q50.4844 28.1719 50.4844 23
Q50.4844 17.4375 48.9688 12.9844
Q47.4688 8.54688 44.625 5.4375
Q41.7969 2.34375 37.7969 0.671875
Q33.7969 -0.984375 28.8125 -0.984375
Q23.9219 -0.984375 19.6406 0.921875
Q15.375 2.82812 12.25 6.73438
Q9.125 10.6406 7.3125 16.5469
Q5.51562 22.4688 5.51562 30.5156
M28.7188 6.5
Q31.6406 6.5 34.0469 7.5
Q36.4688 8.5 38.2188 10.5156
Q39.9844 12.5469 40.9375 15.6406
Q41.8906 18.75 41.8906 23
Q41.8906 26.4219 41.0781 29.125
Q40.2812 31.8438 38.6719 33.7344
Q37.0625 35.6406 34.6406 36.6719
Q32.2344 37.7031 29 37.7031
Q25.7344 37.7031 23.0156 36.5469
Q20.3125 35.4062 18.4062 33.5625
Q16.5 31.7344 15.4531 29.3906
Q14.4062 27.0469 14.4062 24.7031
Q14.4062 21.4375 15.3125 18.1875
Q16.2188 14.9375 18 12.3438
Q19.7812 9.76562 22.4531 8.125
Q25.1406 6.5 28.7188 6.5" id="WenQuanYiMicroHei-36"/>
      </defs>
      <g transform="translate(291.837646473 369.394179062)scale(0.09996 -0.09996)">
       <use xlink:href="#WenQuanYiMicroHei-36"/>
       <use x="55.078125" xlink:href="#WenQuanYiMicroHei-30"/>
      </g>
     </g>
    </g>
    <g id="xtick_6">
     <g id="line2d_14">
      <g>
       <use style="stroke:#000000;stroke-width:0.5;" x="360.604732232" xlink:href="#m93b0483c22" y="357.798780937"/>
      </g>
     </g>
     <g id="line2d_15">
      <g>
       <use style="stroke:#000000;stroke-width:0.5;" x="360.604732232" xlink:href="#m741efc42ff" y="12.1987809375"/>
      </g>
     </g>
     <g id="text_6">
      <!-- 80 -->
      <defs>
       <path d="
M27.5938 72.5156
Q31.6875 72.5156 35.3281 71.4375
Q38.9688 70.3594 41.7188 68.2031
Q44.4844 66.0625 46.0938 62.8438
Q47.7031 59.625 47.7031 55.3281
Q47.7031 52.0469 46.7188 49.4062
Q45.75 46.7812 44.0312 44.6562
Q42.3281 42.5312 39.9844 40.8438
Q37.6406 39.1562 34.9062 37.7969
Q37.75 36.2812 40.4531 34.4219
Q43.1719 32.5625 45.2812 30.25
Q47.4062 27.9375 48.7031 25.0469
Q50 22.1719 50 18.6094
Q50 14.1094 48.3594 10.4688
Q46.7344 6.84375 43.7812 4.29688
Q40.8281 1.76562 36.6875 0.390625
Q32.5625 -0.984375 27.5938 -0.984375
Q22.2188 -0.984375 18.0469 0.328125
Q13.875 1.65625 11.0156 4.125
Q8.15625 6.59375 6.65625 10.1562
Q5.17188 13.7188 5.17188 18.2188
Q5.17188 21.875 6.26562 24.7969
Q7.375 27.7344 9.21875 30.0781
Q11.0781 32.4219 13.6094 34.2188
Q16.1562 36.0312 19 37.4062
Q16.6094 38.9219 14.5 40.7031
Q12.4062 42.4844 10.8594 44.6719
Q9.32812 46.875 8.42188 49.5312
Q7.51562 52.2031 7.51562 55.4219
Q7.51562 59.6719 9.15625 62.8594
Q10.7969 66.0625 13.5781 68.2031
Q16.3594 70.3594 20 71.4375
Q23.6406 72.5156 27.5938 72.5156
M13.9219 18.1094
Q13.9219 15.5312 14.7031 13.3594
Q15.4844 11.1875 17.1406 9.64062
Q18.7969 8.10938 21.3281 7.25
Q23.875 6.39062 27.3906 6.39062
Q30.8125 6.39062 33.4219 7.25
Q36.0312 8.10938 37.7812 9.6875
Q39.5469 11.2812 40.4219 13.5156
Q41.3125 15.7656 41.3125 18.5
Q41.3125 21.0469 40.3594 23.0938
Q39.4062 25.1406 37.625 26.8906
Q35.8438 28.6562 33.3438 30.2188
Q30.8594 31.7812 27.7812 33.2969
L26.3125 33.9844
Q20.1719 31.0625 17.0469 27.2656
Q13.9219 23.4844 13.9219 18.1094
M27.4844 65.0938
Q22.3125 65.0938 19.2656 62.5
Q16.2188 59.9062 16.2188 54.9844
Q16.2188 52.2031 17.0625 50.1875
Q17.9219 48.1875 19.4375 46.625
Q20.9531 45.0625 23.0781 43.8125
Q25.2031 42.5781 27.6875 41.4062
Q30.0312 42.4844 32.1094 43.75
Q34.1875 45.0156 35.7188 46.625
Q37.25 48.25 38.125 50.2969
Q39.0156 52.3438 39.0156 54.9844
Q39.0156 59.9062 35.9375 62.5
Q32.8594 65.0938 27.4844 65.0938" id="WenQuanYiMicroHei-38"/>
      </defs>
      <g transform="translate(355.59189442 369.394179062)scale(0.09996 -0.09996)">
       <use xlink:href="#WenQuanYiMicroHei-38"/>
       <use x="55.078125" xlink:href="#WenQuanYiMicroHei-30"/>
      </g>
     </g>
    </g>
    <g id="xtick_7">
     <g id="line2d_16">
      <g>
       <use style="stroke:#000000;stroke-width:0.5;" x="424.376160804" xlink:href="#m93b0483c22" y="357.798780937"/>
      </g>
     </g>
     <g id="line2d_17">
      <g>
       <use style="stroke:#000000;stroke-width:0.5;" x="424.376160804" xlink:href="#m741efc42ff" y="12.1987809375"/>
      </g>
     </g>
     <g id="text_7">
      <!-- 100 -->
      <defs>
       <path d="
M34.7188 0
L26.125 0
L26.125 44.5781
Q26.125 46.6875 26.1406 49.0781
Q26.1719 51.4688 26.2344 53.8281
Q26.3125 56.2031 26.3906 58.375
Q26.4688 60.5469 26.5156 62.2031
Q25.6875 61.3281 25.0469 60.6875
Q24.4219 60.0625 23.75 59.4688
Q23.0938 58.8906 22.3594 58.2188
Q21.625 57.5625 20.6094 56.6875
L13.375 50.7812
L8.6875 56.7812
L27.3906 71.3906
L34.7188 71.3906
z
" id="WenQuanYiMicroHei-31"/>
      </defs>
      <g transform="translate(416.786229241 369.394179062)scale(0.09996 -0.09996)">
       <use xlink:href="#WenQuanYiMicroHei-31"/>
       <use x="55.078125" xlink:href="#WenQuanYiMicroHei-30"/>
       <use x="110.15625" xlink:href="#WenQuanYiMicroHei-30"/>
      </g>
     </g>
    </g>
    <g id="xtick_8">
     <g id="line2d_18">
      <g>
       <use style="stroke:#000000;stroke-width:0.5;" x="488.147589375" xlink:href="#m93b0483c22" y="357.798780937"/>
      </g>
     </g>
     <g id="line2d_19">
      <g>
       <use style="stroke:#000000;stroke-width:0.5;" x="488.147589375" xlink:href="#m741efc42ff" y="12.1987809375"/>
      </g>
     </g>
     <g id="text_8">
      <!-- 120 -->
      <g transform="translate(480.557657812 369.394179062)scale(0.09996 -0.09996)">
       <use xlink:href="#WenQuanYiMicroHei-31"/>
       <use x="55.078125" xlink:href="#WenQuanYiMicroHei-32"/>
       <use x="110.15625" xlink:href="#WenQuanYiMicroHei-30"/>
      </g>
     </g>
    </g>
    <g id="text_9">
     <!-- Start -->
     <defs>
      <path d="
M24.7031 6.29688
Q25.5938 6.29688 26.6875 6.39062
Q27.7812 6.5 28.7969 6.64062
Q29.8281 6.78125 30.6875 6.96875
Q31.5469 7.17188 31.9844 7.32812
L31.9844 0.59375
Q31.3438 0.296875 30.3594 0
Q29.3906 -0.296875 28.2188 -0.515625
Q27.0469 -0.734375 25.7812 -0.859375
Q24.5156 -0.984375 23.2969 -0.984375
Q20.2656 -0.984375 17.6719 -0.1875
Q15.0938 0.59375 13.2031 2.48438
Q11.3281 4.39062 10.25 7.64062
Q9.1875 10.8906 9.1875 15.8281
L9.1875 46.9219
L1.60938 46.9219
L1.60938 50.875
L9.1875 54.6875
L12.9844 65.9219
L18.1094 65.9219
L18.1094 53.6094
L31.5938 53.6094
L31.5938 46.9219
L18.1094 46.9219
L18.1094 15.8281
Q18.1094 11.0781 19.6406 8.6875
Q21.1875 6.29688 24.7031 6.29688" id="WenQuanYiMicroHei-74"/>
      <path d="
M38.7188 0
L36.9219 7.42188
L36.5312 7.42188
Q34.9062 5.21875 33.2969 3.625
Q31.6875 2.04688 29.7812 1.01562
Q27.875 0 25.5312 -0.484375
Q23.1875 -0.984375 20.125 -0.984375
Q16.75 -0.984375 13.9062 -0.03125
Q11.0781 0.921875 9 2.90625
Q6.9375 4.89062 5.76562 7.89062
Q4.59375 10.8906 4.59375 14.9844
Q4.59375 23 10.2344 27.2969
Q15.875 31.5938 27.3906 31.9844
L36.375 32.3281
L36.375 35.6875
Q36.375 38.9688 35.6719 41.1562
Q34.9688 43.3594 33.625 44.7031
Q32.2812 46.0469 30.2969 46.625
Q28.3281 47.2188 25.7812 47.2188
Q21.7344 47.2188 18.2344 46.0469
Q14.75 44.875 11.5312 43.2188
L8.40625 49.9062
Q12.0156 51.8594 16.4531 53.2188
Q20.9062 54.5938 25.7812 54.5938
Q30.7656 54.5938 34.3906 53.5938
Q38.0312 52.5938 40.4062 50.4219
Q42.7812 48.25 43.9531 44.875
Q45.125 41.5 45.125 36.7188
L45.125 0
z

M22.4062 6.20312
Q25.3906 6.20312 27.9219 7.125
Q30.4688 8.0625 32.3281 9.9375
Q34.1875 11.8125 35.2344 14.6719
Q36.2812 17.5312 36.2812 21.3906
L36.2812 26.2188
L29.2969 25.875
Q24.9062 25.6875 21.9219 24.9062
Q18.9531 24.125 17.1562 22.7344
Q15.375 21.3438 14.5938 19.3594
Q13.8125 17.3906 13.8125 14.8906
Q13.8125 10.4062 16.1875 8.29688
Q18.5625 6.20312 22.4062 6.20312" id="WenQuanYiMicroHei-61"/>
      <path d="
M47.3125 19.0938
Q47.3125 14.3594 45.625 10.625
Q43.9531 6.89062 40.8281 4.29688
Q37.7031 1.70312 33.2031 0.359375
Q28.7188 -0.984375 23.0938 -0.984375
Q17.6719 -0.984375 12.9531 -0.125
Q8.25 0.734375 5.07812 2.39062
L5.07812 11.0781
Q6.73438 10.2969 8.85938 9.54688
Q10.9844 8.79688 13.3281 8.20312
Q15.6719 7.625 18.1562 7.25
Q20.6562 6.89062 23.0938 6.89062
Q30.9062 6.89062 34.6406 9.8125
Q38.375 12.75 38.375 18.2188
Q38.375 20.8438 37.6719 22.7969
Q36.9688 24.75 35.1875 26.3906
Q33.4062 28.0312 30.4219 29.5625
Q27.4375 31.1094 22.9062 32.9062
Q18.5625 34.625 15.3594 36.6406
Q12.1562 38.6719 10.0781 41.2031
Q8.01562 43.75 7 46.9688
Q6 50.2031 6 54.2969
Q6 58.5938 7.5625 61.9531
Q9.125 65.3281 11.9531 67.6406
Q14.7969 69.9688 18.7188 71.1875
Q22.6562 72.4062 27.3906 72.4062
Q33.2031 72.4062 37.8438 71.3125
Q42.4844 70.2188 46.0938 68.5
L42.8281 60.8906
Q39.6562 62.3125 35.625 63.3594
Q31.5938 64.4062 27.2969 64.4062
Q21.3438 64.4062 18.0625 61.6406
Q14.7969 58.8906 14.7969 54.2031
Q14.7969 51.4219 15.5312 49.3906
Q16.2656 47.3594 17.9688 45.7188
Q19.6719 44.0938 22.4844 42.6562
Q25.2969 41.2188 29.3906 39.5938
Q33.8438 37.8438 37.1875 35.9844
Q40.5312 34.125 42.7656 31.7812
Q45.0156 29.4375 46.1562 26.3594
Q47.3125 23.2969 47.3125 19.0938" id="WenQuanYiMicroHei-53"/>
      <path d="
M31.6875 54.5938
Q33.1094 54.5938 34.8594 54.4688
Q36.625 54.3438 37.8906 54.1094
L36.7188 45.9062
Q35.3594 46.1406 33.9062 46.3125
Q32.4688 46.4844 31.2031 46.4844
Q28.125 46.4844 25.5781 45.2344
Q23.0469 44 21.2188 41.6719
Q19.3906 39.3594 18.3906 36.1094
Q17.3906 32.8594 17.3906 28.9062
L17.3906 0
L8.5 0
L8.5 53.6094
L15.7188 53.6094
L16.7969 43.7969
L17.1875 43.7969
Q18.4062 45.9062 19.7969 47.8594
Q21.1875 49.8125 22.9219 51.2969
Q24.6562 52.7812 26.7969 53.6875
Q28.9531 54.5938 31.6875 54.5938" id="WenQuanYiMicroHei-72"/>
     </defs>
     <g transform="translate(254.668109063 384.391740937)scale(0.09996 -0.09996)">
      <use xlink:href="#WenQuanYiMicroHei-53"/>
      <use x="51.904296875" xlink:href="#WenQuanYiMicroHei-74"/>
      <use x="85.791015625" xlink:href="#WenQuanYiMicroHei-61"/>
      <use x="138.8671875" xlink:href="#WenQuanYiMicroHei-72"/>
      <use x="178.759765625" xlink:href="#WenQuanYiMicroHei-74"/>
     </g>
    </g>
   </g>
   <g id="matplotlib.axis_2">
    <g id="ytick_1">
     <g id="line2d_20">
      <defs>
       <path d="
M0 0
L4 0" id="m728421d6d4" style="stroke:#000000;stroke-width:0.5;"/>
      </defs>
      <g>
       <use style="stroke:#000000;stroke-width:0.5;" x="41.747589375" xlink:href="#m728421d6d4" y="357.798780937"/>
      </g>
     </g>
     <g id="line2d_21">
      <defs>
       <path d="
M0 0
L-4 0" id="mcb0005524f" style="stroke:#000000;stroke-width:0.5;"/>
      </defs>
      <g>
       <use style="stroke:#000000;stroke-width:0.5;" x="488.147589375" xlink:href="#mcb0005524f" y="357.798780937"/>
      </g>
     </g>
     <g id="text_10">
      <!-- −20 -->
      <g transform="translate(22.197561875 360.395398125)scale(0.09996 -0.09996)">
       <use xlink:href="#WenQuanYiMicroHei-2212"/>
       <use x="55.078125" xlink:href="#WenQuanYiMicroHei-32"/>
       <use x="110.15625" xlink:href="#WenQuanYiMicroHei-30"/>
      </g>
     </g>
    </g>
    <g id="ytick_2">
     <g id="line2d_22">
      <g>
       <use style="stroke:#000000;stroke-width:0.5;" x="41.747589375" xlink:href="#m728421d6d4" y="319.398780937"/>
      </g>
     </g>
     <g id="line2d_23">
      <g>
       <use style="stroke:#000000;stroke-width:0.5;" x="488.147589375" xlink:href="#mcb0005524f" y="319.398780937"/>
      </g>
     </g>
     <g id="text_11">
      <!-- 0 -->
      <g transform="translate(33.18847625 321.995398125)scale(0.09996 -0.09996)">
       <use xlink:href="#WenQuanYiMicroHei-30"/>
      </g>
     </g>
    </g>
    <g id="ytick_3">
     <g id="line2d_24">
      <g>
       <use style="stroke:#000000;stroke-width:0.5;" x="41.747589375" xlink:href="#m728421d6d4" y="280.998780937"/>
      </g>
     </g>
     <g id="line2d_25">
      <g>
       <use style="stroke:#000000;stroke-width:0.5;" x="488.147589375" xlink:href="#mcb0005524f" y="280.998780937"/>
      </g>
     </g>
     <g id="text_12">
      <!-- 20 -->
      <g transform="translate(27.673495625 283.595398125)scale(0.09996 -0.09996)">
       <use xlink:href="#WenQuanYiMicroHei-32"/>
       <use x="55.078125" xlink:href="#WenQuanYiMicroHei-30"/>
      </g>
     </g>
    </g>
    <g id="ytick_4">
     <g id="line2d_26">
      <g>
       <use style="stroke:#000000;stroke-width:0.5;" x="41.747589375" xlink:href="#m728421d6d4" y="242.598780937"/>
      </g>
     </g>
     <g id="line2d_27">
      <g>
       <use style="stroke:#000000;stroke-width:0.5;" x="488.147589375" xlink:href="#mcb0005524f" y="242.598780937"/>
      </g>
     </g>
     <g id="text_13">
      <!-- 40 -->
      <g transform="translate(27.317388125 245.195398125)scale(0.09996 -0.09996)">
       <use xlink:href="#WenQuanYiMicroHei-34"/>
       <use x="55.078125" xlink:href="#WenQuanYiMicroHei-30"/>
      </g>
     </g>
    </g>
    <g id="ytick_5">
     <g id="line2d_28">
      <g>
       <use style="stroke:#000000;stroke-width:0.5;" x="41.747589375" xlink:href="#m728421d6d4" y="204.198780937"/>
      </g>
     </g>
     <g id="line2d_29">
      <g>
       <use style="stroke:#000000;stroke-width:0.5;" x="488.147589375" xlink:href="#mcb0005524f" y="204.198780937"/>
      </g>
     </g>
     <g id="text_14">
      <!-- 60 -->
      <g transform="translate(27.756275 206.795398125)scale(0.09996 -0.09996)">
       <use xlink:href="#WenQuanYiMicroHei-36"/>
       <use x="55.078125" xlink:href="#WenQuanYiMicroHei-30"/>
      </g>
     </g>
    </g>
    <g id="ytick_6">
     <g id="line2d_30">
      <g>
       <use style="stroke:#000000;stroke-width:0.5;" x="41.747589375" xlink:href="#m728421d6d4" y="165.798780937"/>
      </g>
     </g>
     <g id="line2d_31">
      <g>
       <use style="stroke:#000000;stroke-width:0.5;" x="488.147589375" xlink:href="#mcb0005524f" y="165.798780937"/>
      </g>
     </g>
     <g id="text_15">
      <!-- 80 -->
      <g transform="translate(27.72191375 168.395398125)scale(0.09996 -0.09996)">
       <use xlink:href="#WenQuanYiMicroHei-38"/>
       <use x="55.078125" xlink:href="#WenQuanYiMicroHei-30"/>
      </g>
     </g>
    </g>
    <g id="ytick_7">
     <g id="line2d_32">
      <g>
       <use style="stroke:#000000;stroke-width:0.5;" x="41.747589375" xlink:href="#m728421d6d4" y="127.398780937"/>
      </g>
     </g>
     <g id="line2d_33">
      <g>
       <use style="stroke:#000000;stroke-width:0.5;" x="488.147589375" xlink:href="#mcb0005524f" y="127.398780937"/>
      </g>
     </g>
     <g id="text_16">
      <!-- 100 -->
      <g transform="translate(22.56772625 129.995398125)scale(0.09996 -0.09996)">
       <use xlink:href="#WenQuanYiMicroHei-31"/>
       <use x="55.078125" xlink:href="#WenQuanYiMicroHei-30"/>
       <use x="110.15625" xlink:href="#WenQuanYiMicroHei-30"/>
      </g>
     </g>
    </g>
    <g id="ytick_8">
     <g id="line2d_34">
      <g>
       <use style="stroke:#000000;stroke-width:0.5;" x="41.747589375" xlink:href="#m728421d6d4" y="88.9987809375"/>
      </g>
     </g>
     <g id="line2d_35">
      <g>
       <use style="stroke:#000000;stroke-width:0.5;" x="488.147589375" xlink:href="#mcb0005524f" y="88.9987809375"/>
      </g>
     </g>
     <g id="text_17">
      <!-- 120 -->
      <g transform="translate(22.56772625 91.595398125)scale(0.09996 -0.09996)">
       <use xlink:href="#WenQuanYiMicroHei-31"/>
       <use x="55.078125" xlink:href="#WenQuanYiMicroHei-32"/>
       <use x="110.15625" xlink:href="#WenQuanYiMicroHei-30"/>
      </g>
     </g>
    </g>
    <g id="ytick_9">
     <g id="line2d_36">
      <g>
       <use style="stroke:#000000;stroke-width:0.5;" x="41.747589375" xlink:href="#m728421d6d4" y="50.5987809375"/>
      </g>
     </g>
     <g id="line2d_37">
      <g>
       <use style="stroke:#000000;stroke-width:0.5;" x="488.147589375" xlink:href="#mcb0005524f" y="50.5987809375"/>
      </g>
     </g>
     <g id="text_18">
      <!-- 140 -->
      <g transform="translate(22.56772625 53.195398125)scale(0.09996 -0.09996)">
       <use xlink:href="#WenQuanYiMicroHei-31"/>
       <use x="55.078125" xlink:href="#WenQuanYiMicroHei-34"/>
       <use x="110.15625" xlink:href="#WenQuanYiMicroHei-30"/>
      </g>
     </g>
    </g>
    <g id="ytick_10">
     <g id="line2d_38">
      <g>
       <use style="stroke:#000000;stroke-width:0.5;" x="41.747589375" xlink:href="#m728421d6d4" y="12.1987809375"/>
      </g>
     </g>
     <g id="line2d_39">
      <g>
       <use style="stroke:#000000;stroke-width:0.5;" x="488.147589375" xlink:href="#mcb0005524f" y="12.1987809375"/>
      </g>
     </g>
     <g id="text_19">
      <!-- 160 -->
      <g transform="translate(22.56772625 14.795398125)scale(0.09996 -0.09996)">
       <use xlink:href="#WenQuanYiMicroHei-31"/>
       <use x="55.078125" xlink:href="#WenQuanYiMicroHei-36"/>
       <use x="110.15625" xlink:href="#WenQuanYiMicroHei-30"/>
      </g>
     </g>
    </g>
    <g id="text_20">
     <!-- End -->
     <defs>
      <path d="
M41.6094 7.17188
L41.2188 7.17188
Q40.1406 5.51562 38.6875 4.03125
Q37.25 2.54688 35.375 1.42188
Q33.5 0.296875 31.1562 -0.34375
Q28.8125 -0.984375 25.875 -0.984375
Q21.3438 -0.984375 17.5781 0.78125
Q13.8125 2.54688 11.125 6.03125
Q8.45312 9.51562 6.98438 14.6875
Q5.51562 19.875 5.51562 26.7031
Q5.51562 33.5938 6.98438 38.7969
Q8.45312 44 11.125 47.5156
Q13.8125 51.0312 17.5781 52.8125
Q21.3438 54.5938 25.875 54.5938
Q28.7656 54.5938 31.1094 53.9531
Q33.4531 53.3281 35.3281 52.25
Q37.2031 51.1719 38.6719 49.75
Q40.1406 48.3438 41.2188 46.7812
L41.7969 46.7812
Q41.6562 48.4375 41.5 49.9531
Q41.4062 51.2188 41.3125 52.5625
Q41.2188 53.9062 41.2188 54.6875
L41.2188 75.9844
L50.0938 75.9844
L50.0938 0
L42.9219 0
z

M27.5938 6.39062
Q31.2969 6.39062 33.8594 7.51562
Q36.4219 8.64062 38 10.9375
Q39.5938 13.2344 40.3438 16.6719
Q41.1094 20.125 41.2188 24.7031
L41.2188 26.7031
Q41.2188 31.6406 40.5469 35.4688
Q39.8906 39.3125 38.2969 41.9219
Q36.7188 44.5312 34.0781 45.875
Q31.4531 47.2188 27.4844 47.2188
Q20.9062 47.2188 17.7969 41.8906
Q14.7031 36.5781 14.7031 26.6094
Q14.7031 16.4062 17.7969 11.3906
Q20.9062 6.39062 27.5938 6.39062" id="WenQuanYiMicroHei-64"/>
      <path d="
M42 0
L42 34.5156
Q42 40.875 39.4219 44.0469
Q36.8594 47.2188 31.3906 47.2188
Q27.4375 47.2188 24.75 45.9375
Q22.0781 44.6719 20.4375 42.1875
Q18.7969 39.7031 18.0938 36.0781
Q17.3906 32.4688 17.3906 27.7812
L17.3906 0
L8.5 0
L8.5 53.6094
L15.7188 53.6094
L17 46.3906
L17.4844 46.3906
Q18.7031 48.4844 20.3906 50.0156
Q22.0781 51.5625 24.0781 52.5781
Q26.0781 53.6094 28.3125 54.0938
Q30.5625 54.5938 32.9062 54.5938
Q41.8438 54.5938 46.3594 49.9219
Q50.875 45.2656 50.875 35.0156
L50.875 0
z
" id="WenQuanYiMicroHei-6e"/>
      <path d="
M46.7812 0
L9.71875 0
L9.71875 71.3906
L46.7812 71.3906
L46.7812 63.375
L18.7969 63.375
L18.7969 41.3125
L44.9219 41.3125
L44.9219 33.4062
L18.7969 33.4062
L18.7969 8.01562
L46.7812 8.01562
z
" id="WenQuanYiMicroHei-45"/>
     </defs>
     <g transform="translate(14.795398125 192.59808375)rotate(-90.0)scale(0.09996 -0.09996)">
      <use xlink:href="#WenQuanYiMicroHei-45"/>
      <use x="52.783203125" xlink:href="#WenQuanYiMicroHei-6e"/>
      <use x="111.669921875" xlink:href="#WenQuanYiMicroHei-64"/>
     </g>
    </g>
   </g>
  </g>
 </g>
 <defs>
  <clipPath id="p76930340b4">
   <rect height="345.6" width="446.4" x="41.747589375" y="12.1987809375"/>
  </clipPath>
 </defs>
</svg>
