<?xml version="1.0" encoding="UTF-8" standalone="no"?>
<!DOCTYPE svg PUBLIC "-//W3C//DTD SVG 1.1//EN"
 "http://www.w3.org/Graphics/SVG/1.1/DTD/svg11.dtd">
<!-- Generated by graphviz version 2.38.0 (20140413.2041)
 -->
<!-- Title: structs Pages: 1 -->
<svg width="775pt" height="771pt"
 viewBox="0.00 0.00 775.00 771.00" xmlns="http://www.w3.org/2000/svg" xmlns:xlink="http://www.w3.org/1999/xlink">
<g id="graph0" class="graph" transform="scale(1 1) rotate(0) translate(4 767)">
<title>structs</title>
<polygon fill="white" stroke="none" points="-4,4 -4,-767 771,-767 771,4 -4,4"/>
<!-- obj_207791344 -->
<g id="node1" class="node"><title>obj_207791344</title>
<polygon fill="white" stroke="black" points="0,-202.5 0,-238.5 77,-238.5 77,-202.5 0,-202.5"/>
<text text-anchor="middle" x="38.5" y="-216.8" font-family="Times New Roman,serif" font-size="14.00">DataFrame</text>
</g>
<!-- obj_207790128 -->
<g id="node2" class="node"><title>obj_207790128</title>
<polygon fill="white" stroke="black" points="157.5,-580.5 157.5,-616.5 234.5,-616.5 234.5,-580.5 157.5,-580.5"/>
<text text-anchor="middle" x="196" y="-594.8" font-family="Times New Roman,serif" font-size="14.00">MultiIndex</text>
</g>
<!-- obj_207791344&#45;&gt;obj_207790128 -->
<g id="edge16" class="edge"><title>obj_207791344&#45;&gt;obj_207790128</title>
<path fill="none" stroke="black" stroke-width="0.5" d="M47.0001,-238.732C72.147,-299.86 153.579,-497.81 183.68,-570.982"/>
<polygon fill="black" stroke="black" stroke-width="0.5" points="180.534,-572.535 187.575,-580.451 187.008,-569.872 180.534,-572.535"/>
<text text-anchor="middle" x="112" y="-435.5" font-family="Times New Roman,serif" font-size="10.00">index</text>
</g>
<!-- obj_207790448 -->
<g id="node18" class="node"><title>obj_207790448</title>
<polygon fill="white" stroke="black" points="169,-280.5 169,-316.5 223,-316.5 223,-280.5 169,-280.5"/>
<text text-anchor="middle" x="196" y="-294.8" font-family="Times New Roman,serif" font-size="14.00">Index</text>
</g>
<!-- obj_207791344&#45;&gt;obj_207790448 -->
<g id="edge17" class="edge"><title>obj_207791344&#45;&gt;obj_207790448</title>
<path fill="none" stroke="black" stroke-width="0.5" d="M75.3167,-238.593C81.8628,-241.894 88.6349,-245.303 95,-248.5 116.465,-259.281 140.545,-271.322 159.696,-280.887"/>
<polygon fill="black" stroke="black" stroke-width="0.5" points="158.158,-284.031 168.669,-285.367 161.285,-277.768 158.158,-284.031"/>
<text text-anchor="middle" x="112" y="-268.5" font-family="Times New Roman,serif" font-size="10.00">columns</text>
</g>
<!-- obj_210377768 -->
<g id="node19" class="node"><title>obj_210377768</title>
<polygon fill="white" stroke="black" points="166.5,-225.5 166.5,-261.5 225.5,-261.5 225.5,-225.5 166.5,-225.5"/>
<text text-anchor="middle" x="196" y="-239.8" font-family="Times New Roman,serif" font-size="14.00">ndarray</text>
</g>
<!-- obj_207791344&#45;&gt;obj_210377768 -->
<g id="edge18" class="edge"><title>obj_207791344&#45;&gt;obj_210377768</title>
<path fill="none" stroke="black" stroke-width="0.5" stroke-dasharray="5,2" d="M77.1422,-226.068C101.209,-229.627 132.335,-234.231 156.556,-237.814"/>
<polygon fill="black" stroke="black" stroke-width="0.5" points="156.069,-241.28 166.473,-239.281 157.093,-234.355 156.069,-241.28"/>
<text text-anchor="middle" x="112" y="-236.5" font-family="Times New Roman,serif" font-size="10.00">values</text>
</g>
<!-- obj_207894256 -->
<g id="node20" class="node"><title>obj_207894256</title>
<polygon fill="white" stroke="black" points="147,-170.5 147,-206.5 245,-206.5 245,-170.5 147,-170.5"/>
<text text-anchor="middle" x="196" y="-184.8" font-family="Times New Roman,serif" font-size="14.00">BlockManager</text>
</g>
<!-- obj_207791344&#45;&gt;obj_207894256 -->
<g id="edge30" class="edge"><title>obj_207791344&#45;&gt;obj_207894256</title>
<path fill="none" stroke="black" stroke-width="0.5" d="M77.1422,-212.754C95.0583,-209.067 116.887,-204.575 136.867,-200.463"/>
<polygon fill="black" stroke="black" stroke-width="0.5" points="137.718,-203.861 146.807,-198.417 136.307,-197.005 137.718,-203.861"/>
<text text-anchor="middle" x="112" y="-211.5" font-family="Times New Roman,serif" font-size="10.00">_data</text>
</g>
<!-- obj_210418832 -->
<g id="node32" class="node"><title>obj_210418832</title>
<polygon fill="gray" stroke="black" points="147,-71 147,-140 245,-140 245,-71 147,-71"/>
<text text-anchor="middle" x="196" y="-124.8" font-family="Times New Roman,serif" font-size="14.00">object</text>
<polyline fill="none" stroke="black" points="147,-117 245,-117 "/>
<text text-anchor="middle" x="196" y="-101.8" font-family="Times New Roman,serif" font-size="14.00">datetime64[ns]</text>
<polyline fill="none" stroke="black" points="147,-94 245,-94 "/>
<text text-anchor="middle" x="196" y="-78.8" font-family="Times New Roman,serif" font-size="14.00">float64</text>
</g>
<!-- obj_207791344&#45;&gt;obj_210418832 -->
<g id="edge34" class="edge"><title>obj_207791344&#45;&gt;obj_210418832</title>
<path fill="none" stroke="black" stroke-width="0.5" stroke-dasharray="5,2" d="M64.1394,-202.278C84.4628,-187.248 114.06,-165.359 139.968,-146.199"/>
<polygon fill="black" stroke="black" stroke-width="0.5" points="142.275,-148.846 148.234,-140.086 138.112,-143.218 142.275,-148.846"/>
<text text-anchor="middle" x="112" y="-180.5" font-family="Times New Roman,serif" font-size="10.00">blocks</text>
</g>
<!-- obj_210377184 -->
<g id="node36" class="node"><title>obj_210377184</title>
<polygon fill="gray" stroke="black" points="169,-5.5 169,-51.5 223,-51.5 223,-5.5 169,-5.5"/>
<text text-anchor="middle" x="196" y="-36.3" font-family="Times New Roman,serif" font-size="14.00">6</text>
<polyline fill="none" stroke="black" points="169,-28.5 223,-28.5 "/>
<text text-anchor="middle" x="196" y="-13.3" font-family="Times New Roman,serif" font-size="14.00">6</text>
</g>
<!-- obj_207791344&#45;&gt;obj_210377184 -->
<g id="edge35" class="edge"><title>obj_207791344&#45;&gt;obj_210377184</title>
<path fill="none" stroke="black" stroke-width="0.5" stroke-dasharray="5,2" d="M48.8855,-202.217C65.5841,-170.873 102.877,-105.968 147,-61.5 151.007,-57.4621 155.57,-53.6054 160.252,-50.0452"/>
<polygon fill="black" stroke="black" stroke-width="0.5" points="162.623,-52.652 168.713,-43.9822 158.546,-46.962 162.623,-52.652"/>
<text text-anchor="middle" x="112" y="-126.5" font-family="Times New Roman,serif" font-size="10.00">shape</text>
</g>
<!-- obj_207815968 -->
<g id="node3" class="node"><title>obj_207815968</title>
<polygon fill="white" stroke="black" points="330.5,-726.5 330.5,-762.5 389.5,-762.5 389.5,-726.5 330.5,-726.5"/>
<text text-anchor="middle" x="360" y="-740.8" font-family="Times New Roman,serif" font-size="14.00">ndarray</text>
</g>
<!-- obj_207790128&#45;&gt;obj_207815968 -->
<g id="edge1" class="edge"><title>obj_207790128&#45;&gt;obj_207815968</title>
<path fill="none" stroke="black" stroke-width="0.5" stroke-dasharray="5,2" d="M212.361,-616.906C233.579,-641.641 273.808,-686.119 314,-717.5 316.435,-719.401 319.014,-721.272 321.657,-723.088"/>
<polygon fill="black" stroke="black" stroke-width="0.5" points="319.926,-726.138 330.215,-728.668 323.75,-720.274 319.926,-726.138"/>
<text text-anchor="middle" x="279.5" y="-702.5" font-family="Times New Roman,serif" font-size="10.00">values</text>
</g>
<!-- obj_210391536 -->
<g id="node4" class="node"><title>obj_210391536</title>
<polygon fill="gray" stroke="black" points="333,-671.5 333,-707.5 387,-707.5 387,-671.5 333,-671.5"/>
<text text-anchor="middle" x="360" y="-685.8" font-family="Times New Roman,serif" font-size="14.00">6</text>
</g>
<!-- obj_207790128&#45;&gt;obj_210391536 -->
<g id="edge2" class="edge"><title>obj_207790128&#45;&gt;obj_210391536</title>
<path fill="none" stroke="black" stroke-width="0.5" stroke-dasharray="5,2" d="M229.394,-616.696C256.687,-632.028 295.663,-653.922 323.737,-669.692"/>
<polygon fill="black" stroke="black" stroke-width="0.5" points="322.374,-672.94 332.807,-674.786 325.802,-666.837 322.374,-672.94"/>
<text text-anchor="middle" x="279.5" y="-654.5" font-family="Times New Roman,serif" font-size="10.00">shape</text>
</g>
<!-- obj_207895280 -->
<g id="node5" class="node"><title>obj_207895280</title>
<polygon fill="white" stroke="black" points="314,-616.5 314,-652.5 406,-652.5 406,-616.5 314,-616.5"/>
<text text-anchor="middle" x="360" y="-630.8" font-family="Times New Roman,serif" font-size="14.00">ObjectEngine</text>
</g>
<!-- obj_207790128&#45;&gt;obj_207895280 -->
<g id="edge4" class="edge"><title>obj_207790128&#45;&gt;obj_207895280</title>
<path fill="none" stroke="black" stroke-width="0.5" d="M234.573,-606.85C255.173,-611.427 281.092,-617.187 303.935,-622.263"/>
<polygon fill="black" stroke="black" stroke-width="0.5" points="303.326,-625.713 313.847,-624.466 304.844,-618.88 303.326,-625.713"/>
<text text-anchor="middle" x="279.5" y="-623.5" font-family="Times New Roman,serif" font-size="10.00">_engine</text>
</g>
<!-- obj_208974832 -->
<g id="node7" class="node"><title>obj_208974832</title>
<polygon fill="gray" stroke="black" points="333,-551.5 333,-597.5 387,-597.5 387,-551.5 333,-551.5"/>
<text text-anchor="middle" x="360" y="-582.3" font-family="Times New Roman,serif" font-size="14.00">*</text>
<polyline fill="none" stroke="black" points="333,-574.5 387,-574.5 "/>
<text text-anchor="middle" x="360" y="-559.3" font-family="Times New Roman,serif" font-size="14.00">*</text>
</g>
<!-- obj_207790128&#45;&gt;obj_208974832 -->
<g id="edge7" class="edge"><title>obj_207790128&#45;&gt;obj_208974832</title>
<path fill="none" stroke="black" stroke-width="0.5" stroke-dasharray="5,2" d="M234.689,-592.753C243.945,-591.351 253.83,-589.863 263,-588.5 282.776,-585.56 304.852,-582.336 322.844,-579.724"/>
<polygon fill="black" stroke="black" stroke-width="0.5" points="323.523,-583.163 332.917,-578.264 322.519,-576.235 323.523,-583.163"/>
<text text-anchor="middle" x="279.5" y="-591.5" font-family="Times New Roman,serif" font-size="10.00">labels</text>
</g>
<!-- obj_207686704 -->
<g id="node10" class="node"><title>obj_207686704</title>
<polygon fill="gray" stroke="black" points="333,-472.5 333,-518.5 387,-518.5 387,-472.5 333,-472.5"/>
<text text-anchor="middle" x="360" y="-503.3" font-family="Times New Roman,serif" font-size="14.00">*</text>
<polyline fill="none" stroke="black" points="333,-495.5 387,-495.5 "/>
<text text-anchor="middle" x="360" y="-480.3" font-family="Times New Roman,serif" font-size="14.00">*</text>
</g>
<!-- obj_207790128&#45;&gt;obj_207686704 -->
<g id="edge15" class="edge"><title>obj_207790128&#45;&gt;obj_207686704</title>
<path fill="none" stroke="black" stroke-width="0.5" stroke-dasharray="5,2" d="M225.589,-580.323C253.084,-562.842 294.697,-536.384 324.126,-517.673"/>
<polygon fill="black" stroke="black" stroke-width="0.5" points="326.277,-520.453 332.838,-512.134 322.522,-514.546 326.277,-520.453"/>
<text text-anchor="middle" x="279.5" y="-559.5" font-family="Times New Roman,serif" font-size="10.00">levels</text>
</g>
<!-- obj_204204944 -->
<g id="node6" class="node"><title>obj_204204944</title>
<polygon fill="white" stroke="black" points="477,-654.5 477,-690.5 606,-690.5 606,-654.5 477,-654.5"/>
<text text-anchor="middle" x="541.5" y="-668.8" font-family="Times New Roman,serif" font-size="14.00">PyObjectHashTable</text>
</g>
<!-- obj_207895280&#45;&gt;obj_204204944 -->
<g id="edge3" class="edge"><title>obj_207895280&#45;&gt;obj_204204944</title>
<path fill="none" stroke="black" stroke-width="0.5" d="M406.295,-644.089C424.682,-647.981 446.398,-652.579 466.943,-656.928"/>
<polygon fill="black" stroke="black" stroke-width="0.5" points="466.407,-660.392 476.915,-659.039 467.857,-653.544 466.407,-660.392"/>
<text text-anchor="middle" x="441.5" y="-657.5" font-family="Times New Roman,serif" font-size="10.00">mapping</text>
</g>
<!-- obj_207894064 -->
<g id="node8" class="node"><title>obj_207894064</title>
<polygon fill="white" stroke="black" points="488,-599.5 488,-635.5 595,-635.5 595,-599.5 488,-599.5"/>
<text text-anchor="middle" x="541.5" y="-613.8" font-family="Times New Roman,serif" font-size="14.00">FrozenNDArray</text>
</g>
<!-- obj_208974832&#45;&gt;obj_207894064 -->
<g id="edge5" class="edge"><title>obj_208974832:f0&#45;&gt;obj_207894064</title>
<path fill="none" stroke="black" stroke-width="0.5" d="M388,-586.5C417.957,-586.5 450.574,-592.316 477.925,-598.909"/>
<polygon fill="black" stroke="black" stroke-width="0.5" points="477.199,-602.335 487.749,-601.364 478.896,-595.544 477.199,-602.335"/>
</g>
<!-- obj_207894896 -->
<g id="node9" class="node"><title>obj_207894896</title>
<polygon fill="white" stroke="black" points="488,-544.5 488,-580.5 595,-580.5 595,-544.5 488,-544.5"/>
<text text-anchor="middle" x="541.5" y="-558.8" font-family="Times New Roman,serif" font-size="14.00">FrozenNDArray</text>
</g>
<!-- obj_208974832&#45;&gt;obj_207894896 -->
<g id="edge6" class="edge"><title>obj_208974832:f1&#45;&gt;obj_207894896</title>
<path fill="none" stroke="black" stroke-width="0.5" d="M388,-562.5C417.463,-562.5 450.128,-562.5 477.644,-562.5"/>
<polygon fill="black" stroke="black" stroke-width="0.5" points="477.92,-566 487.92,-562.5 477.92,-559 477.92,-566"/>
</g>
<!-- obj_207790320 -->
<g id="node11" class="node"><title>obj_207790320</title>
<polygon fill="white" stroke="black" points="514.5,-489.5 514.5,-525.5 568.5,-525.5 568.5,-489.5 514.5,-489.5"/>
<text text-anchor="middle" x="541.5" y="-503.8" font-family="Times New Roman,serif" font-size="14.00">Index</text>
</g>
<!-- obj_207686704&#45;&gt;obj_207790320 -->
<g id="edge13" class="edge"><title>obj_207686704:f0&#45;&gt;obj_207790320</title>
<path fill="none" stroke="black" stroke-width="0.5" d="M388,-507.5C427.67,-507.5 473.144,-507.5 504.038,-507.5"/>
<polygon fill="black" stroke="black" stroke-width="0.5" points="504.325,-511 514.325,-507.5 504.325,-504 504.325,-511"/>
</g>
<!-- obj_207790384 -->
<g id="node17" class="node"><title>obj_207790384</title>
<polygon fill="white" stroke="black" points="514.5,-434.5 514.5,-470.5 568.5,-470.5 568.5,-434.5 514.5,-434.5"/>
<text text-anchor="middle" x="541.5" y="-448.8" font-family="Times New Roman,serif" font-size="14.00">Index</text>
</g>
<!-- obj_207686704&#45;&gt;obj_207790384 -->
<g id="edge14" class="edge"><title>obj_207686704:f1&#45;&gt;obj_207790384</title>
<path fill="none" stroke="black" stroke-width="0.5" d="M388,-483.5C428.536,-483.5 473.941,-472.851 504.583,-464.036"/>
<polygon fill="black" stroke="black" stroke-width="0.5" points="505.785,-467.331 514.38,-461.135 503.798,-460.619 505.785,-467.331"/>
</g>
<!-- obj_210377448 -->
<g id="node12" class="node"><title>obj_210377448</title>
<polygon fill="white" stroke="black" points="691.5,-627.5 691.5,-663.5 750.5,-663.5 750.5,-627.5 691.5,-627.5"/>
<text text-anchor="middle" x="721" y="-641.8" font-family="Times New Roman,serif" font-size="14.00">ndarray</text>
</g>
<!-- obj_207790320&#45;&gt;obj_210377448 -->
<g id="edge8" class="edge"><title>obj_207790320&#45;&gt;obj_210377448</title>
<path fill="none" stroke="black" stroke-width="0.5" stroke-dasharray="5,2" d="M568.802,-513.893C581.327,-518.042 595.768,-524.574 606,-534.5 619.702,-547.792 612.513,-558.253 624,-573.5 642.014,-597.41 650.885,-599.761 675,-617.5 677.594,-619.408 680.32,-621.318 683.093,-623.194"/>
<polygon fill="black" stroke="black" stroke-width="0.5" points="681.187,-626.129 691.47,-628.68 685.023,-620.273 681.187,-626.129"/>
<text text-anchor="middle" x="640.5" y="-608.5" font-family="Times New Roman,serif" font-size="10.00">values</text>
</g>
<!-- obj_208033696 -->
<g id="node13" class="node"><title>obj_208033696</title>
<polygon fill="white" stroke="black" points="693,-572.5 693,-608.5 749,-608.5 749,-572.5 693,-572.5"/>
<text text-anchor="middle" x="721" y="-586.8" font-family="Times New Roman,serif" font-size="14.00">&#39;Depth&#39;</text>
</g>
<!-- obj_207790320&#45;&gt;obj_208033696 -->
<g id="edge9" class="edge"><title>obj_207790320&#45;&gt;obj_208033696</title>
<path fill="none" stroke="black" stroke-width="0.5" d="M568.592,-518.217C580.121,-523.049 593.801,-528.915 606,-534.5 632.14,-546.467 661.222,-560.769 683.47,-571.924"/>
<polygon fill="black" stroke="black" stroke-width="0.5" points="682.052,-575.129 692.558,-576.496 685.198,-568.875 682.052,-575.129"/>
<text text-anchor="middle" x="640.5" y="-561.5" font-family="Times New Roman,serif" font-size="10.00">name</text>
</g>
<!-- obj_207613688 -->
<g id="node14" class="node"><title>obj_207613688</title>
<polygon fill="white" stroke="black" points="691.5,-517.5 691.5,-553.5 750.5,-553.5 750.5,-517.5 691.5,-517.5"/>
<text text-anchor="middle" x="721" y="-531.8" font-family="Times New Roman,serif" font-size="14.00">ndarray</text>
</g>
<!-- obj_207790320&#45;&gt;obj_207613688 -->
<g id="edge10" class="edge"><title>obj_207790320&#45;&gt;obj_207613688</title>
<path fill="none" stroke="black" stroke-width="0.5" d="M568.691,-511.631C598.405,-516.319 647.154,-524.009 681.267,-529.39"/>
<polygon fill="black" stroke="black" stroke-width="0.5" points="680.923,-532.879 691.346,-530.98 682.014,-525.964 680.923,-532.879"/>
<text text-anchor="middle" x="640.5" y="-528.5" font-family="Times New Roman,serif" font-size="10.00">_data</text>
</g>
<!-- obj_210391824 -->
<g id="node15" class="node"><title>obj_210391824</title>
<polygon fill="gray" stroke="black" points="694,-462.5 694,-498.5 748,-498.5 748,-462.5 694,-462.5"/>
<text text-anchor="middle" x="721" y="-476.8" font-family="Times New Roman,serif" font-size="14.00">2</text>
</g>
<!-- obj_207790320&#45;&gt;obj_210391824 -->
<g id="edge11" class="edge"><title>obj_207790320&#45;&gt;obj_210391824</title>
<path fill="none" stroke="black" stroke-width="0.5" stroke-dasharray="5,2" d="M568.691,-503.516C599.191,-498.877 649.749,-491.186 683.944,-485.985"/>
<polygon fill="black" stroke="black" stroke-width="0.5" points="684.631,-489.42 693.991,-484.456 683.578,-482.5 684.631,-489.42"/>
<text text-anchor="middle" x="640.5" y="-498.5" font-family="Times New Roman,serif" font-size="10.00">shape</text>
</g>
<!-- obj_207892848 -->
<g id="node16" class="node"><title>obj_207892848</title>
<polygon fill="white" stroke="black" points="675,-407.5 675,-443.5 767,-443.5 767,-407.5 675,-407.5"/>
<text text-anchor="middle" x="721" y="-421.8" font-family="Times New Roman,serif" font-size="14.00">ObjectEngine</text>
</g>
<!-- obj_207790320&#45;&gt;obj_207892848 -->
<g id="edge12" class="edge"><title>obj_207790320&#45;&gt;obj_207892848</title>
<path fill="none" stroke="black" stroke-width="0.5" d="M568.523,-496.215C580.039,-491.172 593.728,-485.111 606,-479.5 628.28,-469.313 652.857,-457.718 673.469,-447.89"/>
<polygon fill="black" stroke="black" stroke-width="0.5" points="675.123,-450.979 682.638,-443.51 672.105,-444.663 675.123,-450.979"/>
<text text-anchor="middle" x="640.5" y="-474.5" font-family="Times New Roman,serif" font-size="10.00">_engine</text>
</g>
<!-- obj_207916088 -->
<g id="node21" class="node"><title>obj_207916088</title>
<polygon fill="gray" stroke="black" points="333,-231 333,-300 387,-300 387,-231 333,-231"/>
<text text-anchor="middle" x="360" y="-284.8" font-family="Times New Roman,serif" font-size="14.00">*</text>
<polyline fill="none" stroke="black" points="333,-277 387,-277 "/>
<text text-anchor="middle" x="360" y="-261.8" font-family="Times New Roman,serif" font-size="14.00">*</text>
<polyline fill="none" stroke="black" points="333,-254 387,-254 "/>
<text text-anchor="middle" x="360" y="-238.8" font-family="Times New Roman,serif" font-size="14.00">*</text>
</g>
<!-- obj_207894256&#45;&gt;obj_207916088 -->
<g id="edge28" class="edge"><title>obj_207894256&#45;&gt;obj_207916088</title>
<path fill="none" stroke="black" stroke-width="0.5" d="M234.982,-206.553C261.802,-219.301 297.486,-236.262 323.689,-248.717"/>
<polygon fill="black" stroke="black" stroke-width="0.5" points="322.346,-251.953 332.881,-253.085 325.351,-245.631 322.346,-251.953"/>
<text text-anchor="middle" x="279.5" y="-237.5" font-family="Times New Roman,serif" font-size="10.00">blocks</text>
</g>
<!-- obj_210437024 -->
<g id="node31" class="node"><title>obj_210437024</title>
<polygon fill="gray" stroke="black" points="333,-165.5 333,-211.5 387,-211.5 387,-165.5 333,-165.5"/>
<text text-anchor="middle" x="360" y="-196.3" font-family="Times New Roman,serif" font-size="14.00">6</text>
<polyline fill="none" stroke="black" points="333,-188.5 387,-188.5 "/>
<text text-anchor="middle" x="360" y="-173.3" font-family="Times New Roman,serif" font-size="14.00">6</text>
</g>
<!-- obj_207894256&#45;&gt;obj_210437024 -->
<g id="edge29" class="edge"><title>obj_207894256&#45;&gt;obj_210437024</title>
<path fill="none" stroke="black" stroke-width="0.5" stroke-dasharray="5,2" d="M245.167,-188.5C269.966,-188.5 299.707,-188.5 322.57,-188.5"/>
<polygon fill="black" stroke="black" stroke-width="0.5" points="322.868,-192 332.868,-188.5 322.868,-185 322.868,-192"/>
<text text-anchor="middle" x="279.5" y="-191.5" font-family="Times New Roman,serif" font-size="10.00">shape</text>
</g>
<!-- obj_208975120 -->
<g id="node22" class="node"><title>obj_208975120</title>
<polygon fill="white" stroke="black" points="502.5,-292.5 502.5,-328.5 580.5,-328.5 580.5,-292.5 502.5,-292.5"/>
<text text-anchor="middle" x="541.5" y="-306.8" font-family="Times New Roman,serif" font-size="14.00">FloatBlock</text>
</g>
<!-- obj_207916088&#45;&gt;obj_208975120 -->
<g id="edge21" class="edge"><title>obj_207916088:f0&#45;&gt;obj_208975120</title>
<path fill="none" stroke="black" stroke-width="0.5" d="M388,-288.5C423.175,-288.5 462.45,-294.305 492.333,-299.951"/>
<polygon fill="black" stroke="black" stroke-width="0.5" points="492.004,-303.452 502.489,-301.931 493.344,-296.582 492.004,-303.452"/>
</g>
<!-- obj_208974544 -->
<g id="node25" class="node"><title>obj_208974544</title>
<polygon fill="white" stroke="black" points="492.5,-232.5 492.5,-268.5 590.5,-268.5 590.5,-232.5 492.5,-232.5"/>
<text text-anchor="middle" x="541.5" y="-246.8" font-family="Times New Roman,serif" font-size="14.00">DatetimeBlock</text>
</g>
<!-- obj_207916088&#45;&gt;obj_208974544 -->
<g id="edge24" class="edge"><title>obj_207916088:f1&#45;&gt;obj_208974544</title>
<path fill="none" stroke="black" stroke-width="0.5" d="M388,-265.5C419.157,-265.5 453.724,-262.361 482.059,-258.954"/>
<polygon fill="black" stroke="black" stroke-width="0.5" points="482.708,-262.401 492.199,-257.692 481.843,-255.454 482.708,-262.401"/>
</g>
<!-- obj_208975456 -->
<g id="node28" class="node"><title>obj_208975456</title>
<polygon fill="white" stroke="black" points="498,-112.5 498,-148.5 585,-148.5 585,-112.5 498,-112.5"/>
<text text-anchor="middle" x="541.5" y="-126.8" font-family="Times New Roman,serif" font-size="14.00">ObjectBlock</text>
</g>
<!-- obj_207916088&#45;&gt;obj_208975456 -->
<g id="edge27" class="edge"><title>obj_207916088:f2&#45;&gt;obj_208975456</title>
<path fill="none" stroke="black" stroke-width="0.5" d="M388,-242.5C445.537,-242.5 495.73,-190.069 521.694,-156.954"/>
<polygon fill="black" stroke="black" stroke-width="0.5" points="524.483,-159.069 527.763,-148.995 518.916,-154.825 524.483,-159.069"/>
</g>
<!-- obj_208145848 -->
<g id="node23" class="node"><title>obj_208145848</title>
<polygon fill="white" stroke="black" points="691.5,-352.5 691.5,-388.5 750.5,-388.5 750.5,-352.5 691.5,-352.5"/>
<text text-anchor="middle" x="721" y="-366.8" font-family="Times New Roman,serif" font-size="14.00">ndarray</text>
</g>
<!-- obj_208975120&#45;&gt;obj_208145848 -->
<g id="edge19" class="edge"><title>obj_208975120&#45;&gt;obj_208145848</title>
<path fill="none" stroke="black" stroke-width="0.5" d="M580.578,-323.372C610.414,-333.457 651.739,-347.426 681.645,-357.535"/>
<polygon fill="black" stroke="black" stroke-width="0.5" points="680.722,-360.918 691.317,-360.804 682.964,-354.286 680.722,-360.918"/>
<text text-anchor="middle" x="640.5" y="-351.5" font-family="Times New Roman,serif" font-size="10.00">values</text>
</g>
<!-- obj_210377104 -->
<g id="node24" class="node"><title>obj_210377104</title>
<polygon fill="gray" stroke="black" points="694,-287.5 694,-333.5 748,-333.5 748,-287.5 694,-287.5"/>
<text text-anchor="middle" x="721" y="-318.3" font-family="Times New Roman,serif" font-size="14.00">4</text>
<polyline fill="none" stroke="black" points="694,-310.5 748,-310.5 "/>
<text text-anchor="middle" x="721" y="-295.3" font-family="Times New Roman,serif" font-size="14.00">6</text>
</g>
<!-- obj_208975120&#45;&gt;obj_210377104 -->
<g id="edge20" class="edge"><title>obj_208975120&#45;&gt;obj_210377104</title>
<path fill="none" stroke="black" stroke-width="0.5" stroke-dasharray="5,2" d="M580.578,-310.5C611.104,-310.5 653.658,-310.5 683.703,-310.5"/>
<polygon fill="black" stroke="black" stroke-width="0.5" points="683.768,-314 693.768,-310.5 683.768,-307 683.768,-314"/>
<text text-anchor="middle" x="640.5" y="-313.5" font-family="Times New Roman,serif" font-size="10.00">shape</text>
</g>
<!-- obj_208142888 -->
<g id="node26" class="node"><title>obj_208142888</title>
<polygon fill="white" stroke="black" points="691.5,-232.5 691.5,-268.5 750.5,-268.5 750.5,-232.5 691.5,-232.5"/>
<text text-anchor="middle" x="721" y="-246.8" font-family="Times New Roman,serif" font-size="14.00">ndarray</text>
</g>
<!-- obj_208974544&#45;&gt;obj_208142888 -->
<g id="edge22" class="edge"><title>obj_208974544&#45;&gt;obj_208142888</title>
<path fill="none" stroke="black" stroke-width="0.5" d="M590.534,-250.5C618.995,-250.5 654.587,-250.5 681.247,-250.5"/>
<polygon fill="black" stroke="black" stroke-width="0.5" points="681.354,-254 691.354,-250.5 681.354,-247 681.354,-254"/>
<text text-anchor="middle" x="640.5" y="-253.5" font-family="Times New Roman,serif" font-size="10.00">values</text>
</g>
<!-- obj_210378224 -->
<g id="node27" class="node"><title>obj_210378224</title>
<polygon fill="gray" stroke="black" points="694,-167.5 694,-213.5 748,-213.5 748,-167.5 694,-167.5"/>
<text text-anchor="middle" x="721" y="-198.3" font-family="Times New Roman,serif" font-size="14.00">1</text>
<polyline fill="none" stroke="black" points="694,-190.5 748,-190.5 "/>
<text text-anchor="middle" x="721" y="-175.3" font-family="Times New Roman,serif" font-size="14.00">6</text>
</g>
<!-- obj_208974544&#45;&gt;obj_210378224 -->
<g id="edge23" class="edge"><title>obj_208974544&#45;&gt;obj_210378224</title>
<path fill="none" stroke="black" stroke-width="0.5" stroke-dasharray="5,2" d="M590.534,-234.263C620.031,-224.292 657.189,-211.732 684.123,-202.627"/>
<polygon fill="black" stroke="black" stroke-width="0.5" points="685.555,-205.838 693.908,-199.32 683.313,-199.207 685.555,-205.838"/>
<text text-anchor="middle" x="640.5" y="-225.5" font-family="Times New Roman,serif" font-size="10.00">shape</text>
</g>
<!-- obj_207612768 -->
<g id="node29" class="node"><title>obj_207612768</title>
<polygon fill="white" stroke="black" points="691.5,-112.5 691.5,-148.5 750.5,-148.5 750.5,-112.5 691.5,-112.5"/>
<text text-anchor="middle" x="721" y="-126.8" font-family="Times New Roman,serif" font-size="14.00">ndarray</text>
</g>
<!-- obj_208975456&#45;&gt;obj_207612768 -->
<g id="edge25" class="edge"><title>obj_208975456&#45;&gt;obj_207612768</title>
<path fill="none" stroke="black" stroke-width="0.5" d="M585.016,-130.5C614.209,-130.5 652.661,-130.5 681.056,-130.5"/>
<polygon fill="black" stroke="black" stroke-width="0.5" points="681.405,-134 691.405,-130.5 681.405,-127 681.405,-134"/>
<text text-anchor="middle" x="640.5" y="-133.5" font-family="Times New Roman,serif" font-size="10.00">values</text>
</g>
<!-- obj_210377304 -->
<g id="node30" class="node"><title>obj_210377304</title>
<polygon fill="gray" stroke="black" points="694,-47.5 694,-93.5 748,-93.5 748,-47.5 694,-47.5"/>
<text text-anchor="middle" x="721" y="-78.3" font-family="Times New Roman,serif" font-size="14.00">1</text>
<polyline fill="none" stroke="black" points="694,-70.5 748,-70.5 "/>
<text text-anchor="middle" x="721" y="-55.3" font-family="Times New Roman,serif" font-size="14.00">6</text>
</g>
<!-- obj_208975456&#45;&gt;obj_210377304 -->
<g id="edge26" class="edge"><title>obj_208975456&#45;&gt;obj_210377304</title>
<path fill="none" stroke="black" stroke-width="0.5" stroke-dasharray="5,2" d="M585.016,-116.129C615.292,-105.894 655.527,-92.2938 684.173,-82.6105"/>
<polygon fill="black" stroke="black" stroke-width="0.5" points="685.434,-85.8788 693.787,-79.3608 683.193,-79.2474 685.434,-85.8788"/>
<text text-anchor="middle" x="640.5" y="-105.5" font-family="Times New Roman,serif" font-size="10.00">shape</text>
</g>
<!-- obj_210393008 -->
<g id="node33" class="node"><title>obj_210393008</title>
<polygon fill="white" stroke="black" points="321.5,-110.5 321.5,-146.5 398.5,-146.5 398.5,-110.5 321.5,-110.5"/>
<text text-anchor="middle" x="360" y="-124.8" font-family="Times New Roman,serif" font-size="14.00">DataFrame</text>
</g>
<!-- obj_210418832&#45;&gt;obj_210393008 -->
<g id="edge31" class="edge"><title>obj_210418832:fobject&#45;&gt;obj_210393008</title>
<path fill="none" stroke="black" stroke-width="0.5" d="M245,-128.5C266.757,-128.5 290.849,-128.5 311.259,-128.5"/>
<polygon fill="black" stroke="black" stroke-width="0.5" points="311.26,-132 321.259,-128.5 311.259,-125 311.26,-132"/>
</g>
<!-- obj_210392240 -->
<g id="node34" class="node"><title>obj_210392240</title>
<polygon fill="white" stroke="black" points="321.5,-55.5 321.5,-91.5 398.5,-91.5 398.5,-55.5 321.5,-55.5"/>
<text text-anchor="middle" x="360" y="-69.8" font-family="Times New Roman,serif" font-size="14.00">DataFrame</text>
</g>
<!-- obj_210418832&#45;&gt;obj_210392240 -->
<g id="edge32" class="edge"><title>obj_210418832:fdatetime64ns&#45;&gt;obj_210392240</title>
<path fill="none" stroke="black" stroke-width="0.5" d="M245.348,-95.8121C266.365,-91.6861 290.779,-86.8931 311.58,-82.8094"/>
<polygon fill="black" stroke="black" stroke-width="0.5" points="312.333,-86.2286 321.471,-80.8676 310.984,-79.3597 312.333,-86.2286"/>
</g>
<!-- obj_210393360 -->
<g id="node35" class="node"><title>obj_210393360</title>
<polygon fill="white" stroke="black" points="321.5,-0.5 321.5,-36.5 398.5,-36.5 398.5,-0.5 321.5,-0.5"/>
<text text-anchor="middle" x="360" y="-14.8" font-family="Times New Roman,serif" font-size="14.00">DataFrame</text>
</g>
<!-- obj_210418832&#45;&gt;obj_210393360 -->
<g id="edge33" class="edge"><title>obj_210418832:ffloat64&#45;&gt;obj_210393360</title>
<path fill="none" stroke="black" stroke-width="0.5" d="M245,-82.5C249.287,-82.5 288.221,-60.208 319.413,-41.9366"/>
<polygon fill="black" stroke="black" stroke-width="0.5" points="321.533,-44.7508 328.383,-36.6686 317.988,-38.7148 321.533,-44.7508"/>
</g>
</g>
</svg>
