<?xml version="1.0" encoding="utf-8" standalone="no"?>
<!DOCTYPE svg PUBLIC "-//W3C//DTD SVG 1.1//EN"
  "http://www.w3.org/Graphics/SVG/1.1/DTD/svg11.dtd">
<!-- Created with matplotlib (http://matplotlib.org/) -->
<svg height="206pt" version="1.1" viewBox="0 0 214 206" width="214pt" xmlns="http://www.w3.org/2000/svg" xmlns:xlink="http://www.w3.org/1999/xlink">
 <defs>
  <style type="text/css">
*{stroke-linecap:butt;stroke-linejoin:round;}
  </style>
 </defs>
 <g id="figure_1">
  <g id="patch_1">
   <path d="
M0 206.196
L214.673 206.196
L214.673 0
L0 0
z
" style="fill:#ffffff;"/>
  </g>
  <g id="axes_1">
   <g id="patch_2">
    <path d="
M26.8484 184.999
L199.648 184.999
L199.648 12.1988
L26.8484 12.1988
z
" style="fill:#ffffff;"/>
   </g>
   <g id="line2d_1">
    <path clip-path="url(#pcfab53845e)" d="
M127.174 19.1885
L53.6007 19.1885
M127.174 19.1885
L178.481 40.4856
M188.646 92.2772
L178.481 40.4856
M188.646 153.75
L188.646 92.2772
M135.919 92.2772
L178.481 40.4856
M135.919 92.2772
L188.646 92.2772
M104.909 51.1341
L53.6007 19.1885
M104.909 51.1341
L178.481 40.4856
M104.909 51.1341
L127.174 19.1885
M104.909 51.1341
L135.919 92.2772
M43.9199 81.7871
L53.6007 19.1885
M43.9199 81.7871
L135.919 92.2772
M43.9199 81.7871
L104.909 51.1341
M85.5469 164.398
L188.646 153.75
M85.5469 164.398
L135.919 92.2772
M85.5469 164.398
L43.9199 81.7871
M157.407 143.895
L188.646 92.2772
M157.407 143.895
L188.646 153.75
M157.407 143.895
L135.919 92.2772
M157.407 143.895
L85.5469 164.398" style="fill:none;stroke:#a60628;stroke-linecap:square;stroke-width:2.0;"/>
   </g>
   <g id="patch_3">
    <path clip-path="url(#pcfab53845e)" d="
M87.0921 164.421
C101.04 164.421 114.419 158.879 124.282 149.016
C134.145 139.153 139.687 125.774 139.687 111.826
C139.687 97.878 134.145 84.4991 124.282 74.6362
C114.419 64.7733 101.04 59.2316 87.0921 59.2316
C73.1439 59.2316 59.765 64.7733 49.9021 74.6362
C40.0392 84.4991 34.4975 97.878 34.4975 111.826
C34.4975 125.774 40.0392 139.153 49.9021 149.016
C59.765 158.879 73.1439 164.421 87.0921 164.421
z
" style="fill:none;stroke:#000000;stroke-dasharray:1.000000,3.000000;stroke-dashoffset:0.0;stroke-linejoin:miter;"/>
   </g>
   <g id="patch_4">
    <path clip-path="url(#pcfab53845e)" d="
M162.282 104.716
C171.341 104.716 180.03 101.117 186.436 94.7115
C192.841 88.306 196.44 79.6171 196.44 70.5583
C196.44 61.4995 192.841 52.8105 186.436 46.405
C180.03 39.9995 171.341 36.4004 162.282 36.4004
C153.224 36.4004 144.535 39.9995 138.129 46.405
C131.724 52.8105 128.125 61.4995 128.125 70.5583
C128.125 79.6171 131.724 88.306 138.129 94.7115
C144.535 101.117 153.224 104.716 162.282 104.716
z
" style="fill:none;stroke:#000000;stroke-dasharray:1.000000,3.000000;stroke-dashoffset:0.0;stroke-linejoin:miter;"/>
   </g>
   <g id="patch_5">
    <path clip-path="url(#pcfab53845e)" d="
M88.964 142.469
C101.444 142.469 113.415 137.51 122.24 128.685
C131.065 119.86 136.023 107.89 136.023 95.4096
C136.023 82.9294 131.065 70.9587 122.24 62.1339
C113.415 53.309 101.444 48.3506 88.964 48.3506
C76.4839 48.3506 64.5132 53.309 55.6883 62.1339
C46.8635 70.9587 41.9051 82.9294 41.9051 95.4096
C41.9051 107.89 46.8635 119.86 55.6883 128.685
C64.5132 137.51 76.4839 142.469 88.964 142.469
z
" style="fill:none;stroke:#000000;stroke-dasharray:1.000000,3.000000;stroke-dashoffset:0.0;stroke-linejoin:miter;"/>
   </g>
   <g id="patch_6">
    <path clip-path="url(#pcfab53845e)" d="
M67.8717 90.5521
C77.7131 90.5521 87.1527 86.6421 94.1116 79.6832
C101.07 72.7243 104.98 63.2847 104.98 53.4434
C104.98 43.602 101.07 34.1624 94.1116 27.2036
C87.1527 20.2447 77.7131 16.3347 67.8717 16.3347
C58.0304 16.3347 48.5908 20.2447 41.6319 27.2036
C34.6731 34.1624 30.7631 43.602 30.7631 53.4434
C30.7631 63.2847 34.6731 72.7243 41.6319 79.6832
C48.5908 86.6421 58.0304 90.5521 67.8717 90.5521
z
" style="fill:none;stroke:#000000;stroke-dasharray:1.000000,3.000000;stroke-dashoffset:0.0;stroke-linejoin:miter;"/>
   </g>
   <g id="patch_7">
    <path clip-path="url(#pcfab53845e)" d="
M90.3873 54.1171
C100.156 54.1171 109.526 50.2358 116.434 43.3281
C123.342 36.4204 127.223 27.0502 127.223 17.2812
C127.223 7.51215 123.342 -1.85806 116.434 -8.76579
C109.526 -15.6735 100.156 -19.5548 90.3873 -19.5548
C80.6183 -19.5548 71.2481 -15.6735 64.3403 -8.76579
C57.4326 -1.85806 53.5513 7.51215 53.5513 17.2812
C53.5513 27.0502 57.4326 36.4204 64.3403 43.3281
C71.2481 50.2358 80.6183 54.1171 90.3873 54.1171
z
" style="fill:none;stroke:#000000;stroke-dasharray:1.000000,3.000000;stroke-dashoffset:0.0;stroke-linejoin:miter;"/>
   </g>
   <g id="patch_8">
    <path clip-path="url(#pcfab53845e)" d="
M142.859 91.9001
C152.949 91.9001 162.628 87.8912 169.763 80.7563
C176.897 73.6213 180.906 63.9429 180.906 53.8526
C180.906 43.7623 176.897 34.0838 169.763 26.9489
C162.628 19.814 152.949 15.805 142.859 15.805
C132.769 15.805 123.09 19.814 115.955 26.9489
C108.82 34.0838 104.811 43.7623 104.811 53.8526
C104.811 63.9429 108.82 73.6213 115.955 80.7563
C123.09 87.8912 132.769 91.9001 142.859 91.9001
z
" style="fill:none;stroke:#000000;stroke-dasharray:1.000000,3.000000;stroke-dashoffset:0.0;stroke-linejoin:miter;"/>
   </g>
   <g id="patch_9">
    <path clip-path="url(#pcfab53845e)" d="
M142.981 92.935
C153.122 92.935 162.849 88.9059 170.02 81.7352
C177.191 74.5644 181.22 64.8373 181.22 54.6963
C181.22 44.5553 177.191 34.8282 170.02 27.6574
C162.849 20.4867 153.122 16.4576 142.981 16.4576
C132.84 16.4576 123.113 20.4867 115.942 27.6574
C108.771 34.8282 104.742 44.5553 104.742 54.6963
C104.742 64.8373 108.771 74.5644 115.942 81.7352
C123.113 88.9059 132.84 92.935 142.981 92.935
z
" style="fill:none;stroke:#000000;stroke-dasharray:1.000000,3.000000;stroke-dashoffset:0.0;stroke-linejoin:miter;"/>
   </g>
   <g id="patch_10">
    <path clip-path="url(#pcfab53845e)" d="
M114.955 175.572
C126.699 175.572 137.965 170.906 146.269 162.601
C154.574 154.296 159.24 143.031 159.24 131.286
C159.24 119.542 154.574 108.277 146.269 99.9718
C137.965 91.6671 126.699 87.0009 114.955 87.0009
C103.21 87.0009 91.9449 91.6671 83.6401 99.9718
C75.3354 108.277 70.6692 119.542 70.6692 131.286
C70.6692 143.031 75.3354 154.296 83.6401 162.601
C91.9449 170.906 103.21 175.572 114.955 175.572
z
" style="fill:none;stroke:#000000;stroke-dasharray:1.000000,3.000000;stroke-dashoffset:0.0;stroke-linejoin:miter;"/>
   </g>
   <g id="patch_11">
    <path clip-path="url(#pcfab53845e)" d="
M145.161 331.215
C170.106 331.215 194.033 321.304 211.672 303.665
C229.31 286.026 239.221 262.1 239.221 237.154
C239.221 212.209 229.31 188.283 211.672 170.644
C194.033 153.005 170.106 143.094 145.161 143.094
C120.216 143.094 96.2892 153.005 78.6504 170.644
C61.0116 188.283 51.1008 212.209 51.1008 237.154
C51.1008 262.1 61.0116 286.026 78.6504 303.665
C96.2892 321.304 120.216 331.215 145.161 331.215
z
" style="fill:none;stroke:#000000;stroke-dasharray:1.000000,3.000000;stroke-dashoffset:0.0;stroke-linejoin:miter;"/>
   </g>
   <g id="patch_12">
    <path clip-path="url(#pcfab53845e)" d="
M162.282 144.261
C170.948 144.261 179.261 140.817 185.389 134.69
C191.516 128.562 194.959 120.25 194.959 111.584
C194.959 102.917 191.516 94.6052 185.389 88.4774
C179.261 82.3496 170.948 78.9065 162.282 78.9065
C153.616 78.9065 145.304 82.3496 139.176 88.4774
C133.049 94.6052 129.605 102.917 129.605 111.584
C129.605 120.25 133.049 128.562 139.176 134.69
C145.304 140.817 153.616 144.261 162.282 144.261
z
" style="fill:none;stroke:#000000;stroke-dasharray:1.000000,3.000000;stroke-dashoffset:0.0;stroke-linejoin:miter;"/>
   </g>
   <g id="patch_13">
    <path clip-path="url(#pcfab53845e)" d="
M181.169 154.646
C189.558 154.646 197.604 151.313 203.536 145.381
C209.468 139.449 212.801 131.403 212.801 123.013
C212.801 114.624 209.468 106.578 203.536 100.646
C197.604 94.7137 189.558 91.3807 181.169 91.3807
C172.78 91.3807 164.733 94.7137 158.801 100.646
C152.869 106.578 149.536 114.624 149.536 123.013
C149.536 131.403 152.869 139.449 158.801 145.381
C164.733 151.313 172.78 154.646 181.169 154.646
z
" style="fill:none;stroke:#000000;stroke-dasharray:1.000000,3.000000;stroke-dashoffset:0.0;stroke-linejoin:miter;"/>
   </g>
   <g id="line2d_2">
    <defs>
     <path d="
M0 3
C0.795609 3 1.55874 2.6839 2.12132 2.12132
C2.6839 1.55874 3 0.795609 3 0
C3 -0.795609 2.6839 -1.55874 2.12132 -2.12132
C1.55874 -2.6839 0.795609 -3 0 -3
C-0.795609 -3 -1.55874 -2.6839 -2.12132 -2.12132
C-2.6839 -1.55874 -3 -0.795609 -3 0
C-3 0.795609 -2.6839 1.55874 -2.12132 2.12132
C-1.55874 2.6839 -0.795609 3 0 3
z
" id="m8c6fd4390b" style="stroke:#000000;stroke-width:0.5;"/>
    </defs>
    <g clip-path="url(#pcfab53845e)">
     <use style="fill:#348abd;stroke:#000000;stroke-width:0.5;" x="53.600745625" xlink:href="#m8c6fd4390b" y="19.1885409375"/>
     <use style="fill:#348abd;stroke:#000000;stroke-width:0.5;" x="178.481001625" xlink:href="#m8c6fd4390b" y="40.4855649375"/>
     <use style="fill:#348abd;stroke:#000000;stroke-width:0.5;" x="127.173801625" xlink:href="#m8c6fd4390b" y="19.1885409375"/>
     <use style="fill:#348abd;stroke:#000000;stroke-width:0.5;" x="188.646249625" xlink:href="#m8c6fd4390b" y="92.2771809375"/>
     <use style="fill:#348abd;stroke:#000000;stroke-width:0.5;" x="188.646249625" xlink:href="#m8c6fd4390b" y="153.749628938"/>
     <use style="fill:#348abd;stroke:#000000;stroke-width:0.5;" x="135.918633625" xlink:href="#m8c6fd4390b" y="92.2771809375"/>
     <use style="fill:#348abd;stroke:#000000;stroke-width:0.5;" x="104.908521625" xlink:href="#m8c6fd4390b" y="51.1340769375"/>
     <use style="fill:#348abd;stroke:#000000;stroke-width:0.5;" x="43.919913625" xlink:href="#m8c6fd4390b" y="81.7870689375"/>
     <use style="fill:#348abd;stroke:#000000;stroke-width:0.5;" x="85.546857625" xlink:href="#m8c6fd4390b" y="164.398140938"/>
     <use style="fill:#348abd;stroke:#000000;stroke-width:0.5;" x="157.407465625" xlink:href="#m8c6fd4390b" y="143.894844938"/>
    </g>
   </g>
   <g id="line2d_3"/>
   <g id="line2d_4">
    <defs>
     <path d="
M0 1.5
C0.397805 1.5 0.77937 1.34195 1.06066 1.06066
C1.34195 0.77937 1.5 0.397805 1.5 0
C1.5 -0.397805 1.34195 -0.77937 1.06066 -1.06066
C0.77937 -1.34195 0.397805 -1.5 0 -1.5
C-0.397805 -1.5 -0.77937 -1.34195 -1.06066 -1.06066
C-1.34195 -0.77937 -1.5 -0.397805 -1.5 0
C-1.5 0.397805 -1.34195 0.77937 -1.06066 1.06066
C-0.77937 1.34195 -0.397805 1.5 0 1.5
z
" id="ma07bdd5909" style="stroke:#ff0000;stroke-width:0.5;"/>
    </defs>
    <g clip-path="url(#pcfab53845e)">
     <use style="fill:#ff0000;stroke:#ff0000;stroke-width:0.5;" x="87.0921359347" xlink:href="#ma07bdd5909" y="111.82624046"/>
     <use style="fill:#ff0000;stroke:#ff0000;stroke-width:0.5;" x="162.282441625" xlink:href="#ma07bdd5909" y="70.5582751043"/>
     <use style="fill:#ff0000;stroke:#ff0000;stroke-width:0.5;" x="88.9640392987" xlink:href="#ma07bdd5909" y="95.4095698421"/>
     <use style="fill:#ff0000;stroke:#ff0000;stroke-width:0.5;" x="67.8717497372" xlink:href="#ma07bdd5909" y="53.4433767904"/>
     <use style="fill:#ff0000;stroke:#ff0000;stroke-width:0.5;" x="90.387273625" xlink:href="#ma07bdd5909" y="17.2811581894"/>
     <use style="fill:#ff0000;stroke:#ff0000;stroke-width:0.5;" x="142.858831412" xlink:href="#ma07bdd5909" y="53.8525879553"/>
     <use style="fill:#ff0000;stroke:#ff0000;stroke-width:0.5;" x="142.980945958" xlink:href="#ma07bdd5909" y="54.696299268"/>
     <use style="fill:#ff0000;stroke:#ff0000;stroke-width:0.5;" x="114.954721161" xlink:href="#ma07bdd5909" y="131.286434858"/>
     <use style="fill:#ff0000;stroke:#ff0000;stroke-width:0.5;" x="145.161021876" xlink:href="#ma07bdd5909" y="237.154444314"/>
     <use style="fill:#ff0000;stroke:#ff0000;stroke-width:0.5;" x="162.282441625" xlink:href="#ma07bdd5909" y="111.58353947"/>
     <use style="fill:#ff0000;stroke:#ff0000;stroke-width:0.5;" x="181.16867469" xlink:href="#ma07bdd5909" y="123.013404938"/>
    </g>
   </g>
   <g id="patch_14">
    <path d="
M26.8484 12.1988
L199.648 12.1988" style="fill:none;stroke:#000000;stroke-linecap:square;stroke-linejoin:miter;"/>
   </g>
   <g id="patch_15">
    <path d="
M199.648 184.999
L199.648 12.1988" style="fill:none;stroke:#000000;stroke-linecap:square;stroke-linejoin:miter;"/>
   </g>
   <g id="patch_16">
    <path d="
M26.8484 184.999
L199.648 184.999" style="fill:none;stroke:#000000;stroke-linecap:square;stroke-linejoin:miter;"/>
   </g>
   <g id="patch_17">
    <path d="
M26.8484 184.999
L26.8484 12.1988" style="fill:none;stroke:#000000;stroke-linecap:square;stroke-linejoin:miter;"/>
   </g>
   <g id="matplotlib.axis_1">
    <g id="xtick_1">
     <g id="line2d_5">
      <defs>
       <path d="
M0 0
L0 -4" id="m93b0483c22" style="stroke:#000000;stroke-width:0.5;"/>
      </defs>
      <g>
       <use style="stroke:#000000;stroke-width:0.5;" x="26.848425625" xlink:href="#m93b0483c22" y="184.998780938"/>
      </g>
     </g>
     <g id="line2d_6">
      <defs>
       <path d="
M0 0
L0 4" id="m741efc42ff" style="stroke:#000000;stroke-width:0.5;"/>
      </defs>
      <g>
       <use style="stroke:#000000;stroke-width:0.5;" x="26.848425625" xlink:href="#m741efc42ff" y="12.1987809375"/>
      </g>
     </g>
     <g id="text_1">
      <!-- 0 -->
      <defs>
       <path d="
M50.3906 35.7969
Q50.3906 27.1562 49.1406 20.3125
Q47.9062 13.4844 45.1406 8.73438
Q42.3906 4 38.0312 1.5
Q33.6875 -0.984375 27.4844 -0.984375
Q21.7344 -0.984375 17.4531 1.5
Q13.1875 4 10.375 8.73438
Q7.5625 13.4844 6.17188 20.3125
Q4.78125 27.1562 4.78125 35.7969
Q4.78125 44.4375 6.03125 51.2656
Q7.28125 58.1094 9.98438 62.8125
Q12.7031 67.5312 17.0156 70.0156
Q21.3438 72.5156 27.4844 72.5156
Q33.2969 72.5156 37.5938 70.0469
Q41.8906 67.5781 44.7188 62.8594
Q47.5625 58.1562 48.9688 51.3125
Q50.3906 44.4844 50.3906 35.7969
M13.8125 35.7969
Q13.8125 28.4688 14.5469 23
Q15.2812 17.5312 16.8906 13.8906
Q18.5 10.25 21.1094 8.42188
Q23.7344 6.59375 27.4844 6.59375
Q31.25 6.59375 33.8906 8.39062
Q36.5312 10.2031 38.2031 13.8125
Q39.8906 17.4375 40.6406 22.9219
Q41.4062 28.4219 41.4062 35.7969
Q41.4062 43.1094 40.6406 48.5781
Q39.8906 54.0469 38.2031 57.6562
Q36.5312 61.2812 33.8906 63.0781
Q31.25 64.8906 27.4844 64.8906
Q23.7344 64.8906 21.1094 63.0781
Q18.5 61.2812 16.8906 57.6562
Q15.2812 54.0469 14.5469 48.5781
Q13.8125 43.1094 13.8125 35.7969" id="WenQuanYiMicroHei-30"/>
      </defs>
      <g transform="translate(24.5688690625 196.594179063)scale(0.09996 -0.09996)">
       <use xlink:href="#WenQuanYiMicroHei-30"/>
      </g>
     </g>
    </g>
    <g id="xtick_2">
     <g id="line2d_7">
      <g>
       <use style="stroke:#000000;stroke-width:0.5;" x="55.648425625" xlink:href="#m93b0483c22" y="184.998780938"/>
      </g>
     </g>
     <g id="line2d_8">
      <g>
       <use style="stroke:#000000;stroke-width:0.5;" x="55.648425625" xlink:href="#m741efc42ff" y="12.1987809375"/>
      </g>
     </g>
     <g id="text_2">
      <!-- 50 -->
      <defs>
       <path d="
M26.6094 43.7969
Q31.4531 43.7969 35.625 42.4531
Q39.7969 41.1094 42.8906 38.4688
Q46 35.8438 47.75 31.9375
Q49.5156 28.0312 49.5156 22.9062
Q49.5156 17.3281 47.8438 12.8906
Q46.1875 8.45312 42.9219 5.375
Q39.6562 2.29688 34.8438 0.65625
Q30.0312 -0.984375 23.7812 -0.984375
Q21.2969 -0.984375 18.875 -0.734375
Q16.4531 -0.484375 14.2344 -0.015625
Q12.0156 0.4375 10.0156 1.17188
Q8.01562 1.90625 6.39062 2.875
L6.39062 11.2812
Q8.01562 10.1562 10.1875 9.28125
Q12.3594 8.40625 14.75 7.8125
Q17.1406 7.23438 19.5469 6.90625
Q21.9688 6.59375 24.0312 6.59375
Q27.875 6.59375 30.9062 7.5
Q33.9375 8.40625 36.0312 10.2969
Q38.1406 12.2031 39.25 15.0781
Q40.375 17.9688 40.375 21.9219
Q40.375 28.9062 36.0781 32.5938
Q31.7812 36.2812 23.5781 36.2812
Q22.2656 36.2812 20.7188 36.1562
Q19.1875 36.0312 17.6406 35.8281
Q16.1094 35.6406 14.7188 35.4219
Q13.3281 35.2031 12.3125 35.0156
L7.90625 37.7969
L10.5938 71.3906
L44.2812 71.3906
L44.2812 63.2812
L18.3125 63.2812
L16.4062 42.8281
Q17.9688 43.1094 20.5312 43.4531
Q23.0938 43.7969 26.6094 43.7969" id="WenQuanYiMicroHei-35"/>
      </defs>
      <g transform="translate(50.6965009375 196.594179063)scale(0.09996 -0.09996)">
       <use xlink:href="#WenQuanYiMicroHei-35"/>
       <use x="55.078125" xlink:href="#WenQuanYiMicroHei-30"/>
      </g>
     </g>
    </g>
    <g id="xtick_3">
     <g id="line2d_9">
      <g>
       <use style="stroke:#000000;stroke-width:0.5;" x="84.448425625" xlink:href="#m93b0483c22" y="184.998780938"/>
      </g>
     </g>
     <g id="line2d_10">
      <g>
       <use style="stroke:#000000;stroke-width:0.5;" x="84.448425625" xlink:href="#m741efc42ff" y="12.1987809375"/>
      </g>
     </g>
     <g id="text_3">
      <!-- 100 -->
      <defs>
       <path d="
M34.7188 0
L26.125 0
L26.125 44.5781
Q26.125 46.6875 26.1406 49.0781
Q26.1719 51.4688 26.2344 53.8281
Q26.3125 56.2031 26.3906 58.375
Q26.4688 60.5469 26.5156 62.2031
Q25.6875 61.3281 25.0469 60.6875
Q24.4219 60.0625 23.75 59.4688
Q23.0938 58.8906 22.3594 58.2188
Q21.625 57.5625 20.6094 56.6875
L13.375 50.7812
L8.6875 56.7812
L27.3906 71.3906
L34.7188 71.3906
z
" id="WenQuanYiMicroHei-31"/>
      </defs>
      <g transform="translate(76.8584940625 196.594179063)scale(0.09996 -0.09996)">
       <use xlink:href="#WenQuanYiMicroHei-31"/>
       <use x="55.078125" xlink:href="#WenQuanYiMicroHei-30"/>
       <use x="110.15625" xlink:href="#WenQuanYiMicroHei-30"/>
      </g>
     </g>
    </g>
    <g id="xtick_4">
     <g id="line2d_11">
      <g>
       <use style="stroke:#000000;stroke-width:0.5;" x="113.248425625" xlink:href="#m93b0483c22" y="184.998780938"/>
      </g>
     </g>
     <g id="line2d_12">
      <g>
       <use style="stroke:#000000;stroke-width:0.5;" x="113.248425625" xlink:href="#m741efc42ff" y="12.1987809375"/>
      </g>
     </g>
     <g id="text_4">
      <!-- 150 -->
      <g transform="translate(105.658494063 196.594179063)scale(0.09996 -0.09996)">
       <use xlink:href="#WenQuanYiMicroHei-31"/>
       <use x="55.078125" xlink:href="#WenQuanYiMicroHei-35"/>
       <use x="110.15625" xlink:href="#WenQuanYiMicroHei-30"/>
      </g>
     </g>
    </g>
    <g id="xtick_5">
     <g id="line2d_13">
      <g>
       <use style="stroke:#000000;stroke-width:0.5;" x="142.048425625" xlink:href="#m93b0483c22" y="184.998780938"/>
      </g>
     </g>
     <g id="line2d_14">
      <g>
       <use style="stroke:#000000;stroke-width:0.5;" x="142.048425625" xlink:href="#m741efc42ff" y="12.1987809375"/>
      </g>
     </g>
     <g id="text_5">
      <!-- 200 -->
      <defs>
       <path d="
M49.2188 0
L4.6875 0
L4.6875 7.625
L21.7812 26.2188
Q25.4375 30.1719 28.3125 33.4375
Q31.2031 36.7188 33.2188 39.8438
Q35.25 42.9688 36.3281 46.1094
Q37.4062 49.2656 37.4062 52.9844
Q37.4062 55.8594 36.5781 58.0469
Q35.75 60.25 34.2031 61.7812
Q32.6719 63.3281 30.5625 64.1094
Q28.4688 64.8906 25.875 64.8906
Q21.2344 64.8906 17.5 63.0156
Q13.7656 61.1406 10.4062 58.2031
L5.42188 64.0156
Q7.375 65.7656 9.60938 67.2969
Q11.8594 68.8438 14.4531 69.9688
Q17.0469 71.0938 19.9219 71.75
Q22.7969 72.4062 25.9844 72.4062
Q30.6719 72.4062 34.4531 71.0938
Q38.2344 69.7812 40.8594 67.3125
Q43.5 64.8438 44.9375 61.2969
Q46.3906 57.7656 46.3906 53.3281
Q46.3906 49.1719 45.0938 45.4062
Q43.7969 41.6562 41.5312 38.0156
Q39.2656 34.375 36.1094 30.7031
Q32.9531 27.0469 29.2969 23.0938
L15.5781 8.5
L15.5781 8.10938
L49.2188 8.10938
z
" id="WenQuanYiMicroHei-32"/>
      </defs>
      <g transform="translate(134.258574063 196.594179063)scale(0.09996 -0.09996)">
       <use xlink:href="#WenQuanYiMicroHei-32"/>
       <use x="55.078125" xlink:href="#WenQuanYiMicroHei-30"/>
       <use x="110.15625" xlink:href="#WenQuanYiMicroHei-30"/>
      </g>
     </g>
    </g>
    <g id="xtick_6">
     <g id="line2d_15">
      <g>
       <use style="stroke:#000000;stroke-width:0.5;" x="170.848425625" xlink:href="#m93b0483c22" y="184.998780938"/>
      </g>
     </g>
     <g id="line2d_16">
      <g>
       <use style="stroke:#000000;stroke-width:0.5;" x="170.848425625" xlink:href="#m741efc42ff" y="12.1987809375"/>
      </g>
     </g>
     <g id="text_6">
      <!-- 250 -->
      <g transform="translate(163.058574063 196.594179063)scale(0.09996 -0.09996)">
       <use xlink:href="#WenQuanYiMicroHei-32"/>
       <use x="55.078125" xlink:href="#WenQuanYiMicroHei-35"/>
       <use x="110.15625" xlink:href="#WenQuanYiMicroHei-30"/>
      </g>
     </g>
    </g>
    <g id="xtick_7">
     <g id="line2d_17">
      <g>
       <use style="stroke:#000000;stroke-width:0.5;" x="199.648425625" xlink:href="#m93b0483c22" y="184.998780938"/>
      </g>
     </g>
     <g id="line2d_18">
      <g>
       <use style="stroke:#000000;stroke-width:0.5;" x="199.648425625" xlink:href="#m741efc42ff" y="12.1987809375"/>
      </g>
     </g>
     <g id="text_7">
      <!-- 300 -->
      <defs>
       <path d="
M46.9219 54.6875
Q46.9219 51.125 45.7969 48.1875
Q44.6719 45.2656 42.6406 43.1094
Q40.625 40.9688 37.7969 39.5781
Q34.9688 38.1875 31.5 37.5938
L31.5 37.3125
Q40.1406 36.2344 44.625 31.8125
Q49.125 27.3906 49.125 20.3125
Q49.125 15.625 47.5312 11.7188
Q45.9531 7.8125 42.7188 4.98438
Q39.5 2.15625 34.5625 0.578125
Q29.6406 -0.984375 22.9062 -0.984375
Q17.5781 -0.984375 12.8594 -0.140625
Q8.15625 0.6875 4 2.875
L4 11.1875
Q8.25 8.9375 13.2031 7.71875
Q18.1719 6.5 22.7031 6.5
Q27.2031 6.5 30.4688 7.46875
Q33.7344 8.45312 35.8594 10.25
Q37.9844 12.0625 38.9844 14.6875
Q39.9844 17.3281 39.9844 20.6094
Q39.9844 23.9219 38.6875 26.2812
Q37.4062 28.6562 35.0156 30.1875
Q32.625 31.7344 29.1719 32.4688
Q25.7344 33.2031 21.3906 33.2031
L14.8906 33.2031
L14.8906 40.5781
L21.3906 40.5781
Q25.3438 40.5781 28.4219 41.5469
Q31.5 42.5312 33.5625 44.3281
Q35.6406 46.1406 36.7188 48.625
Q37.7969 51.125 37.7969 54.1094
Q37.7969 56.6406 36.9062 58.6406
Q36.0312 60.6406 34.4219 62.0312
Q32.8125 63.4219 30.5625 64.1562
Q28.3281 64.8906 25.5938 64.8906
Q20.3594 64.8906 16.375 63.25
Q12.4062 61.625 8.79688 58.9844
L4.29688 65.0938
Q6.15625 66.6094 8.42188 67.9219
Q10.6875 69.2344 13.375 70.2344
Q16.0625 71.2344 19.1094 71.8125
Q22.1719 72.4062 25.5938 72.4062
Q30.8594 72.4062 34.8281 71.0938
Q38.8125 69.7812 41.5 67.4062
Q44.1875 65.0469 45.5469 61.7969
Q46.9219 58.5469 46.9219 54.6875" id="WenQuanYiMicroHei-33"/>
      </defs>
      <g transform="translate(191.824212813 196.594179063)scale(0.09996 -0.09996)">
       <use xlink:href="#WenQuanYiMicroHei-33"/>
       <use x="55.078125" xlink:href="#WenQuanYiMicroHei-30"/>
       <use x="110.15625" xlink:href="#WenQuanYiMicroHei-30"/>
      </g>
     </g>
    </g>
   </g>
   <g id="matplotlib.axis_2">
    <g id="ytick_1">
     <g id="line2d_19">
      <defs>
       <path d="
M0 0
L4 0" id="m728421d6d4" style="stroke:#000000;stroke-width:0.5;"/>
      </defs>
      <g>
       <use style="stroke:#000000;stroke-width:0.5;" x="26.848425625" xlink:href="#m728421d6d4" y="184.998780938"/>
      </g>
     </g>
     <g id="line2d_20">
      <defs>
       <path d="
M0 0
L-4 0" id="mcb0005524f" style="stroke:#000000;stroke-width:0.5;"/>
      </defs>
      <g>
       <use style="stroke:#000000;stroke-width:0.5;" x="199.648425625" xlink:href="#mcb0005524f" y="184.998780938"/>
      </g>
     </g>
     <g id="text_8">
      <!-- 0 -->
      <g transform="translate(18.2893125 187.595398125)scale(0.09996 -0.09996)">
       <use xlink:href="#WenQuanYiMicroHei-30"/>
      </g>
     </g>
    </g>
    <g id="ytick_2">
     <g id="line2d_21">
      <g>
       <use style="stroke:#000000;stroke-width:0.5;" x="26.848425625" xlink:href="#m728421d6d4" y="156.198780938"/>
      </g>
     </g>
     <g id="line2d_22">
      <g>
       <use style="stroke:#000000;stroke-width:0.5;" x="199.648425625" xlink:href="#mcb0005524f" y="156.198780938"/>
      </g>
     </g>
     <g id="text_9">
      <!-- 50 -->
      <g transform="translate(12.94457625 158.795398125)scale(0.09996 -0.09996)">
       <use xlink:href="#WenQuanYiMicroHei-35"/>
       <use x="55.078125" xlink:href="#WenQuanYiMicroHei-30"/>
      </g>
     </g>
    </g>
    <g id="ytick_3">
     <g id="line2d_23">
      <g>
       <use style="stroke:#000000;stroke-width:0.5;" x="26.848425625" xlink:href="#m728421d6d4" y="127.398780938"/>
      </g>
     </g>
     <g id="line2d_24">
      <g>
       <use style="stroke:#000000;stroke-width:0.5;" x="199.648425625" xlink:href="#mcb0005524f" y="127.398780938"/>
      </g>
     </g>
     <g id="text_10">
      <!-- 100 -->
      <g transform="translate(7.6685625 129.995398125)scale(0.09996 -0.09996)">
       <use xlink:href="#WenQuanYiMicroHei-31"/>
       <use x="55.078125" xlink:href="#WenQuanYiMicroHei-30"/>
       <use x="110.15625" xlink:href="#WenQuanYiMicroHei-30"/>
      </g>
     </g>
    </g>
    <g id="ytick_4">
     <g id="line2d_25">
      <g>
       <use style="stroke:#000000;stroke-width:0.5;" x="26.848425625" xlink:href="#m728421d6d4" y="98.5987809375"/>
      </g>
     </g>
     <g id="line2d_26">
      <g>
       <use style="stroke:#000000;stroke-width:0.5;" x="199.648425625" xlink:href="#mcb0005524f" y="98.5987809375"/>
      </g>
     </g>
     <g id="text_11">
      <!-- 150 -->
      <g transform="translate(7.6685625 101.195398125)scale(0.09996 -0.09996)">
       <use xlink:href="#WenQuanYiMicroHei-31"/>
       <use x="55.078125" xlink:href="#WenQuanYiMicroHei-35"/>
       <use x="110.15625" xlink:href="#WenQuanYiMicroHei-30"/>
      </g>
     </g>
    </g>
    <g id="ytick_5">
     <g id="line2d_27">
      <g>
       <use style="stroke:#000000;stroke-width:0.5;" x="26.848425625" xlink:href="#m728421d6d4" y="69.7987809375"/>
      </g>
     </g>
     <g id="line2d_28">
      <g>
       <use style="stroke:#000000;stroke-width:0.5;" x="199.648425625" xlink:href="#mcb0005524f" y="69.7987809375"/>
      </g>
     </g>
     <g id="text_12">
      <!-- 200 -->
      <g transform="translate(7.2687225 72.395398125)scale(0.09996 -0.09996)">
       <use xlink:href="#WenQuanYiMicroHei-32"/>
       <use x="55.078125" xlink:href="#WenQuanYiMicroHei-30"/>
       <use x="110.15625" xlink:href="#WenQuanYiMicroHei-30"/>
      </g>
     </g>
    </g>
    <g id="ytick_6">
     <g id="line2d_29">
      <g>
       <use style="stroke:#000000;stroke-width:0.5;" x="26.848425625" xlink:href="#m728421d6d4" y="40.9987809375"/>
      </g>
     </g>
     <g id="line2d_30">
      <g>
       <use style="stroke:#000000;stroke-width:0.5;" x="199.648425625" xlink:href="#mcb0005524f" y="40.9987809375"/>
      </g>
     </g>
     <g id="text_13">
      <!-- 250 -->
      <g transform="translate(7.2687225 43.595398125)scale(0.09996 -0.09996)">
       <use xlink:href="#WenQuanYiMicroHei-32"/>
       <use x="55.078125" xlink:href="#WenQuanYiMicroHei-35"/>
       <use x="110.15625" xlink:href="#WenQuanYiMicroHei-30"/>
      </g>
     </g>
    </g>
    <g id="ytick_7">
     <g id="line2d_31">
      <g>
       <use style="stroke:#000000;stroke-width:0.5;" x="26.848425625" xlink:href="#m728421d6d4" y="12.1987809375"/>
      </g>
     </g>
     <g id="line2d_32">
      <g>
       <use style="stroke:#000000;stroke-width:0.5;" x="199.648425625" xlink:href="#mcb0005524f" y="12.1987809375"/>
      </g>
     </g>
     <g id="text_14">
      <!-- 300 -->
      <g transform="translate(7.2 14.795398125)scale(0.09996 -0.09996)">
       <use xlink:href="#WenQuanYiMicroHei-33"/>
       <use x="55.078125" xlink:href="#WenQuanYiMicroHei-30"/>
       <use x="110.15625" xlink:href="#WenQuanYiMicroHei-30"/>
      </g>
     </g>
    </g>
   </g>
  </g>
 </g>
 <defs>
  <clipPath id="pcfab53845e">
   <rect height="172.8" width="172.8" x="26.848425625" y="12.1987809375"/>
  </clipPath>
 </defs>
</svg>
