<?xml version="1.0" encoding="utf-8" standalone="no"?>
<!DOCTYPE svg PUBLIC "-//W3C//DTD SVG 1.1//EN"
  "http://www.w3.org/Graphics/SVG/1.1/DTD/svg11.dtd">
<!-- Created with matplotlib (http://matplotlib.org/) -->
<svg height="264pt" version="1.1" viewBox="0 0 493 264" width="493pt" xmlns="http://www.w3.org/2000/svg" xmlns:xlink="http://www.w3.org/1999/xlink">
 <defs>
  <style type="text/css">
*{stroke-linecap:butt;stroke-linejoin:round;}
  </style>
 </defs>
 <g id="figure_1">
  <g id="patch_1">
   <path d="
M0 264.245
L493.268 264.245
L493.268 0
L0 0
z
" style="fill:#ffffff;"/>
  </g>
  <g id="axes_1">
   <g id="patch_2">
    <path d="
M33.2912 243.048
L479.691 243.048
L479.691 12.6478
L33.2912 12.6478
z
" style="fill:#ffffff;"/>
   </g>
   <g id="line2d_1">
    <path clip-path="url(#p91c6fd7e01)" d="
M33.4028 31.5055
L41.2148 30.1413
L48.692 29.0595
L55.7228 28.2633
L62.3072 27.7357
L68.4452 27.4603
L74.1368 27.421
L79.382 27.6013
L84.1808 27.9843
L88.5332 28.551
L92.4392 29.2793
L95.8988 30.1422
L99.0236 31.1452
L101.814 32.2715
L104.269 33.4978
L106.501 34.8652
L108.398 36.2803
L110.072 37.7895
L111.634 39.5002
L112.974 41.2907
L114.201 43.3092
L115.317 45.6074
L116.21 47.93
L116.991 50.5169
L117.661 53.4016
L118.33 57.3829
L118.777 61.2034
L119.223 67.1501
L119.558 75.6658
L119.67 81.0812
L119.893 96.0677
L120.116 76.3843
L120.451 67.3577
L120.897 61.1515
L121.455 56.3481
L122.125 52.3998
L122.906 49.0316
L123.799 46.0836
L124.915 43.1949
L126.142 40.6514
L127.482 38.3677
L129.044 36.1409
L130.83 33.9969
L132.838 31.9467
L135.07 29.9937
L137.526 28.1377
L140.316 26.3084
L143.44 24.5305
L146.9 22.8219
L150.694 21.197
L154.824 19.6687
L159.399 18.217
L164.31 16.8987
L169.443 15.7512
L174.8 14.7788
L180.38 13.9912
L186.072 13.4123
L191.763 13.0548
L197.455 12.9201
L203.035 13.0121
L208.392 13.3231
L213.414 13.8319
L218.212 14.5397
L222.676 15.4231
L226.694 16.4383
L230.377 17.5909
L233.725 18.8669
L236.738 20.2497
L239.416 21.7183
L241.76 23.244
L243.88 24.8804
L245.778 26.621
L247.452 28.4533
L248.902 30.3535
L250.242 32.4728
L251.358 34.6264
L252.362 37.0137
L253.255 39.685
L254.036 42.7096
L254.706 46.1837
L255.264 50.2443
L255.71 55.0828
L256.045 60.9312
L256.268 67.8134
L256.38 74.0351
L256.491 89.4478
L256.938 62.7884
L257.384 54.5887
L257.942 49.0083
L258.612 44.7007
L259.393 41.1659
L260.286 38.1582
L261.29 35.537
L262.406 33.2136
L263.745 30.9576
L265.196 28.9554
L266.87 27.0396
L268.656 25.3286
L270.664 23.7033
L272.896 22.1752
L275.463 20.6913
L278.253 19.3335
L281.378 18.0585
L284.838 16.8872
L288.632 15.8369
L292.761 14.9227
L297.225 14.1596
L302.024 13.563
L307.158 13.1501
L312.514 12.9428
L318.094 12.9513
L323.786 13.1842
L329.478 13.6384
L335.169 14.3155
L340.749 15.204
L346.106 16.2806
L351.24 17.539
L356.038 18.9433
L360.502 20.4805
L364.52 22.0922
L368.203 23.8029
L371.551 25.6011
L374.564 27.4737
L377.242 29.4028
L379.586 31.363
L381.706 33.4334
L383.492 35.4777
L385.054 37.581
L386.505 39.9082
L387.733 42.2872
L388.849 44.9426
L389.853 47.9655
L390.634 51.0002
L391.304 54.4256
L391.862 58.3426
L392.308 62.8677
L392.643 68.069
L392.866 73.6616
L393.09 85.3515
L393.201 114.527
L393.424 78.9678
L393.759 68.5532
L394.206 61.9953
L394.764 57.1181
L395.433 53.2188
L396.214 49.9714
L397.107 47.1954
L398.112 44.7797
L399.228 42.6506
L400.455 40.7567
L401.906 38.9332
L403.468 37.3236
L405.254 35.8068
L407.263 34.4016
L409.495 33.1184
L411.95 31.9622
L414.74 30.8968
L417.865 29.9468
L421.324 29.1299
L425.23 28.4428
L429.471 27.924
L434.158 27.575
L439.292 27.4165
L444.872 27.4674
L450.898 27.7451
L457.371 28.2669
L464.29 29.0499
L471.656 30.1117
L479.356 31.4494
L479.58 31.4914
L479.58 31.4914" style="fill:none;stroke:#348abd;stroke-linecap:square;stroke-width:2.0;"/>
   </g>
   <g id="line2d_2">
    <path clip-path="url(#p91c6fd7e01)" d="
M33.5144 105.694
L38.09 105.906
L42.2192 106.31
L46.0136 106.903
L49.3616 107.647
L52.3748 108.542
L55.0532 109.569
L57.3968 110.701
L59.5172 111.972
L61.4144 113.377
L63.0884 114.901
L64.5392 116.521
L65.8784 118.364
L66.9944 120.263
L67.9988 122.39
L68.8916 124.781
L69.6728 127.484
L70.3424 130.557
L70.9004 134.064
L71.3468 138.051
L71.7932 144.444
L72.0164 149.985
L72.2396 161.669
L72.3512 192.015
L72.5744 155.05
L72.9092 144.57
L73.3556 137.893
L73.9136 132.86
L74.5832 128.771
L75.3644 125.302
L76.2572 122.272
L77.3732 119.303
L78.6008 116.686
L79.94 114.331
L81.5024 112.027
L83.288 109.801
L85.2968 107.663
L87.5288 105.616
L90.0956 103.578
L92.8856 101.65
L96.0104 99.7633
L99.47 97.9371
L103.264 96.1874
L107.394 94.5292
L111.858 92.9776
L116.656 91.5496
L121.678 90.2905
L126.924 89.2094
L132.169 88.353
L137.526 87.7034
L142.771 87.288
L147.904 87.0996
L152.926 87.1374
L157.614 87.3896
L162.078 87.849
L166.207 88.4939
L170.001 89.3074
L173.461 90.2725
L176.586 91.3706
L179.376 92.5797
L181.942 93.9366
L184.174 95.3648
L186.183 96.9123
L187.969 98.5682
L189.531 100.314
L190.982 102.281
L192.21 104.319
L193.326 106.61
L194.33 109.216
L195.223 112.235
L195.892 115.232
L196.45 118.573
L197.008 123.409
L197.455 129.819
L197.678 135.339
L197.901 146.832
L198.013 173.251
L198.236 140.775
L198.571 130.216
L199.017 123.556
L199.575 118.572
L200.245 114.551
L201.026 111.166
L201.919 108.235
L202.923 105.647
L204.151 103.121
L205.49 100.885
L206.941 98.8764
L208.615 96.9335
L210.512 95.0795
L212.632 93.3267
L214.976 91.6812
L217.543 90.1464
L220.444 88.6718
L223.681 87.2841
L227.252 86.0048
L231.046 84.883
L235.176 83.8954
L239.528 83.0813
L244.215 82.4348
L249.014 81.9982
L253.924 81.7728
L258.946 81.7666
L263.857 81.9795
L268.767 82.4158
L273.454 83.0542
L277.918 83.8836
L282.159 84.8979
L286.065 86.0596
L289.636 87.3501
L292.873 88.7505
L295.774 90.2392
L298.453 91.8636
L300.796 93.5414
L302.917 95.3331
L304.814 97.2347
L306.488 99.2358
L307.939 101.316
L309.278 103.648
L310.394 106.04
L311.398 108.73
L312.291 111.811
L313.072 115.43
L313.63 118.982
L314.077 122.946
L314.523 129.133
L314.858 138.172
L314.97 144.177
L315.081 158.158
L315.193 153.548
L315.416 137.29
L315.751 128.783
L316.197 122.817
L316.755 118.189
L317.425 114.401
L318.206 111.197
L319.099 108.425
L320.103 105.988
L321.219 103.819
L322.558 101.711
L324.009 99.8459
L325.683 98.0707
L327.469 96.4978
L329.478 95.0197
L331.71 93.6495
L334.276 92.3436
L337.066 91.1774
L340.191 90.1174
L343.651 89.1861
L347.445 88.403
L351.574 87.7857
L355.927 87.36
L360.614 87.1261
L365.524 87.1041
L370.658 87.3046
L375.903 87.7317
L381.26 88.393
L386.617 89.282
L391.862 90.3803
L396.884 91.6573
L401.683 93.1044
L406.147 94.6763
L410.388 96.4056
L414.182 98.1873
L417.642 100.05
L420.766 101.978
L423.556 103.954
L426.012 105.954
L428.244 108.054
L430.252 110.258
L431.926 112.41
L433.489 114.787
L434.828 117.235
L435.944 119.706
L436.948 122.441
L437.841 125.519
L438.622 129.063
L439.292 133.275
L439.85 138.543
L440.185 143.487
L440.52 152.48
L440.631 158.393
L440.743 171.765
L440.854 168.665
L441.078 151.952
L441.412 143.407
L441.859 137.464
L442.417 132.884
L443.086 129.164
L443.868 126.042
L444.76 123.364
L445.765 121.034
L446.881 118.984
L448.108 117.167
L449.559 115.426
L451.122 113.9
L452.907 112.475
L454.916 111.17
L457.148 109.997
L459.603 108.961
L462.393 108.031
L465.518 107.233
L468.978 106.586
L472.772 106.102
L477.013 105.788
L479.58 105.696
L479.58 105.696" style="fill:none;stroke:#a60628;stroke-linecap:square;stroke-width:2.0;"/>
   </g>
   <g id="line2d_3">
    <path clip-path="url(#p91c6fd7e01)" d="
M33.626 202.024
L34.5188 198.409
L35.4116 195.6
L36.6392 192.544
L38.2016 189.468
L39.5408 187.289
L41.438 184.688
L43.67 182.128
L46.3484 179.546
L48.5804 177.684
L51.2588 175.709
L55.6112 172.96
L60.0752 170.581
L63.6464 168.926
L68.5568 166.946
L72.686 165.504
L79.8284 163.436
L84.7388 162.291
L92.4392 160.932
L97.796 160.293
L103.041 159.921
L108.956 159.827
L112.974 159.983
L116.322 160.264
L120.339 160.817
L123.018 161.333
L126.254 162.149
L129.825 163.351
L132.615 164.571
L135.07 165.919
L136.856 167.106
L138.865 168.721
L140.65 170.498
L141.99 172.114
L143.329 174.084
L144.668 176.577
L145.672 178.969
L146.565 181.691
L147.346 184.875
L147.904 187.886
L148.462 192.106
L148.909 197.33
L149.244 204.017
L149.467 212.841
L149.69 229.812
L149.913 208.626
L150.248 199.519
L150.694 193.33
L151.252 188.5
L152.034 184.01
L152.926 180.41
L154.042 177.067
L155.158 174.464
L156.498 171.952
L157.948 169.723
L159.288 167.978
L160.738 166.336
L163.305 163.905
L165.314 162.304
L167.769 160.618
L169.778 159.411
L172.791 157.836
L176.474 156.22
L179.822 154.987
L183.728 153.787
L187.411 152.858
L191.094 152.104
L196.004 151.346
L200.356 150.896
L205.044 150.636
L208.503 150.592
L212.521 150.703
L216.538 150.997
L221.002 151.557
L224.462 152.178
L228.033 153.015
L231.381 154.011
L234.506 155.165
L237.519 156.529
L240.086 157.94
L242.318 159.407
L244.438 161.072
L246.336 162.865
L247.898 164.634
L249.349 166.607
L250.688 168.832
L251.804 171.122
L252.808 173.702
L253.701 176.652
L254.482 180.101
L255.152 184.264
L255.598 188.278
L256.045 194.627
L256.268 200.034
L256.491 210.982
L256.603 231.249
L256.826 206.36
L257.161 195.483
L257.607 188.754
L258.165 183.758
L258.835 179.752
L259.616 176.395
L260.509 173.505
L261.513 170.966
L262.629 168.706
L263.968 166.504
L265.419 164.549
L267.093 162.68
L268.879 161.013
L270.999 159.358
L273.231 157.899
L275.91 156.439
L278.588 155.228
L281.713 154.063
L285.172 153.026
L289.078 152.118
L292.873 151.463
L296.667 151.001
L301.243 150.679
L305.707 150.59
L310.394 150.728
L314.523 151.04
L319.992 151.736
L324.232 152.507
L329.254 153.714
L332.826 154.787
L335.839 155.853
L339.298 157.293
L342.646 158.952
L346.441 161.246
L348.784 162.953
L350.458 164.351
L352.802 166.65
L354.588 168.758
L356.15 170.972
L357.489 173.263
L358.94 176.389
L359.833 178.824
L360.614 181.476
L361.284 184.361
L361.842 187.454
L362.4 191.775
L362.846 196.955
L363.181 203.424
L363.404 211.833
L363.627 234.894
L363.85 209.315
L364.185 199.927
L364.632 193.697
L365.19 188.919
L365.859 185.078
L366.64 181.849
L367.645 178.791
L368.761 176.207
L369.988 173.975
L371.551 171.738
L373.113 169.942
L374.899 168.272
L377.577 166.299
L379.14 165.357
L380.925 164.429
L384.496 162.953
L387.063 162.132
L389.518 161.494
L393.09 160.786
L395.991 160.369
L402.129 159.886
L406.928 159.824
L410.834 159.951
L417.195 160.472
L422.552 161.194
L428.132 162.214
L432.038 163.09
L438.064 164.723
L442.528 166.166
L448.443 168.43
L451.568 169.811
L455.809 171.938
L459.826 174.281
L462.505 176.069
L465.63 178.457
L467.75 180.316
L469.87 182.439
L471.544 184.354
L473.442 186.889
L475.116 189.582
L476.566 192.447
L477.682 195.168
L478.575 197.853
L479.468 201.316
L479.58 201.806
L479.58 201.806" style="fill:none;stroke:#7a68a6;stroke-linecap:square;stroke-width:2.0;"/>
   </g>
   <g id="patch_3">
    <path d="
M33.2912 12.6478
L479.691 12.6478" style="fill:none;stroke:#000000;stroke-linecap:square;stroke-linejoin:miter;"/>
   </g>
   <g id="patch_4">
    <path d="
M479.691 243.048
L479.691 12.6478" style="fill:none;stroke:#000000;stroke-linecap:square;stroke-linejoin:miter;"/>
   </g>
   <g id="patch_5">
    <path d="
M33.2912 243.048
L479.691 243.048" style="fill:none;stroke:#000000;stroke-linecap:square;stroke-linejoin:miter;"/>
   </g>
   <g id="patch_6">
    <path d="
M33.2912 243.048
L33.2912 12.6478" style="fill:none;stroke:#000000;stroke-linecap:square;stroke-linejoin:miter;"/>
   </g>
   <g id="matplotlib.axis_1">
    <g id="xtick_1">
     <g id="line2d_4">
      <defs>
       <path d="
M0 0
L0 -4" id="m93b0483c22" style="stroke:#000000;stroke-width:0.5;"/>
      </defs>
      <g>
       <use style="stroke:#000000;stroke-width:0.5;" x="33.29116" xlink:href="#m93b0483c22" y="243.04782"/>
      </g>
     </g>
     <g id="line2d_5">
      <defs>
       <path d="
M0 0
L0 4" id="m741efc42ff" style="stroke:#000000;stroke-width:0.5;"/>
      </defs>
      <g>
       <use style="stroke:#000000;stroke-width:0.5;" x="33.29116" xlink:href="#m741efc42ff" y="12.64782"/>
      </g>
     </g>
     <g id="text_1">
      <!-- −2.0 -->
      <defs>
       <path d="
M49.2188 0
L4.6875 0
L4.6875 7.625
L21.7812 26.2188
Q25.4375 30.1719 28.3125 33.4375
Q31.2031 36.7188 33.2188 39.8438
Q35.25 42.9688 36.3281 46.1094
Q37.4062 49.2656 37.4062 52.9844
Q37.4062 55.8594 36.5781 58.0469
Q35.75 60.25 34.2031 61.7812
Q32.6719 63.3281 30.5625 64.1094
Q28.4688 64.8906 25.875 64.8906
Q21.2344 64.8906 17.5 63.0156
Q13.7656 61.1406 10.4062 58.2031
L5.42188 64.0156
Q7.375 65.7656 9.60938 67.2969
Q11.8594 68.8438 14.4531 69.9688
Q17.0469 71.0938 19.9219 71.75
Q22.7969 72.4062 25.9844 72.4062
Q30.6719 72.4062 34.4531 71.0938
Q38.2344 69.7812 40.8594 67.3125
Q43.5 64.8438 44.9375 61.2969
Q46.3906 57.7656 46.3906 53.3281
Q46.3906 49.1719 45.0938 45.4062
Q43.7969 41.6562 41.5312 38.0156
Q39.2656 34.375 36.1094 30.7031
Q32.9531 27.0469 29.2969 23.0938
L15.5781 8.5
L15.5781 8.10938
L49.2188 8.10938
z
" id="WenQuanYiMicroHei-32"/>
       <path d="
M50.3906 35.7969
Q50.3906 27.1562 49.1406 20.3125
Q47.9062 13.4844 45.1406 8.73438
Q42.3906 4 38.0312 1.5
Q33.6875 -0.984375 27.4844 -0.984375
Q21.7344 -0.984375 17.4531 1.5
Q13.1875 4 10.375 8.73438
Q7.5625 13.4844 6.17188 20.3125
Q4.78125 27.1562 4.78125 35.7969
Q4.78125 44.4375 6.03125 51.2656
Q7.28125 58.1094 9.98438 62.8125
Q12.7031 67.5312 17.0156 70.0156
Q21.3438 72.5156 27.4844 72.5156
Q33.2969 72.5156 37.5938 70.0469
Q41.8906 67.5781 44.7188 62.8594
Q47.5625 58.1562 48.9688 51.3125
Q50.3906 44.4844 50.3906 35.7969
M13.8125 35.7969
Q13.8125 28.4688 14.5469 23
Q15.2812 17.5312 16.8906 13.8906
Q18.5 10.25 21.1094 8.42188
Q23.7344 6.59375 27.4844 6.59375
Q31.25 6.59375 33.8906 8.39062
Q36.5312 10.2031 38.2031 13.8125
Q39.8906 17.4375 40.6406 22.9219
Q41.4062 28.4219 41.4062 35.7969
Q41.4062 43.1094 40.6406 48.5781
Q39.8906 54.0469 38.2031 57.6562
Q36.5312 61.2812 33.8906 63.0781
Q31.25 64.8906 27.4844 64.8906
Q23.7344 64.8906 21.1094 63.0781
Q18.5 61.2812 16.8906 57.6562
Q15.2812 54.0469 14.5469 48.5781
Q13.8125 43.1094 13.8125 35.7969" id="WenQuanYiMicroHei-30"/>
       <path d="
M4.98438 31.5938
L4.98438 38.9219
L50.0938 38.9219
L50.0938 31.5938
z
" id="WenQuanYiMicroHei-2212"/>
       <path d="
M7.17188 5.42188
Q7.17188 7.28125 7.65625 8.5625
Q8.15625 9.85938 8.98438 10.6562
Q9.8125 11.4688 10.9375 11.8281
Q12.0625 12.2031 13.375 12.2031
Q14.6562 12.2031 15.7969 11.8281
Q16.9375 11.4688 17.7656 10.6562
Q18.6094 9.85938 19.0938 8.5625
Q19.5781 7.28125 19.5781 5.42188
Q19.5781 3.60938 19.0938 2.3125
Q18.6094 1.03125 17.7656 0.1875
Q16.9375 -0.640625 15.7969 -1.03125
Q14.6562 -1.42188 13.375 -1.42188
Q12.0625 -1.42188 10.9375 -1.03125
Q9.8125 -0.640625 8.98438 0.1875
Q8.15625 1.03125 7.65625 2.3125
Q7.17188 3.60938 7.17188 5.42188" id="WenQuanYiMicroHei-2e"/>
      </defs>
      <g transform="translate(24.1760575 254.643218125)scale(0.09996 -0.09996)">
       <use xlink:href="#WenQuanYiMicroHei-2212"/>
       <use x="55.078125" xlink:href="#WenQuanYiMicroHei-32"/>
       <use x="110.15625" xlink:href="#WenQuanYiMicroHei-2e"/>
       <use x="136.962890625" xlink:href="#WenQuanYiMicroHei-30"/>
      </g>
     </g>
    </g>
    <g id="xtick_2">
     <g id="line2d_6">
      <g>
       <use style="stroke:#000000;stroke-width:0.5;" x="89.09116" xlink:href="#m93b0483c22" y="243.04782"/>
      </g>
     </g>
     <g id="line2d_7">
      <g>
       <use style="stroke:#000000;stroke-width:0.5;" x="89.09116" xlink:href="#m741efc42ff" y="12.64782"/>
      </g>
     </g>
     <g id="text_2">
      <!-- −1.5 -->
      <defs>
       <path d="
M34.7188 0
L26.125 0
L26.125 44.5781
Q26.125 46.6875 26.1406 49.0781
Q26.1719 51.4688 26.2344 53.8281
Q26.3125 56.2031 26.3906 58.375
Q26.4688 60.5469 26.5156 62.2031
Q25.6875 61.3281 25.0469 60.6875
Q24.4219 60.0625 23.75 59.4688
Q23.0938 58.8906 22.3594 58.2188
Q21.625 57.5625 20.6094 56.6875
L13.375 50.7812
L8.6875 56.7812
L27.3906 71.3906
L34.7188 71.3906
z
" id="WenQuanYiMicroHei-31"/>
       <path d="
M26.6094 43.7969
Q31.4531 43.7969 35.625 42.4531
Q39.7969 41.1094 42.8906 38.4688
Q46 35.8438 47.75 31.9375
Q49.5156 28.0312 49.5156 22.9062
Q49.5156 17.3281 47.8438 12.8906
Q46.1875 8.45312 42.9219 5.375
Q39.6562 2.29688 34.8438 0.65625
Q30.0312 -0.984375 23.7812 -0.984375
Q21.2969 -0.984375 18.875 -0.734375
Q16.4531 -0.484375 14.2344 -0.015625
Q12.0156 0.4375 10.0156 1.17188
Q8.01562 1.90625 6.39062 2.875
L6.39062 11.2812
Q8.01562 10.1562 10.1875 9.28125
Q12.3594 8.40625 14.75 7.8125
Q17.1406 7.23438 19.5469 6.90625
Q21.9688 6.59375 24.0312 6.59375
Q27.875 6.59375 30.9062 7.5
Q33.9375 8.40625 36.0312 10.2969
Q38.1406 12.2031 39.25 15.0781
Q40.375 17.9688 40.375 21.9219
Q40.375 28.9062 36.0781 32.5938
Q31.7812 36.2812 23.5781 36.2812
Q22.2656 36.2812 20.7188 36.1562
Q19.1875 36.0312 17.6406 35.8281
Q16.1094 35.6406 14.7188 35.4219
Q13.3281 35.2031 12.3125 35.0156
L7.90625 37.7969
L10.5938 71.3906
L44.2812 71.3906
L44.2812 63.2812
L18.3125 63.2812
L16.4062 42.8281
Q17.9688 43.1094 20.5312 43.4531
Q23.0938 43.7969 26.6094 43.7969" id="WenQuanYiMicroHei-35"/>
      </defs>
      <g transform="translate(80.01979 254.643218125)scale(0.09996 -0.09996)">
       <use xlink:href="#WenQuanYiMicroHei-2212"/>
       <use x="55.078125" xlink:href="#WenQuanYiMicroHei-31"/>
       <use x="110.15625" xlink:href="#WenQuanYiMicroHei-2e"/>
       <use x="136.962890625" xlink:href="#WenQuanYiMicroHei-35"/>
      </g>
     </g>
    </g>
    <g id="xtick_3">
     <g id="line2d_8">
      <g>
       <use style="stroke:#000000;stroke-width:0.5;" x="144.89116" xlink:href="#m93b0483c22" y="243.04782"/>
      </g>
     </g>
     <g id="line2d_9">
      <g>
       <use style="stroke:#000000;stroke-width:0.5;" x="144.89116" xlink:href="#m741efc42ff" y="12.64782"/>
      </g>
     </g>
     <g id="text_3">
      <!-- −1.0 -->
      <g transform="translate(135.7760575 254.643218125)scale(0.09996 -0.09996)">
       <use xlink:href="#WenQuanYiMicroHei-2212"/>
       <use x="55.078125" xlink:href="#WenQuanYiMicroHei-31"/>
       <use x="110.15625" xlink:href="#WenQuanYiMicroHei-2e"/>
       <use x="136.962890625" xlink:href="#WenQuanYiMicroHei-30"/>
      </g>
     </g>
    </g>
    <g id="xtick_4">
     <g id="line2d_10">
      <g>
       <use style="stroke:#000000;stroke-width:0.5;" x="200.69116" xlink:href="#m93b0483c22" y="243.04782"/>
      </g>
     </g>
     <g id="line2d_11">
      <g>
       <use style="stroke:#000000;stroke-width:0.5;" x="200.69116" xlink:href="#m741efc42ff" y="12.64782"/>
      </g>
     </g>
     <g id="text_4">
      <!-- −0.5 -->
      <g transform="translate(191.61979 254.643218125)scale(0.09996 -0.09996)">
       <use xlink:href="#WenQuanYiMicroHei-2212"/>
       <use x="55.078125" xlink:href="#WenQuanYiMicroHei-30"/>
       <use x="110.15625" xlink:href="#WenQuanYiMicroHei-2e"/>
       <use x="136.962890625" xlink:href="#WenQuanYiMicroHei-35"/>
      </g>
     </g>
    </g>
    <g id="xtick_5">
     <g id="line2d_12">
      <g>
       <use style="stroke:#000000;stroke-width:0.5;" x="256.49116" xlink:href="#m93b0483c22" y="243.04782"/>
      </g>
     </g>
     <g id="line2d_13">
      <g>
       <use style="stroke:#000000;stroke-width:0.5;" x="256.49116" xlink:href="#m741efc42ff" y="12.64782"/>
      </g>
     </g>
     <g id="text_5">
      <!-- 0.0 -->
      <g transform="translate(250.11871 254.643218125)scale(0.09996 -0.09996)">
       <use xlink:href="#WenQuanYiMicroHei-30"/>
       <use x="55.078125" xlink:href="#WenQuanYiMicroHei-2e"/>
       <use x="81.884765625" xlink:href="#WenQuanYiMicroHei-30"/>
      </g>
     </g>
    </g>
    <g id="xtick_6">
     <g id="line2d_14">
      <g>
       <use style="stroke:#000000;stroke-width:0.5;" x="312.29116" xlink:href="#m93b0483c22" y="243.04782"/>
      </g>
     </g>
     <g id="line2d_15">
      <g>
       <use style="stroke:#000000;stroke-width:0.5;" x="312.29116" xlink:href="#m741efc42ff" y="12.64782"/>
      </g>
     </g>
     <g id="text_6">
      <!-- 0.5 -->
      <g transform="translate(305.9624425 254.643218125)scale(0.09996 -0.09996)">
       <use xlink:href="#WenQuanYiMicroHei-30"/>
       <use x="55.078125" xlink:href="#WenQuanYiMicroHei-2e"/>
       <use x="81.884765625" xlink:href="#WenQuanYiMicroHei-35"/>
      </g>
     </g>
    </g>
    <g id="xtick_7">
     <g id="line2d_16">
      <g>
       <use style="stroke:#000000;stroke-width:0.5;" x="368.09116" xlink:href="#m93b0483c22" y="243.04782"/>
      </g>
     </g>
     <g id="line2d_17">
      <g>
       <use style="stroke:#000000;stroke-width:0.5;" x="368.09116" xlink:href="#m741efc42ff" y="12.64782"/>
      </g>
     </g>
     <g id="text_7">
      <!-- 1.0 -->
      <g transform="translate(361.913944375 254.643218125)scale(0.09996 -0.09996)">
       <use xlink:href="#WenQuanYiMicroHei-31"/>
       <use x="55.078125" xlink:href="#WenQuanYiMicroHei-2e"/>
       <use x="81.884765625" xlink:href="#WenQuanYiMicroHei-30"/>
      </g>
     </g>
    </g>
    <g id="xtick_8">
     <g id="line2d_18">
      <g>
       <use style="stroke:#000000;stroke-width:0.5;" x="423.89116" xlink:href="#m93b0483c22" y="243.04782"/>
      </g>
     </g>
     <g id="line2d_19">
      <g>
       <use style="stroke:#000000;stroke-width:0.5;" x="423.89116" xlink:href="#m741efc42ff" y="12.64782"/>
      </g>
     </g>
     <g id="text_8">
      <!-- 1.5 -->
      <g transform="translate(417.757676875 254.643218125)scale(0.09996 -0.09996)">
       <use xlink:href="#WenQuanYiMicroHei-31"/>
       <use x="55.078125" xlink:href="#WenQuanYiMicroHei-2e"/>
       <use x="81.884765625" xlink:href="#WenQuanYiMicroHei-35"/>
      </g>
     </g>
    </g>
    <g id="xtick_9">
     <g id="line2d_20">
      <g>
       <use style="stroke:#000000;stroke-width:0.5;" x="479.69116" xlink:href="#m93b0483c22" y="243.04782"/>
      </g>
     </g>
     <g id="line2d_21">
      <g>
       <use style="stroke:#000000;stroke-width:0.5;" x="479.69116" xlink:href="#m741efc42ff" y="12.64782"/>
      </g>
     </g>
     <g id="text_9">
      <!-- 2.0 -->
      <g transform="translate(473.314024375 254.643218125)scale(0.09996 -0.09996)">
       <use xlink:href="#WenQuanYiMicroHei-32"/>
       <use x="55.078125" xlink:href="#WenQuanYiMicroHei-2e"/>
       <use x="81.884765625" xlink:href="#WenQuanYiMicroHei-30"/>
      </g>
     </g>
    </g>
   </g>
   <g id="matplotlib.axis_2">
    <g id="ytick_1">
     <g id="line2d_22">
      <defs>
       <path d="
M0 0
L4 0" id="m728421d6d4" style="stroke:#000000;stroke-width:0.5;"/>
      </defs>
      <g>
       <use style="stroke:#000000;stroke-width:0.5;" x="33.29116" xlink:href="#m728421d6d4" y="243.04782"/>
      </g>
     </g>
     <g id="line2d_23">
      <defs>
       <path d="
M0 0
L-4 0" id="mcb0005524f" style="stroke:#000000;stroke-width:0.5;"/>
      </defs>
      <g>
       <use style="stroke:#000000;stroke-width:0.5;" x="479.69116" xlink:href="#mcb0005524f" y="243.04782"/>
      </g>
     </g>
     <g id="text_10">
      <!-- $\mathdefault{10^{-12}}$ -->
      <defs>
       <path d="
M4 22.7031
L4 30.9062
L28.2188 30.9062
L28.2188 22.7031
z
" id="WenQuanYiMicroHei-2d"/>
      </defs>
      <g transform="translate(7.2 246.09347625)scale(0.09996 -0.09996)">
       <use transform="translate(0.0 0.8828125)" xlink:href="#WenQuanYiMicroHei-31"/>
       <use transform="translate(55.078125 0.8828125)" xlink:href="#WenQuanYiMicroHei-30"/>
       <use transform="translate(110.15625 57.315625)scale(0.7)" xlink:href="#WenQuanYiMicroHei-2d"/>
       <use transform="translate(132.680664062 57.315625)scale(0.7)" xlink:href="#WenQuanYiMicroHei-31"/>
       <use transform="translate(171.235351562 57.315625)scale(0.7)" xlink:href="#WenQuanYiMicroHei-32"/>
      </g>
     </g>
    </g>
    <g id="ytick_2">
     <g id="line2d_24">
      <g>
       <use style="stroke:#000000;stroke-width:0.5;" x="33.29116" xlink:href="#m728421d6d4" y="217.44782"/>
      </g>
     </g>
     <g id="line2d_25">
      <g>
       <use style="stroke:#000000;stroke-width:0.5;" x="479.69116" xlink:href="#mcb0005524f" y="217.44782"/>
      </g>
     </g>
     <g id="text_11">
      <!-- $\mathdefault{10^{-11}}$ -->
      <g transform="translate(7.2 220.44349625)scale(0.09996 -0.09996)">
       <use transform="translate(0.0 0.59375)" xlink:href="#WenQuanYiMicroHei-31"/>
       <use transform="translate(55.078125 0.59375)" xlink:href="#WenQuanYiMicroHei-30"/>
       <use transform="translate(110.15625 57.0265625)scale(0.7)" xlink:href="#WenQuanYiMicroHei-2d"/>
       <use transform="translate(132.680664062 57.0265625)scale(0.7)" xlink:href="#WenQuanYiMicroHei-31"/>
       <use transform="translate(171.235351562 57.0265625)scale(0.7)" xlink:href="#WenQuanYiMicroHei-31"/>
      </g>
     </g>
    </g>
    <g id="ytick_3">
     <g id="line2d_26">
      <g>
       <use style="stroke:#000000;stroke-width:0.5;" x="33.29116" xlink:href="#m728421d6d4" y="191.84782"/>
      </g>
     </g>
     <g id="line2d_27">
      <g>
       <use style="stroke:#000000;stroke-width:0.5;" x="479.69116" xlink:href="#mcb0005524f" y="191.84782"/>
      </g>
     </g>
     <g id="text_12">
      <!-- $\mathdefault{10^{-10}}$ -->
      <g transform="translate(7.2 194.89347625)scale(0.09996 -0.09996)">
       <use transform="translate(0.0 0.80625)" xlink:href="#WenQuanYiMicroHei-31"/>
       <use transform="translate(55.078125 0.80625)" xlink:href="#WenQuanYiMicroHei-30"/>
       <use transform="translate(110.15625 57.2390625)scale(0.7)" xlink:href="#WenQuanYiMicroHei-2d"/>
       <use transform="translate(132.680664062 57.2390625)scale(0.7)" xlink:href="#WenQuanYiMicroHei-31"/>
       <use transform="translate(171.235351562 57.2390625)scale(0.7)" xlink:href="#WenQuanYiMicroHei-30"/>
      </g>
     </g>
    </g>
    <g id="ytick_4">
     <g id="line2d_28">
      <g>
       <use style="stroke:#000000;stroke-width:0.5;" x="33.29116" xlink:href="#m728421d6d4" y="166.24782"/>
      </g>
     </g>
     <g id="line2d_29">
      <g>
       <use style="stroke:#000000;stroke-width:0.5;" x="479.69116" xlink:href="#mcb0005524f" y="166.24782"/>
      </g>
     </g>
     <g id="text_13">
      <!-- $\mathdefault{10^{-9}}$ -->
      <defs>
       <path d="
M50.2031 40.9219
Q50.2031 35.7969 49.6875 30.6875
Q49.1719 25.5938 47.875 20.9531
Q46.5781 16.3125 44.3281 12.2812
Q42.0938 8.25 38.625 5.3125
Q35.1562 2.39062 30.3125 0.703125
Q25.4844 -0.984375 19 -0.984375
Q18.0625 -0.984375 16.9375 -0.921875
Q15.8281 -0.875 14.7031 -0.75
Q13.5781 -0.640625 12.5 -0.484375
Q11.4219 -0.34375 10.5938 -0.09375
L10.5938 7.51562
Q12.3125 6.89062 14.4531 6.59375
Q16.6094 6.29688 18.7031 6.29688
Q25.2969 6.29688 29.5469 8.59375
Q33.7969 10.8906 36.2812 14.8125
Q38.7656 18.75 39.8125 23.9688
Q40.875 29.2031 41.1094 35.0156
L40.4844 35.0156
Q39.5 33.25 38.125 31.7344
Q36.7656 30.2188 34.9062 29.0938
Q33.0625 27.9844 30.7188 27.3438
Q28.375 26.7031 25.4844 26.7031
Q20.8438 26.7031 17.0781 28.1406
Q13.3281 29.5938 10.6875 32.375
Q8.0625 35.1562 6.60938 39.1875
Q5.17188 43.2188 5.17188 48.3906
Q5.17188 53.9531 6.70312 58.4219
Q8.25 62.8906 11.0625 65.9844
Q13.875 69.0938 17.8906 70.75
Q21.9219 72.4062 26.9062 72.4062
Q31.8438 72.4062 36.0781 70.5
Q40.3281 68.6094 43.4531 64.7031
Q46.5781 60.7969 48.3906 54.8594
Q50.2031 48.9219 50.2031 40.9219
M27 64.8906
Q24.0781 64.8906 21.6562 63.9062
Q19.2344 62.9375 17.4688 60.8906
Q15.7188 58.8438 14.7656 55.7344
Q13.8125 52.6406 13.8125 48.3906
Q13.8125 44.9688 14.625 42.25
Q15.4375 39.5469 17.0469 37.6406
Q18.6562 35.75 21.0625 34.7188
Q23.4844 33.6875 26.7031 33.6875
Q30.0312 33.6875 32.7188 34.8281
Q35.4062 35.9844 37.2969 37.8125
Q39.2031 39.6562 40.25 42
Q41.3125 44.3438 41.3125 46.6875
Q41.3125 49.9531 40.4062 53.2031
Q39.5 56.4531 37.7188 59.0625
Q35.9375 61.6719 33.25 63.2812
Q30.5625 64.8906 27 64.8906" id="WenQuanYiMicroHei-39"/>
      </defs>
      <g transform="translate(11.09844 169.29347625)scale(0.09996 -0.09996)">
       <use transform="translate(0.0 0.8828125)" xlink:href="#WenQuanYiMicroHei-31"/>
       <use transform="translate(55.078125 0.8828125)" xlink:href="#WenQuanYiMicroHei-30"/>
       <use transform="translate(110.15625 57.315625)scale(0.7)" xlink:href="#WenQuanYiMicroHei-2d"/>
       <use transform="translate(132.680664062 57.315625)scale(0.7)" xlink:href="#WenQuanYiMicroHei-39"/>
      </g>
     </g>
    </g>
    <g id="ytick_5">
     <g id="line2d_30">
      <g>
       <use style="stroke:#000000;stroke-width:0.5;" x="33.29116" xlink:href="#m728421d6d4" y="140.64782"/>
      </g>
     </g>
     <g id="line2d_31">
      <g>
       <use style="stroke:#000000;stroke-width:0.5;" x="479.69116" xlink:href="#mcb0005524f" y="140.64782"/>
      </g>
     </g>
     <g id="text_14">
      <!-- $\mathdefault{10^{-8}}$ -->
      <defs>
       <path d="
M27.5938 72.5156
Q31.6875 72.5156 35.3281 71.4375
Q38.9688 70.3594 41.7188 68.2031
Q44.4844 66.0625 46.0938 62.8438
Q47.7031 59.625 47.7031 55.3281
Q47.7031 52.0469 46.7188 49.4062
Q45.75 46.7812 44.0312 44.6562
Q42.3281 42.5312 39.9844 40.8438
Q37.6406 39.1562 34.9062 37.7969
Q37.75 36.2812 40.4531 34.4219
Q43.1719 32.5625 45.2812 30.25
Q47.4062 27.9375 48.7031 25.0469
Q50 22.1719 50 18.6094
Q50 14.1094 48.3594 10.4688
Q46.7344 6.84375 43.7812 4.29688
Q40.8281 1.76562 36.6875 0.390625
Q32.5625 -0.984375 27.5938 -0.984375
Q22.2188 -0.984375 18.0469 0.328125
Q13.875 1.65625 11.0156 4.125
Q8.15625 6.59375 6.65625 10.1562
Q5.17188 13.7188 5.17188 18.2188
Q5.17188 21.875 6.26562 24.7969
Q7.375 27.7344 9.21875 30.0781
Q11.0781 32.4219 13.6094 34.2188
Q16.1562 36.0312 19 37.4062
Q16.6094 38.9219 14.5 40.7031
Q12.4062 42.4844 10.8594 44.6719
Q9.32812 46.875 8.42188 49.5312
Q7.51562 52.2031 7.51562 55.4219
Q7.51562 59.6719 9.15625 62.8594
Q10.7969 66.0625 13.5781 68.2031
Q16.3594 70.3594 20 71.4375
Q23.6406 72.5156 27.5938 72.5156
M13.9219 18.1094
Q13.9219 15.5312 14.7031 13.3594
Q15.4844 11.1875 17.1406 9.64062
Q18.7969 8.10938 21.3281 7.25
Q23.875 6.39062 27.3906 6.39062
Q30.8125 6.39062 33.4219 7.25
Q36.0312 8.10938 37.7812 9.6875
Q39.5469 11.2812 40.4219 13.5156
Q41.3125 15.7656 41.3125 18.5
Q41.3125 21.0469 40.3594 23.0938
Q39.4062 25.1406 37.625 26.8906
Q35.8438 28.6562 33.3438 30.2188
Q30.8594 31.7812 27.7812 33.2969
L26.3125 33.9844
Q20.1719 31.0625 17.0469 27.2656
Q13.9219 23.4844 13.9219 18.1094
M27.4844 65.0938
Q22.3125 65.0938 19.2656 62.5
Q16.2188 59.9062 16.2188 54.9844
Q16.2188 52.2031 17.0625 50.1875
Q17.9219 48.1875 19.4375 46.625
Q20.9531 45.0625 23.0781 43.8125
Q25.2031 42.5781 27.6875 41.4062
Q30.0312 42.4844 32.1094 43.75
Q34.1875 45.0156 35.7188 46.625
Q37.25 48.25 38.125 50.2969
Q39.0156 52.3438 39.0156 54.9844
Q39.0156 59.9062 35.9375 62.5
Q32.8594 65.0938 27.4844 65.0938" id="WenQuanYiMicroHei-38"/>
      </defs>
      <g transform="translate(11.09844 143.69347625)scale(0.09996 -0.09996)">
       <use transform="translate(0.0 0.80625)" xlink:href="#WenQuanYiMicroHei-31"/>
       <use transform="translate(55.078125 0.80625)" xlink:href="#WenQuanYiMicroHei-30"/>
       <use transform="translate(110.15625 57.2390625)scale(0.7)" xlink:href="#WenQuanYiMicroHei-2d"/>
       <use transform="translate(132.680664062 57.2390625)scale(0.7)" xlink:href="#WenQuanYiMicroHei-38"/>
      </g>
     </g>
    </g>
    <g id="ytick_6">
     <g id="line2d_32">
      <g>
       <use style="stroke:#000000;stroke-width:0.5;" x="33.29116" xlink:href="#m728421d6d4" y="115.04782"/>
      </g>
     </g>
     <g id="line2d_33">
      <g>
       <use style="stroke:#000000;stroke-width:0.5;" x="479.69116" xlink:href="#mcb0005524f" y="115.04782"/>
      </g>
     </g>
     <g id="text_15">
      <!-- $\mathdefault{10^{-7}}$ -->
      <defs>
       <path d="
M13.7188 0
L41.2188 63.2812
L4.39062 63.2812
L4.39062 71.3906
L50.2969 71.3906
L50.2969 64.3125
L23.1875 0
z
" id="WenQuanYiMicroHei-37"/>
      </defs>
      <g transform="translate(11.09844 118.04349625)scale(0.09996 -0.09996)">
       <use transform="translate(0.0 0.59375)" xlink:href="#WenQuanYiMicroHei-31"/>
       <use transform="translate(55.078125 0.59375)" xlink:href="#WenQuanYiMicroHei-30"/>
       <use transform="translate(110.15625 57.0265625)scale(0.7)" xlink:href="#WenQuanYiMicroHei-2d"/>
       <use transform="translate(132.680664062 57.0265625)scale(0.7)" xlink:href="#WenQuanYiMicroHei-37"/>
      </g>
     </g>
    </g>
    <g id="ytick_7">
     <g id="line2d_34">
      <g>
       <use style="stroke:#000000;stroke-width:0.5;" x="33.29116" xlink:href="#m728421d6d4" y="89.44782"/>
      </g>
     </g>
     <g id="line2d_35">
      <g>
       <use style="stroke:#000000;stroke-width:0.5;" x="479.69116" xlink:href="#mcb0005524f" y="89.44782"/>
      </g>
     </g>
     <g id="text_16">
      <!-- $\mathdefault{10^{-6}}$ -->
      <defs>
       <path d="
M5.51562 30.5156
Q5.51562 35.6406 6.03125 40.7188
Q6.54688 45.7969 7.82812 50.4531
Q9.125 55.125 11.375 59.125
Q13.625 63.1406 17.0938 66.0938
Q20.5625 69.0469 25.3906 70.7188
Q30.2188 72.4062 36.7188 72.4062
Q37.6406 72.4062 38.7656 72.3594
Q39.8906 72.3125 41.0312 72.1875
Q42.1875 72.0781 43.2344 71.9062
Q44.2812 71.7344 45.125 71.4844
L45.125 63.9219
Q43.4062 64.5 41.25 64.7969
Q39.1094 65.0938 37.0156 65.0938
Q32.625 65.0938 29.2656 64.0312
Q25.9219 62.9844 23.4844 61.0781
Q21.0469 59.1875 19.4062 56.5469
Q17.7812 53.9062 16.75 50.7031
Q15.7188 47.5156 15.2344 43.8906
Q14.75 40.2812 14.5938 36.375
L15.1875 36.375
Q16.1562 38.1406 17.5469 39.6719
Q18.9531 41.2188 20.7969 42.3125
Q22.6562 43.4062 24.9688 44.0312
Q27.2969 44.6719 30.1719 44.6719
Q34.8125 44.6719 38.5625 43.2344
Q42.3281 41.7969 44.9688 39.0156
Q47.6094 36.2344 49.0469 32.2031
Q50.4844 28.1719 50.4844 23
Q50.4844 17.4375 48.9688 12.9844
Q47.4688 8.54688 44.625 5.4375
Q41.7969 2.34375 37.7969 0.671875
Q33.7969 -0.984375 28.8125 -0.984375
Q23.9219 -0.984375 19.6406 0.921875
Q15.375 2.82812 12.25 6.73438
Q9.125 10.6406 7.3125 16.5469
Q5.51562 22.4688 5.51562 30.5156
M28.7188 6.5
Q31.6406 6.5 34.0469 7.5
Q36.4688 8.5 38.2188 10.5156
Q39.9844 12.5469 40.9375 15.6406
Q41.8906 18.75 41.8906 23
Q41.8906 26.4219 41.0781 29.125
Q40.2812 31.8438 38.6719 33.7344
Q37.0625 35.6406 34.6406 36.6719
Q32.2344 37.7031 29 37.7031
Q25.7344 37.7031 23.0156 36.5469
Q20.3125 35.4062 18.4062 33.5625
Q16.5 31.7344 15.4531 29.3906
Q14.4062 27.0469 14.4062 24.7031
Q14.4062 21.4375 15.3125 18.1875
Q16.2188 14.9375 18 12.3438
Q19.7812 9.76562 22.4531 8.125
Q25.1406 6.5 28.7188 6.5" id="WenQuanYiMicroHei-36"/>
      </defs>
      <g transform="translate(11.09844 92.49347625)scale(0.09996 -0.09996)">
       <use transform="translate(0.0 0.8828125)" xlink:href="#WenQuanYiMicroHei-31"/>
       <use transform="translate(55.078125 0.8828125)" xlink:href="#WenQuanYiMicroHei-30"/>
       <use transform="translate(110.15625 57.315625)scale(0.7)" xlink:href="#WenQuanYiMicroHei-2d"/>
       <use transform="translate(132.680664062 57.315625)scale(0.7)" xlink:href="#WenQuanYiMicroHei-36"/>
      </g>
     </g>
    </g>
    <g id="ytick_8">
     <g id="line2d_36">
      <g>
       <use style="stroke:#000000;stroke-width:0.5;" x="33.29116" xlink:href="#m728421d6d4" y="63.84782"/>
      </g>
     </g>
     <g id="line2d_37">
      <g>
       <use style="stroke:#000000;stroke-width:0.5;" x="479.69116" xlink:href="#mcb0005524f" y="63.84782"/>
      </g>
     </g>
     <g id="text_17">
      <!-- $\mathdefault{10^{-5}}$ -->
      <g transform="translate(11.09844 66.84349625)scale(0.09996 -0.09996)">
       <use transform="translate(0.0 0.59375)" xlink:href="#WenQuanYiMicroHei-31"/>
       <use transform="translate(55.078125 0.59375)" xlink:href="#WenQuanYiMicroHei-30"/>
       <use transform="translate(110.15625 57.0265625)scale(0.7)" xlink:href="#WenQuanYiMicroHei-2d"/>
       <use transform="translate(132.680664062 57.0265625)scale(0.7)" xlink:href="#WenQuanYiMicroHei-35"/>
      </g>
     </g>
    </g>
    <g id="ytick_9">
     <g id="line2d_38">
      <g>
       <use style="stroke:#000000;stroke-width:0.5;" x="33.29116" xlink:href="#m728421d6d4" y="38.24782"/>
      </g>
     </g>
     <g id="line2d_39">
      <g>
       <use style="stroke:#000000;stroke-width:0.5;" x="479.69116" xlink:href="#mcb0005524f" y="38.24782"/>
      </g>
     </g>
     <g id="text_18">
      <!-- $\mathdefault{10^{-4}}$ -->
      <defs>
       <path d="
M53.0781 16.0156
L42.6719 16.0156
L42.6719 0
L34.0781 0
L34.0781 16.0156
L1.125 16.0156
L1.125 23.7812
L33.5 71.7812
L42.6719 71.7812
L42.6719 24.125
L53.0781 24.125
z

M34.0781 24.125
L34.0781 41.5
Q34.0781 44.2344 34.1562 47.2344
Q34.2344 50.25 34.3281 53.0938
Q34.4219 55.9531 34.5469 58.4375
Q34.6719 60.9375 34.7188 62.5938
L34.2812 62.5938
Q33.9375 61.625 33.4219 60.4219
Q32.9062 59.2344 32.2969 58.0312
Q31.6875 56.8438 31.0469 55.7188
Q30.4219 54.5938 29.8906 53.8125
L9.8125 24.125
z
" id="WenQuanYiMicroHei-34"/>
      </defs>
      <g transform="translate(11.09844 41.24349625)scale(0.09996 -0.09996)">
       <use transform="translate(0.0 0.3203125)" xlink:href="#WenQuanYiMicroHei-31"/>
       <use transform="translate(55.078125 0.3203125)" xlink:href="#WenQuanYiMicroHei-30"/>
       <use transform="translate(110.15625 56.753125)scale(0.7)" xlink:href="#WenQuanYiMicroHei-2d"/>
       <use transform="translate(132.680664062 56.753125)scale(0.7)" xlink:href="#WenQuanYiMicroHei-34"/>
      </g>
     </g>
    </g>
    <g id="ytick_10">
     <g id="line2d_40">
      <g>
       <use style="stroke:#000000;stroke-width:0.5;" x="33.29116" xlink:href="#m728421d6d4" y="12.64782"/>
      </g>
     </g>
     <g id="line2d_41">
      <g>
       <use style="stroke:#000000;stroke-width:0.5;" x="479.69116" xlink:href="#mcb0005524f" y="12.64782"/>
      </g>
     </g>
     <g id="text_19">
      <!-- $\mathdefault{10^{-3}}$ -->
      <defs>
       <path d="
M46.9219 54.6875
Q46.9219 51.125 45.7969 48.1875
Q44.6719 45.2656 42.6406 43.1094
Q40.625 40.9688 37.7969 39.5781
Q34.9688 38.1875 31.5 37.5938
L31.5 37.3125
Q40.1406 36.2344 44.625 31.8125
Q49.125 27.3906 49.125 20.3125
Q49.125 15.625 47.5312 11.7188
Q45.9531 7.8125 42.7188 4.98438
Q39.5 2.15625 34.5625 0.578125
Q29.6406 -0.984375 22.9062 -0.984375
Q17.5781 -0.984375 12.8594 -0.140625
Q8.15625 0.6875 4 2.875
L4 11.1875
Q8.25 8.9375 13.2031 7.71875
Q18.1719 6.5 22.7031 6.5
Q27.2031 6.5 30.4688 7.46875
Q33.7344 8.45312 35.8594 10.25
Q37.9844 12.0625 38.9844 14.6875
Q39.9844 17.3281 39.9844 20.6094
Q39.9844 23.9219 38.6875 26.2812
Q37.4062 28.6562 35.0156 30.1875
Q32.625 31.7344 29.1719 32.4688
Q25.7344 33.2031 21.3906 33.2031
L14.8906 33.2031
L14.8906 40.5781
L21.3906 40.5781
Q25.3438 40.5781 28.4219 41.5469
Q31.5 42.5312 33.5625 44.3281
Q35.6406 46.1406 36.7188 48.625
Q37.7969 51.125 37.7969 54.1094
Q37.7969 56.6406 36.9062 58.6406
Q36.0312 60.6406 34.4219 62.0312
Q32.8125 63.4219 30.5625 64.1562
Q28.3281 64.8906 25.5938 64.8906
Q20.3594 64.8906 16.375 63.25
Q12.4062 61.625 8.79688 58.9844
L4.29688 65.0938
Q6.15625 66.6094 8.42188 67.9219
Q10.6875 69.2344 13.375 70.2344
Q16.0625 71.2344 19.1094 71.8125
Q22.1719 72.4062 25.5938 72.4062
Q30.8594 72.4062 34.8281 71.0938
Q38.8125 69.7812 41.5 67.4062
Q44.1875 65.0469 45.5469 61.7969
Q46.9219 58.5469 46.9219 54.6875" id="WenQuanYiMicroHei-33"/>
      </defs>
      <g transform="translate(11.09844 15.69347625)scale(0.09996 -0.09996)">
       <use transform="translate(0.0 0.8828125)" xlink:href="#WenQuanYiMicroHei-31"/>
       <use transform="translate(55.078125 0.8828125)" xlink:href="#WenQuanYiMicroHei-30"/>
       <use transform="translate(110.15625 57.315625)scale(0.7)" xlink:href="#WenQuanYiMicroHei-2d"/>
       <use transform="translate(132.680664062 57.315625)scale(0.7)" xlink:href="#WenQuanYiMicroHei-33"/>
      </g>
     </g>
    </g>
    <g id="ytick_11">
     <g id="line2d_42">
      <defs>
       <path d="
M0 0
L2 0" id="mf0c55a9a47" style="stroke:#000000;stroke-width:0.5;"/>
      </defs>
      <g>
       <use style="stroke:#000000;stroke-width:0.5;" x="33.29116" xlink:href="#mf0c55a9a47" y="235.341452111"/>
      </g>
     </g>
     <g id="line2d_43">
      <defs>
       <path d="
M0 0
L-2 0" id="ma4f294b3af" style="stroke:#000000;stroke-width:0.5;"/>
      </defs>
      <g>
       <use style="stroke:#000000;stroke-width:0.5;" x="479.69116" xlink:href="#ma4f294b3af" y="235.341452111"/>
      </g>
     </g>
    </g>
    <g id="ytick_12">
     <g id="line2d_44">
      <g>
       <use style="stroke:#000000;stroke-width:0.5;" x="33.29116" xlink:href="#mf0c55a9a47" y="227.635084222"/>
      </g>
     </g>
     <g id="line2d_45">
      <g>
       <use style="stroke:#000000;stroke-width:0.5;" x="479.69116" xlink:href="#ma4f294b3af" y="227.635084222"/>
      </g>
     </g>
    </g>
    <g id="ytick_13">
     <g id="line2d_46">
      <g>
       <use style="stroke:#000000;stroke-width:0.5;" x="33.29116" xlink:href="#mf0c55a9a47" y="223.12714799"/>
      </g>
     </g>
     <g id="line2d_47">
      <g>
       <use style="stroke:#000000;stroke-width:0.5;" x="479.69116" xlink:href="#ma4f294b3af" y="223.12714799"/>
      </g>
     </g>
    </g>
    <g id="ytick_14">
     <g id="line2d_48">
      <g>
       <use style="stroke:#000000;stroke-width:0.5;" x="33.29116" xlink:href="#mf0c55a9a47" y="219.928716333"/>
      </g>
     </g>
     <g id="line2d_49">
      <g>
       <use style="stroke:#000000;stroke-width:0.5;" x="479.69116" xlink:href="#ma4f294b3af" y="219.928716333"/>
      </g>
     </g>
    </g>
    <g id="ytick_15">
     <g id="line2d_50">
      <g>
       <use style="stroke:#000000;stroke-width:0.5;" x="33.29116" xlink:href="#mf0c55a9a47" y="209.741452111"/>
      </g>
     </g>
     <g id="line2d_51">
      <g>
       <use style="stroke:#000000;stroke-width:0.5;" x="479.69116" xlink:href="#ma4f294b3af" y="209.741452111"/>
      </g>
     </g>
    </g>
    <g id="ytick_16">
     <g id="line2d_52">
      <g>
       <use style="stroke:#000000;stroke-width:0.5;" x="33.29116" xlink:href="#mf0c55a9a47" y="202.035084222"/>
      </g>
     </g>
     <g id="line2d_53">
      <g>
       <use style="stroke:#000000;stroke-width:0.5;" x="479.69116" xlink:href="#ma4f294b3af" y="202.035084222"/>
      </g>
     </g>
    </g>
    <g id="ytick_17">
     <g id="line2d_54">
      <g>
       <use style="stroke:#000000;stroke-width:0.5;" x="33.29116" xlink:href="#mf0c55a9a47" y="197.52714799"/>
      </g>
     </g>
     <g id="line2d_55">
      <g>
       <use style="stroke:#000000;stroke-width:0.5;" x="479.69116" xlink:href="#ma4f294b3af" y="197.52714799"/>
      </g>
     </g>
    </g>
    <g id="ytick_18">
     <g id="line2d_56">
      <g>
       <use style="stroke:#000000;stroke-width:0.5;" x="33.29116" xlink:href="#mf0c55a9a47" y="194.328716333"/>
      </g>
     </g>
     <g id="line2d_57">
      <g>
       <use style="stroke:#000000;stroke-width:0.5;" x="479.69116" xlink:href="#ma4f294b3af" y="194.328716333"/>
      </g>
     </g>
    </g>
    <g id="ytick_19">
     <g id="line2d_58">
      <g>
       <use style="stroke:#000000;stroke-width:0.5;" x="33.29116" xlink:href="#mf0c55a9a47" y="184.141452111"/>
      </g>
     </g>
     <g id="line2d_59">
      <g>
       <use style="stroke:#000000;stroke-width:0.5;" x="479.69116" xlink:href="#ma4f294b3af" y="184.141452111"/>
      </g>
     </g>
    </g>
    <g id="ytick_20">
     <g id="line2d_60">
      <g>
       <use style="stroke:#000000;stroke-width:0.5;" x="33.29116" xlink:href="#mf0c55a9a47" y="176.435084222"/>
      </g>
     </g>
     <g id="line2d_61">
      <g>
       <use style="stroke:#000000;stroke-width:0.5;" x="479.69116" xlink:href="#ma4f294b3af" y="176.435084222"/>
      </g>
     </g>
    </g>
    <g id="ytick_21">
     <g id="line2d_62">
      <g>
       <use style="stroke:#000000;stroke-width:0.5;" x="33.29116" xlink:href="#mf0c55a9a47" y="171.92714799"/>
      </g>
     </g>
     <g id="line2d_63">
      <g>
       <use style="stroke:#000000;stroke-width:0.5;" x="479.69116" xlink:href="#ma4f294b3af" y="171.92714799"/>
      </g>
     </g>
    </g>
    <g id="ytick_22">
     <g id="line2d_64">
      <g>
       <use style="stroke:#000000;stroke-width:0.5;" x="33.29116" xlink:href="#mf0c55a9a47" y="168.728716333"/>
      </g>
     </g>
     <g id="line2d_65">
      <g>
       <use style="stroke:#000000;stroke-width:0.5;" x="479.69116" xlink:href="#ma4f294b3af" y="168.728716333"/>
      </g>
     </g>
    </g>
    <g id="ytick_23">
     <g id="line2d_66">
      <g>
       <use style="stroke:#000000;stroke-width:0.5;" x="33.29116" xlink:href="#mf0c55a9a47" y="158.541452111"/>
      </g>
     </g>
     <g id="line2d_67">
      <g>
       <use style="stroke:#000000;stroke-width:0.5;" x="479.69116" xlink:href="#ma4f294b3af" y="158.541452111"/>
      </g>
     </g>
    </g>
    <g id="ytick_24">
     <g id="line2d_68">
      <g>
       <use style="stroke:#000000;stroke-width:0.5;" x="33.29116" xlink:href="#mf0c55a9a47" y="150.835084222"/>
      </g>
     </g>
     <g id="line2d_69">
      <g>
       <use style="stroke:#000000;stroke-width:0.5;" x="479.69116" xlink:href="#ma4f294b3af" y="150.835084222"/>
      </g>
     </g>
    </g>
    <g id="ytick_25">
     <g id="line2d_70">
      <g>
       <use style="stroke:#000000;stroke-width:0.5;" x="33.29116" xlink:href="#mf0c55a9a47" y="146.32714799"/>
      </g>
     </g>
     <g id="line2d_71">
      <g>
       <use style="stroke:#000000;stroke-width:0.5;" x="479.69116" xlink:href="#ma4f294b3af" y="146.32714799"/>
      </g>
     </g>
    </g>
    <g id="ytick_26">
     <g id="line2d_72">
      <g>
       <use style="stroke:#000000;stroke-width:0.5;" x="33.29116" xlink:href="#mf0c55a9a47" y="143.128716333"/>
      </g>
     </g>
     <g id="line2d_73">
      <g>
       <use style="stroke:#000000;stroke-width:0.5;" x="479.69116" xlink:href="#ma4f294b3af" y="143.128716333"/>
      </g>
     </g>
    </g>
    <g id="ytick_27">
     <g id="line2d_74">
      <g>
       <use style="stroke:#000000;stroke-width:0.5;" x="33.29116" xlink:href="#mf0c55a9a47" y="132.941452111"/>
      </g>
     </g>
     <g id="line2d_75">
      <g>
       <use style="stroke:#000000;stroke-width:0.5;" x="479.69116" xlink:href="#ma4f294b3af" y="132.941452111"/>
      </g>
     </g>
    </g>
    <g id="ytick_28">
     <g id="line2d_76">
      <g>
       <use style="stroke:#000000;stroke-width:0.5;" x="33.29116" xlink:href="#mf0c55a9a47" y="125.235084222"/>
      </g>
     </g>
     <g id="line2d_77">
      <g>
       <use style="stroke:#000000;stroke-width:0.5;" x="479.69116" xlink:href="#ma4f294b3af" y="125.235084222"/>
      </g>
     </g>
    </g>
    <g id="ytick_29">
     <g id="line2d_78">
      <g>
       <use style="stroke:#000000;stroke-width:0.5;" x="33.29116" xlink:href="#mf0c55a9a47" y="120.72714799"/>
      </g>
     </g>
     <g id="line2d_79">
      <g>
       <use style="stroke:#000000;stroke-width:0.5;" x="479.69116" xlink:href="#ma4f294b3af" y="120.72714799"/>
      </g>
     </g>
    </g>
    <g id="ytick_30">
     <g id="line2d_80">
      <g>
       <use style="stroke:#000000;stroke-width:0.5;" x="33.29116" xlink:href="#mf0c55a9a47" y="117.528716333"/>
      </g>
     </g>
     <g id="line2d_81">
      <g>
       <use style="stroke:#000000;stroke-width:0.5;" x="479.69116" xlink:href="#ma4f294b3af" y="117.528716333"/>
      </g>
     </g>
    </g>
    <g id="ytick_31">
     <g id="line2d_82">
      <g>
       <use style="stroke:#000000;stroke-width:0.5;" x="33.29116" xlink:href="#mf0c55a9a47" y="107.341452111"/>
      </g>
     </g>
     <g id="line2d_83">
      <g>
       <use style="stroke:#000000;stroke-width:0.5;" x="479.69116" xlink:href="#ma4f294b3af" y="107.341452111"/>
      </g>
     </g>
    </g>
    <g id="ytick_32">
     <g id="line2d_84">
      <g>
       <use style="stroke:#000000;stroke-width:0.5;" x="33.29116" xlink:href="#mf0c55a9a47" y="99.635084222"/>
      </g>
     </g>
     <g id="line2d_85">
      <g>
       <use style="stroke:#000000;stroke-width:0.5;" x="479.69116" xlink:href="#ma4f294b3af" y="99.635084222"/>
      </g>
     </g>
    </g>
    <g id="ytick_33">
     <g id="line2d_86">
      <g>
       <use style="stroke:#000000;stroke-width:0.5;" x="33.29116" xlink:href="#mf0c55a9a47" y="95.1271479902"/>
      </g>
     </g>
     <g id="line2d_87">
      <g>
       <use style="stroke:#000000;stroke-width:0.5;" x="479.69116" xlink:href="#ma4f294b3af" y="95.1271479902"/>
      </g>
     </g>
    </g>
    <g id="ytick_34">
     <g id="line2d_88">
      <g>
       <use style="stroke:#000000;stroke-width:0.5;" x="33.29116" xlink:href="#mf0c55a9a47" y="91.928716333"/>
      </g>
     </g>
     <g id="line2d_89">
      <g>
       <use style="stroke:#000000;stroke-width:0.5;" x="479.69116" xlink:href="#ma4f294b3af" y="91.928716333"/>
      </g>
     </g>
    </g>
    <g id="ytick_35">
     <g id="line2d_90">
      <g>
       <use style="stroke:#000000;stroke-width:0.5;" x="33.29116" xlink:href="#mf0c55a9a47" y="81.741452111"/>
      </g>
     </g>
     <g id="line2d_91">
      <g>
       <use style="stroke:#000000;stroke-width:0.5;" x="479.69116" xlink:href="#ma4f294b3af" y="81.741452111"/>
      </g>
     </g>
    </g>
    <g id="ytick_36">
     <g id="line2d_92">
      <g>
       <use style="stroke:#000000;stroke-width:0.5;" x="33.29116" xlink:href="#mf0c55a9a47" y="74.035084222"/>
      </g>
     </g>
     <g id="line2d_93">
      <g>
       <use style="stroke:#000000;stroke-width:0.5;" x="479.69116" xlink:href="#ma4f294b3af" y="74.035084222"/>
      </g>
     </g>
    </g>
    <g id="ytick_37">
     <g id="line2d_94">
      <g>
       <use style="stroke:#000000;stroke-width:0.5;" x="33.29116" xlink:href="#mf0c55a9a47" y="69.5271479902"/>
      </g>
     </g>
     <g id="line2d_95">
      <g>
       <use style="stroke:#000000;stroke-width:0.5;" x="479.69116" xlink:href="#ma4f294b3af" y="69.5271479902"/>
      </g>
     </g>
    </g>
    <g id="ytick_38">
     <g id="line2d_96">
      <g>
       <use style="stroke:#000000;stroke-width:0.5;" x="33.29116" xlink:href="#mf0c55a9a47" y="66.328716333"/>
      </g>
     </g>
     <g id="line2d_97">
      <g>
       <use style="stroke:#000000;stroke-width:0.5;" x="479.69116" xlink:href="#ma4f294b3af" y="66.328716333"/>
      </g>
     </g>
    </g>
    <g id="ytick_39">
     <g id="line2d_98">
      <g>
       <use style="stroke:#000000;stroke-width:0.5;" x="33.29116" xlink:href="#mf0c55a9a47" y="56.141452111"/>
      </g>
     </g>
     <g id="line2d_99">
      <g>
       <use style="stroke:#000000;stroke-width:0.5;" x="479.69116" xlink:href="#ma4f294b3af" y="56.141452111"/>
      </g>
     </g>
    </g>
    <g id="ytick_40">
     <g id="line2d_100">
      <g>
       <use style="stroke:#000000;stroke-width:0.5;" x="33.29116" xlink:href="#mf0c55a9a47" y="48.435084222"/>
      </g>
     </g>
     <g id="line2d_101">
      <g>
       <use style="stroke:#000000;stroke-width:0.5;" x="479.69116" xlink:href="#ma4f294b3af" y="48.435084222"/>
      </g>
     </g>
    </g>
    <g id="ytick_41">
     <g id="line2d_102">
      <g>
       <use style="stroke:#000000;stroke-width:0.5;" x="33.29116" xlink:href="#mf0c55a9a47" y="43.9271479902"/>
      </g>
     </g>
     <g id="line2d_103">
      <g>
       <use style="stroke:#000000;stroke-width:0.5;" x="479.69116" xlink:href="#ma4f294b3af" y="43.9271479902"/>
      </g>
     </g>
    </g>
    <g id="ytick_42">
     <g id="line2d_104">
      <g>
       <use style="stroke:#000000;stroke-width:0.5;" x="33.29116" xlink:href="#mf0c55a9a47" y="40.728716333"/>
      </g>
     </g>
     <g id="line2d_105">
      <g>
       <use style="stroke:#000000;stroke-width:0.5;" x="479.69116" xlink:href="#ma4f294b3af" y="40.728716333"/>
      </g>
     </g>
    </g>
    <g id="ytick_43">
     <g id="line2d_106">
      <g>
       <use style="stroke:#000000;stroke-width:0.5;" x="33.29116" xlink:href="#mf0c55a9a47" y="30.541452111"/>
      </g>
     </g>
     <g id="line2d_107">
      <g>
       <use style="stroke:#000000;stroke-width:0.5;" x="479.69116" xlink:href="#ma4f294b3af" y="30.541452111"/>
      </g>
     </g>
    </g>
    <g id="ytick_44">
     <g id="line2d_108">
      <g>
       <use style="stroke:#000000;stroke-width:0.5;" x="33.29116" xlink:href="#mf0c55a9a47" y="22.835084222"/>
      </g>
     </g>
     <g id="line2d_109">
      <g>
       <use style="stroke:#000000;stroke-width:0.5;" x="479.69116" xlink:href="#ma4f294b3af" y="22.835084222"/>
      </g>
     </g>
    </g>
    <g id="ytick_45">
     <g id="line2d_110">
      <g>
       <use style="stroke:#000000;stroke-width:0.5;" x="33.29116" xlink:href="#mf0c55a9a47" y="18.3271479902"/>
      </g>
     </g>
     <g id="line2d_111">
      <g>
       <use style="stroke:#000000;stroke-width:0.5;" x="479.69116" xlink:href="#ma4f294b3af" y="18.3271479902"/>
      </g>
     </g>
    </g>
    <g id="ytick_46">
     <g id="line2d_112">
      <g>
       <use style="stroke:#000000;stroke-width:0.5;" x="33.29116" xlink:href="#mf0c55a9a47" y="15.128716333"/>
      </g>
     </g>
     <g id="line2d_113">
      <g>
       <use style="stroke:#000000;stroke-width:0.5;" x="479.69116" xlink:href="#ma4f294b3af" y="15.128716333"/>
      </g>
     </g>
    </g>
   </g>
   <g id="legend_1">
    <g id="patch_7">
     <path d="
M433.514 238.05
L474.693 238.05
L474.693 190.064
L433.514 190.064
z
" style="fill:#ffffff;stroke:#000000;stroke-linejoin:miter;"/>
    </g>
    <g id="line2d_114">
     <path d="
M440.512 198.16
L454.506 198.16" style="fill:none;stroke:#348abd;stroke-linecap:square;stroke-width:2.0;"/>
    </g>
    <g id="line2d_115"/>
    <g id="text_20">
     <!-- 2 -->
     <g transform="translate(465.501525625 201.6581325)scale(0.09996 -0.09996)">
      <use xlink:href="#WenQuanYiMicroHei-32"/>
     </g>
    </g>
    <g id="line2d_116">
     <path d="
M440.512 213.155
L454.506 213.155" style="fill:none;stroke:#a60628;stroke-linecap:square;stroke-width:2.0;"/>
    </g>
    <g id="line2d_117"/>
    <g id="text_21">
     <!-- 3 -->
     <g transform="translate(465.501525625 216.653694375)scale(0.09996 -0.09996)">
      <use xlink:href="#WenQuanYiMicroHei-33"/>
     </g>
    </g>
    <g id="line2d_118">
     <path d="
M440.512 228.151
L454.506 228.151" style="fill:none;stroke:#7a68a6;stroke-linecap:square;stroke-width:2.0;"/>
    </g>
    <g id="line2d_119"/>
    <g id="text_22">
     <!-- 4 -->
     <g transform="translate(465.501525625 231.64925625)scale(0.09996 -0.09996)">
      <use xlink:href="#WenQuanYiMicroHei-34"/>
     </g>
    </g>
   </g>
  </g>
 </g>
 <defs>
  <clipPath id="p91c6fd7e01">
   <rect height="230.4" width="446.4" x="33.29116" y="12.64782"/>
  </clipPath>
 </defs>
</svg>
