<?xml version="1.0" encoding="utf-8" standalone="no"?>
<!DOCTYPE svg PUBLIC "-//W3C//DTD SVG 1.1//EN"
  "http://www.w3.org/Graphics/SVG/1.1/DTD/svg11.dtd">
<!-- Created with matplotlib (http://matplotlib.org/) -->
<svg height="234pt" version="1.1" viewBox="0 0 363 234" width="363pt" xmlns="http://www.w3.org/2000/svg" xmlns:xlink="http://www.w3.org/1999/xlink">
 <defs>
  <style type="text/css">
*{stroke-linecap:butt;stroke-linejoin:round;}
  </style>
 </defs>
 <g id="figure_1">
  <g id="patch_1">
   <path d="
M0 234.112
L363.63 234.112
L363.63 0
L0 0
z
" style="fill:#ffffff;"/>
  </g>
  <g id="axes_1">
   <g id="patch_2">
    <path d="
M21.6302 201.45
L356.43 201.45
L356.43 28.6504
L21.6302 28.6504
z
" style="fill:#ffffff;"/>
   </g>
   <g id="patch_3">
    <path clip-path="url(#pace759af0a)" d="
M33.5873 201.45
L41.5588 201.45
L41.5588 99.6995
L33.5873 99.6995
z
" style="fill:#348abd;stroke:#000000;stroke-linejoin:miter;"/>
   </g>
   <g id="patch_4">
    <path clip-path="url(#pace759af0a)" d="
M81.4159 201.45
L89.3873 201.45
L89.3873 108.478
L81.4159 108.478
z
" style="fill:#348abd;stroke:#000000;stroke-linejoin:miter;"/>
   </g>
   <g id="patch_5">
    <path clip-path="url(#pace759af0a)" d="
M129.244 201.45
L137.216 201.45
L137.216 104.903
L129.244 104.903
z
" style="fill:#348abd;stroke:#000000;stroke-linejoin:miter;"/>
   </g>
   <g id="patch_6">
    <path clip-path="url(#pace759af0a)" d="
M177.073 201.45
L185.044 201.45
L185.044 95.3232
L177.073 95.3232
z
" style="fill:#348abd;stroke:#000000;stroke-linejoin:miter;"/>
   </g>
   <g id="patch_7">
    <path clip-path="url(#pace759af0a)" d="
M224.902 201.45
L232.873 201.45
L232.873 101.653
L224.902 101.653
z
" style="fill:#348abd;stroke:#000000;stroke-linejoin:miter;"/>
   </g>
   <g id="patch_8">
    <path clip-path="url(#pace759af0a)" d="
M272.73 201.45
L280.702 201.45
L280.702 98.6212
L272.73 98.6212
z
" style="fill:#348abd;stroke:#000000;stroke-linejoin:miter;"/>
   </g>
   <g id="patch_9">
    <path clip-path="url(#pace759af0a)" d="
M320.559 201.45
L328.53 201.45
L328.53 97.3898
L320.559 97.3898
z
" style="fill:#348abd;stroke:#000000;stroke-linejoin:miter;"/>
   </g>
   <g id="patch_10">
    <path clip-path="url(#pace759af0a)" d="
M41.5588 201.45
L49.5302 201.45
L49.5302 75.2114
L41.5588 75.2114
z
" style="fill:#a60628;stroke:#000000;stroke-linejoin:miter;"/>
   </g>
   <g id="patch_11">
    <path clip-path="url(#pace759af0a)" d="
M89.3873 201.45
L97.3588 201.45
L97.3588 76.2922
L89.3873 76.2922
z
" style="fill:#a60628;stroke:#000000;stroke-linejoin:miter;"/>
   </g>
   <g id="patch_12">
    <path clip-path="url(#pace759af0a)" d="
M137.216 201.45
L145.187 201.45
L145.187 69.8738
L137.216 69.8738
z
" style="fill:#a60628;stroke:#000000;stroke-linejoin:miter;"/>
   </g>
   <g id="patch_13">
    <path clip-path="url(#pace759af0a)" d="
M185.044 201.45
L193.016 201.45
L193.016 33.2197
L185.044 33.2197
z
" style="fill:#a60628;stroke:#000000;stroke-linejoin:miter;"/>
   </g>
   <g id="patch_14">
    <path clip-path="url(#pace759af0a)" d="
M232.873 201.45
L240.844 201.45
L240.844 40.2546
L232.873 40.2546
z
" style="fill:#a60628;stroke:#000000;stroke-linejoin:miter;"/>
   </g>
   <g id="patch_15">
    <path clip-path="url(#pace759af0a)" d="
M280.702 201.45
L288.673 201.45
L288.673 34.6613
L280.702 34.6613
z
" style="fill:#a60628;stroke:#000000;stroke-linejoin:miter;"/>
   </g>
   <g id="patch_16">
    <path clip-path="url(#pace759af0a)" d="
M328.53 201.45
L336.502 201.45
L336.502 65.3069
L328.53 65.3069
z
" style="fill:#a60628;stroke:#000000;stroke-linejoin:miter;"/>
   </g>
   <g id="patch_17">
    <path clip-path="url(#pace759af0a)" d="
M49.5302 201.45
L57.5016 201.45
L57.5016 64.7808
L49.5302 64.7808
z
" style="fill:#7a68a6;stroke:#000000;stroke-linejoin:miter;"/>
   </g>
   <g id="patch_18">
    <path clip-path="url(#pace759af0a)" d="
M97.3588 201.45
L105.33 201.45
L105.33 66.338
L97.3588 66.338
z
" style="fill:#7a68a6;stroke:#000000;stroke-linejoin:miter;"/>
   </g>
   <g id="patch_19">
    <path clip-path="url(#pace759af0a)" d="
M145.187 201.45
L153.159 201.45
L153.159 61.874
L145.187 61.874
z
" style="fill:#7a68a6;stroke:#000000;stroke-linejoin:miter;"/>
   </g>
   <g id="patch_20">
    <path clip-path="url(#pace759af0a)" d="
M193.016 201.45
L200.987 201.45
L200.987 57.9025
L193.016 57.9025
z
" style="fill:#7a68a6;stroke:#000000;stroke-linejoin:miter;"/>
   </g>
   <g id="patch_21">
    <path clip-path="url(#pace759af0a)" d="
M240.844 201.45
L248.816 201.45
L248.816 48.3453
L240.844 48.3453
z
" style="fill:#7a68a6;stroke:#000000;stroke-linejoin:miter;"/>
   </g>
   <g id="patch_22">
    <path clip-path="url(#pace759af0a)" d="
M288.673 201.45
L296.644 201.45
L296.644 42.4075
L288.673 42.4075
z
" style="fill:#7a68a6;stroke:#000000;stroke-linejoin:miter;"/>
   </g>
   <g id="patch_23">
    <path clip-path="url(#pace759af0a)" d="
M336.502 201.45
L344.473 201.45
L344.473 57.4823
L336.502 57.4823
z
" style="fill:#7a68a6;stroke:#000000;stroke-linejoin:miter;"/>
   </g>
   <g id="patch_24">
    <path d="
M21.6302 28.6504
L356.43 28.6504" style="fill:none;stroke:#000000;stroke-linecap:square;stroke-linejoin:miter;"/>
   </g>
   <g id="patch_25">
    <path d="
M356.43 201.45
L356.43 28.6504" style="fill:none;stroke:#000000;stroke-linecap:square;stroke-linejoin:miter;"/>
   </g>
   <g id="patch_26">
    <path d="
M21.6302 201.45
L356.43 201.45" style="fill:none;stroke:#000000;stroke-linecap:square;stroke-linejoin:miter;"/>
   </g>
   <g id="patch_27">
    <path d="
M21.6302 201.45
L21.6302 28.6504" style="fill:none;stroke:#000000;stroke-linecap:square;stroke-linejoin:miter;"/>
   </g>
   <g id="matplotlib.axis_1">
    <g id="xtick_1">
     <g id="line2d_1">
      <path clip-path="url(#pace759af0a)" d="
M45.5445 201.45
L45.5445 28.6504" style="fill:none;stroke:#000000;stroke-dasharray:1.000000,3.000000;stroke-dashoffset:0.0;stroke-width:0.5;"/>
     </g>
     <g id="line2d_2">
      <defs>
       <path d="
M0 0
L0 -4" id="m93b0483c22" style="stroke:#000000;stroke-width:0.5;"/>
      </defs>
      <g>
       <use style="stroke:#000000;stroke-width:0.5;" x="45.5444869643" xlink:href="#m93b0483c22" y="201.450361875"/>
      </g>
     </g>
     <g id="line2d_3">
      <defs>
       <path d="
M0 0
L0 4" id="m741efc42ff" style="stroke:#000000;stroke-width:0.5;"/>
      </defs>
      <g>
       <use style="stroke:#000000;stroke-width:0.5;" x="45.5444869643" xlink:href="#m741efc42ff" y="28.650361875"/>
      </g>
     </g>
     <g id="text_1">
      <!-- MON -->
      <defs>
       <path d="
M68.0156 35.7969
Q68.0156 27.5469 66.0312 20.75
Q64.0625 13.9688 60.1562 9.125
Q56.25 4.29688 50.4531 1.65625
Q44.6719 -0.984375 37.1094 -0.984375
Q29.1562 -0.984375 23.3125 1.65625
Q17.4844 4.29688 13.6406 9.125
Q9.8125 13.9688 7.95312 20.7812
Q6.10938 27.5938 6.10938 35.8906
Q6.10938 44.1875 7.95312 50.9531
Q9.8125 57.7188 13.6719 62.5
Q17.5312 67.2812 23.3906 69.8906
Q29.25 72.5156 37.2031 72.5156
Q44.7812 72.5156 50.5156 69.8906
Q56.25 67.2812 60.1562 62.4688
Q64.0625 57.6719 66.0312 50.9062
Q68.0156 44.1406 68.0156 35.7969
M15.7188 35.7969
Q15.7188 29.1094 16.9844 23.75
Q18.2656 18.4062 20.875 14.6719
Q23.4844 10.9375 27.5156 8.95312
Q31.5469 6.98438 37.1094 6.98438
Q42.6719 6.98438 46.7031 8.95312
Q50.7344 10.9375 53.3438 14.6719
Q55.9531 18.4062 57.1719 23.75
Q58.4062 29.1094 58.4062 35.7969
Q58.4062 42.5312 57.1719 47.8438
Q55.9531 53.1719 53.3594 56.8594
Q50.7812 60.5469 46.7812 62.5156
Q42.7812 64.5 37.2031 64.5
Q31.6406 64.5 27.5781 62.5156
Q23.5312 60.5469 20.8906 56.8594
Q18.2656 53.1719 16.9844 47.8438
Q15.7188 42.5312 15.7188 35.7969" id="WenQuanYiMicroHei-4f"/>
       <path d="
M39.2031 0
L17.5781 62.5
L17.1875 62.5
Q17.4844 58.8906 17.6719 55.3281
Q17.875 52.25 17.9844 48.8438
Q18.1094 45.4531 18.1094 42.6719
L18.1094 0
L9.71875 0
L9.71875 71.3906
L23.1875 71.3906
L43.3125 13.1875
L43.6094 13.1875
L63.8125 71.3906
L77.2969 71.3906
L77.2969 0
L68.2188 0
L68.2188 43.3125
Q68.2188 45.8438 68.3125 49.1094
Q68.4062 52.3906 68.5625 55.375
Q68.75 58.8438 68.8906 62.4062
L68.5 62.4062
L46.6875 0
z
" id="WenQuanYiMicroHei-4d"/>
       <path d="
M63.1875 0
L52.6875 0
L17.5781 59.0781
L17.1875 59.0781
Q17.4844 55.3281 17.6719 51.6094
Q17.875 48.4375 17.9844 44.9688
Q18.1094 41.5 18.1094 38.7188
L18.1094 0
L9.71875 0
L9.71875 71.3906
L20.125 71.3906
L55.0781 12.5938
L55.4219 12.5938
Q55.2812 16.3125 55.0781 19.9219
Q55.0312 21.4844 54.9844 23.1406
L54.7812 26.375
Q54.7344 28.0312 54.7031 29.5469
Q54.6875 31.0625 54.6875 32.3281
L54.6875 71.3906
L63.1875 71.3906
z
" id="WenQuanYiMicroHei-4e"/>
      </defs>
      <g transform="translate(48.1411041518 226.91208625)rotate(-90.0)scale(0.09996 -0.09996)">
       <use xlink:href="#WenQuanYiMicroHei-4d"/>
       <use x="87.01171875" xlink:href="#WenQuanYiMicroHei-4f"/>
       <use x="161.23046875" xlink:href="#WenQuanYiMicroHei-4e"/>
      </g>
     </g>
    </g>
    <g id="xtick_2">
     <g id="line2d_4">
      <path clip-path="url(#pace759af0a)" d="
M93.3731 201.45
L93.3731 28.6504" style="fill:none;stroke:#000000;stroke-dasharray:1.000000,3.000000;stroke-dashoffset:0.0;stroke-width:0.5;"/>
     </g>
     <g id="line2d_5">
      <g>
       <use style="stroke:#000000;stroke-width:0.5;" x="93.3730583929" xlink:href="#m93b0483c22" y="201.450361875"/>
      </g>
     </g>
     <g id="line2d_6">
      <g>
       <use style="stroke:#000000;stroke-width:0.5;" x="93.3730583929" xlink:href="#m741efc42ff" y="28.650361875"/>
      </g>
     </g>
     <g id="text_2">
      <!-- TUE -->
      <defs>
       <path d="
M60.7969 71.4844
L60.7969 25.2031
Q60.7969 19.625 59.1719 14.8438
Q57.5625 10.0625 54.3125 6.54688
Q51.0781 3.03125 46.1719 1.01562
Q41.2656 -0.984375 34.625 -0.984375
Q28.375 -0.984375 23.5781 0.890625
Q18.7969 2.78125 15.5469 6.25
Q12.3125 9.71875 10.6406 14.5781
Q8.98438 19.4375 8.98438 25.3906
L8.98438 71.3906
L18.1094 71.3906
L18.1094 24.9062
Q18.1094 16.3594 22.3281 11.6719
Q26.5625 6.98438 35.1094 6.98438
Q39.4531 6.98438 42.5781 8.29688
Q45.7031 9.625 47.7031 12.0156
Q49.7031 14.4062 50.6719 17.7188
Q51.6562 21.0469 51.7031 25
L51.7031 71.4844
z
" id="WenQuanYiMicroHei-55"/>
       <path d="
M30.5156 0
L21.3906 0
L21.3906 63.375
L0.984375 63.375
L0.984375 71.3906
L50.875 71.3906
L50.875 63.375
L30.5156 63.375
z
" id="WenQuanYiMicroHei-54"/>
       <path d="
M46.7812 0
L9.71875 0
L9.71875 71.3906
L46.7812 71.3906
L46.7812 63.375
L18.7969 63.375
L18.7969 41.3125
L44.9219 41.3125
L44.9219 33.4062
L18.7969 33.4062
L18.7969 8.01562
L46.7812 8.01562
z
" id="WenQuanYiMicroHei-45"/>
      </defs>
      <g transform="translate(95.9696755804 222.196785625)rotate(-90.0)scale(0.09996 -0.09996)">
       <use xlink:href="#WenQuanYiMicroHei-54"/>
       <use x="51.904296875" xlink:href="#WenQuanYiMicroHei-55"/>
       <use x="121.728515625" xlink:href="#WenQuanYiMicroHei-45"/>
      </g>
     </g>
    </g>
    <g id="xtick_3">
     <g id="line2d_7">
      <path clip-path="url(#pace759af0a)" d="
M141.202 201.45
L141.202 28.6504" style="fill:none;stroke:#000000;stroke-dasharray:1.000000,3.000000;stroke-dashoffset:0.0;stroke-width:0.5;"/>
     </g>
     <g id="line2d_8">
      <g>
       <use style="stroke:#000000;stroke-width:0.5;" x="141.201629821" xlink:href="#m93b0483c22" y="201.450361875"/>
      </g>
     </g>
     <g id="line2d_9">
      <g>
       <use style="stroke:#000000;stroke-width:0.5;" x="141.201629821" xlink:href="#m741efc42ff" y="28.650361875"/>
      </g>
     </g>
     <g id="text_3">
      <!-- WED -->
      <defs>
       <path d="
M39.5 71.3906
L49.125 71.3906
L60.2969 29.5938
Q61.0312 26.8594 61.7344 24.125
Q62.4531 21.3906 63.0625 18.8281
Q63.6719 16.2656 64.125 13.9688
Q64.5938 11.6719 64.8906 9.8125
Q65.0938 11.6719 65.375 13.8594
Q65.6719 16.0625 66.0625 18.4844
Q66.4531 20.9062 66.9219 23.4062
Q67.3906 25.9219 67.9219 28.3281
L77.6875 71.3906
L87.4062 71.3906
L69.4844 0
L60.2969 0
L47.9062 45.7969
Q47.2188 48.2969 46.5781 50.9219
Q45.9531 53.5625 45.4062 55.8594
Q44.8281 58.5469 44.2812 61.0781
Q43.75 58.5938 43.2188 55.9062
Q42.7188 53.6094 42.1094 50.875
Q41.5 48.1406 40.8281 45.5156
L29 0
L19.8281 0
L0.984375 71.3906
L10.5938 71.3906
L21.4844 27.9844
Q22.0781 25.7344 22.5625 23.3125
Q23.0469 20.9062 23.4531 18.5
Q23.875 16.1094 24.2188 13.8906
Q24.5625 11.6719 24.8125 9.8125
Q25.0469 11.625 25.4062 14.0156
Q25.7812 16.4062 26.2656 19.0469
Q26.7656 21.6875 27.3125 24.3906
Q27.875 27.0938 28.5156 29.5
z
" id="WenQuanYiMicroHei-57"/>
       <path d="
M62.3125 36.375
Q62.3125 27.3438 59.9688 20.5312
Q57.625 13.7188 53.1719 9.15625
Q48.7344 4.59375 42.2656 2.29688
Q35.7969 0 27.5938 0
L9.71875 0
L9.71875 71.3906
L29.5938 71.3906
Q37.0625 71.3906 43.1094 69.1406
Q49.1719 66.8906 53.4219 62.4688
Q57.6719 58.0625 59.9844 51.5156
Q62.3125 44.9688 62.3125 36.375
M52.6875 36.0781
Q52.6875 43.2188 51.0781 48.4062
Q49.4688 53.6094 46.3906 56.9844
Q43.3125 60.3594 38.8125 61.9844
Q34.3281 63.625 28.6094 63.625
L18.7969 63.625
L18.7969 7.8125
L26.7031 7.8125
Q39.5938 7.8125 46.1406 14.9375
Q52.6875 22.0781 52.6875 36.0781" id="WenQuanYiMicroHei-44"/>
      </defs>
      <g transform="translate(143.798247009 225.6907)rotate(-90.0)scale(0.09996 -0.09996)">
       <use xlink:href="#WenQuanYiMicroHei-57"/>
       <use x="88.37890625" xlink:href="#WenQuanYiMicroHei-45"/>
       <use x="141.162109375" xlink:href="#WenQuanYiMicroHei-44"/>
      </g>
     </g>
    </g>
    <g id="xtick_4">
     <g id="line2d_10">
      <path clip-path="url(#pace759af0a)" d="
M189.03 201.45
L189.03 28.6504" style="fill:none;stroke:#000000;stroke-dasharray:1.000000,3.000000;stroke-dashoffset:0.0;stroke-width:0.5;"/>
     </g>
     <g id="line2d_11">
      <g>
       <use style="stroke:#000000;stroke-width:0.5;" x="189.03020125" xlink:href="#m93b0483c22" y="201.450361875"/>
      </g>
     </g>
     <g id="line2d_12">
      <g>
       <use style="stroke:#000000;stroke-width:0.5;" x="189.03020125" xlink:href="#m741efc42ff" y="28.650361875"/>
      </g>
     </g>
     <g id="text_4">
      <!-- THU -->
      <defs>
       <path d="
M60.4062 0
L51.3125 0
L51.3125 33.2969
L18.7969 33.2969
L18.7969 0
L9.71875 0
L9.71875 71.3906
L18.7969 71.3906
L18.7969 41.3125
L51.3125 41.3125
L51.3125 71.3906
L60.4062 71.3906
z
" id="WenQuanYiMicroHei-48"/>
      </defs>
      <g transform="translate(191.626818437 223.627463125)rotate(-90.0)scale(0.09996 -0.09996)">
       <use xlink:href="#WenQuanYiMicroHei-54"/>
       <use x="51.904296875" xlink:href="#WenQuanYiMicroHei-48"/>
       <use x="122.021484375" xlink:href="#WenQuanYiMicroHei-55"/>
      </g>
     </g>
    </g>
    <g id="xtick_5">
     <g id="line2d_13">
      <path clip-path="url(#pace759af0a)" d="
M236.859 201.45
L236.859 28.6504" style="fill:none;stroke:#000000;stroke-dasharray:1.000000,3.000000;stroke-dashoffset:0.0;stroke-width:0.5;"/>
     </g>
     <g id="line2d_14">
      <g>
       <use style="stroke:#000000;stroke-width:0.5;" x="236.858772679" xlink:href="#m93b0483c22" y="201.450361875"/>
      </g>
     </g>
     <g id="line2d_15">
      <g>
       <use style="stroke:#000000;stroke-width:0.5;" x="236.858772679" xlink:href="#m741efc42ff" y="28.650361875"/>
      </g>
     </g>
     <g id="text_5">
      <!-- FRI -->
      <defs>
       <path d="
M29.8906 0
L4 0
L4 4.98438
L12.4062 6.98438
L12.4062 64.4062
L4 66.4062
L4 71.3906
L29.8906 71.3906
L29.8906 66.4062
L21.4844 64.4062
L21.4844 6.98438
L29.8906 4.98438
z
" id="WenQuanYiMicroHei-49"/>
       <path d="
M18.7969 0
L9.71875 0
L9.71875 71.3906
L46.7812 71.3906
L46.7812 63.375
L18.7969 63.375
L18.7969 38.1875
L44.9219 38.1875
L44.9219 30.1719
L18.7969 30.1719
z
" id="WenQuanYiMicroHei-46"/>
       <path d="
M18.7969 29.5
L18.7969 0
L9.71875 0
L9.71875 71.3906
L27.0938 71.3906
Q40.0938 71.3906 46.2812 66.3594
Q52.4844 61.3281 52.4844 51.125
Q52.4844 46.875 51.2812 43.7031
Q50.0938 40.5312 48.1094 38.25
Q46.1406 35.9844 43.5938 34.4688
Q41.0625 32.9531 38.375 31.9844
L57.8125 0
L47.125 0
L29.9844 29.5
z

M18.7969 37.2031
L26.8125 37.2031
Q31.2031 37.2031 34.2812 38.0625
Q37.3594 38.9219 39.3281 40.5938
Q41.3125 42.2812 42.2031 44.7969
Q43.1094 47.3125 43.1094 50.6875
Q43.1094 54.2031 42.1094 56.6406
Q41.1094 59.0781 39.0781 60.6406
Q37.0625 62.2031 33.9531 62.9062
Q30.8594 63.625 26.6094 63.625
L18.7969 63.625
z
" id="WenQuanYiMicroHei-52"/>
      </defs>
      <g transform="translate(239.455389866 218.273355625)rotate(-90.0)scale(0.09996 -0.09996)">
       <use xlink:href="#WenQuanYiMicroHei-46"/>
       <use x="49.12109375" xlink:href="#WenQuanYiMicroHei-52"/>
       <use x="108.10546875" xlink:href="#WenQuanYiMicroHei-49"/>
      </g>
     </g>
    </g>
    <g id="xtick_6">
     <g id="line2d_16">
      <path clip-path="url(#pace759af0a)" d="
M284.687 201.45
L284.687 28.6504" style="fill:none;stroke:#000000;stroke-dasharray:1.000000,3.000000;stroke-dashoffset:0.0;stroke-width:0.5;"/>
     </g>
     <g id="line2d_17">
      <g>
       <use style="stroke:#000000;stroke-width:0.5;" x="284.687344107" xlink:href="#m93b0483c22" y="201.450361875"/>
      </g>
     </g>
     <g id="line2d_18">
      <g>
       <use style="stroke:#000000;stroke-width:0.5;" x="284.687344107" xlink:href="#m741efc42ff" y="28.650361875"/>
      </g>
     </g>
     <g id="text_6">
      <!-- SAT -->
      <defs>
       <path d="
M51.5156 0
L43.7031 22.125
L17.0938 22.125
L9.1875 0
L0 0
L26.2188 71.6875
L34.5156 71.6875
L60.7969 0
z

M40.8281 30.1719
L33.5938 50.875
Q33.2969 51.7656 32.875 53.0312
Q32.4688 54.2969 32.0312 55.7656
Q31.5938 57.2344 31.1562 58.8125
Q30.7188 60.4062 30.3281 61.9219
Q29.9844 60.4062 29.5469 58.7812
Q29.1094 57.1719 28.6562 55.6875
Q28.2188 54.2031 27.7969 52.9531
Q27.3906 51.7031 27.0938 50.875
L20.0156 30.1719
z
" id="WenQuanYiMicroHei-41"/>
       <path d="
M47.3125 19.0938
Q47.3125 14.3594 45.625 10.625
Q43.9531 6.89062 40.8281 4.29688
Q37.7031 1.70312 33.2031 0.359375
Q28.7188 -0.984375 23.0938 -0.984375
Q17.6719 -0.984375 12.9531 -0.125
Q8.25 0.734375 5.07812 2.39062
L5.07812 11.0781
Q6.73438 10.2969 8.85938 9.54688
Q10.9844 8.79688 13.3281 8.20312
Q15.6719 7.625 18.1562 7.25
Q20.6562 6.89062 23.0938 6.89062
Q30.9062 6.89062 34.6406 9.8125
Q38.375 12.75 38.375 18.2188
Q38.375 20.8438 37.6719 22.7969
Q36.9688 24.75 35.1875 26.3906
Q33.4062 28.0312 30.4219 29.5625
Q27.4375 31.1094 22.9062 32.9062
Q18.5625 34.625 15.3594 36.6406
Q12.1562 38.6719 10.0781 41.2031
Q8.01562 43.75 7 46.9688
Q6 50.2031 6 54.2969
Q6 58.5938 7.5625 61.9531
Q9.125 65.3281 11.9531 67.6406
Q14.7969 69.9688 18.7188 71.1875
Q22.6562 72.4062 27.3906 72.4062
Q33.2031 72.4062 37.8438 71.3125
Q42.4844 70.2188 46.0938 68.5
L42.8281 60.8906
Q39.6562 62.3125 35.625 63.3594
Q31.5938 64.4062 27.2969 64.4062
Q21.3438 64.4062 18.0625 61.6406
Q14.7969 58.8906 14.7969 54.2031
Q14.7969 51.4219 15.5312 49.3906
Q16.2656 47.3594 17.9688 45.7188
Q19.6719 44.0938 22.4844 42.6562
Q25.2969 41.2188 29.3906 39.5938
Q33.8438 37.8438 37.1875 35.9844
Q40.5312 34.125 42.7656 31.7812
Q45.0156 29.4375 46.1562 26.3594
Q47.3125 23.2969 47.3125 19.0938" id="WenQuanYiMicroHei-53"/>
      </defs>
      <g transform="translate(287.283961295 221.294021875)rotate(-90.0)scale(0.09996 -0.09996)">
       <use xlink:href="#WenQuanYiMicroHei-53"/>
       <use x="51.904296875" xlink:href="#WenQuanYiMicroHei-41"/>
       <use x="112.6953125" xlink:href="#WenQuanYiMicroHei-54"/>
      </g>
     </g>
    </g>
    <g id="xtick_7">
     <g id="line2d_19">
      <path clip-path="url(#pace759af0a)" d="
M332.516 201.45
L332.516 28.6504" style="fill:none;stroke:#000000;stroke-dasharray:1.000000,3.000000;stroke-dashoffset:0.0;stroke-width:0.5;"/>
     </g>
     <g id="line2d_20">
      <g>
       <use style="stroke:#000000;stroke-width:0.5;" x="332.515915536" xlink:href="#m93b0483c22" y="201.450361875"/>
      </g>
     </g>
     <g id="line2d_21">
      <g>
       <use style="stroke:#000000;stroke-width:0.5;" x="332.515915536" xlink:href="#m741efc42ff" y="28.650361875"/>
      </g>
     </g>
     <g id="text_7">
      <!-- SUN -->
      <g transform="translate(335.112532723 223.427543125)rotate(-90.0)scale(0.09996 -0.09996)">
       <use xlink:href="#WenQuanYiMicroHei-53"/>
       <use x="51.904296875" xlink:href="#WenQuanYiMicroHei-55"/>
       <use x="121.728515625" xlink:href="#WenQuanYiMicroHei-4e"/>
      </g>
     </g>
    </g>
   </g>
   <g id="matplotlib.axis_2">
    <g id="ytick_1">
     <g id="line2d_22">
      <path clip-path="url(#pace759af0a)" d="
M21.6302 201.45
L356.43 201.45" style="fill:none;stroke:#000000;stroke-dasharray:1.000000,3.000000;stroke-dashoffset:0.0;stroke-width:0.5;"/>
     </g>
     <g id="line2d_23">
      <defs>
       <path d="
M0 0
L4 0" id="m728421d6d4" style="stroke:#000000;stroke-width:0.5;"/>
      </defs>
      <g>
       <use style="stroke:#000000;stroke-width:0.5;" x="21.63020125" xlink:href="#m728421d6d4" y="201.450361875"/>
      </g>
     </g>
     <g id="line2d_24">
      <defs>
       <path d="
M0 0
L-4 0" id="mcb0005524f" style="stroke:#000000;stroke-width:0.5;"/>
      </defs>
      <g>
       <use style="stroke:#000000;stroke-width:0.5;" x="356.43020125" xlink:href="#mcb0005524f" y="201.450361875"/>
      </g>
     </g>
     <g id="text_8">
      <!-- 0 -->
      <defs>
       <path d="
M50.3906 35.7969
Q50.3906 27.1562 49.1406 20.3125
Q47.9062 13.4844 45.1406 8.73438
Q42.3906 4 38.0312 1.5
Q33.6875 -0.984375 27.4844 -0.984375
Q21.7344 -0.984375 17.4531 1.5
Q13.1875 4 10.375 8.73438
Q7.5625 13.4844 6.17188 20.3125
Q4.78125 27.1562 4.78125 35.7969
Q4.78125 44.4375 6.03125 51.2656
Q7.28125 58.1094 9.98438 62.8125
Q12.7031 67.5312 17.0156 70.0156
Q21.3438 72.5156 27.4844 72.5156
Q33.2969 72.5156 37.5938 70.0469
Q41.8906 67.5781 44.7188 62.8594
Q47.5625 58.1562 48.9688 51.3125
Q50.3906 44.4844 50.3906 35.7969
M13.8125 35.7969
Q13.8125 28.4688 14.5469 23
Q15.2812 17.5312 16.8906 13.8906
Q18.5 10.25 21.1094 8.42188
Q23.7344 6.59375 27.4844 6.59375
Q31.25 6.59375 33.8906 8.39062
Q36.5312 10.2031 38.2031 13.8125
Q39.8906 17.4375 40.6406 22.9219
Q41.4062 28.4219 41.4062 35.7969
Q41.4062 43.1094 40.6406 48.5781
Q39.8906 54.0469 38.2031 57.6562
Q36.5312 61.2812 33.8906 63.0781
Q31.25 64.8906 27.4844 64.8906
Q23.7344 64.8906 21.1094 63.0781
Q18.5 61.2812 16.8906 57.6562
Q15.2812 54.0469 14.5469 48.5781
Q13.8125 43.1094 13.8125 35.7969" id="WenQuanYiMicroHei-30"/>
      </defs>
      <g transform="translate(13.071088125 204.046979063)scale(0.09996 -0.09996)">
       <use xlink:href="#WenQuanYiMicroHei-30"/>
      </g>
     </g>
    </g>
    <g id="ytick_2">
     <g id="line2d_25">
      <path clip-path="url(#pace759af0a)" d="
M21.6302 182.25
L356.43 182.25" style="fill:none;stroke:#000000;stroke-dasharray:1.000000,3.000000;stroke-dashoffset:0.0;stroke-width:0.5;"/>
     </g>
     <g id="line2d_26">
      <g>
       <use style="stroke:#000000;stroke-width:0.5;" x="21.63020125" xlink:href="#m728421d6d4" y="182.250361875"/>
      </g>
     </g>
     <g id="line2d_27">
      <g>
       <use style="stroke:#000000;stroke-width:0.5;" x="356.43020125" xlink:href="#mcb0005524f" y="182.250361875"/>
      </g>
     </g>
     <g id="text_9">
      <!-- 10 -->
      <defs>
       <path d="
M34.7188 0
L26.125 0
L26.125 44.5781
Q26.125 46.6875 26.1406 49.0781
Q26.1719 51.4688 26.2344 53.8281
Q26.3125 56.2031 26.3906 58.375
Q26.4688 60.5469 26.5156 62.2031
Q25.6875 61.3281 25.0469 60.6875
Q24.4219 60.0625 23.75 59.4688
Q23.0938 58.8906 22.3594 58.2188
Q21.625 57.5625 20.6094 56.6875
L13.375 50.7812
L8.6875 56.7812
L27.3906 71.3906
L34.7188 71.3906
z
" id="WenQuanYiMicroHei-31"/>
      </defs>
      <g transform="translate(7.9559475 184.846979063)scale(0.09996 -0.09996)">
       <use xlink:href="#WenQuanYiMicroHei-31"/>
       <use x="55.078125" xlink:href="#WenQuanYiMicroHei-30"/>
      </g>
     </g>
    </g>
    <g id="ytick_3">
     <g id="line2d_28">
      <path clip-path="url(#pace759af0a)" d="
M21.6302 163.05
L356.43 163.05" style="fill:none;stroke:#000000;stroke-dasharray:1.000000,3.000000;stroke-dashoffset:0.0;stroke-width:0.5;"/>
     </g>
     <g id="line2d_29">
      <g>
       <use style="stroke:#000000;stroke-width:0.5;" x="21.63020125" xlink:href="#m728421d6d4" y="163.050361875"/>
      </g>
     </g>
     <g id="line2d_30">
      <g>
       <use style="stroke:#000000;stroke-width:0.5;" x="356.43020125" xlink:href="#mcb0005524f" y="163.050361875"/>
      </g>
     </g>
     <g id="text_10">
      <!-- 20 -->
      <defs>
       <path d="
M49.2188 0
L4.6875 0
L4.6875 7.625
L21.7812 26.2188
Q25.4375 30.1719 28.3125 33.4375
Q31.2031 36.7188 33.2188 39.8438
Q35.25 42.9688 36.3281 46.1094
Q37.4062 49.2656 37.4062 52.9844
Q37.4062 55.8594 36.5781 58.0469
Q35.75 60.25 34.2031 61.7812
Q32.6719 63.3281 30.5625 64.1094
Q28.4688 64.8906 25.875 64.8906
Q21.2344 64.8906 17.5 63.0156
Q13.7656 61.1406 10.4062 58.2031
L5.42188 64.0156
Q7.375 65.7656 9.60938 67.2969
Q11.8594 68.8438 14.4531 69.9688
Q17.0469 71.0938 19.9219 71.75
Q22.7969 72.4062 25.9844 72.4062
Q30.6719 72.4062 34.4531 71.0938
Q38.2344 69.7812 40.8594 67.3125
Q43.5 64.8438 44.9375 61.2969
Q46.3906 57.7656 46.3906 53.3281
Q46.3906 49.1719 45.0938 45.4062
Q43.7969 41.6562 41.5312 38.0156
Q39.2656 34.375 36.1094 30.7031
Q32.9531 27.0469 29.2969 23.0938
L15.5781 8.5
L15.5781 8.10938
L49.2188 8.10938
z
" id="WenQuanYiMicroHei-32"/>
      </defs>
      <g transform="translate(7.5561075 165.646979063)scale(0.09996 -0.09996)">
       <use xlink:href="#WenQuanYiMicroHei-32"/>
       <use x="55.078125" xlink:href="#WenQuanYiMicroHei-30"/>
      </g>
     </g>
    </g>
    <g id="ytick_4">
     <g id="line2d_31">
      <path clip-path="url(#pace759af0a)" d="
M21.6302 143.85
L356.43 143.85" style="fill:none;stroke:#000000;stroke-dasharray:1.000000,3.000000;stroke-dashoffset:0.0;stroke-width:0.5;"/>
     </g>
     <g id="line2d_32">
      <g>
       <use style="stroke:#000000;stroke-width:0.5;" x="21.63020125" xlink:href="#m728421d6d4" y="143.850361875"/>
      </g>
     </g>
     <g id="line2d_33">
      <g>
       <use style="stroke:#000000;stroke-width:0.5;" x="356.43020125" xlink:href="#mcb0005524f" y="143.850361875"/>
      </g>
     </g>
     <g id="text_11">
      <!-- 30 -->
      <defs>
       <path d="
M46.9219 54.6875
Q46.9219 51.125 45.7969 48.1875
Q44.6719 45.2656 42.6406 43.1094
Q40.625 40.9688 37.7969 39.5781
Q34.9688 38.1875 31.5 37.5938
L31.5 37.3125
Q40.1406 36.2344 44.625 31.8125
Q49.125 27.3906 49.125 20.3125
Q49.125 15.625 47.5312 11.7188
Q45.9531 7.8125 42.7188 4.98438
Q39.5 2.15625 34.5625 0.578125
Q29.6406 -0.984375 22.9062 -0.984375
Q17.5781 -0.984375 12.8594 -0.140625
Q8.15625 0.6875 4 2.875
L4 11.1875
Q8.25 8.9375 13.2031 7.71875
Q18.1719 6.5 22.7031 6.5
Q27.2031 6.5 30.4688 7.46875
Q33.7344 8.45312 35.8594 10.25
Q37.9844 12.0625 38.9844 14.6875
Q39.9844 17.3281 39.9844 20.6094
Q39.9844 23.9219 38.6875 26.2812
Q37.4062 28.6562 35.0156 30.1875
Q32.625 31.7344 29.1719 32.4688
Q25.7344 33.2031 21.3906 33.2031
L14.8906 33.2031
L14.8906 40.5781
L21.3906 40.5781
Q25.3438 40.5781 28.4219 41.5469
Q31.5 42.5312 33.5625 44.3281
Q35.6406 46.1406 36.7188 48.625
Q37.7969 51.125 37.7969 54.1094
Q37.7969 56.6406 36.9062 58.6406
Q36.0312 60.6406 34.4219 62.0312
Q32.8125 63.4219 30.5625 64.1562
Q28.3281 64.8906 25.5938 64.8906
Q20.3594 64.8906 16.375 63.25
Q12.4062 61.625 8.79688 58.9844
L4.29688 65.0938
Q6.15625 66.6094 8.42188 67.9219
Q10.6875 69.2344 13.375 70.2344
Q16.0625 71.2344 19.1094 71.8125
Q22.1719 72.4062 25.5938 72.4062
Q30.8594 72.4062 34.8281 71.0938
Q38.8125 69.7812 41.5 67.4062
Q44.1875 65.0469 45.5469 61.7969
Q46.9219 58.5469 46.9219 54.6875" id="WenQuanYiMicroHei-33"/>
      </defs>
      <g transform="translate(7.487385 146.446979063)scale(0.09996 -0.09996)">
       <use xlink:href="#WenQuanYiMicroHei-33"/>
       <use x="55.078125" xlink:href="#WenQuanYiMicroHei-30"/>
      </g>
     </g>
    </g>
    <g id="ytick_5">
     <g id="line2d_34">
      <path clip-path="url(#pace759af0a)" d="
M21.6302 124.65
L356.43 124.65" style="fill:none;stroke:#000000;stroke-dasharray:1.000000,3.000000;stroke-dashoffset:0.0;stroke-width:0.5;"/>
     </g>
     <g id="line2d_35">
      <g>
       <use style="stroke:#000000;stroke-width:0.5;" x="21.63020125" xlink:href="#m728421d6d4" y="124.650361875"/>
      </g>
     </g>
     <g id="line2d_36">
      <g>
       <use style="stroke:#000000;stroke-width:0.5;" x="356.43020125" xlink:href="#mcb0005524f" y="124.650361875"/>
      </g>
     </g>
     <g id="text_12">
      <!-- 40 -->
      <defs>
       <path d="
M53.0781 16.0156
L42.6719 16.0156
L42.6719 0
L34.0781 0
L34.0781 16.0156
L1.125 16.0156
L1.125 23.7812
L33.5 71.7812
L42.6719 71.7812
L42.6719 24.125
L53.0781 24.125
z

M34.0781 24.125
L34.0781 41.5
Q34.0781 44.2344 34.1562 47.2344
Q34.2344 50.25 34.3281 53.0938
Q34.4219 55.9531 34.5469 58.4375
Q34.6719 60.9375 34.7188 62.5938
L34.2812 62.5938
Q33.9375 61.625 33.4219 60.4219
Q32.9062 59.2344 32.2969 58.0312
Q31.6875 56.8438 31.0469 55.7188
Q30.4219 54.5938 29.8906 53.8125
L9.8125 24.125
z
" id="WenQuanYiMicroHei-34"/>
      </defs>
      <g transform="translate(7.2 127.246979063)scale(0.09996 -0.09996)">
       <use xlink:href="#WenQuanYiMicroHei-34"/>
       <use x="55.078125" xlink:href="#WenQuanYiMicroHei-30"/>
      </g>
     </g>
    </g>
    <g id="ytick_6">
     <g id="line2d_37">
      <path clip-path="url(#pace759af0a)" d="
M21.6302 105.45
L356.43 105.45" style="fill:none;stroke:#000000;stroke-dasharray:1.000000,3.000000;stroke-dashoffset:0.0;stroke-width:0.5;"/>
     </g>
     <g id="line2d_38">
      <g>
       <use style="stroke:#000000;stroke-width:0.5;" x="21.63020125" xlink:href="#m728421d6d4" y="105.450361875"/>
      </g>
     </g>
     <g id="line2d_39">
      <g>
       <use style="stroke:#000000;stroke-width:0.5;" x="356.43020125" xlink:href="#mcb0005524f" y="105.450361875"/>
      </g>
     </g>
     <g id="text_13">
      <!-- 50 -->
      <defs>
       <path d="
M26.6094 43.7969
Q31.4531 43.7969 35.625 42.4531
Q39.7969 41.1094 42.8906 38.4688
Q46 35.8438 47.75 31.9375
Q49.5156 28.0312 49.5156 22.9062
Q49.5156 17.3281 47.8438 12.8906
Q46.1875 8.45312 42.9219 5.375
Q39.6562 2.29688 34.8438 0.65625
Q30.0312 -0.984375 23.7812 -0.984375
Q21.2969 -0.984375 18.875 -0.734375
Q16.4531 -0.484375 14.2344 -0.015625
Q12.0156 0.4375 10.0156 1.17188
Q8.01562 1.90625 6.39062 2.875
L6.39062 11.2812
Q8.01562 10.1562 10.1875 9.28125
Q12.3594 8.40625 14.75 7.8125
Q17.1406 7.23438 19.5469 6.90625
Q21.9688 6.59375 24.0312 6.59375
Q27.875 6.59375 30.9062 7.5
Q33.9375 8.40625 36.0312 10.2969
Q38.1406 12.2031 39.25 15.0781
Q40.375 17.9688 40.375 21.9219
Q40.375 28.9062 36.0781 32.5938
Q31.7812 36.2812 23.5781 36.2812
Q22.2656 36.2812 20.7188 36.1562
Q19.1875 36.0312 17.6406 35.8281
Q16.1094 35.6406 14.7188 35.4219
Q13.3281 35.2031 12.3125 35.0156
L7.90625 37.7969
L10.5938 71.3906
L44.2812 71.3906
L44.2812 63.2812
L18.3125 63.2812
L16.4062 42.8281
Q17.9688 43.1094 20.5312 43.4531
Q23.0938 43.7969 26.6094 43.7969" id="WenQuanYiMicroHei-35"/>
      </defs>
      <g transform="translate(7.726351875 108.046979063)scale(0.09996 -0.09996)">
       <use xlink:href="#WenQuanYiMicroHei-35"/>
       <use x="55.078125" xlink:href="#WenQuanYiMicroHei-30"/>
      </g>
     </g>
    </g>
    <g id="ytick_7">
     <g id="line2d_40">
      <path clip-path="url(#pace759af0a)" d="
M21.6302 86.2504
L356.43 86.2504" style="fill:none;stroke:#000000;stroke-dasharray:1.000000,3.000000;stroke-dashoffset:0.0;stroke-width:0.5;"/>
     </g>
     <g id="line2d_41">
      <g>
       <use style="stroke:#000000;stroke-width:0.5;" x="21.63020125" xlink:href="#m728421d6d4" y="86.250361875"/>
      </g>
     </g>
     <g id="line2d_42">
      <g>
       <use style="stroke:#000000;stroke-width:0.5;" x="356.43020125" xlink:href="#mcb0005524f" y="86.250361875"/>
      </g>
     </g>
     <g id="text_14">
      <!-- 60 -->
      <defs>
       <path d="
M5.51562 30.5156
Q5.51562 35.6406 6.03125 40.7188
Q6.54688 45.7969 7.82812 50.4531
Q9.125 55.125 11.375 59.125
Q13.625 63.1406 17.0938 66.0938
Q20.5625 69.0469 25.3906 70.7188
Q30.2188 72.4062 36.7188 72.4062
Q37.6406 72.4062 38.7656 72.3594
Q39.8906 72.3125 41.0312 72.1875
Q42.1875 72.0781 43.2344 71.9062
Q44.2812 71.7344 45.125 71.4844
L45.125 63.9219
Q43.4062 64.5 41.25 64.7969
Q39.1094 65.0938 37.0156 65.0938
Q32.625 65.0938 29.2656 64.0312
Q25.9219 62.9844 23.4844 61.0781
Q21.0469 59.1875 19.4062 56.5469
Q17.7812 53.9062 16.75 50.7031
Q15.7188 47.5156 15.2344 43.8906
Q14.75 40.2812 14.5938 36.375
L15.1875 36.375
Q16.1562 38.1406 17.5469 39.6719
Q18.9531 41.2188 20.7969 42.3125
Q22.6562 43.4062 24.9688 44.0312
Q27.2969 44.6719 30.1719 44.6719
Q34.8125 44.6719 38.5625 43.2344
Q42.3281 41.7969 44.9688 39.0156
Q47.6094 36.2344 49.0469 32.2031
Q50.4844 28.1719 50.4844 23
Q50.4844 17.4375 48.9688 12.9844
Q47.4688 8.54688 44.625 5.4375
Q41.7969 2.34375 37.7969 0.671875
Q33.7969 -0.984375 28.8125 -0.984375
Q23.9219 -0.984375 19.6406 0.921875
Q15.375 2.82812 12.25 6.73438
Q9.125 10.6406 7.3125 16.5469
Q5.51562 22.4688 5.51562 30.5156
M28.7188 6.5
Q31.6406 6.5 34.0469 7.5
Q36.4688 8.5 38.2188 10.5156
Q39.9844 12.5469 40.9375 15.6406
Q41.8906 18.75 41.8906 23
Q41.8906 26.4219 41.0781 29.125
Q40.2812 31.8438 38.6719 33.7344
Q37.0625 35.6406 34.6406 36.6719
Q32.2344 37.7031 29 37.7031
Q25.7344 37.7031 23.0156 36.5469
Q20.3125 35.4062 18.4062 33.5625
Q16.5 31.7344 15.4531 29.3906
Q14.4062 27.0469 14.4062 24.7031
Q14.4062 21.4375 15.3125 18.1875
Q16.2188 14.9375 18 12.3438
Q19.7812 9.76562 22.4531 8.125
Q25.1406 6.5 28.7188 6.5" id="WenQuanYiMicroHei-36"/>
      </defs>
      <g transform="translate(7.638886875 88.8469790625)scale(0.09996 -0.09996)">
       <use xlink:href="#WenQuanYiMicroHei-36"/>
       <use x="55.078125" xlink:href="#WenQuanYiMicroHei-30"/>
      </g>
     </g>
    </g>
    <g id="ytick_8">
     <g id="line2d_43">
      <path clip-path="url(#pace759af0a)" d="
M21.6302 67.0504
L356.43 67.0504" style="fill:none;stroke:#000000;stroke-dasharray:1.000000,3.000000;stroke-dashoffset:0.0;stroke-width:0.5;"/>
     </g>
     <g id="line2d_44">
      <g>
       <use style="stroke:#000000;stroke-width:0.5;" x="21.63020125" xlink:href="#m728421d6d4" y="67.050361875"/>
      </g>
     </g>
     <g id="line2d_45">
      <g>
       <use style="stroke:#000000;stroke-width:0.5;" x="356.43020125" xlink:href="#mcb0005524f" y="67.050361875"/>
      </g>
     </g>
     <g id="text_15">
      <!-- 70 -->
      <defs>
       <path d="
M13.7188 0
L41.2188 63.2812
L4.39062 63.2812
L4.39062 71.3906
L50.2969 71.3906
L50.2969 64.3125
L23.1875 0
z
" id="WenQuanYiMicroHei-37"/>
      </defs>
      <g transform="translate(7.526431875 69.6469790625)scale(0.09996 -0.09996)">
       <use xlink:href="#WenQuanYiMicroHei-37"/>
       <use x="55.078125" xlink:href="#WenQuanYiMicroHei-30"/>
      </g>
     </g>
    </g>
    <g id="ytick_9">
     <g id="line2d_46">
      <path clip-path="url(#pace759af0a)" d="
M21.6302 47.8504
L356.43 47.8504" style="fill:none;stroke:#000000;stroke-dasharray:1.000000,3.000000;stroke-dashoffset:0.0;stroke-width:0.5;"/>
     </g>
     <g id="line2d_47">
      <g>
       <use style="stroke:#000000;stroke-width:0.5;" x="21.63020125" xlink:href="#m728421d6d4" y="47.850361875"/>
      </g>
     </g>
     <g id="line2d_48">
      <g>
       <use style="stroke:#000000;stroke-width:0.5;" x="356.43020125" xlink:href="#mcb0005524f" y="47.850361875"/>
      </g>
     </g>
     <g id="text_16">
      <!-- 80 -->
      <defs>
       <path d="
M27.5938 72.5156
Q31.6875 72.5156 35.3281 71.4375
Q38.9688 70.3594 41.7188 68.2031
Q44.4844 66.0625 46.0938 62.8438
Q47.7031 59.625 47.7031 55.3281
Q47.7031 52.0469 46.7188 49.4062
Q45.75 46.7812 44.0312 44.6562
Q42.3281 42.5312 39.9844 40.8438
Q37.6406 39.1562 34.9062 37.7969
Q37.75 36.2812 40.4531 34.4219
Q43.1719 32.5625 45.2812 30.25
Q47.4062 27.9375 48.7031 25.0469
Q50 22.1719 50 18.6094
Q50 14.1094 48.3594 10.4688
Q46.7344 6.84375 43.7812 4.29688
Q40.8281 1.76562 36.6875 0.390625
Q32.5625 -0.984375 27.5938 -0.984375
Q22.2188 -0.984375 18.0469 0.328125
Q13.875 1.65625 11.0156 4.125
Q8.15625 6.59375 6.65625 10.1562
Q5.17188 13.7188 5.17188 18.2188
Q5.17188 21.875 6.26562 24.7969
Q7.375 27.7344 9.21875 30.0781
Q11.0781 32.4219 13.6094 34.2188
Q16.1562 36.0312 19 37.4062
Q16.6094 38.9219 14.5 40.7031
Q12.4062 42.4844 10.8594 44.6719
Q9.32812 46.875 8.42188 49.5312
Q7.51562 52.2031 7.51562 55.4219
Q7.51562 59.6719 9.15625 62.8594
Q10.7969 66.0625 13.5781 68.2031
Q16.3594 70.3594 20 71.4375
Q23.6406 72.5156 27.5938 72.5156
M13.9219 18.1094
Q13.9219 15.5312 14.7031 13.3594
Q15.4844 11.1875 17.1406 9.64062
Q18.7969 8.10938 21.3281 7.25
Q23.875 6.39062 27.3906 6.39062
Q30.8125 6.39062 33.4219 7.25
Q36.0312 8.10938 37.7812 9.6875
Q39.5469 11.2812 40.4219 13.5156
Q41.3125 15.7656 41.3125 18.5
Q41.3125 21.0469 40.3594 23.0938
Q39.4062 25.1406 37.625 26.8906
Q35.8438 28.6562 33.3438 30.2188
Q30.8594 31.7812 27.7812 33.2969
L26.3125 33.9844
Q20.1719 31.0625 17.0469 27.2656
Q13.9219 23.4844 13.9219 18.1094
M27.4844 65.0938
Q22.3125 65.0938 19.2656 62.5
Q16.2188 59.9062 16.2188 54.9844
Q16.2188 52.2031 17.0625 50.1875
Q17.9219 48.1875 19.4375 46.625
Q20.9531 45.0625 23.0781 43.8125
Q25.2031 42.5781 27.6875 41.4062
Q30.0312 42.4844 32.1094 43.75
Q34.1875 45.0156 35.7188 46.625
Q37.25 48.25 38.125 50.2969
Q39.0156 52.3438 39.0156 54.9844
Q39.0156 59.9062 35.9375 62.5
Q32.8594 65.0938 27.4844 65.0938" id="WenQuanYiMicroHei-38"/>
      </defs>
      <g transform="translate(7.604525625 50.4469790625)scale(0.09996 -0.09996)">
       <use xlink:href="#WenQuanYiMicroHei-38"/>
       <use x="55.078125" xlink:href="#WenQuanYiMicroHei-30"/>
      </g>
     </g>
    </g>
    <g id="ytick_10">
     <g id="line2d_49">
      <path clip-path="url(#pace759af0a)" d="
M21.6302 28.6504
L356.43 28.6504" style="fill:none;stroke:#000000;stroke-dasharray:1.000000,3.000000;stroke-dashoffset:0.0;stroke-width:0.5;"/>
     </g>
     <g id="line2d_50">
      <g>
       <use style="stroke:#000000;stroke-width:0.5;" x="21.63020125" xlink:href="#m728421d6d4" y="28.650361875"/>
      </g>
     </g>
     <g id="line2d_51">
      <g>
       <use style="stroke:#000000;stroke-width:0.5;" x="356.43020125" xlink:href="#mcb0005524f" y="28.650361875"/>
      </g>
     </g>
     <g id="text_17">
      <!-- 90 -->
      <defs>
       <path d="
M50.2031 40.9219
Q50.2031 35.7969 49.6875 30.6875
Q49.1719 25.5938 47.875 20.9531
Q46.5781 16.3125 44.3281 12.2812
Q42.0938 8.25 38.625 5.3125
Q35.1562 2.39062 30.3125 0.703125
Q25.4844 -0.984375 19 -0.984375
Q18.0625 -0.984375 16.9375 -0.921875
Q15.8281 -0.875 14.7031 -0.75
Q13.5781 -0.640625 12.5 -0.484375
Q11.4219 -0.34375 10.5938 -0.09375
L10.5938 7.51562
Q12.3125 6.89062 14.4531 6.59375
Q16.6094 6.29688 18.7031 6.29688
Q25.2969 6.29688 29.5469 8.59375
Q33.7969 10.8906 36.2812 14.8125
Q38.7656 18.75 39.8125 23.9688
Q40.875 29.2031 41.1094 35.0156
L40.4844 35.0156
Q39.5 33.25 38.125 31.7344
Q36.7656 30.2188 34.9062 29.0938
Q33.0625 27.9844 30.7188 27.3438
Q28.375 26.7031 25.4844 26.7031
Q20.8438 26.7031 17.0781 28.1406
Q13.3281 29.5938 10.6875 32.375
Q8.0625 35.1562 6.60938 39.1875
Q5.17188 43.2188 5.17188 48.3906
Q5.17188 53.9531 6.70312 58.4219
Q8.25 62.8906 11.0625 65.9844
Q13.875 69.0938 17.8906 70.75
Q21.9219 72.4062 26.9062 72.4062
Q31.8438 72.4062 36.0781 70.5
Q40.3281 68.6094 43.4531 64.7031
Q46.5781 60.7969 48.3906 54.8594
Q50.2031 48.9219 50.2031 40.9219
M27 64.8906
Q24.0781 64.8906 21.6562 63.9062
Q19.2344 62.9375 17.4688 60.8906
Q15.7188 58.8438 14.7656 55.7344
Q13.8125 52.6406 13.8125 48.3906
Q13.8125 44.9688 14.625 42.25
Q15.4375 39.5469 17.0469 37.6406
Q18.6562 35.75 21.0625 34.7188
Q23.4844 33.6875 26.7031 33.6875
Q30.0312 33.6875 32.7188 34.8281
Q35.4062 35.9844 37.2969 37.8125
Q39.2031 39.6562 40.25 42
Q41.3125 44.3438 41.3125 46.6875
Q41.3125 49.9531 40.4062 53.2031
Q39.5 56.4531 37.7188 59.0625
Q35.9375 61.6719 33.25 63.2812
Q30.5625 64.8906 27 64.8906" id="WenQuanYiMicroHei-39"/>
      </defs>
      <g transform="translate(7.604525625 31.2469790625)scale(0.09996 -0.09996)">
       <use xlink:href="#WenQuanYiMicroHei-39"/>
       <use x="55.078125" xlink:href="#WenQuanYiMicroHei-30"/>
      </g>
     </g>
    </g>
   </g>
   <g id="legend_1">
    <g id="patch_28">
     <path d="
M21.6302 25.1944
L356.43 25.1944
L356.43 7.2
L21.6302 7.2
z
" style="fill:#ffffff;stroke:#000000;stroke-linejoin:miter;"/>
    </g>
    <g id="patch_29">
     <path d="
M25.6286 18.7938
L45.6206 18.7938
L45.6206 11.7966
L25.6286 11.7966
z
" style="fill:#348abd;stroke:#000000;stroke-linejoin:miter;"/>
    </g>
    <g id="text_18">
     <!-- 上海 -->
     <defs>
      <path d="
M14.0625 80.0781
Q22.6562 75.3906 29.6875 68.75
L24.6094 62.1094
Q16.7969 69.5312 8.59375 74.6094
z

M10.1562 55.8594
Q17.9688 51.5625 24.6094 46.0938
L19.1406 39.4531
Q12.5 46.0938 4.6875 50.3906
z

M19.1406 31.25
L25.7812 26.5625
Q21.0938 8.20312 12.1094 -8.98438
L4.29688 -3.51562
Q13.6719 12.8906 19.1406 31.25
M42.9688 81.25
L51.1719 79.2969
Q50 75.7812 48.4375 72.2656
L91.4062 72.2656
L91.4062 65.2344
L44.5312 65.2344
Q39.8438 57.0312 32.8125 50.7812
L27.3438 56.6406
Q37.8906 66.4062 42.9688 81.25
M41.4062 57.0312
L88.2812 57.0312
L87.5 34.375
L95.7031 34.375
L95.7031 27.3438
L87.1094 27.3438
Q86.7188 19.1406 85.5469 11.3281
L94.5312 11.3281
L94.5312 4.6875
L85.1562 4.6875
Q83.5938 -8.98438 72.6562 -8.98438
Q68.75 -8.98438 62.1094 -8.20312
L60.9375 -1.5625
Q68.3594 -2.34375 72.6562 -2.34375
Q76.1719 -2.34375 76.9531 4.6875
L34.375 4.6875
Q36.7188 15.2344 38.2812 27.3438
L29.6875 27.3438
L29.6875 34.375
L39.4531 34.375
Q40.625 45.3125 41.4062 57.0312
M47.2656 34.375
L79.6875 34.375
Q80.0781 42.5781 80.0781 50.3906
L48.4375 50.3906
Q48.0469 41.7969 47.2656 34.375
M60.9375 48.4375
Q65.625 45.7031 69.5312 41.7969
L64.4531 35.9375
Q60.5469 40.625 55.8594 43.75
z

M77.7344 11.3281
L79.2969 27.3438
L46.4844 27.3438
Q45.3125 18.75 43.75 11.3281
z

M59.7656 25.7812
Q64.8438 22.6562 69.1406 18.75
L64.4531 12.8906
Q59.7656 17.5781 55.0781 20.7031
z
" id="WenQuanYiMicroHei-6d77"/>
      <path d="
M41.7969 79.2969
L50 79.2969
L50 51.9531
L88.2812 51.9531
L88.2812 44.1406
L50 44.1406
L50 3.125
L92.9688 3.125
L92.9688 -4.6875
L7.8125 -4.6875
L7.8125 3.125
L41.7969 3.125
z
" id="WenQuanYiMicroHei-4e0a"/>
     </defs>
     <g transform="translate(53.61740125 18.793798125)scale(0.09996 -0.09996)">
      <use xlink:href="#WenQuanYiMicroHei-4e0a"/>
      <use x="100.0" xlink:href="#WenQuanYiMicroHei-6d77"/>
     </g>
    </g>
    <g id="patch_30">
     <path d="
M165.45 18.7938
L185.442 18.7938
L185.442 11.7966
L165.45 11.7966
z
" style="fill:#a60628;stroke:#000000;stroke-linejoin:miter;"/>
    </g>
    <g id="text_19">
     <!-- 北京 -->
     <defs>
      <path d="
M32.8125 80.0781
L40.625 80.0781
L40.625 -7.8125
L32.8125 -7.8125
L32.8125 13.6719
Q21.875 5.85938 8.59375 0
L5.46875 8.59375
Q20.3125 15.2344 32.8125 23.0469
L32.8125 49.6094
L6.64062 49.6094
L6.64062 57.4219
L32.8125 57.4219
z

M55.8594 80.0781
L63.6719 80.0781
L63.6719 50.7812
Q76.9531 57.4219 88.6719 66.0156
L93.75 58.9844
Q80.0781 49.2188 63.6719 42.1875
L63.6719 4.29688
Q63.6719 2.73438 65.4219 1.95312
Q67.1875 1.17188 74.6094 1.17188
Q82.0312 1.17188 83.5938 2.14062
Q85.1562 3.125 85.9375 5.85938
Q86.7188 8.59375 87.1094 19.5312
L95.3125 17.1875
Q94.9219 4.6875 93.3594 0.78125
Q91.7969 -3.125 88.8594 -4.6875
Q85.9375 -6.25 74.6094 -6.25
Q62.5 -6.25 59.1719 -4.48438
Q55.8594 -2.73438 55.8594 1.5625
z
" id="WenQuanYiMicroHei-5317"/>
      <path d="
M51.1719 81.25
Q54.2969 76.5625 55.8594 71.0938
L94.5312 71.0938
L94.5312 63.6719
L5.46875 63.6719
L5.46875 71.0938
L46.0938 71.0938
Q44.9219 75.3906 42.9688 78.5156
z

M17.1875 56.25
L80.8594 56.25
L80.8594 26.1719
L53.9062 26.1719
L53.9062 1.17188
Q53.9062 -4.6875 51.9531 -6.82812
Q50 -8.98438 44.9219 -8.98438
Q37.8906 -8.98438 32.0312 -7.8125
L30.4688 0
Q37.1094 -1.5625 43.75 -1.5625
Q46.0938 -1.5625 46.0938 3.125
L46.0938 26.1719
L17.1875 26.1719
z

M25 33.5938
L73.0469 33.5938
L73.0469 48.8281
L25 48.8281
z

M28.9062 22.6562
L35.9375 18.75
Q26.9531 4.6875 9.76562 -5.07812
L5.07812 1.17188
Q20.7031 10.9375 28.9062 22.6562
M69.1406 22.6562
Q80.8594 13.6719 92.5781 1.5625
L86.3281 -5.07812
Q76.1719 6.64062 62.5 18.3594
z
" id="WenQuanYiMicroHei-4eac"/>
     </defs>
     <g transform="translate(193.438593438 18.793798125)scale(0.09996 -0.09996)">
      <use xlink:href="#WenQuanYiMicroHei-5317"/>
      <use x="100.0" xlink:href="#WenQuanYiMicroHei-4eac"/>
     </g>
    </g>
    <g id="patch_31">
     <path d="
M305.388 18.7938
L325.38 18.7938
L325.38 11.7966
L305.388 11.7966
z
" style="fill:#7a68a6;stroke:#000000;stroke-linejoin:miter;"/>
    </g>
    <g id="text_20">
     <!-- 天津 -->
     <defs>
      <path d="
M12.8906 76.1719
L86.3281 76.1719
L86.3281 68.75
L53.125 68.75
Q53.125 48.4375 52.7344 46.0938
L91.7969 46.0938
L91.7969 38.6719
L53.5156 38.6719
Q64.4531 10.9375 94.9219 -1.17188
L89.4531 -9.375
Q60.9375 4.29688 50.3906 27.3438
Q43.3594 2.73438 10.1562 -9.375
L5.46875 -1.5625
Q24.6094 5.07812 33.5938 14.8438
Q42.5781 24.6094 44.1406 38.6719
L7.42188 38.6719
L7.42188 46.0938
L44.9219 46.0938
Q45.3125 51.1719 45.3125 68.75
L12.8906 68.75
z
" id="WenQuanYiMicroHei-5929"/>
      <path d="
M14.0625 80.0781
Q22.6562 75.3906 29.6875 68.75
L24.6094 62.1094
Q16.7969 69.5312 8.59375 74.6094
z

M10.1562 55.8594
Q17.9688 51.5625 24.6094 46.0938
L19.1406 39.4531
Q12.5 46.0938 4.6875 50.3906
z

M19.1406 31.25
L25.7812 26.5625
Q21.0938 8.20312 12.1094 -8.98438
L4.29688 -3.51562
Q13.6719 12.8906 19.1406 31.25
M34.375 73.4375
L56.25 73.4375
L56.25 81.25
L63.6719 81.25
L63.6719 73.4375
L87.8906 73.4375
L87.8906 58.2031
L95.3125 58.2031
L95.3125 51.5625
L87.8906 51.5625
L87.8906 35.9375
L63.6719 35.9375
L63.6719 28.125
L91.4062 28.125
L91.4062 21.4844
L63.6719 21.4844
L63.6719 13.6719
L96.0938 13.6719
L96.0938 6.64062
L63.6719 6.64062
L63.6719 -8.98438
L56.25 -8.98438
L56.25 6.64062
L26.9531 6.64062
L26.9531 13.6719
L56.25 13.6719
L56.25 21.4844
L33.2031 21.4844
L33.2031 28.125
L56.25 28.125
L56.25 35.9375
L33.9844 35.9375
L33.9844 43.3594
L56.25 43.3594
L56.25 51.5625
L28.5156 51.5625
L28.5156 58.2031
L56.25 58.2031
L56.25 66.0156
L34.375 66.0156
z

M63.6719 66.0156
L63.6719 58.2031
L80.4688 58.2031
L80.4688 66.0156
z

M63.6719 51.5625
L63.6719 43.3594
L80.4688 43.3594
L80.4688 51.5625
z
" id="WenQuanYiMicroHei-6d25"/>
     </defs>
     <g transform="translate(333.37692625 18.793798125)scale(0.09996 -0.09996)">
      <use xlink:href="#WenQuanYiMicroHei-5929"/>
      <use x="100.0" xlink:href="#WenQuanYiMicroHei-6d25"/>
     </g>
    </g>
   </g>
  </g>
 </g>
 <defs>
  <clipPath id="pace759af0a">
   <rect height="172.8" width="334.8" x="21.63020125" y="28.650361875"/>
  </clipPath>
 </defs>
</svg>
