<?xml version="1.0" encoding="utf-8" standalone="no"?>
<!DOCTYPE svg PUBLIC "-//W3C//DTD SVG 1.1//EN"
  "http://www.w3.org/Graphics/SVG/1.1/DTD/svg11.dtd">
<!-- Created with matplotlib (http://matplotlib.org/) -->
<svg height="126pt" version="1.1" viewBox="0 0 876 126" width="876pt" xmlns="http://www.w3.org/2000/svg" xmlns:xlink="http://www.w3.org/1999/xlink">
 <defs>
  <style type="text/css">
*{stroke-linecap:butt;stroke-linejoin:round;}
  </style>
 </defs>
 <g id="figure_1">
  <g id="patch_1">
   <path d="
M-1.42109e-14 126.048
L876.862 126.048
L876.862 0
L-1.42109e-14 0
z
" style="fill:#ffffff;"/>
  </g>
  <g id="axes_1">
   <g id="patch_2">
    <path d="
M32.6617 104.85
L869.662 104.85
L869.662 7.2
L32.6617 7.2
z
" style="fill:#ffffff;"/>
   </g>
   <g id="QuadMesh_1">
    <path clip-path="url(#p8fcf99ac77)" d="
M32.6617 104.85
L46.6117 104.85
L46.6117 90.9
L32.6617 90.9
L32.6617 104.85" style="fill:#6bc072;"/>
    <path clip-path="url(#p8fcf99ac77)" d="
M46.6117 104.85
L60.5617 104.85
L60.5617 90.9
L46.6117 90.9
L46.6117 104.85" style="fill:#81ca81;"/>
    <path clip-path="url(#p8fcf99ac77)" d="
M60.5617 104.85
L74.5117 104.85
L74.5117 90.9
L60.5617 90.9
L60.5617 104.85" style="fill:#3ea75a;"/>
    <path clip-path="url(#p8fcf99ac77)" d="
M74.5117 104.85
L88.4617 104.85
L88.4617 90.9
L74.5117 90.9
L74.5117 104.85" style="fill:#6bc072;"/>
    <path clip-path="url(#p8fcf99ac77)" d="
M88.4617 104.85
L102.412 104.85
L102.412 90.9
L88.4617 90.9
L88.4617 104.85" style="fill:#2f984f;"/>
    <path clip-path="url(#p8fcf99ac77)" d="
M102.412 104.85
L116.362 104.85
L116.362 90.9
L102.412 90.9
L102.412 104.85" style="fill:#81ca81;"/>
    <path clip-path="url(#p8fcf99ac77)" d="
M116.362 104.85
L130.312 104.85
L130.312 90.9
L116.362 90.9
L116.362 104.85" style="fill:#016e2d;"/>
    <path clip-path="url(#p8fcf99ac77)" d="
M130.312 104.85
L144.262 104.85
L144.262 90.9
L130.312 90.9
L130.312 104.85" style="fill:#00441b;"/>
    <path clip-path="url(#p8fcf99ac77)" d="
M144.262 104.85
L158.212 104.85
L158.212 90.9
L144.262 90.9
L144.262 104.85" style="fill:#cbebc5;"/>
    <path clip-path="url(#p8fcf99ac77)" d="
M158.212 104.85
L172.162 104.85
L172.162 90.9
L158.212 90.9
L158.212 104.85" style="fill:#81ca81;"/>
    <path clip-path="url(#p8fcf99ac77)" d="
M172.162 104.85
L186.112 104.85
L186.112 90.9
L172.162 90.9
L172.162 104.85" style="fill:#bbe4b4;"/>
    <path clip-path="url(#p8fcf99ac77)" d="
M186.112 104.85
L200.062 104.85
L200.062 90.9
L186.112 90.9
L186.112 104.85" style="fill:#005b25;"/>
    <path clip-path="url(#p8fcf99ac77)" d="
M200.062 104.85
L214.012 104.85
L214.012 90.9
L200.062 90.9
L200.062 104.85" style="fill:#6bc072;"/>
    <path clip-path="url(#p8fcf99ac77)" d="
M214.012 104.85
L227.962 104.85
L227.962 90.9
L214.012 90.9
L214.012 104.85" style="fill:#6bc072;"/>
    <path clip-path="url(#p8fcf99ac77)" d="
M227.962 104.85
L241.912 104.85
L241.912 90.9
L227.962 90.9
L227.962 104.85" style="fill:#97d492;"/>
    <path clip-path="url(#p8fcf99ac77)" d="
M241.912 104.85
L255.862 104.85
L255.862 90.9
L241.912 90.9
L241.912 104.85" style="fill:#97d492;"/>
    <path clip-path="url(#p8fcf99ac77)" d="
M255.862 104.85
L269.812 104.85
L269.812 90.9
L255.862 90.9
L255.862 104.85" style="fill:#bbe4b4;"/>
    <path clip-path="url(#p8fcf99ac77)" d="
M269.812 104.85
L283.762 104.85
L283.762 90.9
L269.812 90.9
L269.812 104.85" style="fill:#cbebc5;"/>
    <path clip-path="url(#p8fcf99ac77)" d="
M283.762 104.85
L297.712 104.85
L297.712 90.9
L283.762 90.9
L283.762 104.85" style="fill:#2f984f;"/>
    <path clip-path="url(#p8fcf99ac77)" d="
M297.712 104.85
L311.662 104.85
L311.662 90.9
L297.712 90.9
L297.712 104.85" style="fill:#00441b;"/>
    <path clip-path="url(#p8fcf99ac77)" d="
M311.662 104.85
L325.612 104.85
L325.612 90.9
L311.662 90.9
L311.662 104.85" style="fill:#00441b;"/>
    <path clip-path="url(#p8fcf99ac77)" d="
M325.612 104.85
L339.562 104.85
L339.562 90.9
L325.612 90.9
L325.612 104.85" style="fill:#6bc072;"/>
    <path clip-path="url(#p8fcf99ac77)" d="
M339.562 104.85
L353.512 104.85
L353.512 90.9
L339.562 90.9
L339.562 104.85" style="fill:#daf0d4;"/>
    <path clip-path="url(#p8fcf99ac77)" d="
M353.512 104.85
L367.462 104.85
L367.462 90.9
L353.512 90.9
L353.512 104.85" style="fill:#81ca81;"/>
    <path clip-path="url(#p8fcf99ac77)" d="
M367.462 104.85
L381.412 104.85
L381.412 90.9
L367.462 90.9
L367.462 104.85" style="fill:#a9dca3;"/>
    <path clip-path="url(#p8fcf99ac77)" d="
M381.412 104.85
L395.362 104.85
L395.362 90.9
L381.412 90.9
L381.412 104.85" style="fill:#daf0d4;"/>
    <path clip-path="url(#p8fcf99ac77)" d="
M395.362 104.85
L409.312 104.85
L409.312 90.9
L395.362 90.9
L395.362 104.85" style="fill:#3ea75a;"/>
    <path clip-path="url(#p8fcf99ac77)" d="
M409.312 104.85
L423.262 104.85
L423.262 90.9
L409.312 90.9
L409.312 104.85" style="fill:#eff9ec;"/>
    <path clip-path="url(#p8fcf99ac77)" d="
M423.262 104.85
L437.212 104.85
L437.212 90.9
L423.262 90.9
L423.262 104.85" style="fill:#bbe4b4;"/>
    <path clip-path="url(#p8fcf99ac77)" d="
M437.212 104.85
L451.162 104.85
L451.162 90.9
L437.212 90.9
L437.212 104.85" style="fill:#a9dca3;"/>
    <path clip-path="url(#p8fcf99ac77)" d="
M451.162 104.85
L465.112 104.85
L465.112 90.9
L451.162 90.9
L451.162 104.85" style="fill:#eff9ec;"/>
    <path clip-path="url(#p8fcf99ac77)" d="
M465.112 104.85
L479.062 104.85
L479.062 90.9
L465.112 90.9
L465.112 104.85" style="fill:#a9dca3;"/>
    <path clip-path="url(#p8fcf99ac77)" d="
M479.062 104.85
L493.012 104.85
L493.012 90.9
L479.062 90.9
L479.062 104.85" style="fill:#eff9ec;"/>
    <path clip-path="url(#p8fcf99ac77)" d="
M493.012 104.85
L506.962 104.85
L506.962 90.9
L493.012 90.9
L493.012 104.85" style="fill:#daf0d4;"/>
    <path clip-path="url(#p8fcf99ac77)" d="
M506.962 104.85
L520.912 104.85
L520.912 90.9
L506.962 90.9
L506.962 104.85" style="fill:#a9dca3;"/>
    <path clip-path="url(#p8fcf99ac77)" d="
M520.912 104.85
L534.862 104.85
L534.862 90.9
L520.912 90.9
L520.912 104.85" style="fill:#81ca81;"/>
    <path clip-path="url(#p8fcf99ac77)" d="
M534.862 104.85
L548.812 104.85
L548.812 90.9
L534.862 90.9
L534.862 104.85" style="fill:#cbebc5;"/>
    <path clip-path="url(#p8fcf99ac77)" d="
M548.812 104.85
L562.762 104.85
L562.762 90.9
L548.812 90.9
L548.812 104.85" style="fill:#daf0d4;"/>
    <path clip-path="url(#p8fcf99ac77)" d="
M562.762 104.85
L576.712 104.85
L576.712 90.9
L562.762 90.9
L562.762 104.85" style="fill:#daf0d4;"/>
    <path clip-path="url(#p8fcf99ac77)" d="
M576.712 104.85
L590.662 104.85
L590.662 90.9
L576.712 90.9
L576.712 104.85" style="fill:#127c39;"/>
    <path clip-path="url(#p8fcf99ac77)" d="
M590.662 104.85
L604.612 104.85
L604.612 90.9
L590.662 90.9
L590.662 104.85" style="fill:#daf0d4;"/>
    <path clip-path="url(#p8fcf99ac77)" d="
M604.612 104.85
L618.562 104.85
L618.562 90.9
L604.612 90.9
L604.612 104.85" style="fill:#eff9ec;"/>
    <path clip-path="url(#p8fcf99ac77)" d="
M618.562 104.85
L632.512 104.85
L632.512 90.9
L618.562 90.9
L618.562 104.85" style="fill:#6bc072;"/>
    <path clip-path="url(#p8fcf99ac77)" d="
M632.512 104.85
L646.462 104.85
L646.462 90.9
L632.512 90.9
L632.512 104.85" style="fill:#cbebc5;"/>
    <path clip-path="url(#p8fcf99ac77)" d="
M646.462 104.85
L660.412 104.85
L660.412 90.9
L646.462 90.9
L646.462 104.85" style="fill:#cbebc5;"/>
    <path clip-path="url(#p8fcf99ac77)" d="
M660.412 104.85
L674.362 104.85
L674.362 90.9
L660.412 90.9
L660.412 104.85" style="fill:#f7fcf5;"/>
    <path clip-path="url(#p8fcf99ac77)" d="
M674.362 104.85
L688.312 104.85
L688.312 90.9
L674.362 90.9
L674.362 104.85" style="fill:#bbe4b4;"/>
    <path clip-path="url(#p8fcf99ac77)" d="
M688.312 104.85
L702.262 104.85
L702.262 90.9
L688.312 90.9
L688.312 104.85" style="fill:#00441b;"/>
    <path clip-path="url(#p8fcf99ac77)" d="
M702.262 104.85
L716.212 104.85
L716.212 90.9
L702.262 90.9
L702.262 104.85" style="fill:#2f984f;"/>
    <path clip-path="url(#p8fcf99ac77)" d="
M716.212 104.85
L730.162 104.85
L730.162 90.9
L716.212 90.9
L716.212 104.85" style="fill:#e7f6e2;"/>
    <path clip-path="url(#p8fcf99ac77)" d="
M730.162 104.85
L744.112 104.85
L744.112 90.9
L730.162 90.9
L730.162 104.85" style="fill:#3ea75a;"/>
    <path clip-path="url(#p8fcf99ac77)" d="
M744.112 104.85
L758.062 104.85
L758.062 90.9
L744.112 90.9
L744.112 104.85" style="fill:#53b466;"/>
    <path clip-path="url(#p8fcf99ac77)" d="
M758.062 104.85
L772.012 104.85
L772.012 90.9
L758.062 90.9
L758.062 104.85" style="fill:#cbebc5;"/>
    <path clip-path="url(#p8fcf99ac77)" d="
M772.012 104.85
L785.962 104.85
L785.962 90.9
L772.012 90.9
L772.012 104.85" style="fill:#daf0d4;"/>
    <path clip-path="url(#p8fcf99ac77)" d="
M785.962 104.85
L799.912 104.85
L799.912 90.9
L785.962 90.9
L785.962 104.85" style="fill:#eff9ec;"/>
    <path clip-path="url(#p8fcf99ac77)" d="
M799.912 104.85
L813.862 104.85
L813.862 90.9
L799.912 90.9
L799.912 104.85" style="fill:#bbe4b4;"/>
    <path clip-path="url(#p8fcf99ac77)" d="
M813.862 104.85
L827.812 104.85
L827.812 90.9
L813.862 90.9
L813.862 104.85" style="fill:#e7f6e2;"/>
    <path clip-path="url(#p8fcf99ac77)" d="
M827.812 104.85
L841.762 104.85
L841.762 90.9
L827.812 90.9
L827.812 104.85" style="fill:#daf0d4;"/>
    <path clip-path="url(#p8fcf99ac77)" d="
M841.762 104.85
L855.712 104.85
L855.712 90.9
L841.762 90.9
L841.762 104.85" style="fill:#eff9ec;"/>
    <path clip-path="url(#p8fcf99ac77)" d="
M855.712 104.85
L869.662 104.85
L869.662 90.9
L855.712 90.9
L855.712 104.85" style="fill:#bbe4b4;"/>
    <path clip-path="url(#p8fcf99ac77)" d="
M32.6617 90.9
L46.6117 90.9
L46.6117 76.95
L32.6617 76.95
L32.6617 90.9" style="fill:#6bc072;"/>
    <path clip-path="url(#p8fcf99ac77)" d="
M46.6117 90.9
L60.5617 90.9
L60.5617 76.95
L46.6117 76.95
L46.6117 90.9" style="fill:#a9dca3;"/>
    <path clip-path="url(#p8fcf99ac77)" d="
M60.5617 90.9
L74.5117 90.9
L74.5117 76.95
L60.5617 76.95
L60.5617 90.9" style="fill:#127c39;"/>
    <path clip-path="url(#p8fcf99ac77)" d="
M74.5117 90.9
L88.4617 90.9
L88.4617 76.95
L74.5117 76.95
L74.5117 90.9" style="fill:#97d492;"/>
    <path clip-path="url(#p8fcf99ac77)" d="
M88.4617 90.9
L102.412 90.9
L102.412 76.95
L88.4617 76.95
L88.4617 90.9" style="fill:#016e2d;"/>
    <path clip-path="url(#p8fcf99ac77)" d="
M102.412 90.9
L116.362 90.9
L116.362 76.95
L102.412 76.95
L102.412 90.9" style="fill:#81ca81;"/>
    <path clip-path="url(#p8fcf99ac77)" d="
M116.362 90.9
L130.312 90.9
L130.312 76.95
L116.362 76.95
L116.362 90.9" style="fill:#00441b;"/>
    <path clip-path="url(#p8fcf99ac77)" d="
M130.312 90.9
L144.262 90.9
L144.262 76.95
L130.312 76.95
L130.312 90.9" style="fill:#bbe4b4;"/>
    <path clip-path="url(#p8fcf99ac77)" d="
M144.262 90.9
L158.212 90.9
L158.212 76.95
L144.262 76.95
L144.262 90.9" style="fill:#daf0d4;"/>
    <path clip-path="url(#p8fcf99ac77)" d="
M158.212 90.9
L172.162 90.9
L172.162 76.95
L158.212 76.95
L158.212 90.9" style="fill:#bbe4b4;"/>
    <path clip-path="url(#p8fcf99ac77)" d="
M172.162 90.9
L186.112 90.9
L186.112 76.95
L172.162 76.95
L172.162 90.9" style="fill:#97d492;"/>
    <path clip-path="url(#p8fcf99ac77)" d="
M186.112 90.9
L200.062 90.9
L200.062 76.95
L186.112 76.95
L186.112 90.9" style="fill:#a9dca3;"/>
    <path clip-path="url(#p8fcf99ac77)" d="
M200.062 90.9
L214.012 90.9
L214.012 76.95
L200.062 76.95
L200.062 90.9" style="fill:#bbe4b4;"/>
    <path clip-path="url(#p8fcf99ac77)" d="
M214.012 90.9
L227.962 90.9
L227.962 76.95
L214.012 76.95
L214.012 90.9" style="fill:#00441b;"/>
    <path clip-path="url(#p8fcf99ac77)" d="
M227.962 90.9
L241.912 90.9
L241.912 76.95
L227.962 76.95
L227.962 90.9" style="fill:#f7fcf5;"/>
    <path clip-path="url(#p8fcf99ac77)" d="
M241.912 90.9
L255.862 90.9
L255.862 76.95
L241.912 76.95
L241.912 90.9" style="fill:#eff9ec;"/>
    <path clip-path="url(#p8fcf99ac77)" d="
M255.862 90.9
L269.812 90.9
L269.812 76.95
L255.862 76.95
L255.862 90.9" style="fill:#127c39;"/>
    <path clip-path="url(#p8fcf99ac77)" d="
M269.812 90.9
L283.762 90.9
L283.762 76.95
L269.812 76.95
L269.812 90.9" style="fill:#cbebc5;"/>
    <path clip-path="url(#p8fcf99ac77)" d="
M283.762 90.9
L297.712 90.9
L297.712 76.95
L283.762 76.95
L283.762 90.9" style="fill:#6bc072;"/>
    <path clip-path="url(#p8fcf99ac77)" d="
M297.712 90.9
L311.662 90.9
L311.662 76.95
L297.712 76.95
L297.712 90.9" style="fill:#a9dca3;"/>
    <path clip-path="url(#p8fcf99ac77)" d="
M311.662 90.9
L325.612 90.9
L325.612 76.95
L311.662 76.95
L311.662 90.9" style="fill:#127c39;"/>
    <path clip-path="url(#p8fcf99ac77)" d="
M325.612 90.9
L339.562 90.9
L339.562 76.95
L325.612 76.95
L325.612 90.9" style="fill:#f7fcf5;"/>
    <path clip-path="url(#p8fcf99ac77)" d="
M339.562 90.9
L353.512 90.9
L353.512 76.95
L339.562 76.95
L339.562 90.9" style="fill:#daf0d4;"/>
    <path clip-path="url(#p8fcf99ac77)" d="
M353.512 90.9
L367.462 90.9
L367.462 76.95
L353.512 76.95
L353.512 90.9" style="fill:#97d492;"/>
    <path clip-path="url(#p8fcf99ac77)" d="
M367.462 90.9
L381.412 90.9
L381.412 76.95
L367.462 76.95
L367.462 90.9" style="fill:#daf0d4;"/>
    <path clip-path="url(#p8fcf99ac77)" d="
M381.412 90.9
L395.362 90.9
L395.362 76.95
L381.412 76.95
L381.412 90.9" style="fill:#53b466;"/>
    <path clip-path="url(#p8fcf99ac77)" d="
M395.362 90.9
L409.312 90.9
L409.312 76.95
L395.362 76.95
L395.362 90.9" style="fill:#97d492;"/>
    <path clip-path="url(#p8fcf99ac77)" d="
M409.312 90.9
L423.262 90.9
L423.262 76.95
L409.312 76.95
L409.312 90.9" style="fill:#f7fcf5;"/>
    <path clip-path="url(#p8fcf99ac77)" d="
M423.262 90.9
L437.212 90.9
L437.212 76.95
L423.262 76.95
L423.262 90.9" style="fill:#cbebc5;"/>
    <path clip-path="url(#p8fcf99ac77)" d="
M437.212 90.9
L451.162 90.9
L451.162 76.95
L437.212 76.95
L437.212 90.9" style="fill:#eff9ec;"/>
    <path clip-path="url(#p8fcf99ac77)" d="
M451.162 90.9
L465.112 90.9
L465.112 76.95
L451.162 76.95
L451.162 90.9" style="fill:#eff9ec;"/>
    <path clip-path="url(#p8fcf99ac77)" d="
M465.112 90.9
L479.062 90.9
L479.062 76.95
L465.112 76.95
L465.112 90.9" style="fill:#81ca81;"/>
    <path clip-path="url(#p8fcf99ac77)" d="
M479.062 90.9
L493.012 90.9
L493.012 76.95
L479.062 76.95
L479.062 90.9" style="fill:#e7f6e2;"/>
    <path clip-path="url(#p8fcf99ac77)" d="
M493.012 90.9
L506.962 90.9
L506.962 76.95
L493.012 76.95
L493.012 90.9" style="fill:#e7f6e2;"/>
    <path clip-path="url(#p8fcf99ac77)" d="
M506.962 90.9
L520.912 90.9
L520.912 76.95
L506.962 76.95
L506.962 90.9" style="fill:#daf0d4;"/>
    <path clip-path="url(#p8fcf99ac77)" d="
M520.912 90.9
L534.862 90.9
L534.862 76.95
L520.912 76.95
L520.912 90.9" style="fill:#a9dca3;"/>
    <path clip-path="url(#p8fcf99ac77)" d="
M534.862 90.9
L548.812 90.9
L548.812 76.95
L534.862 76.95
L534.862 90.9" style="fill:#cbebc5;"/>
    <path clip-path="url(#p8fcf99ac77)" d="
M548.812 90.9
L562.762 90.9
L562.762 76.95
L548.812 76.95
L548.812 90.9" style="fill:#e7f6e2;"/>
    <path clip-path="url(#p8fcf99ac77)" d="
M562.762 90.9
L576.712 90.9
L576.712 76.95
L562.762 76.95
L562.762 90.9" style="fill:#bbe4b4;"/>
    <path clip-path="url(#p8fcf99ac77)" d="
M576.712 90.9
L590.662 90.9
L590.662 76.95
L576.712 76.95
L576.712 90.9" style="fill:#bbe4b4;"/>
    <path clip-path="url(#p8fcf99ac77)" d="
M590.662 90.9
L604.612 90.9
L604.612 76.95
L590.662 76.95
L590.662 90.9" style="fill:#a9dca3;"/>
    <path clip-path="url(#p8fcf99ac77)" d="
M604.612 90.9
L618.562 90.9
L618.562 76.95
L604.612 76.95
L604.612 90.9" style="fill:#97d492;"/>
    <path clip-path="url(#p8fcf99ac77)" d="
M618.562 90.9
L632.512 90.9
L632.512 76.95
L618.562 76.95
L618.562 90.9" style="fill:#bbe4b4;"/>
    <path clip-path="url(#p8fcf99ac77)" d="
M632.512 90.9
L646.462 90.9
L646.462 76.95
L632.512 76.95
L632.512 90.9" style="fill:#a9dca3;"/>
    <path clip-path="url(#p8fcf99ac77)" d="
M646.462 90.9
L660.412 90.9
L660.412 76.95
L646.462 76.95
L646.462 90.9" style="fill:#bbe4b4;"/>
    <path clip-path="url(#p8fcf99ac77)" d="
M660.412 90.9
L674.362 90.9
L674.362 76.95
L660.412 76.95
L660.412 90.9" style="fill:#bbe4b4;"/>
    <path clip-path="url(#p8fcf99ac77)" d="
M674.362 90.9
L688.312 90.9
L688.312 76.95
L674.362 76.95
L674.362 90.9" style="fill:#cbebc5;"/>
    <path clip-path="url(#p8fcf99ac77)" d="
M688.312 90.9
L702.262 90.9
L702.262 76.95
L688.312 76.95
L688.312 90.9" style="fill:#228a44;"/>
    <path clip-path="url(#p8fcf99ac77)" d="
M702.262 90.9
L716.212 90.9
L716.212 76.95
L702.262 76.95
L702.262 90.9" style="fill:#daf0d4;"/>
    <path clip-path="url(#p8fcf99ac77)" d="
M716.212 90.9
L730.162 90.9
L730.162 76.95
L716.212 76.95
L716.212 90.9" style="fill:#81ca81;"/>
    <path clip-path="url(#p8fcf99ac77)" d="
M730.162 90.9
L744.112 90.9
L744.112 76.95
L730.162 76.95
L730.162 90.9" style="fill:#005b25;"/>
    <path clip-path="url(#p8fcf99ac77)" d="
M744.112 90.9
L758.062 90.9
L758.062 76.95
L744.112 76.95
L744.112 90.9" style="fill:#cbebc5;"/>
    <path clip-path="url(#p8fcf99ac77)" d="
M758.062 90.9
L772.012 90.9
L772.012 76.95
L758.062 76.95
L758.062 90.9" style="fill:#bbe4b4;"/>
    <path clip-path="url(#p8fcf99ac77)" d="
M772.012 90.9
L785.962 90.9
L785.962 76.95
L772.012 76.95
L772.012 90.9" style="fill:#bbe4b4;"/>
    <path clip-path="url(#p8fcf99ac77)" d="
M785.962 90.9
L799.912 90.9
L799.912 76.95
L785.962 76.95
L785.962 90.9" style="fill:#97d492;"/>
    <path clip-path="url(#p8fcf99ac77)" d="
M799.912 90.9
L813.862 90.9
L813.862 76.95
L799.912 76.95
L799.912 90.9" style="fill:#bbe4b4;"/>
    <path clip-path="url(#p8fcf99ac77)" d="
M813.862 90.9
L827.812 90.9
L827.812 76.95
L813.862 76.95
L813.862 90.9" style="fill:#e7f6e2;"/>
    <path clip-path="url(#p8fcf99ac77)" d="
M827.812 90.9
L841.762 90.9
L841.762 76.95
L827.812 76.95
L827.812 90.9" style="fill:#bbe4b4;"/>
    <path clip-path="url(#p8fcf99ac77)" d="
M841.762 90.9
L855.712 90.9
L855.712 76.95
L841.762 76.95
L841.762 90.9" style="fill:#daf0d4;"/>
    <path clip-path="url(#p8fcf99ac77)" d="
M855.712 90.9
L869.662 90.9
L869.662 76.95
L855.712 76.95
L855.712 90.9" style="fill:#cbebc5;"/>
    <path clip-path="url(#p8fcf99ac77)" d="
M32.6617 76.95
L46.6117 76.95
L46.6117 63
L32.6617 63
L32.6617 76.95" style="fill:#53b466;"/>
    <path clip-path="url(#p8fcf99ac77)" d="
M46.6117 76.95
L60.5617 76.95
L60.5617 63
L46.6117 63
L46.6117 76.95" style="fill:#53b466;"/>
    <path clip-path="url(#p8fcf99ac77)" d="
M60.5617 76.95
L74.5117 76.95
L74.5117 63
L60.5617 63
L60.5617 76.95" style="fill:#005b25;"/>
    <path clip-path="url(#p8fcf99ac77)" d="
M74.5117 76.95
L88.4617 76.95
L88.4617 63
L74.5117 63
L74.5117 76.95" style="fill:#3ea75a;"/>
    <path clip-path="url(#p8fcf99ac77)" d="
M88.4617 76.95
L102.412 76.95
L102.412 63
L88.4617 63
L88.4617 76.95" style="fill:#00441b;"/>
    <path clip-path="url(#p8fcf99ac77)" d="
M102.412 76.95
L116.362 76.95
L116.362 63
L102.412 63
L102.412 76.95" style="fill:#6bc072;"/>
    <path clip-path="url(#p8fcf99ac77)" d="
M116.362 76.95
L130.312 76.95
L130.312 63
L116.362 63
L116.362 76.95" style="fill:#97d492;"/>
    <path clip-path="url(#p8fcf99ac77)" d="
M130.312 76.95
L144.262 76.95
L144.262 63
L130.312 63
L130.312 76.95" style="fill:#53b466;"/>
    <path clip-path="url(#p8fcf99ac77)" d="
M144.262 76.95
L158.212 76.95
L158.212 63
L144.262 63
L144.262 76.95" style="fill:#97d492;"/>
    <path clip-path="url(#p8fcf99ac77)" d="
M158.212 76.95
L172.162 76.95
L172.162 63
L158.212 63
L158.212 76.95" style="fill:#97d492;"/>
    <path clip-path="url(#p8fcf99ac77)" d="
M172.162 76.95
L186.112 76.95
L186.112 63
L172.162 63
L172.162 76.95" style="fill:#bbe4b4;"/>
    <path clip-path="url(#p8fcf99ac77)" d="
M186.112 76.95
L200.062 76.95
L200.062 63
L186.112 63
L186.112 76.95" style="fill:#97d492;"/>
    <path clip-path="url(#p8fcf99ac77)" d="
M200.062 76.95
L214.012 76.95
L214.012 63
L200.062 63
L200.062 76.95" style="fill:#f7fcf5;"/>
    <path clip-path="url(#p8fcf99ac77)" d="
M214.012 76.95
L227.962 76.95
L227.962 63
L214.012 63
L214.012 76.95" style="fill:#53b466;"/>
    <path clip-path="url(#p8fcf99ac77)" d="
M227.962 76.95
L241.912 76.95
L241.912 63
L227.962 63
L227.962 76.95" style="fill:#97d492;"/>
    <path clip-path="url(#p8fcf99ac77)" d="
M241.912 76.95
L255.862 76.95
L255.862 63
L241.912 63
L241.912 76.95" style="fill:#bbe4b4;"/>
    <path clip-path="url(#p8fcf99ac77)" d="
M255.862 76.95
L269.812 76.95
L269.812 63
L255.862 63
L255.862 76.95" style="fill:#81ca81;"/>
    <path clip-path="url(#p8fcf99ac77)" d="
M269.812 76.95
L283.762 76.95
L283.762 63
L269.812 63
L269.812 76.95" style="fill:#00441b;"/>
    <path clip-path="url(#p8fcf99ac77)" d="
M283.762 76.95
L297.712 76.95
L297.712 63
L283.762 63
L283.762 76.95" style="fill:#e7f6e2;"/>
    <path clip-path="url(#p8fcf99ac77)" d="
M297.712 76.95
L311.662 76.95
L311.662 63
L297.712 63
L297.712 76.95" style="fill:#e7f6e2;"/>
    <path clip-path="url(#p8fcf99ac77)" d="
M311.662 76.95
L325.612 76.95
L325.612 63
L311.662 63
L311.662 76.95" style="fill:#bbe4b4;"/>
    <path clip-path="url(#p8fcf99ac77)" d="
M325.612 76.95
L339.562 76.95
L339.562 63
L325.612 63
L325.612 76.95" style="fill:#6bc072;"/>
    <path clip-path="url(#p8fcf99ac77)" d="
M339.562 76.95
L353.512 76.95
L353.512 63
L339.562 63
L339.562 76.95" style="fill:#97d492;"/>
    <path clip-path="url(#p8fcf99ac77)" d="
M353.512 76.95
L367.462 76.95
L367.462 63
L353.512 63
L353.512 76.95" style="fill:#3ea75a;"/>
    <path clip-path="url(#p8fcf99ac77)" d="
M367.462 76.95
L381.412 76.95
L381.412 63
L367.462 63
L367.462 76.95" style="fill:#cbebc5;"/>
    <path clip-path="url(#p8fcf99ac77)" d="
M381.412 76.95
L395.362 76.95
L395.362 63
L381.412 63
L381.412 76.95" style="fill:#f7fcf5;"/>
    <path clip-path="url(#p8fcf99ac77)" d="
M395.362 76.95
L409.312 76.95
L409.312 63
L395.362 63
L395.362 76.95" style="fill:#a9dca3;"/>
    <path clip-path="url(#p8fcf99ac77)" d="
M409.312 76.95
L423.262 76.95
L423.262 63
L409.312 63
L409.312 76.95" style="fill:#cbebc5;"/>
    <path clip-path="url(#p8fcf99ac77)" d="
M423.262 76.95
L437.212 76.95
L437.212 63
L423.262 63
L423.262 76.95" style="fill:#00441b;"/>
    <path clip-path="url(#p8fcf99ac77)" d="
M437.212 76.95
L451.162 76.95
L451.162 63
L437.212 63
L437.212 76.95" style="fill:#bbe4b4;"/>
    <path clip-path="url(#p8fcf99ac77)" d="
M451.162 76.95
L465.112 76.95
L465.112 63
L451.162 63
L451.162 76.95" style="fill:#e7f6e2;"/>
    <path clip-path="url(#p8fcf99ac77)" d="
M465.112 76.95
L479.062 76.95
L479.062 63
L465.112 63
L465.112 76.95" style="fill:#6bc072;"/>
    <path clip-path="url(#p8fcf99ac77)" d="
M479.062 76.95
L493.012 76.95
L493.012 63
L479.062 63
L479.062 76.95" style="fill:#e7f6e2;"/>
    <path clip-path="url(#p8fcf99ac77)" d="
M493.012 76.95
L506.962 76.95
L506.962 63
L493.012 63
L493.012 76.95" style="fill:#daf0d4;"/>
    <path clip-path="url(#p8fcf99ac77)" d="
M506.962 76.95
L520.912 76.95
L520.912 63
L506.962 63
L506.962 76.95" style="fill:#daf0d4;"/>
    <path clip-path="url(#p8fcf99ac77)" d="
M520.912 76.95
L534.862 76.95
L534.862 63
L520.912 63
L520.912 76.95" style="fill:#eff9ec;"/>
    <path clip-path="url(#p8fcf99ac77)" d="
M534.862 76.95
L548.812 76.95
L548.812 63
L534.862 63
L534.862 76.95" style="fill:#f7fcf5;"/>
    <path clip-path="url(#p8fcf99ac77)" d="
M548.812 76.95
L562.762 76.95
L562.762 63
L548.812 63
L548.812 76.95" style="fill:#cbebc5;"/>
    <path clip-path="url(#p8fcf99ac77)" d="
M562.762 76.95
L576.712 76.95
L576.712 63
L562.762 63
L562.762 76.95" style="fill:#97d492;"/>
    <path clip-path="url(#p8fcf99ac77)" d="
M576.712 76.95
L590.662 76.95
L590.662 63
L576.712 63
L576.712 76.95" style="fill:#daf0d4;"/>
    <path clip-path="url(#p8fcf99ac77)" d="
M590.662 76.95
L604.612 76.95
L604.612 63
L590.662 63
L590.662 76.95" style="fill:#f7fcf5;"/>
    <path clip-path="url(#p8fcf99ac77)" d="
M604.612 76.95
L618.562 76.95
L618.562 63
L604.612 63
L604.612 76.95" style="fill:#bbe4b4;"/>
    <path clip-path="url(#p8fcf99ac77)" d="
M618.562 76.95
L632.512 76.95
L632.512 63
L618.562 63
L618.562 76.95" style="fill:#6bc072;"/>
    <path clip-path="url(#p8fcf99ac77)" d="
M632.512 76.95
L646.462 76.95
L646.462 63
L632.512 63
L632.512 76.95" style="fill:#eff9ec;"/>
    <path clip-path="url(#p8fcf99ac77)" d="
M646.462 76.95
L660.412 76.95
L660.412 63
L646.462 63
L646.462 76.95" style="fill:#cbebc5;"/>
    <path clip-path="url(#p8fcf99ac77)" d="
M660.412 76.95
L674.362 76.95
L674.362 63
L660.412 63
L660.412 76.95" style="fill:#bbe4b4;"/>
    <path clip-path="url(#p8fcf99ac77)" d="
M674.362 76.95
L688.312 76.95
L688.312 63
L674.362 63
L674.362 76.95" style="fill:#a9dca3;"/>
    <path clip-path="url(#p8fcf99ac77)" d="
M688.312 76.95
L702.262 76.95
L702.262 63
L688.312 63
L688.312 76.95" style="fill:#97d492;"/>
    <path clip-path="url(#p8fcf99ac77)" d="
M702.262 76.95
L716.212 76.95
L716.212 63
L702.262 63
L702.262 76.95" style="fill:#e7f6e2;"/>
    <path clip-path="url(#p8fcf99ac77)" d="
M716.212 76.95
L730.162 76.95
L730.162 63
L716.212 63
L716.212 76.95" style="fill:#00441b;"/>
    <path clip-path="url(#p8fcf99ac77)" d="
M730.162 76.95
L744.112 76.95
L744.112 63
L730.162 63
L730.162 76.95" style="fill:#97d492;"/>
    <path clip-path="url(#p8fcf99ac77)" d="
M744.112 76.95
L758.062 76.95
L758.062 63
L744.112 63
L744.112 76.95" style="fill:#eff9ec;"/>
    <path clip-path="url(#p8fcf99ac77)" d="
M758.062 76.95
L772.012 76.95
L772.012 63
L758.062 63
L758.062 76.95" style="fill:#e7f6e2;"/>
    <path clip-path="url(#p8fcf99ac77)" d="
M772.012 76.95
L785.962 76.95
L785.962 63
L772.012 63
L772.012 76.95" style="fill:#cbebc5;"/>
    <path clip-path="url(#p8fcf99ac77)" d="
M785.962 76.95
L799.912 76.95
L799.912 63
L785.962 63
L785.962 76.95" style="fill:#97d492;"/>
    <path clip-path="url(#p8fcf99ac77)" d="
M799.912 76.95
L813.862 76.95
L813.862 63
L799.912 63
L799.912 76.95" style="fill:#a9dca3;"/>
    <path clip-path="url(#p8fcf99ac77)" d="
M813.862 76.95
L827.812 76.95
L827.812 63
L813.862 63
L813.862 76.95" style="fill:#e7f6e2;"/>
    <path clip-path="url(#p8fcf99ac77)" d="
M827.812 76.95
L841.762 76.95
L841.762 63
L827.812 63
L827.812 76.95" style="fill:#6bc072;"/>
    <path clip-path="url(#p8fcf99ac77)" d="
M841.762 76.95
L855.712 76.95
L855.712 63
L841.762 63
L841.762 76.95" style="fill:#a9dca3;"/>
    <path clip-path="url(#p8fcf99ac77)" d="
M855.712 76.95
L869.662 76.95
L869.662 63
L855.712 63
L855.712 76.95" style="fill:#eff9ec;"/>
    <path clip-path="url(#p8fcf99ac77)" d="
M32.6617 63
L46.6117 63
L46.6117 49.05
L32.6617 49.05
L32.6617 63" style="fill:#3ea75a;"/>
    <path clip-path="url(#p8fcf99ac77)" d="
M46.6117 63
L60.5617 63
L60.5617 49.05
L46.6117 49.05
L46.6117 63" style="fill:#81ca81;"/>
    <path clip-path="url(#p8fcf99ac77)" d="
M60.5617 63
L74.5117 63
L74.5117 49.05
L60.5617 49.05
L60.5617 63" style="fill:#228a44;"/>
    <path clip-path="url(#p8fcf99ac77)" d="
M74.5117 63
L88.4617 63
L88.4617 49.05
L74.5117 49.05
L74.5117 63" style="fill:#bbe4b4;"/>
    <path clip-path="url(#p8fcf99ac77)" d="
M88.4617 63
L102.412 63
L102.412 49.05
L88.4617 49.05
L88.4617 63" style="fill:#6bc072;"/>
    <path clip-path="url(#p8fcf99ac77)" d="
M102.412 63
L116.362 63
L116.362 49.05
L102.412 49.05
L102.412 63" style="fill:#97d492;"/>
    <path clip-path="url(#p8fcf99ac77)" d="
M116.362 63
L130.312 63
L130.312 49.05
L116.362 49.05
L116.362 63" style="fill:#cbebc5;"/>
    <path clip-path="url(#p8fcf99ac77)" d="
M130.312 63
L144.262 63
L144.262 49.05
L130.312 49.05
L130.312 63" style="fill:#016e2d;"/>
    <path clip-path="url(#p8fcf99ac77)" d="
M144.262 63
L158.212 63
L158.212 49.05
L144.262 49.05
L144.262 63" style="fill:#daf0d4;"/>
    <path clip-path="url(#p8fcf99ac77)" d="
M158.212 63
L172.162 63
L172.162 49.05
L158.212 49.05
L158.212 63" style="fill:#81ca81;"/>
    <path clip-path="url(#p8fcf99ac77)" d="
M172.162 63
L186.112 63
L186.112 49.05
L172.162 49.05
L172.162 63" style="fill:#e7f6e2;"/>
    <path clip-path="url(#p8fcf99ac77)" d="
M186.112 63
L200.062 63
L200.062 49.05
L186.112 49.05
L186.112 63" style="fill:#53b466;"/>
    <path clip-path="url(#p8fcf99ac77)" d="
M200.062 63
L214.012 63
L214.012 49.05
L200.062 49.05
L200.062 63" style="fill:#3ea75a;"/>
    <path clip-path="url(#p8fcf99ac77)" d="
M214.012 63
L227.962 63
L227.962 49.05
L214.012 49.05
L214.012 63" style="fill:#cbebc5;"/>
    <path clip-path="url(#p8fcf99ac77)" d="
M227.962 63
L241.912 63
L241.912 49.05
L227.962 49.05
L227.962 63" style="fill:#6bc072;"/>
    <path clip-path="url(#p8fcf99ac77)" d="
M241.912 63
L255.862 63
L255.862 49.05
L241.912 49.05
L241.912 63" style="fill:#2f984f;"/>
    <path clip-path="url(#p8fcf99ac77)" d="
M255.862 63
L269.812 63
L269.812 49.05
L255.862 49.05
L255.862 63" style="fill:#81ca81;"/>
    <path clip-path="url(#p8fcf99ac77)" d="
M269.812 63
L283.762 63
L283.762 49.05
L269.812 49.05
L269.812 63" style="fill:#cbebc5;"/>
    <path clip-path="url(#p8fcf99ac77)" d="
M283.762 63
L297.712 63
L297.712 49.05
L283.762 49.05
L283.762 63" style="fill:#97d492;"/>
    <path clip-path="url(#p8fcf99ac77)" d="
M297.712 63
L311.662 63
L311.662 49.05
L297.712 49.05
L297.712 63" style="fill:#a9dca3;"/>
    <path clip-path="url(#p8fcf99ac77)" d="
M311.662 63
L325.612 63
L325.612 49.05
L311.662 49.05
L311.662 63" style="fill:#81ca81;"/>
    <path clip-path="url(#p8fcf99ac77)" d="
M325.612 63
L339.562 63
L339.562 49.05
L325.612 49.05
L325.612 63" style="fill:#bbe4b4;"/>
    <path clip-path="url(#p8fcf99ac77)" d="
M339.562 63
L353.512 63
L353.512 49.05
L339.562 49.05
L339.562 63" style="fill:#e7f6e2;"/>
    <path clip-path="url(#p8fcf99ac77)" d="
M353.512 63
L367.462 63
L367.462 49.05
L353.512 49.05
L353.512 63" style="fill:#bbe4b4;"/>
    <path clip-path="url(#p8fcf99ac77)" d="
M367.462 63
L381.412 63
L381.412 49.05
L367.462 49.05
L367.462 63" style="fill:#97d492;"/>
    <path clip-path="url(#p8fcf99ac77)" d="
M381.412 63
L395.362 63
L395.362 49.05
L381.412 49.05
L381.412 63" style="fill:#a9dca3;"/>
    <path clip-path="url(#p8fcf99ac77)" d="
M395.362 63
L409.312 63
L409.312 49.05
L395.362 49.05
L395.362 63" style="fill:#daf0d4;"/>
    <path clip-path="url(#p8fcf99ac77)" d="
M409.312 63
L423.262 63
L423.262 49.05
L409.312 49.05
L409.312 63" style="fill:#bbe4b4;"/>
    <path clip-path="url(#p8fcf99ac77)" d="
M423.262 63
L437.212 63
L437.212 49.05
L423.262 49.05
L423.262 63" style="fill:#3ea75a;"/>
    <path clip-path="url(#p8fcf99ac77)" d="
M437.212 63
L451.162 63
L451.162 49.05
L437.212 49.05
L437.212 63" style="fill:#81ca81;"/>
    <path clip-path="url(#p8fcf99ac77)" d="
M451.162 63
L465.112 63
L465.112 49.05
L451.162 49.05
L451.162 63" style="fill:#bbe4b4;"/>
    <path clip-path="url(#p8fcf99ac77)" d="
M465.112 63
L479.062 63
L479.062 49.05
L465.112 49.05
L465.112 63" style="fill:#f7fcf5;"/>
    <path clip-path="url(#p8fcf99ac77)" d="
M479.062 63
L493.012 63
L493.012 49.05
L479.062 49.05
L479.062 63" style="fill:#f7fcf5;"/>
    <path clip-path="url(#p8fcf99ac77)" d="
M493.012 63
L506.962 63
L506.962 49.05
L493.012 49.05
L493.012 63" style="fill:#e7f6e2;"/>
    <path clip-path="url(#p8fcf99ac77)" d="
M506.962 63
L520.912 63
L520.912 49.05
L506.962 49.05
L506.962 63" style="fill:#97d492;"/>
    <path clip-path="url(#p8fcf99ac77)" d="
M520.912 63
L534.862 63
L534.862 49.05
L520.912 49.05
L520.912 63" style="fill:#3ea75a;"/>
    <path clip-path="url(#p8fcf99ac77)" d="
M534.862 63
L548.812 63
L548.812 49.05
L534.862 49.05
L534.862 63" style="fill:#e7f6e2;"/>
    <path clip-path="url(#p8fcf99ac77)" d="
M548.812 63
L562.762 63
L562.762 49.05
L548.812 49.05
L548.812 63" style="fill:#6bc072;"/>
    <path clip-path="url(#p8fcf99ac77)" d="
M562.762 63
L576.712 63
L576.712 49.05
L562.762 49.05
L562.762 63" style="fill:#daf0d4;"/>
    <path clip-path="url(#p8fcf99ac77)" d="
M576.712 63
L590.662 63
L590.662 49.05
L576.712 49.05
L576.712 63" style="fill:#e7f6e2;"/>
    <path clip-path="url(#p8fcf99ac77)" d="
M590.662 63
L604.612 63
L604.612 49.05
L590.662 49.05
L590.662 63" style="fill:#eff9ec;"/>
    <path clip-path="url(#p8fcf99ac77)" d="
M604.612 63
L618.562 63
L618.562 49.05
L604.612 49.05
L604.612 63" style="fill:#3ea75a;"/>
    <path clip-path="url(#p8fcf99ac77)" d="
M618.562 63
L632.512 63
L632.512 49.05
L618.562 49.05
L618.562 63" style="fill:#daf0d4;"/>
    <path clip-path="url(#p8fcf99ac77)" d="
M632.512 63
L646.462 63
L646.462 49.05
L632.512 49.05
L632.512 63" style="fill:#cbebc5;"/>
    <path clip-path="url(#p8fcf99ac77)" d="
M646.462 63
L660.412 63
L660.412 49.05
L646.462 49.05
L646.462 63" style="fill:#e7f6e2;"/>
    <path clip-path="url(#p8fcf99ac77)" d="
M660.412 63
L674.362 63
L674.362 49.05
L660.412 49.05
L660.412 63" style="fill:#00481d;"/>
    <path clip-path="url(#p8fcf99ac77)" d="
M674.362 63
L688.312 63
L688.312 49.05
L674.362 49.05
L674.362 63" style="fill:#a9dca3;"/>
    <path clip-path="url(#p8fcf99ac77)" d="
M688.312 63
L702.262 63
L702.262 49.05
L688.312 49.05
L688.312 63" style="fill:#a9dca3;"/>
    <path clip-path="url(#p8fcf99ac77)" d="
M702.262 63
L716.212 63
L716.212 49.05
L702.262 49.05
L702.262 63" style="fill:#f7fcf5;"/>
    <path clip-path="url(#p8fcf99ac77)" d="
M716.212 63
L730.162 63
L730.162 49.05
L716.212 49.05
L716.212 63" style="fill:#53b466;"/>
    <path clip-path="url(#p8fcf99ac77)" d="
M730.162 63
L744.112 63
L744.112 49.05
L730.162 49.05
L730.162 63" style="fill:#228a44;"/>
    <path clip-path="url(#p8fcf99ac77)" d="
M744.112 63
L758.062 63
L758.062 49.05
L744.112 49.05
L744.112 63" style="fill:#97d492;"/>
    <path clip-path="url(#p8fcf99ac77)" d="
M758.062 63
L772.012 63
L772.012 49.05
L758.062 49.05
L758.062 63" style="fill:#cbebc5;"/>
    <path clip-path="url(#p8fcf99ac77)" d="
M772.012 63
L785.962 63
L785.962 49.05
L772.012 49.05
L772.012 63" style="fill:#f7fcf5;"/>
    <path clip-path="url(#p8fcf99ac77)" d="
M785.962 63
L799.912 63
L799.912 49.05
L785.962 49.05
L785.962 63" style="fill:#3ea75a;"/>
    <path clip-path="url(#p8fcf99ac77)" d="
M799.912 63
L813.862 63
L813.862 49.05
L799.912 49.05
L799.912 63" style="fill:#f7fcf5;"/>
    <path clip-path="url(#p8fcf99ac77)" d="
M813.862 63
L827.812 63
L827.812 49.05
L813.862 49.05
L813.862 63" style="fill:#a9dca3;"/>
    <path clip-path="url(#p8fcf99ac77)" d="
M827.812 63
L841.762 63
L841.762 49.05
L827.812 49.05
L827.812 63" style="fill:#daf0d4;"/>
    <path clip-path="url(#p8fcf99ac77)" d="
M841.762 63
L855.712 63
L855.712 49.05
L841.762 49.05
L841.762 63" style="fill:#2f984f;"/>
    <path clip-path="url(#p8fcf99ac77)" d="
M855.712 63
L869.662 63
L869.662 49.05
L855.712 49.05
L855.712 63" style="fill:#f7fcf5;"/>
    <path clip-path="url(#p8fcf99ac77)" d="
M32.6617 49.05
L46.6117 49.05
L46.6117 35.1
L32.6617 35.1
L32.6617 49.05" style="fill:#53b466;"/>
    <path clip-path="url(#p8fcf99ac77)" d="
M46.6117 49.05
L60.5617 49.05
L60.5617 35.1
L46.6117 35.1
L46.6117 49.05" style="fill:#6bc072;"/>
    <path clip-path="url(#p8fcf99ac77)" d="
M60.5617 49.05
L74.5117 49.05
L74.5117 35.1
L60.5617 35.1
L60.5617 49.05" style="fill:#2f984f;"/>
    <path clip-path="url(#p8fcf99ac77)" d="
M74.5117 49.05
L88.4617 49.05
L88.4617 35.1
L74.5117 35.1
L74.5117 49.05" style="fill:#127c39;"/>
    <path clip-path="url(#p8fcf99ac77)" d="
M88.4617 49.05
L102.412 49.05
L102.412 35.1
L88.4617 35.1
L88.4617 49.05" style="fill:#81ca81;"/>
    <path clip-path="url(#p8fcf99ac77)" d="
M102.412 49.05
L116.362 49.05
L116.362 35.1
L102.412 35.1
L102.412 49.05" style="fill:#bbe4b4;"/>
    <path clip-path="url(#p8fcf99ac77)" d="
M116.362 49.05
L130.312 49.05
L130.312 35.1
L116.362 35.1
L116.362 49.05" style="fill:#bbe4b4;"/>
    <path clip-path="url(#p8fcf99ac77)" d="
M130.312 49.05
L144.262 49.05
L144.262 35.1
L130.312 35.1
L130.312 49.05" style="fill:#cbebc5;"/>
    <path clip-path="url(#p8fcf99ac77)" d="
M144.262 49.05
L158.212 49.05
L158.212 35.1
L144.262 35.1
L144.262 49.05" style="fill:#53b466;"/>
    <path clip-path="url(#p8fcf99ac77)" d="
M158.212 49.05
L172.162 49.05
L172.162 35.1
L158.212 35.1
L158.212 49.05" style="fill:#81ca81;"/>
    <path clip-path="url(#p8fcf99ac77)" d="
M172.162 49.05
L186.112 49.05
L186.112 35.1
L172.162 35.1
L172.162 49.05" style="fill:#bbe4b4;"/>
    <path clip-path="url(#p8fcf99ac77)" d="
M186.112 49.05
L200.062 49.05
L200.062 35.1
L186.112 35.1
L186.112 49.05" style="fill:#81ca81;"/>
    <path clip-path="url(#p8fcf99ac77)" d="
M200.062 49.05
L214.012 49.05
L214.012 35.1
L200.062 35.1
L200.062 49.05" style="fill:#127c39;"/>
    <path clip-path="url(#p8fcf99ac77)" d="
M214.012 49.05
L227.962 49.05
L227.962 35.1
L214.012 35.1
L214.012 49.05" style="fill:#97d492;"/>
    <path clip-path="url(#p8fcf99ac77)" d="
M227.962 49.05
L241.912 49.05
L241.912 35.1
L227.962 35.1
L227.962 49.05" style="fill:#53b466;"/>
    <path clip-path="url(#p8fcf99ac77)" d="
M241.912 49.05
L255.862 49.05
L255.862 35.1
L241.912 35.1
L241.912 49.05" style="fill:#a9dca3;"/>
    <path clip-path="url(#p8fcf99ac77)" d="
M255.862 49.05
L269.812 49.05
L269.812 35.1
L255.862 35.1
L255.862 49.05" style="fill:#6bc072;"/>
    <path clip-path="url(#p8fcf99ac77)" d="
M269.812 49.05
L283.762 49.05
L283.762 35.1
L269.812 35.1
L269.812 49.05" style="fill:#005b25;"/>
    <path clip-path="url(#p8fcf99ac77)" d="
M283.762 49.05
L297.712 49.05
L297.712 35.1
L283.762 35.1
L283.762 49.05" style="fill:#3ea75a;"/>
    <path clip-path="url(#p8fcf99ac77)" d="
M297.712 49.05
L311.662 49.05
L311.662 35.1
L297.712 35.1
L297.712 49.05" style="fill:#6bc072;"/>
    <path clip-path="url(#p8fcf99ac77)" d="
M311.662 49.05
L325.612 49.05
L325.612 35.1
L311.662 35.1
L311.662 49.05" style="fill:#bbe4b4;"/>
    <path clip-path="url(#p8fcf99ac77)" d="
M325.612 49.05
L339.562 49.05
L339.562 35.1
L325.612 35.1
L325.612 49.05" style="fill:#daf0d4;"/>
    <path clip-path="url(#p8fcf99ac77)" d="
M339.562 49.05
L353.512 49.05
L353.512 35.1
L339.562 35.1
L339.562 49.05" style="fill:#cbebc5;"/>
    <path clip-path="url(#p8fcf99ac77)" d="
M353.512 49.05
L367.462 49.05
L367.462 35.1
L353.512 35.1
L353.512 49.05" style="fill:#3ea75a;"/>
    <path clip-path="url(#p8fcf99ac77)" d="
M367.462 49.05
L381.412 49.05
L381.412 35.1
L367.462 35.1
L367.462 49.05" style="fill:#cbebc5;"/>
    <path clip-path="url(#p8fcf99ac77)" d="
M381.412 49.05
L395.362 49.05
L395.362 35.1
L381.412 35.1
L381.412 49.05" style="fill:#81ca81;"/>
    <path clip-path="url(#p8fcf99ac77)" d="
M395.362 49.05
L409.312 49.05
L409.312 35.1
L395.362 35.1
L395.362 49.05" style="fill:#cbebc5;"/>
    <path clip-path="url(#p8fcf99ac77)" d="
M409.312 49.05
L423.262 49.05
L423.262 35.1
L409.312 35.1
L409.312 49.05" style="fill:#e7f6e2;"/>
    <path clip-path="url(#p8fcf99ac77)" d="
M423.262 49.05
L437.212 49.05
L437.212 35.1
L423.262 35.1
L423.262 49.05" style="fill:#3ea75a;"/>
    <path clip-path="url(#p8fcf99ac77)" d="
M437.212 49.05
L451.162 49.05
L451.162 35.1
L437.212 35.1
L437.212 49.05" style="fill:#e7f6e2;"/>
    <path clip-path="url(#p8fcf99ac77)" d="
M451.162 49.05
L465.112 49.05
L465.112 35.1
L451.162 35.1
L451.162 49.05" style="fill:#cbebc5;"/>
    <path clip-path="url(#p8fcf99ac77)" d="
M465.112 49.05
L479.062 49.05
L479.062 35.1
L465.112 35.1
L465.112 49.05" style="fill:#f7fcf5;"/>
    <path clip-path="url(#p8fcf99ac77)" d="
M479.062 49.05
L493.012 49.05
L493.012 35.1
L479.062 35.1
L479.062 49.05" style="fill:#e7f6e2;"/>
    <path clip-path="url(#p8fcf99ac77)" d="
M493.012 49.05
L506.962 49.05
L506.962 35.1
L493.012 35.1
L493.012 49.05" style="fill:#eff9ec;"/>
    <path clip-path="url(#p8fcf99ac77)" d="
M506.962 49.05
L520.912 49.05
L520.912 35.1
L506.962 35.1
L506.962 49.05" style="fill:#97d492;"/>
    <path clip-path="url(#p8fcf99ac77)" d="
M520.912 49.05
L534.862 49.05
L534.862 35.1
L520.912 35.1
L520.912 49.05" style="fill:#e7f6e2;"/>
    <path clip-path="url(#p8fcf99ac77)" d="
M534.862 49.05
L548.812 49.05
L548.812 35.1
L534.862 35.1
L534.862 49.05" style="fill:#eff9ec;"/>
    <path clip-path="url(#p8fcf99ac77)" d="
M548.812 49.05
L562.762 49.05
L562.762 35.1
L548.812 35.1
L548.812 49.05" style="fill:#e7f6e2;"/>
    <path clip-path="url(#p8fcf99ac77)" d="
M562.762 49.05
L576.712 49.05
L576.712 35.1
L562.762 35.1
L562.762 49.05" style="fill:#97d492;"/>
    <path clip-path="url(#p8fcf99ac77)" d="
M576.712 49.05
L590.662 49.05
L590.662 35.1
L576.712 35.1
L576.712 49.05" style="fill:#eff9ec;"/>
    <path clip-path="url(#p8fcf99ac77)" d="
M590.662 49.05
L604.612 49.05
L604.612 35.1
L590.662 35.1
L590.662 49.05" style="fill:#e7f6e2;"/>
    <path clip-path="url(#p8fcf99ac77)" d="
M604.612 49.05
L618.562 49.05
L618.562 35.1
L604.612 35.1
L604.612 49.05" style="fill:#3ea75a;"/>
    <path clip-path="url(#p8fcf99ac77)" d="
M618.562 49.05
L632.512 49.05
L632.512 35.1
L618.562 35.1
L618.562 49.05" style="fill:#127c39;"/>
    <path clip-path="url(#p8fcf99ac77)" d="
M632.512 49.05
L646.462 49.05
L646.462 35.1
L632.512 35.1
L632.512 49.05" style="fill:#daf0d4;"/>
    <path clip-path="url(#p8fcf99ac77)" d="
M646.462 49.05
L660.412 49.05
L660.412 35.1
L646.462 35.1
L646.462 49.05" style="fill:#eff9ec;"/>
    <path clip-path="url(#p8fcf99ac77)" d="
M660.412 49.05
L674.362 49.05
L674.362 35.1
L660.412 35.1
L660.412 49.05" style="fill:#016e2d;"/>
    <path clip-path="url(#p8fcf99ac77)" d="
M674.362 49.05
L688.312 49.05
L688.312 35.1
L674.362 35.1
L674.362 49.05" style="fill:#cbebc5;"/>
    <path clip-path="url(#p8fcf99ac77)" d="
M688.312 49.05
L702.262 49.05
L702.262 35.1
L688.312 35.1
L688.312 49.05" style="fill:#e7f6e2;"/>
    <path clip-path="url(#p8fcf99ac77)" d="
M702.262 49.05
L716.212 49.05
L716.212 35.1
L702.262 35.1
L702.262 49.05" style="fill:#eff9ec;"/>
    <path clip-path="url(#p8fcf99ac77)" d="
M716.212 49.05
L730.162 49.05
L730.162 35.1
L716.212 35.1
L716.212 49.05" style="fill:#a9dca3;"/>
    <path clip-path="url(#p8fcf99ac77)" d="
M730.162 49.05
L744.112 49.05
L744.112 35.1
L730.162 35.1
L730.162 49.05" style="fill:#2f984f;"/>
    <path clip-path="url(#p8fcf99ac77)" d="
M744.112 49.05
L758.062 49.05
L758.062 35.1
L744.112 35.1
L744.112 49.05" style="fill:#a9dca3;"/>
    <path clip-path="url(#p8fcf99ac77)" d="
M758.062 49.05
L772.012 49.05
L772.012 35.1
L758.062 35.1
L758.062 49.05" style="fill:#cbebc5;"/>
    <path clip-path="url(#p8fcf99ac77)" d="
M772.012 49.05
L785.962 49.05
L785.962 35.1
L772.012 35.1
L772.012 49.05" style="fill:#e7f6e2;"/>
    <path clip-path="url(#p8fcf99ac77)" d="
M785.962 49.05
L799.912 49.05
L799.912 35.1
L785.962 35.1
L785.962 49.05" style="fill:#016e2d;"/>
    <path clip-path="url(#p8fcf99ac77)" d="
M799.912 49.05
L813.862 49.05
L813.862 35.1
L799.912 35.1
L799.912 49.05" style="fill:#53b466;"/>
    <path clip-path="url(#p8fcf99ac77)" d="
M813.862 49.05
L827.812 49.05
L827.812 35.1
L813.862 35.1
L813.862 49.05" style="fill:#f7fcf5;"/>
    <path clip-path="url(#p8fcf99ac77)" d="
M827.812 49.05
L841.762 49.05
L841.762 35.1
L827.812 35.1
L827.812 49.05" style="fill:#cbebc5;"/>
    <path clip-path="url(#p8fcf99ac77)" d="
M841.762 49.05
L855.712 49.05
L855.712 35.1
L841.762 35.1
L841.762 49.05" style="fill:#97d492;"/>
    <path clip-path="url(#p8fcf99ac77)" d="
M855.712 49.05
L869.662 49.05
L869.662 35.1
L855.712 35.1
L855.712 49.05" style="fill:#f7fcf5;"/>
    <path clip-path="url(#p8fcf99ac77)" d="
M32.6617 35.1
L46.6117 35.1
L46.6117 21.15
L32.6617 21.15
L32.6617 35.1" style="fill:#a9dca3;"/>
    <path clip-path="url(#p8fcf99ac77)" d="
M46.6117 35.1
L60.5617 35.1
L60.5617 21.15
L46.6117 21.15
L46.6117 35.1" style="fill:#97d492;"/>
    <path clip-path="url(#p8fcf99ac77)" d="
M60.5617 35.1
L74.5117 35.1
L74.5117 21.15
L60.5617 21.15
L60.5617 35.1" style="fill:#a9dca3;"/>
    <path clip-path="url(#p8fcf99ac77)" d="
M74.5117 35.1
L88.4617 35.1
L88.4617 21.15
L74.5117 21.15
L74.5117 35.1" style="fill:#228a44;"/>
    <path clip-path="url(#p8fcf99ac77)" d="
M88.4617 35.1
L102.412 35.1
L102.412 21.15
L88.4617 21.15
L88.4617 35.1" style="fill:#00441b;"/>
    <path clip-path="url(#p8fcf99ac77)" d="
M102.412 35.1
L116.362 35.1
L116.362 21.15
L102.412 21.15
L102.412 35.1" style="fill:#6bc072;"/>
    <path clip-path="url(#p8fcf99ac77)" d="
M116.362 35.1
L130.312 35.1
L130.312 21.15
L116.362 21.15
L116.362 35.1" style="fill:#6bc072;"/>
    <path clip-path="url(#p8fcf99ac77)" d="
M130.312 35.1
L144.262 35.1
L144.262 21.15
L130.312 21.15
L130.312 35.1" style="fill:#97d492;"/>
    <path clip-path="url(#p8fcf99ac77)" d="
M144.262 35.1
L158.212 35.1
L158.212 21.15
L144.262 21.15
L144.262 35.1" style="fill:#228a44;"/>
    <path clip-path="url(#p8fcf99ac77)" d="
M158.212 35.1
L172.162 35.1
L172.162 21.15
L158.212 21.15
L158.212 35.1" style="fill:#81ca81;"/>
    <path clip-path="url(#p8fcf99ac77)" d="
M172.162 35.1
L186.112 35.1
L186.112 21.15
L172.162 21.15
L172.162 35.1" style="fill:#53b466;"/>
    <path clip-path="url(#p8fcf99ac77)" d="
M186.112 35.1
L200.062 35.1
L200.062 21.15
L186.112 21.15
L186.112 35.1" style="fill:#eff9ec;"/>
    <path clip-path="url(#p8fcf99ac77)" d="
M200.062 35.1
L214.012 35.1
L214.012 21.15
L200.062 21.15
L200.062 35.1" style="fill:#cbebc5;"/>
    <path clip-path="url(#p8fcf99ac77)" d="
M214.012 35.1
L227.962 35.1
L227.962 21.15
L214.012 21.15
L214.012 35.1" style="fill:#cbebc5;"/>
    <path clip-path="url(#p8fcf99ac77)" d="
M227.962 35.1
L241.912 35.1
L241.912 21.15
L227.962 21.15
L227.962 35.1" style="fill:#bbe4b4;"/>
    <path clip-path="url(#p8fcf99ac77)" d="
M241.912 35.1
L255.862 35.1
L255.862 21.15
L241.912 21.15
L241.912 35.1" style="fill:#a9dca3;"/>
    <path clip-path="url(#p8fcf99ac77)" d="
M255.862 35.1
L269.812 35.1
L269.812 21.15
L255.862 21.15
L255.862 35.1" style="fill:#6bc072;"/>
    <path clip-path="url(#p8fcf99ac77)" d="
M269.812 35.1
L283.762 35.1
L283.762 21.15
L269.812 21.15
L269.812 35.1" style="fill:#bbe4b4;"/>
    <path clip-path="url(#p8fcf99ac77)" d="
M283.762 35.1
L297.712 35.1
L297.712 21.15
L283.762 21.15
L283.762 35.1" style="fill:#97d492;"/>
    <path clip-path="url(#p8fcf99ac77)" d="
M297.712 35.1
L311.662 35.1
L311.662 21.15
L297.712 21.15
L297.712 35.1" style="fill:#00481d;"/>
    <path clip-path="url(#p8fcf99ac77)" d="
M311.662 35.1
L325.612 35.1
L325.612 21.15
L311.662 21.15
L311.662 35.1" style="fill:#bbe4b4;"/>
    <path clip-path="url(#p8fcf99ac77)" d="
M325.612 35.1
L339.562 35.1
L339.562 21.15
L325.612 21.15
L325.612 35.1" style="fill:#97d492;"/>
    <path clip-path="url(#p8fcf99ac77)" d="
M339.562 35.1
L353.512 35.1
L353.512 21.15
L339.562 21.15
L339.562 35.1" style="fill:#daf0d4;"/>
    <path clip-path="url(#p8fcf99ac77)" d="
M353.512 35.1
L367.462 35.1
L367.462 21.15
L353.512 21.15
L353.512 35.1" style="fill:#daf0d4;"/>
    <path clip-path="url(#p8fcf99ac77)" d="
M367.462 35.1
L381.412 35.1
L381.412 21.15
L367.462 21.15
L367.462 35.1" style="fill:#81ca81;"/>
    <path clip-path="url(#p8fcf99ac77)" d="
M381.412 35.1
L395.362 35.1
L395.362 21.15
L381.412 21.15
L381.412 35.1" style="fill:#bbe4b4;"/>
    <path clip-path="url(#p8fcf99ac77)" d="
M395.362 35.1
L409.312 35.1
L409.312 21.15
L395.362 21.15
L395.362 35.1" style="fill:#97d492;"/>
    <path clip-path="url(#p8fcf99ac77)" d="
M409.312 35.1
L423.262 35.1
L423.262 21.15
L409.312 21.15
L409.312 35.1" style="fill:#005b25;"/>
    <path clip-path="url(#p8fcf99ac77)" d="
M423.262 35.1
L437.212 35.1
L437.212 21.15
L423.262 21.15
L423.262 35.1" style="fill:#6bc072;"/>
    <path clip-path="url(#p8fcf99ac77)" d="
M437.212 35.1
L451.162 35.1
L451.162 21.15
L437.212 21.15
L437.212 35.1" style="fill:#eff9ec;"/>
    <path clip-path="url(#p8fcf99ac77)" d="
M451.162 35.1
L465.112 35.1
L465.112 21.15
L451.162 21.15
L451.162 35.1" style="fill:#97d492;"/>
    <path clip-path="url(#p8fcf99ac77)" d="
M465.112 35.1
L479.062 35.1
L479.062 21.15
L465.112 21.15
L465.112 35.1" style="fill:#f7fcf5;"/>
    <path clip-path="url(#p8fcf99ac77)" d="
M479.062 35.1
L493.012 35.1
L493.012 21.15
L479.062 21.15
L479.062 35.1" style="fill:#f7fcf5;"/>
    <path clip-path="url(#p8fcf99ac77)" d="
M493.012 35.1
L506.962 35.1
L506.962 21.15
L493.012 21.15
L493.012 35.1" style="fill:#daf0d4;"/>
    <path clip-path="url(#p8fcf99ac77)" d="
M506.962 35.1
L520.912 35.1
L520.912 21.15
L506.962 21.15
L506.962 35.1" style="fill:#bbe4b4;"/>
    <path clip-path="url(#p8fcf99ac77)" d="
M520.912 35.1
L534.862 35.1
L534.862 21.15
L520.912 21.15
L520.912 35.1" style="fill:#f7fcf5;"/>
    <path clip-path="url(#p8fcf99ac77)" d="
M534.862 35.1
L548.812 35.1
L548.812 21.15
L534.862 21.15
L534.862 35.1" style="fill:#daf0d4;"/>
    <path clip-path="url(#p8fcf99ac77)" d="
M548.812 35.1
L562.762 35.1
L562.762 21.15
L548.812 21.15
L548.812 35.1" style="fill:#a9dca3;"/>
    <path clip-path="url(#p8fcf99ac77)" d="
M562.762 35.1
L576.712 35.1
L576.712 21.15
L562.762 21.15
L562.762 35.1" style="fill:#cbebc5;"/>
    <path clip-path="url(#p8fcf99ac77)" d="
M576.712 35.1
L590.662 35.1
L590.662 21.15
L576.712 21.15
L576.712 35.1" style="fill:#f7fcf5;"/>
    <path clip-path="url(#p8fcf99ac77)" d="
M590.662 35.1
L604.612 35.1
L604.612 21.15
L590.662 21.15
L590.662 35.1" style="fill:#e7f6e2;"/>
    <path clip-path="url(#p8fcf99ac77)" d="
M604.612 35.1
L618.562 35.1
L618.562 21.15
L604.612 21.15
L604.612 35.1" style="fill:#e7f6e2;"/>
    <path clip-path="url(#p8fcf99ac77)" d="
M618.562 35.1
L632.512 35.1
L632.512 21.15
L618.562 21.15
L618.562 35.1" style="fill:#81ca81;"/>
    <path clip-path="url(#p8fcf99ac77)" d="
M632.512 35.1
L646.462 35.1
L646.462 21.15
L632.512 21.15
L632.512 35.1" style="fill:#eff9ec;"/>
    <path clip-path="url(#p8fcf99ac77)" d="
M646.462 35.1
L660.412 35.1
L660.412 21.15
L646.462 21.15
L646.462 35.1" style="fill:#bbe4b4;"/>
    <path clip-path="url(#p8fcf99ac77)" d="
M660.412 35.1
L674.362 35.1
L674.362 21.15
L660.412 21.15
L660.412 35.1" style="fill:#81ca81;"/>
    <path clip-path="url(#p8fcf99ac77)" d="
M674.362 35.1
L688.312 35.1
L688.312 21.15
L674.362 21.15
L674.362 35.1" style="fill:#a9dca3;"/>
    <path clip-path="url(#p8fcf99ac77)" d="
M688.312 35.1
L702.262 35.1
L702.262 21.15
L688.312 21.15
L688.312 35.1" style="fill:#81ca81;"/>
    <path clip-path="url(#p8fcf99ac77)" d="
M702.262 35.1
L716.212 35.1
L716.212 21.15
L702.262 21.15
L702.262 35.1" style="fill:#81ca81;"/>
    <path clip-path="url(#p8fcf99ac77)" d="
M716.212 35.1
L730.162 35.1
L730.162 21.15
L716.212 21.15
L716.212 35.1" style="fill:#daf0d4;"/>
    <path clip-path="url(#p8fcf99ac77)" d="
M730.162 35.1
L744.112 35.1
L744.112 21.15
L730.162 21.15
L730.162 35.1" style="fill:#228a44;"/>
    <path clip-path="url(#p8fcf99ac77)" d="
M744.112 35.1
L758.062 35.1
L758.062 21.15
L744.112 21.15
L744.112 35.1" style="fill:#cbebc5;"/>
    <path clip-path="url(#p8fcf99ac77)" d="
M758.062 35.1
L772.012 35.1
L772.012 21.15
L758.062 21.15
L758.062 35.1" style="fill:#cbebc5;"/>
    <path clip-path="url(#p8fcf99ac77)" d="
M772.012 35.1
L785.962 35.1
L785.962 21.15
L772.012 21.15
L772.012 35.1" style="fill:#97d492;"/>
    <path clip-path="url(#p8fcf99ac77)" d="
M785.962 35.1
L799.912 35.1
L799.912 21.15
L785.962 21.15
L785.962 35.1" style="fill:#81ca81;"/>
    <path clip-path="url(#p8fcf99ac77)" d="
M799.912 35.1
L813.862 35.1
L813.862 21.15
L799.912 21.15
L799.912 35.1" style="fill:#cbebc5;"/>
    <path clip-path="url(#p8fcf99ac77)" d="
M813.862 35.1
L827.812 35.1
L827.812 21.15
L813.862 21.15
L813.862 35.1" style="fill:#cbebc5;"/>
    <path clip-path="url(#p8fcf99ac77)" d="
M827.812 35.1
L841.762 35.1
L841.762 21.15
L827.812 21.15
L827.812 35.1" style="fill:#81ca81;"/>
    <path clip-path="url(#p8fcf99ac77)" d="
M841.762 35.1
L855.712 35.1
L855.712 21.15
L841.762 21.15
L841.762 35.1" style="fill:#e7f6e2;"/>
    <path clip-path="url(#p8fcf99ac77)" d="
M855.712 35.1
L869.662 35.1
L869.662 21.15
L855.712 21.15
L855.712 35.1" style="fill:#f7fcf5;"/>
    <path clip-path="url(#p8fcf99ac77)" d="
M32.6617 21.15
L46.6117 21.15
L46.6117 7.2
L32.6617 7.2
L32.6617 21.15" style="fill:#cbebc5;"/>
    <path clip-path="url(#p8fcf99ac77)" d="
M46.6117 21.15
L60.5617 21.15
L60.5617 7.2
L46.6117 7.2
L46.6117 21.15" style="fill:#6bc072;"/>
    <path clip-path="url(#p8fcf99ac77)" d="
M60.5617 21.15
L74.5117 21.15
L74.5117 7.2
L60.5617 7.2
L60.5617 21.15" style="fill:#a9dca3;"/>
    <path clip-path="url(#p8fcf99ac77)" d="
M74.5117 21.15
L88.4617 21.15
L88.4617 7.2
L74.5117 7.2
L74.5117 21.15" style="fill:#cbebc5;"/>
    <path clip-path="url(#p8fcf99ac77)" d="
M88.4617 21.15
L102.412 21.15
L102.412 7.2
L88.4617 7.2
L88.4617 21.15" style="fill:#cbebc5;"/>
    <path clip-path="url(#p8fcf99ac77)" d="
M102.412 21.15
L116.362 21.15
L116.362 7.2
L102.412 7.2
L102.412 21.15" style="fill:#3ea75a;"/>
    <path clip-path="url(#p8fcf99ac77)" d="
M116.362 21.15
L130.312 21.15
L130.312 7.2
L116.362 7.2
L116.362 21.15" style="fill:#53b466;"/>
    <path clip-path="url(#p8fcf99ac77)" d="
M130.312 21.15
L144.262 21.15
L144.262 7.2
L130.312 7.2
L130.312 21.15" style="fill:#bbe4b4;"/>
    <path clip-path="url(#p8fcf99ac77)" d="
M144.262 21.15
L158.212 21.15
L158.212 7.2
L144.262 7.2
L144.262 21.15" style="fill:#eff9ec;"/>
    <path clip-path="url(#p8fcf99ac77)" d="
M158.212 21.15
L172.162 21.15
L172.162 7.2
L158.212 7.2
L158.212 21.15" style="fill:#eff9ec;"/>
    <path clip-path="url(#p8fcf99ac77)" d="
M172.162 21.15
L186.112 21.15
L186.112 7.2
L172.162 7.2
L172.162 21.15" style="fill:#cbebc5;"/>
    <path clip-path="url(#p8fcf99ac77)" d="
M186.112 21.15
L200.062 21.15
L200.062 7.2
L186.112 7.2
L186.112 21.15" style="fill:#6bc072;"/>
    <path clip-path="url(#p8fcf99ac77)" d="
M200.062 21.15
L214.012 21.15
L214.012 7.2
L200.062 7.2
L200.062 21.15" style="fill:#daf0d4;"/>
    <path clip-path="url(#p8fcf99ac77)" d="
M214.012 21.15
L227.962 21.15
L227.962 7.2
L214.012 7.2
L214.012 21.15" style="fill:#eff9ec;"/>
    <path clip-path="url(#p8fcf99ac77)" d="
M227.962 21.15
L241.912 21.15
L241.912 7.2
L227.962 7.2
L227.962 21.15" style="fill:#eff9ec;"/>
    <path clip-path="url(#p8fcf99ac77)" d="
M241.912 21.15
L255.862 21.15
L255.862 7.2
L241.912 7.2
L241.912 21.15" style="fill:#81ca81;"/>
    <path clip-path="url(#p8fcf99ac77)" d="
M255.862 21.15
L269.812 21.15
L269.812 7.2
L255.862 7.2
L255.862 21.15" style="fill:#2f984f;"/>
    <path clip-path="url(#p8fcf99ac77)" d="
M269.812 21.15
L283.762 21.15
L283.762 7.2
L269.812 7.2
L269.812 21.15" style="fill:#cbebc5;"/>
    <path clip-path="url(#p8fcf99ac77)" d="
M283.762 21.15
L297.712 21.15
L297.712 7.2
L283.762 7.2
L283.762 21.15" style="fill:#e7f6e2;"/>
    <path clip-path="url(#p8fcf99ac77)" d="
M297.712 21.15
L311.662 21.15
L311.662 7.2
L297.712 7.2
L297.712 21.15" style="fill:#00441b;"/>
    <path clip-path="url(#p8fcf99ac77)" d="
M311.662 21.15
L325.612 21.15
L325.612 7.2
L311.662 7.2
L311.662 21.15" style="fill:#eff9ec;"/>
    <path clip-path="url(#p8fcf99ac77)" d="
M325.612 21.15
L339.562 21.15
L339.562 7.2
L325.612 7.2
L325.612 21.15" style="fill:#daf0d4;"/>
    <path clip-path="url(#p8fcf99ac77)" d="
M339.562 21.15
L353.512 21.15
L353.512 7.2
L339.562 7.2
L339.562 21.15" style="fill:#eff9ec;"/>
    <path clip-path="url(#p8fcf99ac77)" d="
M353.512 21.15
L367.462 21.15
L367.462 7.2
L353.512 7.2
L353.512 21.15" style="fill:#81ca81;"/>
    <path clip-path="url(#p8fcf99ac77)" d="
M367.462 21.15
L381.412 21.15
L381.412 7.2
L367.462 7.2
L367.462 21.15" style="fill:#53b466;"/>
    <path clip-path="url(#p8fcf99ac77)" d="
M381.412 21.15
L395.362 21.15
L395.362 7.2
L381.412 7.2
L381.412 21.15" style="fill:#a9dca3;"/>
    <path clip-path="url(#p8fcf99ac77)" d="
M395.362 21.15
L409.312 21.15
L409.312 7.2
L395.362 7.2
L395.362 21.15" style="fill:#f7fcf5;"/>
    <path clip-path="url(#p8fcf99ac77)" d="
M409.312 21.15
L423.262 21.15
L423.262 7.2
L409.312 7.2
L409.312 21.15" style="fill:#016e2d;"/>
    <path clip-path="url(#p8fcf99ac77)" d="
M423.262 21.15
L437.212 21.15
L437.212 7.2
L423.262 7.2
L423.262 21.15" style="fill:#228a44;"/>
    <path clip-path="url(#p8fcf99ac77)" d="
M437.212 21.15
L451.162 21.15
L451.162 7.2
L437.212 7.2
L437.212 21.15" style="fill:#e7f6e2;"/>
    <path clip-path="url(#p8fcf99ac77)" d="
M451.162 21.15
L465.112 21.15
L465.112 7.2
L451.162 7.2
L451.162 21.15" style="fill:#cbebc5;"/>
    <path clip-path="url(#p8fcf99ac77)" d="
M465.112 21.15
L479.062 21.15
L479.062 7.2
L465.112 7.2
L465.112 21.15" style="fill:#eff9ec;"/>
    <path clip-path="url(#p8fcf99ac77)" d="
M479.062 21.15
L493.012 21.15
L493.012 7.2
L479.062 7.2
L479.062 21.15" style="fill:#daf0d4;"/>
    <path clip-path="url(#p8fcf99ac77)" d="
M493.012 21.15
L506.962 21.15
L506.962 7.2
L493.012 7.2
L493.012 21.15" style="fill:#eff9ec;"/>
    <path clip-path="url(#p8fcf99ac77)" d="
M506.962 21.15
L520.912 21.15
L520.912 7.2
L506.962 7.2
L506.962 21.15" style="fill:#97d492;"/>
    <path clip-path="url(#p8fcf99ac77)" d="
M520.912 21.15
L534.862 21.15
L534.862 7.2
L520.912 7.2
L520.912 21.15" style="fill:#bbe4b4;"/>
    <path clip-path="url(#p8fcf99ac77)" d="
M534.862 21.15
L548.812 21.15
L548.812 7.2
L534.862 7.2
L534.862 21.15" style="fill:#a9dca3;"/>
    <path clip-path="url(#p8fcf99ac77)" d="
M548.812 21.15
L562.762 21.15
L562.762 7.2
L548.812 7.2
L548.812 21.15" style="fill:#e7f6e2;"/>
    <path clip-path="url(#p8fcf99ac77)" d="
M562.762 21.15
L576.712 21.15
L576.712 7.2
L562.762 7.2
L562.762 21.15" style="fill:#f7fcf5;"/>
    <path clip-path="url(#p8fcf99ac77)" d="
M576.712 21.15
L590.662 21.15
L590.662 7.2
L576.712 7.2
L576.712 21.15" style="fill:#f7fcf5;"/>
    <path clip-path="url(#p8fcf99ac77)" d="
M590.662 21.15
L604.612 21.15
L604.612 7.2
L590.662 7.2
L590.662 21.15" style="fill:#cbebc5;"/>
    <path clip-path="url(#p8fcf99ac77)" d="
M604.612 21.15
L618.562 21.15
L618.562 7.2
L604.612 7.2
L604.612 21.15" style="fill:#a9dca3;"/>
    <path clip-path="url(#p8fcf99ac77)" d="
M618.562 21.15
L632.512 21.15
L632.512 7.2
L618.562 7.2
L618.562 21.15" style="fill:#e7f6e2;"/>
    <path clip-path="url(#p8fcf99ac77)" d="
M632.512 21.15
L646.462 21.15
L646.462 7.2
L632.512 7.2
L632.512 21.15" style="fill:#6bc072;"/>
    <path clip-path="url(#p8fcf99ac77)" d="
M646.462 21.15
L660.412 21.15
L660.412 7.2
L646.462 7.2
L646.462 21.15" style="fill:#e7f6e2;"/>
    <path clip-path="url(#p8fcf99ac77)" d="
M660.412 21.15
L674.362 21.15
L674.362 7.2
L660.412 7.2
L660.412 21.15" style="fill:#eff9ec;"/>
    <path clip-path="url(#p8fcf99ac77)" d="
M674.362 21.15
L688.312 21.15
L688.312 7.2
L674.362 7.2
L674.362 21.15" style="fill:#81ca81;"/>
    <path clip-path="url(#p8fcf99ac77)" d="
M688.312 21.15
L702.262 21.15
L702.262 7.2
L688.312 7.2
L688.312 21.15" style="fill:#53b466;"/>
    <path clip-path="url(#p8fcf99ac77)" d="
M702.262 21.15
L716.212 21.15
L716.212 7.2
L702.262 7.2
L702.262 21.15" style="fill:#e7f6e2;"/>
    <path clip-path="url(#p8fcf99ac77)" d="
M716.212 21.15
L730.162 21.15
L730.162 7.2
L716.212 7.2
L716.212 21.15" style="fill:#eff9ec;"/>
    <path clip-path="url(#p8fcf99ac77)" d="
M730.162 21.15
L744.112 21.15
L744.112 7.2
L730.162 7.2
L730.162 21.15" style="fill:#e7f6e2;"/>
    <path clip-path="url(#p8fcf99ac77)" d="
M744.112 21.15
L758.062 21.15
L758.062 7.2
L744.112 7.2
L744.112 21.15" style="fill:#f7fcf5;"/>
    <path clip-path="url(#p8fcf99ac77)" d="
M758.062 21.15
L772.012 21.15
L772.012 7.2
L758.062 7.2
L758.062 21.15" style="fill:#f7fcf5;"/>
    <path clip-path="url(#p8fcf99ac77)" d="
M772.012 21.15
L785.962 21.15
L785.962 7.2
L772.012 7.2
L772.012 21.15" style="fill:#eff9ec;"/>
    <path clip-path="url(#p8fcf99ac77)" d="
M785.962 21.15
L799.912 21.15
L799.912 7.2
L785.962 7.2
L785.962 21.15" style="fill:#6bc072;"/>
    <path clip-path="url(#p8fcf99ac77)" d="
M799.912 21.15
L813.862 21.15
L813.862 7.2
L799.912 7.2
L799.912 21.15" style="fill:#bbe4b4;"/>
    <path clip-path="url(#p8fcf99ac77)" d="
M813.862 21.15
L827.812 21.15
L827.812 7.2
L813.862 7.2
L813.862 21.15" style="fill:#e7f6e2;"/>
    <path clip-path="url(#p8fcf99ac77)" d="
M827.812 21.15
L841.762 21.15
L841.762 7.2
L827.812 7.2
L827.812 21.15" style="fill:#e7f6e2;"/>
    <path clip-path="url(#p8fcf99ac77)" d="
M841.762 21.15
L855.712 21.15
L855.712 7.2
L841.762 7.2
L841.762 21.15" style="fill:#f7fcf5;"/>
    <path clip-path="url(#p8fcf99ac77)" d="
M855.712 21.15
L869.662 21.15
L869.662 7.2
L855.712 7.2
L855.712 21.15" style="fill:#f7fcf5;"/>
   </g>
   <g id="patch_3">
    <path d="
M32.6617 7.2
L869.662 7.2" style="fill:none;stroke:#000000;stroke-linecap:square;stroke-linejoin:miter;"/>
   </g>
   <g id="patch_4">
    <path d="
M869.662 104.85
L869.662 7.2" style="fill:none;stroke:#000000;stroke-linecap:square;stroke-linejoin:miter;"/>
   </g>
   <g id="patch_5">
    <path d="
M32.6617 104.85
L869.662 104.85" style="fill:none;stroke:#000000;stroke-linecap:square;stroke-linejoin:miter;"/>
   </g>
   <g id="patch_6">
    <path d="
M32.6617 104.85
L32.6617 7.2" style="fill:none;stroke:#000000;stroke-linecap:square;stroke-linejoin:miter;"/>
   </g>
   <g id="matplotlib.axis_1">
    <g id="xtick_1">
     <g id="line2d_1">
      <defs>
       <path d="
M0 0
L0 -4" id="m93b0483c22" style="stroke:#000000;stroke-width:0.5;"/>
      </defs>
      <g>
       <use style="stroke:#000000;stroke-width:0.5;" x="81.486724375" xlink:href="#m93b0483c22" y="104.85"/>
      </g>
     </g>
     <g id="line2d_2">
      <defs>
       <path d="
M0 0
L0 4" id="m741efc42ff" style="stroke:#000000;stroke-width:0.5;"/>
      </defs>
      <g>
       <use style="stroke:#000000;stroke-width:0.5;" x="81.486724375" xlink:href="#m741efc42ff" y="7.2"/>
      </g>
     </g>
     <g id="text_1">
      <!-- 2014-06-09 -->
      <defs>
       <path d="
M4 22.7031
L4 30.9062
L28.2188 30.9062
L28.2188 22.7031
z
" id="WenQuanYiMicroHei-2d"/>
       <path d="
M50.2031 40.9219
Q50.2031 35.7969 49.6875 30.6875
Q49.1719 25.5938 47.875 20.9531
Q46.5781 16.3125 44.3281 12.2812
Q42.0938 8.25 38.625 5.3125
Q35.1562 2.39062 30.3125 0.703125
Q25.4844 -0.984375 19 -0.984375
Q18.0625 -0.984375 16.9375 -0.921875
Q15.8281 -0.875 14.7031 -0.75
Q13.5781 -0.640625 12.5 -0.484375
Q11.4219 -0.34375 10.5938 -0.09375
L10.5938 7.51562
Q12.3125 6.89062 14.4531 6.59375
Q16.6094 6.29688 18.7031 6.29688
Q25.2969 6.29688 29.5469 8.59375
Q33.7969 10.8906 36.2812 14.8125
Q38.7656 18.75 39.8125 23.9688
Q40.875 29.2031 41.1094 35.0156
L40.4844 35.0156
Q39.5 33.25 38.125 31.7344
Q36.7656 30.2188 34.9062 29.0938
Q33.0625 27.9844 30.7188 27.3438
Q28.375 26.7031 25.4844 26.7031
Q20.8438 26.7031 17.0781 28.1406
Q13.3281 29.5938 10.6875 32.375
Q8.0625 35.1562 6.60938 39.1875
Q5.17188 43.2188 5.17188 48.3906
Q5.17188 53.9531 6.70312 58.4219
Q8.25 62.8906 11.0625 65.9844
Q13.875 69.0938 17.8906 70.75
Q21.9219 72.4062 26.9062 72.4062
Q31.8438 72.4062 36.0781 70.5
Q40.3281 68.6094 43.4531 64.7031
Q46.5781 60.7969 48.3906 54.8594
Q50.2031 48.9219 50.2031 40.9219
M27 64.8906
Q24.0781 64.8906 21.6562 63.9062
Q19.2344 62.9375 17.4688 60.8906
Q15.7188 58.8438 14.7656 55.7344
Q13.8125 52.6406 13.8125 48.3906
Q13.8125 44.9688 14.625 42.25
Q15.4375 39.5469 17.0469 37.6406
Q18.6562 35.75 21.0625 34.7188
Q23.4844 33.6875 26.7031 33.6875
Q30.0312 33.6875 32.7188 34.8281
Q35.4062 35.9844 37.2969 37.8125
Q39.2031 39.6562 40.25 42
Q41.3125 44.3438 41.3125 46.6875
Q41.3125 49.9531 40.4062 53.2031
Q39.5 56.4531 37.7188 59.0625
Q35.9375 61.6719 33.25 63.2812
Q30.5625 64.8906 27 64.8906" id="WenQuanYiMicroHei-39"/>
       <path d="
M49.2188 0
L4.6875 0
L4.6875 7.625
L21.7812 26.2188
Q25.4375 30.1719 28.3125 33.4375
Q31.2031 36.7188 33.2188 39.8438
Q35.25 42.9688 36.3281 46.1094
Q37.4062 49.2656 37.4062 52.9844
Q37.4062 55.8594 36.5781 58.0469
Q35.75 60.25 34.2031 61.7812
Q32.6719 63.3281 30.5625 64.1094
Q28.4688 64.8906 25.875 64.8906
Q21.2344 64.8906 17.5 63.0156
Q13.7656 61.1406 10.4062 58.2031
L5.42188 64.0156
Q7.375 65.7656 9.60938 67.2969
Q11.8594 68.8438 14.4531 69.9688
Q17.0469 71.0938 19.9219 71.75
Q22.7969 72.4062 25.9844 72.4062
Q30.6719 72.4062 34.4531 71.0938
Q38.2344 69.7812 40.8594 67.3125
Q43.5 64.8438 44.9375 61.2969
Q46.3906 57.7656 46.3906 53.3281
Q46.3906 49.1719 45.0938 45.4062
Q43.7969 41.6562 41.5312 38.0156
Q39.2656 34.375 36.1094 30.7031
Q32.9531 27.0469 29.2969 23.0938
L15.5781 8.5
L15.5781 8.10938
L49.2188 8.10938
z
" id="WenQuanYiMicroHei-32"/>
       <path d="
M34.7188 0
L26.125 0
L26.125 44.5781
Q26.125 46.6875 26.1406 49.0781
Q26.1719 51.4688 26.2344 53.8281
Q26.3125 56.2031 26.3906 58.375
Q26.4688 60.5469 26.5156 62.2031
Q25.6875 61.3281 25.0469 60.6875
Q24.4219 60.0625 23.75 59.4688
Q23.0938 58.8906 22.3594 58.2188
Q21.625 57.5625 20.6094 56.6875
L13.375 50.7812
L8.6875 56.7812
L27.3906 71.3906
L34.7188 71.3906
z
" id="WenQuanYiMicroHei-31"/>
       <path d="
M50.3906 35.7969
Q50.3906 27.1562 49.1406 20.3125
Q47.9062 13.4844 45.1406 8.73438
Q42.3906 4 38.0312 1.5
Q33.6875 -0.984375 27.4844 -0.984375
Q21.7344 -0.984375 17.4531 1.5
Q13.1875 4 10.375 8.73438
Q7.5625 13.4844 6.17188 20.3125
Q4.78125 27.1562 4.78125 35.7969
Q4.78125 44.4375 6.03125 51.2656
Q7.28125 58.1094 9.98438 62.8125
Q12.7031 67.5312 17.0156 70.0156
Q21.3438 72.5156 27.4844 72.5156
Q33.2969 72.5156 37.5938 70.0469
Q41.8906 67.5781 44.7188 62.8594
Q47.5625 58.1562 48.9688 51.3125
Q50.3906 44.4844 50.3906 35.7969
M13.8125 35.7969
Q13.8125 28.4688 14.5469 23
Q15.2812 17.5312 16.8906 13.8906
Q18.5 10.25 21.1094 8.42188
Q23.7344 6.59375 27.4844 6.59375
Q31.25 6.59375 33.8906 8.39062
Q36.5312 10.2031 38.2031 13.8125
Q39.8906 17.4375 40.6406 22.9219
Q41.4062 28.4219 41.4062 35.7969
Q41.4062 43.1094 40.6406 48.5781
Q39.8906 54.0469 38.2031 57.6562
Q36.5312 61.2812 33.8906 63.0781
Q31.25 64.8906 27.4844 64.8906
Q23.7344 64.8906 21.1094 63.0781
Q18.5 61.2812 16.8906 57.6562
Q15.2812 54.0469 14.5469 48.5781
Q13.8125 43.1094 13.8125 35.7969" id="WenQuanYiMicroHei-30"/>
       <path d="
M5.51562 30.5156
Q5.51562 35.6406 6.03125 40.7188
Q6.54688 45.7969 7.82812 50.4531
Q9.125 55.125 11.375 59.125
Q13.625 63.1406 17.0938 66.0938
Q20.5625 69.0469 25.3906 70.7188
Q30.2188 72.4062 36.7188 72.4062
Q37.6406 72.4062 38.7656 72.3594
Q39.8906 72.3125 41.0312 72.1875
Q42.1875 72.0781 43.2344 71.9062
Q44.2812 71.7344 45.125 71.4844
L45.125 63.9219
Q43.4062 64.5 41.25 64.7969
Q39.1094 65.0938 37.0156 65.0938
Q32.625 65.0938 29.2656 64.0312
Q25.9219 62.9844 23.4844 61.0781
Q21.0469 59.1875 19.4062 56.5469
Q17.7812 53.9062 16.75 50.7031
Q15.7188 47.5156 15.2344 43.8906
Q14.75 40.2812 14.5938 36.375
L15.1875 36.375
Q16.1562 38.1406 17.5469 39.6719
Q18.9531 41.2188 20.7969 42.3125
Q22.6562 43.4062 24.9688 44.0312
Q27.2969 44.6719 30.1719 44.6719
Q34.8125 44.6719 38.5625 43.2344
Q42.3281 41.7969 44.9688 39.0156
Q47.6094 36.2344 49.0469 32.2031
Q50.4844 28.1719 50.4844 23
Q50.4844 17.4375 48.9688 12.9844
Q47.4688 8.54688 44.625 5.4375
Q41.7969 2.34375 37.7969 0.671875
Q33.7969 -0.984375 28.8125 -0.984375
Q23.9219 -0.984375 19.6406 0.921875
Q15.375 2.82812 12.25 6.73438
Q9.125 10.6406 7.3125 16.5469
Q5.51562 22.4688 5.51562 30.5156
M28.7188 6.5
Q31.6406 6.5 34.0469 7.5
Q36.4688 8.5 38.2188 10.5156
Q39.9844 12.5469 40.9375 15.6406
Q41.8906 18.75 41.8906 23
Q41.8906 26.4219 41.0781 29.125
Q40.2812 31.8438 38.6719 33.7344
Q37.0625 35.6406 34.6406 36.6719
Q32.2344 37.7031 29 37.7031
Q25.7344 37.7031 23.0156 36.5469
Q20.3125 35.4062 18.4062 33.5625
Q16.5 31.7344 15.4531 29.3906
Q14.4062 27.0469 14.4062 24.7031
Q14.4062 21.4375 15.3125 18.1875
Q16.2188 14.9375 18 12.3438
Q19.7812 9.76562 22.4531 8.125
Q25.1406 6.5 28.7188 6.5" id="WenQuanYiMicroHei-36"/>
       <path d="
M53.0781 16.0156
L42.6719 16.0156
L42.6719 0
L34.0781 0
L34.0781 16.0156
L1.125 16.0156
L1.125 23.7812
L33.5 71.7812
L42.6719 71.7812
L42.6719 24.125
L53.0781 24.125
z

M34.0781 24.125
L34.0781 41.5
Q34.0781 44.2344 34.1562 47.2344
Q34.2344 50.25 34.3281 53.0938
Q34.4219 55.9531 34.5469 58.4375
Q34.6719 60.9375 34.7188 62.5938
L34.2812 62.5938
Q33.9375 61.625 33.4219 60.4219
Q32.9062 59.2344 32.2969 58.0312
Q31.6875 56.8438 31.0469 55.7188
Q30.4219 54.5938 29.8906 53.8125
L9.8125 24.125
z
" id="WenQuanYiMicroHei-34"/>
      </defs>
      <g transform="translate(56.72632 116.445398125)scale(0.09996 -0.09996)">
       <use xlink:href="#WenQuanYiMicroHei-32"/>
       <use x="55.078125" xlink:href="#WenQuanYiMicroHei-30"/>
       <use x="110.15625" xlink:href="#WenQuanYiMicroHei-31"/>
       <use x="165.234375" xlink:href="#WenQuanYiMicroHei-34"/>
       <use x="220.3125" xlink:href="#WenQuanYiMicroHei-2d"/>
       <use x="252.490234375" xlink:href="#WenQuanYiMicroHei-30"/>
       <use x="307.568359375" xlink:href="#WenQuanYiMicroHei-36"/>
       <use x="362.646484375" xlink:href="#WenQuanYiMicroHei-2d"/>
       <use x="394.82421875" xlink:href="#WenQuanYiMicroHei-30"/>
       <use x="449.90234375" xlink:href="#WenQuanYiMicroHei-39"/>
      </g>
     </g>
    </g>
    <g id="xtick_2">
     <g id="line2d_3">
      <g>
       <use style="stroke:#000000;stroke-width:0.5;" x="220.986724375" xlink:href="#m93b0483c22" y="104.85"/>
      </g>
     </g>
     <g id="line2d_4">
      <g>
       <use style="stroke:#000000;stroke-width:0.5;" x="220.986724375" xlink:href="#m741efc42ff" y="7.2"/>
      </g>
     </g>
     <g id="text_2">
      <!-- 2014-08-18 -->
      <defs>
       <path d="
M27.5938 72.5156
Q31.6875 72.5156 35.3281 71.4375
Q38.9688 70.3594 41.7188 68.2031
Q44.4844 66.0625 46.0938 62.8438
Q47.7031 59.625 47.7031 55.3281
Q47.7031 52.0469 46.7188 49.4062
Q45.75 46.7812 44.0312 44.6562
Q42.3281 42.5312 39.9844 40.8438
Q37.6406 39.1562 34.9062 37.7969
Q37.75 36.2812 40.4531 34.4219
Q43.1719 32.5625 45.2812 30.25
Q47.4062 27.9375 48.7031 25.0469
Q50 22.1719 50 18.6094
Q50 14.1094 48.3594 10.4688
Q46.7344 6.84375 43.7812 4.29688
Q40.8281 1.76562 36.6875 0.390625
Q32.5625 -0.984375 27.5938 -0.984375
Q22.2188 -0.984375 18.0469 0.328125
Q13.875 1.65625 11.0156 4.125
Q8.15625 6.59375 6.65625 10.1562
Q5.17188 13.7188 5.17188 18.2188
Q5.17188 21.875 6.26562 24.7969
Q7.375 27.7344 9.21875 30.0781
Q11.0781 32.4219 13.6094 34.2188
Q16.1562 36.0312 19 37.4062
Q16.6094 38.9219 14.5 40.7031
Q12.4062 42.4844 10.8594 44.6719
Q9.32812 46.875 8.42188 49.5312
Q7.51562 52.2031 7.51562 55.4219
Q7.51562 59.6719 9.15625 62.8594
Q10.7969 66.0625 13.5781 68.2031
Q16.3594 70.3594 20 71.4375
Q23.6406 72.5156 27.5938 72.5156
M13.9219 18.1094
Q13.9219 15.5312 14.7031 13.3594
Q15.4844 11.1875 17.1406 9.64062
Q18.7969 8.10938 21.3281 7.25
Q23.875 6.39062 27.3906 6.39062
Q30.8125 6.39062 33.4219 7.25
Q36.0312 8.10938 37.7812 9.6875
Q39.5469 11.2812 40.4219 13.5156
Q41.3125 15.7656 41.3125 18.5
Q41.3125 21.0469 40.3594 23.0938
Q39.4062 25.1406 37.625 26.8906
Q35.8438 28.6562 33.3438 30.2188
Q30.8594 31.7812 27.7812 33.2969
L26.3125 33.9844
Q20.1719 31.0625 17.0469 27.2656
Q13.9219 23.4844 13.9219 18.1094
M27.4844 65.0938
Q22.3125 65.0938 19.2656 62.5
Q16.2188 59.9062 16.2188 54.9844
Q16.2188 52.2031 17.0625 50.1875
Q17.9219 48.1875 19.4375 46.625
Q20.9531 45.0625 23.0781 43.8125
Q25.2031 42.5781 27.6875 41.4062
Q30.0312 42.4844 32.1094 43.75
Q34.1875 45.0156 35.7188 46.625
Q37.25 48.25 38.125 50.2969
Q39.0156 52.3438 39.0156 54.9844
Q39.0156 59.9062 35.9375 62.5
Q32.8594 65.0938 27.4844 65.0938" id="WenQuanYiMicroHei-38"/>
      </defs>
      <g transform="translate(196.236472188 116.445398125)scale(0.09996 -0.09996)">
       <use xlink:href="#WenQuanYiMicroHei-32"/>
       <use x="55.078125" xlink:href="#WenQuanYiMicroHei-30"/>
       <use x="110.15625" xlink:href="#WenQuanYiMicroHei-31"/>
       <use x="165.234375" xlink:href="#WenQuanYiMicroHei-34"/>
       <use x="220.3125" xlink:href="#WenQuanYiMicroHei-2d"/>
       <use x="252.490234375" xlink:href="#WenQuanYiMicroHei-30"/>
       <use x="307.568359375" xlink:href="#WenQuanYiMicroHei-38"/>
       <use x="362.646484375" xlink:href="#WenQuanYiMicroHei-2d"/>
       <use x="394.82421875" xlink:href="#WenQuanYiMicroHei-31"/>
       <use x="449.90234375" xlink:href="#WenQuanYiMicroHei-38"/>
      </g>
     </g>
    </g>
    <g id="xtick_3">
     <g id="line2d_5">
      <g>
       <use style="stroke:#000000;stroke-width:0.5;" x="360.486724375" xlink:href="#m93b0483c22" y="104.85"/>
      </g>
     </g>
     <g id="line2d_6">
      <g>
       <use style="stroke:#000000;stroke-width:0.5;" x="360.486724375" xlink:href="#m741efc42ff" y="7.2"/>
      </g>
     </g>
     <g id="text_3">
      <!-- 2014-10-27 -->
      <defs>
       <path d="
M13.7188 0
L41.2188 63.2812
L4.39062 63.2812
L4.39062 71.3906
L50.2969 71.3906
L50.2969 64.3125
L23.1875 0
z
" id="WenQuanYiMicroHei-37"/>
      </defs>
      <g transform="translate(335.721634375 116.445398125)scale(0.09996 -0.09996)">
       <use xlink:href="#WenQuanYiMicroHei-32"/>
       <use x="55.078125" xlink:href="#WenQuanYiMicroHei-30"/>
       <use x="110.15625" xlink:href="#WenQuanYiMicroHei-31"/>
       <use x="165.234375" xlink:href="#WenQuanYiMicroHei-34"/>
       <use x="220.3125" xlink:href="#WenQuanYiMicroHei-2d"/>
       <use x="252.490234375" xlink:href="#WenQuanYiMicroHei-31"/>
       <use x="307.568359375" xlink:href="#WenQuanYiMicroHei-30"/>
       <use x="362.646484375" xlink:href="#WenQuanYiMicroHei-2d"/>
       <use x="394.82421875" xlink:href="#WenQuanYiMicroHei-32"/>
       <use x="449.90234375" xlink:href="#WenQuanYiMicroHei-37"/>
      </g>
     </g>
    </g>
    <g id="xtick_4">
     <g id="line2d_7">
      <g>
       <use style="stroke:#000000;stroke-width:0.5;" x="499.986724375" xlink:href="#m93b0483c22" y="104.85"/>
      </g>
     </g>
     <g id="line2d_8">
      <g>
       <use style="stroke:#000000;stroke-width:0.5;" x="499.986724375" xlink:href="#m741efc42ff" y="7.2"/>
      </g>
     </g>
     <g id="text_4">
      <!-- 2015-01-05 -->
      <defs>
       <path d="
M26.6094 43.7969
Q31.4531 43.7969 35.625 42.4531
Q39.7969 41.1094 42.8906 38.4688
Q46 35.8438 47.75 31.9375
Q49.5156 28.0312 49.5156 22.9062
Q49.5156 17.3281 47.8438 12.8906
Q46.1875 8.45312 42.9219 5.375
Q39.6562 2.29688 34.8438 0.65625
Q30.0312 -0.984375 23.7812 -0.984375
Q21.2969 -0.984375 18.875 -0.734375
Q16.4531 -0.484375 14.2344 -0.015625
Q12.0156 0.4375 10.0156 1.17188
Q8.01562 1.90625 6.39062 2.875
L6.39062 11.2812
Q8.01562 10.1562 10.1875 9.28125
Q12.3594 8.40625 14.75 7.8125
Q17.1406 7.23438 19.5469 6.90625
Q21.9688 6.59375 24.0312 6.59375
Q27.875 6.59375 30.9062 7.5
Q33.9375 8.40625 36.0312 10.2969
Q38.1406 12.2031 39.25 15.0781
Q40.375 17.9688 40.375 21.9219
Q40.375 28.9062 36.0781 32.5938
Q31.7812 36.2812 23.5781 36.2812
Q22.2656 36.2812 20.7188 36.1562
Q19.1875 36.0312 17.6406 35.8281
Q16.1094 35.6406 14.7188 35.4219
Q13.3281 35.2031 12.3125 35.0156
L7.90625 37.7969
L10.5938 71.3906
L44.2812 71.3906
L44.2812 63.2812
L18.3125 63.2812
L16.4062 42.8281
Q17.9688 43.1094 20.5312 43.4531
Q23.0938 43.7969 26.6094 43.7969" id="WenQuanYiMicroHei-35"/>
      </defs>
      <g transform="translate(475.26068125 116.445398125)scale(0.09996 -0.09996)">
       <use xlink:href="#WenQuanYiMicroHei-32"/>
       <use x="55.078125" xlink:href="#WenQuanYiMicroHei-30"/>
       <use x="110.15625" xlink:href="#WenQuanYiMicroHei-31"/>
       <use x="165.234375" xlink:href="#WenQuanYiMicroHei-35"/>
       <use x="220.3125" xlink:href="#WenQuanYiMicroHei-2d"/>
       <use x="252.490234375" xlink:href="#WenQuanYiMicroHei-30"/>
       <use x="307.568359375" xlink:href="#WenQuanYiMicroHei-31"/>
       <use x="362.646484375" xlink:href="#WenQuanYiMicroHei-2d"/>
       <use x="394.82421875" xlink:href="#WenQuanYiMicroHei-30"/>
       <use x="449.90234375" xlink:href="#WenQuanYiMicroHei-35"/>
      </g>
     </g>
    </g>
    <g id="xtick_5">
     <g id="line2d_9">
      <g>
       <use style="stroke:#000000;stroke-width:0.5;" x="639.486724375" xlink:href="#m93b0483c22" y="104.85"/>
      </g>
     </g>
     <g id="line2d_10">
      <g>
       <use style="stroke:#000000;stroke-width:0.5;" x="639.486724375" xlink:href="#m741efc42ff" y="7.2"/>
      </g>
     </g>
     <g id="text_5">
      <!-- 2015-03-16 -->
      <defs>
       <path d="
M46.9219 54.6875
Q46.9219 51.125 45.7969 48.1875
Q44.6719 45.2656 42.6406 43.1094
Q40.625 40.9688 37.7969 39.5781
Q34.9688 38.1875 31.5 37.5938
L31.5 37.3125
Q40.1406 36.2344 44.625 31.8125
Q49.125 27.3906 49.125 20.3125
Q49.125 15.625 47.5312 11.7188
Q45.9531 7.8125 42.7188 4.98438
Q39.5 2.15625 34.5625 0.578125
Q29.6406 -0.984375 22.9062 -0.984375
Q17.5781 -0.984375 12.8594 -0.140625
Q8.15625 0.6875 4 2.875
L4 11.1875
Q8.25 8.9375 13.2031 7.71875
Q18.1719 6.5 22.7031 6.5
Q27.2031 6.5 30.4688 7.46875
Q33.7344 8.45312 35.8594 10.25
Q37.9844 12.0625 38.9844 14.6875
Q39.9844 17.3281 39.9844 20.6094
Q39.9844 23.9219 38.6875 26.2812
Q37.4062 28.6562 35.0156 30.1875
Q32.625 31.7344 29.1719 32.4688
Q25.7344 33.2031 21.3906 33.2031
L14.8906 33.2031
L14.8906 40.5781
L21.3906 40.5781
Q25.3438 40.5781 28.4219 41.5469
Q31.5 42.5312 33.5625 44.3281
Q35.6406 46.1406 36.7188 48.625
Q37.7969 51.125 37.7969 54.1094
Q37.7969 56.6406 36.9062 58.6406
Q36.0312 60.6406 34.4219 62.0312
Q32.8125 63.4219 30.5625 64.1562
Q28.3281 64.8906 25.5938 64.8906
Q20.3594 64.8906 16.375 63.25
Q12.4062 61.625 8.79688 58.9844
L4.29688 65.0938
Q6.15625 66.6094 8.42188 67.9219
Q10.6875 69.2344 13.375 70.2344
Q16.0625 71.2344 19.1094 71.8125
Q22.1719 72.4062 25.5938 72.4062
Q30.8594 72.4062 34.8281 71.0938
Q38.8125 69.7812 41.5 67.4062
Q44.1875 65.0469 45.5469 61.7969
Q46.9219 58.5469 46.9219 54.6875" id="WenQuanYiMicroHei-33"/>
      </defs>
      <g transform="translate(614.712263125 116.445398125)scale(0.09996 -0.09996)">
       <use xlink:href="#WenQuanYiMicroHei-32"/>
       <use x="55.078125" xlink:href="#WenQuanYiMicroHei-30"/>
       <use x="110.15625" xlink:href="#WenQuanYiMicroHei-31"/>
       <use x="165.234375" xlink:href="#WenQuanYiMicroHei-35"/>
       <use x="220.3125" xlink:href="#WenQuanYiMicroHei-2d"/>
       <use x="252.490234375" xlink:href="#WenQuanYiMicroHei-30"/>
       <use x="307.568359375" xlink:href="#WenQuanYiMicroHei-33"/>
       <use x="362.646484375" xlink:href="#WenQuanYiMicroHei-2d"/>
       <use x="394.82421875" xlink:href="#WenQuanYiMicroHei-31"/>
       <use x="449.90234375" xlink:href="#WenQuanYiMicroHei-36"/>
      </g>
     </g>
    </g>
    <g id="xtick_6">
     <g id="line2d_11">
      <g>
       <use style="stroke:#000000;stroke-width:0.5;" x="778.986724375" xlink:href="#m93b0483c22" y="104.85"/>
      </g>
     </g>
     <g id="line2d_12">
      <g>
       <use style="stroke:#000000;stroke-width:0.5;" x="778.986724375" xlink:href="#m741efc42ff" y="7.2"/>
      </g>
     </g>
     <g id="text_6">
      <!-- 2015-05-25 -->
      <g transform="translate(754.26068125 116.445398125)scale(0.09996 -0.09996)">
       <use xlink:href="#WenQuanYiMicroHei-32"/>
       <use x="55.078125" xlink:href="#WenQuanYiMicroHei-30"/>
       <use x="110.15625" xlink:href="#WenQuanYiMicroHei-31"/>
       <use x="165.234375" xlink:href="#WenQuanYiMicroHei-35"/>
       <use x="220.3125" xlink:href="#WenQuanYiMicroHei-2d"/>
       <use x="252.490234375" xlink:href="#WenQuanYiMicroHei-30"/>
       <use x="307.568359375" xlink:href="#WenQuanYiMicroHei-35"/>
       <use x="362.646484375" xlink:href="#WenQuanYiMicroHei-2d"/>
       <use x="394.82421875" xlink:href="#WenQuanYiMicroHei-32"/>
       <use x="449.90234375" xlink:href="#WenQuanYiMicroHei-35"/>
      </g>
     </g>
    </g>
   </g>
   <g id="matplotlib.axis_2">
    <g id="ytick_1">
     <g id="line2d_13">
      <defs>
       <path d="
M0 0
L4 0" id="m728421d6d4" style="stroke:#000000;stroke-width:0.5;"/>
      </defs>
      <g>
       <use style="stroke:#000000;stroke-width:0.5;" x="32.661724375" xlink:href="#m728421d6d4" y="97.875"/>
      </g>
     </g>
     <g id="line2d_14">
      <defs>
       <path d="
M0 0
L-4 0" id="mcb0005524f" style="stroke:#000000;stroke-width:0.5;"/>
      </defs>
      <g>
       <use style="stroke:#000000;stroke-width:0.5;" x="869.661724375" xlink:href="#mcb0005524f" y="97.875"/>
      </g>
     </g>
     <g id="text_7">
      <!-- MON -->
      <defs>
       <path d="
M68.0156 35.7969
Q68.0156 27.5469 66.0312 20.75
Q64.0625 13.9688 60.1562 9.125
Q56.25 4.29688 50.4531 1.65625
Q44.6719 -0.984375 37.1094 -0.984375
Q29.1562 -0.984375 23.3125 1.65625
Q17.4844 4.29688 13.6406 9.125
Q9.8125 13.9688 7.95312 20.7812
Q6.10938 27.5938 6.10938 35.8906
Q6.10938 44.1875 7.95312 50.9531
Q9.8125 57.7188 13.6719 62.5
Q17.5312 67.2812 23.3906 69.8906
Q29.25 72.5156 37.2031 72.5156
Q44.7812 72.5156 50.5156 69.8906
Q56.25 67.2812 60.1562 62.4688
Q64.0625 57.6719 66.0312 50.9062
Q68.0156 44.1406 68.0156 35.7969
M15.7188 35.7969
Q15.7188 29.1094 16.9844 23.75
Q18.2656 18.4062 20.875 14.6719
Q23.4844 10.9375 27.5156 8.95312
Q31.5469 6.98438 37.1094 6.98438
Q42.6719 6.98438 46.7031 8.95312
Q50.7344 10.9375 53.3438 14.6719
Q55.9531 18.4062 57.1719 23.75
Q58.4062 29.1094 58.4062 35.7969
Q58.4062 42.5312 57.1719 47.8438
Q55.9531 53.1719 53.3594 56.8594
Q50.7812 60.5469 46.7812 62.5156
Q42.7812 64.5 37.2031 64.5
Q31.6406 64.5 27.5781 62.5156
Q23.5312 60.5469 20.8906 56.8594
Q18.2656 53.1719 16.9844 47.8438
Q15.7188 42.5312 15.7188 35.7969" id="WenQuanYiMicroHei-4f"/>
       <path d="
M39.2031 0
L17.5781 62.5
L17.1875 62.5
Q17.4844 58.8906 17.6719 55.3281
Q17.875 52.25 17.9844 48.8438
Q18.1094 45.4531 18.1094 42.6719
L18.1094 0
L9.71875 0
L9.71875 71.3906
L23.1875 71.3906
L43.3125 13.1875
L43.6094 13.1875
L63.8125 71.3906
L77.2969 71.3906
L77.2969 0
L68.2188 0
L68.2188 43.3125
Q68.2188 45.8438 68.3125 49.1094
Q68.4062 52.3906 68.5625 55.375
Q68.75 58.8438 68.8906 62.4062
L68.5 62.4062
L46.6875 0
z
" id="WenQuanYiMicroHei-4d"/>
       <path d="
M63.1875 0
L52.6875 0
L17.5781 59.0781
L17.1875 59.0781
Q17.4844 55.3281 17.6719 51.6094
Q17.875 48.4375 17.9844 44.9688
Q18.1094 41.5 18.1094 38.7188
L18.1094 0
L9.71875 0
L9.71875 71.3906
L20.125 71.3906
L55.0781 12.5938
L55.4219 12.5938
Q55.2812 16.3125 55.0781 19.9219
Q55.0312 21.4844 54.9844 23.1406
L54.7812 26.375
Q54.7344 28.0312 54.7031 29.5469
Q54.6875 31.0625 54.6875 32.3281
L54.6875 71.3906
L63.1875 71.3906
z
" id="WenQuanYiMicroHei-4e"/>
      </defs>
      <g transform="translate(7.2 100.471617188)scale(0.09996 -0.09996)">
       <use xlink:href="#WenQuanYiMicroHei-4d"/>
       <use x="87.01171875" xlink:href="#WenQuanYiMicroHei-4f"/>
       <use x="161.23046875" xlink:href="#WenQuanYiMicroHei-4e"/>
      </g>
     </g>
    </g>
    <g id="ytick_2">
     <g id="line2d_15">
      <g>
       <use style="stroke:#000000;stroke-width:0.5;" x="32.661724375" xlink:href="#m728421d6d4" y="83.925"/>
      </g>
     </g>
     <g id="line2d_16">
      <g>
       <use style="stroke:#000000;stroke-width:0.5;" x="869.661724375" xlink:href="#mcb0005524f" y="83.925"/>
      </g>
     </g>
     <g id="text_8">
      <!-- TUE -->
      <defs>
       <path d="
M60.7969 71.4844
L60.7969 25.2031
Q60.7969 19.625 59.1719 14.8438
Q57.5625 10.0625 54.3125 6.54688
Q51.0781 3.03125 46.1719 1.01562
Q41.2656 -0.984375 34.625 -0.984375
Q28.375 -0.984375 23.5781 0.890625
Q18.7969 2.78125 15.5469 6.25
Q12.3125 9.71875 10.6406 14.5781
Q8.98438 19.4375 8.98438 25.3906
L8.98438 71.3906
L18.1094 71.3906
L18.1094 24.9062
Q18.1094 16.3594 22.3281 11.6719
Q26.5625 6.98438 35.1094 6.98438
Q39.4531 6.98438 42.5781 8.29688
Q45.7031 9.625 47.7031 12.0156
Q49.7031 14.4062 50.6719 17.7188
Q51.6562 21.0469 51.7031 25
L51.7031 71.4844
z
" id="WenQuanYiMicroHei-55"/>
       <path d="
M30.5156 0
L21.3906 0
L21.3906 63.375
L0.984375 63.375
L0.984375 71.3906
L50.875 71.3906
L50.875 63.375
L30.5156 63.375
z
" id="WenQuanYiMicroHei-54"/>
       <path d="
M46.7812 0
L9.71875 0
L9.71875 71.3906
L46.7812 71.3906
L46.7812 63.375
L18.7969 63.375
L18.7969 41.3125
L44.9219 41.3125
L44.9219 33.4062
L18.7969 33.4062
L18.7969 8.01562
L46.7812 8.01562
z
" id="WenQuanYiMicroHei-45"/>
      </defs>
      <g transform="translate(11.915300625 86.5216171875)scale(0.09996 -0.09996)">
       <use xlink:href="#WenQuanYiMicroHei-54"/>
       <use x="51.904296875" xlink:href="#WenQuanYiMicroHei-55"/>
       <use x="121.728515625" xlink:href="#WenQuanYiMicroHei-45"/>
      </g>
     </g>
    </g>
    <g id="ytick_3">
     <g id="line2d_17">
      <g>
       <use style="stroke:#000000;stroke-width:0.5;" x="32.661724375" xlink:href="#m728421d6d4" y="69.975"/>
      </g>
     </g>
     <g id="line2d_18">
      <g>
       <use style="stroke:#000000;stroke-width:0.5;" x="869.661724375" xlink:href="#mcb0005524f" y="69.975"/>
      </g>
     </g>
     <g id="text_9">
      <!-- WED -->
      <defs>
       <path d="
M39.5 71.3906
L49.125 71.3906
L60.2969 29.5938
Q61.0312 26.8594 61.7344 24.125
Q62.4531 21.3906 63.0625 18.8281
Q63.6719 16.2656 64.125 13.9688
Q64.5938 11.6719 64.8906 9.8125
Q65.0938 11.6719 65.375 13.8594
Q65.6719 16.0625 66.0625 18.4844
Q66.4531 20.9062 66.9219 23.4062
Q67.3906 25.9219 67.9219 28.3281
L77.6875 71.3906
L87.4062 71.3906
L69.4844 0
L60.2969 0
L47.9062 45.7969
Q47.2188 48.2969 46.5781 50.9219
Q45.9531 53.5625 45.4062 55.8594
Q44.8281 58.5469 44.2812 61.0781
Q43.75 58.5938 43.2188 55.9062
Q42.7188 53.6094 42.1094 50.875
Q41.5 48.1406 40.8281 45.5156
L29 0
L19.8281 0
L0.984375 71.3906
L10.5938 71.3906
L21.4844 27.9844
Q22.0781 25.7344 22.5625 23.3125
Q23.0469 20.9062 23.4531 18.5
Q23.875 16.1094 24.2188 13.8906
Q24.5625 11.6719 24.8125 9.8125
Q25.0469 11.625 25.4062 14.0156
Q25.7812 16.4062 26.2656 19.0469
Q26.7656 21.6875 27.3125 24.3906
Q27.875 27.0938 28.5156 29.5
z
" id="WenQuanYiMicroHei-57"/>
       <path d="
M62.3125 36.375
Q62.3125 27.3438 59.9688 20.5312
Q57.625 13.7188 53.1719 9.15625
Q48.7344 4.59375 42.2656 2.29688
Q35.7969 0 27.5938 0
L9.71875 0
L9.71875 71.3906
L29.5938 71.3906
Q37.0625 71.3906 43.1094 69.1406
Q49.1719 66.8906 53.4219 62.4688
Q57.6719 58.0625 59.9844 51.5156
Q62.3125 44.9688 62.3125 36.375
M52.6875 36.0781
Q52.6875 43.2188 51.0781 48.4062
Q49.4688 53.6094 46.3906 56.9844
Q43.3125 60.3594 38.8125 61.9844
Q34.3281 63.625 28.6094 63.625
L18.7969 63.625
L18.7969 7.8125
L26.7031 7.8125
Q39.5938 7.8125 46.1406 14.9375
Q52.6875 22.0781 52.6875 36.0781" id="WenQuanYiMicroHei-44"/>
      </defs>
      <g transform="translate(8.42138625 72.5716171875)scale(0.09996 -0.09996)">
       <use xlink:href="#WenQuanYiMicroHei-57"/>
       <use x="88.37890625" xlink:href="#WenQuanYiMicroHei-45"/>
       <use x="141.162109375" xlink:href="#WenQuanYiMicroHei-44"/>
      </g>
     </g>
    </g>
    <g id="ytick_4">
     <g id="line2d_19">
      <g>
       <use style="stroke:#000000;stroke-width:0.5;" x="32.661724375" xlink:href="#m728421d6d4" y="56.025"/>
      </g>
     </g>
     <g id="line2d_20">
      <g>
       <use style="stroke:#000000;stroke-width:0.5;" x="869.661724375" xlink:href="#mcb0005524f" y="56.025"/>
      </g>
     </g>
     <g id="text_10">
      <!-- THU -->
      <defs>
       <path d="
M60.4062 0
L51.3125 0
L51.3125 33.2969
L18.7969 33.2969
L18.7969 0
L9.71875 0
L9.71875 71.3906
L18.7969 71.3906
L18.7969 41.3125
L51.3125 41.3125
L51.3125 71.3906
L60.4062 71.3906
z
" id="WenQuanYiMicroHei-48"/>
      </defs>
      <g transform="translate(10.484623125 58.6216171875)scale(0.09996 -0.09996)">
       <use xlink:href="#WenQuanYiMicroHei-54"/>
       <use x="51.904296875" xlink:href="#WenQuanYiMicroHei-48"/>
       <use x="122.021484375" xlink:href="#WenQuanYiMicroHei-55"/>
      </g>
     </g>
    </g>
    <g id="ytick_5">
     <g id="line2d_21">
      <g>
       <use style="stroke:#000000;stroke-width:0.5;" x="32.661724375" xlink:href="#m728421d6d4" y="42.075"/>
      </g>
     </g>
     <g id="line2d_22">
      <g>
       <use style="stroke:#000000;stroke-width:0.5;" x="869.661724375" xlink:href="#mcb0005524f" y="42.075"/>
      </g>
     </g>
     <g id="text_11">
      <!-- FRI -->
      <defs>
       <path d="
M29.8906 0
L4 0
L4 4.98438
L12.4062 6.98438
L12.4062 64.4062
L4 66.4062
L4 71.3906
L29.8906 71.3906
L29.8906 66.4062
L21.4844 64.4062
L21.4844 6.98438
L29.8906 4.98438
z
" id="WenQuanYiMicroHei-49"/>
       <path d="
M18.7969 0
L9.71875 0
L9.71875 71.3906
L46.7812 71.3906
L46.7812 63.375
L18.7969 63.375
L18.7969 38.1875
L44.9219 38.1875
L44.9219 30.1719
L18.7969 30.1719
z
" id="WenQuanYiMicroHei-46"/>
       <path d="
M18.7969 29.5
L18.7969 0
L9.71875 0
L9.71875 71.3906
L27.0938 71.3906
Q40.0938 71.3906 46.2812 66.3594
Q52.4844 61.3281 52.4844 51.125
Q52.4844 46.875 51.2812 43.7031
Q50.0938 40.5312 48.1094 38.25
Q46.1406 35.9844 43.5938 34.4688
Q41.0625 32.9531 38.375 31.9844
L57.8125 0
L47.125 0
L29.9844 29.5
z

M18.7969 37.2031
L26.8125 37.2031
Q31.2031 37.2031 34.2812 38.0625
Q37.3594 38.9219 39.3281 40.5938
Q41.3125 42.2812 42.2031 44.7969
Q43.1094 47.3125 43.1094 50.6875
Q43.1094 54.2031 42.1094 56.6406
Q41.1094 59.0781 39.0781 60.6406
Q37.0625 62.2031 33.9531 62.9062
Q30.8594 63.625 26.6094 63.625
L18.7969 63.625
z
" id="WenQuanYiMicroHei-52"/>
      </defs>
      <g transform="translate(15.838730625 44.6716171875)scale(0.09996 -0.09996)">
       <use xlink:href="#WenQuanYiMicroHei-46"/>
       <use x="49.12109375" xlink:href="#WenQuanYiMicroHei-52"/>
       <use x="108.10546875" xlink:href="#WenQuanYiMicroHei-49"/>
      </g>
     </g>
    </g>
    <g id="ytick_6">
     <g id="line2d_23">
      <g>
       <use style="stroke:#000000;stroke-width:0.5;" x="32.661724375" xlink:href="#m728421d6d4" y="28.125"/>
      </g>
     </g>
     <g id="line2d_24">
      <g>
       <use style="stroke:#000000;stroke-width:0.5;" x="869.661724375" xlink:href="#mcb0005524f" y="28.125"/>
      </g>
     </g>
     <g id="text_12">
      <!-- SAT -->
      <defs>
       <path d="
M51.5156 0
L43.7031 22.125
L17.0938 22.125
L9.1875 0
L0 0
L26.2188 71.6875
L34.5156 71.6875
L60.7969 0
z

M40.8281 30.1719
L33.5938 50.875
Q33.2969 51.7656 32.875 53.0312
Q32.4688 54.2969 32.0312 55.7656
Q31.5938 57.2344 31.1562 58.8125
Q30.7188 60.4062 30.3281 61.9219
Q29.9844 60.4062 29.5469 58.7812
Q29.1094 57.1719 28.6562 55.6875
Q28.2188 54.2031 27.7969 52.9531
Q27.3906 51.7031 27.0938 50.875
L20.0156 30.1719
z
" id="WenQuanYiMicroHei-41"/>
       <path d="
M47.3125 19.0938
Q47.3125 14.3594 45.625 10.625
Q43.9531 6.89062 40.8281 4.29688
Q37.7031 1.70312 33.2031 0.359375
Q28.7188 -0.984375 23.0938 -0.984375
Q17.6719 -0.984375 12.9531 -0.125
Q8.25 0.734375 5.07812 2.39062
L5.07812 11.0781
Q6.73438 10.2969 8.85938 9.54688
Q10.9844 8.79688 13.3281 8.20312
Q15.6719 7.625 18.1562 7.25
Q20.6562 6.89062 23.0938 6.89062
Q30.9062 6.89062 34.6406 9.8125
Q38.375 12.75 38.375 18.2188
Q38.375 20.8438 37.6719 22.7969
Q36.9688 24.75 35.1875 26.3906
Q33.4062 28.0312 30.4219 29.5625
Q27.4375 31.1094 22.9062 32.9062
Q18.5625 34.625 15.3594 36.6406
Q12.1562 38.6719 10.0781 41.2031
Q8.01562 43.75 7 46.9688
Q6 50.2031 6 54.2969
Q6 58.5938 7.5625 61.9531
Q9.125 65.3281 11.9531 67.6406
Q14.7969 69.9688 18.7188 71.1875
Q22.6562 72.4062 27.3906 72.4062
Q33.2031 72.4062 37.8438 71.3125
Q42.4844 70.2188 46.0938 68.5
L42.8281 60.8906
Q39.6562 62.3125 35.625 63.3594
Q31.5938 64.4062 27.2969 64.4062
Q21.3438 64.4062 18.0625 61.6406
Q14.7969 58.8906 14.7969 54.2031
Q14.7969 51.4219 15.5312 49.3906
Q16.2656 47.3594 17.9688 45.7188
Q19.6719 44.0938 22.4844 42.6562
Q25.2969 41.2188 29.3906 39.5938
Q33.8438 37.8438 37.1875 35.9844
Q40.5312 34.125 42.7656 31.7812
Q45.0156 29.4375 46.1562 26.3594
Q47.3125 23.2969 47.3125 19.0938" id="WenQuanYiMicroHei-53"/>
      </defs>
      <g transform="translate(12.818064375 30.7216171875)scale(0.09996 -0.09996)">
       <use xlink:href="#WenQuanYiMicroHei-53"/>
       <use x="51.904296875" xlink:href="#WenQuanYiMicroHei-41"/>
       <use x="112.6953125" xlink:href="#WenQuanYiMicroHei-54"/>
      </g>
     </g>
    </g>
    <g id="ytick_7">
     <g id="line2d_25">
      <g>
       <use style="stroke:#000000;stroke-width:0.5;" x="32.661724375" xlink:href="#m728421d6d4" y="14.175"/>
      </g>
     </g>
     <g id="line2d_26">
      <g>
       <use style="stroke:#000000;stroke-width:0.5;" x="869.661724375" xlink:href="#mcb0005524f" y="14.175"/>
      </g>
     </g>
     <g id="text_13">
      <!-- SUN -->
      <g transform="translate(10.684543125 16.7716171875)scale(0.09996 -0.09996)">
       <use xlink:href="#WenQuanYiMicroHei-53"/>
       <use x="51.904296875" xlink:href="#WenQuanYiMicroHei-55"/>
       <use x="121.728515625" xlink:href="#WenQuanYiMicroHei-4e"/>
      </g>
     </g>
    </g>
   </g>
  </g>
 </g>
 <defs>
  <clipPath id="p8fcf99ac77">
   <rect height="97.65" width="837.0" x="32.661724375" y="7.2"/>
  </clipPath>
 </defs>
</svg>
