<?xml version="1.0" encoding="utf-8" standalone="no"?>
<!DOCTYPE svg PUBLIC "-//W3C//DTD SVG 1.1//EN"
  "http://www.w3.org/Graphics/SVG/1.1/DTD/svg11.dtd">
<!-- Created with matplotlib (http://matplotlib.org/) -->
<svg height="260pt" version="1.1" viewBox="0 0 363 260" width="363pt" xmlns="http://www.w3.org/2000/svg" xmlns:xlink="http://www.w3.org/1999/xlink">
 <defs>
  <style type="text/css">
*{stroke-linecap:butt;stroke-linejoin:round;}
  </style>
 </defs>
 <g id="figure_1">
  <g id="patch_1">
   <path d="
M0 260.083
L363.63 260.083
L363.63 0
L0 0
z
" style="fill:#ffffff;"/>
  </g>
  <g id="axes_1">
   <g id="patch_2">
    <path d="
M21.6302 184.999
L356.43 184.999
L356.43 12.1988
L21.6302 12.1988
z
" style="fill:#ffffff;"/>
   </g>
   <g id="patch_3">
    <path clip-path="url(#p9819a559c5)" d="
M28.6052 184.999
L42.5552 184.999
L42.5552 46.6045
L28.6052 46.6045
z
" style="fill:#348abd;stroke:#000000;stroke-linejoin:miter;"/>
   </g>
   <g id="patch_4">
    <path clip-path="url(#p9819a559c5)" d="
M56.5052 184.999
L70.4552 184.999
L70.4552 41.7269
L56.5052 41.7269
z
" style="fill:#348abd;stroke:#000000;stroke-linejoin:miter;"/>
   </g>
   <g id="patch_5">
    <path clip-path="url(#p9819a559c5)" d="
M84.4052 184.999
L98.3552 184.999
L98.3552 35.0268
L84.4052 35.0268
z
" style="fill:#348abd;stroke:#000000;stroke-linejoin:miter;"/>
   </g>
   <g id="patch_6">
    <path clip-path="url(#p9819a559c5)" d="
M112.305 184.999
L126.255 184.999
L126.255 24.9697
L112.305 24.9697
z
" style="fill:#348abd;stroke:#000000;stroke-linejoin:miter;"/>
   </g>
   <g id="patch_7">
    <path clip-path="url(#p9819a559c5)" d="
M140.205 184.999
L154.155 184.999
L154.155 17.8338
L140.205 17.8338
z
" style="fill:#348abd;stroke:#000000;stroke-linejoin:miter;"/>
   </g>
   <g id="patch_8">
    <path clip-path="url(#p9819a559c5)" d="
M168.105 184.999
L182.055 184.999
L182.055 17.6547
L168.105 17.6547
z
" style="fill:#348abd;stroke:#000000;stroke-linejoin:miter;"/>
   </g>
   <g id="patch_9">
    <path clip-path="url(#p9819a559c5)" d="
M196.005 184.999
L209.955 184.999
L209.955 17.5594
L196.005 17.5594
z
" style="fill:#348abd;stroke:#000000;stroke-linejoin:miter;"/>
   </g>
   <g id="patch_10">
    <path clip-path="url(#p9819a559c5)" d="
M223.905 184.999
L237.855 184.999
L237.855 17.3983
L223.905 17.3983
z
" style="fill:#348abd;stroke:#000000;stroke-linejoin:miter;"/>
   </g>
   <g id="patch_11">
    <path clip-path="url(#p9819a559c5)" d="
M251.805 184.999
L265.755 184.999
L265.755 16.0957
L251.805 16.0957
z
" style="fill:#348abd;stroke:#000000;stroke-linejoin:miter;"/>
   </g>
   <g id="patch_12">
    <path clip-path="url(#p9819a559c5)" d="
M279.705 184.999
L293.655 184.999
L293.655 15.8826
L279.705 15.8826
z
" style="fill:#348abd;stroke:#000000;stroke-linejoin:miter;"/>
   </g>
   <g id="patch_13">
    <path clip-path="url(#p9819a559c5)" d="
M307.605 184.999
L321.555 184.999
L321.555 15.3743
L307.605 15.3743
z
" style="fill:#348abd;stroke:#000000;stroke-linejoin:miter;"/>
   </g>
   <g id="patch_14">
    <path clip-path="url(#p9819a559c5)" d="
M335.505 184.999
L349.455 184.999
L349.455 13.1483
L335.505 13.1483
z
" style="fill:#348abd;stroke:#000000;stroke-linejoin:miter;"/>
   </g>
   <g id="patch_15">
    <path d="
M21.6302 12.1988
L356.43 12.1988" style="fill:none;stroke:#000000;stroke-linecap:square;stroke-linejoin:miter;"/>
   </g>
   <g id="patch_16">
    <path d="
M356.43 184.999
L356.43 12.1988" style="fill:none;stroke:#000000;stroke-linecap:square;stroke-linejoin:miter;"/>
   </g>
   <g id="patch_17">
    <path d="
M21.6302 184.999
L356.43 184.999" style="fill:none;stroke:#000000;stroke-linecap:square;stroke-linejoin:miter;"/>
   </g>
   <g id="patch_18">
    <path d="
M21.6302 184.999
L21.6302 12.1988" style="fill:none;stroke:#000000;stroke-linecap:square;stroke-linejoin:miter;"/>
   </g>
   <g id="matplotlib.axis_1">
    <g id="xtick_1">
     <g id="line2d_1">
      <path clip-path="url(#p9819a559c5)" d="
M35.5802 184.999
L35.5802 12.1988" style="fill:none;stroke:#000000;stroke-dasharray:1.000000,3.000000;stroke-dashoffset:0.0;stroke-width:0.5;"/>
     </g>
     <g id="line2d_2">
      <defs>
       <path d="
M0 0
L0 -4" id="m93b0483c22" style="stroke:#000000;stroke-width:0.5;"/>
      </defs>
      <g>
       <use style="stroke:#000000;stroke-width:0.5;" x="35.58020125" xlink:href="#m93b0483c22" y="184.998780938"/>
      </g>
     </g>
     <g id="line2d_3">
      <defs>
       <path d="
M0 0
L0 4" id="m741efc42ff" style="stroke:#000000;stroke-width:0.5;"/>
      </defs>
      <g>
       <use style="stroke:#000000;stroke-width:0.5;" x="35.58020125" xlink:href="#m741efc42ff" y="12.1987809375"/>
      </g>
     </g>
     <g id="text_1">
      <!-- 定陵 -->
      <defs>
       <path d="
M37.1094 77.3438
L37.1094 70.3125
L27.7344 46.875
Q35.9375 35.9375 35.9375 25.3906
Q35.9375 17.5781 33 13.6719
Q30.0781 9.76562 24.2188 9.76562
Q21.875 9.76562 18.75 10.5469
L17.1875 18.3594
Q21.4844 17.1875 24.2188 17.1875
Q26.5625 17.1875 27.7344 19.3281
Q28.9062 21.4844 28.9062 25.3906
Q28.9062 35.5469 20.3125 45.7031
L29.2969 70.3125
L14.8438 70.3125
L14.8438 -8.98438
L7.8125 -8.98438
L7.8125 77.3438
z

M44.1406 72.2656
L62.8906 72.2656
L62.8906 80.8594
L70.7031 80.8594
L70.7031 72.2656
L89.0625 72.2656
L89.0625 65.2344
L70.7031 65.2344
L70.7031 56.6406
L93.75 56.6406
L93.75 49.6094
L40.625 49.6094
L40.625 56.6406
L62.8906 56.6406
L62.8906 65.2344
L44.1406 65.2344
z

M52.3438 48.8281
L58.2031 45.7031
Q51.9531 37.1094 42.1875 29.2969
L37.1094 34.7656
Q46.0938 41.4062 52.3438 48.8281
M76.9531 47.2656
Q86.7188 42.5781 94.5312 36.3281
L89.0625 30.4688
Q81.6406 37.1094 72.6562 41.7969
z

M57.0312 39.8438
L64.8438 38.2812
Q62.8906 33.5938 60.1562 29.2969
L86.7188 29.2969
L86.7188 23.4375
Q82.0312 13.6719 74.2188 6.64062
Q83.5938 1.17188 95.3125 -1.95312
L91.7969 -8.98438
Q78.5156 -5.46875 67.9688 1.5625
Q57.0312 -5.85938 42.5781 -9.375
L37.5 -1.95312
Q51.5625 0.78125 60.9375 6.64062
Q55.4688 10.9375 51.5625 17.5781
Q46.875 12.5 41.4062 8.59375
L36.3281 14.4531
Q50.3906 25 57.0312 39.8438
M67.1875 10.9375
Q73.4375 16.0156 77.3438 22.2656
L55.8594 22.2656
Q60.9375 15.625 67.1875 10.9375" id="WenQuanYiMicroHei-9675"/>
       <path d="
M91.7969 73.0469
L91.7969 55.8594
L83.5938 55.8594
L83.5938 66.0156
L16.0156 66.0156
L16.0156 56.25
L8.20312 56.25
L8.20312 73.0469
L46.875 73.0469
Q45.3125 76.5625 43.3594 79.2969
L51.1719 81.6406
Q54.2969 77.7344 55.8594 73.0469
z

M18.3594 53.125
L81.6406 53.125
L81.6406 46.0938
L54.6875 46.0938
L54.6875 28.5156
L81.25 28.5156
L81.25 21.4844
L54.6875 21.4844
L54.6875 2.73438
Q63.6719 1.95312 76.1719 1.95312
L95.3125 1.95312
L92.5781 -6.25
L76.1719 -6.25
Q50 -6.25 40.8125 -2.53125
Q31.6406 1.17188 25 11.3281
Q20.3125 0.390625 11.3281 -8.59375
L5.46875 -2.73438
Q21.875 15.2344 24.6094 38.2812
L32.4219 36.3281
Q31.25 27.3438 28.125 19.1406
Q35.9375 6.25 46.4844 3.90625
L46.4844 46.0938
L18.3594 46.0938
z
" id="WenQuanYiMicroHei-5b9a"/>
      </defs>
      <g transform="translate(38.1768184375 207.975562188)rotate(-90.0)scale(0.09996 -0.09996)">
       <use xlink:href="#WenQuanYiMicroHei-5b9a"/>
       <use x="100.0" xlink:href="#WenQuanYiMicroHei-9675"/>
      </g>
     </g>
    </g>
    <g id="xtick_2">
     <g id="line2d_4">
      <path clip-path="url(#p9819a559c5)" d="
M63.4802 184.999
L63.4802 12.1988" style="fill:none;stroke:#000000;stroke-dasharray:1.000000,3.000000;stroke-dashoffset:0.0;stroke-width:0.5;"/>
     </g>
     <g id="line2d_5">
      <g>
       <use style="stroke:#000000;stroke-width:0.5;" x="63.48020125" xlink:href="#m93b0483c22" y="184.998780938"/>
      </g>
     </g>
     <g id="line2d_6">
      <g>
       <use style="stroke:#000000;stroke-width:0.5;" x="63.48020125" xlink:href="#m741efc42ff" y="12.1987809375"/>
      </g>
     </g>
     <g id="text_2">
      <!-- 怀柔镇 -->
      <defs>
       <path d="
M6.25 23.0469
L46.0938 23.0469
L46.0938 30.8594
L54.2969 30.8594
L54.2969 23.0469
L93.3594 23.0469
L93.3594 16.4062
L60.5469 16.4062
Q73.8281 5.07812 94.9219 -0.78125
L91.0156 -8.59375
Q68.3594 -0.78125 54.2969 14.4531
L54.2969 -9.375
L46.0938 -9.375
L46.0938 15.2344
Q32.4219 0 10.1562 -8.59375
L4.6875 -1.5625
Q25.3906 5.07812 38.6719 16.4062
L6.25 16.4062
z

M15.2344 78.5156
L81.25 78.5156
L81.25 71.875
Q70.3125 65.625 54.6875 60.5469
L90.625 60.5469
L90.625 53.9062
Q85.1562 45.3125 77.7344 37.8906
L71.4844 42.5781
Q77.3438 48.0469 81.25 53.9062
L58.2031 53.9062
L58.2031 42.1875
Q58.2031 37.1094 56.0469 34.9531
Q53.9062 32.8125 46.875 32.8125
Q42.5781 32.8125 38.6719 33.5938
L37.5 41.0156
Q42.1875 39.8438 46.875 39.8438
Q50 39.8438 50 43.3594
L50 53.9062
L49.6094 53.9062
Q34.7656 40.625 10.1562 32.4219
L5.07812 39.0625
Q26.5625 44.9219 39.8438 53.9062
L7.03125 53.9062
L7.03125 60.5469
L41.7969 60.5469
Q37.1094 63.2812 31.25 65.625
L37.5 69.9219
Q42.9688 67.1875 47.6562 64.0625
Q59.375 67.5781 67.9688 71.875
L15.2344 71.875
z
" id="WenQuanYiMicroHei-67d4"/>
       <path d="
M18.3594 80.8594
L25.3906 78.5156
Q23.8281 73.4375 21.875 68.75
L39.8438 68.75
L39.8438 61.7188
L18.3594 61.7188
Q14.8438 54.6875 9.375 48.8281
L3.90625 53.9062
Q13.6719 66.4062 18.3594 80.8594
M20.7031 46.0938
L14.0625 46.0938
L14.0625 52.7344
L37.8906 52.7344
L37.8906 46.0938
L27.7344 46.0938
L27.7344 31.25
L40.2344 31.25
L40.2344 24.2188
L27.7344 24.2188
L27.7344 2.73438
Q33.5938 5.07812 38.2812 7.8125
L39.4531 0.78125
Q33.2031 -3.51562 24.2188 -6.64062
L20.7031 -3.125
L20.7031 24.2188
L7.42188 24.2188
L7.42188 31.25
L20.7031 31.25
z

M45.7031 74.2188
L65.625 74.2188
L66.7969 81.25
L75.3906 80.0781
L74.2188 74.2188
L92.9688 74.2188
L92.9688 67.5781
L73.0469 67.5781
L71.875 61.3281
L90.2344 61.3281
L90.2344 14.8438
L94.9219 14.8438
L94.9219 8.20312
L43.3594 8.20312
L43.3594 14.8438
L47.6562 14.8438
L47.6562 61.3281
L63.6719 61.3281
L64.4531 67.5781
L45.7031 67.5781
z

M82.4219 49.2188
L82.4219 54.6875
L55.4688 54.6875
L55.4688 49.2188
z

M55.4688 43.3594
L55.4688 37.8906
L82.4219 37.8906
L82.4219 43.3594
z

M82.4219 32.0312
L55.4688 32.0312
L55.4688 26.5625
L82.4219 26.5625
z

M82.4219 20.3125
L55.4688 20.3125
L55.4688 14.8438
L82.4219 14.8438
z

M76.9531 6.25
Q85.5469 3.125 93.75 -2.73438
L89.8438 -9.76562
Q81.25 -2.73438 72.2656 0.390625
z

M57.0312 6.25
L63.2812 1.17188
Q56.6406 -5.07812 47.2656 -9.375
L42.1875 -2.73438
Q50.3906 0.390625 57.0312 6.25" id="WenQuanYiMicroHei-9547"/>
       <path d="
M36.7188 76.1719
L94.1406 76.1719
L94.1406 68.75
L69.1406 68.75
Q67.9688 64.4531 66.4062 60.1562
L66.4062 -8.98438
L58.2031 -8.98438
L58.2031 43.75
Q49.6094 27.3438 34.375 14.0625
L29.2969 20.7031
Q51.5625 41.4062 60.9375 68.75
L36.7188 68.75
z

M77.7344 48.0469
Q86.7188 36.3281 95.7031 20.7031
L89.4531 14.4531
Q81.6406 29.2969 71.0938 43.75
z

M26.1719 52.7344
L26.1719 -8.98438
L18.75 -8.98438
L18.75 80.8594
L26.1719 80.8594
L26.1719 61.7188
Q33.5938 53.9062 39.0625 46.0938
L33.9844 39.4531
Q30.4688 46.875 26.1719 52.7344
M8.59375 61.3281
L15.2344 59.7656
Q14.0625 44.5312 10.1562 32.0312
L3.90625 35.5469
Q7.8125 48.4375 8.59375 61.3281" id="WenQuanYiMicroHei-6000"/>
      </defs>
      <g transform="translate(66.0768184375 218.088702813)rotate(-90.0)scale(0.09996 -0.09996)">
       <use xlink:href="#WenQuanYiMicroHei-6000"/>
       <use x="100.0" xlink:href="#WenQuanYiMicroHei-67d4"/>
       <use x="200.0" xlink:href="#WenQuanYiMicroHei-9547"/>
      </g>
     </g>
    </g>
    <g id="xtick_3">
     <g id="line2d_7">
      <path clip-path="url(#p9819a559c5)" d="
M91.3802 184.999
L91.3802 12.1988" style="fill:none;stroke:#000000;stroke-dasharray:1.000000,3.000000;stroke-dashoffset:0.0;stroke-width:0.5;"/>
     </g>
     <g id="line2d_8">
      <g>
       <use style="stroke:#000000;stroke-width:0.5;" x="91.38020125" xlink:href="#m93b0483c22" y="184.998780938"/>
      </g>
     </g>
     <g id="line2d_9">
      <g>
       <use style="stroke:#000000;stroke-width:0.5;" x="91.38020125" xlink:href="#m741efc42ff" y="12.1987809375"/>
      </g>
     </g>
     <g id="text_3">
      <!-- 昌平镇 -->
      <defs>
       <path d="
M16.7969 77.7344
L83.2031 77.7344
L83.2031 41.7969
L16.7969 41.7969
z

M24.6094 63.2812
L75.3906 63.2812
L75.3906 70.3125
L24.6094 70.3125
z

M24.6094 48.8281
L75.3906 48.8281
L75.3906 56.25
L24.6094 56.25
z

M87.8906 35.9375
L87.8906 -8.98438
L80.0781 -8.98438
L80.0781 -2.34375
L19.5312 -2.34375
L19.5312 -8.98438
L11.7188 -8.98438
L11.7188 35.9375
z

M19.5312 19.9219
L80.0781 19.9219
L80.0781 29.6875
L19.5312 29.6875
z

M19.5312 4.29688
L80.0781 4.29688
L80.0781 13.6719
L19.5312 13.6719
z
" id="WenQuanYiMicroHei-660c"/>
       <path d="
M10.9375 76.9531
L88.6719 76.9531
L88.6719 69.5312
L54.2969 69.5312
L54.2969 30.4688
L93.75 30.4688
L93.75 23.0469
L54.2969 23.0469
L54.2969 -8.59375
L46.4844 -8.59375
L46.4844 23.0469
L6.25 23.0469
L6.25 30.4688
L46.4844 30.4688
L46.4844 69.5312
L10.9375 69.5312
z

M75.7812 64.8438
L83.9844 62.1094
Q78.9062 46.0938 72.2656 34.7656
L64.4531 39.0625
Q71.875 52.3438 75.7812 64.8438
M22.2656 63.6719
Q29.6875 52.3438 34.7656 38.2812
L26.5625 34.7656
Q21.875 48.8281 14.8438 60.1562
z
" id="WenQuanYiMicroHei-5e73"/>
      </defs>
      <g transform="translate(93.9768184375 217.307765313)rotate(-90.0)scale(0.09996 -0.09996)">
       <use xlink:href="#WenQuanYiMicroHei-660c"/>
       <use x="100.0" xlink:href="#WenQuanYiMicroHei-5e73"/>
       <use x="200.0" xlink:href="#WenQuanYiMicroHei-9547"/>
      </g>
     </g>
    </g>
    <g id="xtick_4">
     <g id="line2d_10">
      <path clip-path="url(#p9819a559c5)" d="
M119.28 184.999
L119.28 12.1988" style="fill:none;stroke:#000000;stroke-dasharray:1.000000,3.000000;stroke-dashoffset:0.0;stroke-width:0.5;"/>
     </g>
     <g id="line2d_11">
      <g>
       <use style="stroke:#000000;stroke-width:0.5;" x="119.28020125" xlink:href="#m93b0483c22" y="184.998780938"/>
      </g>
     </g>
     <g id="line2d_12">
      <g>
       <use style="stroke:#000000;stroke-width:0.5;" x="119.28020125" xlink:href="#m741efc42ff" y="12.1987809375"/>
      </g>
     </g>
     <g id="text_4">
      <!-- 顺义新城 -->
      <defs>
       <path d="
M49.6094 78.9062
Q54.6875 67.5781 56.25 55.8594
L48.4375 53.5156
Q46.4844 66.0156 41.4062 76.9531
z

M25 69.1406
Q30.0781 46.875 51.9531 23.8281
Q70.7031 41.0156 75.7812 71.4844
L83.2031 69.5312
Q78.5156 37.8906 58.2031 18.3594
Q72.2656 7.03125 93.75 -1.5625
L89.4531 -9.375
Q67.9688 -1.17188 51.9531 12.8906
Q35.9375 -0.390625 11.7188 -9.375
L7.8125 -1.95312
Q30.8594 7.03125 45.7031 18.75
Q23.8281 40.625 17.1875 67.1875
z
" id="WenQuanYiMicroHei-4e49"/>
       <path d="
M8.59375 72.2656
L25.7812 72.2656
Q24.2188 76.1719 21.4844 79.6875
L28.5156 81.6406
Q31.6406 77.3438 33.9844 72.2656
L51.5625 72.2656
L51.5625 65.625
L47.2656 65.625
Q44.1406 56.6406 40.2344 49.6094
L52.3438 49.6094
L52.3438 42.9688
L33.2031 42.9688
L33.2031 33.2031
L49.6094 33.2031
L49.6094 26.5625
L33.2031 26.5625
L33.2031 0.390625
Q33.2031 -5.07812 31.25 -7.03125
Q29.2969 -8.98438 23.4375 -8.98438
Q19.5312 -8.98438 16.4062 -7.8125
L14.8438 -0.390625
Q19.1406 -1.95312 23.4375 -1.95312
Q25.3906 -1.95312 25.3906 1.5625
L25.3906 26.5625
L8.20312 26.5625
L8.20312 33.2031
L25.3906 33.2031
L25.3906 42.9688
L6.25 42.9688
L6.25 49.6094
L19.5312 49.6094
Q17.5781 58.2031 14.4531 65.625
L8.59375 65.625
z

M26.5625 49.6094
L33.2031 49.6094
Q36.3281 57.0312 39.0625 65.625
L21.875 65.625
Q24.6094 58.2031 26.5625 49.6094
M15.625 22.2656
L21.875 19.1406
Q16.4062 7.03125 9.76562 0.78125
L4.29688 5.46875
Q11.3281 12.8906 15.625 22.2656
M41.4062 21.875
Q46.875 15.625 50.3906 8.59375
L44.1406 5.07812
Q41.0156 12.1094 35.5469 18.3594
z

M90.625 79.2969
L94.5312 72.6562
Q81.6406 69.1406 64.0625 67.1875
L64.0625 49.2188
L94.9219 49.2188
L94.9219 42.5781
L85.5469 42.5781
L85.5469 -7.8125
L78.5156 -7.8125
L78.5156 42.5781
L64.0625 42.5781
Q63.6719 19.1406 61.125 9.17188
Q58.5938 -0.78125 53.125 -8.59375
L46.875 -3.51562
Q51.9531 3.51562 54.2969 13.8594
Q56.6406 24.2188 56.6406 51.1719
L56.6406 73.4375
Q77.7344 75.3906 90.625 79.2969" id="WenQuanYiMicroHei-65b0"/>
       <path d="
M5.46875 57.8125
L15.2344 57.8125
L15.2344 79.2969
L22.6562 79.2969
L22.6562 57.8125
L33.2031 57.8125
L33.2031 50.3906
L22.6562 50.3906
L22.6562 19.5312
Q27.7344 21.4844 31.6406 23.4375
L32.8125 16.4062
Q20.7031 10.1562 5.85938 5.85938
L4.29688 13.6719
Q10.1562 15.2344 15.2344 17.1875
L15.2344 50.3906
L5.46875 50.3906
z

M94.1406 65.625
L94.1406 58.5938
L73.0469 58.5938
Q73.8281 32.0312 76.5625 21.875
Q81.25 32.4219 84.375 49.6094
L91.4062 48.0469
Q86.7188 23.8281 79.6875 11.3281
Q84.375 0 87.1094 0
Q88.2812 0 89.0625 16.0156
L96.875 13.2812
Q94.5312 -8.98438 87.1094 -8.98438
Q84.7656 -8.98438 81.25 -5.07812
Q77.7344 -1.17188 75 4.6875
Q69.1406 -3.125 60.1562 -9.76562
L55.0781 -4.29688
Q65.2344 3.90625 71.875 13.2812
Q66.7969 27.3438 65.625 58.5938
L44.1406 58.5938
L44.1406 44.1406
L62.5 44.1406
Q62.5 14.4531 60.3438 9.375
Q58.2031 4.29688 51.9531 4.29688
Q49.6094 4.29688 46.875 5.07812
L45.3125 12.5
Q48.4375 11.7188 51.9531 11.7188
Q53.5156 11.7188 54.2969 14.6406
Q55.0781 17.5781 55.0781 37.5
L44.1406 37.5
L44.1406 31.25
Q44.1406 8.98438 32.8125 -8.59375
L26.1719 -4.6875
Q37.1094 12.8906 37.1094 34.375
L37.1094 65.625
L65.625 65.625
Q65.2344 73.0469 65.2344 80.8594
L73.0469 80.8594
L73.0469 65.625
z

M83.2031 80.8594
Q87.1094 76.9531 91.0156 71.4844
L85.5469 67.1875
Q82.0312 72.2656 77.3438 76.9531
z
" id="WenQuanYiMicroHei-57ce"/>
       <path d="
M90.625 62.8906
L90.625 12.1094
L83.2031 12.1094
L83.2031 55.8594
L61.7188 55.8594
L61.7188 11.7188
L53.9062 11.7188
L53.9062 62.8906
L66.4062 62.8906
L67.5781 70.7031
L50.7812 70.7031
L50.7812 77.7344
L93.3594 77.7344
L93.3594 70.7031
L75.3906 70.7031
Q75 66.7969 74.2188 62.8906
z

M68.75 47.6562
L76.1719 47.6562
Q76.1719 22.6562 74.2188 15.2344
Q72.2656 7.8125 66.7969 1.5625
Q61.3281 -4.6875 51.5625 -8.98438
L46.4844 -2.34375
Q55.4688 1.5625 60.3438 6.82812
Q65.2344 12.1094 66.9844 18.75
Q68.75 25.3906 68.75 47.6562
M79.2969 12.8906
Q87.1094 6.25 94.9219 -2.73438
L89.0625 -8.98438
Q82.0312 0 73.0469 8.59375
z

M9.375 80.8594
L16.4062 80.8594
L16.4062 37.1094
Q16.4062 9.76562 10.5469 -8.98438
L4.29688 -3.90625
Q9.375 12.5 9.375 37.1094
z

M36.3281 80.8594
L43.3594 80.8594
L43.3594 -8.98438
L36.3281 -8.98438
z

M22.6562 75.7812
L29.6875 75.7812
L29.6875 1.17188
L22.6562 1.17188
z
" id="WenQuanYiMicroHei-987a"/>
      </defs>
      <g transform="translate(121.876818437 228.240890313)rotate(-90.0)scale(0.09996 -0.09996)">
       <use xlink:href="#WenQuanYiMicroHei-987a"/>
       <use x="100.0" xlink:href="#WenQuanYiMicroHei-4e49"/>
       <use x="200.0" xlink:href="#WenQuanYiMicroHei-65b0"/>
       <use x="300.0" xlink:href="#WenQuanYiMicroHei-57ce"/>
      </g>
     </g>
    </g>
    <g id="xtick_5">
     <g id="line2d_13">
      <path clip-path="url(#p9819a559c5)" d="
M147.18 184.999
L147.18 12.1988" style="fill:none;stroke:#000000;stroke-dasharray:1.000000,3.000000;stroke-dashoffset:0.0;stroke-width:0.5;"/>
     </g>
     <g id="line2d_14">
      <g>
       <use style="stroke:#000000;stroke-width:0.5;" x="147.18020125" xlink:href="#m93b0483c22" y="184.998780938"/>
      </g>
     </g>
     <g id="line2d_15">
      <g>
       <use style="stroke:#000000;stroke-width:0.5;" x="147.18020125" xlink:href="#m741efc42ff" y="12.1987809375"/>
      </g>
     </g>
     <g id="text_5">
      <!-- 天坛 -->
      <defs>
       <path d="
M12.8906 76.1719
L86.3281 76.1719
L86.3281 68.75
L53.125 68.75
Q53.125 48.4375 52.7344 46.0938
L91.7969 46.0938
L91.7969 38.6719
L53.5156 38.6719
Q64.4531 10.9375 94.9219 -1.17188
L89.4531 -9.375
Q60.9375 4.29688 50.3906 27.3438
Q43.3594 2.73438 10.1562 -9.375
L5.46875 -1.5625
Q24.6094 5.07812 33.5938 14.8438
Q42.5781 24.6094 44.1406 38.6719
L7.42188 38.6719
L7.42188 46.0938
L44.9219 46.0938
Q45.3125 51.1719 45.3125 68.75
L12.8906 68.75
z
" id="WenQuanYiMicroHei-5929"/>
       <path d="
M7.03125 57.8125
L20.3125 57.8125
L20.3125 79.6875
L28.5156 79.6875
L28.5156 57.8125
L41.0156 57.8125
L41.0156 50.3906
L28.5156 50.3906
L28.5156 21.4844
Q36.3281 24.2188 43.3594 27.3438
L44.1406 19.9219
Q26.9531 12.1094 7.03125 5.85938
L5.46875 14.0625
Q13.2812 16.4062 20.3125 18.75
L20.3125 50.3906
L7.03125 50.3906
z

M46.0938 76.5625
L90.625 76.5625
L90.625 69.1406
L46.0938 69.1406
z

M39.8438 46.4844
L94.5312 46.4844
L94.5312 39.0625
L68.75 39.0625
Q59.7656 11.7188 50.7812 0.390625
Q65.2344 1.17188 82.8125 5.85938
Q79.2969 16.0156 75 24.6094
L81.6406 27.7344
Q89.8438 12.1094 95.7031 -6.25
L87.5 -9.76562
Q86.7188 -5.46875 85.1562 -1.5625
Q64.8438 -7.03125 44.1406 -7.8125
L40.625 0.390625
Q52.7344 16.4062 60.1562 39.0625
L39.8438 39.0625
z
" id="WenQuanYiMicroHei-575b"/>
      </defs>
      <g transform="translate(149.776818437 208.014609063)rotate(-90.0)scale(0.09996 -0.09996)">
       <use xlink:href="#WenQuanYiMicroHei-5929"/>
       <use x="100.0" xlink:href="#WenQuanYiMicroHei-575b"/>
      </g>
     </g>
    </g>
    <g id="xtick_6">
     <g id="line2d_16">
      <path clip-path="url(#p9819a559c5)" d="
M175.08 184.999
L175.08 12.1988" style="fill:none;stroke:#000000;stroke-dasharray:1.000000,3.000000;stroke-dashoffset:0.0;stroke-width:0.5;"/>
     </g>
     <g id="line2d_17">
      <g>
       <use style="stroke:#000000;stroke-width:0.5;" x="175.08020125" xlink:href="#m93b0483c22" y="184.998780938"/>
      </g>
     </g>
     <g id="line2d_18">
      <g>
       <use style="stroke:#000000;stroke-width:0.5;" x="175.08020125" xlink:href="#m741efc42ff" y="12.1987809375"/>
      </g>
     </g>
     <g id="text_6">
      <!-- 官园 -->
      <defs>
       <path d="
M27.7344 63.2812
L70.3125 63.2812
L70.3125 55.8594
L27.7344 55.8594
z

M23.0469 45.7031
L76.1719 45.7031
L76.1719 38.2812
L61.7188 38.2812
L61.7188 19.5312
Q61.7188 17.5781 62.5 17.1875
Q62.8906 16.7969 65.2344 16.7969
Q70.3125 16.7969 71.6719 18.3594
Q73.0469 19.9219 73.8281 26.5625
L80.8594 23.8281
Q79.2969 14.0625 76.5625 11.7188
Q73.8281 9.375 65.2344 9.375
Q58.2031 9.375 56.0469 11.3281
Q53.9062 13.2812 53.9062 18.3594
L53.9062 38.2812
L44.1406 38.2812
Q43.3594 25.7812 39.4531 19.5312
Q35.5469 13.2812 24.6094 8.20312
L20.3125 14.8438
Q29.2969 18.75 32.4219 23.8281
Q35.5469 28.9062 36.3281 38.2812
L23.0469 38.2812
z

M91.0156 77.7344
L91.0156 -8.98438
L83.2031 -8.98438
L83.2031 -3.51562
L16.7969 -3.51562
L16.7969 -8.98438
L8.98438 -8.98438
L8.98438 77.7344
z

M16.7969 3.90625
L83.2031 3.90625
L83.2031 70.3125
L16.7969 70.3125
z
" id="WenQuanYiMicroHei-56ed"/>
       <path d="
M50.7812 81.6406
Q53.5156 77.3438 55.0781 72.2656
L92.5781 72.2656
L92.5781 54.2969
L84.7656 54.2969
L84.7656 65.2344
L15.2344 65.2344
L15.2344 54.2969
L7.42188 54.2969
L7.42188 72.2656
L46.4844 72.2656
Q44.5312 76.1719 42.5781 79.2969
z

M77.7344 57.0312
L77.7344 32.0312
L26.1719 32.0312
L26.1719 23.0469
L83.5938 23.0469
L83.5938 -8.59375
L76.1719 -8.59375
L76.1719 -3.90625
L26.1719 -3.90625
L26.1719 -8.98438
L18.75 -8.98438
L18.75 57.0312
z

M26.1719 39.0625
L70.7031 39.0625
L70.7031 50
L26.1719 50
z

M26.1719 3.125
L76.1719 3.125
L76.1719 16.0156
L26.1719 16.0156
z
" id="WenQuanYiMicroHei-5b98"/>
      </defs>
      <g transform="translate(177.676818437 207.350812188)rotate(-90.0)scale(0.09996 -0.09996)">
       <use xlink:href="#WenQuanYiMicroHei-5b98"/>
       <use x="100.0" xlink:href="#WenQuanYiMicroHei-56ed"/>
      </g>
     </g>
    </g>
    <g id="xtick_7">
     <g id="line2d_19">
      <path clip-path="url(#p9819a559c5)" d="
M202.98 184.999
L202.98 12.1988" style="fill:none;stroke:#000000;stroke-dasharray:1.000000,3.000000;stroke-dashoffset:0.0;stroke-width:0.5;"/>
     </g>
     <g id="line2d_20">
      <g>
       <use style="stroke:#000000;stroke-width:0.5;" x="202.98020125" xlink:href="#m93b0483c22" y="184.998780938"/>
      </g>
     </g>
     <g id="line2d_21">
      <g>
       <use style="stroke:#000000;stroke-width:0.5;" x="202.98020125" xlink:href="#m741efc42ff" y="12.1987809375"/>
      </g>
     </g>
     <g id="text_7">
      <!-- 古城 -->
      <defs>
       <path d="
M6.64062 61.3281
L45.7031 61.3281
L45.7031 80.8594
L53.9062 80.8594
L53.9062 61.3281
L92.9688 61.3281
L92.9688 54.2969
L53.9062 54.2969
L53.9062 34.7656
L82.8125 34.7656
L82.8125 -8.98438
L75 -8.98438
L75 -2.34375
L25.7812 -2.34375
L25.7812 -8.98438
L17.9688 -8.98438
L17.9688 34.7656
L45.7031 34.7656
L45.7031 54.2969
L6.64062 54.2969
z

M25.7812 5.07812
L75 5.07812
L75 27.3438
L25.7812 27.3438
z
" id="WenQuanYiMicroHei-53e4"/>
      </defs>
      <g transform="translate(205.576818437 208.014609063)rotate(-90.0)scale(0.09996 -0.09996)">
       <use xlink:href="#WenQuanYiMicroHei-53e4"/>
       <use x="100.0" xlink:href="#WenQuanYiMicroHei-57ce"/>
      </g>
     </g>
    </g>
    <g id="xtick_8">
     <g id="line2d_22">
      <path clip-path="url(#p9819a559c5)" d="
M230.88 184.999
L230.88 12.1988" style="fill:none;stroke:#000000;stroke-dasharray:1.000000,3.000000;stroke-dashoffset:0.0;stroke-width:0.5;"/>
     </g>
     <g id="line2d_23">
      <g>
       <use style="stroke:#000000;stroke-width:0.5;" x="230.88020125" xlink:href="#m93b0483c22" y="184.998780938"/>
      </g>
     </g>
     <g id="line2d_24">
      <g>
       <use style="stroke:#000000;stroke-width:0.5;" x="230.88020125" xlink:href="#m741efc42ff" y="12.1987809375"/>
      </g>
     </g>
     <g id="text_8">
      <!-- 万寿西宫 -->
      <defs>
       <path d="
M31.6406 67.9688
L6.25 67.9688
L6.25 75.3906
L93.3594 75.3906
L93.3594 67.9688
L39.4531 67.9688
Q39.4531 57.4219 38.6719 49.2188
L82.8125 49.2188
Q82.8125 8.20312 79.875 0.390625
Q76.9531 -7.42188 68.3594 -7.42188
Q63.6719 -7.42188 56.6406 -5.85938
L55.4688 1.5625
Q62.5 0 67.1875 0
Q70.7031 0 72.4531 4.6875
Q74.2188 9.375 75 41.7969
L38.2812 41.7969
Q36.7188 23.8281 30.6562 12.2969
Q24.6094 0.78125 11.3281 -8.98438
L5.85938 -2.73438
Q16.7969 4.29688 24.2188 17.1875
Q31.6406 30.0781 31.6406 67.9688" id="WenQuanYiMicroHei-4e07"/>
       <path d="
M50.7812 81.6406
Q53.5156 77.3438 55.0781 72.2656
L92.5781 72.2656
L92.5781 54.2969
L84.7656 54.2969
L84.7656 65.2344
L15.2344 65.2344
L15.2344 54.2969
L7.42188 54.2969
L7.42188 72.2656
L46.4844 72.2656
Q44.5312 76.1719 42.5781 79.2969
z

M22.6562 55.8594
L76.5625 55.8594
L76.5625 29.6875
L22.6562 29.6875
z

M30.4688 37.1094
L68.75 37.1094
L68.75 48.4375
L30.4688 48.4375
z

M84.375 23.0469
L84.375 -9.375
L76.5625 -9.375
L76.5625 -3.90625
L23.4375 -3.90625
L23.4375 -9.375
L15.625 -9.375
L15.625 23.0469
z

M23.4375 3.51562
L76.5625 3.51562
L76.5625 15.625
L23.4375 15.625
z
" id="WenQuanYiMicroHei-5bab"/>
       <path d="
M9.375 73.4375
L41.7969 73.4375
L42.5781 81.6406
L50 80.8594
L49.2188 73.4375
L89.4531 73.4375
L89.4531 66.4062
L48.4375 66.4062
L46.875 58.2031
L85.5469 58.2031
L85.5469 51.1719
L45.3125 51.1719
Q44.1406 46.875 42.5781 42.9688
L94.9219 42.9688
L94.9219 35.9375
L77.3438 35.9375
L77.3438 27.7344
L92.1875 27.7344
L92.1875 20.7031
L77.3438 20.7031
L77.3438 0.78125
Q77.3438 -4.6875 75.1875 -6.82812
Q73.0469 -8.98438 66.0156 -8.98438
Q59.7656 -8.98438 54.6875 -7.8125
L53.5156 0
Q59.7656 -1.5625 66.0156 -1.5625
Q69.5312 -1.5625 69.5312 1.95312
L69.5312 20.7031
L31.25 20.7031
Q22.6562 8.59375 10.1562 -1.17188
L5.07812 5.46875
Q19.9219 16.4062 31.25 35.9375
L4.6875 35.9375
L4.6875 42.9688
L34.375 42.9688
Q35.9375 46.875 37.1094 51.1719
L13.6719 51.1719
L13.6719 58.2031
L39.0625 58.2031
L40.625 66.4062
L9.375 66.4062
z

M69.5312 27.7344
L69.5312 35.9375
L39.8438 35.9375
Q38.6719 32.8125 35.9375 27.7344
z

M40.625 17.9688
Q45.7031 12.5 50.7812 5.07812
L43.75 -0.390625
Q39.4531 6.64062 33.9844 13.6719
z
" id="WenQuanYiMicroHei-5bff"/>
       <path d="
M88.6719 53.9062
L88.6719 -8.98438
L80.8594 -8.98438
L80.8594 -1.5625
L19.1406 -1.5625
L19.1406 -8.98438
L11.3281 -8.98438
L11.3281 53.9062
L35.5469 53.9062
L35.5469 70.3125
L5.85938 70.3125
L5.85938 77.7344
L94.1406 77.7344
L94.1406 70.3125
L64.8438 70.3125
L64.8438 53.9062
z

M57.0312 70.3125
L43.3594 70.3125
L43.3594 53.9062
L57.0312 53.9062
z

M19.1406 5.85938
L80.8594 5.85938
L80.8594 21.0938
Q77.7344 20.7031 74.6094 20.7031
Q62.8906 20.7031 60.1562 22.2656
Q57.0312 24.6094 57.0312 30.0781
L57.0312 46.4844
L43.3594 46.4844
L43.3594 45.7031
Q43.3594 28.9062 25.7812 18.75
L21.0938 26.1719
Q35.5469 33.9844 35.5469 45.7031
L35.5469 46.4844
L19.1406 46.4844
z

M64.8438 46.4844
L64.8438 32.0312
Q64.8438 29.6875 66.4062 29.0938
Q67.9688 28.5156 74.6094 28.5156
Q77.7344 28.5156 80.8594 28.9062
L80.8594 46.4844
z
" id="WenQuanYiMicroHei-897f"/>
      </defs>
      <g transform="translate(233.476818437 227.655187188)rotate(-90.0)scale(0.09996 -0.09996)">
       <use xlink:href="#WenQuanYiMicroHei-4e07"/>
       <use x="100.0" xlink:href="#WenQuanYiMicroHei-5bff"/>
       <use x="200.0" xlink:href="#WenQuanYiMicroHei-897f"/>
       <use x="300.0" xlink:href="#WenQuanYiMicroHei-5bab"/>
      </g>
     </g>
    </g>
    <g id="xtick_9">
     <g id="line2d_25">
      <path clip-path="url(#p9819a559c5)" d="
M258.78 184.999
L258.78 12.1988" style="fill:none;stroke:#000000;stroke-dasharray:1.000000,3.000000;stroke-dashoffset:0.0;stroke-width:0.5;"/>
     </g>
     <g id="line2d_26">
      <g>
       <use style="stroke:#000000;stroke-width:0.5;" x="258.78020125" xlink:href="#m93b0483c22" y="184.998780938"/>
      </g>
     </g>
     <g id="line2d_27">
      <g>
       <use style="stroke:#000000;stroke-width:0.5;" x="258.78020125" xlink:href="#m741efc42ff" y="12.1987809375"/>
      </g>
     </g>
     <g id="text_9">
      <!-- 东四 -->
      <defs>
       <path d="
M49.6094 54.2969
L57.4219 54.2969
L57.4219 36.3281
L90.2344 36.3281
L90.2344 28.9062
L57.4219 28.9062
L57.4219 1.5625
Q57.4219 -4.29688 55.4688 -6.4375
Q53.5156 -8.59375 48.0469 -8.59375
Q42.9688 -8.59375 38.2812 -7.8125
L36.7188 -0.390625
Q41.7969 -1.17188 46.875 -1.17188
Q49.6094 -1.17188 49.6094 3.125
L49.6094 28.9062
L14.8438 28.9062
L12.8906 36.3281
Q23.0469 46.4844 30.4688 60.5469
L7.42188 60.5469
L7.42188 67.9688
L34.375 67.9688
Q37.5 74.2188 39.8438 80.8594
L48.0469 79.2969
L43.3594 67.9688
L92.1875 67.9688
L92.1875 60.5469
L39.8438 60.5469
Q32.8125 46.4844 23.8281 36.3281
L49.6094 36.3281
z

M72.2656 23.8281
Q84.7656 14.4531 95.3125 1.5625
L89.8438 -5.07812
Q79.2969 8.59375 67.1875 18.75
z

M29.2969 23.4375
L35.9375 19.5312
Q28.125 5.85938 11.7188 -5.07812
L6.64062 1.17188
Q22.2656 11.3281 29.2969 23.4375" id="WenQuanYiMicroHei-4e1c"/>
       <path d="
M91.0156 77.7344
L91.0156 -8.98438
L83.2031 -8.98438
L83.2031 -3.51562
L16.7969 -3.51562
L16.7969 -8.98438
L8.98438 -8.98438
L8.98438 77.7344
z

M16.7969 3.90625
L83.2031 3.90625
L83.2031 70.3125
L16.7969 70.3125
z

M34.375 73.8281
L41.7969 73.8281
Q41.7969 43.75 37.2969 31.8281
Q32.8125 19.9219 22.2656 12.8906
L18.3594 19.9219
Q26.9531 26.1719 30.6562 36.5156
Q34.375 46.875 34.375 73.8281
M78.125 26.9531
L78.125 19.9219
Q74.6094 19.1406 70.7031 19.1406
Q60.9375 19.1406 58.9844 20.7031
Q55.8594 22.6562 55.8594 27.7344
L55.8594 73.8281
L63.2812 73.8281
L63.2812 29.2969
Q63.2812 27.7344 64.4531 26.9531
Q65.625 26.1719 70.7031 26.1719
Q74.6094 26.1719 78.125 26.9531" id="WenQuanYiMicroHei-56db"/>
      </defs>
      <g transform="translate(261.376818437 207.428905938)rotate(-90.0)scale(0.09996 -0.09996)">
       <use xlink:href="#WenQuanYiMicroHei-4e1c"/>
       <use x="100.0" xlink:href="#WenQuanYiMicroHei-56db"/>
      </g>
     </g>
    </g>
    <g id="xtick_10">
     <g id="line2d_28">
      <path clip-path="url(#p9819a559c5)" d="
M286.68 184.999
L286.68 12.1988" style="fill:none;stroke:#000000;stroke-dasharray:1.000000,3.000000;stroke-dashoffset:0.0;stroke-width:0.5;"/>
     </g>
     <g id="line2d_29">
      <g>
       <use style="stroke:#000000;stroke-width:0.5;" x="286.68020125" xlink:href="#m93b0483c22" y="184.998780938"/>
      </g>
     </g>
     <g id="line2d_30">
      <g>
       <use style="stroke:#000000;stroke-width:0.5;" x="286.68020125" xlink:href="#m741efc42ff" y="12.1987809375"/>
      </g>
     </g>
     <g id="text_10">
      <!-- 海淀区万柳 -->
      <defs>
       <path d="
M14.0625 80.0781
Q22.6562 75.3906 29.6875 68.75
L24.6094 62.1094
Q16.7969 69.5312 8.59375 74.6094
z

M10.1562 55.8594
Q17.9688 51.5625 24.6094 46.0938
L19.1406 39.4531
Q12.5 46.0938 4.6875 50.3906
z

M19.1406 31.25
L25.7812 26.5625
Q21.0938 8.20312 12.1094 -8.98438
L4.29688 -3.51562
Q13.6719 12.8906 19.1406 31.25
M42.9688 81.25
L51.1719 79.2969
Q50 75.7812 48.4375 72.2656
L91.4062 72.2656
L91.4062 65.2344
L44.5312 65.2344
Q39.8438 57.0312 32.8125 50.7812
L27.3438 56.6406
Q37.8906 66.4062 42.9688 81.25
M41.4062 57.0312
L88.2812 57.0312
L87.5 34.375
L95.7031 34.375
L95.7031 27.3438
L87.1094 27.3438
Q86.7188 19.1406 85.5469 11.3281
L94.5312 11.3281
L94.5312 4.6875
L85.1562 4.6875
Q83.5938 -8.98438 72.6562 -8.98438
Q68.75 -8.98438 62.1094 -8.20312
L60.9375 -1.5625
Q68.3594 -2.34375 72.6562 -2.34375
Q76.1719 -2.34375 76.9531 4.6875
L34.375 4.6875
Q36.7188 15.2344 38.2812 27.3438
L29.6875 27.3438
L29.6875 34.375
L39.4531 34.375
Q40.625 45.3125 41.4062 57.0312
M47.2656 34.375
L79.6875 34.375
Q80.0781 42.5781 80.0781 50.3906
L48.4375 50.3906
Q48.0469 41.7969 47.2656 34.375
M60.9375 48.4375
Q65.625 45.7031 69.5312 41.7969
L64.4531 35.9375
Q60.5469 40.625 55.8594 43.75
z

M77.7344 11.3281
L79.2969 27.3438
L46.4844 27.3438
Q45.3125 18.75 43.75 11.3281
z

M59.7656 25.7812
Q64.8438 22.6562 69.1406 18.75
L64.4531 12.8906
Q59.7656 17.5781 55.0781 20.7031
z
" id="WenQuanYiMicroHei-6d77"/>
       <path d="
M89.8438 77.7344
L89.8438 70.3125
L17.9688 70.3125
L17.9688 1.95312
L92.9688 1.95312
L92.9688 -5.46875
L10.1562 -5.46875
L10.1562 77.7344
z

M70.7031 64.8438
L78.125 60.9375
Q70.7031 48.8281 61.3281 37.1094
Q71.875 26.5625 81.25 15.2344
L75 8.98438
Q66.0156 20.3125 55.8594 30.8594
Q48.0469 21.0938 29.6875 7.42188
L25 14.4531
Q36.7188 22.2656 50 36.7188
Q38.6719 48.0469 25.7812 58.5938
L32.0312 63.2812
Q44.5312 53.125 55.0781 42.9688
Q63.6719 53.125 70.7031 64.8438" id="WenQuanYiMicroHei-533a"/>
       <path d="
M14.0625 80.0781
Q21.4844 76.1719 27.7344 70.7031
L22.2656 64.4531
Q15.625 70.3125 8.59375 74.6094
z

M10.1562 55.8594
Q17.9688 51.5625 24.6094 46.0938
L19.1406 39.4531
Q12.5 46.0938 4.6875 50.3906
z

M23.8281 32.0312
L30.4688 27.7344
Q24.2188 8.98438 12.8906 -8.59375
L5.46875 -3.125
Q16.7969 13.6719 23.8281 32.0312
M91.0156 73.0469
L91.0156 56.6406
L83.5938 56.6406
L83.5938 66.0156
L39.4531 66.0156
L39.4531 56.6406
L32.0312 56.6406
L32.0312 73.0469
L57.8125 73.0469
Q56.25 76.5625 54.2969 79.2969
L62.1094 81.6406
Q64.8438 77.7344 66.7969 73.0469
z

M39.0625 51.9531
L84.375 51.9531
L84.375 44.5312
L65.2344 44.5312
L65.2344 28.5156
L86.7188 28.5156
L86.7188 21.4844
L65.2344 21.4844
L65.2344 2.73438
Q73.0469 1.5625 84.375 1.5625
L94.9219 1.5625
L92.1875 -6.25
L84.375 -6.25
Q66.0156 -6.25 56.25 -2.73438
Q46.4844 0.78125 41.0156 7.8125
Q36.7188 -1.5625 30.8594 -8.98438
L25 -3.125
Q38.2812 14.8438 41.0156 37.8906
L48.0469 35.9375
Q46.875 25 43.75 15.2344
Q49.2188 7.8125 57.8125 4.6875
L57.8125 44.5312
L39.0625 44.5312
z
" id="WenQuanYiMicroHei-6dc0"/>
       <path d="
M7.03125 62.8906
L17.5781 62.8906
L17.5781 80.8594
L25 80.8594
L25 62.8906
L35.1562 62.8906
L35.1562 55.4688
L25 55.4688
L25 50.3906
Q31.25 41.4062 35.9375 33.2031
L30.8594 25.7812
Q28.125 33.2031 25 39.0625
L25 -8.98438
L17.5781 -8.98438
L17.5781 32.0312
Q14.4531 21.4844 9.375 12.1094
L3.90625 17.5781
Q13.6719 34.375 16.7969 55.4688
L7.03125 55.4688
z

M59.375 80.8594
L65.2344 74.6094
Q56.6406 69.5312 46.0938 67.1875
L46.0938 24.2188
Q50 25.7812 52.7344 27.3438
Q54.2969 32.0312 54.2969 63.6719
L61.7188 63.6719
Q61.7188 32.0312 59.9531 22.0625
Q58.2031 12.1094 53.125 4.48438
Q48.0469 -3.125 40.2344 -8.59375
L35.5469 -2.34375
Q46.4844 4.6875 51.1719 18.3594
L41.7969 14.8438
L38.2812 18.75
L38.2812 72.6562
Q50.7812 75.3906 59.375 80.8594
M85.9375 68.3594
L75.3906 68.3594
L75.3906 -8.98438
L67.9688 -8.98438
L67.9688 75.3906
L93.3594 75.3906
L93.3594 15.2344
Q93.3594 10.9375 91.4062 8.78125
Q89.4531 6.64062 85.9375 6.64062
Q83.2031 6.64062 79.2969 7.42188
L77.7344 14.8438
Q82.0312 14.0625 83.9844 14.0625
Q85.9375 14.0625 85.9375 16.4062
z
" id="WenQuanYiMicroHei-67f3"/>
      </defs>
      <g transform="translate(289.276818437 237.885468438)rotate(-90.0)scale(0.09996 -0.09996)">
       <use xlink:href="#WenQuanYiMicroHei-6d77"/>
       <use x="100.0" xlink:href="#WenQuanYiMicroHei-6dc0"/>
       <use x="200.0" xlink:href="#WenQuanYiMicroHei-533a"/>
       <use x="300.0" xlink:href="#WenQuanYiMicroHei-4e07"/>
       <use x="400.0" xlink:href="#WenQuanYiMicroHei-67f3"/>
      </g>
     </g>
    </g>
    <g id="xtick_11">
     <g id="line2d_31">
      <path clip-path="url(#p9819a559c5)" d="
M314.58 184.999
L314.58 12.1988" style="fill:none;stroke:#000000;stroke-dasharray:1.000000,3.000000;stroke-dashoffset:0.0;stroke-width:0.5;"/>
     </g>
     <g id="line2d_32">
      <g>
       <use style="stroke:#000000;stroke-width:0.5;" x="314.58020125" xlink:href="#m93b0483c22" y="184.998780938"/>
      </g>
     </g>
     <g id="line2d_33">
      <g>
       <use style="stroke:#000000;stroke-width:0.5;" x="314.58020125" xlink:href="#m741efc42ff" y="12.1987809375"/>
      </g>
     </g>
     <g id="text_11">
      <!-- 奥体中心 -->
      <defs>
       <path d="
M5.07812 18.3594
L44.1406 18.3594
Q45.3125 21.4844 46.0938 25.3906
L53.9062 23.8281
Q53.5156 21.0938 52.3438 18.3594
L94.5312 18.3594
L94.5312 10.9375
L59.375 10.9375
Q69.5312 2.34375 95.3125 -1.5625
L91.0156 -9.76562
Q61.7188 -3.90625 49.6094 10.9375
L49.2188 10.9375
Q41.0156 -4.29688 9.76562 -9.375
L6.25 -1.95312
Q31.25 1.5625 39.4531 10.9375
L5.07812 10.9375
z

M46.4844 82.0312
L55.0781 80.0781
Q53.9062 77.3438 52.3438 74.6094
L87.1094 74.6094
L87.1094 21.0938
L79.2969 21.0938
L79.2969 67.5781
L22.2656 67.5781
L22.2656 21.0938
L14.4531 21.0938
L14.4531 74.6094
L43.3594 74.6094
Q46.0938 80.4688 46.4844 82.0312
M24.6094 51.1719
L46.4844 51.1719
L46.4844 65.2344
L54.2969 65.2344
L54.2969 51.1719
L75.7812 51.1719
L75.7812 44.5312
L54.2969 44.5312
L54.2969 27.3438
L46.4844 27.3438
L46.4844 41.7969
Q40.2344 32.8125 29.2969 26.5625
L24.2188 32.0312
Q35.1562 38.2812 40.2344 44.5312
L24.6094 44.5312
z

M65.625 64.4531
L71.4844 60.9375
Q67.9688 55.8594 64.4531 52.7344
L59.375 57.0312
Q63.2812 60.5469 65.625 64.4531
M35.9375 64.4531
Q39.4531 60.5469 41.7969 56.25
L35.5469 52.7344
Q33.5938 56.6406 30.0781 60.5469
z

M63.6719 42.9688
Q70.3125 38.2812 76.5625 32.0312
L71.0938 26.5625
Q65.625 32.8125 58.2031 39.0625
z
" id="WenQuanYiMicroHei-5965"/>
       <path d="
M24.6094 80.8594
L32.4219 78.5156
Q29.2969 69.5312 25.3906 60.5469
L25.3906 -8.98438
L17.5781 -8.98438
L17.5781 45.7031
Q12.8906 38.2812 7.8125 32.0312
L3.90625 39.8438
Q18.3594 59.375 24.6094 80.8594
M31.6406 63.6719
L57.0312 63.6719
L57.0312 80.8594
L64.8438 80.8594
L64.8438 63.6719
L91.7969 63.6719
L91.7969 56.25
L69.9219 56.25
Q79.6875 26.9531 95.7031 13.2812
L91.4062 4.6875
Q75 20.7031 64.8438 52.3438
L64.8438 16.0156
L78.9062 16.0156
L78.9062 9.375
L64.8438 9.375
L64.8438 -9.375
L57.0312 -9.375
L57.0312 9.375
L43.3594 9.375
L43.3594 16.0156
L57.0312 16.0156
L57.0312 52.3438
Q48.0469 22.6562 32.4219 4.6875
L26.9531 11.7188
Q42.9688 29.2969 51.9531 56.25
L31.6406 56.25
z
" id="WenQuanYiMicroHei-4f53"/>
       <path d="
M89.4531 66.0156
L89.4531 17.9688
L81.6406 17.9688
L81.6406 24.2188
L53.5156 24.2188
L53.5156 -9.76562
L45.7031 -9.76562
L45.7031 24.2188
L18.75 24.2188
L18.75 17.1875
L10.9375 17.1875
L10.9375 66.0156
L45.7031 66.0156
L45.7031 81.25
L53.5156 81.25
L53.5156 66.0156
z

M18.75 31.6406
L45.7031 31.6406
L45.7031 58.5938
L18.75 58.5938
z

M53.5156 58.5938
L53.5156 31.6406
L81.6406 31.6406
L81.6406 58.5938
z
" id="WenQuanYiMicroHei-4e2d"/>
       <path d="
M39.8438 79.6875
Q53.9062 71.4844 65.2344 59.7656
L58.9844 52.3438
Q47.2656 65.2344 34.375 73.8281
z

M31.25 57.0312
L39.4531 57.0312
L39.4531 4.6875
Q39.4531 3.125 41.4062 2.34375
Q43.3594 1.5625 52.3438 1.5625
Q63.2812 1.5625 66.2031 2.53125
Q69.1406 3.51562 70.3125 6.4375
Q71.4844 9.375 71.875 21.4844
L80.0781 19.1406
Q79.2969 5.46875 77.3438 1.17188
Q75.3906 -3.125 71.4844 -4.6875
Q67.5781 -6.25 52.3438 -6.25
Q39.0625 -6.25 35.1562 -4.48438
Q31.25 -2.73438 31.25 1.95312
z

M83.2031 52.7344
Q91.0156 35.1562 96.0938 14.0625
L87.5 10.1562
Q82.8125 32.0312 75.3906 49.2188
z

M15.2344 51.1719
L23.0469 48.4375
Q18.75 22.2656 13.2812 4.29688
L5.46875 8.59375
Q12.1094 30.0781 15.2344 51.1719" id="WenQuanYiMicroHei-5fc3"/>
      </defs>
      <g transform="translate(317.176818437 228.084702813)rotate(-90.0)scale(0.09996 -0.09996)">
       <use xlink:href="#WenQuanYiMicroHei-5965"/>
       <use x="100.0" xlink:href="#WenQuanYiMicroHei-4f53"/>
       <use x="200.0" xlink:href="#WenQuanYiMicroHei-4e2d"/>
       <use x="300.0" xlink:href="#WenQuanYiMicroHei-5fc3"/>
      </g>
     </g>
    </g>
    <g id="xtick_12">
     <g id="line2d_34">
      <path clip-path="url(#p9819a559c5)" d="
M342.48 184.999
L342.48 12.1988" style="fill:none;stroke:#000000;stroke-dasharray:1.000000,3.000000;stroke-dashoffset:0.0;stroke-width:0.5;"/>
     </g>
     <g id="line2d_35">
      <g>
       <use style="stroke:#000000;stroke-width:0.5;" x="342.48020125" xlink:href="#m93b0483c22" y="184.998780938"/>
      </g>
     </g>
     <g id="line2d_36">
      <g>
       <use style="stroke:#000000;stroke-width:0.5;" x="342.48020125" xlink:href="#m741efc42ff" y="12.1987809375"/>
      </g>
     </g>
     <g id="text_12">
      <!-- 农展馆 -->
      <defs>
       <path d="
M72.2656 28.125
L92.9688 28.125
L92.9688 21.4844
L59.7656 21.4844
Q63.6719 14.8438 69.5312 9.76562
Q76.5625 12.8906 81.6406 17.9688
L87.1094 12.1094
Q81.25 7.8125 75.7812 5.46875
Q83.2031 1.17188 93.3594 -1.5625
L89.4531 -8.59375
Q62.8906 -0.78125 51.9531 21.4844
L39.8438 21.4844
L39.8438 -0.390625
Q46.875 2.34375 53.5156 5.46875
L56.6406 -0.78125
Q48.0469 -5.07812 37.5 -9.375
L32.0312 -4.29688
L32.0312 21.4844
L19.9219 21.4844
Q17.1875 4.29688 10.5469 -8.20312
L3.90625 -3.125
Q13.2812 14.0625 13.2812 35.5469
L13.2812 78.125
L87.1094 78.125
L87.1094 54.6875
L72.2656 54.6875
L72.2656 44.9219
L87.5 44.9219
L87.5 37.8906
L72.2656 37.8906
z

M79.2969 71.4844
L21.0938 71.4844
L21.0938 61.3281
L79.2969 61.3281
z

M21.0938 54.6875
L21.0938 35.5469
Q21.0938 32.0312 20.7031 28.125
L39.0625 28.125
L39.0625 37.8906
L23.8281 37.8906
L23.8281 44.9219
L39.0625 44.9219
L39.0625 54.6875
z

M64.8438 44.9219
L64.8438 54.6875
L46.4844 54.6875
L46.4844 44.9219
z

M46.4844 28.125
L64.8438 28.125
L64.8438 37.8906
L46.4844 37.8906
z
" id="WenQuanYiMicroHei-5c55"/>
       <path d="
M18.75 60.9375
Q14.8438 47.2656 8.98438 37.1094
L3.90625 42.5781
Q11.7188 58.2031 16.0156 81.25
L23.0469 79.2969
L20.7031 67.9688
L36.7188 67.9688
L36.7188 60.9375
Q36.7188 60.5469 34.7656 55.4688
Q32.8125 50.3906 30.0781 46.0938
L24.2188 49.6094
Q27.3438 55.0781 28.9062 60.9375
z

M16.4062 48.4375
L23.4375 48.4375
L23.4375 2.34375
Q30.0781 6.25 35.1562 10.5469
L36.7188 2.73438
Q29.2969 -3.125 19.5312 -8.20312
L16.4062 -4.29688
z

M94.1406 70.7031
L94.1406 56.6406
L86.7188 56.6406
L86.7188 63.6719
L47.2656 63.6719
L47.2656 56.6406
L39.8438 56.6406
L39.8438 70.7031
L63.2812 70.7031
Q61.7188 75 59.7656 78.5156
L67.9688 81.25
Q70.7031 76.5625 72.2656 70.7031
z

M87.8906 54.2969
L87.8906 29.6875
L54.2969 29.6875
L54.2969 20.7031
L89.4531 20.7031
L89.4531 -8.98438
L82.0312 -8.98438
L82.0312 -4.29688
L54.2969 -4.29688
L54.2969 -8.98438
L46.4844 -8.98438
L46.4844 54.2969
z

M54.2969 36.3281
L80.4688 36.3281
L80.4688 47.2656
L54.2969 47.2656
z

M82.0312 2.73438
L82.0312 13.6719
L54.2969 13.6719
L54.2969 2.73438
z
" id="WenQuanYiMicroHei-9986"/>
       <path d="
M89.8438 68.75
L89.8438 47.2656
L82.0312 47.2656
L82.0312 61.3281
L53.9062 61.3281
L51.5625 55.4688
Q57.0312 40.625 64.4531 29.6875
Q73.4375 36.7188 78.5156 44.5312
L85.1562 39.4531
Q78.5156 30.8594 68.3594 24.2188
Q78.9062 10.9375 96.0938 0.390625
L89.8438 -7.42188
Q60.9375 12.8906 46.875 46.875
Q42.1875 38.2812 37.8906 33.5938
L37.8906 1.17188
Q46.4844 5.07812 53.9062 8.98438
L55.8594 2.34375
Q44.1406 -5.07812 33.5938 -9.76562
L29.2969 -5.46875
L29.2969 25.3906
Q19.9219 17.1875 8.98438 11.7188
L5.07812 19.5312
Q32.4219 32.0312 44.9219 61.3281
L19.5312 61.3281
L19.5312 46.4844
L11.7188 46.4844
L11.7188 68.75
L48.0469 68.75
L51.9531 81.25
L59.7656 78.125
L56.6406 68.75
z
" id="WenQuanYiMicroHei-519c"/>
      </defs>
      <g transform="translate(345.076818437 217.893468438)rotate(-90.0)scale(0.09996 -0.09996)">
       <use xlink:href="#WenQuanYiMicroHei-519c"/>
       <use x="100.0" xlink:href="#WenQuanYiMicroHei-5c55"/>
       <use x="200.0" xlink:href="#WenQuanYiMicroHei-9986"/>
      </g>
     </g>
    </g>
    <g id="text_13">
     <!-- Position -->
     <defs>
      <path d="
M42 0
L42 34.5156
Q42 40.875 39.4219 44.0469
Q36.8594 47.2188 31.3906 47.2188
Q27.4375 47.2188 24.75 45.9375
Q22.0781 44.6719 20.4375 42.1875
Q18.7969 39.7031 18.0938 36.0781
Q17.3906 32.4688 17.3906 27.7812
L17.3906 0
L8.5 0
L8.5 53.6094
L15.7188 53.6094
L17 46.3906
L17.4844 46.3906
Q18.7031 48.4844 20.3906 50.0156
Q22.0781 51.5625 24.0781 52.5781
Q26.0781 53.6094 28.3125 54.0938
Q30.5625 54.5938 32.9062 54.5938
Q41.8438 54.5938 46.3594 49.9219
Q50.875 45.2656 50.875 35.0156
L50.875 0
z
" id="WenQuanYiMicroHei-6e"/>
      <path d="
M52.2031 26.9062
Q52.2031 20.2188 50.5625 15.0156
Q48.9219 9.8125 45.875 6.26562
Q42.8281 2.73438 38.4688 0.875
Q34.125 -0.984375 28.7188 -0.984375
Q23.6875 -0.984375 19.4375 0.875
Q15.1875 2.73438 12.0781 6.26562
Q8.98438 9.8125 7.25 15.0156
Q5.51562 20.2188 5.51562 26.9062
Q5.51562 33.5469 7.15625 38.6875
Q8.79688 43.8438 11.8125 47.375
Q14.8438 50.9219 19.2031 52.75
Q23.5781 54.5938 29 54.5938
Q34.0312 54.5938 38.2812 52.75
Q42.5312 50.9219 45.625 47.375
Q48.7344 43.8438 50.4688 38.6875
Q52.2031 33.5469 52.2031 26.9062
M14.7031 26.9062
Q14.7031 16.7031 18.0469 11.5469
Q21.3906 6.39062 28.9062 6.39062
Q36.4219 6.39062 39.7188 11.5469
Q43.0156 16.7031 43.0156 26.9062
Q43.0156 37.1094 39.6719 42.1562
Q36.3281 47.2188 28.8125 47.2188
Q21.2969 47.2188 18 42.1562
Q14.7031 37.1094 14.7031 26.9062" id="WenQuanYiMicroHei-6f"/>
      <path d="
M17.3906 0
L8.5 0
L8.5 53.6094
L17.3906 53.6094
z

M7.8125 68.1094
Q7.8125 71.0469 9.29688 72.3594
Q10.7969 73.6875 12.9844 73.6875
Q14.0625 73.6875 15.0156 73.3594
Q15.9688 73.0469 16.6719 72.3594
Q17.3906 71.6875 17.7969 70.625
Q18.2188 69.5781 18.2188 68.1094
Q18.2188 65.2812 16.6719 63.8906
Q15.1406 62.5 12.9844 62.5
Q10.7969 62.5 9.29688 63.8594
Q7.8125 65.2344 7.8125 68.1094" id="WenQuanYiMicroHei-69"/>
      <path d="
M24.7031 6.29688
Q25.5938 6.29688 26.6875 6.39062
Q27.7812 6.5 28.7969 6.64062
Q29.8281 6.78125 30.6875 6.96875
Q31.5469 7.17188 31.9844 7.32812
L31.9844 0.59375
Q31.3438 0.296875 30.3594 0
Q29.3906 -0.296875 28.2188 -0.515625
Q27.0469 -0.734375 25.7812 -0.859375
Q24.5156 -0.984375 23.2969 -0.984375
Q20.2656 -0.984375 17.6719 -0.1875
Q15.0938 0.59375 13.2031 2.48438
Q11.3281 4.39062 10.25 7.64062
Q9.1875 10.8906 9.1875 15.8281
L9.1875 46.9219
L1.60938 46.9219
L1.60938 50.875
L9.1875 54.6875
L12.9844 65.9219
L18.1094 65.9219
L18.1094 53.6094
L31.5938 53.6094
L31.5938 46.9219
L18.1094 46.9219
L18.1094 15.8281
Q18.1094 11.0781 19.6406 8.6875
Q21.1875 6.29688 24.7031 6.29688" id="WenQuanYiMicroHei-74"/>
      <path d="
M40.5781 14.7031
Q40.5781 10.7969 39.1562 7.85938
Q37.75 4.9375 35.0781 2.95312
Q32.4219 0.984375 28.6562 0
Q24.9062 -0.984375 20.2188 -0.984375
Q14.8906 -0.984375 11.0781 -0.125
Q7.28125 0.734375 4.39062 2.39062
L4.39062 10.5
Q5.90625 9.71875 7.76562 8.95312
Q9.625 8.20312 11.6719 7.60938
Q13.7188 7.03125 15.8906 6.65625
Q18.0625 6.29688 20.2188 6.29688
Q23.3906 6.29688 25.6094 6.82812
Q27.8281 7.375 29.2188 8.375
Q30.6094 9.375 31.25 10.8125
Q31.8906 12.25 31.8906 14.0156
Q31.8906 15.5312 31.3906 16.75
Q30.9062 17.9688 29.6094 19.1562
Q28.3281 20.3594 26.0781 21.5781
Q23.8281 22.7969 20.3125 24.3125
Q16.7969 25.8281 13.9844 27.2969
Q11.1875 28.7656 9.23438 30.5625
Q7.28125 32.375 6.21875 34.7344
Q5.17188 37.1094 5.17188 40.375
Q5.17188 43.7969 6.51562 46.4531
Q7.85938 49.125 10.2969 50.9219
Q12.75 52.7344 16.1562 53.6562
Q19.5781 54.5938 23.7812 54.5938
Q28.5156 54.5938 32.4375 53.5625
Q36.375 52.5469 39.8906 50.875
L36.8125 43.7031
Q33.6406 45.125 30.2969 46.1719
Q26.9531 47.2188 23.4844 47.2188
Q18.5 47.2188 16.1094 45.5781
Q13.7188 43.9531 13.7188 40.9219
Q13.7188 39.2031 14.2812 37.9375
Q14.8438 36.6719 16.2031 35.5469
Q17.5781 34.4219 19.875 33.2656
Q22.1719 32.125 25.5938 30.7188
Q29.1094 29.25 31.8594 27.7812
Q34.625 26.3125 36.5781 24.4844
Q38.5312 22.6562 39.5469 20.3125
Q40.5781 17.9688 40.5781 14.7031" id="WenQuanYiMicroHei-73"/>
      <path d="
M52.4844 50.4844
Q52.4844 46.0469 51.1406 41.9375
Q49.8125 37.8438 46.7344 34.6875
Q43.6562 31.5469 38.5938 29.6562
Q33.5469 27.7812 26.125 27.7812
L18.7969 27.7812
L18.7969 0
L9.71875 0
L9.71875 71.3906
L27.3906 71.3906
Q33.9375 71.3906 38.6719 70
Q43.4062 68.6094 46.4844 65.9375
Q49.5625 63.2812 51.0156 59.375
Q52.4844 55.4688 52.4844 50.4844
M18.7969 35.5
L25.0938 35.5
Q29.6406 35.5 33.0312 36.2812
Q36.4219 37.0625 38.6406 38.7969
Q40.875 40.5312 41.9844 43.2812
Q43.1094 46.0469 43.1094 50
Q43.1094 56.9375 39.1094 60.2812
Q35.1094 63.625 26.6094 63.625
L18.7969 63.625
z
" id="WenQuanYiMicroHei-50"/>
     </defs>
     <g transform="translate(171.787882188 250.480866563)scale(0.09996 -0.09996)">
      <use xlink:href="#WenQuanYiMicroHei-50"/>
      <use x="57.6171875" xlink:href="#WenQuanYiMicroHei-6f"/>
      <use x="115.33203125" xlink:href="#WenQuanYiMicroHei-73"/>
      <use x="160.44921875" xlink:href="#WenQuanYiMicroHei-69"/>
      <use x="186.328125" xlink:href="#WenQuanYiMicroHei-74"/>
      <use x="220.21484375" xlink:href="#WenQuanYiMicroHei-69"/>
      <use x="246.09375" xlink:href="#WenQuanYiMicroHei-6f"/>
      <use x="303.80859375" xlink:href="#WenQuanYiMicroHei-6e"/>
     </g>
    </g>
   </g>
   <g id="matplotlib.axis_2">
    <g id="ytick_1">
     <g id="line2d_37">
      <path clip-path="url(#p9819a559c5)" d="
M21.6302 184.999
L356.43 184.999" style="fill:none;stroke:#000000;stroke-dasharray:1.000000,3.000000;stroke-dashoffset:0.0;stroke-width:0.5;"/>
     </g>
     <g id="line2d_38">
      <defs>
       <path d="
M0 0
L4 0" id="m728421d6d4" style="stroke:#000000;stroke-width:0.5;"/>
      </defs>
      <g>
       <use style="stroke:#000000;stroke-width:0.5;" x="21.63020125" xlink:href="#m728421d6d4" y="184.998780938"/>
      </g>
     </g>
     <g id="line2d_39">
      <defs>
       <path d="
M0 0
L-4 0" id="mcb0005524f" style="stroke:#000000;stroke-width:0.5;"/>
      </defs>
      <g>
       <use style="stroke:#000000;stroke-width:0.5;" x="356.43020125" xlink:href="#mcb0005524f" y="184.998780938"/>
      </g>
     </g>
     <g id="text_14">
      <!-- 0 -->
      <defs>
       <path d="
M50.3906 35.7969
Q50.3906 27.1562 49.1406 20.3125
Q47.9062 13.4844 45.1406 8.73438
Q42.3906 4 38.0312 1.5
Q33.6875 -0.984375 27.4844 -0.984375
Q21.7344 -0.984375 17.4531 1.5
Q13.1875 4 10.375 8.73438
Q7.5625 13.4844 6.17188 20.3125
Q4.78125 27.1562 4.78125 35.7969
Q4.78125 44.4375 6.03125 51.2656
Q7.28125 58.1094 9.98438 62.8125
Q12.7031 67.5312 17.0156 70.0156
Q21.3438 72.5156 27.4844 72.5156
Q33.2969 72.5156 37.5938 70.0469
Q41.8906 67.5781 44.7188 62.8594
Q47.5625 58.1562 48.9688 51.3125
Q50.3906 44.4844 50.3906 35.7969
M13.8125 35.7969
Q13.8125 28.4688 14.5469 23
Q15.2812 17.5312 16.8906 13.8906
Q18.5 10.25 21.1094 8.42188
Q23.7344 6.59375 27.4844 6.59375
Q31.25 6.59375 33.8906 8.39062
Q36.5312 10.2031 38.2031 13.8125
Q39.8906 17.4375 40.6406 22.9219
Q41.4062 28.4219 41.4062 35.7969
Q41.4062 43.1094 40.6406 48.5781
Q39.8906 54.0469 38.2031 57.6562
Q36.5312 61.2812 33.8906 63.0781
Q31.25 64.8906 27.4844 64.8906
Q23.7344 64.8906 21.1094 63.0781
Q18.5 61.2812 16.8906 57.6562
Q15.2812 54.0469 14.5469 48.5781
Q13.8125 43.1094 13.8125 35.7969" id="WenQuanYiMicroHei-30"/>
      </defs>
      <g transform="translate(13.071088125 187.595398125)scale(0.09996 -0.09996)">
       <use xlink:href="#WenQuanYiMicroHei-30"/>
      </g>
     </g>
    </g>
    <g id="ytick_2">
     <g id="line2d_40">
      <path clip-path="url(#p9819a559c5)" d="
M21.6302 163.399
L356.43 163.399" style="fill:none;stroke:#000000;stroke-dasharray:1.000000,3.000000;stroke-dashoffset:0.0;stroke-width:0.5;"/>
     </g>
     <g id="line2d_41">
      <g>
       <use style="stroke:#000000;stroke-width:0.5;" x="21.63020125" xlink:href="#m728421d6d4" y="163.398780938"/>
      </g>
     </g>
     <g id="line2d_42">
      <g>
       <use style="stroke:#000000;stroke-width:0.5;" x="356.43020125" xlink:href="#mcb0005524f" y="163.398780938"/>
      </g>
     </g>
     <g id="text_15">
      <!-- 10 -->
      <defs>
       <path d="
M34.7188 0
L26.125 0
L26.125 44.5781
Q26.125 46.6875 26.1406 49.0781
Q26.1719 51.4688 26.2344 53.8281
Q26.3125 56.2031 26.3906 58.375
Q26.4688 60.5469 26.5156 62.2031
Q25.6875 61.3281 25.0469 60.6875
Q24.4219 60.0625 23.75 59.4688
Q23.0938 58.8906 22.3594 58.2188
Q21.625 57.5625 20.6094 56.6875
L13.375 50.7812
L8.6875 56.7812
L27.3906 71.3906
L34.7188 71.3906
z
" id="WenQuanYiMicroHei-31"/>
      </defs>
      <g transform="translate(7.9559475 165.995398125)scale(0.09996 -0.09996)">
       <use xlink:href="#WenQuanYiMicroHei-31"/>
       <use x="55.078125" xlink:href="#WenQuanYiMicroHei-30"/>
      </g>
     </g>
    </g>
    <g id="ytick_3">
     <g id="line2d_43">
      <path clip-path="url(#p9819a559c5)" d="
M21.6302 141.799
L356.43 141.799" style="fill:none;stroke:#000000;stroke-dasharray:1.000000,3.000000;stroke-dashoffset:0.0;stroke-width:0.5;"/>
     </g>
     <g id="line2d_44">
      <g>
       <use style="stroke:#000000;stroke-width:0.5;" x="21.63020125" xlink:href="#m728421d6d4" y="141.798780938"/>
      </g>
     </g>
     <g id="line2d_45">
      <g>
       <use style="stroke:#000000;stroke-width:0.5;" x="356.43020125" xlink:href="#mcb0005524f" y="141.798780938"/>
      </g>
     </g>
     <g id="text_16">
      <!-- 20 -->
      <defs>
       <path d="
M49.2188 0
L4.6875 0
L4.6875 7.625
L21.7812 26.2188
Q25.4375 30.1719 28.3125 33.4375
Q31.2031 36.7188 33.2188 39.8438
Q35.25 42.9688 36.3281 46.1094
Q37.4062 49.2656 37.4062 52.9844
Q37.4062 55.8594 36.5781 58.0469
Q35.75 60.25 34.2031 61.7812
Q32.6719 63.3281 30.5625 64.1094
Q28.4688 64.8906 25.875 64.8906
Q21.2344 64.8906 17.5 63.0156
Q13.7656 61.1406 10.4062 58.2031
L5.42188 64.0156
Q7.375 65.7656 9.60938 67.2969
Q11.8594 68.8438 14.4531 69.9688
Q17.0469 71.0938 19.9219 71.75
Q22.7969 72.4062 25.9844 72.4062
Q30.6719 72.4062 34.4531 71.0938
Q38.2344 69.7812 40.8594 67.3125
Q43.5 64.8438 44.9375 61.2969
Q46.3906 57.7656 46.3906 53.3281
Q46.3906 49.1719 45.0938 45.4062
Q43.7969 41.6562 41.5312 38.0156
Q39.2656 34.375 36.1094 30.7031
Q32.9531 27.0469 29.2969 23.0938
L15.5781 8.5
L15.5781 8.10938
L49.2188 8.10938
z
" id="WenQuanYiMicroHei-32"/>
      </defs>
      <g transform="translate(7.5561075 144.395398125)scale(0.09996 -0.09996)">
       <use xlink:href="#WenQuanYiMicroHei-32"/>
       <use x="55.078125" xlink:href="#WenQuanYiMicroHei-30"/>
      </g>
     </g>
    </g>
    <g id="ytick_4">
     <g id="line2d_46">
      <path clip-path="url(#p9819a559c5)" d="
M21.6302 120.199
L356.43 120.199" style="fill:none;stroke:#000000;stroke-dasharray:1.000000,3.000000;stroke-dashoffset:0.0;stroke-width:0.5;"/>
     </g>
     <g id="line2d_47">
      <g>
       <use style="stroke:#000000;stroke-width:0.5;" x="21.63020125" xlink:href="#m728421d6d4" y="120.198780938"/>
      </g>
     </g>
     <g id="line2d_48">
      <g>
       <use style="stroke:#000000;stroke-width:0.5;" x="356.43020125" xlink:href="#mcb0005524f" y="120.198780938"/>
      </g>
     </g>
     <g id="text_17">
      <!-- 30 -->
      <defs>
       <path d="
M46.9219 54.6875
Q46.9219 51.125 45.7969 48.1875
Q44.6719 45.2656 42.6406 43.1094
Q40.625 40.9688 37.7969 39.5781
Q34.9688 38.1875 31.5 37.5938
L31.5 37.3125
Q40.1406 36.2344 44.625 31.8125
Q49.125 27.3906 49.125 20.3125
Q49.125 15.625 47.5312 11.7188
Q45.9531 7.8125 42.7188 4.98438
Q39.5 2.15625 34.5625 0.578125
Q29.6406 -0.984375 22.9062 -0.984375
Q17.5781 -0.984375 12.8594 -0.140625
Q8.15625 0.6875 4 2.875
L4 11.1875
Q8.25 8.9375 13.2031 7.71875
Q18.1719 6.5 22.7031 6.5
Q27.2031 6.5 30.4688 7.46875
Q33.7344 8.45312 35.8594 10.25
Q37.9844 12.0625 38.9844 14.6875
Q39.9844 17.3281 39.9844 20.6094
Q39.9844 23.9219 38.6875 26.2812
Q37.4062 28.6562 35.0156 30.1875
Q32.625 31.7344 29.1719 32.4688
Q25.7344 33.2031 21.3906 33.2031
L14.8906 33.2031
L14.8906 40.5781
L21.3906 40.5781
Q25.3438 40.5781 28.4219 41.5469
Q31.5 42.5312 33.5625 44.3281
Q35.6406 46.1406 36.7188 48.625
Q37.7969 51.125 37.7969 54.1094
Q37.7969 56.6406 36.9062 58.6406
Q36.0312 60.6406 34.4219 62.0312
Q32.8125 63.4219 30.5625 64.1562
Q28.3281 64.8906 25.5938 64.8906
Q20.3594 64.8906 16.375 63.25
Q12.4062 61.625 8.79688 58.9844
L4.29688 65.0938
Q6.15625 66.6094 8.42188 67.9219
Q10.6875 69.2344 13.375 70.2344
Q16.0625 71.2344 19.1094 71.8125
Q22.1719 72.4062 25.5938 72.4062
Q30.8594 72.4062 34.8281 71.0938
Q38.8125 69.7812 41.5 67.4062
Q44.1875 65.0469 45.5469 61.7969
Q46.9219 58.5469 46.9219 54.6875" id="WenQuanYiMicroHei-33"/>
      </defs>
      <g transform="translate(7.487385 122.795398125)scale(0.09996 -0.09996)">
       <use xlink:href="#WenQuanYiMicroHei-33"/>
       <use x="55.078125" xlink:href="#WenQuanYiMicroHei-30"/>
      </g>
     </g>
    </g>
    <g id="ytick_5">
     <g id="line2d_49">
      <path clip-path="url(#p9819a559c5)" d="
M21.6302 98.5988
L356.43 98.5988" style="fill:none;stroke:#000000;stroke-dasharray:1.000000,3.000000;stroke-dashoffset:0.0;stroke-width:0.5;"/>
     </g>
     <g id="line2d_50">
      <g>
       <use style="stroke:#000000;stroke-width:0.5;" x="21.63020125" xlink:href="#m728421d6d4" y="98.5987809375"/>
      </g>
     </g>
     <g id="line2d_51">
      <g>
       <use style="stroke:#000000;stroke-width:0.5;" x="356.43020125" xlink:href="#mcb0005524f" y="98.5987809375"/>
      </g>
     </g>
     <g id="text_18">
      <!-- 40 -->
      <defs>
       <path d="
M53.0781 16.0156
L42.6719 16.0156
L42.6719 0
L34.0781 0
L34.0781 16.0156
L1.125 16.0156
L1.125 23.7812
L33.5 71.7812
L42.6719 71.7812
L42.6719 24.125
L53.0781 24.125
z

M34.0781 24.125
L34.0781 41.5
Q34.0781 44.2344 34.1562 47.2344
Q34.2344 50.25 34.3281 53.0938
Q34.4219 55.9531 34.5469 58.4375
Q34.6719 60.9375 34.7188 62.5938
L34.2812 62.5938
Q33.9375 61.625 33.4219 60.4219
Q32.9062 59.2344 32.2969 58.0312
Q31.6875 56.8438 31.0469 55.7188
Q30.4219 54.5938 29.8906 53.8125
L9.8125 24.125
z
" id="WenQuanYiMicroHei-34"/>
      </defs>
      <g transform="translate(7.2 101.195398125)scale(0.09996 -0.09996)">
       <use xlink:href="#WenQuanYiMicroHei-34"/>
       <use x="55.078125" xlink:href="#WenQuanYiMicroHei-30"/>
      </g>
     </g>
    </g>
    <g id="ytick_6">
     <g id="line2d_52">
      <path clip-path="url(#p9819a559c5)" d="
M21.6302 76.9988
L356.43 76.9988" style="fill:none;stroke:#000000;stroke-dasharray:1.000000,3.000000;stroke-dashoffset:0.0;stroke-width:0.5;"/>
     </g>
     <g id="line2d_53">
      <g>
       <use style="stroke:#000000;stroke-width:0.5;" x="21.63020125" xlink:href="#m728421d6d4" y="76.9987809375"/>
      </g>
     </g>
     <g id="line2d_54">
      <g>
       <use style="stroke:#000000;stroke-width:0.5;" x="356.43020125" xlink:href="#mcb0005524f" y="76.9987809375"/>
      </g>
     </g>
     <g id="text_19">
      <!-- 50 -->
      <defs>
       <path d="
M26.6094 43.7969
Q31.4531 43.7969 35.625 42.4531
Q39.7969 41.1094 42.8906 38.4688
Q46 35.8438 47.75 31.9375
Q49.5156 28.0312 49.5156 22.9062
Q49.5156 17.3281 47.8438 12.8906
Q46.1875 8.45312 42.9219 5.375
Q39.6562 2.29688 34.8438 0.65625
Q30.0312 -0.984375 23.7812 -0.984375
Q21.2969 -0.984375 18.875 -0.734375
Q16.4531 -0.484375 14.2344 -0.015625
Q12.0156 0.4375 10.0156 1.17188
Q8.01562 1.90625 6.39062 2.875
L6.39062 11.2812
Q8.01562 10.1562 10.1875 9.28125
Q12.3594 8.40625 14.75 7.8125
Q17.1406 7.23438 19.5469 6.90625
Q21.9688 6.59375 24.0312 6.59375
Q27.875 6.59375 30.9062 7.5
Q33.9375 8.40625 36.0312 10.2969
Q38.1406 12.2031 39.25 15.0781
Q40.375 17.9688 40.375 21.9219
Q40.375 28.9062 36.0781 32.5938
Q31.7812 36.2812 23.5781 36.2812
Q22.2656 36.2812 20.7188 36.1562
Q19.1875 36.0312 17.6406 35.8281
Q16.1094 35.6406 14.7188 35.4219
Q13.3281 35.2031 12.3125 35.0156
L7.90625 37.7969
L10.5938 71.3906
L44.2812 71.3906
L44.2812 63.2812
L18.3125 63.2812
L16.4062 42.8281
Q17.9688 43.1094 20.5312 43.4531
Q23.0938 43.7969 26.6094 43.7969" id="WenQuanYiMicroHei-35"/>
      </defs>
      <g transform="translate(7.726351875 79.595398125)scale(0.09996 -0.09996)">
       <use xlink:href="#WenQuanYiMicroHei-35"/>
       <use x="55.078125" xlink:href="#WenQuanYiMicroHei-30"/>
      </g>
     </g>
    </g>
    <g id="ytick_7">
     <g id="line2d_55">
      <path clip-path="url(#p9819a559c5)" d="
M21.6302 55.3988
L356.43 55.3988" style="fill:none;stroke:#000000;stroke-dasharray:1.000000,3.000000;stroke-dashoffset:0.0;stroke-width:0.5;"/>
     </g>
     <g id="line2d_56">
      <g>
       <use style="stroke:#000000;stroke-width:0.5;" x="21.63020125" xlink:href="#m728421d6d4" y="55.3987809375"/>
      </g>
     </g>
     <g id="line2d_57">
      <g>
       <use style="stroke:#000000;stroke-width:0.5;" x="356.43020125" xlink:href="#mcb0005524f" y="55.3987809375"/>
      </g>
     </g>
     <g id="text_20">
      <!-- 60 -->
      <defs>
       <path d="
M5.51562 30.5156
Q5.51562 35.6406 6.03125 40.7188
Q6.54688 45.7969 7.82812 50.4531
Q9.125 55.125 11.375 59.125
Q13.625 63.1406 17.0938 66.0938
Q20.5625 69.0469 25.3906 70.7188
Q30.2188 72.4062 36.7188 72.4062
Q37.6406 72.4062 38.7656 72.3594
Q39.8906 72.3125 41.0312 72.1875
Q42.1875 72.0781 43.2344 71.9062
Q44.2812 71.7344 45.125 71.4844
L45.125 63.9219
Q43.4062 64.5 41.25 64.7969
Q39.1094 65.0938 37.0156 65.0938
Q32.625 65.0938 29.2656 64.0312
Q25.9219 62.9844 23.4844 61.0781
Q21.0469 59.1875 19.4062 56.5469
Q17.7812 53.9062 16.75 50.7031
Q15.7188 47.5156 15.2344 43.8906
Q14.75 40.2812 14.5938 36.375
L15.1875 36.375
Q16.1562 38.1406 17.5469 39.6719
Q18.9531 41.2188 20.7969 42.3125
Q22.6562 43.4062 24.9688 44.0312
Q27.2969 44.6719 30.1719 44.6719
Q34.8125 44.6719 38.5625 43.2344
Q42.3281 41.7969 44.9688 39.0156
Q47.6094 36.2344 49.0469 32.2031
Q50.4844 28.1719 50.4844 23
Q50.4844 17.4375 48.9688 12.9844
Q47.4688 8.54688 44.625 5.4375
Q41.7969 2.34375 37.7969 0.671875
Q33.7969 -0.984375 28.8125 -0.984375
Q23.9219 -0.984375 19.6406 0.921875
Q15.375 2.82812 12.25 6.73438
Q9.125 10.6406 7.3125 16.5469
Q5.51562 22.4688 5.51562 30.5156
M28.7188 6.5
Q31.6406 6.5 34.0469 7.5
Q36.4688 8.5 38.2188 10.5156
Q39.9844 12.5469 40.9375 15.6406
Q41.8906 18.75 41.8906 23
Q41.8906 26.4219 41.0781 29.125
Q40.2812 31.8438 38.6719 33.7344
Q37.0625 35.6406 34.6406 36.6719
Q32.2344 37.7031 29 37.7031
Q25.7344 37.7031 23.0156 36.5469
Q20.3125 35.4062 18.4062 33.5625
Q16.5 31.7344 15.4531 29.3906
Q14.4062 27.0469 14.4062 24.7031
Q14.4062 21.4375 15.3125 18.1875
Q16.2188 14.9375 18 12.3438
Q19.7812 9.76562 22.4531 8.125
Q25.1406 6.5 28.7188 6.5" id="WenQuanYiMicroHei-36"/>
      </defs>
      <g transform="translate(7.638886875 57.995398125)scale(0.09996 -0.09996)">
       <use xlink:href="#WenQuanYiMicroHei-36"/>
       <use x="55.078125" xlink:href="#WenQuanYiMicroHei-30"/>
      </g>
     </g>
    </g>
    <g id="ytick_8">
     <g id="line2d_58">
      <path clip-path="url(#p9819a559c5)" d="
M21.6302 33.7988
L356.43 33.7988" style="fill:none;stroke:#000000;stroke-dasharray:1.000000,3.000000;stroke-dashoffset:0.0;stroke-width:0.5;"/>
     </g>
     <g id="line2d_59">
      <g>
       <use style="stroke:#000000;stroke-width:0.5;" x="21.63020125" xlink:href="#m728421d6d4" y="33.7987809375"/>
      </g>
     </g>
     <g id="line2d_60">
      <g>
       <use style="stroke:#000000;stroke-width:0.5;" x="356.43020125" xlink:href="#mcb0005524f" y="33.7987809375"/>
      </g>
     </g>
     <g id="text_21">
      <!-- 70 -->
      <defs>
       <path d="
M13.7188 0
L41.2188 63.2812
L4.39062 63.2812
L4.39062 71.3906
L50.2969 71.3906
L50.2969 64.3125
L23.1875 0
z
" id="WenQuanYiMicroHei-37"/>
      </defs>
      <g transform="translate(7.526431875 36.395398125)scale(0.09996 -0.09996)">
       <use xlink:href="#WenQuanYiMicroHei-37"/>
       <use x="55.078125" xlink:href="#WenQuanYiMicroHei-30"/>
      </g>
     </g>
    </g>
    <g id="ytick_9">
     <g id="line2d_61">
      <path clip-path="url(#p9819a559c5)" d="
M21.6302 12.1988
L356.43 12.1988" style="fill:none;stroke:#000000;stroke-dasharray:1.000000,3.000000;stroke-dashoffset:0.0;stroke-width:0.5;"/>
     </g>
     <g id="line2d_62">
      <g>
       <use style="stroke:#000000;stroke-width:0.5;" x="21.63020125" xlink:href="#m728421d6d4" y="12.1987809375"/>
      </g>
     </g>
     <g id="line2d_63">
      <g>
       <use style="stroke:#000000;stroke-width:0.5;" x="356.43020125" xlink:href="#mcb0005524f" y="12.1987809375"/>
      </g>
     </g>
     <g id="text_22">
      <!-- 80 -->
      <defs>
       <path d="
M27.5938 72.5156
Q31.6875 72.5156 35.3281 71.4375
Q38.9688 70.3594 41.7188 68.2031
Q44.4844 66.0625 46.0938 62.8438
Q47.7031 59.625 47.7031 55.3281
Q47.7031 52.0469 46.7188 49.4062
Q45.75 46.7812 44.0312 44.6562
Q42.3281 42.5312 39.9844 40.8438
Q37.6406 39.1562 34.9062 37.7969
Q37.75 36.2812 40.4531 34.4219
Q43.1719 32.5625 45.2812 30.25
Q47.4062 27.9375 48.7031 25.0469
Q50 22.1719 50 18.6094
Q50 14.1094 48.3594 10.4688
Q46.7344 6.84375 43.7812 4.29688
Q40.8281 1.76562 36.6875 0.390625
Q32.5625 -0.984375 27.5938 -0.984375
Q22.2188 -0.984375 18.0469 0.328125
Q13.875 1.65625 11.0156 4.125
Q8.15625 6.59375 6.65625 10.1562
Q5.17188 13.7188 5.17188 18.2188
Q5.17188 21.875 6.26562 24.7969
Q7.375 27.7344 9.21875 30.0781
Q11.0781 32.4219 13.6094 34.2188
Q16.1562 36.0312 19 37.4062
Q16.6094 38.9219 14.5 40.7031
Q12.4062 42.4844 10.8594 44.6719
Q9.32812 46.875 8.42188 49.5312
Q7.51562 52.2031 7.51562 55.4219
Q7.51562 59.6719 9.15625 62.8594
Q10.7969 66.0625 13.5781 68.2031
Q16.3594 70.3594 20 71.4375
Q23.6406 72.5156 27.5938 72.5156
M13.9219 18.1094
Q13.9219 15.5312 14.7031 13.3594
Q15.4844 11.1875 17.1406 9.64062
Q18.7969 8.10938 21.3281 7.25
Q23.875 6.39062 27.3906 6.39062
Q30.8125 6.39062 33.4219 7.25
Q36.0312 8.10938 37.7812 9.6875
Q39.5469 11.2812 40.4219 13.5156
Q41.3125 15.7656 41.3125 18.5
Q41.3125 21.0469 40.3594 23.0938
Q39.4062 25.1406 37.625 26.8906
Q35.8438 28.6562 33.3438 30.2188
Q30.8594 31.7812 27.7812 33.2969
L26.3125 33.9844
Q20.1719 31.0625 17.0469 27.2656
Q13.9219 23.4844 13.9219 18.1094
M27.4844 65.0938
Q22.3125 65.0938 19.2656 62.5
Q16.2188 59.9062 16.2188 54.9844
Q16.2188 52.2031 17.0625 50.1875
Q17.9219 48.1875 19.4375 46.625
Q20.9531 45.0625 23.0781 43.8125
Q25.2031 42.5781 27.6875 41.4062
Q30.0312 42.4844 32.1094 43.75
Q34.1875 45.0156 35.7188 46.625
Q37.25 48.25 38.125 50.2969
Q39.0156 52.3438 39.0156 54.9844
Q39.0156 59.9062 35.9375 62.5
Q32.8594 65.0938 27.4844 65.0938" id="WenQuanYiMicroHei-38"/>
      </defs>
      <g transform="translate(7.604525625 14.795398125)scale(0.09996 -0.09996)">
       <use xlink:href="#WenQuanYiMicroHei-38"/>
       <use x="55.078125" xlink:href="#WenQuanYiMicroHei-30"/>
      </g>
     </g>
    </g>
   </g>
  </g>
 </g>
 <defs>
  <clipPath id="p9819a559c5">
   <rect height="172.8" width="334.8" x="21.63020125" y="12.1987809375"/>
  </clipPath>
 </defs>
</svg>
