<?xml version="1.0" encoding="utf-8" standalone="no"?>
<!DOCTYPE svg PUBLIC "-//W3C//DTD SVG 1.1//EN"
  "http://www.w3.org/Graphics/SVG/1.1/DTD/svg11.dtd">
<!-- Created with matplotlib (http://matplotlib.org/) -->
<svg height="222pt" version="1.1" viewBox="0 0 586 222" width="586pt" xmlns="http://www.w3.org/2000/svg" xmlns:xlink="http://www.w3.org/1999/xlink">
 <defs>
  <style type="text/css">
*{stroke-linecap:butt;stroke-linejoin:round;}
  </style>
 </defs>
 <g id="figure_1">
  <g id="patch_1">
   <path d="
M0 222.724
L586.83 222.724
L586.83 0
L0 0
z
" style="fill:#ffffff;"/>
  </g>
  <g id="axes_1">
   <g id="patch_2">
    <path d="
M21.6302 201.45
L579.63 201.45
L579.63 28.6504
L21.6302 28.6504
z
" style="fill:#ffffff;"/>
   </g>
   <g id="patch_3">
    <path clip-path="url(#p973b463fdd)" d="
M27.4427 201.45
L31.3177 201.45
L31.3177 103.638
L27.4427 103.638
z
" style="fill:#348abd;stroke:#000000;stroke-linejoin:miter;"/>
   </g>
   <g id="patch_4">
    <path clip-path="url(#p973b463fdd)" d="
M50.6927 201.45
L54.5677 201.45
L54.5677 102.28
L50.6927 102.28
z
" style="fill:#348abd;stroke:#000000;stroke-linejoin:miter;"/>
   </g>
   <g id="patch_5">
    <path clip-path="url(#p973b463fdd)" d="
M73.9427 201.45
L77.8177 201.45
L77.8177 103.429
L73.9427 103.429
z
" style="fill:#348abd;stroke:#000000;stroke-linejoin:miter;"/>
   </g>
   <g id="patch_6">
    <path clip-path="url(#p973b463fdd)" d="
M97.1927 201.45
L101.068 201.45
L101.068 103.527
L97.1927 103.527
z
" style="fill:#348abd;stroke:#000000;stroke-linejoin:miter;"/>
   </g>
   <g id="patch_7">
    <path clip-path="url(#p973b463fdd)" d="
M120.443 201.45
L124.318 201.45
L124.318 103.441
L120.443 103.441
z
" style="fill:#348abd;stroke:#000000;stroke-linejoin:miter;"/>
   </g>
   <g id="patch_8">
    <path clip-path="url(#p973b463fdd)" d="
M143.693 201.45
L147.568 201.45
L147.568 103.404
L143.693 103.404
z
" style="fill:#348abd;stroke:#000000;stroke-linejoin:miter;"/>
   </g>
   <g id="patch_9">
    <path clip-path="url(#p973b463fdd)" d="
M166.943 201.45
L170.818 201.45
L170.818 100.662
L166.943 100.662
z
" style="fill:#348abd;stroke:#000000;stroke-linejoin:miter;"/>
   </g>
   <g id="patch_10">
    <path clip-path="url(#p973b463fdd)" d="
M190.193 201.45
L194.068 201.45
L194.068 100.121
L190.193 100.121
z
" style="fill:#348abd;stroke:#000000;stroke-linejoin:miter;"/>
   </g>
   <g id="patch_11">
    <path clip-path="url(#p973b463fdd)" d="
M213.443 201.45
L217.318 201.45
L217.318 96.9069
L213.443 96.9069
z
" style="fill:#348abd;stroke:#000000;stroke-linejoin:miter;"/>
   </g>
   <g id="patch_12">
    <path clip-path="url(#p973b463fdd)" d="
M236.693 201.45
L240.568 201.45
L240.568 94.833
L236.693 94.833
z
" style="fill:#348abd;stroke:#000000;stroke-linejoin:miter;"/>
   </g>
   <g id="patch_13">
    <path clip-path="url(#p973b463fdd)" d="
M259.943 201.45
L263.818 201.45
L263.818 97.2222
L259.943 97.2222
z
" style="fill:#348abd;stroke:#000000;stroke-linejoin:miter;"/>
   </g>
   <g id="patch_14">
    <path clip-path="url(#p973b463fdd)" d="
M283.193 201.45
L287.068 201.45
L287.068 97.3399
L283.193 97.3399
z
" style="fill:#348abd;stroke:#000000;stroke-linejoin:miter;"/>
   </g>
   <g id="patch_15">
    <path clip-path="url(#p973b463fdd)" d="
M306.443 201.45
L310.318 201.45
L310.318 97.6075
L306.443 97.6075
z
" style="fill:#348abd;stroke:#000000;stroke-linejoin:miter;"/>
   </g>
   <g id="patch_16">
    <path clip-path="url(#p973b463fdd)" d="
M329.693 201.45
L333.568 201.45
L333.568 99.3945
L329.693 99.3945
z
" style="fill:#348abd;stroke:#000000;stroke-linejoin:miter;"/>
   </g>
   <g id="patch_17">
    <path clip-path="url(#p973b463fdd)" d="
M352.943 201.45
L356.818 201.45
L356.818 98.8195
L352.943 98.8195
z
" style="fill:#348abd;stroke:#000000;stroke-linejoin:miter;"/>
   </g>
   <g id="patch_18">
    <path clip-path="url(#p973b463fdd)" d="
M376.193 201.45
L380.068 201.45
L380.068 102.291
L376.193 102.291
z
" style="fill:#348abd;stroke:#000000;stroke-linejoin:miter;"/>
   </g>
   <g id="patch_19">
    <path clip-path="url(#p973b463fdd)" d="
M399.443 201.45
L403.318 201.45
L403.318 104.636
L399.443 104.636
z
" style="fill:#348abd;stroke:#000000;stroke-linejoin:miter;"/>
   </g>
   <g id="patch_20">
    <path clip-path="url(#p973b463fdd)" d="
M422.693 201.45
L426.568 201.45
L426.568 104.753
L422.693 104.753
z
" style="fill:#348abd;stroke:#000000;stroke-linejoin:miter;"/>
   </g>
   <g id="patch_21">
    <path clip-path="url(#p973b463fdd)" d="
M445.943 201.45
L449.818 201.45
L449.818 103.269
L445.943 103.269
z
" style="fill:#348abd;stroke:#000000;stroke-linejoin:miter;"/>
   </g>
   <g id="patch_22">
    <path clip-path="url(#p973b463fdd)" d="
M469.193 201.45
L473.068 201.45
L473.068 100.034
L469.193 100.034
z
" style="fill:#348abd;stroke:#000000;stroke-linejoin:miter;"/>
   </g>
   <g id="patch_23">
    <path clip-path="url(#p973b463fdd)" d="
M492.443 201.45
L496.318 201.45
L496.318 100.386
L492.443 100.386
z
" style="fill:#348abd;stroke:#000000;stroke-linejoin:miter;"/>
   </g>
   <g id="patch_24">
    <path clip-path="url(#p973b463fdd)" d="
M515.693 201.45
L519.568 201.45
L519.568 99.0326
L515.693 99.0326
z
" style="fill:#348abd;stroke:#000000;stroke-linejoin:miter;"/>
   </g>
   <g id="patch_25">
    <path clip-path="url(#p973b463fdd)" d="
M538.943 201.45
L542.818 201.45
L542.818 102.361
L538.943 102.361
z
" style="fill:#348abd;stroke:#000000;stroke-linejoin:miter;"/>
   </g>
   <g id="patch_26">
    <path clip-path="url(#p973b463fdd)" d="
M562.193 201.45
L566.068 201.45
L566.068 100.861
L562.193 100.861
z
" style="fill:#348abd;stroke:#000000;stroke-linejoin:miter;"/>
   </g>
   <g id="patch_27">
    <path clip-path="url(#p973b463fdd)" d="
M31.3177 201.45
L35.1927 201.45
L35.1927 41.4694
L31.3177 41.4694
z
" style="fill:#a60628;stroke:#000000;stroke-linejoin:miter;"/>
   </g>
   <g id="patch_28">
    <path clip-path="url(#p973b463fdd)" d="
M54.5677 201.45
L58.4427 201.45
L58.4427 44.4223
L54.5677 44.4223
z
" style="fill:#a60628;stroke:#000000;stroke-linejoin:miter;"/>
   </g>
   <g id="patch_29">
    <path clip-path="url(#p973b463fdd)" d="
M77.8177 201.45
L81.6927 201.45
L81.6927 44.8926
L77.8177 44.8926
z
" style="fill:#a60628;stroke:#000000;stroke-linejoin:miter;"/>
   </g>
   <g id="patch_30">
    <path clip-path="url(#p973b463fdd)" d="
M101.068 201.45
L104.943 201.45
L104.943 48.5994
L101.068 48.5994
z
" style="fill:#a60628;stroke:#000000;stroke-linejoin:miter;"/>
   </g>
   <g id="patch_31">
    <path clip-path="url(#p973b463fdd)" d="
M124.318 201.45
L128.193 201.45
L128.193 51.2675
L124.318 51.2675
z
" style="fill:#a60628;stroke:#000000;stroke-linejoin:miter;"/>
   </g>
   <g id="patch_32">
    <path clip-path="url(#p973b463fdd)" d="
M147.568 201.45
L151.443 201.45
L151.443 55.785
L147.568 55.785
z
" style="fill:#a60628;stroke:#000000;stroke-linejoin:miter;"/>
   </g>
   <g id="patch_33">
    <path clip-path="url(#p973b463fdd)" d="
M170.818 201.45
L174.693 201.45
L174.693 61.98
L170.818 61.98
z
" style="fill:#a60628;stroke:#000000;stroke-linejoin:miter;"/>
   </g>
   <g id="patch_34">
    <path clip-path="url(#p973b463fdd)" d="
M194.068 201.45
L197.943 201.45
L197.943 61.1829
L194.068 61.1829
z
" style="fill:#a60628;stroke:#000000;stroke-linejoin:miter;"/>
   </g>
   <g id="patch_35">
    <path clip-path="url(#p973b463fdd)" d="
M217.318 201.45
L221.193 201.45
L221.193 58.9592
L217.318 58.9592
z
" style="fill:#a60628;stroke:#000000;stroke-linejoin:miter;"/>
   </g>
   <g id="patch_36">
    <path clip-path="url(#p973b463fdd)" d="
M240.568 201.45
L244.443 201.45
L244.443 58.303
L240.568 58.303
z
" style="fill:#a60628;stroke:#000000;stroke-linejoin:miter;"/>
   </g>
   <g id="patch_37">
    <path clip-path="url(#p973b463fdd)" d="
M263.818 201.45
L267.693 201.45
L267.693 58.1955
L263.818 58.1955
z
" style="fill:#a60628;stroke:#000000;stroke-linejoin:miter;"/>
   </g>
   <g id="patch_38">
    <path clip-path="url(#p973b463fdd)" d="
M287.068 201.45
L290.943 201.45
L290.943 59.217
L287.068 59.217
z
" style="fill:#a60628;stroke:#000000;stroke-linejoin:miter;"/>
   </g>
   <g id="patch_39">
    <path clip-path="url(#p973b463fdd)" d="
M310.318 201.45
L314.193 201.45
L314.193 67.3684
L310.318 67.3684
z
" style="fill:#a60628;stroke:#000000;stroke-linejoin:miter;"/>
   </g>
   <g id="patch_40">
    <path clip-path="url(#p973b463fdd)" d="
M333.568 201.45
L337.443 201.45
L337.443 70.8048
L333.568 70.8048
z
" style="fill:#a60628;stroke:#000000;stroke-linejoin:miter;"/>
   </g>
   <g id="patch_41">
    <path clip-path="url(#p973b463fdd)" d="
M356.818 201.45
L360.693 201.45
L360.693 65.7073
L356.818 65.7073
z
" style="fill:#a60628;stroke:#000000;stroke-linejoin:miter;"/>
   </g>
   <g id="patch_42">
    <path clip-path="url(#p973b463fdd)" d="
M380.068 201.45
L383.943 201.45
L383.943 73.6517
L380.068 73.6517
z
" style="fill:#a60628;stroke:#000000;stroke-linejoin:miter;"/>
   </g>
   <g id="patch_43">
    <path clip-path="url(#p973b463fdd)" d="
M403.318 201.45
L407.193 201.45
L407.193 73.6915
L403.318 73.6915
z
" style="fill:#a60628;stroke:#000000;stroke-linejoin:miter;"/>
   </g>
   <g id="patch_44">
    <path clip-path="url(#p973b463fdd)" d="
M426.568 201.45
L430.443 201.45
L430.443 68.0679
L426.568 68.0679
z
" style="fill:#a60628;stroke:#000000;stroke-linejoin:miter;"/>
   </g>
   <g id="patch_45">
    <path clip-path="url(#p973b463fdd)" d="
M449.818 201.45
L453.693 201.45
L453.693 67.5951
L449.818 67.5951
z
" style="fill:#a60628;stroke:#000000;stroke-linejoin:miter;"/>
   </g>
   <g id="patch_46">
    <path clip-path="url(#p973b463fdd)" d="
M473.068 201.45
L476.943 201.45
L476.943 57.2073
L473.068 57.2073
z
" style="fill:#a60628;stroke:#000000;stroke-linejoin:miter;"/>
   </g>
   <g id="patch_47">
    <path clip-path="url(#p973b463fdd)" d="
M496.318 201.45
L500.193 201.45
L500.193 48.8314
L496.318 48.8314
z
" style="fill:#a60628;stroke:#000000;stroke-linejoin:miter;"/>
   </g>
   <g id="patch_48">
    <path clip-path="url(#p973b463fdd)" d="
M519.568 201.45
L523.443 201.45
L523.443 40.7114
L519.568 40.7114
z
" style="fill:#a60628;stroke:#000000;stroke-linejoin:miter;"/>
   </g>
   <g id="patch_49">
    <path clip-path="url(#p973b463fdd)" d="
M542.818 201.45
L546.693 201.45
L546.693 40.3832
L542.818 40.3832
z
" style="fill:#a60628;stroke:#000000;stroke-linejoin:miter;"/>
   </g>
   <g id="patch_50">
    <path clip-path="url(#p973b463fdd)" d="
M566.068 201.45
L569.943 201.45
L569.943 42.5718
L566.068 42.5718
z
" style="fill:#a60628;stroke:#000000;stroke-linejoin:miter;"/>
   </g>
   <g id="patch_51">
    <path clip-path="url(#p973b463fdd)" d="
M35.1927 201.45
L39.0677 201.45
L39.0677 56.4211
L35.1927 56.4211
z
" style="fill:#7a68a6;stroke:#000000;stroke-linejoin:miter;"/>
   </g>
   <g id="patch_52">
    <path clip-path="url(#p973b463fdd)" d="
M58.4427 201.45
L62.3177 201.45
L62.3177 57.2159
L58.4427 57.2159
z
" style="fill:#7a68a6;stroke:#000000;stroke-linejoin:miter;"/>
   </g>
   <g id="patch_53">
    <path clip-path="url(#p973b463fdd)" d="
M81.6927 201.45
L85.5677 201.45
L85.5677 52.2183
L81.6927 52.2183
z
" style="fill:#7a68a6;stroke:#000000;stroke-linejoin:miter;"/>
   </g>
   <g id="patch_54">
    <path clip-path="url(#p973b463fdd)" d="
M104.943 201.45
L108.818 201.45
L108.818 53.011
L104.943 53.011
z
" style="fill:#7a68a6;stroke:#000000;stroke-linejoin:miter;"/>
   </g>
   <g id="patch_55">
    <path clip-path="url(#p973b463fdd)" d="
M128.193 201.45
L132.068 201.45
L132.068 52.072
L128.193 52.072
z
" style="fill:#7a68a6;stroke:#000000;stroke-linejoin:miter;"/>
   </g>
   <g id="patch_56">
    <path clip-path="url(#p973b463fdd)" d="
M151.443 201.45
L155.318 201.45
L155.318 47.938
L151.443 47.938
z
" style="fill:#7a68a6;stroke:#000000;stroke-linejoin:miter;"/>
   </g>
   <g id="patch_57">
    <path clip-path="url(#p973b463fdd)" d="
M174.693 201.45
L178.568 201.45
L178.568 45.7522
L174.693 45.7522
z
" style="fill:#7a68a6;stroke:#000000;stroke-linejoin:miter;"/>
   </g>
   <g id="patch_58">
    <path clip-path="url(#p973b463fdd)" d="
M197.943 201.45
L201.818 201.45
L201.818 40.6537
L197.943 40.6537
z
" style="fill:#7a68a6;stroke:#000000;stroke-linejoin:miter;"/>
   </g>
   <g id="patch_59">
    <path clip-path="url(#p973b463fdd)" d="
M221.193 201.45
L225.068 201.45
L225.068 35.9509
L221.193 35.9509
z
" style="fill:#7a68a6;stroke:#000000;stroke-linejoin:miter;"/>
   </g>
   <g id="patch_60">
    <path clip-path="url(#p973b463fdd)" d="
M244.443 201.45
L248.318 201.45
L248.318 30.833
L244.443 30.833
z
" style="fill:#7a68a6;stroke:#000000;stroke-linejoin:miter;"/>
   </g>
   <g id="patch_61">
    <path clip-path="url(#p973b463fdd)" d="
M267.693 201.45
L271.568 201.45
L271.568 35.6752
L267.693 35.6752
z
" style="fill:#7a68a6;stroke:#000000;stroke-linejoin:miter;"/>
   </g>
   <g id="patch_62">
    <path clip-path="url(#p973b463fdd)" d="
M290.943 201.45
L294.818 201.45
L294.818 40.0178
L290.943 40.0178
z
" style="fill:#7a68a6;stroke:#000000;stroke-linejoin:miter;"/>
   </g>
   <g id="patch_63">
    <path clip-path="url(#p973b463fdd)" d="
M314.193 201.45
L318.068 201.45
L318.068 48.6998
L314.193 48.6998
z
" style="fill:#7a68a6;stroke:#000000;stroke-linejoin:miter;"/>
   </g>
   <g id="patch_64">
    <path clip-path="url(#p973b463fdd)" d="
M337.443 201.45
L341.318 201.45
L341.318 59.0993
L337.443 59.0993
z
" style="fill:#7a68a6;stroke:#000000;stroke-linejoin:miter;"/>
   </g>
   <g id="patch_65">
    <path clip-path="url(#p973b463fdd)" d="
M360.693 201.45
L364.568 201.45
L364.568 69.7246
L360.693 69.7246
z
" style="fill:#7a68a6;stroke:#000000;stroke-linejoin:miter;"/>
   </g>
   <g id="patch_66">
    <path clip-path="url(#p973b463fdd)" d="
M383.943 201.45
L387.818 201.45
L387.818 75.384
L383.943 75.384
z
" style="fill:#7a68a6;stroke:#000000;stroke-linejoin:miter;"/>
   </g>
   <g id="patch_67">
    <path clip-path="url(#p973b463fdd)" d="
M407.193 201.45
L411.068 201.45
L411.068 77.7749
L407.193 77.7749
z
" style="fill:#7a68a6;stroke:#000000;stroke-linejoin:miter;"/>
   </g>
   <g id="patch_68">
    <path clip-path="url(#p973b463fdd)" d="
M430.443 201.45
L434.318 201.45
L434.318 79.0426
L430.443 79.0426
z
" style="fill:#7a68a6;stroke:#000000;stroke-linejoin:miter;"/>
   </g>
   <g id="patch_69">
    <path clip-path="url(#p973b463fdd)" d="
M453.693 201.45
L457.568 201.45
L457.568 82.5441
L453.693 82.5441
z
" style="fill:#7a68a6;stroke:#000000;stroke-linejoin:miter;"/>
   </g>
   <g id="patch_70">
    <path clip-path="url(#p973b463fdd)" d="
M476.943 201.45
L480.818 201.45
L480.818 76.2335
L476.943 76.2335
z
" style="fill:#7a68a6;stroke:#000000;stroke-linejoin:miter;"/>
   </g>
   <g id="patch_71">
    <path clip-path="url(#p973b463fdd)" d="
M500.193 201.45
L504.068 201.45
L504.068 68.8377
L500.193 68.8377
z
" style="fill:#7a68a6;stroke:#000000;stroke-linejoin:miter;"/>
   </g>
   <g id="patch_72">
    <path clip-path="url(#p973b463fdd)" d="
M523.443 201.45
L527.318 201.45
L527.318 64.9279
L523.443 64.9279
z
" style="fill:#7a68a6;stroke:#000000;stroke-linejoin:miter;"/>
   </g>
   <g id="patch_73">
    <path clip-path="url(#p973b463fdd)" d="
M546.693 201.45
L550.568 201.45
L550.568 62.1164
L546.693 62.1164
z
" style="fill:#7a68a6;stroke:#000000;stroke-linejoin:miter;"/>
   </g>
   <g id="patch_74">
    <path clip-path="url(#p973b463fdd)" d="
M569.943 201.45
L573.818 201.45
L573.818 60.4559
L569.943 60.4559
z
" style="fill:#7a68a6;stroke:#000000;stroke-linejoin:miter;"/>
   </g>
   <g id="patch_75">
    <path d="
M21.6302 28.6504
L579.63 28.6504" style="fill:none;stroke:#000000;stroke-linecap:square;stroke-linejoin:miter;"/>
   </g>
   <g id="patch_76">
    <path d="
M579.63 201.45
L579.63 28.6504" style="fill:none;stroke:#000000;stroke-linecap:square;stroke-linejoin:miter;"/>
   </g>
   <g id="patch_77">
    <path d="
M21.6302 201.45
L579.63 201.45" style="fill:none;stroke:#000000;stroke-linecap:square;stroke-linejoin:miter;"/>
   </g>
   <g id="patch_78">
    <path d="
M21.6302 201.45
L21.6302 28.6504" style="fill:none;stroke:#000000;stroke-linecap:square;stroke-linejoin:miter;"/>
   </g>
   <g id="matplotlib.axis_1">
    <g id="xtick_1">
     <g id="line2d_1">
      <path clip-path="url(#p973b463fdd)" d="
M33.2552 201.45
L33.2552 28.6504" style="fill:none;stroke:#000000;stroke-dasharray:1.000000,3.000000;stroke-dashoffset:0.0;stroke-width:0.5;"/>
     </g>
     <g id="line2d_2">
      <defs>
       <path d="
M0 0
L0 -4" id="m93b0483c22" style="stroke:#000000;stroke-width:0.5;"/>
      </defs>
      <g>
       <use style="stroke:#000000;stroke-width:0.5;" x="33.25520125" xlink:href="#m93b0483c22" y="201.450361875"/>
      </g>
     </g>
     <g id="line2d_3">
      <defs>
       <path d="
M0 0
L0 4" id="m741efc42ff" style="stroke:#000000;stroke-width:0.5;"/>
      </defs>
      <g>
       <use style="stroke:#000000;stroke-width:0.5;" x="33.25520125" xlink:href="#m741efc42ff" y="28.650361875"/>
      </g>
     </g>
     <g id="text_1">
      <!-- 0 -->
      <defs>
       <path d="
M50.3906 35.7969
Q50.3906 27.1562 49.1406 20.3125
Q47.9062 13.4844 45.1406 8.73438
Q42.3906 4 38.0312 1.5
Q33.6875 -0.984375 27.4844 -0.984375
Q21.7344 -0.984375 17.4531 1.5
Q13.1875 4 10.375 8.73438
Q7.5625 13.4844 6.17188 20.3125
Q4.78125 27.1562 4.78125 35.7969
Q4.78125 44.4375 6.03125 51.2656
Q7.28125 58.1094 9.98438 62.8125
Q12.7031 67.5312 17.0156 70.0156
Q21.3438 72.5156 27.4844 72.5156
Q33.2969 72.5156 37.5938 70.0469
Q41.8906 67.5781 44.7188 62.8594
Q47.5625 58.1562 48.9688 51.3125
Q50.3906 44.4844 50.3906 35.7969
M13.8125 35.7969
Q13.8125 28.4688 14.5469 23
Q15.2812 17.5312 16.8906 13.8906
Q18.5 10.25 21.1094 8.42188
Q23.7344 6.59375 27.4844 6.59375
Q31.25 6.59375 33.8906 8.39062
Q36.5312 10.2031 38.2031 13.8125
Q39.8906 17.4375 40.6406 22.9219
Q41.4062 28.4219 41.4062 35.7969
Q41.4062 43.1094 40.6406 48.5781
Q39.8906 54.0469 38.2031 57.6562
Q36.5312 61.2812 33.8906 63.0781
Q31.25 64.8906 27.4844 64.8906
Q23.7344 64.8906 21.1094 63.0781
Q18.5 61.2812 16.8906 57.6562
Q15.2812 54.0469 14.5469 48.5781
Q13.8125 43.1094 13.8125 35.7969" id="WenQuanYiMicroHei-30"/>
      </defs>
      <g transform="translate(35.8518184375 210.009475)rotate(-90.0)scale(0.09996 -0.09996)">
       <use xlink:href="#WenQuanYiMicroHei-30"/>
      </g>
     </g>
    </g>
    <g id="xtick_2">
     <g id="line2d_4">
      <path clip-path="url(#p973b463fdd)" d="
M56.5052 201.45
L56.5052 28.6504" style="fill:none;stroke:#000000;stroke-dasharray:1.000000,3.000000;stroke-dashoffset:0.0;stroke-width:0.5;"/>
     </g>
     <g id="line2d_5">
      <g>
       <use style="stroke:#000000;stroke-width:0.5;" x="56.50520125" xlink:href="#m93b0483c22" y="201.450361875"/>
      </g>
     </g>
     <g id="line2d_6">
      <g>
       <use style="stroke:#000000;stroke-width:0.5;" x="56.50520125" xlink:href="#m741efc42ff" y="28.650361875"/>
      </g>
     </g>
     <g id="text_2">
      <!-- 1 -->
      <defs>
       <path d="
M34.7188 0
L26.125 0
L26.125 44.5781
Q26.125 46.6875 26.1406 49.0781
Q26.1719 51.4688 26.2344 53.8281
Q26.3125 56.2031 26.3906 58.375
Q26.4688 60.5469 26.5156 62.2031
Q25.6875 61.3281 25.0469 60.6875
Q24.4219 60.0625 23.75 59.4688
Q23.0938 58.8906 22.3594 58.2188
Q21.625 57.5625 20.6094 56.6875
L13.375 50.7812
L8.6875 56.7812
L27.3906 71.3906
L34.7188 71.3906
z
" id="WenQuanYiMicroHei-31"/>
      </defs>
      <g transform="translate(59.1018184375 208.052445625)rotate(-90.0)scale(0.09996 -0.09996)">
       <use xlink:href="#WenQuanYiMicroHei-31"/>
      </g>
     </g>
    </g>
    <g id="xtick_3">
     <g id="line2d_7">
      <path clip-path="url(#p973b463fdd)" d="
M79.7552 201.45
L79.7552 28.6504" style="fill:none;stroke:#000000;stroke-dasharray:1.000000,3.000000;stroke-dashoffset:0.0;stroke-width:0.5;"/>
     </g>
     <g id="line2d_8">
      <g>
       <use style="stroke:#000000;stroke-width:0.5;" x="79.75520125" xlink:href="#m93b0483c22" y="201.450361875"/>
      </g>
     </g>
     <g id="line2d_9">
      <g>
       <use style="stroke:#000000;stroke-width:0.5;" x="79.75520125" xlink:href="#m741efc42ff" y="28.650361875"/>
      </g>
     </g>
     <g id="text_3">
      <!-- 2 -->
      <defs>
       <path d="
M49.2188 0
L4.6875 0
L4.6875 7.625
L21.7812 26.2188
Q25.4375 30.1719 28.3125 33.4375
Q31.2031 36.7188 33.2188 39.8438
Q35.25 42.9688 36.3281 46.1094
Q37.4062 49.2656 37.4062 52.9844
Q37.4062 55.8594 36.5781 58.0469
Q35.75 60.25 34.2031 61.7812
Q32.6719 63.3281 30.5625 64.1094
Q28.4688 64.8906 25.875 64.8906
Q21.2344 64.8906 17.5 63.0156
Q13.7656 61.1406 10.4062 58.2031
L5.42188 64.0156
Q7.375 65.7656 9.60938 67.2969
Q11.8594 68.8438 14.4531 69.9688
Q17.0469 71.0938 19.9219 71.75
Q22.7969 72.4062 25.9844 72.4062
Q30.6719 72.4062 34.4531 71.0938
Q38.2344 69.7812 40.8594 67.3125
Q43.5 64.8438 44.9375 61.2969
Q46.3906 57.7656 46.3906 53.3281
Q46.3906 49.1719 45.0938 45.4062
Q43.7969 41.6562 41.5312 38.0156
Q39.2656 34.375 36.1094 30.7031
Q32.9531 27.0469 29.2969 23.0938
L15.5781 8.5
L15.5781 8.10938
L49.2188 8.10938
z
" id="WenQuanYiMicroHei-32"/>
      </defs>
      <g transform="translate(82.3518184375 209.901705625)rotate(-90.0)scale(0.09996 -0.09996)">
       <use xlink:href="#WenQuanYiMicroHei-32"/>
      </g>
     </g>
    </g>
    <g id="xtick_4">
     <g id="line2d_10">
      <path clip-path="url(#p973b463fdd)" d="
M103.005 201.45
L103.005 28.6504" style="fill:none;stroke:#000000;stroke-dasharray:1.000000,3.000000;stroke-dashoffset:0.0;stroke-width:0.5;"/>
     </g>
     <g id="line2d_11">
      <g>
       <use style="stroke:#000000;stroke-width:0.5;" x="103.00520125" xlink:href="#m93b0483c22" y="201.450361875"/>
      </g>
     </g>
     <g id="line2d_12">
      <g>
       <use style="stroke:#000000;stroke-width:0.5;" x="103.00520125" xlink:href="#m741efc42ff" y="28.650361875"/>
      </g>
     </g>
     <g id="text_4">
      <!-- 3 -->
      <defs>
       <path d="
M46.9219 54.6875
Q46.9219 51.125 45.7969 48.1875
Q44.6719 45.2656 42.6406 43.1094
Q40.625 40.9688 37.7969 39.5781
Q34.9688 38.1875 31.5 37.5938
L31.5 37.3125
Q40.1406 36.2344 44.625 31.8125
Q49.125 27.3906 49.125 20.3125
Q49.125 15.625 47.5312 11.7188
Q45.9531 7.8125 42.7188 4.98438
Q39.5 2.15625 34.5625 0.578125
Q29.6406 -0.984375 22.9062 -0.984375
Q17.5781 -0.984375 12.8594 -0.140625
Q8.15625 0.6875 4 2.875
L4 11.1875
Q8.25 8.9375 13.2031 7.71875
Q18.1719 6.5 22.7031 6.5
Q27.2031 6.5 30.4688 7.46875
Q33.7344 8.45312 35.8594 10.25
Q37.9844 12.0625 38.9844 14.6875
Q39.9844 17.3281 39.9844 20.6094
Q39.9844 23.9219 38.6875 26.2812
Q37.4062 28.6562 35.0156 30.1875
Q32.625 31.7344 29.1719 32.4688
Q25.7344 33.2031 21.3906 33.2031
L14.8906 33.2031
L14.8906 40.5781
L21.3906 40.5781
Q25.3438 40.5781 28.4219 41.5469
Q31.5 42.5312 33.5625 44.3281
Q35.6406 46.1406 36.7188 48.625
Q37.7969 51.125 37.7969 54.1094
Q37.7969 56.6406 36.9062 58.6406
Q36.0312 60.6406 34.4219 62.0312
Q32.8125 63.4219 30.5625 64.1562
Q28.3281 64.8906 25.5938 64.8906
Q20.3594 64.8906 16.375 63.25
Q12.4062 61.625 8.79688 58.9844
L4.29688 65.0938
Q6.15625 66.6094 8.42188 67.9219
Q10.6875 69.2344 13.375 70.2344
Q16.0625 71.2344 19.1094 71.8125
Q22.1719 72.4062 25.5938 72.4062
Q30.8594 72.4062 34.8281 71.0938
Q38.8125 69.7812 41.5 67.4062
Q44.1875 65.0469 45.5469 61.7969
Q46.9219 58.5469 46.9219 54.6875" id="WenQuanYiMicroHei-33"/>
      </defs>
      <g transform="translate(105.601818438 209.961056875)rotate(-90.0)scale(0.09996 -0.09996)">
       <use xlink:href="#WenQuanYiMicroHei-33"/>
      </g>
     </g>
    </g>
    <g id="xtick_5">
     <g id="line2d_13">
      <path clip-path="url(#p973b463fdd)" d="
M126.255 201.45
L126.255 28.6504" style="fill:none;stroke:#000000;stroke-dasharray:1.000000,3.000000;stroke-dashoffset:0.0;stroke-width:0.5;"/>
     </g>
     <g id="line2d_14">
      <g>
       <use style="stroke:#000000;stroke-width:0.5;" x="126.25520125" xlink:href="#m93b0483c22" y="201.450361875"/>
      </g>
     </g>
     <g id="line2d_15">
      <g>
       <use style="stroke:#000000;stroke-width:0.5;" x="126.25520125" xlink:href="#m741efc42ff" y="28.650361875"/>
      </g>
     </g>
     <g id="text_5">
      <!-- 4 -->
      <defs>
       <path d="
M53.0781 16.0156
L42.6719 16.0156
L42.6719 0
L34.0781 0
L34.0781 16.0156
L1.125 16.0156
L1.125 23.7812
L33.5 71.7812
L42.6719 71.7812
L42.6719 24.125
L53.0781 24.125
z

M34.0781 24.125
L34.0781 41.5
Q34.0781 44.2344 34.1562 47.2344
Q34.2344 50.25 34.3281 53.0938
Q34.4219 55.9531 34.5469 58.4375
Q34.6719 60.9375 34.7188 62.5938
L34.2812 62.5938
Q33.9375 61.625 33.4219 60.4219
Q32.9062 59.2344 32.2969 58.0312
Q31.6875 56.8438 31.0469 55.7188
Q30.4219 54.5938 29.8906 53.8125
L9.8125 24.125
z
" id="WenQuanYiMicroHei-34"/>
      </defs>
      <g transform="translate(128.851818437 210.64359625)rotate(-90.0)scale(0.09996 -0.09996)">
       <use xlink:href="#WenQuanYiMicroHei-34"/>
      </g>
     </g>
    </g>
    <g id="xtick_6">
     <g id="line2d_16">
      <path clip-path="url(#p973b463fdd)" d="
M149.505 201.45
L149.505 28.6504" style="fill:none;stroke:#000000;stroke-dasharray:1.000000,3.000000;stroke-dashoffset:0.0;stroke-width:0.5;"/>
     </g>
     <g id="line2d_17">
      <g>
       <use style="stroke:#000000;stroke-width:0.5;" x="149.50520125" xlink:href="#m93b0483c22" y="201.450361875"/>
      </g>
     </g>
     <g id="line2d_18">
      <g>
       <use style="stroke:#000000;stroke-width:0.5;" x="149.50520125" xlink:href="#m741efc42ff" y="28.650361875"/>
      </g>
     </g>
     <g id="text_6">
      <!-- 5 -->
      <defs>
       <path d="
M26.6094 43.7969
Q31.4531 43.7969 35.625 42.4531
Q39.7969 41.1094 42.8906 38.4688
Q46 35.8438 47.75 31.9375
Q49.5156 28.0312 49.5156 22.9062
Q49.5156 17.3281 47.8438 12.8906
Q46.1875 8.45312 42.9219 5.375
Q39.6562 2.29688 34.8438 0.65625
Q30.0312 -0.984375 23.7812 -0.984375
Q21.2969 -0.984375 18.875 -0.734375
Q16.4531 -0.484375 14.2344 -0.015625
Q12.0156 0.4375 10.0156 1.17188
Q8.01562 1.90625 6.39062 2.875
L6.39062 11.2812
Q8.01562 10.1562 10.1875 9.28125
Q12.3594 8.40625 14.75 7.8125
Q17.1406 7.23438 19.5469 6.90625
Q21.9688 6.59375 24.0312 6.59375
Q27.875 6.59375 30.9062 7.5
Q33.9375 8.40625 36.0312 10.2969
Q38.1406 12.2031 39.25 15.0781
Q40.375 17.9688 40.375 21.9219
Q40.375 28.9062 36.0781 32.5938
Q31.7812 36.2812 23.5781 36.2812
Q22.2656 36.2812 20.7188 36.1562
Q19.1875 36.0312 17.6406 35.8281
Q16.1094 35.6406 14.7188 35.4219
Q13.3281 35.2031 12.3125 35.0156
L7.90625 37.7969
L10.5938 71.3906
L44.2812 71.3906
L44.2812 63.2812
L18.3125 63.2812
L16.4062 42.8281
Q17.9688 43.1094 20.5312 43.4531
Q23.0938 43.7969 26.6094 43.7969" id="WenQuanYiMicroHei-35"/>
      </defs>
      <g transform="translate(152.101818437 209.761136875)rotate(-90.0)scale(0.09996 -0.09996)">
       <use xlink:href="#WenQuanYiMicroHei-35"/>
      </g>
     </g>
    </g>
    <g id="xtick_7">
     <g id="line2d_19">
      <path clip-path="url(#p973b463fdd)" d="
M172.755 201.45
L172.755 28.6504" style="fill:none;stroke:#000000;stroke-dasharray:1.000000,3.000000;stroke-dashoffset:0.0;stroke-width:0.5;"/>
     </g>
     <g id="line2d_20">
      <g>
       <use style="stroke:#000000;stroke-width:0.5;" x="172.75520125" xlink:href="#m93b0483c22" y="201.450361875"/>
      </g>
     </g>
     <g id="line2d_21">
      <g>
       <use style="stroke:#000000;stroke-width:0.5;" x="172.75520125" xlink:href="#m741efc42ff" y="28.650361875"/>
      </g>
     </g>
     <g id="text_7">
      <!-- 6 -->
      <defs>
       <path d="
M5.51562 30.5156
Q5.51562 35.6406 6.03125 40.7188
Q6.54688 45.7969 7.82812 50.4531
Q9.125 55.125 11.375 59.125
Q13.625 63.1406 17.0938 66.0938
Q20.5625 69.0469 25.3906 70.7188
Q30.2188 72.4062 36.7188 72.4062
Q37.6406 72.4062 38.7656 72.3594
Q39.8906 72.3125 41.0312 72.1875
Q42.1875 72.0781 43.2344 71.9062
Q44.2812 71.7344 45.125 71.4844
L45.125 63.9219
Q43.4062 64.5 41.25 64.7969
Q39.1094 65.0938 37.0156 65.0938
Q32.625 65.0938 29.2656 64.0312
Q25.9219 62.9844 23.4844 61.0781
Q21.0469 59.1875 19.4062 56.5469
Q17.7812 53.9062 16.75 50.7031
Q15.7188 47.5156 15.2344 43.8906
Q14.75 40.2812 14.5938 36.375
L15.1875 36.375
Q16.1562 38.1406 17.5469 39.6719
Q18.9531 41.2188 20.7969 42.3125
Q22.6562 43.4062 24.9688 44.0312
Q27.2969 44.6719 30.1719 44.6719
Q34.8125 44.6719 38.5625 43.2344
Q42.3281 41.7969 44.9688 39.0156
Q47.6094 36.2344 49.0469 32.2031
Q50.4844 28.1719 50.4844 23
Q50.4844 17.4375 48.9688 12.9844
Q47.4688 8.54688 44.625 5.4375
Q41.7969 2.34375 37.7969 0.671875
Q33.7969 -0.984375 28.8125 -0.984375
Q23.9219 -0.984375 19.6406 0.921875
Q15.375 2.82812 12.25 6.73438
Q9.125 10.6406 7.3125 16.5469
Q5.51562 22.4688 5.51562 30.5156
M28.7188 6.5
Q31.6406 6.5 34.0469 7.5
Q36.4688 8.5 38.2188 10.5156
Q39.9844 12.5469 40.9375 15.6406
Q41.8906 18.75 41.8906 23
Q41.8906 26.4219 41.0781 29.125
Q40.2812 31.8438 38.6719 33.7344
Q37.0625 35.6406 34.6406 36.6719
Q32.2344 37.7031 29 37.7031
Q25.7344 37.7031 23.0156 36.5469
Q20.3125 35.4062 18.4062 33.5625
Q16.5 31.7344 15.4531 29.3906
Q14.4062 27.0469 14.4062 24.7031
Q14.4062 21.4375 15.3125 18.1875
Q16.2188 14.9375 18 12.3438
Q19.7812 9.76562 22.4531 8.125
Q25.1406 6.5 28.7188 6.5" id="WenQuanYiMicroHei-36"/>
      </defs>
      <g transform="translate(175.351818437 209.945438125)rotate(-90.0)scale(0.09996 -0.09996)">
       <use xlink:href="#WenQuanYiMicroHei-36"/>
      </g>
     </g>
    </g>
    <g id="xtick_8">
     <g id="line2d_22">
      <path clip-path="url(#p973b463fdd)" d="
M196.005 201.45
L196.005 28.6504" style="fill:none;stroke:#000000;stroke-dasharray:1.000000,3.000000;stroke-dashoffset:0.0;stroke-width:0.5;"/>
     </g>
     <g id="line2d_23">
      <g>
       <use style="stroke:#000000;stroke-width:0.5;" x="196.00520125" xlink:href="#m93b0483c22" y="201.450361875"/>
      </g>
     </g>
     <g id="line2d_24">
      <g>
       <use style="stroke:#000000;stroke-width:0.5;" x="196.00520125" xlink:href="#m741efc42ff" y="28.650361875"/>
      </g>
     </g>
     <g id="text_8">
      <!-- 7 -->
      <defs>
       <path d="
M13.7188 0
L41.2188 63.2812
L4.39062 63.2812
L4.39062 71.3906
L50.2969 71.3906
L50.2969 64.3125
L23.1875 0
z
" id="WenQuanYiMicroHei-37"/>
      </defs>
      <g transform="translate(198.601818437 210.039150625)rotate(-90.0)scale(0.09996 -0.09996)">
       <use xlink:href="#WenQuanYiMicroHei-37"/>
      </g>
     </g>
    </g>
    <g id="xtick_9">
     <g id="line2d_25">
      <path clip-path="url(#p973b463fdd)" d="
M219.255 201.45
L219.255 28.6504" style="fill:none;stroke:#000000;stroke-dasharray:1.000000,3.000000;stroke-dashoffset:0.0;stroke-width:0.5;"/>
     </g>
     <g id="line2d_26">
      <g>
       <use style="stroke:#000000;stroke-width:0.5;" x="219.25520125" xlink:href="#m93b0483c22" y="201.450361875"/>
      </g>
     </g>
     <g id="line2d_27">
      <g>
       <use style="stroke:#000000;stroke-width:0.5;" x="219.25520125" xlink:href="#m741efc42ff" y="28.650361875"/>
      </g>
     </g>
     <g id="text_9">
      <!-- 8 -->
      <defs>
       <path d="
M27.5938 72.5156
Q31.6875 72.5156 35.3281 71.4375
Q38.9688 70.3594 41.7188 68.2031
Q44.4844 66.0625 46.0938 62.8438
Q47.7031 59.625 47.7031 55.3281
Q47.7031 52.0469 46.7188 49.4062
Q45.75 46.7812 44.0312 44.6562
Q42.3281 42.5312 39.9844 40.8438
Q37.6406 39.1562 34.9062 37.7969
Q37.75 36.2812 40.4531 34.4219
Q43.1719 32.5625 45.2812 30.25
Q47.4062 27.9375 48.7031 25.0469
Q50 22.1719 50 18.6094
Q50 14.1094 48.3594 10.4688
Q46.7344 6.84375 43.7812 4.29688
Q40.8281 1.76562 36.6875 0.390625
Q32.5625 -0.984375 27.5938 -0.984375
Q22.2188 -0.984375 18.0469 0.328125
Q13.875 1.65625 11.0156 4.125
Q8.15625 6.59375 6.65625 10.1562
Q5.17188 13.7188 5.17188 18.2188
Q5.17188 21.875 6.26562 24.7969
Q7.375 27.7344 9.21875 30.0781
Q11.0781 32.4219 13.6094 34.2188
Q16.1562 36.0312 19 37.4062
Q16.6094 38.9219 14.5 40.7031
Q12.4062 42.4844 10.8594 44.6719
Q9.32812 46.875 8.42188 49.5312
Q7.51562 52.2031 7.51562 55.4219
Q7.51562 59.6719 9.15625 62.8594
Q10.7969 66.0625 13.5781 68.2031
Q16.3594 70.3594 20 71.4375
Q23.6406 72.5156 27.5938 72.5156
M13.9219 18.1094
Q13.9219 15.5312 14.7031 13.3594
Q15.4844 11.1875 17.1406 9.64062
Q18.7969 8.10938 21.3281 7.25
Q23.875 6.39062 27.3906 6.39062
Q30.8125 6.39062 33.4219 7.25
Q36.0312 8.10938 37.7812 9.6875
Q39.5469 11.2812 40.4219 13.5156
Q41.3125 15.7656 41.3125 18.5
Q41.3125 21.0469 40.3594 23.0938
Q39.4062 25.1406 37.625 26.8906
Q35.8438 28.6562 33.3438 30.2188
Q30.8594 31.7812 27.7812 33.2969
L26.3125 33.9844
Q20.1719 31.0625 17.0469 27.2656
Q13.9219 23.4844 13.9219 18.1094
M27.4844 65.0938
Q22.3125 65.0938 19.2656 62.5
Q16.2188 59.9062 16.2188 54.9844
Q16.2188 52.2031 17.0625 50.1875
Q17.9219 48.1875 19.4375 46.625
Q20.9531 45.0625 23.0781 43.8125
Q25.2031 42.5781 27.6875 41.4062
Q30.0312 42.4844 32.1094 43.75
Q34.1875 45.0156 35.7188 46.625
Q37.25 48.25 38.125 50.2969
Q39.0156 52.3438 39.0156 54.9844
Q39.0156 59.9062 35.9375 62.5
Q32.8594 65.0938 27.4844 65.0938" id="WenQuanYiMicroHei-38"/>
      </defs>
      <g transform="translate(221.851818437 209.93138125)rotate(-90.0)scale(0.09996 -0.09996)">
       <use xlink:href="#WenQuanYiMicroHei-38"/>
      </g>
     </g>
    </g>
    <g id="xtick_10">
     <g id="line2d_28">
      <path clip-path="url(#p973b463fdd)" d="
M242.505 201.45
L242.505 28.6504" style="fill:none;stroke:#000000;stroke-dasharray:1.000000,3.000000;stroke-dashoffset:0.0;stroke-width:0.5;"/>
     </g>
     <g id="line2d_29">
      <g>
       <use style="stroke:#000000;stroke-width:0.5;" x="242.50520125" xlink:href="#m93b0483c22" y="201.450361875"/>
      </g>
     </g>
     <g id="line2d_30">
      <g>
       <use style="stroke:#000000;stroke-width:0.5;" x="242.50520125" xlink:href="#m741efc42ff" y="28.650361875"/>
      </g>
     </g>
     <g id="text_10">
      <!-- 9 -->
      <defs>
       <path d="
M50.2031 40.9219
Q50.2031 35.7969 49.6875 30.6875
Q49.1719 25.5938 47.875 20.9531
Q46.5781 16.3125 44.3281 12.2812
Q42.0938 8.25 38.625 5.3125
Q35.1562 2.39062 30.3125 0.703125
Q25.4844 -0.984375 19 -0.984375
Q18.0625 -0.984375 16.9375 -0.921875
Q15.8281 -0.875 14.7031 -0.75
Q13.5781 -0.640625 12.5 -0.484375
Q11.4219 -0.34375 10.5938 -0.09375
L10.5938 7.51562
Q12.3125 6.89062 14.4531 6.59375
Q16.6094 6.29688 18.7031 6.29688
Q25.2969 6.29688 29.5469 8.59375
Q33.7969 10.8906 36.2812 14.8125
Q38.7656 18.75 39.8125 23.9688
Q40.875 29.2031 41.1094 35.0156
L40.4844 35.0156
Q39.5 33.25 38.125 31.7344
Q36.7656 30.2188 34.9062 29.0938
Q33.0625 27.9844 30.7188 27.3438
Q28.375 26.7031 25.4844 26.7031
Q20.8438 26.7031 17.0781 28.1406
Q13.3281 29.5938 10.6875 32.375
Q8.0625 35.1562 6.60938 39.1875
Q5.17188 43.2188 5.17188 48.3906
Q5.17188 53.9531 6.70312 58.4219
Q8.25 62.8906 11.0625 65.9844
Q13.875 69.0938 17.8906 70.75
Q21.9219 72.4062 26.9062 72.4062
Q31.8438 72.4062 36.0781 70.5
Q40.3281 68.6094 43.4531 64.7031
Q46.5781 60.7969 48.3906 54.8594
Q50.2031 48.9219 50.2031 40.9219
M27 64.8906
Q24.0781 64.8906 21.6562 63.9062
Q19.2344 62.9375 17.4688 60.8906
Q15.7188 58.8438 14.7656 55.7344
Q13.8125 52.6406 13.8125 48.3906
Q13.8125 44.9688 14.625 42.25
Q15.4375 39.5469 17.0469 37.6406
Q18.6562 35.75 21.0625 34.7188
Q23.4844 33.6875 26.7031 33.6875
Q30.0312 33.6875 32.7188 34.8281
Q35.4062 35.9844 37.2969 37.8125
Q39.2031 39.6562 40.25 42
Q41.3125 44.3438 41.3125 46.6875
Q41.3125 49.9531 40.4062 53.2031
Q39.5 56.4531 37.7188 59.0625
Q35.9375 61.6719 33.25 63.2812
Q30.5625 64.8906 27 64.8906" id="WenQuanYiMicroHei-39"/>
      </defs>
      <g transform="translate(245.101818437 209.951685625)rotate(-90.0)scale(0.09996 -0.09996)">
       <use xlink:href="#WenQuanYiMicroHei-39"/>
      </g>
     </g>
    </g>
    <g id="xtick_11">
     <g id="line2d_31">
      <path clip-path="url(#p973b463fdd)" d="
M265.755 201.45
L265.755 28.6504" style="fill:none;stroke:#000000;stroke-dasharray:1.000000,3.000000;stroke-dashoffset:0.0;stroke-width:0.5;"/>
     </g>
     <g id="line2d_32">
      <g>
       <use style="stroke:#000000;stroke-width:0.5;" x="265.75520125" xlink:href="#m93b0483c22" y="201.450361875"/>
      </g>
     </g>
     <g id="line2d_33">
      <g>
       <use style="stroke:#000000;stroke-width:0.5;" x="265.75520125" xlink:href="#m741efc42ff" y="28.650361875"/>
      </g>
     </g>
     <g id="text_11">
      <!-- 10 -->
      <g transform="translate(268.351818438 215.124615625)rotate(-90.0)scale(0.09996 -0.09996)">
       <use xlink:href="#WenQuanYiMicroHei-31"/>
       <use x="55.078125" xlink:href="#WenQuanYiMicroHei-30"/>
      </g>
     </g>
    </g>
    <g id="xtick_12">
     <g id="line2d_34">
      <path clip-path="url(#p973b463fdd)" d="
M289.005 201.45
L289.005 28.6504" style="fill:none;stroke:#000000;stroke-dasharray:1.000000,3.000000;stroke-dashoffset:0.0;stroke-width:0.5;"/>
     </g>
     <g id="line2d_35">
      <g>
       <use style="stroke:#000000;stroke-width:0.5;" x="289.00520125" xlink:href="#m93b0483c22" y="201.450361875"/>
      </g>
     </g>
     <g id="line2d_36">
      <g>
       <use style="stroke:#000000;stroke-width:0.5;" x="289.00520125" xlink:href="#m741efc42ff" y="28.650361875"/>
      </g>
     </g>
     <g id="text_12">
      <!-- 11 -->
      <g transform="translate(291.601818438 213.558055)rotate(-90.0)scale(0.09996 -0.09996)">
       <use xlink:href="#WenQuanYiMicroHei-31"/>
       <use x="55.078125" xlink:href="#WenQuanYiMicroHei-31"/>
      </g>
     </g>
    </g>
    <g id="xtick_13">
     <g id="line2d_37">
      <path clip-path="url(#p973b463fdd)" d="
M312.255 201.45
L312.255 28.6504" style="fill:none;stroke:#000000;stroke-dasharray:1.000000,3.000000;stroke-dashoffset:0.0;stroke-width:0.5;"/>
     </g>
     <g id="line2d_38">
      <g>
       <use style="stroke:#000000;stroke-width:0.5;" x="312.25520125" xlink:href="#m93b0483c22" y="201.450361875"/>
      </g>
     </g>
     <g id="line2d_39">
      <g>
       <use style="stroke:#000000;stroke-width:0.5;" x="312.25520125" xlink:href="#m741efc42ff" y="28.650361875"/>
      </g>
     </g>
     <g id="text_13">
      <!-- 12 -->
      <g transform="translate(314.851818438 215.007475)rotate(-90.0)scale(0.09996 -0.09996)">
       <use xlink:href="#WenQuanYiMicroHei-31"/>
       <use x="55.078125" xlink:href="#WenQuanYiMicroHei-32"/>
      </g>
     </g>
    </g>
    <g id="xtick_14">
     <g id="line2d_40">
      <path clip-path="url(#p973b463fdd)" d="
M335.505 201.45
L335.505 28.6504" style="fill:none;stroke:#000000;stroke-dasharray:1.000000,3.000000;stroke-dashoffset:0.0;stroke-width:0.5;"/>
     </g>
     <g id="line2d_41">
      <g>
       <use style="stroke:#000000;stroke-width:0.5;" x="335.50520125" xlink:href="#m93b0483c22" y="201.450361875"/>
      </g>
     </g>
     <g id="line2d_42">
      <g>
       <use style="stroke:#000000;stroke-width:0.5;" x="335.50520125" xlink:href="#m741efc42ff" y="28.650361875"/>
      </g>
     </g>
     <g id="text_14">
      <!-- 13 -->
      <g transform="translate(338.101818438 214.99810375)rotate(-90.0)scale(0.09996 -0.09996)">
       <use xlink:href="#WenQuanYiMicroHei-31"/>
       <use x="55.078125" xlink:href="#WenQuanYiMicroHei-33"/>
      </g>
     </g>
    </g>
    <g id="xtick_15">
     <g id="line2d_43">
      <path clip-path="url(#p973b463fdd)" d="
M358.755 201.45
L358.755 28.6504" style="fill:none;stroke:#000000;stroke-dasharray:1.000000,3.000000;stroke-dashoffset:0.0;stroke-width:0.5;"/>
     </g>
     <g id="line2d_44">
      <g>
       <use style="stroke:#000000;stroke-width:0.5;" x="358.75520125" xlink:href="#m93b0483c22" y="201.450361875"/>
      </g>
     </g>
     <g id="line2d_45">
      <g>
       <use style="stroke:#000000;stroke-width:0.5;" x="358.75520125" xlink:href="#m741efc42ff" y="28.650361875"/>
      </g>
     </g>
     <g id="text_15">
      <!-- 14 -->
      <g transform="translate(361.351818438 215.393258125)rotate(-90.0)scale(0.09996 -0.09996)">
       <use xlink:href="#WenQuanYiMicroHei-31"/>
       <use x="55.078125" xlink:href="#WenQuanYiMicroHei-34"/>
      </g>
     </g>
    </g>
    <g id="xtick_16">
     <g id="line2d_46">
      <path clip-path="url(#p973b463fdd)" d="
M382.005 201.45
L382.005 28.6504" style="fill:none;stroke:#000000;stroke-dasharray:1.000000,3.000000;stroke-dashoffset:0.0;stroke-width:0.5;"/>
     </g>
     <g id="line2d_47">
      <g>
       <use style="stroke:#000000;stroke-width:0.5;" x="382.00520125" xlink:href="#m93b0483c22" y="201.450361875"/>
      </g>
     </g>
     <g id="line2d_48">
      <g>
       <use style="stroke:#000000;stroke-width:0.5;" x="382.00520125" xlink:href="#m741efc42ff" y="28.650361875"/>
      </g>
     </g>
     <g id="text_16">
      <!-- 15 -->
      <g transform="translate(384.601818438 215.037150625)rotate(-90.0)scale(0.09996 -0.09996)">
       <use xlink:href="#WenQuanYiMicroHei-31"/>
       <use x="55.078125" xlink:href="#WenQuanYiMicroHei-35"/>
      </g>
     </g>
    </g>
    <g id="xtick_17">
     <g id="line2d_49">
      <path clip-path="url(#p973b463fdd)" d="
M405.255 201.45
L405.255 28.6504" style="fill:none;stroke:#000000;stroke-dasharray:1.000000,3.000000;stroke-dashoffset:0.0;stroke-width:0.5;"/>
     </g>
     <g id="line2d_50">
      <g>
       <use style="stroke:#000000;stroke-width:0.5;" x="405.25520125" xlink:href="#m93b0483c22" y="201.450361875"/>
      </g>
     </g>
     <g id="line2d_51">
      <g>
       <use style="stroke:#000000;stroke-width:0.5;" x="405.25520125" xlink:href="#m741efc42ff" y="28.650361875"/>
      </g>
     </g>
     <g id="text_17">
      <!-- 16 -->
      <g transform="translate(407.851818438 215.133986875)rotate(-90.0)scale(0.09996 -0.09996)">
       <use xlink:href="#WenQuanYiMicroHei-31"/>
       <use x="55.078125" xlink:href="#WenQuanYiMicroHei-36"/>
      </g>
     </g>
    </g>
    <g id="xtick_18">
     <g id="line2d_52">
      <path clip-path="url(#p973b463fdd)" d="
M428.505 201.45
L428.505 28.6504" style="fill:none;stroke:#000000;stroke-dasharray:1.000000,3.000000;stroke-dashoffset:0.0;stroke-width:0.5;"/>
     </g>
     <g id="line2d_53">
      <g>
       <use style="stroke:#000000;stroke-width:0.5;" x="428.50520125" xlink:href="#m93b0483c22" y="201.450361875"/>
      </g>
     </g>
     <g id="line2d_54">
      <g>
       <use style="stroke:#000000;stroke-width:0.5;" x="428.50520125" xlink:href="#m741efc42ff" y="28.650361875"/>
      </g>
     </g>
     <g id="text_18">
      <!-- 17 -->
      <g transform="translate(431.101818438 215.115244375)rotate(-90.0)scale(0.09996 -0.09996)">
       <use xlink:href="#WenQuanYiMicroHei-31"/>
       <use x="55.078125" xlink:href="#WenQuanYiMicroHei-37"/>
      </g>
     </g>
    </g>
    <g id="xtick_19">
     <g id="line2d_55">
      <path clip-path="url(#p973b463fdd)" d="
M451.755 201.45
L451.755 28.6504" style="fill:none;stroke:#000000;stroke-dasharray:1.000000,3.000000;stroke-dashoffset:0.0;stroke-width:0.5;"/>
     </g>
     <g id="line2d_56">
      <g>
       <use style="stroke:#000000;stroke-width:0.5;" x="451.75520125" xlink:href="#m93b0483c22" y="201.450361875"/>
      </g>
     </g>
     <g id="line2d_57">
      <g>
       <use style="stroke:#000000;stroke-width:0.5;" x="451.75520125" xlink:href="#m741efc42ff" y="28.650361875"/>
      </g>
     </g>
     <g id="text_19">
      <!-- 18 -->
      <g transform="translate(454.351818438 215.08556875)rotate(-90.0)scale(0.09996 -0.09996)">
       <use xlink:href="#WenQuanYiMicroHei-31"/>
       <use x="55.078125" xlink:href="#WenQuanYiMicroHei-38"/>
      </g>
     </g>
    </g>
    <g id="xtick_20">
     <g id="line2d_58">
      <path clip-path="url(#p973b463fdd)" d="
M475.005 201.45
L475.005 28.6504" style="fill:none;stroke:#000000;stroke-dasharray:1.000000,3.000000;stroke-dashoffset:0.0;stroke-width:0.5;"/>
     </g>
     <g id="line2d_59">
      <g>
       <use style="stroke:#000000;stroke-width:0.5;" x="475.00520125" xlink:href="#m93b0483c22" y="201.450361875"/>
      </g>
     </g>
     <g id="line2d_60">
      <g>
       <use style="stroke:#000000;stroke-width:0.5;" x="475.00520125" xlink:href="#m741efc42ff" y="28.650361875"/>
      </g>
     </g>
     <g id="text_20">
      <!-- 19 -->
      <g transform="translate(477.601818438 215.105873125)rotate(-90.0)scale(0.09996 -0.09996)">
       <use xlink:href="#WenQuanYiMicroHei-31"/>
       <use x="55.078125" xlink:href="#WenQuanYiMicroHei-39"/>
      </g>
     </g>
    </g>
    <g id="xtick_21">
     <g id="line2d_61">
      <path clip-path="url(#p973b463fdd)" d="
M498.255 201.45
L498.255 28.6504" style="fill:none;stroke:#000000;stroke-dasharray:1.000000,3.000000;stroke-dashoffset:0.0;stroke-width:0.5;"/>
     </g>
     <g id="line2d_62">
      <g>
       <use style="stroke:#000000;stroke-width:0.5;" x="498.25520125" xlink:href="#m93b0483c22" y="201.450361875"/>
      </g>
     </g>
     <g id="line2d_63">
      <g>
       <use style="stroke:#000000;stroke-width:0.5;" x="498.25520125" xlink:href="#m741efc42ff" y="28.650361875"/>
      </g>
     </g>
     <g id="text_21">
      <!-- 20 -->
      <g transform="translate(500.851818438 215.524455625)rotate(-90.0)scale(0.09996 -0.09996)">
       <use xlink:href="#WenQuanYiMicroHei-32"/>
       <use x="55.078125" xlink:href="#WenQuanYiMicroHei-30"/>
      </g>
     </g>
    </g>
    <g id="xtick_22">
     <g id="line2d_64">
      <path clip-path="url(#p973b463fdd)" d="
M521.505 201.45
L521.505 28.6504" style="fill:none;stroke:#000000;stroke-dasharray:1.000000,3.000000;stroke-dashoffset:0.0;stroke-width:0.5;"/>
     </g>
     <g id="line2d_65">
      <g>
       <use style="stroke:#000000;stroke-width:0.5;" x="521.50520125" xlink:href="#m93b0483c22" y="201.450361875"/>
      </g>
     </g>
     <g id="line2d_66">
      <g>
       <use style="stroke:#000000;stroke-width:0.5;" x="521.50520125" xlink:href="#m741efc42ff" y="28.650361875"/>
      </g>
     </g>
     <g id="text_22">
      <!-- 21 -->
      <g transform="translate(524.101818438 213.957895)rotate(-90.0)scale(0.09996 -0.09996)">
       <use xlink:href="#WenQuanYiMicroHei-32"/>
       <use x="55.078125" xlink:href="#WenQuanYiMicroHei-31"/>
      </g>
     </g>
    </g>
    <g id="xtick_23">
     <g id="line2d_67">
      <path clip-path="url(#p973b463fdd)" d="
M544.755 201.45
L544.755 28.6504" style="fill:none;stroke:#000000;stroke-dasharray:1.000000,3.000000;stroke-dashoffset:0.0;stroke-width:0.5;"/>
     </g>
     <g id="line2d_68">
      <g>
       <use style="stroke:#000000;stroke-width:0.5;" x="544.75520125" xlink:href="#m93b0483c22" y="201.450361875"/>
      </g>
     </g>
     <g id="line2d_69">
      <g>
       <use style="stroke:#000000;stroke-width:0.5;" x="544.75520125" xlink:href="#m741efc42ff" y="28.650361875"/>
      </g>
     </g>
     <g id="text_23">
      <!-- 22 -->
      <g transform="translate(547.351818438 215.407315)rotate(-90.0)scale(0.09996 -0.09996)">
       <use xlink:href="#WenQuanYiMicroHei-32"/>
       <use x="55.078125" xlink:href="#WenQuanYiMicroHei-32"/>
      </g>
     </g>
    </g>
    <g id="xtick_24">
     <g id="line2d_70">
      <path clip-path="url(#p973b463fdd)" d="
M568.005 201.45
L568.005 28.6504" style="fill:none;stroke:#000000;stroke-dasharray:1.000000,3.000000;stroke-dashoffset:0.0;stroke-width:0.5;"/>
     </g>
     <g id="line2d_71">
      <g>
       <use style="stroke:#000000;stroke-width:0.5;" x="568.00520125" xlink:href="#m93b0483c22" y="201.450361875"/>
      </g>
     </g>
     <g id="line2d_72">
      <g>
       <use style="stroke:#000000;stroke-width:0.5;" x="568.00520125" xlink:href="#m741efc42ff" y="28.650361875"/>
      </g>
     </g>
     <g id="text_24">
      <!-- 23 -->
      <g transform="translate(570.601818438 215.39794375)rotate(-90.0)scale(0.09996 -0.09996)">
       <use xlink:href="#WenQuanYiMicroHei-32"/>
       <use x="55.078125" xlink:href="#WenQuanYiMicroHei-33"/>
      </g>
     </g>
    </g>
   </g>
   <g id="matplotlib.axis_2">
    <g id="ytick_1">
     <g id="line2d_73">
      <path clip-path="url(#p973b463fdd)" d="
M21.6302 201.45
L579.63 201.45" style="fill:none;stroke:#000000;stroke-dasharray:1.000000,3.000000;stroke-dashoffset:0.0;stroke-width:0.5;"/>
     </g>
     <g id="line2d_74">
      <defs>
       <path d="
M0 0
L4 0" id="m728421d6d4" style="stroke:#000000;stroke-width:0.5;"/>
      </defs>
      <g>
       <use style="stroke:#000000;stroke-width:0.5;" x="21.63020125" xlink:href="#m728421d6d4" y="201.450361875"/>
      </g>
     </g>
     <g id="line2d_75">
      <defs>
       <path d="
M0 0
L-4 0" id="mcb0005524f" style="stroke:#000000;stroke-width:0.5;"/>
      </defs>
      <g>
       <use style="stroke:#000000;stroke-width:0.5;" x="579.63020125" xlink:href="#mcb0005524f" y="201.450361875"/>
      </g>
     </g>
     <g id="text_25">
      <!-- 0 -->
      <g transform="translate(13.071088125 204.046979063)scale(0.09996 -0.09996)">
       <use xlink:href="#WenQuanYiMicroHei-30"/>
      </g>
     </g>
    </g>
    <g id="ytick_2">
     <g id="line2d_76">
      <path clip-path="url(#p973b463fdd)" d="
M21.6302 182.25
L579.63 182.25" style="fill:none;stroke:#000000;stroke-dasharray:1.000000,3.000000;stroke-dashoffset:0.0;stroke-width:0.5;"/>
     </g>
     <g id="line2d_77">
      <g>
       <use style="stroke:#000000;stroke-width:0.5;" x="21.63020125" xlink:href="#m728421d6d4" y="182.250361875"/>
      </g>
     </g>
     <g id="line2d_78">
      <g>
       <use style="stroke:#000000;stroke-width:0.5;" x="579.63020125" xlink:href="#mcb0005524f" y="182.250361875"/>
      </g>
     </g>
     <g id="text_26">
      <!-- 10 -->
      <g transform="translate(7.9559475 184.846979063)scale(0.09996 -0.09996)">
       <use xlink:href="#WenQuanYiMicroHei-31"/>
       <use x="55.078125" xlink:href="#WenQuanYiMicroHei-30"/>
      </g>
     </g>
    </g>
    <g id="ytick_3">
     <g id="line2d_79">
      <path clip-path="url(#p973b463fdd)" d="
M21.6302 163.05
L579.63 163.05" style="fill:none;stroke:#000000;stroke-dasharray:1.000000,3.000000;stroke-dashoffset:0.0;stroke-width:0.5;"/>
     </g>
     <g id="line2d_80">
      <g>
       <use style="stroke:#000000;stroke-width:0.5;" x="21.63020125" xlink:href="#m728421d6d4" y="163.050361875"/>
      </g>
     </g>
     <g id="line2d_81">
      <g>
       <use style="stroke:#000000;stroke-width:0.5;" x="579.63020125" xlink:href="#mcb0005524f" y="163.050361875"/>
      </g>
     </g>
     <g id="text_27">
      <!-- 20 -->
      <g transform="translate(7.5561075 165.646979063)scale(0.09996 -0.09996)">
       <use xlink:href="#WenQuanYiMicroHei-32"/>
       <use x="55.078125" xlink:href="#WenQuanYiMicroHei-30"/>
      </g>
     </g>
    </g>
    <g id="ytick_4">
     <g id="line2d_82">
      <path clip-path="url(#p973b463fdd)" d="
M21.6302 143.85
L579.63 143.85" style="fill:none;stroke:#000000;stroke-dasharray:1.000000,3.000000;stroke-dashoffset:0.0;stroke-width:0.5;"/>
     </g>
     <g id="line2d_83">
      <g>
       <use style="stroke:#000000;stroke-width:0.5;" x="21.63020125" xlink:href="#m728421d6d4" y="143.850361875"/>
      </g>
     </g>
     <g id="line2d_84">
      <g>
       <use style="stroke:#000000;stroke-width:0.5;" x="579.63020125" xlink:href="#mcb0005524f" y="143.850361875"/>
      </g>
     </g>
     <g id="text_28">
      <!-- 30 -->
      <g transform="translate(7.487385 146.446979063)scale(0.09996 -0.09996)">
       <use xlink:href="#WenQuanYiMicroHei-33"/>
       <use x="55.078125" xlink:href="#WenQuanYiMicroHei-30"/>
      </g>
     </g>
    </g>
    <g id="ytick_5">
     <g id="line2d_85">
      <path clip-path="url(#p973b463fdd)" d="
M21.6302 124.65
L579.63 124.65" style="fill:none;stroke:#000000;stroke-dasharray:1.000000,3.000000;stroke-dashoffset:0.0;stroke-width:0.5;"/>
     </g>
     <g id="line2d_86">
      <g>
       <use style="stroke:#000000;stroke-width:0.5;" x="21.63020125" xlink:href="#m728421d6d4" y="124.650361875"/>
      </g>
     </g>
     <g id="line2d_87">
      <g>
       <use style="stroke:#000000;stroke-width:0.5;" x="579.63020125" xlink:href="#mcb0005524f" y="124.650361875"/>
      </g>
     </g>
     <g id="text_29">
      <!-- 40 -->
      <g transform="translate(7.2 127.246979063)scale(0.09996 -0.09996)">
       <use xlink:href="#WenQuanYiMicroHei-34"/>
       <use x="55.078125" xlink:href="#WenQuanYiMicroHei-30"/>
      </g>
     </g>
    </g>
    <g id="ytick_6">
     <g id="line2d_88">
      <path clip-path="url(#p973b463fdd)" d="
M21.6302 105.45
L579.63 105.45" style="fill:none;stroke:#000000;stroke-dasharray:1.000000,3.000000;stroke-dashoffset:0.0;stroke-width:0.5;"/>
     </g>
     <g id="line2d_89">
      <g>
       <use style="stroke:#000000;stroke-width:0.5;" x="21.63020125" xlink:href="#m728421d6d4" y="105.450361875"/>
      </g>
     </g>
     <g id="line2d_90">
      <g>
       <use style="stroke:#000000;stroke-width:0.5;" x="579.63020125" xlink:href="#mcb0005524f" y="105.450361875"/>
      </g>
     </g>
     <g id="text_30">
      <!-- 50 -->
      <g transform="translate(7.726351875 108.046979063)scale(0.09996 -0.09996)">
       <use xlink:href="#WenQuanYiMicroHei-35"/>
       <use x="55.078125" xlink:href="#WenQuanYiMicroHei-30"/>
      </g>
     </g>
    </g>
    <g id="ytick_7">
     <g id="line2d_91">
      <path clip-path="url(#p973b463fdd)" d="
M21.6302 86.2504
L579.63 86.2504" style="fill:none;stroke:#000000;stroke-dasharray:1.000000,3.000000;stroke-dashoffset:0.0;stroke-width:0.5;"/>
     </g>
     <g id="line2d_92">
      <g>
       <use style="stroke:#000000;stroke-width:0.5;" x="21.63020125" xlink:href="#m728421d6d4" y="86.250361875"/>
      </g>
     </g>
     <g id="line2d_93">
      <g>
       <use style="stroke:#000000;stroke-width:0.5;" x="579.63020125" xlink:href="#mcb0005524f" y="86.250361875"/>
      </g>
     </g>
     <g id="text_31">
      <!-- 60 -->
      <g transform="translate(7.638886875 88.8469790625)scale(0.09996 -0.09996)">
       <use xlink:href="#WenQuanYiMicroHei-36"/>
       <use x="55.078125" xlink:href="#WenQuanYiMicroHei-30"/>
      </g>
     </g>
    </g>
    <g id="ytick_8">
     <g id="line2d_94">
      <path clip-path="url(#p973b463fdd)" d="
M21.6302 67.0504
L579.63 67.0504" style="fill:none;stroke:#000000;stroke-dasharray:1.000000,3.000000;stroke-dashoffset:0.0;stroke-width:0.5;"/>
     </g>
     <g id="line2d_95">
      <g>
       <use style="stroke:#000000;stroke-width:0.5;" x="21.63020125" xlink:href="#m728421d6d4" y="67.050361875"/>
      </g>
     </g>
     <g id="line2d_96">
      <g>
       <use style="stroke:#000000;stroke-width:0.5;" x="579.63020125" xlink:href="#mcb0005524f" y="67.050361875"/>
      </g>
     </g>
     <g id="text_32">
      <!-- 70 -->
      <g transform="translate(7.526431875 69.6469790625)scale(0.09996 -0.09996)">
       <use xlink:href="#WenQuanYiMicroHei-37"/>
       <use x="55.078125" xlink:href="#WenQuanYiMicroHei-30"/>
      </g>
     </g>
    </g>
    <g id="ytick_9">
     <g id="line2d_97">
      <path clip-path="url(#p973b463fdd)" d="
M21.6302 47.8504
L579.63 47.8504" style="fill:none;stroke:#000000;stroke-dasharray:1.000000,3.000000;stroke-dashoffset:0.0;stroke-width:0.5;"/>
     </g>
     <g id="line2d_98">
      <g>
       <use style="stroke:#000000;stroke-width:0.5;" x="21.63020125" xlink:href="#m728421d6d4" y="47.850361875"/>
      </g>
     </g>
     <g id="line2d_99">
      <g>
       <use style="stroke:#000000;stroke-width:0.5;" x="579.63020125" xlink:href="#mcb0005524f" y="47.850361875"/>
      </g>
     </g>
     <g id="text_33">
      <!-- 80 -->
      <g transform="translate(7.604525625 50.4469790625)scale(0.09996 -0.09996)">
       <use xlink:href="#WenQuanYiMicroHei-38"/>
       <use x="55.078125" xlink:href="#WenQuanYiMicroHei-30"/>
      </g>
     </g>
    </g>
    <g id="ytick_10">
     <g id="line2d_100">
      <path clip-path="url(#p973b463fdd)" d="
M21.6302 28.6504
L579.63 28.6504" style="fill:none;stroke:#000000;stroke-dasharray:1.000000,3.000000;stroke-dashoffset:0.0;stroke-width:0.5;"/>
     </g>
     <g id="line2d_101">
      <g>
       <use style="stroke:#000000;stroke-width:0.5;" x="21.63020125" xlink:href="#m728421d6d4" y="28.650361875"/>
      </g>
     </g>
     <g id="line2d_102">
      <g>
       <use style="stroke:#000000;stroke-width:0.5;" x="579.63020125" xlink:href="#mcb0005524f" y="28.650361875"/>
      </g>
     </g>
     <g id="text_34">
      <!-- 90 -->
      <g transform="translate(7.604525625 31.2469790625)scale(0.09996 -0.09996)">
       <use xlink:href="#WenQuanYiMicroHei-39"/>
       <use x="55.078125" xlink:href="#WenQuanYiMicroHei-30"/>
      </g>
     </g>
    </g>
   </g>
   <g id="legend_1">
    <g id="patch_79">
     <path d="
M21.6302 25.1944
L210.313 25.1944
L210.313 7.2
L21.6302 7.2
z
" style="fill:#ffffff;stroke:#000000;stroke-linejoin:miter;"/>
    </g>
    <g id="patch_80">
     <path d="
M25.6286 18.7938
L45.6206 18.7938
L45.6206 11.7966
L25.6286 11.7966
z
" style="fill:#348abd;stroke:#000000;stroke-linejoin:miter;"/>
    </g>
    <g id="text_35">
     <!--  -->
     <defs>
      <path d="
M14.0625 80.0781
Q22.6562 75.3906 29.6875 68.75
L24.6094 62.1094
Q16.7969 69.5312 8.59375 74.6094
z

M10.1562 55.8594
Q17.9688 51.5625 24.6094 46.0938
L19.1406 39.4531
Q12.5 46.0938 4.6875 50.3906
z

M19.1406 31.25
L25.7812 26.5625
Q21.0938 8.20312 12.1094 -8.98438
L4.29688 -3.51562
Q13.6719 12.8906 19.1406 31.25
M42.9688 81.25
L51.1719 79.2969
Q50 75.7812 48.4375 72.2656
L91.4062 72.2656
L91.4062 65.2344
L44.5312 65.2344
Q39.8438 57.0312 32.8125 50.7812
L27.3438 56.6406
Q37.8906 66.4062 42.9688 81.25
M41.4062 57.0312
L88.2812 57.0312
L87.5 34.375
L95.7031 34.375
L95.7031 27.3438
L87.1094 27.3438
Q86.7188 19.1406 85.5469 11.3281
L94.5312 11.3281
L94.5312 4.6875
L85.1562 4.6875
Q83.5938 -8.98438 72.6562 -8.98438
Q68.75 -8.98438 62.1094 -8.20312
L60.9375 -1.5625
Q68.3594 -2.34375 72.6562 -2.34375
Q76.1719 -2.34375 76.9531 4.6875
L34.375 4.6875
Q36.7188 15.2344 38.2812 27.3438
L29.6875 27.3438
L29.6875 34.375
L39.4531 34.375
Q40.625 45.3125 41.4062 57.0312
M47.2656 34.375
L79.6875 34.375
Q80.0781 42.5781 80.0781 50.3906
L48.4375 50.3906
Q48.0469 41.7969 47.2656 34.375
M60.9375 48.4375
Q65.625 45.7031 69.5312 41.7969
L64.4531 35.9375
Q60.5469 40.625 55.8594 43.75
z

M77.7344 11.3281
L79.2969 27.3438
L46.4844 27.3438
Q45.3125 18.75 43.75 11.3281
z

M59.7656 25.7812
Q64.8438 22.6562 69.1406 18.75
L64.4531 12.8906
Q59.7656 17.5781 55.0781 20.7031
z
" id="WenQuanYiMicroHei-6d77"/>
      <path d="
M41.7969 79.2969
L50 79.2969
L50 51.9531
L88.2812 51.9531
L88.2812 44.1406
L50 44.1406
L50 3.125
L92.9688 3.125
L92.9688 -4.6875
L7.8125 -4.6875
L7.8125 3.125
L41.7969 3.125
z
" id="WenQuanYiMicroHei-4e0a"/>
     </defs>
     <g transform="translate(53.61740125 18.793798125)scale(0.09996 -0.09996)">
      <use xlink:href="#WenQuanYiMicroHei-4e0a"/>
      <use x="100.0" xlink:href="#WenQuanYiMicroHei-6d77"/>
     </g>
    </g>
    <g id="patch_81">
     <path d="
M92.3909 18.7938
L112.383 18.7938
L112.383 11.7966
L92.3909 11.7966
z
" style="fill:#a60628;stroke:#000000;stroke-linejoin:miter;"/>
    </g>
    <g id="text_36">
     <!--  -->
     <defs>
      <path d="
M32.8125 80.0781
L40.625 80.0781
L40.625 -7.8125
L32.8125 -7.8125
L32.8125 13.6719
Q21.875 5.85938 8.59375 0
L5.46875 8.59375
Q20.3125 15.2344 32.8125 23.0469
L32.8125 49.6094
L6.64062 49.6094
L6.64062 57.4219
L32.8125 57.4219
z

M55.8594 80.0781
L63.6719 80.0781
L63.6719 50.7812
Q76.9531 57.4219 88.6719 66.0156
L93.75 58.9844
Q80.0781 49.2188 63.6719 42.1875
L63.6719 4.29688
Q63.6719 2.73438 65.4219 1.95312
Q67.1875 1.17188 74.6094 1.17188
Q82.0312 1.17188 83.5938 2.14062
Q85.1562 3.125 85.9375 5.85938
Q86.7188 8.59375 87.1094 19.5312
L95.3125 17.1875
Q94.9219 4.6875 93.3594 0.78125
Q91.7969 -3.125 88.8594 -4.6875
Q85.9375 -6.25 74.6094 -6.25
Q62.5 -6.25 59.1719 -4.48438
Q55.8594 -2.73438 55.8594 1.5625
z
" id="WenQuanYiMicroHei-5317"/>
      <path d="
M51.1719 81.25
Q54.2969 76.5625 55.8594 71.0938
L94.5312 71.0938
L94.5312 63.6719
L5.46875 63.6719
L5.46875 71.0938
L46.0938 71.0938
Q44.9219 75.3906 42.9688 78.5156
z

M17.1875 56.25
L80.8594 56.25
L80.8594 26.1719
L53.9062 26.1719
L53.9062 1.17188
Q53.9062 -4.6875 51.9531 -6.82812
Q50 -8.98438 44.9219 -8.98438
Q37.8906 -8.98438 32.0312 -7.8125
L30.4688 0
Q37.1094 -1.5625 43.75 -1.5625
Q46.0938 -1.5625 46.0938 3.125
L46.0938 26.1719
L17.1875 26.1719
z

M25 33.5938
L73.0469 33.5938
L73.0469 48.8281
L25 48.8281
z

M28.9062 22.6562
L35.9375 18.75
Q26.9531 4.6875 9.76562 -5.07812
L5.07812 1.17188
Q20.7031 10.9375 28.9062 22.6562
M69.1406 22.6562
Q80.8594 13.6719 92.5781 1.5625
L86.3281 -5.07812
Q76.1719 6.64062 62.5 18.3594
z
" id="WenQuanYiMicroHei-4eac"/>
     </defs>
     <g transform="translate(120.379748125 18.793798125)scale(0.09996 -0.09996)">
      <use xlink:href="#WenQuanYiMicroHei-5317"/>
      <use x="100.0" xlink:href="#WenQuanYiMicroHei-4eac"/>
     </g>
    </g>
    <g id="patch_82">
     <path d="
M159.27 18.7938
L179.262 18.7938
L179.262 11.7966
L159.27 11.7966
z
" style="fill:#7a68a6;stroke:#000000;stroke-linejoin:miter;"/>
    </g>
    <g id="text_37">
     <!--  -->
     <defs>
      <path d="
M12.8906 76.1719
L86.3281 76.1719
L86.3281 68.75
L53.125 68.75
Q53.125 48.4375 52.7344 46.0938
L91.7969 46.0938
L91.7969 38.6719
L53.5156 38.6719
Q64.4531 10.9375 94.9219 -1.17188
L89.4531 -9.375
Q60.9375 4.29688 50.3906 27.3438
Q43.3594 2.73438 10.1562 -9.375
L5.46875 -1.5625
Q24.6094 5.07812 33.5938 14.8438
Q42.5781 24.6094 44.1406 38.6719
L7.42188 38.6719
L7.42188 46.0938
L44.9219 46.0938
Q45.3125 51.1719 45.3125 68.75
L12.8906 68.75
z
" id="WenQuanYiMicroHei-5929"/>
      <path d="
M14.0625 80.0781
Q22.6562 75.3906 29.6875 68.75
L24.6094 62.1094
Q16.7969 69.5312 8.59375 74.6094
z

M10.1562 55.8594
Q17.9688 51.5625 24.6094 46.0938
L19.1406 39.4531
Q12.5 46.0938 4.6875 50.3906
z

M19.1406 31.25
L25.7812 26.5625
Q21.0938 8.20312 12.1094 -8.98438
L4.29688 -3.51562
Q13.6719 12.8906 19.1406 31.25
M34.375 73.4375
L56.25 73.4375
L56.25 81.25
L63.6719 81.25
L63.6719 73.4375
L87.8906 73.4375
L87.8906 58.2031
L95.3125 58.2031
L95.3125 51.5625
L87.8906 51.5625
L87.8906 35.9375
L63.6719 35.9375
L63.6719 28.125
L91.4062 28.125
L91.4062 21.4844
L63.6719 21.4844
L63.6719 13.6719
L96.0938 13.6719
L96.0938 6.64062
L63.6719 6.64062
L63.6719 -8.98438
L56.25 -8.98438
L56.25 6.64062
L26.9531 6.64062
L26.9531 13.6719
L56.25 13.6719
L56.25 21.4844
L33.2031 21.4844
L33.2031 28.125
L56.25 28.125
L56.25 35.9375
L33.9844 35.9375
L33.9844 43.3594
L56.25 43.3594
L56.25 51.5625
L28.5156 51.5625
L28.5156 58.2031
L56.25 58.2031
L56.25 66.0156
L34.375 66.0156
z

M63.6719 66.0156
L63.6719 58.2031
L80.4688 58.2031
L80.4688 66.0156
z

M63.6719 51.5625
L63.6719 43.3594
L80.4688 43.3594
L80.4688 51.5625
z
" id="WenQuanYiMicroHei-6d25"/>
     </defs>
     <g transform="translate(187.259235625 18.793798125)scale(0.09996 -0.09996)">
      <use xlink:href="#WenQuanYiMicroHei-5929"/>
      <use x="100.0" xlink:href="#WenQuanYiMicroHei-6d25"/>
     </g>
    </g>
   </g>
  </g>
 </g>
 <defs>
  <clipPath id="p973b463fdd">
   <rect height="172.8" width="558.0" x="21.63020125" y="28.650361875"/>
  </clipPath>
 </defs>
</svg>
