<?xml version="1.0" encoding="utf-8" standalone="no"?>
<!DOCTYPE svg PUBLIC "-//W3C//DTD SVG 1.1//EN"
  "http://www.w3.org/Graphics/SVG/1.1/DTD/svg11.dtd">
<!-- Created with matplotlib (http://matplotlib.org/) -->
<svg height="192pt" version="1.1" viewBox="0 0 494 192" width="494pt" xmlns="http://www.w3.org/2000/svg" xmlns:xlink="http://www.w3.org/1999/xlink">
 <defs>
  <style type="text/css">
*{stroke-linecap:butt;stroke-linejoin:round;}
  </style>
 </defs>
 <g id="figure_1">
  <g id="patch_1">
   <path d="
M0 192.394
L494.977 192.394
L494.977 0
L0 0
z
" style="fill:#ffffff;"/>
  </g>
  <g id="axes_1">
   <g id="patch_2">
    <path d="
M41.3774 156.199
L487.777 156.199
L487.777 12.1988
L41.3774 12.1988
z
" style="fill:#ffffff;"/>
   </g>
   <g id="PolyCollection_1">
    <defs>
     <path d="
M41.3774 -40.9951
L41.3774 -36.1951
L42.8221 -36.1951
L44.2667 -36.1951
L45.7114 -36.1951
L47.1561 -36.1951
L48.6007 -36.1951
L50.0454 -36.1951
L51.49 -36.1951
L52.9347 -36.1951
L54.3794 -36.1951
L55.824 -36.1951
L57.2687 -36.1951
L58.7133 -36.1951
L60.158 -36.1951
L61.6027 -36.1951
L63.0473 -36.1951
L64.492 -36.1951
L65.9366 -36.1951
L67.3813 -36.1951
L68.826 -36.1951
L70.2706 -36.1951
L71.7153 -36.1951
L73.1599 -36.1951
L74.6046 -36.1951
L76.0493 -36.1951
L77.4939 -36.1951
L78.9386 -36.1951
L80.3833 -36.1951
L81.8279 -36.1951
L83.2726 -36.1951
L84.7172 -36.1951
L86.1619 -36.1951
L87.6066 -36.1951
L89.0512 -36.1951
L90.4959 -36.1951
L91.9405 -36.1951
L93.3852 -36.1951
L94.8299 -36.1951
L96.2745 -36.1951
L97.7192 -36.1951
L99.1638 -36.1951
L100.608 -36.1951
L102.053 -36.1951
L103.498 -36.1951
L104.942 -36.1951
L106.387 -36.1951
L107.832 -36.1951
L109.276 -36.1951
L110.721 -36.1951
L112.166 -36.1951
L113.61 -36.1951
L115.055 -36.1951
L116.5 -36.1951
L117.944 -36.1951
L119.389 -36.1951
L120.834 -36.1951
L122.278 -36.1951
L123.723 -36.1951
L125.168 -36.1951
L126.612 -36.1951
L128.057 -36.1951
L129.502 -36.1951
L130.946 -36.1951
L132.391 -36.1951
L133.836 -36.1951
L135.28 -36.1951
L136.725 -36.1951
L138.17 -36.1951
L139.614 -36.1951
L141.059 -36.1951
L142.504 -36.1951
L143.948 -36.1951
L145.393 -36.1951
L146.838 -36.1951
L148.282 -36.1951
L149.727 -36.1951
L151.172 -36.1951
L152.616 -36.1951
L154.061 -36.1951
L155.506 -36.1951
L156.95 -36.1951
L158.395 -36.1951
L159.84 -36.1951
L161.284 -36.1951
L162.729 -36.1951
L164.174 -36.1951
L165.618 -36.1951
L167.063 -36.1951
L168.508 -36.1951
L169.952 -36.1951
L171.397 -36.1951
L172.842 -36.1951
L174.286 -36.1951
L175.731 -36.1951
L177.175 -36.1951
L178.62 -36.1951
L180.065 -36.1951
L181.509 -36.1951
L182.954 -36.1951
L184.399 -36.1951
L185.843 -36.1951
L187.288 -36.1951
L188.733 -36.1951
L190.177 -36.1951
L191.622 -36.1951
L193.067 -36.1951
L194.511 -36.1951
L195.956 -36.1951
L197.401 -36.1951
L198.845 -36.1951
L200.29 -36.1951
L201.735 -36.1951
L203.179 -36.1951
L204.624 -36.1951
L206.069 -36.1951
L207.513 -36.1951
L208.958 -36.1951
L210.403 -36.1951
L211.847 -36.1951
L213.292 -36.1951
L214.737 -36.1951
L216.181 -36.1951
L217.626 -36.1951
L219.071 -36.1951
L220.515 -36.1951
L221.96 -36.1951
L223.405 -36.1951
L224.849 -36.1951
L226.294 -36.1951
L227.739 -36.1951
L229.183 -36.1951
L230.628 -36.1951
L232.073 -36.1951
L233.517 -36.1951
L234.962 -36.1951
L236.407 -36.1951
L237.851 -36.1951
L239.296 -36.1951
L240.741 -36.1951
L242.185 -36.1951
L243.63 -36.1951
L245.075 -36.1951
L246.519 -36.1951
L247.964 -36.1951
L249.408 -36.1951
L250.853 -36.1951
L252.298 -36.1951
L253.742 -36.1951
L255.187 -36.1951
L256.632 -36.1951
L258.076 -36.1951
L259.521 -36.1951
L260.966 -36.1951
L262.41 -36.1951
L263.855 -36.1951
L265.3 -36.1951
L266.744 -36.1951
L268.189 -36.1951
L269.634 -36.1951
L271.078 -36.1951
L272.523 -36.1951
L273.968 -36.1951
L275.412 -36.1951
L276.857 -36.1951
L278.302 -36.1951
L279.746 -36.1951
L281.191 -36.1951
L282.636 -36.1951
L284.08 -36.1951
L285.525 -36.1951
L286.97 -36.1951
L288.414 -36.1951
L289.859 -36.1951
L291.304 -36.1951
L292.748 -36.1951
L294.193 -36.1951
L295.638 -36.1951
L297.082 -36.1951
L298.527 -36.1951
L299.972 -36.1951
L301.416 -36.1951
L302.861 -36.1951
L304.306 -36.1951
L305.75 -36.1951
L307.195 -36.1951
L308.64 -36.1951
L310.084 -36.1951
L311.529 -36.1951
L312.974 -36.1951
L314.418 -36.1951
L315.863 -36.1951
L317.308 -36.1951
L318.752 -36.1951
L320.197 -36.1951
L321.642 -36.1951
L323.086 -36.1951
L324.531 -36.1951
L325.975 -36.1951
L327.42 -36.1951
L328.865 -36.1951
L330.309 -36.1951
L331.754 -36.1951
L333.199 -36.1951
L334.643 -36.1951
L336.088 -36.1951
L337.533 -36.1951
L338.977 -36.1951
L340.422 -36.1951
L341.867 -36.1951
L343.311 -36.1951
L344.756 -36.1951
L346.201 -36.1951
L347.645 -36.1951
L349.09 -36.1951
L350.535 -36.1951
L351.979 -36.1951
L353.424 -36.1951
L354.869 -36.1951
L356.313 -36.1951
L357.758 -36.1951
L359.203 -36.1951
L360.647 -36.1951
L362.092 -36.1951
L363.537 -36.1951
L364.981 -36.1951
L366.426 -36.1951
L367.871 -36.1951
L369.315 -36.1951
L370.76 -36.1951
L372.205 -36.1951
L373.649 -36.1951
L375.094 -36.1951
L376.539 -36.1951
L377.983 -36.1951
L379.428 -36.1951
L380.873 -36.1951
L382.317 -36.1951
L383.762 -36.1951
L385.207 -36.1951
L386.651 -36.1951
L388.096 -36.1951
L389.541 -36.1951
L390.985 -36.1951
L392.43 -36.1951
L393.875 -36.1951
L395.319 -36.1951
L396.764 -36.1951
L398.208 -36.1951
L399.653 -36.1951
L401.098 -36.1951
L402.542 -36.1951
L403.987 -36.1951
L405.432 -36.1951
L406.876 -36.1951
L408.321 -36.1951
L409.766 -36.1951
L411.21 -36.1951
L412.655 -36.1951
L414.1 -36.1951
L415.544 -36.1951
L416.989 -36.1951
L418.434 -36.1951
L419.878 -36.1951
L421.323 -36.1951
L422.768 -36.1951
L424.212 -36.1951
L425.657 -36.1951
L427.102 -36.1951
L428.546 -36.1951
L429.991 -36.1951
L431.436 -36.1951
L432.88 -36.1951
L434.325 -36.1951
L435.77 -36.1951
L437.214 -36.1951
L438.659 -36.1951
L440.104 -36.1951
L441.548 -36.1951
L442.993 -36.1951
L444.438 -36.1951
L445.882 -36.1951
L447.327 -36.1951
L448.772 -36.1951
L450.216 -36.1951
L451.661 -36.1951
L453.106 -36.1951
L454.55 -36.1951
L455.995 -36.1951
L457.44 -36.1951
L458.884 -36.1951
L460.329 -36.1951
L461.774 -36.1951
L463.218 -36.1951
L464.663 -36.1951
L466.108 -36.1951
L467.552 -36.1951
L468.997 -36.1951
L470.442 -36.1951
L471.886 -36.1951
L473.331 -36.1951
L474.775 -36.1951
L476.22 -36.1951
L477.665 -36.1951
L479.109 -36.1951
L480.554 -36.1951
L481.999 -36.1951
L483.443 -36.1951
L484.888 -36.1951
L486.333 -36.1951
L487.777 -36.1951
L487.777 -44.1951
L487.777 -44.1951
L486.333 -60.9951
L484.888 -63.3951
L483.443 -50.5951
L481.999 -64.1951
L480.554 -82.5951
L479.109 -53.7951
L477.665 -54.5951
L476.22 -61.7951
L474.775 -95.3951
L473.331 -76.9951
L471.886 -58.5951
L470.442 -88.9951
L468.997 -67.3951
L467.552 -76.9951
L466.108 -54.5951
L464.663 -58.5951
L463.218 -76.1951
L461.774 -70.5951
L460.329 -50.5951
L458.884 -56.1951
L457.44 -59.3951
L455.995 -58.5951
L454.55 -52.1951
L453.106 -62.5951
L451.661 -66.5951
L450.216 -48.1951
L448.772 -44.1951
L447.327 -55.3951
L445.882 -55.3951
L444.438 -56.1951
L442.993 -96.9951
L441.548 -70.5951
L440.104 -66.5951
L438.659 -66.5951
L437.214 -69.7951
L435.77 -78.5951
L434.325 -54.5951
L432.88 -64.9951
L431.436 -83.3951
L429.991 -98.5951
L428.546 -76.1951
L427.102 -80.9951
L425.657 -88.1951
L424.212 -72.1951
L422.768 -67.3951
L421.323 -79.3951
L419.878 -72.9951
L418.434 -81.7951
L416.989 -66.5951
L415.544 -72.1951
L414.1 -68.9951
L412.655 -89.7951
L411.21 -94.5951
L409.766 -81.7951
L408.321 -105.795
L406.876 -86.5951
L405.432 -98.5951
L403.987 -81.7951
L402.542 -83.3951
L401.098 -100.995
L399.653 -90.5951
L398.208 -85.7951
L396.764 -95.3951
L395.319 -54.5951
L393.875 -71.3951
L392.43 -92.1951
L390.985 -71.3951
L389.541 -64.9951
L388.096 -84.1951
L386.651 -75.3951
L385.207 -70.5951
L383.762 -123.395
L382.317 -94.5951
L380.873 -113.795
L379.428 -173.795
L377.983 -141.795
L376.539 -132.995
L375.094 -74.5951
L373.649 -98.5951
L372.205 -56.9951
L370.76 -86.5951
L369.315 -54.5951
L367.871 -64.9951
L366.426 -68.9951
L364.981 -71.3951
L363.537 -58.5951
L362.092 -76.9951
L360.647 -83.3951
L359.203 -88.1951
L357.758 -94.5951
L356.313 -102.595
L354.869 -115.395
L353.424 -134.595
L351.979 -107.395
L350.535 -96.1951
L349.09 -82.5951
L347.645 -75.3951
L346.201 -75.3951
L344.756 -60.1951
L343.311 -78.5951
L341.867 -79.3951
L340.422 -92.9951
L338.977 -89.7951
L337.533 -96.9951
L336.088 -86.5951
L334.643 -87.3951
L333.199 -115.395
L331.754 -124.195
L330.309 -117.795
L328.865 -88.1951
L327.42 -76.1951
L325.975 -110.595
L324.531 -89.7951
L323.086 -65.7951
L321.642 -95.3951
L320.197 -84.9951
L318.752 -140.195
L317.308 -89.7951
L315.863 -121.795
L314.418 -131.395
L312.974 -110.595
L311.529 -72.9951
L310.084 -67.3951
L308.64 -56.1951
L307.195 -85.7951
L305.75 -72.9951
L304.306 -56.1951
L302.861 -61.7951
L301.416 -68.9951
L299.972 -51.3951
L298.527 -54.5951
L297.082 -85.7951
L295.638 -73.7951
L294.193 -141.795
L292.748 -111.395
L291.304 -152.995
L289.859 -114.595
L288.414 -96.1951
L286.97 -103.395
L285.525 -100.195
L284.08 -42.5951
L282.636 -42.5951
L281.191 -66.5951
L279.746 -88.1951
L278.302 -84.9951
L276.857 -88.9951
L275.412 -72.1951
L273.968 -80.9951
L272.523 -48.1951
L271.078 -44.1951
L269.634 -64.1951
L268.189 -96.1951
L266.744 -60.1951
L265.3 -63.3951
L263.855 -72.9951
L262.41 -95.3951
L260.966 -46.5951
L259.521 -68.1951
L258.076 -80.1951
L256.632 -99.3951
L255.187 -89.7951
L253.742 -112.995
L252.298 -112.995
L250.853 -104.195
L249.408 -124.195
L247.964 -88.1951
L246.519 -97.7951
L245.075 -68.9951
L243.63 -104.195
L242.185 -81.7951
L240.741 -54.5951
L239.296 -67.3951
L237.851 -81.7951
L236.407 -70.5951
L234.962 -76.9951
L233.517 -87.3951
L232.073 -82.5951
L230.628 -95.3951
L229.183 -91.3951
L227.739 -95.3951
L226.294 -107.395
L224.849 -88.9951
L223.405 -105.795
L221.96 -87.3951
L220.515 -84.1951
L219.071 -89.7951
L217.626 -63.3951
L216.181 -52.9951
L214.737 -60.1951
L213.292 -62.5951
L211.847 -75.3951
L210.403 -64.1951
L208.958 -63.3951
L207.513 -92.9951
L206.069 -80.1951
L204.624 -80.1951
L203.179 -76.1951
L201.735 -63.3951
L200.29 -56.1951
L198.845 -81.7951
L197.401 -64.9951
L195.956 -75.3951
L194.511 -63.3951
L193.067 -57.7951
L191.622 -40.1951
L190.177 -69.7951
L188.733 -63.3951
L187.288 -53.7951
L185.843 -45.7951
L184.399 -80.9951
L182.954 -64.1951
L181.509 -60.1951
L180.065 -68.9951
L178.62 -46.5951
L177.175 -43.3951
L175.731 -44.1951
L174.286 -42.5951
L172.842 -42.5951
L171.397 -37.7951
L169.952 -45.7951
L168.508 -40.1951
L167.063 -36.1951
L165.618 -36.1951
L164.174 -37.7951
L162.729 -40.1951
L161.284 -39.3951
L159.84 -39.3951
L158.395 -36.9951
L156.95 -47.3951
L155.506 -36.1951
L154.061 -39.3951
L152.616 -36.9951
L151.172 -40.1951
L149.727 -40.9951
L148.282 -45.7951
L146.838 -36.9951
L145.393 -36.9951
L143.948 -42.5951
L142.504 -42.5951
L141.059 -36.1951
L139.614 -41.7951
L138.17 -36.1951
L136.725 -36.9951
L135.28 -36.1951
L133.836 -36.1951
L132.391 -36.1951
L130.946 -44.1951
L129.502 -36.1951
L128.057 -41.7951
L126.612 -36.9951
L125.168 -37.7951
L123.723 -36.1951
L122.278 -37.7951
L120.834 -36.1951
L119.389 -36.1951
L117.944 -36.1951
L116.5 -36.1951
L115.055 -36.1951
L113.61 -36.1951
L112.166 -37.7951
L110.721 -36.1951
L109.276 -36.1951
L107.832 -38.5951
L106.387 -36.1951
L104.942 -40.9951
L103.498 -40.9951
L102.053 -44.9951
L100.608 -40.1951
L99.1638 -36.9951
L97.7192 -37.7951
L96.2745 -38.5951
L94.8299 -38.5951
L93.3852 -39.3951
L91.9405 -39.3951
L90.4959 -37.7951
L89.0512 -40.9951
L87.6066 -37.7951
L86.1619 -39.3951
L84.7172 -40.1951
L83.2726 -40.1951
L81.8279 -38.5951
L80.3833 -36.1951
L78.9386 -37.7951
L77.4939 -36.9951
L76.0493 -38.5951
L74.6046 -40.1951
L73.1599 -45.7951
L71.7153 -38.5951
L70.2706 -40.9951
L68.826 -41.7951
L67.3813 -42.5951
L65.9366 -49.7951
L64.492 -45.7951
L63.0473 -46.5951
L61.6027 -36.1951
L60.158 -36.1951
L58.7133 -36.1951
L57.2687 -36.9951
L55.824 -36.1951
L54.3794 -39.3951
L52.9347 -36.1951
L51.49 -36.1951
L50.0454 -40.1951
L48.6007 -37.7951
L47.1561 -48.1951
L45.7114 -36.1951
L44.2667 -36.1951
L42.8221 -36.1951
L41.3774 -40.9951
z
" id="me2efd5f1b9" style="stroke:#348abd;"/>
    </defs>
    <g clip-path="url(#p9126f310fd)">
     <use style="fill:#348abd;stroke:#348abd;" x="0.0" xlink:href="#me2efd5f1b9" y="192.393904687"/>
    </g>
   </g>
   <g id="line2d_1">
    <path clip-path="url(#p9126f310fd)" d="
M41.3774 151.399
L42.8221 156.199
L45.7114 156.199
L47.1561 144.199
L48.6007 154.599
L50.0454 152.199
L51.49 156.199
L52.9347 156.199
L54.3794 152.999
L55.824 156.199
L57.2687 155.399
L58.7133 156.199
L61.6027 156.199
L63.0473 145.799
L64.492 146.599
L65.9366 142.599
L67.3813 149.799
L70.2706 151.399
L71.7153 153.799
L73.1599 146.599
L74.6046 152.199
L77.4939 155.399
L78.9386 154.599
L80.3833 156.199
L81.8279 153.799
L83.2726 152.199
L84.7172 152.199
L86.1619 152.999
L87.6066 154.599
L89.0512 151.399
L90.4959 154.599
L91.9405 152.999
L93.3852 152.999
L94.8299 153.799
L96.2745 153.799
L99.1638 155.399
L100.608 152.199
L102.053 147.399
L103.498 151.399
L104.942 151.399
L106.387 156.199
L107.832 153.799
L109.276 156.199
L110.721 156.199
L112.166 154.599
L113.61 156.199
L120.834 156.199
L122.278 154.599
L123.723 156.199
L125.168 154.599
L126.612 155.399
L128.057 150.599
L129.502 156.199
L130.946 148.199
L132.391 156.199
L135.28 156.199
L136.725 155.399
L138.17 156.199
L139.614 150.599
L141.059 156.199
L142.504 149.799
L143.948 149.799
L145.393 155.399
L146.838 155.399
L148.282 146.599
L149.727 151.399
L151.172 152.199
L152.616 155.399
L154.061 152.999
L155.506 156.199
L156.95 144.999
L158.395 155.399
L159.84 152.999
L161.284 152.999
L162.729 152.199
L164.174 154.599
L165.618 156.199
L167.063 156.199
L168.508 152.199
L169.952 146.599
L171.397 154.599
L172.842 149.799
L174.286 149.799
L175.731 148.199
L177.175 148.999
L178.62 145.799
L180.065 123.399
L181.509 132.199
L182.954 128.199
L184.399 111.399
L185.843 146.599
L187.288 138.599
L188.733 128.999
L190.177 122.599
L191.622 152.199
L193.067 134.599
L194.511 128.999
L195.956 116.999
L197.401 127.399
L198.845 110.599
L200.29 136.199
L201.735 128.999
L203.179 116.199
L204.624 112.199
L206.069 112.199
L207.513 99.3988
L208.958 128.999
L210.403 128.199
L211.847 116.999
L213.292 129.799
L214.737 132.199
L216.181 139.399
L217.626 128.999
L219.071 102.599
L220.515 108.199
L221.96 104.999
L223.405 86.5988
L224.849 103.399
L226.294 84.9988
L227.739 96.9988
L229.183 100.999
L230.628 96.9988
L232.073 109.799
L233.517 104.999
L234.962 115.399
L236.407 121.799
L237.851 110.599
L239.296 124.999
L240.741 137.799
L242.185 110.599
L243.63 88.1988
L245.075 123.399
L246.519 94.5988
L247.964 104.199
L249.408 68.1988
L250.853 88.1988
L252.298 79.3988
L253.742 79.3988
L255.187 102.599
L256.632 92.9988
L258.076 112.199
L259.521 124.199
L260.966 145.799
L262.41 96.9988
L263.855 119.399
L265.3 128.999
L266.744 132.199
L268.189 96.1988
L269.634 128.199
L271.078 148.199
L272.523 144.199
L273.968 111.399
L275.412 120.199
L276.857 103.399
L278.302 107.399
L279.746 104.199
L281.191 125.799
L282.636 149.799
L284.08 149.799
L285.525 92.1988
L286.97 88.9988
L288.414 96.1988
L289.859 77.7988
L291.304 39.3988
L292.748 80.9988
L294.193 50.5988
L295.638 118.599
L297.082 106.599
L298.527 137.799
L299.972 140.999
L301.416 123.399
L302.861 130.599
L304.306 136.199
L305.75 119.399
L307.195 106.599
L308.64 136.199
L310.084 124.999
L311.529 119.399
L312.974 81.7988
L314.418 60.9988
L315.863 70.5988
L317.308 102.599
L318.752 52.1988
L320.197 107.399
L321.642 96.9988
L323.086 126.599
L324.531 102.599
L325.975 81.7988
L327.42 116.199
L328.865 104.199
L330.309 74.5988
L331.754 68.1988
L333.199 76.9988
L334.643 104.999
L336.088 105.799
L337.533 95.3988
L338.977 102.599
L340.422 99.3988
L341.867 112.999
L343.311 113.799
L344.756 132.199
L346.201 116.999
L347.645 116.999
L349.09 109.799
L350.535 96.1988
L351.979 84.9988
L353.424 57.7988
L354.869 76.9988
L356.313 89.7988
L357.758 97.7988
L359.203 104.199
L360.647 108.999
L362.092 115.399
L363.537 133.799
L364.981 120.999
L366.426 123.399
L367.871 127.399
L369.315 137.799
L370.76 105.799
L372.205 135.399
L373.649 93.7988
L375.094 117.799
L376.539 59.3988
L377.983 50.5988
L379.428 18.5988
L380.873 78.5988
L382.317 97.7988
L383.762 68.9988
L385.207 121.799
L386.651 116.999
L388.096 108.199
L389.541 127.399
L390.985 120.999
L392.43 100.199
L393.875 120.999
L395.319 137.799
L396.764 96.9988
L398.208 106.599
L399.653 101.799
L401.098 91.3988
L402.542 108.999
L403.987 110.599
L405.432 93.7988
L406.876 105.799
L408.321 86.5988
L409.766 110.599
L411.21 97.7988
L412.655 102.599
L414.1 123.399
L415.544 120.199
L416.989 125.799
L418.434 110.599
L419.878 119.399
L421.323 112.999
L422.768 124.999
L424.212 120.199
L425.657 104.199
L427.102 111.399
L428.546 116.199
L429.991 93.7988
L431.436 108.999
L432.88 127.399
L434.325 137.799
L435.77 113.799
L437.214 122.599
L438.659 125.799
L440.104 125.799
L441.548 121.799
L442.993 95.3988
L444.438 136.199
L445.882 136.999
L447.327 136.999
L448.772 148.199
L450.216 144.199
L451.661 125.799
L453.106 129.799
L454.55 140.199
L455.995 133.799
L457.44 132.999
L458.884 136.199
L460.329 141.799
L461.774 121.799
L463.218 116.199
L464.663 133.799
L466.108 137.799
L467.552 115.399
L468.997 124.999
L470.442 103.399
L471.886 133.799
L474.775 96.9988
L476.22 130.599
L477.665 137.799
L479.109 138.599
L480.554 109.799
L481.999 128.199
L483.443 141.799
L484.888 128.999
L486.333 131.399
L487.777 148.199
L487.777 148.199" style="fill:none;stroke:#348abd;stroke-linecap:square;stroke-width:2.0;"/>
   </g>
   <g id="patch_3">
    <path d="
M41.3774 12.1988
L487.777 12.1988" style="fill:none;stroke:#000000;stroke-linecap:square;stroke-linejoin:miter;"/>
   </g>
   <g id="patch_4">
    <path d="
M487.777 156.199
L487.777 12.1988" style="fill:none;stroke:#000000;stroke-linecap:square;stroke-linejoin:miter;"/>
   </g>
   <g id="patch_5">
    <path d="
M41.3774 156.199
L487.777 156.199" style="fill:none;stroke:#000000;stroke-linecap:square;stroke-linejoin:miter;"/>
   </g>
   <g id="patch_6">
    <path d="
M41.3774 156.199
L41.3774 12.1988" style="fill:none;stroke:#000000;stroke-linecap:square;stroke-linejoin:miter;"/>
   </g>
   <g id="matplotlib.axis_1">
    <g id="xtick_1">
     <g id="line2d_2">
      <path clip-path="url(#p9126f310fd)" d="
M41.3774 156.199
L41.3774 12.1988" style="fill:none;stroke:#000000;stroke-dasharray:1.000000,3.000000;stroke-dashoffset:0.0;stroke-width:0.5;"/>
     </g>
     <g id="line2d_3">
      <defs>
       <path d="
M0 0
L0 -4" id="m93b0483c22" style="stroke:#000000;stroke-width:0.5;"/>
      </defs>
      <g>
       <use style="stroke:#000000;stroke-width:0.5;" x="41.377425" xlink:href="#m93b0483c22" y="156.198780937"/>
      </g>
     </g>
     <g id="line2d_4">
      <defs>
       <path d="
M0 0
L0 4" id="m741efc42ff" style="stroke:#000000;stroke-width:0.5;"/>
      </defs>
      <g>
       <use style="stroke:#000000;stroke-width:0.5;" x="41.377425" xlink:href="#m741efc42ff" y="12.1987809375"/>
      </g>
     </g>
    </g>
    <g id="xtick_2">
     <g id="line2d_5">
      <path clip-path="url(#p9126f310fd)" d="
M71.7153 156.199
L71.7153 12.1988" style="fill:none;stroke:#000000;stroke-dasharray:1.000000,3.000000;stroke-dashoffset:0.0;stroke-width:0.5;"/>
     </g>
     <g id="line2d_6">
      <g>
       <use style="stroke:#000000;stroke-width:0.5;" x="71.7152890777" xlink:href="#m93b0483c22" y="156.198780937"/>
      </g>
     </g>
     <g id="line2d_7">
      <g>
       <use style="stroke:#000000;stroke-width:0.5;" x="71.7152890777" xlink:href="#m741efc42ff" y="12.1987809375"/>
      </g>
     </g>
     <g id="text_1">
      <!-- 2010 -->
      <defs>
       <path d="
M49.2188 0
L4.6875 0
L4.6875 7.625
L21.7812 26.2188
Q25.4375 30.1719 28.3125 33.4375
Q31.2031 36.7188 33.2188 39.8438
Q35.25 42.9688 36.3281 46.1094
Q37.4062 49.2656 37.4062 52.9844
Q37.4062 55.8594 36.5781 58.0469
Q35.75 60.25 34.2031 61.7812
Q32.6719 63.3281 30.5625 64.1094
Q28.4688 64.8906 25.875 64.8906
Q21.2344 64.8906 17.5 63.0156
Q13.7656 61.1406 10.4062 58.2031
L5.42188 64.0156
Q7.375 65.7656 9.60938 67.2969
Q11.8594 68.8438 14.4531 69.9688
Q17.0469 71.0938 19.9219 71.75
Q22.7969 72.4062 25.9844 72.4062
Q30.6719 72.4062 34.4531 71.0938
Q38.2344 69.7812 40.8594 67.3125
Q43.5 64.8438 44.9375 61.2969
Q46.3906 57.7656 46.3906 53.3281
Q46.3906 49.1719 45.0938 45.4062
Q43.7969 41.6562 41.5312 38.0156
Q39.2656 34.375 36.1094 30.7031
Q32.9531 27.0469 29.2969 23.0938
L15.5781 8.5
L15.5781 8.10938
L49.2188 8.10938
z
" id="WenQuanYiMicroHei-32"/>
       <path d="
M34.7188 0
L26.125 0
L26.125 44.5781
Q26.125 46.6875 26.1406 49.0781
Q26.1719 51.4688 26.2344 53.8281
Q26.3125 56.2031 26.3906 58.375
Q26.4688 60.5469 26.5156 62.2031
Q25.6875 61.3281 25.0469 60.6875
Q24.4219 60.0625 23.75 59.4688
Q23.0938 58.8906 22.3594 58.2188
Q21.625 57.5625 20.6094 56.6875
L13.375 50.7812
L8.6875 56.7812
L27.3906 71.3906
L34.7188 71.3906
z
" id="WenQuanYiMicroHei-31"/>
       <path d="
M50.3906 35.7969
Q50.3906 27.1562 49.1406 20.3125
Q47.9062 13.4844 45.1406 8.73438
Q42.3906 4 38.0312 1.5
Q33.6875 -0.984375 27.4844 -0.984375
Q21.7344 -0.984375 17.4531 1.5
Q13.1875 4 10.375 8.73438
Q7.5625 13.4844 6.17188 20.3125
Q4.78125 27.1562 4.78125 35.7969
Q4.78125 44.4375 6.03125 51.2656
Q7.28125 58.1094 9.98438 62.8125
Q12.7031 67.5312 17.0156 70.0156
Q21.3438 72.5156 27.4844 72.5156
Q33.2969 72.5156 37.5938 70.0469
Q41.8906 67.5781 44.7188 62.8594
Q47.5625 58.1562 48.9688 51.3125
Q50.3906 44.4844 50.3906 35.7969
M13.8125 35.7969
Q13.8125 28.4688 14.5469 23
Q15.2812 17.5312 16.8906 13.8906
Q18.5 10.25 21.1094 8.42188
Q23.7344 6.59375 27.4844 6.59375
Q31.25 6.59375 33.8906 8.39062
Q36.5312 10.2031 38.2031 13.8125
Q39.8906 17.4375 40.6406 22.9219
Q41.4062 28.4219 41.4062 35.7969
Q41.4062 43.1094 40.6406 48.5781
Q39.8906 54.0469 38.2031 57.6562
Q36.5312 61.2812 33.8906 63.0781
Q31.25 64.8906 27.4844 64.8906
Q23.7344 64.8906 21.1094 63.0781
Q18.5 61.2812 16.8906 57.6562
Q15.2812 54.0469 14.5469 48.5781
Q13.8125 43.1094 13.8125 35.7969" id="WenQuanYiMicroHei-30"/>
      </defs>
      <g transform="translate(61.1726328277 167.794179062)scale(0.09996 -0.09996)">
       <use xlink:href="#WenQuanYiMicroHei-32"/>
       <use x="55.078125" xlink:href="#WenQuanYiMicroHei-30"/>
       <use x="110.15625" xlink:href="#WenQuanYiMicroHei-31"/>
       <use x="165.234375" xlink:href="#WenQuanYiMicroHei-30"/>
      </g>
     </g>
    </g>
    <g id="xtick_3">
     <g id="line2d_8">
      <path clip-path="url(#p9126f310fd)" d="
M146.838 156.199
L146.838 12.1988" style="fill:none;stroke:#000000;stroke-dasharray:1.000000,3.000000;stroke-dashoffset:0.0;stroke-width:0.5;"/>
     </g>
     <g id="line2d_9">
      <g>
       <use style="stroke:#000000;stroke-width:0.5;" x="146.837619175" xlink:href="#m93b0483c22" y="156.198780937"/>
      </g>
     </g>
     <g id="line2d_10">
      <g>
       <use style="stroke:#000000;stroke-width:0.5;" x="146.837619175" xlink:href="#m741efc42ff" y="12.1987809375"/>
      </g>
     </g>
     <g id="text_2">
      <!-- 2011 -->
      <g transform="translate(137.078243237 167.794179062)scale(0.09996 -0.09996)">
       <use xlink:href="#WenQuanYiMicroHei-32"/>
       <use x="55.078125" xlink:href="#WenQuanYiMicroHei-30"/>
       <use x="110.15625" xlink:href="#WenQuanYiMicroHei-31"/>
       <use x="165.234375" xlink:href="#WenQuanYiMicroHei-31"/>
      </g>
     </g>
    </g>
    <g id="xtick_4">
     <g id="line2d_11">
      <path clip-path="url(#p9126f310fd)" d="
M221.96 156.199
L221.96 12.1988" style="fill:none;stroke:#000000;stroke-dasharray:1.000000,3.000000;stroke-dashoffset:0.0;stroke-width:0.5;"/>
     </g>
     <g id="line2d_12">
      <g>
       <use style="stroke:#000000;stroke-width:0.5;" x="221.959949272" xlink:href="#m93b0483c22" y="156.198780937"/>
      </g>
     </g>
     <g id="line2d_13">
      <g>
       <use style="stroke:#000000;stroke-width:0.5;" x="221.959949272" xlink:href="#m741efc42ff" y="12.1987809375"/>
      </g>
     </g>
     <g id="text_3">
      <!-- 2012 -->
      <g transform="translate(211.475863334 167.794179062)scale(0.09996 -0.09996)">
       <use xlink:href="#WenQuanYiMicroHei-32"/>
       <use x="55.078125" xlink:href="#WenQuanYiMicroHei-30"/>
       <use x="110.15625" xlink:href="#WenQuanYiMicroHei-31"/>
       <use x="165.234375" xlink:href="#WenQuanYiMicroHei-32"/>
      </g>
     </g>
    </g>
    <g id="xtick_5">
     <g id="line2d_14">
      <path clip-path="url(#p9126f310fd)" d="
M298.527 156.199
L298.527 12.1988" style="fill:none;stroke:#000000;stroke-dasharray:1.000000,3.000000;stroke-dashoffset:0.0;stroke-width:0.5;"/>
     </g>
     <g id="line2d_15">
      <g>
       <use style="stroke:#000000;stroke-width:0.5;" x="298.526939563" xlink:href="#m93b0483c22" y="156.198780937"/>
      </g>
     </g>
     <g id="line2d_16">
      <g>
       <use style="stroke:#000000;stroke-width:0.5;" x="298.526939563" xlink:href="#m741efc42ff" y="12.1987809375"/>
      </g>
     </g>
     <g id="text_4">
      <!-- 2013 -->
      <defs>
       <path d="
M46.9219 54.6875
Q46.9219 51.125 45.7969 48.1875
Q44.6719 45.2656 42.6406 43.1094
Q40.625 40.9688 37.7969 39.5781
Q34.9688 38.1875 31.5 37.5938
L31.5 37.3125
Q40.1406 36.2344 44.625 31.8125
Q49.125 27.3906 49.125 20.3125
Q49.125 15.625 47.5312 11.7188
Q45.9531 7.8125 42.7188 4.98438
Q39.5 2.15625 34.5625 0.578125
Q29.6406 -0.984375 22.9062 -0.984375
Q17.5781 -0.984375 12.8594 -0.140625
Q8.15625 0.6875 4 2.875
L4 11.1875
Q8.25 8.9375 13.2031 7.71875
Q18.1719 6.5 22.7031 6.5
Q27.2031 6.5 30.4688 7.46875
Q33.7344 8.45312 35.8594 10.25
Q37.9844 12.0625 38.9844 14.6875
Q39.9844 17.3281 39.9844 20.6094
Q39.9844 23.9219 38.6875 26.2812
Q37.4062 28.6562 35.0156 30.1875
Q32.625 31.7344 29.1719 32.4688
Q25.7344 33.2031 21.3906 33.2031
L14.8906 33.2031
L14.8906 40.5781
L21.3906 40.5781
Q25.3438 40.5781 28.4219 41.5469
Q31.5 42.5312 33.5625 44.3281
Q35.6406 46.1406 36.7188 48.625
Q37.7969 51.125 37.7969 54.1094
Q37.7969 56.6406 36.9062 58.6406
Q36.0312 60.6406 34.4219 62.0312
Q32.8125 63.4219 30.5625 64.1562
Q28.3281 64.8906 25.5938 64.8906
Q20.3594 64.8906 16.375 63.25
Q12.4062 61.625 8.79688 58.9844
L4.29688 65.0938
Q6.15625 66.6094 8.42188 67.9219
Q10.6875 69.2344 13.375 70.2344
Q16.0625 71.2344 19.1094 71.8125
Q22.1719 72.4062 25.5938 72.4062
Q30.8594 72.4062 34.8281 71.0938
Q38.8125 69.7812 41.5 67.4062
Q44.1875 65.0469 45.5469 61.7969
Q46.9219 58.5469 46.9219 54.6875" id="WenQuanYiMicroHei-33"/>
      </defs>
      <g transform="translate(288.047539251 167.794179062)scale(0.09996 -0.09996)">
       <use xlink:href="#WenQuanYiMicroHei-32"/>
       <use x="55.078125" xlink:href="#WenQuanYiMicroHei-30"/>
       <use x="110.15625" xlink:href="#WenQuanYiMicroHei-31"/>
       <use x="165.234375" xlink:href="#WenQuanYiMicroHei-33"/>
      </g>
     </g>
    </g>
    <g id="xtick_6">
     <g id="line2d_17">
      <path clip-path="url(#p9126f310fd)" d="
M373.649 156.199
L373.649 12.1988" style="fill:none;stroke:#000000;stroke-dasharray:1.000000,3.000000;stroke-dashoffset:0.0;stroke-width:0.5;"/>
     </g>
     <g id="line2d_18">
      <g>
       <use style="stroke:#000000;stroke-width:0.5;" x="373.64926966" xlink:href="#m93b0483c22" y="156.198780937"/>
      </g>
     </g>
     <g id="line2d_19">
      <g>
       <use style="stroke:#000000;stroke-width:0.5;" x="373.64926966" xlink:href="#m741efc42ff" y="12.1987809375"/>
      </g>
     </g>
     <g id="text_5">
      <!-- 2014 -->
      <defs>
       <path d="
M53.0781 16.0156
L42.6719 16.0156
L42.6719 0
L34.0781 0
L34.0781 16.0156
L1.125 16.0156
L1.125 23.7812
L33.5 71.7812
L42.6719 71.7812
L42.6719 24.125
L53.0781 24.125
z

M34.0781 24.125
L34.0781 41.5
Q34.0781 44.2344 34.1562 47.2344
Q34.2344 50.25 34.3281 53.0938
Q34.4219 55.9531 34.5469 58.4375
Q34.6719 60.9375 34.7188 62.5938
L34.2812 62.5938
Q33.9375 61.625 33.4219 60.4219
Q32.9062 59.2344 32.2969 58.0312
Q31.6875 56.8438 31.0469 55.7188
Q30.4219 54.5938 29.8906 53.8125
L9.8125 24.125
z
" id="WenQuanYiMicroHei-34"/>
      </defs>
      <g transform="translate(362.97229216 167.794179062)scale(0.09996 -0.09996)">
       <use xlink:href="#WenQuanYiMicroHei-32"/>
       <use x="55.078125" xlink:href="#WenQuanYiMicroHei-30"/>
       <use x="110.15625" xlink:href="#WenQuanYiMicroHei-31"/>
       <use x="165.234375" xlink:href="#WenQuanYiMicroHei-34"/>
      </g>
     </g>
    </g>
    <g id="xtick_7">
     <g id="line2d_20">
      <path clip-path="url(#p9126f310fd)" d="
M448.772 156.199
L448.772 12.1988" style="fill:none;stroke:#000000;stroke-dasharray:1.000000,3.000000;stroke-dashoffset:0.0;stroke-width:0.5;"/>
     </g>
     <g id="line2d_21">
      <g>
       <use style="stroke:#000000;stroke-width:0.5;" x="448.771599757" xlink:href="#m93b0483c22" y="156.198780937"/>
      </g>
     </g>
     <g id="line2d_22">
      <g>
       <use style="stroke:#000000;stroke-width:0.5;" x="448.771599757" xlink:href="#m741efc42ff" y="12.1987809375"/>
      </g>
     </g>
     <g id="text_6">
      <!-- 2015 -->
      <defs>
       <path d="
M26.6094 43.7969
Q31.4531 43.7969 35.625 42.4531
Q39.7969 41.1094 42.8906 38.4688
Q46 35.8438 47.75 31.9375
Q49.5156 28.0312 49.5156 22.9062
Q49.5156 17.3281 47.8438 12.8906
Q46.1875 8.45312 42.9219 5.375
Q39.6562 2.29688 34.8438 0.65625
Q30.0312 -0.984375 23.7812 -0.984375
Q21.2969 -0.984375 18.875 -0.734375
Q16.4531 -0.484375 14.2344 -0.015625
Q12.0156 0.4375 10.0156 1.17188
Q8.01562 1.90625 6.39062 2.875
L6.39062 11.2812
Q8.01562 10.1562 10.1875 9.28125
Q12.3594 8.40625 14.75 7.8125
Q17.1406 7.23438 19.5469 6.90625
Q21.9688 6.59375 24.0312 6.59375
Q27.875 6.59375 30.9062 7.5
Q33.9375 8.40625 36.0312 10.2969
Q38.1406 12.2031 39.25 15.0781
Q40.375 17.9688 40.375 21.9219
Q40.375 28.9062 36.0781 32.5938
Q31.7812 36.2812 23.5781 36.2812
Q22.2656 36.2812 20.7188 36.1562
Q19.1875 36.0312 17.6406 35.8281
Q16.1094 35.6406 14.7188 35.4219
Q13.3281 35.2031 12.3125 35.0156
L7.90625 37.7969
L10.5938 71.3906
L44.2812 71.3906
L44.2812 63.2812
L18.3125 63.2812
L16.4062 42.8281
Q17.9688 43.1094 20.5312 43.4531
Q23.0938 43.7969 26.6094 43.7969" id="WenQuanYiMicroHei-35"/>
      </defs>
      <g transform="translate(438.272676007 167.794179062)scale(0.09996 -0.09996)">
       <use xlink:href="#WenQuanYiMicroHei-32"/>
       <use x="55.078125" xlink:href="#WenQuanYiMicroHei-30"/>
       <use x="110.15625" xlink:href="#WenQuanYiMicroHei-31"/>
       <use x="165.234375" xlink:href="#WenQuanYiMicroHei-35"/>
      </g>
     </g>
    </g>
    <g id="xtick_8">
     <g id="line2d_23">
      <path clip-path="url(#p9126f310fd)" d="
M487.777 156.199
L487.777 12.1988" style="fill:none;stroke:#000000;stroke-dasharray:1.000000,3.000000;stroke-dashoffset:0.0;stroke-width:0.5;"/>
     </g>
     <g id="line2d_24">
      <g>
       <use style="stroke:#000000;stroke-width:0.5;" x="487.777425" xlink:href="#m93b0483c22" y="156.198780937"/>
      </g>
     </g>
     <g id="line2d_25">
      <g>
       <use style="stroke:#000000;stroke-width:0.5;" x="487.777425" xlink:href="#m741efc42ff" y="12.1987809375"/>
      </g>
     </g>
    </g>
    <g id="xtick_9">
     <g id="line2d_26">
      <defs>
       <path d="
M0 0
L0 -2" id="m177f7580d0" style="stroke:#000000;stroke-width:0.5;"/>
      </defs>
      <g>
       <use style="stroke:#000000;stroke-width:0.5;" x="52.9347065534" xlink:href="#m177f7580d0" y="156.198780937"/>
      </g>
     </g>
     <g id="line2d_27">
      <defs>
       <path d="
M0 0
L0 2" id="m5284c7e2a0" style="stroke:#000000;stroke-width:0.5;"/>
      </defs>
      <g>
       <use style="stroke:#000000;stroke-width:0.5;" x="52.9347065534" xlink:href="#m5284c7e2a0" y="12.1987809375"/>
      </g>
     </g>
    </g>
    <g id="xtick_10">
     <g id="line2d_28">
      <g>
       <use style="stroke:#000000;stroke-width:0.5;" x="90.4958716019" xlink:href="#m177f7580d0" y="156.198780937"/>
      </g>
     </g>
     <g id="line2d_29">
      <g>
       <use style="stroke:#000000;stroke-width:0.5;" x="90.4958716019" xlink:href="#m5284c7e2a0" y="12.1987809375"/>
      </g>
     </g>
    </g>
    <g id="xtick_11">
     <g id="line2d_30">
      <g>
       <use style="stroke:#000000;stroke-width:0.5;" x="109.276454126" xlink:href="#m177f7580d0" y="156.198780937"/>
      </g>
     </g>
     <g id="line2d_31">
      <g>
       <use style="stroke:#000000;stroke-width:0.5;" x="109.276454126" xlink:href="#m5284c7e2a0" y="12.1987809375"/>
      </g>
     </g>
    </g>
    <g id="xtick_12">
     <g id="line2d_32">
      <g>
       <use style="stroke:#000000;stroke-width:0.5;" x="128.05703665" xlink:href="#m177f7580d0" y="156.198780937"/>
      </g>
     </g>
     <g id="line2d_33">
      <g>
       <use style="stroke:#000000;stroke-width:0.5;" x="128.05703665" xlink:href="#m5284c7e2a0" y="12.1987809375"/>
      </g>
     </g>
    </g>
    <g id="xtick_13">
     <g id="line2d_34">
      <g>
       <use style="stroke:#000000;stroke-width:0.5;" x="165.618201699" xlink:href="#m177f7580d0" y="156.198780937"/>
      </g>
     </g>
     <g id="line2d_35">
      <g>
       <use style="stroke:#000000;stroke-width:0.5;" x="165.618201699" xlink:href="#m5284c7e2a0" y="12.1987809375"/>
      </g>
     </g>
    </g>
    <g id="xtick_14">
     <g id="line2d_36">
      <g>
       <use style="stroke:#000000;stroke-width:0.5;" x="184.398784223" xlink:href="#m177f7580d0" y="156.198780937"/>
      </g>
     </g>
     <g id="line2d_37">
      <g>
       <use style="stroke:#000000;stroke-width:0.5;" x="184.398784223" xlink:href="#m5284c7e2a0" y="12.1987809375"/>
      </g>
     </g>
    </g>
    <g id="xtick_15">
     <g id="line2d_38">
      <g>
       <use style="stroke:#000000;stroke-width:0.5;" x="203.179366748" xlink:href="#m177f7580d0" y="156.198780937"/>
      </g>
     </g>
     <g id="line2d_39">
      <g>
       <use style="stroke:#000000;stroke-width:0.5;" x="203.179366748" xlink:href="#m5284c7e2a0" y="12.1987809375"/>
      </g>
     </g>
    </g>
    <g id="xtick_16">
     <g id="line2d_40">
      <g>
       <use style="stroke:#000000;stroke-width:0.5;" x="240.740531796" xlink:href="#m177f7580d0" y="156.198780937"/>
      </g>
     </g>
     <g id="line2d_41">
      <g>
       <use style="stroke:#000000;stroke-width:0.5;" x="240.740531796" xlink:href="#m5284c7e2a0" y="12.1987809375"/>
      </g>
     </g>
    </g>
    <g id="xtick_17">
     <g id="line2d_42">
      <g>
       <use style="stroke:#000000;stroke-width:0.5;" x="259.52111432" xlink:href="#m177f7580d0" y="156.198780937"/>
      </g>
     </g>
     <g id="line2d_43">
      <g>
       <use style="stroke:#000000;stroke-width:0.5;" x="259.52111432" xlink:href="#m5284c7e2a0" y="12.1987809375"/>
      </g>
     </g>
    </g>
    <g id="xtick_18">
     <g id="line2d_44">
      <g>
       <use style="stroke:#000000;stroke-width:0.5;" x="279.746357039" xlink:href="#m177f7580d0" y="156.198780937"/>
      </g>
     </g>
     <g id="line2d_45">
      <g>
       <use style="stroke:#000000;stroke-width:0.5;" x="279.746357039" xlink:href="#m5284c7e2a0" y="12.1987809375"/>
      </g>
     </g>
    </g>
    <g id="xtick_19">
     <g id="line2d_46">
      <g>
       <use style="stroke:#000000;stroke-width:0.5;" x="317.307522087" xlink:href="#m177f7580d0" y="156.198780937"/>
      </g>
     </g>
     <g id="line2d_47">
      <g>
       <use style="stroke:#000000;stroke-width:0.5;" x="317.307522087" xlink:href="#m5284c7e2a0" y="12.1987809375"/>
      </g>
     </g>
    </g>
    <g id="xtick_20">
     <g id="line2d_48">
      <g>
       <use style="stroke:#000000;stroke-width:0.5;" x="336.088104612" xlink:href="#m177f7580d0" y="156.198780937"/>
      </g>
     </g>
     <g id="line2d_49">
      <g>
       <use style="stroke:#000000;stroke-width:0.5;" x="336.088104612" xlink:href="#m5284c7e2a0" y="12.1987809375"/>
      </g>
     </g>
    </g>
    <g id="xtick_21">
     <g id="line2d_50">
      <g>
       <use style="stroke:#000000;stroke-width:0.5;" x="354.868687136" xlink:href="#m177f7580d0" y="156.198780937"/>
      </g>
     </g>
     <g id="line2d_51">
      <g>
       <use style="stroke:#000000;stroke-width:0.5;" x="354.868687136" xlink:href="#m5284c7e2a0" y="12.1987809375"/>
      </g>
     </g>
    </g>
    <g id="xtick_22">
     <g id="line2d_52">
      <g>
       <use style="stroke:#000000;stroke-width:0.5;" x="392.429852184" xlink:href="#m177f7580d0" y="156.198780937"/>
      </g>
     </g>
     <g id="line2d_53">
      <g>
       <use style="stroke:#000000;stroke-width:0.5;" x="392.429852184" xlink:href="#m5284c7e2a0" y="12.1987809375"/>
      </g>
     </g>
    </g>
    <g id="xtick_23">
     <g id="line2d_54">
      <g>
       <use style="stroke:#000000;stroke-width:0.5;" x="411.210434709" xlink:href="#m177f7580d0" y="156.198780937"/>
      </g>
     </g>
     <g id="line2d_55">
      <g>
       <use style="stroke:#000000;stroke-width:0.5;" x="411.210434709" xlink:href="#m5284c7e2a0" y="12.1987809375"/>
      </g>
     </g>
    </g>
    <g id="xtick_24">
     <g id="line2d_56">
      <g>
       <use style="stroke:#000000;stroke-width:0.5;" x="429.991017233" xlink:href="#m177f7580d0" y="156.198780937"/>
      </g>
     </g>
     <g id="line2d_57">
      <g>
       <use style="stroke:#000000;stroke-width:0.5;" x="429.991017233" xlink:href="#m5284c7e2a0" y="12.1987809375"/>
      </g>
     </g>
    </g>
    <g id="xtick_25">
     <g id="line2d_58">
      <g>
       <use style="stroke:#000000;stroke-width:0.5;" x="467.552182282" xlink:href="#m177f7580d0" y="156.198780937"/>
      </g>
     </g>
     <g id="line2d_59">
      <g>
       <use style="stroke:#000000;stroke-width:0.5;" x="467.552182282" xlink:href="#m5284c7e2a0" y="12.1987809375"/>
      </g>
     </g>
    </g>
    <g id="xtick_26">
     <g id="line2d_60">
      <g>
       <use style="stroke:#000000;stroke-width:0.5;" x="486.332764806" xlink:href="#m177f7580d0" y="156.198780937"/>
      </g>
     </g>
     <g id="line2d_61">
      <g>
       <use style="stroke:#000000;stroke-width:0.5;" x="486.332764806" xlink:href="#m5284c7e2a0" y="12.1987809375"/>
      </g>
     </g>
    </g>
    <g id="text_7">
     <!-- Date -->
     <defs>
      <path d="
M29.6875 -0.984375
Q24.3125 -0.984375 19.875 0.828125
Q15.4375 2.64062 12.2344 6.10938
Q9.03125 9.57812 7.26562 14.7031
Q5.51562 19.8281 5.51562 26.4219
Q5.51562 33.0625 7.125 38.2812
Q8.73438 43.5 11.6562 47.1406
Q14.5938 50.7812 18.6719 52.6875
Q22.75 54.5938 27.6875 54.5938
Q32.5156 54.5938 36.375 52.8594
Q40.2344 51.125 42.9219 47.9688
Q45.6094 44.8281 47.0469 40.4062
Q48.4844 35.9844 48.4844 30.6094
L48.4844 25.0938
L14.7031 25.0938
Q14.9375 15.6719 18.6719 11.2188
Q22.4062 6.78125 29.7812 6.78125
Q32.2812 6.78125 34.4062 7.03125
Q36.5312 7.28125 38.5 7.73438
Q40.4844 8.20312 42.3281 8.90625
Q44.1875 9.625 46.0938 10.5
L46.0938 2.59375
Q44.1406 1.65625 42.25 0.96875
Q40.375 0.296875 38.3906 -0.140625
Q36.4219 -0.59375 34.2969 -0.78125
Q32.1719 -0.984375 29.6875 -0.984375
M27.4844 47.2188
Q21.9219 47.2188 18.6719 43.4062
Q15.4375 39.5938 14.8906 32.3281
L38.9219 32.3281
Q38.9219 35.6406 38.25 38.3906
Q37.5938 41.1562 36.2031 43.1094
Q34.8125 45.0625 32.6562 46.1406
Q30.5156 47.2188 27.4844 47.2188" id="WenQuanYiMicroHei-65"/>
      <path d="
M24.7031 6.29688
Q25.5938 6.29688 26.6875 6.39062
Q27.7812 6.5 28.7969 6.64062
Q29.8281 6.78125 30.6875 6.96875
Q31.5469 7.17188 31.9844 7.32812
L31.9844 0.59375
Q31.3438 0.296875 30.3594 0
Q29.3906 -0.296875 28.2188 -0.515625
Q27.0469 -0.734375 25.7812 -0.859375
Q24.5156 -0.984375 23.2969 -0.984375
Q20.2656 -0.984375 17.6719 -0.1875
Q15.0938 0.59375 13.2031 2.48438
Q11.3281 4.39062 10.25 7.64062
Q9.1875 10.8906 9.1875 15.8281
L9.1875 46.9219
L1.60938 46.9219
L1.60938 50.875
L9.1875 54.6875
L12.9844 65.9219
L18.1094 65.9219
L18.1094 53.6094
L31.5938 53.6094
L31.5938 46.9219
L18.1094 46.9219
L18.1094 15.8281
Q18.1094 11.0781 19.6406 8.6875
Q21.1875 6.29688 24.7031 6.29688" id="WenQuanYiMicroHei-74"/>
      <path d="
M38.7188 0
L36.9219 7.42188
L36.5312 7.42188
Q34.9062 5.21875 33.2969 3.625
Q31.6875 2.04688 29.7812 1.01562
Q27.875 0 25.5312 -0.484375
Q23.1875 -0.984375 20.125 -0.984375
Q16.75 -0.984375 13.9062 -0.03125
Q11.0781 0.921875 9 2.90625
Q6.9375 4.89062 5.76562 7.89062
Q4.59375 10.8906 4.59375 14.9844
Q4.59375 23 10.2344 27.2969
Q15.875 31.5938 27.3906 31.9844
L36.375 32.3281
L36.375 35.6875
Q36.375 38.9688 35.6719 41.1562
Q34.9688 43.3594 33.625 44.7031
Q32.2812 46.0469 30.2969 46.625
Q28.3281 47.2188 25.7812 47.2188
Q21.7344 47.2188 18.2344 46.0469
Q14.75 44.875 11.5312 43.2188
L8.40625 49.9062
Q12.0156 51.8594 16.4531 53.2188
Q20.9062 54.5938 25.7812 54.5938
Q30.7656 54.5938 34.3906 53.5938
Q38.0312 52.5938 40.4062 50.4219
Q42.7812 48.25 43.9531 44.875
Q45.125 41.5 45.125 36.7188
L45.125 0
z

M22.4062 6.20312
Q25.3906 6.20312 27.9219 7.125
Q30.4688 8.0625 32.3281 9.9375
Q34.1875 11.8125 35.2344 14.6719
Q36.2812 17.5312 36.2812 21.3906
L36.2812 26.2188
L29.2969 25.875
Q24.9062 25.6875 21.9219 24.9062
Q18.9531 24.125 17.1562 22.7344
Q15.375 21.3438 14.5938 19.3594
Q13.8125 17.3906 13.8125 14.8906
Q13.8125 10.4062 16.1875 8.29688
Q18.5625 6.20312 22.4062 6.20312" id="WenQuanYiMicroHei-61"/>
      <path d="
M62.3125 36.375
Q62.3125 27.3438 59.9688 20.5312
Q57.625 13.7188 53.1719 9.15625
Q48.7344 4.59375 42.2656 2.29688
Q35.7969 0 27.5938 0
L9.71875 0
L9.71875 71.3906
L29.5938 71.3906
Q37.0625 71.3906 43.1094 69.1406
Q49.1719 66.8906 53.4219 62.4688
Q57.6719 58.0625 59.9844 51.5156
Q62.3125 44.9688 62.3125 36.375
M52.6875 36.0781
Q52.6875 43.2188 51.0781 48.4062
Q49.4688 53.6094 46.3906 56.9844
Q43.3125 60.3594 38.8125 61.9844
Q34.3281 63.625 28.6094 63.625
L18.7969 63.625
L18.7969 7.8125
L26.7031 7.8125
Q39.5938 7.8125 46.1406 14.9375
Q52.6875 22.0781 52.6875 36.0781" id="WenQuanYiMicroHei-44"/>
     </defs>
     <g transform="translate(254.874276563 182.791740937)scale(0.09996 -0.09996)">
      <use xlink:href="#WenQuanYiMicroHei-44"/>
      <use x="68.408203125" xlink:href="#WenQuanYiMicroHei-61"/>
      <use x="121.484375" xlink:href="#WenQuanYiMicroHei-74"/>
      <use x="155.37109375" xlink:href="#WenQuanYiMicroHei-65"/>
     </g>
    </g>
   </g>
   <g id="matplotlib.axis_2">
    <g id="ytick_1">
     <g id="line2d_62">
      <path clip-path="url(#p9126f310fd)" d="
M41.3774 156.199
L487.777 156.199" style="fill:none;stroke:#000000;stroke-dasharray:1.000000,3.000000;stroke-dashoffset:0.0;stroke-width:0.5;"/>
     </g>
     <g id="line2d_63">
      <defs>
       <path d="
M0 0
L4 0" id="m728421d6d4" style="stroke:#000000;stroke-width:0.5;"/>
      </defs>
      <g>
       <use style="stroke:#000000;stroke-width:0.5;" x="41.377425" xlink:href="#m728421d6d4" y="156.198780937"/>
      </g>
     </g>
     <g id="line2d_64">
      <defs>
       <path d="
M0 0
L-4 0" id="mcb0005524f" style="stroke:#000000;stroke-width:0.5;"/>
      </defs>
      <g>
       <use style="stroke:#000000;stroke-width:0.5;" x="487.777425" xlink:href="#mcb0005524f" y="156.198780937"/>
      </g>
     </g>
     <g id="text_8">
      <!-- 0 -->
      <g transform="translate(32.818311875 158.795398125)scale(0.09996 -0.09996)">
       <use xlink:href="#WenQuanYiMicroHei-30"/>
      </g>
     </g>
    </g>
    <g id="ytick_2">
     <g id="line2d_65">
      <path clip-path="url(#p9126f310fd)" d="
M41.3774 140.199
L487.777 140.199" style="fill:none;stroke:#000000;stroke-dasharray:1.000000,3.000000;stroke-dashoffset:0.0;stroke-width:0.5;"/>
     </g>
     <g id="line2d_66">
      <g>
       <use style="stroke:#000000;stroke-width:0.5;" x="41.377425" xlink:href="#m728421d6d4" y="140.198780937"/>
      </g>
     </g>
     <g id="line2d_67">
      <g>
       <use style="stroke:#000000;stroke-width:0.5;" x="487.777425" xlink:href="#mcb0005524f" y="140.198780937"/>
      </g>
     </g>
     <g id="text_9">
      <!-- 20 -->
      <g transform="translate(27.30333125 142.795398125)scale(0.09996 -0.09996)">
       <use xlink:href="#WenQuanYiMicroHei-32"/>
       <use x="55.078125" xlink:href="#WenQuanYiMicroHei-30"/>
      </g>
     </g>
    </g>
    <g id="ytick_3">
     <g id="line2d_68">
      <path clip-path="url(#p9126f310fd)" d="
M41.3774 124.199
L487.777 124.199" style="fill:none;stroke:#000000;stroke-dasharray:1.000000,3.000000;stroke-dashoffset:0.0;stroke-width:0.5;"/>
     </g>
     <g id="line2d_69">
      <g>
       <use style="stroke:#000000;stroke-width:0.5;" x="41.377425" xlink:href="#m728421d6d4" y="124.198780937"/>
      </g>
     </g>
     <g id="line2d_70">
      <g>
       <use style="stroke:#000000;stroke-width:0.5;" x="487.777425" xlink:href="#mcb0005524f" y="124.198780937"/>
      </g>
     </g>
     <g id="text_10">
      <!-- 40 -->
      <g transform="translate(26.94722375 126.795398125)scale(0.09996 -0.09996)">
       <use xlink:href="#WenQuanYiMicroHei-34"/>
       <use x="55.078125" xlink:href="#WenQuanYiMicroHei-30"/>
      </g>
     </g>
    </g>
    <g id="ytick_4">
     <g id="line2d_71">
      <path clip-path="url(#p9126f310fd)" d="
M41.3774 108.199
L487.777 108.199" style="fill:none;stroke:#000000;stroke-dasharray:1.000000,3.000000;stroke-dashoffset:0.0;stroke-width:0.5;"/>
     </g>
     <g id="line2d_72">
      <g>
       <use style="stroke:#000000;stroke-width:0.5;" x="41.377425" xlink:href="#m728421d6d4" y="108.198780937"/>
      </g>
     </g>
     <g id="line2d_73">
      <g>
       <use style="stroke:#000000;stroke-width:0.5;" x="487.777425" xlink:href="#mcb0005524f" y="108.198780937"/>
      </g>
     </g>
     <g id="text_11">
      <!-- 60 -->
      <defs>
       <path d="
M5.51562 30.5156
Q5.51562 35.6406 6.03125 40.7188
Q6.54688 45.7969 7.82812 50.4531
Q9.125 55.125 11.375 59.125
Q13.625 63.1406 17.0938 66.0938
Q20.5625 69.0469 25.3906 70.7188
Q30.2188 72.4062 36.7188 72.4062
Q37.6406 72.4062 38.7656 72.3594
Q39.8906 72.3125 41.0312 72.1875
Q42.1875 72.0781 43.2344 71.9062
Q44.2812 71.7344 45.125 71.4844
L45.125 63.9219
Q43.4062 64.5 41.25 64.7969
Q39.1094 65.0938 37.0156 65.0938
Q32.625 65.0938 29.2656 64.0312
Q25.9219 62.9844 23.4844 61.0781
Q21.0469 59.1875 19.4062 56.5469
Q17.7812 53.9062 16.75 50.7031
Q15.7188 47.5156 15.2344 43.8906
Q14.75 40.2812 14.5938 36.375
L15.1875 36.375
Q16.1562 38.1406 17.5469 39.6719
Q18.9531 41.2188 20.7969 42.3125
Q22.6562 43.4062 24.9688 44.0312
Q27.2969 44.6719 30.1719 44.6719
Q34.8125 44.6719 38.5625 43.2344
Q42.3281 41.7969 44.9688 39.0156
Q47.6094 36.2344 49.0469 32.2031
Q50.4844 28.1719 50.4844 23
Q50.4844 17.4375 48.9688 12.9844
Q47.4688 8.54688 44.625 5.4375
Q41.7969 2.34375 37.7969 0.671875
Q33.7969 -0.984375 28.8125 -0.984375
Q23.9219 -0.984375 19.6406 0.921875
Q15.375 2.82812 12.25 6.73438
Q9.125 10.6406 7.3125 16.5469
Q5.51562 22.4688 5.51562 30.5156
M28.7188 6.5
Q31.6406 6.5 34.0469 7.5
Q36.4688 8.5 38.2188 10.5156
Q39.9844 12.5469 40.9375 15.6406
Q41.8906 18.75 41.8906 23
Q41.8906 26.4219 41.0781 29.125
Q40.2812 31.8438 38.6719 33.7344
Q37.0625 35.6406 34.6406 36.6719
Q32.2344 37.7031 29 37.7031
Q25.7344 37.7031 23.0156 36.5469
Q20.3125 35.4062 18.4062 33.5625
Q16.5 31.7344 15.4531 29.3906
Q14.4062 27.0469 14.4062 24.7031
Q14.4062 21.4375 15.3125 18.1875
Q16.2188 14.9375 18 12.3438
Q19.7812 9.76562 22.4531 8.125
Q25.1406 6.5 28.7188 6.5" id="WenQuanYiMicroHei-36"/>
      </defs>
      <g transform="translate(27.386110625 110.795398125)scale(0.09996 -0.09996)">
       <use xlink:href="#WenQuanYiMicroHei-36"/>
       <use x="55.078125" xlink:href="#WenQuanYiMicroHei-30"/>
      </g>
     </g>
    </g>
    <g id="ytick_5">
     <g id="line2d_74">
      <path clip-path="url(#p9126f310fd)" d="
M41.3774 92.1988
L487.777 92.1988" style="fill:none;stroke:#000000;stroke-dasharray:1.000000,3.000000;stroke-dashoffset:0.0;stroke-width:0.5;"/>
     </g>
     <g id="line2d_75">
      <g>
       <use style="stroke:#000000;stroke-width:0.5;" x="41.377425" xlink:href="#m728421d6d4" y="92.1987809375"/>
      </g>
     </g>
     <g id="line2d_76">
      <g>
       <use style="stroke:#000000;stroke-width:0.5;" x="487.777425" xlink:href="#mcb0005524f" y="92.1987809375"/>
      </g>
     </g>
     <g id="text_12">
      <!-- 80 -->
      <defs>
       <path d="
M27.5938 72.5156
Q31.6875 72.5156 35.3281 71.4375
Q38.9688 70.3594 41.7188 68.2031
Q44.4844 66.0625 46.0938 62.8438
Q47.7031 59.625 47.7031 55.3281
Q47.7031 52.0469 46.7188 49.4062
Q45.75 46.7812 44.0312 44.6562
Q42.3281 42.5312 39.9844 40.8438
Q37.6406 39.1562 34.9062 37.7969
Q37.75 36.2812 40.4531 34.4219
Q43.1719 32.5625 45.2812 30.25
Q47.4062 27.9375 48.7031 25.0469
Q50 22.1719 50 18.6094
Q50 14.1094 48.3594 10.4688
Q46.7344 6.84375 43.7812 4.29688
Q40.8281 1.76562 36.6875 0.390625
Q32.5625 -0.984375 27.5938 -0.984375
Q22.2188 -0.984375 18.0469 0.328125
Q13.875 1.65625 11.0156 4.125
Q8.15625 6.59375 6.65625 10.1562
Q5.17188 13.7188 5.17188 18.2188
Q5.17188 21.875 6.26562 24.7969
Q7.375 27.7344 9.21875 30.0781
Q11.0781 32.4219 13.6094 34.2188
Q16.1562 36.0312 19 37.4062
Q16.6094 38.9219 14.5 40.7031
Q12.4062 42.4844 10.8594 44.6719
Q9.32812 46.875 8.42188 49.5312
Q7.51562 52.2031 7.51562 55.4219
Q7.51562 59.6719 9.15625 62.8594
Q10.7969 66.0625 13.5781 68.2031
Q16.3594 70.3594 20 71.4375
Q23.6406 72.5156 27.5938 72.5156
M13.9219 18.1094
Q13.9219 15.5312 14.7031 13.3594
Q15.4844 11.1875 17.1406 9.64062
Q18.7969 8.10938 21.3281 7.25
Q23.875 6.39062 27.3906 6.39062
Q30.8125 6.39062 33.4219 7.25
Q36.0312 8.10938 37.7812 9.6875
Q39.5469 11.2812 40.4219 13.5156
Q41.3125 15.7656 41.3125 18.5
Q41.3125 21.0469 40.3594 23.0938
Q39.4062 25.1406 37.625 26.8906
Q35.8438 28.6562 33.3438 30.2188
Q30.8594 31.7812 27.7812 33.2969
L26.3125 33.9844
Q20.1719 31.0625 17.0469 27.2656
Q13.9219 23.4844 13.9219 18.1094
M27.4844 65.0938
Q22.3125 65.0938 19.2656 62.5
Q16.2188 59.9062 16.2188 54.9844
Q16.2188 52.2031 17.0625 50.1875
Q17.9219 48.1875 19.4375 46.625
Q20.9531 45.0625 23.0781 43.8125
Q25.2031 42.5781 27.6875 41.4062
Q30.0312 42.4844 32.1094 43.75
Q34.1875 45.0156 35.7188 46.625
Q37.25 48.25 38.125 50.2969
Q39.0156 52.3438 39.0156 54.9844
Q39.0156 59.9062 35.9375 62.5
Q32.8594 65.0938 27.4844 65.0938" id="WenQuanYiMicroHei-38"/>
      </defs>
      <g transform="translate(27.351749375 94.795398125)scale(0.09996 -0.09996)">
       <use xlink:href="#WenQuanYiMicroHei-38"/>
       <use x="55.078125" xlink:href="#WenQuanYiMicroHei-30"/>
      </g>
     </g>
    </g>
    <g id="ytick_6">
     <g id="line2d_77">
      <path clip-path="url(#p9126f310fd)" d="
M41.3774 76.1988
L487.777 76.1988" style="fill:none;stroke:#000000;stroke-dasharray:1.000000,3.000000;stroke-dashoffset:0.0;stroke-width:0.5;"/>
     </g>
     <g id="line2d_78">
      <g>
       <use style="stroke:#000000;stroke-width:0.5;" x="41.377425" xlink:href="#m728421d6d4" y="76.1987809375"/>
      </g>
     </g>
     <g id="line2d_79">
      <g>
       <use style="stroke:#000000;stroke-width:0.5;" x="487.777425" xlink:href="#mcb0005524f" y="76.1987809375"/>
      </g>
     </g>
     <g id="text_13">
      <!-- 100 -->
      <g transform="translate(22.197561875 78.795398125)scale(0.09996 -0.09996)">
       <use xlink:href="#WenQuanYiMicroHei-31"/>
       <use x="55.078125" xlink:href="#WenQuanYiMicroHei-30"/>
       <use x="110.15625" xlink:href="#WenQuanYiMicroHei-30"/>
      </g>
     </g>
    </g>
    <g id="ytick_7">
     <g id="line2d_80">
      <path clip-path="url(#p9126f310fd)" d="
M41.3774 60.1988
L487.777 60.1988" style="fill:none;stroke:#000000;stroke-dasharray:1.000000,3.000000;stroke-dashoffset:0.0;stroke-width:0.5;"/>
     </g>
     <g id="line2d_81">
      <g>
       <use style="stroke:#000000;stroke-width:0.5;" x="41.377425" xlink:href="#m728421d6d4" y="60.1987809375"/>
      </g>
     </g>
     <g id="line2d_82">
      <g>
       <use style="stroke:#000000;stroke-width:0.5;" x="487.777425" xlink:href="#mcb0005524f" y="60.1987809375"/>
      </g>
     </g>
     <g id="text_14">
      <!-- 120 -->
      <g transform="translate(22.197561875 62.795398125)scale(0.09996 -0.09996)">
       <use xlink:href="#WenQuanYiMicroHei-31"/>
       <use x="55.078125" xlink:href="#WenQuanYiMicroHei-32"/>
       <use x="110.15625" xlink:href="#WenQuanYiMicroHei-30"/>
      </g>
     </g>
    </g>
    <g id="ytick_8">
     <g id="line2d_83">
      <path clip-path="url(#p9126f310fd)" d="
M41.3774 44.1988
L487.777 44.1988" style="fill:none;stroke:#000000;stroke-dasharray:1.000000,3.000000;stroke-dashoffset:0.0;stroke-width:0.5;"/>
     </g>
     <g id="line2d_84">
      <g>
       <use style="stroke:#000000;stroke-width:0.5;" x="41.377425" xlink:href="#m728421d6d4" y="44.1987809375"/>
      </g>
     </g>
     <g id="line2d_85">
      <g>
       <use style="stroke:#000000;stroke-width:0.5;" x="487.777425" xlink:href="#mcb0005524f" y="44.1987809375"/>
      </g>
     </g>
     <g id="text_15">
      <!-- 140 -->
      <g transform="translate(22.197561875 46.795398125)scale(0.09996 -0.09996)">
       <use xlink:href="#WenQuanYiMicroHei-31"/>
       <use x="55.078125" xlink:href="#WenQuanYiMicroHei-34"/>
       <use x="110.15625" xlink:href="#WenQuanYiMicroHei-30"/>
      </g>
     </g>
    </g>
    <g id="ytick_9">
     <g id="line2d_86">
      <path clip-path="url(#p9126f310fd)" d="
M41.3774 28.1988
L487.777 28.1988" style="fill:none;stroke:#000000;stroke-dasharray:1.000000,3.000000;stroke-dashoffset:0.0;stroke-width:0.5;"/>
     </g>
     <g id="line2d_87">
      <g>
       <use style="stroke:#000000;stroke-width:0.5;" x="41.377425" xlink:href="#m728421d6d4" y="28.1987809375"/>
      </g>
     </g>
     <g id="line2d_88">
      <g>
       <use style="stroke:#000000;stroke-width:0.5;" x="487.777425" xlink:href="#mcb0005524f" y="28.1987809375"/>
      </g>
     </g>
     <g id="text_16">
      <!-- 160 -->
      <g transform="translate(22.197561875 30.795398125)scale(0.09996 -0.09996)">
       <use xlink:href="#WenQuanYiMicroHei-31"/>
       <use x="55.078125" xlink:href="#WenQuanYiMicroHei-36"/>
       <use x="110.15625" xlink:href="#WenQuanYiMicroHei-30"/>
      </g>
     </g>
    </g>
    <g id="ytick_10">
     <g id="line2d_89">
      <path clip-path="url(#p9126f310fd)" d="
M41.3774 12.1988
L487.777 12.1988" style="fill:none;stroke:#000000;stroke-dasharray:1.000000,3.000000;stroke-dashoffset:0.0;stroke-width:0.5;"/>
     </g>
     <g id="line2d_90">
      <g>
       <use style="stroke:#000000;stroke-width:0.5;" x="41.377425" xlink:href="#m728421d6d4" y="12.1987809375"/>
      </g>
     </g>
     <g id="line2d_91">
      <g>
       <use style="stroke:#000000;stroke-width:0.5;" x="487.777425" xlink:href="#mcb0005524f" y="12.1987809375"/>
      </g>
     </g>
     <g id="text_17">
      <!-- 180 -->
      <g transform="translate(22.197561875 14.795398125)scale(0.09996 -0.09996)">
       <use xlink:href="#WenQuanYiMicroHei-31"/>
       <use x="55.078125" xlink:href="#WenQuanYiMicroHei-38"/>
       <use x="110.15625" xlink:href="#WenQuanYiMicroHei-30"/>
      </g>
     </g>
    </g>
    <g id="text_18">
     <!--  -->
     <defs>
      <path d="
M33.9844 39.4531
L35.1562 32.4219
Q30.4688 29.6875 25 27.3438
L25 1.5625
Q25 -4.29688 23.2344 -6.64062
Q21.4844 -8.98438 16.7969 -8.98438
Q12.5 -8.98438 8.20312 -7.8125
L6.64062 0.390625
Q10.9375 -1.17188 15.625 -1.17188
Q17.1875 -1.17188 17.1875 3.51562
L17.1875 23.8281
Q12.5 22.2656 7.8125 20.3125
L4.6875 28.5156
Q11.3281 30.4688 17.1875 32.8125
L17.1875 57.0312
L6.25 57.0312
L6.25 64.4531
L17.1875 64.4531
L17.1875 80.8594
L25 80.8594
L25 64.4531
L35.5469 64.4531
L35.5469 57.0312
L25 57.0312
L25 35.5469
z

M40.625 78.9062
L85.9375 78.9062
L85.9375 42.9688
L40.625 42.9688
z

M48.0469 64.4531
L78.5156 64.4531
L78.5156 71.875
L48.0469 71.875
z

M48.0469 50
L78.5156 50
L78.5156 57.4219
L48.0469 57.4219
z

M42.1875 26.9531
L49.2188 25.3906
Q48.4375 18.75 46.0938 12.8906
Q51.1719 5.85938 60.1562 2.73438
L60.1562 29.2969
L33.9844 29.2969
L33.9844 36.3281
L91.0156 36.3281
L91.0156 29.2969
L67.5781 29.2969
L67.5781 18.75
L85.9375 18.75
L85.9375 11.7188
L67.5781 11.7188
L67.5781 1.17188
Q74.6094 0 84.375 0
L94.1406 0
L91.7969 -7.8125
L84.375 -7.8125
Q66.7969 -7.8125 57.8125 -4.48438
Q48.8281 -1.17188 42.9688 5.46875
Q39.0625 -2.73438 33.2031 -8.98438
L27.3438 -3.51562
Q40.2344 10.1562 42.1875 26.9531" id="WenQuanYiMicroHei-63d0"/>
      <path d="
M7.03125 67.9688
L45.3125 67.9688
Q43.3594 73.8281 40.2344 78.5156
L48.4375 81.25
Q51.9531 75 54.2969 67.9688
L92.5781 67.9688
L92.5781 60.5469
L7.03125 60.5469
z

M31.6406 57.8125
L37.8906 52.7344
Q27.7344 40.2344 11.7188 32.4219
L7.03125 39.8438
Q20.7031 46.0938 31.6406 57.8125
M67.9688 57.0312
Q80.8594 49.2188 91.4062 39.0625
L85.5469 32.0312
Q74.6094 43.3594 62.5 51.5625
z

M66.7969 37.8906
L74.2188 34.7656
Q67.9688 22.6562 57.8125 13.6719
Q76.1719 3.125 95.7031 -1.17188
L91.0156 -9.375
Q66.0156 -1.95312 51.1719 8.20312
Q32.4219 -3.90625 8.59375 -9.76562
L4.6875 -1.95312
Q28.9062 3.125 43.75 13.2812
Q32.4219 21.875 23.8281 32.4219
L30.4688 37.5
Q38.6719 26.5625 50.3906 18.3594
Q60.1562 26.5625 66.7969 37.8906" id="WenQuanYiMicroHei-4ea4"/>
      <path d="
M14.0625 76.1719
Q23.4375 69.1406 31.25 59.375
L25.3906 52.3438
Q17.5781 62.8906 8.59375 70.3125
z

M25.3906 37.1094
L32.4219 32.4219
Q25.3906 12.5 13.2812 -6.25
L5.46875 -0.390625
Q17.9688 17.1875 25.3906 37.1094
M48.4375 81.6406
L55.8594 79.6875
Q54.2969 73.0469 51.9531 66.4062
L89.0625 66.4062
L89.0625 59.375
Q84.7656 50.3906 78.9062 41.4062
L72.2656 44.9219
Q76.9531 51.9531 80.0781 58.9844
L49.6094 58.9844
Q44.5312 46.875 37.8906 38.2812
L32.0312 44.5312
Q42.9688 60.1562 48.4375 81.6406
M57.4219 52.7344
L64.8438 51.5625
Q64.8438 43.75 63.6719 37.1094
Q68.75 22.6562 75.7812 13.6719
Q82.8125 4.6875 95.7031 -2.34375
L88.6719 -8.98438
Q69.1406 3.51562 60.9375 24.2188
Q55.0781 3.90625 32.0312 -8.98438
L26.1719 -2.73438
Q42.9688 6.64062 49.7969 18.3594
Q56.6406 30.0781 57.4219 52.7344" id="WenQuanYiMicroHei-6b21"/>
      <path d="
M66.7969 64.4531
L92.9688 64.4531
L92.9688 57.0312
L88.6719 57.0312
Q86.3281 29.6875 77.7344 15.625
Q84.7656 6.25 95.7031 -1.5625
L89.8438 -8.98438
Q80.8594 -1.5625 73.0469 8.59375
Q65.2344 -1.95312 53.9062 -9.375
L48.4375 -2.34375
Q60.1562 4.6875 67.9688 16.0156
Q62.5 25.3906 57.8125 37.1094
L54.6875 30.4688
L48.4375 35.1562
Q58.2031 55.8594 62.5 80.8594
L70.3125 78.5156
Q68.75 71.0938 66.7969 64.4531
M80.8594 57.0312
L64.8438 57.0312
Q64.4531 55.0781 62.1094 48.0469
Q66.7969 33.9844 72.6562 23.8281
Q77.7344 34.7656 80.0781 50.3906
L80.0781 50.7812
z

M7.03125 64.0625
L27.3438 64.0625
L27.3438 80.4688
L34.375 80.4688
L34.375 64.0625
L53.125 64.0625
L53.125 57.4219
L34.375 57.4219
L34.375 39.4531
L27.3438 39.4531
L27.3438 51.5625
Q20.7031 42.1875 11.7188 36.3281
L6.64062 42.5781
Q16.4062 47.6562 23.8281 57.4219
L7.03125 57.4219
z

M16.4062 78.9062
Q19.5312 74.2188 21.4844 68.3594
L15.2344 65.2344
Q13.2812 71.0938 10.5469 76.1719
z

M45.3125 78.9062
L51.1719 76.1719
Q47.6562 69.5312 43.75 66.0156
L38.6719 70.7031
Q42.5781 74.2188 45.3125 78.9062
M42.5781 53.9062
Q46.875 49.2188 49.6094 44.1406
L43.75 40.625
Q41.4062 46.0938 37.1094 50.7812
z

M6.64062 31.25
L21.875 31.25
Q23.4375 34.375 24.6094 37.5
L32.0312 36.7188
L29.6875 31.25
L47.2656 31.25
L47.2656 24.6094
Q42.5781 14.4531 35.9375 7.42188
Q42.5781 3.51562 48.0469 0
L43.3594 -7.03125
Q38.2812 -2.73438 30.0781 1.95312
Q21.875 -5.07812 8.20312 -9.375
L5.85938 -2.73438
Q16.0156 0.390625 23.4375 5.46875
Q17.1875 8.98438 9.76562 12.5
Q14.4531 18.75 17.9688 24.6094
L6.64062 24.6094
z

M26.1719 24.6094
Q23.4375 19.5312 20.3125 15.625
L29.6875 10.9375
Q35.5469 17.1875 39.0625 24.6094
z
" id="WenQuanYiMicroHei-6570"/>
     </defs>
     <g transform="translate(14.795398125 103.741741875)rotate(-90.0)scale(0.09996 -0.09996)">
      <use xlink:href="#WenQuanYiMicroHei-63d0"/>
      <use x="100.0" xlink:href="#WenQuanYiMicroHei-4ea4"/>
      <use x="200.0" xlink:href="#WenQuanYiMicroHei-6b21"/>
      <use x="300.0" xlink:href="#WenQuanYiMicroHei-6570"/>
     </g>
    </g>
   </g>
  </g>
 </g>
 <defs>
  <clipPath id="p9126f310fd">
   <rect height="144.0" width="446.4" x="41.377425" y="12.1987809375"/>
  </clipPath>
 </defs>
</svg>
