<?xml version="1.0" encoding="utf-8" standalone="no"?>
<!DOCTYPE svg PUBLIC "-//W3C//DTD SVG 1.1//EN"
  "http://www.w3.org/Graphics/SVG/1.1/DTD/svg11.dtd">
<!-- Created with matplotlib (http://matplotlib.org/) -->
<svg height="206pt" version="1.1" viewBox="0 0 400 206" width="400pt" xmlns="http://www.w3.org/2000/svg" xmlns:xlink="http://www.w3.org/1999/xlink">
 <defs>
  <style type="text/css">
*{stroke-linecap:butt;stroke-linejoin:round;}
  </style>
 </defs>
 <g id="figure_1">
  <g id="patch_1">
   <path d="
M4.44089e-16 206.196
L400.19 206.196
L400.19 0
L4.44089e-16 0
z
" style="fill:#ffffff;"/>
  </g>
  <g id="axes_1">
   <g id="patch_2">
    <path d="
M50.2223 184.999
L385.022 184.999
L385.022 12.1988
L50.2223 12.1988
z
" style="fill:#ffffff;"/>
   </g>
   <g id="patch_3">
    <path clip-path="url(#pd589d050f4)" d="
M54.9521 184.999
L54.9521 58.4055
L70.089 58.4055
L70.089 -1
M100.363 -1
L100.363 76.7523
L115.5 76.7523
L115.5 120.785
L130.637 120.785
L130.637 150.14
L145.773 150.14
L145.773 164.817
L160.91 164.817
L160.91 173.991
L176.047 173.991
L176.047 183.164
L191.184 183.164
L191.184 183.164
L206.321 183.164
L206.321 183.164
L221.458 183.164
L221.458 183.164
L236.595 183.164
L236.595 184.999
L251.732 184.999
L251.732 184.999
L266.869 184.999
L266.869 184.999
L282.005 184.999
L282.005 184.999
L297.142 184.999
L297.142 184.999
L312.279 184.999
L312.279 184.999
L327.416 184.999
L327.416 184.999
L342.553 184.999
L342.553 184.999
L357.69 184.999
L357.69 184.999" style="fill:none;stroke:#348abd;stroke-linejoin:miter;stroke-width:2;"/>
   </g>
   <g id="patch_4">
    <path clip-path="url(#pd589d050f4)" d="
M54.9521 184.999
L54.9521 58.9862
L70.089 58.9862
L70.089 44.376
L85.2259 44.376
L85.2259 51.6811
L100.363 51.6811
L100.363 84.5539
L115.5 84.5539
L115.5 122.906
L130.637 122.906
L130.637 121.079
L145.773 121.079
L145.773 122.906
L160.91 122.906
L160.91 153.952
L176.047 153.952
L176.047 164.91
L191.184 164.91
L191.184 177.694
L206.321 177.694
L206.321 172.215
L221.458 172.215
L221.458 170.389
L236.595 170.389
L236.595 175.867
L251.732 175.867
L251.732 183.173
L266.869 183.173
L266.869 184.999
L282.005 184.999
L282.005 179.52
L297.142 179.52
L297.142 183.173
L312.279 183.173
L312.279 181.346
L327.416 181.346
L327.416 184.999
L342.553 184.999
L342.553 184.999
L357.69 184.999
L357.69 184.999" style="fill:none;stroke:#a60628;stroke-linejoin:miter;stroke-width:2;"/>
   </g>
   <g id="patch_5">
    <path clip-path="url(#pd589d050f4)" d="
M54.9521 184.999
L54.9521 135.689
L70.089 135.689
L70.089 46.2023
L85.2259 46.2023
L85.2259 18.8082
L100.363 18.8082
L100.363 26.1133
L115.5 26.1133
L115.5 100.99
L130.637 100.99
L130.637 115.601
L145.773 115.601
L145.773 133.863
L160.91 133.863
L160.91 163.084
L176.047 163.084
L176.047 166.736
L191.184 166.736
L191.184 174.041
L206.321 174.041
L206.321 175.867
L221.458 175.867
L221.458 179.52
L236.595 179.52
L236.595 183.173
L251.732 183.173
L251.732 183.173
L266.869 183.173
L266.869 183.173
L282.005 183.173
L282.005 183.173
L297.142 183.173
L297.142 183.173
L312.279 183.173
L312.279 183.173
L327.416 183.173
L327.416 184.999
L342.553 184.999
L342.553 183.173
L357.69 183.173
L357.69 184.999" style="fill:none;stroke:#7a68a6;stroke-linejoin:miter;stroke-width:2;"/>
   </g>
   <g id="patch_6">
    <path d="
M50.2223 12.1988
L385.022 12.1988" style="fill:none;stroke:#000000;stroke-linecap:square;stroke-linejoin:miter;"/>
   </g>
   <g id="patch_7">
    <path d="
M385.022 184.999
L385.022 12.1988" style="fill:none;stroke:#000000;stroke-linecap:square;stroke-linejoin:miter;"/>
   </g>
   <g id="patch_8">
    <path d="
M50.2223 184.999
L385.022 184.999" style="fill:none;stroke:#000000;stroke-linecap:square;stroke-linejoin:miter;"/>
   </g>
   <g id="patch_9">
    <path d="
M50.2223 184.999
L50.2223 12.1988" style="fill:none;stroke:#000000;stroke-linecap:square;stroke-linejoin:miter;"/>
   </g>
   <g id="matplotlib.axis_1">
    <g id="xtick_1">
     <g id="line2d_1">
      <path clip-path="url(#pd589d050f4)" d="
M50.2223 184.999
L50.2223 12.1988" style="fill:none;stroke:#000000;stroke-dasharray:1.000000,3.000000;stroke-dashoffset:0.0;stroke-width:0.5;"/>
     </g>
     <g id="line2d_2">
      <defs>
       <path d="
M0 0
L0 -4" id="m93b0483c22" style="stroke:#000000;stroke-width:0.5;"/>
      </defs>
      <g>
       <use style="stroke:#000000;stroke-width:0.5;" x="50.222323125" xlink:href="#m93b0483c22" y="184.998780938"/>
      </g>
     </g>
     <g id="line2d_3">
      <defs>
       <path d="
M0 0
L0 4" id="m741efc42ff" style="stroke:#000000;stroke-width:0.5;"/>
      </defs>
      <g>
       <use style="stroke:#000000;stroke-width:0.5;" x="50.222323125" xlink:href="#m741efc42ff" y="12.1987809375"/>
      </g>
     </g>
     <g id="text_1">
      <!-- 0 -->
      <defs>
       <path d="
M50.3906 35.7969
Q50.3906 27.1562 49.1406 20.3125
Q47.9062 13.4844 45.1406 8.73438
Q42.3906 4 38.0312 1.5
Q33.6875 -0.984375 27.4844 -0.984375
Q21.7344 -0.984375 17.4531 1.5
Q13.1875 4 10.375 8.73438
Q7.5625 13.4844 6.17188 20.3125
Q4.78125 27.1562 4.78125 35.7969
Q4.78125 44.4375 6.03125 51.2656
Q7.28125 58.1094 9.98438 62.8125
Q12.7031 67.5312 17.0156 70.0156
Q21.3438 72.5156 27.4844 72.5156
Q33.2969 72.5156 37.5938 70.0469
Q41.8906 67.5781 44.7188 62.8594
Q47.5625 58.1562 48.9688 51.3125
Q50.3906 44.4844 50.3906 35.7969
M13.8125 35.7969
Q13.8125 28.4688 14.5469 23
Q15.2812 17.5312 16.8906 13.8906
Q18.5 10.25 21.1094 8.42188
Q23.7344 6.59375 27.4844 6.59375
Q31.25 6.59375 33.8906 8.39062
Q36.5312 10.2031 38.2031 13.8125
Q39.8906 17.4375 40.6406 22.9219
Q41.4062 28.4219 41.4062 35.7969
Q41.4062 43.1094 40.6406 48.5781
Q39.8906 54.0469 38.2031 57.6562
Q36.5312 61.2812 33.8906 63.0781
Q31.25 64.8906 27.4844 64.8906
Q23.7344 64.8906 21.1094 63.0781
Q18.5 61.2812 16.8906 57.6562
Q15.2812 54.0469 14.5469 48.5781
Q13.8125 43.1094 13.8125 35.7969" id="WenQuanYiMicroHei-30"/>
      </defs>
      <g transform="translate(47.9427665625 196.594179063)scale(0.09996 -0.09996)">
       <use xlink:href="#WenQuanYiMicroHei-30"/>
      </g>
     </g>
    </g>
    <g id="xtick_2">
     <g id="line2d_4">
      <path clip-path="url(#pd589d050f4)" d="
M92.0723 184.999
L92.0723 12.1988" style="fill:none;stroke:#000000;stroke-dasharray:1.000000,3.000000;stroke-dashoffset:0.0;stroke-width:0.5;"/>
     </g>
     <g id="line2d_5">
      <g>
       <use style="stroke:#000000;stroke-width:0.5;" x="92.072323125" xlink:href="#m93b0483c22" y="184.998780938"/>
      </g>
     </g>
     <g id="line2d_6">
      <g>
       <use style="stroke:#000000;stroke-width:0.5;" x="92.072323125" xlink:href="#m741efc42ff" y="12.1987809375"/>
      </g>
     </g>
     <g id="text_2">
      <!-- 50 -->
      <defs>
       <path d="
M26.6094 43.7969
Q31.4531 43.7969 35.625 42.4531
Q39.7969 41.1094 42.8906 38.4688
Q46 35.8438 47.75 31.9375
Q49.5156 28.0312 49.5156 22.9062
Q49.5156 17.3281 47.8438 12.8906
Q46.1875 8.45312 42.9219 5.375
Q39.6562 2.29688 34.8438 0.65625
Q30.0312 -0.984375 23.7812 -0.984375
Q21.2969 -0.984375 18.875 -0.734375
Q16.4531 -0.484375 14.2344 -0.015625
Q12.0156 0.4375 10.0156 1.17188
Q8.01562 1.90625 6.39062 2.875
L6.39062 11.2812
Q8.01562 10.1562 10.1875 9.28125
Q12.3594 8.40625 14.75 7.8125
Q17.1406 7.23438 19.5469 6.90625
Q21.9688 6.59375 24.0312 6.59375
Q27.875 6.59375 30.9062 7.5
Q33.9375 8.40625 36.0312 10.2969
Q38.1406 12.2031 39.25 15.0781
Q40.375 17.9688 40.375 21.9219
Q40.375 28.9062 36.0781 32.5938
Q31.7812 36.2812 23.5781 36.2812
Q22.2656 36.2812 20.7188 36.1562
Q19.1875 36.0312 17.6406 35.8281
Q16.1094 35.6406 14.7188 35.4219
Q13.3281 35.2031 12.3125 35.0156
L7.90625 37.7969
L10.5938 71.3906
L44.2812 71.3906
L44.2812 63.2812
L18.3125 63.2812
L16.4062 42.8281
Q17.9688 43.1094 20.5312 43.4531
Q23.0938 43.7969 26.6094 43.7969" id="WenQuanYiMicroHei-35"/>
      </defs>
      <g transform="translate(87.1203984375 196.594179063)scale(0.09996 -0.09996)">
       <use xlink:href="#WenQuanYiMicroHei-35"/>
       <use x="55.078125" xlink:href="#WenQuanYiMicroHei-30"/>
      </g>
     </g>
    </g>
    <g id="xtick_3">
     <g id="line2d_7">
      <path clip-path="url(#pd589d050f4)" d="
M133.922 184.999
L133.922 12.1988" style="fill:none;stroke:#000000;stroke-dasharray:1.000000,3.000000;stroke-dashoffset:0.0;stroke-width:0.5;"/>
     </g>
     <g id="line2d_8">
      <g>
       <use style="stroke:#000000;stroke-width:0.5;" x="133.922323125" xlink:href="#m93b0483c22" y="184.998780938"/>
      </g>
     </g>
     <g id="line2d_9">
      <g>
       <use style="stroke:#000000;stroke-width:0.5;" x="133.922323125" xlink:href="#m741efc42ff" y="12.1987809375"/>
      </g>
     </g>
     <g id="text_3">
      <!-- 100 -->
      <defs>
       <path d="
M34.7188 0
L26.125 0
L26.125 44.5781
Q26.125 46.6875 26.1406 49.0781
Q26.1719 51.4688 26.2344 53.8281
Q26.3125 56.2031 26.3906 58.375
Q26.4688 60.5469 26.5156 62.2031
Q25.6875 61.3281 25.0469 60.6875
Q24.4219 60.0625 23.75 59.4688
Q23.0938 58.8906 22.3594 58.2188
Q21.625 57.5625 20.6094 56.6875
L13.375 50.7812
L8.6875 56.7812
L27.3906 71.3906
L34.7188 71.3906
z
" id="WenQuanYiMicroHei-31"/>
      </defs>
      <g transform="translate(126.332391562 196.594179063)scale(0.09996 -0.09996)">
       <use xlink:href="#WenQuanYiMicroHei-31"/>
       <use x="55.078125" xlink:href="#WenQuanYiMicroHei-30"/>
       <use x="110.15625" xlink:href="#WenQuanYiMicroHei-30"/>
      </g>
     </g>
    </g>
    <g id="xtick_4">
     <g id="line2d_10">
      <path clip-path="url(#pd589d050f4)" d="
M175.772 184.999
L175.772 12.1988" style="fill:none;stroke:#000000;stroke-dasharray:1.000000,3.000000;stroke-dashoffset:0.0;stroke-width:0.5;"/>
     </g>
     <g id="line2d_11">
      <g>
       <use style="stroke:#000000;stroke-width:0.5;" x="175.772323125" xlink:href="#m93b0483c22" y="184.998780938"/>
      </g>
     </g>
     <g id="line2d_12">
      <g>
       <use style="stroke:#000000;stroke-width:0.5;" x="175.772323125" xlink:href="#m741efc42ff" y="12.1987809375"/>
      </g>
     </g>
     <g id="text_4">
      <!-- 150 -->
      <g transform="translate(168.182391563 196.594179063)scale(0.09996 -0.09996)">
       <use xlink:href="#WenQuanYiMicroHei-31"/>
       <use x="55.078125" xlink:href="#WenQuanYiMicroHei-35"/>
       <use x="110.15625" xlink:href="#WenQuanYiMicroHei-30"/>
      </g>
     </g>
    </g>
    <g id="xtick_5">
     <g id="line2d_13">
      <path clip-path="url(#pd589d050f4)" d="
M217.622 184.999
L217.622 12.1988" style="fill:none;stroke:#000000;stroke-dasharray:1.000000,3.000000;stroke-dashoffset:0.0;stroke-width:0.5;"/>
     </g>
     <g id="line2d_14">
      <g>
       <use style="stroke:#000000;stroke-width:0.5;" x="217.622323125" xlink:href="#m93b0483c22" y="184.998780938"/>
      </g>
     </g>
     <g id="line2d_15">
      <g>
       <use style="stroke:#000000;stroke-width:0.5;" x="217.622323125" xlink:href="#m741efc42ff" y="12.1987809375"/>
      </g>
     </g>
     <g id="text_5">
      <!-- 200 -->
      <defs>
       <path d="
M49.2188 0
L4.6875 0
L4.6875 7.625
L21.7812 26.2188
Q25.4375 30.1719 28.3125 33.4375
Q31.2031 36.7188 33.2188 39.8438
Q35.25 42.9688 36.3281 46.1094
Q37.4062 49.2656 37.4062 52.9844
Q37.4062 55.8594 36.5781 58.0469
Q35.75 60.25 34.2031 61.7812
Q32.6719 63.3281 30.5625 64.1094
Q28.4688 64.8906 25.875 64.8906
Q21.2344 64.8906 17.5 63.0156
Q13.7656 61.1406 10.4062 58.2031
L5.42188 64.0156
Q7.375 65.7656 9.60938 67.2969
Q11.8594 68.8438 14.4531 69.9688
Q17.0469 71.0938 19.9219 71.75
Q22.7969 72.4062 25.9844 72.4062
Q30.6719 72.4062 34.4531 71.0938
Q38.2344 69.7812 40.8594 67.3125
Q43.5 64.8438 44.9375 61.2969
Q46.3906 57.7656 46.3906 53.3281
Q46.3906 49.1719 45.0938 45.4062
Q43.7969 41.6562 41.5312 38.0156
Q39.2656 34.375 36.1094 30.7031
Q32.9531 27.0469 29.2969 23.0938
L15.5781 8.5
L15.5781 8.10938
L49.2188 8.10938
z
" id="WenQuanYiMicroHei-32"/>
      </defs>
      <g transform="translate(209.832471563 196.594179063)scale(0.09996 -0.09996)">
       <use xlink:href="#WenQuanYiMicroHei-32"/>
       <use x="55.078125" xlink:href="#WenQuanYiMicroHei-30"/>
       <use x="110.15625" xlink:href="#WenQuanYiMicroHei-30"/>
      </g>
     </g>
    </g>
    <g id="xtick_6">
     <g id="line2d_16">
      <path clip-path="url(#pd589d050f4)" d="
M259.472 184.999
L259.472 12.1988" style="fill:none;stroke:#000000;stroke-dasharray:1.000000,3.000000;stroke-dashoffset:0.0;stroke-width:0.5;"/>
     </g>
     <g id="line2d_17">
      <g>
       <use style="stroke:#000000;stroke-width:0.5;" x="259.472323125" xlink:href="#m93b0483c22" y="184.998780938"/>
      </g>
     </g>
     <g id="line2d_18">
      <g>
       <use style="stroke:#000000;stroke-width:0.5;" x="259.472323125" xlink:href="#m741efc42ff" y="12.1987809375"/>
      </g>
     </g>
     <g id="text_6">
      <!-- 250 -->
      <g transform="translate(251.682471563 196.594179063)scale(0.09996 -0.09996)">
       <use xlink:href="#WenQuanYiMicroHei-32"/>
       <use x="55.078125" xlink:href="#WenQuanYiMicroHei-35"/>
       <use x="110.15625" xlink:href="#WenQuanYiMicroHei-30"/>
      </g>
     </g>
    </g>
    <g id="xtick_7">
     <g id="line2d_19">
      <path clip-path="url(#pd589d050f4)" d="
M301.322 184.999
L301.322 12.1988" style="fill:none;stroke:#000000;stroke-dasharray:1.000000,3.000000;stroke-dashoffset:0.0;stroke-width:0.5;"/>
     </g>
     <g id="line2d_20">
      <g>
       <use style="stroke:#000000;stroke-width:0.5;" x="301.322323125" xlink:href="#m93b0483c22" y="184.998780938"/>
      </g>
     </g>
     <g id="line2d_21">
      <g>
       <use style="stroke:#000000;stroke-width:0.5;" x="301.322323125" xlink:href="#m741efc42ff" y="12.1987809375"/>
      </g>
     </g>
     <g id="text_7">
      <!-- 300 -->
      <defs>
       <path d="
M46.9219 54.6875
Q46.9219 51.125 45.7969 48.1875
Q44.6719 45.2656 42.6406 43.1094
Q40.625 40.9688 37.7969 39.5781
Q34.9688 38.1875 31.5 37.5938
L31.5 37.3125
Q40.1406 36.2344 44.625 31.8125
Q49.125 27.3906 49.125 20.3125
Q49.125 15.625 47.5312 11.7188
Q45.9531 7.8125 42.7188 4.98438
Q39.5 2.15625 34.5625 0.578125
Q29.6406 -0.984375 22.9062 -0.984375
Q17.5781 -0.984375 12.8594 -0.140625
Q8.15625 0.6875 4 2.875
L4 11.1875
Q8.25 8.9375 13.2031 7.71875
Q18.1719 6.5 22.7031 6.5
Q27.2031 6.5 30.4688 7.46875
Q33.7344 8.45312 35.8594 10.25
Q37.9844 12.0625 38.9844 14.6875
Q39.9844 17.3281 39.9844 20.6094
Q39.9844 23.9219 38.6875 26.2812
Q37.4062 28.6562 35.0156 30.1875
Q32.625 31.7344 29.1719 32.4688
Q25.7344 33.2031 21.3906 33.2031
L14.8906 33.2031
L14.8906 40.5781
L21.3906 40.5781
Q25.3438 40.5781 28.4219 41.5469
Q31.5 42.5312 33.5625 44.3281
Q35.6406 46.1406 36.7188 48.625
Q37.7969 51.125 37.7969 54.1094
Q37.7969 56.6406 36.9062 58.6406
Q36.0312 60.6406 34.4219 62.0312
Q32.8125 63.4219 30.5625 64.1562
Q28.3281 64.8906 25.5938 64.8906
Q20.3594 64.8906 16.375 63.25
Q12.4062 61.625 8.79688 58.9844
L4.29688 65.0938
Q6.15625 66.6094 8.42188 67.9219
Q10.6875 69.2344 13.375 70.2344
Q16.0625 71.2344 19.1094 71.8125
Q22.1719 72.4062 25.5938 72.4062
Q30.8594 72.4062 34.8281 71.0938
Q38.8125 69.7812 41.5 67.4062
Q44.1875 65.0469 45.5469 61.7969
Q46.9219 58.5469 46.9219 54.6875" id="WenQuanYiMicroHei-33"/>
      </defs>
      <g transform="translate(293.498110313 196.594179063)scale(0.09996 -0.09996)">
       <use xlink:href="#WenQuanYiMicroHei-33"/>
       <use x="55.078125" xlink:href="#WenQuanYiMicroHei-30"/>
       <use x="110.15625" xlink:href="#WenQuanYiMicroHei-30"/>
      </g>
     </g>
    </g>
    <g id="xtick_8">
     <g id="line2d_22">
      <path clip-path="url(#pd589d050f4)" d="
M343.172 184.999
L343.172 12.1988" style="fill:none;stroke:#000000;stroke-dasharray:1.000000,3.000000;stroke-dashoffset:0.0;stroke-width:0.5;"/>
     </g>
     <g id="line2d_23">
      <g>
       <use style="stroke:#000000;stroke-width:0.5;" x="343.172323125" xlink:href="#m93b0483c22" y="184.998780938"/>
      </g>
     </g>
     <g id="line2d_24">
      <g>
       <use style="stroke:#000000;stroke-width:0.5;" x="343.172323125" xlink:href="#m741efc42ff" y="12.1987809375"/>
      </g>
     </g>
     <g id="text_8">
      <!-- 350 -->
      <g transform="translate(335.348110313 196.594179063)scale(0.09996 -0.09996)">
       <use xlink:href="#WenQuanYiMicroHei-33"/>
       <use x="55.078125" xlink:href="#WenQuanYiMicroHei-35"/>
       <use x="110.15625" xlink:href="#WenQuanYiMicroHei-30"/>
      </g>
     </g>
    </g>
    <g id="xtick_9">
     <g id="line2d_25">
      <path clip-path="url(#pd589d050f4)" d="
M385.022 184.999
L385.022 12.1988" style="fill:none;stroke:#000000;stroke-dasharray:1.000000,3.000000;stroke-dashoffset:0.0;stroke-width:0.5;"/>
     </g>
     <g id="line2d_26">
      <g>
       <use style="stroke:#000000;stroke-width:0.5;" x="385.022323125" xlink:href="#m93b0483c22" y="184.998780938"/>
      </g>
     </g>
     <g id="line2d_27">
      <g>
       <use style="stroke:#000000;stroke-width:0.5;" x="385.022323125" xlink:href="#m741efc42ff" y="12.1987809375"/>
      </g>
     </g>
     <g id="text_9">
      <!-- 400 -->
      <defs>
       <path d="
M53.0781 16.0156
L42.6719 16.0156
L42.6719 0
L34.0781 0
L34.0781 16.0156
L1.125 16.0156
L1.125 23.7812
L33.5 71.7812
L42.6719 71.7812
L42.6719 24.125
L53.0781 24.125
z

M34.0781 24.125
L34.0781 41.5
Q34.0781 44.2344 34.1562 47.2344
Q34.2344 50.25 34.3281 53.0938
Q34.4219 55.9531 34.5469 58.4375
Q34.6719 60.9375 34.7188 62.5938
L34.2812 62.5938
Q33.9375 61.625 33.4219 60.4219
Q32.9062 59.2344 32.2969 58.0312
Q31.6875 56.8438 31.0469 55.7188
Q30.4219 54.5938 29.8906 53.8125
L9.8125 24.125
z
" id="WenQuanYiMicroHei-34"/>
      </defs>
      <g transform="translate(377.054417812 196.594179063)scale(0.09996 -0.09996)">
       <use xlink:href="#WenQuanYiMicroHei-34"/>
       <use x="55.078125" xlink:href="#WenQuanYiMicroHei-30"/>
       <use x="110.15625" xlink:href="#WenQuanYiMicroHei-30"/>
      </g>
     </g>
    </g>
   </g>
   <g id="matplotlib.axis_2">
    <g id="ytick_1">
     <g id="line2d_28">
      <path clip-path="url(#pd589d050f4)" d="
M50.2223 184.999
L385.022 184.999" style="fill:none;stroke:#000000;stroke-dasharray:1.000000,3.000000;stroke-dashoffset:0.0;stroke-width:0.5;"/>
     </g>
     <g id="line2d_29">
      <defs>
       <path d="
M0 0
L4 0" id="m728421d6d4" style="stroke:#000000;stroke-width:0.5;"/>
      </defs>
      <g>
       <use style="stroke:#000000;stroke-width:0.5;" x="50.222323125" xlink:href="#m728421d6d4" y="184.998780938"/>
      </g>
     </g>
     <g id="line2d_30">
      <defs>
       <path d="
M0 0
L-4 0" id="mcb0005524f" style="stroke:#000000;stroke-width:0.5;"/>
      </defs>
      <g>
       <use style="stroke:#000000;stroke-width:0.5;" x="385.022323125" xlink:href="#mcb0005524f" y="184.998780938"/>
      </g>
     </g>
     <g id="text_10">
      <!-- 0.000 -->
      <defs>
       <path d="
M7.17188 5.42188
Q7.17188 7.28125 7.65625 8.5625
Q8.15625 9.85938 8.98438 10.6562
Q9.8125 11.4688 10.9375 11.8281
Q12.0625 12.2031 13.375 12.2031
Q14.6562 12.2031 15.7969 11.8281
Q16.9375 11.4688 17.7656 10.6562
Q18.6094 9.85938 19.0938 8.5625
Q19.5781 7.28125 19.5781 5.42188
Q19.5781 3.60938 19.0938 2.3125
Q18.6094 1.03125 17.7656 0.1875
Q16.9375 -0.640625 15.7969 -1.03125
Q14.6562 -1.42188 13.375 -1.42188
Q12.0625 -1.42188 10.9375 -1.03125
Q9.8125 -0.640625 8.98438 0.1875
Q8.15625 1.03125 7.65625 2.3125
Q7.17188 3.60938 7.17188 5.42188" id="WenQuanYiMicroHei-2e"/>
      </defs>
      <g transform="translate(22.466204375 187.595398125)scale(0.09996 -0.09996)">
       <use xlink:href="#WenQuanYiMicroHei-30"/>
       <use x="55.078125" xlink:href="#WenQuanYiMicroHei-2e"/>
       <use x="81.884765625" xlink:href="#WenQuanYiMicroHei-30"/>
       <use x="136.962890625" xlink:href="#WenQuanYiMicroHei-30"/>
       <use x="192.041015625" xlink:href="#WenQuanYiMicroHei-30"/>
      </g>
     </g>
    </g>
    <g id="ytick_2">
     <g id="line2d_31">
      <path clip-path="url(#pd589d050f4)" d="
M50.2223 156.199
L385.022 156.199" style="fill:none;stroke:#000000;stroke-dasharray:1.000000,3.000000;stroke-dashoffset:0.0;stroke-width:0.5;"/>
     </g>
     <g id="line2d_32">
      <g>
       <use style="stroke:#000000;stroke-width:0.5;" x="50.222323125" xlink:href="#m728421d6d4" y="156.198780938"/>
      </g>
     </g>
     <g id="line2d_33">
      <g>
       <use style="stroke:#000000;stroke-width:0.5;" x="385.022323125" xlink:href="#mcb0005524f" y="156.198780938"/>
      </g>
     </g>
     <g id="text_11">
      <!-- 0.002 -->
      <g transform="translate(22.583345 158.795398125)scale(0.09996 -0.09996)">
       <use xlink:href="#WenQuanYiMicroHei-30"/>
       <use x="55.078125" xlink:href="#WenQuanYiMicroHei-2e"/>
       <use x="81.884765625" xlink:href="#WenQuanYiMicroHei-30"/>
       <use x="136.962890625" xlink:href="#WenQuanYiMicroHei-30"/>
       <use x="192.041015625" xlink:href="#WenQuanYiMicroHei-32"/>
      </g>
     </g>
    </g>
    <g id="ytick_3">
     <g id="line2d_34">
      <path clip-path="url(#pd589d050f4)" d="
M50.2223 127.399
L385.022 127.399" style="fill:none;stroke:#000000;stroke-dasharray:1.000000,3.000000;stroke-dashoffset:0.0;stroke-width:0.5;"/>
     </g>
     <g id="line2d_35">
      <g>
       <use style="stroke:#000000;stroke-width:0.5;" x="50.222323125" xlink:href="#m728421d6d4" y="127.398780938"/>
      </g>
     </g>
     <g id="line2d_36">
      <g>
       <use style="stroke:#000000;stroke-width:0.5;" x="385.022323125" xlink:href="#mcb0005524f" y="127.398780938"/>
      </g>
     </g>
     <g id="text_12">
      <!-- 0.004 -->
      <g transform="translate(22.197561875 129.995398125)scale(0.09996 -0.09996)">
       <use xlink:href="#WenQuanYiMicroHei-30"/>
       <use x="55.078125" xlink:href="#WenQuanYiMicroHei-2e"/>
       <use x="81.884765625" xlink:href="#WenQuanYiMicroHei-30"/>
       <use x="136.962890625" xlink:href="#WenQuanYiMicroHei-30"/>
       <use x="192.041015625" xlink:href="#WenQuanYiMicroHei-34"/>
      </g>
     </g>
    </g>
    <g id="ytick_4">
     <g id="line2d_37">
      <path clip-path="url(#pd589d050f4)" d="
M50.2223 98.5988
L385.022 98.5988" style="fill:none;stroke:#000000;stroke-dasharray:1.000000,3.000000;stroke-dashoffset:0.0;stroke-width:0.5;"/>
     </g>
     <g id="line2d_38">
      <g>
       <use style="stroke:#000000;stroke-width:0.5;" x="50.222323125" xlink:href="#m728421d6d4" y="98.5987809375"/>
      </g>
     </g>
     <g id="line2d_39">
      <g>
       <use style="stroke:#000000;stroke-width:0.5;" x="385.022323125" xlink:href="#mcb0005524f" y="98.5987809375"/>
      </g>
     </g>
     <g id="text_13">
      <!-- 0.006 -->
      <defs>
       <path d="
M5.51562 30.5156
Q5.51562 35.6406 6.03125 40.7188
Q6.54688 45.7969 7.82812 50.4531
Q9.125 55.125 11.375 59.125
Q13.625 63.1406 17.0938 66.0938
Q20.5625 69.0469 25.3906 70.7188
Q30.2188 72.4062 36.7188 72.4062
Q37.6406 72.4062 38.7656 72.3594
Q39.8906 72.3125 41.0312 72.1875
Q42.1875 72.0781 43.2344 71.9062
Q44.2812 71.7344 45.125 71.4844
L45.125 63.9219
Q43.4062 64.5 41.25 64.7969
Q39.1094 65.0938 37.0156 65.0938
Q32.625 65.0938 29.2656 64.0312
Q25.9219 62.9844 23.4844 61.0781
Q21.0469 59.1875 19.4062 56.5469
Q17.7812 53.9062 16.75 50.7031
Q15.7188 47.5156 15.2344 43.8906
Q14.75 40.2812 14.5938 36.375
L15.1875 36.375
Q16.1562 38.1406 17.5469 39.6719
Q18.9531 41.2188 20.7969 42.3125
Q22.6562 43.4062 24.9688 44.0312
Q27.2969 44.6719 30.1719 44.6719
Q34.8125 44.6719 38.5625 43.2344
Q42.3281 41.7969 44.9688 39.0156
Q47.6094 36.2344 49.0469 32.2031
Q50.4844 28.1719 50.4844 23
Q50.4844 17.4375 48.9688 12.9844
Q47.4688 8.54688 44.625 5.4375
Q41.7969 2.34375 37.7969 0.671875
Q33.7969 -0.984375 28.8125 -0.984375
Q23.9219 -0.984375 19.6406 0.921875
Q15.375 2.82812 12.25 6.73438
Q9.125 10.6406 7.3125 16.5469
Q5.51562 22.4688 5.51562 30.5156
M28.7188 6.5
Q31.6406 6.5 34.0469 7.5
Q36.4688 8.5 38.2188 10.5156
Q39.9844 12.5469 40.9375 15.6406
Q41.8906 18.75 41.8906 23
Q41.8906 26.4219 41.0781 29.125
Q40.2812 31.8438 38.6719 33.7344
Q37.0625 35.6406 34.6406 36.6719
Q32.2344 37.7031 29 37.7031
Q25.7344 37.7031 23.0156 36.5469
Q20.3125 35.4062 18.4062 33.5625
Q16.5 31.7344 15.4531 29.3906
Q14.4062 27.0469 14.4062 24.7031
Q14.4062 21.4375 15.3125 18.1875
Q16.2188 14.9375 18 12.3438
Q19.7812 9.76562 22.4531 8.125
Q25.1406 6.5 28.7188 6.5" id="WenQuanYiMicroHei-36"/>
      </defs>
      <g transform="translate(22.456833125 101.195398125)scale(0.09996 -0.09996)">
       <use xlink:href="#WenQuanYiMicroHei-30"/>
       <use x="55.078125" xlink:href="#WenQuanYiMicroHei-2e"/>
       <use x="81.884765625" xlink:href="#WenQuanYiMicroHei-30"/>
       <use x="136.962890625" xlink:href="#WenQuanYiMicroHei-30"/>
       <use x="192.041015625" xlink:href="#WenQuanYiMicroHei-36"/>
      </g>
     </g>
    </g>
    <g id="ytick_5">
     <g id="line2d_40">
      <path clip-path="url(#pd589d050f4)" d="
M50.2223 69.7988
L385.022 69.7988" style="fill:none;stroke:#000000;stroke-dasharray:1.000000,3.000000;stroke-dashoffset:0.0;stroke-width:0.5;"/>
     </g>
     <g id="line2d_41">
      <g>
       <use style="stroke:#000000;stroke-width:0.5;" x="50.222323125" xlink:href="#m728421d6d4" y="69.7987809375"/>
      </g>
     </g>
     <g id="line2d_42">
      <g>
       <use style="stroke:#000000;stroke-width:0.5;" x="385.022323125" xlink:href="#mcb0005524f" y="69.7987809375"/>
      </g>
     </g>
     <g id="text_14">
      <!-- 0.008 -->
      <defs>
       <path d="
M27.5938 72.5156
Q31.6875 72.5156 35.3281 71.4375
Q38.9688 70.3594 41.7188 68.2031
Q44.4844 66.0625 46.0938 62.8438
Q47.7031 59.625 47.7031 55.3281
Q47.7031 52.0469 46.7188 49.4062
Q45.75 46.7812 44.0312 44.6562
Q42.3281 42.5312 39.9844 40.8438
Q37.6406 39.1562 34.9062 37.7969
Q37.75 36.2812 40.4531 34.4219
Q43.1719 32.5625 45.2812 30.25
Q47.4062 27.9375 48.7031 25.0469
Q50 22.1719 50 18.6094
Q50 14.1094 48.3594 10.4688
Q46.7344 6.84375 43.7812 4.29688
Q40.8281 1.76562 36.6875 0.390625
Q32.5625 -0.984375 27.5938 -0.984375
Q22.2188 -0.984375 18.0469 0.328125
Q13.875 1.65625 11.0156 4.125
Q8.15625 6.59375 6.65625 10.1562
Q5.17188 13.7188 5.17188 18.2188
Q5.17188 21.875 6.26562 24.7969
Q7.375 27.7344 9.21875 30.0781
Q11.0781 32.4219 13.6094 34.2188
Q16.1562 36.0312 19 37.4062
Q16.6094 38.9219 14.5 40.7031
Q12.4062 42.4844 10.8594 44.6719
Q9.32812 46.875 8.42188 49.5312
Q7.51562 52.2031 7.51562 55.4219
Q7.51562 59.6719 9.15625 62.8594
Q10.7969 66.0625 13.5781 68.2031
Q16.3594 70.3594 20 71.4375
Q23.6406 72.5156 27.5938 72.5156
M13.9219 18.1094
Q13.9219 15.5312 14.7031 13.3594
Q15.4844 11.1875 17.1406 9.64062
Q18.7969 8.10938 21.3281 7.25
Q23.875 6.39062 27.3906 6.39062
Q30.8125 6.39062 33.4219 7.25
Q36.0312 8.10938 37.7812 9.6875
Q39.5469 11.2812 40.4219 13.5156
Q41.3125 15.7656 41.3125 18.5
Q41.3125 21.0469 40.3594 23.0938
Q39.4062 25.1406 37.625 26.8906
Q35.8438 28.6562 33.3438 30.2188
Q30.8594 31.7812 27.7812 33.2969
L26.3125 33.9844
Q20.1719 31.0625 17.0469 27.2656
Q13.9219 23.4844 13.9219 18.1094
M27.4844 65.0938
Q22.3125 65.0938 19.2656 62.5
Q16.2188 59.9062 16.2188 54.9844
Q16.2188 52.2031 17.0625 50.1875
Q17.9219 48.1875 19.4375 46.625
Q20.9531 45.0625 23.0781 43.8125
Q25.2031 42.5781 27.6875 41.4062
Q30.0312 42.4844 32.1094 43.75
Q34.1875 45.0156 35.7188 46.625
Q37.25 48.25 38.125 50.2969
Q39.0156 52.3438 39.0156 54.9844
Q39.0156 59.9062 35.9375 62.5
Q32.8594 65.0938 27.4844 65.0938" id="WenQuanYiMicroHei-38"/>
      </defs>
      <g transform="translate(22.50525125 72.395398125)scale(0.09996 -0.09996)">
       <use xlink:href="#WenQuanYiMicroHei-30"/>
       <use x="55.078125" xlink:href="#WenQuanYiMicroHei-2e"/>
       <use x="81.884765625" xlink:href="#WenQuanYiMicroHei-30"/>
       <use x="136.962890625" xlink:href="#WenQuanYiMicroHei-30"/>
       <use x="192.041015625" xlink:href="#WenQuanYiMicroHei-38"/>
      </g>
     </g>
    </g>
    <g id="ytick_6">
     <g id="line2d_43">
      <path clip-path="url(#pd589d050f4)" d="
M50.2223 40.9988
L385.022 40.9988" style="fill:none;stroke:#000000;stroke-dasharray:1.000000,3.000000;stroke-dashoffset:0.0;stroke-width:0.5;"/>
     </g>
     <g id="line2d_44">
      <g>
       <use style="stroke:#000000;stroke-width:0.5;" x="50.222323125" xlink:href="#m728421d6d4" y="40.9987809375"/>
      </g>
     </g>
     <g id="line2d_45">
      <g>
       <use style="stroke:#000000;stroke-width:0.5;" x="385.022323125" xlink:href="#mcb0005524f" y="40.9987809375"/>
      </g>
     </g>
     <g id="text_15">
      <!-- 0.010 -->
      <g transform="translate(22.466204375 43.595398125)scale(0.09996 -0.09996)">
       <use xlink:href="#WenQuanYiMicroHei-30"/>
       <use x="55.078125" xlink:href="#WenQuanYiMicroHei-2e"/>
       <use x="81.884765625" xlink:href="#WenQuanYiMicroHei-30"/>
       <use x="136.962890625" xlink:href="#WenQuanYiMicroHei-31"/>
       <use x="192.041015625" xlink:href="#WenQuanYiMicroHei-30"/>
      </g>
     </g>
    </g>
    <g id="ytick_7">
     <g id="line2d_46">
      <path clip-path="url(#pd589d050f4)" d="
M50.2223 12.1988
L385.022 12.1988" style="fill:none;stroke:#000000;stroke-dasharray:1.000000,3.000000;stroke-dashoffset:0.0;stroke-width:0.5;"/>
     </g>
     <g id="line2d_47">
      <g>
       <use style="stroke:#000000;stroke-width:0.5;" x="50.222323125" xlink:href="#m728421d6d4" y="12.1987809375"/>
      </g>
     </g>
     <g id="line2d_48">
      <g>
       <use style="stroke:#000000;stroke-width:0.5;" x="385.022323125" xlink:href="#mcb0005524f" y="12.1987809375"/>
      </g>
     </g>
     <g id="text_16">
      <!-- 0.012 -->
      <g transform="translate(22.583345 14.795398125)scale(0.09996 -0.09996)">
       <use xlink:href="#WenQuanYiMicroHei-30"/>
       <use x="55.078125" xlink:href="#WenQuanYiMicroHei-2e"/>
       <use x="81.884765625" xlink:href="#WenQuanYiMicroHei-30"/>
       <use x="136.962890625" xlink:href="#WenQuanYiMicroHei-31"/>
       <use x="192.041015625" xlink:href="#WenQuanYiMicroHei-32"/>
      </g>
     </g>
    </g>
    <g id="text_17">
     <!-- Degree -->
     <defs>
      <path d="
M29.6875 -0.984375
Q24.3125 -0.984375 19.875 0.828125
Q15.4375 2.64062 12.2344 6.10938
Q9.03125 9.57812 7.26562 14.7031
Q5.51562 19.8281 5.51562 26.4219
Q5.51562 33.0625 7.125 38.2812
Q8.73438 43.5 11.6562 47.1406
Q14.5938 50.7812 18.6719 52.6875
Q22.75 54.5938 27.6875 54.5938
Q32.5156 54.5938 36.375 52.8594
Q40.2344 51.125 42.9219 47.9688
Q45.6094 44.8281 47.0469 40.4062
Q48.4844 35.9844 48.4844 30.6094
L48.4844 25.0938
L14.7031 25.0938
Q14.9375 15.6719 18.6719 11.2188
Q22.4062 6.78125 29.7812 6.78125
Q32.2812 6.78125 34.4062 7.03125
Q36.5312 7.28125 38.5 7.73438
Q40.4844 8.20312 42.3281 8.90625
Q44.1875 9.625 46.0938 10.5
L46.0938 2.59375
Q44.1406 1.65625 42.25 0.96875
Q40.375 0.296875 38.3906 -0.140625
Q36.4219 -0.59375 34.2969 -0.78125
Q32.1719 -0.984375 29.6875 -0.984375
M27.4844 47.2188
Q21.9219 47.2188 18.6719 43.4062
Q15.4375 39.5938 14.8906 32.3281
L38.9219 32.3281
Q38.9219 35.6406 38.25 38.3906
Q37.5938 41.1562 36.2031 43.1094
Q34.8125 45.0625 32.6562 46.1406
Q30.5156 47.2188 27.4844 47.2188" id="WenQuanYiMicroHei-65"/>
      <path d="
M49.8125 53.6094
L49.8125 48.0938
L40.1875 46.7812
Q41.5469 45.0625 42.4688 42.4062
Q43.4062 39.75 43.4062 36.375
Q43.4062 32.6719 42.25 29.5156
Q41.1094 26.375 38.7812 24.0781
Q36.4688 21.7812 33.0469 20.4844
Q29.6406 19.1875 25.0938 19.1875
Q24.0312 19.1875 22.9531 19.2031
Q21.875 19.2344 21.1875 19.3906
Q20.3594 18.8906 19.5469 18.2812
Q18.75 17.6719 18.0938 16.8906
Q17.4375 16.1094 17.0156 15.125
Q16.6094 14.1562 16.6094 12.9844
Q16.6094 11.6719 17.1875 10.8594
Q17.7812 10.0625 18.7812 9.625
Q19.7812 9.1875 21.1406 9.03125
Q22.5156 8.89062 24.0312 8.89062
L32.625 8.89062
Q37.1562 8.89062 40.2812 7.73438
Q43.4062 6.59375 45.375 4.64062
Q47.3594 2.6875 48.2344 0.015625
Q49.125 -2.64062 49.125 -5.60938
Q49.125 -9.90625 47.5312 -13.3281
Q45.9531 -16.75 42.6719 -19.1094
Q39.4062 -21.4844 34.3906 -22.75
Q29.3906 -24.0312 22.6094 -24.0312
Q17.3906 -24.0312 13.4844 -23
Q9.57812 -21.9688 6.98438 -20.0156
Q4.39062 -18.0625 3.09375 -15.2969
Q1.8125 -12.5469 1.8125 -9.07812
Q1.8125 -6.15625 2.76562 -3.92188
Q3.71875 -1.70312 5.32812 -0.09375
Q6.9375 1.51562 9.0625 2.53125
Q11.1875 3.5625 13.4844 4.10938
Q11.4219 5.03125 10.1094 7.03125
Q8.79688 9.03125 8.79688 11.625
Q8.79688 14.5938 10.3594 16.7656
Q11.9219 18.9531 15.2812 21
Q13.1875 21.875 11.4531 23.4062
Q9.71875 24.9531 8.51562 26.9219
Q7.32812 28.9062 6.65625 31.25
Q6 33.5938 6 36.0781
Q6 40.4375 7.21875 43.8438
Q8.45312 47.2656 10.8438 49.6562
Q13.2344 52.0469 16.7969 53.3125
Q20.3594 54.5938 25.0938 54.5938
Q26.9062 54.5938 28.8281 54.3125
Q30.7656 54.0469 32.0781 53.6094
z

M10.2031 -8.79688
Q10.2031 -10.5938 10.8281 -12.1562
Q11.4688 -13.7188 12.9062 -14.8438
Q14.3594 -15.9688 16.7188 -16.625
Q19.0938 -17.2812 22.6094 -17.2812
Q31.6875 -17.2812 36.2031 -14.4688
Q40.7188 -11.6719 40.7188 -6.39062
Q40.7188 -4.15625 40.125 -2.73438
Q39.5469 -1.3125 38.2031 -0.5
Q36.8594 0.296875 34.6562 0.578125
Q32.4688 0.875 29.2969 0.875
L20.7031 0.875
Q19 0.875 17.1406 0.484375
Q15.2812 0.09375 13.7344 -0.96875
Q12.2031 -2.04688 11.2031 -3.92188
Q10.2031 -5.8125 10.2031 -8.79688
M14.7031 36.375
Q14.7031 30.7656 17.3281 28.0312
Q19.9688 25.2969 24.8125 25.2969
Q29.6875 25.2969 32.2031 28
Q34.7188 30.7188 34.7188 36.5312
Q34.7188 42.5312 32.1562 45.3594
Q29.5938 48.1875 24.7031 48.1875
Q19.875 48.1875 17.2812 45.25
Q14.7031 42.3281 14.7031 36.375" id="WenQuanYiMicroHei-67"/>
      <path d="
M31.6875 54.5938
Q33.1094 54.5938 34.8594 54.4688
Q36.625 54.3438 37.8906 54.1094
L36.7188 45.9062
Q35.3594 46.1406 33.9062 46.3125
Q32.4688 46.4844 31.2031 46.4844
Q28.125 46.4844 25.5781 45.2344
Q23.0469 44 21.2188 41.6719
Q19.3906 39.3594 18.3906 36.1094
Q17.3906 32.8594 17.3906 28.9062
L17.3906 0
L8.5 0
L8.5 53.6094
L15.7188 53.6094
L16.7969 43.7969
L17.1875 43.7969
Q18.4062 45.9062 19.7969 47.8594
Q21.1875 49.8125 22.9219 51.2969
Q24.6562 52.7812 26.7969 53.6875
Q28.9531 54.5938 31.6875 54.5938" id="WenQuanYiMicroHei-72"/>
      <path d="
M62.3125 36.375
Q62.3125 27.3438 59.9688 20.5312
Q57.625 13.7188 53.1719 9.15625
Q48.7344 4.59375 42.2656 2.29688
Q35.7969 0 27.5938 0
L9.71875 0
L9.71875 71.3906
L29.5938 71.3906
Q37.0625 71.3906 43.1094 69.1406
Q49.1719 66.8906 53.4219 62.4688
Q57.6719 58.0625 59.9844 51.5156
Q62.3125 44.9688 62.3125 36.375
M52.6875 36.0781
Q52.6875 43.2188 51.0781 48.4062
Q49.4688 53.6094 46.3906 56.9844
Q43.3125 60.3594 38.8125 61.9844
Q34.3281 63.625 28.6094 63.625
L18.7969 63.625
L18.7969 7.8125
L26.7031 7.8125
Q39.5938 7.8125 46.1406 14.9375
Q52.6875 22.0781 52.6875 36.0781" id="WenQuanYiMicroHei-44"/>
     </defs>
     <g transform="translate(14.795398125 113.887975312)rotate(-90.0)scale(0.09996 -0.09996)">
      <use xlink:href="#WenQuanYiMicroHei-44"/>
      <use x="68.408203125" xlink:href="#WenQuanYiMicroHei-65"/>
      <use x="121.923828125" xlink:href="#WenQuanYiMicroHei-67"/>
      <use x="173.73046875" xlink:href="#WenQuanYiMicroHei-72"/>
      <use x="213.623046875" xlink:href="#WenQuanYiMicroHei-65"/>
      <use x="267.138671875" xlink:href="#WenQuanYiMicroHei-65"/>
     </g>
    </g>
   </g>
   <g id="legend_1">
    <g id="patch_10">
     <path d="
M324.984 82.1821
L380.024 82.1821
L380.024 17.1968
L324.984 17.1968
z
" style="fill:#ffffff;stroke:#000000;stroke-linejoin:miter;"/>
    </g>
    <g id="text_18">
     <!-- City -->
     <defs>
      <path d="
M38.7188 64.4062
Q33.5 64.4062 29.25 62.4219
Q25 60.4531 22 56.7344
Q19 53.0312 17.3594 47.7031
Q15.7188 42.3906 15.7188 35.6875
Q15.7188 28.8125 17.1562 23.4531
Q18.6094 18.1094 21.4844 14.4531
Q24.3594 10.7969 28.6562 8.89062
Q32.9531 6.98438 38.7188 6.98438
Q43.0625 6.98438 46.9688 7.82812
Q50.875 8.6875 54.6875 9.8125
L54.6875 1.90625
Q52.7812 1.17188 50.875 0.609375
Q48.9688 0.046875 46.8906 -0.296875
Q44.8281 -0.640625 42.4531 -0.8125
Q40.0938 -0.984375 37.2031 -0.984375
Q29.2031 -0.984375 23.3438 1.65625
Q17.4844 4.29688 13.6406 9.125
Q9.8125 13.9688 7.95312 20.75
Q6.10938 27.5469 6.10938 35.7969
Q6.10938 43.8906 8.23438 50.625
Q10.3594 57.375 14.4844 62.2031
Q18.6094 67.0469 24.7031 69.7188
Q30.8125 72.4062 38.7188 72.4062
Q44 72.4062 48.7812 71.3281
Q53.5625 70.2656 57.4219 68.2188
L53.6094 60.5938
Q50.5312 62.1562 46.9219 63.2812
Q43.3125 64.4062 38.7188 64.4062" id="WenQuanYiMicroHei-43"/>
      <path d="
M24.7031 6.29688
Q25.5938 6.29688 26.6875 6.39062
Q27.7812 6.5 28.7969 6.64062
Q29.8281 6.78125 30.6875 6.96875
Q31.5469 7.17188 31.9844 7.32812
L31.9844 0.59375
Q31.3438 0.296875 30.3594 0
Q29.3906 -0.296875 28.2188 -0.515625
Q27.0469 -0.734375 25.7812 -0.859375
Q24.5156 -0.984375 23.2969 -0.984375
Q20.2656 -0.984375 17.6719 -0.1875
Q15.0938 0.59375 13.2031 2.48438
Q11.3281 4.39062 10.25 7.64062
Q9.1875 10.8906 9.1875 15.8281
L9.1875 46.9219
L1.60938 46.9219
L1.60938 50.875
L9.1875 54.6875
L12.9844 65.9219
L18.1094 65.9219
L18.1094 53.6094
L31.5938 53.6094
L31.5938 46.9219
L18.1094 46.9219
L18.1094 15.8281
Q18.1094 11.0781 19.6406 8.6875
Q21.1875 6.29688 24.7031 6.29688" id="WenQuanYiMicroHei-74"/>
      <path d="
M17.3906 0
L8.5 0
L8.5 53.6094
L17.3906 53.6094
z

M7.8125 68.1094
Q7.8125 71.0469 9.29688 72.3594
Q10.7969 73.6875 12.9844 73.6875
Q14.0625 73.6875 15.0156 73.3594
Q15.9688 73.0469 16.6719 72.3594
Q17.3906 71.6875 17.7969 70.625
Q18.2188 69.5781 18.2188 68.1094
Q18.2188 65.2812 16.6719 63.8906
Q15.1406 62.5 12.9844 62.5
Q10.7969 62.5 9.29688 63.8594
Q7.8125 65.2344 7.8125 68.1094" id="WenQuanYiMicroHei-69"/>
      <path d="
M0.484375 53.6094
L9.71875 53.6094
L20.2188 23.6875
Q20.9062 21.7344 21.6094 19.5781
Q22.3125 17.4375 22.9219 15.2812
Q23.5312 13.1406 23.9688 11.125
Q24.4219 9.125 24.6094 7.42188
L24.9062 7.42188
Q25.1406 8.64062 25.6719 10.7344
Q26.2188 12.8438 26.875 15.2031
Q27.5469 17.5781 28.25 19.875
Q28.9531 22.1719 29.5 23.7812
L39.2031 53.6094
L48.3906 53.6094
L27.2031 -6.98438
Q25.8281 -10.9375 24.2344 -14.0781
Q22.6562 -17.2344 20.5469 -19.4219
Q18.4531 -21.625 15.625 -22.8281
Q12.7969 -24.0312 8.89062 -24.0312
Q6.34375 -24.0312 4.48438 -23.75
Q2.64062 -23.4844 1.3125 -23.1875
L1.3125 -16.1094
Q2.34375 -16.3594 3.90625 -16.5312
Q5.46875 -16.7031 7.17188 -16.7031
Q9.51562 -16.7031 11.2188 -16.1406
Q12.9375 -15.5781 14.2031 -14.5
Q15.4844 -13.4219 16.375 -11.8594
Q17.2812 -10.2969 18.0156 -8.29688
L20.7969 -0.484375
z
" id="WenQuanYiMicroHei-79"/>
     </defs>
     <g transform="translate(342.763460625 30.3133059375)scale(0.12 -0.12)">
      <use xlink:href="#WenQuanYiMicroHei-43"/>
      <use x="60.302734375" xlink:href="#WenQuanYiMicroHei-69"/>
      <use x="86.181640625" xlink:href="#WenQuanYiMicroHei-74"/>
      <use x="120.068359375" xlink:href="#WenQuanYiMicroHei-79"/>
     </g>
    </g>
    <g id="patch_11">
     <path d="
M328.982 45.7905
L348.974 45.7905
L348.974 38.7933
L328.982 38.7933
L328.982 45.7905" style="fill:none;stroke:#348abd;stroke-linejoin:miter;stroke-width:2;"/>
    </g>
    <g id="text_19">
     <!-- 上海 -->
     <defs>
      <path d="
M14.0625 80.0781
Q22.6562 75.3906 29.6875 68.75
L24.6094 62.1094
Q16.7969 69.5312 8.59375 74.6094
z

M10.1562 55.8594
Q17.9688 51.5625 24.6094 46.0938
L19.1406 39.4531
Q12.5 46.0938 4.6875 50.3906
z

M19.1406 31.25
L25.7812 26.5625
Q21.0938 8.20312 12.1094 -8.98438
L4.29688 -3.51562
Q13.6719 12.8906 19.1406 31.25
M42.9688 81.25
L51.1719 79.2969
Q50 75.7812 48.4375 72.2656
L91.4062 72.2656
L91.4062 65.2344
L44.5312 65.2344
Q39.8438 57.0312 32.8125 50.7812
L27.3438 56.6406
Q37.8906 66.4062 42.9688 81.25
M41.4062 57.0312
L88.2812 57.0312
L87.5 34.375
L95.7031 34.375
L95.7031 27.3438
L87.1094 27.3438
Q86.7188 19.1406 85.5469 11.3281
L94.5312 11.3281
L94.5312 4.6875
L85.1562 4.6875
Q83.5938 -8.98438 72.6562 -8.98438
Q68.75 -8.98438 62.1094 -8.20312
L60.9375 -1.5625
Q68.3594 -2.34375 72.6562 -2.34375
Q76.1719 -2.34375 76.9531 4.6875
L34.375 4.6875
Q36.7188 15.2344 38.2812 27.3438
L29.6875 27.3438
L29.6875 34.375
L39.4531 34.375
Q40.625 45.3125 41.4062 57.0312
M47.2656 34.375
L79.6875 34.375
Q80.0781 42.5781 80.0781 50.3906
L48.4375 50.3906
Q48.0469 41.7969 47.2656 34.375
M60.9375 48.4375
Q65.625 45.7031 69.5312 41.7969
L64.4531 35.9375
Q60.5469 40.625 55.8594 43.75
z

M77.7344 11.3281
L79.2969 27.3438
L46.4844 27.3438
Q45.3125 18.75 43.75 11.3281
z

M59.7656 25.7812
Q64.8438 22.6562 69.1406 18.75
L64.4531 12.8906
Q59.7656 17.5781 55.0781 20.7031
z
" id="WenQuanYiMicroHei-6d77"/>
      <path d="
M41.7969 79.2969
L50 79.2969
L50 51.9531
L88.2812 51.9531
L88.2812 44.1406
L50 44.1406
L50 3.125
L92.9688 3.125
L92.9688 -4.6875
L7.8125 -4.6875
L7.8125 3.125
L41.7969 3.125
z
" id="WenQuanYiMicroHei-4e0a"/>
     </defs>
     <g transform="translate(356.971048125 45.7904540625)scale(0.09996 -0.09996)">
      <use xlink:href="#WenQuanYiMicroHei-4e0a"/>
      <use x="100.0" xlink:href="#WenQuanYiMicroHei-6d77"/>
     </g>
    </g>
    <g id="patch_12">
     <path d="
M328.982 60.786
L348.974 60.786
L348.974 53.7888
L328.982 53.7888
L328.982 60.786" style="fill:none;stroke:#a60628;stroke-linejoin:miter;stroke-width:2;"/>
    </g>
    <g id="text_20">
     <!-- 北京 -->
     <defs>
      <path d="
M32.8125 80.0781
L40.625 80.0781
L40.625 -7.8125
L32.8125 -7.8125
L32.8125 13.6719
Q21.875 5.85938 8.59375 0
L5.46875 8.59375
Q20.3125 15.2344 32.8125 23.0469
L32.8125 49.6094
L6.64062 49.6094
L6.64062 57.4219
L32.8125 57.4219
z

M55.8594 80.0781
L63.6719 80.0781
L63.6719 50.7812
Q76.9531 57.4219 88.6719 66.0156
L93.75 58.9844
Q80.0781 49.2188 63.6719 42.1875
L63.6719 4.29688
Q63.6719 2.73438 65.4219 1.95312
Q67.1875 1.17188 74.6094 1.17188
Q82.0312 1.17188 83.5938 2.14062
Q85.1562 3.125 85.9375 5.85938
Q86.7188 8.59375 87.1094 19.5312
L95.3125 17.1875
Q94.9219 4.6875 93.3594 0.78125
Q91.7969 -3.125 88.8594 -4.6875
Q85.9375 -6.25 74.6094 -6.25
Q62.5 -6.25 59.1719 -4.48438
Q55.8594 -2.73438 55.8594 1.5625
z
" id="WenQuanYiMicroHei-5317"/>
      <path d="
M51.1719 81.25
Q54.2969 76.5625 55.8594 71.0938
L94.5312 71.0938
L94.5312 63.6719
L5.46875 63.6719
L5.46875 71.0938
L46.0938 71.0938
Q44.9219 75.3906 42.9688 78.5156
z

M17.1875 56.25
L80.8594 56.25
L80.8594 26.1719
L53.9062 26.1719
L53.9062 1.17188
Q53.9062 -4.6875 51.9531 -6.82812
Q50 -8.98438 44.9219 -8.98438
Q37.8906 -8.98438 32.0312 -7.8125
L30.4688 0
Q37.1094 -1.5625 43.75 -1.5625
Q46.0938 -1.5625 46.0938 3.125
L46.0938 26.1719
L17.1875 26.1719
z

M25 33.5938
L73.0469 33.5938
L73.0469 48.8281
L25 48.8281
z

M28.9062 22.6562
L35.9375 18.75
Q26.9531 4.6875 9.76562 -5.07812
L5.07812 1.17188
Q20.7031 10.9375 28.9062 22.6562
M69.1406 22.6562
Q80.8594 13.6719 92.5781 1.5625
L86.3281 -5.07812
Q76.1719 6.64062 62.5 18.3594
z
" id="WenQuanYiMicroHei-4eac"/>
     </defs>
     <g transform="translate(356.971048125 60.7860159375)scale(0.09996 -0.09996)">
      <use xlink:href="#WenQuanYiMicroHei-5317"/>
      <use x="100.0" xlink:href="#WenQuanYiMicroHei-4eac"/>
     </g>
    </g>
    <g id="patch_13">
     <path d="
M328.982 75.7816
L348.974 75.7816
L348.974 68.7844
L328.982 68.7844
L328.982 75.7816" style="fill:none;stroke:#7a68a6;stroke-linejoin:miter;stroke-width:2;"/>
    </g>
    <g id="text_21">
     <!-- 天津 -->
     <defs>
      <path d="
M12.8906 76.1719
L86.3281 76.1719
L86.3281 68.75
L53.125 68.75
Q53.125 48.4375 52.7344 46.0938
L91.7969 46.0938
L91.7969 38.6719
L53.5156 38.6719
Q64.4531 10.9375 94.9219 -1.17188
L89.4531 -9.375
Q60.9375 4.29688 50.3906 27.3438
Q43.3594 2.73438 10.1562 -9.375
L5.46875 -1.5625
Q24.6094 5.07812 33.5938 14.8438
Q42.5781 24.6094 44.1406 38.6719
L7.42188 38.6719
L7.42188 46.0938
L44.9219 46.0938
Q45.3125 51.1719 45.3125 68.75
L12.8906 68.75
z
" id="WenQuanYiMicroHei-5929"/>
      <path d="
M14.0625 80.0781
Q22.6562 75.3906 29.6875 68.75
L24.6094 62.1094
Q16.7969 69.5312 8.59375 74.6094
z

M10.1562 55.8594
Q17.9688 51.5625 24.6094 46.0938
L19.1406 39.4531
Q12.5 46.0938 4.6875 50.3906
z

M19.1406 31.25
L25.7812 26.5625
Q21.0938 8.20312 12.1094 -8.98438
L4.29688 -3.51562
Q13.6719 12.8906 19.1406 31.25
M34.375 73.4375
L56.25 73.4375
L56.25 81.25
L63.6719 81.25
L63.6719 73.4375
L87.8906 73.4375
L87.8906 58.2031
L95.3125 58.2031
L95.3125 51.5625
L87.8906 51.5625
L87.8906 35.9375
L63.6719 35.9375
L63.6719 28.125
L91.4062 28.125
L91.4062 21.4844
L63.6719 21.4844
L63.6719 13.6719
L96.0938 13.6719
L96.0938 6.64062
L63.6719 6.64062
L63.6719 -8.98438
L56.25 -8.98438
L56.25 6.64062
L26.9531 6.64062
L26.9531 13.6719
L56.25 13.6719
L56.25 21.4844
L33.2031 21.4844
L33.2031 28.125
L56.25 28.125
L56.25 35.9375
L33.9844 35.9375
L33.9844 43.3594
L56.25 43.3594
L56.25 51.5625
L28.5156 51.5625
L28.5156 58.2031
L56.25 58.2031
L56.25 66.0156
L34.375 66.0156
z

M63.6719 66.0156
L63.6719 58.2031
L80.4688 58.2031
L80.4688 66.0156
z

M63.6719 51.5625
L63.6719 43.3594
L80.4688 43.3594
L80.4688 51.5625
z
" id="WenQuanYiMicroHei-6d25"/>
     </defs>
     <g transform="translate(356.971048125 75.7815778125)scale(0.09996 -0.09996)">
      <use xlink:href="#WenQuanYiMicroHei-5929"/>
      <use x="100.0" xlink:href="#WenQuanYiMicroHei-6d25"/>
     </g>
    </g>
   </g>
  </g>
 </g>
 <defs>
  <clipPath id="pd589d050f4">
   <rect height="172.8" width="334.8" x="50.222323125" y="12.1987809375"/>
  </clipPath>
 </defs>
</svg>
