<?xml version="1.0" encoding="utf-8" standalone="no"?>
<!DOCTYPE svg PUBLIC "-//W3C//DTD SVG 1.1//EN"
  "http://www.w3.org/Graphics/SVG/1.1/DTD/svg11.dtd">
<!-- Created with matplotlib (http://matplotlib.org/) -->
<svg height="192pt" version="1.1" viewBox="0 0 490 192" width="490pt" xmlns="http://www.w3.org/2000/svg" xmlns:xlink="http://www.w3.org/1999/xlink">
 <defs>
  <style type="text/css">
*{stroke-linecap:butt;stroke-linejoin:round;}
  </style>
 </defs>
 <g id="figure_1">
  <g id="patch_1">
   <path d="
M0 192.394
L490.228 192.394
L490.228 0
L0 0
z
" style="fill:#ffffff;"/>
  </g>
  <g id="axes_1">
   <g id="patch_2">
    <path d="
M36.6278 156.199
L483.028 156.199
L483.028 12.1988
L36.6278 12.1988
z
" style="fill:#ffffff;"/>
   </g>
   <g id="PolyCollection_1">
    <defs>
     <path d="
M36.6278 -39.0751
L36.6278 -36.1951
L42.9151 -36.1951
L49.2024 -36.1951
L55.4897 -36.1951
L61.7771 -36.1951
L68.0644 -36.1951
L74.3517 -36.1951
L80.639 -36.1951
L86.9264 -36.1951
L93.2137 -36.1951
L99.501 -36.1951
L105.788 -36.1951
L112.076 -36.1951
L118.363 -36.1951
L124.65 -36.1951
L130.938 -36.1951
L137.225 -36.1951
L143.512 -36.1951
L149.8 -36.1951
L156.087 -36.1951
L162.374 -36.1951
L168.662 -36.1951
L174.949 -36.1951
L181.236 -36.1951
L187.524 -36.1951
L193.811 -36.1951
L200.098 -36.1951
L206.386 -36.1951
L212.673 -36.1951
L218.96 -36.1951
L225.247 -36.1951
L231.535 -36.1951
L237.822 -36.1951
L244.109 -36.1951
L250.397 -36.1951
L256.684 -36.1951
L262.971 -36.1951
L269.259 -36.1951
L275.546 -36.1951
L281.833 -36.1951
L288.121 -36.1951
L294.408 -36.1951
L300.695 -36.1951
L306.983 -36.1951
L313.27 -36.1951
L319.557 -36.1951
L325.845 -36.1951
L332.132 -36.1951
L338.419 -36.1951
L344.707 -36.1951
L350.994 -36.1951
L357.281 -36.1951
L363.569 -36.1951
L369.856 -36.1951
L376.143 -36.1951
L382.431 -36.1951
L388.718 -36.1951
L395.005 -36.1951
L401.293 -36.1951
L407.58 -36.1951
L413.867 -36.1951
L420.155 -36.1951
L426.442 -36.1951
L432.729 -36.1951
L439.016 -36.1951
L445.304 -36.1951
L451.591 -36.1951
L457.878 -36.1951
L464.166 -36.1951
L470.453 -36.1951
L476.74 -36.1951
L483.028 -36.1951
L483.028 -79.3951
L483.028 -79.3951
L476.74 -116.835
L470.453 -128.355
L464.166 -151.395
L457.878 -122.595
L451.591 -99.5551
L445.304 -128.355
L439.016 -145.635
L432.729 -162.915
L426.442 -142.755
L420.155 -157.155
L413.867 -128.355
L407.58 -116.835
L401.293 -134.115
L395.005 -134.115
L388.718 -134.115
L382.431 -128.355
L376.143 -131.235
L369.856 -168.675
L363.569 -116.835
L357.281 -111.075
L350.994 -145.635
L344.707 -128.355
L338.419 -99.5551
L332.132 -125.475
L325.845 -111.075
L319.557 -105.315
L313.27 -111.075
L306.983 -108.195
L300.695 -102.435
L294.408 -93.7951
L288.121 -85.1551
L281.833 -88.0351
L275.546 -79.3951
L269.259 -82.2751
L262.971 -73.6351
L256.684 -62.1151
L250.397 -79.3951
L244.109 -76.5151
L237.822 -73.6351
L231.535 -93.7951
L225.247 -70.7551
L218.96 -76.5151
L212.673 -64.9951
L206.386 -62.1151
L200.098 -59.2351
L193.811 -50.5951
L187.524 -44.8351
L181.236 -39.0751
L174.949 -41.9551
L168.662 -39.0751
L162.374 -39.0751
L156.087 -41.9551
L149.8 -39.0751
L143.512 -39.0751
L137.225 -39.0751
L130.938 -39.0751
L124.65 -39.0751
L118.363 -39.0751
L112.076 -39.0751
L105.788 -39.0751
L99.501 -39.0751
L93.2137 -39.0751
L86.9264 -39.0751
L80.639 -39.0751
L74.3517 -39.0751
L68.0644 -39.0751
L61.7771 -39.0751
L55.4897 -39.0751
L49.2024 -39.0751
L42.9151 -39.0751
L36.6278 -39.0751
z
" id="m2f522bf6cb" style="stroke:#348abd;"/>
    </defs>
    <g clip-path="url(#p9e0a4c246a)">
     <use style="fill:#348abd;stroke:#348abd;" x="0.0" xlink:href="#m2f522bf6cb" y="192.393904687"/>
    </g>
   </g>
   <g id="line2d_1">
    <path clip-path="url(#p9e0a4c246a)" d="
M36.6278 153.319
L42.9151 153.319
L49.2024 153.319
L55.4897 153.319
L61.7771 153.319
L68.0644 153.319
L74.3517 153.319
L80.639 153.319
L86.9264 153.319
L93.2137 153.319
L99.501 153.319
L105.788 153.319
L112.076 153.319
L118.363 153.319
L124.65 153.319
L130.938 153.319
L137.225 153.319
L143.512 153.319
L149.8 153.319
L156.087 150.439
L162.374 153.319
L168.662 153.319
L174.949 150.439
L181.236 153.319
L187.524 147.559
L193.811 141.799
L200.098 133.159
L206.386 130.279
L212.673 127.399
L218.96 115.879
L225.247 121.639
L231.535 98.5988
L237.822 118.759
L244.109 115.879
L250.397 112.999
L256.684 130.279
L262.971 118.759
L269.259 110.119
L275.546 112.999
L281.833 104.359
L288.121 107.239
L294.408 98.5988
L300.695 89.9588
L306.983 84.1988
L313.27 81.3188
L319.557 87.0788
L325.845 81.3188
L332.132 66.9188
L338.419 92.8388
L344.707 64.0388
L350.994 46.7588
L357.281 81.3188
L363.569 75.5588
L369.856 23.7188
L376.143 61.1588
L382.431 64.0388
L388.718 58.2788
L395.005 58.2788
L401.293 58.2788
L407.58 75.5588
L413.867 64.0388
L420.155 35.2388
L426.442 49.6388
L432.729 29.4788
L439.016 46.7588
L445.304 64.0388
L451.591 92.8388
L457.878 69.7988
L464.166 40.9988
L470.453 64.0388
L476.74 75.5588
L483.028 112.999" style="fill:none;stroke:#348abd;stroke-linecap:square;stroke-width:2.0;"/>
   </g>
   <g id="patch_3">
    <path d="
M36.6278 12.1988
L483.028 12.1988" style="fill:none;stroke:#000000;stroke-linecap:square;stroke-linejoin:miter;"/>
   </g>
   <g id="patch_4">
    <path d="
M483.028 156.199
L483.028 12.1988" style="fill:none;stroke:#000000;stroke-linecap:square;stroke-linejoin:miter;"/>
   </g>
   <g id="patch_5">
    <path d="
M36.6278 156.199
L483.028 156.199" style="fill:none;stroke:#000000;stroke-linecap:square;stroke-linejoin:miter;"/>
   </g>
   <g id="patch_6">
    <path d="
M36.6278 156.199
L36.6278 12.1988" style="fill:none;stroke:#000000;stroke-linecap:square;stroke-linejoin:miter;"/>
   </g>
   <g id="matplotlib.axis_1">
    <g id="xtick_1">
     <g id="line2d_2">
      <path clip-path="url(#p9e0a4c246a)" d="
M68.0644 156.199
L68.0644 12.1988" style="fill:none;stroke:#000000;stroke-dasharray:1.000000,3.000000;stroke-dashoffset:0.0;stroke-width:0.5;"/>
     </g>
     <g id="line2d_3">
      <defs>
       <path d="
M0 0
L0 -4" id="m93b0483c22" style="stroke:#000000;stroke-width:0.5;"/>
      </defs>
      <g>
       <use style="stroke:#000000;stroke-width:0.5;" x="68.0643828433" xlink:href="#m93b0483c22" y="156.198780937"/>
      </g>
     </g>
     <g id="line2d_4">
      <defs>
       <path d="
M0 0
L0 4" id="m741efc42ff" style="stroke:#000000;stroke-width:0.5;"/>
      </defs>
      <g>
       <use style="stroke:#000000;stroke-width:0.5;" x="68.0643828433" xlink:href="#m741efc42ff" y="12.1987809375"/>
      </g>
     </g>
     <g id="text_1">
      <!-- 2010 -->
      <defs>
       <path d="
M49.2188 0
L4.6875 0
L4.6875 7.625
L21.7812 26.2188
Q25.4375 30.1719 28.3125 33.4375
Q31.2031 36.7188 33.2188 39.8438
Q35.25 42.9688 36.3281 46.1094
Q37.4062 49.2656 37.4062 52.9844
Q37.4062 55.8594 36.5781 58.0469
Q35.75 60.25 34.2031 61.7812
Q32.6719 63.3281 30.5625 64.1094
Q28.4688 64.8906 25.875 64.8906
Q21.2344 64.8906 17.5 63.0156
Q13.7656 61.1406 10.4062 58.2031
L5.42188 64.0156
Q7.375 65.7656 9.60938 67.2969
Q11.8594 68.8438 14.4531 69.9688
Q17.0469 71.0938 19.9219 71.75
Q22.7969 72.4062 25.9844 72.4062
Q30.6719 72.4062 34.4531 71.0938
Q38.2344 69.7812 40.8594 67.3125
Q43.5 64.8438 44.9375 61.2969
Q46.3906 57.7656 46.3906 53.3281
Q46.3906 49.1719 45.0938 45.4062
Q43.7969 41.6562 41.5312 38.0156
Q39.2656 34.375 36.1094 30.7031
Q32.9531 27.0469 29.2969 23.0938
L15.5781 8.5
L15.5781 8.10938
L49.2188 8.10938
z
" id="WenQuanYiMicroHei-32"/>
       <path d="
M34.7188 0
L26.125 0
L26.125 44.5781
Q26.125 46.6875 26.1406 49.0781
Q26.1719 51.4688 26.2344 53.8281
Q26.3125 56.2031 26.3906 58.375
Q26.4688 60.5469 26.5156 62.2031
Q25.6875 61.3281 25.0469 60.6875
Q24.4219 60.0625 23.75 59.4688
Q23.0938 58.8906 22.3594 58.2188
Q21.625 57.5625 20.6094 56.6875
L13.375 50.7812
L8.6875 56.7812
L27.3906 71.3906
L34.7188 71.3906
z
" id="WenQuanYiMicroHei-31"/>
       <path d="
M50.3906 35.7969
Q50.3906 27.1562 49.1406 20.3125
Q47.9062 13.4844 45.1406 8.73438
Q42.3906 4 38.0312 1.5
Q33.6875 -0.984375 27.4844 -0.984375
Q21.7344 -0.984375 17.4531 1.5
Q13.1875 4 10.375 8.73438
Q7.5625 13.4844 6.17188 20.3125
Q4.78125 27.1562 4.78125 35.7969
Q4.78125 44.4375 6.03125 51.2656
Q7.28125 58.1094 9.98438 62.8125
Q12.7031 67.5312 17.0156 70.0156
Q21.3438 72.5156 27.4844 72.5156
Q33.2969 72.5156 37.5938 70.0469
Q41.8906 67.5781 44.7188 62.8594
Q47.5625 58.1562 48.9688 51.3125
Q50.3906 44.4844 50.3906 35.7969
M13.8125 35.7969
Q13.8125 28.4688 14.5469 23
Q15.2812 17.5312 16.8906 13.8906
Q18.5 10.25 21.1094 8.42188
Q23.7344 6.59375 27.4844 6.59375
Q31.25 6.59375 33.8906 8.39062
Q36.5312 10.2031 38.2031 13.8125
Q39.8906 17.4375 40.6406 22.9219
Q41.4062 28.4219 41.4062 35.7969
Q41.4062 43.1094 40.6406 48.5781
Q39.8906 54.0469 38.2031 57.6562
Q36.5312 61.2812 33.8906 63.0781
Q31.25 64.8906 27.4844 64.8906
Q23.7344 64.8906 21.1094 63.0781
Q18.5 61.2812 16.8906 57.6562
Q15.2812 54.0469 14.5469 48.5781
Q13.8125 43.1094 13.8125 35.7969" id="WenQuanYiMicroHei-30"/>
      </defs>
      <g transform="translate(57.5217265933 167.794179062)scale(0.09996 -0.09996)">
       <use xlink:href="#WenQuanYiMicroHei-32"/>
       <use x="55.078125" xlink:href="#WenQuanYiMicroHei-30"/>
       <use x="110.15625" xlink:href="#WenQuanYiMicroHei-31"/>
       <use x="165.234375" xlink:href="#WenQuanYiMicroHei-30"/>
      </g>
     </g>
    </g>
    <g id="xtick_2">
     <g id="line2d_5">
      <path clip-path="url(#p9e0a4c246a)" d="
M143.512 156.199
L143.512 12.1988" style="fill:none;stroke:#000000;stroke-dasharray:1.000000,3.000000;stroke-dashoffset:0.0;stroke-width:0.5;"/>
     </g>
     <g id="line2d_6">
      <g>
       <use style="stroke:#000000;stroke-width:0.5;" x="143.512270167" xlink:href="#m93b0483c22" y="156.198780937"/>
      </g>
     </g>
     <g id="line2d_7">
      <g>
       <use style="stroke:#000000;stroke-width:0.5;" x="143.512270167" xlink:href="#m741efc42ff" y="12.1987809375"/>
      </g>
     </g>
     <g id="text_2">
      <!-- 2011 -->
      <g transform="translate(133.75289423 167.794179062)scale(0.09996 -0.09996)">
       <use xlink:href="#WenQuanYiMicroHei-32"/>
       <use x="55.078125" xlink:href="#WenQuanYiMicroHei-30"/>
       <use x="110.15625" xlink:href="#WenQuanYiMicroHei-31"/>
       <use x="165.234375" xlink:href="#WenQuanYiMicroHei-31"/>
      </g>
     </g>
    </g>
    <g id="xtick_3">
     <g id="line2d_8">
      <path clip-path="url(#p9e0a4c246a)" d="
M218.96 156.199
L218.96 12.1988" style="fill:none;stroke:#000000;stroke-dasharray:1.000000,3.000000;stroke-dashoffset:0.0;stroke-width:0.5;"/>
     </g>
     <g id="line2d_9">
      <g>
       <use style="stroke:#000000;stroke-width:0.5;" x="218.960157491" xlink:href="#m93b0483c22" y="156.198780937"/>
      </g>
     </g>
     <g id="line2d_10">
      <g>
       <use style="stroke:#000000;stroke-width:0.5;" x="218.960157491" xlink:href="#m741efc42ff" y="12.1987809375"/>
      </g>
     </g>
     <g id="text_3">
      <!-- 2012 -->
      <g transform="translate(208.476071554 167.794179062)scale(0.09996 -0.09996)">
       <use xlink:href="#WenQuanYiMicroHei-32"/>
       <use x="55.078125" xlink:href="#WenQuanYiMicroHei-30"/>
       <use x="110.15625" xlink:href="#WenQuanYiMicroHei-31"/>
       <use x="165.234375" xlink:href="#WenQuanYiMicroHei-32"/>
      </g>
     </g>
    </g>
    <g id="xtick_4">
     <g id="line2d_11">
      <path clip-path="url(#p9e0a4c246a)" d="
M294.408 156.199
L294.408 12.1988" style="fill:none;stroke:#000000;stroke-dasharray:1.000000,3.000000;stroke-dashoffset:0.0;stroke-width:0.5;"/>
     </g>
     <g id="line2d_12">
      <g>
       <use style="stroke:#000000;stroke-width:0.5;" x="294.408044815" xlink:href="#m93b0483c22" y="156.198780937"/>
      </g>
     </g>
     <g id="line2d_13">
      <g>
       <use style="stroke:#000000;stroke-width:0.5;" x="294.408044815" xlink:href="#m741efc42ff" y="12.1987809375"/>
      </g>
     </g>
     <g id="text_4">
      <!-- 2013 -->
      <defs>
       <path d="
M46.9219 54.6875
Q46.9219 51.125 45.7969 48.1875
Q44.6719 45.2656 42.6406 43.1094
Q40.625 40.9688 37.7969 39.5781
Q34.9688 38.1875 31.5 37.5938
L31.5 37.3125
Q40.1406 36.2344 44.625 31.8125
Q49.125 27.3906 49.125 20.3125
Q49.125 15.625 47.5312 11.7188
Q45.9531 7.8125 42.7188 4.98438
Q39.5 2.15625 34.5625 0.578125
Q29.6406 -0.984375 22.9062 -0.984375
Q17.5781 -0.984375 12.8594 -0.140625
Q8.15625 0.6875 4 2.875
L4 11.1875
Q8.25 8.9375 13.2031 7.71875
Q18.1719 6.5 22.7031 6.5
Q27.2031 6.5 30.4688 7.46875
Q33.7344 8.45312 35.8594 10.25
Q37.9844 12.0625 38.9844 14.6875
Q39.9844 17.3281 39.9844 20.6094
Q39.9844 23.9219 38.6875 26.2812
Q37.4062 28.6562 35.0156 30.1875
Q32.625 31.7344 29.1719 32.4688
Q25.7344 33.2031 21.3906 33.2031
L14.8906 33.2031
L14.8906 40.5781
L21.3906 40.5781
Q25.3438 40.5781 28.4219 41.5469
Q31.5 42.5312 33.5625 44.3281
Q35.6406 46.1406 36.7188 48.625
Q37.7969 51.125 37.7969 54.1094
Q37.7969 56.6406 36.9062 58.6406
Q36.0312 60.6406 34.4219 62.0312
Q32.8125 63.4219 30.5625 64.1562
Q28.3281 64.8906 25.5938 64.8906
Q20.3594 64.8906 16.375 63.25
Q12.4062 61.625 8.79688 58.9844
L4.29688 65.0938
Q6.15625 66.6094 8.42188 67.9219
Q10.6875 69.2344 13.375 70.2344
Q16.0625 71.2344 19.1094 71.8125
Q22.1719 72.4062 25.5938 72.4062
Q30.8594 72.4062 34.8281 71.0938
Q38.8125 69.7812 41.5 67.4062
Q44.1875 65.0469 45.5469 61.7969
Q46.9219 58.5469 46.9219 54.6875" id="WenQuanYiMicroHei-33"/>
      </defs>
      <g transform="translate(283.928644503 167.794179062)scale(0.09996 -0.09996)">
       <use xlink:href="#WenQuanYiMicroHei-32"/>
       <use x="55.078125" xlink:href="#WenQuanYiMicroHei-30"/>
       <use x="110.15625" xlink:href="#WenQuanYiMicroHei-31"/>
       <use x="165.234375" xlink:href="#WenQuanYiMicroHei-33"/>
      </g>
     </g>
    </g>
    <g id="xtick_5">
     <g id="line2d_14">
      <path clip-path="url(#p9e0a4c246a)" d="
M369.856 156.199
L369.856 12.1988" style="fill:none;stroke:#000000;stroke-dasharray:1.000000,3.000000;stroke-dashoffset:0.0;stroke-width:0.5;"/>
     </g>
     <g id="line2d_15">
      <g>
       <use style="stroke:#000000;stroke-width:0.5;" x="369.855932139" xlink:href="#m93b0483c22" y="156.198780937"/>
      </g>
     </g>
     <g id="line2d_16">
      <g>
       <use style="stroke:#000000;stroke-width:0.5;" x="369.855932139" xlink:href="#m741efc42ff" y="12.1987809375"/>
      </g>
     </g>
     <g id="text_5">
      <!-- 2014 -->
      <defs>
       <path d="
M53.0781 16.0156
L42.6719 16.0156
L42.6719 0
L34.0781 0
L34.0781 16.0156
L1.125 16.0156
L1.125 23.7812
L33.5 71.7812
L42.6719 71.7812
L42.6719 24.125
L53.0781 24.125
z

M34.0781 24.125
L34.0781 41.5
Q34.0781 44.2344 34.1562 47.2344
Q34.2344 50.25 34.3281 53.0938
Q34.4219 55.9531 34.5469 58.4375
Q34.6719 60.9375 34.7188 62.5938
L34.2812 62.5938
Q33.9375 61.625 33.4219 60.4219
Q32.9062 59.2344 32.2969 58.0312
Q31.6875 56.8438 31.0469 55.7188
Q30.4219 54.5938 29.8906 53.8125
L9.8125 24.125
z
" id="WenQuanYiMicroHei-34"/>
      </defs>
      <g transform="translate(359.178954639 167.794179062)scale(0.09996 -0.09996)">
       <use xlink:href="#WenQuanYiMicroHei-32"/>
       <use x="55.078125" xlink:href="#WenQuanYiMicroHei-30"/>
       <use x="110.15625" xlink:href="#WenQuanYiMicroHei-31"/>
       <use x="165.234375" xlink:href="#WenQuanYiMicroHei-34"/>
      </g>
     </g>
    </g>
    <g id="xtick_6">
     <g id="line2d_17">
      <path clip-path="url(#p9e0a4c246a)" d="
M445.304 156.199
L445.304 12.1988" style="fill:none;stroke:#000000;stroke-dasharray:1.000000,3.000000;stroke-dashoffset:0.0;stroke-width:0.5;"/>
     </g>
     <g id="line2d_18">
      <g>
       <use style="stroke:#000000;stroke-width:0.5;" x="445.303819463" xlink:href="#m93b0483c22" y="156.198780937"/>
      </g>
     </g>
     <g id="line2d_19">
      <g>
       <use style="stroke:#000000;stroke-width:0.5;" x="445.303819463" xlink:href="#m741efc42ff" y="12.1987809375"/>
      </g>
     </g>
     <g id="text_6">
      <!-- 2015 -->
      <defs>
       <path d="
M26.6094 43.7969
Q31.4531 43.7969 35.625 42.4531
Q39.7969 41.1094 42.8906 38.4688
Q46 35.8438 47.75 31.9375
Q49.5156 28.0312 49.5156 22.9062
Q49.5156 17.3281 47.8438 12.8906
Q46.1875 8.45312 42.9219 5.375
Q39.6562 2.29688 34.8438 0.65625
Q30.0312 -0.984375 23.7812 -0.984375
Q21.2969 -0.984375 18.875 -0.734375
Q16.4531 -0.484375 14.2344 -0.015625
Q12.0156 0.4375 10.0156 1.17188
Q8.01562 1.90625 6.39062 2.875
L6.39062 11.2812
Q8.01562 10.1562 10.1875 9.28125
Q12.3594 8.40625 14.75 7.8125
Q17.1406 7.23438 19.5469 6.90625
Q21.9688 6.59375 24.0312 6.59375
Q27.875 6.59375 30.9062 7.5
Q33.9375 8.40625 36.0312 10.2969
Q38.1406 12.2031 39.25 15.0781
Q40.375 17.9688 40.375 21.9219
Q40.375 28.9062 36.0781 32.5938
Q31.7812 36.2812 23.5781 36.2812
Q22.2656 36.2812 20.7188 36.1562
Q19.1875 36.0312 17.6406 35.8281
Q16.1094 35.6406 14.7188 35.4219
Q13.3281 35.2031 12.3125 35.0156
L7.90625 37.7969
L10.5938 71.3906
L44.2812 71.3906
L44.2812 63.2812
L18.3125 63.2812
L16.4062 42.8281
Q17.9688 43.1094 20.5312 43.4531
Q23.0938 43.7969 26.6094 43.7969" id="WenQuanYiMicroHei-35"/>
      </defs>
      <g transform="translate(434.804895713 167.794179062)scale(0.09996 -0.09996)">
       <use xlink:href="#WenQuanYiMicroHei-32"/>
       <use x="55.078125" xlink:href="#WenQuanYiMicroHei-30"/>
       <use x="110.15625" xlink:href="#WenQuanYiMicroHei-31"/>
       <use x="165.234375" xlink:href="#WenQuanYiMicroHei-35"/>
      </g>
     </g>
    </g>
    <g id="xtick_7">
     <g id="line2d_20">
      <defs>
       <path d="
M0 0
L0 -2" id="m177f7580d0" style="stroke:#000000;stroke-width:0.5;"/>
      </defs>
      <g>
       <use style="stroke:#000000;stroke-width:0.5;" x="49.2024110123" xlink:href="#m177f7580d0" y="156.198780937"/>
      </g>
     </g>
     <g id="line2d_21">
      <defs>
       <path d="
M0 0
L0 2" id="m5284c7e2a0" style="stroke:#000000;stroke-width:0.5;"/>
      </defs>
      <g>
       <use style="stroke:#000000;stroke-width:0.5;" x="49.2024110123" xlink:href="#m5284c7e2a0" y="12.1987809375"/>
      </g>
     </g>
    </g>
    <g id="xtick_8">
     <g id="line2d_22">
      <g>
       <use style="stroke:#000000;stroke-width:0.5;" x="68.0643828433" xlink:href="#m177f7580d0" y="156.198780937"/>
      </g>
     </g>
     <g id="line2d_23">
      <g>
       <use style="stroke:#000000;stroke-width:0.5;" x="68.0643828433" xlink:href="#m5284c7e2a0" y="12.1987809375"/>
      </g>
     </g>
    </g>
    <g id="xtick_9">
     <g id="line2d_24">
      <g>
       <use style="stroke:#000000;stroke-width:0.5;" x="86.9263546743" xlink:href="#m177f7580d0" y="156.198780937"/>
      </g>
     </g>
     <g id="line2d_25">
      <g>
       <use style="stroke:#000000;stroke-width:0.5;" x="86.9263546743" xlink:href="#m5284c7e2a0" y="12.1987809375"/>
      </g>
     </g>
    </g>
    <g id="xtick_10">
     <g id="line2d_26">
      <g>
       <use style="stroke:#000000;stroke-width:0.5;" x="105.788326505" xlink:href="#m177f7580d0" y="156.198780937"/>
      </g>
     </g>
     <g id="line2d_27">
      <g>
       <use style="stroke:#000000;stroke-width:0.5;" x="105.788326505" xlink:href="#m5284c7e2a0" y="12.1987809375"/>
      </g>
     </g>
    </g>
    <g id="xtick_11">
     <g id="line2d_28">
      <g>
       <use style="stroke:#000000;stroke-width:0.5;" x="124.650298336" xlink:href="#m177f7580d0" y="156.198780937"/>
      </g>
     </g>
     <g id="line2d_29">
      <g>
       <use style="stroke:#000000;stroke-width:0.5;" x="124.650298336" xlink:href="#m5284c7e2a0" y="12.1987809375"/>
      </g>
     </g>
    </g>
    <g id="xtick_12">
     <g id="line2d_30">
      <g>
       <use style="stroke:#000000;stroke-width:0.5;" x="143.512270167" xlink:href="#m177f7580d0" y="156.198780937"/>
      </g>
     </g>
     <g id="line2d_31">
      <g>
       <use style="stroke:#000000;stroke-width:0.5;" x="143.512270167" xlink:href="#m5284c7e2a0" y="12.1987809375"/>
      </g>
     </g>
    </g>
    <g id="xtick_13">
     <g id="line2d_32">
      <g>
       <use style="stroke:#000000;stroke-width:0.5;" x="162.374241998" xlink:href="#m177f7580d0" y="156.198780937"/>
      </g>
     </g>
     <g id="line2d_33">
      <g>
       <use style="stroke:#000000;stroke-width:0.5;" x="162.374241998" xlink:href="#m5284c7e2a0" y="12.1987809375"/>
      </g>
     </g>
    </g>
    <g id="xtick_14">
     <g id="line2d_34">
      <g>
       <use style="stroke:#000000;stroke-width:0.5;" x="181.236213829" xlink:href="#m177f7580d0" y="156.198780937"/>
      </g>
     </g>
     <g id="line2d_35">
      <g>
       <use style="stroke:#000000;stroke-width:0.5;" x="181.236213829" xlink:href="#m5284c7e2a0" y="12.1987809375"/>
      </g>
     </g>
    </g>
    <g id="xtick_15">
     <g id="line2d_36">
      <g>
       <use style="stroke:#000000;stroke-width:0.5;" x="200.09818566" xlink:href="#m177f7580d0" y="156.198780937"/>
      </g>
     </g>
     <g id="line2d_37">
      <g>
       <use style="stroke:#000000;stroke-width:0.5;" x="200.09818566" xlink:href="#m5284c7e2a0" y="12.1987809375"/>
      </g>
     </g>
    </g>
    <g id="xtick_16">
     <g id="line2d_38">
      <g>
       <use style="stroke:#000000;stroke-width:0.5;" x="218.960157491" xlink:href="#m177f7580d0" y="156.198780937"/>
      </g>
     </g>
     <g id="line2d_39">
      <g>
       <use style="stroke:#000000;stroke-width:0.5;" x="218.960157491" xlink:href="#m5284c7e2a0" y="12.1987809375"/>
      </g>
     </g>
    </g>
    <g id="xtick_17">
     <g id="line2d_40">
      <g>
       <use style="stroke:#000000;stroke-width:0.5;" x="237.822129322" xlink:href="#m177f7580d0" y="156.198780937"/>
      </g>
     </g>
     <g id="line2d_41">
      <g>
       <use style="stroke:#000000;stroke-width:0.5;" x="237.822129322" xlink:href="#m5284c7e2a0" y="12.1987809375"/>
      </g>
     </g>
    </g>
    <g id="xtick_18">
     <g id="line2d_42">
      <g>
       <use style="stroke:#000000;stroke-width:0.5;" x="256.684101153" xlink:href="#m177f7580d0" y="156.198780937"/>
      </g>
     </g>
     <g id="line2d_43">
      <g>
       <use style="stroke:#000000;stroke-width:0.5;" x="256.684101153" xlink:href="#m5284c7e2a0" y="12.1987809375"/>
      </g>
     </g>
    </g>
    <g id="xtick_19">
     <g id="line2d_44">
      <g>
       <use style="stroke:#000000;stroke-width:0.5;" x="275.546072984" xlink:href="#m177f7580d0" y="156.198780937"/>
      </g>
     </g>
     <g id="line2d_45">
      <g>
       <use style="stroke:#000000;stroke-width:0.5;" x="275.546072984" xlink:href="#m5284c7e2a0" y="12.1987809375"/>
      </g>
     </g>
    </g>
    <g id="xtick_20">
     <g id="line2d_46">
      <g>
       <use style="stroke:#000000;stroke-width:0.5;" x="294.408044815" xlink:href="#m177f7580d0" y="156.198780937"/>
      </g>
     </g>
     <g id="line2d_47">
      <g>
       <use style="stroke:#000000;stroke-width:0.5;" x="294.408044815" xlink:href="#m5284c7e2a0" y="12.1987809375"/>
      </g>
     </g>
    </g>
    <g id="xtick_21">
     <g id="line2d_48">
      <g>
       <use style="stroke:#000000;stroke-width:0.5;" x="313.270016646" xlink:href="#m177f7580d0" y="156.198780937"/>
      </g>
     </g>
     <g id="line2d_49">
      <g>
       <use style="stroke:#000000;stroke-width:0.5;" x="313.270016646" xlink:href="#m5284c7e2a0" y="12.1987809375"/>
      </g>
     </g>
    </g>
    <g id="xtick_22">
     <g id="line2d_50">
      <g>
       <use style="stroke:#000000;stroke-width:0.5;" x="332.131988477" xlink:href="#m177f7580d0" y="156.198780937"/>
      </g>
     </g>
     <g id="line2d_51">
      <g>
       <use style="stroke:#000000;stroke-width:0.5;" x="332.131988477" xlink:href="#m5284c7e2a0" y="12.1987809375"/>
      </g>
     </g>
    </g>
    <g id="xtick_23">
     <g id="line2d_52">
      <g>
       <use style="stroke:#000000;stroke-width:0.5;" x="350.993960308" xlink:href="#m177f7580d0" y="156.198780937"/>
      </g>
     </g>
     <g id="line2d_53">
      <g>
       <use style="stroke:#000000;stroke-width:0.5;" x="350.993960308" xlink:href="#m5284c7e2a0" y="12.1987809375"/>
      </g>
     </g>
    </g>
    <g id="xtick_24">
     <g id="line2d_54">
      <g>
       <use style="stroke:#000000;stroke-width:0.5;" x="369.855932139" xlink:href="#m177f7580d0" y="156.198780937"/>
      </g>
     </g>
     <g id="line2d_55">
      <g>
       <use style="stroke:#000000;stroke-width:0.5;" x="369.855932139" xlink:href="#m5284c7e2a0" y="12.1987809375"/>
      </g>
     </g>
    </g>
    <g id="xtick_25">
     <g id="line2d_56">
      <g>
       <use style="stroke:#000000;stroke-width:0.5;" x="388.71790397" xlink:href="#m177f7580d0" y="156.198780937"/>
      </g>
     </g>
     <g id="line2d_57">
      <g>
       <use style="stroke:#000000;stroke-width:0.5;" x="388.71790397" xlink:href="#m5284c7e2a0" y="12.1987809375"/>
      </g>
     </g>
    </g>
    <g id="xtick_26">
     <g id="line2d_58">
      <g>
       <use style="stroke:#000000;stroke-width:0.5;" x="407.579875801" xlink:href="#m177f7580d0" y="156.198780937"/>
      </g>
     </g>
     <g id="line2d_59">
      <g>
       <use style="stroke:#000000;stroke-width:0.5;" x="407.579875801" xlink:href="#m5284c7e2a0" y="12.1987809375"/>
      </g>
     </g>
    </g>
    <g id="xtick_27">
     <g id="line2d_60">
      <g>
       <use style="stroke:#000000;stroke-width:0.5;" x="426.441847632" xlink:href="#m177f7580d0" y="156.198780937"/>
      </g>
     </g>
     <g id="line2d_61">
      <g>
       <use style="stroke:#000000;stroke-width:0.5;" x="426.441847632" xlink:href="#m5284c7e2a0" y="12.1987809375"/>
      </g>
     </g>
    </g>
    <g id="xtick_28">
     <g id="line2d_62">
      <g>
       <use style="stroke:#000000;stroke-width:0.5;" x="445.303819463" xlink:href="#m177f7580d0" y="156.198780937"/>
      </g>
     </g>
     <g id="line2d_63">
      <g>
       <use style="stroke:#000000;stroke-width:0.5;" x="445.303819463" xlink:href="#m5284c7e2a0" y="12.1987809375"/>
      </g>
     </g>
    </g>
    <g id="xtick_29">
     <g id="line2d_64">
      <g>
       <use style="stroke:#000000;stroke-width:0.5;" x="464.165791294" xlink:href="#m177f7580d0" y="156.198780937"/>
      </g>
     </g>
     <g id="line2d_65">
      <g>
       <use style="stroke:#000000;stroke-width:0.5;" x="464.165791294" xlink:href="#m5284c7e2a0" y="12.1987809375"/>
      </g>
     </g>
    </g>
    <g id="xtick_30">
     <g id="line2d_66">
      <g>
       <use style="stroke:#000000;stroke-width:0.5;" x="483.027763125" xlink:href="#m177f7580d0" y="156.198780937"/>
      </g>
     </g>
     <g id="line2d_67">
      <g>
       <use style="stroke:#000000;stroke-width:0.5;" x="483.027763125" xlink:href="#m5284c7e2a0" y="12.1987809375"/>
      </g>
     </g>
    </g>
    <g id="text_7">
     <!-- Date -->
     <defs>
      <path d="
M29.6875 -0.984375
Q24.3125 -0.984375 19.875 0.828125
Q15.4375 2.64062 12.2344 6.10938
Q9.03125 9.57812 7.26562 14.7031
Q5.51562 19.8281 5.51562 26.4219
Q5.51562 33.0625 7.125 38.2812
Q8.73438 43.5 11.6562 47.1406
Q14.5938 50.7812 18.6719 52.6875
Q22.75 54.5938 27.6875 54.5938
Q32.5156 54.5938 36.375 52.8594
Q40.2344 51.125 42.9219 47.9688
Q45.6094 44.8281 47.0469 40.4062
Q48.4844 35.9844 48.4844 30.6094
L48.4844 25.0938
L14.7031 25.0938
Q14.9375 15.6719 18.6719 11.2188
Q22.4062 6.78125 29.7812 6.78125
Q32.2812 6.78125 34.4062 7.03125
Q36.5312 7.28125 38.5 7.73438
Q40.4844 8.20312 42.3281 8.90625
Q44.1875 9.625 46.0938 10.5
L46.0938 2.59375
Q44.1406 1.65625 42.25 0.96875
Q40.375 0.296875 38.3906 -0.140625
Q36.4219 -0.59375 34.2969 -0.78125
Q32.1719 -0.984375 29.6875 -0.984375
M27.4844 47.2188
Q21.9219 47.2188 18.6719 43.4062
Q15.4375 39.5938 14.8906 32.3281
L38.9219 32.3281
Q38.9219 35.6406 38.25 38.3906
Q37.5938 41.1562 36.2031 43.1094
Q34.8125 45.0625 32.6562 46.1406
Q30.5156 47.2188 27.4844 47.2188" id="WenQuanYiMicroHei-65"/>
      <path d="
M24.7031 6.29688
Q25.5938 6.29688 26.6875 6.39062
Q27.7812 6.5 28.7969 6.64062
Q29.8281 6.78125 30.6875 6.96875
Q31.5469 7.17188 31.9844 7.32812
L31.9844 0.59375
Q31.3438 0.296875 30.3594 0
Q29.3906 -0.296875 28.2188 -0.515625
Q27.0469 -0.734375 25.7812 -0.859375
Q24.5156 -0.984375 23.2969 -0.984375
Q20.2656 -0.984375 17.6719 -0.1875
Q15.0938 0.59375 13.2031 2.48438
Q11.3281 4.39062 10.25 7.64062
Q9.1875 10.8906 9.1875 15.8281
L9.1875 46.9219
L1.60938 46.9219
L1.60938 50.875
L9.1875 54.6875
L12.9844 65.9219
L18.1094 65.9219
L18.1094 53.6094
L31.5938 53.6094
L31.5938 46.9219
L18.1094 46.9219
L18.1094 15.8281
Q18.1094 11.0781 19.6406 8.6875
Q21.1875 6.29688 24.7031 6.29688" id="WenQuanYiMicroHei-74"/>
      <path d="
M38.7188 0
L36.9219 7.42188
L36.5312 7.42188
Q34.9062 5.21875 33.2969 3.625
Q31.6875 2.04688 29.7812 1.01562
Q27.875 0 25.5312 -0.484375
Q23.1875 -0.984375 20.125 -0.984375
Q16.75 -0.984375 13.9062 -0.03125
Q11.0781 0.921875 9 2.90625
Q6.9375 4.89062 5.76562 7.89062
Q4.59375 10.8906 4.59375 14.9844
Q4.59375 23 10.2344 27.2969
Q15.875 31.5938 27.3906 31.9844
L36.375 32.3281
L36.375 35.6875
Q36.375 38.9688 35.6719 41.1562
Q34.9688 43.3594 33.625 44.7031
Q32.2812 46.0469 30.2969 46.625
Q28.3281 47.2188 25.7812 47.2188
Q21.7344 47.2188 18.2344 46.0469
Q14.75 44.875 11.5312 43.2188
L8.40625 49.9062
Q12.0156 51.8594 16.4531 53.2188
Q20.9062 54.5938 25.7812 54.5938
Q30.7656 54.5938 34.3906 53.5938
Q38.0312 52.5938 40.4062 50.4219
Q42.7812 48.25 43.9531 44.875
Q45.125 41.5 45.125 36.7188
L45.125 0
z

M22.4062 6.20312
Q25.3906 6.20312 27.9219 7.125
Q30.4688 8.0625 32.3281 9.9375
Q34.1875 11.8125 35.2344 14.6719
Q36.2812 17.5312 36.2812 21.3906
L36.2812 26.2188
L29.2969 25.875
Q24.9062 25.6875 21.9219 24.9062
Q18.9531 24.125 17.1562 22.7344
Q15.375 21.3438 14.5938 19.3594
Q13.8125 17.3906 13.8125 14.8906
Q13.8125 10.4062 16.1875 8.29688
Q18.5625 6.20312 22.4062 6.20312" id="WenQuanYiMicroHei-61"/>
      <path d="
M62.3125 36.375
Q62.3125 27.3438 59.9688 20.5312
Q57.625 13.7188 53.1719 9.15625
Q48.7344 4.59375 42.2656 2.29688
Q35.7969 0 27.5938 0
L9.71875 0
L9.71875 71.3906
L29.5938 71.3906
Q37.0625 71.3906 43.1094 69.1406
Q49.1719 66.8906 53.4219 62.4688
Q57.6719 58.0625 59.9844 51.5156
Q62.3125 44.9688 62.3125 36.375
M52.6875 36.0781
Q52.6875 43.2188 51.0781 48.4062
Q49.4688 53.6094 46.3906 56.9844
Q43.3125 60.3594 38.8125 61.9844
Q34.3281 63.625 28.6094 63.625
L18.7969 63.625
L18.7969 7.8125
L26.7031 7.8125
Q39.5938 7.8125 46.1406 14.9375
Q52.6875 22.0781 52.6875 36.0781" id="WenQuanYiMicroHei-44"/>
     </defs>
     <g transform="translate(250.124614687 182.791740937)scale(0.09996 -0.09996)">
      <use xlink:href="#WenQuanYiMicroHei-44"/>
      <use x="68.408203125" xlink:href="#WenQuanYiMicroHei-61"/>
      <use x="121.484375" xlink:href="#WenQuanYiMicroHei-74"/>
      <use x="155.37109375" xlink:href="#WenQuanYiMicroHei-65"/>
     </g>
    </g>
   </g>
   <g id="matplotlib.axis_2">
    <g id="ytick_1">
     <g id="line2d_68">
      <path clip-path="url(#p9e0a4c246a)" d="
M36.6278 156.199
L483.028 156.199" style="fill:none;stroke:#000000;stroke-dasharray:1.000000,3.000000;stroke-dashoffset:0.0;stroke-width:0.5;"/>
     </g>
     <g id="line2d_69">
      <defs>
       <path d="
M0 0
L4 0" id="m728421d6d4" style="stroke:#000000;stroke-width:0.5;"/>
      </defs>
      <g>
       <use style="stroke:#000000;stroke-width:0.5;" x="36.627763125" xlink:href="#m728421d6d4" y="156.198780937"/>
      </g>
     </g>
     <g id="line2d_70">
      <defs>
       <path d="
M0 0
L-4 0" id="mcb0005524f" style="stroke:#000000;stroke-width:0.5;"/>
      </defs>
      <g>
       <use style="stroke:#000000;stroke-width:0.5;" x="483.027763125" xlink:href="#mcb0005524f" y="156.198780937"/>
      </g>
     </g>
     <g id="text_8">
      <!-- 0 -->
      <g transform="translate(28.06865 158.795398125)scale(0.09996 -0.09996)">
       <use xlink:href="#WenQuanYiMicroHei-30"/>
      </g>
     </g>
    </g>
    <g id="ytick_2">
     <g id="line2d_71">
      <path clip-path="url(#p9e0a4c246a)" d="
M36.6278 127.399
L483.028 127.399" style="fill:none;stroke:#000000;stroke-dasharray:1.000000,3.000000;stroke-dashoffset:0.0;stroke-width:0.5;"/>
     </g>
     <g id="line2d_72">
      <g>
       <use style="stroke:#000000;stroke-width:0.5;" x="36.627763125" xlink:href="#m728421d6d4" y="127.398780937"/>
      </g>
     </g>
     <g id="line2d_73">
      <g>
       <use style="stroke:#000000;stroke-width:0.5;" x="483.027763125" xlink:href="#mcb0005524f" y="127.398780937"/>
      </g>
     </g>
     <g id="text_9">
      <!-- 10 -->
      <g transform="translate(22.953509375 129.995398125)scale(0.09996 -0.09996)">
       <use xlink:href="#WenQuanYiMicroHei-31"/>
       <use x="55.078125" xlink:href="#WenQuanYiMicroHei-30"/>
      </g>
     </g>
    </g>
    <g id="ytick_3">
     <g id="line2d_74">
      <path clip-path="url(#p9e0a4c246a)" d="
M36.6278 98.5988
L483.028 98.5988" style="fill:none;stroke:#000000;stroke-dasharray:1.000000,3.000000;stroke-dashoffset:0.0;stroke-width:0.5;"/>
     </g>
     <g id="line2d_75">
      <g>
       <use style="stroke:#000000;stroke-width:0.5;" x="36.627763125" xlink:href="#m728421d6d4" y="98.5987809375"/>
      </g>
     </g>
     <g id="line2d_76">
      <g>
       <use style="stroke:#000000;stroke-width:0.5;" x="483.027763125" xlink:href="#mcb0005524f" y="98.5987809375"/>
      </g>
     </g>
     <g id="text_10">
      <!-- 20 -->
      <g transform="translate(22.553669375 101.195398125)scale(0.09996 -0.09996)">
       <use xlink:href="#WenQuanYiMicroHei-32"/>
       <use x="55.078125" xlink:href="#WenQuanYiMicroHei-30"/>
      </g>
     </g>
    </g>
    <g id="ytick_4">
     <g id="line2d_77">
      <path clip-path="url(#p9e0a4c246a)" d="
M36.6278 69.7988
L483.028 69.7988" style="fill:none;stroke:#000000;stroke-dasharray:1.000000,3.000000;stroke-dashoffset:0.0;stroke-width:0.5;"/>
     </g>
     <g id="line2d_78">
      <g>
       <use style="stroke:#000000;stroke-width:0.5;" x="36.627763125" xlink:href="#m728421d6d4" y="69.7987809375"/>
      </g>
     </g>
     <g id="line2d_79">
      <g>
       <use style="stroke:#000000;stroke-width:0.5;" x="483.027763125" xlink:href="#mcb0005524f" y="69.7987809375"/>
      </g>
     </g>
     <g id="text_11">
      <!-- 30 -->
      <g transform="translate(22.484946875 72.395398125)scale(0.09996 -0.09996)">
       <use xlink:href="#WenQuanYiMicroHei-33"/>
       <use x="55.078125" xlink:href="#WenQuanYiMicroHei-30"/>
      </g>
     </g>
    </g>
    <g id="ytick_5">
     <g id="line2d_80">
      <path clip-path="url(#p9e0a4c246a)" d="
M36.6278 40.9988
L483.028 40.9988" style="fill:none;stroke:#000000;stroke-dasharray:1.000000,3.000000;stroke-dashoffset:0.0;stroke-width:0.5;"/>
     </g>
     <g id="line2d_81">
      <g>
       <use style="stroke:#000000;stroke-width:0.5;" x="36.627763125" xlink:href="#m728421d6d4" y="40.9987809375"/>
      </g>
     </g>
     <g id="line2d_82">
      <g>
       <use style="stroke:#000000;stroke-width:0.5;" x="483.027763125" xlink:href="#mcb0005524f" y="40.9987809375"/>
      </g>
     </g>
     <g id="text_12">
      <!-- 40 -->
      <g transform="translate(22.197561875 43.595398125)scale(0.09996 -0.09996)">
       <use xlink:href="#WenQuanYiMicroHei-34"/>
       <use x="55.078125" xlink:href="#WenQuanYiMicroHei-30"/>
      </g>
     </g>
    </g>
    <g id="ytick_6">
     <g id="line2d_83">
      <path clip-path="url(#p9e0a4c246a)" d="
M36.6278 12.1988
L483.028 12.1988" style="fill:none;stroke:#000000;stroke-dasharray:1.000000,3.000000;stroke-dashoffset:0.0;stroke-width:0.5;"/>
     </g>
     <g id="line2d_84">
      <g>
       <use style="stroke:#000000;stroke-width:0.5;" x="36.627763125" xlink:href="#m728421d6d4" y="12.1987809375"/>
      </g>
     </g>
     <g id="line2d_85">
      <g>
       <use style="stroke:#000000;stroke-width:0.5;" x="483.027763125" xlink:href="#mcb0005524f" y="12.1987809375"/>
      </g>
     </g>
     <g id="text_13">
      <!-- 50 -->
      <g transform="translate(22.72391375 14.795398125)scale(0.09996 -0.09996)">
       <use xlink:href="#WenQuanYiMicroHei-35"/>
       <use x="55.078125" xlink:href="#WenQuanYiMicroHei-30"/>
      </g>
     </g>
    </g>
    <g id="text_14">
     <!-- 提交人数 -->
     <defs>
      <path d="
M33.9844 39.4531
L35.1562 32.4219
Q30.4688 29.6875 25 27.3438
L25 1.5625
Q25 -4.29688 23.2344 -6.64062
Q21.4844 -8.98438 16.7969 -8.98438
Q12.5 -8.98438 8.20312 -7.8125
L6.64062 0.390625
Q10.9375 -1.17188 15.625 -1.17188
Q17.1875 -1.17188 17.1875 3.51562
L17.1875 23.8281
Q12.5 22.2656 7.8125 20.3125
L4.6875 28.5156
Q11.3281 30.4688 17.1875 32.8125
L17.1875 57.0312
L6.25 57.0312
L6.25 64.4531
L17.1875 64.4531
L17.1875 80.8594
L25 80.8594
L25 64.4531
L35.5469 64.4531
L35.5469 57.0312
L25 57.0312
L25 35.5469
z

M40.625 78.9062
L85.9375 78.9062
L85.9375 42.9688
L40.625 42.9688
z

M48.0469 64.4531
L78.5156 64.4531
L78.5156 71.875
L48.0469 71.875
z

M48.0469 50
L78.5156 50
L78.5156 57.4219
L48.0469 57.4219
z

M42.1875 26.9531
L49.2188 25.3906
Q48.4375 18.75 46.0938 12.8906
Q51.1719 5.85938 60.1562 2.73438
L60.1562 29.2969
L33.9844 29.2969
L33.9844 36.3281
L91.0156 36.3281
L91.0156 29.2969
L67.5781 29.2969
L67.5781 18.75
L85.9375 18.75
L85.9375 11.7188
L67.5781 11.7188
L67.5781 1.17188
Q74.6094 0 84.375 0
L94.1406 0
L91.7969 -7.8125
L84.375 -7.8125
Q66.7969 -7.8125 57.8125 -4.48438
Q48.8281 -1.17188 42.9688 5.46875
Q39.0625 -2.73438 33.2031 -8.98438
L27.3438 -3.51562
Q40.2344 10.1562 42.1875 26.9531" id="WenQuanYiMicroHei-63d0"/>
      <path d="
M7.03125 67.9688
L45.3125 67.9688
Q43.3594 73.8281 40.2344 78.5156
L48.4375 81.25
Q51.9531 75 54.2969 67.9688
L92.5781 67.9688
L92.5781 60.5469
L7.03125 60.5469
z

M31.6406 57.8125
L37.8906 52.7344
Q27.7344 40.2344 11.7188 32.4219
L7.03125 39.8438
Q20.7031 46.0938 31.6406 57.8125
M67.9688 57.0312
Q80.8594 49.2188 91.4062 39.0625
L85.5469 32.0312
Q74.6094 43.3594 62.5 51.5625
z

M66.7969 37.8906
L74.2188 34.7656
Q67.9688 22.6562 57.8125 13.6719
Q76.1719 3.125 95.7031 -1.17188
L91.0156 -9.375
Q66.0156 -1.95312 51.1719 8.20312
Q32.4219 -3.90625 8.59375 -9.76562
L4.6875 -1.95312
Q28.9062 3.125 43.75 13.2812
Q32.4219 21.875 23.8281 32.4219
L30.4688 37.5
Q38.6719 26.5625 50.3906 18.3594
Q60.1562 26.5625 66.7969 37.8906" id="WenQuanYiMicroHei-4ea4"/>
      <path d="
M66.7969 64.4531
L92.9688 64.4531
L92.9688 57.0312
L88.6719 57.0312
Q86.3281 29.6875 77.7344 15.625
Q84.7656 6.25 95.7031 -1.5625
L89.8438 -8.98438
Q80.8594 -1.5625 73.0469 8.59375
Q65.2344 -1.95312 53.9062 -9.375
L48.4375 -2.34375
Q60.1562 4.6875 67.9688 16.0156
Q62.5 25.3906 57.8125 37.1094
L54.6875 30.4688
L48.4375 35.1562
Q58.2031 55.8594 62.5 80.8594
L70.3125 78.5156
Q68.75 71.0938 66.7969 64.4531
M80.8594 57.0312
L64.8438 57.0312
Q64.4531 55.0781 62.1094 48.0469
Q66.7969 33.9844 72.6562 23.8281
Q77.7344 34.7656 80.0781 50.3906
L80.0781 50.7812
z

M7.03125 64.0625
L27.3438 64.0625
L27.3438 80.4688
L34.375 80.4688
L34.375 64.0625
L53.125 64.0625
L53.125 57.4219
L34.375 57.4219
L34.375 39.4531
L27.3438 39.4531
L27.3438 51.5625
Q20.7031 42.1875 11.7188 36.3281
L6.64062 42.5781
Q16.4062 47.6562 23.8281 57.4219
L7.03125 57.4219
z

M16.4062 78.9062
Q19.5312 74.2188 21.4844 68.3594
L15.2344 65.2344
Q13.2812 71.0938 10.5469 76.1719
z

M45.3125 78.9062
L51.1719 76.1719
Q47.6562 69.5312 43.75 66.0156
L38.6719 70.7031
Q42.5781 74.2188 45.3125 78.9062
M42.5781 53.9062
Q46.875 49.2188 49.6094 44.1406
L43.75 40.625
Q41.4062 46.0938 37.1094 50.7812
z

M6.64062 31.25
L21.875 31.25
Q23.4375 34.375 24.6094 37.5
L32.0312 36.7188
L29.6875 31.25
L47.2656 31.25
L47.2656 24.6094
Q42.5781 14.4531 35.9375 7.42188
Q42.5781 3.51562 48.0469 0
L43.3594 -7.03125
Q38.2812 -2.73438 30.0781 1.95312
Q21.875 -5.07812 8.20312 -9.375
L5.85938 -2.73438
Q16.0156 0.390625 23.4375 5.46875
Q17.1875 8.98438 9.76562 12.5
Q14.4531 18.75 17.9688 24.6094
L6.64062 24.6094
z

M26.1719 24.6094
Q23.4375 19.5312 20.3125 15.625
L29.6875 10.9375
Q35.5469 17.1875 39.0625 24.6094
z
" id="WenQuanYiMicroHei-6570"/>
      <path d="
M45.3125 78.9062
L53.5156 78.9062
L53.5156 57.4219
Q53.5156 47.6562 62.5 29.6875
Q71.4844 11.7188 95.7031 -0.78125
L91.4062 -8.98438
Q61.3281 6.64062 50.3906 38.2812
Q41.4062 9.375 8.59375 -8.98438
L4.29688 -1.5625
Q45.3125 22.6562 45.3125 57.4219
z
" id="WenQuanYiMicroHei-4eba"/>
     </defs>
     <g transform="translate(14.795398125 103.741741875)rotate(-90.0)scale(0.09996 -0.09996)">
      <use xlink:href="#WenQuanYiMicroHei-63d0"/>
      <use x="100.0" xlink:href="#WenQuanYiMicroHei-4ea4"/>
      <use x="200.0" xlink:href="#WenQuanYiMicroHei-4eba"/>
      <use x="300.0" xlink:href="#WenQuanYiMicroHei-6570"/>
     </g>
    </g>
   </g>
  </g>
 </g>
 <defs>
  <clipPath id="p9e0a4c246a">
   <rect height="144.0" width="446.4" x="36.627763125" y="12.1987809375"/>
  </clipPath>
 </defs>
</svg>
