<?xml version="1.0" encoding="utf-8" standalone="no"?>
<!DOCTYPE svg PUBLIC "-//W3C//DTD SVG 1.1//EN"
  "http://www.w3.org/Graphics/SVG/1.1/DTD/svg11.dtd">
<!-- Created with matplotlib (http://matplotlib.org/) -->
<svg height="278pt" version="1.1" viewBox="0 0 492 278" width="492pt" xmlns="http://www.w3.org/2000/svg" xmlns:xlink="http://www.w3.org/1999/xlink">
 <defs>
  <style type="text/css">
*{stroke-linecap:butt;stroke-linejoin:round;}
  </style>
 </defs>
 <g id="figure_1">
  <g id="patch_1">
   <path d="
M0 278.794
L492.581 278.794
L492.581 0
L0 0
z
" style="fill:#ffffff;"/>
  </g>
  <g id="axes_1">
   <g id="patch_2">
    <path d="
M31.3908 242.599
L477.791 242.599
L477.791 12.1988
L31.3908 12.1988
z
" style="fill:#ffffff;"/>
   </g>
   <g id="patch_3">
    <path clip-path="url(#p692bb12ccc)" d="
M31.3908 242.599
L40.1437 242.599
L40.1437 109.243
L31.3908 109.243
z
" style="fill:#348abd;stroke:#000000;stroke-linejoin:miter;"/>
   </g>
   <g id="patch_4">
    <path clip-path="url(#p692bb12ccc)" d="
M53.2731 242.599
L62.0261 242.599
L62.0261 106.508
L53.2731 106.508
z
" style="fill:#348abd;stroke:#000000;stroke-linejoin:miter;"/>
   </g>
   <g id="patch_5">
    <path clip-path="url(#p692bb12ccc)" d="
M75.1555 242.599
L83.9084 242.599
L83.9084 81.974
L75.1555 81.974
z
" style="fill:#348abd;stroke:#000000;stroke-linejoin:miter;"/>
   </g>
   <g id="patch_6">
    <path clip-path="url(#p692bb12ccc)" d="
M97.0379 242.599
L105.791 242.599
L105.791 51.9506
L97.0379 51.9506
z
" style="fill:#348abd;stroke:#000000;stroke-linejoin:miter;"/>
   </g>
   <g id="patch_7">
    <path clip-path="url(#p692bb12ccc)" d="
M118.92 242.599
L127.673 242.599
L127.673 43.0806
L118.92 43.0806
z
" style="fill:#348abd;stroke:#000000;stroke-linejoin:miter;"/>
   </g>
   <g id="patch_8">
    <path clip-path="url(#p692bb12ccc)" d="
M140.803 242.599
L149.556 242.599
L149.556 72.9357
L140.803 72.9357
z
" style="fill:#348abd;stroke:#000000;stroke-linejoin:miter;"/>
   </g>
   <g id="patch_9">
    <path clip-path="url(#p692bb12ccc)" d="
M162.685 242.599
L171.438 242.599
L171.438 80.1679
L162.685 80.1679
z
" style="fill:#348abd;stroke:#000000;stroke-linejoin:miter;"/>
   </g>
   <g id="patch_10">
    <path clip-path="url(#p692bb12ccc)" d="
M184.567 242.599
L193.32 242.599
L193.32 37.643
L184.567 37.643
z
" style="fill:#348abd;stroke:#000000;stroke-linejoin:miter;"/>
   </g>
   <g id="patch_11">
    <path clip-path="url(#p692bb12ccc)" d="
M206.45 242.599
L215.203 242.599
L215.203 38.5628
L206.45 38.5628
z
" style="fill:#348abd;stroke:#000000;stroke-linejoin:miter;"/>
   </g>
   <g id="patch_12">
    <path clip-path="url(#p692bb12ccc)" d="
M228.332 242.599
L237.085 242.599
L237.085 90.549
L228.332 90.549
z
" style="fill:#348abd;stroke:#000000;stroke-linejoin:miter;"/>
   </g>
   <g id="patch_13">
    <path clip-path="url(#p692bb12ccc)" d="
M250.214 242.599
L258.967 242.599
L258.967 100.65
L250.214 100.65
z
" style="fill:#348abd;stroke:#000000;stroke-linejoin:miter;"/>
   </g>
   <g id="patch_14">
    <path clip-path="url(#p692bb12ccc)" d="
M272.097 242.599
L280.85 242.599
L280.85 115.705
L272.097 115.705
z
" style="fill:#348abd;stroke:#000000;stroke-linejoin:miter;"/>
   </g>
   <g id="patch_15">
    <path clip-path="url(#p692bb12ccc)" d="
M293.979 242.599
L302.732 242.599
L302.732 155.691
L293.979 155.691
z
" style="fill:#348abd;stroke:#000000;stroke-linejoin:miter;"/>
   </g>
   <g id="patch_16">
    <path clip-path="url(#p692bb12ccc)" d="
M315.861 242.599
L324.614 242.599
L324.614 177.822
L315.861 177.822
z
" style="fill:#348abd;stroke:#000000;stroke-linejoin:miter;"/>
   </g>
   <g id="patch_17">
    <path clip-path="url(#p692bb12ccc)" d="
M337.744 242.599
L346.497 242.599
L346.497 190.768
L337.744 190.768
z
" style="fill:#348abd;stroke:#000000;stroke-linejoin:miter;"/>
   </g>
   <g id="patch_18">
    <path clip-path="url(#p692bb12ccc)" d="
M359.626 242.599
L368.379 242.599
L368.379 207.202
L359.626 207.202
z
" style="fill:#348abd;stroke:#000000;stroke-linejoin:miter;"/>
   </g>
   <g id="patch_19">
    <path clip-path="url(#p692bb12ccc)" d="
M381.508 242.599
L390.261 242.599
L390.261 224.92
L381.508 224.92
z
" style="fill:#348abd;stroke:#000000;stroke-linejoin:miter;"/>
   </g>
   <g id="patch_20">
    <path clip-path="url(#p692bb12ccc)" d="
M403.391 242.599
L412.144 242.599
L412.144 236.4
L403.391 236.4
z
" style="fill:#348abd;stroke:#000000;stroke-linejoin:miter;"/>
   </g>
   <g id="patch_21">
    <path clip-path="url(#p692bb12ccc)" d="
M425.273 242.599
L434.026 242.599
L434.026 241.417
L425.273 241.417
z
" style="fill:#348abd;stroke:#000000;stroke-linejoin:miter;"/>
   </g>
   <g id="patch_22">
    <path clip-path="url(#p692bb12ccc)" d="
M447.156 242.599
L455.908 242.599
L455.908 242.47
L447.156 242.47
z
" style="fill:#348abd;stroke:#000000;stroke-linejoin:miter;"/>
   </g>
   <g id="patch_23">
    <path clip-path="url(#p692bb12ccc)" d="
M469.038 242.599
L477.791 242.599
L477.791 242.593
L469.038 242.593
z
" style="fill:#348abd;stroke:#000000;stroke-linejoin:miter;"/>
   </g>
   <g id="patch_24">
    <path clip-path="url(#p692bb12ccc)" d="
M40.1437 242.599
L48.8967 242.599
L48.8967 128.401
L40.1437 128.401
z
" style="fill:#a60628;stroke:#000000;stroke-linejoin:miter;"/>
   </g>
   <g id="patch_25">
    <path clip-path="url(#p692bb12ccc)" d="
M62.0261 242.599
L70.779 242.599
L70.779 127.461
L62.0261 127.461
z
" style="fill:#a60628;stroke:#000000;stroke-linejoin:miter;"/>
   </g>
   <g id="patch_26">
    <path clip-path="url(#p692bb12ccc)" d="
M83.9084 242.599
L92.6614 242.599
L92.6614 103.325
L83.9084 103.325
z
" style="fill:#a60628;stroke:#000000;stroke-linejoin:miter;"/>
   </g>
   <g id="patch_27">
    <path clip-path="url(#p692bb12ccc)" d="
M105.791 242.599
L114.544 242.599
L114.544 71.3073
L105.791 71.3073
z
" style="fill:#a60628;stroke:#000000;stroke-linejoin:miter;"/>
   </g>
   <g id="patch_28">
    <path clip-path="url(#p692bb12ccc)" d="
M127.673 242.599
L136.426 242.599
L136.426 56.1695
L127.673 56.1695
z
" style="fill:#a60628;stroke:#000000;stroke-linejoin:miter;"/>
   </g>
   <g id="patch_29">
    <path clip-path="url(#p692bb12ccc)" d="
M149.556 242.599
L158.308 242.599
L158.308 81.9042
L149.556 81.9042
z
" style="fill:#a60628;stroke:#000000;stroke-linejoin:miter;"/>
   </g>
   <g id="patch_30">
    <path clip-path="url(#p692bb12ccc)" d="
M171.438 242.599
L180.191 242.599
L180.191 87.1354
L171.438 87.1354
z
" style="fill:#a60628;stroke:#000000;stroke-linejoin:miter;"/>
   </g>
   <g id="patch_31">
    <path clip-path="url(#p692bb12ccc)" d="
M193.32 242.599
L202.073 242.599
L202.073 47.1292
L193.32 47.1292
z
" style="fill:#a60628;stroke:#000000;stroke-linejoin:miter;"/>
   </g>
   <g id="patch_32">
    <path clip-path="url(#p692bb12ccc)" d="
M215.203 242.599
L223.956 242.599
L223.956 48.1948
L215.203 48.1948
z
" style="fill:#a60628;stroke:#000000;stroke-linejoin:miter;"/>
   </g>
   <g id="patch_33">
    <path clip-path="url(#p692bb12ccc)" d="
M237.085 242.599
L245.838 242.599
L245.838 96.5088
L237.085 96.5088
z
" style="fill:#a60628;stroke:#000000;stroke-linejoin:miter;"/>
   </g>
   <g id="patch_34">
    <path clip-path="url(#p692bb12ccc)" d="
M258.967 242.599
L267.72 242.599
L267.72 108.43
L258.967 108.43
z
" style="fill:#a60628;stroke:#000000;stroke-linejoin:miter;"/>
   </g>
   <g id="patch_35">
    <path clip-path="url(#p692bb12ccc)" d="
M280.85 242.599
L289.603 242.599
L289.603 119.729
L280.85 119.729
z
" style="fill:#a60628;stroke:#000000;stroke-linejoin:miter;"/>
   </g>
   <g id="patch_36">
    <path clip-path="url(#p692bb12ccc)" d="
M302.732 242.599
L311.485 242.599
L311.485 159.099
L302.732 159.099
z
" style="fill:#a60628;stroke:#000000;stroke-linejoin:miter;"/>
   </g>
   <g id="patch_37">
    <path clip-path="url(#p692bb12ccc)" d="
M324.614 242.599
L333.367 242.599
L333.367 179.633
L324.614 179.633
z
" style="fill:#a60628;stroke:#000000;stroke-linejoin:miter;"/>
   </g>
   <g id="patch_38">
    <path clip-path="url(#p692bb12ccc)" d="
M346.497 242.599
L355.25 242.599
L355.25 189.534
L346.497 189.534
z
" style="fill:#a60628;stroke:#000000;stroke-linejoin:miter;"/>
   </g>
   <g id="patch_39">
    <path clip-path="url(#p692bb12ccc)" d="
M368.379 242.599
L377.132 242.599
L377.132 203.103
L368.379 203.103
z
" style="fill:#a60628;stroke:#000000;stroke-linejoin:miter;"/>
   </g>
   <g id="patch_40">
    <path clip-path="url(#p692bb12ccc)" d="
M390.261 242.599
L399.014 242.599
L399.014 219.751
L390.261 219.751
z
" style="fill:#a60628;stroke:#000000;stroke-linejoin:miter;"/>
   </g>
   <g id="patch_41">
    <path clip-path="url(#p692bb12ccc)" d="
M412.144 242.599
L420.897 242.599
L420.897 232.65
L412.144 232.65
z
" style="fill:#a60628;stroke:#000000;stroke-linejoin:miter;"/>
   </g>
   <g id="patch_42">
    <path clip-path="url(#p692bb12ccc)" d="
M434.026 242.599
L442.779 242.599
L442.779 240.11
L434.026 240.11
z
" style="fill:#a60628;stroke:#000000;stroke-linejoin:miter;"/>
   </g>
   <g id="patch_43">
    <path clip-path="url(#p692bb12ccc)" d="
M455.908 242.599
L464.661 242.599
L464.661 242.24
L455.908 242.24
z
" style="fill:#a60628;stroke:#000000;stroke-linejoin:miter;"/>
   </g>
   <g id="patch_44">
    <path clip-path="url(#p692bb12ccc)" d="
M477.791 242.599
L486.544 242.599
L486.544 242.575
L477.791 242.575
z
" style="fill:#a60628;stroke:#000000;stroke-linejoin:miter;"/>
   </g>
   <g id="patch_45">
    <path d="
M31.3908 12.1988
L477.791 12.1988" style="fill:none;stroke:#000000;stroke-linecap:square;stroke-linejoin:miter;"/>
   </g>
   <g id="patch_46">
    <path d="
M477.791 242.599
L477.791 12.1988" style="fill:none;stroke:#000000;stroke-linecap:square;stroke-linejoin:miter;"/>
   </g>
   <g id="patch_47">
    <path d="
M31.3908 242.599
L477.791 242.599" style="fill:none;stroke:#000000;stroke-linecap:square;stroke-linejoin:miter;"/>
   </g>
   <g id="patch_48">
    <path d="
M31.3908 242.599
L31.3908 12.1988" style="fill:none;stroke:#000000;stroke-linecap:square;stroke-linejoin:miter;"/>
   </g>
   <g id="matplotlib.axis_1">
    <g id="xtick_1">
     <g id="line2d_1">
      <defs>
       <path d="
M0 0
L0 -4" id="m93b0483c22" style="stroke:#000000;stroke-width:0.5;"/>
      </defs>
      <g>
       <use style="stroke:#000000;stroke-width:0.5;" x="40.1437374265" xlink:href="#m93b0483c22" y="242.598780937"/>
      </g>
     </g>
     <g id="line2d_2">
      <defs>
       <path d="
M0 0
L0 4" id="m741efc42ff" style="stroke:#000000;stroke-width:0.5;"/>
      </defs>
      <g>
       <use style="stroke:#000000;stroke-width:0.5;" x="40.1437374265" xlink:href="#m741efc42ff" y="12.1987809375"/>
      </g>
     </g>
     <g id="text_1">
      <!-- 0 -->
      <defs>
       <path d="
M50.3906 35.7969
Q50.3906 27.1562 49.1406 20.3125
Q47.9062 13.4844 45.1406 8.73438
Q42.3906 4 38.0312 1.5
Q33.6875 -0.984375 27.4844 -0.984375
Q21.7344 -0.984375 17.4531 1.5
Q13.1875 4 10.375 8.73438
Q7.5625 13.4844 6.17188 20.3125
Q4.78125 27.1562 4.78125 35.7969
Q4.78125 44.4375 6.03125 51.2656
Q7.28125 58.1094 9.98438 62.8125
Q12.7031 67.5312 17.0156 70.0156
Q21.3438 72.5156 27.4844 72.5156
Q33.2969 72.5156 37.5938 70.0469
Q41.8906 67.5781 44.7188 62.8594
Q47.5625 58.1562 48.9688 51.3125
Q50.3906 44.4844 50.3906 35.7969
M13.8125 35.7969
Q13.8125 28.4688 14.5469 23
Q15.2812 17.5312 16.8906 13.8906
Q18.5 10.25 21.1094 8.42188
Q23.7344 6.59375 27.4844 6.59375
Q31.25 6.59375 33.8906 8.39062
Q36.5312 10.2031 38.2031 13.8125
Q39.8906 17.4375 40.6406 22.9219
Q41.4062 28.4219 41.4062 35.7969
Q41.4062 43.1094 40.6406 48.5781
Q39.8906 54.0469 38.2031 57.6562
Q36.5312 61.2812 33.8906 63.0781
Q31.25 64.8906 27.4844 64.8906
Q23.7344 64.8906 21.1094 63.0781
Q18.5 61.2812 16.8906 57.6562
Q15.2812 54.0469 14.5469 48.5781
Q13.8125 43.1094 13.8125 35.7969" id="WenQuanYiMicroHei-30"/>
      </defs>
      <g transform="translate(37.864180864 254.194179062)scale(0.09996 -0.09996)">
       <use xlink:href="#WenQuanYiMicroHei-30"/>
      </g>
     </g>
    </g>
    <g id="xtick_2">
     <g id="line2d_3">
      <g>
       <use style="stroke:#000000;stroke-width:0.5;" x="127.673149191" xlink:href="#m93b0483c22" y="242.598780937"/>
      </g>
     </g>
     <g id="line2d_4">
      <g>
       <use style="stroke:#000000;stroke-width:0.5;" x="127.673149191" xlink:href="#m741efc42ff" y="12.1987809375"/>
      </g>
     </g>
     <g id="text_2">
      <!-- 20 -->
      <defs>
       <path d="
M49.2188 0
L4.6875 0
L4.6875 7.625
L21.7812 26.2188
Q25.4375 30.1719 28.3125 33.4375
Q31.2031 36.7188 33.2188 39.8438
Q35.25 42.9688 36.3281 46.1094
Q37.4062 49.2656 37.4062 52.9844
Q37.4062 55.8594 36.5781 58.0469
Q35.75 60.25 34.2031 61.7812
Q32.6719 63.3281 30.5625 64.1094
Q28.4688 64.8906 25.875 64.8906
Q21.2344 64.8906 17.5 63.0156
Q13.7656 61.1406 10.4062 58.2031
L5.42188 64.0156
Q7.375 65.7656 9.60938 67.2969
Q11.8594 68.8438 14.4531 69.9688
Q17.0469 71.0938 19.9219 71.75
Q22.7969 72.4062 25.9844 72.4062
Q30.6719 72.4062 34.4531 71.0938
Q38.2344 69.7812 40.8594 67.3125
Q43.5 64.8438 44.9375 61.2969
Q46.3906 57.7656 46.3906 53.3281
Q46.3906 49.1719 45.0938 45.4062
Q43.7969 41.6562 41.5312 38.0156
Q39.2656 34.375 36.1094 30.7031
Q32.9531 27.0469 29.2969 23.0938
L15.5781 8.5
L15.5781 8.10938
L49.2188 8.10938
z
" id="WenQuanYiMicroHei-32"/>
      </defs>
      <g transform="translate(122.636102316 254.194179062)scale(0.09996 -0.09996)">
       <use xlink:href="#WenQuanYiMicroHei-32"/>
       <use x="55.078125" xlink:href="#WenQuanYiMicroHei-30"/>
      </g>
     </g>
    </g>
    <g id="xtick_3">
     <g id="line2d_5">
      <g>
       <use style="stroke:#000000;stroke-width:0.5;" x="215.202560956" xlink:href="#m93b0483c22" y="242.598780937"/>
      </g>
     </g>
     <g id="line2d_6">
      <g>
       <use style="stroke:#000000;stroke-width:0.5;" x="215.202560956" xlink:href="#m741efc42ff" y="12.1987809375"/>
      </g>
     </g>
     <g id="text_3">
      <!-- 40 -->
      <defs>
       <path d="
M53.0781 16.0156
L42.6719 16.0156
L42.6719 0
L34.0781 0
L34.0781 16.0156
L1.125 16.0156
L1.125 23.7812
L33.5 71.7812
L42.6719 71.7812
L42.6719 24.125
L53.0781 24.125
z

M34.0781 24.125
L34.0781 41.5
Q34.0781 44.2344 34.1562 47.2344
Q34.2344 50.25 34.3281 53.0938
Q34.4219 55.9531 34.5469 58.4375
Q34.6719 60.9375 34.7188 62.5938
L34.2812 62.5938
Q33.9375 61.625 33.4219 60.4219
Q32.9062 59.2344 32.2969 58.0312
Q31.6875 56.8438 31.0469 55.7188
Q30.4219 54.5938 29.8906 53.8125
L9.8125 24.125
z
" id="WenQuanYiMicroHei-34"/>
      </defs>
      <g transform="translate(209.987460331 254.194179062)scale(0.09996 -0.09996)">
       <use xlink:href="#WenQuanYiMicroHei-34"/>
       <use x="55.078125" xlink:href="#WenQuanYiMicroHei-30"/>
      </g>
     </g>
    </g>
    <g id="xtick_4">
     <g id="line2d_7">
      <g>
       <use style="stroke:#000000;stroke-width:0.5;" x="302.731972721" xlink:href="#m93b0483c22" y="242.598780937"/>
      </g>
     </g>
     <g id="line2d_8">
      <g>
       <use style="stroke:#000000;stroke-width:0.5;" x="302.731972721" xlink:href="#m741efc42ff" y="12.1987809375"/>
      </g>
     </g>
     <g id="text_4">
      <!-- 60 -->
      <defs>
       <path d="
M5.51562 30.5156
Q5.51562 35.6406 6.03125 40.7188
Q6.54688 45.7969 7.82812 50.4531
Q9.125 55.125 11.375 59.125
Q13.625 63.1406 17.0938 66.0938
Q20.5625 69.0469 25.3906 70.7188
Q30.2188 72.4062 36.7188 72.4062
Q37.6406 72.4062 38.7656 72.3594
Q39.8906 72.3125 41.0312 72.1875
Q42.1875 72.0781 43.2344 71.9062
Q44.2812 71.7344 45.125 71.4844
L45.125 63.9219
Q43.4062 64.5 41.25 64.7969
Q39.1094 65.0938 37.0156 65.0938
Q32.625 65.0938 29.2656 64.0312
Q25.9219 62.9844 23.4844 61.0781
Q21.0469 59.1875 19.4062 56.5469
Q17.7812 53.9062 16.75 50.7031
Q15.7188 47.5156 15.2344 43.8906
Q14.75 40.2812 14.5938 36.375
L15.1875 36.375
Q16.1562 38.1406 17.5469 39.6719
Q18.9531 41.2188 20.7969 42.3125
Q22.6562 43.4062 24.9688 44.0312
Q27.2969 44.6719 30.1719 44.6719
Q34.8125 44.6719 38.5625 43.2344
Q42.3281 41.7969 44.9688 39.0156
Q47.6094 36.2344 49.0469 32.2031
Q50.4844 28.1719 50.4844 23
Q50.4844 17.4375 48.9688 12.9844
Q47.4688 8.54688 44.625 5.4375
Q41.7969 2.34375 37.7969 0.671875
Q33.7969 -0.984375 28.8125 -0.984375
Q23.9219 -0.984375 19.6406 0.921875
Q15.375 2.82812 12.25 6.73438
Q9.125 10.6406 7.3125 16.5469
Q5.51562 22.4688 5.51562 30.5156
M28.7188 6.5
Q31.6406 6.5 34.0469 7.5
Q36.4688 8.5 38.2188 10.5156
Q39.9844 12.5469 40.9375 15.6406
Q41.8906 18.75 41.8906 23
Q41.8906 26.4219 41.0781 29.125
Q40.2812 31.8438 38.6719 33.7344
Q37.0625 35.6406 34.6406 36.6719
Q32.2344 37.7031 29 37.7031
Q25.7344 37.7031 23.0156 36.5469
Q20.3125 35.4062 18.4062 33.5625
Q16.5 31.7344 15.4531 29.3906
Q14.4062 27.0469 14.4062 24.7031
Q14.4062 21.4375 15.3125 18.1875
Q16.2188 14.9375 18 12.3438
Q19.7812 9.76562 22.4531 8.125
Q25.1406 6.5 28.7188 6.5" id="WenQuanYiMicroHei-36"/>
      </defs>
      <g transform="translate(297.736315533 254.194179062)scale(0.09996 -0.09996)">
       <use xlink:href="#WenQuanYiMicroHei-36"/>
       <use x="55.078125" xlink:href="#WenQuanYiMicroHei-30"/>
      </g>
     </g>
    </g>
    <g id="xtick_5">
     <g id="line2d_9">
      <g>
       <use style="stroke:#000000;stroke-width:0.5;" x="390.261384485" xlink:href="#m93b0483c22" y="242.598780937"/>
      </g>
     </g>
     <g id="line2d_10">
      <g>
       <use style="stroke:#000000;stroke-width:0.5;" x="390.261384485" xlink:href="#m741efc42ff" y="12.1987809375"/>
      </g>
     </g>
     <g id="text_5">
      <!-- 80 -->
      <defs>
       <path d="
M27.5938 72.5156
Q31.6875 72.5156 35.3281 71.4375
Q38.9688 70.3594 41.7188 68.2031
Q44.4844 66.0625 46.0938 62.8438
Q47.7031 59.625 47.7031 55.3281
Q47.7031 52.0469 46.7188 49.4062
Q45.75 46.7812 44.0312 44.6562
Q42.3281 42.5312 39.9844 40.8438
Q37.6406 39.1562 34.9062 37.7969
Q37.75 36.2812 40.4531 34.4219
Q43.1719 32.5625 45.2812 30.25
Q47.4062 27.9375 48.7031 25.0469
Q50 22.1719 50 18.6094
Q50 14.1094 48.3594 10.4688
Q46.7344 6.84375 43.7812 4.29688
Q40.8281 1.76562 36.6875 0.390625
Q32.5625 -0.984375 27.5938 -0.984375
Q22.2188 -0.984375 18.0469 0.328125
Q13.875 1.65625 11.0156 4.125
Q8.15625 6.59375 6.65625 10.1562
Q5.17188 13.7188 5.17188 18.2188
Q5.17188 21.875 6.26562 24.7969
Q7.375 27.7344 9.21875 30.0781
Q11.0781 32.4219 13.6094 34.2188
Q16.1562 36.0312 19 37.4062
Q16.6094 38.9219 14.5 40.7031
Q12.4062 42.4844 10.8594 44.6719
Q9.32812 46.875 8.42188 49.5312
Q7.51562 52.2031 7.51562 55.4219
Q7.51562 59.6719 9.15625 62.8594
Q10.7969 66.0625 13.5781 68.2031
Q16.3594 70.3594 20 71.4375
Q23.6406 72.5156 27.5938 72.5156
M13.9219 18.1094
Q13.9219 15.5312 14.7031 13.3594
Q15.4844 11.1875 17.1406 9.64062
Q18.7969 8.10938 21.3281 7.25
Q23.875 6.39062 27.3906 6.39062
Q30.8125 6.39062 33.4219 7.25
Q36.0312 8.10938 37.7812 9.6875
Q39.5469 11.2812 40.4219 13.5156
Q41.3125 15.7656 41.3125 18.5
Q41.3125 21.0469 40.3594 23.0938
Q39.4062 25.1406 37.625 26.8906
Q35.8438 28.6562 33.3438 30.2188
Q30.8594 31.7812 27.7812 33.2969
L26.3125 33.9844
Q20.1719 31.0625 17.0469 27.2656
Q13.9219 23.4844 13.9219 18.1094
M27.4844 65.0938
Q22.3125 65.0938 19.2656 62.5
Q16.2188 59.9062 16.2188 54.9844
Q16.2188 52.2031 17.0625 50.1875
Q17.9219 48.1875 19.4375 46.625
Q20.9531 45.0625 23.0781 43.8125
Q25.2031 42.5781 27.6875 41.4062
Q30.0312 42.4844 32.1094 43.75
Q34.1875 45.0156 35.7188 46.625
Q37.25 48.25 38.125 50.2969
Q39.0156 52.3438 39.0156 54.9844
Q39.0156 59.9062 35.9375 62.5
Q32.8594 65.0938 27.4844 65.0938" id="WenQuanYiMicroHei-38"/>
      </defs>
      <g transform="translate(385.248546673 254.194179062)scale(0.09996 -0.09996)">
       <use xlink:href="#WenQuanYiMicroHei-38"/>
       <use x="55.078125" xlink:href="#WenQuanYiMicroHei-30"/>
      </g>
     </g>
    </g>
    <g id="xtick_6">
     <g id="line2d_11">
      <g>
       <use style="stroke:#000000;stroke-width:0.5;" x="477.79079625" xlink:href="#m93b0483c22" y="242.598780937"/>
      </g>
     </g>
     <g id="line2d_12">
      <g>
       <use style="stroke:#000000;stroke-width:0.5;" x="477.79079625" xlink:href="#m741efc42ff" y="12.1987809375"/>
      </g>
     </g>
     <g id="text_6">
      <!-- 100 -->
      <defs>
       <path d="
M34.7188 0
L26.125 0
L26.125 44.5781
Q26.125 46.6875 26.1406 49.0781
Q26.1719 51.4688 26.2344 53.8281
Q26.3125 56.2031 26.3906 58.375
Q26.4688 60.5469 26.5156 62.2031
Q25.6875 61.3281 25.0469 60.6875
Q24.4219 60.0625 23.75 59.4688
Q23.0938 58.8906 22.3594 58.2188
Q21.625 57.5625 20.6094 56.6875
L13.375 50.7812
L8.6875 56.7812
L27.3906 71.3906
L34.7188 71.3906
z
" id="WenQuanYiMicroHei-31"/>
      </defs>
      <g transform="translate(470.200864687 254.194179062)scale(0.09996 -0.09996)">
       <use xlink:href="#WenQuanYiMicroHei-31"/>
       <use x="55.078125" xlink:href="#WenQuanYiMicroHei-30"/>
       <use x="110.15625" xlink:href="#WenQuanYiMicroHei-30"/>
      </g>
     </g>
    </g>
    <g id="text_7">
     <!-- 年龄 -->
     <defs>
      <path d="
M67.9688 80.8594
L75 78.9062
L73.4375 74.6094
Q83.5938 57.4219 96.0938 47.6562
L91.4062 39.8438
Q81.25 48.0469 69.9219 67.1875
Q62.1094 50.7812 50.7812 40.2344
L45.7031 45.7031
Q60.1562 60.5469 67.9688 80.8594
M70.3125 51.9531
Q75 47.2656 77.7344 41.7969
L70.7031 37.8906
Q68.3594 43.3594 64.0625 48.0469
z

M51.5625 33.2031
L88.6719 33.2031
L88.6719 26.1719
Q83.2031 14.0625 75.7812 3.51562
Q80.0781 0.390625 83.5938 -2.73438
L78.125 -9.375
Q66.7969 1.17188 54.2969 8.20312
L59.375 14.0625
Q64.8438 10.9375 69.5312 7.8125
Q75.7812 16.7969 80.0781 26.1719
L51.5625 26.1719
z

M11.3281 73.8281
L18.3594 73.8281
L18.3594 50.3906
L24.6094 50.3906
L24.6094 81.25
L31.6406 81.25
L31.6406 67.1875
L44.1406 67.1875
L44.1406 60.5469
L31.6406 60.5469
L31.6406 50.3906
L44.5312 50.3906
L44.5312 43.75
L5.07812 43.75
L5.07812 50.3906
L11.3281 50.3906
z

M25.7812 18.3594
Q23.4375 11.7188 20.7031 6.64062
L15.625 10.5469
Q22.2656 24.2188 25.3906 41.4062
L31.6406 39.4531
Q30.0781 32.0312 28.125 25.7812
Q31.6406 20.3125 34.7656 13.6719
L30.4688 8.98438
Q28.5156 14.0625 25.7812 18.3594
M35.9375 36.7188
L42.9688 36.7188
L42.9688 -8.98438
L35.9375 -8.98438
L35.9375 -1.5625
L7.03125 -6.25
L7.03125 36.7188
L14.0625 36.7188
L14.0625 1.5625
L35.9375 5.07812
z
" id="WenQuanYiMicroHei-9f84"/>
      <path d="
M25 82.4219
L32.4219 80.4688
Q30.8594 75.7812 29.2969 71.875
L89.0625 71.875
L89.0625 64.4531
L59.375 64.4531
L59.375 48.4375
L87.1094 48.4375
L87.1094 41.0156
L59.375 41.0156
L59.375 22.6562
L93.75 22.6562
L93.75 15.2344
L59.375 15.2344
L59.375 -8.59375
L51.5625 -8.59375
L51.5625 15.2344
L7.03125 15.2344
L7.03125 22.6562
L18.3594 22.6562
L18.3594 48.4375
L51.5625 48.4375
L51.5625 64.4531
L25.7812 64.4531
Q21.4844 56.6406 18.9375 53.3125
Q16.4062 50 11.7188 45.3125
L5.85938 51.5625
Q18.3594 64.8438 25 82.4219
M51.5625 22.6562
L51.5625 41.0156
L26.1719 41.0156
L26.1719 22.6562
z
" id="WenQuanYiMicroHei-5e74"/>
     </defs>
     <g transform="translate(245.082882187 269.191740937)scale(0.09996 -0.09996)">
      <use xlink:href="#WenQuanYiMicroHei-5e74"/>
      <use x="100.0" xlink:href="#WenQuanYiMicroHei-9f84"/>
     </g>
    </g>
   </g>
   <g id="matplotlib.axis_2">
    <g id="ytick_1">
     <g id="line2d_13">
      <defs>
       <path d="
M0 0
L4 0" id="m728421d6d4" style="stroke:#000000;stroke-width:0.5;"/>
      </defs>
      <g>
       <use style="stroke:#000000;stroke-width:0.5;" x="31.39079625" xlink:href="#m728421d6d4" y="242.598780937"/>
      </g>
     </g>
     <g id="line2d_14">
      <defs>
       <path d="
M0 0
L-4 0" id="mcb0005524f" style="stroke:#000000;stroke-width:0.5;"/>
      </defs>
      <g>
       <use style="stroke:#000000;stroke-width:0.5;" x="477.79079625" xlink:href="#mcb0005524f" y="242.598780937"/>
      </g>
     </g>
     <g id="text_8">
      <!-- 0 -->
      <g transform="translate(22.831683125 245.195398125)scale(0.09996 -0.09996)">
       <use xlink:href="#WenQuanYiMicroHei-30"/>
      </g>
     </g>
    </g>
    <g id="ytick_2">
     <g id="line2d_15">
      <g>
       <use style="stroke:#000000;stroke-width:0.5;" x="31.39079625" xlink:href="#m728421d6d4" y="209.684495223"/>
      </g>
     </g>
     <g id="line2d_16">
      <g>
       <use style="stroke:#000000;stroke-width:0.5;" x="477.79079625" xlink:href="#mcb0005524f" y="209.684495223"/>
      </g>
     </g>
     <g id="text_9">
      <!-- 1 -->
      <g transform="translate(24.7887125 212.281112411)scale(0.09996 -0.09996)">
       <use xlink:href="#WenQuanYiMicroHei-31"/>
      </g>
     </g>
    </g>
    <g id="ytick_3">
     <g id="line2d_17">
      <g>
       <use style="stroke:#000000;stroke-width:0.5;" x="31.39079625" xlink:href="#m728421d6d4" y="176.770209509"/>
      </g>
     </g>
     <g id="line2d_18">
      <g>
       <use style="stroke:#000000;stroke-width:0.5;" x="477.79079625" xlink:href="#mcb0005524f" y="176.770209509"/>
      </g>
     </g>
     <g id="text_10">
      <!-- 2 -->
      <g transform="translate(22.9394525 179.366826696)scale(0.09996 -0.09996)">
       <use xlink:href="#WenQuanYiMicroHei-32"/>
      </g>
     </g>
    </g>
    <g id="ytick_4">
     <g id="line2d_19">
      <g>
       <use style="stroke:#000000;stroke-width:0.5;" x="31.39079625" xlink:href="#m728421d6d4" y="143.855923795"/>
      </g>
     </g>
     <g id="line2d_20">
      <g>
       <use style="stroke:#000000;stroke-width:0.5;" x="477.79079625" xlink:href="#mcb0005524f" y="143.855923795"/>
      </g>
     </g>
     <g id="text_11">
      <!-- 3 -->
      <defs>
       <path d="
M46.9219 54.6875
Q46.9219 51.125 45.7969 48.1875
Q44.6719 45.2656 42.6406 43.1094
Q40.625 40.9688 37.7969 39.5781
Q34.9688 38.1875 31.5 37.5938
L31.5 37.3125
Q40.1406 36.2344 44.625 31.8125
Q49.125 27.3906 49.125 20.3125
Q49.125 15.625 47.5312 11.7188
Q45.9531 7.8125 42.7188 4.98438
Q39.5 2.15625 34.5625 0.578125
Q29.6406 -0.984375 22.9062 -0.984375
Q17.5781 -0.984375 12.8594 -0.140625
Q8.15625 0.6875 4 2.875
L4 11.1875
Q8.25 8.9375 13.2031 7.71875
Q18.1719 6.5 22.7031 6.5
Q27.2031 6.5 30.4688 7.46875
Q33.7344 8.45312 35.8594 10.25
Q37.9844 12.0625 38.9844 14.6875
Q39.9844 17.3281 39.9844 20.6094
Q39.9844 23.9219 38.6875 26.2812
Q37.4062 28.6562 35.0156 30.1875
Q32.625 31.7344 29.1719 32.4688
Q25.7344 33.2031 21.3906 33.2031
L14.8906 33.2031
L14.8906 40.5781
L21.3906 40.5781
Q25.3438 40.5781 28.4219 41.5469
Q31.5 42.5312 33.5625 44.3281
Q35.6406 46.1406 36.7188 48.625
Q37.7969 51.125 37.7969 54.1094
Q37.7969 56.6406 36.9062 58.6406
Q36.0312 60.6406 34.4219 62.0312
Q32.8125 63.4219 30.5625 64.1562
Q28.3281 64.8906 25.5938 64.8906
Q20.3594 64.8906 16.375 63.25
Q12.4062 61.625 8.79688 58.9844
L4.29688 65.0938
Q6.15625 66.6094 8.42188 67.9219
Q10.6875 69.2344 13.375 70.2344
Q16.0625 71.2344 19.1094 71.8125
Q22.1719 72.4062 25.5938 72.4062
Q30.8594 72.4062 34.8281 71.0938
Q38.8125 69.7812 41.5 67.4062
Q44.1875 65.0469 45.5469 61.7969
Q46.9219 58.5469 46.9219 54.6875" id="WenQuanYiMicroHei-33"/>
      </defs>
      <g transform="translate(22.88010125 146.452540982)scale(0.09996 -0.09996)">
       <use xlink:href="#WenQuanYiMicroHei-33"/>
      </g>
     </g>
    </g>
    <g id="ytick_5">
     <g id="line2d_21">
      <g>
       <use style="stroke:#000000;stroke-width:0.5;" x="31.39079625" xlink:href="#m728421d6d4" y="110.94163808"/>
      </g>
     </g>
     <g id="line2d_22">
      <g>
       <use style="stroke:#000000;stroke-width:0.5;" x="477.79079625" xlink:href="#mcb0005524f" y="110.94163808"/>
      </g>
     </g>
     <g id="text_12">
      <!-- 4 -->
      <g transform="translate(22.197561875 113.538255268)scale(0.09996 -0.09996)">
       <use xlink:href="#WenQuanYiMicroHei-34"/>
      </g>
     </g>
    </g>
    <g id="ytick_6">
     <g id="line2d_23">
      <g>
       <use style="stroke:#000000;stroke-width:0.5;" x="31.39079625" xlink:href="#m728421d6d4" y="78.0273523661"/>
      </g>
     </g>
     <g id="line2d_24">
      <g>
       <use style="stroke:#000000;stroke-width:0.5;" x="477.79079625" xlink:href="#mcb0005524f" y="78.0273523661"/>
      </g>
     </g>
     <g id="text_13">
      <!-- 5 -->
      <defs>
       <path d="
M26.6094 43.7969
Q31.4531 43.7969 35.625 42.4531
Q39.7969 41.1094 42.8906 38.4688
Q46 35.8438 47.75 31.9375
Q49.5156 28.0312 49.5156 22.9062
Q49.5156 17.3281 47.8438 12.8906
Q46.1875 8.45312 42.9219 5.375
Q39.6562 2.29688 34.8438 0.65625
Q30.0312 -0.984375 23.7812 -0.984375
Q21.2969 -0.984375 18.875 -0.734375
Q16.4531 -0.484375 14.2344 -0.015625
Q12.0156 0.4375 10.0156 1.17188
Q8.01562 1.90625 6.39062 2.875
L6.39062 11.2812
Q8.01562 10.1562 10.1875 9.28125
Q12.3594 8.40625 14.75 7.8125
Q17.1406 7.23438 19.5469 6.90625
Q21.9688 6.59375 24.0312 6.59375
Q27.875 6.59375 30.9062 7.5
Q33.9375 8.40625 36.0312 10.2969
Q38.1406 12.2031 39.25 15.0781
Q40.375 17.9688 40.375 21.9219
Q40.375 28.9062 36.0781 32.5938
Q31.7812 36.2812 23.5781 36.2812
Q22.2656 36.2812 20.7188 36.1562
Q19.1875 36.0312 17.6406 35.8281
Q16.1094 35.6406 14.7188 35.4219
Q13.3281 35.2031 12.3125 35.0156
L7.90625 37.7969
L10.5938 71.3906
L44.2812 71.3906
L44.2812 63.2812
L18.3125 63.2812
L16.4062 42.8281
Q17.9688 43.1094 20.5312 43.4531
Q23.0938 43.7969 26.6094 43.7969" id="WenQuanYiMicroHei-35"/>
      </defs>
      <g transform="translate(23.08002125 80.6239695536)scale(0.09996 -0.09996)">
       <use xlink:href="#WenQuanYiMicroHei-35"/>
      </g>
     </g>
    </g>
    <g id="ytick_7">
     <g id="line2d_25">
      <g>
       <use style="stroke:#000000;stroke-width:0.5;" x="31.39079625" xlink:href="#m728421d6d4" y="45.1130666518"/>
      </g>
     </g>
     <g id="line2d_26">
      <g>
       <use style="stroke:#000000;stroke-width:0.5;" x="477.79079625" xlink:href="#mcb0005524f" y="45.1130666518"/>
      </g>
     </g>
     <g id="text_14">
      <!-- 6 -->
      <g transform="translate(22.89572 47.7096838393)scale(0.09996 -0.09996)">
       <use xlink:href="#WenQuanYiMicroHei-36"/>
      </g>
     </g>
    </g>
    <g id="ytick_8">
     <g id="line2d_27">
      <g>
       <use style="stroke:#000000;stroke-width:0.5;" x="31.39079625" xlink:href="#m728421d6d4" y="12.1987809375"/>
      </g>
     </g>
     <g id="line2d_28">
      <g>
       <use style="stroke:#000000;stroke-width:0.5;" x="477.79079625" xlink:href="#mcb0005524f" y="12.1987809375"/>
      </g>
     </g>
     <g id="text_15">
      <!-- 7 -->
      <defs>
       <path d="
M13.7188 0
L41.2188 63.2812
L4.39062 63.2812
L4.39062 71.3906
L50.2969 71.3906
L50.2969 64.3125
L23.1875 0
z
" id="WenQuanYiMicroHei-37"/>
      </defs>
      <g transform="translate(22.8020075 14.795398125)scale(0.09996 -0.09996)">
       <use xlink:href="#WenQuanYiMicroHei-37"/>
      </g>
     </g>
    </g>
    <g id="text_16">
     <!-- 人口（千万） -->
     <defs>
      <path d="
M45.3125 78.9062
L53.5156 78.9062
L53.5156 57.4219
Q53.5156 47.6562 62.5 29.6875
Q71.4844 11.7188 95.7031 -0.78125
L91.4062 -8.98438
Q61.3281 6.64062 50.3906 38.2812
Q41.4062 9.375 8.59375 -8.98438
L4.29688 -1.5625
Q45.3125 22.6562 45.3125 57.4219
z
" id="WenQuanYiMicroHei-4eba"/>
      <path d="
M64.0625 71.4844
L73.4375 71.4844
Q47.6562 55.8594 47.6562 27.3438
Q47.6562 -0.390625 73.4375 -15.625
L64.0625 -15.625
Q52.7344 -10.5469 45.5 1.35938
Q38.2812 13.2812 38.2812 27.3438
Q38.2812 41.7969 45.5 53.7031
Q52.7344 65.625 64.0625 71.4844" id="WenQuanYiMicroHei-ff08"/>
      <path d="
M35.9375 -15.625
L26.5625 -15.625
Q52.3438 -0.390625 52.3438 27.3438
Q52.3438 55.8594 26.5625 71.4844
L35.9375 71.4844
Q47.2656 65.625 54.4844 53.7031
Q61.7188 41.7969 61.7188 27.3438
Q61.7188 13.2812 54.4844 1.35938
Q47.2656 -10.5469 35.9375 -15.625" id="WenQuanYiMicroHei-ff09"/>
      <path d="
M84.375 73.4375
L84.375 -7.8125
L76.5625 -7.8125
L76.5625 0.78125
L23.4375 0.78125
L23.4375 -7.8125
L16.0156 -7.8125
L16.0156 73.4375
z

M23.4375 8.20312
L76.5625 8.20312
L76.5625 66.0156
L23.4375 66.0156
z
" id="WenQuanYiMicroHei-53e3"/>
      <path d="
M31.6406 67.9688
L6.25 67.9688
L6.25 75.3906
L93.3594 75.3906
L93.3594 67.9688
L39.4531 67.9688
Q39.4531 57.4219 38.6719 49.2188
L82.8125 49.2188
Q82.8125 8.20312 79.875 0.390625
Q76.9531 -7.42188 68.3594 -7.42188
Q63.6719 -7.42188 56.6406 -5.85938
L55.4688 1.5625
Q62.5 0 67.1875 0
Q70.7031 0 72.4531 4.6875
Q74.2188 9.375 75 41.7969
L38.2812 41.7969
Q36.7188 23.8281 30.6562 12.2969
Q24.6094 0.78125 11.3281 -8.98438
L5.85938 -2.73438
Q16.7969 4.29688 24.2188 17.1875
Q31.6406 30.0781 31.6406 67.9688" id="WenQuanYiMicroHei-4e07"/>
      <path d="
M80.8594 78.9062
L87.5 71.875
Q78.5156 69.5312 53.9062 66.7969
L53.9062 42.5781
L93.75 42.5781
L93.75 35.1562
L53.9062 35.1562
L53.9062 -9.375
L46.0938 -9.375
L46.0938 35.1562
L6.64062 35.1562
L6.64062 42.5781
L46.0938 42.5781
L46.0938 65.625
Q33.2031 64.4531 16.0156 63.2812
L10.9375 71.0938
Q57.8125 74.6094 80.8594 78.9062" id="WenQuanYiMicroHei-5343"/>
     </defs>
     <g transform="translate(14.795398125 155.25872625)rotate(-90.0)scale(0.09996 -0.09996)">
      <use xlink:href="#WenQuanYiMicroHei-4eba"/>
      <use x="100.0" xlink:href="#WenQuanYiMicroHei-53e3"/>
      <use x="200.0" xlink:href="#WenQuanYiMicroHei-ff08"/>
      <use x="300.0" xlink:href="#WenQuanYiMicroHei-5343"/>
      <use x="400.0" xlink:href="#WenQuanYiMicroHei-4e07"/>
      <use x="500.0" xlink:href="#WenQuanYiMicroHei-ff09"/>
     </g>
    </g>
   </g>
   <g id="legend_1">
    <g id="patch_49">
     <path d="
M427.826 50.1867
L472.793 50.1867
L472.793 17.1968
L427.826 17.1968
z
" style="fill:#ffffff;stroke:#000000;stroke-linejoin:miter;"/>
    </g>
    <g id="patch_50">
     <path d="
M431.825 28.7906
L451.817 28.7906
L451.817 21.7934
L431.825 21.7934
z
" style="fill:#348abd;stroke:#000000;stroke-linejoin:miter;"/>
    </g>
    <g id="text_17">
     <!-- 男 -->
     <defs>
      <path d="
M14.8438 77.3438
L86.3281 77.3438
L86.3281 38.6719
L14.8438 38.6719
z

M22.6562 60.9375
L46.4844 60.9375
L46.4844 69.9219
L22.6562 69.9219
z

M54.2969 69.9219
L54.2969 60.9375
L78.5156 60.9375
L78.5156 69.9219
z

M22.6562 45.7031
L46.4844 45.7031
L46.4844 54.6875
L22.6562 54.6875
z

M54.2969 54.6875
L54.2969 45.7031
L78.5156 45.7031
L78.5156 54.6875
z

M43.3594 35.5469
L51.5625 35.5469
Q51.1719 32.0312 50.3906 29.2969
L88.2812 29.2969
Q87.5 4.6875 84.1719 -1.35938
Q80.8594 -7.42188 73.0469 -7.42188
Q68.75 -7.42188 60.1562 -6.64062
L58.5938 0.390625
Q67.9688 -0.390625 72.6562 -0.390625
Q76.5625 -0.390625 78.125 3.3125
Q79.6875 7.03125 80.4688 21.875
L48.4375 21.875
Q41.4062 -1.95312 10.5469 -8.59375
L5.07812 -1.17188
Q33.5938 4.29688 39.8438 21.875
L8.98438 21.875
L8.98438 29.2969
L42.1875 29.2969
Q42.9688 32.0312 43.3594 35.5469" id="WenQuanYiMicroHei-7537"/>
     </defs>
     <g transform="translate(459.813615 28.7905790625)scale(0.09996 -0.09996)">
      <use xlink:href="#WenQuanYiMicroHei-7537"/>
     </g>
    </g>
    <g id="patch_51">
     <path d="
M431.825 43.7861
L451.817 43.7861
L451.817 36.7889
L431.825 36.7889
z
" style="fill:#a60628;stroke:#000000;stroke-linejoin:miter;"/>
    </g>
    <g id="text_18">
     <!-- 女 -->
     <defs>
      <path d="
M5.07812 61.7188
L34.7656 61.7188
Q38.6719 71.4844 41.7969 80.8594
L50 80.0781
Q46.875 69.9219 43.75 61.7188
L94.9219 61.7188
L94.9219 54.2969
L76.9531 54.2969
Q71.875 28.5156 60.9375 15.625
Q76.9531 7.42188 91.0156 -1.5625
L85.5469 -9.375
Q74.2188 -0.390625 54.6875 9.76562
Q38.2812 -4.29688 14.4531 -9.375
L10.1562 -1.5625
Q33.5938 3.51562 46.875 13.6719
Q33.9844 19.9219 18.75 26.9531
Q25.7812 40.625 31.6406 54.2969
L5.07812 54.2969
z

M41.0156 54.2969
Q35.5469 40.2344 29.6875 30.4688
Q41.7969 25.3906 52.7344 19.9219
Q64.4531 32.4219 68.3594 54.2969
z
" id="WenQuanYiMicroHei-5973"/>
     </defs>
     <g transform="translate(459.813615 43.7861409375)scale(0.09996 -0.09996)">
      <use xlink:href="#WenQuanYiMicroHei-5973"/>
     </g>
    </g>
   </g>
  </g>
 </g>
 <defs>
  <clipPath id="p692bb12ccc">
   <rect height="230.4" width="446.4" x="31.39079625" y="12.1987809375"/>
  </clipPath>
 </defs>
</svg>
