<?xml version="1.0" encoding="utf-8" standalone="no"?>
<!DOCTYPE svg PUBLIC "-//W3C//DTD SVG 1.1//EN"
  "http://www.w3.org/Graphics/SVG/1.1/DTD/svg11.dtd">
<!-- Created with matplotlib (http://matplotlib.org/) -->
<svg height="263pt" version="1.1" viewBox="0 0 483 263" width="483pt" xmlns="http://www.w3.org/2000/svg" xmlns:xlink="http://www.w3.org/1999/xlink">
 <defs>
  <style type="text/css">
*{stroke-linecap:butt;stroke-linejoin:round;}
  </style>
 </defs>
 <g id="figure_1">
  <g id="patch_1">
   <path d="
M0 263.796
L483.991 263.796
L483.991 -5.68434e-14
L0 -5.68434e-14
z
" style="fill:#ffffff;"/>
  </g>
  <g id="axes_1">
   <g id="patch_2">
    <path d="
M24.2135 242.599
L470.614 242.599
L470.614 12.1988
L24.2135 12.1988
z
" style="fill:#ffffff;"/>
   </g>
   <g id="PathCollection_1">
    <defs>
     <path d="
M5.51916e-16 -9.01348
L-2.649 -3.64603
L-8.57233 -2.78532
L-4.28616 1.39266
L-5.29799 7.29206
L-8.27875e-16 4.50674
L5.29799 7.29206
L4.28616 1.39266
L8.57233 -2.78532
L2.649 -3.64603
z
" id="C0_0_ca9829af32"/>
     <path d="
M2.00685e-16 -3.27743
L-0.963212 -1.32575
L-3.11702 -1.01278
L-1.55851 0.50639
L-1.92642 2.65149
L-3.01027e-16 1.63871
L1.92642 2.65149
L1.55851 0.50639
L3.11702 -1.01278
L0.963212 -1.32575
z
" id="C0_1_05db049722"/>
     <path d="
M6.637e-16 -10.839
L-3.18552 -4.38449
L-10.3085 -3.34945
L-5.15427 1.67472
L-6.37103 8.76897
L-9.9555e-16 5.41952
L6.37103 8.76897
L5.15427 1.67472
L10.3085 -3.34945
L3.18552 -4.38449
z
" id="C0_2_0e97893694"/>
     <path d="
M3.18382e-16 -5.19958
L-1.52812 -2.10327
L-4.94509 -1.60676
L-2.47255 0.803379
L-3.05623 4.20654
L-4.77573e-16 2.59979
L3.05623 4.20654
L2.47255 0.803379
L4.94509 -1.60676
L1.52812 -2.10327
z
" id="C0_3_077e77f6d0"/>
     <path d="
M2.08689e-16 -3.40815
L-1.00163 -1.37862
L-3.24134 -1.05318
L-1.62067 0.526588
L-2.00326 2.75725
L-3.13033e-16 1.70407
L2.00326 2.75725
L1.62067 0.526588
L3.24134 -1.05318
L1.00163 -1.37862
z
" id="C0_4_f1049da794"/>
     <path d="
M8.50647e-16 -13.8921
L-4.08279 -5.61948
L-13.2122 -4.2929
L-6.6061 2.14645
L-8.16559 11.239
L-1.27597e-15 6.94606
L8.16559 11.239
L6.6061 2.14645
L13.2122 -4.2929
L4.08279 -5.61948
z
" id="C0_5_6ff53ab01a"/>
     <path d="
M7.50905e-16 -12.2632
L-3.60407 -4.96057
L-11.663 -3.78954
L-5.8315 1.89477
L-7.20813 9.92114
L-1.12636e-15 6.1316
L7.20813 9.92114
L5.8315 1.89477
L11.663 -3.78954
L3.60407 -4.96057
z
" id="C0_6_c74058eead"/>
     <path d="
M9.16197e-16 -14.9626
L-4.39741 -6.05251
L-14.2303 -4.62371
L-7.11515 2.31185
L-8.79482 12.105
L-1.3743e-15 7.48132
L8.79482 12.105
L7.11515 2.31185
L14.2303 -4.62371
L4.39741 -6.05251
z
" id="C0_7_bcc8f464f2"/>
     <path d="
M5.56137e-16 -9.08241
L-2.66925 -3.67391
L-8.63788 -2.80662
L-4.31894 1.40331
L-5.33851 7.34782
L-8.34206e-16 4.5412
L5.33851 7.34782
L4.31894 1.40331
L8.63788 -2.80662
L2.66925 -3.67391
z
" id="C0_8_0c61e76f82"/>
     <path d="
M9.2175e-16 -15.0533
L-4.42406 -6.08919
L-14.3166 -4.65173
L-7.15828 2.32587
L-8.84812 12.1784
L-1.38262e-15 7.52666
L8.84812 12.1784
L7.15828 2.32587
L14.3166 -4.65173
L4.42406 -6.08919
z
" id="C0_9_c9b55f86a2"/>
     <path d="
M9.00933e-16 -14.7134
L-4.32415 -5.95168
L-13.9932 -4.54668
L-6.99662 2.27334
L-8.64829 11.9034
L-1.3514e-15 7.35668
L8.64829 11.9034
L6.99662 2.27334
L13.9932 -4.54668
L4.32415 -5.95168
z
" id="C0_a_30e19056be"/>
     <path d="
M4.89058e-16 -7.98692
L-2.3473 -3.23078
L-7.59601 -2.46809
L-3.798 1.23405
L-4.69459 6.46155
L-7.33586e-16 3.99346
L4.69459 6.46155
L3.798 1.23405
L7.59601 -2.46809
L2.3473 -3.23078
z
" id="C0_b_dd5814f90b"/>
     <path d="
M4.00301e-16 -6.53741
L-1.9213 -2.64444
L-6.21745 -2.02017
L-3.10872 1.01009
L-3.8426 5.28888
L-6.00452e-16 3.26871
L3.8426 5.28888
L3.10872 1.01009
L6.21745 -2.02017
L1.9213 -2.64444
z
" id="C0_c_e37f282380"/>
     <path d="
M4.41875e-16 -7.21637
L-2.12084 -2.91908
L-6.86318 -2.22998
L-3.43159 1.11499
L-4.24168 5.83817
L-6.62813e-16 3.60819
L4.24168 5.83817
L3.43159 1.11499
L6.86318 -2.22998
L2.12084 -2.91908
z
" id="C0_d_996b26af51"/>
     <path d="
M3.55695e-16 -5.80895
L-1.70721 -2.34977
L-5.52464 -1.79506
L-2.76232 0.897532
L-3.41441 4.69954
L-5.33543e-16 2.90447
L3.41441 4.69954
L2.76232 0.897532
L5.52464 -1.79506
L1.70721 -2.34977
z
" id="C0_e_4f6de46b80"/>
     <path d="
M6.22218e-16 -10.1616
L-2.98642 -4.11045
L-9.66425 -3.1401
L-4.83212 1.57005
L-5.97283 8.2209
L-9.33327e-16 5.0808
L5.97283 8.2209
L4.83212 1.57005
L9.66425 -3.1401
L2.98642 -4.11045
z
" id="C0_f_a019b7bad6"/>
     <path d="
M7.08555e-16 -11.5716
L-3.4008 -4.6808
L-11.0052 -3.57581
L-5.50261 1.78791
L-6.8016 9.3616
L-1.06283e-15 5.78579
L6.8016 9.3616
L5.50261 1.78791
L11.0052 -3.57581
L3.4008 -4.6808
z
" id="C0_10_d3ff91ae61"/>
     <path d="
M8.70589e-16 -14.2178
L-4.17851 -5.75122
L-13.5219 -4.39354
L-6.76096 2.19677
L-8.35701 11.5024
L-1.30588e-15 7.1089
L8.35701 11.5024
L6.76096 2.19677
L13.5219 -4.39354
L4.17851 -5.75122
z
" id="C0_11_d3d6de0f51"/>
     <path d="
M4.8171e-16 -7.86693
L-2.31203 -3.18224
L-7.48189 -2.43101
L-3.74095 1.21551
L-4.62406 6.36448
L-7.22566e-16 3.93346
L4.62406 6.36448
L3.74095 1.21551
L7.48189 -2.43101
L2.31203 -3.18224
z
" id="C0_12_9bcc8a120e"/>
     <path d="
M4.47021e-16 -7.30041
L-2.14554 -2.95308
L-6.94311 -2.25595
L-3.47155 1.12798
L-4.29108 5.90616
L-6.70532e-16 3.65021
L4.29108 5.90616
L3.47155 1.12798
L6.94311 -2.25595
L2.14554 -2.95308
z
" id="C0_13_231f9beb25"/>
     <path d="
M8.54946e-16 -13.9623
L-4.10342 -5.64788
L-13.279 -4.31459
L-6.63948 2.1573
L-8.20685 11.2958
L-1.28242e-15 6.98116
L8.20685 11.2958
L6.63948 2.1573
L13.279 -4.31459
L4.10342 -5.64788
z
" id="C0_14_f0f8782e58"/>
     <path d="
M8.5975e-16 -14.0408
L-4.12648 -5.67961
L-13.3536 -4.33884
L-6.67679 2.16942
L-8.25296 11.3592
L-1.28962e-15 7.02039
L8.25296 11.3592
L6.67679 2.16942
L13.3536 -4.33884
L4.12648 -5.67961
z
" id="C0_15_2c240f6452"/>
     <path d="
M8.19577e-16 -13.3847
L-3.93367 -5.41423
L-12.7296 -4.1361
L-6.36481 2.06805
L-7.86733 10.8285
L-1.22937e-15 6.69235
L7.86733 10.8285
L6.36481 2.06805
L12.7296 -4.1361
L3.93367 -5.41423
z
" id="C0_16_0f0a1a4899"/>
     <path d="
M4.17454e-16 -6.81754
L-2.00362 -2.75775
L-6.48386 -2.10673
L-3.24193 1.05337
L-4.00725 5.5155
L-6.26181e-16 3.40877
L4.00725 5.5155
L3.24193 1.05337
L6.48386 -2.10673
L2.00362 -2.75775
z
" id="C0_17_5ef121bdaf"/>
     <path d="
M4.41497e-16 -7.21019
L-2.11902 -2.91658
L-6.85729 -2.22807
L-3.42865 1.11404
L-4.23804 5.83316
L-6.62245e-16 3.60509
L4.23804 5.83316
L3.42865 1.11404
L6.85729 -2.22807
L2.11902 -2.91658
z
" id="C0_18_6b6d9b38f3"/>
     <path d="
M5.49751e-16 -8.97811
L-2.6386 -3.63172
L-8.53869 -2.77439
L-4.26934 1.38719
L-5.2772 7.26344
L-8.24626e-16 4.48905
L5.2772 7.26344
L4.26934 1.38719
L8.53869 -2.77439
L2.6386 -3.63172
z
" id="C0_19_76bd194c95"/>
     <path d="
M5.60237e-16 -9.14936
L-2.68893 -3.70099
L-8.70156 -2.82731
L-4.35078 1.41365
L-5.37786 7.40199
L-8.40355e-16 4.57468
L5.37786 7.40199
L4.35078 1.41365
L8.70156 -2.82731
L2.68893 -3.70099
z
" id="C0_1a_f72953964a"/>
     <path d="
M4.73432e-16 -7.73174
L-2.2723 -3.12755
L-7.35332 -2.38924
L-3.67666 1.19462
L-4.5446 6.25511
L-7.10149e-16 3.86587
L4.5446 6.25511
L3.67666 1.19462
L7.35332 -2.38924
L2.2723 -3.12755
z
" id="C0_1b_78bf3f3646"/>
     <path d="
M6.22118e-16 -10.16
L-2.98594 -4.10979
L-9.6627 -3.1396
L-4.83135 1.5698
L-5.97188 8.21958
L-9.33177e-16 5.07998
L5.97188 8.21958
L4.83135 1.5698
L9.6627 -3.1396
L2.98594 -4.10979
z
" id="C0_1c_45bed35dd8"/>
     <path d="
M2.51348e-16 -4.10482
L-1.20638 -1.66044
L-3.90392 -1.26846
L-1.95196 0.63423
L-2.41275 3.32087
L-3.77022e-16 2.05241
L2.41275 3.32087
L1.95196 0.63423
L3.90392 -1.26846
L1.20638 -1.66044
z
" id="C0_1d_bc1fa780ce"/>
     <path d="
M8.92092e-16 -14.569
L-4.28171 -5.89327
L-13.8559 -4.50206
L-6.92795 2.25103
L-8.56342 11.7865
L-1.33814e-15 7.28448
L8.56342 11.7865
L6.92795 2.25103
L13.8559 -4.50206
L4.28171 -5.89327
z
" id="C0_1e_539920a552"/>
     <path d="
M8.1455e-16 -13.3026
L-3.90954 -5.38102
L-12.6515 -4.11073
L-6.32577 2.05537
L-7.81908 10.762
L-1.22182e-15 6.6513
L7.81908 10.762
L6.32577 2.05537
L12.6515 -4.11073
L3.90954 -5.38102
z
" id="C0_1f_abede7e800"/>
     <path d="
M6.57945e-16 -10.7451
L-3.15789 -4.34647
L-10.2192 -3.3204
L-5.10958 1.6602
L-6.31578 8.69293
L-9.86917e-16 5.37253
L6.31578 8.69293
L5.10958 1.6602
L10.2192 -3.3204
L3.15789 -4.34647
z
" id="C0_20_47d6997afa"/>
     <path d="
M7.95256e-16 -12.9875
L-3.81694 -5.25356
L-12.3519 -4.01336
L-6.17593 2.00668
L-7.63387 10.5071
L-1.19288e-15 6.49376
L7.63387 10.5071
L6.17593 2.00668
L12.3519 -4.01336
L3.81694 -5.25356
z
" id="C0_21_ee29376627"/>
     <path d="
M8.901e-16 -14.5364
L-4.27215 -5.88011
L-13.825 -4.49201
L-6.91249 2.246
L-8.5443 11.7602
L-1.33515e-15 7.26822
L8.5443 11.7602
L6.91249 2.246
L13.825 -4.49201
L4.27215 -5.88011
z
" id="C0_22_66d8263863"/>
     <path d="
M9.22389e-16 -15.0638
L-4.42713 -6.09342
L-14.3265 -4.65496
L-7.16324 2.32748
L-8.85425 12.1868
L-1.38358e-15 7.53188
L8.85425 12.1868
L7.16324 2.32748
L14.3265 -4.65496
L4.42713 -6.09342
z
" id="C0_23_3248d9f043"/>
     <path d="
M5.65138e-16 -9.22941
L-2.71246 -3.73337
L-8.77769 -2.85204
L-4.38884 1.42602
L-5.42491 7.46675
L-8.47707e-16 4.6147
L5.42491 7.46675
L4.38884 1.42602
L8.77769 -2.85204
L2.71246 -3.73337
z
" id="C0_24_260933e7d8"/>
     <path d="
M5.34457e-16 -8.72835
L-2.5652 -3.53069
L-8.30115 -2.69721
L-4.15058 1.3486
L-5.13039 7.06138
L-8.01686e-16 4.36417
L5.13039 7.06138
L4.15058 1.3486
L8.30115 -2.69721
L2.5652 -3.53069
z
" id="C0_25_95c6d47289"/>
     <path d="
M7.08926e-16 -11.5776
L-3.40258 -4.68326
L-11.011 -3.57769
L-5.5055 1.78884
L-6.80517 9.36651
L-1.06339e-15 5.78882
L6.80517 9.36651
L5.5055 1.78884
L11.011 -3.57769
L3.40258 -4.68326
z
" id="C0_26_054fa56d22"/>
     <path d="
M7.1683e-16 -11.7067
L-3.44052 -4.73547
L-11.1338 -3.61758
L-5.56688 1.80879
L-6.88104 9.47094
L-1.07524e-15 5.85336
L6.88104 9.47094
L5.56688 1.80879
L11.1338 -3.61758
L3.44052 -4.73547
z
" id="C0_27_df55d12a95"/>
     <path d="
M8.42128e-16 -13.753
L-4.0419 -5.5632
L-13.0799 -4.24991
L-6.53994 2.12495
L-8.08381 11.1264
L-1.26319e-15 6.8765
L8.08381 11.1264
L6.53994 2.12495
L13.0799 -4.24991
L4.0419 -5.5632
z
" id="C0_28_1eaad0f2f8"/>
     <path d="
M4.06909e-16 -6.64533
L-1.95301 -2.68809
L-6.32008 -2.05352
L-3.16004 1.02676
L-3.90602 5.37618
L-6.10363e-16 3.32266
L3.90602 5.37618
L3.16004 1.02676
L6.32008 -2.05352
L1.95301 -2.68809
z
" id="C0_29_a899eab5ec"/>
     <path d="
M4.35037e-16 -7.10469
L-2.08802 -2.87391
L-6.75696 -2.19547
L-3.37848 1.09774
L-4.17603 5.74782
L-6.52555e-16 3.55235
L4.17603 5.74782
L3.37848 1.09774
L6.75696 -2.19547
L2.08802 -2.87391
z
" id="C0_2a_6eb31c9437"/>
     <path d="
M7.81699e-16 -12.7661
L-3.75187 -5.164
L-12.1413 -3.94495
L-6.07065 1.97247
L-7.50373 10.328
L-1.17255e-15 6.38306
L7.50373 10.328
L6.07065 1.97247
L12.1413 -3.94495
L3.75187 -5.164
z
" id="C0_2b_1d8d885622"/>
     <path d="
M6.17112e-16 -10.0782
L-2.96191 -4.07672
L-9.58493 -3.11433
L-4.79247 1.55717
L-5.92381 8.15343
L-9.25667e-16 5.0391
L5.92381 8.15343
L4.79247 1.55717
L9.58493 -3.11433
L2.96191 -4.07672
z
" id="C0_2c_17458e4e5d"/>
     <path d="
M9.4764e-16 -15.4761
L-4.54832 -6.26023
L-14.7187 -4.78239
L-7.35934 2.3912
L-9.09665 12.5205
L-1.42146e-15 7.73807
L9.09665 12.5205
L7.35934 2.3912
L14.7187 -4.78239
L4.54832 -6.26023
z
" id="C0_2d_da3f68a0a8"/>
     <path d="
M3.12366e-16 -5.10133
L-1.49924 -2.06353
L-4.85165 -1.5764
L-2.42583 0.788199
L-2.99849 4.12706
L-4.68549e-16 2.55066
L2.99849 4.12706
L2.42583 0.788199
L4.85165 -1.5764
L1.49924 -2.06353
z
" id="C0_2e_3f1f728820"/>
     <path d="
M7.62588e-16 -12.454
L-3.66014 -5.03775
L-11.8445 -3.8485
L-5.92223 1.92425
L-7.32028 10.0755
L-1.14388e-15 6.227
L7.32028 10.0755
L5.92223 1.92425
L11.8445 -3.8485
L3.66014 -5.03775
z
" id="C0_2f_84b97e6132"/>
     <path d="
M8.34119e-16 -13.6222
L-4.00346 -5.51029
L-12.9555 -4.20949
L-6.47774 2.10475
L-8.00693 11.0206
L-1.25118e-15 6.8111
L8.00693 11.0206
L6.47774 2.10475
L12.9555 -4.20949
L4.00346 -5.51029
z
" id="C0_30_61bb819c03"/>
     <path d="
M8.08121e-16 -13.1976
L-3.87868 -5.33855
L-12.5517 -4.07829
L-6.27584 2.03914
L-7.75737 10.6771
L-1.21218e-15 6.59881
L7.75737 10.6771
L6.27584 2.03914
L12.5517 -4.07829
L3.87868 -5.33855
z
" id="C0_31_e6910d89d2"/>
     <path d="
M6.91107e-16 -11.2866
L-3.31706 -4.56554
L-10.7342 -3.48776
L-5.36711 1.74388
L-6.63412 9.13108
L-1.03666e-15 5.64332
L6.63412 9.13108
L5.36711 1.74388
L10.7342 -3.48776
L3.31706 -4.56554
z
" id="C0_32_9a0bfa9022"/>
     <path d="
M7.65778e-16 -12.5061
L-3.67545 -5.05882
L-11.894 -3.8646
L-5.947 1.9323
L-7.3509 10.1176
L-1.14867e-15 6.25305
L7.3509 10.1176
L5.947 1.9323
L11.894 -3.8646
L3.67545 -5.05882
z
" id="C0_33_42ba2e1e93"/>
     <path d="
M7.86438e-16 -12.8435
L-3.77461 -5.1953
L-12.2149 -3.96886
L-6.10745 1.98443
L-7.54922 10.3906
L-1.17966e-15 6.42175
L7.54922 10.3906
L6.10745 1.98443
L12.2149 -3.96886
L3.77461 -5.1953
z
" id="C0_34_4bab145063"/>
     <path d="
M5.322e-16 -8.69148
L-2.55436 -3.51578
L-8.26609 -2.68582
L-4.13305 1.34291
L-5.10873 7.03156
L-7.983e-16 4.34574
L5.10873 7.03156
L4.13305 1.34291
L8.26609 -2.68582
L2.55436 -3.51578
z
" id="C0_35_a29632a65f"/>
     <path d="
M8.40298e-16 -13.7231
L-4.03312 -5.55111
L-13.0514 -4.24067
L-6.52572 2.12034
L-8.06624 11.1022
L-1.26045e-15 6.86155
L8.06624 11.1022
L6.52572 2.12034
L13.0514 -4.24067
L4.03312 -5.55111
z
" id="C0_36_c311a936d7"/>
     <path d="
M9.05579e-16 -14.7892
L-4.34645 -5.98237
L-14.0654 -4.57012
L-7.0327 2.28506
L-8.69289 11.9647
L-1.35837e-15 7.39462
L8.69289 11.9647
L7.0327 2.28506
L14.0654 -4.57012
L4.34645 -5.98237
z
" id="C0_37_b89d267f83"/>
     <path d="
M1.93739e-16 -3.164
L-0.929878 -1.27987
L-3.00915 -0.977731
L-1.50457 0.488866
L-1.85976 2.55973
L-2.90609e-16 1.582
L1.85976 2.55973
L1.50457 0.488866
L3.00915 -0.977731
L0.929878 -1.27987
z
" id="C0_38_1e67e0b9b3"/>
     <path d="
M4.88077e-16 -7.9709
L-2.34259 -3.2243
L-7.58077 -2.46314
L-3.79039 1.23157
L-4.68518 6.44859
L-7.32115e-16 3.98545
L4.68518 6.44859
L3.79039 1.23157
L7.58077 -2.46314
L2.34259 -3.2243
z
" id="C0_39_59e16617af"/>
     <path d="
M9.5646e-16 -15.6202
L-4.59066 -6.3185
L-14.8557 -4.8269
L-7.42784 2.41345
L-9.18131 12.637
L-1.43469e-15 7.81009
L9.18131 12.637
L7.42784 2.41345
L14.8557 -4.8269
L4.59066 -6.3185
z
" id="C0_3a_97ca1de7bb"/>
     <path d="
M3.28169e-16 -5.35941
L-1.57509 -2.16793
L-5.0971 -1.65615
L-2.54855 0.828075
L-3.15018 4.33586
L-4.92254e-16 2.67971
L3.15018 4.33586
L2.54855 0.828075
L5.0971 -1.65615
L1.57509 -2.16793
z
" id="C0_3b_95298d4f51"/>
     <path d="
M5.52313e-16 -9.01996
L-2.6509 -3.64865
L-8.57849 -2.78732
L-4.28924 1.39366
L-5.3018 7.2973
L-8.28469e-16 4.50998
L5.3018 7.2973
L4.28924 1.39366
L8.57849 -2.78732
L2.6509 -3.64865
z
" id="C0_3c_dd3e54885d"/>
     <path d="
M5.88605e-16 -9.61265
L-2.82509 -3.8884
L-9.14218 -2.97047
L-4.57109 1.48524
L-5.65017 7.7768
L-8.82908e-16 4.80633
L5.65017 7.7768
L4.57109 1.48524
L9.14218 -2.97047
L2.82509 -3.8884
z
" id="C0_3d_5c00a5f286"/>
     <path d="
M7.71403e-16 -12.598
L-3.70245 -5.09598
L-11.9814 -3.89299
L-5.99069 1.94649
L-7.4049 10.192
L-1.1571e-15 6.29898
L7.4049 10.192
L5.99069 1.94649
L11.9814 -3.89299
L3.70245 -5.09598
z
" id="C0_3e_4b056f6046"/>
     <path d="
M4.33302e-16 -7.07635
L-2.07969 -2.86244
L-6.73001 -2.18671
L-3.36501 1.09336
L-4.15938 5.72489
L-6.49952e-16 3.53818
L4.15938 5.72489
L3.36501 1.09336
L6.73001 -2.18671
L2.07969 -2.86244
z
" id="C0_3f_8b588d1913"/>
     <path d="
M7.31964e-16 -11.9539
L-3.51316 -4.83545
L-11.3688 -3.69395
L-5.68441 1.84698
L-7.02632 9.6709
L-1.09795e-15 5.97694
L7.02632 9.6709
L5.68441 1.84698
L11.3688 -3.69395
L3.51316 -4.83545
z
" id="C0_40_733098e9fb"/>
     <path d="
M7.29223e-16 -11.9091
L-3.5 -4.81734
L-11.3262 -3.68012
L-5.66312 1.84006
L-7.00001 9.63468
L-1.09384e-15 5.95456
L7.00001 9.63468
L5.66312 1.84006
L11.3262 -3.68012
L3.5 -4.81734
z
" id="C0_41_de2dc95fba"/>
     <path d="
M6.2148e-16 -10.1495
L-2.98287 -4.10557
L-9.65278 -3.13638
L-4.82639 1.56819
L-5.96575 8.21114
L-9.32219e-16 5.07477
L5.96575 8.21114
L4.82639 1.56819
L9.65278 -3.13638
L2.98287 -4.10557
z
" id="C0_42_95bb92eb09"/>
     <path d="
M8.87763e-16 -14.4983
L-4.26094 -5.86468
L-13.7887 -4.48021
L-6.89434 2.24011
L-8.52187 11.7294
L-1.33164e-15 7.24914
L8.52187 11.7294
L6.89434 2.24011
L13.7887 -4.48021
L4.26094 -5.86468
z
" id="C0_43_28f506fcec"/>
     <path d="
M6.49889e-16 -10.6135
L-3.11923 -4.29325
L-10.094 -3.27975
L-5.04702 1.63988
L-6.23846 8.5865
L-9.74834e-16 5.30675
L6.23846 8.5865
L5.04702 1.63988
L10.094 -3.27975
L3.11923 -4.29325
z
" id="C0_44_6bdd031c51"/>
     <path d="
M6.37765e-16 -10.4155
L-3.06104 -4.21316
L-9.90572 -3.21856
L-4.95286 1.60928
L-6.12207 8.42631
L-9.56648e-16 5.20775
L6.12207 8.42631
L4.95286 1.60928
L9.90572 -3.21856
L3.06104 -4.21316
z
" id="C0_45_1f21768dc3"/>
     <path d="
M8.94598e-16 -14.6099
L-4.29374 -5.90982
L-13.8948 -4.5147
L-6.94741 2.25735
L-8.58748 11.8196
L-1.3419e-15 7.30494
L8.58748 11.8196
L6.94741 2.25735
L13.8948 -4.5147
L4.29374 -5.90982
z
" id="C0_46_18a4448439"/>
     <path d="
M9.06314e-16 -14.8012
L-4.34997 -5.98722
L-14.0768 -4.57383
L-7.0384 2.28692
L-8.69995 11.9744
L-1.35947e-15 7.40062
L8.69995 11.9744
L7.0384 2.28692
L14.0768 -4.57383
L4.34997 -5.98722
z
" id="C0_47_85850a3496"/>
     <path d="
M8.34307e-16 -13.6253
L-4.00436 -5.51153
L-12.9584 -4.21044
L-6.4792 2.10522
L-8.00873 11.0231
L-1.25146e-15 6.81263
L8.00873 11.0231
L6.4792 2.10522
L12.9584 -4.21044
L4.00436 -5.51153
z
" id="C0_48_63abae580a"/>
     <path d="
M9.02026e-16 -14.7312
L-4.32939 -5.95889
L-14.0102 -4.55219
L-7.0051 2.27609
L-8.65878 11.9178
L-1.35304e-15 7.3656
L8.65878 11.9178
L7.0051 2.27609
L14.0102 -4.55219
L4.32939 -5.95889
z
" id="C0_49_39c8eb742f"/>
     <path d="
M6.50536e-16 -10.6241
L-3.12233 -4.29752
L-10.1041 -3.28301
L-5.05204 1.64151
L-6.24466 8.59504
L-9.75803e-16 5.31203
L6.24466 8.59504
L5.05204 1.64151
L10.1041 -3.28301
L3.12233 -4.29752
z
" id="C0_4a_1e28ee6577"/>
     <path d="
M6.7033e-16 -10.9473
L-3.21734 -4.42828
L-10.4115 -3.38291
L-5.20576 1.69145
L-6.43467 8.85657
L-1.0055e-15 5.47366
L6.43467 8.85657
L5.20576 1.69145
L10.4115 -3.38291
L3.21734 -4.42828
z
" id="C0_4b_3ba829c1d1"/>
     <path d="
M7.29889e-16 -11.92
L-3.5032 -4.82174
L-11.3366 -3.68348
L-5.66829 1.84174
L-7.00639 9.64347
L-1.09483e-15 5.95999
L7.00639 9.64347
L5.66829 1.84174
L11.3366 -3.68348
L3.5032 -4.82174
z
" id="C0_4c_653dde7b1e"/>
     <path d="
M5.61101e-16 -9.16348
L-2.69308 -3.7067
L-8.71498 -2.83167
L-4.35749 1.41583
L-5.38616 7.41341
L-8.41652e-16 4.58174
L5.38616 7.41341
L4.35749 1.41583
L8.71498 -2.83167
L2.69308 -3.7067
z
" id="C0_4d_79dfc6de14"/>
     <path d="
M5.79186e-16 -9.45883
L-2.77988 -3.82618
L-8.99588 -2.92294
L-4.49794 1.46147
L-5.55976 7.65236
L-8.6878e-16 4.72942
L5.55976 7.65236
L4.49794 1.46147
L8.99588 -2.92294
L2.77988 -3.82618
z
" id="C0_4e_b7cf76ea9b"/>
     <path d="
M6.7896e-16 -11.0883
L-3.25876 -4.48529
L-10.5456 -3.42646
L-5.27278 1.71323
L-6.51751 8.97059
L-1.01844e-15 5.54413
L6.51751 8.97059
L5.27278 1.71323
L10.5456 -3.42646
L3.25876 -4.48529
z
" id="C0_4f_bc948b0886"/>
     <path d="
M4.05949e-16 -6.62965
L-1.94841 -2.68175
L-6.30518 -2.04868
L-3.15259 1.02434
L-3.89681 5.3635
L-6.08924e-16 3.31483
L3.89681 5.3635
L3.15259 1.02434
L6.30518 -2.04868
L1.94841 -2.68175
z
" id="C0_50_a6679c911c"/>
     <path d="
M6.62501e-16 -10.8195
L-3.17976 -4.37657
L-10.2899 -3.3434
L-5.14496 1.6717
L-6.35952 8.75313
L-9.93752e-16 5.40973
L6.35952 8.75313
L5.14496 1.6717
L10.2899 -3.3434
L3.17976 -4.37657
z
" id="C0_51_fab677f300"/>
     <path d="
M8.53563e-16 -13.9397
L-4.09679 -5.63874
L-13.2575 -4.30762
L-6.62874 2.15381
L-8.19358 11.2775
L-1.28034e-15 6.96987
L8.19358 11.2775
L6.62874 2.15381
L13.2575 -4.30762
L4.09679 -5.63874
z
" id="C0_52_d16be2e969"/>
     <path d="
M9.39972e-16 -15.3509
L-4.51152 -6.20957
L-14.5996 -4.74369
L-7.29979 2.37185
L-9.02304 12.4191
L-1.40996e-15 7.67545
L9.02304 12.4191
L7.29979 2.37185
L14.5996 -4.74369
L4.51152 -6.20957
z
" id="C0_53_8900f3b981"/>
     <path d="
M4.93029e-16 -8.05177
L-2.36636 -3.25701
L-7.65769 -2.48813
L-3.82884 1.24407
L-4.73271 6.51402
L-7.39543e-16 4.02589
L4.73271 6.51402
L3.82884 1.24407
L7.65769 -2.48813
L2.36636 -3.25701
z
" id="C0_54_e86c62879c"/>
     <path d="
M8.08265e-16 -13.2
L-3.87937 -5.3395
L-12.5539 -4.07902
L-6.27696 2.03951
L-7.75875 10.679
L-1.2124e-15 6.59999
L7.75875 10.679
L6.27696 2.03951
L12.5539 -4.07902
L3.87937 -5.3395
z
" id="C0_55_e4a43f02fa"/>
     <path d="
M9.66875e-16 -15.7903
L-4.64064 -6.3873
L-15.0174 -4.87946
L-7.50872 2.43973
L-9.28129 12.7746
L-1.45031e-15 7.89513
L9.28129 12.7746
L7.50872 2.43973
L15.0174 -4.87946
L4.64064 -6.3873
z
" id="C0_56_04af193015"/>
     <path d="
M2.28224e-16 -3.72718
L-1.09539 -1.50768
L-3.54476 -1.15176
L-1.77238 0.575881
L-2.19078 3.01535
L-3.42336e-16 1.86359
L2.19078 3.01535
L1.77238 0.575881
L3.54476 -1.15176
L1.09539 -1.50768
z
" id="C0_57_c5d162bbe5"/>
     <path d="
M8.65353e-16 -14.1323
L-4.15338 -5.71663
L-13.4406 -4.36712
L-6.72031 2.18356
L-8.30675 11.4333
L-1.29803e-15 7.06615
L8.30675 11.4333
L6.72031 2.18356
L13.4406 -4.36712
L4.15338 -5.71663
z
" id="C0_58_9b1e69c3f5"/>
     <path d="
M8.92675e-16 -14.5785
L-4.28451 -5.89712
L-13.865 -4.505
L-6.93248 2.2525
L-8.56902 11.7942
L-1.33901e-15 7.28924
L8.56902 11.7942
L6.93248 2.2525
L13.865 -4.505
L4.28451 -5.89712
z
" id="C0_59_4d74f5a16a"/>
     <path d="
M7.41248e-16 -12.1055
L-3.55772 -4.89678
L-11.513 -3.74081
L-5.75651 1.8704
L-7.11544 9.79356
L-1.11187e-15 6.05275
L7.11544 9.79356
L5.75651 1.8704
L11.513 -3.74081
L3.55772 -4.89678
z
" id="C0_5a_089409c3c2"/>
     <path d="
M7.90274e-16 -12.9062
L-3.79302 -5.22065
L-12.2745 -3.98822
L-6.13724 1.99411
L-7.58605 10.4413
L-1.18541e-15 6.45308
L7.58605 10.4413
L6.13724 1.99411
L12.2745 -3.98822
L3.79302 -5.22065
z
" id="C0_5b_a503afadb2"/>
     <path d="
M8.44077e-16 -13.7848
L-4.05126 -5.57608
L-13.1102 -4.25975
L-6.55508 2.12987
L-8.10252 11.1522
L-1.26612e-15 6.89241
L8.10252 11.1522
L6.55508 2.12987
L13.1102 -4.25975
L4.05126 -5.57608
z
" id="C0_5c_b2f6bb669c"/>
     <path d="
M4.57278e-16 -7.46792
L-2.19477 -3.02084
L-7.10242 -2.30772
L-3.55121 1.15386
L-4.38953 6.04168
L-6.85918e-16 3.73396
L4.38953 6.04168
L3.55121 1.15386
L7.10242 -2.30772
L2.19477 -3.02084
z
" id="C0_5d_33cabc4f21"/>
     <path d="
M8.42797e-16 -13.7639
L-4.04511 -5.56762
L-13.0903 -4.25328
L-6.54513 2.12664
L-8.09022 11.1352
L-1.26419e-15 6.88196
L8.09022 11.1352
L6.54513 2.12664
L13.0903 -4.25328
L4.04511 -5.56762
z
" id="C0_5e_030309dfe5"/>
     <path d="
M8.84306e-16 -14.4418
L-4.24434 -5.84183
L-13.735 -4.46276
L-6.86749 2.23138
L-8.48868 11.6837
L-1.32646e-15 7.2209
L8.48868 11.6837
L6.86749 2.23138
L13.735 -4.46276
L4.24434 -5.84183
z
" id="C0_5f_090e83ac1b"/>
     <path d="
M9.56217e-16 -15.6162
L-4.58949 -6.31689
L-14.8519 -4.82568
L-7.42595 2.41284
L-9.17898 12.6338
L-1.43433e-15 7.80811
L9.17898 12.6338
L7.42595 2.41284
L14.8519 -4.82568
L4.58949 -6.31689
z
" id="C0_60_a9766df867"/>
     <path d="
M5.92889e-16 -9.68262
L-2.84565 -3.9167
L-9.20872 -2.99209
L-4.60436 1.49605
L-5.6913 7.8334
L-8.89334e-16 4.84131
L5.6913 7.8334
L4.60436 1.49605
L9.20872 -2.99209
L2.84565 -3.9167
z
" id="C0_61_1346705944"/>
     <path d="
M9.20478e-16 -15.0326
L-4.41796 -6.08079
L-14.2968 -4.64531
L-7.1484 2.32266
L-8.83591 12.1616
L-1.38072e-15 7.51628
L8.83591 12.1616
L7.1484 2.32266
L14.2968 -4.64531
L4.41796 -6.08079
z
" id="C0_62_e9c01fa583"/>
     <path d="
M7.74975e-16 -12.6563
L-3.7196 -5.11958
L-12.0369 -3.91101
L-6.01843 1.95551
L-7.43919 10.2392
L-1.16246e-15 6.32815
L7.43919 10.2392
L6.01843 1.95551
L12.0369 -3.91101
L3.7196 -5.11958
z
" id="C0_63_6bfc6b42ee"/>
    </defs>
    <g clip-path="url(#p40e1769114)">
     <use style="fill:none;stroke:#97ff60;stroke-opacity:0.8;stroke-width:2.0;" x="169.280726126" xlink:href="#C0_0_ca9829af32" y="119.799992966"/>
    </g>
    <g clip-path="url(#p40e1769114)">
     <use style="fill:none;stroke:#ff3b00;stroke-opacity:0.8;stroke-width:2.0;" x="43.3936211245" xlink:href="#C0_1_05db049722" y="47.8495582721"/>
    </g>
    <g clip-path="url(#p40e1769114)">
     <use style="fill:none;stroke:#73ff83;stroke-opacity:0.8;stroke-width:2.0;" x="233.994612203" xlink:href="#C0_2_0e97893694" y="130.005950109"/>
    </g>
    <g clip-path="url(#p40e1769114)">
     <use style="fill:none;stroke:#ff3f00;stroke-opacity:0.8;stroke-width:2.0;" x="72.4882821444" xlink:href="#C0_3_077e77f6d0" y="49.0441807979"/>
    </g>
    <g clip-path="url(#p40e1769114)">
     <use style="fill:none;stroke:#ffb200;stroke-opacity:0.8;stroke-width:2.0;" x="44.9541330332" xlink:href="#C0_4_f1049da794" y="76.5967905317"/>
    </g>
    <g clip-path="url(#p40e1769114)">
     <use style="fill:none;stroke:#004cff;stroke-opacity:0.8;stroke-width:2.0;" x="368.818524627" xlink:href="#C0_5_6ff53ab01a" y="196.260988063"/>
    </g>
    <g clip-path="url(#p40e1769114)">
     <use style="fill:none;stroke:#0068ff;stroke-opacity:0.8;stroke-width:2.0;" x="292.743242942" xlink:href="#C0_6_c74058eead" y="189.970115759"/>
    </g>
    <g clip-path="url(#p40e1769114)">
     <use style="fill:none;stroke:#0000d1;stroke-opacity:0.8;stroke-width:2.0;" x="423.974360851" xlink:href="#C0_7_bcc8f464f2" y="225.35373568"/>
    </g>
    <g clip-path="url(#p40e1769114)">
     <use style="fill:none;stroke:#000080;stroke-opacity:0.8;stroke-width:2.0;" x="171.507948037" xlink:href="#C0_8_0c61e76f82" y="242.177255652"/>
    </g>
    <g clip-path="url(#p40e1769114)">
     <use style="fill:none;stroke:#30ffc7;stroke-opacity:0.8;stroke-width:2.0;" x="428.834673164" xlink:href="#C0_9_c9b55f86a2" y="148.562946055"/>
    </g>
    <g clip-path="url(#p40e1769114)">
     <use style="fill:none;stroke:#0058ff;stroke-opacity:0.8;stroke-width:2.0;" x="410.765306417" xlink:href="#C0_a_30e19056be" y="193.098804235"/>
    </g>
    <g clip-path="url(#p40e1769114)">
     <use style="fill:none;stroke:#ffc100;stroke-opacity:0.8;stroke-width:2.0;" x="138.118471013" xlink:href="#C0_b_dd5814f90b" y="80.6429870823"/>
    </g>
    <g clip-path="url(#p40e1769114)">
     <use style="fill:none;stroke:#66ff90;stroke-opacity:0.8;stroke-width:2.0;" x="100.526109357" xlink:href="#C0_c_e37f282380" y="132.922717158"/>
    </g>
    <g clip-path="url(#p40e1769114)">
     <use style="fill:none;stroke:#23ffd4;stroke-opacity:0.8;stroke-width:2.0;" x="117.200502314" xlink:href="#C0_d_996b26af51" y="151.88400484"/>
    </g>
    <g clip-path="url(#p40e1769114)">
     <use style="fill:none;stroke:#ad0000;stroke-opacity:0.8;stroke-width:2.0;" x="84.4665914134" xlink:href="#C0_e_4f6de46b80" y="22.5232458185"/>
    </g>
    <g clip-path="url(#p40e1769114)">
     <use style="fill:none;stroke:#83ff73;stroke-opacity:0.8;stroke-width:2.0;" x="208.590947831" xlink:href="#C0_f_a019b7bad6" y="125.597689795"/>
    </g>
    <g clip-path="url(#p40e1769114)">
     <use style="fill:none;stroke:#0000a8;stroke-opacity:0.8;stroke-width:2.0;" x="263.307721443" xlink:href="#C0_10_d3ff91ae61" y="233.799977365"/>
    </g>
    <g clip-path="url(#p40e1769114)">
     <use style="fill:none;stroke:#ebff0c;stroke-opacity:0.8;stroke-width:2.0;" x="385.164948978" xlink:href="#C0_11_d3d6de0f51" y="96.1051601616"/>
    </g>
    <g clip-path="url(#p40e1769114)">
     <use style="fill:none;stroke:#0028ff;stroke-opacity:0.8;stroke-width:2.0;" x="134.721772949" xlink:href="#C0_12_9bcc8a120e" y="203.761216956"/>
    </g>
    <g clip-path="url(#p40e1769114)">
     <use style="fill:none;stroke:#aaff4d;stroke-opacity:0.8;stroke-width:2.0;" x="119.378956571" xlink:href="#C0_13_231f9beb25" y="114.175334791"/>
    </g>
    <g clip-path="url(#p40e1769114)">
     <use style="fill:none;stroke:#a0ff56;stroke-opacity:0.8;stroke-width:2.0;" x="372.309909076" xlink:href="#C0_14_f0f8782e58" y="117.142042023"/>
    </g>
    <g clip-path="url(#p40e1769114)">
     <use style="fill:none;stroke:#000089;stroke-opacity:0.8;stroke-width:2.0;" x="376.232908494" xlink:href="#C0_15_2c240f6452" y="239.771086637"/>
    </g>
    <g clip-path="url(#p40e1769114)">
     <use style="fill:none;stroke:#ff3b00;stroke-opacity:0.8;stroke-width:2.0;" x="344.104359087" xlink:href="#C0_16_0f0a1a4899" y="48.4641703994"/>
    </g>
    <g clip-path="url(#p40e1769114)">
     <use style="fill:none;stroke:#b7ff40;stroke-opacity:0.8;stroke-width:2.0;" x="107.2060956" xlink:href="#C0_17_5ef121bdaf" y="110.896330121"/>
    </g>
    <g clip-path="url(#p40e1769114)">
     <use style="fill:none;stroke:#c40000;stroke-opacity:0.8;stroke-width:2.0;" x="117.041153099" xlink:href="#C0_18_6b6d9b38f3" y="27.0432206086"/>
    </g>
    <g clip-path="url(#p40e1769114)">
     <use style="fill:none;stroke:#ff1300;stroke-opacity:0.8;stroke-width:2.0;" x="168.144407491" xlink:href="#C0_19_76bd194c95" y="38.0135743142"/>
    </g>
    <g clip-path="url(#p40e1769114)">
     <use style="fill:none;stroke:#16ffe1;stroke-opacity:0.8;stroke-width:2.0;" x="173.687547269" xlink:href="#C0_1a_f72953964a" y="155.565481539"/>
    </g>
    <g clip-path="url(#p40e1769114)">
     <use style="fill:none;stroke:#deff19;stroke-opacity:0.8;stroke-width:2.0;" x="130.956297818" xlink:href="#C0_1b_78bf3f3646" y="100.514319334"/>
    </g>
    <g clip-path="url(#p40e1769114)">
     <use style="fill:none;stroke:#0000ff;stroke-opacity:0.8;stroke-width:2.0;" x="208.53176158" xlink:href="#C0_1c_45bed35dd8" y="213.697196772"/>
    </g>
    <g clip-path="url(#p40e1769114)">
     <use style="fill:none;stroke:#00a4ff;stroke-opacity:0.8;stroke-width:2.0;" x="54.3001435943" xlink:href="#C0_1d_bc1fa780ce" y="176.028826231"/>
    </g>
    <g clip-path="url(#p40e1769114)">
     <use style="fill:none;stroke:#ffe200;stroke-opacity:0.8;stroke-width:2.0;" x="403.215578397" xlink:href="#C0_1e_539920a552" y="88.7440962191"/>
    </g>
    <g clip-path="url(#p40e1769114)">
     <use style="fill:none;stroke:#06ecf1;stroke-opacity:0.8;stroke-width:2.0;" x="340.192293327" xlink:href="#C0_1f_abede7e800" y="159.913608511"/>
    </g>
    <g clip-path="url(#p40e1769114)">
     <use style="fill:none;stroke:#09f0ee;stroke-opacity:0.8;stroke-width:2.0;" x="230.372124006" xlink:href="#C0_20_47d6997afa" y="159.528132215"/>
    </g>
    <g clip-path="url(#p40e1769114)">
     <use style="fill:none;stroke:#0034ff;stroke-opacity:0.8;stroke-width:2.0;" x="325.400892547" xlink:href="#C0_21_ee29376627" y="201.685117483"/>
    </g>
    <g clip-path="url(#p40e1769114)">
     <use style="fill:none;stroke:#5aff9d;stroke-opacity:0.8;stroke-width:2.0;" x="401.525013816" xlink:href="#C0_22_66d8263863" y="136.49936247"/>
    </g>
    <g clip-path="url(#p40e1769114)">
     <use style="fill:none;stroke:#0000ff;stroke-opacity:0.8;stroke-width:2.0;" x="429.395850137" xlink:href="#C0_23_3248d9f043" y="215.872086288"/>
    </g>
    <g clip-path="url(#p40e1769114)">
     <use style="fill:none;stroke:#00d8ff;stroke-opacity:0.8;stroke-width:2.0;" x="176.31450616" xlink:href="#C0_24_260933e7d8" y="164.817492438"/>
    </g>
    <g clip-path="url(#p40e1769114)">
     <use style="fill:none;stroke:#7dff7a;stroke-opacity:0.8;stroke-width:2.0;" x="160.247768929" xlink:href="#C0_25_95c6d47289" y="127.329740611"/>
    </g>
    <g clip-path="url(#p40e1769114)">
     <use style="fill:none;stroke:#c40000;stroke-opacity:0.8;stroke-width:2.0;" x="263.558751616" xlink:href="#C0_26_054fa56d22" y="26.2365743925"/>
    </g>
    <g clip-path="url(#p40e1769114)">
     <use style="fill:none;stroke:#6aff8d;stroke-opacity:0.8;stroke-width:2.0;" x="268.925230343" xlink:href="#C0_27_df55d12a95" y="132.284473647"/>
    </g>
    <g clip-path="url(#p40e1769114)">
     <use style="fill:none;stroke:#d7ff1f;stroke-opacity:0.8;stroke-width:2.0;" x="361.950699862" xlink:href="#C0_28_1eaad0f2f8" y="101.62887747"/>
    </g>
    <g clip-path="url(#p40e1769114)">
     <use style="fill:none;stroke:#9aff5d;stroke-opacity:0.8;stroke-width:2.0;" x="103.066270929" xlink:href="#C0_29_a899eab5ec" y="119.187692501"/>
    </g>
    <g clip-path="url(#p40e1769114)">
     <use style="fill:none;stroke:#8aff6d;stroke-opacity:0.8;stroke-width:2.0;" x="114.344642519" xlink:href="#C0_2a_6eb31c9437" y="123.218638253"/>
    </g>
    <g clip-path="url(#p40e1769114)">
     <use style="fill:none;stroke:#ff5200;stroke-opacity:0.8;stroke-width:2.0;" x="315.219248213" xlink:href="#C0_2b_1d8d885622" y="53.634121685"/>
    </g>
    <g clip-path="url(#p40e1769114)">
     <use style="fill:none;stroke:#ff2d00;stroke-opacity:0.8;stroke-width:2.0;" x="205.576995215" xlink:href="#C0_2c_17458e4e5d" y="44.2961380666"/>
    </g>
    <g clip-path="url(#p40e1769114)">
     <use style="fill:none;stroke:#4dffaa;stroke-opacity:0.8;stroke-width:2.0;" x="451.884279545" xlink:href="#C0_2d_da3f68a0a8" y="140.33431518"/>
    </g>
    <g clip-path="url(#p40e1769114)">
     <use style="fill:none;stroke:#0000b6;stroke-opacity:0.8;stroke-width:2.0;" x="70.6812127058" xlink:href="#C0_2e_3f1f728820" y="230.792755233"/>
    </g>
    <g clip-path="url(#p40e1769114)">
     <use style="fill:none;stroke:#0000b6;stroke-opacity:0.8;stroke-width:2.0;" x="301.16383884" xlink:href="#C0_2f_84b97e6132" y="231.148371469"/>
    </g>
    <g clip-path="url(#p40e1769114)">
     <use style="fill:none;stroke:#ff4700;stroke-opacity:0.8;stroke-width:2.0;" x="355.557022645" xlink:href="#C0_30_61bb819c03" y="50.4491196889"/>
    </g>
    <g clip-path="url(#p40e1769114)">
     <use style="fill:none;stroke:#f4f802;stroke-opacity:0.8;stroke-width:2.0;" x="335.224431204" xlink:href="#C0_31_e6910d89d2" y="93.9695387168"/>
    </g>
    <g clip-path="url(#p40e1769114)">
     <use style="fill:none;stroke:#49ffad;stroke-opacity:0.8;stroke-width:2.0;" x="251.677731763" xlink:href="#C0_32_9a0bfa9022" y="141.125917399"/>
    </g>
    <g clip-path="url(#p40e1769114)">
     <use style="fill:none;stroke:#8d0000;stroke-opacity:0.8;stroke-width:2.0;" x="303.485720049" xlink:href="#C0_33_42ba2e1e93" y="16.0387933338"/>
    </g>
    <g clip-path="url(#p40e1769114)">
     <use style="fill:none;stroke:#aaff4d;stroke-opacity:0.8;stroke-width:2.0;" x="318.758052902" xlink:href="#C0_34_4bab145063" y="114.566808227"/>
    </g>
    <g clip-path="url(#p40e1769114)">
     <use style="fill:none;stroke:#ff3800;stroke-opacity:0.8;stroke-width:2.0;" x="159.101151452" xlink:href="#C0_35_a29632a65f" y="46.8888707436"/>
    </g>
    <g clip-path="url(#p40e1769114)">
     <use style="fill:none;stroke:#7aff7d;stroke-opacity:0.8;stroke-width:2.0;" x="360.48402216" xlink:href="#C0_36_c311a936d7" y="127.538978993"/>
    </g>
    <g clip-path="url(#p40e1769114)">
     <use style="fill:none;stroke:#0000ff;stroke-opacity:0.8;stroke-width:2.0;" x="414.762502321" xlink:href="#C0_37_b89d267f83" y="216.440351272"/>
    </g>
    <g clip-path="url(#p40e1769114)">
     <use style="fill:none;stroke:#39ffbe;stroke-opacity:0.8;stroke-width:2.0;" x="42.0890485578" xlink:href="#C0_38_1e67e0b9b3" y="146.096870698"/>
    </g>
    <g clip-path="url(#p40e1769114)">
     <use style="fill:none;stroke:#0000ff;stroke-opacity:0.8;stroke-width:2.0;" x="137.662027452" xlink:href="#C0_39_59e16617af" y="215.705378058"/>
    </g>
    <g clip-path="url(#p40e1769114)">
     <use style="fill:none;stroke:#6dff8a;stroke-opacity:0.8;stroke-width:2.0;" x="459.882257634" xlink:href="#C0_3a_97ca1de7bb" y="131.060226886"/>
    </g>
    <g clip-path="url(#p40e1769114)">
     <use style="fill:none;stroke:#e40000;stroke-opacity:0.8;stroke-width:2.0;" x="75.5018628065" xlink:href="#C0_3b_95298d4f51" y="33.0043536405"/>
    </g>
    <g clip-path="url(#p40e1769114)">
     <use style="fill:none;stroke:#39ffbe;stroke-opacity:0.8;stroke-width:2.0;" x="169.489224118" xlink:href="#C0_3c_dd3e54885d" y="145.967417336"/>
    </g>
    <g clip-path="url(#p40e1769114)">
     <use style="fill:none;stroke:#800000;stroke-opacity:0.8;stroke-width:2.0;" x="189.208469469" xlink:href="#C0_3d_5c00a5f286" y="12.7607178242"/>
    </g>
    <g clip-path="url(#p40e1769114)">
     <use style="fill:none;stroke:#ffd000;stroke-opacity:0.8;stroke-width:2.0;" x="307.603894088" xlink:href="#C0_3e_4b056f6046" y="83.8961218254"/>
    </g>
    <g clip-path="url(#p40e1769114)">
     <use style="fill:none;stroke:#a0ff56;stroke-opacity:0.8;stroke-width:2.0;" x="113.627021261" xlink:href="#C0_3f_8b588d1913" y="117.482306407"/>
    </g>
    <g clip-path="url(#p40e1769114)">
     <use style="fill:none;stroke:#0000e8;stroke-opacity:0.8;stroke-width:2.0;" x="279.36746793" xlink:href="#C0_40_733098e9fb" y="221.038028063"/>
    </g>
    <g clip-path="url(#p40e1769114)">
     <use style="fill:none;stroke:#0000b2;stroke-opacity:0.8;stroke-width:2.0;" x="277.460199687" xlink:href="#C0_41_de2dc95fba" y="231.780227053"/>
    </g>
    <g clip-path="url(#p40e1769114)">
     <use style="fill:none;stroke:#4dffaa;stroke-opacity:0.8;stroke-width:2.0;" x="208.153588101" xlink:href="#C0_42_95bb92eb09" y="140.154288512"/>
    </g>
    <g clip-path="url(#p40e1769114)">
     <use style="fill:none;stroke:#ff6000;stroke-opacity:0.8;stroke-width:2.0;" x="399.546592582" xlink:href="#C0_43_28f506fcec" y="56.7928254262"/>
    </g>
    <g clip-path="url(#p40e1769114)">
     <use style="fill:none;stroke:#1fffd7;stroke-opacity:0.8;stroke-width:2.0;" x="225.354777526" xlink:href="#C0_44_6bdd031c51" y="153.316971834"/>
    </g>
    <g clip-path="url(#p40e1769114)">
     <use style="fill:none;stroke:#43ffb4;stroke-opacity:0.8;stroke-width:2.0;" x="217.919962675" xlink:href="#C0_45_1f21768dc3" y="143.166453327"/>
    </g>
    <g clip-path="url(#p40e1769114)">
     <use style="fill:none;stroke:#003cff;stroke-opacity:0.8;stroke-width:2.0;" x="405.347727893" xlink:href="#C0_46_18a4448439" y="199.873292007"/>
    </g>
    <g clip-path="url(#p40e1769114)">
     <use style="fill:none;stroke:#ff4300;stroke-opacity:0.8;stroke-width:2.0;" x="415.396446649" xlink:href="#C0_47_85850a3496" y="49.9150346469"/>
    </g>
    <g clip-path="url(#p40e1769114)">
     <use style="fill:none;stroke:#0000f6;stroke-opacity:0.8;stroke-width:2.0;" x="355.7060965" xlink:href="#C0_48_63abae580a" y="218.774187681"/>
    </g>
    <g clip-path="url(#p40e1769114)">
     <use style="fill:none;stroke:#6aff8d;stroke-opacity:0.8;stroke-width:2.0;" x="411.703184301" xlink:href="#C0_49_39c8eb742f" y="132.438210807"/>
    </g>
    <g clip-path="url(#p40e1769114)">
     <use style="fill:none;stroke:#0020ff;stroke-opacity:0.8;stroke-width:2.0;" x="225.755116992" xlink:href="#C0_4a_1e28ee6577" y="205.751690227"/>
    </g>
    <g clip-path="url(#p40e1769114)">
     <use style="fill:none;stroke:#00d8ff;stroke-opacity:0.8;stroke-width:2.0;" x="238.206721557" xlink:href="#C0_4b_3ba829c1d1" y="165.024742095"/>
    </g>
    <g clip-path="url(#p40e1769114)">
     <use style="fill:none;stroke:#3cffba;stroke-opacity:0.8;stroke-width:2.0;" x="277.922577444" xlink:href="#C0_4c_653dde7b1e" y="145.194102032"/>
    </g>
    <g clip-path="url(#p40e1769114)">
     <use style="fill:none;stroke:#0000f6;stroke-opacity:0.8;stroke-width:2.0;" x="174.149122049" xlink:href="#C0_4d_79dfc6de14" y="218.0469516"/>
    </g>
    <g clip-path="url(#p40e1769114)">
     <use style="fill:none;stroke:#920000;stroke-opacity:0.8;stroke-width:2.0;" x="183.970277826" xlink:href="#C0_4e_b7cf76ea9b" y="16.6056701168"/>
    </g>
    <g clip-path="url(#p40e1769114)">
     <use style="fill:none;stroke:#f60b00;stroke-opacity:0.8;stroke-width:2.0;" x="243.75199639" xlink:href="#C0_4f_bc948b0886" y="36.4010791987"/>
    </g>
    <g clip-path="url(#p40e1769114)">
     <use style="fill:none;stroke:#ff9100;stroke-opacity:0.8;stroke-width:2.0;" x="102.694803757" xlink:href="#C0_50_a6679c911c" y="69.0662982198"/>
    </g>
    <g clip-path="url(#p40e1769114)">
     <use style="fill:none;stroke:#0088ff;stroke-opacity:0.8;stroke-width:2.0;" x="233.237433097" xlink:href="#C0_51_fab677f300" y="182.343314028"/>
    </g>
    <g clip-path="url(#p40e1769114)">
     <use style="fill:none;stroke:#a40000;stroke-opacity:0.8;stroke-width:2.0;" x="371.184958648" xlink:href="#C0_52_d16be2e969" y="19.9471630572"/>
    </g>
    <g clip-path="url(#p40e1769114)">
     <use style="fill:none;stroke:#ff6800;stroke-opacity:0.8;stroke-width:2.0;" x="444.990903515" xlink:href="#C0_53_8900f3b981" y="58.727935411"/>
    </g>
    <g clip-path="url(#p40e1769114)">
     <use style="fill:none;stroke:#feed00;stroke-opacity:0.8;stroke-width:2.0;" x="139.975790904" xlink:href="#C0_54_e86c62879c" y="91.0084596225"/>
    </g>
    <g clip-path="url(#p40e1769114)">
     <use style="fill:none;stroke:#c1ff36;stroke-opacity:0.8;stroke-width:2.0;" x="335.33515396" xlink:href="#C0_55_e4a43f02fa" y="108.339554067"/>
    </g>
    <g clip-path="url(#p40e1769114)">
     <use style="fill:none;stroke:#0038ff;stroke-opacity:0.8;stroke-width:2.0;" x="469.421694189" xlink:href="#C0_56_04af193015" y="200.668839319"/>
    </g>
    <g clip-path="url(#p40e1769114)">
     <use style="fill:none;stroke:#0000df;stroke-opacity:0.8;stroke-width:2.0;" x="49.0188561755" xlink:href="#C0_57_c5d162bbe5" y="222.787262607"/>
    </g>
    <g clip-path="url(#p40e1769114)">
     <use style="fill:none;stroke:#0028ff;stroke-opacity:0.8;stroke-width:2.0;" x="380.83671488" xlink:href="#C0_58_9b1e69c3f5" y="203.688655365"/>
    </g>
    <g clip-path="url(#p40e1769114)">
     <use style="fill:none;stroke:#ff6c00;stroke-opacity:0.8;stroke-width:2.0;" x="403.710982076" xlink:href="#C0_59_4d74f5a16a" y="60.0193276159"/>
    </g>
    <g clip-path="url(#p40e1769114)">
     <use style="fill:none;stroke:#80ff77;stroke-opacity:0.8;stroke-width:2.0;" x="285.881211733" xlink:href="#C0_5a_089409c3c2" y="126.004148085"/>
    </g>
    <g clip-path="url(#p40e1769114)">
     <use style="fill:none;stroke:#ad0000;stroke-opacity:0.8;stroke-width:2.0;" x="321.63897137" xlink:href="#C0_5b_a503afadb2" y="22.367019565"/>
    </g>
    <g clip-path="url(#p40e1769114)">
     <use style="fill:none;stroke:#ff6000;stroke-opacity:0.8;stroke-width:2.0;" x="363.515998181" xlink:href="#C0_5c_b2f6bb669c" y="57.3184782535"/>
    </g>
    <g clip-path="url(#p40e1769114)">
     <use style="fill:none;stroke:#ff9800;stroke-opacity:0.8;stroke-width:2.0;" x="123.796225102" xlink:href="#C0_5d_33cabc4f21" y="70.2304147084"/>
    </g>
    <g clip-path="url(#p40e1769114)">
     <use style="fill:none;stroke:#0090ff;stroke-opacity:0.8;stroke-width:2.0;" x="362.48701191" xlink:href="#C0_5e_030309dfe5" y="181.136535876"/>
    </g>
    <g clip-path="url(#p40e1769114)">
     <use style="fill:none;stroke:#53ffa4;stroke-opacity:0.8;stroke-width:2.0;" x="396.628768102" xlink:href="#C0_5f_090e83ac1b" y="139.061021732"/>
    </g>
    <g clip-path="url(#p40e1769114)">
     <use style="fill:none;stroke:#ff9400;stroke-opacity:0.8;stroke-width:2.0;" x="459.661066956" xlink:href="#C0_60_a9766df867" y="69.9682392352"/>
    </g>
    <g clip-path="url(#p40e1769114)">
     <use style="fill:none;stroke:#bb0000;stroke-opacity:0.8;stroke-width:2.0;" x="191.619091346" xlink:href="#C0_61_1346705944" y="24.8715848662"/>
    </g>
    <g clip-path="url(#p40e1769114)">
     <use style="fill:none;stroke:#ff2200;stroke-opacity:0.8;stroke-width:2.0;" x="427.719167119" xlink:href="#C0_62_e9c01fa583" y="42.3287411418"/>
    </g>
    <g clip-path="url(#p40e1769114)">
     <use style="fill:none;stroke:#ffc100;stroke-opacity:0.8;stroke-width:2.0;" x="310.23481513" xlink:href="#C0_63_6bfc6b42ee" y="80.5991125542"/>
    </g>
   </g>
   <g id="matplotlib.axis_1">
    <g id="xtick_1">
     <g id="line2d_1">
      <defs>
       <path d="
M0 0
L0 -4" id="m93b0483c22" style="stroke:#000000;stroke-width:0.5;"/>
      </defs>
      <g>
       <use style="stroke:#000000;stroke-width:0.5;" x="24.2135425" xlink:href="#m93b0483c22" y="242.598780937"/>
      </g>
     </g>
     <g id="line2d_2">
      <defs>
       <path d="
M0 0
L0 4" id="m741efc42ff" style="stroke:#000000;stroke-width:0.5;"/>
      </defs>
      <g>
       <use style="stroke:#000000;stroke-width:0.5;" x="24.2135425" xlink:href="#m741efc42ff" y="12.1987809375"/>
      </g>
     </g>
     <g id="text_1">
      <!-- 0.0 -->
      <defs>
       <path d="
M50.3906 35.7969
Q50.3906 27.1562 49.1406 20.3125
Q47.9062 13.4844 45.1406 8.73438
Q42.3906 4 38.0312 1.5
Q33.6875 -0.984375 27.4844 -0.984375
Q21.7344 -0.984375 17.4531 1.5
Q13.1875 4 10.375 8.73438
Q7.5625 13.4844 6.17188 20.3125
Q4.78125 27.1562 4.78125 35.7969
Q4.78125 44.4375 6.03125 51.2656
Q7.28125 58.1094 9.98438 62.8125
Q12.7031 67.5312 17.0156 70.0156
Q21.3438 72.5156 27.4844 72.5156
Q33.2969 72.5156 37.5938 70.0469
Q41.8906 67.5781 44.7188 62.8594
Q47.5625 58.1562 48.9688 51.3125
Q50.3906 44.4844 50.3906 35.7969
M13.8125 35.7969
Q13.8125 28.4688 14.5469 23
Q15.2812 17.5312 16.8906 13.8906
Q18.5 10.25 21.1094 8.42188
Q23.7344 6.59375 27.4844 6.59375
Q31.25 6.59375 33.8906 8.39062
Q36.5312 10.2031 38.2031 13.8125
Q39.8906 17.4375 40.6406 22.9219
Q41.4062 28.4219 41.4062 35.7969
Q41.4062 43.1094 40.6406 48.5781
Q39.8906 54.0469 38.2031 57.6562
Q36.5312 61.2812 33.8906 63.0781
Q31.25 64.8906 27.4844 64.8906
Q23.7344 64.8906 21.1094 63.0781
Q18.5 61.2812 16.8906 57.6562
Q15.2812 54.0469 14.5469 48.5781
Q13.8125 43.1094 13.8125 35.7969" id="WenQuanYiMicroHei-30"/>
       <path d="
M7.17188 5.42188
Q7.17188 7.28125 7.65625 8.5625
Q8.15625 9.85938 8.98438 10.6562
Q9.8125 11.4688 10.9375 11.8281
Q12.0625 12.2031 13.375 12.2031
Q14.6562 12.2031 15.7969 11.8281
Q16.9375 11.4688 17.7656 10.6562
Q18.6094 9.85938 19.0938 8.5625
Q19.5781 7.28125 19.5781 5.42188
Q19.5781 3.60938 19.0938 2.3125
Q18.6094 1.03125 17.7656 0.1875
Q16.9375 -0.640625 15.7969 -1.03125
Q14.6562 -1.42188 13.375 -1.42188
Q12.0625 -1.42188 10.9375 -1.03125
Q9.8125 -0.640625 8.98438 0.1875
Q8.15625 1.03125 7.65625 2.3125
Q7.17188 3.60938 7.17188 5.42188" id="WenQuanYiMicroHei-2e"/>
      </defs>
      <g transform="translate(17.8410925 254.194179062)scale(0.09996 -0.09996)">
       <use xlink:href="#WenQuanYiMicroHei-30"/>
       <use x="55.078125" xlink:href="#WenQuanYiMicroHei-2e"/>
       <use x="81.884765625" xlink:href="#WenQuanYiMicroHei-30"/>
      </g>
     </g>
    </g>
    <g id="xtick_2">
     <g id="line2d_3">
      <g>
       <use style="stroke:#000000;stroke-width:0.5;" x="113.4935425" xlink:href="#m93b0483c22" y="242.598780937"/>
      </g>
     </g>
     <g id="line2d_4">
      <g>
       <use style="stroke:#000000;stroke-width:0.5;" x="113.4935425" xlink:href="#m741efc42ff" y="12.1987809375"/>
      </g>
     </g>
     <g id="text_2">
      <!-- 0.2 -->
      <defs>
       <path d="
M49.2188 0
L4.6875 0
L4.6875 7.625
L21.7812 26.2188
Q25.4375 30.1719 28.3125 33.4375
Q31.2031 36.7188 33.2188 39.8438
Q35.25 42.9688 36.3281 46.1094
Q37.4062 49.2656 37.4062 52.9844
Q37.4062 55.8594 36.5781 58.0469
Q35.75 60.25 34.2031 61.7812
Q32.6719 63.3281 30.5625 64.1094
Q28.4688 64.8906 25.875 64.8906
Q21.2344 64.8906 17.5 63.0156
Q13.7656 61.1406 10.4062 58.2031
L5.42188 64.0156
Q7.375 65.7656 9.60938 67.2969
Q11.8594 68.8438 14.4531 69.9688
Q17.0469 71.0938 19.9219 71.75
Q22.7969 72.4062 25.9844 72.4062
Q30.6719 72.4062 34.4531 71.0938
Q38.2344 69.7812 40.8594 67.3125
Q43.5 64.8438 44.9375 61.2969
Q46.3906 57.7656 46.3906 53.3281
Q46.3906 49.1719 45.0938 45.4062
Q43.7969 41.6562 41.5312 38.0156
Q39.2656 34.375 36.1094 30.7031
Q32.9531 27.0469 29.2969 23.0938
L15.5781 8.5
L15.5781 8.10938
L49.2188 8.10938
z
" id="WenQuanYiMicroHei-32"/>
      </defs>
      <g transform="translate(107.179662813 254.194179062)scale(0.09996 -0.09996)">
       <use xlink:href="#WenQuanYiMicroHei-30"/>
       <use x="55.078125" xlink:href="#WenQuanYiMicroHei-2e"/>
       <use x="81.884765625" xlink:href="#WenQuanYiMicroHei-32"/>
      </g>
     </g>
    </g>
    <g id="xtick_3">
     <g id="line2d_5">
      <g>
       <use style="stroke:#000000;stroke-width:0.5;" x="202.7735425" xlink:href="#m93b0483c22" y="242.598780937"/>
      </g>
     </g>
     <g id="line2d_6">
      <g>
       <use style="stroke:#000000;stroke-width:0.5;" x="202.7735425" xlink:href="#m741efc42ff" y="12.1987809375"/>
      </g>
     </g>
     <g id="text_3">
      <!-- 0.4 -->
      <defs>
       <path d="
M53.0781 16.0156
L42.6719 16.0156
L42.6719 0
L34.0781 0
L34.0781 16.0156
L1.125 16.0156
L1.125 23.7812
L33.5 71.7812
L42.6719 71.7812
L42.6719 24.125
L53.0781 24.125
z

M34.0781 24.125
L34.0781 41.5
Q34.0781 44.2344 34.1562 47.2344
Q34.2344 50.25 34.3281 53.0938
Q34.4219 55.9531 34.5469 58.4375
Q34.6719 60.9375 34.7188 62.5938
L34.2812 62.5938
Q33.9375 61.625 33.4219 60.4219
Q32.9062 59.2344 32.2969 58.0312
Q31.6875 56.8438 31.0469 55.7188
Q30.4219 54.5938 29.8906 53.8125
L9.8125 24.125
z
" id="WenQuanYiMicroHei-34"/>
      </defs>
      <g transform="translate(196.26677125 254.194179062)scale(0.09996 -0.09996)">
       <use xlink:href="#WenQuanYiMicroHei-30"/>
       <use x="55.078125" xlink:href="#WenQuanYiMicroHei-2e"/>
       <use x="81.884765625" xlink:href="#WenQuanYiMicroHei-34"/>
      </g>
     </g>
    </g>
    <g id="xtick_4">
     <g id="line2d_7">
      <g>
       <use style="stroke:#000000;stroke-width:0.5;" x="292.0535425" xlink:href="#m93b0483c22" y="242.598780937"/>
      </g>
     </g>
     <g id="line2d_8">
      <g>
       <use style="stroke:#000000;stroke-width:0.5;" x="292.0535425" xlink:href="#m741efc42ff" y="12.1987809375"/>
      </g>
     </g>
     <g id="text_4">
      <!-- 0.6 -->
      <defs>
       <path d="
M5.51562 30.5156
Q5.51562 35.6406 6.03125 40.7188
Q6.54688 45.7969 7.82812 50.4531
Q9.125 55.125 11.375 59.125
Q13.625 63.1406 17.0938 66.0938
Q20.5625 69.0469 25.3906 70.7188
Q30.2188 72.4062 36.7188 72.4062
Q37.6406 72.4062 38.7656 72.3594
Q39.8906 72.3125 41.0312 72.1875
Q42.1875 72.0781 43.2344 71.9062
Q44.2812 71.7344 45.125 71.4844
L45.125 63.9219
Q43.4062 64.5 41.25 64.7969
Q39.1094 65.0938 37.0156 65.0938
Q32.625 65.0938 29.2656 64.0312
Q25.9219 62.9844 23.4844 61.0781
Q21.0469 59.1875 19.4062 56.5469
Q17.7812 53.9062 16.75 50.7031
Q15.7188 47.5156 15.2344 43.8906
Q14.75 40.2812 14.5938 36.375
L15.1875 36.375
Q16.1562 38.1406 17.5469 39.6719
Q18.9531 41.2188 20.7969 42.3125
Q22.6562 43.4062 24.9688 44.0312
Q27.2969 44.6719 30.1719 44.6719
Q34.8125 44.6719 38.5625 43.2344
Q42.3281 41.7969 44.9688 39.0156
Q47.6094 36.2344 49.0469 32.2031
Q50.4844 28.1719 50.4844 23
Q50.4844 17.4375 48.9688 12.9844
Q47.4688 8.54688 44.625 5.4375
Q41.7969 2.34375 37.7969 0.671875
Q33.7969 -0.984375 28.8125 -0.984375
Q23.9219 -0.984375 19.6406 0.921875
Q15.375 2.82812 12.25 6.73438
Q9.125 10.6406 7.3125 16.5469
Q5.51562 22.4688 5.51562 30.5156
M28.7188 6.5
Q31.6406 6.5 34.0469 7.5
Q36.4688 8.5 38.2188 10.5156
Q39.9844 12.5469 40.9375 15.6406
Q41.8906 18.75 41.8906 23
Q41.8906 26.4219 41.0781 29.125
Q40.2812 31.8438 38.6719 33.7344
Q37.0625 35.6406 34.6406 36.6719
Q32.2344 37.7031 29 37.7031
Q25.7344 37.7031 23.0156 36.5469
Q20.3125 35.4062 18.4062 33.5625
Q16.5 31.7344 15.4531 29.3906
Q14.4062 27.0469 14.4062 24.7031
Q14.4062 21.4375 15.3125 18.1875
Q16.2188 14.9375 18 12.3438
Q19.7812 9.76562 22.4531 8.125
Q25.1406 6.5 28.7188 6.5" id="WenQuanYiMicroHei-36"/>
      </defs>
      <g transform="translate(285.676406875 254.194179062)scale(0.09996 -0.09996)">
       <use xlink:href="#WenQuanYiMicroHei-30"/>
       <use x="55.078125" xlink:href="#WenQuanYiMicroHei-2e"/>
       <use x="81.884765625" xlink:href="#WenQuanYiMicroHei-36"/>
      </g>
     </g>
    </g>
    <g id="xtick_5">
     <g id="line2d_9">
      <g>
       <use style="stroke:#000000;stroke-width:0.5;" x="381.3335425" xlink:href="#m93b0483c22" y="242.598780937"/>
      </g>
     </g>
     <g id="line2d_10">
      <g>
       <use style="stroke:#000000;stroke-width:0.5;" x="381.3335425" xlink:href="#m741efc42ff" y="12.1987809375"/>
      </g>
     </g>
     <g id="text_5">
      <!-- 0.8 -->
      <defs>
       <path d="
M27.5938 72.5156
Q31.6875 72.5156 35.3281 71.4375
Q38.9688 70.3594 41.7188 68.2031
Q44.4844 66.0625 46.0938 62.8438
Q47.7031 59.625 47.7031 55.3281
Q47.7031 52.0469 46.7188 49.4062
Q45.75 46.7812 44.0312 44.6562
Q42.3281 42.5312 39.9844 40.8438
Q37.6406 39.1562 34.9062 37.7969
Q37.75 36.2812 40.4531 34.4219
Q43.1719 32.5625 45.2812 30.25
Q47.4062 27.9375 48.7031 25.0469
Q50 22.1719 50 18.6094
Q50 14.1094 48.3594 10.4688
Q46.7344 6.84375 43.7812 4.29688
Q40.8281 1.76562 36.6875 0.390625
Q32.5625 -0.984375 27.5938 -0.984375
Q22.2188 -0.984375 18.0469 0.328125
Q13.875 1.65625 11.0156 4.125
Q8.15625 6.59375 6.65625 10.1562
Q5.17188 13.7188 5.17188 18.2188
Q5.17188 21.875 6.26562 24.7969
Q7.375 27.7344 9.21875 30.0781
Q11.0781 32.4219 13.6094 34.2188
Q16.1562 36.0312 19 37.4062
Q16.6094 38.9219 14.5 40.7031
Q12.4062 42.4844 10.8594 44.6719
Q9.32812 46.875 8.42188 49.5312
Q7.51562 52.2031 7.51562 55.4219
Q7.51562 59.6719 9.15625 62.8594
Q10.7969 66.0625 13.5781 68.2031
Q16.3594 70.3594 20 71.4375
Q23.6406 72.5156 27.5938 72.5156
M13.9219 18.1094
Q13.9219 15.5312 14.7031 13.3594
Q15.4844 11.1875 17.1406 9.64062
Q18.7969 8.10938 21.3281 7.25
Q23.875 6.39062 27.3906 6.39062
Q30.8125 6.39062 33.4219 7.25
Q36.0312 8.10938 37.7812 9.6875
Q39.5469 11.2812 40.4219 13.5156
Q41.3125 15.7656 41.3125 18.5
Q41.3125 21.0469 40.3594 23.0938
Q39.4062 25.1406 37.625 26.8906
Q35.8438 28.6562 33.3438 30.2188
Q30.8594 31.7812 27.7812 33.2969
L26.3125 33.9844
Q20.1719 31.0625 17.0469 27.2656
Q13.9219 23.4844 13.9219 18.1094
M27.4844 65.0938
Q22.3125 65.0938 19.2656 62.5
Q16.2188 59.9062 16.2188 54.9844
Q16.2188 52.2031 17.0625 50.1875
Q17.9219 48.1875 19.4375 46.625
Q20.9531 45.0625 23.0781 43.8125
Q25.2031 42.5781 27.6875 41.4062
Q30.0312 42.4844 32.1094 43.75
Q34.1875 45.0156 35.7188 46.625
Q37.25 48.25 38.125 50.2969
Q39.0156 52.3438 39.0156 54.9844
Q39.0156 59.9062 35.9375 62.5
Q32.8594 65.0938 27.4844 65.0938" id="WenQuanYiMicroHei-38"/>
      </defs>
      <g transform="translate(374.980615938 254.194179062)scale(0.09996 -0.09996)">
       <use xlink:href="#WenQuanYiMicroHei-30"/>
       <use x="55.078125" xlink:href="#WenQuanYiMicroHei-2e"/>
       <use x="81.884765625" xlink:href="#WenQuanYiMicroHei-38"/>
      </g>
     </g>
    </g>
    <g id="xtick_6">
     <g id="line2d_11">
      <g>
       <use style="stroke:#000000;stroke-width:0.5;" x="470.6135425" xlink:href="#m93b0483c22" y="242.598780937"/>
      </g>
     </g>
     <g id="line2d_12">
      <g>
       <use style="stroke:#000000;stroke-width:0.5;" x="470.6135425" xlink:href="#m741efc42ff" y="12.1987809375"/>
      </g>
     </g>
     <g id="text_6">
      <!-- 1.0 -->
      <defs>
       <path d="
M34.7188 0
L26.125 0
L26.125 44.5781
Q26.125 46.6875 26.1406 49.0781
Q26.1719 51.4688 26.2344 53.8281
Q26.3125 56.2031 26.3906 58.375
Q26.4688 60.5469 26.5156 62.2031
Q25.6875 61.3281 25.0469 60.6875
Q24.4219 60.0625 23.75 59.4688
Q23.0938 58.8906 22.3594 58.2188
Q21.625 57.5625 20.6094 56.6875
L13.375 50.7812
L8.6875 56.7812
L27.3906 71.3906
L34.7188 71.3906
z
" id="WenQuanYiMicroHei-31"/>
      </defs>
      <g transform="translate(464.436326875 254.194179062)scale(0.09996 -0.09996)">
       <use xlink:href="#WenQuanYiMicroHei-31"/>
       <use x="55.078125" xlink:href="#WenQuanYiMicroHei-2e"/>
       <use x="81.884765625" xlink:href="#WenQuanYiMicroHei-30"/>
      </g>
     </g>
    </g>
   </g>
   <g id="matplotlib.axis_2">
    <g id="ytick_1">
     <g id="line2d_13">
      <defs>
       <path d="
M0 0
L4 0" id="m728421d6d4" style="stroke:#000000;stroke-width:0.5;"/>
      </defs>
      <g>
       <use style="stroke:#000000;stroke-width:0.5;" x="24.2135425" xlink:href="#m728421d6d4" y="242.598780937"/>
      </g>
     </g>
     <g id="line2d_14">
      <defs>
       <path d="
M0 0
L-4 0" id="mcb0005524f" style="stroke:#000000;stroke-width:0.5;"/>
      </defs>
      <g>
       <use style="stroke:#000000;stroke-width:0.5;" x="470.6135425" xlink:href="#mcb0005524f" y="242.598780937"/>
      </g>
     </g>
     <g id="text_7">
      <!-- 0.0 -->
      <g transform="translate(7.4686425 245.195398125)scale(0.09996 -0.09996)">
       <use xlink:href="#WenQuanYiMicroHei-30"/>
       <use x="55.078125" xlink:href="#WenQuanYiMicroHei-2e"/>
       <use x="81.884765625" xlink:href="#WenQuanYiMicroHei-30"/>
      </g>
     </g>
    </g>
    <g id="ytick_2">
     <g id="line2d_15">
      <g>
       <use style="stroke:#000000;stroke-width:0.5;" x="24.2135425" xlink:href="#m728421d6d4" y="196.518780937"/>
      </g>
     </g>
     <g id="line2d_16">
      <g>
       <use style="stroke:#000000;stroke-width:0.5;" x="470.6135425" xlink:href="#mcb0005524f" y="196.518780937"/>
      </g>
     </g>
     <g id="text_8">
      <!-- 0.2 -->
      <g transform="translate(7.585783125 199.115398125)scale(0.09996 -0.09996)">
       <use xlink:href="#WenQuanYiMicroHei-30"/>
       <use x="55.078125" xlink:href="#WenQuanYiMicroHei-2e"/>
       <use x="81.884765625" xlink:href="#WenQuanYiMicroHei-32"/>
      </g>
     </g>
    </g>
    <g id="ytick_3">
     <g id="line2d_17">
      <g>
       <use style="stroke:#000000;stroke-width:0.5;" x="24.2135425" xlink:href="#m728421d6d4" y="150.438780937"/>
      </g>
     </g>
     <g id="line2d_18">
      <g>
       <use style="stroke:#000000;stroke-width:0.5;" x="470.6135425" xlink:href="#mcb0005524f" y="150.438780937"/>
      </g>
     </g>
     <g id="text_9">
      <!-- 0.4 -->
      <g transform="translate(7.2 153.035398125)scale(0.09996 -0.09996)">
       <use xlink:href="#WenQuanYiMicroHei-30"/>
       <use x="55.078125" xlink:href="#WenQuanYiMicroHei-2e"/>
       <use x="81.884765625" xlink:href="#WenQuanYiMicroHei-34"/>
      </g>
     </g>
    </g>
    <g id="ytick_4">
     <g id="line2d_19">
      <g>
       <use style="stroke:#000000;stroke-width:0.5;" x="24.2135425" xlink:href="#m728421d6d4" y="104.358780937"/>
      </g>
     </g>
     <g id="line2d_20">
      <g>
       <use style="stroke:#000000;stroke-width:0.5;" x="470.6135425" xlink:href="#mcb0005524f" y="104.358780937"/>
      </g>
     </g>
     <g id="text_10">
      <!-- 0.6 -->
      <g transform="translate(7.45927125 106.955398125)scale(0.09996 -0.09996)">
       <use xlink:href="#WenQuanYiMicroHei-30"/>
       <use x="55.078125" xlink:href="#WenQuanYiMicroHei-2e"/>
       <use x="81.884765625" xlink:href="#WenQuanYiMicroHei-36"/>
      </g>
     </g>
    </g>
    <g id="ytick_5">
     <g id="line2d_21">
      <g>
       <use style="stroke:#000000;stroke-width:0.5;" x="24.2135425" xlink:href="#m728421d6d4" y="58.2787809375"/>
      </g>
     </g>
     <g id="line2d_22">
      <g>
       <use style="stroke:#000000;stroke-width:0.5;" x="470.6135425" xlink:href="#mcb0005524f" y="58.2787809375"/>
      </g>
     </g>
     <g id="text_11">
      <!-- 0.8 -->
      <g transform="translate(7.507689375 60.875398125)scale(0.09996 -0.09996)">
       <use xlink:href="#WenQuanYiMicroHei-30"/>
       <use x="55.078125" xlink:href="#WenQuanYiMicroHei-2e"/>
       <use x="81.884765625" xlink:href="#WenQuanYiMicroHei-38"/>
      </g>
     </g>
    </g>
    <g id="ytick_6">
     <g id="line2d_23">
      <g>
       <use style="stroke:#000000;stroke-width:0.5;" x="24.2135425" xlink:href="#m728421d6d4" y="12.1987809375"/>
      </g>
     </g>
     <g id="line2d_24">
      <g>
       <use style="stroke:#000000;stroke-width:0.5;" x="470.6135425" xlink:href="#mcb0005524f" y="12.1987809375"/>
      </g>
     </g>
     <g id="text_12">
      <!-- 1.0 -->
      <g transform="translate(7.85911125 14.795398125)scale(0.09996 -0.09996)">
       <use xlink:href="#WenQuanYiMicroHei-31"/>
       <use x="55.078125" xlink:href="#WenQuanYiMicroHei-2e"/>
       <use x="81.884765625" xlink:href="#WenQuanYiMicroHei-30"/>
      </g>
     </g>
    </g>
   </g>
   <g id="patch_3">
    <path d="
M24.2135 12.1988
L470.614 12.1988" style="fill:none;stroke:#000000;"/>
   </g>
   <g id="patch_4">
    <path d="
M470.614 242.599
L470.614 12.1988" style="fill:none;stroke:#000000;"/>
   </g>
   <g id="patch_5">
    <path d="
M24.2135 242.599
L470.614 242.599" style="fill:none;stroke:#000000;"/>
   </g>
   <g id="patch_6">
    <path d="
M24.2135 242.599
L24.2135 12.1988" style="fill:none;stroke:#000000;"/>
   </g>
  </g>
 </g>
 <defs>
  <clipPath id="p40e1769114">
   <rect height="230.4" width="446.4" x="24.2135425" y="12.1987809375"/>
  </clipPath>
 </defs>
</svg>
