<?xml version="1.0" encoding="utf-8" standalone="no"?>
<!DOCTYPE svg PUBLIC "-//W3C//DTD SVG 1.1//EN"
  "http://www.w3.org/Graphics/SVG/1.1/DTD/svg11.dtd">
<!-- Created with matplotlib (http://matplotlib.org/) -->
<svg height="191pt" version="1.1" viewBox="0 0 378 191" width="378pt" xmlns="http://www.w3.org/2000/svg" xmlns:xlink="http://www.w3.org/1999/xlink">
 <defs>
  <style type="text/css">
*{stroke-linecap:butt;stroke-linejoin:round;}
  </style>
 </defs>
 <g id="figure_1">
  <g id="patch_1">
   <path d="
M-3.55271e-15 191.798
L378.436 191.798
L378.436 0
L-3.55271e-15 0
z
" style="fill:#ffffff;"/>
  </g>
  <g id="axes_1">
   <g id="patch_2">
    <path d="
M100.564 171.99
C120.744 171.99 140.099 163.972 154.368 149.703
C168.638 135.434 176.655 116.078 176.655 95.8988
C176.655 75.7192 168.638 56.3635 154.368 42.0944
C140.099 27.8253 120.744 19.8079 100.564 19.8079
C80.3846 19.8079 61.0288 27.8253 46.7597 42.0944
C32.4906 56.3635 24.4732 75.7192 24.4732 95.8988
C24.4732 116.078 32.4906 135.434 46.7597 149.703
C61.0288 163.972 80.3846 171.99 100.564 171.99
z
" style="fill:#ffffff;"/>
   </g>
   <g id="line2d_1">
    <path clip-path="url(#pe13ae2eb50)" d="
M149.262 95.8988
L149.175 92.9786
L148.912 90.069
L148.476 87.1804
L147.866 84.3231
L147.087 81.5075
L146.141 78.7437
L145.03 76.0416
L143.759 73.411
L142.333 70.8613
L140.756 68.4017
L139.035 66.0411
L137.176 63.7879
L135.184 61.6504
L133.068 59.636
L130.835 57.7522
L128.493 56.0056
L126.051 54.4027
L123.517 52.949
L120.9 51.65
L118.21 50.5102
L115.457 49.5337
L112.65 48.7241
L109.799 48.0843
L106.915 47.6166
L104.009 47.3226
L101.09 47.2034
L98.1689 47.2595
L95.2566 47.4907
L92.3635 47.896
L89.4998 48.4742
L86.6759 49.223
L83.902 50.1398
L81.1881 51.2212
L78.5439 52.4635
L75.979 53.8621
L73.5026 55.4119
L71.1235 57.1075
L68.8504 58.9427
L66.6914 60.9109
L64.6544 63.005
L62.7465 65.2174
L60.9748 67.5403
L59.3456 69.9653
L57.8647 72.4836
L56.5374 75.0862
L55.3686 77.7636
L54.3625 80.5064
L53.5227 83.3045
L52.8521 86.1479
L52.3533 89.0265
L52.0279 91.9298
L51.8773 94.8473
L51.9018 97.7687
L52.1015 100.683
L52.4756 103.581
L53.0228 106.45
L53.7411 109.282
L54.6279 112.066
L55.68 114.791
L56.8936 117.449
L58.2644 120.029
L59.7874 122.522
L61.4572 124.919
L63.2678 127.212
L65.2125 129.392
L67.2845 131.451
L69.4763 133.383
L71.7799 135.18
L74.1871 136.835
L76.6893 138.343
L79.2774 139.698
L81.9421 140.896
L84.6738 141.931
L87.4627 142.802
L90.2987 143.503
L93.1717 144.033
L96.0713 144.389
L98.9871 144.571
L101.909 144.578
L104.825 144.41
L107.726 144.067
L110.602 143.551
L113.441 142.864
L116.234 142.007
L118.971 140.984
L121.641 139.799
L124.236 138.457
L126.745 136.96
L129.16 135.317
L131.472 133.531
L133.673 131.61
L135.755 129.56
L137.71 127.389
L139.532 125.105
L141.213 122.716
L142.748 120.23
L144.131 117.657
L145.357 115.006
L146.423 112.285
L147.323 109.506
L148.054 106.677
L148.615 103.81
L149.003 100.915
L149.217 98.0012
L149.262 96.0539
L149.262 96.0539" style="fill:none;stroke:#348abd;stroke-linecap:square;stroke-width:2;"/>
   </g>
   <g id="line2d_2">
    <path clip-path="url(#pe13ae2eb50)" d="
M100.564 95.8988
L101.163 95.7898
L101.704 95.4699
L102.13 94.9599
L102.395 94.2932
L102.456 93.5146
L102.286 92.6776
L101.867 91.8418
L101.199 91.0706
L100.295 90.4269
L99.1811 89.9707
L97.8999 89.7556
L96.5049 89.8258
L95.0598 90.2132
L94.1036 90.6574
L93.1791 91.2524
L92.3091 91.9964
L91.5163 92.8844
L90.8229 93.908
L90.2502 95.0554
L89.8179 96.3117
L89.5438 97.6592
L89.4436 99.0774
L89.5301 100.543
L89.8129 102.032
L90.2985 103.517
L90.9897 104.97
L91.8854 106.363
L92.9807 107.668
L94.2668 108.856
L95.7308 109.9
L97.3562 110.775
L99.1227 111.456
L101.007 111.922
L102.981 112.156
L105.017 112.141
L107.083 111.867
L109.145 111.326
L111.169 110.516
L113.118 109.439
L114.958 108.101
L116.654 106.514
L118.172 104.693
L119.481 102.658
L120.55 100.435
L121.353 98.0515
L121.867 95.5406
L122.072 92.9376
L121.956 90.281
L121.507 87.6112
L120.721 84.9703
L119.599 82.4012
L118.147 79.9469
L116.376 77.6501
L114.305 75.5521
L111.956 73.6924
L109.356 72.1077
L106.539 70.8315
L103.541 69.8934
L100.404 69.3182
L97.1722 69.1259
L93.8928 69.3309
L90.615 69.9416
L87.3896 70.9605
L84.2678 72.3834
L81.3005 74.1999
L78.5376 76.393
L76.027 78.9394
L73.8142 81.8096
L72.8326 83.3554
L71.9408 84.9685
L71.1433 86.6436
L70.4444 88.3753
L69.848 90.1576
L69.3577 91.9846
L68.9767 93.8497
L68.7077 95.7466
L68.5533 97.6683
L68.5155 99.6079
L68.5958 101.558
L68.7953 103.512
L69.1149 105.463
L69.5548 107.402
L70.1147 109.323
L70.794 111.217
L71.5916 113.078
L72.5058 114.898
L73.5347 116.67
L74.6757 118.387
L75.9258 120.041
L77.2817 121.625
L78.7393 123.133
L80.2945 124.559
L81.9425 125.895
L83.6782 127.136
L85.4961 128.276
L87.3903 129.31
L89.3545 130.233
L91.3822 131.04
L93.4665 131.726
L95.6002 132.288
L97.7758 132.723
L99.9858 133.027
L102.222 133.197
L104.477 133.232
L106.742 133.131
L109.008 132.891
L111.268 132.513
L113.513 131.996
L115.734 131.341
L117.923 130.549
L120.071 129.622
L122.17 128.561
L124.212 127.368
L126.188 126.048
L128.09 124.604
L129.911 123.04
L131.642 121.36
L133.277 119.569
L134.809 117.674
L136.231 115.68
L137.536 113.593
L138.718 111.421
L139.772 109.17
L140.693 106.848
L141.476 104.464
L142.117 102.025
L142.612 99.5395
L142.957 97.017
L143.151 94.4661
L143.19 91.896
L143.074 89.3161
L142.801 86.7359
L142.371 84.1648
L141.784 81.6126
L141.041 79.0887
L140.142 76.6029
L139.091 74.1647
L137.888 71.7835
L136.539 69.4686
L135.045 67.2293
L133.412 65.0744
L131.644 63.0127
L129.746 61.0526
L127.725 59.2024
L125.586 57.4697
L123.337 55.862
L120.985 54.3864
L118.538 53.0495
L116.003 51.8574
L113.39 50.8157
L110.707 49.9296
L107.964 49.2037
L105.17 48.642
L102.336 48.2481
L99.4708 48.0247
L96.5853 47.9742
L93.6898 48.0982
L90.795 48.3977
L87.9115 48.873
L85.05 49.5239
L82.2213 50.3494
L79.436 51.348
L76.7048 52.5172
L74.0382 53.8544
L71.4464 55.3558
L68.9396 57.0174
L66.5278 58.8342
L64.2206 60.8009
L62.0272 62.9115
L59.9567 65.1592
L58.0177 67.5369
L56.2183 70.037
L54.5662 72.6512
L53.0687 75.3707
L51.7325 78.1865
L50.5637 81.0889
L49.5679 84.0679
L48.7502 87.1132
L48.1149 90.2141
L47.6657 93.3597
L47.4058 96.5387
L47.3374 99.7397
L47.4624 102.951
L47.7816 106.161
L48.2955 109.359
L49.0036 112.531
L49.9046 115.667
L50.9969 118.754
L52.2777 121.781
L53.7438 124.736
L55.3912 127.608
L57.2151 130.386
L59.2102 133.059
L61.3703 135.616
L63.6889 138.048
L66.1585 140.344
L68.7711 142.494
L71.5183 144.491
L74.3909 146.325
L77.3792 147.99
L80.4733 149.476
L83.6624 150.778
L86.9356 151.89
L90.2816 152.806
L93.6884 153.522
L97.1442 154.033
L100.637 154.337
L104.153 154.43
L107.681 154.31
L111.207 153.978
L114.719 153.433
L118.204 152.674
L121.648 151.704
L125.04 150.524
L128.365 149.138
L131.612 147.549
L134.768 145.762
L137.821 143.781
L140.759 141.613
L143.571 139.265
L146.245 136.743
L148.772 134.056
L151.139 131.213
L153.339 128.223
L155.361 125.096
L157.198 121.842
L158.841 118.472
L160.283 114.999
L161.517 111.434
L162.538 107.789
L163.341 104.078
L163.921 100.313
L164.275 96.5076
L164.275 96.5076" style="fill:none;stroke:#a60628;stroke-dasharray:6.000000,6.000000;stroke-dashoffset:0.0;stroke-width:2;"/>
   </g>
   <g id="patch_3">
    <path d="
M100.564 171.99
C120.744 171.99 140.099 163.972 154.368 149.703
C168.638 135.434 176.655 116.078 176.655 95.8988
C176.655 75.7192 168.638 56.3635 154.368 42.0944
C140.099 27.8253 120.744 19.8079 100.564 19.8079
C80.3846 19.8079 61.0288 27.8253 46.7597 42.0944
C32.4906 56.3635 24.4732 75.7192 24.4732 95.8988
C24.4732 116.078 32.4906 135.434 46.7597 149.703
C61.0288 163.972 80.3846 171.99 100.564 171.99
z
" style="fill:none;stroke:#000000;stroke-linecap:square;stroke-linejoin:miter;"/>
   </g>
   <g id="matplotlib.axis_1">
    <g id="xtick_1">
     <g id="line2d_3">
      <path clip-path="url(#pe13ae2eb50)" d="
M100.564 95.8988
L176.655 95.8988" style="fill:none;stroke:#000000;stroke-dasharray:1.000000,3.000000;stroke-dashoffset:0.0;stroke-width:0.5;"/>
     </g>
     <g id="text_1">
      <!-- 0° -->
      <defs>
       <path d="
M6 56.9844
Q6 60.1562 7.21875 62.9531
Q8.45312 65.7656 10.5156 67.8594
Q12.5938 69.9688 15.4062 71.1875
Q18.2188 72.4062 21.3906 72.4062
Q24.5625 72.4062 27.3594 71.1875
Q30.1719 69.9688 32.2656 67.8594
Q34.375 65.7656 35.5938 62.9531
Q36.8125 60.1562 36.8125 56.9844
Q36.8125 53.8125 35.5938 51.0312
Q34.375 48.25 32.2656 46.1719
Q30.1719 44.0938 27.3594 42.8906
Q24.5625 41.7031 21.3906 41.7031
Q18.2188 41.7031 15.4062 42.8906
Q12.5938 44.0938 10.5156 46.1719
Q8.45312 48.25 7.21875 51.0312
Q6 53.8125 6 56.9844
M12.0156 56.9844
Q12.0156 55.0781 12.75 53.3906
Q13.4844 51.7031 14.75 50.4375
Q16.0156 49.1719 17.7188 48.4375
Q19.4375 47.7031 21.3906 47.7031
Q23.3438 47.7031 25.0469 48.4375
Q26.7656 49.1719 28.0469 50.4375
Q29.3438 51.7031 30.0781 53.3906
Q30.8125 55.0781 30.8125 56.9844
Q30.8125 58.9375 30.0781 60.6719
Q29.3438 62.4062 28.0469 63.6875
Q26.7656 64.9844 25.0469 65.7344
Q23.3438 66.5 21.3906 66.5
Q19.4375 66.5 17.7188 65.7344
Q16.0156 64.9844 14.75 63.6875
Q13.4844 62.4062 12.75 60.6719
Q12.0156 58.9375 12.0156 56.9844" id="WenQuanYiMicroHei-b0"/>
       <path d="
M50.3906 35.7969
Q50.3906 27.1562 49.1406 20.3125
Q47.9062 13.4844 45.1406 8.73438
Q42.3906 4 38.0312 1.5
Q33.6875 -0.984375 27.4844 -0.984375
Q21.7344 -0.984375 17.4531 1.5
Q13.1875 4 10.375 8.73438
Q7.5625 13.4844 6.17188 20.3125
Q4.78125 27.1562 4.78125 35.7969
Q4.78125 44.4375 6.03125 51.2656
Q7.28125 58.1094 9.98438 62.8125
Q12.7031 67.5312 17.0156 70.0156
Q21.3438 72.5156 27.4844 72.5156
Q33.2969 72.5156 37.5938 70.0469
Q41.8906 67.5781 44.7188 62.8594
Q47.5625 58.1562 48.9688 51.3125
Q50.3906 44.4844 50.3906 35.7969
M13.8125 35.7969
Q13.8125 28.4688 14.5469 23
Q15.2812 17.5312 16.8906 13.8906
Q18.5 10.25 21.1094 8.42188
Q23.7344 6.59375 27.4844 6.59375
Q31.25 6.59375 33.8906 8.39062
Q36.5312 10.2031 38.2031 13.8125
Q39.8906 17.4375 40.6406 22.9219
Q41.4062 28.4219 41.4062 35.7969
Q41.4062 43.1094 40.6406 48.5781
Q39.8906 54.0469 38.2031 57.6562
Q36.5312 61.2812 33.8906 63.0781
Q31.25 64.8906 27.4844 64.8906
Q23.7344 64.8906 21.1094 63.0781
Q18.5 61.2812 16.8906 57.6562
Q15.2812 54.0469 14.5469 48.5781
Q13.8125 43.1094 13.8125 35.7969" id="WenQuanYiMicroHei-30"/>
      </defs>
      <g transform="translate(179.910375 98.495398125)scale(0.09996 -0.09996)">
       <use xlink:href="#WenQuanYiMicroHei-30"/>
       <use x="55.078125" xlink:href="#WenQuanYiMicroHei-b0"/>
      </g>
     </g>
    </g>
    <g id="xtick_2">
     <g id="line2d_4">
      <path clip-path="url(#pe13ae2eb50)" d="
M100.564 95.8988
L154.368 42.0944" style="fill:none;stroke:#000000;stroke-dasharray:1.000000,3.000000;stroke-dashoffset:0.0;stroke-width:0.5;"/>
     </g>
     <g id="text_2">
      <!-- 45° -->
      <defs>
       <path d="
M26.6094 43.7969
Q31.4531 43.7969 35.625 42.4531
Q39.7969 41.1094 42.8906 38.4688
Q46 35.8438 47.75 31.9375
Q49.5156 28.0312 49.5156 22.9062
Q49.5156 17.3281 47.8438 12.8906
Q46.1875 8.45312 42.9219 5.375
Q39.6562 2.29688 34.8438 0.65625
Q30.0312 -0.984375 23.7812 -0.984375
Q21.2969 -0.984375 18.875 -0.734375
Q16.4531 -0.484375 14.2344 -0.015625
Q12.0156 0.4375 10.0156 1.17188
Q8.01562 1.90625 6.39062 2.875
L6.39062 11.2812
Q8.01562 10.1562 10.1875 9.28125
Q12.3594 8.40625 14.75 7.8125
Q17.1406 7.23438 19.5469 6.90625
Q21.9688 6.59375 24.0312 6.59375
Q27.875 6.59375 30.9062 7.5
Q33.9375 8.40625 36.0312 10.2969
Q38.1406 12.2031 39.25 15.0781
Q40.375 17.9688 40.375 21.9219
Q40.375 28.9062 36.0781 32.5938
Q31.7812 36.2812 23.5781 36.2812
Q22.2656 36.2812 20.7188 36.1562
Q19.1875 36.0312 17.6406 35.8281
Q16.1094 35.6406 14.7188 35.4219
Q13.3281 35.2031 12.3125 35.0156
L7.90625 37.7969
L10.5938 71.3906
L44.2812 71.3906
L44.2812 63.2812
L18.3125 63.2812
L16.4062 42.8281
Q17.9688 43.1094 20.5312 43.4531
Q23.0938 43.7969 26.6094 43.7969" id="WenQuanYiMicroHei-35"/>
       <path d="
M53.0781 16.0156
L42.6719 16.0156
L42.6719 0
L34.0781 0
L34.0781 16.0156
L1.125 16.0156
L1.125 23.7812
L33.5 71.7812
L42.6719 71.7812
L42.6719 24.125
L53.0781 24.125
z

M34.0781 24.125
L34.0781 41.5
Q34.0781 44.2344 34.1562 47.2344
Q34.2344 50.25 34.3281 53.0938
Q34.4219 55.9531 34.5469 58.4375
Q34.6719 60.9375 34.7188 62.5938
L34.2812 62.5938
Q33.9375 61.625 33.4219 60.4219
Q32.9062 59.2344 32.2969 58.0312
Q31.6875 56.8438 31.0469 55.7188
Q30.4219 54.5938 29.8906 53.8125
L9.8125 24.125
z
" id="WenQuanYiMicroHei-34"/>
      </defs>
      <g transform="translate(152.459668523 39.3105605397)scale(0.09996 -0.09996)">
       <use xlink:href="#WenQuanYiMicroHei-34"/>
       <use x="55.078125" xlink:href="#WenQuanYiMicroHei-35"/>
       <use x="110.15625" xlink:href="#WenQuanYiMicroHei-b0"/>
      </g>
     </g>
    </g>
    <g id="xtick_3">
     <g id="line2d_5">
      <path clip-path="url(#pe13ae2eb50)" d="
M100.564 95.8988
L100.564 19.8079" style="fill:none;stroke:#000000;stroke-dasharray:1.000000,3.000000;stroke-dashoffset:0.0;stroke-width:0.5;"/>
     </g>
     <g id="text_3">
      <!-- 90° -->
      <defs>
       <path d="
M50.2031 40.9219
Q50.2031 35.7969 49.6875 30.6875
Q49.1719 25.5938 47.875 20.9531
Q46.5781 16.3125 44.3281 12.2812
Q42.0938 8.25 38.625 5.3125
Q35.1562 2.39062 30.3125 0.703125
Q25.4844 -0.984375 19 -0.984375
Q18.0625 -0.984375 16.9375 -0.921875
Q15.8281 -0.875 14.7031 -0.75
Q13.5781 -0.640625 12.5 -0.484375
Q11.4219 -0.34375 10.5938 -0.09375
L10.5938 7.51562
Q12.3125 6.89062 14.4531 6.59375
Q16.6094 6.29688 18.7031 6.29688
Q25.2969 6.29688 29.5469 8.59375
Q33.7969 10.8906 36.2812 14.8125
Q38.7656 18.75 39.8125 23.9688
Q40.875 29.2031 41.1094 35.0156
L40.4844 35.0156
Q39.5 33.25 38.125 31.7344
Q36.7656 30.2188 34.9062 29.0938
Q33.0625 27.9844 30.7188 27.3438
Q28.375 26.7031 25.4844 26.7031
Q20.8438 26.7031 17.0781 28.1406
Q13.3281 29.5938 10.6875 32.375
Q8.0625 35.1562 6.60938 39.1875
Q5.17188 43.2188 5.17188 48.3906
Q5.17188 53.9531 6.70312 58.4219
Q8.25 62.8906 11.0625 65.9844
Q13.875 69.0938 17.8906 70.75
Q21.9219 72.4062 26.9062 72.4062
Q31.8438 72.4062 36.0781 70.5
Q40.3281 68.6094 43.4531 64.7031
Q46.5781 60.7969 48.3906 54.8594
Q50.2031 48.9219 50.2031 40.9219
M27 64.8906
Q24.0781 64.8906 21.6562 63.9062
Q19.2344 62.9375 17.4688 60.8906
Q15.7188 58.8438 14.7656 55.7344
Q13.8125 52.6406 13.8125 48.3906
Q13.8125 44.9688 14.625 42.25
Q15.4375 39.5469 17.0469 37.6406
Q18.6562 35.75 21.0625 34.7188
Q23.4844 33.6875 26.7031 33.6875
Q30.0312 33.6875 32.7188 34.8281
Q35.4062 35.9844 37.2969 37.8125
Q39.2031 39.6562 40.25 42
Q41.3125 44.3438 41.3125 46.6875
Q41.3125 49.9531 40.4062 53.2031
Q39.5 56.4531 37.7188 59.0625
Q35.9375 61.6719 33.25 63.2812
Q30.5625 64.8906 27 64.8906" id="WenQuanYiMicroHei-39"/>
      </defs>
      <g transform="translate(93.47709375 14.795398125)scale(0.09996 -0.09996)">
       <use xlink:href="#WenQuanYiMicroHei-39"/>
       <use x="55.078125" xlink:href="#WenQuanYiMicroHei-30"/>
       <use x="110.15625" xlink:href="#WenQuanYiMicroHei-b0"/>
      </g>
     </g>
    </g>
    <g id="xtick_4">
     <g id="line2d_6">
      <path clip-path="url(#pe13ae2eb50)" d="
M100.564 95.8988
L46.7597 42.0944" style="fill:none;stroke:#000000;stroke-dasharray:1.000000,3.000000;stroke-dashoffset:0.0;stroke-width:0.5;"/>
     </g>
     <g id="text_4">
      <!-- 135° -->
      <defs>
       <path d="
M46.9219 54.6875
Q46.9219 51.125 45.7969 48.1875
Q44.6719 45.2656 42.6406 43.1094
Q40.625 40.9688 37.7969 39.5781
Q34.9688 38.1875 31.5 37.5938
L31.5 37.3125
Q40.1406 36.2344 44.625 31.8125
Q49.125 27.3906 49.125 20.3125
Q49.125 15.625 47.5312 11.7188
Q45.9531 7.8125 42.7188 4.98438
Q39.5 2.15625 34.5625 0.578125
Q29.6406 -0.984375 22.9062 -0.984375
Q17.5781 -0.984375 12.8594 -0.140625
Q8.15625 0.6875 4 2.875
L4 11.1875
Q8.25 8.9375 13.2031 7.71875
Q18.1719 6.5 22.7031 6.5
Q27.2031 6.5 30.4688 7.46875
Q33.7344 8.45312 35.8594 10.25
Q37.9844 12.0625 38.9844 14.6875
Q39.9844 17.3281 39.9844 20.6094
Q39.9844 23.9219 38.6875 26.2812
Q37.4062 28.6562 35.0156 30.1875
Q32.625 31.7344 29.1719 32.4688
Q25.7344 33.2031 21.3906 33.2031
L14.8906 33.2031
L14.8906 40.5781
L21.3906 40.5781
Q25.3438 40.5781 28.4219 41.5469
Q31.5 42.5312 33.5625 44.3281
Q35.6406 46.1406 36.7188 48.625
Q37.7969 51.125 37.7969 54.1094
Q37.7969 56.6406 36.9062 58.6406
Q36.0312 60.6406 34.4219 62.0312
Q32.8125 63.4219 30.5625 64.1562
Q28.3281 64.8906 25.5938 64.8906
Q20.3594 64.8906 16.375 63.25
Q12.4062 61.625 8.79688 58.9844
L4.29688 65.0938
Q6.15625 66.6094 8.42188 67.9219
Q10.6875 69.2344 13.375 70.2344
Q16.0625 71.2344 19.1094 71.8125
Q22.1719 72.4062 25.5938 72.4062
Q30.8594 72.4062 34.8281 71.0938
Q38.8125 69.7812 41.5 67.4062
Q44.1875 65.0469 45.5469 61.7969
Q46.9219 58.5469 46.9219 54.6875" id="WenQuanYiMicroHei-33"/>
       <path d="
M34.7188 0
L26.125 0
L26.125 44.5781
Q26.125 46.6875 26.1406 49.0781
Q26.1719 51.4688 26.2344 53.8281
Q26.3125 56.2031 26.3906 58.375
Q26.4688 60.5469 26.5156 62.2031
Q25.6875 61.3281 25.0469 60.6875
Q24.4219 60.0625 23.75 59.4688
Q23.0938 58.8906 22.3594 58.2188
Q21.625 57.5625 20.6094 56.6875
L13.375 50.7812
L8.6875 56.7812
L27.3906 71.3906
L34.7188 71.3906
z
" id="WenQuanYiMicroHei-31"/>
      </defs>
      <g transform="translate(31.7151624147 39.3105605397)scale(0.09996 -0.09996)">
       <use xlink:href="#WenQuanYiMicroHei-31"/>
       <use x="55.078125" xlink:href="#WenQuanYiMicroHei-33"/>
       <use x="110.15625" xlink:href="#WenQuanYiMicroHei-35"/>
       <use x="165.234375" xlink:href="#WenQuanYiMicroHei-b0"/>
      </g>
     </g>
    </g>
    <g id="xtick_5">
     <g id="line2d_7">
      <path clip-path="url(#pe13ae2eb50)" d="
M100.564 95.8988
L24.4732 95.8988" style="fill:none;stroke:#000000;stroke-dasharray:1.000000,3.000000;stroke-dashoffset:0.0;stroke-width:0.5;"/>
     </g>
     <g id="text_5">
      <!-- 180° -->
      <defs>
       <path d="
M27.5938 72.5156
Q31.6875 72.5156 35.3281 71.4375
Q38.9688 70.3594 41.7188 68.2031
Q44.4844 66.0625 46.0938 62.8438
Q47.7031 59.625 47.7031 55.3281
Q47.7031 52.0469 46.7188 49.4062
Q45.75 46.7812 44.0312 44.6562
Q42.3281 42.5312 39.9844 40.8438
Q37.6406 39.1562 34.9062 37.7969
Q37.75 36.2812 40.4531 34.4219
Q43.1719 32.5625 45.2812 30.25
Q47.4062 27.9375 48.7031 25.0469
Q50 22.1719 50 18.6094
Q50 14.1094 48.3594 10.4688
Q46.7344 6.84375 43.7812 4.29688
Q40.8281 1.76562 36.6875 0.390625
Q32.5625 -0.984375 27.5938 -0.984375
Q22.2188 -0.984375 18.0469 0.328125
Q13.875 1.65625 11.0156 4.125
Q8.15625 6.59375 6.65625 10.1562
Q5.17188 13.7188 5.17188 18.2188
Q5.17188 21.875 6.26562 24.7969
Q7.375 27.7344 9.21875 30.0781
Q11.0781 32.4219 13.6094 34.2188
Q16.1562 36.0312 19 37.4062
Q16.6094 38.9219 14.5 40.7031
Q12.4062 42.4844 10.8594 44.6719
Q9.32812 46.875 8.42188 49.5312
Q7.51562 52.2031 7.51562 55.4219
Q7.51562 59.6719 9.15625 62.8594
Q10.7969 66.0625 13.5781 68.2031
Q16.3594 70.3594 20 71.4375
Q23.6406 72.5156 27.5938 72.5156
M13.9219 18.1094
Q13.9219 15.5312 14.7031 13.3594
Q15.4844 11.1875 17.1406 9.64062
Q18.7969 8.10938 21.3281 7.25
Q23.875 6.39062 27.3906 6.39062
Q30.8125 6.39062 33.4219 7.25
Q36.0312 8.10938 37.7812 9.6875
Q39.5469 11.2812 40.4219 13.5156
Q41.3125 15.7656 41.3125 18.5
Q41.3125 21.0469 40.3594 23.0938
Q39.4062 25.1406 37.625 26.8906
Q35.8438 28.6562 33.3438 30.2188
Q30.8594 31.7812 27.7812 33.2969
L26.3125 33.9844
Q20.1719 31.0625 17.0469 27.2656
Q13.9219 23.4844 13.9219 18.1094
M27.4844 65.0938
Q22.3125 65.0938 19.2656 62.5
Q16.2188 59.9062 16.2188 54.9844
Q16.2188 52.2031 17.0625 50.1875
Q17.9219 48.1875 19.4375 46.625
Q20.9531 45.0625 23.0781 43.8125
Q25.2031 42.5781 27.6875 41.4062
Q30.0312 42.4844 32.1094 43.75
Q34.1875 45.0156 35.7188 46.625
Q37.25 48.25 38.125 50.2969
Q39.0156 52.3438 39.0156 54.9844
Q39.0156 59.9062 35.9375 62.5
Q32.8594 65.0938 27.4844 65.0938" id="WenQuanYiMicroHei-38"/>
      </defs>
      <g transform="translate(7.2 98.495398125)scale(0.09996 -0.09996)">
       <use xlink:href="#WenQuanYiMicroHei-31"/>
       <use x="55.078125" xlink:href="#WenQuanYiMicroHei-38"/>
       <use x="110.15625" xlink:href="#WenQuanYiMicroHei-30"/>
       <use x="165.234375" xlink:href="#WenQuanYiMicroHei-b0"/>
      </g>
     </g>
    </g>
    <g id="xtick_6">
     <g id="line2d_8">
      <path clip-path="url(#pe13ae2eb50)" d="
M100.564 95.8988
L46.7597 149.703" style="fill:none;stroke:#000000;stroke-dasharray:1.000000,3.000000;stroke-dashoffset:0.0;stroke-width:0.5;"/>
     </g>
     <g id="text_6">
      <!-- 225° -->
      <defs>
       <path d="
M49.2188 0
L4.6875 0
L4.6875 7.625
L21.7812 26.2188
Q25.4375 30.1719 28.3125 33.4375
Q31.2031 36.7188 33.2188 39.8438
Q35.25 42.9688 36.3281 46.1094
Q37.4062 49.2656 37.4062 52.9844
Q37.4062 55.8594 36.5781 58.0469
Q35.75 60.25 34.2031 61.7812
Q32.6719 63.3281 30.5625 64.1094
Q28.4688 64.8906 25.875 64.8906
Q21.2344 64.8906 17.5 63.0156
Q13.7656 61.1406 10.4062 58.2031
L5.42188 64.0156
Q7.375 65.7656 9.60938 67.2969
Q11.8594 68.8438 14.4531 69.9688
Q17.0469 71.0938 19.9219 71.75
Q22.7969 72.4062 25.9844 72.4062
Q30.6719 72.4062 34.4531 71.0938
Q38.2344 69.7812 40.8594 67.3125
Q43.5 64.8438 44.9375 61.2969
Q46.3906 57.7656 46.3906 53.3281
Q46.3906 49.1719 45.0938 45.4062
Q43.7969 41.6562 41.5312 38.0156
Q39.2656 34.375 36.1094 30.7031
Q32.9531 27.0469 29.2969 23.0938
L15.5781 8.5
L15.5781 8.10938
L49.2188 8.10938
z
" id="WenQuanYiMicroHei-32"/>
      </defs>
      <g transform="translate(31.5152424147 157.68023571)scale(0.09996 -0.09996)">
       <use xlink:href="#WenQuanYiMicroHei-32"/>
       <use x="55.078125" xlink:href="#WenQuanYiMicroHei-32"/>
       <use x="110.15625" xlink:href="#WenQuanYiMicroHei-35"/>
       <use x="165.234375" xlink:href="#WenQuanYiMicroHei-b0"/>
      </g>
     </g>
    </g>
    <g id="xtick_7">
     <g id="line2d_9">
      <path clip-path="url(#pe13ae2eb50)" d="
M100.564 95.8988
L100.564 171.99" style="fill:none;stroke:#000000;stroke-dasharray:1.000000,3.000000;stroke-dashoffset:0.0;stroke-width:0.5;"/>
     </g>
     <g id="text_7">
      <!-- 270° -->
      <defs>
       <path d="
M13.7188 0
L41.2188 63.2812
L4.39062 63.2812
L4.39062 71.3906
L50.2969 71.3906
L50.2969 64.3125
L23.1875 0
z
" id="WenQuanYiMicroHei-37"/>
      </defs>
      <g transform="translate(90.70008 182.195398125)scale(0.09996 -0.09996)">
       <use xlink:href="#WenQuanYiMicroHei-32"/>
       <use x="55.078125" xlink:href="#WenQuanYiMicroHei-37"/>
       <use x="110.15625" xlink:href="#WenQuanYiMicroHei-30"/>
       <use x="165.234375" xlink:href="#WenQuanYiMicroHei-b0"/>
      </g>
     </g>
    </g>
    <g id="xtick_8">
     <g id="line2d_10">
      <path clip-path="url(#pe13ae2eb50)" d="
M100.564 95.8988
L154.368 149.703" style="fill:none;stroke:#000000;stroke-dasharray:1.000000,3.000000;stroke-dashoffset:0.0;stroke-width:0.5;"/>
     </g>
     <g id="text_8">
      <!-- 315° -->
      <g transform="translate(149.850556335 157.68023571)scale(0.09996 -0.09996)">
       <use xlink:href="#WenQuanYiMicroHei-33"/>
       <use x="55.078125" xlink:href="#WenQuanYiMicroHei-31"/>
       <use x="110.15625" xlink:href="#WenQuanYiMicroHei-35"/>
       <use x="165.234375" xlink:href="#WenQuanYiMicroHei-b0"/>
      </g>
     </g>
    </g>
   </g>
   <g id="matplotlib.axis_2">
    <g id="ytick_1">
     <g id="line2d_11">
      <path clip-path="url(#pe13ae2eb50)" d="
M115.782 95.8988
L115.699 94.308
L115.45 92.7347
L115.037 91.1961
L114.467 89.709
L113.743 88.2897
L112.876 86.9538
L111.873 85.7158
L110.747 84.5895
L109.509 83.587
L108.173 82.7194
L106.754 81.9963
L105.267 81.4254
L103.728 81.0132
L102.155 80.764
L100.564 80.6806
L98.9734 80.764
L97.4001 81.0132
L95.8614 81.4254
L94.3743 81.9963
L92.955 82.7194
L91.6191 83.587
L90.3812 84.5895
L89.2548 85.7158
L88.2523 86.9538
L87.3848 88.2897
L86.6616 89.709
L86.0908 91.1961
L85.6785 92.7347
L85.4293 94.308
L85.3459 95.8988
L85.4293 97.4895
L85.6785 99.0628
L86.0908 100.601
L86.6616 102.089
L87.3848 103.508
L88.2523 104.844
L89.2548 106.082
L90.3812 107.208
L91.6191 108.211
L92.955 109.078
L94.3743 109.801
L95.8614 110.372
L97.4001 110.784
L98.9734 111.034
L100.564 111.117
L102.155 111.034
L103.728 110.784
L105.267 110.372
L106.754 109.801
L108.173 109.078
L109.509 108.211
L110.747 107.208
L111.873 106.082
L112.876 104.844
L113.743 103.508
L114.467 102.089
L115.037 100.601
L115.45 99.0628
L115.699 97.4895
L115.782 95.8988
L115.782 95.8988" style="fill:none;stroke:#000000;stroke-dasharray:1.000000,3.000000;stroke-dashoffset:0.0;stroke-width:0.5;"/>
     </g>
     <g id="text_9">
      <!-- 0.5 -->
      <defs>
       <path d="
M7.17188 5.42188
Q7.17188 7.28125 7.65625 8.5625
Q8.15625 9.85938 8.98438 10.6562
Q9.8125 11.4688 10.9375 11.8281
Q12.0625 12.2031 13.375 12.2031
Q14.6562 12.2031 15.7969 11.8281
Q16.9375 11.4688 17.7656 10.6562
Q18.6094 9.85938 19.0938 8.5625
Q19.5781 7.28125 19.5781 5.42188
Q19.5781 3.60938 19.0938 2.3125
Q18.6094 1.03125 17.7656 0.1875
Q16.9375 -0.640625 15.7969 -1.03125
Q14.6562 -1.42188 13.375 -1.42188
Q12.0625 -1.42188 10.9375 -1.03125
Q9.8125 -0.640625 8.98438 0.1875
Q8.15625 1.03125 7.65625 2.3125
Q7.17188 3.60938 7.17188 5.42188" id="WenQuanYiMicroHei-2e"/>
      </defs>
      <g transform="translate(114.623868266 87.672871135)scale(0.09996 -0.09996)">
       <use xlink:href="#WenQuanYiMicroHei-30"/>
       <use x="55.078125" xlink:href="#WenQuanYiMicroHei-2e"/>
       <use x="81.884765625" xlink:href="#WenQuanYiMicroHei-35"/>
      </g>
     </g>
    </g>
    <g id="ytick_2">
     <g id="line2d_12">
      <path clip-path="url(#pe13ae2eb50)" d="
M131 95.8988
L130.982 94.8366
L130.926 93.7756
L130.704 91.6629
L130.335 89.5707
L129.821 87.5094
L129.165 85.4889
L128.369 83.5192
L127.438 81.6098
L126.376 79.77
L125.188 78.0087
L123.88 76.3347
L122.458 74.7559
L120.93 73.2802
L119.303 71.9146
L117.584 70.6659
L115.782 69.5401
L113.907 68.5428
L111.966 67.6787
L109.969 66.9521
L107.927 66.3665
L105.849 65.9248
L103.746 65.6292
L101.626 65.481
L99.5019 65.481
L97.3826 65.6292
L95.2789 65.9248
L93.2009 66.3665
L91.1587 66.9521
L89.1624 67.6787
L87.2217 68.5428
L85.3459 69.5401
L83.5443 70.6659
L81.8256 71.9146
L80.1982 73.2802
L78.67 74.7559
L77.2485 76.3347
L75.9406 78.0087
L74.7526 79.77
L73.6904 81.6098
L72.7591 83.5192
L71.9633 85.4889
L71.3068 87.5094
L70.7928 89.5707
L70.4239 91.6629
L70.2019 93.7756
L70.1277 95.8988
L70.2019 98.0219
L70.4239 100.135
L70.7928 102.227
L71.3068 104.288
L71.9633 106.309
L72.7591 108.278
L73.6904 110.188
L74.7526 112.028
L75.9406 113.789
L77.2485 115.463
L78.67 117.042
L80.1982 118.517
L81.8256 119.883
L83.5443 121.132
L85.3459 122.257
L87.2217 123.255
L89.1624 124.119
L91.1587 124.845
L93.2009 125.431
L95.2789 125.873
L97.3826 126.168
L99.5019 126.317
L101.626 126.317
L103.746 126.168
L105.849 125.873
L107.927 125.431
L109.969 124.845
L111.966 124.119
L113.907 123.255
L115.782 122.257
L117.584 121.132
L119.303 119.883
L120.93 118.517
L122.458 117.042
L123.88 115.463
L125.188 113.789
L126.376 112.028
L127.438 110.188
L128.369 108.278
L129.165 106.309
L129.821 104.288
L130.335 102.227
L130.704 100.135
L130.926 98.0219
L131 95.8988
L131 95.8988" style="fill:none;stroke:#000000;stroke-dasharray:1.000000,3.000000;stroke-dashoffset:0.0;stroke-width:0.5;"/>
     </g>
     <g id="text_10">
      <!-- 1.0 -->
      <g transform="translate(128.68363497 81.8491250824)scale(0.09996 -0.09996)">
       <use xlink:href="#WenQuanYiMicroHei-31"/>
       <use x="55.078125" xlink:href="#WenQuanYiMicroHei-2e"/>
       <use x="81.884765625" xlink:href="#WenQuanYiMicroHei-30"/>
      </g>
     </g>
    </g>
    <g id="ytick_3">
     <g id="line2d_13">
      <path clip-path="url(#pe13ae2eb50)" d="
M146.219 95.8988
L146.191 94.3055
L146.107 92.7141
L145.774 89.5449
L145.221 86.4067
L144.45 83.3147
L143.465 80.284
L142.272 77.3294
L140.875 74.4653
L139.281 71.7056
L137.499 69.0637
L135.538 66.5526
L133.405 64.1845
L131.113 61.9708
L128.672 59.9225
L126.094 58.0494
L123.391 56.3608
L120.578 54.8647
L117.667 53.5686
L114.672 52.4787
L111.609 51.6004
L108.492 50.9378
L105.336 50.4943
L102.157 50.272
L98.9708 50.272
L95.7919 50.4943
L92.6363 50.9378
L89.5193 51.6004
L86.4561 52.4787
L83.4616 53.5686
L80.5505 54.8647
L77.7368 56.3608
L75.0344 58.0494
L72.4564 59.9225
L70.0152 61.9708
L67.723 64.1845
L65.5907 66.5526
L63.6288 69.0637
L61.8469 71.7056
L60.2535 74.4653
L58.8566 77.3294
L57.6629 80.284
L56.6781 83.3147
L55.9072 86.4067
L55.3539 89.5449
L55.0208 92.7141
L54.9096 95.8988
L55.0208 99.0835
L55.3539 102.253
L55.9072 105.391
L56.6781 108.483
L57.6629 111.514
L58.8566 114.468
L60.2535 117.332
L61.8469 120.092
L63.6288 122.734
L65.5907 125.245
L67.723 127.613
L70.0152 129.827
L72.4564 131.875
L75.0344 133.748
L77.7368 135.437
L80.5505 136.933
L83.4616 138.229
L86.4561 139.319
L89.5193 140.197
L92.6363 140.86
L95.7919 141.303
L98.9708 141.526
L102.157 141.526
L105.336 141.303
L108.492 140.86
L111.609 140.197
L114.672 139.319
L117.667 138.229
L120.578 136.933
L123.391 135.437
L126.094 133.748
L128.672 131.875
L131.113 129.827
L133.405 127.613
L135.538 125.245
L137.499 122.734
L139.281 120.092
L140.875 117.332
L142.272 114.468
L143.465 111.514
L144.45 108.483
L145.221 105.391
L145.774 102.253
L146.107 99.0835
L146.219 95.8988
L146.219 95.8988" style="fill:none;stroke:#000000;stroke-dasharray:1.000000,3.000000;stroke-dashoffset:0.0;stroke-width:0.5;"/>
     </g>
     <g id="text_11">
      <!-- 1.5 -->
      <g transform="translate(142.743401674 76.0253790299)scale(0.09996 -0.09996)">
       <use xlink:href="#WenQuanYiMicroHei-31"/>
       <use x="55.078125" xlink:href="#WenQuanYiMicroHei-2e"/>
       <use x="81.884765625" xlink:href="#WenQuanYiMicroHei-35"/>
      </g>
     </g>
    </g>
    <g id="ytick_4">
     <g id="line2d_14">
      <path clip-path="url(#pe13ae2eb50)" d="
M161.437 95.8988
L161.4 93.7744
L161.289 91.6525
L160.844 87.4269
L160.107 83.2426
L159.079 79.12
L157.766 75.0791
L156.174 71.1396
L154.312 67.3208
L152.187 63.6412
L149.811 60.1187
L147.195 56.7705
L144.352 53.613
L141.296 50.6615
L138.041 47.9304
L134.604 45.433
L131 43.1815
L127.249 41.1867
L123.367 39.4586
L119.375 38.0054
L115.291 36.8342
L111.135 35.9508
L106.927 35.3595
L102.689 35.0631
L98.4397 35.0631
L94.2012 35.3595
L89.9937 35.9508
L85.8377 36.8342
L81.7534 38.0054
L77.7608 39.4586
L73.8793 41.1867
L70.1277 43.1815
L66.5245 45.433
L63.0871 47.9304
L59.8323 50.6615
L56.7759 53.613
L53.9329 56.7705
L51.317 60.1187
L48.9411 63.6412
L46.8167 67.3208
L44.9541 71.1396
L43.3624 75.0791
L42.0495 79.12
L41.0216 83.2426
L40.2838 87.4269
L39.8397 91.6525
L39.6914 95.8988
L39.8397 100.145
L40.2838 104.371
L41.0216 108.555
L42.0495 112.678
L43.3624 116.718
L44.9541 120.658
L46.8167 124.477
L48.9411 128.156
L51.317 131.679
L53.9329 135.027
L56.7759 138.185
L59.8323 141.136
L63.0871 143.867
L66.5245 146.365
L70.1277 148.616
L73.8793 150.611
L77.7608 152.339
L81.7534 153.792
L85.8377 154.963
L89.9937 155.847
L94.2012 156.438
L98.4397 156.734
L102.689 156.734
L106.927 156.438
L111.135 155.847
L115.291 154.963
L119.375 153.792
L123.367 152.339
L127.249 150.611
L131 148.616
L134.604 146.365
L138.041 143.867
L141.296 141.136
L144.352 138.185
L147.195 135.027
L149.811 131.679
L152.187 128.156
L154.312 124.477
L156.174 120.658
L157.766 116.718
L159.079 112.678
L160.107 108.555
L160.844 104.371
L161.289 100.145
L161.437 95.8988
L161.437 95.8988" style="fill:none;stroke:#000000;stroke-dasharray:1.000000,3.000000;stroke-dashoffset:0.0;stroke-width:0.5;"/>
     </g>
     <g id="text_12">
      <!-- 2.0 -->
      <g transform="translate(156.803168378 70.2016329773)scale(0.09996 -0.09996)">
       <use xlink:href="#WenQuanYiMicroHei-32"/>
       <use x="55.078125" xlink:href="#WenQuanYiMicroHei-2e"/>
       <use x="81.884765625" xlink:href="#WenQuanYiMicroHei-30"/>
      </g>
     </g>
    </g>
    <g id="ytick_5">
     <g id="line2d_15">
      <path clip-path="url(#pe13ae2eb50)" d="
M176.655 95.8988
L176.609 93.2432
L176.47 90.5909
L175.914 85.309
L174.992 80.0786
L173.707 74.9253
L172.066 69.8742
L170.077 64.9498
L167.748 60.1763
L165.093 55.5767
L162.123 51.1737
L158.853 46.9885
L155.299 43.0416
L151.479 39.3522
L147.41 35.9383
L143.114 32.8166
L138.61 30.0021
L133.92 27.5087
L129.068 25.3485
L124.077 23.532
L118.972 22.0681
L113.777 20.9639
L108.518 20.2247
L103.22 19.8542
L97.9086 19.8542
L92.6104 20.2247
L87.3511 20.9639
L82.156 22.0681
L77.0507 23.532
L72.0599 25.3485
L67.208 27.5087
L62.5186 30.0021
L58.0146 32.8166
L53.7179 35.9383
L49.6493 39.3522
L45.8289 43.0416
L42.2751 46.9885
L39.0053 51.1737
L36.0354 55.5767
L33.3798 60.1763
L31.0516 64.9498
L29.062 69.8742
L27.4208 74.9253
L26.136 80.0786
L25.2137 85.309
L24.6585 90.5909
L24.4732 95.8988
L24.6585 101.207
L25.2137 106.489
L26.136 111.719
L27.4208 116.872
L29.062 121.923
L31.0516 126.848
L33.3798 131.621
L36.0354 136.221
L39.0053 140.624
L42.2751 144.809
L45.8289 148.756
L49.6493 152.445
L53.7179 155.859
L58.0146 158.981
L62.5186 161.795
L67.208 164.289
L72.0599 166.449
L77.0507 168.266
L82.156 169.729
L87.3511 170.834
L92.6104 171.573
L97.9086 171.943
L103.22 171.943
L108.518 171.573
L113.777 170.834
L118.972 169.729
L124.077 168.266
L129.068 166.449
L133.92 164.289
L138.61 161.795
L143.114 158.981
L147.41 155.859
L151.479 152.445
L155.299 148.756
L158.853 144.809
L162.123 140.624
L165.093 136.221
L167.748 131.621
L170.077 126.848
L172.066 121.923
L173.707 116.872
L174.992 111.719
L175.914 106.489
L176.47 101.207
L176.655 95.8988
L176.655 95.8988" style="fill:none;stroke:#000000;stroke-dasharray:1.000000,3.000000;stroke-dashoffset:0.0;stroke-width:0.5;"/>
     </g>
     <g id="text_13">
      <!-- 2.5 -->
      <g transform="translate(170.862935082 64.3778869248)scale(0.09996 -0.09996)">
       <use xlink:href="#WenQuanYiMicroHei-32"/>
       <use x="55.078125" xlink:href="#WenQuanYiMicroHei-2e"/>
       <use x="81.884765625" xlink:href="#WenQuanYiMicroHei-35"/>
      </g>
     </g>
    </g>
   </g>
  </g>
  <g id="axes_2">
   <g id="patch_4">
    <path d="
M283.182 171.99
C303.362 171.99 322.718 163.972 336.987 149.703
C351.256 135.434 359.273 116.078 359.273 95.8988
C359.273 75.7192 351.256 56.3635 336.987 42.0944
C322.718 27.8253 303.362 19.8079 283.182 19.8079
C263.003 19.8079 243.647 27.8253 229.378 42.0944
C215.109 56.3635 207.091 75.7192 207.091 95.8988
C207.091 116.078 215.109 135.434 229.378 149.703
C243.647 163.972 263.003 171.99 283.182 171.99
z
" style="fill:#ffffff;"/>
   </g>
   <g id="line2d_16">
    <path clip-path="url(#peff54ab9b3)" d="
M336.446 95.8988
L336.169 94.8389
L335.342 93.8113
L333.975 92.8475
L332.084 91.9782
L329.692 91.2322
L326.827 90.6362
L323.522 90.214
L319.817 89.9866
L315.757 89.9713
L311.387 90.1814
L306.76 90.6263
L301.93 91.311
L296.951 92.2359
L291.883 93.3969
L286.782 94.7853
M285.855 92.0809
L288.716 87.6483
L291.346 83.1851
L293.719 78.7437
L295.815 74.3776
L297.618 70.1399
L299.116 66.0833
L300.304 62.259
L301.18 58.7161
L301.748 55.5011
L302.018 52.6569
L302 50.2224
L301.714 48.2323
L301.18 46.7158
L300.422 45.6971
L299.469 45.1942
L298.35 45.2191
L297.097 45.7778
L295.743 46.8694
L294.323 48.4868
L292.872 50.6165
L291.422 53.2387
L290.007 56.3275
L288.66 59.8511
L287.408 63.7726
L286.281 68.0498
L285.3 72.6364
L284.488 77.482
L283.862 82.533
L283.434 87.7334
L283.213 93.0251
M283.044 95.7082
L279.826 91.4763
L276.474 87.4181
L273.029 83.5773
L269.533 79.9936
L266.031 76.7024
L262.567 73.7347
L259.19 71.1165
L255.946 68.8685
L252.88 67.0061
L250.039 65.5389
L247.465 64.4714
L245.199 63.8021
L243.278 63.5246
L241.737 63.6268
L240.604 64.0922
L239.906 64.8993
L239.661 66.0226
L239.885 67.4331
L240.585 69.0981
L241.765 70.9826
L243.422 73.0494
L245.545 75.2598
L248.121 77.5742
L251.126 79.9528
L254.534 82.3561
L258.314 84.7456
L262.426 87.0841
L266.829 89.337
L271.477 91.4717
L276.32 93.459
L281.305 95.2732
M282.108 96.2529
L277.106 98.0374
L272.237 99.9988
L267.554 102.112
L263.109 104.348
L258.947 106.675
L255.112 109.059
L251.643 111.463
L248.571 113.848
L245.926 116.175
L243.729 118.405
L241.998 120.497
L240.741 122.413
L239.964 124.115
L239.665 125.569
L239.836 126.74
L240.464 127.599
L241.528 128.12
L243.006 128.282
L244.869 128.066
L247.082 127.459
L249.61 126.455
L252.411 125.052
L255.444 123.252
L258.663 121.064
L262.022 118.504
L265.475 115.59
L268.975 112.349
L272.475 108.809
L275.931 105.007
L279.3 100.98
L282.542 96.7731
M283.198 97.9252
L283.385 103.226
L283.78 108.445
L284.376 113.523
L285.159 118.405
L286.114 123.037
L287.22 127.366
L288.453 131.348
L289.788 134.937
L291.193 138.097
L292.64 140.796
L294.093 143.005
L295.521 144.706
L296.887 145.882
L298.158 146.525
L299.301 146.635
L300.283 146.216
L301.073 145.278
L301.645 143.839
L301.972 141.923
L302.034 139.557
L301.811 136.775
L301.291 133.617
L300.464 130.123
L299.326 126.34
L297.877 122.317
L296.122 118.105
L294.072 113.756
L291.741 109.323
L289.151 104.859
L286.325 100.418
L283.293 96.0513
M285.97 96.7709
L291.071 98.1945
L296.149 99.3924
L301.145 100.355
L306.003 101.078
L310.666 101.561
L315.08 101.808
L319.193 101.828
L322.958 101.633
L326.329 101.241
L329.266 100.671
L331.736 99.9471
L333.709 99.0956
L335.161 98.1449
L336.074 97.1253
L336.439 96.0684
L336.439 96.0684" style="fill:none;stroke:#348abd;stroke-dasharray:6.000000,6.000000;stroke-dashoffset:0.0;stroke-width:2;"/>
   </g>
   <g id="line2d_17">
    <path clip-path="url(#peff54ab9b3)" d="
M351.664 95.8988
L351.431 94.5336
L350.735 93.1952
L349.582 91.91
L347.98 90.7039
L345.943 89.6017
L343.488 88.6271
L340.636 87.8023
L337.41 87.1476
L333.835 86.6814
L329.943 86.4199
L325.764 86.3767
L321.332 86.5628
L316.684 86.9866
L311.857 87.6533
L306.889 88.5655
L301.82 89.7223
L296.691 91.1202
L291.541 92.7524
L286.411 94.609
M283.381 95.4169
L285.354 90.3139
L287.108 85.1699
L288.634 80.0246
L289.921 74.9183
L290.966 69.8912
L291.765 64.9831
L292.319 60.2335
L292.633 55.6803
L292.712 51.3606
L292.567 47.3092
L292.21 43.5594
L291.655 40.1418
L290.919 37.0843
L290.023 34.4123
L288.987 32.1477
L287.834 30.3093
L286.588 28.9122
L285.275 27.9681
L283.921 27.4848
L282.552 27.4663
L281.196 27.9127
L279.879 28.8203
L278.627 30.1817
L277.466 31.9855
L276.419 34.2168
L275.511 36.8571
L274.762 39.8847
L274.192 43.2747
L273.818 46.9992
L273.656 51.0277
L273.717 55.3273
L274.011 59.8632
L274.547 64.5986
L275.326 69.4954
L276.351 74.5146
L277.62 79.6161
L279.126 84.7597
L280.863 89.9053
L282.819 95.0129
M280.36 94.7662
L275.233 92.8922
L270.083 91.2417
L264.951 89.8249
L259.876 88.6487
L254.899 87.717
L250.059 87.0307
L245.395 86.5878
L240.945 86.383
L236.744 86.4083
L232.828 86.6529
L229.227 87.1033
L225.972 87.7436
L223.089 88.5556
L220.602 89.5191
L218.531 90.612
L216.894 91.8108
L215.704 93.0906
L214.972 94.4257
L214.702 95.7897
L214.898 97.1559
L215.557 98.4974
L216.675 99.7877
L218.241 101.001
L220.244 102.112
L222.666 103.098
L225.487 103.936
L228.685 104.605
L232.232 105.086
L236.101 105.365
L240.258 105.426
L244.671 105.258
L249.303 104.854
L254.118 104.206
L259.076 103.314
L264.138 102.176
L269.264 100.797
L274.413 99.1835
L279.546 97.3443
M283.15 95.9773
L281.16 101.075
L279.388 106.217
L277.844 111.364
L276.537 116.475
L275.473 121.51
L274.654 126.429
L274.08 131.193
L273.748 135.763
L273.65 140.102
L273.778 144.176
L274.119 147.951
L274.659 151.396
L275.381 154.484
L276.265 157.187
L277.291 159.485
L278.435 161.358
L279.675 162.791
L280.983 163.771
L282.335 164.291
L283.703 164.347
L285.061 163.937
L286.383 163.066
L287.641 161.741
L288.81 159.972
L289.867 157.774
L290.787 155.165
L291.549 152.168
L292.134 148.805
L292.524 145.107
L292.704 141.101
L292.661 136.822
L292.385 132.303
L291.87 127.582
L291.11 122.697
L290.104 117.686
L288.855 112.59
L287.367 107.448
L285.648 102.301
L283.709 97.1891
M285.599 96.8729
L290.722 98.7642
L295.871 100.433
L301.006 101.869
L306.087 103.064
L311.074 104.015
L315.926 104.721
L320.605 105.183
L325.074 105.407
L329.296 105.399
L333.236 105.172
L336.863 104.737
L340.147 104.111
L343.06 103.312
L345.58 102.36
L347.684 101.277
L349.356 100.086
L350.582 98.8113
L351.351 97.4796
L351.658 96.1169
L351.658 96.1169" style="fill:none;stroke:#a60628;stroke-linecap:square;stroke-width:2;"/>
   </g>
   <g id="patch_5">
    <path d="
M283.182 171.99
C303.362 171.99 322.718 163.972 336.987 149.703
C351.256 135.434 359.273 116.078 359.273 95.8988
C359.273 75.7192 351.256 56.3635 336.987 42.0944
C322.718 27.8253 303.362 19.8079 283.182 19.8079
C263.003 19.8079 243.647 27.8253 229.378 42.0944
C215.109 56.3635 207.091 75.7192 207.091 95.8988
C207.091 116.078 215.109 135.434 229.378 149.703
C243.647 163.972 263.003 171.99 283.182 171.99
z
" style="fill:none;stroke:#000000;stroke-linecap:square;stroke-linejoin:miter;"/>
   </g>
   <g id="matplotlib.axis_3">
    <g id="xtick_9">
     <g id="line2d_18">
      <path clip-path="url(#peff54ab9b3)" d="
M283.182 95.8988
L359.273 95.8988" style="fill:none;stroke:#000000;stroke-dasharray:1.000000,3.000000;stroke-dashoffset:0.0;stroke-width:0.5;"/>
     </g>
     <g id="text_14">
      <!-- 0° -->
      <g transform="translate(362.528556818 98.495398125)scale(0.09996 -0.09996)">
       <use xlink:href="#WenQuanYiMicroHei-30"/>
       <use x="55.078125" xlink:href="#WenQuanYiMicroHei-b0"/>
      </g>
     </g>
    </g>
    <g id="xtick_10">
     <g id="line2d_19">
      <path clip-path="url(#peff54ab9b3)" d="
M283.182 95.8988
L336.987 42.0944" style="fill:none;stroke:#000000;stroke-dasharray:1.000000,3.000000;stroke-dashoffset:0.0;stroke-width:0.5;"/>
     </g>
     <g id="text_15">
      <!-- 45° -->
      <g transform="translate(335.077850341 39.3105605397)scale(0.09996 -0.09996)">
       <use xlink:href="#WenQuanYiMicroHei-34"/>
       <use x="55.078125" xlink:href="#WenQuanYiMicroHei-35"/>
       <use x="110.15625" xlink:href="#WenQuanYiMicroHei-b0"/>
      </g>
     </g>
    </g>
   </g>
   <g id="matplotlib.axis_4">
    <g id="ytick_6">
     <g id="line2d_20">
      <path clip-path="url(#peff54ab9b3)" d="
M302.205 95.8988
L302.101 93.9104
L301.789 91.9437
L301.274 90.0204
L300.56 88.1615
L299.656 86.3874
L298.572 84.7175
L297.319 83.1701
L295.911 81.7621
L294.364 80.5091
L292.694 79.4246
L290.92 78.5207
L289.061 77.8071
L287.137 77.2917
L285.171 76.9803
L283.182 76.8761
L281.194 76.9803
L279.227 77.2917
L277.304 77.8071
L275.445 78.5207
L273.671 79.4246
L272.001 80.5091
L270.454 81.7621
L269.046 83.1701
L267.793 84.7175
L266.708 86.3874
L265.804 88.1615
L265.091 90.0204
L264.575 91.9437
L264.264 93.9104
L264.16 95.8988
L264.264 97.8872
L264.575 99.8538
L265.091 101.777
L265.804 103.636
L266.708 105.41
L267.793 107.08
L269.046 108.627
L270.454 110.035
L272.001 111.288
L273.671 112.373
L275.445 113.277
L277.304 113.99
L279.227 114.506
L281.194 114.817
L283.182 114.922
L285.171 114.817
L287.137 114.506
L289.061 113.99
L290.92 113.277
L292.694 112.373
L294.364 111.288
L295.911 110.035
L297.319 108.627
L298.572 107.08
L299.656 105.41
L300.56 103.636
L301.274 101.777
L301.789 99.8538
L302.101 97.8872
L302.205 95.8988
L302.205 95.8988" style="fill:none;stroke:#000000;stroke-dasharray:1.000000,3.000000;stroke-dashoffset:0.0;stroke-width:0.5;"/>
     </g>
     <g id="text_16">
      <!-- 0.5 -->
      <g transform="translate(296.633382832 80.0455177363)scale(0.09996 -0.09996)">
       <use xlink:href="#WenQuanYiMicroHei-30"/>
       <use x="55.078125" xlink:href="#WenQuanYiMicroHei-2e"/>
       <use x="81.884765625" xlink:href="#WenQuanYiMicroHei-35"/>
      </g>
     </g>
    </g>
    <g id="ytick_7">
     <g id="line2d_21">
      <path clip-path="url(#peff54ab9b3)" d="
M321.228 95.8988
L321.205 94.571
L321.135 93.2449
L320.857 90.6039
L320.396 87.9887
L319.754 85.412
L318.933 82.8865
L317.939 80.4243
L316.774 78.0375
L315.447 75.7378
L313.962 73.5362
L312.327 71.4436
L310.55 69.4702
L308.64 67.6255
L306.605 65.9186
L304.457 64.3577
L302.205 62.9505
L299.86 61.7038
L297.434 60.6236
L294.939 59.7154
L292.386 58.9834
L289.789 58.4313
L287.159 58.0617
L284.51 57.8765
L281.855 57.8765
L279.205 58.0617
L276.576 58.4313
L273.978 58.9834
L271.426 59.7154
L268.93 60.6236
L266.504 61.7038
L264.16 62.9505
L261.908 64.3577
L259.759 65.9186
L257.725 67.6255
L255.815 69.4702
L254.038 71.4436
L252.403 73.5362
L250.918 75.7378
L249.59 78.0375
L248.426 80.4243
L247.431 82.8865
L246.611 85.412
L245.968 87.9887
L245.507 90.6039
L245.23 93.2449
L245.137 95.8988
L245.23 98.5527
L245.507 101.194
L245.968 103.809
L246.611 106.386
L247.431 108.911
L248.426 111.373
L249.59 113.76
L250.918 116.06
L252.403 118.261
L254.038 120.354
L255.815 122.327
L257.725 124.172
L259.759 125.879
L261.908 127.44
L264.16 128.847
L266.504 130.094
L268.93 131.174
L271.426 132.082
L273.978 132.814
L276.576 133.366
L279.205 133.736
L281.855 133.921
L284.51 133.921
L287.159 133.736
L289.789 133.366
L292.386 132.814
L294.939 132.082
L297.434 131.174
L299.86 130.094
L302.205 128.847
L304.457 127.44
L306.605 125.879
L308.64 124.172
L310.55 122.327
L312.327 120.354
L313.962 118.261
L315.447 116.06
L316.774 113.76
L317.939 111.373
L318.933 108.911
L319.754 106.386
L320.396 103.809
L320.857 101.194
L321.135 98.5527
L321.228 95.8988
L321.228 95.8988" style="fill:none;stroke:#000000;stroke-dasharray:1.000000,3.000000;stroke-dashoffset:0.0;stroke-width:0.5;"/>
     </g>
     <g id="text_17">
      <!-- 1.0 -->
      <g transform="translate(310.084482283 66.5944182851)scale(0.09996 -0.09996)">
       <use xlink:href="#WenQuanYiMicroHei-31"/>
       <use x="55.078125" xlink:href="#WenQuanYiMicroHei-2e"/>
       <use x="81.884765625" xlink:href="#WenQuanYiMicroHei-30"/>
      </g>
     </g>
    </g>
    <g id="ytick_8">
     <g id="line2d_22">
      <path clip-path="url(#peff54ab9b3)" d="
M340.25 95.8988
L340.216 93.9071
L340.111 91.9179
L339.695 87.9564
L339.003 84.0336
L338.04 80.1687
L336.809 76.3803
L335.317 72.6871
L333.57 69.1069
L331.579 65.6573
L329.351 62.3549
L326.899 59.2161
L324.234 56.2559
L321.368 53.4889
L318.317 50.9284
L315.094 48.5871
L311.716 46.4763
L308.199 44.6062
L304.56 42.9861
L300.817 41.6237
L296.988 40.5258
L293.092 39.6976
L289.148 39.1432
L285.174 38.8654
L281.191 38.8654
L277.217 39.1432
L273.272 39.6976
L269.376 40.5258
L265.547 41.6237
L261.804 42.9861
L258.165 44.6062
L254.648 46.4763
L251.27 48.5871
L248.048 50.9284
L244.996 53.4889
L242.131 56.2559
L239.466 59.2161
L237.013 62.3549
L234.786 65.6573
L232.794 69.1069
L231.048 72.6871
L229.556 76.3803
L228.325 80.1687
L227.361 84.0336
L226.669 87.9564
L226.253 91.9179
L226.114 95.8988
L226.253 99.8797
L226.669 103.841
L227.361 107.764
L228.325 111.629
L229.556 115.417
L231.048 119.111
L232.794 122.691
L234.786 126.14
L237.013 129.443
L239.466 132.582
L242.131 135.542
L244.996 138.309
L248.048 140.869
L251.27 143.21
L254.648 145.321
L258.165 147.191
L261.804 148.811
L265.547 150.174
L269.376 151.272
L273.272 152.1
L277.217 152.654
L281.191 152.932
L285.174 152.932
L289.148 152.654
L293.092 152.1
L296.988 151.272
L300.817 150.174
L304.56 148.811
L308.199 147.191
L311.716 145.321
L315.094 143.21
L318.317 140.869
L321.368 138.309
L324.234 135.542
L326.899 132.582
L329.351 129.443
L331.579 126.14
L333.57 122.691
L335.317 119.111
L336.809 115.417
L338.04 111.629
L339.003 107.764
L339.695 103.841
L340.111 99.8797
L340.25 95.8988
L340.25 95.8988" style="fill:none;stroke:#000000;stroke-dasharray:1.000000,3.000000;stroke-dashoffset:0.0;stroke-width:0.5;"/>
     </g>
     <g id="text_18">
      <!-- 1.5 -->
      <g transform="translate(323.535581734 53.1433188339)scale(0.09996 -0.09996)">
       <use xlink:href="#WenQuanYiMicroHei-31"/>
       <use x="55.078125" xlink:href="#WenQuanYiMicroHei-2e"/>
       <use x="81.884765625" xlink:href="#WenQuanYiMicroHei-35"/>
      </g>
     </g>
    </g>
   </g>
  </g>
 </g>
 <defs>
  <clipPath id="peff54ab9b3">
   <path d="
M283.182 171.99
C303.362 171.99 322.718 163.972 336.987 149.703
C351.256 135.434 359.273 116.078 359.273 95.8988
C359.273 75.7192 351.256 56.3635 336.987 42.0944
C322.718 27.8253 303.362 19.8079 283.182 19.8079
C263.003 19.8079 243.647 27.8253 229.378 42.0944
C215.109 56.3635 207.091 75.7192 207.091 95.8988
C207.091 116.078 215.109 135.434 229.378 149.703
C243.647 163.972 263.003 171.99 283.182 171.99
z
"/>
  </clipPath>
  <clipPath id="pe13ae2eb50">
   <path d="
M100.564 171.99
C120.744 171.99 140.099 163.972 154.368 149.703
C168.638 135.434 176.655 116.078 176.655 95.8988
C176.655 75.7192 168.638 56.3635 154.368 42.0944
C140.099 27.8253 120.744 19.8079 100.564 19.8079
C80.3846 19.8079 61.0288 27.8253 46.7597 42.0944
C32.4906 56.3635 24.4732 75.7192 24.4732 95.8988
C24.4732 116.078 32.4906 135.434 46.7597 149.703
C61.0288 163.972 80.3846 171.99 100.564 171.99
z
"/>
  </clipPath>
 </defs>
</svg>
