<?xml version="1.0" encoding="utf-8" standalone="no"?>
<!DOCTYPE svg PUBLIC "-//W3C//DTD SVG 1.1//EN"
  "http://www.w3.org/Graphics/SVG/1.1/DTD/svg11.dtd">
<!-- Created with matplotlib (http://matplotlib.org/) -->
<svg height="263pt" version="1.1" viewBox="0 0 544 263" width="544pt" xmlns="http://www.w3.org/2000/svg" xmlns:xlink="http://www.w3.org/1999/xlink">
 <defs>
  <style type="text/css">
*{stroke-linecap:butt;stroke-linejoin:round;}
  </style>
 </defs>
 <g id="figure_1">
  <g id="patch_1">
   <path d="
M0 263.796
L544.964 263.796
L544.964 -5.68434e-14
L0 -5.68434e-14
z
" style="fill:#ffffff;"/>
  </g>
  <g id="axes_1">
   <g id="patch_2">
    <path d="
M29.4302 242.599
L257.703 242.599
L257.703 12.1988
L29.4302 12.1988
z
" style="fill:#ffffff;"/>
   </g>
   <g id="LineCollection_1">
    <defs>
     <path d="
M137.258 -60.4125
L136.689 -60.5624
L136.11 -60.7391
L134.963 -61.1362
L133.816 -61.57
L133.453 -61.7202
L132.669 -62.0922
L131.522 -62.6676
L131.125 -62.878
L130.375 -63.3322
L129.241 -64.0358
L129.228 -64.0452
L128.081 -64.8896
L127.673 -65.1935
L126.934 -65.8182
L126.307 -66.3513
L125.787 -66.852
L125.105 -67.5091
L124.639 -68.0146
L124.038 -68.6669
L123.492 -69.3294
L123.083 -69.8247
L122.345 -70.8161
L122.221 -70.9825
L121.452 -72.1403
L121.198 -72.5682
L120.761 -73.2981
L120.129 -74.4559
L120.051 -74.6212
L119.575 -75.6136
L119.069 -76.7714
L118.904 -77.2066
L118.625 -77.9292
L118.233 -79.087
L117.883 -80.2448
L117.757 -80.7402
L117.585 -81.4026
L117.335 -82.5604
L117.125 -83.7182
L116.955 -84.876
L116.824 -86.0337
L116.733 -87.1915
L116.68 -88.3493
L116.666 -89.5071
L116.689 -90.6649
L116.749 -91.8227
L116.844 -92.9805
L116.975 -94.1383
L117.139 -95.2961
L117.336 -96.4538
L117.566 -97.6116
L117.757 -98.4815
L117.83 -98.7694
L118.133 -99.9272
L118.466 -101.085
L118.83 -102.243
L118.904 -102.484
L119.231 -103.401
L119.664 -104.558
L120.051 -105.541
L120.132 -105.716
L120.63 -106.874
L121.167 -108.032
L121.198 -108.107
L121.728 -109.19
L122.336 -110.347
L122.345 -110.367
L122.958 -111.505
L123.492 -112.454
L123.632 -112.663
L124.321 -113.821
L124.639 -114.38
L125.048 -114.978
L125.787 -116.074
L125.836 -116.136
L126.599 -117.294
L126.934 -117.826
L127.412 -118.452
L128.081 -119.373
L128.29 -119.61
L129.228 -120.766
L129.229 -120.767
L130.023 -121.925
L130.375 -122.462
L130.894 -123.083
L130.375 -123.607
L129.759 -123.083
L129.228 -122.728
L128.081 -121.926
L128.08 -121.925
L126.934 -120.978
L126.699 -120.767
L125.787 -120.092
L125.167 -119.61
L124.639 -119.272
L123.492 -118.502
L123.431 -118.452
L122.345 -117.706
L121.752 -117.294
L121.198 -116.973
L120.051 -116.277
L119.844 -116.136
L118.904 -115.596
L117.776 -114.978
L117.757 -114.97
L116.61 -114.355
L115.538 -113.821
L115.463 -113.789
L114.316 -113.247
L113.168 -112.744
L112.995 -112.663
L112.021 -112.273
L110.874 -111.836
L109.966 -111.505
L109.727 -111.431
L108.58 -111.063
L107.433 -110.727
L106.286 -110.422
L106.001 -110.347
L105.139 -110.155
L103.992 -109.923
L102.845 -109.724
L101.697 -109.558
L100.55 -109.426
L99.4033 -109.33
L98.2562 -109.27
L97.1091 -109.246
L95.962 -109.261
L94.8149 -109.314
L93.6678 -109.406
L92.5207 -109.538
L91.3736 -109.71
L90.2265 -109.922
L89.0794 -110.174
L88.4231 -110.347
L87.9323 -110.474
L86.7852 -110.828
L85.6381 -111.224
L84.9221 -111.505
L84.491 -111.672
L83.3439 -112.183
L82.3606 -112.663
L82.1968 -112.742
L81.0497 -113.379
L80.3265 -113.821
L79.9026 -114.077
L78.7555 -114.853
L78.5907 -114.978
L77.6084 -115.723
L77.1176 -116.136
L76.4613 -116.687
L75.815 -117.294
L75.3142 -117.764
L74.6631 -118.452
L74.1671 -118.978
L73.6389 -119.61
L73.02 -120.356
L72.7189 -120.767
L71.8823 -121.925
L71.8729 -121.939
L71.1758 -123.083
L70.7258 -123.84
L70.5174 -124.241
L69.9473 -125.399
L69.5787 -126.189
L69.4299 -126.556
L69.0001 -127.714
L68.6066 -128.872
L68.4316 -129.455
L68.283 -130.03
L68.0282 -131.188
L67.819 -132.345
L67.659 -133.503
L67.5507 -134.661
L67.4961 -135.819
L67.4961 -136.976
L67.5507 -138.134
L67.659 -139.292
L67.819 -140.45
L68.0282 -141.608
L68.283 -142.765
L68.4316 -143.34
L68.6066 -143.923
L69.0001 -145.081
L69.4299 -146.239
L69.5787 -146.606
L69.9473 -147.397
L70.5174 -148.554
L70.7258 -148.955
L71.1758 -149.712
L71.8729 -150.856
L71.8823 -150.87
L72.7189 -152.028
L73.02 -152.439
L73.6389 -153.186
L74.1671 -153.817
L74.6631 -154.343
L75.3142 -155.031
L75.815 -155.501
L76.4613 -156.108
L77.1176 -156.659
L77.6084 -157.072
L78.5907 -157.817
L78.7555 -157.942
L79.9026 -158.718
L80.3265 -158.974
L81.0497 -159.416
L82.1968 -160.053
L82.3606 -160.132
L83.3439 -160.612
L84.491 -161.123
L84.9221 -161.29
L85.6381 -161.571
L86.7852 -161.967
L87.9323 -162.321
L88.4231 -162.448
L89.0794 -162.621
L90.2265 -162.873
L91.3736 -163.085
L92.5207 -163.257
L93.6678 -163.389
L94.8149 -163.481
L95.962 -163.534
L97.1091 -163.549
L98.2562 -163.525
L99.4033 -163.465
L100.55 -163.369
L101.697 -163.237
L102.845 -163.071
L103.992 -162.872
L105.139 -162.64
L106.001 -162.448
L106.286 -162.374
L107.433 -162.068
L108.58 -161.732
L109.727 -161.364
L109.966 -161.29
L110.874 -160.959
L112.021 -160.522
L112.995 -160.132
L113.168 -160.051
L114.316 -159.548
L115.463 -159.006
L115.538 -158.974
L116.61 -158.44
L117.757 -157.826
L117.776 -157.817
L118.904 -157.199
L119.844 -156.659
L120.051 -156.518
L121.198 -155.822
L121.752 -155.501
L122.345 -155.089
L123.431 -154.343
L123.492 -154.293
L124.639 -153.523
L125.167 -153.186
L125.787 -152.703
L126.699 -152.028
L126.934 -151.817
L128.08 -150.87
L128.081 -150.869
L129.228 -150.068
L129.759 -149.712
L130.375 -149.188
L130.894 -149.712
L130.375 -150.334
L130.023 -150.87
L129.229 -152.028
L129.228 -152.029
L128.29 -153.186
L128.081 -153.422
L127.412 -154.343
L126.934 -154.969
L126.599 -155.501
L125.836 -156.659
L125.787 -156.721
L125.048 -157.817
L124.639 -158.415
L124.321 -158.974
L123.632 -160.132
L123.492 -160.341
L122.958 -161.29
L122.345 -162.428
L122.336 -162.448
L121.728 -163.606
L121.198 -164.688
L121.167 -164.763
L120.63 -165.921
L120.132 -167.079
L120.051 -167.254
L119.664 -168.237
L119.231 -169.395
L118.904 -170.311
L118.83 -170.552
L118.466 -171.71
L118.133 -172.868
L117.83 -174.026
L117.757 -174.314
L117.566 -175.183
L117.336 -176.341
L117.139 -177.499
L116.975 -178.657
L116.844 -179.815
L116.749 -180.972
L116.689 -182.13
L116.666 -183.288
L116.68 -184.446
L116.733 -185.604
L116.824 -186.761
L116.955 -187.919
L117.125 -189.077
L117.335 -190.235
L117.585 -191.393
L117.757 -192.055
L117.883 -192.55
L118.233 -193.708
L118.625 -194.866
L118.904 -195.588
L119.069 -196.024
L119.575 -197.181
L120.051 -198.174
L120.129 -198.339
L120.761 -199.497
L121.198 -200.227
L121.452 -200.655
L122.221 -201.813
L122.345 -201.979
L123.083 -202.97
L123.492 -203.466
L124.038 -204.128
L124.639 -204.78
L125.105 -205.286
L125.787 -205.943
L126.307 -206.444
L126.934 -206.977
L127.673 -207.602
L128.081 -207.906
L129.228 -208.75
L129.241 -208.759
L130.375 -209.463
L131.125 -209.917
L131.522 -210.128
L132.669 -210.703
L133.453 -211.075
L133.816 -211.225
L134.963 -211.659
L136.11 -212.056
L136.689 -212.233
L137.258 -212.383
L138.405 -212.64
L139.552 -212.851
L140.699 -213.013
L141.846 -213.122
L142.993 -213.177
L144.14 -213.177
L145.287 -213.122
L146.434 -213.013
L147.581 -212.851
L148.729 -212.64
L149.876 -212.383
L150.445 -212.233
L151.023 -212.056
L152.17 -211.659
L153.317 -211.225
L153.68 -211.075
L154.464 -210.703
L155.611 -210.128
L156.008 -209.917
L156.758 -209.463
L157.892 -208.759
L157.905 -208.75
L159.052 -207.906
L159.46 -207.602
L160.2 -206.977
L160.826 -206.444
L161.347 -205.943
L162.028 -205.286
L162.494 -204.78
L163.095 -204.128
L163.641 -203.466
L164.05 -202.97
L164.788 -201.979
L164.912 -201.813
L165.681 -200.655
L165.935 -200.227
L166.373 -199.497
L167.004 -198.339
L167.082 -198.174
L167.558 -197.181
L168.064 -196.024
L168.229 -195.588
L168.508 -194.866
L168.9 -193.708
L169.251 -192.55
L169.376 -192.055
L169.548 -191.393
L169.798 -190.235
L170.008 -189.077
L170.178 -187.919
L170.309 -186.761
L170.4 -185.604
L170.453 -184.446
L170.467 -183.288
L170.444 -182.13
L170.384 -180.972
L170.289 -179.815
L170.158 -178.657
L169.994 -177.499
L169.797 -176.341
L169.567 -175.183
L169.376 -174.314
L169.303 -174.026
L169 -172.868
L168.667 -171.71
L168.303 -170.552
L168.229 -170.311
L167.902 -169.395
L167.469 -168.237
L167.082 -167.254
L167.001 -167.079
L166.503 -165.921
L165.966 -164.763
L165.935 -164.688
L165.405 -163.606
L164.797 -162.448
L164.788 -162.428
L164.176 -161.29
L163.641 -160.341
L163.501 -160.132
L162.812 -158.974
L162.494 -158.415
L162.085 -157.817
L161.347 -156.721
L161.297 -156.659
L160.534 -155.501
L160.2 -154.969
L159.722 -154.343
L159.052 -153.422
L158.843 -153.186
L157.905 -152.029
L157.904 -152.028
L157.11 -150.87
L156.758 -150.334
L156.239 -149.712
L156.758 -149.188
L157.374 -149.712
L157.905 -150.068
L159.052 -150.869
L159.054 -150.87
L160.2 -151.817
L160.434 -152.028
L161.347 -152.703
L161.966 -153.186
L162.494 -153.523
L163.641 -154.293
L163.702 -154.343
L164.788 -155.089
L165.381 -155.501
L165.935 -155.822
L167.082 -156.518
L167.289 -156.659
L168.229 -157.199
L169.357 -157.817
L169.376 -157.826
L170.523 -158.44
L171.596 -158.974
L171.67 -159.006
L172.818 -159.548
L173.965 -160.051
L174.138 -160.132
L175.112 -160.522
L176.259 -160.959
L177.167 -161.29
L177.406 -161.364
L178.553 -161.732
L179.7 -162.068
L180.847 -162.374
L181.133 -162.448
L181.994 -162.64
L183.141 -162.872
L184.289 -163.071
L185.436 -163.237
L186.583 -163.369
L187.73 -163.465
L188.877 -163.525
L190.024 -163.549
L191.171 -163.534
L192.318 -163.481
L193.465 -163.389
L194.612 -163.257
L195.76 -163.085
L196.907 -162.873
L198.054 -162.621
L198.71 -162.448
L199.201 -162.321
L200.348 -161.967
L201.495 -161.571
L202.211 -161.29
L202.642 -161.123
L203.789 -160.612
L204.773 -160.132
L204.936 -160.053
L206.083 -159.416
L206.807 -158.974
L207.231 -158.718
L208.378 -157.942
L208.542 -157.817
L209.525 -157.072
L210.015 -156.659
L210.672 -156.108
L211.318 -155.501
L211.819 -155.031
L212.47 -154.343
L212.966 -153.817
L213.494 -153.186
L214.113 -152.439
L214.414 -152.028
L215.251 -150.87
L215.26 -150.856
L215.957 -149.712
L216.407 -148.955
L216.616 -148.554
L217.186 -147.397
L217.554 -146.606
L217.703 -146.239
L218.133 -145.081
L218.527 -143.923
L218.702 -143.34
L218.85 -142.765
L219.105 -141.608
L219.314 -140.45
L219.474 -139.292
L219.582 -138.134
L219.637 -136.976
L219.637 -135.819
L219.582 -134.661
L219.474 -133.503
L219.314 -132.345
L219.105 -131.188
L218.85 -130.03
L218.702 -129.455
L218.527 -128.872
L218.133 -127.714
L217.703 -126.556
L217.554 -126.189
L217.186 -125.399
L216.616 -124.241
L216.407 -123.84
L215.957 -123.083
L215.26 -121.939
L215.251 -121.925
L214.414 -120.767
L214.113 -120.356
L213.494 -119.61
L212.966 -118.978
L212.47 -118.452
L211.819 -117.764
L211.318 -117.294
L210.672 -116.687
L210.015 -116.136
L209.525 -115.723
L208.542 -114.978
L208.378 -114.853
L207.231 -114.077
L206.807 -113.821
L206.083 -113.379
L204.936 -112.742
L204.773 -112.663
L203.789 -112.183
L202.642 -111.672
L202.211 -111.505
L201.495 -111.224
L200.348 -110.828
L199.201 -110.474
L198.71 -110.347
L198.054 -110.174
L196.907 -109.922
L195.76 -109.71
L194.612 -109.538
L193.465 -109.406
L192.318 -109.314
L191.171 -109.261
L190.024 -109.246
L188.877 -109.27
L187.73 -109.33
L186.583 -109.426
L185.436 -109.558
L184.289 -109.724
L183.141 -109.923
L181.994 -110.155
L181.133 -110.347
L180.847 -110.422
L179.7 -110.727
L178.553 -111.063
L177.406 -111.431
L177.167 -111.505
L176.259 -111.836
L175.112 -112.273
L174.138 -112.663
L173.965 -112.744
L172.818 -113.247
L171.67 -113.789
L171.596 -113.821
L170.523 -114.355
L169.376 -114.97
L169.357 -114.978
L168.229 -115.596
L167.289 -116.136
L167.082 -116.277
L165.935 -116.973
L165.381 -117.294
L164.788 -117.706
L163.702 -118.452
L163.641 -118.502
L162.494 -119.272
L161.966 -119.61
L161.347 -120.092
L160.434 -120.767
L160.2 -120.978
L159.054 -121.925
L159.052 -121.926
L157.905 -122.728
L157.374 -123.083
L156.758 -123.607
L156.239 -123.083
L156.758 -122.462
L157.11 -121.925
L157.904 -120.767
L157.905 -120.766
L158.843 -119.61
L159.052 -119.373
L159.722 -118.452
L160.2 -117.826
L160.534 -117.294
L161.297 -116.136
L161.347 -116.074
L162.085 -114.978
L162.494 -114.38
L162.812 -113.821
L163.501 -112.663
L163.641 -112.454
L164.176 -111.505
L164.788 -110.367
L164.797 -110.347
L165.405 -109.19
L165.935 -108.107
L165.966 -108.032
L166.503 -106.874
L167.001 -105.716
L167.082 -105.541
L167.469 -104.558
L167.902 -103.401
L168.229 -102.484
L168.303 -102.243
L168.667 -101.085
L169 -99.9272
L169.303 -98.7694
L169.376 -98.4815
L169.567 -97.6116
L169.797 -96.4538
L169.994 -95.2961
L170.158 -94.1383
L170.289 -92.9805
L170.384 -91.8227
L170.444 -90.6649
L170.467 -89.5071
L170.453 -88.3493
L170.4 -87.1915
L170.309 -86.0337
L170.178 -84.876
L170.008 -83.7182
L169.798 -82.5604
L169.548 -81.4026
L169.376 -80.7402
L169.251 -80.2448
L168.9 -79.087
L168.508 -77.9292
L168.229 -77.2066
L168.064 -76.7714
L167.558 -75.6136
L167.082 -74.6212
L167.004 -74.4559
L166.373 -73.2981
L165.935 -72.5682
L165.681 -72.1403
L164.912 -70.9825
L164.788 -70.8161
L164.05 -69.8247
L163.641 -69.3294
L163.095 -68.6669
L162.494 -68.0146
L162.028 -67.5091
L161.347 -66.852
L160.826 -66.3513
L160.2 -65.8182
L159.46 -65.1935
L159.052 -64.8896
L157.905 -64.0452
L157.892 -64.0358
L156.758 -63.3322
L156.008 -62.878
L155.611 -62.6676
L154.464 -62.0922
L153.68 -61.7202
L153.317 -61.57
L152.17 -61.1362
L151.023 -60.7391
L150.445 -60.5624
L149.876 -60.4125
L148.729 -60.1552
L147.581 -59.9441
L146.434 -59.7826
L145.287 -59.6733
L144.14 -59.6182
L142.993 -59.6182
L141.846 -59.6733
L140.699 -59.7826
L139.552 -59.9441
L138.405 -60.1552
L137.258 -60.4125" id="C0_0_46135be6e9"/>
     <path d="
M131.522 -123.91
L131.841 -124.241
L131.522 -124.563
L131.194 -124.241
L131.522 -123.91" id="C0_1_88c647f165"/>
     <path d="
M155.611 -123.91
L155.939 -124.241
L155.611 -124.563
L155.292 -124.241
L155.611 -123.91" id="C0_2_d022214295"/>
     <path d="
M132.669 -125.228
L132.853 -125.399
L132.669 -125.584
L132.5 -125.399
L132.669 -125.228" id="C0_3_1856e0384e"/>
     <path d="
M154.464 -125.228
L154.633 -125.399
L154.464 -125.584
L154.281 -125.399
L154.464 -125.228" id="C0_4_81f6267cd5"/>
     <path d="
M133.816 -126.472
L133.914 -126.556
L133.816 -126.655
L133.733 -126.556
L133.816 -126.472" id="C0_5_7a45f47dff"/>
     <path d="
M153.317 -126.472
L153.4 -126.556
L153.317 -126.655
L153.219 -126.556
L153.317 -126.472" id="C0_6_f9792b3790"/>
     <path d="
M134.963 -127.676
L135.011 -127.714
L134.963 -127.762
L134.925 -127.714
L134.963 -127.676" id="C0_7_44723990ca"/>
     <path d="
M152.17 -127.676
L152.208 -127.714
L152.17 -127.762
L152.122 -127.714
L152.17 -127.676" id="C0_8_3c08c35f0a"/>
     <path d="
M136.11 -128.856
L136.131 -128.872
L136.11 -128.893
L136.095 -128.872
L136.11 -128.856" id="C0_9_fda1061851"/>
     <path d="
M151.023 -128.856
L151.038 -128.872
L151.023 -128.893
L151.002 -128.872
L151.023 -128.856" id="C0_a_2a0e348d98"/>
     <path d="
M137.258 -130.024
L137.265 -130.03
L137.258 -130.038
L137.252 -130.03
L137.258 -130.024" id="C0_b_74aea902da"/>
     <path d="
M149.876 -130.024
L149.881 -130.03
L149.876 -130.038
L149.868 -130.03
L149.876 -130.024" id="C0_c_e5a7962b95"/>
     <path d="
M138.405 -131.186
L138.407 -131.188
L138.405 -131.19
L138.403 -131.188
L138.405 -131.186" id="C0_d_b681e62550"/>
     <path d="
M148.729 -131.186
L148.73 -131.188
L148.729 -131.19
L148.726 -131.188
L148.729 -131.186" id="C0_e_e907808498"/>
     <path d="
M139.552 -132.345
L139.552 -132.345
L139.552 -132.346
L139.551 -132.345
L139.552 -132.345" id="C0_f_fdec9ea941"/>
     <path d="
M147.581 -132.345
L147.582 -132.345
L147.581 -132.346
L147.581 -132.345
L147.581 -132.345" id="C0_10_32a00ea873"/>
     <path d="
M140.699 -133.503
L140.699 -133.503
L140.699 -133.503
L140.699 -133.503
L140.699 -133.503" id="C0_11_af8a8271cd"/>
     <path d="
M146.434 -133.503
L146.434 -133.503
L146.434 -133.503
L146.434 -133.503
L146.434 -133.503" id="C0_12_6a8569d062"/>
     <path d="
M141.846 -134.661
L141.846 -134.661
L141.846 -134.661
L141.846 -134.661
L141.846 -134.661" id="C0_13_f6bef1cf9e"/>
     <path d="
M145.287 -134.661
L145.287 -134.661
L145.287 -134.661
L145.287 -134.661
L145.287 -134.661" id="C0_14_0f5d49afee"/>
     <path d="
M142.993 -135.819
L144.14 -135.819
L144.14 -135.819
L144.14 -136.976
L144.14 -136.976
L142.993 -136.976
L142.993 -136.976
L142.993 -135.819
L142.993 -135.819" id="C0_15_9c396c2af4"/>
     <path d="
M141.846 -138.134
L141.846 -138.134
L141.846 -138.134
L141.846 -138.134
L141.846 -138.134" id="C0_16_379366bf20"/>
     <path d="
M145.287 -138.134
L145.287 -138.134
L145.287 -138.134
L145.287 -138.134
L145.287 -138.134" id="C0_17_2051500287"/>
     <path d="
M140.699 -139.292
L140.699 -139.292
L140.699 -139.292
L140.699 -139.292
L140.699 -139.292" id="C0_18_41930d477c"/>
     <path d="
M146.434 -139.292
L146.434 -139.292
L146.434 -139.292
L146.434 -139.292
L146.434 -139.292" id="C0_19_c2aabaf526"/>
     <path d="
M139.552 -140.449
L139.552 -140.45
L139.552 -140.45
L139.551 -140.45
L139.552 -140.449" id="C0_1a_9082dd8d5a"/>
     <path d="
M147.581 -140.449
L147.582 -140.45
L147.581 -140.45
L147.581 -140.45
L147.581 -140.449" id="C0_1b_2b77ad96cb"/>
     <path d="
M138.405 -141.605
L138.407 -141.608
L138.405 -141.609
L138.403 -141.608
L138.405 -141.605" id="C0_1c_aa6438c1e5"/>
     <path d="
M148.729 -141.605
L148.73 -141.608
L148.729 -141.609
L148.726 -141.608
L148.729 -141.605" id="C0_1d_1b85b7aa71"/>
     <path d="
M137.258 -142.757
L137.265 -142.765
L137.258 -142.771
L137.252 -142.765
L137.258 -142.757" id="C0_1e_5ae8d40c5b"/>
     <path d="
M149.876 -142.757
L149.881 -142.765
L149.876 -142.771
L149.868 -142.765
L149.876 -142.757" id="C0_1f_3346a14fd8"/>
     <path d="
M136.11 -143.902
L136.131 -143.923
L136.11 -143.939
L136.095 -143.923
L136.11 -143.902" id="C0_20_6837b6acb3"/>
     <path d="
M151.023 -143.902
L151.038 -143.923
L151.023 -143.939
L151.002 -143.923
L151.023 -143.902" id="C0_21_97202d3549"/>
     <path d="
M134.963 -145.033
L135.011 -145.081
L134.963 -145.119
L134.925 -145.081
L134.963 -145.033" id="C0_22_e57c0f77c4"/>
     <path d="
M152.17 -145.033
L152.208 -145.081
L152.17 -145.119
L152.122 -145.081
L152.17 -145.033" id="C0_23_ed86c48baf"/>
     <path d="
M133.816 -146.14
L133.914 -146.239
L133.816 -146.323
L133.733 -146.239
L133.816 -146.14" id="C0_24_625d5dc2dd"/>
     <path d="
M153.317 -146.14
L153.4 -146.239
L153.317 -146.323
L153.219 -146.239
L153.317 -146.14" id="C0_25_c96f54045f"/>
     <path d="
M132.669 -147.211
L132.853 -147.397
L132.669 -147.567
L132.5 -147.397
L132.669 -147.211" id="C0_26_c6adb47a45"/>
     <path d="
M154.464 -147.211
L154.633 -147.397
L154.464 -147.567
L154.281 -147.397
L154.464 -147.211" id="C0_27_bd7bd0c703"/>
     <path d="
M131.522 -148.232
L131.841 -148.554
L131.522 -148.885
L131.194 -148.554
L131.522 -148.232" id="C0_28_b1e3550704"/>
     <path d="
M155.611 -148.232
L155.939 -148.554
L155.611 -148.885
L155.292 -148.554
L155.611 -148.232" id="C0_29_1f629aa542"/>
    </defs>
    <g clip-path="url(#p0b1673dee7)">
     <use style="fill:none;stroke:#0000ff;stroke-width:2;" x="0.0" xlink:href="#C0_0_46135be6e9" y="263.796342812"/>
    </g>
    <g clip-path="url(#p0b1673dee7)">
     <use style="fill:none;stroke:#0000ff;stroke-width:2;" x="0.0" xlink:href="#C0_1_88c647f165" y="263.796342812"/>
    </g>
    <g clip-path="url(#p0b1673dee7)">
     <use style="fill:none;stroke:#0000ff;stroke-width:2;" x="0.0" xlink:href="#C0_2_d022214295" y="263.796342812"/>
    </g>
    <g clip-path="url(#p0b1673dee7)">
     <use style="fill:none;stroke:#0000ff;stroke-width:2;" x="0.0" xlink:href="#C0_3_1856e0384e" y="263.796342812"/>
    </g>
    <g clip-path="url(#p0b1673dee7)">
     <use style="fill:none;stroke:#0000ff;stroke-width:2;" x="0.0" xlink:href="#C0_4_81f6267cd5" y="263.796342812"/>
    </g>
    <g clip-path="url(#p0b1673dee7)">
     <use style="fill:none;stroke:#0000ff;stroke-width:2;" x="0.0" xlink:href="#C0_5_7a45f47dff" y="263.796342812"/>
    </g>
    <g clip-path="url(#p0b1673dee7)">
     <use style="fill:none;stroke:#0000ff;stroke-width:2;" x="0.0" xlink:href="#C0_6_f9792b3790" y="263.796342812"/>
    </g>
    <g clip-path="url(#p0b1673dee7)">
     <use style="fill:none;stroke:#0000ff;stroke-width:2;" x="0.0" xlink:href="#C0_7_44723990ca" y="263.796342812"/>
    </g>
    <g clip-path="url(#p0b1673dee7)">
     <use style="fill:none;stroke:#0000ff;stroke-width:2;" x="0.0" xlink:href="#C0_8_3c08c35f0a" y="263.796342812"/>
    </g>
    <g clip-path="url(#p0b1673dee7)">
     <use style="fill:none;stroke:#0000ff;stroke-width:2;" x="0.0" xlink:href="#C0_9_fda1061851" y="263.796342812"/>
    </g>
    <g clip-path="url(#p0b1673dee7)">
     <use style="fill:none;stroke:#0000ff;stroke-width:2;" x="0.0" xlink:href="#C0_a_2a0e348d98" y="263.796342812"/>
    </g>
    <g clip-path="url(#p0b1673dee7)">
     <use style="fill:none;stroke:#0000ff;stroke-width:2;" x="0.0" xlink:href="#C0_b_74aea902da" y="263.796342812"/>
    </g>
    <g clip-path="url(#p0b1673dee7)">
     <use style="fill:none;stroke:#0000ff;stroke-width:2;" x="0.0" xlink:href="#C0_c_e5a7962b95" y="263.796342812"/>
    </g>
    <g clip-path="url(#p0b1673dee7)">
     <use style="fill:none;stroke:#0000ff;stroke-width:2;" x="0.0" xlink:href="#C0_d_b681e62550" y="263.796342812"/>
    </g>
    <g clip-path="url(#p0b1673dee7)">
     <use style="fill:none;stroke:#0000ff;stroke-width:2;" x="0.0" xlink:href="#C0_e_e907808498" y="263.796342812"/>
    </g>
    <g clip-path="url(#p0b1673dee7)">
     <use style="fill:none;stroke:#0000ff;stroke-width:2;" x="0.0" xlink:href="#C0_f_fdec9ea941" y="263.796342812"/>
    </g>
    <g clip-path="url(#p0b1673dee7)">
     <use style="fill:none;stroke:#0000ff;stroke-width:2;" x="0.0" xlink:href="#C0_10_32a00ea873" y="263.796342812"/>
    </g>
    <g clip-path="url(#p0b1673dee7)">
     <use style="fill:none;stroke:#0000ff;stroke-width:2;" x="0.0" xlink:href="#C0_11_af8a8271cd" y="263.796342812"/>
    </g>
    <g clip-path="url(#p0b1673dee7)">
     <use style="fill:none;stroke:#0000ff;stroke-width:2;" x="0.0" xlink:href="#C0_12_6a8569d062" y="263.796342812"/>
    </g>
    <g clip-path="url(#p0b1673dee7)">
     <use style="fill:none;stroke:#0000ff;stroke-width:2;" x="0.0" xlink:href="#C0_13_f6bef1cf9e" y="263.796342812"/>
    </g>
    <g clip-path="url(#p0b1673dee7)">
     <use style="fill:none;stroke:#0000ff;stroke-width:2;" x="0.0" xlink:href="#C0_14_0f5d49afee" y="263.796342812"/>
    </g>
    <g clip-path="url(#p0b1673dee7)">
     <use style="fill:none;stroke:#0000ff;stroke-width:2;" x="0.0" xlink:href="#C0_15_9c396c2af4" y="263.796342812"/>
    </g>
    <g clip-path="url(#p0b1673dee7)">
     <use style="fill:none;stroke:#0000ff;stroke-width:2;" x="0.0" xlink:href="#C0_16_379366bf20" y="263.796342812"/>
    </g>
    <g clip-path="url(#p0b1673dee7)">
     <use style="fill:none;stroke:#0000ff;stroke-width:2;" x="0.0" xlink:href="#C0_17_2051500287" y="263.796342812"/>
    </g>
    <g clip-path="url(#p0b1673dee7)">
     <use style="fill:none;stroke:#0000ff;stroke-width:2;" x="0.0" xlink:href="#C0_18_41930d477c" y="263.796342812"/>
    </g>
    <g clip-path="url(#p0b1673dee7)">
     <use style="fill:none;stroke:#0000ff;stroke-width:2;" x="0.0" xlink:href="#C0_19_c2aabaf526" y="263.796342812"/>
    </g>
    <g clip-path="url(#p0b1673dee7)">
     <use style="fill:none;stroke:#0000ff;stroke-width:2;" x="0.0" xlink:href="#C0_1a_9082dd8d5a" y="263.796342812"/>
    </g>
    <g clip-path="url(#p0b1673dee7)">
     <use style="fill:none;stroke:#0000ff;stroke-width:2;" x="0.0" xlink:href="#C0_1b_2b77ad96cb" y="263.796342812"/>
    </g>
    <g clip-path="url(#p0b1673dee7)">
     <use style="fill:none;stroke:#0000ff;stroke-width:2;" x="0.0" xlink:href="#C0_1c_aa6438c1e5" y="263.796342812"/>
    </g>
    <g clip-path="url(#p0b1673dee7)">
     <use style="fill:none;stroke:#0000ff;stroke-width:2;" x="0.0" xlink:href="#C0_1d_1b85b7aa71" y="263.796342812"/>
    </g>
    <g clip-path="url(#p0b1673dee7)">
     <use style="fill:none;stroke:#0000ff;stroke-width:2;" x="0.0" xlink:href="#C0_1e_5ae8d40c5b" y="263.796342812"/>
    </g>
    <g clip-path="url(#p0b1673dee7)">
     <use style="fill:none;stroke:#0000ff;stroke-width:2;" x="0.0" xlink:href="#C0_1f_3346a14fd8" y="263.796342812"/>
    </g>
    <g clip-path="url(#p0b1673dee7)">
     <use style="fill:none;stroke:#0000ff;stroke-width:2;" x="0.0" xlink:href="#C0_20_6837b6acb3" y="263.796342812"/>
    </g>
    <g clip-path="url(#p0b1673dee7)">
     <use style="fill:none;stroke:#0000ff;stroke-width:2;" x="0.0" xlink:href="#C0_21_97202d3549" y="263.796342812"/>
    </g>
    <g clip-path="url(#p0b1673dee7)">
     <use style="fill:none;stroke:#0000ff;stroke-width:2;" x="0.0" xlink:href="#C0_22_e57c0f77c4" y="263.796342812"/>
    </g>
    <g clip-path="url(#p0b1673dee7)">
     <use style="fill:none;stroke:#0000ff;stroke-width:2;" x="0.0" xlink:href="#C0_23_ed86c48baf" y="263.796342812"/>
    </g>
    <g clip-path="url(#p0b1673dee7)">
     <use style="fill:none;stroke:#0000ff;stroke-width:2;" x="0.0" xlink:href="#C0_24_625d5dc2dd" y="263.796342812"/>
    </g>
    <g clip-path="url(#p0b1673dee7)">
     <use style="fill:none;stroke:#0000ff;stroke-width:2;" x="0.0" xlink:href="#C0_25_c96f54045f" y="263.796342812"/>
    </g>
    <g clip-path="url(#p0b1673dee7)">
     <use style="fill:none;stroke:#0000ff;stroke-width:2;" x="0.0" xlink:href="#C0_26_c6adb47a45" y="263.796342812"/>
    </g>
    <g clip-path="url(#p0b1673dee7)">
     <use style="fill:none;stroke:#0000ff;stroke-width:2;" x="0.0" xlink:href="#C0_27_bd7bd0c703" y="263.796342812"/>
    </g>
    <g clip-path="url(#p0b1673dee7)">
     <use style="fill:none;stroke:#0000ff;stroke-width:2;" x="0.0" xlink:href="#C0_28_b1e3550704" y="263.796342812"/>
    </g>
    <g clip-path="url(#p0b1673dee7)">
     <use style="fill:none;stroke:#0000ff;stroke-width:2;" x="0.0" xlink:href="#C0_29_1f629aa542" y="263.796342812"/>
    </g>
   </g>
   <g id="LineCollection_2">
    <defs>
     <path d="
M139.552 -58.1833
L139.13 -58.2468
L138.405 -58.3726
L137.258 -58.6169
L136.11 -58.902
L134.963 -59.2242
L134.387 -59.4046
L133.816 -59.6084
L132.669 -60.0544
L131.522 -60.5264
L131.441 -60.5624
L130.375 -61.095
L129.228 -61.6842
L129.161 -61.7202
L128.081 -62.3763
L127.266 -62.878
L126.934 -63.107
L125.787 -63.9121
L125.614 -64.0358
L124.639 -64.8106
L124.159 -65.1935
L123.492 -65.7817
L122.846 -66.3513
L122.345 -66.8384
L121.653 -67.5091
L121.198 -67.9923
L120.559 -68.6669
L120.051 -69.2523
L119.55 -69.8247
L118.904 -70.6237
L118.611 -70.9825
L117.757 -72.1059
L117.73 -72.1403
L116.917 -73.2981
L116.61 -73.7637
L116.146 -74.4559
L115.463 -75.5305
L115.409 -75.6136
L114.72 -76.7714
L114.316 -77.4797
L114.054 -77.9292
L113.414 -79.087
L113.168 -79.5539
L112.797 -80.2448
L112.19 -81.4026
L112.021 -81.7386
L111.599 -82.5604
L111.005 -83.7182
L110.874 -83.9821
L110.418 -84.876
L109.813 -86.0337
L109.727 -86.2018
L109.204 -87.1915
L108.58 -88.3112
L108.558 -88.3493
L107.894 -89.5071
L107.433 -90.2629
L107.177 -90.6649
L106.403 -91.8227
L106.286 -91.9915
L105.566 -92.9805
L105.139 -93.5272
L104.635 -94.1383
L103.992 -94.8702
L103.595 -95.2961
L102.845 -96.0534
L102.423 -96.4538
L101.697 -97.1036
L101.092 -97.6116
L100.55 -98.0424
L99.5705 -98.7694
L99.4033 -98.8874
L98.2562 -99.6689
L97.8579 -99.9272
L97.1091 -100.393
L95.962 -101.063
L95.9241 -101.085
L94.8149 -101.715
L93.8343 -102.243
L93.6678 -102.329
L92.5207 -102.94
L91.635 -103.401
L91.3736 -103.533
L90.2265 -104.132
L89.4122 -104.558
L89.0794 -104.728
L87.9323 -105.341
L87.2478 -105.716
L86.7852 -105.964
L85.6381 -106.61
L85.1927 -106.874
L84.491 -107.282
L83.3439 -107.977
L83.2614 -108.032
L82.1968 -108.722
L81.511 -109.19
L81.0497 -109.5
L79.9026 -110.321
L79.8685 -110.347
L78.7555 -111.209
L78.4 -111.505
L77.6084 -112.157
L77.0413 -112.663
L76.4613 -113.176
L75.7928 -113.821
L75.3142 -114.279
L74.6496 -114.978
L74.1671 -115.484
L73.6027 -116.136
L73.02 -116.809
L72.6405 -117.294
L71.8729 -118.277
L71.7504 -118.452
L70.9527 -119.61
L70.7258 -119.945
L70.2287 -120.767
L69.5787 -121.858
L69.5431 -121.925
L68.9593 -123.083
L68.4316 -124.159
L68.3959 -124.241
L67.9283 -125.399
L67.4864 -126.556
L67.2845 -127.132
L67.1058 -127.714
L66.7866 -128.872
L66.5041 -130.03
L66.2621 -131.188
L66.1374 -131.92
L66.0745 -132.345
L65.945 -133.503
L65.8576 -134.661
L65.8136 -135.819
L65.8136 -136.976
L65.8576 -138.134
L65.945 -139.292
L66.0745 -140.45
L66.1374 -140.876
L66.2621 -141.608
L66.5041 -142.765
L66.7866 -143.923
L67.1058 -145.081
L67.2845 -145.663
L67.4864 -146.239
L67.9283 -147.397
L68.3959 -148.554
L68.4316 -148.636
L68.9593 -149.712
L69.5431 -150.87
L69.5787 -150.937
L70.2287 -152.028
L70.7258 -152.851
L70.9527 -153.186
L71.7504 -154.343
L71.8729 -154.518
L72.6405 -155.501
L73.02 -155.986
L73.6027 -156.659
L74.1671 -157.311
L74.6496 -157.817
L75.3142 -158.516
L75.7928 -158.974
L76.4613 -159.619
L77.0413 -160.132
L77.6084 -160.638
L78.4 -161.29
L78.7555 -161.586
L79.8685 -162.448
L79.9026 -162.474
L81.0497 -163.296
L81.511 -163.606
L82.1968 -164.073
L83.2614 -164.763
L83.3439 -164.818
L84.491 -165.513
L85.1927 -165.921
L85.6381 -166.185
L86.7852 -166.831
L87.2478 -167.079
L87.9323 -167.454
L89.0794 -168.067
L89.4122 -168.237
L90.2265 -168.663
L91.3736 -169.263
L91.635 -169.395
L92.5207 -169.855
L93.6678 -170.466
L93.8343 -170.552
L94.8149 -171.08
L95.9241 -171.71
L95.962 -171.732
L97.1091 -172.402
L97.8579 -172.868
L98.2562 -173.126
L99.4033 -173.908
L99.5705 -174.026
L100.55 -174.753
L101.092 -175.183
L101.697 -175.692
L102.423 -176.341
L102.845 -176.742
L103.595 -177.499
L103.992 -177.925
L104.635 -178.657
L105.139 -179.268
L105.566 -179.815
L106.286 -180.804
L106.403 -180.972
L107.177 -182.13
L107.433 -182.532
L107.894 -183.288
L108.558 -184.446
L108.58 -184.484
L109.204 -185.604
L109.727 -186.593
L109.813 -186.761
L110.418 -187.919
L110.874 -188.813
L111.005 -189.077
L111.599 -190.235
L112.021 -191.057
L112.19 -191.393
L112.797 -192.55
L113.168 -193.241
L113.414 -193.708
L114.054 -194.866
L114.316 -195.315
L114.72 -196.024
L115.409 -197.181
L115.463 -197.265
L116.146 -198.339
L116.61 -199.031
L116.917 -199.497
L117.73 -200.655
L117.757 -200.689
L118.611 -201.813
L118.904 -202.171
L119.55 -202.97
L120.051 -203.543
L120.559 -204.128
L121.198 -204.803
L121.653 -205.286
L122.345 -205.957
L122.846 -206.444
L123.492 -207.013
L124.159 -207.602
L124.639 -207.985
L125.614 -208.759
L125.787 -208.883
L126.934 -209.688
L127.266 -209.917
L128.081 -210.419
L129.161 -211.075
L129.228 -211.111
L130.375 -211.7
L131.441 -212.233
L131.522 -212.269
L132.669 -212.741
L133.816 -213.187
L134.387 -213.391
L134.963 -213.571
L136.11 -213.893
L137.258 -214.178
L138.405 -214.422
L139.13 -214.548
L139.552 -214.612
L140.699 -214.743
L141.846 -214.831
L142.993 -214.875
L144.14 -214.875
L145.287 -214.831
L146.434 -214.743
L147.581 -214.612
L148.003 -214.548
L148.729 -214.422
L149.876 -214.178
L151.023 -213.893
L152.17 -213.571
L152.746 -213.391
L153.317 -213.187
L154.464 -212.741
L155.611 -212.269
L155.692 -212.233
L156.758 -211.7
L157.905 -211.111
L157.972 -211.075
L159.052 -210.419
L159.868 -209.917
L160.2 -209.688
L161.347 -208.883
L161.519 -208.759
L162.494 -207.985
L162.974 -207.602
L163.641 -207.013
L164.287 -206.444
L164.788 -205.957
L165.48 -205.286
L165.935 -204.803
L166.574 -204.128
L167.082 -203.543
L167.583 -202.97
L168.229 -202.171
L168.522 -201.813
L169.376 -200.689
L169.403 -200.655
L170.216 -199.497
L170.523 -199.031
L170.987 -198.339
L171.67 -197.265
L171.724 -197.181
L172.413 -196.024
L172.818 -195.315
L173.079 -194.866
L173.719 -193.708
L173.965 -193.241
L174.336 -192.55
L174.944 -191.393
L175.112 -191.057
L175.534 -190.235
L176.128 -189.077
L176.259 -188.813
L176.715 -187.919
L177.32 -186.761
L177.406 -186.593
L177.929 -185.604
L178.553 -184.484
L178.575 -184.446
L179.239 -183.288
L179.7 -182.532
L179.956 -182.13
L180.73 -180.972
L180.847 -180.804
L181.568 -179.815
L181.994 -179.268
L182.498 -178.657
L183.141 -177.925
L183.538 -177.499
L184.289 -176.742
L184.711 -176.341
L185.436 -175.692
L186.041 -175.183
L186.583 -174.753
L187.563 -174.026
L187.73 -173.908
L188.877 -173.126
L189.275 -172.868
L190.024 -172.402
L191.171 -171.732
L191.209 -171.71
L192.318 -171.08
L193.299 -170.552
L193.465 -170.466
L194.612 -169.855
L195.498 -169.395
L195.76 -169.263
L196.907 -168.663
L197.721 -168.237
L198.054 -168.067
L199.201 -167.454
L199.885 -167.079
L200.348 -166.831
L201.495 -166.185
L201.94 -165.921
L202.642 -165.513
L203.789 -164.818
L203.872 -164.763
L204.936 -164.073
L205.622 -163.606
L206.083 -163.296
L207.231 -162.474
L207.265 -162.448
L208.378 -161.586
L208.733 -161.29
L209.525 -160.638
L210.092 -160.132
L210.672 -159.619
L211.34 -158.974
L211.819 -158.516
L212.483 -157.817
L212.966 -157.311
L213.53 -156.659
L214.113 -155.986
L214.493 -155.501
L215.26 -154.518
L215.383 -154.343
L216.18 -153.186
L216.407 -152.851
L216.904 -152.028
L217.554 -150.937
L217.59 -150.87
L218.174 -149.712
L218.702 -148.636
L218.737 -148.554
L219.205 -147.397
L219.647 -146.239
L219.849 -145.663
L220.027 -145.081
L220.347 -143.923
L220.629 -142.765
L220.871 -141.608
L220.996 -140.876
L221.059 -140.45
L221.188 -139.292
L221.276 -138.134
L221.32 -136.976
L221.32 -135.819
L221.276 -134.661
L221.188 -133.503
L221.059 -132.345
L220.996 -131.92
L220.871 -131.188
L220.629 -130.03
L220.347 -128.872
L220.027 -127.714
L219.849 -127.132
L219.647 -126.556
L219.205 -125.399
L218.737 -124.241
L218.702 -124.159
L218.174 -123.083
L217.59 -121.925
L217.554 -121.858
L216.904 -120.767
L216.407 -119.945
L216.18 -119.61
L215.383 -118.452
L215.26 -118.277
L214.493 -117.294
L214.113 -116.809
L213.53 -116.136
L212.966 -115.484
L212.483 -114.978
L211.819 -114.279
L211.34 -113.821
L210.672 -113.176
L210.092 -112.663
L209.525 -112.157
L208.733 -111.505
L208.378 -111.209
L207.265 -110.347
L207.231 -110.321
L206.083 -109.5
L205.622 -109.19
L204.936 -108.722
L203.872 -108.032
L203.789 -107.977
L202.642 -107.282
L201.94 -106.874
L201.495 -106.61
L200.348 -105.964
L199.885 -105.716
L199.201 -105.341
L198.054 -104.728
L197.721 -104.558
L196.907 -104.132
L195.76 -103.533
L195.498 -103.401
L194.612 -102.94
L193.465 -102.329
L193.299 -102.243
L192.318 -101.715
L191.209 -101.085
L191.171 -101.063
L190.024 -100.393
L189.275 -99.9272
L188.877 -99.6689
L187.73 -98.8874
L187.563 -98.7694
L186.583 -98.0424
L186.041 -97.6116
L185.436 -97.1036
L184.711 -96.4538
L184.289 -96.0534
L183.538 -95.2961
L183.141 -94.8702
L182.498 -94.1383
L181.994 -93.5272
L181.568 -92.9805
L180.847 -91.9915
L180.73 -91.8227
L179.956 -90.6649
L179.7 -90.2629
L179.239 -89.5071
L178.575 -88.3493
L178.553 -88.3112
L177.929 -87.1915
L177.406 -86.2018
L177.32 -86.0337
L176.715 -84.876
L176.259 -83.9821
L176.128 -83.7182
L175.534 -82.5604
L175.112 -81.7386
L174.944 -81.4026
L174.336 -80.2448
L173.965 -79.5539
L173.719 -79.087
L173.079 -77.9292
L172.818 -77.4797
L172.413 -76.7714
L171.724 -75.6136
L171.67 -75.5305
L170.987 -74.4559
L170.523 -73.7637
L170.216 -73.2981
L169.403 -72.1403
L169.376 -72.1059
L168.522 -70.9825
L168.229 -70.6237
L167.583 -69.8247
L167.082 -69.2523
L166.574 -68.6669
L165.935 -67.9923
L165.48 -67.5091
L164.788 -66.8384
L164.287 -66.3513
L163.641 -65.7817
L162.974 -65.1935
L162.494 -64.8106
L161.519 -64.0358
L161.347 -63.9121
L160.2 -63.107
L159.868 -62.878
L159.052 -62.3763
L157.972 -61.7202
L157.905 -61.6842
L156.758 -61.095
L155.692 -60.5624
L155.611 -60.5264
L154.464 -60.0544
L153.317 -59.6084
L152.746 -59.4046
L152.17 -59.2242
L151.023 -58.902
L149.876 -58.6169
L148.729 -58.3726
L148.003 -58.2468
L147.581 -58.1833
L146.434 -58.0526
L145.287 -57.9644
L144.14 -57.92
L142.993 -57.92
L141.846 -57.9644
L140.699 -58.0526
L139.552 -58.1833" id="C1_0_0be96433ff"/>
    </defs>
    <g clip-path="url(#p0b1673dee7)">
     <use style="fill:none;stroke:#ff0000;stroke-dasharray:6.000000,6.000000;stroke-dashoffset:0.0;stroke-width:2;" x="0.0" xlink:href="#C1_0_0be96433ff" y="263.796342812"/>
    </g>
   </g>
   <g id="patch_3">
    <path d="
M29.4302 12.1988
L257.703 12.1988" style="fill:none;stroke:#000000;stroke-linecap:square;stroke-linejoin:miter;"/>
   </g>
   <g id="patch_4">
    <path d="
M257.703 242.599
L257.703 12.1988" style="fill:none;stroke:#000000;stroke-linecap:square;stroke-linejoin:miter;"/>
   </g>
   <g id="patch_5">
    <path d="
M29.4302 242.599
L257.703 242.599" style="fill:none;stroke:#000000;stroke-linecap:square;stroke-linejoin:miter;"/>
   </g>
   <g id="patch_6">
    <path d="
M29.4302 242.599
L29.4302 12.1988" style="fill:none;stroke:#000000;stroke-linecap:square;stroke-linejoin:miter;"/>
   </g>
   <g id="matplotlib.axis_1">
    <g id="xtick_1">
     <g id="line2d_1">
      <defs>
       <path d="
M0 0
L0 -4" id="m93b0483c22" style="stroke:#000000;stroke-width:0.5;"/>
      </defs>
      <g>
       <use style="stroke:#000000;stroke-width:0.5;" x="29.430205" xlink:href="#m93b0483c22" y="242.598780937"/>
      </g>
     </g>
     <g id="line2d_2">
      <defs>
       <path d="
M0 0
L0 4" id="m741efc42ff" style="stroke:#000000;stroke-width:0.5;"/>
      </defs>
      <g>
       <use style="stroke:#000000;stroke-width:0.5;" x="29.430205" xlink:href="#m741efc42ff" y="12.1987809375"/>
      </g>
     </g>
     <g id="text_1">
      <!-- −1.5 -->
      <defs>
       <path d="
M34.7188 0
L26.125 0
L26.125 44.5781
Q26.125 46.6875 26.1406 49.0781
Q26.1719 51.4688 26.2344 53.8281
Q26.3125 56.2031 26.3906 58.375
Q26.4688 60.5469 26.5156 62.2031
Q25.6875 61.3281 25.0469 60.6875
Q24.4219 60.0625 23.75 59.4688
Q23.0938 58.8906 22.3594 58.2188
Q21.625 57.5625 20.6094 56.6875
L13.375 50.7812
L8.6875 56.7812
L27.3906 71.3906
L34.7188 71.3906
z
" id="WenQuanYiMicroHei-31"/>
       <path d="
M4.98438 31.5938
L4.98438 38.9219
L50.0938 38.9219
L50.0938 31.5938
z
" id="WenQuanYiMicroHei-2212"/>
       <path d="
M26.6094 43.7969
Q31.4531 43.7969 35.625 42.4531
Q39.7969 41.1094 42.8906 38.4688
Q46 35.8438 47.75 31.9375
Q49.5156 28.0312 49.5156 22.9062
Q49.5156 17.3281 47.8438 12.8906
Q46.1875 8.45312 42.9219 5.375
Q39.6562 2.29688 34.8438 0.65625
Q30.0312 -0.984375 23.7812 -0.984375
Q21.2969 -0.984375 18.875 -0.734375
Q16.4531 -0.484375 14.2344 -0.015625
Q12.0156 0.4375 10.0156 1.17188
Q8.01562 1.90625 6.39062 2.875
L6.39062 11.2812
Q8.01562 10.1562 10.1875 9.28125
Q12.3594 8.40625 14.75 7.8125
Q17.1406 7.23438 19.5469 6.90625
Q21.9688 6.59375 24.0312 6.59375
Q27.875 6.59375 30.9062 7.5
Q33.9375 8.40625 36.0312 10.2969
Q38.1406 12.2031 39.25 15.0781
Q40.375 17.9688 40.375 21.9219
Q40.375 28.9062 36.0781 32.5938
Q31.7812 36.2812 23.5781 36.2812
Q22.2656 36.2812 20.7188 36.1562
Q19.1875 36.0312 17.6406 35.8281
Q16.1094 35.6406 14.7188 35.4219
Q13.3281 35.2031 12.3125 35.0156
L7.90625 37.7969
L10.5938 71.3906
L44.2812 71.3906
L44.2812 63.2812
L18.3125 63.2812
L16.4062 42.8281
Q17.9688 43.1094 20.5312 43.4531
Q23.0938 43.7969 26.6094 43.7969" id="WenQuanYiMicroHei-35"/>
       <path d="
M7.17188 5.42188
Q7.17188 7.28125 7.65625 8.5625
Q8.15625 9.85938 8.98438 10.6562
Q9.8125 11.4688 10.9375 11.8281
Q12.0625 12.2031 13.375 12.2031
Q14.6562 12.2031 15.7969 11.8281
Q16.9375 11.4688 17.7656 10.6562
Q18.6094 9.85938 19.0938 8.5625
Q19.5781 7.28125 19.5781 5.42188
Q19.5781 3.60938 19.0938 2.3125
Q18.6094 1.03125 17.7656 0.1875
Q16.9375 -0.640625 15.7969 -1.03125
Q14.6562 -1.42188 13.375 -1.42188
Q12.0625 -1.42188 10.9375 -1.03125
Q9.8125 -0.640625 8.98438 0.1875
Q8.15625 1.03125 7.65625 2.3125
Q7.17188 3.60938 7.17188 5.42188" id="WenQuanYiMicroHei-2e"/>
      </defs>
      <g transform="translate(20.358835 254.194179062)scale(0.09996 -0.09996)">
       <use xlink:href="#WenQuanYiMicroHei-2212"/>
       <use x="55.078125" xlink:href="#WenQuanYiMicroHei-31"/>
       <use x="110.15625" xlink:href="#WenQuanYiMicroHei-2e"/>
       <use x="136.962890625" xlink:href="#WenQuanYiMicroHei-35"/>
      </g>
     </g>
    </g>
    <g id="xtick_2">
     <g id="line2d_3">
      <g>
       <use style="stroke:#000000;stroke-width:0.5;" x="67.4756595455" xlink:href="#m93b0483c22" y="242.598780937"/>
      </g>
     </g>
     <g id="line2d_4">
      <g>
       <use style="stroke:#000000;stroke-width:0.5;" x="67.4756595455" xlink:href="#m741efc42ff" y="12.1987809375"/>
      </g>
     </g>
     <g id="text_2">
      <!-- −1.0 -->
      <defs>
       <path d="
M50.3906 35.7969
Q50.3906 27.1562 49.1406 20.3125
Q47.9062 13.4844 45.1406 8.73438
Q42.3906 4 38.0312 1.5
Q33.6875 -0.984375 27.4844 -0.984375
Q21.7344 -0.984375 17.4531 1.5
Q13.1875 4 10.375 8.73438
Q7.5625 13.4844 6.17188 20.3125
Q4.78125 27.1562 4.78125 35.7969
Q4.78125 44.4375 6.03125 51.2656
Q7.28125 58.1094 9.98438 62.8125
Q12.7031 67.5312 17.0156 70.0156
Q21.3438 72.5156 27.4844 72.5156
Q33.2969 72.5156 37.5938 70.0469
Q41.8906 67.5781 44.7188 62.8594
Q47.5625 58.1562 48.9688 51.3125
Q50.3906 44.4844 50.3906 35.7969
M13.8125 35.7969
Q13.8125 28.4688 14.5469 23
Q15.2812 17.5312 16.8906 13.8906
Q18.5 10.25 21.1094 8.42188
Q23.7344 6.59375 27.4844 6.59375
Q31.25 6.59375 33.8906 8.39062
Q36.5312 10.2031 38.2031 13.8125
Q39.8906 17.4375 40.6406 22.9219
Q41.4062 28.4219 41.4062 35.7969
Q41.4062 43.1094 40.6406 48.5781
Q39.8906 54.0469 38.2031 57.6562
Q36.5312 61.2812 33.8906 63.0781
Q31.25 64.8906 27.4844 64.8906
Q23.7344 64.8906 21.1094 63.0781
Q18.5 61.2812 16.8906 57.6562
Q15.2812 54.0469 14.5469 48.5781
Q13.8125 43.1094 13.8125 35.7969" id="WenQuanYiMicroHei-30"/>
      </defs>
      <g transform="translate(58.3605570455 254.194179062)scale(0.09996 -0.09996)">
       <use xlink:href="#WenQuanYiMicroHei-2212"/>
       <use x="55.078125" xlink:href="#WenQuanYiMicroHei-31"/>
       <use x="110.15625" xlink:href="#WenQuanYiMicroHei-2e"/>
       <use x="136.962890625" xlink:href="#WenQuanYiMicroHei-30"/>
      </g>
     </g>
    </g>
    <g id="xtick_3">
     <g id="line2d_5">
      <g>
       <use style="stroke:#000000;stroke-width:0.5;" x="105.521114091" xlink:href="#m93b0483c22" y="242.598780937"/>
      </g>
     </g>
     <g id="line2d_6">
      <g>
       <use style="stroke:#000000;stroke-width:0.5;" x="105.521114091" xlink:href="#m741efc42ff" y="12.1987809375"/>
      </g>
     </g>
     <g id="text_3">
      <!-- −0.5 -->
      <g transform="translate(96.4497440909 254.194179062)scale(0.09996 -0.09996)">
       <use xlink:href="#WenQuanYiMicroHei-2212"/>
       <use x="55.078125" xlink:href="#WenQuanYiMicroHei-30"/>
       <use x="110.15625" xlink:href="#WenQuanYiMicroHei-2e"/>
       <use x="136.962890625" xlink:href="#WenQuanYiMicroHei-35"/>
      </g>
     </g>
    </g>
    <g id="xtick_4">
     <g id="line2d_7">
      <g>
       <use style="stroke:#000000;stroke-width:0.5;" x="143.566568636" xlink:href="#m93b0483c22" y="242.598780937"/>
      </g>
     </g>
     <g id="line2d_8">
      <g>
       <use style="stroke:#000000;stroke-width:0.5;" x="143.566568636" xlink:href="#m741efc42ff" y="12.1987809375"/>
      </g>
     </g>
     <g id="text_4">
      <!-- 0.0 -->
      <g transform="translate(137.194118636 254.194179062)scale(0.09996 -0.09996)">
       <use xlink:href="#WenQuanYiMicroHei-30"/>
       <use x="55.078125" xlink:href="#WenQuanYiMicroHei-2e"/>
       <use x="81.884765625" xlink:href="#WenQuanYiMicroHei-30"/>
      </g>
     </g>
    </g>
    <g id="xtick_5">
     <g id="line2d_9">
      <g>
       <use style="stroke:#000000;stroke-width:0.5;" x="181.612023182" xlink:href="#m93b0483c22" y="242.598780937"/>
      </g>
     </g>
     <g id="line2d_10">
      <g>
       <use style="stroke:#000000;stroke-width:0.5;" x="181.612023182" xlink:href="#m741efc42ff" y="12.1987809375"/>
      </g>
     </g>
     <g id="text_5">
      <!-- 0.5 -->
      <g transform="translate(175.283305682 254.194179062)scale(0.09996 -0.09996)">
       <use xlink:href="#WenQuanYiMicroHei-30"/>
       <use x="55.078125" xlink:href="#WenQuanYiMicroHei-2e"/>
       <use x="81.884765625" xlink:href="#WenQuanYiMicroHei-35"/>
      </g>
     </g>
    </g>
    <g id="xtick_6">
     <g id="line2d_11">
      <g>
       <use style="stroke:#000000;stroke-width:0.5;" x="219.657477727" xlink:href="#m93b0483c22" y="242.598780937"/>
      </g>
     </g>
     <g id="line2d_12">
      <g>
       <use style="stroke:#000000;stroke-width:0.5;" x="219.657477727" xlink:href="#m741efc42ff" y="12.1987809375"/>
      </g>
     </g>
     <g id="text_6">
      <!-- 1.0 -->
      <g transform="translate(213.480262102 254.194179062)scale(0.09996 -0.09996)">
       <use xlink:href="#WenQuanYiMicroHei-31"/>
       <use x="55.078125" xlink:href="#WenQuanYiMicroHei-2e"/>
       <use x="81.884765625" xlink:href="#WenQuanYiMicroHei-30"/>
      </g>
     </g>
    </g>
    <g id="xtick_7">
     <g id="line2d_13">
      <g>
       <use style="stroke:#000000;stroke-width:0.5;" x="257.702932273" xlink:href="#m93b0483c22" y="242.598780937"/>
      </g>
     </g>
     <g id="line2d_14">
      <g>
       <use style="stroke:#000000;stroke-width:0.5;" x="257.702932273" xlink:href="#m741efc42ff" y="12.1987809375"/>
      </g>
     </g>
     <g id="text_7">
      <!-- 1.5 -->
      <g transform="translate(251.569449148 254.194179062)scale(0.09996 -0.09996)">
       <use xlink:href="#WenQuanYiMicroHei-31"/>
       <use x="55.078125" xlink:href="#WenQuanYiMicroHei-2e"/>
       <use x="81.884765625" xlink:href="#WenQuanYiMicroHei-35"/>
      </g>
     </g>
    </g>
   </g>
   <g id="matplotlib.axis_2">
    <g id="ytick_1">
     <g id="line2d_15">
      <defs>
       <path d="
M0 0
L4 0" id="m728421d6d4" style="stroke:#000000;stroke-width:0.5;"/>
      </defs>
      <g>
       <use style="stroke:#000000;stroke-width:0.5;" x="29.430205" xlink:href="#m728421d6d4" y="242.598780937"/>
      </g>
     </g>
     <g id="line2d_16">
      <defs>
       <path d="
M0 0
L-4 0" id="mcb0005524f" style="stroke:#000000;stroke-width:0.5;"/>
      </defs>
      <g>
       <use style="stroke:#000000;stroke-width:0.5;" x="257.702932273" xlink:href="#mcb0005524f" y="242.598780937"/>
      </g>
     </g>
     <g id="text_8">
      <!-- −1.5 -->
      <g transform="translate(7.287465 245.195398125)scale(0.09996 -0.09996)">
       <use xlink:href="#WenQuanYiMicroHei-2212"/>
       <use x="55.078125" xlink:href="#WenQuanYiMicroHei-31"/>
       <use x="110.15625" xlink:href="#WenQuanYiMicroHei-2e"/>
       <use x="136.962890625" xlink:href="#WenQuanYiMicroHei-35"/>
      </g>
     </g>
    </g>
    <g id="ytick_2">
     <g id="line2d_17">
      <g>
       <use style="stroke:#000000;stroke-width:0.5;" x="29.430205" xlink:href="#m728421d6d4" y="204.198780937"/>
      </g>
     </g>
     <g id="line2d_18">
      <g>
       <use style="stroke:#000000;stroke-width:0.5;" x="257.702932273" xlink:href="#mcb0005524f" y="204.198780937"/>
      </g>
     </g>
     <g id="text_9">
      <!-- −1.0 -->
      <g transform="translate(7.2 206.795398125)scale(0.09996 -0.09996)">
       <use xlink:href="#WenQuanYiMicroHei-2212"/>
       <use x="55.078125" xlink:href="#WenQuanYiMicroHei-31"/>
       <use x="110.15625" xlink:href="#WenQuanYiMicroHei-2e"/>
       <use x="136.962890625" xlink:href="#WenQuanYiMicroHei-30"/>
      </g>
     </g>
    </g>
    <g id="ytick_3">
     <g id="line2d_19">
      <g>
       <use style="stroke:#000000;stroke-width:0.5;" x="29.430205" xlink:href="#m728421d6d4" y="165.798780937"/>
      </g>
     </g>
     <g id="line2d_20">
      <g>
       <use style="stroke:#000000;stroke-width:0.5;" x="257.702932273" xlink:href="#mcb0005524f" y="165.798780937"/>
      </g>
     </g>
     <g id="text_10">
      <!-- −0.5 -->
      <g transform="translate(7.287465 168.395398125)scale(0.09996 -0.09996)">
       <use xlink:href="#WenQuanYiMicroHei-2212"/>
       <use x="55.078125" xlink:href="#WenQuanYiMicroHei-30"/>
       <use x="110.15625" xlink:href="#WenQuanYiMicroHei-2e"/>
       <use x="136.962890625" xlink:href="#WenQuanYiMicroHei-35"/>
      </g>
     </g>
    </g>
    <g id="ytick_4">
     <g id="line2d_21">
      <g>
       <use style="stroke:#000000;stroke-width:0.5;" x="29.430205" xlink:href="#m728421d6d4" y="127.398780937"/>
      </g>
     </g>
     <g id="line2d_22">
      <g>
       <use style="stroke:#000000;stroke-width:0.5;" x="257.702932273" xlink:href="#mcb0005524f" y="127.398780937"/>
      </g>
     </g>
     <g id="text_11">
      <!-- 0.0 -->
      <g transform="translate(12.685305 129.995398125)scale(0.09996 -0.09996)">
       <use xlink:href="#WenQuanYiMicroHei-30"/>
       <use x="55.078125" xlink:href="#WenQuanYiMicroHei-2e"/>
       <use x="81.884765625" xlink:href="#WenQuanYiMicroHei-30"/>
      </g>
     </g>
    </g>
    <g id="ytick_5">
     <g id="line2d_23">
      <g>
       <use style="stroke:#000000;stroke-width:0.5;" x="29.430205" xlink:href="#m728421d6d4" y="88.9987809375"/>
      </g>
     </g>
     <g id="line2d_24">
      <g>
       <use style="stroke:#000000;stroke-width:0.5;" x="257.702932273" xlink:href="#mcb0005524f" y="88.9987809375"/>
      </g>
     </g>
     <g id="text_12">
      <!-- 0.5 -->
      <g transform="translate(12.77277 91.595398125)scale(0.09996 -0.09996)">
       <use xlink:href="#WenQuanYiMicroHei-30"/>
       <use x="55.078125" xlink:href="#WenQuanYiMicroHei-2e"/>
       <use x="81.884765625" xlink:href="#WenQuanYiMicroHei-35"/>
      </g>
     </g>
    </g>
    <g id="ytick_6">
     <g id="line2d_25">
      <g>
       <use style="stroke:#000000;stroke-width:0.5;" x="29.430205" xlink:href="#m728421d6d4" y="50.5987809375"/>
      </g>
     </g>
     <g id="line2d_26">
      <g>
       <use style="stroke:#000000;stroke-width:0.5;" x="257.702932273" xlink:href="#mcb0005524f" y="50.5987809375"/>
      </g>
     </g>
     <g id="text_13">
      <!-- 1.0 -->
      <g transform="translate(13.07577375 53.195398125)scale(0.09996 -0.09996)">
       <use xlink:href="#WenQuanYiMicroHei-31"/>
       <use x="55.078125" xlink:href="#WenQuanYiMicroHei-2e"/>
       <use x="81.884765625" xlink:href="#WenQuanYiMicroHei-30"/>
      </g>
     </g>
    </g>
    <g id="ytick_7">
     <g id="line2d_27">
      <g>
       <use style="stroke:#000000;stroke-width:0.5;" x="29.430205" xlink:href="#m728421d6d4" y="12.1987809375"/>
      </g>
     </g>
     <g id="line2d_28">
      <g>
       <use style="stroke:#000000;stroke-width:0.5;" x="257.702932273" xlink:href="#mcb0005524f" y="12.1987809375"/>
      </g>
     </g>
     <g id="text_14">
      <!-- 1.5 -->
      <g transform="translate(13.16323875 14.795398125)scale(0.09996 -0.09996)">
       <use xlink:href="#WenQuanYiMicroHei-31"/>
       <use x="55.078125" xlink:href="#WenQuanYiMicroHei-2e"/>
       <use x="81.884765625" xlink:href="#WenQuanYiMicroHei-35"/>
      </g>
     </g>
    </g>
   </g>
  </g>
  <g id="axes_2">
   <g id="patch_7">
    <path d="
M303.357 242.599
L531.63 242.599
L531.63 12.1988
L303.357 12.1988
z
" style="fill:#ffffff;"/>
   </g>
   <g id="line2d_29">
    <path clip-path="url(#p986accf884)" d="
M411.185 203.384
L410.038 203.057
L407.38 202.076
L405.052 200.918
L403.155 199.751
L400.861 197.978
L399.033 196.287
L397.01 193.972
L395.38 191.656
L393.978 189.175
L392.831 186.59
L392.16 184.709
L391.513 182.394
L391.053 180.078
L390.752 177.763
L390.608 175.447
L390.616 173.131
L390.902 169.658
L391.493 166.185
L392.06 163.869
L393.159 160.396
L394.557 156.922
L396.273 153.43
L398.249 149.976
L398.975 148.818
L402.217 144.187
L403.156 143.029
L404.822 140.713
L404.302 140.189
L403.155 141.069
L402.007 141.871
L399.094 144.187
L391.684 148.827
L388.243 150.549
L384.802 151.961
L382.507 152.734
L379.066 153.642
L375.625 154.238
L372.183 154.527
L369.889 154.535
L367.595 154.39
L365.301 154.087
L362.35 153.449
L360.712 152.969
L358.418 152.124
L356.124 151.054
L353.83 149.719
L351.536 148.073
L349.241 146.032
L347.566 144.187
L346.646 143.029
L345.103 140.713
L344.445 139.556
L343.357 137.24
L342.359 134.341
L341.955 132.609
L341.586 130.293
L341.423 127.978
L341.478 125.662
L341.746 123.347
L342.359 120.457
L342.927 118.715
L343.875 116.4
L345.103 114.084
L345.81 112.926
L347.566 110.611
L349.241 108.766
L351.536 106.724
L353.83 105.079
L356.288 103.664
L358.849 102.506
L360.712 101.829
L363.007 101.175
L365.301 100.711
L367.595 100.407
L369.889 100.262
L372.183 100.271
L375.625 100.559
L379.066 101.156
L381.36 101.728
L384.802 102.837
L388.243 104.248
L391.703 105.98
L395.125 107.974
L396.273 108.708
L400.861 111.979
L402.008 112.928
L404.302 114.609
L404.822 114.084
L403.95 112.926
L403.155 111.767
L400.861 108.828
L396.264 101.349
L394.557 97.8752
L393.159 94.4018
L392.393 92.0862
L391.493 88.6129
L390.902 85.1395
L390.616 81.6661
L390.608 79.3505
L390.752 77.035
L391.053 74.7194
L391.684 71.7415
L392.16 70.0882
L392.997 67.7727
L394.057 65.4571
L395.38 63.1415
L397.01 60.8259
L399.033 58.5103
L400.861 56.8195
L402.008 55.8908
L404.302 54.3334
L405.449 53.6688
L407.743 52.5713
L410.616 51.5636
L412.332 51.1564
L414.626 50.7838
L416.92 50.6194
L419.214 50.6745
L421.509 50.9453
L424.372 51.5636
L426.097 52.1374
L428.391 53.0934
L430.685 54.3334
L431.833 55.0465
L434.127 56.8195
L435.955 58.5103
L437.977 60.8259
L439.608 63.1415
L441.009 65.6225
L442.156 68.2079
L442.828 70.0882
L443.475 72.4038
L443.935 74.7194
L444.236 77.035
L444.38 79.3505
L444.371 81.6661
L444.086 85.1395
L443.494 88.6129
L442.928 90.9284
L441.829 94.4018
L440.43 97.8752
L438.715 101.368
L436.739 104.822
L436.013 105.98
L432.771 110.611
L431.831 111.769
L430.166 114.084
L430.685 114.609
L431.833 113.729
L432.981 112.926
L435.894 110.611
L443.304 105.971
L446.745 104.248
L450.186 102.837
L452.48 102.064
L455.922 101.156
L459.363 100.559
L462.804 100.271
L465.098 100.262
L467.393 100.407
L469.687 100.711
L472.637 101.349
L474.275 101.829
L476.569 102.673
L478.864 103.743
L481.158 105.079
L483.452 106.724
L485.746 108.766
L487.422 110.611
L488.342 111.769
L489.885 114.084
L490.543 115.242
L491.63 117.558
L492.629 120.457
L493.032 122.189
L493.401 124.504
L493.564 126.82
L493.51 129.135
L493.241 131.451
L492.629 134.341
L492.06 136.082
L491.113 138.398
L489.885 140.713
L489.178 141.871
L487.422 144.187
L485.746 146.032
L483.452 148.073
L481.158 149.719
L478.7 151.133
L476.138 152.291
L474.275 152.969
L471.981 153.622
L469.687 154.087
L467.393 154.39
L465.098 154.535
L462.804 154.527
L459.363 154.238
L455.922 153.642
L453.627 153.07
L450.186 151.961
L446.745 150.549
L443.284 148.818
L439.862 146.823
L438.715 146.09
L434.127 142.818
L432.98 141.87
L430.685 140.189
L430.166 140.713
L431.038 141.871
L431.833 143.03
L434.127 145.97
L438.724 153.449
L440.43 156.922
L441.829 160.396
L442.595 162.711
L443.494 166.185
L444.086 169.658
L444.371 173.131
L444.38 175.447
L444.236 177.763
L443.935 180.078
L443.304 183.056
L442.828 184.709
L441.991 187.025
L440.931 189.34
L439.608 191.656
L437.977 193.972
L435.955 196.287
L434.127 197.978
L432.98 198.907
L430.685 200.464
L429.538 201.129
L427.244 202.226
L424.372 203.234
L422.656 203.641
L420.362 204.014
L418.067 204.178
L415.773 204.123
L413.479 203.852
L411.185 203.384
L411.185 203.384" style="fill:none;stroke:#0000ff;stroke-linecap:square;stroke-width:2;"/>
   </g>
   <g id="line2d_30">
    <path clip-path="url(#p986accf884)" d="
M413.479 205.613
L411.185 205.179
L408.314 204.392
L405.368 203.234
L403.089 202.076
L400.861 200.689
L398.567 198.986
L396.773 197.445
L394.487 195.129
L392.538 192.814
L390.537 190.033
L388.647 187.025
L386.117 182.394
L383.131 176.605
L381.104 173.131
L379.066 170.269
L377.522 168.5
L375.625 166.693
L373.331 164.909
L371.036 163.404
L367.595 161.467
L358.418 156.514
L355.438 154.607
L353.796 153.449
L350.969 151.133
L349.241 149.517
L346.947 146.988
L344.88 144.187
L344.156 143.029
L342.887 140.713
L341.856 138.398
L341.033 136.082
L340.189 132.609
L339.872 130.293
L339.741 127.978
L339.785 125.662
L340.065 122.921
L340.431 121.031
L341.212 118.134
L342.359 115.16
L343.506 112.859
L344.88 110.611
L346.568 108.295
L348.094 106.485
L350.389 104.177
L352.683 102.21
L355.438 100.191
L358.418 98.2836
L363.007 95.7294
L368.742 92.7162
L372.183 90.6701
L375.019 88.6129
L376.772 87.0546
L378.563 85.1395
L380.33 82.8239
L381.821 80.5083
L383.74 77.035
L388.647 67.7727
L390.537 64.7649
L391.684 63.1071
L393.978 60.2536
L395.58 58.5103
L398.086 56.1948
L400.861 54.1083
L402.008 53.3775
L404.302 52.0962
L406.596 51.0557
L408.891 50.2254
L412.332 49.3739
L414.626 49.0538
L416.92 48.9213
L419.214 48.9656
L421.931 49.248
L423.803 49.6181
L426.674 50.4058
L429.62 51.5636
L431.899 52.7214
L434.127 54.1083
L436.421 55.8118
L438.214 57.3525
L440.501 59.6681
L442.45 61.9837
L444.451 64.7649
L446.34 67.7727
L448.871 72.4038
L451.856 78.1928
L453.883 81.6661
L455.922 84.5284
L457.466 86.2973
L459.363 88.1048
L461.657 89.8886
L463.951 91.3939
L467.393 93.3307
L476.569 98.2836
L479.549 100.191
L481.192 101.349
L484.019 103.664
L485.746 105.281
L488.04 107.81
L490.108 110.611
L490.832 111.769
L492.101 114.084
L493.132 116.4
L493.955 118.715
L494.798 122.189
L495.115 124.504
L495.247 126.82
L495.203 129.135
L494.923 131.877
L494.556 133.767
L493.776 136.664
L492.629 139.638
L491.482 141.938
L490.108 144.187
L488.42 146.502
L486.893 148.312
L484.599 150.62
L482.305 152.587
L479.549 154.607
L476.569 156.514
L471.981 159.068
L466.246 162.081
L462.804 164.127
L459.968 166.185
L458.216 167.743
L456.425 169.658
L454.658 171.974
L453.166 174.289
L451.247 177.763
L446.34 187.025
L444.451 190.033
L443.304 191.69
L441.009 194.544
L439.408 196.287
L436.902 198.603
L434.127 200.689
L432.98 201.42
L430.685 202.701
L428.391 203.742
L426.097 204.572
L422.656 205.424
L420.362 205.744
L418.067 205.876
L415.773 205.832
L413.479 205.613
L413.479 205.613" style="fill:none;stroke:#ff0000;stroke-linecap:square;stroke-width:2;"/>
   </g>
   <g id="patch_8">
    <path d="
M303.357 12.1988
L531.63 12.1988" style="fill:none;stroke:#000000;stroke-linecap:square;stroke-linejoin:miter;"/>
   </g>
   <g id="patch_9">
    <path d="
M531.63 242.599
L531.63 12.1988" style="fill:none;stroke:#000000;stroke-linecap:square;stroke-linejoin:miter;"/>
   </g>
   <g id="patch_10">
    <path d="
M303.357 242.599
L531.63 242.599" style="fill:none;stroke:#000000;stroke-linecap:square;stroke-linejoin:miter;"/>
   </g>
   <g id="patch_11">
    <path d="
M303.357 242.599
L303.357 12.1988" style="fill:none;stroke:#000000;stroke-linecap:square;stroke-linejoin:miter;"/>
   </g>
   <g id="matplotlib.axis_3">
    <g id="xtick_8">
     <g id="line2d_31">
      <g>
       <use style="stroke:#000000;stroke-width:0.5;" x="303.357477727" xlink:href="#m93b0483c22" y="242.598780937"/>
      </g>
     </g>
     <g id="line2d_32">
      <g>
       <use style="stroke:#000000;stroke-width:0.5;" x="303.357477727" xlink:href="#m741efc42ff" y="12.1987809375"/>
      </g>
     </g>
     <g id="text_15">
      <!-- −1.5 -->
      <g transform="translate(294.286107727 254.194179062)scale(0.09996 -0.09996)">
       <use xlink:href="#WenQuanYiMicroHei-2212"/>
       <use x="55.078125" xlink:href="#WenQuanYiMicroHei-31"/>
       <use x="110.15625" xlink:href="#WenQuanYiMicroHei-2e"/>
       <use x="136.962890625" xlink:href="#WenQuanYiMicroHei-35"/>
      </g>
     </g>
    </g>
    <g id="xtick_9">
     <g id="line2d_33">
      <g>
       <use style="stroke:#000000;stroke-width:0.5;" x="341.402932273" xlink:href="#m93b0483c22" y="242.598780937"/>
      </g>
     </g>
     <g id="line2d_34">
      <g>
       <use style="stroke:#000000;stroke-width:0.5;" x="341.402932273" xlink:href="#m741efc42ff" y="12.1987809375"/>
      </g>
     </g>
     <g id="text_16">
      <!-- −1.0 -->
      <g transform="translate(332.287829773 254.194179062)scale(0.09996 -0.09996)">
       <use xlink:href="#WenQuanYiMicroHei-2212"/>
       <use x="55.078125" xlink:href="#WenQuanYiMicroHei-31"/>
       <use x="110.15625" xlink:href="#WenQuanYiMicroHei-2e"/>
       <use x="136.962890625" xlink:href="#WenQuanYiMicroHei-30"/>
      </g>
     </g>
    </g>
    <g id="xtick_10">
     <g id="line2d_35">
      <g>
       <use style="stroke:#000000;stroke-width:0.5;" x="379.448386818" xlink:href="#m93b0483c22" y="242.598780937"/>
      </g>
     </g>
     <g id="line2d_36">
      <g>
       <use style="stroke:#000000;stroke-width:0.5;" x="379.448386818" xlink:href="#m741efc42ff" y="12.1987809375"/>
      </g>
     </g>
     <g id="text_17">
      <!-- −0.5 -->
      <g transform="translate(370.377016818 254.194179062)scale(0.09996 -0.09996)">
       <use xlink:href="#WenQuanYiMicroHei-2212"/>
       <use x="55.078125" xlink:href="#WenQuanYiMicroHei-30"/>
       <use x="110.15625" xlink:href="#WenQuanYiMicroHei-2e"/>
       <use x="136.962890625" xlink:href="#WenQuanYiMicroHei-35"/>
      </g>
     </g>
    </g>
    <g id="xtick_11">
     <g id="line2d_37">
      <g>
       <use style="stroke:#000000;stroke-width:0.5;" x="417.493841364" xlink:href="#m93b0483c22" y="242.598780937"/>
      </g>
     </g>
     <g id="line2d_38">
      <g>
       <use style="stroke:#000000;stroke-width:0.5;" x="417.493841364" xlink:href="#m741efc42ff" y="12.1987809375"/>
      </g>
     </g>
     <g id="text_18">
      <!-- 0.0 -->
      <g transform="translate(411.121391364 254.194179062)scale(0.09996 -0.09996)">
       <use xlink:href="#WenQuanYiMicroHei-30"/>
       <use x="55.078125" xlink:href="#WenQuanYiMicroHei-2e"/>
       <use x="81.884765625" xlink:href="#WenQuanYiMicroHei-30"/>
      </g>
     </g>
    </g>
    <g id="xtick_12">
     <g id="line2d_39">
      <g>
       <use style="stroke:#000000;stroke-width:0.5;" x="455.539295909" xlink:href="#m93b0483c22" y="242.598780937"/>
      </g>
     </g>
     <g id="line2d_40">
      <g>
       <use style="stroke:#000000;stroke-width:0.5;" x="455.539295909" xlink:href="#m741efc42ff" y="12.1987809375"/>
      </g>
     </g>
     <g id="text_19">
      <!-- 0.5 -->
      <g transform="translate(449.210578409 254.194179062)scale(0.09996 -0.09996)">
       <use xlink:href="#WenQuanYiMicroHei-30"/>
       <use x="55.078125" xlink:href="#WenQuanYiMicroHei-2e"/>
       <use x="81.884765625" xlink:href="#WenQuanYiMicroHei-35"/>
      </g>
     </g>
    </g>
    <g id="xtick_13">
     <g id="line2d_41">
      <g>
       <use style="stroke:#000000;stroke-width:0.5;" x="493.584750455" xlink:href="#m93b0483c22" y="242.598780937"/>
      </g>
     </g>
     <g id="line2d_42">
      <g>
       <use style="stroke:#000000;stroke-width:0.5;" x="493.584750455" xlink:href="#m741efc42ff" y="12.1987809375"/>
      </g>
     </g>
     <g id="text_20">
      <!-- 1.0 -->
      <g transform="translate(487.40753483 254.194179062)scale(0.09996 -0.09996)">
       <use xlink:href="#WenQuanYiMicroHei-31"/>
       <use x="55.078125" xlink:href="#WenQuanYiMicroHei-2e"/>
       <use x="81.884765625" xlink:href="#WenQuanYiMicroHei-30"/>
      </g>
     </g>
    </g>
    <g id="xtick_14">
     <g id="line2d_43">
      <g>
       <use style="stroke:#000000;stroke-width:0.5;" x="531.630205" xlink:href="#m93b0483c22" y="242.598780937"/>
      </g>
     </g>
     <g id="line2d_44">
      <g>
       <use style="stroke:#000000;stroke-width:0.5;" x="531.630205" xlink:href="#m741efc42ff" y="12.1987809375"/>
      </g>
     </g>
     <g id="text_21">
      <!-- 1.5 -->
      <g transform="translate(525.496721875 254.194179062)scale(0.09996 -0.09996)">
       <use xlink:href="#WenQuanYiMicroHei-31"/>
       <use x="55.078125" xlink:href="#WenQuanYiMicroHei-2e"/>
       <use x="81.884765625" xlink:href="#WenQuanYiMicroHei-35"/>
      </g>
     </g>
    </g>
   </g>
   <g id="matplotlib.axis_4">
    <g id="ytick_8">
     <g id="line2d_45">
      <g>
       <use style="stroke:#000000;stroke-width:0.5;" x="303.357477727" xlink:href="#m728421d6d4" y="242.598780937"/>
      </g>
     </g>
     <g id="line2d_46">
      <g>
       <use style="stroke:#000000;stroke-width:0.5;" x="531.630205" xlink:href="#mcb0005524f" y="242.598780937"/>
      </g>
     </g>
     <g id="text_22">
      <!-- −1.5 -->
      <g transform="translate(281.214737727 245.195398125)scale(0.09996 -0.09996)">
       <use xlink:href="#WenQuanYiMicroHei-2212"/>
       <use x="55.078125" xlink:href="#WenQuanYiMicroHei-31"/>
       <use x="110.15625" xlink:href="#WenQuanYiMicroHei-2e"/>
       <use x="136.962890625" xlink:href="#WenQuanYiMicroHei-35"/>
      </g>
     </g>
    </g>
    <g id="ytick_9">
     <g id="line2d_47">
      <g>
       <use style="stroke:#000000;stroke-width:0.5;" x="303.357477727" xlink:href="#m728421d6d4" y="204.198780937"/>
      </g>
     </g>
     <g id="line2d_48">
      <g>
       <use style="stroke:#000000;stroke-width:0.5;" x="531.630205" xlink:href="#mcb0005524f" y="204.198780937"/>
      </g>
     </g>
     <g id="text_23">
      <!-- −1.0 -->
      <g transform="translate(281.127272727 206.795398125)scale(0.09996 -0.09996)">
       <use xlink:href="#WenQuanYiMicroHei-2212"/>
       <use x="55.078125" xlink:href="#WenQuanYiMicroHei-31"/>
       <use x="110.15625" xlink:href="#WenQuanYiMicroHei-2e"/>
       <use x="136.962890625" xlink:href="#WenQuanYiMicroHei-30"/>
      </g>
     </g>
    </g>
    <g id="ytick_10">
     <g id="line2d_49">
      <g>
       <use style="stroke:#000000;stroke-width:0.5;" x="303.357477727" xlink:href="#m728421d6d4" y="165.798780937"/>
      </g>
     </g>
     <g id="line2d_50">
      <g>
       <use style="stroke:#000000;stroke-width:0.5;" x="531.630205" xlink:href="#mcb0005524f" y="165.798780937"/>
      </g>
     </g>
     <g id="text_24">
      <!-- −0.5 -->
      <g transform="translate(281.214737727 168.395398125)scale(0.09996 -0.09996)">
       <use xlink:href="#WenQuanYiMicroHei-2212"/>
       <use x="55.078125" xlink:href="#WenQuanYiMicroHei-30"/>
       <use x="110.15625" xlink:href="#WenQuanYiMicroHei-2e"/>
       <use x="136.962890625" xlink:href="#WenQuanYiMicroHei-35"/>
      </g>
     </g>
    </g>
    <g id="ytick_11">
     <g id="line2d_51">
      <g>
       <use style="stroke:#000000;stroke-width:0.5;" x="303.357477727" xlink:href="#m728421d6d4" y="127.398780937"/>
      </g>
     </g>
     <g id="line2d_52">
      <g>
       <use style="stroke:#000000;stroke-width:0.5;" x="531.630205" xlink:href="#mcb0005524f" y="127.398780937"/>
      </g>
     </g>
     <g id="text_25">
      <!-- 0.0 -->
      <g transform="translate(286.612577727 129.995398125)scale(0.09996 -0.09996)">
       <use xlink:href="#WenQuanYiMicroHei-30"/>
       <use x="55.078125" xlink:href="#WenQuanYiMicroHei-2e"/>
       <use x="81.884765625" xlink:href="#WenQuanYiMicroHei-30"/>
      </g>
     </g>
    </g>
    <g id="ytick_12">
     <g id="line2d_53">
      <g>
       <use style="stroke:#000000;stroke-width:0.5;" x="303.357477727" xlink:href="#m728421d6d4" y="88.9987809375"/>
      </g>
     </g>
     <g id="line2d_54">
      <g>
       <use style="stroke:#000000;stroke-width:0.5;" x="531.630205" xlink:href="#mcb0005524f" y="88.9987809375"/>
      </g>
     </g>
     <g id="text_26">
      <!-- 0.5 -->
      <g transform="translate(286.700042727 91.595398125)scale(0.09996 -0.09996)">
       <use xlink:href="#WenQuanYiMicroHei-30"/>
       <use x="55.078125" xlink:href="#WenQuanYiMicroHei-2e"/>
       <use x="81.884765625" xlink:href="#WenQuanYiMicroHei-35"/>
      </g>
     </g>
    </g>
    <g id="ytick_13">
     <g id="line2d_55">
      <g>
       <use style="stroke:#000000;stroke-width:0.5;" x="303.357477727" xlink:href="#m728421d6d4" y="50.5987809375"/>
      </g>
     </g>
     <g id="line2d_56">
      <g>
       <use style="stroke:#000000;stroke-width:0.5;" x="531.630205" xlink:href="#mcb0005524f" y="50.5987809375"/>
      </g>
     </g>
     <g id="text_27">
      <!-- 1.0 -->
      <g transform="translate(287.003046477 53.195398125)scale(0.09996 -0.09996)">
       <use xlink:href="#WenQuanYiMicroHei-31"/>
       <use x="55.078125" xlink:href="#WenQuanYiMicroHei-2e"/>
       <use x="81.884765625" xlink:href="#WenQuanYiMicroHei-30"/>
      </g>
     </g>
    </g>
    <g id="ytick_14">
     <g id="line2d_57">
      <g>
       <use style="stroke:#000000;stroke-width:0.5;" x="303.357477727" xlink:href="#m728421d6d4" y="12.1987809375"/>
      </g>
     </g>
     <g id="line2d_58">
      <g>
       <use style="stroke:#000000;stroke-width:0.5;" x="531.630205" xlink:href="#mcb0005524f" y="12.1987809375"/>
      </g>
     </g>
     <g id="text_28">
      <!-- 1.5 -->
      <g transform="translate(287.090511477 14.795398125)scale(0.09996 -0.09996)">
       <use xlink:href="#WenQuanYiMicroHei-31"/>
       <use x="55.078125" xlink:href="#WenQuanYiMicroHei-2e"/>
       <use x="81.884765625" xlink:href="#WenQuanYiMicroHei-35"/>
      </g>
     </g>
    </g>
   </g>
  </g>
 </g>
 <defs>
  <clipPath id="p0b1673dee7">
   <rect height="230.4" width="228.272727273" x="29.430205" y="12.1987809375"/>
  </clipPath>
  <clipPath id="p986accf884">
   <rect height="230.4" width="228.272727273" x="303.357477727" y="12.1987809375"/>
  </clipPath>
 </defs>
</svg>
