<?xml version="1.0" encoding="utf-8" standalone="no"?>
<!DOCTYPE svg PUBLIC "-//W3C//DTD SVG 1.1//EN"
  "http://www.w3.org/Graphics/SVG/1.1/DTD/svg11.dtd">
<!-- Created with matplotlib (http://matplotlib.org/) -->
<svg height="148pt" version="1.1" viewBox="0 0 711 148" width="711pt" xmlns="http://www.w3.org/2000/svg" xmlns:xlink="http://www.w3.org/1999/xlink">
 <defs>
  <style type="text/css">
*{stroke-linecap:butt;stroke-linejoin:round;}
  </style>
 </defs>
 <g id="figure_1">
  <g id="patch_1">
   <path d="
M0 148.596
L711.282 148.596
L711.282 0
L0 0
z
" style="fill:#ffffff;"/>
  </g>
  <g id="axes_1">
   <g id="patch_2">
    <path clip-path="url(#p0e1a11667d)" d="
M29.4302 127.399
L29.4302 12.1988
L77.2588 12.1988
L77.2588 127.399
z
" style="fill:#0000ff;opacity:0.2;stroke:#000000;stroke-linejoin:miter;"/>
   </g>
   <g id="patch_3">
    <path clip-path="url(#p0e1a11667d)" d="
M77.2588 127.399
L77.2588 12.1988
L125.087 12.1988
L125.087 127.399
z
" style="fill:#0000ff;opacity:0.2;stroke:#000000;stroke-linejoin:miter;"/>
   </g>
   <g id="patch_4">
    <path clip-path="url(#p0e1a11667d)" d="
M125.087 127.399
L125.087 12.1988
L172.916 12.1988
L172.916 127.399
z
" style="fill:#0000ff;opacity:0.2;stroke:#000000;stroke-linejoin:miter;"/>
   </g>
   <g id="patch_5">
    <path clip-path="url(#p0e1a11667d)" d="
M172.916 127.399
L172.916 12.1988
L220.744 12.1988
L220.744 127.399
z
" style="fill:#0000ff;opacity:0.2;stroke:#000000;stroke-linejoin:miter;"/>
   </g>
   <g id="patch_6">
    <path clip-path="url(#p0e1a11667d)" d="
M220.744 127.399
L220.744 12.1988
L268.573 12.1988
L268.573 127.399
z
" style="fill:#0000ff;opacity:0.2;stroke:#000000;stroke-linejoin:miter;"/>
   </g>
   <g id="patch_7">
    <path clip-path="url(#p0e1a11667d)" d="
M268.573 127.399
L268.573 12.1988
L316.402 12.1988
L316.402 127.399
z
" style="fill:#0000ff;opacity:0.2;stroke:#000000;stroke-linejoin:miter;"/>
   </g>
   <g id="patch_8">
    <path clip-path="url(#p0e1a11667d)" d="
M316.402 127.399
L316.402 12.1988
L364.23 12.1988
L364.23 127.399
z
" style="fill:#0000ff;opacity:0.2;stroke:#000000;stroke-linejoin:miter;"/>
   </g>
   <g id="patch_9">
    <path clip-path="url(#p0e1a11667d)" d="
M364.23 127.399
L364.23 12.1988
L412.059 12.1988
L412.059 127.399
z
" style="fill:#0000ff;opacity:0.2;stroke:#000000;stroke-linejoin:miter;"/>
   </g>
   <g id="patch_10">
    <path clip-path="url(#p0e1a11667d)" d="
M412.059 127.399
L412.059 12.1988
L459.887 12.1988
L459.887 127.399
z
" style="fill:#0000ff;opacity:0.2;stroke:#000000;stroke-linejoin:miter;"/>
   </g>
   <g id="patch_11">
    <path clip-path="url(#p0e1a11667d)" d="
M459.887 127.399
L459.887 12.1988
L507.716 12.1988
L507.716 127.399
z
" style="fill:#0000ff;opacity:0.2;stroke:#000000;stroke-linejoin:miter;"/>
   </g>
   <g id="patch_12">
    <path clip-path="url(#p0e1a11667d)" d="
M507.716 127.399
L507.716 12.1988
L555.544 12.1988
L555.544 127.399
z
" style="fill:#0000ff;opacity:0.2;stroke:#000000;stroke-linejoin:miter;"/>
   </g>
   <g id="patch_13">
    <path clip-path="url(#p0e1a11667d)" d="
M555.544 127.399
L555.544 12.1988
L603.373 12.1988
L603.373 127.399
z
" style="fill:#0000ff;opacity:0.2;stroke:#000000;stroke-linejoin:miter;"/>
   </g>
   <g id="line2d_1">
    <path clip-path="url(#p0e1a11667d)" d="
M29.4372 63.3801
L30.2887 61.1044
L30.316 55.5594
L30.3709 60.8854
L33.6954 52.3585
L34.457 50.5565
L34.5098 30.9955
L34.5363 50.3734
L36.4292 46.2951
L37.9628 43.4735
L39.193 41.5767
L40.4836 39.9747
L41.5337 38.9841
L42.6008 38.2787
L43.5298 37.9187
L44.09 37.8175
L44.0958 52.9407
L44.0958 52.9407
L44.0958 52.9407
L44.2077 37.8074
L44.9602 37.8343
L45.7587 38.0358
L46.1636 38.2056
L46.1703 43.5786
L46.3321 38.2896
L46.3741 38.3117
L47.1859 38.8342
L48.1673 39.7015
L48.1723 47.3164
L48.1905 39.7251
L48.3201 39.8593
L48.4145 19.4468
L48.594 40.1569
L49.7386 41.6042
L51.0787 43.6929
L52.5257 46.3805
L54.122 49.7937
L56.3272 55.1087
L59.4692 63.365
L63.4969 73.8315
L65.6285 78.7399
L65.7545 79.0084
L65.9026 90.3067
L66.0364 79.5995
L66.14 79.8133
L67.7727 82.9116
L69.1976 85.1548
L70.5126 86.7985
L71.5674 87.799
L72.6484 88.5168
L73.6441 88.8946
L74.5935 88.9977
L75.2524 88.9212
L75.6815 88.8062
L75.6911 72.7101
L75.7447 88.785
L76.6275 88.3727
L76.633 80.7863
L76.7305 88.3106
L77.6532 87.627
L78.818 86.4434
L79.5436 85.5322
L79.5948 99.1444
L79.5948 99.1444
L79.5948 99.1444
L79.649 85.3892
L80.9953 83.3332
L82.4065 80.7557
L84.1459 77.0666
L85.7213 73.3328
L85.7317 59.6436
L85.7929 73.156
L88.3809 66.4755
L90.2081 61.5945
L90.2339 58.9393
L90.3585 61.1932
L90.4178 61.0352
L93.7581 52.4564
L95.8286 47.7413
L97.5292 44.4064
L98.9547 42.0684
L100.202 40.4085
L101.411 39.1727
L102.456 38.4148
L103.528 37.9475
L104.356 37.8045
L105.243 37.8642
L106.11 38.1345
L107.059 38.6681
L108.124 39.556
L109.197 40.7487
L110.441 42.4873
L111.861 44.9015
L113.438 48.0568
L115.373 52.4867
L117.759 58.5429
L124.565 76.1331
L125.322 77.8475
L125.395 69.725
L125.543 78.333
L127.104 81.5133
L127.138 92.4056
L127.194 81.6827
L128.489 83.9331
L129.883 85.9355
L131.102 87.2957
L132.268 88.235
L132.615 88.4436
L132.624 76.1576
L132.624 76.1576
L132.624 76.1576
L132.705 88.4925
L133.753 88.8958
L134.685 88.998
L135.529 88.8809
L136.435 88.5344
L137.425 87.8985
L138.01 87.3998
L138.011 89.7242
L138.011 89.7242
L138.011 89.7242
L138.152 87.2645
L139.194 86.1165
L139.685 85.481
L139.694 94.8476
L139.694 94.8476
L139.694 94.8476
L139.767 85.3683
L140.047 84.9749
L140.081 93.665
L140.081 93.665
L140.081 93.665
L140.201 84.7499
L140.524 84.2613
L140.534 82.8004
L140.701 83.9832
L140.787 83.8447
L141.607 82.452
L141.663 58.2613
L141.686 82.3089
L143.242 79.2654
L145.235 74.7674
L147.646 68.6869
L148.116 67.4504
L148.126 65.3543
L148.168 67.3147
L154.169 51.718
L156.105 47.3761
L156.124 45.4048
L156.23 47.1181
L156.324 46.9252
L157.931 43.879
L159.335 41.6677
L160.608 40.0643
L161.29 39.3731
L161.389 34.9225
L161.438 39.2396
L161.491 39.1932
L162.575 38.4058
L163.514 37.9829
L164.456 37.8047
L165.339 37.8627
L166.245 38.1482
L167.218 38.7067
L168.256 39.5843
L169.386 40.8566
L170.525 42.4582
L171.917 44.8149
L173.414 47.7871
L174.583 50.3759
L174.601 36.3197
L174.601 36.3197
L174.601 36.3197
L174.738 50.7353
L176.512 55.0542
L176.53 67.1404
L176.563 55.1824
L179.834 63.7895
L183.692 73.8039
L185.793 78.6507
L187.456 81.9768
L187.649 82.3292
L187.65 104.561
L187.72 82.4559
L188.461 83.7221
L188.484 87.0724
L188.593 83.9346
L188.684 84.0784
L190.032 85.9929
L191.254 87.3423
L192.368 88.2326
L193.286 88.714
L194.209 88.9632
L194.241 91.144
L194.27 88.9713
L195.175 88.969
L196.071 88.7415
L196.974 88.2877
L197.523 87.9028
L197.579 76.4585
L197.679 87.7785
L197.741 87.7272
L198.816 86.6808
L199.827 85.4279
L201.18 83.3694
L202.234 81.488
L202.307 116.257
L202.494 80.9872
L204.116 77.5973
L206.174 72.7218
L208.942 65.5321
L208.974 68.6832
L209.094 65.1248
L210.134 62.3445
L210.268 51.0241
L210.292 61.9213
L210.368 61.7174
L211.403 58.9695
L211.408 72.7451
L211.408 72.7451
L211.408 72.7451
L211.582 58.498
L214.355 51.5207
L216.34 47.1026
L218.023 43.8988
L219.45 41.6505
L220.582 40.2082
L221.869 38.9633
L222.774 38.3516
L223.787 37.9327
L224.645 37.8008
L225.519 37.8782
L226.474 38.2061
L227.42 38.7782
L228.32 39.5464
L229.544 40.9269
L230.781 42.6961
L231.266 43.4867
L231.344 34.757
L231.571 44.0093
L233.096 46.9086
L234.357 49.6254
L234.359 51.047
L234.422 49.7718
L235.6 52.5377
L235.61 21.0689
L235.61 21.0689
L235.61 21.0689
L235.75 52.9014
L237.313 56.8416
L237.317 42.089
L237.317 42.089
L237.317 42.089
L237.452 57.1995
L245.404 77.5732
L247.18 81.2643
L248.7 83.9405
L249.983 85.7995
L251.243 87.2323
L252.198 88.0451
L252.916 88.4948
L253.025 89.3774
L253.04 88.5584
L253.118 88.5961
L254.006 88.9068
L254.739 88.9979
L255.697 88.8906
L256.639 88.5359
L256.738 104.324
L256.829 88.4346
L257.912 87.6701
L258.794 86.8182
L259.991 85.344
L261.187 83.5302
L262.703 80.7803
L264.059 77.9521
L266.155 73.0252
L267.605 69.3323
L267.627 73.3024
L267.771 68.8989
L269.243 65.0019
L269.263 69.0398
L269.263 69.0398
L269.263 69.0398
L269.307 64.8307
L273.935 52.7772
L276.036 47.959
L276.274 47.4549
L276.293 52.1221
L276.293 52.1221
L276.293 52.1221
L276.43 47.1296
L278.056 44.0209
L278.857 42.6901
L278.923 43.4115
L278.923 43.4115
L278.923 43.4115
L278.946 42.5511
L279.502 41.7233
L279.552 23.6574
L279.59 41.5989
L280.807 40.0715
L281.372 39.4898
L281.412 28.3653
L281.464 39.4036
L282.536 38.5562
L283.503 38.059
L283.93 37.9218
L284.11 26.8229
L284.129 37.8752
L284.152 37.8705
L285.131 37.8084
L286.014 37.982
L286.947 38.4006
L287.31 38.6282
L287.363 38.4829
L287.635 38.8619
L288.656 39.7794
L289.828 41.1626
L291.117 43.069
L292.551 45.6198
L294.149 48.9315
L296.158 53.652
L298.884 60.7
L304.116 74.3336
L306.137 78.9441
L307.515 81.704
L309.203 84.5603
L310.521 86.3394
L311.575 87.4496
L312.689 88.3053
L313.594 88.7531
L314.64 88.9878
L315.279 88.9808
L315.314 81.6996
L315.343 88.9737
L316.21 88.7663
L317.041 88.3723
L318.23 87.4815
L319.263 86.4058
L320.458 84.8279
L321.775 82.7023
L323.273 79.8431
L325.012 76.0257
L326.838 71.5716
L326.93 72.9025
L327.047 71.0385
L330.619 61.5992
L332.624 56.3247
L332.652 58.182
L332.828 55.8013
L335.179 50.0832
L337.026 46.1335
L338.638 43.209
L340.005 41.1729
L340.254 40.8498
L340.325 40.5435
L340.405 40.6615
L340.548 40.4884
L340.591 56.5403
L340.812 40.1815
L341.831 39.1665
L342.928 38.3809
L343.942 37.947
L344.825 37.8018
L345.056 37.7998
L345.07 38.6224
L345.163 37.8039
L346.064 37.9655
L346.889 38.311
L347.697 38.8304
L347.763 65.2731
L347.772 38.8882
L348.851 39.8756
L350.012 41.2715
L351.296 43.1924
L351.377 43.3262
L351.396 49.1091
L351.48 43.4981
L352.917 46.1341
L354.531 49.5528
L356.599 54.4928
L359.533 62.1554
L361.228 66.6826
L361.333 67.3518
L361.42 67.1907
L364.407 74.787
L365.854 78.1119
L365.861 88.4042
L365.944 78.3066
L367.709 81.8724
L369.263 84.4957
L369.978 85.5195
L370.099 74.4476
L370.225 85.8448
L371.39 87.1746
L372.546 88.1447
L373.465 88.66
L374.407 88.9457
L375.38 88.981
L376.296 88.7726
L376.995 88.457
L377.006 102.489
L377.006 102.489
L377.006 102.489
L377.152 88.3675
L378.132 87.6587
L379.072 86.7395
L380.296 85.2072
L381.553 83.2618
L383.096 80.4112
L384.805 76.7398
L386.952 71.5427
L390.2 62.9944
L394.095 52.8908
L396.195 48.06
L397.826 44.8038
L399.322 42.29
L400.48 40.6964
L401.736 39.3423
L402.628 38.6319
L403.601 38.1022
L403.602 40.0918
L403.602 40.0918
L403.602 40.0918
L403.725 38.0534
L404.617 37.8281
L405.611 37.8389
L406.475 38.0724
L407.445 38.5803
L408.462 39.3868
L409.52 40.5137
L410.703 42.1031
L412.103 44.4025
L412.229 44.63
L412.316 43.3032
L412.53 45.1887
L413.722 47.5644
L415.823 52.3273
L418.34 58.7127
L420.536 64.5635
L420.575 50.8237
L420.575 50.8237
L420.575 50.8237
L420.686 64.9636
L424.15 73.914
L424.161 71.6607
L424.161 71.6607
L424.161 71.6607
L424.281 74.2334
L426.293 78.8373
L428.003 82.2223
L428.959 83.8603
L429.001 84.3178
L429.063 84.0258
L430.34 85.8607
L430.931 86.5757
L430.97 81.7163
L430.97 81.7163
L430.97 81.7163
L431.047 86.706
L432.093 87.7226
L433.191 88.4764
L433.359 88.5631
L433.405 95.0759
L433.474 88.6178
L433.554 88.6537
L434.429 88.9307
L435.062 88.9982
L435.205 114.814
L435.265 88.9961
L436.221 88.8313
L436.373 88.7818
L436.385 80.8876
L436.405 88.7704
L437.332 88.3212
L438.432 87.4857
L439.449 86.4294
L440.084 85.6373
L440.09 88.8474
L440.09 88.8474
L440.09 88.8474
L440.193 85.4914
L441.477 83.5622
L442.918 80.9667
L444.563 77.5195
L446.516 72.8981
L449.332 65.5907
L454.274 52.7069
L454.861 51.299
L454.929 43.8945
L455.004 50.9637
L455.064 50.824
L456.837 46.9302
L458.619 43.5847
L458.638 43.552
L458.659 45.4495
L458.822 43.2458
L458.925 30.9079
L458.985 42.979
L459.019 42.9237
L460.399 40.9283
L461.599 39.5694
L462.71 38.6463
L463.743 38.0865
L463.786 47.5063
L463.8 40.5248
L463.8 40.5248
L463.879 38.0344
L464.245 37.9204
L464.297 51.031
L464.297 51.031
L464.297 51.031
L464.325 37.9005
L465.333 37.8021
L466.182 37.9397
L467.111 38.3198
L467.499 38.5486
L467.504 34.2327
L467.504 34.2327
L467.504 34.2327
L467.587 38.6059
L467.727 38.702
L467.768 33.4989
L467.768 33.4989
L467.768 33.4989
L467.896 38.8249
L468.935 39.7478
L470.083 41.0907
L471.326 42.9061
L471.587 43.3327
L471.62 54.2664
L471.742 43.5923
L471.811 43.71
L473.351 46.5871
L474.98 50.1034
L477.049 55.1076
L480.364 63.8262
L483.289 71.5137
L483.292 88.2474
L483.372 71.7221
L485.616 77.1231
L487.494 81.0746
L488.936 83.6541
L489.01 59.7652
L489.149 83.9987
L490.535 85.9766
L491.726 87.3003
L492.806 88.1813
L493.741 88.6893
L494.626 88.9478
L495.597 88.9799
L496.543 88.7577
L497.343 88.3767
L498.518 87.501
L499.454 86.5431
L500.271 85.5256
L500.32 93.6368
L500.32 93.6368
L500.32 93.6368
L500.43 85.3075
L501.726 83.3188
L503.208 80.5979
L504.849 77.1104
L506.997 71.9519
L510.07 63.8944
L512.104 58.4824
L512.139 46.2811
L512.186 58.2671
L512.242 58.1215
L512.348 58.1703
L512.421 57.6519
L515.038 51.1261
L517.005 46.7967
L518.652 43.7042
L520.009 41.5898
L521.303 39.9813
L522.452 38.9103
L523.394 38.2954
L524.411 37.9046
L525.311 37.7989
L526.213 37.9203
L527.11 38.2654
L528.072 38.8808
L529.112 39.8242
L529.453 40.1953
L529.569 48.7048
L529.586 40.3477
L530.789 41.9266
L532.158 44.1346
L533.694 47.0774
L535.459 50.9724
L535.57 51.2339
L535.598 67.4208
L535.615 51.3399
L537.978 57.226
L539.13 60.2574
L539.171 62.33
L539.227 60.5147
L540.292 63.3592
L540.387 56.5193
L540.516 63.9585
L542.582 69.4296
L542.677 90.58
L542.688 69.706
L545.34 76.2545
L547.186 80.2627
L548.683 83.0579
L550.029 85.1641
L551.289 86.7456
L552.343 87.7582
L552.387 101.299
L552.446 87.8417
L553.052 88.2743
L553.092 89.216
L553.129 88.3225
L553.604 88.5819
L553.653 98.3297
L553.767 88.6565
L553.808 88.6742
L554.775 88.9553
L555.627 88.9867
L556.589 88.7782
L557.515 88.3358
L558.527 87.5846
L559.497 86.6116
L560.741 85.0155
L562.062 82.9217
L563.596 80.027
L565.119 76.7299
L567.414 71.1564
L569.118 66.7105
L569.13 80.6889
L569.13 80.6889
L569.13 80.6889
L569.189 66.5207
L574.712 52.1462
L576.733 47.5743
L578.344 44.4243
L579.864 41.9455
L580.965 40.4824
L582.097 39.2954
L583.165 38.4847
L583.925 38.096
L583.944 39.8144
L583.944 39.8144
L583.944 39.8144
L584.036 38.0525
L585.021 37.8172
L585.858 37.8302
L586.807 38.0812
L587.801 38.6114
L588.794 39.4075
L589.895 40.5919
L591.056 42.1679
L592.36 44.3088
L593.864 47.2158
L595.713 51.3281
L597.989 56.987
L598.234 57.624
L598.28 70.9971
L598.432 58.1412
L598.461 58.2173
L600.73 64.2557
L600.766 75.6669
L600.84 64.5474
L604.449 73.8902
L604.497 56.7508
L604.497 56.7508
L604.497 56.7508
L604.612 74.2867
L606.641 78.9193
L608.357 82.3036
L609.818 84.7095
L611.085 86.3964
L612.265 87.6048
L613.269 88.3449
L614.28 88.8121
L615.099 88.9829
L616.049 88.9462
L616.912 88.6944
L617.931 88.1328
L619.129 87.115
L620.212 85.8733
L621.351 84.2587
L621.361 106.218
L621.361 106.218
L621.361 106.218
L621.44 84.1194
L622.87 81.6497
L624.517 78.3041
L626.408 73.9262
L628.193 69.4149
L628.258 58.5069
L628.259 69.243
L629.063 67.1296
L629.109 68.4905
L629.109 68.4905
L629.109 68.4905
L629.152 66.893
L629.22 69.765
L629.597 65.7106
L630.292 63.8529
L630.292 63.8529" style="fill:none;stroke:#348abd;stroke-linecap:square;stroke-width:2.0;"/>
   </g>
   <g id="line2d_2">
    <path clip-path="url(#p0e1a11667d)" d="
M48.4145 19.4468
L65.9026 90.3067
L79.5948 99.1444
L104.613 37.7992
L139.694 94.8476
L161.389 34.9225
L174.601 36.3197
L202.307 116.257
L235.61 21.0689
L256.738 104.324
L279.552 23.6574
L314.974 88.9984
L316.644 88.5844
L345.001 37.7989
L377.006 102.489
L405.041 37.7989
L435.205 114.814
L458.925 30.9079
L467.768 33.4989
L500.32 93.6368
L525.311 37.7989
L552.387 101.299
L555.551 88.9921
L585.534 37.8019" style="fill:none;stroke:#ff0000;stroke-dasharray:6.000000,6.000000;stroke-dashoffset:0.0;"/>
    <defs>
     <path d="
M0 3
C0.795609 3 1.55874 2.6839 2.12132 2.12132
C2.6839 1.55874 3 0.795609 3 0
C3 -0.795609 2.6839 -1.55874 2.12132 -2.12132
C1.55874 -2.6839 0.795609 -3 0 -3
C-0.795609 -3 -1.55874 -2.6839 -2.12132 -2.12132
C-2.6839 -1.55874 -3 -0.795609 -3 0
C-3 0.795609 -2.6839 1.55874 -2.12132 2.12132
C-1.55874 2.6839 -0.795609 3 0 3
z
" id="md175be6dbf" style="stroke:#000000;stroke-width:0.5;"/>
    </defs>
    <g clip-path="url(#p0e1a11667d)">
     <use style="fill:#ff0000;stroke:#000000;stroke-width:0.5;" x="48.4144747261" xlink:href="#md175be6dbf" y="19.4467974706"/>
     <use style="fill:#ff0000;stroke:#000000;stroke-width:0.5;" x="65.9026442649" xlink:href="#md175be6dbf" y="90.3067369302"/>
     <use style="fill:#ff0000;stroke:#000000;stroke-width:0.5;" x="79.5947537483" xlink:href="#md175be6dbf" y="99.1443618058"/>
     <use style="fill:#ff0000;stroke:#000000;stroke-width:0.5;" x="104.612586933" xlink:href="#md175be6dbf" y="37.7991803928"/>
     <use style="fill:#ff0000;stroke:#000000;stroke-width:0.5;" x="139.694182667" xlink:href="#md175be6dbf" y="94.8476315709"/>
     <use style="fill:#ff0000;stroke:#000000;stroke-width:0.5;" x="161.389040781" xlink:href="#md175be6dbf" y="34.9225484664"/>
     <use style="fill:#ff0000;stroke:#000000;stroke-width:0.5;" x="174.601468443" xlink:href="#md175be6dbf" y="36.3196506985"/>
     <use style="fill:#ff0000;stroke:#000000;stroke-width:0.5;" x="202.30655127" xlink:href="#md175be6dbf" y="116.256943096"/>
     <use style="fill:#ff0000;stroke:#000000;stroke-width:0.5;" x="235.610477073" xlink:href="#md175be6dbf" y="21.0689232937"/>
     <use style="fill:#ff0000;stroke:#000000;stroke-width:0.5;" x="256.738144873" xlink:href="#md175be6dbf" y="104.323675642"/>
     <use style="fill:#ff0000;stroke:#000000;stroke-width:0.5;" x="279.551889449" xlink:href="#md175be6dbf" y="23.6574220622"/>
     <use style="fill:#ff0000;stroke:#000000;stroke-width:0.5;" x="314.974209829" xlink:href="#md175be6dbf" y="88.9983727819"/>
     <use style="fill:#ff0000;stroke:#000000;stroke-width:0.5;" x="316.643564181" xlink:href="#md175be6dbf" y="88.584440237"/>
     <use style="fill:#ff0000;stroke:#000000;stroke-width:0.5;" x="345.001426171" xlink:href="#md175be6dbf" y="37.7989039564"/>
     <use style="fill:#ff0000;stroke:#000000;stroke-width:0.5;" x="377.005790984" xlink:href="#md175be6dbf" y="102.488970911"/>
     <use style="fill:#ff0000;stroke:#000000;stroke-width:0.5;" x="405.04113082" xlink:href="#md175be6dbf" y="37.7989407089"/>
     <use style="fill:#ff0000;stroke:#000000;stroke-width:0.5;" x="435.204569797" xlink:href="#md175be6dbf" y="114.813855742"/>
     <use style="fill:#ff0000;stroke:#000000;stroke-width:0.5;" x="458.924903279" xlink:href="#md175be6dbf" y="30.9079383791"/>
     <use style="fill:#ff0000;stroke:#000000;stroke-width:0.5;" x="467.768408112" xlink:href="#md175be6dbf" y="33.498921645"/>
     <use style="fill:#ff0000;stroke:#000000;stroke-width:0.5;" x="500.320132601" xlink:href="#md175be6dbf" y="93.6368438965"/>
     <use style="fill:#ff0000;stroke:#000000;stroke-width:0.5;" x="525.310934562" xlink:href="#md175be6dbf" y="37.7989043054"/>
     <use style="fill:#ff0000;stroke:#000000;stroke-width:0.5;" x="552.387083773" xlink:href="#md175be6dbf" y="101.298786429"/>
     <use style="fill:#ff0000;stroke:#000000;stroke-width:0.5;" x="555.551133853" xlink:href="#md175be6dbf" y="88.9921138224"/>
     <use style="fill:#ff0000;stroke:#000000;stroke-width:0.5;" x="585.53363954" xlink:href="#md175be6dbf" y="37.8018967783"/>
    </g>
   </g>
  </g>
 </g>
 <defs>
  <clipPath id="p0e1a11667d">
   <rect height="115.2" width="669.6" x="29.430205" y="12.1987809375"/>
  </clipPath>
 </defs>
</svg>
