<?xml version="1.0" encoding="utf-8" standalone="no"?>
<!DOCTYPE svg PUBLIC "-//W3C//DTD SVG 1.1//EN"
  "http://www.w3.org/Graphics/SVG/1.1/DTD/svg11.dtd">
<!-- Created with matplotlib (http://matplotlib.org/) -->
<svg height="148pt" version="1.1" viewBox="0 0 432 148" width="432pt" xmlns="http://www.w3.org/2000/svg" xmlns:xlink="http://www.w3.org/1999/xlink">
 <defs>
  <style type="text/css">
*{stroke-linecap:butt;stroke-linejoin:round;}
  </style>
 </defs>
 <g id="figure_1">
  <g id="patch_1">
   <path d="
M0 148.596
L432.044 148.596
L432.044 0
L0 0
z
" style="fill:#ffffff;"/>
  </g>
  <g id="axes_1">
   <g id="patch_2">
    <path d="
M29.4505 127.399
L206.996 127.399
L206.996 12.1988
L29.4505 12.1988
z
" style="fill:#ffffff;"/>
   </g>
   <g id="line2d_1">
    <path clip-path="url(#pd9c1188437)" d="
M49.8599 127.133
L51.0919 127.399
L52.3239 127.399
L53.5559 127.399
L54.7878 127.399
L56.0198 127.399
L57.2518 127.133
L58.4838 127.133
L59.7157 127.133
L60.9477 127.133
L62.1797 126.602
L63.4116 127.133
L64.6436 126.868
L65.8756 125.805
L67.1076 125.008
L68.3395 125.008
L69.5715 123.414
L70.8035 123.68
L72.0355 122.883
L73.2674 123.149
L74.4994 122.883
L75.7314 122.352
L76.9634 119.164
L78.1953 116.508
L79.4273 114.383
L80.6593 110.398
L81.8912 108.805
L83.1232 109.07
L84.3552 104.82
L85.5872 99.5074
L86.8191 97.1167
L88.0511 94.9916
L89.2831 86.2258
L90.5151 83.3038
L91.747 80.3819
L92.979 75.6005
L94.211 73.2098
L95.4429 65.5065
L96.6749 64.9752
L97.9069 45.584
L99.1389 52.7561
L100.371 51.4279
L101.603 43.9902
L102.835 30.443
L104.067 42.3964
L105.299 28.0523
L106.531 33.0993
L107.763 26.9898
L108.995 36.5525
L110.227 38.1463
L111.459 33.365
L112.691 37.8807
L113.923 42.1308
L115.155 41.3339
L116.386 54.3499
L117.618 62.3189
L118.85 63.647
L120.082 61.7876
L121.314 65.7721
L122.546 72.4129
L123.778 79.3193
L125.01 87.8196
L126.242 87.0227
L127.474 94.726
L128.706 98.9761
L129.938 103.758
L131.17 104.289
L132.402 111.461
L133.634 107.476
L134.866 113.32
L136.098 117.039
L137.33 113.32
L138.562 116.773
L139.794 121.555
L141.026 124.211
L142.258 123.68
L143.49 123.414
L144.722 125.008
L145.954 125.805
L147.186 126.071
L148.418 125.539
L149.65 126.602
L150.882 126.602
L152.114 127.133
L153.346 127.399
L154.578 127.133
L155.81 127.133
L157.042 127.399
L158.274 126.868
L159.506 127.399
L160.738 127.133
L161.969 127.399
L163.201 127.399
L164.433 127.399
L165.665 127.399
L166.897 127.399
L168.129 127.399
L169.361 127.399
L170.593 127.399
L171.825 127.133" style="fill:none;stroke:#348abd;stroke-linecap:square;stroke-width:2.0;"/>
   </g>
   <g id="line2d_2">
    <path clip-path="url(#pd9c1188437)" d="
M49.8599 127.375
L51.0919 127.365
L52.3239 127.351
L53.5559 127.332
L54.7878 127.307
L56.0198 127.272
L57.2518 127.226
L58.4838 127.164
L59.7157 127.084
L60.9477 126.978
L62.1797 126.842
L63.4116 126.667
L64.6436 126.444
L65.8756 126.162
L67.1076 125.81
L68.3395 125.372
L69.5715 124.833
L70.8035 124.175
L72.0355 123.379
L73.2674 122.423
L74.4994 121.287
L75.7314 119.947
L76.9634 118.382
L78.1953 116.569
L79.4273 114.49
L80.6593 112.127
L81.8912 109.467
L83.1232 106.502
L84.3552 103.228
L85.5872 99.6512
L86.8191 95.7838
L88.0511 91.6473
L89.2831 87.2726
L90.5151 82.7002
L91.747 77.98
L92.979 73.1708
L94.211 68.3395
L95.4429 63.56
L96.6749 58.9108
L97.9069 54.4737
L99.1389 50.3312
L100.371 46.5638
L101.603 43.2477
L102.835 40.4521
L104.067 38.237
L105.299 36.6507
L106.531 35.7285
L107.763 35.4909
L108.995 35.9433
L110.227 37.0757
L111.459 38.8625
L112.691 41.2645
L113.923 44.2294
L115.155 47.6941
L116.386 51.587
L117.618 55.8302
L118.85 60.3423
L120.082 65.0408
L121.314 69.8447
L122.546 74.6767
L123.778 79.465
L125.01 84.145
L126.242 88.6607
L127.474 92.9649
L128.706 97.0203
L129.938 100.799
L131.17 104.282
L132.402 107.46
L133.634 110.33
L134.866 112.896
L136.098 115.169
L137.33 117.162
L138.562 118.896
L139.794 120.388
L141.026 121.662
L142.258 122.74
L143.49 123.643
L144.722 124.394
L145.954 125.013
L147.186 125.519
L148.418 125.928
L149.65 126.257
L150.882 126.519
L152.114 126.726
L153.346 126.888
L154.578 127.014
L155.81 127.111
L157.042 127.185
L158.274 127.242
L159.506 127.284
L160.738 127.315
L161.969 127.339
L163.201 127.356
L164.433 127.368
L165.665 127.377
L166.897 127.384
L168.129 127.388
L169.361 127.392
L170.593 127.394
L171.825 127.395" style="fill:none;opacity:0.6;stroke:#a60628;stroke-linecap:square;stroke-width:2.0;"/>
   </g>
   <g id="patch_3">
    <path d="
M29.4505 12.1988
L206.996 12.1988" style="fill:none;stroke:#000000;stroke-linecap:square;stroke-linejoin:miter;"/>
   </g>
   <g id="patch_4">
    <path d="
M206.996 127.399
L206.996 12.1988" style="fill:none;stroke:#000000;stroke-linecap:square;stroke-linejoin:miter;"/>
   </g>
   <g id="patch_5">
    <path d="
M29.4505 127.399
L206.996 127.399" style="fill:none;stroke:#000000;stroke-linecap:square;stroke-linejoin:miter;"/>
   </g>
   <g id="patch_6">
    <path d="
M29.4505 127.399
L29.4505 12.1988" style="fill:none;stroke:#000000;stroke-linecap:square;stroke-linejoin:miter;"/>
   </g>
   <g id="matplotlib.axis_1">
    <g id="xtick_1">
     <g id="line2d_3">
      <defs>
       <path d="
M0 0
L0 -4" id="m93b0483c22" style="stroke:#000000;stroke-width:0.5;"/>
      </defs>
      <g>
       <use style="stroke:#000000;stroke-width:0.5;" x="29.450509375" xlink:href="#m93b0483c22" y="127.398780938"/>
      </g>
     </g>
     <g id="line2d_4">
      <defs>
       <path d="
M0 0
L0 4" id="m741efc42ff" style="stroke:#000000;stroke-width:0.5;"/>
      </defs>
      <g>
       <use style="stroke:#000000;stroke-width:0.5;" x="29.450509375" xlink:href="#m741efc42ff" y="12.1987809375"/>
      </g>
     </g>
     <g id="text_1">
      <!-- −10 -->
      <defs>
       <path d="
M34.7188 0
L26.125 0
L26.125 44.5781
Q26.125 46.6875 26.1406 49.0781
Q26.1719 51.4688 26.2344 53.8281
Q26.3125 56.2031 26.3906 58.375
Q26.4688 60.5469 26.5156 62.2031
Q25.6875 61.3281 25.0469 60.6875
Q24.4219 60.0625 23.75 59.4688
Q23.0938 58.8906 22.3594 58.2188
Q21.625 57.5625 20.6094 56.6875
L13.375 50.7812
L8.6875 56.7812
L27.3906 71.3906
L34.7188 71.3906
z
" id="WenQuanYiMicroHei-31"/>
       <path d="
M50.3906 35.7969
Q50.3906 27.1562 49.1406 20.3125
Q47.9062 13.4844 45.1406 8.73438
Q42.3906 4 38.0312 1.5
Q33.6875 -0.984375 27.4844 -0.984375
Q21.7344 -0.984375 17.4531 1.5
Q13.1875 4 10.375 8.73438
Q7.5625 13.4844 6.17188 20.3125
Q4.78125 27.1562 4.78125 35.7969
Q4.78125 44.4375 6.03125 51.2656
Q7.28125 58.1094 9.98438 62.8125
Q12.7031 67.5312 17.0156 70.0156
Q21.3438 72.5156 27.4844 72.5156
Q33.2969 72.5156 37.5938 70.0469
Q41.8906 67.5781 44.7188 62.8594
Q47.5625 58.1562 48.9688 51.3125
Q50.3906 44.4844 50.3906 35.7969
M13.8125 35.7969
Q13.8125 28.4688 14.5469 23
Q15.2812 17.5312 16.8906 13.8906
Q18.5 10.25 21.1094 8.42188
Q23.7344 6.59375 27.4844 6.59375
Q31.25 6.59375 33.8906 8.39062
Q36.5312 10.2031 38.2031 13.8125
Q39.8906 17.4375 40.6406 22.9219
Q41.4062 28.4219 41.4062 35.7969
Q41.4062 43.1094 40.6406 48.5781
Q39.8906 54.0469 38.2031 57.6562
Q36.5312 61.2812 33.8906 63.0781
Q31.25 64.8906 27.4844 64.8906
Q23.7344 64.8906 21.1094 63.0781
Q18.5 61.2812 16.8906 57.6562
Q15.2812 54.0469 14.5469 48.5781
Q13.8125 43.1094 13.8125 35.7969" id="WenQuanYiMicroHei-30"/>
       <path d="
M4.98438 31.5938
L4.98438 38.9219
L50.0938 38.9219
L50.0938 31.5938
z
" id="WenQuanYiMicroHei-2212"/>
      </defs>
      <g transform="translate(21.675495625 138.994179063)scale(0.09996 -0.09996)">
       <use xlink:href="#WenQuanYiMicroHei-2212"/>
       <use x="55.078125" xlink:href="#WenQuanYiMicroHei-31"/>
       <use x="110.15625" xlink:href="#WenQuanYiMicroHei-30"/>
      </g>
     </g>
    </g>
    <g id="xtick_2">
     <g id="line2d_5">
      <g>
       <use style="stroke:#000000;stroke-width:0.5;" x="64.9596002841" xlink:href="#m93b0483c22" y="127.398780938"/>
      </g>
     </g>
     <g id="line2d_6">
      <g>
       <use style="stroke:#000000;stroke-width:0.5;" x="64.9596002841" xlink:href="#m741efc42ff" y="12.1987809375"/>
      </g>
     </g>
     <g id="text_2">
      <!-- −5 -->
      <defs>
       <path d="
M26.6094 43.7969
Q31.4531 43.7969 35.625 42.4531
Q39.7969 41.1094 42.8906 38.4688
Q46 35.8438 47.75 31.9375
Q49.5156 28.0312 49.5156 22.9062
Q49.5156 17.3281 47.8438 12.8906
Q46.1875 8.45312 42.9219 5.375
Q39.6562 2.29688 34.8438 0.65625
Q30.0312 -0.984375 23.7812 -0.984375
Q21.2969 -0.984375 18.875 -0.734375
Q16.4531 -0.484375 14.2344 -0.015625
Q12.0156 0.4375 10.0156 1.17188
Q8.01562 1.90625 6.39062 2.875
L6.39062 11.2812
Q8.01562 10.1562 10.1875 9.28125
Q12.3594 8.40625 14.75 7.8125
Q17.1406 7.23438 19.5469 6.90625
Q21.9688 6.59375 24.0312 6.59375
Q27.875 6.59375 30.9062 7.5
Q33.9375 8.40625 36.0312 10.2969
Q38.1406 12.2031 39.25 15.0781
Q40.375 17.9688 40.375 21.9219
Q40.375 28.9062 36.0781 32.5938
Q31.7812 36.2812 23.5781 36.2812
Q22.2656 36.2812 20.7188 36.1562
Q19.1875 36.0312 17.6406 35.8281
Q16.1094 35.6406 14.7188 35.4219
Q13.3281 35.2031 12.3125 35.0156
L7.90625 37.7969
L10.5938 71.3906
L44.2812 71.3906
L44.2812 63.2812
L18.3125 63.2812
L16.4062 42.8281
Q17.9688 43.1094 20.5312 43.4531
Q23.0938 43.7969 26.6094 43.7969" id="WenQuanYiMicroHei-35"/>
      </defs>
      <g transform="translate(59.9811237216 138.994179063)scale(0.09996 -0.09996)">
       <use xlink:href="#WenQuanYiMicroHei-2212"/>
       <use x="55.078125" xlink:href="#WenQuanYiMicroHei-35"/>
      </g>
     </g>
    </g>
    <g id="xtick_3">
     <g id="line2d_7">
      <g>
       <use style="stroke:#000000;stroke-width:0.5;" x="100.468691193" xlink:href="#m93b0483c22" y="127.398780938"/>
      </g>
     </g>
     <g id="line2d_8">
      <g>
       <use style="stroke:#000000;stroke-width:0.5;" x="100.468691193" xlink:href="#m741efc42ff" y="12.1987809375"/>
      </g>
     </g>
     <g id="text_3">
      <!-- 0 -->
      <g transform="translate(98.1891346307 138.994179063)scale(0.09996 -0.09996)">
       <use xlink:href="#WenQuanYiMicroHei-30"/>
      </g>
     </g>
    </g>
    <g id="xtick_4">
     <g id="line2d_9">
      <g>
       <use style="stroke:#000000;stroke-width:0.5;" x="135.977782102" xlink:href="#m93b0483c22" y="127.398780938"/>
      </g>
     </g>
     <g id="line2d_10">
      <g>
       <use style="stroke:#000000;stroke-width:0.5;" x="135.977782102" xlink:href="#m741efc42ff" y="12.1987809375"/>
      </g>
     </g>
     <g id="text_4">
      <!-- 5 -->
      <g transform="translate(133.822394602 138.994179063)scale(0.09996 -0.09996)">
       <use xlink:href="#WenQuanYiMicroHei-35"/>
      </g>
     </g>
    </g>
    <g id="xtick_5">
     <g id="line2d_11">
      <g>
       <use style="stroke:#000000;stroke-width:0.5;" x="171.486873011" xlink:href="#m93b0483c22" y="127.398780938"/>
      </g>
     </g>
     <g id="line2d_12">
      <g>
       <use style="stroke:#000000;stroke-width:0.5;" x="171.486873011" xlink:href="#m741efc42ff" y="12.1987809375"/>
      </g>
     </g>
     <g id="text_5">
      <!-- 10 -->
      <g transform="translate(166.649746136 138.994179063)scale(0.09996 -0.09996)">
       <use xlink:href="#WenQuanYiMicroHei-31"/>
       <use x="55.078125" xlink:href="#WenQuanYiMicroHei-30"/>
      </g>
     </g>
    </g>
    <g id="xtick_6">
     <g id="line2d_13">
      <g>
       <use style="stroke:#000000;stroke-width:0.5;" x="206.99596392" xlink:href="#m93b0483c22" y="127.398780938"/>
      </g>
     </g>
     <g id="line2d_14">
      <g>
       <use style="stroke:#000000;stroke-width:0.5;" x="206.99596392" xlink:href="#m741efc42ff" y="12.1987809375"/>
      </g>
     </g>
     <g id="text_6">
      <!-- 15 -->
      <g transform="translate(202.202569545 138.994179063)scale(0.09996 -0.09996)">
       <use xlink:href="#WenQuanYiMicroHei-31"/>
       <use x="55.078125" xlink:href="#WenQuanYiMicroHei-35"/>
      </g>
     </g>
    </g>
   </g>
   <g id="matplotlib.axis_2">
    <g id="ytick_1">
     <g id="line2d_15">
      <defs>
       <path d="
M0 0
L4 0" id="m728421d6d4" style="stroke:#000000;stroke-width:0.5;"/>
      </defs>
      <g>
       <use style="stroke:#000000;stroke-width:0.5;" x="29.450509375" xlink:href="#m728421d6d4" y="127.398780938"/>
      </g>
     </g>
     <g id="line2d_16">
      <defs>
       <path d="
M0 0
L-4 0" id="mcb0005524f" style="stroke:#000000;stroke-width:0.5;"/>
      </defs>
      <g>
       <use style="stroke:#000000;stroke-width:0.5;" x="206.99596392" xlink:href="#mcb0005524f" y="127.398780938"/>
      </g>
     </g>
     <g id="text_7">
      <!-- 0.00 -->
      <defs>
       <path d="
M7.17188 5.42188
Q7.17188 7.28125 7.65625 8.5625
Q8.15625 9.85938 8.98438 10.6562
Q9.8125 11.4688 10.9375 11.8281
Q12.0625 12.2031 13.375 12.2031
Q14.6562 12.2031 15.7969 11.8281
Q16.9375 11.4688 17.7656 10.6562
Q18.6094 9.85938 19.0938 8.5625
Q19.5781 7.28125 19.5781 5.42188
Q19.5781 3.60938 19.0938 2.3125
Q18.6094 1.03125 17.7656 0.1875
Q16.9375 -0.640625 15.7969 -1.03125
Q14.6562 -1.42188 13.375 -1.42188
Q12.0625 -1.42188 10.9375 -1.03125
Q9.8125 -0.640625 8.98438 0.1875
Q8.15625 1.03125 7.65625 2.3125
Q7.17188 3.60938 7.17188 5.42188" id="WenQuanYiMicroHei-2e"/>
      </defs>
      <g transform="translate(7.2 129.995398125)scale(0.09996 -0.09996)">
       <use xlink:href="#WenQuanYiMicroHei-30"/>
       <use x="55.078125" xlink:href="#WenQuanYiMicroHei-2e"/>
       <use x="81.884765625" xlink:href="#WenQuanYiMicroHei-30"/>
       <use x="136.962890625" xlink:href="#WenQuanYiMicroHei-30"/>
      </g>
     </g>
    </g>
    <g id="ytick_2">
     <g id="line2d_17">
      <g>
       <use style="stroke:#000000;stroke-width:0.5;" x="29.450509375" xlink:href="#m728421d6d4" y="104.358780938"/>
      </g>
     </g>
     <g id="line2d_18">
      <g>
       <use style="stroke:#000000;stroke-width:0.5;" x="206.99596392" xlink:href="#mcb0005524f" y="104.358780938"/>
      </g>
     </g>
     <g id="text_8">
      <!-- 0.05 -->
      <g transform="translate(7.287465 106.955398125)scale(0.09996 -0.09996)">
       <use xlink:href="#WenQuanYiMicroHei-30"/>
       <use x="55.078125" xlink:href="#WenQuanYiMicroHei-2e"/>
       <use x="81.884765625" xlink:href="#WenQuanYiMicroHei-30"/>
       <use x="136.962890625" xlink:href="#WenQuanYiMicroHei-35"/>
      </g>
     </g>
    </g>
    <g id="ytick_3">
     <g id="line2d_19">
      <g>
       <use style="stroke:#000000;stroke-width:0.5;" x="29.450509375" xlink:href="#m728421d6d4" y="81.3187809375"/>
      </g>
     </g>
     <g id="line2d_20">
      <g>
       <use style="stroke:#000000;stroke-width:0.5;" x="206.99596392" xlink:href="#mcb0005524f" y="81.3187809375"/>
      </g>
     </g>
     <g id="text_9">
      <!-- 0.10 -->
      <g transform="translate(7.2 83.915398125)scale(0.09996 -0.09996)">
       <use xlink:href="#WenQuanYiMicroHei-30"/>
       <use x="55.078125" xlink:href="#WenQuanYiMicroHei-2e"/>
       <use x="81.884765625" xlink:href="#WenQuanYiMicroHei-31"/>
       <use x="136.962890625" xlink:href="#WenQuanYiMicroHei-30"/>
      </g>
     </g>
    </g>
    <g id="ytick_4">
     <g id="line2d_21">
      <g>
       <use style="stroke:#000000;stroke-width:0.5;" x="29.450509375" xlink:href="#m728421d6d4" y="58.2787809375"/>
      </g>
     </g>
     <g id="line2d_22">
      <g>
       <use style="stroke:#000000;stroke-width:0.5;" x="206.99596392" xlink:href="#mcb0005524f" y="58.2787809375"/>
      </g>
     </g>
     <g id="text_10">
      <!-- 0.15 -->
      <g transform="translate(7.287465 60.875398125)scale(0.09996 -0.09996)">
       <use xlink:href="#WenQuanYiMicroHei-30"/>
       <use x="55.078125" xlink:href="#WenQuanYiMicroHei-2e"/>
       <use x="81.884765625" xlink:href="#WenQuanYiMicroHei-31"/>
       <use x="136.962890625" xlink:href="#WenQuanYiMicroHei-35"/>
      </g>
     </g>
    </g>
    <g id="ytick_5">
     <g id="line2d_23">
      <g>
       <use style="stroke:#000000;stroke-width:0.5;" x="29.450509375" xlink:href="#m728421d6d4" y="35.2387809375"/>
      </g>
     </g>
     <g id="line2d_24">
      <g>
       <use style="stroke:#000000;stroke-width:0.5;" x="206.99596392" xlink:href="#mcb0005524f" y="35.2387809375"/>
      </g>
     </g>
     <g id="text_11">
      <!-- 0.20 -->
      <defs>
       <path d="
M49.2188 0
L4.6875 0
L4.6875 7.625
L21.7812 26.2188
Q25.4375 30.1719 28.3125 33.4375
Q31.2031 36.7188 33.2188 39.8438
Q35.25 42.9688 36.3281 46.1094
Q37.4062 49.2656 37.4062 52.9844
Q37.4062 55.8594 36.5781 58.0469
Q35.75 60.25 34.2031 61.7812
Q32.6719 63.3281 30.5625 64.1094
Q28.4688 64.8906 25.875 64.8906
Q21.2344 64.8906 17.5 63.0156
Q13.7656 61.1406 10.4062 58.2031
L5.42188 64.0156
Q7.375 65.7656 9.60938 67.2969
Q11.8594 68.8438 14.4531 69.9688
Q17.0469 71.0938 19.9219 71.75
Q22.7969 72.4062 25.9844 72.4062
Q30.6719 72.4062 34.4531 71.0938
Q38.2344 69.7812 40.8594 67.3125
Q43.5 64.8438 44.9375 61.2969
Q46.3906 57.7656 46.3906 53.3281
Q46.3906 49.1719 45.0938 45.4062
Q43.7969 41.6562 41.5312 38.0156
Q39.2656 34.375 36.1094 30.7031
Q32.9531 27.0469 29.2969 23.0938
L15.5781 8.5
L15.5781 8.10938
L49.2188 8.10938
z
" id="WenQuanYiMicroHei-32"/>
      </defs>
      <g transform="translate(7.2 37.835398125)scale(0.09996 -0.09996)">
       <use xlink:href="#WenQuanYiMicroHei-30"/>
       <use x="55.078125" xlink:href="#WenQuanYiMicroHei-2e"/>
       <use x="81.884765625" xlink:href="#WenQuanYiMicroHei-32"/>
       <use x="136.962890625" xlink:href="#WenQuanYiMicroHei-30"/>
      </g>
     </g>
    </g>
    <g id="ytick_6">
     <g id="line2d_25">
      <g>
       <use style="stroke:#000000;stroke-width:0.5;" x="29.450509375" xlink:href="#m728421d6d4" y="12.1987809375"/>
      </g>
     </g>
     <g id="line2d_26">
      <g>
       <use style="stroke:#000000;stroke-width:0.5;" x="206.99596392" xlink:href="#mcb0005524f" y="12.1987809375"/>
      </g>
     </g>
     <g id="text_12">
      <!-- 0.25 -->
      <g transform="translate(7.287465 14.795398125)scale(0.09996 -0.09996)">
       <use xlink:href="#WenQuanYiMicroHei-30"/>
       <use x="55.078125" xlink:href="#WenQuanYiMicroHei-2e"/>
       <use x="81.884765625" xlink:href="#WenQuanYiMicroHei-32"/>
       <use x="136.962890625" xlink:href="#WenQuanYiMicroHei-35"/>
      </g>
     </g>
    </g>
   </g>
   <g id="legend_1">
    <g id="patch_7">
     <path d="
M137.079 50.1867
L201.998 50.1867
L201.998 17.1968
L137.079 17.1968
z
" style="fill:#ffffff;stroke:#000000;stroke-linejoin:miter;"/>
    </g>
    <g id="line2d_27">
     <path d="
M144.076 25.292
L158.07 25.292" style="fill:none;stroke:#348abd;stroke-linecap:square;stroke-width:2.0;"/>
    </g>
    <g id="line2d_28"/>
    <g id="text_13">
     <!-- 统计值 -->
     <defs>
      <path d="
M33.2031 65.2344
L40.2344 62.5
Q30.4688 41.7969 17.9688 27.7344
Q27.7344 30.0781 35.9375 32.8125
L37.8906 26.5625
Q24.6094 21.4844 8.20312 18.75
L5.85938 25.3906
Q14.4531 33.5938 22.2656 46.0938
Q15.625 44.5312 8.20312 43.75
L6.64062 51.1719
Q15.625 62.1094 21.4844 80.8594
L28.9062 78.5156
Q23.4375 62.1094 15.2344 51.5625
Q21.4844 51.9531 26.5625 52.7344
z

M37.8906 15.2344
L39.4531 8.20312
Q25.3906 3.125 8.20312 -0.78125
L5.07812 7.42188
Q23.4375 10.9375 37.8906 15.2344
M57.8125 62.1094
L42.1875 62.1094
L42.1875 69.1406
L63.6719 69.1406
Q62.1094 74.2188 59.7656 78.5156
L67.5781 80.8594
Q70.3125 75.7812 71.875 69.1406
L93.3594 69.1406
L93.3594 62.1094
L66.4062 62.1094
Q59.375 46.0938 52.3438 39.4531
Q64.8438 40.625 78.9062 43.75
Q75.7812 49.6094 72.2656 55.0781
L78.5156 58.9844
Q87.1094 46.0938 92.5781 31.6406
L85.5469 27.7344
Q83.9844 32.8125 81.6406 37.8906
L75.7812 36.3281
L75.7812 1.95312
Q75.7812 0.390625 76.75 -0.1875
Q77.7344 -0.78125 81.25 -0.78125
Q84.7656 -0.78125 85.5469 0.96875
Q86.3281 2.73438 86.7188 16.4062
L94.9219 14.0625
Q94.5312 1.95312 93.5469 -1.5625
Q92.5781 -5.07812 90.625 -6.4375
Q88.6719 -7.8125 81.25 -7.8125
Q73.0469 -7.8125 70.5 -6.04688
Q67.9688 -4.29688 67.9688 -0.390625
L67.9688 35.1562
Q64.8438 34.375 61.7188 33.9844
Q59.375 3.125 42.9688 -8.98438
L37.8906 -2.34375
Q51.5625 7.42188 54.2969 33.2031
L43.75 32.4219
L41.7969 38.6719
Q51.1719 46.875 57.8125 62.1094" id="WenQuanYiMicroHei-7edf"/>
      <path d="
M19.9219 80.8594
Q26.5625 73.0469 30.8594 64.4531
L23.4375 60.1562
Q19.5312 68.75 12.8906 76.5625
z

M5.07812 51.9531
L26.1719 51.9531
L26.1719 6.64062
L34.375 15.625
L39.4531 10.9375
Q33.9844 3.51562 24.6094 -3.90625
L18.75 1.17188
L18.75 44.9219
L5.07812 44.9219
z

M32.0312 50.3906
L59.7656 50.3906
L59.7656 80.8594
L67.5781 80.8594
L67.5781 50.3906
L94.9219 50.3906
L94.9219 42.9688
L67.5781 42.9688
L67.5781 -9.76562
L59.7656 -9.76562
L59.7656 42.9688
L32.0312 42.9688
z
" id="WenQuanYiMicroHei-8ba1"/>
      <path d="
M24.6094 80.8594
L32.4219 78.5156
Q29.2969 69.5312 25.3906 60.5469
L25.3906 -8.98438
L17.5781 -8.98438
L17.5781 45.7031
Q12.8906 38.2812 7.8125 32.0312
L3.90625 39.8438
Q18.3594 59.375 24.6094 80.8594
M35.1562 71.4844
L59.375 71.4844
L59.375 80.4688
L67.1875 80.4688
L67.1875 71.4844
L91.7969 71.4844
L91.7969 64.4531
L67.1875 64.4531
L67.1875 55.4688
L87.1094 55.4688
L87.1094 1.17188
L94.5312 1.17188
L94.5312 -5.46875
L30.0781 -5.46875
L30.0781 1.17188
L41.0156 1.17188
L41.0156 55.4688
L59.375 55.4688
L59.375 64.4531
L35.1562 64.4531
z

M48.8281 41.4062
L79.2969 41.4062
L79.2969 48.8281
L48.8281 48.8281
z

M48.8281 27.7344
L79.2969 27.7344
L79.2969 35.5469
L48.8281 35.5469
z

M48.8281 14.4531
L79.2969 14.4531
L79.2969 21.875
L48.8281 21.875
z

M48.8281 1.17188
L79.2969 1.17188
L79.2969 8.59375
L48.8281 8.59375
z
" id="WenQuanYiMicroHei-503c"/>
     </defs>
     <g transform="translate(169.065829545 28.7905790625)scale(0.09996 -0.09996)">
      <use xlink:href="#WenQuanYiMicroHei-7edf"/>
      <use x="100.0" xlink:href="#WenQuanYiMicroHei-8ba1"/>
      <use x="200.0" xlink:href="#WenQuanYiMicroHei-503c"/>
     </g>
    </g>
    <g id="line2d_29">
     <path d="
M144.076 40.2875
L158.07 40.2875" style="fill:none;opacity:0.6;stroke:#a60628;stroke-linecap:square;stroke-width:2.0;"/>
    </g>
    <g id="line2d_30"/>
    <g id="text_14">
     <!-- 理论值 -->
     <defs>
      <path d="
M19.9219 80.8594
Q26.5625 73.0469 30.8594 64.4531
L23.4375 60.1562
Q19.5312 68.75 12.8906 76.5625
z

M5.07812 51.9531
L26.1719 51.9531
L26.1719 6.64062
L34.375 15.625
L39.4531 10.9375
Q33.9844 3.51562 24.6094 -3.90625
L18.75 1.17188
L18.75 44.9219
L5.07812 44.9219
z

M61.7188 67.5781
Q50 50.3906 33.2031 39.0625
L28.125 45.3125
Q50.3906 62.1094 60.5469 80.8594
L67.5781 76.9531
Q66.7969 75.3906 65.625 73.8281
Q80.0781 56.25 95.7031 46.875
L91.4062 39.4531
Q76.9531 48.4375 61.7188 67.5781
M44.5312 42.9688
L52.7344 42.9688
L52.7344 24.2188
Q67.1875 30.4688 79.2969 38.6719
L84.7656 31.25
Q70.3125 22.6562 52.7344 16.7969
L52.7344 2.73438
Q52.7344 0.78125 54.875 0
Q57.0312 -0.78125 64.8438 -0.78125
Q77.7344 -0.78125 80.0781 1.17188
Q82.4219 3.125 83.2031 12.1094
L91.0156 9.76562
Q89.4531 -1.95312 85.5469 -5.07812
Q82.0312 -7.8125 64.8438 -7.8125
Q51.1719 -7.8125 47.8438 -6.04688
Q44.5312 -4.29688 44.5312 0.390625
z
" id="WenQuanYiMicroHei-8bba"/>
      <path d="
M5.85938 75.7812
L35.1562 75.7812
L35.1562 68.3594
L24.2188 68.3594
L24.2188 45.7031
L33.5938 45.7031
L33.5938 38.6719
L24.2188 38.6719
L24.2188 14.8438
Q29.2969 16.7969 33.5938 19.1406
L34.7656 11.7188
Q22.2656 5.46875 6.64062 1.17188
L5.07812 8.98438
Q11.3281 10.5469 16.7969 12.5
L16.7969 38.6719
L7.03125 38.6719
L7.03125 45.7031
L16.7969 45.7031
L16.7969 68.3594
L5.85938 68.3594
z

M40.625 76.5625
L89.8438 76.5625
L89.8438 31.6406
L69.1406 31.6406
L69.1406 20.3125
L89.8438 20.3125
L89.8438 12.8906
L69.1406 12.8906
L69.1406 1.5625
L94.9219 1.5625
L94.9219 -5.85938
L35.1562 -5.85938
L35.1562 1.5625
L61.3281 1.5625
L61.3281 12.8906
L40.625 12.8906
L40.625 20.3125
L61.3281 20.3125
L61.3281 31.6406
L40.625 31.6406
z

M48.0469 57.4219
L61.3281 57.4219
L61.3281 69.1406
L48.0469 69.1406
z

M69.1406 69.1406
L69.1406 57.4219
L82.4219 57.4219
L82.4219 69.1406
z

M48.0469 39.0625
L61.3281 39.0625
L61.3281 50.3906
L48.0469 50.3906
z

M69.1406 50.3906
L69.1406 39.0625
L82.4219 39.0625
L82.4219 50.3906
z
" id="WenQuanYiMicroHei-7406"/>
     </defs>
     <g transform="translate(169.065829545 43.7861409375)scale(0.09996 -0.09996)">
      <use xlink:href="#WenQuanYiMicroHei-7406"/>
      <use x="100.0" xlink:href="#WenQuanYiMicroHei-8bba"/>
      <use x="200.0" xlink:href="#WenQuanYiMicroHei-503c"/>
     </g>
    </g>
   </g>
  </g>
  <g id="axes_2">
   <g id="patch_8">
    <path d="
M242.505 127.399
L420.051 127.399
L420.051 12.1988
L242.505 12.1988
z
" style="fill:#ffffff;"/>
   </g>
   <g id="line2d_31">
    <path clip-path="url(#p22729b86ec)" d="
M262.914 127.389
L264.146 127.389
L265.378 127.389
L266.61 127.389
L267.842 127.389
L269.074 127.389
L270.306 127.38
L271.538 127.37
L272.77 127.36
L274.002 127.351
L275.234 127.322
L276.466 127.312
L277.698 127.293
L278.93 127.236
L280.162 127.149
L281.394 127.063
L282.626 126.919
L283.858 126.784
L285.09 126.621
L286.322 126.468
L287.554 126.304
L288.786 126.122
L290.018 125.824
L291.25 125.431
L292.482 124.96
L293.714 124.346
L294.946 123.674
L296.178 123.012
L297.41 122.196
L298.642 121.188
L299.874 120.093
L301.106 118.922
L302.338 117.434
L303.57 115.84
L304.802 114.141
L306.034 112.269
L307.266 110.311
L308.497 108.074
L309.729 105.818
L310.961 102.861
L312.193 100.164
L313.425 97.418
L314.657 94.4036
L315.889 90.8996
L317.121 87.8276
L318.353 84.2372
L319.585 80.8292
L320.817 77.2004
L322.049 73.9172
L323.281 70.6916
L324.513 67.2932
L325.745 64.058
L326.977 60.9764
L328.209 57.866
L329.441 55.226
L330.673 52.874
L331.905 50.57
L333.137 48.1988
L334.369 45.9716
L335.601 43.9844
L336.833 42.2468
L338.065 40.8164
L339.297 39.3572
L340.529 38.1764
L341.761 37.1492
L342.993 36.2948
L344.225 35.4596
L345.457 34.8836
L346.689 34.1636
L347.921 33.6548
L349.153 33.2804
L350.385 32.7716
L351.617 32.3876
L352.849 32.1764
L354.08 32.0612
L355.312 31.9268
L356.544 31.7828
L357.776 31.6964
L359.008 31.6388
L360.24 31.5908
L361.472 31.5236
L362.704 31.4948
L363.936 31.466
L365.168 31.4564
L366.4 31.4564
L367.632 31.4468
L368.864 31.4372
L370.096 31.4372
L371.328 31.418
L372.56 31.418
L373.792 31.4084
L375.024 31.4084
L376.256 31.4084
L377.488 31.4084
L378.72 31.4084
L379.952 31.4084
L381.184 31.4084
L382.416 31.4084
L383.648 31.4084
L384.88 31.3988" style="fill:none;stroke:#348abd;stroke-linecap:square;stroke-width:2.0;"/>
   </g>
   <g id="line2d_32">
    <path clip-path="url(#p22729b86ec)" d="
M262.914 127.396
L264.146 127.395
L265.378 127.394
L266.61 127.392
L267.842 127.389
L269.074 127.385
L270.306 127.38
L271.538 127.372
L272.77 127.363
L274.002 127.349
L275.234 127.332
L276.466 127.309
L277.698 127.278
L278.93 127.239
L280.162 127.188
L281.394 127.123
L282.626 127.04
L283.858 126.936
L285.09 126.806
L286.322 126.644
L287.554 126.444
L288.786 126.199
L290.018 125.903
L291.25 125.545
L292.482 125.117
L293.714 124.608
L294.946 124.009
L296.178 123.308
L297.41 122.495
L298.642 121.558
L299.874 120.486
L301.106 119.269
L302.338 117.899
L303.57 116.367
L304.802 114.666
L306.034 112.794
L307.266 110.746
L308.497 108.525
L309.729 106.134
L310.961 103.578
L312.193 100.866
L313.425 98.0116
L314.657 95.0288
L315.889 91.9354
L317.121 88.7513
L318.353 85.4984
L319.585 82.2
L320.817 78.8806
L322.049 75.5652
L323.281 72.2784
L324.513 69.0445
L325.745 65.8864
L326.977 62.8255
L328.209 59.8809
L329.441 57.0695
L330.673 54.4054
L331.905 51.8998
L333.137 49.5608
L334.369 47.3938
L335.601 45.4011
L336.833 43.5825
L338.065 41.9351
L339.297 40.4541
L340.529 39.1326
L341.761 37.9622
L342.993 36.9335
L344.225 36.036
L345.457 35.2589
L346.689 34.5911
L347.921 34.0215
L349.153 33.5393
L350.385 33.1341
L351.617 32.7963
L352.849 32.5166
L354.08 32.2869
L355.312 32.0996
L356.544 31.948
L357.776 31.8263
L359.008 31.7293
L360.24 31.6525
L361.472 31.5922
L362.704 31.5452
L363.936 31.5089
L365.168 31.481
L366.4 31.4597
L367.632 31.4436
L368.864 31.4316
L370.096 31.4226
L371.328 31.4159
L372.56 31.4111
L373.792 31.4075
L375.024 31.4049
L376.256 31.4031
L377.488 31.4018
L378.72 31.4009
L379.952 31.4002
L381.184 31.3997
L382.416 31.3994
L383.648 31.3992
L384.88 31.3991" style="fill:none;opacity:0.6;stroke:#a60628;stroke-linecap:square;stroke-width:2.0;"/>
   </g>
   <g id="patch_9">
    <path d="
M242.505 12.1988
L420.051 12.1988" style="fill:none;stroke:#000000;stroke-linecap:square;stroke-linejoin:miter;"/>
   </g>
   <g id="patch_10">
    <path d="
M420.051 127.399
L420.051 12.1988" style="fill:none;stroke:#000000;stroke-linecap:square;stroke-linejoin:miter;"/>
   </g>
   <g id="patch_11">
    <path d="
M242.505 127.399
L420.051 127.399" style="fill:none;stroke:#000000;stroke-linecap:square;stroke-linejoin:miter;"/>
   </g>
   <g id="patch_12">
    <path d="
M242.505 127.399
L242.505 12.1988" style="fill:none;stroke:#000000;stroke-linecap:square;stroke-linejoin:miter;"/>
   </g>
   <g id="matplotlib.axis_3">
    <g id="xtick_7">
     <g id="line2d_33">
      <g>
       <use style="stroke:#000000;stroke-width:0.5;" x="242.50505483" xlink:href="#m93b0483c22" y="127.398780938"/>
      </g>
     </g>
     <g id="line2d_34">
      <g>
       <use style="stroke:#000000;stroke-width:0.5;" x="242.50505483" xlink:href="#m741efc42ff" y="12.1987809375"/>
      </g>
     </g>
     <g id="text_15">
      <!-- −10 -->
      <g transform="translate(234.73004108 138.994179063)scale(0.09996 -0.09996)">
       <use xlink:href="#WenQuanYiMicroHei-2212"/>
       <use x="55.078125" xlink:href="#WenQuanYiMicroHei-31"/>
       <use x="110.15625" xlink:href="#WenQuanYiMicroHei-30"/>
      </g>
     </g>
    </g>
    <g id="xtick_8">
     <g id="line2d_35">
      <g>
       <use style="stroke:#000000;stroke-width:0.5;" x="278.014145739" xlink:href="#m93b0483c22" y="127.398780938"/>
      </g>
     </g>
     <g id="line2d_36">
      <g>
       <use style="stroke:#000000;stroke-width:0.5;" x="278.014145739" xlink:href="#m741efc42ff" y="12.1987809375"/>
      </g>
     </g>
     <g id="text_16">
      <!-- −5 -->
      <g transform="translate(273.035669176 138.994179063)scale(0.09996 -0.09996)">
       <use xlink:href="#WenQuanYiMicroHei-2212"/>
       <use x="55.078125" xlink:href="#WenQuanYiMicroHei-35"/>
      </g>
     </g>
    </g>
    <g id="xtick_9">
     <g id="line2d_37">
      <g>
       <use style="stroke:#000000;stroke-width:0.5;" x="313.523236648" xlink:href="#m93b0483c22" y="127.398780938"/>
      </g>
     </g>
     <g id="line2d_38">
      <g>
       <use style="stroke:#000000;stroke-width:0.5;" x="313.523236648" xlink:href="#m741efc42ff" y="12.1987809375"/>
      </g>
     </g>
     <g id="text_17">
      <!-- 0 -->
      <g transform="translate(311.243680085 138.994179063)scale(0.09996 -0.09996)">
       <use xlink:href="#WenQuanYiMicroHei-30"/>
      </g>
     </g>
    </g>
    <g id="xtick_10">
     <g id="line2d_39">
      <g>
       <use style="stroke:#000000;stroke-width:0.5;" x="349.032327557" xlink:href="#m93b0483c22" y="127.398780938"/>
      </g>
     </g>
     <g id="line2d_40">
      <g>
       <use style="stroke:#000000;stroke-width:0.5;" x="349.032327557" xlink:href="#m741efc42ff" y="12.1987809375"/>
      </g>
     </g>
     <g id="text_18">
      <!-- 5 -->
      <g transform="translate(346.876940057 138.994179063)scale(0.09996 -0.09996)">
       <use xlink:href="#WenQuanYiMicroHei-35"/>
      </g>
     </g>
    </g>
    <g id="xtick_11">
     <g id="line2d_41">
      <g>
       <use style="stroke:#000000;stroke-width:0.5;" x="384.541418466" xlink:href="#m93b0483c22" y="127.398780938"/>
      </g>
     </g>
     <g id="line2d_42">
      <g>
       <use style="stroke:#000000;stroke-width:0.5;" x="384.541418466" xlink:href="#m741efc42ff" y="12.1987809375"/>
      </g>
     </g>
     <g id="text_19">
      <!-- 10 -->
      <g transform="translate(379.704291591 138.994179063)scale(0.09996 -0.09996)">
       <use xlink:href="#WenQuanYiMicroHei-31"/>
       <use x="55.078125" xlink:href="#WenQuanYiMicroHei-30"/>
      </g>
     </g>
    </g>
    <g id="xtick_12">
     <g id="line2d_43">
      <g>
       <use style="stroke:#000000;stroke-width:0.5;" x="420.050509375" xlink:href="#m93b0483c22" y="127.398780938"/>
      </g>
     </g>
     <g id="line2d_44">
      <g>
       <use style="stroke:#000000;stroke-width:0.5;" x="420.050509375" xlink:href="#m741efc42ff" y="12.1987809375"/>
      </g>
     </g>
     <g id="text_20">
      <!-- 15 -->
      <g transform="translate(415.257115 138.994179063)scale(0.09996 -0.09996)">
       <use xlink:href="#WenQuanYiMicroHei-31"/>
       <use x="55.078125" xlink:href="#WenQuanYiMicroHei-35"/>
      </g>
     </g>
    </g>
   </g>
   <g id="matplotlib.axis_4">
    <g id="ytick_7">
     <g id="line2d_45">
      <g>
       <use style="stroke:#000000;stroke-width:0.5;" x="242.50505483" xlink:href="#m728421d6d4" y="127.398780938"/>
      </g>
     </g>
     <g id="line2d_46">
      <g>
       <use style="stroke:#000000;stroke-width:0.5;" x="420.050509375" xlink:href="#mcb0005524f" y="127.398780938"/>
      </g>
     </g>
     <g id="text_21">
      <!-- 0.0 -->
      <g transform="translate(225.76015483 129.995398125)scale(0.09996 -0.09996)">
       <use xlink:href="#WenQuanYiMicroHei-30"/>
       <use x="55.078125" xlink:href="#WenQuanYiMicroHei-2e"/>
       <use x="81.884765625" xlink:href="#WenQuanYiMicroHei-30"/>
      </g>
     </g>
    </g>
    <g id="ytick_8">
     <g id="line2d_47">
      <g>
       <use style="stroke:#000000;stroke-width:0.5;" x="242.50505483" xlink:href="#m728421d6d4" y="108.198780938"/>
      </g>
     </g>
     <g id="line2d_48">
      <g>
       <use style="stroke:#000000;stroke-width:0.5;" x="420.050509375" xlink:href="#mcb0005524f" y="108.198780938"/>
      </g>
     </g>
     <g id="text_22">
      <!-- 0.2 -->
      <g transform="translate(225.877295455 110.795398125)scale(0.09996 -0.09996)">
       <use xlink:href="#WenQuanYiMicroHei-30"/>
       <use x="55.078125" xlink:href="#WenQuanYiMicroHei-2e"/>
       <use x="81.884765625" xlink:href="#WenQuanYiMicroHei-32"/>
      </g>
     </g>
    </g>
    <g id="ytick_9">
     <g id="line2d_49">
      <g>
       <use style="stroke:#000000;stroke-width:0.5;" x="242.50505483" xlink:href="#m728421d6d4" y="88.9987809375"/>
      </g>
     </g>
     <g id="line2d_50">
      <g>
       <use style="stroke:#000000;stroke-width:0.5;" x="420.050509375" xlink:href="#mcb0005524f" y="88.9987809375"/>
      </g>
     </g>
     <g id="text_23">
      <!-- 0.4 -->
      <defs>
       <path d="
M53.0781 16.0156
L42.6719 16.0156
L42.6719 0
L34.0781 0
L34.0781 16.0156
L1.125 16.0156
L1.125 23.7812
L33.5 71.7812
L42.6719 71.7812
L42.6719 24.125
L53.0781 24.125
z

M34.0781 24.125
L34.0781 41.5
Q34.0781 44.2344 34.1562 47.2344
Q34.2344 50.25 34.3281 53.0938
Q34.4219 55.9531 34.5469 58.4375
Q34.6719 60.9375 34.7188 62.5938
L34.2812 62.5938
Q33.9375 61.625 33.4219 60.4219
Q32.9062 59.2344 32.2969 58.0312
Q31.6875 56.8438 31.0469 55.7188
Q30.4219 54.5938 29.8906 53.8125
L9.8125 24.125
z
" id="WenQuanYiMicroHei-34"/>
      </defs>
      <g transform="translate(225.49151233 91.595398125)scale(0.09996 -0.09996)">
       <use xlink:href="#WenQuanYiMicroHei-30"/>
       <use x="55.078125" xlink:href="#WenQuanYiMicroHei-2e"/>
       <use x="81.884765625" xlink:href="#WenQuanYiMicroHei-34"/>
      </g>
     </g>
    </g>
    <g id="ytick_10">
     <g id="line2d_51">
      <g>
       <use style="stroke:#000000;stroke-width:0.5;" x="242.50505483" xlink:href="#m728421d6d4" y="69.7987809375"/>
      </g>
     </g>
     <g id="line2d_52">
      <g>
       <use style="stroke:#000000;stroke-width:0.5;" x="420.050509375" xlink:href="#mcb0005524f" y="69.7987809375"/>
      </g>
     </g>
     <g id="text_24">
      <!-- 0.6 -->
      <defs>
       <path d="
M5.51562 30.5156
Q5.51562 35.6406 6.03125 40.7188
Q6.54688 45.7969 7.82812 50.4531
Q9.125 55.125 11.375 59.125
Q13.625 63.1406 17.0938 66.0938
Q20.5625 69.0469 25.3906 70.7188
Q30.2188 72.4062 36.7188 72.4062
Q37.6406 72.4062 38.7656 72.3594
Q39.8906 72.3125 41.0312 72.1875
Q42.1875 72.0781 43.2344 71.9062
Q44.2812 71.7344 45.125 71.4844
L45.125 63.9219
Q43.4062 64.5 41.25 64.7969
Q39.1094 65.0938 37.0156 65.0938
Q32.625 65.0938 29.2656 64.0312
Q25.9219 62.9844 23.4844 61.0781
Q21.0469 59.1875 19.4062 56.5469
Q17.7812 53.9062 16.75 50.7031
Q15.7188 47.5156 15.2344 43.8906
Q14.75 40.2812 14.5938 36.375
L15.1875 36.375
Q16.1562 38.1406 17.5469 39.6719
Q18.9531 41.2188 20.7969 42.3125
Q22.6562 43.4062 24.9688 44.0312
Q27.2969 44.6719 30.1719 44.6719
Q34.8125 44.6719 38.5625 43.2344
Q42.3281 41.7969 44.9688 39.0156
Q47.6094 36.2344 49.0469 32.2031
Q50.4844 28.1719 50.4844 23
Q50.4844 17.4375 48.9688 12.9844
Q47.4688 8.54688 44.625 5.4375
Q41.7969 2.34375 37.7969 0.671875
Q33.7969 -0.984375 28.8125 -0.984375
Q23.9219 -0.984375 19.6406 0.921875
Q15.375 2.82812 12.25 6.73438
Q9.125 10.6406 7.3125 16.5469
Q5.51562 22.4688 5.51562 30.5156
M28.7188 6.5
Q31.6406 6.5 34.0469 7.5
Q36.4688 8.5 38.2188 10.5156
Q39.9844 12.5469 40.9375 15.6406
Q41.8906 18.75 41.8906 23
Q41.8906 26.4219 41.0781 29.125
Q40.2812 31.8438 38.6719 33.7344
Q37.0625 35.6406 34.6406 36.6719
Q32.2344 37.7031 29 37.7031
Q25.7344 37.7031 23.0156 36.5469
Q20.3125 35.4062 18.4062 33.5625
Q16.5 31.7344 15.4531 29.3906
Q14.4062 27.0469 14.4062 24.7031
Q14.4062 21.4375 15.3125 18.1875
Q16.2188 14.9375 18 12.3438
Q19.7812 9.76562 22.4531 8.125
Q25.1406 6.5 28.7188 6.5" id="WenQuanYiMicroHei-36"/>
      </defs>
      <g transform="translate(225.75078358 72.395398125)scale(0.09996 -0.09996)">
       <use xlink:href="#WenQuanYiMicroHei-30"/>
       <use x="55.078125" xlink:href="#WenQuanYiMicroHei-2e"/>
       <use x="81.884765625" xlink:href="#WenQuanYiMicroHei-36"/>
      </g>
     </g>
    </g>
    <g id="ytick_11">
     <g id="line2d_53">
      <g>
       <use style="stroke:#000000;stroke-width:0.5;" x="242.50505483" xlink:href="#m728421d6d4" y="50.5987809375"/>
      </g>
     </g>
     <g id="line2d_54">
      <g>
       <use style="stroke:#000000;stroke-width:0.5;" x="420.050509375" xlink:href="#mcb0005524f" y="50.5987809375"/>
      </g>
     </g>
     <g id="text_25">
      <!-- 0.8 -->
      <defs>
       <path d="
M27.5938 72.5156
Q31.6875 72.5156 35.3281 71.4375
Q38.9688 70.3594 41.7188 68.2031
Q44.4844 66.0625 46.0938 62.8438
Q47.7031 59.625 47.7031 55.3281
Q47.7031 52.0469 46.7188 49.4062
Q45.75 46.7812 44.0312 44.6562
Q42.3281 42.5312 39.9844 40.8438
Q37.6406 39.1562 34.9062 37.7969
Q37.75 36.2812 40.4531 34.4219
Q43.1719 32.5625 45.2812 30.25
Q47.4062 27.9375 48.7031 25.0469
Q50 22.1719 50 18.6094
Q50 14.1094 48.3594 10.4688
Q46.7344 6.84375 43.7812 4.29688
Q40.8281 1.76562 36.6875 0.390625
Q32.5625 -0.984375 27.5938 -0.984375
Q22.2188 -0.984375 18.0469 0.328125
Q13.875 1.65625 11.0156 4.125
Q8.15625 6.59375 6.65625 10.1562
Q5.17188 13.7188 5.17188 18.2188
Q5.17188 21.875 6.26562 24.7969
Q7.375 27.7344 9.21875 30.0781
Q11.0781 32.4219 13.6094 34.2188
Q16.1562 36.0312 19 37.4062
Q16.6094 38.9219 14.5 40.7031
Q12.4062 42.4844 10.8594 44.6719
Q9.32812 46.875 8.42188 49.5312
Q7.51562 52.2031 7.51562 55.4219
Q7.51562 59.6719 9.15625 62.8594
Q10.7969 66.0625 13.5781 68.2031
Q16.3594 70.3594 20 71.4375
Q23.6406 72.5156 27.5938 72.5156
M13.9219 18.1094
Q13.9219 15.5312 14.7031 13.3594
Q15.4844 11.1875 17.1406 9.64062
Q18.7969 8.10938 21.3281 7.25
Q23.875 6.39062 27.3906 6.39062
Q30.8125 6.39062 33.4219 7.25
Q36.0312 8.10938 37.7812 9.6875
Q39.5469 11.2812 40.4219 13.5156
Q41.3125 15.7656 41.3125 18.5
Q41.3125 21.0469 40.3594 23.0938
Q39.4062 25.1406 37.625 26.8906
Q35.8438 28.6562 33.3438 30.2188
Q30.8594 31.7812 27.7812 33.2969
L26.3125 33.9844
Q20.1719 31.0625 17.0469 27.2656
Q13.9219 23.4844 13.9219 18.1094
M27.4844 65.0938
Q22.3125 65.0938 19.2656 62.5
Q16.2188 59.9062 16.2188 54.9844
Q16.2188 52.2031 17.0625 50.1875
Q17.9219 48.1875 19.4375 46.625
Q20.9531 45.0625 23.0781 43.8125
Q25.2031 42.5781 27.6875 41.4062
Q30.0312 42.4844 32.1094 43.75
Q34.1875 45.0156 35.7188 46.625
Q37.25 48.25 38.125 50.2969
Q39.0156 52.3438 39.0156 54.9844
Q39.0156 59.9062 35.9375 62.5
Q32.8594 65.0938 27.4844 65.0938" id="WenQuanYiMicroHei-38"/>
      </defs>
      <g transform="translate(225.799201705 53.195398125)scale(0.09996 -0.09996)">
       <use xlink:href="#WenQuanYiMicroHei-30"/>
       <use x="55.078125" xlink:href="#WenQuanYiMicroHei-2e"/>
       <use x="81.884765625" xlink:href="#WenQuanYiMicroHei-38"/>
      </g>
     </g>
    </g>
    <g id="ytick_12">
     <g id="line2d_55">
      <g>
       <use style="stroke:#000000;stroke-width:0.5;" x="242.50505483" xlink:href="#m728421d6d4" y="31.3987809375"/>
      </g>
     </g>
     <g id="line2d_56">
      <g>
       <use style="stroke:#000000;stroke-width:0.5;" x="420.050509375" xlink:href="#mcb0005524f" y="31.3987809375"/>
      </g>
     </g>
     <g id="text_26">
      <!-- 1.0 -->
      <g transform="translate(226.15062358 33.995398125)scale(0.09996 -0.09996)">
       <use xlink:href="#WenQuanYiMicroHei-31"/>
       <use x="55.078125" xlink:href="#WenQuanYiMicroHei-2e"/>
       <use x="81.884765625" xlink:href="#WenQuanYiMicroHei-30"/>
      </g>
     </g>
    </g>
    <g id="ytick_13">
     <g id="line2d_57">
      <g>
       <use style="stroke:#000000;stroke-width:0.5;" x="242.50505483" xlink:href="#m728421d6d4" y="12.1987809375"/>
      </g>
     </g>
     <g id="line2d_58">
      <g>
       <use style="stroke:#000000;stroke-width:0.5;" x="420.050509375" xlink:href="#mcb0005524f" y="12.1987809375"/>
      </g>
     </g>
     <g id="text_27">
      <!-- 1.2 -->
      <g transform="translate(226.267764205 14.795398125)scale(0.09996 -0.09996)">
       <use xlink:href="#WenQuanYiMicroHei-31"/>
       <use x="55.078125" xlink:href="#WenQuanYiMicroHei-2e"/>
       <use x="81.884765625" xlink:href="#WenQuanYiMicroHei-32"/>
      </g>
     </g>
    </g>
   </g>
  </g>
 </g>
 <defs>
  <clipPath id="pd9c1188437">
   <rect height="115.2" width="177.545454545" x="29.450509375" y="12.1987809375"/>
  </clipPath>
  <clipPath id="p22729b86ec">
   <rect height="115.2" width="177.545454545" x="242.50505483" y="12.1987809375"/>
  </clipPath>
 </defs>
</svg>
