<?xml version="1.0" encoding="utf-8" standalone="no"?>
<!DOCTYPE svg PUBLIC "-//W3C//DTD SVG 1.1//EN"
  "http://www.w3.org/Graphics/SVG/1.1/DTD/svg11.dtd">
<!-- Created with matplotlib (http://matplotlib.org/) -->
<svg height="206pt" version="1.1" viewBox="0 0 376 206" width="376pt" xmlns="http://www.w3.org/2000/svg" xmlns:xlink="http://www.w3.org/1999/xlink">
 <defs>
  <style type="text/css">
*{stroke-linecap:butt;stroke-linejoin:round;}
  </style>
 </defs>
 <g id="figure_1">
  <g id="patch_1">
   <path d="
M0 206.196
L376.488 206.196
L376.488 0
L0 0
z
" style="fill:#ffffff;"/>
  </g>
  <g id="axes_1">
   <g id="patch_2">
    <path d="
M29.4505 184.999
L364.251 184.999
L364.251 12.1988
L29.4505 12.1988
z
" style="fill:#ffffff;"/>
   </g>
   <g id="line2d_1">
    <path clip-path="url(#p8ee29bdc33)" d="
M31.1245 165.29
L34.4725 128.999
L37.8205 101.712
L41.1685 76.5428
L44.5165 61.8909
L47.8645 50.25
L51.2125 39.6032
L54.5605 31.5065
L57.9085 28.9564
L61.2565 24.836
L64.6045 25.8013
L67.9525 26.3488
L71.3005 31.5353
L74.6485 33.3938
L77.9965 38.4651
L81.3445 41.6346
L84.6925 47.5271
L88.0405 54.356
L91.3885 61.9053
L94.7365 62.2078
L98.0845 70.3766
L101.433 75.6208
L104.781 82.7522
L108.129 87.8523
L111.477 94.0185
L114.825 99.7525
L118.173 103.858
L121.521 108.771
L124.869 112.748
L128.217 118.554
L131.565 122.026
L134.913 124.533
L138.261 130.454
L141.609 133.551
L144.957 138.464
L148.305 142.685
L151.653 143.593
L155.001 147.541
L158.349 150.307
L161.697 152.28
L165.045 153.102
L168.393 156.963
L171.741 159.066
L175.089 160.896
L178.437 163.431
L181.785 164.901
L185.133 166.27
L188.481 166.5
L191.829 168.618
L195.177 169.194
L198.525 171.082
L201.873 172.191
L205.221 173.747
L208.569 173.92
L211.917 174.871
L215.265 176.038
L218.613 176.124
L221.961 177.133
L225.309 177.997
L228.657 178.112
L232.005 178.631
L235.353 179.265
L238.701 180.057
L242.049 180.23
L245.397 180.475
L248.745 181.094
L252.093 181.325
L255.441 181.267
L258.789 181.93
L262.137 182.146
L265.485 182.204
L268.833 182.708
L272.181 182.78
L275.529 182.823
L278.877 183.4
L282.225 183.529
L285.573 183.688
L288.921 183.183
L292.269 183.803
L295.617 183.774
L298.965 183.904
L302.313 184.048
L305.661 183.846
L309.009 184.134
L312.357 184.264
L315.705 184.48
L319.053 184.221
L322.401 184.509
L325.749 184.509
L329.097 184.495
L332.445 184.437
L335.793 184.495
L339.141 184.696
L342.489 184.567
L345.837 184.639
L349.185 184.725
L352.533 184.653
L355.881 184.682
L359.229 184.797
L362.577 184.811" style="fill:none;stroke:#348abd;stroke-linecap:square;stroke-width:2;"/>
   </g>
   <g id="line2d_2">
    <path clip-path="url(#p8ee29bdc33)" d="
M31.1245 164.452
L34.4725 129.225
L37.8205 100.888
L41.1685 78.4499
L44.5165 61.0439
L47.8645 47.9155
L51.2125 38.4083
L54.5605 31.952
L57.9085 28.052
L61.2565 26.2803
L64.6045 26.267
L67.9525 27.6936
L71.3005 30.2862
L74.6485 33.8099
L77.9965 38.064
L81.3445 42.8775
L84.6925 48.1056
L88.0405 53.6257
L91.3885 59.3348
L94.7365 65.1471
L98.0845 70.9912
L101.433 76.8083
L104.781 82.5507
L108.129 88.18
L111.477 93.6656
L114.825 98.984
L118.173 104.117
L121.521 109.052
L124.869 113.781
L128.217 118.297
L131.565 122.599
L134.913 126.686
L138.261 130.56
L141.609 134.225
L144.957 137.685
L148.305 140.947
L151.653 144.016
L155.001 146.9
L158.349 149.606
L161.697 152.143
L165.045 154.517
L168.393 156.736
L171.741 158.81
L175.089 160.744
L178.437 162.548
L181.785 164.228
L185.133 165.791
L188.481 167.246
L191.829 168.597
L195.177 169.852
L198.525 171.016
L201.873 172.096
L205.221 173.097
L208.569 174.025
L211.917 174.884
L215.265 175.678
L218.613 176.413
L221.961 177.093
L225.309 177.721
L228.657 178.301
L232.005 178.836
L235.353 179.331
L238.701 179.787
L242.049 180.207
L245.397 180.595
L248.745 180.952
L252.093 181.281
L255.441 181.584
L258.789 181.864
L262.137 182.121
L265.485 182.357
L268.833 182.574
L272.181 182.775
L275.529 182.958
L278.877 183.127
L282.225 183.283
L285.573 183.426
L288.921 183.557
L292.269 183.677
L295.617 183.788
L298.965 183.889
L302.313 183.982
L305.661 184.068
L309.009 184.146
L312.357 184.218
L315.705 184.284
L319.053 184.344
L322.401 184.4
L325.749 184.451
L329.097 184.497
L332.445 184.54
L335.793 184.579
L339.141 184.615
L342.489 184.648
L345.837 184.678
L349.185 184.705
L352.533 184.73
L355.881 184.753
L359.229 184.774
L362.577 184.794" style="fill:none;opacity:0.6;stroke:#a60628;stroke-linecap:square;stroke-width:2;"/>
   </g>
   <g id="patch_3">
    <path d="
M29.4505 12.1988
L364.251 12.1988" style="fill:none;stroke:#000000;stroke-linecap:square;stroke-linejoin:miter;"/>
   </g>
   <g id="patch_4">
    <path d="
M364.251 184.999
L364.251 12.1988" style="fill:none;stroke:#000000;stroke-linecap:square;stroke-linejoin:miter;"/>
   </g>
   <g id="patch_5">
    <path d="
M29.4505 184.999
L364.251 184.999" style="fill:none;stroke:#000000;stroke-linecap:square;stroke-linejoin:miter;"/>
   </g>
   <g id="patch_6">
    <path d="
M29.4505 184.999
L29.4505 12.1988" style="fill:none;stroke:#000000;stroke-linecap:square;stroke-linejoin:miter;"/>
   </g>
   <g id="matplotlib.axis_1">
    <g id="xtick_1">
     <g id="line2d_3">
      <defs>
       <path d="
M0 0
L0 -4" id="m93b0483c22" style="stroke:#000000;stroke-width:0.5;"/>
      </defs>
      <g>
       <use style="stroke:#000000;stroke-width:0.5;" x="29.450509375" xlink:href="#m93b0483c22" y="184.998780938"/>
      </g>
     </g>
     <g id="line2d_4">
      <defs>
       <path d="
M0 0
L0 4" id="m741efc42ff" style="stroke:#000000;stroke-width:0.5;"/>
      </defs>
      <g>
       <use style="stroke:#000000;stroke-width:0.5;" x="29.450509375" xlink:href="#m741efc42ff" y="12.1987809375"/>
      </g>
     </g>
     <g id="text_1">
      <!-- 0 -->
      <defs>
       <path d="
M50.3906 35.7969
Q50.3906 27.1562 49.1406 20.3125
Q47.9062 13.4844 45.1406 8.73438
Q42.3906 4 38.0312 1.5
Q33.6875 -0.984375 27.4844 -0.984375
Q21.7344 -0.984375 17.4531 1.5
Q13.1875 4 10.375 8.73438
Q7.5625 13.4844 6.17188 20.3125
Q4.78125 27.1562 4.78125 35.7969
Q4.78125 44.4375 6.03125 51.2656
Q7.28125 58.1094 9.98438 62.8125
Q12.7031 67.5312 17.0156 70.0156
Q21.3438 72.5156 27.4844 72.5156
Q33.2969 72.5156 37.5938 70.0469
Q41.8906 67.5781 44.7188 62.8594
Q47.5625 58.1562 48.9688 51.3125
Q50.3906 44.4844 50.3906 35.7969
M13.8125 35.7969
Q13.8125 28.4688 14.5469 23
Q15.2812 17.5312 16.8906 13.8906
Q18.5 10.25 21.1094 8.42188
Q23.7344 6.59375 27.4844 6.59375
Q31.25 6.59375 33.8906 8.39062
Q36.5312 10.2031 38.2031 13.8125
Q39.8906 17.4375 40.6406 22.9219
Q41.4062 28.4219 41.4062 35.7969
Q41.4062 43.1094 40.6406 48.5781
Q39.8906 54.0469 38.2031 57.6562
Q36.5312 61.2812 33.8906 63.0781
Q31.25 64.8906 27.4844 64.8906
Q23.7344 64.8906 21.1094 63.0781
Q18.5 61.2812 16.8906 57.6562
Q15.2812 54.0469 14.5469 48.5781
Q13.8125 43.1094 13.8125 35.7969" id="WenQuanYiMicroHei-30"/>
      </defs>
      <g transform="translate(27.1709528125 196.594179063)scale(0.09996 -0.09996)">
       <use xlink:href="#WenQuanYiMicroHei-30"/>
      </g>
     </g>
    </g>
    <g id="xtick_2">
     <g id="line2d_5">
      <g>
       <use style="stroke:#000000;stroke-width:0.5;" x="113.150509375" xlink:href="#m93b0483c22" y="184.998780938"/>
      </g>
     </g>
     <g id="line2d_6">
      <g>
       <use style="stroke:#000000;stroke-width:0.5;" x="113.150509375" xlink:href="#m741efc42ff" y="12.1987809375"/>
      </g>
     </g>
     <g id="text_2">
      <!-- 5 -->
      <defs>
       <path d="
M26.6094 43.7969
Q31.4531 43.7969 35.625 42.4531
Q39.7969 41.1094 42.8906 38.4688
Q46 35.8438 47.75 31.9375
Q49.5156 28.0312 49.5156 22.9062
Q49.5156 17.3281 47.8438 12.8906
Q46.1875 8.45312 42.9219 5.375
Q39.6562 2.29688 34.8438 0.65625
Q30.0312 -0.984375 23.7812 -0.984375
Q21.2969 -0.984375 18.875 -0.734375
Q16.4531 -0.484375 14.2344 -0.015625
Q12.0156 0.4375 10.0156 1.17188
Q8.01562 1.90625 6.39062 2.875
L6.39062 11.2812
Q8.01562 10.1562 10.1875 9.28125
Q12.3594 8.40625 14.75 7.8125
Q17.1406 7.23438 19.5469 6.90625
Q21.9688 6.59375 24.0312 6.59375
Q27.875 6.59375 30.9062 7.5
Q33.9375 8.40625 36.0312 10.2969
Q38.1406 12.2031 39.25 15.0781
Q40.375 17.9688 40.375 21.9219
Q40.375 28.9062 36.0781 32.5938
Q31.7812 36.2812 23.5781 36.2812
Q22.2656 36.2812 20.7188 36.1562
Q19.1875 36.0312 17.6406 35.8281
Q16.1094 35.6406 14.7188 35.4219
Q13.3281 35.2031 12.3125 35.0156
L7.90625 37.7969
L10.5938 71.3906
L44.2812 71.3906
L44.2812 63.2812
L18.3125 63.2812
L16.4062 42.8281
Q17.9688 43.1094 20.5312 43.4531
Q23.0938 43.7969 26.6094 43.7969" id="WenQuanYiMicroHei-35"/>
      </defs>
      <g transform="translate(110.995121875 196.594179063)scale(0.09996 -0.09996)">
       <use xlink:href="#WenQuanYiMicroHei-35"/>
      </g>
     </g>
    </g>
    <g id="xtick_3">
     <g id="line2d_7">
      <g>
       <use style="stroke:#000000;stroke-width:0.5;" x="196.850509375" xlink:href="#m93b0483c22" y="184.998780938"/>
      </g>
     </g>
     <g id="line2d_8">
      <g>
       <use style="stroke:#000000;stroke-width:0.5;" x="196.850509375" xlink:href="#m741efc42ff" y="12.1987809375"/>
      </g>
     </g>
     <g id="text_3">
      <!-- 10 -->
      <defs>
       <path d="
M34.7188 0
L26.125 0
L26.125 44.5781
Q26.125 46.6875 26.1406 49.0781
Q26.1719 51.4688 26.2344 53.8281
Q26.3125 56.2031 26.3906 58.375
Q26.4688 60.5469 26.5156 62.2031
Q25.6875 61.3281 25.0469 60.6875
Q24.4219 60.0625 23.75 59.4688
Q23.0938 58.8906 22.3594 58.2188
Q21.625 57.5625 20.6094 56.6875
L13.375 50.7812
L8.6875 56.7812
L27.3906 71.3906
L34.7188 71.3906
z
" id="WenQuanYiMicroHei-31"/>
      </defs>
      <g transform="translate(192.0133825 196.594179063)scale(0.09996 -0.09996)">
       <use xlink:href="#WenQuanYiMicroHei-31"/>
       <use x="55.078125" xlink:href="#WenQuanYiMicroHei-30"/>
      </g>
     </g>
    </g>
    <g id="xtick_4">
     <g id="line2d_9">
      <g>
       <use style="stroke:#000000;stroke-width:0.5;" x="280.550509375" xlink:href="#m93b0483c22" y="184.998780938"/>
      </g>
     </g>
     <g id="line2d_10">
      <g>
       <use style="stroke:#000000;stroke-width:0.5;" x="280.550509375" xlink:href="#m741efc42ff" y="12.1987809375"/>
      </g>
     </g>
     <g id="text_4">
      <!-- 15 -->
      <g transform="translate(275.757115 196.594179063)scale(0.09996 -0.09996)">
       <use xlink:href="#WenQuanYiMicroHei-31"/>
       <use x="55.078125" xlink:href="#WenQuanYiMicroHei-35"/>
      </g>
     </g>
    </g>
    <g id="xtick_5">
     <g id="line2d_11">
      <g>
       <use style="stroke:#000000;stroke-width:0.5;" x="364.250509375" xlink:href="#m93b0483c22" y="184.998780938"/>
      </g>
     </g>
     <g id="line2d_12">
      <g>
       <use style="stroke:#000000;stroke-width:0.5;" x="364.250509375" xlink:href="#m741efc42ff" y="12.1987809375"/>
      </g>
     </g>
     <g id="text_5">
      <!-- 20 -->
      <defs>
       <path d="
M49.2188 0
L4.6875 0
L4.6875 7.625
L21.7812 26.2188
Q25.4375 30.1719 28.3125 33.4375
Q31.2031 36.7188 33.2188 39.8438
Q35.25 42.9688 36.3281 46.1094
Q37.4062 49.2656 37.4062 52.9844
Q37.4062 55.8594 36.5781 58.0469
Q35.75 60.25 34.2031 61.7812
Q32.6719 63.3281 30.5625 64.1094
Q28.4688 64.8906 25.875 64.8906
Q21.2344 64.8906 17.5 63.0156
Q13.7656 61.1406 10.4062 58.2031
L5.42188 64.0156
Q7.375 65.7656 9.60938 67.2969
Q11.8594 68.8438 14.4531 69.9688
Q17.0469 71.0938 19.9219 71.75
Q22.7969 72.4062 25.9844 72.4062
Q30.6719 72.4062 34.4531 71.0938
Q38.2344 69.7812 40.8594 67.3125
Q43.5 64.8438 44.9375 61.2969
Q46.3906 57.7656 46.3906 53.3281
Q46.3906 49.1719 45.0938 45.4062
Q43.7969 41.6562 41.5312 38.0156
Q39.2656 34.375 36.1094 30.7031
Q32.9531 27.0469 29.2969 23.0938
L15.5781 8.5
L15.5781 8.10938
L49.2188 8.10938
z
" id="WenQuanYiMicroHei-32"/>
      </defs>
      <g transform="translate(359.2134625 196.594179063)scale(0.09996 -0.09996)">
       <use xlink:href="#WenQuanYiMicroHei-32"/>
       <use x="55.078125" xlink:href="#WenQuanYiMicroHei-30"/>
      </g>
     </g>
    </g>
   </g>
   <g id="matplotlib.axis_2">
    <g id="ytick_1">
     <g id="line2d_13">
      <defs>
       <path d="
M0 0
L4 0" id="m728421d6d4" style="stroke:#000000;stroke-width:0.5;"/>
      </defs>
      <g>
       <use style="stroke:#000000;stroke-width:0.5;" x="29.450509375" xlink:href="#m728421d6d4" y="184.998780938"/>
      </g>
     </g>
     <g id="line2d_14">
      <defs>
       <path d="
M0 0
L-4 0" id="mcb0005524f" style="stroke:#000000;stroke-width:0.5;"/>
      </defs>
      <g>
       <use style="stroke:#000000;stroke-width:0.5;" x="364.250509375" xlink:href="#mcb0005524f" y="184.998780938"/>
      </g>
     </g>
     <g id="text_6">
      <!-- 0.00 -->
      <defs>
       <path d="
M7.17188 5.42188
Q7.17188 7.28125 7.65625 8.5625
Q8.15625 9.85938 8.98438 10.6562
Q9.8125 11.4688 10.9375 11.8281
Q12.0625 12.2031 13.375 12.2031
Q14.6562 12.2031 15.7969 11.8281
Q16.9375 11.4688 17.7656 10.6562
Q18.6094 9.85938 19.0938 8.5625
Q19.5781 7.28125 19.5781 5.42188
Q19.5781 3.60938 19.0938 2.3125
Q18.6094 1.03125 17.7656 0.1875
Q16.9375 -0.640625 15.7969 -1.03125
Q14.6562 -1.42188 13.375 -1.42188
Q12.0625 -1.42188 10.9375 -1.03125
Q9.8125 -0.640625 8.98438 0.1875
Q8.15625 1.03125 7.65625 2.3125
Q7.17188 3.60938 7.17188 5.42188" id="WenQuanYiMicroHei-2e"/>
      </defs>
      <g transform="translate(7.2 187.595398125)scale(0.09996 -0.09996)">
       <use xlink:href="#WenQuanYiMicroHei-30"/>
       <use x="55.078125" xlink:href="#WenQuanYiMicroHei-2e"/>
       <use x="81.884765625" xlink:href="#WenQuanYiMicroHei-30"/>
       <use x="136.962890625" xlink:href="#WenQuanYiMicroHei-30"/>
      </g>
     </g>
    </g>
    <g id="ytick_2">
     <g id="line2d_15">
      <g>
       <use style="stroke:#000000;stroke-width:0.5;" x="29.450509375" xlink:href="#m728421d6d4" y="141.798780938"/>
      </g>
     </g>
     <g id="line2d_16">
      <g>
       <use style="stroke:#000000;stroke-width:0.5;" x="364.250509375" xlink:href="#mcb0005524f" y="141.798780938"/>
      </g>
     </g>
     <g id="text_7">
      <!-- 0.05 -->
      <g transform="translate(7.287465 144.395398125)scale(0.09996 -0.09996)">
       <use xlink:href="#WenQuanYiMicroHei-30"/>
       <use x="55.078125" xlink:href="#WenQuanYiMicroHei-2e"/>
       <use x="81.884765625" xlink:href="#WenQuanYiMicroHei-30"/>
       <use x="136.962890625" xlink:href="#WenQuanYiMicroHei-35"/>
      </g>
     </g>
    </g>
    <g id="ytick_3">
     <g id="line2d_17">
      <g>
       <use style="stroke:#000000;stroke-width:0.5;" x="29.450509375" xlink:href="#m728421d6d4" y="98.5987809375"/>
      </g>
     </g>
     <g id="line2d_18">
      <g>
       <use style="stroke:#000000;stroke-width:0.5;" x="364.250509375" xlink:href="#mcb0005524f" y="98.5987809375"/>
      </g>
     </g>
     <g id="text_8">
      <!-- 0.10 -->
      <g transform="translate(7.2 101.195398125)scale(0.09996 -0.09996)">
       <use xlink:href="#WenQuanYiMicroHei-30"/>
       <use x="55.078125" xlink:href="#WenQuanYiMicroHei-2e"/>
       <use x="81.884765625" xlink:href="#WenQuanYiMicroHei-31"/>
       <use x="136.962890625" xlink:href="#WenQuanYiMicroHei-30"/>
      </g>
     </g>
    </g>
    <g id="ytick_4">
     <g id="line2d_19">
      <g>
       <use style="stroke:#000000;stroke-width:0.5;" x="29.450509375" xlink:href="#m728421d6d4" y="55.3987809375"/>
      </g>
     </g>
     <g id="line2d_20">
      <g>
       <use style="stroke:#000000;stroke-width:0.5;" x="364.250509375" xlink:href="#mcb0005524f" y="55.3987809375"/>
      </g>
     </g>
     <g id="text_9">
      <!-- 0.15 -->
      <g transform="translate(7.287465 57.995398125)scale(0.09996 -0.09996)">
       <use xlink:href="#WenQuanYiMicroHei-30"/>
       <use x="55.078125" xlink:href="#WenQuanYiMicroHei-2e"/>
       <use x="81.884765625" xlink:href="#WenQuanYiMicroHei-31"/>
       <use x="136.962890625" xlink:href="#WenQuanYiMicroHei-35"/>
      </g>
     </g>
    </g>
    <g id="ytick_5">
     <g id="line2d_21">
      <g>
       <use style="stroke:#000000;stroke-width:0.5;" x="29.450509375" xlink:href="#m728421d6d4" y="12.1987809375"/>
      </g>
     </g>
     <g id="line2d_22">
      <g>
       <use style="stroke:#000000;stroke-width:0.5;" x="364.250509375" xlink:href="#mcb0005524f" y="12.1987809375"/>
      </g>
     </g>
     <g id="text_10">
      <!-- 0.20 -->
      <g transform="translate(7.2 14.795398125)scale(0.09996 -0.09996)">
       <use xlink:href="#WenQuanYiMicroHei-30"/>
       <use x="55.078125" xlink:href="#WenQuanYiMicroHei-2e"/>
       <use x="81.884765625" xlink:href="#WenQuanYiMicroHei-32"/>
       <use x="136.962890625" xlink:href="#WenQuanYiMicroHei-30"/>
      </g>
     </g>
    </g>
   </g>
   <g id="legend_1">
    <g id="patch_7">
     <path d="
M284.259 51.2847
L359.253 51.2847
L359.253 17.1968
L284.259 17.1968
z
" style="fill:#ffffff;stroke:#000000;stroke-linejoin:miter;"/>
    </g>
    <g id="line2d_23">
     <path d="
M291.256 25.292
L305.251 25.292" style="fill:none;stroke:#348abd;stroke-linecap:square;stroke-width:2;"/>
    </g>
    <g id="line2d_24"/>
    <g id="text_11">
     <!-- 样本分布 -->
     <defs>
      <path d="
M6.64062 62.8906
L19.1406 62.8906
L19.1406 80.8594
L26.5625 80.8594
L26.5625 62.8906
L38.2812 62.8906
L38.2812 55.4688
L26.5625 55.4688
L26.5625 50.7812
Q33.9844 41.7969 39.4531 33.2031
L34.375 25.7812
Q30.4688 33.9844 26.5625 40.2344
L26.5625 -8.98438
L19.1406 -8.98438
L19.1406 33.5938
Q14.8438 20.7031 8.98438 12.1094
L3.51562 17.5781
Q14.8438 34.375 18.3594 55.4688
L6.64062 55.4688
z

M78.9062 80.8594
L87.1094 78.5156
Q82.8125 69.9219 78.125 63.2812
L93.75 63.2812
L93.75 55.8594
L71.875 55.8594
L71.875 42.1875
L91.4062 42.1875
L91.4062 34.7656
L71.875 34.7656
L71.875 21.0938
L94.9219 21.0938
L94.9219 13.6719
L71.875 13.6719
L71.875 -8.98438
L64.0625 -8.98438
L64.0625 13.6719
L41.7969 13.6719
L41.7969 21.0938
L64.0625 21.0938
L64.0625 34.7656
L44.9219 34.7656
L44.9219 42.1875
L64.0625 42.1875
L64.0625 55.8594
L42.9688 55.8594
L42.9688 63.2812
L69.9219 63.2812
Q75 71.4844 78.9062 80.8594
M54.6875 80.4688
Q59.7656 75 62.8906 68.3594
L55.8594 65.2344
Q52.7344 72.2656 48.0469 77.3438
z
" id="WenQuanYiMicroHei-6837"/>
      <path d="
M8.20312 63.6719
L45.7031 63.6719
L45.7031 81.25
L53.5156 81.25
L53.5156 63.6719
L91.0156 63.6719
L91.0156 56.25
L59.375 56.25
Q73.4375 28.125 95.3125 15.2344
L91.0156 7.03125
Q67.9688 22.2656 53.5156 51.5625
L53.5156 17.5781
L75.7812 17.5781
L75.7812 10.1562
L53.5156 10.1562
L53.5156 -8.98438
L45.7031 -8.98438
L45.7031 10.1562
L23.8281 10.1562
L23.8281 17.5781
L45.7031 17.5781
L45.7031 50.7812
Q32.0312 23.4375 9.375 7.03125
L4.29688 14.0625
Q13.6719 20.3125 24.0156 32.4219
Q34.375 44.5312 39.8438 56.25
L8.20312 56.25
z
" id="WenQuanYiMicroHei-672c"/>
      <path d="
M64.4531 80.4688
Q78.9062 57.8125 95.3125 46.0938
L90.2344 37.5
Q73.8281 50 58.5938 74.2188
z

M35.9375 80.0781
L41.7969 75.3906
Q28.9062 52.3438 10.9375 36.7188
L5.46875 44.1406
Q22.2656 57.0312 35.9375 80.0781
M21.0938 42.1875
L78.9062 42.1875
Q78.9062 5.85938 76.1719 -1.17188
Q73.4375 -8.20312 64.8438 -8.20312
Q60.1562 -8.20312 53.9062 -7.42188
L52.3438 0.78125
Q58.9844 0 63.6719 0
Q66.7969 0 68.1562 3.90625
Q69.5312 7.8125 70.3125 34.7656
L46.0938 34.7656
Q44.9219 18.3594 37.8906 8.59375
Q30.8594 -1.17188 14.0625 -8.98438
L7.8125 -2.34375
Q23.4375 4.6875 29.6875 12.8906
Q35.9375 21.0938 37.8906 34.7656
L21.0938 34.7656
z
" id="WenQuanYiMicroHei-5206"/>
      <path d="
M6.64062 67.9688
L35.1562 67.9688
Q38.6719 74.6094 41.4062 81.6406
L49.2188 79.2969
L44.5312 67.9688
L93.75 67.9688
L93.75 60.5469
L41.0156 60.5469
Q37.1094 52.7344 30.8594 42.9688
L51.1719 42.9688
L51.1719 57.8125
L58.9844 57.8125
L58.9844 42.9688
L87.1094 42.9688
L87.1094 10.9375
Q87.1094 6.25 84.375 3.90625
Q81.6406 1.5625 76.5625 1.5625
Q72.2656 1.5625 66.7969 2.73438
L64.8438 10.1562
Q72.2656 8.98438 76.1719 8.98438
Q79.2969 8.98438 79.2969 12.8906
L79.2969 35.5469
L58.9844 35.5469
L58.9844 -8.98438
L51.1719 -8.98438
L51.1719 35.5469
L31.25 35.5469
L31.25 -0.78125
L23.4375 -0.78125
L23.4375 33.2031
Q17.1875 25.3906 9.375 18.75
L4.29688 23.8281
Q19.9219 40.2344 31.25 60.5469
L6.64062 60.5469
z
" id="WenQuanYiMicroHei-5e03"/>
     </defs>
     <g transform="translate(316.24628125 28.7905790625)scale(0.09996 -0.09996)">
      <use xlink:href="#WenQuanYiMicroHei-6837"/>
      <use x="100.0" xlink:href="#WenQuanYiMicroHei-672c"/>
      <use x="200.0" xlink:href="#WenQuanYiMicroHei-5206"/>
      <use x="300.0" xlink:href="#WenQuanYiMicroHei-5e03"/>
     </g>
    </g>
    <g id="line2d_25">
     <path d="
M291.256 41.3855
L305.251 41.3855" style="fill:none;opacity:0.6;stroke:#a60628;stroke-linecap:square;stroke-width:2;"/>
    </g>
    <g id="line2d_26"/>
    <g id="text_12">
     <!-- $\chi ^{2}$分布 -->
     <defs>
      <path d="
M4.98438 0
L4.98438 2.6875
Q4.98438 2.9375 5.17188 3.21875
L20.7031 20.4062
Q24.2188 24.2188 26.4062 26.7969
Q28.6094 29.3906 30.75 32.7656
Q32.9062 36.1406 34.1562 39.625
Q35.4062 43.1094 35.4062 47.0156
Q35.4062 51.125 33.8906 54.8594
Q32.375 58.5938 29.375 60.8438
Q26.375 63.0938 22.125 63.0938
Q17.7812 63.0938 14.3125 60.4688
Q10.8438 57.8594 9.42188 53.7188
Q9.8125 53.8125 10.5 53.8125
Q12.75 53.8125 14.3281 52.2969
Q15.9219 50.7812 15.9219 48.3906
Q15.9219 46.0938 14.3281 44.5
Q12.75 42.9219 10.5 42.9219
Q8.15625 42.9219 6.5625 44.5469
Q4.98438 46.1875 4.98438 48.3906
Q4.98438 52.1562 6.39062 55.4375
Q7.8125 58.7344 10.4688 61.2969
Q13.1406 63.875 16.4844 65.2344
Q19.8281 66.6094 23.5781 66.6094
Q29.2969 66.6094 34.2188 64.1875
Q39.1562 61.7656 42.0312 57.3438
Q44.9219 52.9375 44.9219 47.0156
Q44.9219 42.6719 43.0156 38.7656
Q41.1094 34.8594 38.125 31.6562
Q35.1562 28.4688 30.5156 24.4062
Q25.875 20.3594 24.4219 19
L13.0938 8.10938
L22.7031 8.10938
Q29.7812 8.10938 34.5469 8.21875
Q39.3125 8.34375 39.5938 8.59375
Q40.7656 9.85938 42 17.8281
L44.9219 17.8281
L42.0938 0
z
" id="Cmr10-32"/>
      <path d="
M4.29688 -19.3906
Q3.8125 -19.3906 3.34375 -18.9688
Q2.875 -18.5625 2.875 -18.1094
Q2.875 -17.4375 3.32812 -17.0938
L27.7812 10.1094
Q26.125 16.1562 24.0469 22.7188
Q21.9688 29.2969 19.0625 35.4531
Q16.1562 41.6094 13.9219 41.6094
Q11.9688 41.6094 10.8438 40.5312
Q9.71875 39.4531 8.85938 37.8594
Q8.01562 36.2812 7.71875 36.1875
L6.5 36.1875
Q6.20312 36.1875 5.95312 36.5156
Q5.71875 36.8594 5.71875 37.2031
Q5.71875 38.8125 7.10938 40.4531
Q8.5 42.0938 10.5156 43.1406
Q12.5469 44.1875 14.3125 44.1875
Q18.2656 44.1875 21.4844 42.7656
Q24.7031 41.3594 26.3125 38.1875
Q27.7344 35.1562 29.0469 31.6562
Q30.375 28.1719 31.5625 24.2188
Q32.7656 20.2656 33.7969 16.7031
L56.9844 42.4844
Q57.4688 43.1094 58.2031 43.1094
Q58.7969 43.1094 59.2031 42.75
Q59.625 42.3906 59.625 41.7969
Q59.625 41.1562 59.1875 40.8281
L34.7188 13.625
Q35.8906 9.1875 38.2344 1.78125
Q40.5781 -5.60938 43.4375 -11.7656
Q46.2969 -17.9219 48.5781 -17.9219
Q50.4375 -17.9219 51.6094 -16.8125
Q52.7812 -15.7188 53.6562 -14.1562
Q54.5469 -12.5938 54.7812 -12.5
L56 -12.5
Q56.7812 -12.5 56.7812 -13.4844
Q56.7812 -15.9688 53.8281 -18.2344
Q50.875 -20.5156 48.1875 -20.5156
Q44.2812 -20.5156 41.0625 -19.0938
Q37.8438 -17.6719 36.2812 -14.5
Q32.5625 -6.59375 28.7188 6.98438
L5.51562 -18.7969
Q5.03125 -19.3906 4.29688 -19.3906" id="Cmmi10-c2"/>
     </defs>
     <g transform="translate(316.24628125 44.8841390625)scale(0.09996 -0.09996)">
      <use transform="translate(0.0 0.8578125)" xlink:href="#Cmmi10-c2"/>
      <use transform="translate(62.5 43.3734375)scale(0.7)" xlink:href="#Cmr10-32"/>
      <use transform="translate(114.50625 0.8578125)" xlink:href="#WenQuanYiMicroHei-5206"/>
      <use transform="translate(214.50625 0.8578125)" xlink:href="#WenQuanYiMicroHei-5e03"/>
     </g>
    </g>
   </g>
  </g>
 </g>
 <defs>
  <clipPath id="p8ee29bdc33">
   <rect height="172.8" width="334.8" x="29.450509375" y="12.1987809375"/>
  </clipPath>
 </defs>
</svg>
