<?xml version="1.0" encoding="utf-8" standalone="no"?>
<!DOCTYPE svg PUBLIC "-//W3C//DTD SVG 1.1//EN"
  "http://www.w3.org/Graphics/SVG/1.1/DTD/svg11.dtd">
<!-- Created with matplotlib (http://matplotlib.org/) -->
<svg height="294pt" version="1.1" viewBox="0 0 505 294" width="505pt" xmlns="http://www.w3.org/2000/svg" xmlns:xlink="http://www.w3.org/1999/xlink">
 <defs>
  <style type="text/css">
*{stroke-linecap:butt;stroke-linejoin:round;}
  </style>
 </defs>
 <g id="figure_1">
  <g id="patch_1">
   <path d="
M0 294.075
L505.025 294.075
L505.025 0
L0 0
z
" style="fill:#ffffff;"/>
  </g>
  <g id="axes_1">
   <g id="patch_2">
    <path d="
M47.3937 253.542
L493.794 253.542
L493.794 23.1418
L47.3937 23.1418
z
" style="fill:#e5e5e5;"/>
   </g>
   <g id="matplotlib.axis_1">
    <g id="xtick_1">
     <g id="line2d_1">
      <path clip-path="url(#pb7ae6c7e5f)" d="
M47.3937 253.542
L47.3937 23.1418" style="fill:none;stroke:#ffffff;stroke-linecap:square;stroke-width:0.5;"/>
     </g>
     <g id="line2d_2">
      <defs>
       <path d="
M0 0
L0 4" id="m64c3aef5f4" style="stroke:#555555;stroke-width:0.5;"/>
      </defs>
      <g>
       <use style="fill:#555555;stroke:#555555;stroke-width:0.5;" x="47.3937125" xlink:href="#m64c3aef5f4" y="253.54175"/>
      </g>
     </g>
     <g id="line2d_3">
      <defs>
       <path d="
M0 0
L0 -4" id="m91191bb255" style="stroke:#555555;stroke-width:0.5;"/>
      </defs>
      <g>
       <use style="fill:#555555;stroke:#555555;stroke-width:0.5;" x="47.3937125" xlink:href="#m91191bb255" y="23.14175"/>
      </g>
     </g>
     <g id="text_1">
      <!-- 0 -->
      <defs>
       <path d="
M50.3906 35.7969
Q50.3906 27.1562 49.1406 20.3125
Q47.9062 13.4844 45.1406 8.73438
Q42.3906 4 38.0312 1.5
Q33.6875 -0.984375 27.4844 -0.984375
Q21.7344 -0.984375 17.4531 1.5
Q13.1875 4 10.375 8.73438
Q7.5625 13.4844 6.17188 20.3125
Q4.78125 27.1562 4.78125 35.7969
Q4.78125 44.4375 6.03125 51.2656
Q7.28125 58.1094 9.98438 62.8125
Q12.7031 67.5312 17.0156 70.0156
Q21.3438 72.5156 27.4844 72.5156
Q33.2969 72.5156 37.5938 70.0469
Q41.8906 67.5781 44.7188 62.8594
Q47.5625 58.1562 48.9688 51.3125
Q50.3906 44.4844 50.3906 35.7969
M13.8125 35.7969
Q13.8125 28.4688 14.5469 23
Q15.2812 17.5312 16.8906 13.8906
Q18.5 10.25 21.1094 8.42188
Q23.7344 6.59375 27.4844 6.59375
Q31.25 6.59375 33.8906 8.39062
Q36.5312 10.2031 38.2031 13.8125
Q39.8906 17.4375 40.6406 22.9219
Q41.4062 28.4219 41.4062 35.7969
Q41.4062 43.1094 40.6406 48.5781
Q39.8906 54.0469 38.2031 57.6562
Q36.5312 61.2812 33.8906 63.0781
Q31.25 64.8906 27.4844 64.8906
Q23.7344 64.8906 21.1094 63.0781
Q18.5 61.2812 16.8906 57.6562
Q15.2812 54.0469 14.5469 48.5781
Q13.8125 43.1094 13.8125 35.7969" id="WenQuanYiMicroHei-30"/>
      </defs>
      <g style="fill:#555555;" transform="translate(45.4940820313 267.871248437)scale(0.0833 -0.0833)">
       <use xlink:href="#WenQuanYiMicroHei-30"/>
      </g>
     </g>
    </g>
    <g id="xtick_2">
     <g id="line2d_4">
      <path clip-path="url(#pb7ae6c7e5f)" d="
M136.674 253.542
L136.674 23.1418" style="fill:none;stroke:#ffffff;stroke-linecap:square;stroke-width:0.5;"/>
     </g>
     <g id="line2d_5">
      <g>
       <use style="fill:#555555;stroke:#555555;stroke-width:0.5;" x="136.6737125" xlink:href="#m64c3aef5f4" y="253.54175"/>
      </g>
     </g>
     <g id="line2d_6">
      <g>
       <use style="fill:#555555;stroke:#555555;stroke-width:0.5;" x="136.6737125" xlink:href="#m91191bb255" y="23.14175"/>
      </g>
     </g>
     <g id="text_2">
      <!-- 2 -->
      <defs>
       <path d="
M49.2188 0
L4.6875 0
L4.6875 7.625
L21.7812 26.2188
Q25.4375 30.1719 28.3125 33.4375
Q31.2031 36.7188 33.2188 39.8438
Q35.25 42.9688 36.3281 46.1094
Q37.4062 49.2656 37.4062 52.9844
Q37.4062 55.8594 36.5781 58.0469
Q35.75 60.25 34.2031 61.7812
Q32.6719 63.3281 30.5625 64.1094
Q28.4688 64.8906 25.875 64.8906
Q21.2344 64.8906 17.5 63.0156
Q13.7656 61.1406 10.4062 58.2031
L5.42188 64.0156
Q7.375 65.7656 9.60938 67.2969
Q11.8594 68.8438 14.4531 69.9688
Q17.0469 71.0938 19.9219 71.75
Q22.7969 72.4062 25.9844 72.4062
Q30.6719 72.4062 34.4531 71.0938
Q38.2344 69.7812 40.8594 67.3125
Q43.5 64.8438 44.9375 61.2969
Q46.3906 57.7656 46.3906 53.3281
Q46.3906 49.1719 45.0938 45.4062
Q43.7969 41.6562 41.5312 38.0156
Q39.2656 34.375 36.1094 30.7031
Q32.9531 27.0469 29.2969 23.0938
L15.5781 8.5
L15.5781 8.10938
L49.2188 8.10938
z
" id="WenQuanYiMicroHei-32"/>
      </defs>
      <g style="fill:#555555;" transform="translate(134.818985938 267.871248437)scale(0.0833 -0.0833)">
       <use xlink:href="#WenQuanYiMicroHei-32"/>
      </g>
     </g>
    </g>
    <g id="xtick_3">
     <g id="line2d_7">
      <path clip-path="url(#pb7ae6c7e5f)" d="
M225.954 253.542
L225.954 23.1418" style="fill:none;stroke:#ffffff;stroke-linecap:square;stroke-width:0.5;"/>
     </g>
     <g id="line2d_8">
      <g>
       <use style="fill:#555555;stroke:#555555;stroke-width:0.5;" x="225.9537125" xlink:href="#m64c3aef5f4" y="253.54175"/>
      </g>
     </g>
     <g id="line2d_9">
      <g>
       <use style="fill:#555555;stroke:#555555;stroke-width:0.5;" x="225.9537125" xlink:href="#m91191bb255" y="23.14175"/>
      </g>
     </g>
     <g id="text_3">
      <!-- 4 -->
      <defs>
       <path d="
M53.0781 16.0156
L42.6719 16.0156
L42.6719 0
L34.0781 0
L34.0781 16.0156
L1.125 16.0156
L1.125 23.7812
L33.5 71.7812
L42.6719 71.7812
L42.6719 24.125
L53.0781 24.125
z

M34.0781 24.125
L34.0781 41.5
Q34.0781 44.2344 34.1562 47.2344
Q34.2344 50.25 34.3281 53.0938
Q34.4219 55.9531 34.5469 58.4375
Q34.6719 60.9375 34.7188 62.5938
L34.2812 62.5938
Q33.9375 61.625 33.4219 60.4219
Q32.9062 59.2344 32.2969 58.0312
Q31.6875 56.8438 31.0469 55.7188
Q30.4219 54.5938 29.8906 53.8125
L9.8125 24.125
z
" id="WenQuanYiMicroHei-34"/>
      </defs>
      <g style="fill:#555555;" transform="translate(223.789864844 267.871248437)scale(0.0833 -0.0833)">
       <use xlink:href="#WenQuanYiMicroHei-34"/>
      </g>
     </g>
    </g>
    <g id="xtick_4">
     <g id="line2d_10">
      <path clip-path="url(#pb7ae6c7e5f)" d="
M315.234 253.542
L315.234 23.1418" style="fill:none;stroke:#ffffff;stroke-linecap:square;stroke-width:0.5;"/>
     </g>
     <g id="line2d_11">
      <g>
       <use style="fill:#555555;stroke:#555555;stroke-width:0.5;" x="315.2337125" xlink:href="#m64c3aef5f4" y="253.54175"/>
      </g>
     </g>
     <g id="line2d_12">
      <g>
       <use style="fill:#555555;stroke:#555555;stroke-width:0.5;" x="315.2337125" xlink:href="#m91191bb255" y="23.14175"/>
      </g>
     </g>
     <g id="text_4">
      <!-- 6 -->
      <defs>
       <path d="
M5.51562 30.5156
Q5.51562 35.6406 6.03125 40.7188
Q6.54688 45.7969 7.82812 50.4531
Q9.125 55.125 11.375 59.125
Q13.625 63.1406 17.0938 66.0938
Q20.5625 69.0469 25.3906 70.7188
Q30.2188 72.4062 36.7188 72.4062
Q37.6406 72.4062 38.7656 72.3594
Q39.8906 72.3125 41.0312 72.1875
Q42.1875 72.0781 43.2344 71.9062
Q44.2812 71.7344 45.125 71.4844
L45.125 63.9219
Q43.4062 64.5 41.25 64.7969
Q39.1094 65.0938 37.0156 65.0938
Q32.625 65.0938 29.2656 64.0312
Q25.9219 62.9844 23.4844 61.0781
Q21.0469 59.1875 19.4062 56.5469
Q17.7812 53.9062 16.75 50.7031
Q15.7188 47.5156 15.2344 43.8906
Q14.75 40.2812 14.5938 36.375
L15.1875 36.375
Q16.1562 38.1406 17.5469 39.6719
Q18.9531 41.2188 20.7969 42.3125
Q22.6562 43.4062 24.9688 44.0312
Q27.2969 44.6719 30.1719 44.6719
Q34.8125 44.6719 38.5625 43.2344
Q42.3281 41.7969 44.9688 39.0156
Q47.6094 36.2344 49.0469 32.2031
Q50.4844 28.1719 50.4844 23
Q50.4844 17.4375 48.9688 12.9844
Q47.4688 8.54688 44.625 5.4375
Q41.7969 2.34375 37.7969 0.671875
Q33.7969 -0.984375 28.8125 -0.984375
Q23.9219 -0.984375 19.6406 0.921875
Q15.375 2.82812 12.25 6.73438
Q9.125 10.6406 7.3125 16.5469
Q5.51562 22.4688 5.51562 30.5156
M28.7188 6.5
Q31.6406 6.5 34.0469 7.5
Q36.4688 8.5 38.2188 10.5156
Q39.9844 12.5469 40.9375 15.6406
Q41.8906 18.75 41.8906 23
Q41.8906 26.4219 41.0781 29.125
Q40.2812 31.8438 38.6719 33.7344
Q37.0625 35.6406 34.6406 36.6719
Q32.2344 37.7031 29 37.7031
Q25.7344 37.7031 23.0156 36.5469
Q20.3125 35.4062 18.4062 33.5625
Q16.5 31.7344 15.4531 29.3906
Q14.4062 27.0469 14.4062 24.7031
Q14.4062 21.4375 15.3125 18.1875
Q16.2188 14.9375 18 12.3438
Q19.7812 9.76562 22.4531 8.125
Q25.1406 6.5 28.7188 6.5" id="WenQuanYiMicroHei-36"/>
      </defs>
      <g style="fill:#555555;" transform="translate(313.360764063 267.871248437)scale(0.0833 -0.0833)">
       <use xlink:href="#WenQuanYiMicroHei-36"/>
      </g>
     </g>
    </g>
    <g id="xtick_5">
     <g id="line2d_13">
      <path clip-path="url(#pb7ae6c7e5f)" d="
M404.514 253.542
L404.514 23.1418" style="fill:none;stroke:#ffffff;stroke-linecap:square;stroke-width:0.5;"/>
     </g>
     <g id="line2d_14">
      <g>
       <use style="fill:#555555;stroke:#555555;stroke-width:0.5;" x="404.5137125" xlink:href="#m64c3aef5f4" y="253.54175"/>
      </g>
     </g>
     <g id="line2d_15">
      <g>
       <use style="fill:#555555;stroke:#555555;stroke-width:0.5;" x="404.5137125" xlink:href="#m91191bb255" y="23.14175"/>
      </g>
     </g>
     <g id="text_5">
      <!-- 8 -->
      <defs>
       <path d="
M27.5938 72.5156
Q31.6875 72.5156 35.3281 71.4375
Q38.9688 70.3594 41.7188 68.2031
Q44.4844 66.0625 46.0938 62.8438
Q47.7031 59.625 47.7031 55.3281
Q47.7031 52.0469 46.7188 49.4062
Q45.75 46.7812 44.0312 44.6562
Q42.3281 42.5312 39.9844 40.8438
Q37.6406 39.1562 34.9062 37.7969
Q37.75 36.2812 40.4531 34.4219
Q43.1719 32.5625 45.2812 30.25
Q47.4062 27.9375 48.7031 25.0469
Q50 22.1719 50 18.6094
Q50 14.1094 48.3594 10.4688
Q46.7344 6.84375 43.7812 4.29688
Q40.8281 1.76562 36.6875 0.390625
Q32.5625 -0.984375 27.5938 -0.984375
Q22.2188 -0.984375 18.0469 0.328125
Q13.875 1.65625 11.0156 4.125
Q8.15625 6.59375 6.65625 10.1562
Q5.17188 13.7188 5.17188 18.2188
Q5.17188 21.875 6.26562 24.7969
Q7.375 27.7344 9.21875 30.0781
Q11.0781 32.4219 13.6094 34.2188
Q16.1562 36.0312 19 37.4062
Q16.6094 38.9219 14.5 40.7031
Q12.4062 42.4844 10.8594 44.6719
Q9.32812 46.875 8.42188 49.5312
Q7.51562 52.2031 7.51562 55.4219
Q7.51562 59.6719 9.15625 62.8594
Q10.7969 66.0625 13.5781 68.2031
Q16.3594 70.3594 20 71.4375
Q23.6406 72.5156 27.5938 72.5156
M13.9219 18.1094
Q13.9219 15.5312 14.7031 13.3594
Q15.4844 11.1875 17.1406 9.64062
Q18.7969 8.10938 21.3281 7.25
Q23.875 6.39062 27.3906 6.39062
Q30.8125 6.39062 33.4219 7.25
Q36.0312 8.10938 37.7812 9.6875
Q39.5469 11.2812 40.4219 13.5156
Q41.3125 15.7656 41.3125 18.5
Q41.3125 21.0469 40.3594 23.0938
Q39.4062 25.1406 37.625 26.8906
Q35.8438 28.6562 33.3438 30.2188
Q30.8594 31.7812 27.7812 33.2969
L26.3125 33.9844
Q20.1719 31.0625 17.0469 27.2656
Q13.9219 23.4844 13.9219 18.1094
M27.4844 65.0938
Q22.3125 65.0938 19.2656 62.5
Q16.2188 59.9062 16.2188 54.9844
Q16.2188 52.2031 17.0625 50.1875
Q17.9219 48.1875 19.4375 46.625
Q20.9531 45.0625 23.0781 43.8125
Q25.2031 42.5781 27.6875 41.4062
Q30.0312 42.4844 32.1094 43.75
Q34.1875 45.0156 35.7188 46.625
Q37.25 48.25 38.125 50.2969
Q39.0156 52.3438 39.0156 54.9844
Q39.0156 59.9062 35.9375 62.5
Q32.8594 65.0938 27.4844 65.0938" id="WenQuanYiMicroHei-38"/>
      </defs>
      <g style="fill:#555555;" transform="translate(402.646621094 267.871248437)scale(0.0833 -0.0833)">
       <use xlink:href="#WenQuanYiMicroHei-38"/>
      </g>
     </g>
    </g>
    <g id="xtick_6">
     <g id="line2d_16">
      <path clip-path="url(#pb7ae6c7e5f)" d="
M493.794 253.542
L493.794 23.1418" style="fill:none;stroke:#ffffff;stroke-linecap:square;stroke-width:0.5;"/>
     </g>
     <g id="line2d_17">
      <g>
       <use style="fill:#555555;stroke:#555555;stroke-width:0.5;" x="493.7937125" xlink:href="#m64c3aef5f4" y="253.54175"/>
      </g>
     </g>
     <g id="line2d_18">
      <g>
       <use style="fill:#555555;stroke:#555555;stroke-width:0.5;" x="493.7937125" xlink:href="#m91191bb255" y="23.14175"/>
      </g>
     </g>
     <g id="text_6">
      <!-- 10 -->
      <defs>
       <path d="
M34.7188 0
L26.125 0
L26.125 44.5781
Q26.125 46.6875 26.1406 49.0781
Q26.1719 51.4688 26.2344 53.8281
Q26.3125 56.2031 26.3906 58.375
Q26.4688 60.5469 26.5156 62.2031
Q25.6875 61.3281 25.0469 60.6875
Q24.4219 60.0625 23.75 59.4688
Q23.0938 58.8906 22.3594 58.2188
Q21.625 57.5625 20.6094 56.6875
L13.375 50.7812
L8.6875 56.7812
L27.3906 71.3906
L34.7188 71.3906
z
" id="WenQuanYiMicroHei-31"/>
      </defs>
      <g style="fill:#555555;" transform="translate(489.762773437 267.871248437)scale(0.0833 -0.0833)">
       <use xlink:href="#WenQuanYiMicroHei-31"/>
       <use x="55.078125" xlink:href="#WenQuanYiMicroHei-30"/>
      </g>
     </g>
    </g>
    <g id="text_7">
     <!-- Time(s) -->
     <defs>
      <path d="
M72.7031 0
L72.7031 34.5156
Q72.7031 40.875 70.2656 44.0469
Q67.8281 47.2188 62.7031 47.2188
Q59.125 47.2188 56.6406 46.0625
Q54.1562 44.9219 52.5625 42.7031
Q50.9844 40.4844 50.25 37.1875
Q49.5156 33.8906 49.5156 29.5938
L49.5156 0
L40.5781 0
L40.5781 34.5156
Q40.5781 40.875 38.1562 44.0469
Q35.75 47.2188 30.6094 47.2188
Q26.8594 47.2188 24.3125 45.9375
Q21.7812 44.6719 20.2344 42.1875
Q18.7031 39.7031 18.0469 36.0781
Q17.3906 32.4688 17.3906 27.7812
L17.3906 0
L8.5 0
L8.5 53.6094
L15.7188 53.6094
L17 46.3906
L17.4844 46.3906
Q18.6562 48.4844 20.2656 50.0156
Q21.875 51.5625 23.7969 52.5781
Q25.7344 53.6094 27.9062 54.0938
Q30.0781 54.5938 32.3281 54.5938
Q38.1875 54.5938 42.0625 52.4375
Q45.9531 50.2969 47.7969 45.7031
L48.1875 45.7031
Q49.4688 48 51.25 49.6562
Q53.0312 51.3125 55.1562 52.4062
Q57.2812 53.5156 59.625 54.0469
Q61.9688 54.5938 64.4062 54.5938
Q72.9531 54.5938 77.2656 49.9219
Q81.5938 45.2656 81.5938 35.0156
L81.5938 0
z
" id="WenQuanYiMicroHei-6d"/>
      <path d="
M26.125 27.3906
Q26.125 21.3438 25.2344 15.4844
Q24.3594 9.625 22.5312 4.125
Q20.7031 -1.375 17.9375 -6.39062
Q15.1875 -11.4219 11.375 -15.8281
L3.07812 -15.8281
Q6.45312 -11.2344 9.03125 -6.04688
Q11.625 -0.875 13.375 4.64062
Q15.1406 10.1562 16.0156 15.9219
Q16.8906 21.6875 16.8906 27.4844
Q16.8906 39.4062 13.375 50.6875
Q9.85938 61.9688 2.98438 71.3906
L11.375 71.3906
Q15.1875 66.8438 17.9375 61.6875
Q20.7031 56.5469 22.5312 50.9531
Q24.3594 45.3594 25.2344 39.4219
Q26.125 33.5 26.125 27.3906" id="WenQuanYiMicroHei-29"/>
      <path d="
M4 27.3906
Q4 33.5 4.875 39.4219
Q5.76562 45.3594 7.5625 50.9531
Q9.375 56.5469 12.125 61.6875
Q14.8906 66.8438 18.7031 71.3906
L27.0938 71.3906
Q20.2656 61.9688 16.7188 50.6875
Q13.1875 39.4062 13.1875 27.4844
Q13.1875 21.6875 14.0781 15.9219
Q14.9844 10.1562 16.7188 4.64062
Q18.4531 -0.875 21.0469 -6.04688
Q23.6406 -11.2344 27 -15.8281
L18.7031 -15.8281
Q14.8906 -11.4219 12.125 -6.39062
Q9.375 -1.375 7.5625 4.125
Q5.76562 9.625 4.875 15.4844
Q4 21.3438 4 27.3906" id="WenQuanYiMicroHei-28"/>
      <path d="
M29.6875 -0.984375
Q24.3125 -0.984375 19.875 0.828125
Q15.4375 2.64062 12.2344 6.10938
Q9.03125 9.57812 7.26562 14.7031
Q5.51562 19.8281 5.51562 26.4219
Q5.51562 33.0625 7.125 38.2812
Q8.73438 43.5 11.6562 47.1406
Q14.5938 50.7812 18.6719 52.6875
Q22.75 54.5938 27.6875 54.5938
Q32.5156 54.5938 36.375 52.8594
Q40.2344 51.125 42.9219 47.9688
Q45.6094 44.8281 47.0469 40.4062
Q48.4844 35.9844 48.4844 30.6094
L48.4844 25.0938
L14.7031 25.0938
Q14.9375 15.6719 18.6719 11.2188
Q22.4062 6.78125 29.7812 6.78125
Q32.2812 6.78125 34.4062 7.03125
Q36.5312 7.28125 38.5 7.73438
Q40.4844 8.20312 42.3281 8.90625
Q44.1875 9.625 46.0938 10.5
L46.0938 2.59375
Q44.1406 1.65625 42.25 0.96875
Q40.375 0.296875 38.3906 -0.140625
Q36.4219 -0.59375 34.2969 -0.78125
Q32.1719 -0.984375 29.6875 -0.984375
M27.4844 47.2188
Q21.9219 47.2188 18.6719 43.4062
Q15.4375 39.5938 14.8906 32.3281
L38.9219 32.3281
Q38.9219 35.6406 38.25 38.3906
Q37.5938 41.1562 36.2031 43.1094
Q34.8125 45.0625 32.6562 46.1406
Q30.5156 47.2188 27.4844 47.2188" id="WenQuanYiMicroHei-65"/>
      <path d="
M40.5781 14.7031
Q40.5781 10.7969 39.1562 7.85938
Q37.75 4.9375 35.0781 2.95312
Q32.4219 0.984375 28.6562 0
Q24.9062 -0.984375 20.2188 -0.984375
Q14.8906 -0.984375 11.0781 -0.125
Q7.28125 0.734375 4.39062 2.39062
L4.39062 10.5
Q5.90625 9.71875 7.76562 8.95312
Q9.625 8.20312 11.6719 7.60938
Q13.7188 7.03125 15.8906 6.65625
Q18.0625 6.29688 20.2188 6.29688
Q23.3906 6.29688 25.6094 6.82812
Q27.8281 7.375 29.2188 8.375
Q30.6094 9.375 31.25 10.8125
Q31.8906 12.25 31.8906 14.0156
Q31.8906 15.5312 31.3906 16.75
Q30.9062 17.9688 29.6094 19.1562
Q28.3281 20.3594 26.0781 21.5781
Q23.8281 22.7969 20.3125 24.3125
Q16.7969 25.8281 13.9844 27.2969
Q11.1875 28.7656 9.23438 30.5625
Q7.28125 32.375 6.21875 34.7344
Q5.17188 37.1094 5.17188 40.375
Q5.17188 43.7969 6.51562 46.4531
Q7.85938 49.125 10.2969 50.9219
Q12.75 52.7344 16.1562 53.6562
Q19.5781 54.5938 23.7812 54.5938
Q28.5156 54.5938 32.4375 53.5625
Q36.375 52.5469 39.8906 50.875
L36.8125 43.7031
Q33.6406 45.125 30.2969 46.1719
Q26.9531 47.2188 23.4844 47.2188
Q18.5 47.2188 16.1094 45.5781
Q13.7188 43.9531 13.7188 40.9219
Q13.7188 39.2031 14.2812 37.9375
Q14.8438 36.6719 16.2031 35.5469
Q17.5781 34.4219 19.875 33.2656
Q22.1719 32.125 25.5938 30.7188
Q29.1094 29.25 31.8594 27.7812
Q34.625 26.3125 36.5781 24.4844
Q38.5312 22.6562 39.5469 20.3125
Q40.5781 17.9688 40.5781 14.7031" id="WenQuanYiMicroHei-73"/>
      <path d="
M30.5156 0
L21.3906 0
L21.3906 63.375
L0.984375 63.375
L0.984375 71.3906
L50.875 71.3906
L50.875 63.375
L30.5156 63.375
z
" id="WenQuanYiMicroHei-54"/>
      <path d="
M17.3906 0
L8.5 0
L8.5 53.6094
L17.3906 53.6094
z

M7.8125 68.1094
Q7.8125 71.0469 9.29688 72.3594
Q10.7969 73.6875 12.9844 73.6875
Q14.0625 73.6875 15.0156 73.3594
Q15.9688 73.0469 16.6719 72.3594
Q17.3906 71.6875 17.7969 70.625
Q18.2188 69.5781 18.2188 68.1094
Q18.2188 65.2812 16.6719 63.8906
Q15.1406 62.5 12.9844 62.5
Q10.7969 62.5 9.29688 63.8594
Q7.8125 65.2344 7.8125 68.1094" id="WenQuanYiMicroHei-69"/>
     </defs>
     <g style="fill:#555555;" transform="translate(251.31965 283.991176562)scale(0.12 -0.12)">
      <use xlink:href="#WenQuanYiMicroHei-54"/>
      <use x="51.904296875" xlink:href="#WenQuanYiMicroHei-69"/>
      <use x="77.783203125" xlink:href="#WenQuanYiMicroHei-6d"/>
      <use x="167.3828125" xlink:href="#WenQuanYiMicroHei-65"/>
      <use x="220.8984375" xlink:href="#WenQuanYiMicroHei-28"/>
      <use x="250.9765625" xlink:href="#WenQuanYiMicroHei-73"/>
      <use x="296.09375" xlink:href="#WenQuanYiMicroHei-29"/>
     </g>
    </g>
   </g>
   <g id="matplotlib.axis_2">
    <g id="ytick_1">
     <g id="line2d_19">
      <path clip-path="url(#pb7ae6c7e5f)" d="
M47.3937 234.342
L493.794 234.342" style="fill:none;stroke:#ffffff;stroke-linecap:square;stroke-width:0.5;"/>
     </g>
     <g id="line2d_20">
      <defs>
       <path d="
M0 0
L-4 0" id="mf591f037a3" style="stroke:#555555;stroke-width:0.5;"/>
      </defs>
      <g>
       <use style="fill:#555555;stroke:#555555;stroke-width:0.5;" x="47.3937125" xlink:href="#mf591f037a3" y="234.34175"/>
      </g>
     </g>
     <g id="line2d_21">
      <defs>
       <path d="
M0 0
L4 0" id="m9430d3eee0" style="stroke:#555555;stroke-width:0.5;"/>
      </defs>
      <g>
       <use style="fill:#555555;stroke:#555555;stroke-width:0.5;" x="493.7937125" xlink:href="#m9430d3eee0" y="234.34175"/>
      </g>
     </g>
     <g id="text_8">
      <!-- −1.0 -->
      <defs>
       <path d="
M4.98438 31.5938
L4.98438 38.9219
L50.0938 38.9219
L50.0938 31.5938
z
" id="WenQuanYiMicroHei-2212"/>
       <path d="
M7.17188 5.42188
Q7.17188 7.28125 7.65625 8.5625
Q8.15625 9.85938 8.98438 10.6562
Q9.8125 11.4688 10.9375 11.8281
Q12.0625 12.2031 13.375 12.2031
Q14.6562 12.2031 15.7969 11.8281
Q16.9375 11.4688 17.7656 10.6562
Q18.6094 9.85938 19.0938 8.5625
Q19.5781 7.28125 19.5781 5.42188
Q19.5781 3.60938 19.0938 2.3125
Q18.6094 1.03125 17.7656 0.1875
Q16.9375 -0.640625 15.7969 -1.03125
Q14.6562 -1.42188 13.375 -1.42188
Q12.0625 -1.42188 10.9375 -1.03125
Q9.8125 -0.640625 8.98438 0.1875
Q8.15625 1.03125 7.65625 2.3125
Q7.17188 3.60938 7.17188 5.42188" id="WenQuanYiMicroHei-2e"/>
      </defs>
      <g style="fill:#555555;" transform="translate(24.201875 236.505597656)scale(0.0833 -0.0833)">
       <use xlink:href="#WenQuanYiMicroHei-2212"/>
       <use x="55.078125" xlink:href="#WenQuanYiMicroHei-31"/>
       <use x="110.15625" xlink:href="#WenQuanYiMicroHei-2e"/>
       <use x="136.962890625" xlink:href="#WenQuanYiMicroHei-30"/>
      </g>
     </g>
    </g>
    <g id="ytick_2">
     <g id="line2d_22">
      <path clip-path="url(#pb7ae6c7e5f)" d="
M47.3937 186.342
L493.794 186.342" style="fill:none;stroke:#ffffff;stroke-linecap:square;stroke-width:0.5;"/>
     </g>
     <g id="line2d_23">
      <g>
       <use style="fill:#555555;stroke:#555555;stroke-width:0.5;" x="47.3937125" xlink:href="#mf591f037a3" y="186.34175"/>
      </g>
     </g>
     <g id="line2d_24">
      <g>
       <use style="fill:#555555;stroke:#555555;stroke-width:0.5;" x="493.7937125" xlink:href="#m9430d3eee0" y="186.34175"/>
      </g>
     </g>
     <g id="text_9">
      <!-- −0.5 -->
      <defs>
       <path d="
M26.6094 43.7969
Q31.4531 43.7969 35.625 42.4531
Q39.7969 41.1094 42.8906 38.4688
Q46 35.8438 47.75 31.9375
Q49.5156 28.0312 49.5156 22.9062
Q49.5156 17.3281 47.8438 12.8906
Q46.1875 8.45312 42.9219 5.375
Q39.6562 2.29688 34.8438 0.65625
Q30.0312 -0.984375 23.7812 -0.984375
Q21.2969 -0.984375 18.875 -0.734375
Q16.4531 -0.484375 14.2344 -0.015625
Q12.0156 0.4375 10.0156 1.17188
Q8.01562 1.90625 6.39062 2.875
L6.39062 11.2812
Q8.01562 10.1562 10.1875 9.28125
Q12.3594 8.40625 14.75 7.8125
Q17.1406 7.23438 19.5469 6.90625
Q21.9688 6.59375 24.0312 6.59375
Q27.875 6.59375 30.9062 7.5
Q33.9375 8.40625 36.0312 10.2969
Q38.1406 12.2031 39.25 15.0781
Q40.375 17.9688 40.375 21.9219
Q40.375 28.9062 36.0781 32.5938
Q31.7812 36.2812 23.5781 36.2812
Q22.2656 36.2812 20.7188 36.1562
Q19.1875 36.0312 17.6406 35.8281
Q16.1094 35.6406 14.7188 35.4219
Q13.3281 35.2031 12.3125 35.0156
L7.90625 37.7969
L10.5938 71.3906
L44.2812 71.3906
L44.2812 63.2812
L18.3125 63.2812
L16.4062 42.8281
Q17.9688 43.1094 20.5312 43.4531
Q23.0938 43.7969 26.6094 43.7969" id="WenQuanYiMicroHei-35"/>
      </defs>
      <g style="fill:#555555;" transform="translate(24.2747625 188.505597656)scale(0.0833 -0.0833)">
       <use xlink:href="#WenQuanYiMicroHei-2212"/>
       <use x="55.078125" xlink:href="#WenQuanYiMicroHei-30"/>
       <use x="110.15625" xlink:href="#WenQuanYiMicroHei-2e"/>
       <use x="136.962890625" xlink:href="#WenQuanYiMicroHei-35"/>
      </g>
     </g>
    </g>
    <g id="ytick_3">
     <g id="line2d_25">
      <path clip-path="url(#pb7ae6c7e5f)" d="
M47.3937 138.342
L493.794 138.342" style="fill:none;stroke:#ffffff;stroke-linecap:square;stroke-width:0.5;"/>
     </g>
     <g id="line2d_26">
      <g>
       <use style="fill:#555555;stroke:#555555;stroke-width:0.5;" x="47.3937125" xlink:href="#mf591f037a3" y="138.34175"/>
      </g>
     </g>
     <g id="line2d_27">
      <g>
       <use style="fill:#555555;stroke:#555555;stroke-width:0.5;" x="493.7937125" xlink:href="#m9430d3eee0" y="138.34175"/>
      </g>
     </g>
     <g id="text_10">
      <!-- 0.0 -->
      <g style="fill:#555555;" transform="translate(28.7729625 140.505597656)scale(0.0833 -0.0833)">
       <use xlink:href="#WenQuanYiMicroHei-30"/>
       <use x="55.078125" xlink:href="#WenQuanYiMicroHei-2e"/>
       <use x="81.884765625" xlink:href="#WenQuanYiMicroHei-30"/>
      </g>
     </g>
    </g>
    <g id="ytick_4">
     <g id="line2d_28">
      <path clip-path="url(#pb7ae6c7e5f)" d="
M47.3937 90.3417
L493.794 90.3417" style="fill:none;stroke:#ffffff;stroke-linecap:square;stroke-width:0.5;"/>
     </g>
     <g id="line2d_29">
      <g>
       <use style="fill:#555555;stroke:#555555;stroke-width:0.5;" x="47.3937125" xlink:href="#mf591f037a3" y="90.34175"/>
      </g>
     </g>
     <g id="line2d_30">
      <g>
       <use style="fill:#555555;stroke:#555555;stroke-width:0.5;" x="493.7937125" xlink:href="#m9430d3eee0" y="90.34175"/>
      </g>
     </g>
     <g id="text_11">
      <!-- 0.5 -->
      <g style="fill:#555555;" transform="translate(28.84585 92.5055976562)scale(0.0833 -0.0833)">
       <use xlink:href="#WenQuanYiMicroHei-30"/>
       <use x="55.078125" xlink:href="#WenQuanYiMicroHei-2e"/>
       <use x="81.884765625" xlink:href="#WenQuanYiMicroHei-35"/>
      </g>
     </g>
    </g>
    <g id="ytick_5">
     <g id="line2d_31">
      <path clip-path="url(#pb7ae6c7e5f)" d="
M47.3937 42.3417
L493.794 42.3417" style="fill:none;stroke:#ffffff;stroke-linecap:square;stroke-width:0.5;"/>
     </g>
     <g id="line2d_32">
      <g>
       <use style="fill:#555555;stroke:#555555;stroke-width:0.5;" x="47.3937125" xlink:href="#mf591f037a3" y="42.34175"/>
      </g>
     </g>
     <g id="line2d_33">
      <g>
       <use style="fill:#555555;stroke:#555555;stroke-width:0.5;" x="493.7937125" xlink:href="#m9430d3eee0" y="42.34175"/>
      </g>
     </g>
     <g id="text_12">
      <!-- 1.0 -->
      <g style="fill:#555555;" transform="translate(29.098353125 44.5055976562)scale(0.0833 -0.0833)">
       <use xlink:href="#WenQuanYiMicroHei-31"/>
       <use x="55.078125" xlink:href="#WenQuanYiMicroHei-2e"/>
       <use x="81.884765625" xlink:href="#WenQuanYiMicroHei-30"/>
      </g>
     </g>
    </g>
    <g id="text_13">
     <!-- Volt -->
     <defs>
      <path d="
M52.2031 26.9062
Q52.2031 20.2188 50.5625 15.0156
Q48.9219 9.8125 45.875 6.26562
Q42.8281 2.73438 38.4688 0.875
Q34.125 -0.984375 28.7188 -0.984375
Q23.6875 -0.984375 19.4375 0.875
Q15.1875 2.73438 12.0781 6.26562
Q8.98438 9.8125 7.25 15.0156
Q5.51562 20.2188 5.51562 26.9062
Q5.51562 33.5469 7.15625 38.6875
Q8.79688 43.8438 11.8125 47.375
Q14.8438 50.9219 19.2031 52.75
Q23.5781 54.5938 29 54.5938
Q34.0312 54.5938 38.2812 52.75
Q42.5312 50.9219 45.625 47.375
Q48.7344 43.8438 50.4688 38.6875
Q52.2031 33.5469 52.2031 26.9062
M14.7031 26.9062
Q14.7031 16.7031 18.0469 11.5469
Q21.3906 6.39062 28.9062 6.39062
Q36.4219 6.39062 39.7188 11.5469
Q43.0156 16.7031 43.0156 26.9062
Q43.0156 37.1094 39.6719 42.1562
Q36.3281 47.2188 28.8125 47.2188
Q21.2969 47.2188 18 42.1562
Q14.7031 37.1094 14.7031 26.9062" id="WenQuanYiMicroHei-6f"/>
      <path d="
M47.125 71.3906
L56.7812 71.3906
L32.9062 0
L23.7812 0
L0 71.3906
L9.625 71.3906
L24.0312 26.125
Q25.4375 21.6875 26.4531 17.5469
Q27.4844 13.4219 28.3281 9.8125
Q29.0469 13.4219 30.1719 17.5469
Q31.2969 21.6875 32.8125 26.4219
z
" id="WenQuanYiMicroHei-56"/>
      <path d="
M24.7031 6.29688
Q25.5938 6.29688 26.6875 6.39062
Q27.7812 6.5 28.7969 6.64062
Q29.8281 6.78125 30.6875 6.96875
Q31.5469 7.17188 31.9844 7.32812
L31.9844 0.59375
Q31.3438 0.296875 30.3594 0
Q29.3906 -0.296875 28.2188 -0.515625
Q27.0469 -0.734375 25.7812 -0.859375
Q24.5156 -0.984375 23.2969 -0.984375
Q20.2656 -0.984375 17.6719 -0.1875
Q15.0938 0.59375 13.2031 2.48438
Q11.3281 4.39062 10.25 7.64062
Q9.1875 10.8906 9.1875 15.8281
L9.1875 46.9219
L1.60938 46.9219
L1.60938 50.875
L9.1875 54.6875
L12.9844 65.9219
L18.1094 65.9219
L18.1094 53.6094
L31.5938 53.6094
L31.5938 46.9219
L18.1094 46.9219
L18.1094 15.8281
Q18.1094 11.0781 19.6406 8.6875
Q21.1875 6.29688 24.7031 6.29688" id="WenQuanYiMicroHei-74"/>
      <path d="
M17.3906 0
L8.5 0
L8.5 75.9844
L17.3906 75.9844
z
" id="WenQuanYiMicroHei-6c"/>
     </defs>
     <g style="fill:#555555;" transform="translate(16.318125 148.6833125)rotate(-90.0)scale(0.12 -0.12)">
      <use xlink:href="#WenQuanYiMicroHei-56"/>
      <use x="56.787109375" xlink:href="#WenQuanYiMicroHei-6f"/>
      <use x="114.501953125" xlink:href="#WenQuanYiMicroHei-6c"/>
      <use x="140.380859375" xlink:href="#WenQuanYiMicroHei-74"/>
     </g>
    </g>
   </g>
   <g id="line2d_34">
    <path clip-path="url(#pb7ae6c7e5f)" d="
M47.3937 138.342
L58.5649 114.568
L64.3739 102.699
L69.2892 93.1201
L73.7577 84.884
L77.7793 77.9268
L81.3541 72.1524
L84.9288 66.8022
L88.0568 62.4958
L91.1847 58.5616
L94.3126 55.019
L96.9937 52.3073
L99.6748 49.9059
L102.356 47.8234
L104.59 46.337
L106.824 45.0811
L109.059 44.0588
L111.293 43.2725
L113.527 42.7244
L115.761 42.4157
L117.996 42.3473
L120.23 42.5193
L122.464 42.9313
L124.698 43.5823
L126.932 44.4705
L129.167 45.5939
L131.401 46.9496
L133.635 48.5341
L136.316 50.7321
L138.997 53.246
L141.678 56.0667
L144.359 59.1842
L147.487 63.1811
L150.615 67.547
L154.19 72.9606
L157.765 78.7933
L161.787 85.8094
L166.255 94.1021
L171.17 103.732
L176.979 115.644
L185.023 132.728
L199.322 163.189
L205.131 175.012
L210.046 184.539
L214.514 192.718
L218.536 199.615
L222.111 205.331
L225.686 210.617
L228.814 214.863
L231.941 218.734
L234.623 221.738
L237.304 224.442
L239.985 226.835
L242.666 228.91
L244.9 230.389
L247.134 231.638
L249.368 232.653
L251.603 233.432
L253.837 233.972
L256.071 234.273
L258.305 234.334
L260.54 234.155
L262.774 233.736
L265.008 233.077
L267.242 232.182
L269.477 231.051
L271.711 229.688
L273.945 228.097
L276.626 225.89
L279.307 223.369
L281.988 220.54
L284.669 217.415
L287.797 213.41
L290.925 209.036
L294.5 203.614
L298.075 197.773
L302.096 190.749
L306.565 182.449
L311.48 172.812
L317.289 160.894
L325.332 143.807
L339.632 113.35
L345.441 101.534
L350.356 92.0138
L354.824 83.8432
L358.846 76.9539
L362.421 71.2464
L365.996 65.969
L369.123 61.7307
L372.251 57.8684
L374.932 54.8715
L377.614 52.1756
L380.295 49.7905
L382.976 47.7247
L385.21 46.2525
L387.444 45.0109
L389.678 44.0032
L391.913 43.2316
L394.147 42.6983
L396.381 42.4045
L398.615 42.351
L400.85 42.5379
L403.084 42.9647
L405.318 43.6304
L407.552 44.5333
L409.787 45.6712
L412.021 47.0411
L414.255 48.6397
L416.936 50.8542
L419.617 53.3842
L422.298 56.2205
L424.979 59.353
L428.107 63.3667
L431.235 67.7484
L434.81 73.1789
L438.385 79.0271
L442.406 86.0588
L446.875 94.3665
L451.79 104.01
L457.599 115.934
L465.642 133.025
L479.941 163.477
L485.75 175.287
L490.666 184.8
L493.794 190.568
L493.794 190.568" style="fill:none;stroke:#e24a33;stroke-linecap:square;stroke-width:2;"/>
   </g>
   <g id="line2d_35">
    <path clip-path="url(#pb7ae6c7e5f)" d="
M47.3937 42.3417
L56.7775 42.4355
L60.3523 42.6824
L63.0334 43.064
L65.2676 43.5728
L67.5018 44.3112
L69.2892 45.1066
L71.0766 46.1193
L72.864 47.3842
L74.6514 48.9375
L76.4388 50.8167
L78.2261 53.06
L80.0135 55.7055
L81.8009 58.7904
L83.5883 62.3505
L85.3757 66.4188
L87.1631 71.0245
L88.9505 76.1917
L90.7379 81.9382
L92.9721 89.9504
L95.2063 98.8812
L97.4406 108.701
L100.122 121.57
L103.25 137.846
L107.718 162.59
L112.633 189.748
L115.314 203.373
L117.549 213.484
L119.336 220.469
L120.677 224.926
L122.017 228.616
L122.911 230.609
L123.805 232.2
L124.698 233.366
L125.592 234.086
L126.486 234.341
L126.932 234.289
L127.379 234.114
L128.273 233.388
L129.167 232.152
L130.06 230.394
L130.954 228.109
L131.848 225.293
L133.188 220.074
L134.529 213.677
L135.869 206.138
L137.657 194.419
L139.444 180.986
L141.678 162.22
L144.806 133.589
L149.275 92.6185
L151.062 77.9185
L152.85 65.0674
L154.19 56.9871
L155.531 50.4927
L156.424 47.1447
L157.318 44.6444
L158.212 43.0375
L158.659 42.5814
L159.105 42.3623
L159.552 42.3836
L159.999 42.6483
L160.446 43.1585
L160.893 43.9158
L161.787 46.175
L162.68 49.425
L163.574 53.6538
L164.468 58.8376
L165.808 68.3212
L167.149 79.6955
L168.936 97.3853
L171.17 122.506
L176.979 190.378
L178.767 207.67
L180.107 218.314
L181.001 224.072
L181.895 228.635
L182.788 231.912
L183.235 233.043
L183.682 233.827
L184.129 234.255
L184.576 234.324
L185.023 234.03
L185.469 233.369
L185.916 232.342
L186.363 230.948
L187.257 227.069
L188.15 221.767
L189.044 215.099
L190.385 202.723
L191.725 187.845
L193.513 164.988
L197.087 114.646
L199.322 85.1243
L200.662 69.9528
L202.003 57.5603
L202.896 51.1497
L203.79 46.4008
L204.237 44.6891
L204.684 43.4363
L205.131 42.6527
L205.577 42.3462
L206.024 42.5225
L206.471 43.1847
L206.918 44.3335
L207.365 45.9672
L208.259 50.6691
L209.152 57.2241
L210.046 65.5245
L211.387 80.9118
L212.727 99.219
L214.961 133.879
L218.089 183.052
L219.43 201.283
L220.77 216.283
L221.664 224.041
L222.558 229.743
L223.005 231.767
L223.451 233.216
L223.898 234.078
L224.345 234.341
L224.792 233.999
L225.239 233.051
L225.686 231.498
L226.132 229.344
L227.026 223.279
L227.92 214.979
L228.814 204.627
L230.154 185.805
L231.941 156.255
L235.963 86.9166
L237.304 68.157
L238.197 58.0485
L239.091 50.2444
L239.985 45.0083
L240.432 43.4165
L240.878 42.5328
L241.325 42.3689
L241.772 42.9309
L242.219 44.2197
L242.666 46.2303
L243.113 48.9523
L244.006 56.4604
L244.9 66.5479
L245.794 78.9331
L247.134 101.008
L249.368 143.233
L251.603 184.903
L252.943 205.995
L253.837 217.357
L254.731 226.06
L255.624 231.769
L256.071 233.422
L256.518 234.245
L256.965 234.226
L257.412 233.361
L257.859 231.65
L258.305 229.103
L259.199 221.583
L260.093 211.03
L260.987 197.789
L262.327 173.906
L264.561 128.284
L266.349 92.6418
L267.689 70.0373
L268.583 58.1026
L269.477 49.2744
L269.923 46.1515
L270.37 43.9407
L270.817 42.6696
L271.264 42.3567
L271.711 43.0109
L272.158 44.6313
L272.605 47.2072
L273.051 50.7181
L273.945 60.4133
L274.839 73.3593
L276.179 97.7445
L277.967 135.98
L280.201 183.939
L281.541 207.811
L282.435 220.118
L283.329 228.843
L283.776 231.721
L284.223 233.556
L284.669 234.319
L285.116 233.997
L285.563 232.587
L286.01 230.1
L286.457 226.557
L287.35 216.456
L288.244 202.707
L289.585 176.598
L291.819 125.354
L293.606 86.0707
L294.5 69.675
L295.394 56.5863
L296.287 47.487
L296.734 44.5965
L297.181 42.8728
L297.628 42.344
L298.075 43.0231
L298.522 44.9079
L298.968 47.9811
L299.415 52.2097
L300.309 63.9272
L301.203 79.5052
L302.543 108.388
L306.565 201.69
L307.459 216.626
L308.352 227.365
L308.799 230.954
L309.246 233.276
L309.693 234.294
L310.14 233.986
L310.587 232.35
L311.033 229.402
L311.48 225.176
L312.374 213.12
L313.268 196.814
L314.608 166.371
L318.183 78.8143
L319.077 62.4242
L319.97 50.4743
L320.417 46.4119
L320.864 43.7206
L321.311 42.4475
L321.758 42.6189
L322.205 44.2391
L322.651 47.2907
L323.098 51.7342
L323.992 64.5309
L324.886 81.8953
L326.226 114.19
L329.354 194.585
L330.248 212.287
L331.141 225.302
L331.588 229.763
L332.035 232.747
L332.482 234.198
L332.929 234.085
L333.376 232.403
L333.823 229.171
L334.269 224.437
L335.163 210.77
L336.057 192.255
L337.397 158.075
L340.078 85.978
L340.972 66.8651
L341.866 52.6302
L342.313 47.6798
L342.759 44.3068
L343.206 42.5776
L343.653 42.5301
L344.1 44.1726
L344.547 47.4838
L344.994 52.4124
L345.887 66.7718
L346.781 86.2804
L348.122 122.15
L350.356 184.987
L351.25 205.824
L352.143 221.732
L352.59 227.438
L353.037 231.485
L353.484 233.789
L353.931 234.299
L354.377 232.997
L354.824 229.902
L355.271 225.063
L356.165 210.525
L357.059 190.436
L358.399 153.263
L360.633 88.6687
L361.527 67.8119
L362.421 52.4673
L362.868 47.2771
L363.314 43.9007
L363.761 42.4136
L364.208 42.8535
L364.655 45.22
L365.102 49.4731
L365.549 55.5345
L366.442 72.5844
L367.336 95.0365
L369.123 148.647
L370.464 187.808
L371.358 209.281
L372.251 224.855
L372.698 229.982
L373.145 233.168
L373.592 234.337
L374.039 233.455
L374.486 230.532
L374.932 225.625
L375.379 218.829
L376.273 200.17
L377.167 176.113
L380.741 70.473
L381.635 53.4667
L382.082 47.7163
L382.529 43.9976
L382.976 42.4026
L383.423 42.9759
L383.869 45.7131
L384.316 50.5606
L384.763 57.4162
L385.657 76.5128
L386.55 101.314
L390.125 209.006
L391.019 225.373
L391.466 230.563
L391.913 233.567
L392.359 234.305
L392.806 232.751
L393.253 228.931
L393.7 222.93
L394.594 204.98
L395.487 180.565
L397.275 122.039
L398.615 80.835
L399.509 59.8252
L399.956 52.1113
L400.403 46.5404
L400.85 43.2601
L401.296 42.3613
L401.743 43.8757
L402.19 47.7742
L402.637 53.9672
L403.531 72.5878
L404.424 97.9144
L407.999 210.635
L408.893 226.977
L409.34 231.769
L409.787 234.109
L410.233 233.927
L410.68 231.217
L411.127 226.042
L411.574 218.532
L412.468 197.326
L413.361 169.794
L416.042 79.8939
L416.936 58.3132
L417.383 50.6584
L417.83 45.4047
L418.277 42.7053
L418.723 42.6441
L419.17 45.2322
L419.617 50.4075
L420.064 58.0351
L420.958 79.7677
L421.851 108.073
L424.532 199.482
L425.426 220.599
L425.873 227.774
L426.32 232.386
L426.767 234.292
L427.214 233.428
L427.66 229.809
L428.107 223.53
L428.554 214.765
L429.448 190.832
L430.788 144.441
L432.576 82.1098
L433.469 59.0608
L433.916 50.9159
L434.363 45.3836
L434.81 42.6393
L435.257 42.7754
L435.704 45.7976
L436.15 51.6244
L436.597 60.0887
L437.491 83.8618
L438.832 130.889
L440.619 194.596
L441.513 218.027
L441.959 226.203
L442.406 231.643
L442.853 234.166
L443.3 233.685
L443.747 230.204
L444.194 223.822
L444.641 214.732
L445.534 189.62
L446.875 140.926
L448.215 91.3552
L449.109 64.8814
L449.556 54.9913
L450.003 47.7959
L450.45 43.5382
L450.896 42.3667
L451.343 44.3301
L451.79 49.3742
L452.237 57.3438
L453.131 80.9598
L454.024 112.15
L456.259 195.518
L457.152 219.388
L457.599 227.429
L458.046 232.471
L458.493 234.333
L458.94 232.942
L459.387 228.333
L459.833 220.655
L460.727 197.195
L461.621 165.68
L463.855 80.8119
L464.749 56.7139
L465.196 48.7341
L465.642 43.8844
L466.089 42.3449
L466.536 44.1805
L466.983 49.3372
L467.43 57.6434
L468.323 82.4647
L469.664 133.159
L471.005 185.627
L471.898 213.265
L472.345 223.273
L472.792 230.216
L473.239 233.829
L473.686 233.973
L474.132 230.63
L474.579 223.912
L475.026 214.054
L475.92 186.431
L477.26 133.277
L478.601 81.6256
L479.495 56.5788
L479.941 48.4179
L480.388 43.6237
L480.835 42.3869
L481.282 44.7652
L481.729 50.6798
L482.176 59.9177
L483.069 86.8879
L484.41 140.397
L485.75 193.359
L486.644 219.323
L487.091 227.851
L487.538 232.916
L487.985 234.312
L488.432 231.972
L488.878 225.977
L489.325 216.55
L490.219 188.957
L491.559 134.375
L492.9 81.0239
L493.794 55.5591
L493.794 55.5591" style="fill:none;stroke:#348abd;stroke-dasharray:6.000000,6.000000;stroke-dashoffset:0.0;stroke-width:2.0;"/>
   </g>
   <g id="patch_3">
    <path d="
M47.3937 23.1418
L493.794 23.1418" style="fill:none;stroke:#ffffff;stroke-linecap:square;stroke-linejoin:miter;"/>
   </g>
   <g id="patch_4">
    <path d="
M493.794 253.542
L493.794 23.1418" style="fill:none;stroke:#ffffff;stroke-linecap:square;stroke-linejoin:miter;"/>
   </g>
   <g id="patch_5">
    <path d="
M47.3937 253.542
L493.794 253.542" style="fill:none;stroke:#ffffff;stroke-linecap:square;stroke-linejoin:miter;"/>
   </g>
   <g id="patch_6">
    <path d="
M47.3937 253.542
L47.3937 23.1418" style="fill:none;stroke:#ffffff;stroke-linecap:square;stroke-linejoin:miter;"/>
   </g>
   <g id="text_14">
    <!-- ggplot style -->
    <defs>
     <path id="WenQuanYiMicroHei-20"/>
     <path d="
M49.8125 53.6094
L49.8125 48.0938
L40.1875 46.7812
Q41.5469 45.0625 42.4688 42.4062
Q43.4062 39.75 43.4062 36.375
Q43.4062 32.6719 42.25 29.5156
Q41.1094 26.375 38.7812 24.0781
Q36.4688 21.7812 33.0469 20.4844
Q29.6406 19.1875 25.0938 19.1875
Q24.0312 19.1875 22.9531 19.2031
Q21.875 19.2344 21.1875 19.3906
Q20.3594 18.8906 19.5469 18.2812
Q18.75 17.6719 18.0938 16.8906
Q17.4375 16.1094 17.0156 15.125
Q16.6094 14.1562 16.6094 12.9844
Q16.6094 11.6719 17.1875 10.8594
Q17.7812 10.0625 18.7812 9.625
Q19.7812 9.1875 21.1406 9.03125
Q22.5156 8.89062 24.0312 8.89062
L32.625 8.89062
Q37.1562 8.89062 40.2812 7.73438
Q43.4062 6.59375 45.375 4.64062
Q47.3594 2.6875 48.2344 0.015625
Q49.125 -2.64062 49.125 -5.60938
Q49.125 -9.90625 47.5312 -13.3281
Q45.9531 -16.75 42.6719 -19.1094
Q39.4062 -21.4844 34.3906 -22.75
Q29.3906 -24.0312 22.6094 -24.0312
Q17.3906 -24.0312 13.4844 -23
Q9.57812 -21.9688 6.98438 -20.0156
Q4.39062 -18.0625 3.09375 -15.2969
Q1.8125 -12.5469 1.8125 -9.07812
Q1.8125 -6.15625 2.76562 -3.92188
Q3.71875 -1.70312 5.32812 -0.09375
Q6.9375 1.51562 9.0625 2.53125
Q11.1875 3.5625 13.4844 4.10938
Q11.4219 5.03125 10.1094 7.03125
Q8.79688 9.03125 8.79688 11.625
Q8.79688 14.5938 10.3594 16.7656
Q11.9219 18.9531 15.2812 21
Q13.1875 21.875 11.4531 23.4062
Q9.71875 24.9531 8.51562 26.9219
Q7.32812 28.9062 6.65625 31.25
Q6 33.5938 6 36.0781
Q6 40.4375 7.21875 43.8438
Q8.45312 47.2656 10.8438 49.6562
Q13.2344 52.0469 16.7969 53.3125
Q20.3594 54.5938 25.0938 54.5938
Q26.9062 54.5938 28.8281 54.3125
Q30.7656 54.0469 32.0781 53.6094
z

M10.2031 -8.79688
Q10.2031 -10.5938 10.8281 -12.1562
Q11.4688 -13.7188 12.9062 -14.8438
Q14.3594 -15.9688 16.7188 -16.625
Q19.0938 -17.2812 22.6094 -17.2812
Q31.6875 -17.2812 36.2031 -14.4688
Q40.7188 -11.6719 40.7188 -6.39062
Q40.7188 -4.15625 40.125 -2.73438
Q39.5469 -1.3125 38.2031 -0.5
Q36.8594 0.296875 34.6562 0.578125
Q32.4688 0.875 29.2969 0.875
L20.7031 0.875
Q19 0.875 17.1406 0.484375
Q15.2812 0.09375 13.7344 -0.96875
Q12.2031 -2.04688 11.2031 -3.92188
Q10.2031 -5.8125 10.2031 -8.79688
M14.7031 36.375
Q14.7031 30.7656 17.3281 28.0312
Q19.9688 25.2969 24.8125 25.2969
Q29.6875 25.2969 32.2031 28
Q34.7188 30.7188 34.7188 36.5312
Q34.7188 42.5312 32.1562 45.3594
Q29.5938 48.1875 24.7031 48.1875
Q19.875 48.1875 17.2812 45.25
Q14.7031 42.3281 14.7031 36.375" id="WenQuanYiMicroHei-67"/>
     <path d="
M0.484375 53.6094
L9.71875 53.6094
L20.2188 23.6875
Q20.9062 21.7344 21.6094 19.5781
Q22.3125 17.4375 22.9219 15.2812
Q23.5312 13.1406 23.9688 11.125
Q24.4219 9.125 24.6094 7.42188
L24.9062 7.42188
Q25.1406 8.64062 25.6719 10.7344
Q26.2188 12.8438 26.875 15.2031
Q27.5469 17.5781 28.25 19.875
Q28.9531 22.1719 29.5 23.7812
L39.2031 53.6094
L48.3906 53.6094
L27.2031 -6.98438
Q25.8281 -10.9375 24.2344 -14.0781
Q22.6562 -17.2344 20.5469 -19.4219
Q18.4531 -21.625 15.625 -22.8281
Q12.7969 -24.0312 8.89062 -24.0312
Q6.34375 -24.0312 4.48438 -23.75
Q2.64062 -23.4844 1.3125 -23.1875
L1.3125 -16.1094
Q2.34375 -16.3594 3.90625 -16.5312
Q5.46875 -16.7031 7.17188 -16.7031
Q9.51562 -16.7031 11.2188 -16.1406
Q12.9375 -15.5781 14.2031 -14.5
Q15.4844 -13.4219 16.375 -11.8594
Q17.2812 -10.2969 18.0156 -8.29688
L20.7969 -0.484375
z
" id="WenQuanYiMicroHei-79"/>
     <path d="
M32.7188 -0.984375
Q29.8281 -0.984375 27.4844 -0.34375
Q25.1406 0.296875 23.2656 1.34375
Q21.3906 2.39062 19.9375 3.79688
Q18.5 5.21875 17.3906 6.78125
L16.7969 6.78125
Q16.9375 5.125 17.0938 3.60938
Q17.1875 2.34375 17.2812 1
Q17.3906 -0.34375 17.3906 -1.125
L17.3906 -24.0312
L8.5 -24.0312
L8.5 53.6094
L15.7188 53.6094
L17 46.3906
L17.3906 46.3906
Q18.5 48.0938 19.9219 49.5781
Q21.3438 51.0781 23.2188 52.1719
Q25.0938 53.2656 27.4375 53.9219
Q29.7812 54.5938 32.7188 54.5938
Q37.3125 54.5938 41.0625 52.8281
Q44.8281 51.0781 47.4844 47.5781
Q50.1406 44.0938 51.6094 38.9062
Q53.0781 33.7344 53.0781 26.9062
Q53.0781 20.0156 51.6094 14.8125
Q50.1406 9.625 47.4844 6.10938
Q44.8281 2.59375 41.0625 0.796875
Q37.3125 -0.984375 32.7188 -0.984375
M31 47.2188
Q27.2969 47.2188 24.7344 46.0938
Q22.1719 44.9688 20.5781 42.6719
Q19 40.375 18.2344 36.9531
Q17.4844 33.5469 17.3906 28.9062
L17.3906 26.9062
Q17.3906 21.9688 18.0469 18.1406
Q18.7031 14.3125 20.2812 11.6875
Q21.875 9.07812 24.5156 7.73438
Q27.1562 6.39062 31.1094 6.39062
Q37.7031 6.39062 40.7969 11.7188
Q43.8906 17.0469 43.8906 27
Q43.8906 37.1562 40.7969 42.1875
Q37.7031 47.2188 31 47.2188" id="WenQuanYiMicroHei-70"/>
    </defs>
    <g transform="translate(234.0222125 18.14175)scale(0.144 -0.144)">
     <use xlink:href="#WenQuanYiMicroHei-67"/>
     <use x="51.806640625" xlink:href="#WenQuanYiMicroHei-67"/>
     <use x="103.61328125" xlink:href="#WenQuanYiMicroHei-70"/>
     <use x="162.20703125" xlink:href="#WenQuanYiMicroHei-6c"/>
     <use x="188.0859375" xlink:href="#WenQuanYiMicroHei-6f"/>
     <use x="245.80078125" xlink:href="#WenQuanYiMicroHei-74"/>
     <use x="279.6875" xlink:href="#WenQuanYiMicroHei-20"/>
     <use x="305.6640625" xlink:href="#WenQuanYiMicroHei-73"/>
     <use x="350.78125" xlink:href="#WenQuanYiMicroHei-74"/>
     <use x="384.66796875" xlink:href="#WenQuanYiMicroHei-79"/>
     <use x="433.544921875" xlink:href="#WenQuanYiMicroHei-6c"/>
     <use x="459.423828125" xlink:href="#WenQuanYiMicroHei-65"/>
    </g>
   </g>
   <g id="legend_1">
    <g id="patch_7">
     <path d="
M431.235 56.1272
L489.629 56.1272
L489.629 27.3067
L431.235 27.3067
z
" style="fill:#e5e5e5;stroke:#ffffff;stroke-linejoin:miter;stroke-width:0.5;"/>
    </g>
    <g id="line2d_36">
     <path d="
M437.066 34.0527
L448.728 34.0527" style="fill:none;stroke:#e24a33;stroke-linecap:square;stroke-width:2;"/>
    </g>
    <g id="line2d_37"/>
    <g id="text_15">
     <!-- $sin(x)$ -->
     <defs>
      <path d="
M7.71875 1.70312
Q7.71875 2.29688 7.8125 2.59375
L15.2812 32.4219
Q16.0156 35.2031 16.0156 37.3125
Q16.0156 41.6094 13.0938 41.6094
Q9.96875 41.6094 8.45312 37.8594
Q6.9375 34.125 5.51562 28.4219
Q5.51562 28.125 5.21875 27.9531
Q4.9375 27.7812 4.6875 27.7812
L3.51562 27.7812
Q3.17188 27.7812 2.92188 28.1406
Q2.6875 28.5156 2.6875 28.8125
Q3.76562 33.1562 4.76562 36.1719
Q5.76562 39.2031 7.89062 41.6875
Q10.0156 44.1875 13.1875 44.1875
Q16.9375 44.1875 19.8125 41.8125
Q22.7031 39.4531 22.7031 35.7969
Q25.6875 39.7031 29.6875 41.9375
Q33.6875 44.1875 38.1875 44.1875
Q41.75 44.1875 44.3281 42.9688
Q46.9219 41.75 48.3594 39.2812
Q49.8125 36.8125 49.8125 33.4062
Q49.8125 29.2969 47.9688 23.4844
Q46.1406 17.6719 43.4062 10.5
Q42 7.23438 42 4.5
Q42 1.51562 44.2812 1.51562
Q48.1875 1.51562 50.7969 5.70312
Q53.4219 9.90625 54.5 14.7031
Q54.6875 15.2812 55.3281 15.2812
L56.5 15.2812
Q56.8906 15.2812 57.1562 15.0312
Q57.4219 14.7969 57.4219 14.4062
Q57.4219 14.3125 57.3281 14.1094
Q55.9531 8.45312 52.5625 3.65625
Q49.1719 -1.125 44.0938 -1.125
Q40.5781 -1.125 38.0781 1.29688
Q35.5938 3.71875 35.5938 7.17188
Q35.5938 9.03125 36.375 11.0781
Q37.6406 14.3594 39.2812 18.8906
Q40.9219 23.4375 41.9688 27.5781
Q43.0156 31.7344 43.0156 34.9062
Q43.0156 37.7031 41.8594 39.6562
Q40.7188 41.6094 37.9844 41.6094
Q34.3281 41.6094 31.25 39.9844
Q28.1719 38.375 25.875 35.7188
Q23.5781 33.0625 21.6875 29.3906
L14.8906 2.20312
Q14.5469 0.828125 13.3438 -0.140625
Q12.1562 -1.125 10.6875 -1.125
Q9.46875 -1.125 8.59375 -0.34375
Q7.71875 0.4375 7.71875 1.70312" id="Cmmi10-6e"/>
      <path d="
M31 -24.8125
Q25.4375 -20.4062 21.4062 -14.7188
Q17.3906 -9.03125 14.8125 -2.57812
Q12.25 3.85938 10.9844 10.8906
Q9.71875 17.9219 9.71875 25
Q9.71875 32.1719 10.9844 39.2031
Q12.25 46.2344 14.8594 52.7344
Q17.4844 59.2344 21.5312 64.8906
Q25.5938 70.5625 31 74.8125
Q31 75 31.5 75
L32.4219 75
Q32.7188 75 32.9531 74.7344
Q33.2031 74.4688 33.2031 74.125
Q33.2031 73.6875 33.0156 73.4844
Q28.125 68.7031 24.875 63.2344
Q21.625 57.7656 19.6406 51.5781
Q17.6719 45.4062 16.7969 38.7812
Q15.9219 32.1719 15.9219 25
Q15.9219 -6.78125 32.9062 -23.2969
Q33.2031 -23.5781 33.2031 -24.125
Q33.2031 -24.3594 32.9375 -24.6719
Q32.6719 -25 32.4219 -25
L31.5 -25
Q31 -25 31 -24.8125" id="Cmr10-28"/>
      <path d="
M6.5 -25
Q5.60938 -25 5.60938 -24.125
Q5.60938 -23.6875 5.8125 -23.4844
Q22.9062 -6.78125 22.9062 25
Q22.9062 56.7812 6 73.2969
Q5.60938 73.5312 5.60938 74.125
Q5.60938 74.4688 5.875 74.7344
Q6.15625 75 6.5 75
L7.42188 75
Q7.71875 75 7.90625 74.8125
Q15.0938 69.1406 19.875 61.0312
Q24.6562 52.9375 26.875 43.75
Q29.1094 34.5781 29.1094 25
Q29.1094 17.9219 27.9062 11.0625
Q26.7031 4.20312 24.0938 -2.45312
Q21.4844 -9.125 17.4844 -14.7656
Q13.4844 -20.4062 7.90625 -24.8125
Q7.71875 -25 7.42188 -25
z
" id="Cmr10-29"/>
      <path d="
M8.6875 6.10938
Q11.375 1.51562 19.4844 1.51562
Q23 1.51562 26.1719 2.70312
Q29.3438 3.90625 31.4219 6.29688
Q33.5 8.6875 33.5 12.1094
Q33.5 14.7031 31.6406 16.3594
Q29.7812 18.0156 27.0938 18.6094
L21.6875 19.6719
Q17.9688 20.6094 15.5781 23.1406
Q13.1875 25.6875 13.1875 29.2969
Q13.1875 33.7344 15.5938 37.1562
Q18.0156 40.5781 21.9688 42.375
Q25.9219 44.1875 30.1719 44.1875
Q34.7188 44.1875 38.2969 42.0156
Q41.8906 39.8438 41.8906 35.5938
Q41.8906 33.2969 40.5938 31.5312
Q39.3125 29.7812 37.0156 29.7812
Q35.6875 29.7812 34.7344 30.6406
Q33.7969 31.5 33.7969 32.8125
Q33.7969 33.9844 34.4531 35.0781
Q35.1094 36.1875 36.2031 36.8438
Q37.3125 37.5 38.4844 37.5
Q37.5938 39.6562 35.1719 40.625
Q32.7656 41.6094 29.9844 41.6094
Q27.4375 41.6094 24.8906 40.5781
Q22.3594 39.5469 20.8125 37.5625
Q19.2812 35.5938 19.2812 32.9062
Q19.2812 31.1094 20.5469 29.7344
Q21.8281 28.375 23.6875 27.7812
L29.5 26.6094
Q32.2812 26.0312 34.5938 24.5312
Q36.9219 23.0469 38.25 20.7656
Q39.5938 18.5 39.5938 15.5781
Q39.5938 11.8594 37.5156 8.25
Q35.4531 4.64062 32.4219 2.48438
Q27.0938 -1.125 19.3906 -1.125
Q14.0625 -1.125 9.60938 1.3125
Q5.17188 3.76562 5.17188 8.59375
Q5.17188 11.3281 6.75 13.3438
Q8.34375 15.375 11.0781 15.375
Q12.7031 15.375 13.7969 14.3906
Q14.8906 13.4219 14.8906 11.8125
Q14.8906 9.51562 13.1719 7.8125
Q11.4688 6.10938 9.1875 6.10938
z
" id="Cmmi10-73"/>
      <path d="
M7.8125 7.17188
Q7.8125 9.03125 8.59375 11.0781
L16.7031 32.625
Q18.0156 36.2812 18.0156 38.625
Q18.0156 41.6094 15.8281 41.6094
Q11.8594 41.6094 9.29688 37.5312
Q6.73438 33.4531 5.51562 28.4219
Q5.32812 27.7812 4.6875 27.7812
L3.51562 27.7812
Q2.6875 27.7812 2.6875 28.7188
L2.6875 29
Q4.29688 34.9688 7.60938 39.5781
Q10.9375 44.1875 16.0156 44.1875
Q19.5781 44.1875 22.0469 41.8438
Q24.5156 39.5 24.5156 35.8906
Q24.5156 34.0312 23.6875 31.9844
L15.5781 10.5
Q14.2031 7.17188 14.2031 4.5
Q14.2031 1.51562 16.5 1.51562
Q20.4062 1.51562 23.0156 5.6875
Q25.6406 9.85938 26.7031 14.7031
Q26.9062 15.2812 27.4844 15.2812
L28.7188 15.2812
Q29.1094 15.2812 29.3438 15.0156
Q29.5938 14.75 29.5938 14.4062
Q29.5938 14.3125 29.5 14.1094
Q28.125 8.45312 24.7344 3.65625
Q21.3438 -1.125 16.3125 -1.125
Q12.7969 -1.125 10.2969 1.29688
Q7.8125 3.71875 7.8125 7.17188
M19.0938 60.5938
Q19.0938 62.7031 20.8438 64.4062
Q22.6094 66.1094 24.7031 66.1094
Q26.4219 66.1094 27.5156 65.0625
Q28.6094 64.0156 28.6094 62.4062
Q28.6094 60.1562 26.8281 58.4688
Q25.0469 56.7812 22.9062 56.7812
Q21.2969 56.7812 20.1875 57.875
Q19.0938 58.9844 19.0938 60.5938" id="Cmmi10-69"/>
      <path d="
M7.8125 2.875
Q9.57812 1.51562 12.7969 1.51562
Q15.9219 1.51562 18.3125 4.51562
Q20.7031 7.51562 21.5781 11.0781
L26.125 28.8125
Q27.2031 33.6406 27.2031 35.4062
Q27.2031 37.8906 25.8125 39.75
Q24.4219 41.6094 21.9219 41.6094
Q18.75 41.6094 15.9688 39.625
Q13.1875 37.6406 11.2812 34.5938
Q9.375 31.5469 8.59375 28.4219
Q8.40625 27.7812 7.8125 27.7812
L6.59375 27.7812
Q5.8125 27.7812 5.8125 28.7188
L5.8125 29
Q6.78125 32.7188 9.125 36.25
Q11.4688 39.7969 14.8594 41.9844
Q18.2656 44.1875 22.125 44.1875
Q25.7812 44.1875 28.7344 42.2344
Q31.6875 40.2812 32.9062 36.9219
Q34.625 39.9844 37.2812 42.0781
Q39.9375 44.1875 43.1094 44.1875
Q45.2656 44.1875 47.5 43.4219
Q49.75 42.6719 51.1719 41.1094
Q52.5938 39.5469 52.5938 37.2031
Q52.5938 34.6719 50.9531 32.8281
Q49.3125 31 46.7812 31
Q45.1719 31 44.0938 32.0312
Q43.0156 33.0625 43.0156 34.625
Q43.0156 36.7188 44.4531 38.2969
Q45.9062 39.8906 47.9062 40.1875
Q46.0938 41.6094 42.9219 41.6094
Q39.7031 41.6094 37.3281 38.625
Q34.9688 35.6406 33.9844 31.9844
L29.5938 14.3125
Q28.5156 10.2969 28.5156 7.71875
Q28.5156 5.17188 29.9531 3.34375
Q31.3906 1.51562 33.7969 1.51562
Q38.4844 1.51562 42.1562 5.64062
Q45.8438 9.76562 47.0156 14.7031
Q47.2188 15.2812 47.7969 15.2812
L49.0312 15.2812
Q49.4219 15.2812 49.6562 15.0156
Q49.9062 14.75 49.9062 14.4062
Q49.9062 14.3125 49.8125 14.1094
Q48.3906 8.15625 43.8438 3.51562
Q39.3125 -1.125 33.5938 -1.125
Q29.9375 -1.125 26.9844 0.84375
Q24.0312 2.82812 22.7969 6.20312
Q21.2344 3.26562 18.4688 1.0625
Q15.7188 -1.125 12.5938 -1.125
Q10.4531 -1.125 8.17188 -0.359375
Q5.90625 0.390625 4.48438 1.95312
Q3.07812 3.51562 3.07812 5.90625
Q3.07812 8.25 4.70312 10.1719
Q6.34375 12.1094 8.79688 12.1094
Q10.4531 12.1094 11.5781 11.1094
Q12.7031 10.1094 12.7031 8.5
Q12.7031 6.39062 11.2969 4.82812
Q9.90625 3.26562 7.8125 2.875" id="Cmmi10-78"/>
     </defs>
     <g transform="translate(457.8914125 36.9682484375)scale(0.0833 -0.0833)">
      <use xlink:href="#Cmmi10-73"/>
      <use transform="translate(46.77734375 0.0)" xlink:href="#Cmmi10-69"/>
      <use transform="translate(81.201171875 0.0)" xlink:href="#Cmmi10-6e"/>
      <use transform="translate(141.2109375 0.0)" xlink:href="#Cmr10-28"/>
      <use transform="translate(180.029296875 0.0)" xlink:href="#Cmmi10-78"/>
      <use transform="translate(237.109375 0.0)" xlink:href="#Cmr10-29"/>
     </g>
    </g>
    <g id="line2d_38">
     <path d="
M437.066 47.7972
L448.728 47.7972" style="fill:none;stroke:#348abd;stroke-dasharray:6.000000,6.000000;stroke-dashoffset:0.0;stroke-width:2.0;"/>
    </g>
    <g id="line2d_39"/>
    <g id="text_16">
     <!-- $cos(x^2)$ -->
     <defs>
      <path d="
M4.98438 0
L4.98438 2.6875
Q4.98438 2.9375 5.17188 3.21875
L20.7031 20.4062
Q24.2188 24.2188 26.4062 26.7969
Q28.6094 29.3906 30.75 32.7656
Q32.9062 36.1406 34.1562 39.625
Q35.4062 43.1094 35.4062 47.0156
Q35.4062 51.125 33.8906 54.8594
Q32.375 58.5938 29.375 60.8438
Q26.375 63.0938 22.125 63.0938
Q17.7812 63.0938 14.3125 60.4688
Q10.8438 57.8594 9.42188 53.7188
Q9.8125 53.8125 10.5 53.8125
Q12.75 53.8125 14.3281 52.2969
Q15.9219 50.7812 15.9219 48.3906
Q15.9219 46.0938 14.3281 44.5
Q12.75 42.9219 10.5 42.9219
Q8.15625 42.9219 6.5625 44.5469
Q4.98438 46.1875 4.98438 48.3906
Q4.98438 52.1562 6.39062 55.4375
Q7.8125 58.7344 10.4688 61.2969
Q13.1406 63.875 16.4844 65.2344
Q19.8281 66.6094 23.5781 66.6094
Q29.2969 66.6094 34.2188 64.1875
Q39.1562 61.7656 42.0312 57.3438
Q44.9219 52.9375 44.9219 47.0156
Q44.9219 42.6719 43.0156 38.7656
Q41.1094 34.8594 38.125 31.6562
Q35.1562 28.4688 30.5156 24.4062
Q25.875 20.3594 24.4219 19
L13.0938 8.10938
L22.7031 8.10938
Q29.7812 8.10938 34.5469 8.21875
Q39.3125 8.34375 39.5938 8.59375
Q40.7656 9.85938 42 17.8281
L44.9219 17.8281
L42.0938 0
z
" id="Cmr10-32"/>
      <path d="
M11.7188 11.9219
Q11.7188 7.5625 13.9375 4.53125
Q16.1562 1.51562 20.3125 1.51562
Q26.2656 1.51562 31.75 4.25
Q37.25 6.98438 40.7188 11.8125
Q41.0156 12.1094 41.5 12.1094
Q42 12.1094 42.5 11.5469
Q43.0156 10.9844 43.0156 10.5
Q43.0156 10.1094 42.8281 9.90625
Q39.1562 4.78125 32.9531 1.82812
Q26.7656 -1.125 20.125 -1.125
Q15.3281 -1.125 11.6719 1.14062
Q8.01562 3.42188 6 7.21875
Q4 11.0312 4 15.8281
Q4 22.5625 7.76562 29.2031
Q11.5312 35.8438 17.7812 40.0156
Q24.0312 44.1875 30.9062 44.1875
Q35.4062 44.1875 38.9844 42.0156
Q42.5781 39.8438 42.5781 35.5938
Q42.5781 32.8594 40.9844 30.9219
Q39.4062 29 36.7188 29
Q35.1094 29 34 30
Q32.9062 31 32.9062 32.625
Q32.9062 34.9688 34.6094 36.625
Q36.3281 38.2812 38.625 38.2812
L38.8125 38.2812
Q37.6406 39.9844 35.4219 40.7969
Q33.2031 41.6094 30.8125 41.6094
Q24.9531 41.6094 20.5469 36.5938
Q16.1562 31.5938 13.9375 24.625
Q11.7188 17.6719 11.7188 11.9219" id="Cmmi10-63"/>
      <path d="
M20.125 -1.125
Q15.375 -1.125 11.6875 1.125
Q8.01562 3.375 6 7.17188
Q4 10.9844 4 15.8281
Q4 22.6094 7.78125 29.25
Q11.5781 35.8906 17.8438 40.0312
Q24.125 44.1875 31 44.1875
Q34.7188 44.1875 37.625 42.9219
Q40.5312 41.6562 42.6719 39.3594
Q44.8281 37.0625 45.9688 33.9844
Q47.125 30.9062 47.125 27.2969
Q47.125 22.0781 44.9219 17.0156
Q42.7188 11.9688 38.8906 7.84375
Q35.0625 3.71875 30.125 1.29688
Q25.2031 -1.125 20.125 -1.125
M20.3125 1.51562
Q24.75 1.51562 28.4375 4.53125
Q32.125 7.5625 34.4844 12.1719
Q36.8594 16.7969 38.125 21.9219
Q39.4062 27.0469 39.4062 31.2031
Q39.4062 35.5469 37.2344 38.5781
Q35.0625 41.6094 30.8125 41.6094
Q24.9531 41.6094 20.5469 36.5938
Q16.1562 31.5938 13.9375 24.625
Q11.7188 17.6719 11.7188 11.9219
Q11.7188 7.5625 13.9375 4.53125
Q16.1562 1.51562 20.3125 1.51562" id="Cmmi10-6f"/>
     </defs>
     <g transform="translate(457.8914125 50.7127484375)scale(0.0833 -0.0833)">
      <use transform="translate(0.0 0.8578125)" xlink:href="#Cmmi10-63"/>
      <use transform="translate(43.212890625 0.8578125)" xlink:href="#Cmmi10-6f"/>
      <use transform="translate(91.6015625 0.8578125)" xlink:href="#Cmmi10-73"/>
      <use transform="translate(138.37890625 0.8578125)" xlink:href="#Cmr10-28"/>
      <use transform="translate(177.197265625 0.8578125)" xlink:href="#Cmmi10-78"/>
      <use transform="translate(234.27734375 43.3734375)scale(0.7)" xlink:href="#Cmr10-32"/>
      <use transform="translate(301.28359375 0.8578125)" xlink:href="#Cmr10-29"/>
     </g>
    </g>
   </g>
  </g>
 </g>
 <defs>
  <clipPath id="pb7ae6c7e5f">
   <rect height="230.4" width="446.4" x="47.3937125" y="23.14175"/>
  </clipPath>
 </defs>
</svg>
