<?xml version="1.0" encoding="utf-8" standalone="no"?>
<!DOCTYPE svg PUBLIC "-//W3C//DTD SVG 1.1//EN"
  "http://www.w3.org/Graphics/SVG/1.1/DTD/svg11.dtd">
<!-- Created with matplotlib (http://matplotlib.org/) -->
<svg height="234pt" version="1.1" viewBox="0 0 394 234" width="394pt" xmlns="http://www.w3.org/2000/svg" xmlns:xlink="http://www.w3.org/1999/xlink">
 <defs>
  <style type="text/css">
*{stroke-linecap:butt;stroke-linejoin:round;}
  </style>
 </defs>
 <g id="figure_1">
  <g id="patch_1">
   <path d="
M0 234.932
L394.174 234.932
L394.174 2.84217e-14
L0 2.84217e-14
z
" style="fill:#ffffff;"/>
  </g>
  <g id="axes_1">
   <g id="patch_2">
    <path d="
M47.3365 196.047
L382.136 196.047
L382.136 23.2469
L47.3365 23.2469
z
" style="fill:#ffffff;"/>
   </g>
   <g id="line2d_1">
    <path clip-path="url(#pad611bffd3)" d="
M47.3365 109.647
L56.3851 86.5788
L61.4121 74.3832
L65.4338 65.1855
L69.1202 57.314
L72.4716 50.7058
L75.4878 45.2612
L78.1689 40.8587
L80.85 36.8971
L83.1959 33.8124
L85.5419 31.0998
L87.5527 29.0811
L89.5635 27.353
L91.5743 25.9216
L93.5851 24.7922
L95.2608 24.0846
L96.9365 23.5913
L98.6121 23.3135
L100.288 23.2519
L101.963 23.4067
L103.639 23.7775
L105.315 24.3634
L106.991 25.1628
L109.001 26.4012
L111.012 27.9398
L113.023 29.7731
L115.034 31.8944
L117.38 34.723
L119.726 37.9193
L122.072 41.4677
L124.753 45.9316
L127.769 51.4401
L130.785 57.4207
L134.136 64.5604
L137.823 72.9325
L142.18 83.3919
L147.877 97.711
L164.299 139.427
L168.655 149.7
L172.342 157.87
L175.693 164.793
L178.709 170.553
L181.726 175.82
L184.407 180.051
L186.753 183.385
L189.099 186.357
L191.445 188.952
L193.455 190.867
L195.466 192.489
L197.477 193.813
L199.488 194.833
L201.163 195.448
L202.839 195.849
L204.515 196.033
L206.191 196.002
L207.866 195.754
L209.542 195.29
L211.218 194.612
L212.893 193.721
L214.904 192.374
L216.915 190.729
L218.926 188.792
L220.936 186.569
L223.282 183.625
L225.628 180.319
L228.309 176.116
L230.991 171.488
L234.007 165.809
L237.358 158.966
L241.045 150.872
L245.066 141.476
L250.093 129.103
L257.466 110.244
L266.85 86.3207
L271.877 74.1388
L275.899 64.956
L279.585 57.1011
L282.936 50.5102
L285.953 45.0829
L288.634 40.6969
L291.315 36.7529
L293.661 33.6843
L296.007 30.9886
L298.018 28.9848
L300.028 27.2718
L302.039 25.8559
L304.05 24.7421
L305.726 24.0478
L307.401 23.5678
L309.077 23.3034
L310.753 23.2552
L312.428 23.4234
L314.104 23.8076
L315.78 24.4067
L317.455 25.2193
L319.466 26.4733
L321.477 28.0273
L323.488 29.8756
L325.499 32.0116
L327.845 34.8568
L330.191 38.069
L332.536 41.6326
L335.218 46.1128
L338.234 51.6384
L341.25 57.6344
L344.601 64.7891
L348.288 73.1752
L352.645 83.6473
L358.342 97.9764
L374.428 138.866
L378.785 149.17
L382.136 156.65
L382.136 156.65" style="fill:none;stroke:#348abd;stroke-linecap:square;stroke-width:2.0;"/>
   </g>
   <g id="patch_3">
    <path d="
M47.3365 23.2469
L382.136 23.2469" style="fill:none;stroke:#000000;stroke-linecap:square;stroke-linejoin:miter;"/>
   </g>
   <g id="patch_4">
    <path d="
M382.136 196.047
L382.136 23.2469" style="fill:none;stroke:#000000;stroke-linecap:square;stroke-linejoin:miter;"/>
   </g>
   <g id="patch_5">
    <path d="
M47.3365 196.047
L382.136 196.047" style="fill:none;stroke:#000000;stroke-linecap:square;stroke-linejoin:miter;"/>
   </g>
   <g id="patch_6">
    <path d="
M47.3365 196.047
L47.3365 23.2469" style="fill:none;stroke:#000000;stroke-linecap:square;stroke-linejoin:miter;"/>
   </g>
   <g id="matplotlib.axis_1">
    <g id="xtick_1">
     <g id="line2d_2">
      <defs>
       <path d="
M0 0
L0 -4" id="m93b0483c22" style="stroke:#000000;stroke-width:0.5;"/>
      </defs>
      <g>
       <use style="stroke:#000000;stroke-width:0.5;" x="47.336455" xlink:href="#m93b0483c22" y="196.046875"/>
      </g>
     </g>
     <g id="line2d_3">
      <defs>
       <path d="
M0 0
L0 4" id="m741efc42ff" style="stroke:#000000;stroke-width:0.5;"/>
      </defs>
      <g>
       <use style="stroke:#000000;stroke-width:0.5;" x="47.336455" xlink:href="#m741efc42ff" y="23.246875"/>
      </g>
     </g>
     <g id="text_1">
      <!-- 0 -->
      <defs>
       <path d="
M50.3906 35.7969
Q50.3906 27.1562 49.1406 20.3125
Q47.9062 13.4844 45.1406 8.73438
Q42.3906 4 38.0312 1.5
Q33.6875 -0.984375 27.4844 -0.984375
Q21.7344 -0.984375 17.4531 1.5
Q13.1875 4 10.375 8.73438
Q7.5625 13.4844 6.17188 20.3125
Q4.78125 27.1562 4.78125 35.7969
Q4.78125 44.4375 6.03125 51.2656
Q7.28125 58.1094 9.98438 62.8125
Q12.7031 67.5312 17.0156 70.0156
Q21.3438 72.5156 27.4844 72.5156
Q33.2969 72.5156 37.5938 70.0469
Q41.8906 67.5781 44.7188 62.8594
Q47.5625 58.1562 48.9688 51.3125
Q50.3906 44.4844 50.3906 35.7969
M13.8125 35.7969
Q13.8125 28.4688 14.5469 23
Q15.2812 17.5312 16.8906 13.8906
Q18.5 10.25 21.1094 8.42188
Q23.7344 6.59375 27.4844 6.59375
Q31.25 6.59375 33.8906 8.39062
Q36.5312 10.2031 38.2031 13.8125
Q39.8906 17.4375 40.6406 22.9219
Q41.4062 28.4219 41.4062 35.7969
Q41.4062 43.1094 40.6406 48.5781
Q39.8906 54.0469 38.2031 57.6562
Q36.5312 61.2812 33.8906 63.0781
Q31.25 64.8906 27.4844 64.8906
Q23.7344 64.8906 21.1094 63.0781
Q18.5 61.2812 16.8906 57.6562
Q15.2812 54.0469 14.5469 48.5781
Q13.8125 43.1094 13.8125 35.7969" id="WenQuanYiMicroHei-30"/>
      </defs>
      <g transform="translate(45.0568984375 207.642273125)scale(0.09996 -0.09996)">
       <use xlink:href="#WenQuanYiMicroHei-30"/>
      </g>
     </g>
    </g>
    <g id="xtick_2">
     <g id="line2d_4">
      <g>
       <use style="stroke:#000000;stroke-width:0.5;" x="114.296455" xlink:href="#m93b0483c22" y="196.046875"/>
      </g>
     </g>
     <g id="line2d_5">
      <g>
       <use style="stroke:#000000;stroke-width:0.5;" x="114.296455" xlink:href="#m741efc42ff" y="23.246875"/>
      </g>
     </g>
     <g id="text_2">
      <!-- 2 -->
      <defs>
       <path d="
M49.2188 0
L4.6875 0
L4.6875 7.625
L21.7812 26.2188
Q25.4375 30.1719 28.3125 33.4375
Q31.2031 36.7188 33.2188 39.8438
Q35.25 42.9688 36.3281 46.1094
Q37.4062 49.2656 37.4062 52.9844
Q37.4062 55.8594 36.5781 58.0469
Q35.75 60.25 34.2031 61.7812
Q32.6719 63.3281 30.5625 64.1094
Q28.4688 64.8906 25.875 64.8906
Q21.2344 64.8906 17.5 63.0156
Q13.7656 61.1406 10.4062 58.2031
L5.42188 64.0156
Q7.375 65.7656 9.60938 67.2969
Q11.8594 68.8438 14.4531 69.9688
Q17.0469 71.0938 19.9219 71.75
Q22.7969 72.4062 25.9844 72.4062
Q30.6719 72.4062 34.4531 71.0938
Q38.2344 69.7812 40.8594 67.3125
Q43.5 64.8438 44.9375 61.2969
Q46.3906 57.7656 46.3906 53.3281
Q46.3906 49.1719 45.0938 45.4062
Q43.7969 41.6562 41.5312 38.0156
Q39.2656 34.375 36.1094 30.7031
Q32.9531 27.0469 29.2969 23.0938
L15.5781 8.5
L15.5781 8.10938
L49.2188 8.10938
z
" id="WenQuanYiMicroHei-32"/>
      </defs>
      <g transform="translate(112.070783125 207.642273125)scale(0.09996 -0.09996)">
       <use xlink:href="#WenQuanYiMicroHei-32"/>
      </g>
     </g>
    </g>
    <g id="xtick_3">
     <g id="line2d_6">
      <g>
       <use style="stroke:#000000;stroke-width:0.5;" x="181.256455" xlink:href="#m93b0483c22" y="196.046875"/>
      </g>
     </g>
     <g id="line2d_7">
      <g>
       <use style="stroke:#000000;stroke-width:0.5;" x="181.256455" xlink:href="#m741efc42ff" y="23.246875"/>
      </g>
     </g>
     <g id="text_3">
      <!-- 4 -->
      <defs>
       <path d="
M53.0781 16.0156
L42.6719 16.0156
L42.6719 0
L34.0781 0
L34.0781 16.0156
L1.125 16.0156
L1.125 23.7812
L33.5 71.7812
L42.6719 71.7812
L42.6719 24.125
L53.0781 24.125
z

M34.0781 24.125
L34.0781 41.5
Q34.0781 44.2344 34.1562 47.2344
Q34.2344 50.25 34.3281 53.0938
Q34.4219 55.9531 34.5469 58.4375
Q34.6719 60.9375 34.7188 62.5938
L34.2812 62.5938
Q33.9375 61.625 33.4219 60.4219
Q32.9062 59.2344 32.2969 58.0312
Q31.6875 56.8438 31.0469 55.7188
Q30.4219 54.5938 29.8906 53.8125
L9.8125 24.125
z
" id="WenQuanYiMicroHei-34"/>
      </defs>
      <g transform="translate(178.659837813 207.642273125)scale(0.09996 -0.09996)">
       <use xlink:href="#WenQuanYiMicroHei-34"/>
      </g>
     </g>
    </g>
    <g id="xtick_4">
     <g id="line2d_8">
      <g>
       <use style="stroke:#000000;stroke-width:0.5;" x="248.216455" xlink:href="#m93b0483c22" y="196.046875"/>
      </g>
     </g>
     <g id="line2d_9">
      <g>
       <use style="stroke:#000000;stroke-width:0.5;" x="248.216455" xlink:href="#m741efc42ff" y="23.246875"/>
      </g>
     </g>
     <g id="text_4">
      <!-- 6 -->
      <defs>
       <path d="
M5.51562 30.5156
Q5.51562 35.6406 6.03125 40.7188
Q6.54688 45.7969 7.82812 50.4531
Q9.125 55.125 11.375 59.125
Q13.625 63.1406 17.0938 66.0938
Q20.5625 69.0469 25.3906 70.7188
Q30.2188 72.4062 36.7188 72.4062
Q37.6406 72.4062 38.7656 72.3594
Q39.8906 72.3125 41.0312 72.1875
Q42.1875 72.0781 43.2344 71.9062
Q44.2812 71.7344 45.125 71.4844
L45.125 63.9219
Q43.4062 64.5 41.25 64.7969
Q39.1094 65.0938 37.0156 65.0938
Q32.625 65.0938 29.2656 64.0312
Q25.9219 62.9844 23.4844 61.0781
Q21.0469 59.1875 19.4062 56.5469
Q17.7812 53.9062 16.75 50.7031
Q15.7188 47.5156 15.2344 43.8906
Q14.75 40.2812 14.5938 36.375
L15.1875 36.375
Q16.1562 38.1406 17.5469 39.6719
Q18.9531 41.2188 20.7969 42.3125
Q22.6562 43.4062 24.9688 44.0312
Q27.2969 44.6719 30.1719 44.6719
Q34.8125 44.6719 38.5625 43.2344
Q42.3281 41.7969 44.9688 39.0156
Q47.6094 36.2344 49.0469 32.2031
Q50.4844 28.1719 50.4844 23
Q50.4844 17.4375 48.9688 12.9844
Q47.4688 8.54688 44.625 5.4375
Q41.7969 2.34375 37.7969 0.671875
Q33.7969 -0.984375 28.8125 -0.984375
Q23.9219 -0.984375 19.6406 0.921875
Q15.375 2.82812 12.25 6.73438
Q9.125 10.6406 7.3125 16.5469
Q5.51562 22.4688 5.51562 30.5156
M28.7188 6.5
Q31.6406 6.5 34.0469 7.5
Q36.4688 8.5 38.2188 10.5156
Q39.9844 12.5469 40.9375 15.6406
Q41.8906 18.75 41.8906 23
Q41.8906 26.4219 41.0781 29.125
Q40.2812 31.8438 38.6719 33.7344
Q37.0625 35.6406 34.6406 36.6719
Q32.2344 37.7031 29 37.7031
Q25.7344 37.7031 23.0156 36.5469
Q20.3125 35.4062 18.4062 33.5625
Q16.5 31.7344 15.4531 29.3906
Q14.4062 27.0469 14.4062 24.7031
Q14.4062 21.4375 15.3125 18.1875
Q16.2188 14.9375 18 12.3438
Q19.7812 9.76562 22.4531 8.125
Q25.1406 6.5 28.7188 6.5" id="WenQuanYiMicroHei-36"/>
      </defs>
      <g transform="translate(245.968916875 207.642273125)scale(0.09996 -0.09996)">
       <use xlink:href="#WenQuanYiMicroHei-36"/>
      </g>
     </g>
    </g>
    <g id="xtick_5">
     <g id="line2d_10">
      <g>
       <use style="stroke:#000000;stroke-width:0.5;" x="315.176455" xlink:href="#m93b0483c22" y="196.046875"/>
      </g>
     </g>
     <g id="line2d_11">
      <g>
       <use style="stroke:#000000;stroke-width:0.5;" x="315.176455" xlink:href="#m741efc42ff" y="23.246875"/>
      </g>
     </g>
     <g id="text_5">
      <!-- 8 -->
      <defs>
       <path d="
M27.5938 72.5156
Q31.6875 72.5156 35.3281 71.4375
Q38.9688 70.3594 41.7188 68.2031
Q44.4844 66.0625 46.0938 62.8438
Q47.7031 59.625 47.7031 55.3281
Q47.7031 52.0469 46.7188 49.4062
Q45.75 46.7812 44.0312 44.6562
Q42.3281 42.5312 39.9844 40.8438
Q37.6406 39.1562 34.9062 37.7969
Q37.75 36.2812 40.4531 34.4219
Q43.1719 32.5625 45.2812 30.25
Q47.4062 27.9375 48.7031 25.0469
Q50 22.1719 50 18.6094
Q50 14.1094 48.3594 10.4688
Q46.7344 6.84375 43.7812 4.29688
Q40.8281 1.76562 36.6875 0.390625
Q32.5625 -0.984375 27.5938 -0.984375
Q22.2188 -0.984375 18.0469 0.328125
Q13.875 1.65625 11.0156 4.125
Q8.15625 6.59375 6.65625 10.1562
Q5.17188 13.7188 5.17188 18.2188
Q5.17188 21.875 6.26562 24.7969
Q7.375 27.7344 9.21875 30.0781
Q11.0781 32.4219 13.6094 34.2188
Q16.1562 36.0312 19 37.4062
Q16.6094 38.9219 14.5 40.7031
Q12.4062 42.4844 10.8594 44.6719
Q9.32812 46.875 8.42188 49.5312
Q7.51562 52.2031 7.51562 55.4219
Q7.51562 59.6719 9.15625 62.8594
Q10.7969 66.0625 13.5781 68.2031
Q16.3594 70.3594 20 71.4375
Q23.6406 72.5156 27.5938 72.5156
M13.9219 18.1094
Q13.9219 15.5312 14.7031 13.3594
Q15.4844 11.1875 17.1406 9.64062
Q18.7969 8.10938 21.3281 7.25
Q23.875 6.39062 27.3906 6.39062
Q30.8125 6.39062 33.4219 7.25
Q36.0312 8.10938 37.7812 9.6875
Q39.5469 11.2812 40.4219 13.5156
Q41.3125 15.7656 41.3125 18.5
Q41.3125 21.0469 40.3594 23.0938
Q39.4062 25.1406 37.625 26.8906
Q35.8438 28.6562 33.3438 30.2188
Q30.8594 31.7812 27.7812 33.2969
L26.3125 33.9844
Q20.1719 31.0625 17.0469 27.2656
Q13.9219 23.4844 13.9219 18.1094
M27.4844 65.0938
Q22.3125 65.0938 19.2656 62.5
Q16.2188 59.9062 16.2188 54.9844
Q16.2188 52.2031 17.0625 50.1875
Q17.9219 48.1875 19.4375 46.625
Q20.9531 45.0625 23.0781 43.8125
Q25.2031 42.5781 27.6875 41.4062
Q30.0312 42.4844 32.1094 43.75
Q34.1875 45.0156 35.7188 46.625
Q37.25 48.25 38.125 50.2969
Q39.0156 52.3438 39.0156 54.9844
Q39.0156 59.9062 35.9375 62.5
Q32.8594 65.0938 27.4844 65.0938" id="WenQuanYiMicroHei-38"/>
      </defs>
      <g transform="translate(312.935945313 207.642273125)scale(0.09996 -0.09996)">
       <use xlink:href="#WenQuanYiMicroHei-38"/>
      </g>
     </g>
    </g>
    <g id="xtick_6">
     <g id="line2d_12">
      <g>
       <use style="stroke:#000000;stroke-width:0.5;" x="382.136455" xlink:href="#m93b0483c22" y="196.046875"/>
      </g>
     </g>
     <g id="line2d_13">
      <g>
       <use style="stroke:#000000;stroke-width:0.5;" x="382.136455" xlink:href="#m741efc42ff" y="23.246875"/>
      </g>
     </g>
     <g id="text_6">
      <!-- 10 -->
      <defs>
       <path d="
M34.7188 0
L26.125 0
L26.125 44.5781
Q26.125 46.6875 26.1406 49.0781
Q26.1719 51.4688 26.2344 53.8281
Q26.3125 56.2031 26.3906 58.375
Q26.4688 60.5469 26.5156 62.2031
Q25.6875 61.3281 25.0469 60.6875
Q24.4219 60.0625 23.75 59.4688
Q23.0938 58.8906 22.3594 58.2188
Q21.625 57.5625 20.6094 56.6875
L13.375 50.7812
L8.6875 56.7812
L27.3906 71.3906
L34.7188 71.3906
z
" id="WenQuanYiMicroHei-31"/>
      </defs>
      <g transform="translate(377.299328125 207.642273125)scale(0.09996 -0.09996)">
       <use xlink:href="#WenQuanYiMicroHei-31"/>
       <use x="55.078125" xlink:href="#WenQuanYiMicroHei-30"/>
      </g>
     </g>
    </g>
    <g id="text_7">
     <!-- 时间 -->
     <defs>
      <path d="
M33.5938 8.20312
Q33.9844 20.7031 33.9844 33
Q33.9844 45.3125 33.5938 57.4219
L39.4531 53.9062
L58.5938 53.9062
L62.5 57.8125
L67.5781 52.7344
L64.4531 50
Q64.4531 24.2188 64.8438 12.1094
L59.375 8.98438
L59.375 15.2344
L39.0625 15.2344
L39.0625 10.9375
z

M39.0625 51.5625
L39.0625 36.3281
L59.375 36.3281
L59.375 51.5625
z

M39.0625 33.9844
L39.0625 17.5781
L59.375 17.5781
L59.375 33.9844
z

M19.9219 81.25
Q28.9062 75.3906 31.0469 72.0625
Q33.2031 68.75 30.4688 64.6406
Q27.7344 60.5469 25.9688 66.5938
Q24.2188 72.6562 18.75 80.0781
z

M17.5781 6.64062
Q17.5781 0.390625 17.9688 -5.85938
L11.7188 -8.20312
Q12.1094 -2.34375 12.1094 30.4688
Q12.1094 63.2812 11.7188 69.1406
L21.0938 64.4531
L17.5781 62.1094
z

M66.0156 1.95312
Q78.5156 0 80.0781 0.578125
Q81.6406 1.17188 81.6406 3.90625
L81.6406 69.5312
L50.3906 69.5312
Q45.3125 69.5312 41.0156 68.3594
L37.5 71.875
L80.8594 71.875
L84.7656 75.7812
L90.2344 70.3125
L87.1094 67.9688
L87.1094 3.51562
Q87.1094 -1.5625 85.3438 -3.90625
Q83.5938 -6.25 78.125 -8.59375
Q75 -1.95312 66.0156 0.390625
z
" id="SimSun-95f4"/>
      <path d="
M70.3125 56.25
Q70.3125 71.4844 69.9219 81.6406
L79.6875 76.5625
L75.7812 73.8281
L75.7812 56.25
L81.6406 56.25
L86.7188 61.3281
L94.1406 53.9062
L75.7812 53.9062
L75.7812 1.5625
Q75.7812 -5.85938 67.1875 -8.98438
Q66.7969 -3.125 54.2969 -0.390625
L54.2969 1.5625
Q64.8438 0 67.5781 0.390625
Q70.3125 0.78125 70.3125 5.07812
L70.3125 53.9062
L50 53.9062
Q44.9219 53.9062 40.625 52.7344
L37.1094 56.25
z

M44.9219 44.1406
Q55.0781 37.1094 57.4219 33.3906
Q59.7656 29.6875 56.6406 25.1875
Q53.5156 20.7031 51.75 27.7344
Q50 34.7656 43.75 42.9688
z

M14.4531 64.8438
L14.4531 41.4062
L30.4688 41.4062
L30.4688 64.8438
z

M14.4531 39.0625
L14.4531 14.0625
L30.4688 14.0625
L30.4688 39.0625
z

M35.9375 31.25
Q35.9375 12.5 36.3281 7.03125
L30.4688 3.90625
L30.4688 11.7188
L14.4531 11.7188
L14.4531 3.51562
L8.59375 0.390625
Q8.98438 12.8906 8.98438 37.8906
Q8.98438 62.8906 8.59375 70.3125
L14.8438 67.1875
L29.6875 67.1875
L32.8125 71.0938
L39.0625 66.0156
L35.9375 63.2812
z
" id="SimSun-65f6"/>
     </defs>
     <g transform="translate(202.02161125 225.927249375)scale(0.14 -0.14)">
      <use xlink:href="#SimSun-65f6"/>
      <use x="100.0" xlink:href="#SimSun-95f4"/>
     </g>
    </g>
   </g>
   <g id="matplotlib.axis_2">
    <g id="ytick_1">
     <g id="line2d_14">
      <defs>
       <path d="
M0 0
L4 0" id="m728421d6d4" style="stroke:#000000;stroke-width:0.5;"/>
      </defs>
      <g>
       <use style="stroke:#000000;stroke-width:0.5;" x="47.336455" xlink:href="#m728421d6d4" y="196.046875"/>
      </g>
     </g>
     <g id="line2d_15">
      <defs>
       <path d="
M0 0
L-4 0" id="mcb0005524f" style="stroke:#000000;stroke-width:0.5;"/>
      </defs>
      <g>
       <use style="stroke:#000000;stroke-width:0.5;" x="382.136455" xlink:href="#mcb0005524f" y="196.046875"/>
      </g>
     </g>
     <g id="text_8">
      <!-- −1.0 -->
      <defs>
       <path d="
M4.98438 31.5938
L4.98438 38.9219
L50.0938 38.9219
L50.0938 31.5938
z
" id="WenQuanYiMicroHei-2212"/>
       <path d="
M7.17188 5.42188
Q7.17188 7.28125 7.65625 8.5625
Q8.15625 9.85938 8.98438 10.6562
Q9.8125 11.4688 10.9375 11.8281
Q12.0625 12.2031 13.375 12.2031
Q14.6562 12.2031 15.7969 11.8281
Q16.9375 11.4688 17.7656 10.6562
Q18.6094 9.85938 19.0938 8.5625
Q19.5781 7.28125 19.5781 5.42188
Q19.5781 3.60938 19.0938 2.3125
Q18.6094 1.03125 17.7656 0.1875
Q16.9375 -0.640625 15.7969 -1.03125
Q14.6562 -1.42188 13.375 -1.42188
Q12.0625 -1.42188 10.9375 -1.03125
Q9.8125 -0.640625 8.98438 0.1875
Q8.15625 1.03125 7.65625 2.3125
Q7.17188 3.60938 7.17188 5.42188" id="WenQuanYiMicroHei-2e"/>
      </defs>
      <g transform="translate(25.10625 198.643492188)scale(0.09996 -0.09996)">
       <use xlink:href="#WenQuanYiMicroHei-2212"/>
       <use x="55.078125" xlink:href="#WenQuanYiMicroHei-31"/>
       <use x="110.15625" xlink:href="#WenQuanYiMicroHei-2e"/>
       <use x="136.962890625" xlink:href="#WenQuanYiMicroHei-30"/>
      </g>
     </g>
    </g>
    <g id="ytick_2">
     <g id="line2d_16">
      <g>
       <use style="stroke:#000000;stroke-width:0.5;" x="47.336455" xlink:href="#m728421d6d4" y="152.846875"/>
      </g>
     </g>
     <g id="line2d_17">
      <g>
       <use style="stroke:#000000;stroke-width:0.5;" x="382.136455" xlink:href="#mcb0005524f" y="152.846875"/>
      </g>
     </g>
     <g id="text_9">
      <!-- −0.5 -->
      <defs>
       <path d="
M26.6094 43.7969
Q31.4531 43.7969 35.625 42.4531
Q39.7969 41.1094 42.8906 38.4688
Q46 35.8438 47.75 31.9375
Q49.5156 28.0312 49.5156 22.9062
Q49.5156 17.3281 47.8438 12.8906
Q46.1875 8.45312 42.9219 5.375
Q39.6562 2.29688 34.8438 0.65625
Q30.0312 -0.984375 23.7812 -0.984375
Q21.2969 -0.984375 18.875 -0.734375
Q16.4531 -0.484375 14.2344 -0.015625
Q12.0156 0.4375 10.0156 1.17188
Q8.01562 1.90625 6.39062 2.875
L6.39062 11.2812
Q8.01562 10.1562 10.1875 9.28125
Q12.3594 8.40625 14.75 7.8125
Q17.1406 7.23438 19.5469 6.90625
Q21.9688 6.59375 24.0312 6.59375
Q27.875 6.59375 30.9062 7.5
Q33.9375 8.40625 36.0312 10.2969
Q38.1406 12.2031 39.25 15.0781
Q40.375 17.9688 40.375 21.9219
Q40.375 28.9062 36.0781 32.5938
Q31.7812 36.2812 23.5781 36.2812
Q22.2656 36.2812 20.7188 36.1562
Q19.1875 36.0312 17.6406 35.8281
Q16.1094 35.6406 14.7188 35.4219
Q13.3281 35.2031 12.3125 35.0156
L7.90625 37.7969
L10.5938 71.3906
L44.2812 71.3906
L44.2812 63.2812
L18.3125 63.2812
L16.4062 42.8281
Q17.9688 43.1094 20.5312 43.4531
Q23.0938 43.7969 26.6094 43.7969" id="WenQuanYiMicroHei-35"/>
      </defs>
      <g transform="translate(25.193715 155.443492188)scale(0.09996 -0.09996)">
       <use xlink:href="#WenQuanYiMicroHei-2212"/>
       <use x="55.078125" xlink:href="#WenQuanYiMicroHei-30"/>
       <use x="110.15625" xlink:href="#WenQuanYiMicroHei-2e"/>
       <use x="136.962890625" xlink:href="#WenQuanYiMicroHei-35"/>
      </g>
     </g>
    </g>
    <g id="ytick_3">
     <g id="line2d_18">
      <g>
       <use style="stroke:#000000;stroke-width:0.5;" x="47.336455" xlink:href="#m728421d6d4" y="109.646875"/>
      </g>
     </g>
     <g id="line2d_19">
      <g>
       <use style="stroke:#000000;stroke-width:0.5;" x="382.136455" xlink:href="#mcb0005524f" y="109.646875"/>
      </g>
     </g>
     <g id="text_10">
      <!-- 0.0 -->
      <g transform="translate(30.591555 112.243492188)scale(0.09996 -0.09996)">
       <use xlink:href="#WenQuanYiMicroHei-30"/>
       <use x="55.078125" xlink:href="#WenQuanYiMicroHei-2e"/>
       <use x="81.884765625" xlink:href="#WenQuanYiMicroHei-30"/>
      </g>
     </g>
    </g>
    <g id="ytick_4">
     <g id="line2d_20">
      <g>
       <use style="stroke:#000000;stroke-width:0.5;" x="47.336455" xlink:href="#m728421d6d4" y="66.446875"/>
      </g>
     </g>
     <g id="line2d_21">
      <g>
       <use style="stroke:#000000;stroke-width:0.5;" x="382.136455" xlink:href="#mcb0005524f" y="66.446875"/>
      </g>
     </g>
     <g id="text_11">
      <!-- 0.5 -->
      <g transform="translate(30.67902 69.0434921875)scale(0.09996 -0.09996)">
       <use xlink:href="#WenQuanYiMicroHei-30"/>
       <use x="55.078125" xlink:href="#WenQuanYiMicroHei-2e"/>
       <use x="81.884765625" xlink:href="#WenQuanYiMicroHei-35"/>
      </g>
     </g>
    </g>
    <g id="ytick_5">
     <g id="line2d_22">
      <g>
       <use style="stroke:#000000;stroke-width:0.5;" x="47.336455" xlink:href="#m728421d6d4" y="23.246875"/>
      </g>
     </g>
     <g id="line2d_23">
      <g>
       <use style="stroke:#000000;stroke-width:0.5;" x="382.136455" xlink:href="#mcb0005524f" y="23.246875"/>
      </g>
     </g>
     <g id="text_12">
      <!-- 1.0 -->
      <g transform="translate(30.98202375 25.8434921875)scale(0.09996 -0.09996)">
       <use xlink:href="#WenQuanYiMicroHei-31"/>
       <use x="55.078125" xlink:href="#WenQuanYiMicroHei-2e"/>
       <use x="81.884765625" xlink:href="#WenQuanYiMicroHei-30"/>
      </g>
     </g>
    </g>
    <g id="text_13">
     <!-- 振幅 -->
     <defs>
      <path d="
M6.25 1.5625
Q14.8438 0.390625 17.5781 0.390625
Q20.3125 0.390625 20.3125 5.07812
L20.3125 31.25
Q16.0156 29.2969 10.1562 25.7812
L8.20312 23.0469
L3.51562 30.0781
Q10.5469 32.0312 20.3125 35.5469
L20.3125 55.4688
L10.9375 55.4688
L7.42188 54.6875
L4.29688 57.8125
L20.3125 57.8125
Q20.3125 73.4375 19.9219 81.25
L29.2969 76.9531
L25.7812 74.2188
L25.7812 57.8125
L30.0781 57.8125
L34.375 62.1094
L41.0156 55.4688
L25.7812 55.4688
L25.7812 37.5
L38.6719 42.5781
L39.0625 41.4062
L25.7812 33.9844
L25.7812 2.34375
Q26.1719 -5.07812 17.5781 -8.59375
Q17.5781 -3.51562 6.25 0
z

M58.5938 2.34375
L70.7031 8.59375
L71.4844 7.42188
Q58.9844 -1.95312 56.6406 -7.42188
L51.9531 -1.17188
Q53.9062 1.5625 53.5156 5.46875
L53.5156 38.2812
L48.0469 38.2812
Q46.4844 5.46875 29.2969 -9.76562
L28.125 -8.98438
Q35.1562 0 38.8594 13.0781
Q42.5781 26.1719 42.5781 45.8906
Q42.5781 65.625 42.1875 76.5625
L48.0469 72.6562
L78.125 72.6562
L83.5938 78.125
L91.4062 70.3125
L48.0469 70.3125
L48.0469 40.625
L80.4688 40.625
L85.9375 46.0938
L93.75 38.2812
L66.7969 38.2812
Q69.1406 28.9062 73.0469 21.4844
Q82.8125 28.5156 86.7188 33.5938
L92.1875 26.9531
Q86.7188 26.9531 74.2188 19.5312
Q78.9062 10.5469 84.9531 5.85938
Q91.0156 1.17188 95.7031 0.390625
L95.7031 -1.17188
Q89.4531 -1.5625 86.7188 -5.85938
Q68.75 10.9375 64.8438 38.2812
L58.5938 38.2812
z

M51.5625 56.6406
L76.9531 56.6406
L81.6406 61.3281
L88.6719 54.2969
L63.2812 54.2969
Q58.2031 54.2969 55.0781 53.125
z
" id="SimSun-632f"/>
      <path d="
M7.8125 10.5469
Q8.20312 22.2656 8.20312 39.6406
Q8.20312 57.0312 7.8125 64.4531
L12.8906 61.7188
L21.4844 61.7188
Q21.4844 76.5625 21.0938 81.25
L29.6875 76.9531
L26.1719 74.2188
L26.1719 61.7188
L33.5938 61.7188
L37.1094 65.2344
L41.7969 60.5469
L39.0625 58.5938
L39.0625 21.0938
Q39.4531 14.8438 32.8125 12.1094
Q32.0312 16.4062 26.9531 17.9688
L26.9531 19.5312
Q31.25 18.75 32.8125 18.75
Q34.375 18.75 34.375 20.7031
L34.375 59.375
L26.1719 59.375
L26.1719 11.3281
Q26.1719 1.17188 26.5625 -8.59375
L21.0938 -10.9375
Q21.4844 3.90625 21.4844 12.8906
L21.4844 59.375
L12.8906 59.375
L12.8906 13.2812
z

M39.8438 73.0469
L84.375 73.0469
L88.6719 77.3438
L95.3125 70.7031
L52.7344 70.7031
Q46.875 70.7031 43.3594 69.5312
z

M50.7812 37.5
Q51.1719 44.5312 51.1719 50.9688
Q51.1719 57.4219 50.7812 64.0625
L56.25 60.9375
L77.3438 60.9375
L80.4688 64.4531
L85.9375 59.7656
L83.2031 57.0312
Q83.2031 46.875 83.5938 41.7969
L78.125 39.0625
L78.125 44.1406
L56.25 44.1406
L56.25 39.4531
z

M44.5312 -10.1562
Q44.9219 0 44.9219 15.0312
Q44.9219 30.0781 44.5312 36.3281
L50 33.5938
L83.9844 33.5938
L87.1094 37.1094
L92.1875 31.6406
L89.8438 29.6875
L89.8438 8.59375
Q89.8438 0.78125 90.2344 -5.85938
L84.7656 -8.98438
L84.7656 -0.78125
L50 -0.78125
L50 -7.8125
z

M56.25 58.5938
L56.25 46.4844
L78.125 46.4844
L78.125 58.5938
z

M50 31.25
L50 17.9688
L64.4531 17.9688
L64.4531 31.25
z

M69.1406 31.25
L69.1406 17.9688
L84.7656 17.9688
L84.7656 31.25
z

M50 15.625
L50 1.5625
L64.4531 1.5625
L64.4531 15.625
z

M69.1406 15.625
L69.1406 1.5625
L84.7656 1.5625
L84.7656 15.625
z
" id="SimSun-5e45"/>
     </defs>
     <g transform="translate(18.3015625 123.07265625)rotate(-90.0)scale(0.14 -0.14)">
      <use xlink:href="#SimSun-632f"/>
      <use x="100.0" xlink:href="#SimSun-5e45"/>
     </g>
    </g>
   </g>
   <g id="text_14">
    <!-- 正弦波 -->
    <defs>
     <path d="
M25 42.5781
Q25 45.3125 24.6094 51.9531
L34.375 47.2656
L30.4688 44.5312
L30.4688 0.390625
L50 0.390625
L50 70.3125
L26.1719 70.3125
Q21.0938 70.3125 16.7969 69.1406
L13.2812 72.6562
L79.2969 72.6562
L85.1562 78.5156
L93.3594 70.3125
L55.4688 70.3125
L55.4688 39.4531
L74.6094 39.4531
L80.0781 44.9219
L87.8906 37.1094
L55.4688 37.1094
L55.4688 0.390625
L79.2969 0.390625
L85.5469 6.64062
L94.1406 -1.95312
L18.75 -1.95312
Q13.6719 -1.95312 9.375 -3.125
L5.85938 0.390625
L25 0.390625
z
" id="SimSun-6b63"/>
     <path d="
M16.7969 48.4375
L14.4531 31.6406
L29.6875 31.6406
L32.0312 35.5469
L38.2812 31.25
L35.5469 28.5156
Q34.375 5.07812 31.0469 -0.578125
Q27.7344 -6.25 20.3125 -8.20312
Q19.9219 -3.125 10.9375 -0.390625
L10.9375 1.17188
Q22.6562 -0.78125 24.7969 1.35938
Q26.9531 3.51562 28.125 9.76562
Q29.2969 16.0156 30.0781 29.2969
L14.4531 29.2969
L11.7188 26.5625
L7.03125 31.25
Q9.375 32.0312 10.3438 37.6875
Q11.3281 43.3594 12.1094 54.2969
L17.1875 50.7812
L30.4688 50.7812
L30.4688 69.9219
L14.0625 69.9219
L10.5469 69.1406
L7.42188 72.2656
L29.6875 72.2656
L32.4219 76.1719
L38.2812 71.875
L35.5469 69.5312
Q35.5469 53.125 35.9375 47.2656
L30.4688 44.5312
L30.4688 48.4375
z

M57.4219 80.0781
Q64.4531 76.5625 66.7969 74.4062
Q69.1406 72.2656 68.75 69.5312
Q68.3594 66.7969 66.4062 65.2344
Q64.4531 63.6719 63.0781 67.9688
Q61.7188 72.2656 56.6406 79.2969
z

M39.0625 62.8906
L81.25 62.8906
L87.1094 68.3594
L94.5312 60.5469
L61.3281 60.5469
L69.9219 55.4688
Q67.1875 55.4688 63.2812 50.1875
Q59.375 44.9219 50.7812 33.5938
Q60.1562 33.9844 69.9219 34.375
Q75.3906 42.5781 77.7344 48.8281
L85.5469 42.5781
Q83.5938 42.5781 80.4688 39.25
Q77.3438 35.9375 70.8906 26.9531
Q64.4531 17.9688 50.7812 3.51562
Q65.2344 3.90625 82.8125 5.07812
Q78.9062 12.1094 73.8281 18.3594
L75 19.1406
Q83.9844 12.5 88.4688 7.60938
Q92.9688 2.73438 91.7969 -1.35938
Q90.625 -5.46875 88.8594 -6.25
Q87.1094 -7.03125 86.125 -3.51562
Q85.1562 0 83.5938 3.125
Q60.5469 0 54.875 -1.95312
Q49.2188 -3.90625 47.6562 -5.46875
L42.9688 2.73438
Q46.4844 3.90625 53.7031 11.9062
Q60.9375 19.9219 69.1406 32.4219
Q52.3438 30.0781 48.4375 26.1719
L44.1406 33.2031
Q48.0469 33.9844 53.5156 43.1562
Q58.9844 52.3438 61.7188 60.5469
L51.9531 60.5469
Q46.875 60.5469 42.5781 59.375
z
" id="SimSun-5f26"/>
     <path d="
M77.7344 49.6094
L82.8125 59.375
L65.625 59.375
L65.625 39.4531
L78.125 39.4531
L81.6406 42.9688
L87.1094 37.5
L83.2031 34.7656
Q77.7344 22.6562 68.75 11.7188
Q81.25 0.390625 94.9219 -2.34375
L94.9219 -3.51562
Q89.0625 -3.90625 86.3281 -8.20312
Q74.2188 -1.17188 65.625 8.20312
Q51.9531 -5.07812 30.4688 -9.76562
L30.0781 -8.20312
Q49.6094 -1.95312 62.5 11.7188
Q54.6875 21.875 50.3906 37.1094
L48.0469 37.1094
L45.7031 36.3281
L43.3594 38.2812
Q43.3594 24.2188 38.2812 12.2969
Q33.2031 0.390625 21.0938 -9.375
L19.9219 -8.20312
Q30.4688 3.125 34.375 14.4531
Q38.2812 25.7812 38.2812 39.8438
Q38.2812 53.9062 37.8906 65.2344
L43.75 61.7188
L60.5469 61.7188
Q60.5469 77.3438 60.1562 82.0312
L68.3594 78.9062
L65.625 75.7812
L65.625 61.7188
L82.0312 61.7188
L86.3281 66.0156
L92.9688 59.375
Q89.4531 58.2031 86.9062 56.6406
Q84.375 55.0781 78.9062 48.8281
z

M43.3594 59.375
L43.3594 39.4531
L60.5469 39.4531
L60.5469 59.375
z

M65.625 15.2344
Q73.0469 24.2188 78.5156 37.1094
L52.3438 37.1094
Q58.2031 22.6562 65.625 15.2344
M36.7188 64.0625
Q21.4844 22.6562 20.1094 17.7656
Q18.75 12.8906 18.9375 5.85938
Q19.1406 -1.17188 19.3281 -3.90625
Q19.5312 -6.64062 14.8438 -5.07812
Q10.1562 -3.51562 12.5 4.48438
Q14.8438 12.5 12.5 14.6406
Q10.1562 16.7969 4.29688 18.3594
L4.29688 19.9219
Q11.3281 19.1406 13.0781 19.3281
Q14.8438 19.5312 16.9844 22.8438
Q19.1406 26.1719 35.1562 64.4531
z

M5.07812 57.0312
Q18.75 50 18.75 45.5
Q18.75 41.0156 16.5938 39.4531
Q14.4531 37.8906 12.6875 43.1562
Q10.9375 48.4375 4.29688 55.8594
z

M13.6719 79.2969
Q24.6094 73.8281 25.9688 69.9219
Q27.3438 66.0156 24.7969 63.2812
Q22.2656 60.5469 20.5 65.8125
Q18.75 71.0938 12.8906 78.125
z
" id="SimSun-6ce2"/>
    </defs>
    <g transform="translate(194.50208 18.246875)scale(0.14 -0.14)">
     <use xlink:href="#SimSun-6b63"/>
     <use x="100.0" xlink:href="#SimSun-5f26"/>
     <use x="200.0" xlink:href="#SimSun-6ce2"/>
    </g>
   </g>
  </g>
 </g>
 <defs>
  <clipPath id="pad611bffd3">
   <rect height="172.8" width="334.8" x="47.336455" y="23.246875"/>
  </clipPath>
 </defs>
</svg>
