<?xml version="1.0" encoding="UTF-8" standalone="no"?>
<!DOCTYPE svg PUBLIC "-//W3C//DTD SVG 1.1//EN"
 "http://www.w3.org/Graphics/SVG/1.1/DTD/svg11.dtd">
<!-- Generated by graphviz version 2.38.0 (20140413.2041)
 -->
<!-- Title: structs Pages: 1 -->
<svg width="597pt" height="171pt"
 viewBox="0.00 0.00 597.00 171.00" xmlns="http://www.w3.org/2000/svg" xmlns:xlink="http://www.w3.org/1999/xlink">
<g id="graph0" class="graph" transform="scale(1 1) rotate(0) translate(4 167)">
<title>structs</title>
<polygon fill="white" stroke="none" points="-4,4 -4,-167 593,-167 593,4 -4,4"/>
<!-- obj_186476912 -->
<g id="node1" class="node"><title>obj_186476912</title>
<polygon fill="white" stroke="black" points="0,-61.5 0,-97.5 123,-97.5 123,-61.5 0,-61.5"/>
<text text-anchor="middle" x="61.5" y="-75.8" font-family="Times New Roman,serif" font-size="14.00">BboxTransformTo</text>
</g>
<!-- obj_186476880 -->
<g id="node2" class="node"><title>obj_186476880</title>
<polygon fill="white" stroke="black" points="193,-61.5 193,-97.5 313,-97.5 313,-61.5 193,-61.5"/>
<text text-anchor="middle" x="253" y="-75.8" font-family="Times New Roman,serif" font-size="14.00">TransformedBbox</text>
</g>
<!-- obj_186476912&#45;&gt;obj_186476880 -->
<g id="edge6" class="edge"><title>obj_186476912&#45;&gt;obj_186476880</title>
<path fill="none" stroke="black" stroke-width="0.5" d="M123.241,-79.5C142.232,-79.5 163.324,-79.5 182.849,-79.5"/>
<polygon fill="black" stroke="black" stroke-width="0.5" points="182.897,-83.0001 192.896,-79.5 182.896,-76.0001 182.897,-83.0001"/>
<text text-anchor="middle" x="158" y="-82.5" font-family="Times New Roman,serif" font-size="10.00">_boxout</text>
</g>
<!-- obj_186476816 -->
<g id="node3" class="node"><title>obj_186476816</title>
<polygon fill="white" stroke="black" points="400,-120.5 400,-156.5 454,-156.5 454,-120.5 400,-120.5"/>
<text text-anchor="middle" x="427" y="-134.8" font-family="Times New Roman,serif" font-size="14.00">Bbox</text>
</g>
<!-- obj_186476880&#45;&gt;obj_186476816 -->
<g id="edge2" class="edge"><title>obj_186476880&#45;&gt;obj_186476816</title>
<path fill="none" stroke="black" stroke-width="0.5" d="M306.54,-97.5225C333.631,-106.815 365.97,-117.908 390.165,-126.208"/>
<polygon fill="black" stroke="black" stroke-width="0.5" points="389.072,-129.533 399.666,-129.467 391.343,-122.912 389.072,-129.533"/>
<text text-anchor="middle" x="353" y="-121.5" font-family="Times New Roman,serif" font-size="10.00">_bbox</text>
</g>
<!-- obj_186361232 -->
<g id="node5" class="node"><title>obj_186361232</title>
<polygon fill="white" stroke="black" points="393,-61.5 393,-97.5 461,-97.5 461,-61.5 393,-61.5"/>
<text text-anchor="middle" x="427" y="-75.8" font-family="Times New Roman,serif" font-size="14.00">Affine2D</text>
</g>
<!-- obj_186476880&#45;&gt;obj_186361232 -->
<g id="edge4" class="edge"><title>obj_186476880&#45;&gt;obj_186361232</title>
<path fill="none" stroke="black" stroke-width="0.5" d="M313.193,-79.5C335.97,-79.5 361.535,-79.5 382.562,-79.5"/>
<polygon fill="black" stroke="black" stroke-width="0.5" points="382.795,-83.0001 392.795,-79.5 382.795,-76.0001 382.795,-83.0001"/>
<text text-anchor="middle" x="353" y="-82.5" font-family="Times New Roman,serif" font-size="10.00">_transform</text>
</g>
<!-- obj_183590088 -->
<g id="node7" class="node"><title>obj_183590088</title>
<polygon fill="white" stroke="black" points="398,-0.5 398,-42.5 456,-42.5 456,-0.5 398,-0.5"/>
<text text-anchor="start" x="414.5" y="-27.3" font-family="Times New Roman,serif" font-size="9.00">0</text>
<text text-anchor="start" x="434.5" y="-27.3" font-family="Times New Roman,serif" font-size="9.00">0</text>
<text text-anchor="start" x="410" y="-11.3" font-family="Times New Roman,serif" font-size="9.00">800</text>
<text text-anchor="start" x="430" y="-11.3" font-family="Times New Roman,serif" font-size="9.00">480</text>
</g>
<!-- obj_186476880&#45;&gt;obj_183590088 -->
<g id="edge5" class="edge"><title>obj_186476880&#45;&gt;obj_183590088</title>
<path fill="none" stroke="black" stroke-width="0.5" d="M307.479,-61.4664C333.538,-52.679 364.269,-42.3162 387.908,-34.3449"/>
<polygon fill="black" stroke="black" stroke-width="0.5" points="389.213,-37.5986 397.571,-31.0867 386.976,-30.9655 389.213,-37.5986"/>
<text text-anchor="middle" x="353" y="-55.5" font-family="Times New Roman,serif" font-size="10.00">_points</text>
</g>
<!-- obj_183641536 -->
<g id="node4" class="node"><title>obj_183641536</title>
<polygon fill="white" stroke="black" points="531.5,-120.5 531.5,-162.5 585.5,-162.5 585.5,-120.5 531.5,-120.5"/>
<text text-anchor="start" x="551" y="-147.3" font-family="Times New Roman,serif" font-size="9.00">0</text>
<text text-anchor="start" x="564.5" y="-147.3" font-family="Times New Roman,serif" font-size="9.00">0</text>
<text text-anchor="start" x="548.5" y="-131.3" font-family="Times New Roman,serif" font-size="9.00">10</text>
<text text-anchor="start" x="564.5" y="-131.3" font-family="Times New Roman,serif" font-size="9.00">6</text>
</g>
<!-- obj_186476816&#45;&gt;obj_183641536 -->
<g id="edge1" class="edge"><title>obj_186476816&#45;&gt;obj_183641536</title>
<path fill="none" stroke="black" stroke-width="0.5" d="M454.206,-139.107C473.514,-139.554 500.012,-140.168 521.335,-140.662"/>
<polygon fill="black" stroke="black" stroke-width="0.5" points="521.254,-144.161 531.333,-140.894 521.416,-137.163 521.254,-144.161"/>
<text text-anchor="middle" x="494.5" y="-142.5" font-family="Times New Roman,serif" font-size="10.00">_points</text>
</g>
<!-- obj_183640336 -->
<g id="node6" class="node"><title>obj_183640336</title>
<polygon fill="white" stroke="black" points="528,-43.5 528,-101.5 589,-101.5 589,-43.5 528,-43.5"/>
<text text-anchor="start" x="540.5" y="-86.3" font-family="Times New Roman,serif" font-size="9.00">80</text>
<text text-anchor="start" x="559" y="-86.3" font-family="Times New Roman,serif" font-size="9.00">0</text>
<text text-anchor="start" x="572.5" y="-86.3" font-family="Times New Roman,serif" font-size="9.00">0</text>
<text text-anchor="start" x="543" y="-70.3" font-family="Times New Roman,serif" font-size="9.00">0</text>
<text text-anchor="start" x="556.5" y="-70.3" font-family="Times New Roman,serif" font-size="9.00">80</text>
<text text-anchor="start" x="572.5" y="-70.3" font-family="Times New Roman,serif" font-size="9.00">0</text>
<text text-anchor="start" x="543" y="-54.3" font-family="Times New Roman,serif" font-size="9.00">0</text>
<text text-anchor="start" x="559" y="-54.3" font-family="Times New Roman,serif" font-size="9.00">0</text>
<text text-anchor="start" x="572.5" y="-54.3" font-family="Times New Roman,serif" font-size="9.00">1</text>
</g>
<!-- obj_186361232&#45;&gt;obj_183640336 -->
<g id="edge3" class="edge"><title>obj_186361232&#45;&gt;obj_183640336</title>
<path fill="none" stroke="black" stroke-width="0.5" d="M461.013,-77.7155C478.258,-76.7834 499.492,-75.6356 517.646,-74.6543"/>
<polygon fill="black" stroke="black" stroke-width="0.5" points="517.85,-78.1484 527.647,-74.1137 517.472,-71.1586 517.85,-78.1484"/>
<text text-anchor="middle" x="494.5" y="-80.5" font-family="Times New Roman,serif" font-size="10.00">_mtx</text>
</g>
</g>
</svg>
