<?xml version="1.0" encoding="utf-8" standalone="no"?>
<!DOCTYPE svg PUBLIC "-//W3C//DTD SVG 1.1//EN"
  "http://www.w3.org/Graphics/SVG/1.1/DTD/svg11.dtd">
<!-- Created with matplotlib (http://matplotlib.org/) -->
<svg height="368pt" version="1.1" viewBox="0 0 377 368" width="377pt" xmlns="http://www.w3.org/2000/svg" xmlns:xlink="http://www.w3.org/1999/xlink">
 <defs>
  <style type="text/css">
*{stroke-linecap:butt;stroke-linejoin:round;}
  </style>
 </defs>
 <g id="figure_1">
  <g id="patch_1">
   <path d="
M0 368.196
L377.564 368.196
L377.564 0
L0 0
z
" style="fill:#ffffff;"/>
  </g>
  <g id="axes_1">
   <g id="line2d_1">
    <path clip-path="url(#pa21167d460)" d="
M85.2302 291.199
L87.4848 288.944
L89.7393 286.69
L91.9938 284.435
L94.2484 282.181
L96.5029 279.926
L98.7575 277.672
L101.012 275.417
L103.267 273.162
L105.521 270.908
L107.776 268.653
L110.03 266.399
L112.285 264.144
L114.539 261.89
L116.794 259.635
L119.048 257.381
L121.303 255.126
L123.557 252.872
L125.812 250.617
L128.067 248.362
L130.321 246.108
L132.576 243.853
L134.83 241.599
L137.085 239.344
L139.339 237.09
L141.594 234.835
L143.848 232.581
L146.103 230.326
L148.357 228.072
L150.612 225.817
L152.867 223.562
L155.121 221.308
L157.376 219.053
L159.63 216.799
L161.885 214.544
L164.139 212.29
L166.394 210.035
L168.648 207.781
L170.903 205.526
L173.157 203.272
L175.412 201.017
L177.667 198.762
L179.921 196.508
L182.176 194.253
L184.43 191.999
L186.685 189.744
L188.939 187.49
L191.194 185.235
L193.448 182.981
L195.703 180.726
L197.957 178.472
L200.212 176.217
L202.467 173.962
L204.721 171.708
L206.976 169.453
L209.23 167.199
L211.485 164.944
L213.739 162.69
L215.994 160.435
L218.248 158.181
L220.503 155.926
L222.757 153.672
L225.012 151.417
L227.267 149.162
L229.521 146.908
L231.776 144.653
L234.03 142.399
L236.285 140.144
L238.539 137.89
L240.794 135.635
L243.048 133.381
L245.303 131.126
L247.557 128.872
L249.812 126.617
L252.067 124.362
L254.321 122.108
L256.576 119.853
L258.83 117.599
L261.085 115.344
L263.339 113.09
L265.594 110.835
L267.848 108.581
L270.103 106.326
L272.357 104.072
L274.612 101.817
L276.867 99.5624
L279.121 97.3079
L281.376 95.0533
L283.63 92.7988
L285.885 90.5442
L288.139 88.2897
L290.394 86.0351
L292.648 83.7806
L294.903 81.5261
L297.157 79.2715
L299.412 77.017
L301.667 74.7624
L303.921 72.5079
L306.176 70.2533
L308.43 67.9988" style="fill:none;stroke:#808080;stroke-linecap:square;stroke-width:2;"/>
   </g>
   <g id="line2d_2">
    <path clip-path="url(#pa21167d460)" d="
M85.2302 291.199
L87.4848 284.571
L89.7393 278.211
L91.9938 272.113
L94.2484 266.272
L96.5029 260.682
L98.7575 255.337
L101.012 250.233
L103.267 245.363
L105.521 240.723
L107.776 236.306
L110.03 232.107
L112.285 228.121
L114.539 224.342
L116.794 220.764
L119.048 217.383
L121.303 214.191
L123.557 211.185
L125.812 208.358
L128.067 205.705
L130.321 203.221
L132.576 200.899
L134.83 198.735
L137.085 196.722
L139.339 194.856
L141.594 193.13
L143.848 191.54
L146.103 190.08
L148.357 188.743
L150.612 187.526
L152.867 186.421
L155.121 185.425
L157.376 184.53
L159.63 183.732
L161.885 183.025
L164.139 182.404
L166.394 181.863
L168.648 181.396
L170.903 180.998
L173.157 180.664
L175.412 180.388
L177.667 180.164
L179.921 179.987
L182.176 179.851
L184.43 179.752
L186.685 179.683
L188.939 179.638
L191.194 179.613
L193.448 179.602
L195.703 179.599
L197.957 179.599
L200.212 179.596
L202.467 179.584
L204.721 179.559
L206.976 179.515
L209.23 179.446
L211.485 179.346
L213.739 179.211
L215.994 179.034
L218.248 178.81
L220.503 178.534
L222.757 178.199
L225.012 177.802
L227.267 177.335
L229.521 176.794
L231.776 176.172
L234.03 175.465
L236.285 174.667
L238.539 173.773
L240.794 172.776
L243.048 171.672
L245.303 170.454
L247.557 169.118
L249.812 167.657
L252.067 166.067
L254.321 164.342
L256.576 162.476
L258.83 160.463
L261.085 158.299
L263.339 155.977
L265.594 153.492
L267.848 150.839
L270.103 148.012
L272.357 145.006
L274.612 141.815
L276.867 138.433
L279.121 134.856
L281.376 131.076
L283.63 127.09
L285.885 122.891
L288.139 118.475
L290.394 113.834
L292.648 108.965
L294.903 103.86
L297.157 98.516
L299.412 92.926
L301.667 87.0848
L303.921 80.9869
L306.176 74.6267
L308.43 67.9988" style="fill:none;stroke:#808080;stroke-linecap:square;stroke-width:2;"/>
   </g>
   <g id="line2d_3">
    <path clip-path="url(#pa21167d460)" d="
M85.2302 291.199
L91.8581 288.944
L98.2183 286.69
L104.316 284.435
L110.157 282.181
L115.747 279.926
L121.092 277.672
L126.196 275.417
L131.065 273.162
L135.706 270.908
L140.123 268.653
L144.322 266.399
L148.308 264.144
L152.087 261.89
L155.665 259.635
L159.046 257.381
L162.238 255.126
L165.244 252.872
L168.071 250.617
L170.724 248.362
L173.208 246.108
L175.53 243.853
L177.694 241.599
L179.707 239.344
L181.573 237.09
L183.299 234.835
L184.889 232.581
L186.349 230.326
L187.686 228.072
L188.903 225.817
L190.008 223.562
L191.004 221.308
L191.899 219.053
L192.697 216.799
L193.404 214.544
L194.025 212.29
L194.566 210.035
L195.033 207.781
L195.431 205.526
L195.765 203.272
L196.041 201.017
L196.265 198.762
L196.442 196.508
L196.578 194.253
L196.677 191.999
L196.746 189.744
L196.791 187.49
L196.816 185.235
L196.827 182.981
L196.83 180.726
L196.83 178.472
L196.833 176.217
L196.845 173.962
L196.87 171.708
L196.914 169.453
L196.983 167.199
L197.083 164.944
L197.218 162.69
L197.395 160.435
L197.619 158.181
L197.895 155.926
L198.23 153.672
L198.627 151.417
L199.094 149.162
L199.635 146.908
L200.257 144.653
L200.964 142.399
L201.762 140.144
L202.656 137.89
L203.653 135.635
L204.757 133.381
L205.975 131.126
L207.311 128.872
L208.772 126.617
L210.362 124.362
L212.087 122.108
L213.953 119.853
L215.966 117.599
L218.13 115.344
L220.452 113.09
L222.937 110.835
L225.59 108.581
L228.416 106.326
L231.423 104.072
L234.614 101.817
L237.996 99.5624
L241.573 97.3079
L245.353 95.0533
L249.339 92.7988
L253.538 90.5442
L257.954 88.2897
L262.595 86.0351
L267.464 83.7806
L272.569 81.5261
L277.913 79.2715
L283.503 77.017
L289.344 74.7624
L295.442 72.5079
L301.802 70.2533
L308.43 67.9988" style="fill:none;stroke:#808080;stroke-linecap:square;stroke-width:2;"/>
   </g>
   <g id="line2d_4">
    <path clip-path="url(#pa21167d460)" d="
M39.004 179.599
L42.1924 179.599
L45.3808 179.599
L48.5692 179.599
L51.7576 179.599
L54.946 179.599
L58.1344 179.599
L61.3228 179.599
L64.5112 179.599
L67.6997 179.599
L70.8881 179.599
L74.0765 179.599
L77.2649 179.599
L80.4533 179.599
L83.6417 179.599
L86.8301 179.599
L90.0185 179.599
L93.2069 179.599
L96.3953 179.599
L99.5837 179.599
L102.772 179.599
L105.961 179.599
L109.149 179.599
L112.337 179.599
L115.526 179.599
L118.714 179.599
L121.903 179.599
L125.091 179.599
L128.279 179.599
L131.468 179.599
L134.656 179.599
L137.845 179.599
L141.033 179.599
L144.221 179.599
L147.41 179.599
L150.598 179.599
L153.787 179.599
L156.975 179.599
L160.164 179.599
L163.352 179.599
L166.54 179.599
L169.729 179.599
L172.917 179.599
L176.106 179.599
L179.294 179.599
L182.482 179.599
L185.671 179.599
L188.859 179.599
L192.048 179.599
L195.236 179.599
L198.424 179.599
L201.613 179.599
L204.801 179.599
L207.99 179.599
L211.178 179.599
L214.366 179.599
L217.555 179.599
L220.743 179.599
L223.932 179.599
L227.12 179.599
L230.308 179.599
L233.497 179.599
L236.685 179.599
L239.874 179.599
L243.062 179.599
L246.251 179.599
L249.439 179.599
L252.627 179.599
L255.816 179.599
L259.004 179.599
L262.193 179.599
L265.381 179.599
L268.569 179.599
L271.758 179.599
L274.946 179.599
L278.135 179.599
L281.323 179.599
L284.511 179.599
L287.7 179.599
L290.888 179.599
L294.077 179.599
L297.265 179.599
L300.453 179.599
L303.642 179.599
L306.83 179.599
L310.019 179.599
L313.207 179.599
L316.396 179.599
L319.584 179.599
L322.772 179.599
L325.961 179.599
L329.149 179.599
L332.338 179.599
L335.526 179.599
L338.714 179.599
L341.903 179.599
L345.091 179.599
L348.28 179.599
L351.468 179.599
L354.656 179.599" style="fill:none;stroke:#808080;stroke-linecap:square;stroke-width:2;"/>
   </g>
   <g id="line2d_5">
    <path clip-path="url(#pa21167d460)" d="
M39.004 179.599
L45.2848 176.506
L51.3763 173.603
L57.2824 170.886
L63.007 168.349
L68.5539 165.991
L73.9271 163.806
L79.1306 161.791
L84.1681 159.942
L89.0435 158.255
L93.7609 156.726
L98.3241 155.351
L102.737 154.127
L107.004 153.049
L111.128 152.113
L115.113 151.316
L118.964 150.654
L122.684 150.122
L126.277 149.717
L129.747 149.436
L133.098 149.273
L136.334 149.225
L139.459 149.289
L142.476 149.46
L145.39 149.735
L148.204 150.109
L150.923 150.579
L153.55 151.14
L156.089 151.79
L158.544 152.523
L160.919 153.336
L163.218 154.226
L165.445 155.187
L167.603 156.217
L169.697 157.311
L171.731 158.466
L173.708 159.678
L175.632 160.942
L177.507 162.255
L179.338 163.613
L181.127 165.012
L182.88 166.448
L184.599 167.917
L186.289 169.415
L187.954 170.939
L189.597 172.484
L191.223 174.047
L192.835 175.623
L194.437 177.21
L196.033 178.802
L197.627 180.396
L199.224 181.988
L200.826 183.574
L202.438 185.151
L204.063 186.713
L205.707 188.259
L207.371 189.782
L209.061 191.281
L210.781 192.75
L212.533 194.186
L214.323 195.585
L216.153 196.943
L218.029 198.256
L219.953 199.52
L221.93 200.731
L223.963 201.886
L226.057 202.98
L228.216 204.01
L230.443 204.972
L232.742 205.861
L235.117 206.675
L237.572 207.408
L240.111 208.057
L242.738 208.619
L245.456 209.089
L248.271 209.463
L251.185 209.737
L254.202 209.908
L257.327 209.972
L260.562 209.925
L263.913 209.762
L267.384 209.48
L270.977 209.076
L274.697 208.544
L278.547 207.882
L282.533 207.085
L286.657 206.149
L290.923 205.071
L295.336 203.846
L299.899 202.472
L304.617 200.943
L309.492 199.256
L314.53 197.407
L319.733 195.392
L325.106 193.207
L330.653 190.848
L336.378 188.312
L342.284 185.594
L348.376 182.691
L354.656 179.599" style="fill:none;stroke:#808080;stroke-linecap:square;stroke-width:2;"/>
   </g>
   <g id="line2d_6">
    <path clip-path="url(#pa21167d460)" d="
M39.004 179.599
L45.2848 182.691
L51.3763 185.594
L57.2824 188.312
L63.007 190.848
L68.5539 193.207
L73.9271 195.392
L79.1306 197.407
L84.1681 199.256
L89.0435 200.943
L93.7609 202.472
L98.3241 203.846
L102.737 205.071
L107.004 206.149
L111.128 207.085
L115.113 207.882
L118.964 208.544
L122.684 209.076
L126.277 209.48
L129.747 209.762
L133.098 209.925
L136.334 209.972
L139.459 209.908
L142.476 209.737
L145.39 209.463
L148.204 209.089
L150.923 208.619
L153.55 208.057
L156.089 207.408
L158.544 206.675
L160.919 205.861
L163.218 204.972
L165.445 204.01
L167.603 202.98
L169.697 201.886
L171.731 200.731
L173.708 199.52
L175.632 198.256
L177.507 196.943
L179.338 195.585
L181.127 194.186
L182.88 192.75
L184.599 191.281
L186.289 189.782
L187.954 188.259
L189.597 186.713
L191.223 185.151
L192.835 183.574
L194.437 181.988
L196.033 180.396
L197.627 178.802
L199.224 177.21
L200.826 175.623
L202.438 174.047
L204.063 172.484
L205.707 170.939
L207.371 169.415
L209.061 167.917
L210.781 166.448
L212.533 165.012
L214.323 163.613
L216.153 162.255
L218.029 160.942
L219.953 159.678
L221.93 158.466
L223.963 157.311
L226.057 156.217
L228.216 155.187
L230.443 154.226
L232.742 153.336
L235.117 152.523
L237.572 151.79
L240.111 151.14
L242.738 150.579
L245.456 150.109
L248.271 149.735
L251.185 149.46
L254.202 149.289
L257.327 149.225
L260.562 149.273
L263.913 149.436
L267.384 149.717
L270.977 150.122
L274.697 150.654
L278.547 151.316
L282.533 152.113
L286.657 153.049
L290.923 154.127
L295.336 155.351
L299.899 156.726
L304.617 158.255
L309.492 159.942
L314.53 161.791
L319.733 163.806
L325.106 165.991
L330.653 168.349
L336.378 170.886
L342.284 173.603
L348.376 176.506
L354.656 179.599" style="fill:none;stroke:#808080;stroke-linecap:square;stroke-width:2;"/>
   </g>
   <g id="line2d_7">
    <path clip-path="url(#pa21167d460)" d="
M85.2302 67.9988
L87.4848 70.2533
L89.7393 72.5079
L91.9938 74.7624
L94.2484 77.017
L96.5029 79.2715
L98.7575 81.5261
L101.012 83.7806
L103.267 86.0351
L105.521 88.2897
L107.776 90.5442
L110.03 92.7988
L112.285 95.0533
L114.539 97.3079
L116.794 99.5624
L119.048 101.817
L121.303 104.072
L123.557 106.326
L125.812 108.581
L128.067 110.835
L130.321 113.09
L132.576 115.344
L134.83 117.599
L137.085 119.853
L139.339 122.108
L141.594 124.362
L143.848 126.617
L146.103 128.872
L148.357 131.126
L150.612 133.381
L152.867 135.635
L155.121 137.89
L157.376 140.144
L159.63 142.399
L161.885 144.653
L164.139 146.908
L166.394 149.162
L168.648 151.417
L170.903 153.672
L173.157 155.926
L175.412 158.181
L177.667 160.435
L179.921 162.69
L182.176 164.944
L184.43 167.199
L186.685 169.453
L188.939 171.708
L191.194 173.962
L193.448 176.217
L195.703 178.472
L197.957 180.726
L200.212 182.981
L202.467 185.235
L204.721 187.49
L206.976 189.744
L209.23 191.999
L211.485 194.253
L213.739 196.508
L215.994 198.762
L218.248 201.017
L220.503 203.272
L222.757 205.526
L225.012 207.781
L227.267 210.035
L229.521 212.29
L231.776 214.544
L234.03 216.799
L236.285 219.053
L238.539 221.308
L240.794 223.562
L243.048 225.817
L245.303 228.072
L247.557 230.326
L249.812 232.581
L252.067 234.835
L254.321 237.09
L256.576 239.344
L258.83 241.599
L261.085 243.853
L263.339 246.108
L265.594 248.362
L267.848 250.617
L270.103 252.872
L272.357 255.126
L274.612 257.381
L276.867 259.635
L279.121 261.89
L281.376 264.144
L283.63 266.399
L285.885 268.653
L288.139 270.908
L290.394 273.162
L292.648 275.417
L294.903 277.672
L297.157 279.926
L299.412 282.181
L301.667 284.435
L303.921 286.69
L306.176 288.944
L308.43 291.199" style="fill:none;stroke:#808080;stroke-linecap:square;stroke-width:2;"/>
   </g>
   <g id="line2d_8">
    <path clip-path="url(#pa21167d460)" d="
M85.2302 67.9988
L91.8581 70.2533
L98.2183 72.5079
L104.316 74.7624
L110.157 77.017
L115.747 79.2715
L121.092 81.5261
L126.196 83.7806
L131.065 86.0351
L135.706 88.2897
L140.123 90.5442
L144.322 92.7988
L148.308 95.0533
L152.087 97.3079
L155.665 99.5624
L159.046 101.817
L162.238 104.072
L165.244 106.326
L168.071 108.581
L170.724 110.835
L173.208 113.09
L175.53 115.344
L177.694 117.599
L179.707 119.853
L181.573 122.108
L183.299 124.362
L184.889 126.617
L186.349 128.872
L187.686 131.126
L188.903 133.381
L190.008 135.635
L191.004 137.89
L191.899 140.144
L192.697 142.399
L193.404 144.653
L194.025 146.908
L194.566 149.162
L195.033 151.417
L195.431 153.672
L195.765 155.926
L196.041 158.181
L196.265 160.435
L196.442 162.69
L196.578 164.944
L196.677 167.199
L196.746 169.453
L196.791 171.708
L196.816 173.962
L196.827 176.217
L196.83 178.472
L196.83 180.726
L196.833 182.981
L196.845 185.235
L196.87 187.49
L196.914 189.744
L196.983 191.999
L197.083 194.253
L197.218 196.508
L197.395 198.762
L197.619 201.017
L197.895 203.272
L198.23 205.526
L198.627 207.781
L199.094 210.035
L199.635 212.29
L200.257 214.544
L200.964 216.799
L201.762 219.053
L202.656 221.308
L203.653 223.562
L204.757 225.817
L205.975 228.072
L207.311 230.326
L208.772 232.581
L210.362 234.835
L212.087 237.09
L213.953 239.344
L215.966 241.599
L218.13 243.853
L220.452 246.108
L222.937 248.362
L225.59 250.617
L228.416 252.872
L231.423 255.126
L234.614 257.381
L237.996 259.635
L241.573 261.89
L245.353 264.144
L249.339 266.399
L253.538 268.653
L257.954 270.908
L262.595 273.162
L267.464 275.417
L272.569 277.672
L277.913 279.926
L283.503 282.181
L289.344 284.435
L295.442 286.69
L301.802 288.944
L308.43 291.199" style="fill:none;stroke:#808080;stroke-linecap:square;stroke-width:2;"/>
   </g>
   <g id="line2d_9">
    <path clip-path="url(#pa21167d460)" d="
M85.2302 67.9988
L87.4848 74.6267
L89.7393 80.9869
L91.9938 87.0848
L94.2484 92.926
L96.5029 98.516
L98.7575 103.86
L101.012 108.965
L103.267 113.834
L105.521 118.475
L107.776 122.891
L110.03 127.09
L112.285 131.076
L114.539 134.856
L116.794 138.433
L119.048 141.815
L121.303 145.006
L123.557 148.012
L125.812 150.839
L128.067 153.492
L130.321 155.977
L132.576 158.299
L134.83 160.463
L137.085 162.476
L139.339 164.342
L141.594 166.067
L143.848 167.657
L146.103 169.118
L148.357 170.454
L150.612 171.672
L152.867 172.776
L155.121 173.773
L157.376 174.667
L159.63 175.465
L161.885 176.172
L164.139 176.794
L166.394 177.335
L168.648 177.802
L170.903 178.199
L173.157 178.534
L175.412 178.81
L177.667 179.034
L179.921 179.211
L182.176 179.346
L184.43 179.446
L186.685 179.515
L188.939 179.559
L191.194 179.584
L193.448 179.596
L195.703 179.599
L197.957 179.599
L200.212 179.602
L202.467 179.613
L204.721 179.638
L206.976 179.683
L209.23 179.752
L211.485 179.851
L213.739 179.987
L215.994 180.164
L218.248 180.388
L220.503 180.664
L222.757 180.998
L225.012 181.396
L227.267 181.863
L229.521 182.404
L231.776 183.025
L234.03 183.732
L236.285 184.53
L238.539 185.425
L240.794 186.421
L243.048 187.526
L245.303 188.743
L247.557 190.08
L249.812 191.54
L252.067 193.13
L254.321 194.856
L256.576 196.722
L258.83 198.735
L261.085 200.899
L263.339 203.221
L265.594 205.705
L267.848 208.358
L270.103 211.185
L272.357 214.191
L274.612 217.383
L276.867 220.764
L279.121 224.342
L281.376 228.121
L283.63 232.107
L285.885 236.306
L288.139 240.723
L290.394 245.363
L292.648 250.233
L294.903 255.337
L297.157 260.682
L299.412 266.272
L301.667 272.113
L303.921 278.211
L306.176 284.571
L308.43 291.199" style="fill:none;stroke:#808080;stroke-linecap:square;stroke-width:2;"/>
   </g>
   <g id="line2d_10">
    <path clip-path="url(#pa21167d460)" d="
M196.83 21.7725
L196.83 24.961
L196.83 28.1494
L196.83 31.3378
L196.83 34.5262
L196.83 37.7146
L196.83 40.903
L196.83 44.0914
L196.83 47.2798
L196.83 50.4682
L196.83 53.6566
L196.83 56.845
L196.83 60.0335
L196.83 63.2219
L196.83 66.4103
L196.83 69.5987
L196.83 72.7871
L196.83 75.9755
L196.83 79.1639
L196.83 82.3523
L196.83 85.5407
L196.83 88.7291
L196.83 91.9175
L196.83 95.1059
L196.83 98.2944
L196.83 101.483
L196.83 104.671
L196.83 107.86
L196.83 111.048
L196.83 114.236
L196.83 117.425
L196.83 120.613
L196.83 123.802
L196.83 126.99
L196.83 130.178
L196.83 133.367
L196.83 136.555
L196.83 139.744
L196.83 142.932
L196.83 146.12
L196.83 149.309
L196.83 152.497
L196.83 155.686
L196.83 158.874
L196.83 162.063
L196.83 165.251
L196.83 168.439
L196.83 171.628
L196.83 174.816
L196.83 178.005
L196.83 181.193
L196.83 184.381
L196.83 187.57
L196.83 190.758
L196.83 193.947
L196.83 197.135
L196.83 200.323
L196.83 203.512
L196.83 206.7
L196.83 209.889
L196.83 213.077
L196.83 216.265
L196.83 219.454
L196.83 222.642
L196.83 225.831
L196.83 229.019
L196.83 232.208
L196.83 235.396
L196.83 238.584
L196.83 241.773
L196.83 244.961
L196.83 248.15
L196.83 251.338
L196.83 254.526
L196.83 257.715
L196.83 260.903
L196.83 264.092
L196.83 267.28
L196.83 270.468
L196.83 273.657
L196.83 276.845
L196.83 280.034
L196.83 283.222
L196.83 286.41
L196.83 289.599
L196.83 292.787
L196.83 295.976
L196.83 299.164
L196.83 302.353
L196.83 305.541
L196.83 308.729
L196.83 311.918
L196.83 315.106
L196.83 318.295
L196.83 321.483
L196.83 324.671
L196.83 327.86
L196.83 331.048
L196.83 334.237
L196.83 337.425" style="fill:none;stroke:#808080;stroke-linecap:square;stroke-width:2;"/>
   </g>
   <g id="line2d_11">
    <path clip-path="url(#pa21167d460)" d="
M196.83 21.7725
L199.923 28.0534
L202.826 34.1449
L205.543 40.051
L208.08 45.7756
L210.438 51.3225
L212.623 56.6957
L214.638 61.8991
L216.487 66.9366
L218.174 71.8121
L219.703 76.5295
L221.078 81.0927
L222.302 85.5056
L223.38 89.7721
L224.316 93.8961
L225.113 97.8815
L225.775 101.732
L226.307 105.452
L226.712 109.045
L226.993 112.515
L227.156 115.867
L227.204 119.102
L227.14 122.227
L226.969 125.244
L226.694 128.158
L226.32 130.973
L225.85 133.691
L225.289 136.318
L224.639 138.857
L223.906 141.312
L223.093 143.687
L222.203 145.986
L221.242 148.213
L220.212 150.372
L219.118 152.466
L217.963 154.499
L216.751 156.476
L215.487 158.4
L214.174 160.276
L212.816 162.106
L211.417 163.896
L209.981 165.648
L208.512 167.368
L207.014 169.058
L205.49 170.722
L203.945 172.366
L202.382 173.991
L200.806 175.603
L199.219 177.205
L197.627 178.802
L196.033 180.396
L194.441 181.992
L192.855 183.594
L191.278 185.206
L189.716 186.832
L188.17 188.475
L186.647 190.14
L185.148 191.83
L183.679 193.549
L182.243 195.302
L180.844 197.091
L179.486 198.922
L178.173 200.797
L176.909 202.721
L175.698 204.698
L174.543 206.732
L173.449 208.826
L172.419 210.984
L171.457 213.211
L170.568 215.51
L169.754 217.885
L169.021 220.34
L168.372 222.879
L167.81 225.506
L167.34 228.225
L166.966 231.039
L166.692 233.953
L166.521 236.97
L166.457 240.095
L166.504 243.331
L166.667 246.682
L166.949 250.152
L167.353 253.745
L167.885 257.465
L168.547 261.316
L169.344 265.301
L170.28 269.425
L171.358 273.692
L172.583 278.105
L173.957 282.668
L175.486 287.385
L177.173 292.261
L179.022 297.298
L181.037 302.502
L183.222 307.875
L185.581 313.422
L188.117 319.147
L190.835 325.053
L193.738 331.144
L196.83 337.425" style="fill:none;stroke:#808080;stroke-linecap:square;stroke-width:2;"/>
   </g>
   <g id="line2d_12">
    <path clip-path="url(#pa21167d460)" d="
M196.83 21.7725
L193.738 28.0534
L190.835 34.1449
L188.117 40.051
L185.581 45.7756
L183.222 51.3225
L181.037 56.6957
L179.022 61.8991
L177.173 66.9366
L175.486 71.8121
L173.957 76.5295
L172.583 81.0927
L171.358 85.5056
L170.28 89.7721
L169.344 93.8961
L168.547 97.8815
L167.885 101.732
L167.353 105.452
L166.949 109.045
L166.667 112.515
L166.504 115.867
L166.457 119.102
L166.521 122.227
L166.692 125.244
L166.966 128.158
L167.34 130.973
L167.81 133.691
L168.372 136.318
L169.021 138.857
L169.754 141.312
L170.568 143.687
L171.457 145.986
L172.419 148.213
L173.449 150.372
L174.543 152.466
L175.698 154.499
L176.909 156.476
L178.173 158.4
L179.486 160.276
L180.844 162.106
L182.243 163.896
L183.679 165.648
L185.148 167.368
L186.647 169.058
L188.17 170.722
L189.716 172.366
L191.278 173.991
L192.855 175.603
L194.441 177.205
L196.033 178.802
L197.627 180.396
L199.219 181.992
L200.806 183.594
L202.382 185.206
L203.945 186.832
L205.49 188.475
L207.014 190.14
L208.512 191.83
L209.981 193.549
L211.417 195.302
L212.816 197.091
L214.174 198.922
L215.487 200.797
L216.751 202.721
L217.963 204.698
L219.118 206.732
L220.212 208.826
L221.242 210.984
L222.203 213.211
L223.093 215.51
L223.906 217.885
L224.639 220.34
L225.289 222.879
L225.85 225.506
L226.32 228.225
L226.694 231.039
L226.969 233.953
L227.14 236.97
L227.204 240.095
L227.156 243.331
L226.993 246.682
L226.712 250.152
L226.307 253.745
L225.775 257.465
L225.113 261.316
L224.316 265.301
L223.38 269.425
L222.302 273.692
L221.078 278.105
L219.703 282.668
L218.174 287.385
L216.487 292.261
L214.638 297.298
L212.623 302.502
L210.438 307.875
L208.08 313.422
L205.543 319.147
L202.826 325.053
L199.923 331.144
L196.83 337.425" style="fill:none;stroke:#808080;stroke-linecap:square;stroke-width:2;"/>
   </g>
  </g>
 </g>
 <defs>
  <clipPath id="pa21167d460">
   <rect height="334.8" width="334.8" x="29.430205" y="12.1987809375"/>
  </clipPath>
 </defs>
</svg>
