<?xml version="1.0" encoding="UTF-8" standalone="no"?>
<!DOCTYPE svg PUBLIC "-//W3C//DTD SVG 1.1//EN"
 "http://www.w3.org/Graphics/SVG/1.1/DTD/svg11.dtd">
<!-- Generated by graphviz version 2.38.0 (20140413.2041)
 -->
<!-- Title: structs Pages: 1 -->
<svg width="633pt" height="111pt"
 viewBox="0.00 0.00 633.00 111.00" xmlns="http://www.w3.org/2000/svg" xmlns:xlink="http://www.w3.org/1999/xlink">
<g id="graph0" class="graph" transform="scale(1 1) rotate(0) translate(4 107)">
<title>structs</title>
<polygon fill="white" stroke="none" points="-4,4 -4,-107 629,-107 629,4 -4,4"/>
<!-- obj_91001488 -->
<g id="node1" class="node"><title>obj_91001488</title>
<polygon fill="white" stroke="black" points="0,-44.5 0,-80.5 125,-80.5 125,-44.5 0,-44.5"/>
<text text-anchor="middle" x="62.5" y="-58.8" font-family="Times New Roman,serif" font-size="14.00">TransformWrapper</text>
</g>
<!-- obj_134027408 -->
<g id="node2" class="node"><title>obj_134027408</title>
<polygon fill="white" stroke="black" points="186,-44.5 186,-80.5 351,-80.5 351,-44.5 186,-44.5"/>
<text text-anchor="middle" x="268.5" y="-58.8" font-family="Times New Roman,serif" font-size="14.00">BlendedGenericTransform</text>
</g>
<!-- obj_91001488&#45;&gt;obj_134027408 -->
<g id="edge4" class="edge"><title>obj_91001488&#45;&gt;obj_134027408</title>
<path fill="none" stroke="black" stroke-width="0.5" d="M125.26,-62.5C141.239,-62.5 158.787,-62.5 175.938,-62.5"/>
<polygon fill="black" stroke="black" stroke-width="0.5" points="175.975,-66.0001 185.975,-62.5 175.975,-59.0001 175.975,-66.0001"/>
<text text-anchor="middle" x="155.5" y="-65.5" font-family="Times New Roman,serif" font-size="10.00">_child</text>
</g>
<!-- obj_134027312 -->
<g id="node3" class="node"><title>obj_134027312</title>
<polygon fill="white" stroke="black" points="401,-66.5 401,-102.5 513,-102.5 513,-66.5 401,-66.5"/>
<text text-anchor="middle" x="457" y="-80.8" font-family="Times New Roman,serif" font-size="14.00">Log10Transform</text>
</g>
<!-- obj_134027408&#45;&gt;obj_134027312 -->
<g id="edge1" class="edge"><title>obj_134027408&#45;&gt;obj_134027312</title>
<path fill="none" stroke="black" stroke-width="0.5" d="M351.03,-72.1175C364.333,-73.6867 377.959,-75.2941 390.802,-76.8091"/>
<polygon fill="black" stroke="black" stroke-width="0.5" points="390.572,-80.3061 400.913,-78.0018 391.392,-73.3543 390.572,-80.3061"/>
<text text-anchor="middle" x="374.5" y="-77.5" font-family="Times New Roman,serif" font-size="10.00">_x</text>
</g>
<!-- obj_91004080 -->
<g id="node4" class="node"><title>obj_91004080</title>
<polygon fill="white" stroke="black" points="398,-11.5 398,-47.5 516,-47.5 516,-11.5 398,-11.5"/>
<text text-anchor="middle" x="457" y="-25.8" font-family="Times New Roman,serif" font-size="14.00">IdentityTransform</text>
</g>
<!-- obj_134027408&#45;&gt;obj_91004080 -->
<g id="edge3" class="edge"><title>obj_134027408&#45;&gt;obj_91004080</title>
<path fill="none" stroke="black" stroke-width="0.5" d="M351.03,-48.0737C363.359,-45.8923 375.965,-43.6617 387.969,-41.5377"/>
<polygon fill="black" stroke="black" stroke-width="0.5" points="388.653,-44.971 397.89,-39.7821 387.434,-38.0781 388.653,-44.971"/>
<text text-anchor="middle" x="374.5" y="-46.5" font-family="Times New Roman,serif" font-size="10.00">_y</text>
</g>
<!-- obj_82055720 -->
<g id="node5" class="node"><title>obj_82055720</title>
<polygon fill="white" stroke="black" points="571,-0.5 571,-58.5 625,-58.5 625,-0.5 571,-0.5"/>
<text text-anchor="start" x="585" y="-43.3" font-family="Times New Roman,serif" font-size="9.00">1</text>
<text text-anchor="start" x="596" y="-43.3" font-family="Times New Roman,serif" font-size="9.00">0</text>
<text text-anchor="start" x="607" y="-43.3" font-family="Times New Roman,serif" font-size="9.00">0</text>
<text text-anchor="start" x="585" y="-27.3" font-family="Times New Roman,serif" font-size="9.00">0</text>
<text text-anchor="start" x="596" y="-27.3" font-family="Times New Roman,serif" font-size="9.00">1</text>
<text text-anchor="start" x="607" y="-27.3" font-family="Times New Roman,serif" font-size="9.00">0</text>
<text text-anchor="start" x="585" y="-11.3" font-family="Times New Roman,serif" font-size="9.00">0</text>
<text text-anchor="start" x="596" y="-11.3" font-family="Times New Roman,serif" font-size="9.00">0</text>
<text text-anchor="start" x="607" y="-11.3" font-family="Times New Roman,serif" font-size="9.00">1</text>
</g>
<!-- obj_91004080&#45;&gt;obj_82055720 -->
<g id="edge2" class="edge"><title>obj_91004080&#45;&gt;obj_82055720</title>
<path fill="none" stroke="black" stroke-width="0.5" d="M516.143,-29.5C531.171,-29.5 546.926,-29.5 560.496,-29.5"/>
<polygon fill="black" stroke="black" stroke-width="0.5" points="560.855,-33.0001 570.855,-29.5 560.855,-26.0001 560.855,-33.0001"/>
<text text-anchor="middle" x="543.5" y="-32.5" font-family="Times New Roman,serif" font-size="10.00">_mtx</text>
</g>
</g>
</svg>
