<?xml version="1.0" encoding="utf-8" standalone="no"?>
<!DOCTYPE svg PUBLIC "-//W3C//DTD SVG 1.1//EN"
  "http://www.w3.org/Graphics/SVG/1.1/DTD/svg11.dtd">
<!-- Created with matplotlib (http://matplotlib.org/) -->
<svg height="206pt" version="1.1" viewBox="0 0 377 206" width="377pt" xmlns="http://www.w3.org/2000/svg" xmlns:xlink="http://www.w3.org/1999/xlink">
 <defs>
  <style type="text/css">
*{stroke-linecap:butt;stroke-linejoin:round;}
  </style>
 </defs>
 <g id="figure_1">
  <g id="patch_1">
   <path d="
M0 206.196
L377.432 206.196
L377.432 0
L0 0
z
" style="fill:#ffffff;"/>
  </g>
  <g id="axes_1">
   <g id="patch_2">
    <path d="
M29.3131 184.999
L364.113 184.999
L364.113 12.1988
L29.3131 12.1988
z
" style="fill:#ffffff;"/>
   </g>
   <g id="PathCollection_1">
    <path clip-path="url(#p7deef2938e)" d="
M166.71 88.2827
C167.495 88.2827 168.247 87.971 168.802 87.4163
C169.357 86.8616 169.668 86.1092 169.668 85.3247
C169.668 84.5402 169.357 83.7877 168.802 83.233
C168.247 82.6783 167.495 82.3666 166.71 82.3666
C165.926 82.3666 165.173 82.6783 164.619 83.233
C164.064 83.7877 163.752 84.5402 163.752 85.3247
C163.752 86.1092 164.064 86.8616 164.619 87.4163
C165.173 87.971 165.926 88.2827 166.71 88.2827
z
" style="fill:#0000ad;stroke:#000000;"/>
    <path clip-path="url(#p7deef2938e)" d="
M304.498 142.307
C305.305 142.307 306.078 141.986 306.649 141.416
C307.219 140.846 307.54 140.072 307.54 139.266
C307.54 138.459 307.219 137.685 306.649 137.115
C306.078 136.545 305.305 136.224 304.498 136.224
C303.692 136.224 302.918 136.545 302.348 137.115
C301.777 137.685 301.457 138.459 301.457 139.266
C301.457 140.072 301.777 140.846 302.348 141.416
C302.918 141.986 303.692 142.307 304.498 142.307
z
" style="fill:#00c0ff;stroke:#000000;"/>
    <path clip-path="url(#p7deef2938e)" d="
M252.193 155.563
C253.062 155.563 253.896 155.217 254.511 154.602
C255.126 153.987 255.471 153.153 255.471 152.284
C255.471 151.414 255.126 150.58 254.511 149.965
C253.896 149.351 253.062 149.005 252.193 149.005
C251.323 149.005 250.489 149.351 249.874 149.965
C249.26 150.58 248.914 151.414 248.914 152.284
C248.914 153.153 249.26 153.987 249.874 154.602
C250.489 155.217 251.323 155.563 252.193 155.563
z
" style="fill:#00d0ff;stroke:#000000;"/>
    <path clip-path="url(#p7deef2938e)" d="
M220.307 46.5476
C221.196 46.5476 222.049 46.1942 222.678 45.5652
C223.307 44.9362 223.661 44.083 223.661 43.1935
C223.661 42.304 223.307 41.4508 222.678 40.8218
C222.049 40.1928 221.196 39.8394 220.307 39.8394
C219.417 39.8394 218.564 40.1928 217.935 40.8218
C217.306 41.4508 216.952 42.304 216.952 43.1935
C216.952 44.083 217.306 44.9362 217.935 45.5652
C218.564 46.1942 219.417 46.5476 220.307 46.5476
z
" style="fill:#ff7a00;stroke:#000000;"/>
    <path clip-path="url(#p7deef2938e)" d="
M114.452 44.4431
C115.332 44.4431 116.176 44.0936 116.798 43.4717
C117.42 42.8497 117.769 42.0061 117.769 41.1265
C117.769 40.2469 117.42 39.4032 116.798 38.7813
C116.176 38.1593 115.332 37.8099 114.452 37.8099
C113.573 37.8099 112.729 38.1593 112.107 38.7813
C111.485 39.4032 111.136 40.2469 111.136 41.1265
C111.136 42.0061 111.485 42.8497 112.107 43.4717
C112.729 44.0936 113.573 44.4431 114.452 44.4431
z
" style="fill:#ffdb00;stroke:#000000;"/>
    <path clip-path="url(#p7deef2938e)" d="
M114.447 63.9978
C115.365 63.9978 116.246 63.6328 116.896 62.9832
C117.546 62.3336 117.911 61.4524 117.911 60.5337
C117.911 59.615 117.546 58.7339 116.896 58.0842
C116.246 57.4346 115.365 57.0696 114.447 57.0696
C113.528 57.0696 112.647 57.4346 111.997 58.0842
C111.348 58.7339 110.983 59.615 110.983 60.5337
C110.983 61.4524 111.348 62.3336 111.997 62.9832
C112.647 63.6328 113.528 63.9978 114.447 63.9978
z
" style="fill:#b60000;stroke:#000000;"/>
    <path clip-path="url(#p7deef2938e)" d="
M91.0319 125.631
C91.8051 125.631 92.5467 125.323 93.0935 124.777
C93.6402 124.23 93.9474 123.488 93.9474 122.715
C93.9474 121.942 93.6402 121.2 93.0935 120.653
C92.5467 120.107 91.8051 119.8 91.0319 119.8
C90.2587 119.8 89.5171 120.107 88.9704 120.653
C88.4236 121.2 88.1164 121.942 88.1164 122.715
C88.1164 123.488 88.4236 124.23 88.9704 124.777
C89.5171 125.323 90.2587 125.631 91.0319 125.631
z
" style="fill:#77ff80;stroke:#000000;"/>
    <path clip-path="url(#p7deef2938e)" d="
M284.281 150.494
C284.874 150.494 285.443 150.258 285.863 149.839
C286.282 149.419 286.518 148.851 286.518 148.258
C286.518 147.665 286.282 147.096 285.863 146.676
C285.443 146.257 284.874 146.021 284.281 146.021
C283.688 146.021 283.12 146.257 282.7 146.676
C282.281 147.096 282.045 147.665 282.045 148.258
C282.045 148.851 282.281 149.419 282.7 149.839
C283.12 150.258 283.688 150.494 284.281 150.494
z
" style="fill:#0000f6;stroke:#000000;"/>
    <path clip-path="url(#p7deef2938e)" d="
M220.894 79.1758
C221.774 79.1758 222.617 78.8263 223.239 78.2044
C223.861 77.5824 224.211 76.7387 224.211 75.8592
C224.211 74.9796 223.861 74.1359 223.239 73.514
C222.617 72.892 221.774 72.5425 220.894 72.5425
C220.014 72.5425 219.171 72.892 218.549 73.514
C217.927 74.1359 217.577 74.9796 217.577 75.8592
C217.577 76.7387 217.927 77.5824 218.549 78.2044
C219.171 78.8263 220.014 79.1758 220.894 79.1758
z
" style="fill:#ff8d00;stroke:#000000;"/>
    <path clip-path="url(#p7deef2938e)" d="
M246.472 108.535
C247.148 108.535 247.797 108.267 248.275 107.788
C248.753 107.31 249.022 106.662 249.022 105.986
C249.022 105.31 248.753 104.661 248.275 104.183
C247.797 103.705 247.148 103.436 246.472 103.436
C245.796 103.436 245.147 103.705 244.669 104.183
C244.191 104.661 243.923 105.31 243.923 105.986
C243.923 106.662 244.191 107.31 244.669 107.788
C245.147 108.267 245.796 108.535 246.472 108.535
z
" style="fill:#ff5900;stroke:#000000;"/>
    <path clip-path="url(#p7deef2938e)" d="
M82.0643 147.896
C82.7659 147.896 83.4389 147.617 83.9351 147.121
C84.4312 146.625 84.71 145.952 84.71 145.25
C84.71 144.548 84.4312 143.875 83.9351 143.379
C83.4389 142.883 82.7659 142.604 82.0643 142.604
C81.3626 142.604 80.6896 142.883 80.1934 143.379
C79.6973 143.875 79.4185 144.548 79.4185 145.25
C79.4185 145.952 79.6973 146.625 80.1934 147.121
C80.6896 147.617 81.3626 147.896 82.0643 147.896
z
" style="fill:#c7ff30;stroke:#000000;"/>
    <path clip-path="url(#p7deef2938e)" d="
M309.089 102.473
C309.958 102.473 310.792 102.127 311.407 101.512
C312.022 100.898 312.367 100.064 312.367 99.1941
C312.367 98.3246 312.022 97.4905 311.407 96.8757
C310.792 96.2608 309.958 95.9154 309.089 95.9154
C308.219 95.9154 307.385 96.2608 306.77 96.8757
C306.155 97.4905 305.81 98.3246 305.81 99.1941
C305.81 100.064 306.155 100.898 306.77 101.512
C307.385 102.127 308.219 102.473 309.089 102.473
z
" style="fill:#ff4e00;stroke:#000000;"/>
    <path clip-path="url(#p7deef2938e)" d="
M276.214 158.305
C276.807 158.305 277.376 158.069 277.795 157.65
C278.215 157.23 278.45 156.662 278.45 156.069
C278.45 155.476 278.215 154.907 277.795 154.487
C277.376 154.068 276.807 153.832 276.214 153.832
C275.621 153.832 275.053 154.068 274.633 154.487
C274.214 154.907 273.978 155.476 273.978 156.069
C273.978 156.662 274.214 157.23 274.633 157.65
C275.053 158.069 275.621 158.305 276.214 158.305
z
" style="fill:#8aff6d;stroke:#000000;"/>
    <path clip-path="url(#p7deef2938e)" d="
M127.921 50.675
C128.61 50.675 129.271 50.4013 129.758 49.9141
C130.245 49.4269 130.519 48.766 130.519 48.0769
C130.519 47.3879 130.245 46.727 129.758 46.2398
C129.271 45.7526 128.61 45.4789 127.921 45.4789
C127.232 45.4789 126.571 45.7526 126.084 46.2398
C125.597 46.727 125.323 47.3879 125.323 48.0769
C125.323 48.766 125.597 49.4269 126.084 49.9141
C126.571 50.4013 127.232 50.675 127.921 50.675
z
" style="fill:#a4ff53;stroke:#000000;"/>
    <path clip-path="url(#p7deef2938e)" d="
M120.624 131.651
C121.493 131.651 122.327 131.305 122.942 130.691
C123.557 130.076 123.902 129.242 123.902 128.372
C123.902 127.503 123.557 126.669 122.942 126.054
C122.327 125.439 121.493 125.094 120.624 125.094
C119.754 125.094 118.92 125.439 118.305 126.054
C117.691 126.669 117.345 127.503 117.345 128.372
C117.345 129.242 117.691 130.076 118.305 130.691
C118.92 131.305 119.754 131.651 120.624 131.651
z
" style="fill:#4dffaa;stroke:#000000;"/>
    <path clip-path="url(#p7deef2938e)" d="
M121.002 81.2775
C121.728 81.2775 122.424 80.9889 122.938 80.4754
C123.452 79.9618 123.74 79.2652 123.74 78.5389
C123.74 77.8126 123.452 77.116 122.938 76.6024
C122.424 76.0888 121.728 75.8003 121.002 75.8003
C120.275 75.8003 119.579 76.0888 119.065 76.6024
C118.551 77.116 118.263 77.8126 118.263 78.5389
C118.263 79.2652 118.551 79.9618 119.065 80.4754
C119.579 80.9889 120.275 81.2775 121.002 81.2775
z
" style="fill:#000080;stroke:#000000;"/>
    <path clip-path="url(#p7deef2938e)" d="
M149.899 124.839
C150.695 124.839 151.458 124.523 152.02 123.96
C152.583 123.398 152.899 122.635 152.899 121.839
C152.899 121.043 152.583 120.28 152.02 119.718
C151.458 119.155 150.695 118.839 149.899 118.839
C149.103 118.839 148.34 119.155 147.778 119.718
C147.215 120.28 146.899 121.043 146.899 121.839
C146.899 122.635 147.215 123.398 147.778 123.96
C148.34 124.523 149.103 124.839 149.899 124.839
z
" style="fill:#0000e8;stroke:#000000;"/>
    <path clip-path="url(#p7deef2938e)" d="
M202.633 98.7199
C203.322 98.7199 203.983 98.4461 204.471 97.9589
C204.958 97.4717 205.231 96.8108 205.231 96.1218
C205.231 95.4328 204.958 94.7719 204.471 94.2847
C203.983 93.7975 203.322 93.5237 202.633 93.5237
C201.944 93.5237 201.283 93.7975 200.796 94.2847
C200.309 94.7719 200.035 95.4328 200.035 96.1218
C200.035 96.8108 200.309 97.4717 200.796 97.9589
C201.283 98.4461 201.944 98.7199 202.633 98.7199
z
" style="fill:#000084;stroke:#000000;"/>
    <path clip-path="url(#p7deef2938e)" d="
M180.438 96.5076
C181.413 96.5076 182.347 96.1205 183.036 95.4315
C183.725 94.7425 184.112 93.8078 184.112 92.8334
C184.112 91.859 183.725 90.9243 183.036 90.2353
C182.347 89.5463 181.413 89.1592 180.438 89.1592
C179.464 89.1592 178.529 89.5463 177.84 90.2353
C177.151 90.9243 176.764 91.859 176.764 92.8334
C176.764 93.8078 177.151 94.7425 177.84 95.4315
C178.529 96.1205 179.464 96.5076 180.438 96.5076
z
" style="fill:#ffde00;stroke:#000000;"/>
    <path clip-path="url(#p7deef2938e)" d="
M146.787 141.171
C147.761 141.171 148.696 140.784 149.385 140.095
C150.074 139.406 150.461 138.471 150.461 137.497
C150.461 136.522 150.074 135.588 149.385 134.899
C148.696 134.21 147.761 133.823 146.787 133.823
C145.813 133.823 144.878 134.21 144.189 134.899
C143.5 135.588 143.113 136.522 143.113 137.497
C143.113 138.471 143.5 139.406 144.189 140.095
C144.878 140.784 145.813 141.171 146.787 141.171
z
" style="fill:#00c4ff;stroke:#000000;"/>
    <path clip-path="url(#p7deef2938e)" d="
M223.462 44.2442
C224.418 44.2442 225.335 43.8643 226.011 43.1881
C226.688 42.512 227.067 41.5948 227.067 40.6386
C227.067 39.6824 226.688 38.7652 226.011 38.0891
C225.335 37.413 224.418 37.0331 223.462 37.0331
C222.506 37.0331 221.589 37.413 220.912 38.0891
C220.236 38.7652 219.856 39.6824 219.856 40.6386
C219.856 41.5948 220.236 42.512 220.912 43.1881
C221.589 43.8643 222.506 44.2442 223.462 44.2442
z
" style="fill:#97ff60;stroke:#000000;"/>
    <path clip-path="url(#p7deef2938e)" d="
M110.501 67.089
C111.15 67.089 111.773 66.8309 112.233 66.3716
C112.692 65.9122 112.95 65.2891 112.95 64.6395
C112.95 63.9899 112.692 63.3668 112.233 62.9075
C111.773 62.4481 111.15 62.19 110.501 62.19
C109.851 62.19 109.228 62.4481 108.769 62.9075
C108.309 63.3668 108.051 63.9899 108.051 64.6395
C108.051 65.2891 108.309 65.9122 108.769 66.3716
C109.228 66.8309 109.851 67.089 110.501 67.089
z
" style="fill:#9b0000;stroke:#000000;"/>
    <path clip-path="url(#p7deef2938e)" d="
M147.006 48.1599
C148.016 48.1599 148.984 47.7587 149.699 47.0446
C150.413 46.3306 150.814 45.3619 150.814 44.3521
C150.814 43.3422 150.413 42.3736 149.699 41.6595
C148.984 40.9454 148.016 40.5442 147.006 40.5442
C145.996 40.5442 145.027 40.9454 144.313 41.6595
C143.599 42.3736 143.198 43.3422 143.198 44.3521
C143.198 45.3619 143.599 46.3306 144.313 47.0446
C145.027 47.7587 145.996 48.1599 147.006 48.1599
z
" style="fill:#007cff;stroke:#000000;"/>
    <path clip-path="url(#p7deef2938e)" d="
M164.754 53.2936
C165.664 53.2936 166.535 52.9325 167.178 52.2896
C167.821 51.6468 168.182 50.7749 168.182 49.8658
C168.182 48.9567 167.821 48.0848 167.178 47.442
C166.535 46.7992 165.664 46.438 164.754 46.438
C163.845 46.438 162.973 46.7992 162.331 47.442
C161.688 48.0848 161.327 48.9567 161.327 49.8658
C161.327 50.7749 161.688 51.6468 162.331 52.2896
C162.973 52.9325 163.845 53.2936 164.754 53.2936
z
" style="fill:#3cffba;stroke:#000000;"/>
    <path clip-path="url(#p7deef2938e)" d="
M186.208 89.0646
C186.884 89.0646 187.532 88.796 188.01 88.3179
C188.488 87.8398 188.757 87.1913 188.757 86.5151
C188.757 85.839 188.488 85.1905 188.01 84.7124
C187.532 84.2342 186.884 83.9656 186.208 83.9656
C185.531 83.9656 184.883 84.2342 184.405 84.7124
C183.927 85.1905 183.658 85.839 183.658 86.5151
C183.658 87.1913 183.927 87.8398 184.405 88.3179
C184.883 88.796 185.531 89.0646 186.208 89.0646
z
" style="fill:#ff6000;stroke:#000000;"/>
    <path clip-path="url(#p7deef2938e)" d="
M264.911 49.1732
C265.613 49.1732 266.286 48.8944 266.782 48.3983
C267.278 47.9021 267.557 47.2291 267.557 46.5274
C267.557 45.8258 267.278 45.1528 266.782 44.6566
C266.286 44.1605 265.613 43.8817 264.911 43.8817
C264.209 43.8817 263.536 44.1605 263.04 44.6566
C262.544 45.1528 262.265 45.8258 262.265 46.5274
C262.265 47.2291 262.544 47.9021 263.04 48.3983
C263.536 48.8944 264.209 49.1732 264.911 49.1732
z
" style="fill:#0064ff;stroke:#000000;"/>
    <path clip-path="url(#p7deef2938e)" d="
M124.892 151.989
C125.581 151.989 126.242 151.715 126.729 151.228
C127.217 150.74 127.49 150.08 127.49 149.391
C127.49 148.702 127.217 148.041 126.729 147.553
C126.242 147.066 125.581 146.792 124.892 146.792
C124.203 146.792 123.542 147.066 123.055 147.553
C122.568 148.041 122.294 148.702 122.294 149.391
C122.294 150.08 122.568 150.74 123.055 151.228
C123.542 151.715 124.203 151.989 124.892 151.989
z
" style="fill:#0000bf;stroke:#000000;"/>
    <path clip-path="url(#p7deef2938e)" d="
M200.117 138.907
C200.855 138.907 201.564 138.614 202.086 138.092
C202.608 137.57 202.901 136.861 202.901 136.123
C202.901 135.385 202.608 134.677 202.086 134.155
C201.564 133.633 200.855 133.339 200.117 133.339
C199.379 133.339 198.671 133.633 198.149 134.155
C197.627 134.677 197.333 135.385 197.333 136.123
C197.333 136.861 197.627 137.57 198.149 138.092
C198.671 138.614 199.379 138.907 200.117 138.907
z
" style="fill:#00a8ff;stroke:#000000;"/>
    <path clip-path="url(#p7deef2938e)" d="
M218.813 158.371
C219.779 158.371 220.705 157.987 221.387 157.305
C222.07 156.622 222.453 155.696 222.453 154.731
C222.453 153.765 222.07 152.839 221.387 152.157
C220.705 151.474 219.779 151.091 218.813 151.091
C217.848 151.091 216.922 151.474 216.239 152.157
C215.557 152.839 215.173 153.765 215.173 154.731
C215.173 155.696 215.557 156.622 216.239 157.305
C216.922 157.987 217.848 158.371 218.813 158.371
z
" style="fill:#0018ff;stroke:#000000;"/>
    <path clip-path="url(#p7deef2938e)" d="
M88.2499 123.764
C89.2061 123.764 90.1233 123.384 90.7994 122.708
C91.4756 122.031 91.8555 121.114 91.8555 120.158
C91.8555 119.202 91.4756 118.285 90.7994 117.608
C90.1233 116.932 89.2061 116.552 88.2499 116.552
C87.2937 116.552 86.3765 116.932 85.7004 117.608
C85.0243 118.285 84.6444 119.202 84.6444 120.158
C84.6444 121.114 85.0243 122.031 85.7004 122.708
C86.3765 123.384 87.2937 123.764 88.2499 123.764
z
" style="fill:#800000;stroke:#000000;"/>
   </g>
   <g id="patch_3">
    <path d="
M29.3131 12.1988
L364.113 12.1988" style="fill:none;stroke:#000000;stroke-linecap:square;stroke-linejoin:miter;"/>
   </g>
   <g id="patch_4">
    <path d="
M364.113 184.999
L364.113 12.1988" style="fill:none;stroke:#000000;stroke-linecap:square;stroke-linejoin:miter;"/>
   </g>
   <g id="patch_5">
    <path d="
M29.3131 184.999
L364.113 184.999" style="fill:none;stroke:#000000;stroke-linecap:square;stroke-linejoin:miter;"/>
   </g>
   <g id="patch_6">
    <path d="
M29.3131 184.999
L29.3131 12.1988" style="fill:none;stroke:#000000;stroke-linecap:square;stroke-linejoin:miter;"/>
   </g>
   <g id="matplotlib.axis_1">
    <g id="xtick_1">
     <g id="line2d_1">
      <defs>
       <path d="
M0 0
L0 -4" id="m93b0483c22" style="stroke:#000000;stroke-width:0.5;"/>
      </defs>
      <g>
       <use style="stroke:#000000;stroke-width:0.5;" x="29.313064375" xlink:href="#m93b0483c22" y="184.998780938"/>
      </g>
     </g>
     <g id="line2d_2">
      <defs>
       <path d="
M0 0
L0 4" id="m741efc42ff" style="stroke:#000000;stroke-width:0.5;"/>
      </defs>
      <g>
       <use style="stroke:#000000;stroke-width:0.5;" x="29.313064375" xlink:href="#m741efc42ff" y="12.1987809375"/>
      </g>
     </g>
     <g id="text_1">
      <!-- −0.2 -->
      <defs>
       <path d="
M49.2188 0
L4.6875 0
L4.6875 7.625
L21.7812 26.2188
Q25.4375 30.1719 28.3125 33.4375
Q31.2031 36.7188 33.2188 39.8438
Q35.25 42.9688 36.3281 46.1094
Q37.4062 49.2656 37.4062 52.9844
Q37.4062 55.8594 36.5781 58.0469
Q35.75 60.25 34.2031 61.7812
Q32.6719 63.3281 30.5625 64.1094
Q28.4688 64.8906 25.875 64.8906
Q21.2344 64.8906 17.5 63.0156
Q13.7656 61.1406 10.4062 58.2031
L5.42188 64.0156
Q7.375 65.7656 9.60938 67.2969
Q11.8594 68.8438 14.4531 69.9688
Q17.0469 71.0938 19.9219 71.75
Q22.7969 72.4062 25.9844 72.4062
Q30.6719 72.4062 34.4531 71.0938
Q38.2344 69.7812 40.8594 67.3125
Q43.5 64.8438 44.9375 61.2969
Q46.3906 57.7656 46.3906 53.3281
Q46.3906 49.1719 45.0938 45.4062
Q43.7969 41.6562 41.5312 38.0156
Q39.2656 34.375 36.1094 30.7031
Q32.9531 27.0469 29.2969 23.0938
L15.5781 8.5
L15.5781 8.10938
L49.2188 8.10938
z
" id="WenQuanYiMicroHei-32"/>
       <path d="
M50.3906 35.7969
Q50.3906 27.1562 49.1406 20.3125
Q47.9062 13.4844 45.1406 8.73438
Q42.3906 4 38.0312 1.5
Q33.6875 -0.984375 27.4844 -0.984375
Q21.7344 -0.984375 17.4531 1.5
Q13.1875 4 10.375 8.73438
Q7.5625 13.4844 6.17188 20.3125
Q4.78125 27.1562 4.78125 35.7969
Q4.78125 44.4375 6.03125 51.2656
Q7.28125 58.1094 9.98438 62.8125
Q12.7031 67.5312 17.0156 70.0156
Q21.3438 72.5156 27.4844 72.5156
Q33.2969 72.5156 37.5938 70.0469
Q41.8906 67.5781 44.7188 62.8594
Q47.5625 58.1562 48.9688 51.3125
Q50.3906 44.4844 50.3906 35.7969
M13.8125 35.7969
Q13.8125 28.4688 14.5469 23
Q15.2812 17.5312 16.8906 13.8906
Q18.5 10.25 21.1094 8.42188
Q23.7344 6.59375 27.4844 6.59375
Q31.25 6.59375 33.8906 8.39062
Q36.5312 10.2031 38.2031 13.8125
Q39.8906 17.4375 40.6406 22.9219
Q41.4062 28.4219 41.4062 35.7969
Q41.4062 43.1094 40.6406 48.5781
Q39.8906 54.0469 38.2031 57.6562
Q36.5312 61.2812 33.8906 63.0781
Q31.25 64.8906 27.4844 64.8906
Q23.7344 64.8906 21.1094 63.0781
Q18.5 61.2812 16.8906 57.6562
Q15.2812 54.0469 14.5469 48.5781
Q13.8125 43.1094 13.8125 35.7969" id="WenQuanYiMicroHei-30"/>
       <path d="
M4.98438 31.5938
L4.98438 38.9219
L50.0938 38.9219
L50.0938 31.5938
z
" id="WenQuanYiMicroHei-2212"/>
       <path d="
M7.17188 5.42188
Q7.17188 7.28125 7.65625 8.5625
Q8.15625 9.85938 8.98438 10.6562
Q9.8125 11.4688 10.9375 11.8281
Q12.0625 12.2031 13.375 12.2031
Q14.6562 12.2031 15.7969 11.8281
Q16.9375 11.4688 17.7656 10.6562
Q18.6094 9.85938 19.0938 8.5625
Q19.5781 7.28125 19.5781 5.42188
Q19.5781 3.60938 19.0938 2.3125
Q18.6094 1.03125 17.7656 0.1875
Q16.9375 -0.640625 15.7969 -1.03125
Q14.6562 -1.42188 13.375 -1.42188
Q12.0625 -1.42188 10.9375 -1.03125
Q9.8125 -0.640625 8.98438 0.1875
Q8.15625 1.03125 7.65625 2.3125
Q7.17188 3.60938 7.17188 5.42188" id="WenQuanYiMicroHei-2e"/>
      </defs>
      <g transform="translate(20.2565321875 196.594179063)scale(0.09996 -0.09996)">
       <use xlink:href="#WenQuanYiMicroHei-2212"/>
       <use x="55.078125" xlink:href="#WenQuanYiMicroHei-30"/>
       <use x="110.15625" xlink:href="#WenQuanYiMicroHei-2e"/>
       <use x="136.962890625" xlink:href="#WenQuanYiMicroHei-32"/>
      </g>
     </g>
    </g>
    <g id="xtick_2">
     <g id="line2d_3">
      <g>
       <use style="stroke:#000000;stroke-width:0.5;" x="77.1416358036" xlink:href="#m93b0483c22" y="184.998780938"/>
      </g>
     </g>
     <g id="line2d_4">
      <g>
       <use style="stroke:#000000;stroke-width:0.5;" x="77.1416358036" xlink:href="#m741efc42ff" y="12.1987809375"/>
      </g>
     </g>
     <g id="text_2">
      <!-- 0.0 -->
      <g transform="translate(70.7691858036 196.594179063)scale(0.09996 -0.09996)">
       <use xlink:href="#WenQuanYiMicroHei-30"/>
       <use x="55.078125" xlink:href="#WenQuanYiMicroHei-2e"/>
       <use x="81.884765625" xlink:href="#WenQuanYiMicroHei-30"/>
      </g>
     </g>
    </g>
    <g id="xtick_3">
     <g id="line2d_5">
      <g>
       <use style="stroke:#000000;stroke-width:0.5;" x="124.970207232" xlink:href="#m93b0483c22" y="184.998780938"/>
      </g>
     </g>
     <g id="line2d_6">
      <g>
       <use style="stroke:#000000;stroke-width:0.5;" x="124.970207232" xlink:href="#m741efc42ff" y="12.1987809375"/>
      </g>
     </g>
     <g id="text_3">
      <!-- 0.2 -->
      <g transform="translate(118.656327545 196.594179063)scale(0.09996 -0.09996)">
       <use xlink:href="#WenQuanYiMicroHei-30"/>
       <use x="55.078125" xlink:href="#WenQuanYiMicroHei-2e"/>
       <use x="81.884765625" xlink:href="#WenQuanYiMicroHei-32"/>
      </g>
     </g>
    </g>
    <g id="xtick_4">
     <g id="line2d_7">
      <g>
       <use style="stroke:#000000;stroke-width:0.5;" x="172.798778661" xlink:href="#m93b0483c22" y="184.998780938"/>
      </g>
     </g>
     <g id="line2d_8">
      <g>
       <use style="stroke:#000000;stroke-width:0.5;" x="172.798778661" xlink:href="#m741efc42ff" y="12.1987809375"/>
      </g>
     </g>
     <g id="text_4">
      <!-- 0.4 -->
      <defs>
       <path d="
M53.0781 16.0156
L42.6719 16.0156
L42.6719 0
L34.0781 0
L34.0781 16.0156
L1.125 16.0156
L1.125 23.7812
L33.5 71.7812
L42.6719 71.7812
L42.6719 24.125
L53.0781 24.125
z

M34.0781 24.125
L34.0781 41.5
Q34.0781 44.2344 34.1562 47.2344
Q34.2344 50.25 34.3281 53.0938
Q34.4219 55.9531 34.5469 58.4375
Q34.6719 60.9375 34.7188 62.5938
L34.2812 62.5938
Q33.9375 61.625 33.4219 60.4219
Q32.9062 59.2344 32.2969 58.0312
Q31.6875 56.8438 31.0469 55.7188
Q30.4219 54.5938 29.8906 53.8125
L9.8125 24.125
z
" id="WenQuanYiMicroHei-34"/>
      </defs>
      <g transform="translate(166.292007411 196.594179063)scale(0.09996 -0.09996)">
       <use xlink:href="#WenQuanYiMicroHei-30"/>
       <use x="55.078125" xlink:href="#WenQuanYiMicroHei-2e"/>
       <use x="81.884765625" xlink:href="#WenQuanYiMicroHei-34"/>
      </g>
     </g>
    </g>
    <g id="xtick_5">
     <g id="line2d_9">
      <g>
       <use style="stroke:#000000;stroke-width:0.5;" x="220.627350089" xlink:href="#m93b0483c22" y="184.998780938"/>
      </g>
     </g>
     <g id="line2d_10">
      <g>
       <use style="stroke:#000000;stroke-width:0.5;" x="220.627350089" xlink:href="#m741efc42ff" y="12.1987809375"/>
      </g>
     </g>
     <g id="text_5">
      <!-- 0.6 -->
      <defs>
       <path d="
M5.51562 30.5156
Q5.51562 35.6406 6.03125 40.7188
Q6.54688 45.7969 7.82812 50.4531
Q9.125 55.125 11.375 59.125
Q13.625 63.1406 17.0938 66.0938
Q20.5625 69.0469 25.3906 70.7188
Q30.2188 72.4062 36.7188 72.4062
Q37.6406 72.4062 38.7656 72.3594
Q39.8906 72.3125 41.0312 72.1875
Q42.1875 72.0781 43.2344 71.9062
Q44.2812 71.7344 45.125 71.4844
L45.125 63.9219
Q43.4062 64.5 41.25 64.7969
Q39.1094 65.0938 37.0156 65.0938
Q32.625 65.0938 29.2656 64.0312
Q25.9219 62.9844 23.4844 61.0781
Q21.0469 59.1875 19.4062 56.5469
Q17.7812 53.9062 16.75 50.7031
Q15.7188 47.5156 15.2344 43.8906
Q14.75 40.2812 14.5938 36.375
L15.1875 36.375
Q16.1562 38.1406 17.5469 39.6719
Q18.9531 41.2188 20.7969 42.3125
Q22.6562 43.4062 24.9688 44.0312
Q27.2969 44.6719 30.1719 44.6719
Q34.8125 44.6719 38.5625 43.2344
Q42.3281 41.7969 44.9688 39.0156
Q47.6094 36.2344 49.0469 32.2031
Q50.4844 28.1719 50.4844 23
Q50.4844 17.4375 48.9688 12.9844
Q47.4688 8.54688 44.625 5.4375
Q41.7969 2.34375 37.7969 0.671875
Q33.7969 -0.984375 28.8125 -0.984375
Q23.9219 -0.984375 19.6406 0.921875
Q15.375 2.82812 12.25 6.73438
Q9.125 10.6406 7.3125 16.5469
Q5.51562 22.4688 5.51562 30.5156
M28.7188 6.5
Q31.6406 6.5 34.0469 7.5
Q36.4688 8.5 38.2188 10.5156
Q39.9844 12.5469 40.9375 15.6406
Q41.8906 18.75 41.8906 23
Q41.8906 26.4219 41.0781 29.125
Q40.2812 31.8438 38.6719 33.7344
Q37.0625 35.6406 34.6406 36.6719
Q32.2344 37.7031 29 37.7031
Q25.7344 37.7031 23.0156 36.5469
Q20.3125 35.4062 18.4062 33.5625
Q16.5 31.7344 15.4531 29.3906
Q14.4062 27.0469 14.4062 24.7031
Q14.4062 21.4375 15.3125 18.1875
Q16.2188 14.9375 18 12.3438
Q19.7812 9.76562 22.4531 8.125
Q25.1406 6.5 28.7188 6.5" id="WenQuanYiMicroHei-36"/>
      </defs>
      <g transform="translate(214.250214464 196.594179063)scale(0.09996 -0.09996)">
       <use xlink:href="#WenQuanYiMicroHei-30"/>
       <use x="55.078125" xlink:href="#WenQuanYiMicroHei-2e"/>
       <use x="81.884765625" xlink:href="#WenQuanYiMicroHei-36"/>
      </g>
     </g>
    </g>
    <g id="xtick_6">
     <g id="line2d_11">
      <g>
       <use style="stroke:#000000;stroke-width:0.5;" x="268.455921518" xlink:href="#m93b0483c22" y="184.998780938"/>
      </g>
     </g>
     <g id="line2d_12">
      <g>
       <use style="stroke:#000000;stroke-width:0.5;" x="268.455921518" xlink:href="#m741efc42ff" y="12.1987809375"/>
      </g>
     </g>
     <g id="text_6">
      <!-- 0.8 -->
      <defs>
       <path d="
M27.5938 72.5156
Q31.6875 72.5156 35.3281 71.4375
Q38.9688 70.3594 41.7188 68.2031
Q44.4844 66.0625 46.0938 62.8438
Q47.7031 59.625 47.7031 55.3281
Q47.7031 52.0469 46.7188 49.4062
Q45.75 46.7812 44.0312 44.6562
Q42.3281 42.5312 39.9844 40.8438
Q37.6406 39.1562 34.9062 37.7969
Q37.75 36.2812 40.4531 34.4219
Q43.1719 32.5625 45.2812 30.25
Q47.4062 27.9375 48.7031 25.0469
Q50 22.1719 50 18.6094
Q50 14.1094 48.3594 10.4688
Q46.7344 6.84375 43.7812 4.29688
Q40.8281 1.76562 36.6875 0.390625
Q32.5625 -0.984375 27.5938 -0.984375
Q22.2188 -0.984375 18.0469 0.328125
Q13.875 1.65625 11.0156 4.125
Q8.15625 6.59375 6.65625 10.1562
Q5.17188 13.7188 5.17188 18.2188
Q5.17188 21.875 6.26562 24.7969
Q7.375 27.7344 9.21875 30.0781
Q11.0781 32.4219 13.6094 34.2188
Q16.1562 36.0312 19 37.4062
Q16.6094 38.9219 14.5 40.7031
Q12.4062 42.4844 10.8594 44.6719
Q9.32812 46.875 8.42188 49.5312
Q7.51562 52.2031 7.51562 55.4219
Q7.51562 59.6719 9.15625 62.8594
Q10.7969 66.0625 13.5781 68.2031
Q16.3594 70.3594 20 71.4375
Q23.6406 72.5156 27.5938 72.5156
M13.9219 18.1094
Q13.9219 15.5312 14.7031 13.3594
Q15.4844 11.1875 17.1406 9.64062
Q18.7969 8.10938 21.3281 7.25
Q23.875 6.39062 27.3906 6.39062
Q30.8125 6.39062 33.4219 7.25
Q36.0312 8.10938 37.7812 9.6875
Q39.5469 11.2812 40.4219 13.5156
Q41.3125 15.7656 41.3125 18.5
Q41.3125 21.0469 40.3594 23.0938
Q39.4062 25.1406 37.625 26.8906
Q35.8438 28.6562 33.3438 30.2188
Q30.8594 31.7812 27.7812 33.2969
L26.3125 33.9844
Q20.1719 31.0625 17.0469 27.2656
Q13.9219 23.4844 13.9219 18.1094
M27.4844 65.0938
Q22.3125 65.0938 19.2656 62.5
Q16.2188 59.9062 16.2188 54.9844
Q16.2188 52.2031 17.0625 50.1875
Q17.9219 48.1875 19.4375 46.625
Q20.9531 45.0625 23.0781 43.8125
Q25.2031 42.5781 27.6875 41.4062
Q30.0312 42.4844 32.1094 43.75
Q34.1875 45.0156 35.7188 46.625
Q37.25 48.25 38.125 50.2969
Q39.0156 52.3438 39.0156 54.9844
Q39.0156 59.9062 35.9375 62.5
Q32.8594 65.0938 27.4844 65.0938" id="WenQuanYiMicroHei-38"/>
      </defs>
      <g transform="translate(262.102994955 196.594179063)scale(0.09996 -0.09996)">
       <use xlink:href="#WenQuanYiMicroHei-30"/>
       <use x="55.078125" xlink:href="#WenQuanYiMicroHei-2e"/>
       <use x="81.884765625" xlink:href="#WenQuanYiMicroHei-38"/>
      </g>
     </g>
    </g>
    <g id="xtick_7">
     <g id="line2d_13">
      <g>
       <use style="stroke:#000000;stroke-width:0.5;" x="316.284492946" xlink:href="#m93b0483c22" y="184.998780938"/>
      </g>
     </g>
     <g id="line2d_14">
      <g>
       <use style="stroke:#000000;stroke-width:0.5;" x="316.284492946" xlink:href="#m741efc42ff" y="12.1987809375"/>
      </g>
     </g>
     <g id="text_7">
      <!-- 1.0 -->
      <defs>
       <path d="
M34.7188 0
L26.125 0
L26.125 44.5781
Q26.125 46.6875 26.1406 49.0781
Q26.1719 51.4688 26.2344 53.8281
Q26.3125 56.2031 26.3906 58.375
Q26.4688 60.5469 26.5156 62.2031
Q25.6875 61.3281 25.0469 60.6875
Q24.4219 60.0625 23.75 59.4688
Q23.0938 58.8906 22.3594 58.2188
Q21.625 57.5625 20.6094 56.6875
L13.375 50.7812
L8.6875 56.7812
L27.3906 71.3906
L34.7188 71.3906
z
" id="WenQuanYiMicroHei-31"/>
      </defs>
      <g transform="translate(310.107277321 196.594179063)scale(0.09996 -0.09996)">
       <use xlink:href="#WenQuanYiMicroHei-31"/>
       <use x="55.078125" xlink:href="#WenQuanYiMicroHei-2e"/>
       <use x="81.884765625" xlink:href="#WenQuanYiMicroHei-30"/>
      </g>
     </g>
    </g>
    <g id="xtick_8">
     <g id="line2d_15">
      <g>
       <use style="stroke:#000000;stroke-width:0.5;" x="364.113064375" xlink:href="#m93b0483c22" y="184.998780938"/>
      </g>
     </g>
     <g id="line2d_16">
      <g>
       <use style="stroke:#000000;stroke-width:0.5;" x="364.113064375" xlink:href="#m741efc42ff" y="12.1987809375"/>
      </g>
     </g>
     <g id="text_8">
      <!-- 1.2 -->
      <g transform="translate(357.994419063 196.594179063)scale(0.09996 -0.09996)">
       <use xlink:href="#WenQuanYiMicroHei-31"/>
       <use x="55.078125" xlink:href="#WenQuanYiMicroHei-2e"/>
       <use x="81.884765625" xlink:href="#WenQuanYiMicroHei-32"/>
      </g>
     </g>
    </g>
   </g>
   <g id="matplotlib.axis_2">
    <g id="ytick_1">
     <g id="line2d_17">
      <defs>
       <path d="
M0 0
L4 0" id="m728421d6d4" style="stroke:#000000;stroke-width:0.5;"/>
      </defs>
      <g>
       <use style="stroke:#000000;stroke-width:0.5;" x="29.313064375" xlink:href="#m728421d6d4" y="184.998780938"/>
      </g>
     </g>
     <g id="line2d_18">
      <defs>
       <path d="
M0 0
L-4 0" id="mcb0005524f" style="stroke:#000000;stroke-width:0.5;"/>
      </defs>
      <g>
       <use style="stroke:#000000;stroke-width:0.5;" x="364.113064375" xlink:href="#mcb0005524f" y="184.998780938"/>
      </g>
     </g>
     <g id="text_9">
      <!-- −0.2 -->
      <g transform="translate(7.2 187.595398125)scale(0.09996 -0.09996)">
       <use xlink:href="#WenQuanYiMicroHei-2212"/>
       <use x="55.078125" xlink:href="#WenQuanYiMicroHei-30"/>
       <use x="110.15625" xlink:href="#WenQuanYiMicroHei-2e"/>
       <use x="136.962890625" xlink:href="#WenQuanYiMicroHei-32"/>
      </g>
     </g>
    </g>
    <g id="ytick_2">
     <g id="line2d_19">
      <g>
       <use style="stroke:#000000;stroke-width:0.5;" x="29.313064375" xlink:href="#m728421d6d4" y="160.313066652"/>
      </g>
     </g>
     <g id="line2d_20">
      <g>
       <use style="stroke:#000000;stroke-width:0.5;" x="364.113064375" xlink:href="#mcb0005524f" y="160.313066652"/>
      </g>
     </g>
     <g id="text_10">
      <!-- 0.0 -->
      <g transform="translate(12.568164375 162.909683839)scale(0.09996 -0.09996)">
       <use xlink:href="#WenQuanYiMicroHei-30"/>
       <use x="55.078125" xlink:href="#WenQuanYiMicroHei-2e"/>
       <use x="81.884765625" xlink:href="#WenQuanYiMicroHei-30"/>
      </g>
     </g>
    </g>
    <g id="ytick_3">
     <g id="line2d_21">
      <g>
       <use style="stroke:#000000;stroke-width:0.5;" x="29.313064375" xlink:href="#m728421d6d4" y="135.627352366"/>
      </g>
     </g>
     <g id="line2d_22">
      <g>
       <use style="stroke:#000000;stroke-width:0.5;" x="364.113064375" xlink:href="#mcb0005524f" y="135.627352366"/>
      </g>
     </g>
     <g id="text_11">
      <!-- 0.2 -->
      <g transform="translate(12.685305 138.223969554)scale(0.09996 -0.09996)">
       <use xlink:href="#WenQuanYiMicroHei-30"/>
       <use x="55.078125" xlink:href="#WenQuanYiMicroHei-2e"/>
       <use x="81.884765625" xlink:href="#WenQuanYiMicroHei-32"/>
      </g>
     </g>
    </g>
    <g id="ytick_4">
     <g id="line2d_23">
      <g>
       <use style="stroke:#000000;stroke-width:0.5;" x="29.313064375" xlink:href="#m728421d6d4" y="110.94163808"/>
      </g>
     </g>
     <g id="line2d_24">
      <g>
       <use style="stroke:#000000;stroke-width:0.5;" x="364.113064375" xlink:href="#mcb0005524f" y="110.94163808"/>
      </g>
     </g>
     <g id="text_12">
      <!-- 0.4 -->
      <g transform="translate(12.299521875 113.538255268)scale(0.09996 -0.09996)">
       <use xlink:href="#WenQuanYiMicroHei-30"/>
       <use x="55.078125" xlink:href="#WenQuanYiMicroHei-2e"/>
       <use x="81.884765625" xlink:href="#WenQuanYiMicroHei-34"/>
      </g>
     </g>
    </g>
    <g id="ytick_5">
     <g id="line2d_25">
      <g>
       <use style="stroke:#000000;stroke-width:0.5;" x="29.313064375" xlink:href="#m728421d6d4" y="86.2559237946"/>
      </g>
     </g>
     <g id="line2d_26">
      <g>
       <use style="stroke:#000000;stroke-width:0.5;" x="364.113064375" xlink:href="#mcb0005524f" y="86.2559237946"/>
      </g>
     </g>
     <g id="text_13">
      <!-- 0.6 -->
      <g transform="translate(12.558793125 88.8525409821)scale(0.09996 -0.09996)">
       <use xlink:href="#WenQuanYiMicroHei-30"/>
       <use x="55.078125" xlink:href="#WenQuanYiMicroHei-2e"/>
       <use x="81.884765625" xlink:href="#WenQuanYiMicroHei-36"/>
      </g>
     </g>
    </g>
    <g id="ytick_6">
     <g id="line2d_27">
      <g>
       <use style="stroke:#000000;stroke-width:0.5;" x="29.313064375" xlink:href="#m728421d6d4" y="61.5702095089"/>
      </g>
     </g>
     <g id="line2d_28">
      <g>
       <use style="stroke:#000000;stroke-width:0.5;" x="364.113064375" xlink:href="#mcb0005524f" y="61.5702095089"/>
      </g>
     </g>
     <g id="text_14">
      <!-- 0.8 -->
      <g transform="translate(12.60721125 64.1668266964)scale(0.09996 -0.09996)">
       <use xlink:href="#WenQuanYiMicroHei-30"/>
       <use x="55.078125" xlink:href="#WenQuanYiMicroHei-2e"/>
       <use x="81.884765625" xlink:href="#WenQuanYiMicroHei-38"/>
      </g>
     </g>
    </g>
    <g id="ytick_7">
     <g id="line2d_29">
      <g>
       <use style="stroke:#000000;stroke-width:0.5;" x="29.313064375" xlink:href="#m728421d6d4" y="36.8844952232"/>
      </g>
     </g>
     <g id="line2d_30">
      <g>
       <use style="stroke:#000000;stroke-width:0.5;" x="364.113064375" xlink:href="#mcb0005524f" y="36.8844952232"/>
      </g>
     </g>
     <g id="text_15">
      <!-- 1.0 -->
      <g transform="translate(12.958633125 39.4811124107)scale(0.09996 -0.09996)">
       <use xlink:href="#WenQuanYiMicroHei-31"/>
       <use x="55.078125" xlink:href="#WenQuanYiMicroHei-2e"/>
       <use x="81.884765625" xlink:href="#WenQuanYiMicroHei-30"/>
      </g>
     </g>
    </g>
    <g id="ytick_8">
     <g id="line2d_31">
      <g>
       <use style="stroke:#000000;stroke-width:0.5;" x="29.313064375" xlink:href="#m728421d6d4" y="12.1987809375"/>
      </g>
     </g>
     <g id="line2d_32">
      <g>
       <use style="stroke:#000000;stroke-width:0.5;" x="364.113064375" xlink:href="#mcb0005524f" y="12.1987809375"/>
      </g>
     </g>
     <g id="text_16">
      <!-- 1.2 -->
      <g transform="translate(13.07577375 14.795398125)scale(0.09996 -0.09996)">
       <use xlink:href="#WenQuanYiMicroHei-31"/>
       <use x="55.078125" xlink:href="#WenQuanYiMicroHei-2e"/>
       <use x="81.884765625" xlink:href="#WenQuanYiMicroHei-32"/>
      </g>
     </g>
    </g>
   </g>
  </g>
 </g>
 <defs>
  <clipPath id="p7deef2938e">
   <rect height="172.8" width="334.8" x="29.313064375" y="12.1987809375"/>
  </clipPath>
 </defs>
</svg>
