<?xml version="1.0" encoding="utf-8" standalone="no"?>
<!DOCTYPE svg PUBLIC "-//W3C//DTD SVG 1.1//EN"
  "http://www.w3.org/Graphics/SVG/1.1/DTD/svg11.dtd">
<!-- Created with matplotlib (http://matplotlib.org/) -->
<svg height="206pt" version="1.1" viewBox="0 0 376 206" width="376pt" xmlns="http://www.w3.org/2000/svg" xmlns:xlink="http://www.w3.org/1999/xlink">
 <defs>
  <style type="text/css">
*{stroke-linecap:butt;stroke-linejoin:round;}
  </style>
 </defs>
 <g id="figure_1">
  <g id="patch_1">
   <path d="
M0 206.196
L376.488 206.196
L376.488 0
L0 0
z
" style="fill:#ffffff;"/>
  </g>
  <g id="axes_1">
   <g id="patch_2">
    <path d="
M29.4505 184.999
L364.251 184.999
L364.251 12.1988
L29.4505 12.1988
z
" style="fill:#ffffff;"/>
   </g>
   <g id="PolyCollection_1">
    <defs>
     <path d="
M221.245 -29.2443
L221.245 -21.1976
L223.769 -21.1976
L226.293 -21.1976
L228.816 -21.1976
L231.34 -21.1976
L233.864 -21.1976
L236.387 -21.1976
L238.911 -21.1976
L241.434 -21.1976
L243.958 -21.1976
L246.482 -21.1976
L249.005 -21.1976
L251.529 -21.1976
L254.053 -21.1976
L256.576 -21.1976
L259.1 -21.1976
L261.623 -21.1976
L264.147 -21.1976
L266.671 -21.1976
L269.194 -21.1976
L271.718 -21.1976
L274.241 -21.1976
L276.765 -21.1976
L279.289 -21.1976
L281.812 -21.1976
L284.336 -21.1976
L286.86 -21.1976
L289.383 -21.1976
L291.907 -21.1976
L294.43 -21.1976
L296.954 -21.1976
L299.478 -21.1976
L302.001 -21.1976
L304.525 -21.1976
L307.048 -21.1976
L309.572 -21.1976
L312.096 -21.1976
L314.619 -21.1976
L317.143 -21.1976
L319.667 -21.1976
L322.19 -21.1976
L324.714 -21.1976
L327.237 -21.1976
L329.761 -21.1976
L332.285 -21.1976
L334.808 -21.1976
L337.332 -21.1976
L339.856 -21.1976
L342.379 -21.1976
L344.903 -21.1976
L347.426 -21.1976
L349.95 -21.1976
L352.474 -21.1976
L354.997 -21.1976
L357.521 -21.1976
L360.044 -21.1976
L362.568 -21.1976
L365.092 -21.1976
L367.615 -21.1976
L370.139 -21.1976
L372.663 -21.1976
L375.186 -21.1976
L377.71 -21.1976
L380.233 -21.1976
L382.757 -21.1976
L385.281 -21.1976
L387.804 -21.1976
L390.328 -21.1976
L392.852 -21.1976
L395.375 -21.1976
L397.899 -21.1976
L400.422 -21.1976
L402.946 -21.1976
L405.47 -21.1976
L407.993 -21.1976
L410.517 -21.1976
L413.04 -21.1976
L415.564 -21.1976
L418.088 -21.1976
L420.611 -21.1976
L423.135 -21.1976
L425.659 -21.1976
L428.182 -21.1976
L430.706 -21.1976
L433.229 -21.1976
L435.753 -21.1976
L438.277 -21.1976
L440.8 -21.1976
L443.324 -21.1976
L445.847 -21.1976
L448.371 -21.1976
L450.895 -21.1976
L453.418 -21.1976
L455.942 -21.1976
L458.466 -21.1976
L460.989 -21.1976
L463.513 -21.1976
L466.036 -21.1976
L468.56 -21.1976
L471.084 -21.1976
L473.607 -21.1976
L476.131 -21.1976
L478.655 -21.1976
L481.178 -21.1976
L483.702 -21.1976
L486.225 -21.1976
L488.749 -21.1976
L491.273 -21.1976
L493.796 -21.1976
L496.32 -21.1976
L498.843 -21.1976
L501.367 -21.1976
L503.891 -21.1976
L506.414 -21.1976
L508.938 -21.1976
L511.462 -21.1976
L513.985 -21.1976
L516.509 -21.1976
L519.032 -21.1976
L521.556 -21.1976
L524.08 -21.1976
L526.603 -21.1976
L529.127 -21.1976
L531.651 -21.1976
L531.651 -21.1995
L531.651 -21.1995
L529.127 -21.1997
L526.603 -21.1998
L524.08 -21.2
L521.556 -21.2002
L519.032 -21.2004
L516.509 -21.2006
L513.985 -21.2008
L511.462 -21.201
L508.938 -21.2013
L506.414 -21.2016
L503.891 -21.2019
L501.367 -21.2022
L498.843 -21.2025
L496.32 -21.2029
L493.796 -21.2032
L491.273 -21.2037
L488.749 -21.2041
L486.225 -21.2046
L483.702 -21.2051
L481.178 -21.2056
L478.655 -21.2062
L476.131 -21.2068
L473.607 -21.2075
L471.084 -21.2082
L468.56 -21.209
L466.036 -21.2098
L463.513 -21.2107
L460.989 -21.2116
L458.466 -21.2126
L455.942 -21.2137
L453.418 -21.2149
L450.895 -21.2161
L448.371 -21.2175
L445.847 -21.2189
L443.324 -21.2204
L440.8 -21.2221
L438.277 -21.2238
L435.753 -21.2257
L433.229 -21.2277
L430.706 -21.2299
L428.182 -21.2322
L425.659 -21.2346
L423.135 -21.2373
L420.611 -21.2401
L418.088 -21.2432
L415.564 -21.2464
L413.04 -21.2499
L410.517 -21.2536
L407.993 -21.2576
L405.47 -21.2619
L402.946 -21.2664
L400.422 -21.2713
L397.899 -21.2766
L395.375 -21.2822
L392.852 -21.2882
L390.328 -21.2946
L387.804 -21.3014
L385.281 -21.3088
L382.757 -21.3166
L380.233 -21.325
L377.71 -21.334
L375.186 -21.3437
L372.663 -21.3539
L370.139 -21.365
L367.615 -21.3767
L365.092 -21.3893
L362.568 -21.4028
L360.044 -21.4171
L357.521 -21.4325
L354.997 -21.449
L352.474 -21.4666
L349.95 -21.4854
L347.426 -21.5054
L344.903 -21.5269
L342.379 -21.5499
L339.856 -21.5744
L337.332 -21.6006
L334.808 -21.6286
L332.285 -21.6585
L329.761 -21.6904
L327.237 -21.7245
L324.714 -21.761
L322.19 -21.7999
L319.667 -21.8414
L317.143 -21.8858
L314.619 -21.9332
L312.096 -21.9838
L309.572 -22.0377
L307.048 -22.0954
L304.525 -22.1569
L302.001 -22.2225
L299.478 -22.2925
L296.954 -22.3672
L294.43 -22.4468
L291.907 -22.5318
L289.383 -22.6224
L286.86 -22.7191
L284.336 -22.8221
L281.812 -22.9319
L279.289 -23.049
L276.765 -23.1738
L274.241 -23.3068
L271.718 -23.4485
L269.194 -23.5994
L266.671 -23.7602
L264.147 -23.9314
L261.623 -24.1138
L259.1 -24.3079
L256.576 -24.5146
L254.053 -24.7345
L251.529 -24.9686
L249.005 -25.2176
L246.482 -25.4825
L243.958 -25.7642
L241.434 -26.0638
L238.911 -26.3824
L236.387 -26.7209
L233.864 -27.0807
L231.34 -27.463
L228.816 -27.8691
L226.293 -28.3003
L223.769 -28.7582
L221.245 -29.2443
z
" id="m578e3f099a" style="stroke:#ff0000;"/>
    </defs>
    <g clip-path="url(#p8ee29bdc33)">
     <use style="fill:#ff0000;stroke:#ff0000;" x="0.0" xlink:href="#m578e3f099a" y="206.196342813"/>
    </g>
   </g>
   <g id="PolyCollection_2">
    <defs>
     <path d="
M72.352 -174.894
L72.352 -21.1976
L74.8756 -21.1976
L77.3993 -21.1976
L79.9229 -21.1976
L82.4465 -21.1976
L84.9701 -21.1976
L87.4937 -21.1976
L90.0173 -21.1976
L92.541 -21.1976
L95.0646 -21.1976
L97.5882 -21.1976
L100.112 -21.1976
L102.635 -21.1976
L105.159 -21.1976
L107.683 -21.1976
L110.206 -21.1976
L112.73 -21.1976
L115.254 -21.1976
L117.777 -21.1976
L120.301 -21.1976
L122.824 -21.1976
L125.348 -21.1976
L127.872 -21.1976
L130.395 -21.1976
L132.919 -21.1976
L135.442 -21.1976
L137.966 -21.1976
L140.49 -21.1976
L143.013 -21.1976
L145.537 -21.1976
L148.061 -21.1976
L150.584 -21.1976
L153.108 -21.1976
L155.631 -21.1976
L158.155 -21.1976
L160.679 -21.1976
L163.202 -21.1976
L165.726 -21.1976
L168.25 -21.1976
L170.773 -21.1976
L173.297 -21.1976
L175.82 -21.1976
L178.344 -21.1976
L180.868 -21.1976
L183.391 -21.1976
L185.915 -21.1976
L188.438 -21.1976
L190.962 -21.1976
L193.486 -21.1976
L196.009 -21.1976
L198.533 -21.1976
L201.057 -21.1976
L203.58 -21.1976
L206.104 -21.1976
L208.627 -21.1976
L211.151 -21.1976
L213.675 -21.1976
L216.198 -21.1976
L218.722 -21.1976
L221.245 -21.1976
L223.769 -21.1976
L226.293 -21.1976
L228.816 -21.1976
L231.34 -21.1976
L233.864 -21.1976
L236.387 -21.1976
L238.911 -21.1976
L241.434 -21.1976
L243.958 -21.1976
L246.482 -21.1976
L249.005 -21.1976
L251.529 -21.1976
L254.053 -21.1976
L256.576 -21.1976
L259.1 -21.1976
L261.623 -21.1976
L264.147 -21.1976
L266.671 -21.1976
L269.194 -21.1976
L271.718 -21.1976
L274.241 -21.1976
L276.765 -21.1976
L279.289 -21.1976
L281.812 -21.1976
L284.336 -21.1976
L286.86 -21.1976
L289.383 -21.1976
L291.907 -21.1976
L294.43 -21.1976
L296.954 -21.1976
L299.478 -21.1976
L302.001 -21.1976
L304.525 -21.1976
L307.048 -21.1976
L309.572 -21.1976
L312.096 -21.1976
L314.619 -21.1976
L317.143 -21.1976
L319.667 -21.1976
L322.19 -21.1976
L324.714 -21.1976
L327.237 -21.1976
L329.761 -21.1976
L332.285 -21.1976
L334.808 -21.1976
L337.332 -21.1976
L339.856 -21.1976
L342.379 -21.1976
L344.903 -21.1976
L347.426 -21.1976
L349.95 -21.1976
L352.474 -21.1976
L354.997 -21.1976
L357.521 -21.1976
L360.044 -21.1976
L362.568 -21.1976
L365.092 -21.1976
L367.615 -21.1976
L370.139 -21.1976
L372.663 -21.1976
L375.186 -21.1976
L377.71 -21.1976
L380.233 -21.1976
L382.757 -21.1976
L385.281 -21.1976
L387.804 -21.1976
L390.328 -21.1976
L392.852 -21.1976
L395.375 -21.1976
L397.899 -21.1976
L400.422 -21.1976
L402.946 -21.1976
L405.47 -21.1976
L407.993 -21.1976
L410.517 -21.1976
L413.04 -21.1976
L415.564 -21.1976
L418.088 -21.1976
L420.611 -21.1976
L423.135 -21.1976
L425.659 -21.1976
L428.182 -21.1976
L430.706 -21.1976
L433.229 -21.1976
L435.753 -21.1976
L438.277 -21.1976
L440.8 -21.1976
L443.324 -21.1976
L445.847 -21.1976
L448.371 -21.1976
L450.895 -21.1976
L453.418 -21.1976
L455.942 -21.1976
L458.466 -21.1976
L460.989 -21.1976
L463.513 -21.1976
L466.036 -21.1976
L468.56 -21.1976
L471.084 -21.1976
L473.607 -21.1976
L476.131 -21.1976
L478.655 -21.1976
L481.178 -21.1976
L483.702 -21.1976
L486.225 -21.1976
L488.749 -21.1976
L491.273 -21.1976
L493.796 -21.1976
L496.32 -21.1976
L498.843 -21.1976
L501.367 -21.1976
L503.891 -21.1976
L506.414 -21.1976
L508.938 -21.1976
L511.462 -21.1976
L513.985 -21.1976
L516.509 -21.1976
L519.032 -21.1976
L521.556 -21.1976
L524.08 -21.1976
L526.603 -21.1976
L529.127 -21.1976
L531.651 -21.1976
L531.651 -21.1995
L531.651 -21.1995
L529.127 -21.1997
L526.603 -21.1998
L524.08 -21.2
L521.556 -21.2002
L519.032 -21.2004
L516.509 -21.2006
L513.985 -21.2008
L511.462 -21.201
L508.938 -21.2013
L506.414 -21.2016
L503.891 -21.2019
L501.367 -21.2022
L498.843 -21.2025
L496.32 -21.2029
L493.796 -21.2032
L491.273 -21.2037
L488.749 -21.2041
L486.225 -21.2046
L483.702 -21.2051
L481.178 -21.2056
L478.655 -21.2062
L476.131 -21.2068
L473.607 -21.2075
L471.084 -21.2082
L468.56 -21.209
L466.036 -21.2098
L463.513 -21.2107
L460.989 -21.2116
L458.466 -21.2126
L455.942 -21.2137
L453.418 -21.2149
L450.895 -21.2161
L448.371 -21.2175
L445.847 -21.2189
L443.324 -21.2204
L440.8 -21.2221
L438.277 -21.2238
L435.753 -21.2257
L433.229 -21.2277
L430.706 -21.2299
L428.182 -21.2322
L425.659 -21.2346
L423.135 -21.2373
L420.611 -21.2401
L418.088 -21.2432
L415.564 -21.2464
L413.04 -21.2499
L410.517 -21.2536
L407.993 -21.2576
L405.47 -21.2619
L402.946 -21.2664
L400.422 -21.2713
L397.899 -21.2766
L395.375 -21.2822
L392.852 -21.2882
L390.328 -21.2946
L387.804 -21.3014
L385.281 -21.3088
L382.757 -21.3166
L380.233 -21.325
L377.71 -21.334
L375.186 -21.3437
L372.663 -21.3539
L370.139 -21.365
L367.615 -21.3767
L365.092 -21.3893
L362.568 -21.4028
L360.044 -21.4171
L357.521 -21.4325
L354.997 -21.449
L352.474 -21.4666
L349.95 -21.4854
L347.426 -21.5054
L344.903 -21.5269
L342.379 -21.5499
L339.856 -21.5744
L337.332 -21.6006
L334.808 -21.6286
L332.285 -21.6585
L329.761 -21.6904
L327.237 -21.7245
L324.714 -21.761
L322.19 -21.7999
L319.667 -21.8414
L317.143 -21.8858
L314.619 -21.9332
L312.096 -21.9838
L309.572 -22.0377
L307.048 -22.0954
L304.525 -22.1569
L302.001 -22.2225
L299.478 -22.2925
L296.954 -22.3672
L294.43 -22.4468
L291.907 -22.5318
L289.383 -22.6224
L286.86 -22.7191
L284.336 -22.8221
L281.812 -22.9319
L279.289 -23.049
L276.765 -23.1738
L274.241 -23.3068
L271.718 -23.4485
L269.194 -23.5994
L266.671 -23.7602
L264.147 -23.9314
L261.623 -24.1138
L259.1 -24.3079
L256.576 -24.5146
L254.053 -24.7345
L251.529 -24.9686
L249.005 -25.2176
L246.482 -25.4825
L243.958 -25.7642
L241.434 -26.0638
L238.911 -26.3824
L236.387 -26.7209
L233.864 -27.0807
L231.34 -27.463
L228.816 -27.8691
L226.293 -28.3003
L223.769 -28.7582
L221.245 -29.2443
L218.722 -29.7601
L216.198 -30.3073
L213.675 -30.8878
L211.151 -31.5033
L208.627 -32.1558
L206.104 -32.8473
L203.58 -33.5799
L201.057 -34.3558
L198.533 -35.1773
L196.009 -36.0468
L193.486 -36.9668
L190.962 -37.9398
L188.438 -38.9685
L185.915 -40.0556
L183.391 -41.204
L180.868 -42.4167
L178.344 -43.6966
L175.82 -45.0469
L173.297 -46.4706
L170.773 -47.9712
L168.25 -49.5518
L165.726 -51.2157
L163.202 -52.9665
L160.679 -54.8073
L158.155 -56.7417
L155.631 -58.773
L153.108 -60.9044
L150.584 -63.1393
L148.061 -65.4807
L145.537 -67.9317
L143.013 -70.4951
L140.49 -73.1733
L137.966 -75.9688
L135.442 -78.8834
L132.919 -81.9186
L130.395 -85.0756
L127.872 -88.3546
L125.348 -91.7556
L122.824 -95.2775
L120.301 -98.9183
L117.777 -102.675
L115.254 -106.544
L112.73 -110.519
L110.206 -114.593
L107.683 -118.758
L105.159 -123.003
L102.635 -127.314
L100.112 -131.676
L97.5882 -136.071
L95.0646 -140.477
L92.541 -144.869
L90.0173 -149.217
L87.4937 -153.488
L84.9701 -157.643
L82.4465 -161.637
L79.9229 -165.421
L77.3993 -168.937
L74.8756 -172.119
L72.352 -174.894
z
" id="mbc09dae621" style="stroke:#008000;stroke-opacity:0.5;"/>
    </defs>
    <g clip-path="url(#p8ee29bdc33)">
     <use style="fill:#008000;fill-opacity:0.5;stroke:#008000;stroke-opacity:0.5;" x="0.0" xlink:href="#mbc09dae621" y="206.196342813"/>
    </g>
   </g>
   <g id="LineCollection_1">
    <defs>
     <path d="
M219.868 -21.1976
L219.868 -29.522" id="C0_0_13b65f25fd"/>
    </defs>
    <g clip-path="url(#p8ee29bdc33)">
     <use style="fill:none;stroke:#000000;stroke-width:2.0;" x="0.0" xlink:href="#C0_0_13b65f25fd" y="206.196342813"/>
    </g>
   </g>
   <g id="LineCollection_2">
    <defs>
     <path d="
M72.1375 -21.1976
L72.1375 -175.108" id="C1_0_723969b163"/>
    </defs>
    <g clip-path="url(#p8ee29bdc33)">
     <use style="fill:none;stroke:#000000;stroke-width:2.0;" x="0.0" xlink:href="#C1_0_723969b163" y="206.196342813"/>
    </g>
   </g>
   <g id="line2d_1">
    <path clip-path="url(#p8ee29bdc33)" d="
M29.4505 184.999
L31.9741 154.8
L34.4977 128.987
L37.0214 107.081
L39.545 88.6516
L42.0686 73.3091
L44.5922 60.7024
L47.1158 50.5151
L49.6395 42.4624
L52.1631 36.288
L54.6867 31.7616
L57.2103 28.6764
L59.7339 26.847
L62.2575 26.1074
L64.7812 26.3089
L67.3048 27.3187
L69.8284 29.0185
L72.352 31.3027
L74.8756 34.0774
L77.3993 37.2595
L79.9229 40.7751
L82.4465 44.559
L87.4937 52.7087
L95.0646 65.7194
L105.159 83.1935
L110.206 91.603
L115.254 99.6525
L120.301 107.278
L125.348 114.441
L130.395 121.121
L135.442 127.313
L140.49 133.023
L145.537 138.265
L150.584 143.057
L155.631 147.423
L160.679 151.389
L165.726 154.981
L170.773 158.225
L175.82 161.149
L180.868 163.78
L185.915 166.141
L190.962 168.257
L196.009 170.15
L201.057 171.841
L206.104 173.349
L213.675 175.309
L221.245 176.952
L228.816 178.327
L236.387 179.475
L243.958 180.432
L254.053 181.462
L264.147 182.265
L276.765 183.023
L291.907 183.665
L309.572 184.159
L332.285 184.538
L362.568 184.794
L365.092 184.807
L365.092 184.807" style="fill:none;stroke:#000000;stroke-linecap:square;stroke-width:2;"/>
   </g>
   <g id="patch_3">
    <path d="
M29.4505 12.1988
L364.251 12.1988" style="fill:none;stroke:#000000;stroke-linecap:square;stroke-linejoin:miter;"/>
   </g>
   <g id="patch_4">
    <path d="
M364.251 184.999
L364.251 12.1988" style="fill:none;stroke:#000000;stroke-linecap:square;stroke-linejoin:miter;"/>
   </g>
   <g id="patch_5">
    <path d="
M29.4505 184.999
L364.251 184.999" style="fill:none;stroke:#000000;stroke-linecap:square;stroke-linejoin:miter;"/>
   </g>
   <g id="patch_6">
    <path d="
M29.4505 184.999
L29.4505 12.1988" style="fill:none;stroke:#000000;stroke-linecap:square;stroke-linejoin:miter;"/>
   </g>
   <g id="matplotlib.axis_1">
    <g id="xtick_1">
     <g id="line2d_2">
      <defs>
       <path d="
M0 0
L0 -4" id="m93b0483c22" style="stroke:#000000;stroke-width:0.5;"/>
      </defs>
      <g>
       <use style="stroke:#000000;stroke-width:0.5;" x="29.450509375" xlink:href="#m93b0483c22" y="184.998780938"/>
      </g>
     </g>
     <g id="line2d_3">
      <defs>
       <path d="
M0 0
L0 4" id="m741efc42ff" style="stroke:#000000;stroke-width:0.5;"/>
      </defs>
      <g>
       <use style="stroke:#000000;stroke-width:0.5;" x="29.450509375" xlink:href="#m741efc42ff" y="12.1987809375"/>
      </g>
     </g>
     <g id="text_1">
      <!-- 0 -->
      <defs>
       <path d="
M50.3906 35.7969
Q50.3906 27.1562 49.1406 20.3125
Q47.9062 13.4844 45.1406 8.73438
Q42.3906 4 38.0312 1.5
Q33.6875 -0.984375 27.4844 -0.984375
Q21.7344 -0.984375 17.4531 1.5
Q13.1875 4 10.375 8.73438
Q7.5625 13.4844 6.17188 20.3125
Q4.78125 27.1562 4.78125 35.7969
Q4.78125 44.4375 6.03125 51.2656
Q7.28125 58.1094 9.98438 62.8125
Q12.7031 67.5312 17.0156 70.0156
Q21.3438 72.5156 27.4844 72.5156
Q33.2969 72.5156 37.5938 70.0469
Q41.8906 67.5781 44.7188 62.8594
Q47.5625 58.1562 48.9688 51.3125
Q50.3906 44.4844 50.3906 35.7969
M13.8125 35.7969
Q13.8125 28.4688 14.5469 23
Q15.2812 17.5312 16.8906 13.8906
Q18.5 10.25 21.1094 8.42188
Q23.7344 6.59375 27.4844 6.59375
Q31.25 6.59375 33.8906 8.39062
Q36.5312 10.2031 38.2031 13.8125
Q39.8906 17.4375 40.6406 22.9219
Q41.4062 28.4219 41.4062 35.7969
Q41.4062 43.1094 40.6406 48.5781
Q39.8906 54.0469 38.2031 57.6562
Q36.5312 61.2812 33.8906 63.0781
Q31.25 64.8906 27.4844 64.8906
Q23.7344 64.8906 21.1094 63.0781
Q18.5 61.2812 16.8906 57.6562
Q15.2812 54.0469 14.5469 48.5781
Q13.8125 43.1094 13.8125 35.7969" id="WenQuanYiMicroHei-30"/>
      </defs>
      <g transform="translate(27.1709528125 196.594179063)scale(0.09996 -0.09996)">
       <use xlink:href="#WenQuanYiMicroHei-30"/>
      </g>
     </g>
    </g>
    <g id="xtick_2">
     <g id="line2d_4">
      <g>
       <use style="stroke:#000000;stroke-width:0.5;" x="113.150509375" xlink:href="#m93b0483c22" y="184.998780938"/>
      </g>
     </g>
     <g id="line2d_5">
      <g>
       <use style="stroke:#000000;stroke-width:0.5;" x="113.150509375" xlink:href="#m741efc42ff" y="12.1987809375"/>
      </g>
     </g>
     <g id="text_2">
      <!-- 5 -->
      <defs>
       <path d="
M26.6094 43.7969
Q31.4531 43.7969 35.625 42.4531
Q39.7969 41.1094 42.8906 38.4688
Q46 35.8438 47.75 31.9375
Q49.5156 28.0312 49.5156 22.9062
Q49.5156 17.3281 47.8438 12.8906
Q46.1875 8.45312 42.9219 5.375
Q39.6562 2.29688 34.8438 0.65625
Q30.0312 -0.984375 23.7812 -0.984375
Q21.2969 -0.984375 18.875 -0.734375
Q16.4531 -0.484375 14.2344 -0.015625
Q12.0156 0.4375 10.0156 1.17188
Q8.01562 1.90625 6.39062 2.875
L6.39062 11.2812
Q8.01562 10.1562 10.1875 9.28125
Q12.3594 8.40625 14.75 7.8125
Q17.1406 7.23438 19.5469 6.90625
Q21.9688 6.59375 24.0312 6.59375
Q27.875 6.59375 30.9062 7.5
Q33.9375 8.40625 36.0312 10.2969
Q38.1406 12.2031 39.25 15.0781
Q40.375 17.9688 40.375 21.9219
Q40.375 28.9062 36.0781 32.5938
Q31.7812 36.2812 23.5781 36.2812
Q22.2656 36.2812 20.7188 36.1562
Q19.1875 36.0312 17.6406 35.8281
Q16.1094 35.6406 14.7188 35.4219
Q13.3281 35.2031 12.3125 35.0156
L7.90625 37.7969
L10.5938 71.3906
L44.2812 71.3906
L44.2812 63.2812
L18.3125 63.2812
L16.4062 42.8281
Q17.9688 43.1094 20.5312 43.4531
Q23.0938 43.7969 26.6094 43.7969" id="WenQuanYiMicroHei-35"/>
      </defs>
      <g transform="translate(110.995121875 196.594179063)scale(0.09996 -0.09996)">
       <use xlink:href="#WenQuanYiMicroHei-35"/>
      </g>
     </g>
    </g>
    <g id="xtick_3">
     <g id="line2d_6">
      <g>
       <use style="stroke:#000000;stroke-width:0.5;" x="196.850509375" xlink:href="#m93b0483c22" y="184.998780938"/>
      </g>
     </g>
     <g id="line2d_7">
      <g>
       <use style="stroke:#000000;stroke-width:0.5;" x="196.850509375" xlink:href="#m741efc42ff" y="12.1987809375"/>
      </g>
     </g>
     <g id="text_3">
      <!-- 10 -->
      <defs>
       <path d="
M34.7188 0
L26.125 0
L26.125 44.5781
Q26.125 46.6875 26.1406 49.0781
Q26.1719 51.4688 26.2344 53.8281
Q26.3125 56.2031 26.3906 58.375
Q26.4688 60.5469 26.5156 62.2031
Q25.6875 61.3281 25.0469 60.6875
Q24.4219 60.0625 23.75 59.4688
Q23.0938 58.8906 22.3594 58.2188
Q21.625 57.5625 20.6094 56.6875
L13.375 50.7812
L8.6875 56.7812
L27.3906 71.3906
L34.7188 71.3906
z
" id="WenQuanYiMicroHei-31"/>
      </defs>
      <g transform="translate(192.0133825 196.594179063)scale(0.09996 -0.09996)">
       <use xlink:href="#WenQuanYiMicroHei-31"/>
       <use x="55.078125" xlink:href="#WenQuanYiMicroHei-30"/>
      </g>
     </g>
    </g>
    <g id="xtick_4">
     <g id="line2d_8">
      <g>
       <use style="stroke:#000000;stroke-width:0.5;" x="280.550509375" xlink:href="#m93b0483c22" y="184.998780938"/>
      </g>
     </g>
     <g id="line2d_9">
      <g>
       <use style="stroke:#000000;stroke-width:0.5;" x="280.550509375" xlink:href="#m741efc42ff" y="12.1987809375"/>
      </g>
     </g>
     <g id="text_4">
      <!-- 15 -->
      <g transform="translate(275.757115 196.594179063)scale(0.09996 -0.09996)">
       <use xlink:href="#WenQuanYiMicroHei-31"/>
       <use x="55.078125" xlink:href="#WenQuanYiMicroHei-35"/>
      </g>
     </g>
    </g>
    <g id="xtick_5">
     <g id="line2d_10">
      <g>
       <use style="stroke:#000000;stroke-width:0.5;" x="364.250509375" xlink:href="#m93b0483c22" y="184.998780938"/>
      </g>
     </g>
     <g id="line2d_11">
      <g>
       <use style="stroke:#000000;stroke-width:0.5;" x="364.250509375" xlink:href="#m741efc42ff" y="12.1987809375"/>
      </g>
     </g>
     <g id="text_5">
      <!-- 20 -->
      <defs>
       <path d="
M49.2188 0
L4.6875 0
L4.6875 7.625
L21.7812 26.2188
Q25.4375 30.1719 28.3125 33.4375
Q31.2031 36.7188 33.2188 39.8438
Q35.25 42.9688 36.3281 46.1094
Q37.4062 49.2656 37.4062 52.9844
Q37.4062 55.8594 36.5781 58.0469
Q35.75 60.25 34.2031 61.7812
Q32.6719 63.3281 30.5625 64.1094
Q28.4688 64.8906 25.875 64.8906
Q21.2344 64.8906 17.5 63.0156
Q13.7656 61.1406 10.4062 58.2031
L5.42188 64.0156
Q7.375 65.7656 9.60938 67.2969
Q11.8594 68.8438 14.4531 69.9688
Q17.0469 71.0938 19.9219 71.75
Q22.7969 72.4062 25.9844 72.4062
Q30.6719 72.4062 34.4531 71.0938
Q38.2344 69.7812 40.8594 67.3125
Q43.5 64.8438 44.9375 61.2969
Q46.3906 57.7656 46.3906 53.3281
Q46.3906 49.1719 45.0938 45.4062
Q43.7969 41.6562 41.5312 38.0156
Q39.2656 34.375 36.1094 30.7031
Q32.9531 27.0469 29.2969 23.0938
L15.5781 8.5
L15.5781 8.10938
L49.2188 8.10938
z
" id="WenQuanYiMicroHei-32"/>
      </defs>
      <g transform="translate(359.2134625 196.594179063)scale(0.09996 -0.09996)">
       <use xlink:href="#WenQuanYiMicroHei-32"/>
       <use x="55.078125" xlink:href="#WenQuanYiMicroHei-30"/>
      </g>
     </g>
    </g>
   </g>
   <g id="matplotlib.axis_2">
    <g id="ytick_1">
     <g id="line2d_12">
      <defs>
       <path d="
M0 0
L4 0" id="m728421d6d4" style="stroke:#000000;stroke-width:0.5;"/>
      </defs>
      <g>
       <use style="stroke:#000000;stroke-width:0.5;" x="29.450509375" xlink:href="#m728421d6d4" y="184.998780938"/>
      </g>
     </g>
     <g id="line2d_13">
      <defs>
       <path d="
M0 0
L-4 0" id="mcb0005524f" style="stroke:#000000;stroke-width:0.5;"/>
      </defs>
      <g>
       <use style="stroke:#000000;stroke-width:0.5;" x="364.250509375" xlink:href="#mcb0005524f" y="184.998780938"/>
      </g>
     </g>
     <g id="text_6">
      <!-- 0.00 -->
      <defs>
       <path d="
M7.17188 5.42188
Q7.17188 7.28125 7.65625 8.5625
Q8.15625 9.85938 8.98438 10.6562
Q9.8125 11.4688 10.9375 11.8281
Q12.0625 12.2031 13.375 12.2031
Q14.6562 12.2031 15.7969 11.8281
Q16.9375 11.4688 17.7656 10.6562
Q18.6094 9.85938 19.0938 8.5625
Q19.5781 7.28125 19.5781 5.42188
Q19.5781 3.60938 19.0938 2.3125
Q18.6094 1.03125 17.7656 0.1875
Q16.9375 -0.640625 15.7969 -1.03125
Q14.6562 -1.42188 13.375 -1.42188
Q12.0625 -1.42188 10.9375 -1.03125
Q9.8125 -0.640625 8.98438 0.1875
Q8.15625 1.03125 7.65625 2.3125
Q7.17188 3.60938 7.17188 5.42188" id="WenQuanYiMicroHei-2e"/>
      </defs>
      <g transform="translate(7.2 187.595398125)scale(0.09996 -0.09996)">
       <use xlink:href="#WenQuanYiMicroHei-30"/>
       <use x="55.078125" xlink:href="#WenQuanYiMicroHei-2e"/>
       <use x="81.884765625" xlink:href="#WenQuanYiMicroHei-30"/>
       <use x="136.962890625" xlink:href="#WenQuanYiMicroHei-30"/>
      </g>
     </g>
    </g>
    <g id="ytick_2">
     <g id="line2d_14">
      <g>
       <use style="stroke:#000000;stroke-width:0.5;" x="29.450509375" xlink:href="#m728421d6d4" y="141.798780938"/>
      </g>
     </g>
     <g id="line2d_15">
      <g>
       <use style="stroke:#000000;stroke-width:0.5;" x="364.250509375" xlink:href="#mcb0005524f" y="141.798780938"/>
      </g>
     </g>
     <g id="text_7">
      <!-- 0.05 -->
      <g transform="translate(7.287465 144.395398125)scale(0.09996 -0.09996)">
       <use xlink:href="#WenQuanYiMicroHei-30"/>
       <use x="55.078125" xlink:href="#WenQuanYiMicroHei-2e"/>
       <use x="81.884765625" xlink:href="#WenQuanYiMicroHei-30"/>
       <use x="136.962890625" xlink:href="#WenQuanYiMicroHei-35"/>
      </g>
     </g>
    </g>
    <g id="ytick_3">
     <g id="line2d_16">
      <g>
       <use style="stroke:#000000;stroke-width:0.5;" x="29.450509375" xlink:href="#m728421d6d4" y="98.5987809375"/>
      </g>
     </g>
     <g id="line2d_17">
      <g>
       <use style="stroke:#000000;stroke-width:0.5;" x="364.250509375" xlink:href="#mcb0005524f" y="98.5987809375"/>
      </g>
     </g>
     <g id="text_8">
      <!-- 0.10 -->
      <g transform="translate(7.2 101.195398125)scale(0.09996 -0.09996)">
       <use xlink:href="#WenQuanYiMicroHei-30"/>
       <use x="55.078125" xlink:href="#WenQuanYiMicroHei-2e"/>
       <use x="81.884765625" xlink:href="#WenQuanYiMicroHei-31"/>
       <use x="136.962890625" xlink:href="#WenQuanYiMicroHei-30"/>
      </g>
     </g>
    </g>
    <g id="ytick_4">
     <g id="line2d_18">
      <g>
       <use style="stroke:#000000;stroke-width:0.5;" x="29.450509375" xlink:href="#m728421d6d4" y="55.3987809375"/>
      </g>
     </g>
     <g id="line2d_19">
      <g>
       <use style="stroke:#000000;stroke-width:0.5;" x="364.250509375" xlink:href="#mcb0005524f" y="55.3987809375"/>
      </g>
     </g>
     <g id="text_9">
      <!-- 0.15 -->
      <g transform="translate(7.287465 57.995398125)scale(0.09996 -0.09996)">
       <use xlink:href="#WenQuanYiMicroHei-30"/>
       <use x="55.078125" xlink:href="#WenQuanYiMicroHei-2e"/>
       <use x="81.884765625" xlink:href="#WenQuanYiMicroHei-31"/>
       <use x="136.962890625" xlink:href="#WenQuanYiMicroHei-35"/>
      </g>
     </g>
    </g>
    <g id="ytick_5">
     <g id="line2d_20">
      <g>
       <use style="stroke:#000000;stroke-width:0.5;" x="29.450509375" xlink:href="#m728421d6d4" y="12.1987809375"/>
      </g>
     </g>
     <g id="line2d_21">
      <g>
       <use style="stroke:#000000;stroke-width:0.5;" x="364.250509375" xlink:href="#mcb0005524f" y="12.1987809375"/>
      </g>
     </g>
     <g id="text_10">
      <!-- 0.20 -->
      <g transform="translate(7.2 14.795398125)scale(0.09996 -0.09996)">
       <use xlink:href="#WenQuanYiMicroHei-30"/>
       <use x="55.078125" xlink:href="#WenQuanYiMicroHei-2e"/>
       <use x="81.884765625" xlink:href="#WenQuanYiMicroHei-32"/>
       <use x="136.962890625" xlink:href="#WenQuanYiMicroHei-30"/>
      </g>
     </g>
    </g>
   </g>
   <g id="text_11">
    <!-- $\chi^2_1$ -->
    <defs>
     <path d="
M4.98438 0
L4.98438 2.6875
Q4.98438 2.9375 5.17188 3.21875
L20.7031 20.4062
Q24.2188 24.2188 26.4062 26.7969
Q28.6094 29.3906 30.75 32.7656
Q32.9062 36.1406 34.1562 39.625
Q35.4062 43.1094 35.4062 47.0156
Q35.4062 51.125 33.8906 54.8594
Q32.375 58.5938 29.375 60.8438
Q26.375 63.0938 22.125 63.0938
Q17.7812 63.0938 14.3125 60.4688
Q10.8438 57.8594 9.42188 53.7188
Q9.8125 53.8125 10.5 53.8125
Q12.75 53.8125 14.3281 52.2969
Q15.9219 50.7812 15.9219 48.3906
Q15.9219 46.0938 14.3281 44.5
Q12.75 42.9219 10.5 42.9219
Q8.15625 42.9219 6.5625 44.5469
Q4.98438 46.1875 4.98438 48.3906
Q4.98438 52.1562 6.39062 55.4375
Q7.8125 58.7344 10.4688 61.2969
Q13.1406 63.875 16.4844 65.2344
Q19.8281 66.6094 23.5781 66.6094
Q29.2969 66.6094 34.2188 64.1875
Q39.1562 61.7656 42.0312 57.3438
Q44.9219 52.9375 44.9219 47.0156
Q44.9219 42.6719 43.0156 38.7656
Q41.1094 34.8594 38.125 31.6562
Q35.1562 28.4688 30.5156 24.4062
Q25.875 20.3594 24.4219 19
L13.0938 8.10938
L22.7031 8.10938
Q29.7812 8.10938 34.5469 8.21875
Q39.3125 8.34375 39.5938 8.59375
Q40.7656 9.85938 42 17.8281
L44.9219 17.8281
L42.0938 0
z
" id="Cmr10-32"/>
     <path d="
M9.28125 0
L9.28125 3.51562
Q21.7812 3.51562 21.7812 6.6875
L21.7812 59.1875
Q16.6094 56.6875 8.6875 56.6875
L8.6875 60.2031
Q20.9531 60.2031 27.2031 66.6094
L28.6094 66.6094
Q28.9531 66.6094 29.2656 66.3281
Q29.5938 66.0625 29.5938 65.7188
L29.5938 6.6875
Q29.5938 3.51562 42.0938 3.51562
L42.0938 0
z
" id="Cmr10-31"/>
     <path d="
M4.29688 -19.3906
Q3.8125 -19.3906 3.34375 -18.9688
Q2.875 -18.5625 2.875 -18.1094
Q2.875 -17.4375 3.32812 -17.0938
L27.7812 10.1094
Q26.125 16.1562 24.0469 22.7188
Q21.9688 29.2969 19.0625 35.4531
Q16.1562 41.6094 13.9219 41.6094
Q11.9688 41.6094 10.8438 40.5312
Q9.71875 39.4531 8.85938 37.8594
Q8.01562 36.2812 7.71875 36.1875
L6.5 36.1875
Q6.20312 36.1875 5.95312 36.5156
Q5.71875 36.8594 5.71875 37.2031
Q5.71875 38.8125 7.10938 40.4531
Q8.5 42.0938 10.5156 43.1406
Q12.5469 44.1875 14.3125 44.1875
Q18.2656 44.1875 21.4844 42.7656
Q24.7031 41.3594 26.3125 38.1875
Q27.7344 35.1562 29.0469 31.6562
Q30.375 28.1719 31.5625 24.2188
Q32.7656 20.2656 33.7969 16.7031
L56.9844 42.4844
Q57.4688 43.1094 58.2031 43.1094
Q58.7969 43.1094 59.2031 42.75
Q59.625 42.3906 59.625 41.7969
Q59.625 41.1562 59.1875 40.8281
L34.7188 13.625
Q35.8906 9.1875 38.2344 1.78125
Q40.5781 -5.60938 43.4375 -11.7656
Q46.2969 -17.9219 48.5781 -17.9219
Q50.4375 -17.9219 51.6094 -16.8125
Q52.7812 -15.7188 53.6562 -14.1562
Q54.5469 -12.5938 54.7812 -12.5
L56 -12.5
Q56.7812 -12.5 56.7812 -13.4844
Q56.7812 -15.9688 53.8281 -18.2344
Q50.875 -20.5156 48.1875 -20.5156
Q44.2812 -20.5156 41.0625 -19.0938
Q37.8438 -17.6719 36.2812 -14.5
Q32.5625 -6.59375 28.7188 6.98438
L5.51562 -18.7969
Q5.03125 -19.3906 4.29688 -19.3906" id="Cmmi10-c2"/>
    </defs>
    <g transform="translate(219.868009375 172.038780938)scale(0.14 -0.14)">
     <use transform="translate(0.0 0.8578125)" xlink:href="#Cmmi10-c2"/>
     <use transform="translate(74.7445 43.3734375)scale(0.7)" xlink:href="#Cmr10-32"/>
     <use transform="translate(62.5 -24.6515625)scale(0.7)" xlink:href="#Cmr10-31"/>
    </g>
   </g>
   <g id="text_12">
    <!-- $\chi^2_2$ -->
    <g transform="translate(72.137509375 172.038780938)scale(0.14 -0.14)">
     <use transform="translate(0.0 0.8578125)" xlink:href="#Cmmi10-c2"/>
     <use transform="translate(74.7445 43.3734375)scale(0.7)" xlink:href="#Cmr10-32"/>
     <use transform="translate(62.5 -24.6515625)scale(0.7)" xlink:href="#Cmr10-32"/>
    </g>
   </g>
  </g>
 </g>
 <defs>
  <clipPath id="p8ee29bdc33">
   <rect height="172.8" width="334.8" x="29.450509375" y="12.1987809375"/>
  </clipPath>
 </defs>
</svg>
