<?xml version="1.0" encoding="utf-8" standalone="no"?>
<!DOCTYPE svg PUBLIC "-//W3C//DTD SVG 1.1//EN"
  "http://www.w3.org/Graphics/SVG/1.1/DTD/svg11.dtd">
<!-- Created with matplotlib (http://matplotlib.org/) -->
<svg height="206pt" version="1.1" viewBox="0 0 368 206" width="368pt" xmlns="http://www.w3.org/2000/svg" xmlns:xlink="http://www.w3.org/1999/xlink">
 <defs>
  <style type="text/css">
*{stroke-linecap:butt;stroke-linejoin:round;}
  </style>
 </defs>
 <g id="figure_1">
  <g id="patch_1">
   <path d="
M0 206.196
L368.461 206.196
L368.461 0
L0 0
z
" style="fill:#ffffff;"/>
  </g>
  <g id="axes_1">
   <g id="patch_2">
    <path d="
M24.2135 184.999
L359.014 184.999
L359.014 12.1988
L24.2135 12.1988
z
" style="fill:#ffffff;"/>
   </g>
   <g id="line2d_1">
    <path clip-path="url(#p2e29b4b9c9)" d="
M52.1135 184.999
L142.321 184.893
L143.996 184.68
L145.114 184.364
L145.951 183.964
L146.789 183.348
L147.627 182.425
L148.465 181.076
L149.303 179.152
L150.141 176.479
L150.978 172.861
L151.816 168.092
L152.654 161.974
L153.492 154.341
L154.609 141.637
L155.726 126.078
L157.123 103.295
L160.474 46.32
L161.312 35.3843
L162.15 27.1844
L162.708 23.5051
L163.267 21.3876
L163.546 20.936
L163.825 20.8947
L164.105 21.2641
L164.384 22.0413
L164.942 24.7929
L165.501 29.0679
L166.339 38.0528
L167.177 49.604
L168.573 72.6308
L171.645 124.958
L172.762 140.379
L173.879 152.723
L174.717 159.838
L175.555 165.118
L176.114 167.638
L176.672 169.378
L177.231 170.348
L177.51 170.547
L177.789 170.556
L178.068 170.376
L178.348 170.006
L178.906 168.691
L179.465 166.602
L180.023 163.724
L180.861 157.898
L181.699 150.229
L182.537 140.727
L183.654 125.378
L185.05 102.702
L188.402 45.909
L189.24 35.0588
L190.078 26.9625
L190.636 23.36
L191.195 21.3231
L191.474 20.9127
L191.753 20.9127
L192.032 21.3231
L192.312 22.1409
L192.87 24.9712
L193.429 29.3195
L194.267 38.4001
L195.384 54.3468
L197.059 83.0039
L199.294 121.112
L200.411 137.165
L201.528 150.229
L202.366 157.898
L203.204 163.724
L204.041 167.744
L204.6 169.444
L205.159 170.376
L205.438 170.556
L205.717 170.547
L205.996 170.348
L206.276 169.958
L206.834 168.605
L207.393 166.477
L207.951 163.559
L208.789 157.672
L209.627 149.941
L210.465 140.379
L211.582 124.958
L212.978 102.22
L216.33 45.5097
L217.168 34.7412
L218.005 26.7468
L218.564 23.2205
L219.123 21.2641
L219.402 20.8947
L219.681 20.936
L219.96 21.3876
L220.24 22.2461
L220.798 25.1553
L221.357 29.5776
L222.195 38.7562
L223.312 54.8037
L224.987 83.5519
L227.222 121.781
L228.618 141.637
L229.735 154.341
L230.852 164.174
L231.69 169.822
L232.528 174.185
L233.366 177.465
L234.204 179.868
L235.041 181.582
L235.879 182.774
L236.717 183.583
L237.555 184.117
L238.672 184.547
L240.068 184.813
L242.303 184.96
L247.888 184.998
L331.114 184.999
L331.114 184.999" style="fill:none;opacity:0.6;stroke:#348abd;stroke-linecap:square;stroke-width:2;"/>
   </g>
   <g id="line2d_2">
    <path clip-path="url(#p2e29b4b9c9)" d="
M52.1135 184.999
L132.546 184.892
L135.339 184.649
L137.294 184.248
L138.69 183.745
L139.807 183.147
L140.924 182.311
L142.041 181.168
L143.159 179.634
L144.276 177.62
L145.393 175.028
L146.51 171.763
L147.627 167.74
L148.744 162.89
L150.141 155.616
L151.537 147.019
L153.213 135.185
L156.005 113.38
L158.24 96.6035
L159.636 87.744
L160.753 82.0869
L161.591 78.8611
L162.429 76.6053
L162.987 75.67
L163.546 75.2009
L163.825 75.1421
L164.105 75.2002
L164.663 75.663
L165.222 76.5776
L165.78 77.9254
L166.618 80.7021
L167.456 84.2842
L168.573 90.0709
L170.249 100.114
L172.762 115.338
L173.879 121.068
L174.996 125.641
L175.834 128.142
L176.393 129.317
L176.951 130.078
L177.51 130.412
L178.068 130.314
L178.627 129.787
L179.186 128.838
L179.744 127.481
L180.582 124.727
L181.42 121.195
L182.537 115.486
L184.213 105.513
L187.005 88.6267
L188.123 83.0362
L188.96 79.6391
L189.798 77.0662
L190.357 75.8576
L190.915 75.0787
L191.474 74.7426
L191.753 74.7426
L192.312 75.0787
L192.87 75.8576
L193.429 77.0662
L194.267 79.6391
L195.105 83.0362
L196.222 88.6267
L197.897 98.5239
L200.969 117.005
L202.087 122.451
L202.924 125.736
L203.762 128.209
L204.321 129.365
L204.879 130.104
L205.438 130.417
L205.996 130.299
L206.555 129.75
L207.114 128.781
L207.672 127.404
L208.51 124.623
L209.348 121.068
L210.465 115.338
L212.141 105.354
L214.933 88.5334
L216.05 83.0087
L216.888 79.681
L217.726 77.1988
L218.285 76.0649
L218.843 75.3742
L219.402 75.1421
L219.681 75.2009
L220.24 75.67
L220.798 76.6053
L221.357 77.9979
L222.195 80.9086
L223.032 84.7348
L224.15 91.0785
L225.546 100.574
L227.78 117.801
L230.852 141.284
L232.528 152.33
L233.924 160.143
L235.321 166.607
L236.438 170.831
L237.555 174.278
L238.672 177.03
L239.789 179.18
L240.906 180.824
L242.023 182.057
L243.141 182.963
L244.258 183.614
L245.654 184.165
L247.33 184.561
L249.564 184.825
L252.915 184.961
L261.573 184.998
L331.114 184.999
L331.114 184.999" style="fill:none;opacity:0.6;stroke:#a60628;stroke-linecap:square;stroke-width:2;"/>
   </g>
   <g id="line2d_3">
    <path clip-path="url(#p2e29b4b9c9)" d="
M52.1135 184.999
L104.618 184.891
L110.483 184.65
L114.393 184.284
L117.465 183.792
L120.258 183.11
L122.492 182.349
L124.726 181.347
L126.681 180.233
L128.636 178.862
L130.591 177.202
L132.546 175.222
L134.501 172.902
L136.456 170.225
L138.411 167.191
L140.645 163.297
L143.159 158.423
L145.951 152.509
L150.42 142.423
L155.168 131.823
L157.96 126.108
L160.195 121.979
L162.429 118.315
L164.384 115.517
L166.339 113.102
L168.294 111.056
L170.249 109.35
L172.204 107.946
L174.159 106.803
L176.393 105.76
L178.906 104.853
L181.699 104.102
L184.771 103.52
L187.843 103.159
L190.915 103.007
L193.987 103.064
L197.059 103.33
L200.132 103.809
L202.924 104.448
L205.438 105.226
L207.672 106.122
L209.906 107.264
L211.861 108.513
L213.816 110.041
L215.771 111.889
L217.726 114.09
L219.681 116.669
L221.636 119.632
L223.87 123.476
L226.105 127.765
L228.897 133.633
L233.087 143.061
L238.393 154.928
L241.186 160.649
L243.699 165.299
L245.933 168.968
L247.888 171.799
L249.843 174.271
L251.798 176.394
L253.753 178.188
L255.708 179.679
L257.663 180.899
L259.618 181.882
L261.852 182.757
L264.366 183.484
L267.159 184.044
L270.51 184.47
L274.699 184.76
L280.843 184.932
L293.132 184.995
L331.114 184.999
L331.114 184.999" style="fill:none;opacity:0.6;stroke:#7a68a6;stroke-linecap:square;stroke-width:2;"/>
   </g>
   <g id="line2d_4">
    <path clip-path="url(#p2e29b4b9c9)" d="
M52.1135 184.988
L71.9424 184.849
L81.1586 184.574
L87.582 184.174
L92.8883 183.626
L97.3568 182.947
L101.267 182.14
L104.897 181.172
L108.249 180.059
L111.6 178.707
L114.672 177.235
L117.744 175.522
L120.816 173.557
L123.888 171.33
L126.96 168.84
L130.312 165.831
L133.942 162.248
L137.852 158.055
L142.321 152.925
L148.744 145.174
L157.402 134.768
L161.87 129.762
L165.501 126.015
L168.852 122.875
L171.924 120.307
L174.717 118.255
L177.51 116.49
L180.023 115.158
L182.537 114.078
L185.05 113.256
L187.285 112.745
L189.519 112.443
L191.753 112.35
L193.987 112.469
L196.222 112.797
L198.456 113.334
L200.969 114.186
L203.483 115.294
L205.996 116.653
L208.51 118.255
L211.303 120.307
L214.096 122.629
L217.168 125.469
L220.519 128.868
L224.429 133.164
L229.177 138.727
L245.654 158.364
L249.564 162.534
L253.195 166.093
L256.546 169.077
L259.897 171.754
L262.969 173.933
L266.041 175.852
L269.114 177.52
L272.186 178.95
L275.537 180.26
L278.888 181.336
L282.519 182.269
L286.429 183.045
L290.897 183.696
L295.924 184.196
L302.068 184.574
L310.168 184.827
L322.456 184.962
L331.114 184.988
L331.114 184.988" style="fill:none;opacity:0.6;stroke:#467821;stroke-linecap:square;stroke-width:2;"/>
   </g>
   <g id="patch_3">
    <path d="
M24.2135 12.1988
L359.014 12.1988" style="fill:none;stroke:#000000;stroke-linecap:square;stroke-linejoin:miter;"/>
   </g>
   <g id="patch_4">
    <path d="
M359.014 184.999
L359.014 12.1988" style="fill:none;stroke:#000000;stroke-linecap:square;stroke-linejoin:miter;"/>
   </g>
   <g id="patch_5">
    <path d="
M24.2135 184.999
L359.014 184.999" style="fill:none;stroke:#000000;stroke-linecap:square;stroke-linejoin:miter;"/>
   </g>
   <g id="patch_6">
    <path d="
M24.2135 184.999
L24.2135 12.1988" style="fill:none;stroke:#000000;stroke-linecap:square;stroke-linejoin:miter;"/>
   </g>
   <g id="matplotlib.axis_1">
    <g id="xtick_1">
     <g id="line2d_5">
      <defs>
       <path d="
M0 0
L0 -4" id="m93b0483c22" style="stroke:#000000;stroke-width:0.5;"/>
      </defs>
      <g>
       <use style="stroke:#000000;stroke-width:0.5;" x="24.2135425" xlink:href="#m93b0483c22" y="184.998780938"/>
      </g>
     </g>
     <g id="line2d_6">
      <defs>
       <path d="
M0 0
L0 4" id="m741efc42ff" style="stroke:#000000;stroke-width:0.5;"/>
      </defs>
      <g>
       <use style="stroke:#000000;stroke-width:0.5;" x="24.2135425" xlink:href="#m741efc42ff" y="12.1987809375"/>
      </g>
     </g>
     <g id="text_1">
      <!-- −6 -->
      <defs>
       <path d="
M4.98438 31.5938
L4.98438 38.9219
L50.0938 38.9219
L50.0938 31.5938
z
" id="WenQuanYiMicroHei-2212"/>
       <path d="
M5.51562 30.5156
Q5.51562 35.6406 6.03125 40.7188
Q6.54688 45.7969 7.82812 50.4531
Q9.125 55.125 11.375 59.125
Q13.625 63.1406 17.0938 66.0938
Q20.5625 69.0469 25.3906 70.7188
Q30.2188 72.4062 36.7188 72.4062
Q37.6406 72.4062 38.7656 72.3594
Q39.8906 72.3125 41.0312 72.1875
Q42.1875 72.0781 43.2344 71.9062
Q44.2812 71.7344 45.125 71.4844
L45.125 63.9219
Q43.4062 64.5 41.25 64.7969
Q39.1094 65.0938 37.0156 65.0938
Q32.625 65.0938 29.2656 64.0312
Q25.9219 62.9844 23.4844 61.0781
Q21.0469 59.1875 19.4062 56.5469
Q17.7812 53.9062 16.75 50.7031
Q15.7188 47.5156 15.2344 43.8906
Q14.75 40.2812 14.5938 36.375
L15.1875 36.375
Q16.1562 38.1406 17.5469 39.6719
Q18.9531 41.2188 20.7969 42.3125
Q22.6562 43.4062 24.9688 44.0312
Q27.2969 44.6719 30.1719 44.6719
Q34.8125 44.6719 38.5625 43.2344
Q42.3281 41.7969 44.9688 39.0156
Q47.6094 36.2344 49.0469 32.2031
Q50.4844 28.1719 50.4844 23
Q50.4844 17.4375 48.9688 12.9844
Q47.4688 8.54688 44.625 5.4375
Q41.7969 2.34375 37.7969 0.671875
Q33.7969 -0.984375 28.8125 -0.984375
Q23.9219 -0.984375 19.6406 0.921875
Q15.375 2.82812 12.25 6.73438
Q9.125 10.6406 7.3125 16.5469
Q5.51562 22.4688 5.51562 30.5156
M28.7188 6.5
Q31.6406 6.5 34.0469 7.5
Q36.4688 8.5 38.2188 10.5156
Q39.9844 12.5469 40.9375 15.6406
Q41.8906 18.75 41.8906 23
Q41.8906 26.4219 41.0781 29.125
Q40.2812 31.8438 38.6719 33.7344
Q37.0625 35.6406 34.6406 36.6719
Q32.2344 37.7031 29 37.7031
Q25.7344 37.7031 23.0156 36.5469
Q20.3125 35.4062 18.4062 33.5625
Q16.5 31.7344 15.4531 29.3906
Q14.4062 27.0469 14.4062 24.7031
Q14.4062 21.4375 15.3125 18.1875
Q16.2188 14.9375 18 12.3438
Q19.7812 9.76562 22.4531 8.125
Q25.1406 6.5 28.7188 6.5" id="WenQuanYiMicroHei-36"/>
      </defs>
      <g transform="translate(19.1866478125 196.594179063)scale(0.09996 -0.09996)">
       <use xlink:href="#WenQuanYiMicroHei-2212"/>
       <use x="55.078125" xlink:href="#WenQuanYiMicroHei-36"/>
      </g>
     </g>
    </g>
    <g id="xtick_2">
     <g id="line2d_7">
      <g>
       <use style="stroke:#000000;stroke-width:0.5;" x="80.0135425" xlink:href="#m93b0483c22" y="184.998780938"/>
      </g>
     </g>
     <g id="line2d_8">
      <g>
       <use style="stroke:#000000;stroke-width:0.5;" x="80.0135425" xlink:href="#m741efc42ff" y="12.1987809375"/>
      </g>
     </g>
     <g id="text_2">
      <!-- −4 -->
      <defs>
       <path d="
M53.0781 16.0156
L42.6719 16.0156
L42.6719 0
L34.0781 0
L34.0781 16.0156
L1.125 16.0156
L1.125 23.7812
L33.5 71.7812
L42.6719 71.7812
L42.6719 24.125
L53.0781 24.125
z

M34.0781 24.125
L34.0781 41.5
Q34.0781 44.2344 34.1562 47.2344
Q34.2344 50.25 34.3281 53.0938
Q34.4219 55.9531 34.5469 58.4375
Q34.6719 60.9375 34.7188 62.5938
L34.2812 62.5938
Q33.9375 61.625 33.4219 60.4219
Q32.9062 59.2344 32.2969 58.0312
Q31.6875 56.8438 31.0469 55.7188
Q30.4219 54.5938 29.8906 53.8125
L9.8125 24.125
z
" id="WenQuanYiMicroHei-34"/>
      </defs>
      <g transform="translate(74.8570121875 196.594179063)scale(0.09996 -0.09996)">
       <use xlink:href="#WenQuanYiMicroHei-2212"/>
       <use x="55.078125" xlink:href="#WenQuanYiMicroHei-34"/>
      </g>
     </g>
    </g>
    <g id="xtick_3">
     <g id="line2d_9">
      <g>
       <use style="stroke:#000000;stroke-width:0.5;" x="135.8135425" xlink:href="#m93b0483c22" y="184.998780938"/>
      </g>
     </g>
     <g id="line2d_10">
      <g>
       <use style="stroke:#000000;stroke-width:0.5;" x="135.8135425" xlink:href="#m741efc42ff" y="12.1987809375"/>
      </g>
     </g>
     <g id="text_3">
      <!-- −2 -->
      <defs>
       <path d="
M49.2188 0
L4.6875 0
L4.6875 7.625
L21.7812 26.2188
Q25.4375 30.1719 28.3125 33.4375
Q31.2031 36.7188 33.2188 39.8438
Q35.25 42.9688 36.3281 46.1094
Q37.4062 49.2656 37.4062 52.9844
Q37.4062 55.8594 36.5781 58.0469
Q35.75 60.25 34.2031 61.7812
Q32.6719 63.3281 30.5625 64.1094
Q28.4688 64.8906 25.875 64.8906
Q21.2344 64.8906 17.5 63.0156
Q13.7656 61.1406 10.4062 58.2031
L5.42188 64.0156
Q7.375 65.7656 9.60938 67.2969
Q11.8594 68.8438 14.4531 69.9688
Q17.0469 71.0938 19.9219 71.75
Q22.7969 72.4062 25.9844 72.4062
Q30.6719 72.4062 34.4531 71.0938
Q38.2344 69.7812 40.8594 67.3125
Q43.5 64.8438 44.9375 61.2969
Q46.3906 57.7656 46.3906 53.3281
Q46.3906 49.1719 45.0938 45.4062
Q43.7969 41.6562 41.5312 38.0156
Q39.2656 34.375 36.1094 30.7031
Q32.9531 27.0469 29.2969 23.0938
L15.5781 8.5
L15.5781 8.10938
L49.2188 8.10938
z
" id="WenQuanYiMicroHei-32"/>
      </defs>
      <g transform="translate(130.84990375 196.594179063)scale(0.09996 -0.09996)">
       <use xlink:href="#WenQuanYiMicroHei-2212"/>
       <use x="55.078125" xlink:href="#WenQuanYiMicroHei-32"/>
      </g>
     </g>
    </g>
    <g id="xtick_4">
     <g id="line2d_11">
      <g>
       <use style="stroke:#000000;stroke-width:0.5;" x="191.6135425" xlink:href="#m93b0483c22" y="184.998780938"/>
      </g>
     </g>
     <g id="line2d_12">
      <g>
       <use style="stroke:#000000;stroke-width:0.5;" x="191.6135425" xlink:href="#m741efc42ff" y="12.1987809375"/>
      </g>
     </g>
     <g id="text_4">
      <!-- 0 -->
      <defs>
       <path d="
M50.3906 35.7969
Q50.3906 27.1562 49.1406 20.3125
Q47.9062 13.4844 45.1406 8.73438
Q42.3906 4 38.0312 1.5
Q33.6875 -0.984375 27.4844 -0.984375
Q21.7344 -0.984375 17.4531 1.5
Q13.1875 4 10.375 8.73438
Q7.5625 13.4844 6.17188 20.3125
Q4.78125 27.1562 4.78125 35.7969
Q4.78125 44.4375 6.03125 51.2656
Q7.28125 58.1094 9.98438 62.8125
Q12.7031 67.5312 17.0156 70.0156
Q21.3438 72.5156 27.4844 72.5156
Q33.2969 72.5156 37.5938 70.0469
Q41.8906 67.5781 44.7188 62.8594
Q47.5625 58.1562 48.9688 51.3125
Q50.3906 44.4844 50.3906 35.7969
M13.8125 35.7969
Q13.8125 28.4688 14.5469 23
Q15.2812 17.5312 16.8906 13.8906
Q18.5 10.25 21.1094 8.42188
Q23.7344 6.59375 27.4844 6.59375
Q31.25 6.59375 33.8906 8.39062
Q36.5312 10.2031 38.2031 13.8125
Q39.8906 17.4375 40.6406 22.9219
Q41.4062 28.4219 41.4062 35.7969
Q41.4062 43.1094 40.6406 48.5781
Q39.8906 54.0469 38.2031 57.6562
Q36.5312 61.2812 33.8906 63.0781
Q31.25 64.8906 27.4844 64.8906
Q23.7344 64.8906 21.1094 63.0781
Q18.5 61.2812 16.8906 57.6562
Q15.2812 54.0469 14.5469 48.5781
Q13.8125 43.1094 13.8125 35.7969" id="WenQuanYiMicroHei-30"/>
      </defs>
      <g transform="translate(189.333985937 196.594179063)scale(0.09996 -0.09996)">
       <use xlink:href="#WenQuanYiMicroHei-30"/>
      </g>
     </g>
    </g>
    <g id="xtick_5">
     <g id="line2d_13">
      <g>
       <use style="stroke:#000000;stroke-width:0.5;" x="247.4135425" xlink:href="#m93b0483c22" y="184.998780938"/>
      </g>
     </g>
     <g id="line2d_14">
      <g>
       <use style="stroke:#000000;stroke-width:0.5;" x="247.4135425" xlink:href="#m741efc42ff" y="12.1987809375"/>
      </g>
     </g>
     <g id="text_5">
      <!-- 2 -->
      <g transform="translate(245.187870625 196.594179063)scale(0.09996 -0.09996)">
       <use xlink:href="#WenQuanYiMicroHei-32"/>
      </g>
     </g>
    </g>
    <g id="xtick_6">
     <g id="line2d_15">
      <g>
       <use style="stroke:#000000;stroke-width:0.5;" x="303.2135425" xlink:href="#m93b0483c22" y="184.998780938"/>
      </g>
     </g>
     <g id="line2d_16">
      <g>
       <use style="stroke:#000000;stroke-width:0.5;" x="303.2135425" xlink:href="#m741efc42ff" y="12.1987809375"/>
      </g>
     </g>
     <g id="text_6">
      <!-- 4 -->
      <g transform="translate(300.616925313 196.594179063)scale(0.09996 -0.09996)">
       <use xlink:href="#WenQuanYiMicroHei-34"/>
      </g>
     </g>
    </g>
    <g id="xtick_7">
     <g id="line2d_17">
      <g>
       <use style="stroke:#000000;stroke-width:0.5;" x="359.0135425" xlink:href="#m93b0483c22" y="184.998780938"/>
      </g>
     </g>
     <g id="line2d_18">
      <g>
       <use style="stroke:#000000;stroke-width:0.5;" x="359.0135425" xlink:href="#m741efc42ff" y="12.1987809375"/>
      </g>
     </g>
     <g id="text_7">
      <!-- 6 -->
      <g transform="translate(356.766004375 196.594179063)scale(0.09996 -0.09996)">
       <use xlink:href="#WenQuanYiMicroHei-36"/>
      </g>
     </g>
    </g>
   </g>
   <g id="matplotlib.axis_2">
    <g id="ytick_1">
     <g id="line2d_19">
      <defs>
       <path d="
M0 0
L4 0" id="m728421d6d4" style="stroke:#000000;stroke-width:0.5;"/>
      </defs>
      <g>
       <use style="stroke:#000000;stroke-width:0.5;" x="24.2135425" xlink:href="#m728421d6d4" y="184.998780938"/>
      </g>
     </g>
     <g id="line2d_20">
      <defs>
       <path d="
M0 0
L-4 0" id="mcb0005524f" style="stroke:#000000;stroke-width:0.5;"/>
      </defs>
      <g>
       <use style="stroke:#000000;stroke-width:0.5;" x="359.0135425" xlink:href="#mcb0005524f" y="184.998780938"/>
      </g>
     </g>
     <g id="text_8">
      <!-- 0.0 -->
      <defs>
       <path d="
M7.17188 5.42188
Q7.17188 7.28125 7.65625 8.5625
Q8.15625 9.85938 8.98438 10.6562
Q9.8125 11.4688 10.9375 11.8281
Q12.0625 12.2031 13.375 12.2031
Q14.6562 12.2031 15.7969 11.8281
Q16.9375 11.4688 17.7656 10.6562
Q18.6094 9.85938 19.0938 8.5625
Q19.5781 7.28125 19.5781 5.42188
Q19.5781 3.60938 19.0938 2.3125
Q18.6094 1.03125 17.7656 0.1875
Q16.9375 -0.640625 15.7969 -1.03125
Q14.6562 -1.42188 13.375 -1.42188
Q12.0625 -1.42188 10.9375 -1.03125
Q9.8125 -0.640625 8.98438 0.1875
Q8.15625 1.03125 7.65625 2.3125
Q7.17188 3.60938 7.17188 5.42188" id="WenQuanYiMicroHei-2e"/>
      </defs>
      <g transform="translate(7.4686425 187.595398125)scale(0.09996 -0.09996)">
       <use xlink:href="#WenQuanYiMicroHei-30"/>
       <use x="55.078125" xlink:href="#WenQuanYiMicroHei-2e"/>
       <use x="81.884765625" xlink:href="#WenQuanYiMicroHei-30"/>
      </g>
     </g>
    </g>
    <g id="ytick_2">
     <g id="line2d_21">
      <g>
       <use style="stroke:#000000;stroke-width:0.5;" x="24.2135425" xlink:href="#m728421d6d4" y="160.313066652"/>
      </g>
     </g>
     <g id="line2d_22">
      <g>
       <use style="stroke:#000000;stroke-width:0.5;" x="359.0135425" xlink:href="#mcb0005524f" y="160.313066652"/>
      </g>
     </g>
     <g id="text_9">
      <!-- 0.1 -->
      <defs>
       <path d="
M34.7188 0
L26.125 0
L26.125 44.5781
Q26.125 46.6875 26.1406 49.0781
Q26.1719 51.4688 26.2344 53.8281
Q26.3125 56.2031 26.3906 58.375
Q26.4688 60.5469 26.5156 62.2031
Q25.6875 61.3281 25.0469 60.6875
Q24.4219 60.0625 23.75 59.4688
Q23.0938 58.8906 22.3594 58.2188
Q21.625 57.5625 20.6094 56.6875
L13.375 50.7812
L8.6875 56.7812
L27.3906 71.3906
L34.7188 71.3906
z
" id="WenQuanYiMicroHei-31"/>
      </defs>
      <g transform="translate(9.035203125 162.909683839)scale(0.09996 -0.09996)">
       <use xlink:href="#WenQuanYiMicroHei-30"/>
       <use x="55.078125" xlink:href="#WenQuanYiMicroHei-2e"/>
       <use x="81.884765625" xlink:href="#WenQuanYiMicroHei-31"/>
      </g>
     </g>
    </g>
    <g id="ytick_3">
     <g id="line2d_23">
      <g>
       <use style="stroke:#000000;stroke-width:0.5;" x="24.2135425" xlink:href="#m728421d6d4" y="135.627352366"/>
      </g>
     </g>
     <g id="line2d_24">
      <g>
       <use style="stroke:#000000;stroke-width:0.5;" x="359.0135425" xlink:href="#mcb0005524f" y="135.627352366"/>
      </g>
     </g>
     <g id="text_10">
      <!-- 0.2 -->
      <g transform="translate(7.585783125 138.223969554)scale(0.09996 -0.09996)">
       <use xlink:href="#WenQuanYiMicroHei-30"/>
       <use x="55.078125" xlink:href="#WenQuanYiMicroHei-2e"/>
       <use x="81.884765625" xlink:href="#WenQuanYiMicroHei-32"/>
      </g>
     </g>
    </g>
    <g id="ytick_4">
     <g id="line2d_25">
      <g>
       <use style="stroke:#000000;stroke-width:0.5;" x="24.2135425" xlink:href="#m728421d6d4" y="110.94163808"/>
      </g>
     </g>
     <g id="line2d_26">
      <g>
       <use style="stroke:#000000;stroke-width:0.5;" x="359.0135425" xlink:href="#mcb0005524f" y="110.94163808"/>
      </g>
     </g>
     <g id="text_11">
      <!-- 0.3 -->
      <defs>
       <path d="
M46.9219 54.6875
Q46.9219 51.125 45.7969 48.1875
Q44.6719 45.2656 42.6406 43.1094
Q40.625 40.9688 37.7969 39.5781
Q34.9688 38.1875 31.5 37.5938
L31.5 37.3125
Q40.1406 36.2344 44.625 31.8125
Q49.125 27.3906 49.125 20.3125
Q49.125 15.625 47.5312 11.7188
Q45.9531 7.8125 42.7188 4.98438
Q39.5 2.15625 34.5625 0.578125
Q29.6406 -0.984375 22.9062 -0.984375
Q17.5781 -0.984375 12.8594 -0.140625
Q8.15625 0.6875 4 2.875
L4 11.1875
Q8.25 8.9375 13.2031 7.71875
Q18.1719 6.5 22.7031 6.5
Q27.2031 6.5 30.4688 7.46875
Q33.7344 8.45312 35.8594 10.25
Q37.9844 12.0625 38.9844 14.6875
Q39.9844 17.3281 39.9844 20.6094
Q39.9844 23.9219 38.6875 26.2812
Q37.4062 28.6562 35.0156 30.1875
Q32.625 31.7344 29.1719 32.4688
Q25.7344 33.2031 21.3906 33.2031
L14.8906 33.2031
L14.8906 40.5781
L21.3906 40.5781
Q25.3438 40.5781 28.4219 41.5469
Q31.5 42.5312 33.5625 44.3281
Q35.6406 46.1406 36.7188 48.625
Q37.7969 51.125 37.7969 54.1094
Q37.7969 56.6406 36.9062 58.6406
Q36.0312 60.6406 34.4219 62.0312
Q32.8125 63.4219 30.5625 64.1562
Q28.3281 64.8906 25.5938 64.8906
Q20.3594 64.8906 16.375 63.25
Q12.4062 61.625 8.79688 58.9844
L4.29688 65.0938
Q6.15625 66.6094 8.42188 67.9219
Q10.6875 69.2344 13.375 70.2344
Q16.0625 71.2344 19.1094 71.8125
Q22.1719 72.4062 25.5938 72.4062
Q30.8594 72.4062 34.8281 71.0938
Q38.8125 69.7812 41.5 67.4062
Q44.1875 65.0469 45.5469 61.7969
Q46.9219 58.5469 46.9219 54.6875" id="WenQuanYiMicroHei-33"/>
      </defs>
      <g transform="translate(7.595154375 113.538255268)scale(0.09996 -0.09996)">
       <use xlink:href="#WenQuanYiMicroHei-30"/>
       <use x="55.078125" xlink:href="#WenQuanYiMicroHei-2e"/>
       <use x="81.884765625" xlink:href="#WenQuanYiMicroHei-33"/>
      </g>
     </g>
    </g>
    <g id="ytick_5">
     <g id="line2d_27">
      <g>
       <use style="stroke:#000000;stroke-width:0.5;" x="24.2135425" xlink:href="#m728421d6d4" y="86.2559237946"/>
      </g>
     </g>
     <g id="line2d_28">
      <g>
       <use style="stroke:#000000;stroke-width:0.5;" x="359.0135425" xlink:href="#mcb0005524f" y="86.2559237946"/>
      </g>
     </g>
     <g id="text_12">
      <!-- 0.4 -->
      <g transform="translate(7.2 88.8525409821)scale(0.09996 -0.09996)">
       <use xlink:href="#WenQuanYiMicroHei-30"/>
       <use x="55.078125" xlink:href="#WenQuanYiMicroHei-2e"/>
       <use x="81.884765625" xlink:href="#WenQuanYiMicroHei-34"/>
      </g>
     </g>
    </g>
    <g id="ytick_6">
     <g id="line2d_29">
      <g>
       <use style="stroke:#000000;stroke-width:0.5;" x="24.2135425" xlink:href="#m728421d6d4" y="61.5702095089"/>
      </g>
     </g>
     <g id="line2d_30">
      <g>
       <use style="stroke:#000000;stroke-width:0.5;" x="359.0135425" xlink:href="#mcb0005524f" y="61.5702095089"/>
      </g>
     </g>
     <g id="text_13">
      <!-- 0.5 -->
      <defs>
       <path d="
M26.6094 43.7969
Q31.4531 43.7969 35.625 42.4531
Q39.7969 41.1094 42.8906 38.4688
Q46 35.8438 47.75 31.9375
Q49.5156 28.0312 49.5156 22.9062
Q49.5156 17.3281 47.8438 12.8906
Q46.1875 8.45312 42.9219 5.375
Q39.6562 2.29688 34.8438 0.65625
Q30.0312 -0.984375 23.7812 -0.984375
Q21.2969 -0.984375 18.875 -0.734375
Q16.4531 -0.484375 14.2344 -0.015625
Q12.0156 0.4375 10.0156 1.17188
Q8.01562 1.90625 6.39062 2.875
L6.39062 11.2812
Q8.01562 10.1562 10.1875 9.28125
Q12.3594 8.40625 14.75 7.8125
Q17.1406 7.23438 19.5469 6.90625
Q21.9688 6.59375 24.0312 6.59375
Q27.875 6.59375 30.9062 7.5
Q33.9375 8.40625 36.0312 10.2969
Q38.1406 12.2031 39.25 15.0781
Q40.375 17.9688 40.375 21.9219
Q40.375 28.9062 36.0781 32.5938
Q31.7812 36.2812 23.5781 36.2812
Q22.2656 36.2812 20.7188 36.1562
Q19.1875 36.0312 17.6406 35.8281
Q16.1094 35.6406 14.7188 35.4219
Q13.3281 35.2031 12.3125 35.0156
L7.90625 37.7969
L10.5938 71.3906
L44.2812 71.3906
L44.2812 63.2812
L18.3125 63.2812
L16.4062 42.8281
Q17.9688 43.1094 20.5312 43.4531
Q23.0938 43.7969 26.6094 43.7969" id="WenQuanYiMicroHei-35"/>
      </defs>
      <g transform="translate(7.5561075 64.1668266964)scale(0.09996 -0.09996)">
       <use xlink:href="#WenQuanYiMicroHei-30"/>
       <use x="55.078125" xlink:href="#WenQuanYiMicroHei-2e"/>
       <use x="81.884765625" xlink:href="#WenQuanYiMicroHei-35"/>
      </g>
     </g>
    </g>
    <g id="ytick_7">
     <g id="line2d_31">
      <g>
       <use style="stroke:#000000;stroke-width:0.5;" x="24.2135425" xlink:href="#m728421d6d4" y="36.8844952232"/>
      </g>
     </g>
     <g id="line2d_32">
      <g>
       <use style="stroke:#000000;stroke-width:0.5;" x="359.0135425" xlink:href="#mcb0005524f" y="36.8844952232"/>
      </g>
     </g>
     <g id="text_14">
      <!-- 0.6 -->
      <g transform="translate(7.45927125 39.4811124107)scale(0.09996 -0.09996)">
       <use xlink:href="#WenQuanYiMicroHei-30"/>
       <use x="55.078125" xlink:href="#WenQuanYiMicroHei-2e"/>
       <use x="81.884765625" xlink:href="#WenQuanYiMicroHei-36"/>
      </g>
     </g>
    </g>
    <g id="ytick_8">
     <g id="line2d_33">
      <g>
       <use style="stroke:#000000;stroke-width:0.5;" x="24.2135425" xlink:href="#m728421d6d4" y="12.1987809375"/>
      </g>
     </g>
     <g id="line2d_34">
      <g>
       <use style="stroke:#000000;stroke-width:0.5;" x="359.0135425" xlink:href="#mcb0005524f" y="12.1987809375"/>
      </g>
     </g>
     <g id="text_15">
      <!-- 0.7 -->
      <defs>
       <path d="
M13.7188 0
L41.2188 63.2812
L4.39062 63.2812
L4.39062 71.3906
L50.2969 71.3906
L50.2969 64.3125
L23.1875 0
z
" id="WenQuanYiMicroHei-37"/>
      </defs>
      <g transform="translate(7.47801375 14.795398125)scale(0.09996 -0.09996)">
       <use xlink:href="#WenQuanYiMicroHei-30"/>
       <use x="55.078125" xlink:href="#WenQuanYiMicroHei-2e"/>
       <use x="81.884765625" xlink:href="#WenQuanYiMicroHei-37"/>
      </g>
     </g>
    </g>
   </g>
   <g id="legend_1">
    <g id="patch_7">
     <path d="
M286.827 80.1778
L354.016 80.1778
L354.016 17.1968
L286.827 17.1968
z
" style="fill:#ffffff;stroke:#000000;stroke-linejoin:miter;"/>
    </g>
    <g id="line2d_35">
     <path d="
M293.824 25.292
L307.818 25.292" style="fill:none;opacity:0.6;stroke:#348abd;stroke-linecap:square;stroke-width:2;"/>
    </g>
    <g id="line2d_36"/>
    <g id="text_16">
     <!-- bw=0.2 -->
     <defs>
      <path d="
M49.2188 0
L41.0156 30.0781
Q40.8281 30.9531 40.5312 32.0469
Q40.2344 33.1562 39.9375 34.375
Q39.6562 35.5938 39.3281 36.8594
Q39.0156 38.1406 38.7188 39.3594
Q38.0312 42.1875 37.3125 45.2188
L37.0156 45.2188
Q36.3281 42.1406 35.6875 39.3125
Q35.1562 36.8594 34.5469 34.2656
Q33.9375 31.6875 33.4062 29.8906
L25 0
L14.7031 0
L0.984375 53.6094
L10.2969 53.6094
L16.7031 25.0938
Q17.1875 22.9062 17.6719 20.3438
Q18.1719 17.7812 18.6094 15.2656
Q19.0469 12.75 19.3906 10.5156
Q19.7344 8.29688 19.9219 6.89062
L20.2188 6.89062
Q20.4531 8.15625 20.875 10.2812
Q21.2969 12.4062 21.7969 14.7656
Q22.3125 17.1406 22.8438 19.4531
Q23.3906 21.7812 23.875 23.3906
L32.625 53.6094
L42.1875 53.6094
L50.5938 23.3906
Q51.0312 21.7344 51.5938 19.4844
Q52.1562 17.2344 52.6875 14.9062
Q53.2188 12.5938 53.6562 10.4375
Q54.1094 8.29688 54.2969 6.89062
L54.5938 6.89062
Q54.7344 8.15625 55.0469 10.2812
Q55.375 12.4062 55.8125 14.9375
Q56.25 17.4844 56.7656 20.1406
Q57.2812 22.7969 57.8125 25.0938
L64.5 53.6094
L73.5781 53.6094
L59.7188 0
z
" id="WenQuanYiMicroHei-77"/>
      <path d="
M32.7188 54.5938
Q37.3125 54.5938 41.0625 52.8281
Q44.8281 51.0781 47.4844 47.5781
Q50.1406 44.0938 51.6094 38.9062
Q53.0781 33.7344 53.0781 26.9062
Q53.0781 20.0156 51.6094 14.8125
Q50.1406 9.625 47.4844 6.10938
Q44.8281 2.59375 41.0625 0.796875
Q37.3125 -0.984375 32.7188 -0.984375
Q29.8281 -0.984375 27.4844 -0.34375
Q25.1406 0.296875 23.2656 1.34375
Q21.3906 2.39062 19.9375 3.79688
Q18.5 5.21875 17.3906 6.78125
L16.7969 6.78125
L14.9844 0
L8.5 0
L8.5 75.9844
L17.3906 75.9844
L17.3906 57.625
Q17.3906 55.9062 17.3281 53.9688
Q17.2812 52.0469 17.1875 50.3906
Q17.0938 48.4375 17 46.5781
L17.3906 46.5781
Q18.5 48.2969 19.9219 49.75
Q21.3438 51.2188 23.2188 52.2969
Q25.0938 53.375 27.4375 53.9844
Q29.7812 54.5938 32.7188 54.5938
M31 47.2188
Q27.0938 47.2188 24.4844 45.9688
Q21.875 44.7344 20.2812 42.1875
Q18.7031 39.6562 18.0469 35.8438
Q17.3906 32.0312 17.3906 26.9062
Q17.3906 21.9688 18.0469 18.1406
Q18.7031 14.3125 20.2812 11.6875
Q21.875 9.07812 24.5156 7.73438
Q27.1562 6.39062 31.1094 6.39062
Q37.7031 6.39062 40.7969 11.7188
Q43.8906 17.0469 43.8906 27
Q43.8906 37.1562 40.7969 42.1875
Q37.7031 47.2188 31 47.2188" id="WenQuanYiMicroHei-62"/>
      <path d="
M4.98438 41.6094
L4.98438 48.875
L50.0938 48.875
L50.0938 41.6094
z

M4.98438 21.5781
L4.98438 28.9062
L50.0938 28.9062
L50.0938 21.5781
z
" id="WenQuanYiMicroHei-3d"/>
     </defs>
     <g transform="translate(318.81400375 28.7905790625)scale(0.09996 -0.09996)">
      <use xlink:href="#WenQuanYiMicroHei-62"/>
      <use x="58.59375" xlink:href="#WenQuanYiMicroHei-77"/>
      <use x="133.203125" xlink:href="#WenQuanYiMicroHei-3d"/>
      <use x="188.28125" xlink:href="#WenQuanYiMicroHei-30"/>
      <use x="243.359375" xlink:href="#WenQuanYiMicroHei-2e"/>
      <use x="270.166015625" xlink:href="#WenQuanYiMicroHei-32"/>
     </g>
    </g>
    <g id="line2d_37">
     <path d="
M293.824 40.2875
L307.818 40.2875" style="fill:none;opacity:0.6;stroke:#a60628;stroke-linecap:square;stroke-width:2;"/>
    </g>
    <g id="line2d_38"/>
    <g id="text_17">
     <!-- bw=0.3 -->
     <g transform="translate(318.81400375 43.7861409375)scale(0.09996 -0.09996)">
      <use xlink:href="#WenQuanYiMicroHei-62"/>
      <use x="58.59375" xlink:href="#WenQuanYiMicroHei-77"/>
      <use x="133.203125" xlink:href="#WenQuanYiMicroHei-3d"/>
      <use x="188.28125" xlink:href="#WenQuanYiMicroHei-30"/>
      <use x="243.359375" xlink:href="#WenQuanYiMicroHei-2e"/>
      <use x="270.166015625" xlink:href="#WenQuanYiMicroHei-33"/>
     </g>
    </g>
    <g id="line2d_39">
     <path d="
M293.824 55.2831
L307.818 55.2831" style="fill:none;opacity:0.6;stroke:#7a68a6;stroke-linecap:square;stroke-width:2;"/>
    </g>
    <g id="line2d_40"/>
    <g id="text_18">
     <!-- bw=0.6 -->
     <g transform="translate(318.81400375 58.7817028125)scale(0.09996 -0.09996)">
      <use xlink:href="#WenQuanYiMicroHei-62"/>
      <use x="58.59375" xlink:href="#WenQuanYiMicroHei-77"/>
      <use x="133.203125" xlink:href="#WenQuanYiMicroHei-3d"/>
      <use x="188.28125" xlink:href="#WenQuanYiMicroHei-30"/>
      <use x="243.359375" xlink:href="#WenQuanYiMicroHei-2e"/>
      <use x="270.166015625" xlink:href="#WenQuanYiMicroHei-36"/>
     </g>
    </g>
    <g id="line2d_41">
     <path d="
M293.824 70.2787
L307.818 70.2787" style="fill:none;opacity:0.6;stroke:#467821;stroke-linecap:square;stroke-width:2;"/>
    </g>
    <g id="line2d_42"/>
    <g id="text_19">
     <!-- bw=1.0 -->
     <g transform="translate(318.81400375 73.7772646875)scale(0.09996 -0.09996)">
      <use xlink:href="#WenQuanYiMicroHei-62"/>
      <use x="58.59375" xlink:href="#WenQuanYiMicroHei-77"/>
      <use x="133.203125" xlink:href="#WenQuanYiMicroHei-3d"/>
      <use x="188.28125" xlink:href="#WenQuanYiMicroHei-31"/>
      <use x="243.359375" xlink:href="#WenQuanYiMicroHei-2e"/>
      <use x="270.166015625" xlink:href="#WenQuanYiMicroHei-30"/>
     </g>
    </g>
   </g>
  </g>
 </g>
 <defs>
  <clipPath id="p2e29b4b9c9">
   <rect height="172.8" width="334.8" x="24.2135425" y="12.1987809375"/>
  </clipPath>
 </defs>
</svg>
