<?xml version="1.0" encoding="utf-8" standalone="no"?>
<!DOCTYPE svg PUBLIC "-//W3C//DTD SVG 1.1//EN"
  "http://www.w3.org/Graphics/SVG/1.1/DTD/svg11.dtd">
<!-- Created with matplotlib (http://matplotlib.org/) -->
<svg height="194pt" version="1.1" viewBox="0 0 508 194" width="508pt" xmlns="http://www.w3.org/2000/svg" xmlns:xlink="http://www.w3.org/1999/xlink">
 <defs>
  <style type="text/css">
*{stroke-linecap:butt;stroke-linejoin:round;}
  </style>
 </defs>
 <g id="figure_1">
  <g id="patch_1">
   <path d="
M0 194.337
L508.19 194.337
L508.19 5.68434e-14
L0 5.68434e-14
z
" style="fill:#ffffff;"/>
  </g>
  <g id="axes_1">
   <g id="patch_2">
    <path d="
M35.8718 158.142
L244.508 158.142
L244.508 23.1418
L35.8718 23.1418
z
" style="fill:#ffffff;"/>
   </g>
   <g id="line2d_1">
    <path clip-path="url(#pd2b1e8eafe)" d="
M36.753 33.5313
L38.5144 42.3274
L40.2757 49.3908
L42.037 66.7163
L43.7984 76.4453
L45.5597 82.8424
L47.3211 81.5097
L49.0824 100.701
L50.8437 100.568
L52.6051 102.967
L54.3664 109.097
L56.1278 112.562
L57.8891 118.027
L59.6504 121.092
L61.4118 128.955
L63.1731 130.687
L64.9345 131.087
L66.6958 136.818
L68.4571 137.751
L70.2185 141.483
L71.9798 138.551
L73.7412 143.082
L75.5025 145.348
L77.2638 145.348
L79.0252 148.413
L80.7865 147.347
L82.5479 150.545
L84.3092 148.146
L86.0705 150.412
L87.8319 153.477
L89.5932 152.544
L91.3546 152.544
L93.1159 151.878
L94.8772 153.61
L96.6386 153.61
L98.3999 154.277
L100.161 155.21
L101.923 154.543
L103.684 156.143
L105.445 156.409
L107.207 156.942
L108.968 155.61
L110.729 156.009
L112.491 156.276
L114.252 156.542
L116.013 156.809
L117.775 156.676
L119.536 157.209
L121.297 157.609
L123.059 156.942
L124.82 157.609
L126.581 157.609
L128.343 157.609
L130.104 157.742
L131.865 157.742
L133.627 157.609
L135.388 157.875
L137.149 157.875
L138.911 157.875
L140.672 157.875
L142.433 158.142
L144.195 157.475
L145.956 157.742
L147.717 158.008
L149.479 158.142
L151.24 157.742
L153.001 157.875
L154.763 158.008
L156.524 157.475
L158.285 158.008
L160.047 158.142
L161.808 158.142
L163.57 158.142
L165.331 157.875
L167.092 158.008
L168.854 158.142
L170.615 158.008
L172.376 158.008
L174.138 158.142
L175.899 158.142
L177.66 157.875
L179.422 158.142
L181.183 158.142
L182.944 158.142
L184.706 158.008
L186.467 158.008
L188.228 158.142
L189.99 158.142
L191.751 158.142
L193.512 158.142
L195.274 158.142
L197.035 158.142
L198.796 158.142
L200.558 158.142
L202.319 158.142
L204.08 158.142
L205.842 158.142
L207.603 158.142
L209.364 158.142
L211.126 158.008" style="fill:none;stroke:#348abd;stroke-linecap:square;stroke-width:2;"/>
   </g>
   <g id="line2d_2">
    <path clip-path="url(#pd2b1e8eafe)" d="
M36.753 29.8136
L38.5144 42.1771
L40.2757 53.3495
L42.037 63.4456
L43.7984 72.5689
L45.5597 80.8133
L47.3211 88.2634
L49.0824 94.9957
L50.8437 101.079
L52.6051 106.577
L54.3664 111.545
L56.1278 116.034
L57.8891 120.091
L59.6504 123.757
L61.4118 127.07
L63.1731 130.063
L64.9345 132.768
L66.6958 135.213
L68.4571 137.422
L70.2185 139.418
L71.9798 141.222
L73.7412 142.852
L75.5025 144.325
L77.2638 145.656
L79.0252 146.859
L80.7865 147.946
L82.5479 148.929
L84.3092 149.816
L86.0705 150.618
L87.8319 151.343
L89.5932 151.998
L91.3546 152.59
L93.1159 153.125
L94.8772 153.608
L96.6386 154.045
L98.3999 154.44
L100.161 154.796
L101.923 155.119
L103.684 155.41
L105.445 155.673
L107.207 155.911
L108.968 156.126
L110.729 156.32
L112.491 156.496
L114.252 156.654
L116.013 156.798
L117.775 156.927
L119.536 157.044
L121.297 157.15
L123.059 157.245
L124.82 157.332
L126.581 157.41
L128.343 157.48
L130.104 157.544
L131.865 157.602
L133.627 157.654
L135.388 157.701
L137.149 157.743
L138.911 157.782
L140.672 157.816
L142.433 157.848
L144.195 157.876
L145.956 157.902
L147.717 157.925
L149.479 157.946
L151.24 157.965
L153.001 157.982
L154.763 157.997
L156.524 158.011
L158.285 158.024
L160.047 158.035
L161.808 158.045
L163.57 158.055
L165.331 158.063
L167.092 158.071
L168.854 158.077
L170.615 158.084
L172.376 158.089
L174.138 158.094
L175.899 158.099
L177.66 158.103
L179.422 158.107
L181.183 158.11
L182.944 158.113
L184.706 158.116
L186.467 158.118
L188.228 158.121
L189.99 158.123
L191.751 158.125
L193.512 158.126
L195.274 158.128
L197.035 158.129
L198.796 158.13
L200.558 158.131
L202.319 158.132
L204.08 158.133
L205.842 158.134
L207.603 158.135
L209.364 158.135
L211.126 158.136" style="fill:none;opacity:0.6;stroke:#ff0000;stroke-linecap:square;stroke-width:2;"/>
   </g>
   <g id="patch_3">
    <path d="
M35.8718 23.1418
L244.508 23.1418" style="fill:none;stroke:#000000;stroke-linecap:square;stroke-linejoin:miter;"/>
   </g>
   <g id="patch_4">
    <path d="
M244.508 158.142
L244.508 23.1418" style="fill:none;stroke:#000000;stroke-linecap:square;stroke-linejoin:miter;"/>
   </g>
   <g id="patch_5">
    <path d="
M35.8718 158.142
L244.508 158.142" style="fill:none;stroke:#000000;stroke-linecap:square;stroke-linejoin:miter;"/>
   </g>
   <g id="patch_6">
    <path d="
M35.8718 158.142
L35.8718 23.1418" style="fill:none;stroke:#000000;stroke-linecap:square;stroke-linejoin:miter;"/>
   </g>
   <g id="matplotlib.axis_1">
    <g id="xtick_1">
     <g id="line2d_3">
      <defs>
       <path d="
M0 0
L0 -4" id="m93b0483c22" style="stroke:#000000;stroke-width:0.5;"/>
      </defs>
      <g>
       <use style="stroke:#000000;stroke-width:0.5;" x="35.871815625" xlink:href="#m93b0483c22" y="158.14175"/>
      </g>
     </g>
     <g id="line2d_4">
      <defs>
       <path d="
M0 0
L0 4" id="m741efc42ff" style="stroke:#000000;stroke-width:0.5;"/>
      </defs>
      <g>
       <use style="stroke:#000000;stroke-width:0.5;" x="35.871815625" xlink:href="#m741efc42ff" y="23.14175"/>
      </g>
     </g>
     <g id="text_1">
      <!-- 0.0 -->
      <defs>
       <path d="
M50.3906 35.7969
Q50.3906 27.1562 49.1406 20.3125
Q47.9062 13.4844 45.1406 8.73438
Q42.3906 4 38.0312 1.5
Q33.6875 -0.984375 27.4844 -0.984375
Q21.7344 -0.984375 17.4531 1.5
Q13.1875 4 10.375 8.73438
Q7.5625 13.4844 6.17188 20.3125
Q4.78125 27.1562 4.78125 35.7969
Q4.78125 44.4375 6.03125 51.2656
Q7.28125 58.1094 9.98438 62.8125
Q12.7031 67.5312 17.0156 70.0156
Q21.3438 72.5156 27.4844 72.5156
Q33.2969 72.5156 37.5938 70.0469
Q41.8906 67.5781 44.7188 62.8594
Q47.5625 58.1562 48.9688 51.3125
Q50.3906 44.4844 50.3906 35.7969
M13.8125 35.7969
Q13.8125 28.4688 14.5469 23
Q15.2812 17.5312 16.8906 13.8906
Q18.5 10.25 21.1094 8.42188
Q23.7344 6.59375 27.4844 6.59375
Q31.25 6.59375 33.8906 8.39062
Q36.5312 10.2031 38.2031 13.8125
Q39.8906 17.4375 40.6406 22.9219
Q41.4062 28.4219 41.4062 35.7969
Q41.4062 43.1094 40.6406 48.5781
Q39.8906 54.0469 38.2031 57.6562
Q36.5312 61.2812 33.8906 63.0781
Q31.25 64.8906 27.4844 64.8906
Q23.7344 64.8906 21.1094 63.0781
Q18.5 61.2812 16.8906 57.6562
Q15.2812 54.0469 14.5469 48.5781
Q13.8125 43.1094 13.8125 35.7969" id="WenQuanYiMicroHei-30"/>
       <path d="
M7.17188 5.42188
Q7.17188 7.28125 7.65625 8.5625
Q8.15625 9.85938 8.98438 10.6562
Q9.8125 11.4688 10.9375 11.8281
Q12.0625 12.2031 13.375 12.2031
Q14.6562 12.2031 15.7969 11.8281
Q16.9375 11.4688 17.7656 10.6562
Q18.6094 9.85938 19.0938 8.5625
Q19.5781 7.28125 19.5781 5.42188
Q19.5781 3.60938 19.0938 2.3125
Q18.6094 1.03125 17.7656 0.1875
Q16.9375 -0.640625 15.7969 -1.03125
Q14.6562 -1.42188 13.375 -1.42188
Q12.0625 -1.42188 10.9375 -1.03125
Q9.8125 -0.640625 8.98438 0.1875
Q8.15625 1.03125 7.65625 2.3125
Q7.17188 3.60938 7.17188 5.42188" id="WenQuanYiMicroHei-2e"/>
      </defs>
      <g transform="translate(29.499365625 169.737148125)scale(0.09996 -0.09996)">
       <use xlink:href="#WenQuanYiMicroHei-30"/>
       <use x="55.078125" xlink:href="#WenQuanYiMicroHei-2e"/>
       <use x="81.884765625" xlink:href="#WenQuanYiMicroHei-30"/>
      </g>
     </g>
    </g>
    <g id="xtick_2">
     <g id="line2d_5">
      <g>
       <use style="stroke:#000000;stroke-width:0.5;" x="70.6445428977" xlink:href="#m93b0483c22" y="158.14175"/>
      </g>
     </g>
     <g id="line2d_6">
      <g>
       <use style="stroke:#000000;stroke-width:0.5;" x="70.6445428977" xlink:href="#m741efc42ff" y="23.14175"/>
      </g>
     </g>
     <g id="text_2">
      <!-- 0.2 -->
      <defs>
       <path d="
M49.2188 0
L4.6875 0
L4.6875 7.625
L21.7812 26.2188
Q25.4375 30.1719 28.3125 33.4375
Q31.2031 36.7188 33.2188 39.8438
Q35.25 42.9688 36.3281 46.1094
Q37.4062 49.2656 37.4062 52.9844
Q37.4062 55.8594 36.5781 58.0469
Q35.75 60.25 34.2031 61.7812
Q32.6719 63.3281 30.5625 64.1094
Q28.4688 64.8906 25.875 64.8906
Q21.2344 64.8906 17.5 63.0156
Q13.7656 61.1406 10.4062 58.2031
L5.42188 64.0156
Q7.375 65.7656 9.60938 67.2969
Q11.8594 68.8438 14.4531 69.9688
Q17.0469 71.0938 19.9219 71.75
Q22.7969 72.4062 25.9844 72.4062
Q30.6719 72.4062 34.4531 71.0938
Q38.2344 69.7812 40.8594 67.3125
Q43.5 64.8438 44.9375 61.2969
Q46.3906 57.7656 46.3906 53.3281
Q46.3906 49.1719 45.0938 45.4062
Q43.7969 41.6562 41.5312 38.0156
Q39.2656 34.375 36.1094 30.7031
Q32.9531 27.0469 29.2969 23.0938
L15.5781 8.5
L15.5781 8.10938
L49.2188 8.10938
z
" id="WenQuanYiMicroHei-32"/>
      </defs>
      <g transform="translate(64.3306632102 169.737148125)scale(0.09996 -0.09996)">
       <use xlink:href="#WenQuanYiMicroHei-30"/>
       <use x="55.078125" xlink:href="#WenQuanYiMicroHei-2e"/>
       <use x="81.884765625" xlink:href="#WenQuanYiMicroHei-32"/>
      </g>
     </g>
    </g>
    <g id="xtick_3">
     <g id="line2d_7">
      <g>
       <use style="stroke:#000000;stroke-width:0.5;" x="105.41727017" xlink:href="#m93b0483c22" y="158.14175"/>
      </g>
     </g>
     <g id="line2d_8">
      <g>
       <use style="stroke:#000000;stroke-width:0.5;" x="105.41727017" xlink:href="#m741efc42ff" y="23.14175"/>
      </g>
     </g>
     <g id="text_3">
      <!-- 0.4 -->
      <defs>
       <path d="
M53.0781 16.0156
L42.6719 16.0156
L42.6719 0
L34.0781 0
L34.0781 16.0156
L1.125 16.0156
L1.125 23.7812
L33.5 71.7812
L42.6719 71.7812
L42.6719 24.125
L53.0781 24.125
z

M34.0781 24.125
L34.0781 41.5
Q34.0781 44.2344 34.1562 47.2344
Q34.2344 50.25 34.3281 53.0938
Q34.4219 55.9531 34.5469 58.4375
Q34.6719 60.9375 34.7188 62.5938
L34.2812 62.5938
Q33.9375 61.625 33.4219 60.4219
Q32.9062 59.2344 32.2969 58.0312
Q31.6875 56.8438 31.0469 55.7188
Q30.4219 54.5938 29.8906 53.8125
L9.8125 24.125
z
" id="WenQuanYiMicroHei-34"/>
      </defs>
      <g transform="translate(98.9104989205 169.737148125)scale(0.09996 -0.09996)">
       <use xlink:href="#WenQuanYiMicroHei-30"/>
       <use x="55.078125" xlink:href="#WenQuanYiMicroHei-2e"/>
       <use x="81.884765625" xlink:href="#WenQuanYiMicroHei-34"/>
      </g>
     </g>
    </g>
    <g id="xtick_4">
     <g id="line2d_9">
      <g>
       <use style="stroke:#000000;stroke-width:0.5;" x="140.189997443" xlink:href="#m93b0483c22" y="158.14175"/>
      </g>
     </g>
     <g id="line2d_10">
      <g>
       <use style="stroke:#000000;stroke-width:0.5;" x="140.189997443" xlink:href="#m741efc42ff" y="23.14175"/>
      </g>
     </g>
     <g id="text_4">
      <!-- 0.6 -->
      <defs>
       <path d="
M5.51562 30.5156
Q5.51562 35.6406 6.03125 40.7188
Q6.54688 45.7969 7.82812 50.4531
Q9.125 55.125 11.375 59.125
Q13.625 63.1406 17.0938 66.0938
Q20.5625 69.0469 25.3906 70.7188
Q30.2188 72.4062 36.7188 72.4062
Q37.6406 72.4062 38.7656 72.3594
Q39.8906 72.3125 41.0312 72.1875
Q42.1875 72.0781 43.2344 71.9062
Q44.2812 71.7344 45.125 71.4844
L45.125 63.9219
Q43.4062 64.5 41.25 64.7969
Q39.1094 65.0938 37.0156 65.0938
Q32.625 65.0938 29.2656 64.0312
Q25.9219 62.9844 23.4844 61.0781
Q21.0469 59.1875 19.4062 56.5469
Q17.7812 53.9062 16.75 50.7031
Q15.7188 47.5156 15.2344 43.8906
Q14.75 40.2812 14.5938 36.375
L15.1875 36.375
Q16.1562 38.1406 17.5469 39.6719
Q18.9531 41.2188 20.7969 42.3125
Q22.6562 43.4062 24.9688 44.0312
Q27.2969 44.6719 30.1719 44.6719
Q34.8125 44.6719 38.5625 43.2344
Q42.3281 41.7969 44.9688 39.0156
Q47.6094 36.2344 49.0469 32.2031
Q50.4844 28.1719 50.4844 23
Q50.4844 17.4375 48.9688 12.9844
Q47.4688 8.54688 44.625 5.4375
Q41.7969 2.34375 37.7969 0.671875
Q33.7969 -0.984375 28.8125 -0.984375
Q23.9219 -0.984375 19.6406 0.921875
Q15.375 2.82812 12.25 6.73438
Q9.125 10.6406 7.3125 16.5469
Q5.51562 22.4688 5.51562 30.5156
M28.7188 6.5
Q31.6406 6.5 34.0469 7.5
Q36.4688 8.5 38.2188 10.5156
Q39.9844 12.5469 40.9375 15.6406
Q41.8906 18.75 41.8906 23
Q41.8906 26.4219 41.0781 29.125
Q40.2812 31.8438 38.6719 33.7344
Q37.0625 35.6406 34.6406 36.6719
Q32.2344 37.7031 29 37.7031
Q25.7344 37.7031 23.0156 36.5469
Q20.3125 35.4062 18.4062 33.5625
Q16.5 31.7344 15.4531 29.3906
Q14.4062 27.0469 14.4062 24.7031
Q14.4062 21.4375 15.3125 18.1875
Q16.2188 14.9375 18 12.3438
Q19.7812 9.76562 22.4531 8.125
Q25.1406 6.5 28.7188 6.5" id="WenQuanYiMicroHei-36"/>
      </defs>
      <g transform="translate(133.812861818 169.737148125)scale(0.09996 -0.09996)">
       <use xlink:href="#WenQuanYiMicroHei-30"/>
       <use x="55.078125" xlink:href="#WenQuanYiMicroHei-2e"/>
       <use x="81.884765625" xlink:href="#WenQuanYiMicroHei-36"/>
      </g>
     </g>
    </g>
    <g id="xtick_5">
     <g id="line2d_11">
      <g>
       <use style="stroke:#000000;stroke-width:0.5;" x="174.962724716" xlink:href="#m93b0483c22" y="158.14175"/>
      </g>
     </g>
     <g id="line2d_12">
      <g>
       <use style="stroke:#000000;stroke-width:0.5;" x="174.962724716" xlink:href="#m741efc42ff" y="23.14175"/>
      </g>
     </g>
     <g id="text_5">
      <!-- 0.8 -->
      <defs>
       <path d="
M27.5938 72.5156
Q31.6875 72.5156 35.3281 71.4375
Q38.9688 70.3594 41.7188 68.2031
Q44.4844 66.0625 46.0938 62.8438
Q47.7031 59.625 47.7031 55.3281
Q47.7031 52.0469 46.7188 49.4062
Q45.75 46.7812 44.0312 44.6562
Q42.3281 42.5312 39.9844 40.8438
Q37.6406 39.1562 34.9062 37.7969
Q37.75 36.2812 40.4531 34.4219
Q43.1719 32.5625 45.2812 30.25
Q47.4062 27.9375 48.7031 25.0469
Q50 22.1719 50 18.6094
Q50 14.1094 48.3594 10.4688
Q46.7344 6.84375 43.7812 4.29688
Q40.8281 1.76562 36.6875 0.390625
Q32.5625 -0.984375 27.5938 -0.984375
Q22.2188 -0.984375 18.0469 0.328125
Q13.875 1.65625 11.0156 4.125
Q8.15625 6.59375 6.65625 10.1562
Q5.17188 13.7188 5.17188 18.2188
Q5.17188 21.875 6.26562 24.7969
Q7.375 27.7344 9.21875 30.0781
Q11.0781 32.4219 13.6094 34.2188
Q16.1562 36.0312 19 37.4062
Q16.6094 38.9219 14.5 40.7031
Q12.4062 42.4844 10.8594 44.6719
Q9.32812 46.875 8.42188 49.5312
Q7.51562 52.2031 7.51562 55.4219
Q7.51562 59.6719 9.15625 62.8594
Q10.7969 66.0625 13.5781 68.2031
Q16.3594 70.3594 20 71.4375
Q23.6406 72.5156 27.5938 72.5156
M13.9219 18.1094
Q13.9219 15.5312 14.7031 13.3594
Q15.4844 11.1875 17.1406 9.64062
Q18.7969 8.10938 21.3281 7.25
Q23.875 6.39062 27.3906 6.39062
Q30.8125 6.39062 33.4219 7.25
Q36.0312 8.10938 37.7812 9.6875
Q39.5469 11.2812 40.4219 13.5156
Q41.3125 15.7656 41.3125 18.5
Q41.3125 21.0469 40.3594 23.0938
Q39.4062 25.1406 37.625 26.8906
Q35.8438 28.6562 33.3438 30.2188
Q30.8594 31.7812 27.7812 33.2969
L26.3125 33.9844
Q20.1719 31.0625 17.0469 27.2656
Q13.9219 23.4844 13.9219 18.1094
M27.4844 65.0938
Q22.3125 65.0938 19.2656 62.5
Q16.2188 59.9062 16.2188 54.9844
Q16.2188 52.2031 17.0625 50.1875
Q17.9219 48.1875 19.4375 46.625
Q20.9531 45.0625 23.0781 43.8125
Q25.2031 42.5781 27.6875 41.4062
Q30.0312 42.4844 32.1094 43.75
Q34.1875 45.0156 35.7188 46.625
Q37.25 48.25 38.125 50.2969
Q39.0156 52.3438 39.0156 54.9844
Q39.0156 59.9062 35.9375 62.5
Q32.8594 65.0938 27.4844 65.0938" id="WenQuanYiMicroHei-38"/>
      </defs>
      <g transform="translate(168.609798153 169.737148125)scale(0.09996 -0.09996)">
       <use xlink:href="#WenQuanYiMicroHei-30"/>
       <use x="55.078125" xlink:href="#WenQuanYiMicroHei-2e"/>
       <use x="81.884765625" xlink:href="#WenQuanYiMicroHei-38"/>
      </g>
     </g>
    </g>
    <g id="xtick_6">
     <g id="line2d_13">
      <g>
       <use style="stroke:#000000;stroke-width:0.5;" x="209.735451989" xlink:href="#m93b0483c22" y="158.14175"/>
      </g>
     </g>
     <g id="line2d_14">
      <g>
       <use style="stroke:#000000;stroke-width:0.5;" x="209.735451989" xlink:href="#m741efc42ff" y="23.14175"/>
      </g>
     </g>
     <g id="text_6">
      <!-- 1.0 -->
      <defs>
       <path d="
M34.7188 0
L26.125 0
L26.125 44.5781
Q26.125 46.6875 26.1406 49.0781
Q26.1719 51.4688 26.2344 53.8281
Q26.3125 56.2031 26.3906 58.375
Q26.4688 60.5469 26.5156 62.2031
Q25.6875 61.3281 25.0469 60.6875
Q24.4219 60.0625 23.75 59.4688
Q23.0938 58.8906 22.3594 58.2188
Q21.625 57.5625 20.6094 56.6875
L13.375 50.7812
L8.6875 56.7812
L27.3906 71.3906
L34.7188 71.3906
z
" id="WenQuanYiMicroHei-31"/>
      </defs>
      <g transform="translate(203.558236364 169.737148125)scale(0.09996 -0.09996)">
       <use xlink:href="#WenQuanYiMicroHei-31"/>
       <use x="55.078125" xlink:href="#WenQuanYiMicroHei-2e"/>
       <use x="81.884765625" xlink:href="#WenQuanYiMicroHei-30"/>
      </g>
     </g>
    </g>
    <g id="xtick_7">
     <g id="line2d_15">
      <g>
       <use style="stroke:#000000;stroke-width:0.5;" x="244.508179261" xlink:href="#m93b0483c22" y="158.14175"/>
      </g>
     </g>
     <g id="line2d_16">
      <g>
       <use style="stroke:#000000;stroke-width:0.5;" x="244.508179261" xlink:href="#m741efc42ff" y="23.14175"/>
      </g>
     </g>
     <g id="text_7">
      <!-- 1.2 -->
      <g transform="translate(238.389533949 169.737148125)scale(0.09996 -0.09996)">
       <use xlink:href="#WenQuanYiMicroHei-31"/>
       <use x="55.078125" xlink:href="#WenQuanYiMicroHei-2e"/>
       <use x="81.884765625" xlink:href="#WenQuanYiMicroHei-32"/>
      </g>
     </g>
    </g>
    <g id="text_8">
     <!-- 时间间隔 -->
     <defs>
      <path d="
M25 82.0312
Q30.4688 75.7812 33.9844 68.3594
L26.9531 64.0625
Q23.8281 71.4844 18.3594 77.7344
z

M41.7969 77.3438
L89.8438 77.3438
L89.8438 1.5625
Q89.8438 -3.90625 87.5 -6.64062
Q85.1562 -9.375 80.8594 -9.375
Q77.7344 -9.375 73.4375 -8.98438
L71.4844 -0.78125
Q76.1719 -1.5625 79.2969 -1.5625
Q82.0312 -1.5625 82.0312 3.90625
L82.0312 70.3125
L41.7969 70.3125
z

M10.1562 63.2812
L17.9688 63.2812
L17.9688 -8.98438
L10.1562 -8.98438
z

M67.5781 55.0781
L67.5781 8.59375
L32.0312 8.59375
L32.0312 55.0781
z

M60.1562 35.5469
L60.1562 48.0469
L39.4531 48.0469
L39.4531 35.5469
z

M39.4531 28.125
L39.4531 15.2344
L60.1562 15.2344
L60.1562 28.125
z
" id="WenQuanYiMicroHei-95f4"/>
      <path d="
M37.1094 77.3438
L37.1094 70.3125
L27.7344 46.875
Q35.9375 35.9375 35.9375 25.3906
Q35.9375 17.5781 33 13.6719
Q30.0781 9.76562 24.2188 9.76562
Q21.875 9.76562 18.75 10.5469
L17.1875 18.3594
Q21.4844 17.1875 24.2188 17.1875
Q26.5625 17.1875 27.7344 19.3281
Q28.9062 21.4844 28.9062 25.3906
Q28.9062 35.5469 20.3125 45.7031
L29.2969 70.3125
L14.8438 70.3125
L14.8438 -8.98438
L7.8125 -8.98438
L7.8125 77.3438
z

M41.0156 77.3438
L93.75 77.3438
L93.75 70.3125
L41.0156 70.3125
z

M46.0938 65.2344
L88.6719 65.2344
L88.6719 45.3125
L46.0938 45.3125
z

M53.5156 51.9531
L81.25 51.9531
L81.25 58.5938
L53.5156 58.5938
z

M93.3594 39.8438
L93.3594 0
Q93.3594 -4.6875 90.8125 -6.82812
Q88.2812 -8.98438 83.2031 -8.98438
Q79.6875 -8.98438 75 -8.20312
L73.4375 -1.17188
Q79.6875 -1.95312 83.2031 -1.95312
Q85.9375 -1.95312 85.9375 1.5625
L85.9375 32.8125
L48.8281 32.8125
L48.8281 -8.98438
L41.4062 -8.98438
L41.4062 39.8438
z

M60.5469 29.6875
Q63.2812 26.1719 64.4531 21.4844
L57.8125 19.5312
Q56.6406 23.8281 54.2969 27.7344
z

M72.2656 29.6875
L79.2969 27.7344
Q77.7344 22.2656 75.7812 17.9688
L82.4219 17.9688
L82.4219 11.3281
L70.7031 11.3281
L70.7031 -5.07812
L63.6719 -5.07812
L63.6719 11.3281
L52.3438 11.3281
L52.3438 17.9688
L68.75 17.9688
Q70.7031 23.4375 72.2656 29.6875" id="WenQuanYiMicroHei-9694"/>
      <path d="
M42.9688 60.5469
L75 60.5469
L75 80.8594
L82.8125 80.8594
L82.8125 60.5469
L94.5312 60.5469
L94.5312 53.125
L82.8125 53.125
L82.8125 1.95312
Q82.8125 -3.90625 80.6562 -6.25
Q78.5156 -8.59375 73.0469 -8.59375
Q66.7969 -8.59375 60.9375 -7.03125
L59.375 1.17188
Q65.625 -0.78125 71.875 -0.78125
Q73.4375 -0.78125 74.2188 0
Q75 0.78125 75 3.90625
L75 53.125
L42.9688 53.125
z

M54.2969 46.4844
Q61.7188 34.375 66.7969 20.3125
L58.9844 16.7969
Q54.2969 31.6406 47.2656 43.3594
z

M39.4531 73.4375
L39.4531 4.29688
L32.0312 4.29688
L32.0312 9.76562
L14.8438 9.76562
L14.8438 1.17188
L7.42188 1.17188
L7.42188 73.4375
z

M14.8438 45.3125
L32.0312 45.3125
L32.0312 66.4062
L14.8438 66.4062
z

M14.8438 16.7969
L32.0312 16.7969
L32.0312 38.2812
L14.8438 38.2812
z
" id="WenQuanYiMicroHei-65f6"/>
     </defs>
     <g transform="translate(120.881317756 184.73471)scale(0.09996 -0.09996)">
      <use xlink:href="#WenQuanYiMicroHei-65f6"/>
      <use x="100.0" xlink:href="#WenQuanYiMicroHei-95f4"/>
      <use x="200.0" xlink:href="#WenQuanYiMicroHei-95f4"/>
      <use x="300.0" xlink:href="#WenQuanYiMicroHei-9694"/>
     </g>
    </g>
   </g>
   <g id="matplotlib.axis_2">
    <g id="ytick_1">
     <g id="line2d_17">
      <defs>
       <path d="
M0 0
L4 0" id="m728421d6d4" style="stroke:#000000;stroke-width:0.5;"/>
      </defs>
      <g>
       <use style="stroke:#000000;stroke-width:0.5;" x="35.871815625" xlink:href="#m728421d6d4" y="158.14175"/>
      </g>
     </g>
     <g id="line2d_18">
      <defs>
       <path d="
M0 0
L-4 0" id="mcb0005524f" style="stroke:#000000;stroke-width:0.5;"/>
      </defs>
      <g>
       <use style="stroke:#000000;stroke-width:0.5;" x="244.508179261" xlink:href="#mcb0005524f" y="158.14175"/>
      </g>
     </g>
     <g id="text_9">
      <!-- 0 -->
      <g transform="translate(27.3127025 160.738367187)scale(0.09996 -0.09996)">
       <use xlink:href="#WenQuanYiMicroHei-30"/>
      </g>
     </g>
    </g>
    <g id="ytick_2">
     <g id="line2d_19">
      <g>
       <use style="stroke:#000000;stroke-width:0.5;" x="35.871815625" xlink:href="#m728421d6d4" y="131.14175"/>
      </g>
     </g>
     <g id="line2d_20">
      <g>
       <use style="stroke:#000000;stroke-width:0.5;" x="244.508179261" xlink:href="#mcb0005524f" y="131.14175"/>
      </g>
     </g>
     <g id="text_10">
      <!-- 2 -->
      <g transform="translate(27.420471875 133.738367187)scale(0.09996 -0.09996)">
       <use xlink:href="#WenQuanYiMicroHei-32"/>
      </g>
     </g>
    </g>
    <g id="ytick_3">
     <g id="line2d_21">
      <g>
       <use style="stroke:#000000;stroke-width:0.5;" x="35.871815625" xlink:href="#m728421d6d4" y="104.14175"/>
      </g>
     </g>
     <g id="line2d_22">
      <g>
       <use style="stroke:#000000;stroke-width:0.5;" x="244.508179261" xlink:href="#mcb0005524f" y="104.14175"/>
      </g>
     </g>
     <g id="text_11">
      <!-- 4 -->
      <g transform="translate(26.67858125 106.738367188)scale(0.09996 -0.09996)">
       <use xlink:href="#WenQuanYiMicroHei-34"/>
      </g>
     </g>
    </g>
    <g id="ytick_4">
     <g id="line2d_23">
      <g>
       <use style="stroke:#000000;stroke-width:0.5;" x="35.871815625" xlink:href="#m728421d6d4" y="77.14175"/>
      </g>
     </g>
     <g id="line2d_24">
      <g>
       <use style="stroke:#000000;stroke-width:0.5;" x="244.508179261" xlink:href="#mcb0005524f" y="77.14175"/>
      </g>
     </g>
     <g id="text_12">
      <!-- 6 -->
      <g transform="translate(27.376739375 79.7383671875)scale(0.09996 -0.09996)">
       <use xlink:href="#WenQuanYiMicroHei-36"/>
      </g>
     </g>
    </g>
    <g id="ytick_5">
     <g id="line2d_25">
      <g>
       <use style="stroke:#000000;stroke-width:0.5;" x="35.871815625" xlink:href="#m728421d6d4" y="50.14175"/>
      </g>
     </g>
     <g id="line2d_26">
      <g>
       <use style="stroke:#000000;stroke-width:0.5;" x="244.508179261" xlink:href="#mcb0005524f" y="50.14175"/>
      </g>
     </g>
     <g id="text_13">
      <!-- 8 -->
      <g transform="translate(27.39079625 52.7383671875)scale(0.09996 -0.09996)">
       <use xlink:href="#WenQuanYiMicroHei-38"/>
      </g>
     </g>
    </g>
    <g id="ytick_6">
     <g id="line2d_27">
      <g>
       <use style="stroke:#000000;stroke-width:0.5;" x="35.871815625" xlink:href="#m728421d6d4" y="23.14175"/>
      </g>
     </g>
     <g id="line2d_28">
      <g>
       <use style="stroke:#000000;stroke-width:0.5;" x="244.508179261" xlink:href="#mcb0005524f" y="23.14175"/>
      </g>
     </g>
     <g id="text_14">
      <!-- 10 -->
      <g transform="translate(22.197561875 25.7383671875)scale(0.09996 -0.09996)">
       <use xlink:href="#WenQuanYiMicroHei-31"/>
       <use x="55.078125" xlink:href="#WenQuanYiMicroHei-30"/>
      </g>
     </g>
    </g>
    <g id="text_15">
     <!-- 概率密度 -->
     <defs>
      <path d="
M51.1719 81.25
Q54.2969 76.5625 55.8594 71.0938
L94.5312 71.0938
L94.5312 63.6719
L5.46875 63.6719
L5.46875 71.0938
L46.0938 71.0938
Q44.9219 75.3906 42.9688 78.5156
z

M46.4844 25.3906
L53.9062 25.3906
L53.9062 17.1875
L93.75 17.1875
L93.75 10.1562
L53.9062 10.1562
L53.9062 -8.98438
L46.4844 -8.98438
L46.4844 10.1562
L6.25 10.1562
L6.25 17.1875
L46.4844 17.1875
z

M45.7031 69.5312
L52.7344 67.5781
Q46.875 55.4688 42.1875 50
Q47.6562 50 54.2969 51.1719
Q57.8125 55.0781 60.9375 59.375
L67.9688 57.0312
Q56.6406 41.7969 42.5781 31.6406
Q52.3438 33.2031 60.5469 35.1562
Q58.9844 37.5 57.0312 39.8438
L63.2812 42.9688
Q69.9219 35.1562 74.6094 25.3906
L67.5781 22.2656
Q66.0156 26.1719 64.0625 29.6875
Q49.2188 26.1719 32.0312 23.8281
L30.0781 30.0781
Q39.4531 35.9375 48.0469 44.5312
Q41.4062 43.3594 33.9844 42.5781
L32.8125 49.2188
Q41.0156 58.9844 45.7031 69.5312
M17.1875 62.1094
Q23.4375 56.6406 27.7344 50
L20.7031 46.0938
Q16.7969 52.3438 10.1562 57.8125
z

M83.2031 62.1094
L89.8438 58.2031
Q83.2031 49.6094 76.5625 44.5312
L70.7031 50
Q78.5156 55.8594 83.2031 62.1094
M25.3906 42.5781
L31.25 38.2812
Q24.2188 29.6875 13.6719 22.2656
L7.8125 28.125
Q18.75 35.5469 25.3906 42.5781
M76.9531 41.4062
Q85.1562 36.7188 92.1875 30.0781
L86.3281 23.0469
Q79.6875 30.8594 71.875 35.9375
z
" id="WenQuanYiMicroHei-7387"/>
      <path d="
M5.46875 62.5
L16.4062 62.5
L16.4062 80.8594
L23.4375 80.8594
L23.4375 62.5
L30.4688 62.5
L30.4688 55.4688
L23.4375 55.4688
L23.4375 50
Q28.5156 43.75 32.4219 38.2812
L27.3438 31.25
L23.4375 39.4531
L23.4375 -8.98438
L16.4062 -8.98438
L16.4062 37.1094
Q13.2812 25 8.98438 16.7969
L3.51562 22.2656
Q12.1094 37.5 14.8438 55.4688
L5.46875 55.4688
z

M58.2031 77.7344
L58.2031 30.4688
L41.0156 30.4688
L41.0156 8.59375
Q46.0938 11.7188 50.3906 15.2344
L46.4844 22.2656
L52.7344 25
Q58.2031 16.4062 61.7188 6.64062
L55.0781 3.51562
L53.5156 8.59375
Q46.0938 2.73438 37.1094 -2.34375
L33.2031 1.5625
L33.2031 77.7344
z

M41.0156 70.7031
L41.0156 57.8125
L50.3906 57.8125
L50.3906 70.7031
z

M50.3906 50.7812
L41.0156 50.7812
L41.0156 37.5
L50.3906 37.5
z

M63.2812 77.7344
L92.9688 77.7344
L92.9688 70.7031
L83.9844 70.7031
Q83.2031 54.2969 82.0312 42.5781
L93.75 42.5781
L93.75 35.9375
L81.25 35.9375
L79.6875 27.3438
L83.9844 27.3438
L83.9844 1.17188
Q83.9844 -1.5625 85.9375 -1.5625
Q87.8906 -1.5625 88.4688 -0.1875
Q89.0625 1.17188 89.4531 8.98438
L95.7031 6.64062
Q94.9219 -3.51562 92.9688 -5.85938
Q91.0156 -8.20312 85.9375 -8.20312
Q80.4688 -8.20312 78.5156 -6.4375
Q76.5625 -4.6875 76.5625 0
L76.5625 16.0156
Q71.0938 1.5625 60.5469 -8.98438
L54.2969 -3.51562
Q70.7031 11.7188 73.4375 35.9375
L62.1094 35.9375
L60.1562 42.5781
Q63.6719 50 65.625 61.7188
L72.2656 60.1562
Q70.7031 49.6094 67.9688 42.5781
L74.6094 42.5781
Q75.7812 54.2969 76.5625 70.7031
L63.2812 70.7031
z
" id="WenQuanYiMicroHei-6982"/>
      <path d="
M50.7812 81.6406
Q53.5156 77.3438 55.0781 72.2656
L92.5781 72.2656
L92.5781 54.2969
L84.7656 54.2969
L84.7656 65.2344
L15.2344 65.2344
L15.2344 54.2969
L7.42188 54.2969
L7.42188 72.2656
L46.4844 72.2656
Q44.5312 76.1719 42.5781 79.2969
z

M46.0938 22.6562
L54.2969 22.6562
L54.2969 3.51562
L80.4688 3.51562
L80.4688 17.9688
L88.2812 17.9688
L88.2812 -8.59375
L80.4688 -8.59375
L80.4688 -3.90625
L12.1094 -3.90625
L12.1094 17.9688
L19.9219 17.9688
L19.9219 3.51562
L46.0938 3.51562
z

M46.0938 64.0625
Q51.9531 60.9375 58.2031 56.25
L52.3438 50.3906
Q46.875 55.0781 39.8438 59.7656
z

M28.5156 57.8125
L36.3281 57.8125
L36.3281 40.2344
Q57.0312 47.6562 72.2656 62.8906
L78.125 57.4219
Q60.9375 40.625 39.4531 33.2031
Q41.7969 32.4219 45.3125 32.4219
Q62.5 32.4219 65.625 33.7812
Q68.75 35.1562 70.3125 42.1875
L77.7344 40.2344
Q75.7812 30.0781 71.0938 27.3438
Q66.7969 25.3906 45.3125 25.3906
Q35.1562 25.3906 32.8125 26.1719
Q30.4688 26.9531 29.2969 29.6875
Q19.5312 26.5625 8.98438 24.2188
L5.46875 31.25
Q18.3594 33.9844 28.5156 37.5
z

M17.5781 54.2969
L24.2188 50.3906
Q19.1406 40.625 14.0625 35.5469
L7.8125 41.0156
Q13.6719 47.2656 17.5781 54.2969
M82.4219 52.3438
Q89.4531 44.1406 94.1406 34.7656
L86.7188 30.4688
Q82.8125 39.8438 75.7812 48.4375
z
" id="WenQuanYiMicroHei-5bc6"/>
      <path d="
M53.9062 81.25
Q56.25 77.7344 57.8125 73.0469
L92.5781 73.0469
L92.5781 66.0156
L21.4844 66.0156
L21.4844 35.5469
Q21.4844 10.5469 11.3281 -8.98438
L3.90625 -4.29688
Q9.375 7.03125 11.5156 16.2031
Q13.6719 25.3906 13.6719 38.2812
L13.6719 73.0469
L49.2188 73.0469
Q48.0469 76.1719 46.0938 78.9062
z

M23.4375 55.8594
L38.2812 55.8594
L38.2812 63.2812
L45.7031 63.2812
L45.7031 55.8594
L69.5312 55.8594
L69.5312 63.2812
L76.9531 63.2812
L76.9531 55.8594
L91.7969 55.8594
L91.7969 49.2188
L76.9531 49.2188
L76.9531 33.5938
L38.2812 33.5938
L38.2812 49.2188
L23.4375 49.2188
z

M69.5312 40.2344
L69.5312 49.2188
L45.7031 49.2188
L45.7031 40.2344
z

M27.3438 26.9531
L85.5469 26.9531
L85.5469 21.0938
Q78.9062 11.3281 66.4062 4.29688
Q76.9531 0 95.3125 -0.78125
L92.9688 -8.59375
Q70.7031 -7.8125 57.0312 -0.390625
Q42.5781 -6.25 23.8281 -9.375
L19.1406 -2.34375
Q36.7188 0 48.8281 4.29688
Q39.8438 10.1562 32.4219 20.3125
L27.3438 20.3125
z

M42.1875 20.3125
Q49.6094 12.1094 57.8125 8.20312
Q67.9688 13.2812 74.2188 20.3125
z
" id="WenQuanYiMicroHei-5ea6"/>
     </defs>
     <g transform="translate(14.795398125 110.223757813)rotate(-90.0)scale(0.09996 -0.09996)">
      <use xlink:href="#WenQuanYiMicroHei-6982"/>
      <use x="100.0" xlink:href="#WenQuanYiMicroHei-7387"/>
      <use x="200.0" xlink:href="#WenQuanYiMicroHei-5bc6"/>
      <use x="300.0" xlink:href="#WenQuanYiMicroHei-5ea6"/>
     </g>
    </g>
   </g>
   <g id="text_16">
    <!-- k = 1 -->
    <defs>
     <path id="WenQuanYiMicroHei-20"/>
     <path d="
M16.7031 27.6875
L23.2969 35.9844
L37.5938 53.6094
L47.9062 53.6094
L28.3281 30.4219
L49.2188 0
L39.0156 0
L22.6094 24.6094
L17.2812 20.6094
L17.2812 0
L8.5 0
L8.5 75.9844
L17.2812 75.9844
L17.2812 41.1094
L16.5 27.6875
z
" id="WenQuanYiMicroHei-6b"/>
     <path d="
M4.98438 41.6094
L4.98438 48.875
L50.0938 48.875
L50.0938 41.6094
z

M4.98438 21.5781
L4.98438 28.9062
L50.0938 28.9062
L50.0938 21.5781
z
" id="WenQuanYiMicroHei-3d"/>
    </defs>
    <g transform="translate(126.410997443 18.14175)scale(0.144 -0.144)">
     <use xlink:href="#WenQuanYiMicroHei-6b"/>
     <use x="49.609375" xlink:href="#WenQuanYiMicroHei-20"/>
     <use x="75.5859375" xlink:href="#WenQuanYiMicroHei-3d"/>
     <use x="130.6640625" xlink:href="#WenQuanYiMicroHei-20"/>
     <use x="156.640625" xlink:href="#WenQuanYiMicroHei-31"/>
    </g>
   </g>
   <g id="legend_1">
    <g id="patch_7">
     <path d="
M164.556 61.1297
L239.51 61.1297
L239.51 28.1397
L164.556 28.1397
z
" style="fill:#ffffff;stroke:#000000;stroke-linejoin:miter;"/>
    </g>
    <g id="line2d_29">
     <path d="
M171.553 36.2349
L185.547 36.2349" style="fill:none;stroke:#348abd;stroke-linecap:square;stroke-width:2;"/>
    </g>
    <g id="line2d_30"/>
    <g id="text_17">
     <!-- 统计结果 -->
     <defs>
      <path d="
M14.8438 77.3438
L84.7656 77.3438
L84.7656 36.7188
L53.5156 36.7188
L53.5156 29.2969
L94.1406 29.2969
L94.1406 21.875
L60.1562 21.875
Q73.4375 8.59375 94.5312 1.95312
L89.8438 -6.64062
Q67.1875 2.34375 53.5156 19.1406
L53.5156 -9.375
L45.7031 -9.375
L45.7031 18.75
Q31.6406 2.34375 10.5469 -6.64062
L5.07812 0.390625
Q25.3906 8.59375 39.0625 21.875
L5.85938 21.875
L5.85938 29.2969
L45.7031 29.2969
L45.7031 36.7188
L14.8438 36.7188
z

M22.6562 60.1562
L45.7031 60.1562
L45.7031 69.9219
L22.6562 69.9219
z

M53.5156 69.9219
L53.5156 60.1562
L76.9531 60.1562
L76.9531 69.9219
z

M22.6562 44.1406
L45.7031 44.1406
L45.7031 53.5156
L22.6562 53.5156
z

M53.5156 53.5156
L53.5156 44.1406
L76.9531 44.1406
L76.9531 53.5156
z
" id="WenQuanYiMicroHei-679c"/>
      <path d="
M33.2031 65.2344
L40.2344 62.5
Q30.4688 41.7969 17.9688 27.7344
Q27.7344 30.0781 35.9375 32.8125
L37.8906 26.5625
Q24.6094 21.4844 8.20312 18.75
L5.85938 25.3906
Q14.4531 33.5938 22.2656 46.0938
Q15.625 44.5312 8.20312 43.75
L6.64062 51.1719
Q15.625 62.1094 21.4844 80.8594
L28.9062 78.5156
Q23.4375 62.1094 15.2344 51.5625
Q21.4844 51.9531 26.5625 52.7344
z

M37.8906 15.2344
L39.4531 8.20312
Q25.3906 3.125 8.20312 -0.78125
L5.07812 7.42188
Q23.4375 10.9375 37.8906 15.2344
M57.8125 62.1094
L42.1875 62.1094
L42.1875 69.1406
L63.6719 69.1406
Q62.1094 74.2188 59.7656 78.5156
L67.5781 80.8594
Q70.3125 75.7812 71.875 69.1406
L93.3594 69.1406
L93.3594 62.1094
L66.4062 62.1094
Q59.375 46.0938 52.3438 39.4531
Q64.8438 40.625 78.9062 43.75
Q75.7812 49.6094 72.2656 55.0781
L78.5156 58.9844
Q87.1094 46.0938 92.5781 31.6406
L85.5469 27.7344
Q83.9844 32.8125 81.6406 37.8906
L75.7812 36.3281
L75.7812 1.95312
Q75.7812 0.390625 76.75 -0.1875
Q77.7344 -0.78125 81.25 -0.78125
Q84.7656 -0.78125 85.5469 0.96875
Q86.3281 2.73438 86.7188 16.4062
L94.9219 14.0625
Q94.5312 1.95312 93.5469 -1.5625
Q92.5781 -5.07812 90.625 -6.4375
Q88.6719 -7.8125 81.25 -7.8125
Q73.0469 -7.8125 70.5 -6.04688
Q67.9688 -4.29688 67.9688 -0.390625
L67.9688 35.1562
Q64.8438 34.375 61.7188 33.9844
Q59.375 3.125 42.9688 -8.98438
L37.8906 -2.34375
Q51.5625 7.42188 54.2969 33.2031
L43.75 32.4219
L41.7969 38.6719
Q51.1719 46.875 57.8125 62.1094" id="WenQuanYiMicroHei-7edf"/>
      <path d="
M19.9219 80.8594
Q26.5625 73.0469 30.8594 64.4531
L23.4375 60.1562
Q19.5312 68.75 12.8906 76.5625
z

M5.07812 51.9531
L26.1719 51.9531
L26.1719 6.64062
L34.375 15.625
L39.4531 10.9375
Q33.9844 3.51562 24.6094 -3.90625
L18.75 1.17188
L18.75 44.9219
L5.07812 44.9219
z

M32.0312 50.3906
L59.7656 50.3906
L59.7656 80.8594
L67.5781 80.8594
L67.5781 50.3906
L94.9219 50.3906
L94.9219 42.9688
L67.5781 42.9688
L67.5781 -9.76562
L59.7656 -9.76562
L59.7656 42.9688
L32.0312 42.9688
z
" id="WenQuanYiMicroHei-8ba1"/>
      <path d="
M33.2031 65.2344
L40.2344 62.5
Q30.4688 41.7969 17.9688 27.7344
Q27.7344 30.0781 35.9375 32.8125
L37.8906 26.5625
Q24.6094 21.4844 8.20312 18.75
L5.85938 25.3906
Q14.4531 33.5938 22.2656 46.0938
Q15.625 44.5312 8.20312 43.75
L6.64062 51.1719
Q15.625 62.1094 21.4844 80.8594
L28.9062 78.5156
Q23.4375 62.1094 15.2344 51.5625
Q21.4844 51.9531 26.5625 52.7344
z

M37.8906 15.2344
L39.4531 8.20312
Q25.3906 3.125 8.20312 -0.78125
L5.07812 7.42188
Q23.4375 10.9375 37.8906 15.2344
M42.5781 67.9688
L64.4531 67.9688
L64.4531 80.8594
L72.2656 80.8594
L72.2656 67.9688
L94.9219 67.9688
L94.9219 60.5469
L72.2656 60.5469
L72.2656 46.875
L91.4062 46.875
L91.4062 39.4531
L46.0938 39.4531
L46.0938 46.875
L64.4531 46.875
L64.4531 60.5469
L42.5781 60.5469
z

M90.2344 29.6875
L90.2344 -8.98438
L82.8125 -8.98438
L82.8125 -2.34375
L55.8594 -2.34375
L55.8594 -8.98438
L48.4375 -8.98438
L48.4375 29.6875
z

M55.8594 5.07812
L82.8125 5.07812
L82.8125 22.2656
L55.8594 22.2656
z
" id="WenQuanYiMicroHei-7ed3"/>
     </defs>
     <g transform="translate(196.542998011 39.733548125)scale(0.09996 -0.09996)">
      <use xlink:href="#WenQuanYiMicroHei-7edf"/>
      <use x="100.0" xlink:href="#WenQuanYiMicroHei-8ba1"/>
      <use x="200.0" xlink:href="#WenQuanYiMicroHei-7ed3"/>
      <use x="300.0" xlink:href="#WenQuanYiMicroHei-679c"/>
     </g>
    </g>
    <g id="line2d_31">
     <path d="
M171.553 51.2305
L185.547 51.2305" style="fill:none;opacity:0.6;stroke:#ff0000;stroke-linecap:square;stroke-width:2;"/>
    </g>
    <g id="line2d_32"/>
    <g id="text_18">
     <!-- 伽玛分布 -->
     <defs>
      <path d="
M6.64062 67.9688
L35.1562 67.9688
Q38.6719 74.6094 41.4062 81.6406
L49.2188 79.2969
L44.5312 67.9688
L93.75 67.9688
L93.75 60.5469
L41.0156 60.5469
Q37.1094 52.7344 30.8594 42.9688
L51.1719 42.9688
L51.1719 57.8125
L58.9844 57.8125
L58.9844 42.9688
L87.1094 42.9688
L87.1094 10.9375
Q87.1094 6.25 84.375 3.90625
Q81.6406 1.5625 76.5625 1.5625
Q72.2656 1.5625 66.7969 2.73438
L64.8438 10.1562
Q72.2656 8.98438 76.1719 8.98438
Q79.2969 8.98438 79.2969 12.8906
L79.2969 35.5469
L58.9844 35.5469
L58.9844 -8.98438
L51.1719 -8.98438
L51.1719 35.5469
L31.25 35.5469
L31.25 -0.78125
L23.4375 -0.78125
L23.4375 33.2031
Q17.1875 25.3906 9.375 18.75
L4.29688 23.8281
Q19.9219 40.2344 31.25 60.5469
L6.64062 60.5469
z
" id="WenQuanYiMicroHei-5e03"/>
      <path d="
M18.75 80.8594
L26.5625 78.5156
Q24.2188 69.1406 20.7031 59.7656
L20.7031 -8.98438
L13.2812 -8.98438
L13.2812 41.7969
L7.8125 32.0312
L3.90625 39.8438
Q14.0625 59.375 18.75 80.8594
M26.9531 64.0625
L36.3281 64.0625
L36.3281 80.8594
L43.75 80.8594
L43.75 64.0625
L59.7656 64.0625
Q59.375 8.98438 56.6406 0.96875
Q53.9062 -7.03125 46.875 -7.03125
Q43.75 -7.03125 39.0625 -5.85938
L38.2812 1.17188
Q42.9688 0.390625 46.4844 0.390625
Q48.8281 0.390625 49.6094 5.85938
Q52.3438 21.0938 52.3438 56.6406
L43.75 56.6406
L43.75 51.5625
Q43.75 7.03125 27.7344 -9.375
L23.0469 -3.51562
Q29.2969 3.90625 32.8125 16.7969
Q36.3281 29.6875 36.3281 54.2969
L36.3281 56.6406
L26.9531 56.6406
z

M92.1875 72.6562
L92.1875 -5.85938
L85.1562 -5.85938
L85.1562 0.78125
L72.6562 0.78125
L72.6562 -6.25
L65.2344 -6.25
L65.2344 72.6562
z

M72.6562 7.8125
L85.1562 7.8125
L85.1562 65.625
L72.6562 65.625
z
" id="WenQuanYiMicroHei-4f3d"/>
      <path d="
M64.4531 80.4688
Q78.9062 57.8125 95.3125 46.0938
L90.2344 37.5
Q73.8281 50 58.5938 74.2188
z

M35.9375 80.0781
L41.7969 75.3906
Q28.9062 52.3438 10.9375 36.7188
L5.46875 44.1406
Q22.2656 57.0312 35.9375 80.0781
M21.0938 42.1875
L78.9062 42.1875
Q78.9062 5.85938 76.1719 -1.17188
Q73.4375 -8.20312 64.8438 -8.20312
Q60.1562 -8.20312 53.9062 -7.42188
L52.3438 0.78125
Q58.9844 0 63.6719 0
Q66.7969 0 68.1562 3.90625
Q69.5312 7.8125 70.3125 34.7656
L46.0938 34.7656
Q44.9219 18.3594 37.8906 8.59375
Q30.8594 -1.17188 14.0625 -8.98438
L7.8125 -2.34375
Q23.4375 4.6875 29.6875 12.8906
Q35.9375 21.0938 37.8906 34.7656
L21.0938 34.7656
z
" id="WenQuanYiMicroHei-5206"/>
      <path d="
M5.07812 75.7812
L36.7188 75.7812
L36.7188 68.3594
L25 68.3594
L25 45.7031
L35.9375 45.7031
L35.9375 38.2812
L25 38.2812
L25 15.2344
Q31.6406 17.9688 37.5 20.7031
L38.6719 13.6719
Q24.2188 6.25 6.64062 1.17188
L5.07812 8.98438
L17.1875 12.5
L17.1875 38.2812
L6.25 38.2812
L6.25 45.7031
L17.1875 45.7031
L17.1875 68.3594
L5.07812 68.3594
z

M45.3125 77.3438
L86.7188 77.3438
L80.8594 36.3281
L93.3594 36.3281
Q91.7969 3.90625 88.4688 -2.73438
Q85.1562 -9.375 77.3438 -9.375
L66.4062 -9.375
L64.4531 -1.5625
Q78.9062 -1.5625 80.0781 -1.17188
Q81.6406 0 82.8125 4.29688
Q84.375 12.1094 84.7656 28.9062
L45.7031 28.9062
L51.1719 63.2812
L59.375 62.5
L54.6875 36.3281
L73.0469 36.3281
L78.5156 69.9219
L45.3125 69.9219
z

M42.5781 18.3594
L78.5156 18.3594
L78.5156 10.9375
L42.5781 10.9375
z
" id="WenQuanYiMicroHei-739b"/>
     </defs>
     <g transform="translate(196.542998011 54.72911)scale(0.09996 -0.09996)">
      <use xlink:href="#WenQuanYiMicroHei-4f3d"/>
      <use x="100.0" xlink:href="#WenQuanYiMicroHei-739b"/>
      <use x="200.0" xlink:href="#WenQuanYiMicroHei-5206"/>
      <use x="300.0" xlink:href="#WenQuanYiMicroHei-5e03"/>
     </g>
    </g>
   </g>
  </g>
  <g id="axes_2">
   <g id="patch_8">
    <path d="
M286.235 158.142
L494.872 158.142
L494.872 23.1418
L286.235 23.1418
z
" style="fill:#ffffff;"/>
   </g>
   <g id="line2d_33">
    <path clip-path="url(#pf975ef8cd0)" d="
M287.395 135.58
L289.425 106.366
L291.454 89.0108
L293.483 59.7965
L295.512 64.7137
L297.541 37.5242
L299.57 38.1027
L301.599 32.3176
L303.628 38.1027
L305.657 26.8219
L307.686 40.7059
L309.715 33.7639
L311.744 51.4082
L313.773 49.9619
L315.802 51.6974
L317.831 54.0115
L319.86 61.532
L321.889 70.788
L323.919 73.3913
L325.948 73.6805
L327.977 84.9613
L330.006 85.5398
L332.035 92.1926
L334.064 100.87
L336.093 115.333
L338.122 108.391
L340.151 110.994
L342.18 107.523
L344.209 120.25
L346.238 124.299
L348.267 126.324
L350.296 131.82
L352.325 130.952
L354.354 127.481
L356.384 135.869
L358.413 134.712
L360.442 139.63
L362.471 138.762
L364.5 141.944
L366.529 138.762
L368.558 145.704
L370.587 145.704
L372.616 145.704
L374.645 146.572
L376.674 148.886
L378.703 152.067
L380.732 150.621
L382.761 151.489
L384.79 152.067
L386.819 153.224
L388.848 151.778
L390.878 153.224
L392.907 152.646
L394.936 153.514
L396.965 154.96
L398.994 154.381
L401.023 155.828
L403.052 154.671
L405.081 155.538
L407.11 155.249
L409.139 154.381
L411.168 156.695
L413.197 155.249
L415.226 156.985
L417.255 156.695
L419.284 156.695
L421.313 155.828
L423.342 157.563
L425.372 156.985
L427.401 157.563
L429.43 157.563
L431.459 157.852
L433.488 158.142
L435.517 157.563
L437.546 157.274
L439.575 158.142
L441.604 157.852
L443.633 157.563
L445.662 157.852
L447.691 157.563
L449.72 157.852
L451.749 158.142
L453.778 158.142
L455.807 158.142
L457.836 158.142
L459.866 157.563
L461.895 158.142
L463.924 158.142
L465.953 158.142
L467.982 157.852
L470.011 158.142
L472.04 158.142
L474.069 158.142
L476.098 157.852
L478.127 158.142
L480.156 158.142
L482.185 158.142
L484.214 157.852
L486.243 157.852
L488.272 157.852" style="fill:none;stroke:#348abd;stroke-linecap:square;stroke-width:2;"/>
   </g>
   <g id="line2d_34">
    <path clip-path="url(#pf975ef8cd0)" d="
M287.395 137.077
L289.425 106.611
L291.454 83.1114
L293.483 65.4145
L295.512 52.5267
L297.541 43.6031
L299.57 37.9269
L301.599 34.891
L303.628 33.9824
L305.657 34.7695
L307.686 36.8897
L309.715 40.0397
L311.744 43.9669
L313.773 48.4619
L315.802 53.352
L317.831 58.4956
L319.86 63.7774
L321.889 69.1048
L323.919 74.4034
L325.948 79.615
L327.977 84.6946
L330.006 89.6079
L332.035 94.3299
L334.064 98.8432
L336.093 103.136
L338.122 107.203
L340.151 111.042
L342.18 114.653
L344.209 118.039
L346.238 121.208
L348.267 124.165
L350.296 126.918
L352.325 129.478
L354.354 131.852
L356.384 134.051
L358.413 136.085
L360.442 137.962
L362.471 139.694
L364.5 141.289
L366.529 142.757
L368.558 144.106
L370.587 145.344
L372.616 146.48
L374.645 147.52
L376.674 148.473
L378.703 149.345
L380.732 150.143
L382.761 150.871
L384.79 151.536
L386.819 152.142
L388.848 152.696
L390.878 153.2
L392.907 153.659
L394.936 154.077
L396.965 154.457
L398.994 154.803
L401.023 155.117
L403.052 155.403
L405.081 155.662
L407.11 155.898
L409.139 156.111
L411.168 156.305
L413.197 156.481
L415.226 156.64
L417.255 156.785
L419.284 156.915
L421.313 157.034
L423.342 157.141
L425.372 157.238
L427.401 157.326
L429.43 157.405
L431.459 157.477
L433.488 157.542
L435.517 157.601
L437.546 157.654
L439.575 157.702
L441.604 157.745
L443.633 157.784
L445.662 157.819
L447.691 157.851
L449.72 157.88
L451.749 157.906
L453.778 157.929
L455.807 157.95
L457.836 157.97
L459.866 157.987
L461.895 158.002
L463.924 158.016
L465.953 158.029
L467.982 158.04
L470.011 158.05
L472.04 158.059
L474.069 158.068
L476.098 158.075
L478.127 158.082
L480.156 158.088
L482.185 158.093
L484.214 158.098
L486.243 158.103
L488.272 158.107" style="fill:none;opacity:0.6;stroke:#ff0000;stroke-linecap:square;stroke-width:2;"/>
   </g>
   <g id="patch_9">
    <path d="
M286.235 23.1418
L494.872 23.1418" style="fill:none;stroke:#000000;stroke-linecap:square;stroke-linejoin:miter;"/>
   </g>
   <g id="patch_10">
    <path d="
M494.872 158.142
L494.872 23.1418" style="fill:none;stroke:#000000;stroke-linecap:square;stroke-linejoin:miter;"/>
   </g>
   <g id="patch_11">
    <path d="
M286.235 158.142
L494.872 158.142" style="fill:none;stroke:#000000;stroke-linecap:square;stroke-linejoin:miter;"/>
   </g>
   <g id="patch_12">
    <path d="
M286.235 158.142
L286.235 23.1418" style="fill:none;stroke:#000000;stroke-linecap:square;stroke-linejoin:miter;"/>
   </g>
   <g id="matplotlib.axis_3">
    <g id="xtick_8">
     <g id="line2d_35">
      <g>
       <use style="stroke:#000000;stroke-width:0.5;" x="286.235451989" xlink:href="#m93b0483c22" y="158.14175"/>
      </g>
     </g>
     <g id="line2d_36">
      <g>
       <use style="stroke:#000000;stroke-width:0.5;" x="286.235451989" xlink:href="#m741efc42ff" y="23.14175"/>
      </g>
     </g>
     <g id="text_19">
      <!-- 0.0 -->
      <g transform="translate(279.863001989 169.737148125)scale(0.09996 -0.09996)">
       <use xlink:href="#WenQuanYiMicroHei-30"/>
       <use x="55.078125" xlink:href="#WenQuanYiMicroHei-2e"/>
       <use x="81.884765625" xlink:href="#WenQuanYiMicroHei-30"/>
      </g>
     </g>
    </g>
    <g id="xtick_9">
     <g id="line2d_37">
      <g>
       <use style="stroke:#000000;stroke-width:0.5;" x="321.008179261" xlink:href="#m93b0483c22" y="158.14175"/>
      </g>
     </g>
     <g id="line2d_38">
      <g>
       <use style="stroke:#000000;stroke-width:0.5;" x="321.008179261" xlink:href="#m741efc42ff" y="23.14175"/>
      </g>
     </g>
     <g id="text_20">
      <!-- 0.2 -->
      <g transform="translate(314.694299574 169.737148125)scale(0.09996 -0.09996)">
       <use xlink:href="#WenQuanYiMicroHei-30"/>
       <use x="55.078125" xlink:href="#WenQuanYiMicroHei-2e"/>
       <use x="81.884765625" xlink:href="#WenQuanYiMicroHei-32"/>
      </g>
     </g>
    </g>
    <g id="xtick_10">
     <g id="line2d_39">
      <g>
       <use style="stroke:#000000;stroke-width:0.5;" x="355.780906534" xlink:href="#m93b0483c22" y="158.14175"/>
      </g>
     </g>
     <g id="line2d_40">
      <g>
       <use style="stroke:#000000;stroke-width:0.5;" x="355.780906534" xlink:href="#m741efc42ff" y="23.14175"/>
      </g>
     </g>
     <g id="text_21">
      <!-- 0.4 -->
      <g transform="translate(349.274135284 169.737148125)scale(0.09996 -0.09996)">
       <use xlink:href="#WenQuanYiMicroHei-30"/>
       <use x="55.078125" xlink:href="#WenQuanYiMicroHei-2e"/>
       <use x="81.884765625" xlink:href="#WenQuanYiMicroHei-34"/>
      </g>
     </g>
    </g>
    <g id="xtick_11">
     <g id="line2d_41">
      <g>
       <use style="stroke:#000000;stroke-width:0.5;" x="390.553633807" xlink:href="#m93b0483c22" y="158.14175"/>
      </g>
     </g>
     <g id="line2d_42">
      <g>
       <use style="stroke:#000000;stroke-width:0.5;" x="390.553633807" xlink:href="#m741efc42ff" y="23.14175"/>
      </g>
     </g>
     <g id="text_22">
      <!-- 0.6 -->
      <g transform="translate(384.176498182 169.737148125)scale(0.09996 -0.09996)">
       <use xlink:href="#WenQuanYiMicroHei-30"/>
       <use x="55.078125" xlink:href="#WenQuanYiMicroHei-2e"/>
       <use x="81.884765625" xlink:href="#WenQuanYiMicroHei-36"/>
      </g>
     </g>
    </g>
    <g id="xtick_12">
     <g id="line2d_43">
      <g>
       <use style="stroke:#000000;stroke-width:0.5;" x="425.32636108" xlink:href="#m93b0483c22" y="158.14175"/>
      </g>
     </g>
     <g id="line2d_44">
      <g>
       <use style="stroke:#000000;stroke-width:0.5;" x="425.32636108" xlink:href="#m741efc42ff" y="23.14175"/>
      </g>
     </g>
     <g id="text_23">
      <!-- 0.8 -->
      <g transform="translate(418.973434517 169.737148125)scale(0.09996 -0.09996)">
       <use xlink:href="#WenQuanYiMicroHei-30"/>
       <use x="55.078125" xlink:href="#WenQuanYiMicroHei-2e"/>
       <use x="81.884765625" xlink:href="#WenQuanYiMicroHei-38"/>
      </g>
     </g>
    </g>
    <g id="xtick_13">
     <g id="line2d_45">
      <g>
       <use style="stroke:#000000;stroke-width:0.5;" x="460.099088352" xlink:href="#m93b0483c22" y="158.14175"/>
      </g>
     </g>
     <g id="line2d_46">
      <g>
       <use style="stroke:#000000;stroke-width:0.5;" x="460.099088352" xlink:href="#m741efc42ff" y="23.14175"/>
      </g>
     </g>
     <g id="text_24">
      <!-- 1.0 -->
      <g transform="translate(453.921872727 169.737148125)scale(0.09996 -0.09996)">
       <use xlink:href="#WenQuanYiMicroHei-31"/>
       <use x="55.078125" xlink:href="#WenQuanYiMicroHei-2e"/>
       <use x="81.884765625" xlink:href="#WenQuanYiMicroHei-30"/>
      </g>
     </g>
    </g>
    <g id="xtick_14">
     <g id="line2d_47">
      <g>
       <use style="stroke:#000000;stroke-width:0.5;" x="494.871815625" xlink:href="#m93b0483c22" y="158.14175"/>
      </g>
     </g>
     <g id="line2d_48">
      <g>
       <use style="stroke:#000000;stroke-width:0.5;" x="494.871815625" xlink:href="#m741efc42ff" y="23.14175"/>
      </g>
     </g>
     <g id="text_25">
      <!-- 1.2 -->
      <g transform="translate(488.753170312 169.737148125)scale(0.09996 -0.09996)">
       <use xlink:href="#WenQuanYiMicroHei-31"/>
       <use x="55.078125" xlink:href="#WenQuanYiMicroHei-2e"/>
       <use x="81.884765625" xlink:href="#WenQuanYiMicroHei-32"/>
      </g>
     </g>
    </g>
    <g id="text_26">
     <!-- 时间间隔 -->
     <g transform="translate(371.244954119 184.73471)scale(0.09996 -0.09996)">
      <use xlink:href="#WenQuanYiMicroHei-65f6"/>
      <use x="100.0" xlink:href="#WenQuanYiMicroHei-95f4"/>
      <use x="200.0" xlink:href="#WenQuanYiMicroHei-95f4"/>
      <use x="300.0" xlink:href="#WenQuanYiMicroHei-9694"/>
     </g>
    </g>
   </g>
   <g id="matplotlib.axis_4">
    <g id="ytick_7">
     <g id="line2d_49">
      <g>
       <use style="stroke:#000000;stroke-width:0.5;" x="286.235451989" xlink:href="#m728421d6d4" y="158.14175"/>
      </g>
     </g>
     <g id="line2d_50">
      <g>
       <use style="stroke:#000000;stroke-width:0.5;" x="494.871815625" xlink:href="#mcb0005524f" y="158.14175"/>
      </g>
     </g>
     <g id="text_27">
      <!-- 0.0 -->
      <g transform="translate(269.490551989 160.738367187)scale(0.09996 -0.09996)">
       <use xlink:href="#WenQuanYiMicroHei-30"/>
       <use x="55.078125" xlink:href="#WenQuanYiMicroHei-2e"/>
       <use x="81.884765625" xlink:href="#WenQuanYiMicroHei-30"/>
      </g>
     </g>
    </g>
    <g id="ytick_8">
     <g id="line2d_51">
      <g>
       <use style="stroke:#000000;stroke-width:0.5;" x="286.235451989" xlink:href="#m728421d6d4" y="141.26675"/>
      </g>
     </g>
     <g id="line2d_52">
      <g>
       <use style="stroke:#000000;stroke-width:0.5;" x="494.871815625" xlink:href="#mcb0005524f" y="141.26675"/>
      </g>
     </g>
     <g id="text_28">
      <!-- 0.5 -->
      <defs>
       <path d="
M26.6094 43.7969
Q31.4531 43.7969 35.625 42.4531
Q39.7969 41.1094 42.8906 38.4688
Q46 35.8438 47.75 31.9375
Q49.5156 28.0312 49.5156 22.9062
Q49.5156 17.3281 47.8438 12.8906
Q46.1875 8.45312 42.9219 5.375
Q39.6562 2.29688 34.8438 0.65625
Q30.0312 -0.984375 23.7812 -0.984375
Q21.2969 -0.984375 18.875 -0.734375
Q16.4531 -0.484375 14.2344 -0.015625
Q12.0156 0.4375 10.0156 1.17188
Q8.01562 1.90625 6.39062 2.875
L6.39062 11.2812
Q8.01562 10.1562 10.1875 9.28125
Q12.3594 8.40625 14.75 7.8125
Q17.1406 7.23438 19.5469 6.90625
Q21.9688 6.59375 24.0312 6.59375
Q27.875 6.59375 30.9062 7.5
Q33.9375 8.40625 36.0312 10.2969
Q38.1406 12.2031 39.25 15.0781
Q40.375 17.9688 40.375 21.9219
Q40.375 28.9062 36.0781 32.5938
Q31.7812 36.2812 23.5781 36.2812
Q22.2656 36.2812 20.7188 36.1562
Q19.1875 36.0312 17.6406 35.8281
Q16.1094 35.6406 14.7188 35.4219
Q13.3281 35.2031 12.3125 35.0156
L7.90625 37.7969
L10.5938 71.3906
L44.2812 71.3906
L44.2812 63.2812
L18.3125 63.2812
L16.4062 42.8281
Q17.9688 43.1094 20.5312 43.4531
Q23.0938 43.7969 26.6094 43.7969" id="WenQuanYiMicroHei-35"/>
      </defs>
      <g transform="translate(269.578016989 143.863367187)scale(0.09996 -0.09996)">
       <use xlink:href="#WenQuanYiMicroHei-30"/>
       <use x="55.078125" xlink:href="#WenQuanYiMicroHei-2e"/>
       <use x="81.884765625" xlink:href="#WenQuanYiMicroHei-35"/>
      </g>
     </g>
    </g>
    <g id="ytick_9">
     <g id="line2d_53">
      <g>
       <use style="stroke:#000000;stroke-width:0.5;" x="286.235451989" xlink:href="#m728421d6d4" y="124.39175"/>
      </g>
     </g>
     <g id="line2d_54">
      <g>
       <use style="stroke:#000000;stroke-width:0.5;" x="494.871815625" xlink:href="#mcb0005524f" y="124.39175"/>
      </g>
     </g>
     <g id="text_29">
      <!-- 1.0 -->
      <g transform="translate(269.881020739 126.988367188)scale(0.09996 -0.09996)">
       <use xlink:href="#WenQuanYiMicroHei-31"/>
       <use x="55.078125" xlink:href="#WenQuanYiMicroHei-2e"/>
       <use x="81.884765625" xlink:href="#WenQuanYiMicroHei-30"/>
      </g>
     </g>
    </g>
    <g id="ytick_10">
     <g id="line2d_55">
      <g>
       <use style="stroke:#000000;stroke-width:0.5;" x="286.235451989" xlink:href="#m728421d6d4" y="107.51675"/>
      </g>
     </g>
     <g id="line2d_56">
      <g>
       <use style="stroke:#000000;stroke-width:0.5;" x="494.871815625" xlink:href="#mcb0005524f" y="107.51675"/>
      </g>
     </g>
     <g id="text_30">
      <!-- 1.5 -->
      <g transform="translate(269.968485739 110.113367188)scale(0.09996 -0.09996)">
       <use xlink:href="#WenQuanYiMicroHei-31"/>
       <use x="55.078125" xlink:href="#WenQuanYiMicroHei-2e"/>
       <use x="81.884765625" xlink:href="#WenQuanYiMicroHei-35"/>
      </g>
     </g>
    </g>
    <g id="ytick_11">
     <g id="line2d_57">
      <g>
       <use style="stroke:#000000;stroke-width:0.5;" x="286.235451989" xlink:href="#m728421d6d4" y="90.64175"/>
      </g>
     </g>
     <g id="line2d_58">
      <g>
       <use style="stroke:#000000;stroke-width:0.5;" x="494.871815625" xlink:href="#mcb0005524f" y="90.64175"/>
      </g>
     </g>
     <g id="text_31">
      <!-- 2.0 -->
      <g transform="translate(269.481180739 93.2383671875)scale(0.09996 -0.09996)">
       <use xlink:href="#WenQuanYiMicroHei-32"/>
       <use x="55.078125" xlink:href="#WenQuanYiMicroHei-2e"/>
       <use x="81.884765625" xlink:href="#WenQuanYiMicroHei-30"/>
      </g>
     </g>
    </g>
    <g id="ytick_12">
     <g id="line2d_59">
      <g>
       <use style="stroke:#000000;stroke-width:0.5;" x="286.235451989" xlink:href="#m728421d6d4" y="73.76675"/>
      </g>
     </g>
     <g id="line2d_60">
      <g>
       <use style="stroke:#000000;stroke-width:0.5;" x="494.871815625" xlink:href="#mcb0005524f" y="73.76675"/>
      </g>
     </g>
     <g id="text_32">
      <!-- 2.5 -->
      <g transform="translate(269.568645739 76.3633671875)scale(0.09996 -0.09996)">
       <use xlink:href="#WenQuanYiMicroHei-32"/>
       <use x="55.078125" xlink:href="#WenQuanYiMicroHei-2e"/>
       <use x="81.884765625" xlink:href="#WenQuanYiMicroHei-35"/>
      </g>
     </g>
    </g>
    <g id="ytick_13">
     <g id="line2d_61">
      <g>
       <use style="stroke:#000000;stroke-width:0.5;" x="286.235451989" xlink:href="#m728421d6d4" y="56.89175"/>
      </g>
     </g>
     <g id="line2d_62">
      <g>
       <use style="stroke:#000000;stroke-width:0.5;" x="494.871815625" xlink:href="#mcb0005524f" y="56.89175"/>
      </g>
     </g>
     <g id="text_33">
      <!-- 3.0 -->
      <defs>
       <path d="
M46.9219 54.6875
Q46.9219 51.125 45.7969 48.1875
Q44.6719 45.2656 42.6406 43.1094
Q40.625 40.9688 37.7969 39.5781
Q34.9688 38.1875 31.5 37.5938
L31.5 37.3125
Q40.1406 36.2344 44.625 31.8125
Q49.125 27.3906 49.125 20.3125
Q49.125 15.625 47.5312 11.7188
Q45.9531 7.8125 42.7188 4.98438
Q39.5 2.15625 34.5625 0.578125
Q29.6406 -0.984375 22.9062 -0.984375
Q17.5781 -0.984375 12.8594 -0.140625
Q8.15625 0.6875 4 2.875
L4 11.1875
Q8.25 8.9375 13.2031 7.71875
Q18.1719 6.5 22.7031 6.5
Q27.2031 6.5 30.4688 7.46875
Q33.7344 8.45312 35.8594 10.25
Q37.9844 12.0625 38.9844 14.6875
Q39.9844 17.3281 39.9844 20.6094
Q39.9844 23.9219 38.6875 26.2812
Q37.4062 28.6562 35.0156 30.1875
Q32.625 31.7344 29.1719 32.4688
Q25.7344 33.2031 21.3906 33.2031
L14.8906 33.2031
L14.8906 40.5781
L21.3906 40.5781
Q25.3438 40.5781 28.4219 41.5469
Q31.5 42.5312 33.5625 44.3281
Q35.6406 46.1406 36.7188 48.625
Q37.7969 51.125 37.7969 54.1094
Q37.7969 56.6406 36.9062 58.6406
Q36.0312 60.6406 34.4219 62.0312
Q32.8125 63.4219 30.5625 64.1562
Q28.3281 64.8906 25.5938 64.8906
Q20.3594 64.8906 16.375 63.25
Q12.4062 61.625 8.79688 58.9844
L4.29688 65.0938
Q6.15625 66.6094 8.42188 67.9219
Q10.6875 69.2344 13.375 70.2344
Q16.0625 71.2344 19.1094 71.8125
Q22.1719 72.4062 25.5938 72.4062
Q30.8594 72.4062 34.8281 71.0938
Q38.8125 69.7812 41.5 67.4062
Q44.1875 65.0469 45.5469 61.7969
Q46.9219 58.5469 46.9219 54.6875" id="WenQuanYiMicroHei-33"/>
      </defs>
      <g transform="translate(269.412458239 59.4883671875)scale(0.09996 -0.09996)">
       <use xlink:href="#WenQuanYiMicroHei-33"/>
       <use x="55.078125" xlink:href="#WenQuanYiMicroHei-2e"/>
       <use x="81.884765625" xlink:href="#WenQuanYiMicroHei-30"/>
      </g>
     </g>
    </g>
    <g id="ytick_14">
     <g id="line2d_63">
      <g>
       <use style="stroke:#000000;stroke-width:0.5;" x="286.235451989" xlink:href="#m728421d6d4" y="40.01675"/>
      </g>
     </g>
     <g id="line2d_64">
      <g>
       <use style="stroke:#000000;stroke-width:0.5;" x="494.871815625" xlink:href="#mcb0005524f" y="40.01675"/>
      </g>
     </g>
     <g id="text_34">
      <!-- 3.5 -->
      <g transform="translate(269.499923239 42.6133671875)scale(0.09996 -0.09996)">
       <use xlink:href="#WenQuanYiMicroHei-33"/>
       <use x="55.078125" xlink:href="#WenQuanYiMicroHei-2e"/>
       <use x="81.884765625" xlink:href="#WenQuanYiMicroHei-35"/>
      </g>
     </g>
    </g>
    <g id="ytick_15">
     <g id="line2d_65">
      <g>
       <use style="stroke:#000000;stroke-width:0.5;" x="286.235451989" xlink:href="#m728421d6d4" y="23.14175"/>
      </g>
     </g>
     <g id="line2d_66">
      <g>
       <use style="stroke:#000000;stroke-width:0.5;" x="494.871815625" xlink:href="#mcb0005524f" y="23.14175"/>
      </g>
     </g>
     <g id="text_35">
      <!-- 4.0 -->
      <g transform="translate(269.125073239 25.7383671875)scale(0.09996 -0.09996)">
       <use xlink:href="#WenQuanYiMicroHei-34"/>
       <use x="55.078125" xlink:href="#WenQuanYiMicroHei-2e"/>
       <use x="81.884765625" xlink:href="#WenQuanYiMicroHei-30"/>
      </g>
     </g>
    </g>
    <g id="text_36">
     <!-- 概率密度 -->
     <g transform="translate(261.722909489 110.223757813)rotate(-90.0)scale(0.09996 -0.09996)">
      <use xlink:href="#WenQuanYiMicroHei-6982"/>
      <use x="100.0" xlink:href="#WenQuanYiMicroHei-7387"/>
      <use x="200.0" xlink:href="#WenQuanYiMicroHei-5bc6"/>
      <use x="300.0" xlink:href="#WenQuanYiMicroHei-5ea6"/>
     </g>
    </g>
   </g>
   <g id="text_37">
    <!-- k = 2 -->
    <g transform="translate(375.730633807 18.14175)scale(0.144 -0.144)">
     <use xlink:href="#WenQuanYiMicroHei-6b"/>
     <use x="49.609375" xlink:href="#WenQuanYiMicroHei-20"/>
     <use x="75.5859375" xlink:href="#WenQuanYiMicroHei-3d"/>
     <use x="130.6640625" xlink:href="#WenQuanYiMicroHei-20"/>
     <use x="156.640625" xlink:href="#WenQuanYiMicroHei-32"/>
    </g>
   </g>
   <g id="legend_2">
    <g id="patch_13">
     <path d="
M414.919 61.1297
L489.874 61.1297
L489.874 28.1397
L414.919 28.1397
z
" style="fill:#ffffff;stroke:#000000;stroke-linejoin:miter;"/>
    </g>
    <g id="line2d_67">
     <path d="
M421.917 36.2349
L435.911 36.2349" style="fill:none;stroke:#348abd;stroke-linecap:square;stroke-width:2;"/>
    </g>
    <g id="line2d_68"/>
    <g id="text_38">
     <!-- 统计结果 -->
     <g transform="translate(446.906634375 39.733548125)scale(0.09996 -0.09996)">
      <use xlink:href="#WenQuanYiMicroHei-7edf"/>
      <use x="100.0" xlink:href="#WenQuanYiMicroHei-8ba1"/>
      <use x="200.0" xlink:href="#WenQuanYiMicroHei-7ed3"/>
      <use x="300.0" xlink:href="#WenQuanYiMicroHei-679c"/>
     </g>
    </g>
    <g id="line2d_69">
     <path d="
M421.917 51.2305
L435.911 51.2305" style="fill:none;opacity:0.6;stroke:#ff0000;stroke-linecap:square;stroke-width:2;"/>
    </g>
    <g id="line2d_70"/>
    <g id="text_39">
     <!-- 伽玛分布 -->
     <g transform="translate(446.906634375 54.72911)scale(0.09996 -0.09996)">
      <use xlink:href="#WenQuanYiMicroHei-4f3d"/>
      <use x="100.0" xlink:href="#WenQuanYiMicroHei-739b"/>
      <use x="200.0" xlink:href="#WenQuanYiMicroHei-5206"/>
      <use x="300.0" xlink:href="#WenQuanYiMicroHei-5e03"/>
     </g>
    </g>
   </g>
  </g>
 </g>
 <defs>
  <clipPath id="pd2b1e8eafe">
   <rect height="135.0" width="208.636363636" x="35.871815625" y="23.14175"/>
  </clipPath>
  <clipPath id="pf975ef8cd0">
   <rect height="135.0" width="208.636363636" x="286.235451989" y="23.14175"/>
  </clipPath>
 </defs>
</svg>
