<?xml version="1.0" encoding="utf-8" standalone="no"?>
<!DOCTYPE svg PUBLIC "-//W3C//DTD SVG 1.1//EN"
  "http://www.w3.org/Graphics/SVG/1.1/DTD/svg11.dtd">
<!-- Created with matplotlib (http://matplotlib.org/) -->
<svg height="206pt" version="1.1" viewBox="0 0 372 206" width="372pt" xmlns="http://www.w3.org/2000/svg" xmlns:xlink="http://www.w3.org/1999/xlink">
 <defs>
  <style type="text/css">
*{stroke-linecap:butt;stroke-linejoin:round;}
  </style>
 </defs>
 <g id="figure_1">
  <g id="patch_1">
   <path d="
M0 206.196
L372.509 206.196
L372.509 0
L0 0
z
" style="fill:#ffffff;"/>
  </g>
  <g id="axes_1">
   <g id="patch_2">
    <path d="
M23.9543 184.999
L358.754 184.999
L358.754 12.1988
L23.9543 12.1988
z
" style="fill:#ffffff;"/>
   </g>
   <g id="patch_3">
    <path clip-path="url(#pf0b3882f03)" d="
M37.3463 184.999
L37.3463 184.826
L40.0247 184.826
L40.0247 184.999
L53.4167 184.999
L53.4167 184.826
L56.0951 184.826
L56.0951 184.999
L58.7735 184.999
L58.7735 184.826
L61.4519 184.826
L61.4519 184.999
L64.1303 184.999
L64.1303 184.48
L66.8087 184.48
L66.8087 184.653
L69.4871 184.653
L69.4871 184.48
L72.1655 184.48
L72.1655 183.271
L74.8439 183.271
L74.8439 183.789
L77.5223 183.789
L77.5223 182.234
L80.2007 182.234
L80.2007 183.444
L82.8791 183.444
L82.8791 184.999
L85.5575 184.999
L85.5575 182.234
L88.2359 182.234
L88.2359 181.716
L90.9143 181.716
L90.9143 181.024
L93.5927 181.024
L93.5927 178.26
L96.2711 178.26
L96.2711 177.914
L98.9495 177.914
L98.9495 174.458
L101.628 174.458
L101.628 174.285
L104.306 174.285
L104.306 170.138
L106.985 170.138
L106.985 168.237
L109.663 168.237
L109.663 161.498
L112.341 161.498
L112.341 163.053
L115.02 163.053
L115.02 156.487
L117.698 156.487
L117.698 151.13
L120.377 151.13
L120.377 151.303
L123.055 151.303
L123.055 103.61
L125.733 103.61
L125.733 131.949
L131.09 131.949
L131.09 120.717
L133.769 120.717
L133.769 184.999
L136.447 184.999
L136.447 49.0052
L139.125 49.0052
L139.125 184.999
L141.804 184.999
L141.804 26.1956
L144.482 26.1956
L144.482 184.999
L147.161 184.999
L147.161 100.845
L149.839 100.845
L149.839 96.8708
L152.517 96.8708
L152.517 85.8116
L155.196 85.8116
L155.196 79.5908
L157.874 79.5908
L157.874 75.7892
L160.553 75.7892
L160.553 81.3188
L163.231 81.3188
L163.231 79.418
L165.909 79.418
L165.909 82.1828
L168.588 82.1828
L168.588 69.05
L171.266 69.05
L171.266 75.962
L173.945 75.962
L173.945 69.7412
L176.623 69.7412
L176.623 73.37
L179.301 73.37
L179.301 84.2564
L181.98 84.2564
L181.98 77.69
L184.658 77.69
L184.658 89.9588
L187.337 89.9588
L187.337 94.7972
L190.015 94.7972
L190.015 96.0068
L192.693 96.0068
L192.693 16.346
L195.372 16.346
L195.372 184.999
L198.05 184.999
L198.05 26.0228
L200.729 26.0228
L200.729 184.999
L203.407 184.999
L203.407 47.6228
L206.085 47.6228
L206.085 184.999
L208.764 184.999
L208.764 74.9252
L211.442 74.9252
L211.442 184.999
L214.121 184.999
L214.121 95.3156
L216.799 95.3156
L216.799 184.999
L219.477 184.999
L219.477 113.287
L222.156 113.287
L222.156 184.999
L224.834 184.999
L224.834 153.549
L227.513 153.549
L227.513 156.141
L230.191 156.141
L230.191 162.016
L232.869 162.016
L232.869 165.472
L235.548 165.472
L235.548 167.028
L238.226 167.028
L238.226 169.792
L240.905 169.792
L240.905 172.212
L243.583 172.212
L243.583 172.73
L246.261 172.73
L246.261 174.285
L248.94 174.285
L248.94 179.296
L254.297 179.296
L254.297 179.469
L256.975 179.469
L256.975 175.495
L259.653 175.495
L259.653 181.543
L262.332 181.543
L262.332 184.999
L265.01 184.999
L265.01 180.333
L267.689 180.333
L267.689 184.999
L270.367 184.999
L270.367 182.58
L273.045 182.58
L273.045 184.999
L275.724 184.999
L275.724 183.098
L278.402 183.098
L278.402 184.999
L281.081 184.999
L281.081 183.616
L283.759 183.616
L283.759 184.999
L286.437 184.999
L286.437 184.653
L289.116 184.653
L289.116 184.999
L291.794 184.999
L291.794 184.826
L294.473 184.826
L294.473 184.999
L297.151 184.999
L297.151 184.826
L302.508 184.826
L302.508 184.653
L305.186 184.653
L305.186 184.999
L305.186 184.999" style="fill:none;stroke:#348abd;stroke-linejoin:miter;"/>
   </g>
   <g id="line2d_1">
    <path clip-path="url(#pf0b3882f03)" d="
M37.3463 184.958
L40.0517 184.965
L42.7572 184.978
L45.4626 184.987
L48.1681 184.984
L50.8735 184.966
L53.579 184.933
L56.2845 184.888
L58.9899 184.831
L61.6954 184.756
L64.4008 184.66
L67.1063 184.538
L69.8117 184.368
L72.5172 184.118
L75.2226 183.781
L77.9281 183.394
L80.6335 182.99
L83.339 182.534
L86.0445 181.913
L88.7499 181.018
L91.4554 179.8
L94.1608 178.283
L96.8663 176.507
L99.5717 174.456
L102.277 172.054
L104.983 169.256
L107.688 166.134
L110.394 162.8
L113.099 159.292
L115.804 155.633
L118.51 151.87
L121.215 147.9
L123.921 143.455
L126.626 138.393
L129.332 132.896
L132.037 127.336
L134.743 122.019
L137.448 116.994
L140.154 112.082
L142.859 107.141
L145.564 102.113
L148.27 96.8465
L150.975 91.3296
L153.681 86.173
L156.386 82.3469
L159.092 80.2157
L161.797 79.0902
L164.503 77.9208
L167.208 76.3418
L169.914 74.9262
L172.619 74.5506
L175.324 75.7075
L178.03 78.2996
L180.735 81.895
L183.441 86.0471
L186.146 90.2833
L188.852 94.1459
L191.557 97.5182
L194.263 100.67
L196.968 104
L199.674 107.905
L202.379 112.651
L205.084 118.153
L207.79 123.979
L210.495 129.698
L213.201 135.163
L215.906 140.328
L218.612 145.027
L221.317 149.139
L224.023 152.823
L226.728 156.375
L229.434 159.91
L232.139 163.262
L234.844 166.221
L237.55 168.737
L240.255 170.915
L242.961 172.925
L245.666 174.882
L248.372 176.705
L251.077 178.17
L253.783 179.199
L256.488 179.972
L259.194 180.705
L261.899 181.46
L264.604 182.182
L267.31 182.799
L270.015 183.264
L272.721 183.584
L275.426 183.823
L278.132 184.046
L280.837 184.267
L283.543 184.475
L286.248 184.648
L288.954 184.767
L291.659 184.834
L294.364 184.861
L297.07 184.862
L299.775 184.858
L302.481 184.867
L305.186 184.895" style="fill:none;stroke:#a60628;stroke-linecap:square;stroke-width:2.0;"/>
   </g>
   <g id="line2d_2">
    <path clip-path="url(#pf0b3882f03)" d="
M37.3463 184.967
L40.0517 184.954
L42.7572 184.937
L45.4626 184.915
L48.1681 184.885
L50.8735 184.845
L53.579 184.793
L56.2845 184.725
L58.9899 184.637
L61.6954 184.524
L64.4008 184.38
L67.1063 184.197
L69.8117 183.967
L72.5172 183.679
L75.2226 183.322
L77.9281 182.884
L80.6335 182.347
L83.339 181.697
L86.0445 180.915
L88.7499 179.981
L91.4554 178.874
L94.1608 177.572
L96.8663 176.052
L99.5717 174.293
L102.277 172.273
L104.983 169.972
L107.688 167.372
L110.394 164.458
L113.099 161.221
L115.804 157.656
L118.51 153.765
L121.215 149.555
L123.921 145.043
L126.626 140.256
L129.332 135.225
L132.037 129.995
L134.743 124.618
L137.448 119.152
L140.154 113.667
L142.859 108.235
L145.564 102.936
L148.27 97.8508
L150.975 93.0621
L153.681 88.6514
L156.386 84.6965
L159.092 81.2694
L161.797 78.4342
L164.503 76.2452
L167.208 74.7448
L169.914 73.9624
L172.619 73.9136
L175.324 74.5994
L178.03 76.0061
L180.735 78.1061
L183.441 80.8586
L186.146 84.2107
L188.852 88.0998
L191.557 92.4545
L194.263 97.1976
L196.968 102.248
L199.674 107.524
L202.379 112.943
L205.084 118.425
L207.79 123.897
L210.495 129.29
L213.201 134.543
L215.906 139.602
L218.612 144.424
L221.317 148.974
L224.023 153.225
L226.728 157.159
L229.434 160.768
L232.139 164.048
L234.844 167.004
L237.55 169.645
L240.255 171.985
L242.961 174.041
L245.666 175.833
L248.372 177.383
L251.077 178.713
L253.783 179.845
L256.488 180.801
L259.194 181.602
L261.899 182.268
L264.604 182.819
L267.31 183.269
L270.015 183.636
L272.721 183.932
L275.426 184.169
L278.132 184.358
L280.837 184.507
L283.543 184.624
L286.248 184.715
L288.954 184.785
L291.659 184.839
L294.364 184.88
L297.07 184.911
L299.775 184.935
L302.481 184.952
L305.186 184.965" style="fill:none;opacity:0.8;stroke:#7a68a6;stroke-linecap:square;stroke-width:2.0;"/>
   </g>
   <g id="patch_4">
    <path d="
M23.9543 12.1988
L358.754 12.1988" style="fill:none;stroke:#000000;stroke-linecap:square;stroke-linejoin:miter;"/>
   </g>
   <g id="patch_5">
    <path d="
M358.754 184.999
L358.754 12.1988" style="fill:none;stroke:#000000;stroke-linecap:square;stroke-linejoin:miter;"/>
   </g>
   <g id="patch_6">
    <path d="
M23.9543 184.999
L358.754 184.999" style="fill:none;stroke:#000000;stroke-linecap:square;stroke-linejoin:miter;"/>
   </g>
   <g id="patch_7">
    <path d="
M23.9543 184.999
L23.9543 12.1988" style="fill:none;stroke:#000000;stroke-linecap:square;stroke-linejoin:miter;"/>
   </g>
   <g id="matplotlib.axis_1">
    <g id="xtick_1">
     <g id="line2d_3">
      <defs>
       <path d="
M0 0
L0 -4" id="m93b0483c22" style="stroke:#000000;stroke-width:0.5;"/>
      </defs>
      <g>
       <use style="stroke:#000000;stroke-width:0.5;" x="23.95427125" xlink:href="#m93b0483c22" y="184.998780938"/>
      </g>
     </g>
     <g id="line2d_4">
      <defs>
       <path d="
M0 0
L0 4" id="m741efc42ff" style="stroke:#000000;stroke-width:0.5;"/>
      </defs>
      <g>
       <use style="stroke:#000000;stroke-width:0.5;" x="23.95427125" xlink:href="#m741efc42ff" y="12.1987809375"/>
      </g>
     </g>
     <g id="text_1">
      <!-- 1.5 -->
      <defs>
       <path d="
M34.7188 0
L26.125 0
L26.125 44.5781
Q26.125 46.6875 26.1406 49.0781
Q26.1719 51.4688 26.2344 53.8281
Q26.3125 56.2031 26.3906 58.375
Q26.4688 60.5469 26.5156 62.2031
Q25.6875 61.3281 25.0469 60.6875
Q24.4219 60.0625 23.75 59.4688
Q23.0938 58.8906 22.3594 58.2188
Q21.625 57.5625 20.6094 56.6875
L13.375 50.7812
L8.6875 56.7812
L27.3906 71.3906
L34.7188 71.3906
z
" id="WenQuanYiMicroHei-31"/>
       <path d="
M7.17188 5.42188
Q7.17188 7.28125 7.65625 8.5625
Q8.15625 9.85938 8.98438 10.6562
Q9.8125 11.4688 10.9375 11.8281
Q12.0625 12.2031 13.375 12.2031
Q14.6562 12.2031 15.7969 11.8281
Q16.9375 11.4688 17.7656 10.6562
Q18.6094 9.85938 19.0938 8.5625
Q19.5781 7.28125 19.5781 5.42188
Q19.5781 3.60938 19.0938 2.3125
Q18.6094 1.03125 17.7656 0.1875
Q16.9375 -0.640625 15.7969 -1.03125
Q14.6562 -1.42188 13.375 -1.42188
Q12.0625 -1.42188 10.9375 -1.03125
Q9.8125 -0.640625 8.98438 0.1875
Q8.15625 1.03125 7.65625 2.3125
Q7.17188 3.60938 7.17188 5.42188" id="WenQuanYiMicroHei-2e"/>
       <path d="
M26.6094 43.7969
Q31.4531 43.7969 35.625 42.4531
Q39.7969 41.1094 42.8906 38.4688
Q46 35.8438 47.75 31.9375
Q49.5156 28.0312 49.5156 22.9062
Q49.5156 17.3281 47.8438 12.8906
Q46.1875 8.45312 42.9219 5.375
Q39.6562 2.29688 34.8438 0.65625
Q30.0312 -0.984375 23.7812 -0.984375
Q21.2969 -0.984375 18.875 -0.734375
Q16.4531 -0.484375 14.2344 -0.015625
Q12.0156 0.4375 10.0156 1.17188
Q8.01562 1.90625 6.39062 2.875
L6.39062 11.2812
Q8.01562 10.1562 10.1875 9.28125
Q12.3594 8.40625 14.75 7.8125
Q17.1406 7.23438 19.5469 6.90625
Q21.9688 6.59375 24.0312 6.59375
Q27.875 6.59375 30.9062 7.5
Q33.9375 8.40625 36.0312 10.2969
Q38.1406 12.2031 39.25 15.0781
Q40.375 17.9688 40.375 21.9219
Q40.375 28.9062 36.0781 32.5938
Q31.7812 36.2812 23.5781 36.2812
Q22.2656 36.2812 20.7188 36.1562
Q19.1875 36.0312 17.6406 35.8281
Q16.1094 35.6406 14.7188 35.4219
Q13.3281 35.2031 12.3125 35.0156
L7.90625 37.7969
L10.5938 71.3906
L44.2812 71.3906
L44.2812 63.2812
L18.3125 63.2812
L16.4062 42.8281
Q17.9688 43.1094 20.5312 43.4531
Q23.0938 43.7969 26.6094 43.7969" id="WenQuanYiMicroHei-35"/>
      </defs>
      <g transform="translate(17.820788125 196.594179063)scale(0.09996 -0.09996)">
       <use xlink:href="#WenQuanYiMicroHei-31"/>
       <use x="55.078125" xlink:href="#WenQuanYiMicroHei-2e"/>
       <use x="81.884765625" xlink:href="#WenQuanYiMicroHei-35"/>
      </g>
     </g>
    </g>
    <g id="xtick_2">
     <g id="line2d_5">
      <g>
       <use style="stroke:#000000;stroke-width:0.5;" x="90.91427125" xlink:href="#m93b0483c22" y="184.998780938"/>
      </g>
     </g>
     <g id="line2d_6">
      <g>
       <use style="stroke:#000000;stroke-width:0.5;" x="90.91427125" xlink:href="#m741efc42ff" y="12.1987809375"/>
      </g>
     </g>
     <g id="text_2">
      <!-- 2.0 -->
      <defs>
       <path d="
M49.2188 0
L4.6875 0
L4.6875 7.625
L21.7812 26.2188
Q25.4375 30.1719 28.3125 33.4375
Q31.2031 36.7188 33.2188 39.8438
Q35.25 42.9688 36.3281 46.1094
Q37.4062 49.2656 37.4062 52.9844
Q37.4062 55.8594 36.5781 58.0469
Q35.75 60.25 34.2031 61.7812
Q32.6719 63.3281 30.5625 64.1094
Q28.4688 64.8906 25.875 64.8906
Q21.2344 64.8906 17.5 63.0156
Q13.7656 61.1406 10.4062 58.2031
L5.42188 64.0156
Q7.375 65.7656 9.60938 67.2969
Q11.8594 68.8438 14.4531 69.9688
Q17.0469 71.0938 19.9219 71.75
Q22.7969 72.4062 25.9844 72.4062
Q30.6719 72.4062 34.4531 71.0938
Q38.2344 69.7812 40.8594 67.3125
Q43.5 64.8438 44.9375 61.2969
Q46.3906 57.7656 46.3906 53.3281
Q46.3906 49.1719 45.0938 45.4062
Q43.7969 41.6562 41.5312 38.0156
Q39.2656 34.375 36.1094 30.7031
Q32.9531 27.0469 29.2969 23.0938
L15.5781 8.5
L15.5781 8.10938
L49.2188 8.10938
z
" id="WenQuanYiMicroHei-32"/>
       <path d="
M50.3906 35.7969
Q50.3906 27.1562 49.1406 20.3125
Q47.9062 13.4844 45.1406 8.73438
Q42.3906 4 38.0312 1.5
Q33.6875 -0.984375 27.4844 -0.984375
Q21.7344 -0.984375 17.4531 1.5
Q13.1875 4 10.375 8.73438
Q7.5625 13.4844 6.17188 20.3125
Q4.78125 27.1562 4.78125 35.7969
Q4.78125 44.4375 6.03125 51.2656
Q7.28125 58.1094 9.98438 62.8125
Q12.7031 67.5312 17.0156 70.0156
Q21.3438 72.5156 27.4844 72.5156
Q33.2969 72.5156 37.5938 70.0469
Q41.8906 67.5781 44.7188 62.8594
Q47.5625 58.1562 48.9688 51.3125
Q50.3906 44.4844 50.3906 35.7969
M13.8125 35.7969
Q13.8125 28.4688 14.5469 23
Q15.2812 17.5312 16.8906 13.8906
Q18.5 10.25 21.1094 8.42188
Q23.7344 6.59375 27.4844 6.59375
Q31.25 6.59375 33.8906 8.39062
Q36.5312 10.2031 38.2031 13.8125
Q39.8906 17.4375 40.6406 22.9219
Q41.4062 28.4219 41.4062 35.7969
Q41.4062 43.1094 40.6406 48.5781
Q39.8906 54.0469 38.2031 57.6562
Q36.5312 61.2812 33.8906 63.0781
Q31.25 64.8906 27.4844 64.8906
Q23.7344 64.8906 21.1094 63.0781
Q18.5 61.2812 16.8906 57.6562
Q15.2812 54.0469 14.5469 48.5781
Q13.8125 43.1094 13.8125 35.7969" id="WenQuanYiMicroHei-30"/>
      </defs>
      <g transform="translate(84.537135625 196.594179063)scale(0.09996 -0.09996)">
       <use xlink:href="#WenQuanYiMicroHei-32"/>
       <use x="55.078125" xlink:href="#WenQuanYiMicroHei-2e"/>
       <use x="81.884765625" xlink:href="#WenQuanYiMicroHei-30"/>
      </g>
     </g>
    </g>
    <g id="xtick_3">
     <g id="line2d_7">
      <g>
       <use style="stroke:#000000;stroke-width:0.5;" x="157.87427125" xlink:href="#m93b0483c22" y="184.998780938"/>
      </g>
     </g>
     <g id="line2d_8">
      <g>
       <use style="stroke:#000000;stroke-width:0.5;" x="157.87427125" xlink:href="#m741efc42ff" y="12.1987809375"/>
      </g>
     </g>
     <g id="text_3">
      <!-- 2.5 -->
      <g transform="translate(151.540868125 196.594179063)scale(0.09996 -0.09996)">
       <use xlink:href="#WenQuanYiMicroHei-32"/>
       <use x="55.078125" xlink:href="#WenQuanYiMicroHei-2e"/>
       <use x="81.884765625" xlink:href="#WenQuanYiMicroHei-35"/>
      </g>
     </g>
    </g>
    <g id="xtick_4">
     <g id="line2d_9">
      <g>
       <use style="stroke:#000000;stroke-width:0.5;" x="224.83427125" xlink:href="#m93b0483c22" y="184.998780938"/>
      </g>
     </g>
     <g id="line2d_10">
      <g>
       <use style="stroke:#000000;stroke-width:0.5;" x="224.83427125" xlink:href="#m741efc42ff" y="12.1987809375"/>
      </g>
     </g>
     <g id="text_4">
      <!-- 3.0 -->
      <defs>
       <path d="
M46.9219 54.6875
Q46.9219 51.125 45.7969 48.1875
Q44.6719 45.2656 42.6406 43.1094
Q40.625 40.9688 37.7969 39.5781
Q34.9688 38.1875 31.5 37.5938
L31.5 37.3125
Q40.1406 36.2344 44.625 31.8125
Q49.125 27.3906 49.125 20.3125
Q49.125 15.625 47.5312 11.7188
Q45.9531 7.8125 42.7188 4.98438
Q39.5 2.15625 34.5625 0.578125
Q29.6406 -0.984375 22.9062 -0.984375
Q17.5781 -0.984375 12.8594 -0.140625
Q8.15625 0.6875 4 2.875
L4 11.1875
Q8.25 8.9375 13.2031 7.71875
Q18.1719 6.5 22.7031 6.5
Q27.2031 6.5 30.4688 7.46875
Q33.7344 8.45312 35.8594 10.25
Q37.9844 12.0625 38.9844 14.6875
Q39.9844 17.3281 39.9844 20.6094
Q39.9844 23.9219 38.6875 26.2812
Q37.4062 28.6562 35.0156 30.1875
Q32.625 31.7344 29.1719 32.4688
Q25.7344 33.2031 21.3906 33.2031
L14.8906 33.2031
L14.8906 40.5781
L21.3906 40.5781
Q25.3438 40.5781 28.4219 41.5469
Q31.5 42.5312 33.5625 44.3281
Q35.6406 46.1406 36.7188 48.625
Q37.7969 51.125 37.7969 54.1094
Q37.7969 56.6406 36.9062 58.6406
Q36.0312 60.6406 34.4219 62.0312
Q32.8125 63.4219 30.5625 64.1562
Q28.3281 64.8906 25.5938 64.8906
Q20.3594 64.8906 16.375 63.25
Q12.4062 61.625 8.79688 58.9844
L4.29688 65.0938
Q6.15625 66.6094 8.42188 67.9219
Q10.6875 69.2344 13.375 70.2344
Q16.0625 71.2344 19.1094 71.8125
Q22.1719 72.4062 25.5938 72.4062
Q30.8594 72.4062 34.8281 71.0938
Q38.8125 69.7812 41.5 67.4062
Q44.1875 65.0469 45.5469 61.7969
Q46.9219 58.5469 46.9219 54.6875" id="WenQuanYiMicroHei-33"/>
      </defs>
      <g transform="translate(218.422774375 196.594179063)scale(0.09996 -0.09996)">
       <use xlink:href="#WenQuanYiMicroHei-33"/>
       <use x="55.078125" xlink:href="#WenQuanYiMicroHei-2e"/>
       <use x="81.884765625" xlink:href="#WenQuanYiMicroHei-30"/>
      </g>
     </g>
    </g>
    <g id="xtick_5">
     <g id="line2d_11">
      <g>
       <use style="stroke:#000000;stroke-width:0.5;" x="291.79427125" xlink:href="#m93b0483c22" y="184.998780938"/>
      </g>
     </g>
     <g id="line2d_12">
      <g>
       <use style="stroke:#000000;stroke-width:0.5;" x="291.79427125" xlink:href="#m741efc42ff" y="12.1987809375"/>
      </g>
     </g>
     <g id="text_5">
      <!-- 3.5 -->
      <g transform="translate(285.426506875 196.594179063)scale(0.09996 -0.09996)">
       <use xlink:href="#WenQuanYiMicroHei-33"/>
       <use x="55.078125" xlink:href="#WenQuanYiMicroHei-2e"/>
       <use x="81.884765625" xlink:href="#WenQuanYiMicroHei-35"/>
      </g>
     </g>
    </g>
    <g id="xtick_6">
     <g id="line2d_13">
      <g>
       <use style="stroke:#000000;stroke-width:0.5;" x="358.75427125" xlink:href="#m93b0483c22" y="184.998780938"/>
      </g>
     </g>
     <g id="line2d_14">
      <g>
       <use style="stroke:#000000;stroke-width:0.5;" x="358.75427125" xlink:href="#m741efc42ff" y="12.1987809375"/>
      </g>
     </g>
     <g id="text_6">
      <!-- 4.0 -->
      <defs>
       <path d="
M53.0781 16.0156
L42.6719 16.0156
L42.6719 0
L34.0781 0
L34.0781 16.0156
L1.125 16.0156
L1.125 23.7812
L33.5 71.7812
L42.6719 71.7812
L42.6719 24.125
L53.0781 24.125
z

M34.0781 24.125
L34.0781 41.5
Q34.0781 44.2344 34.1562 47.2344
Q34.2344 50.25 34.3281 53.0938
Q34.4219 55.9531 34.5469 58.4375
Q34.6719 60.9375 34.7188 62.5938
L34.2812 62.5938
Q33.9375 61.625 33.4219 60.4219
Q32.9062 59.2344 32.2969 58.0312
Q31.6875 56.8438 31.0469 55.7188
Q30.4219 54.5938 29.8906 53.8125
L9.8125 24.125
z
" id="WenQuanYiMicroHei-34"/>
      </defs>
      <g transform="translate(352.199081875 196.594179063)scale(0.09996 -0.09996)">
       <use xlink:href="#WenQuanYiMicroHei-34"/>
       <use x="55.078125" xlink:href="#WenQuanYiMicroHei-2e"/>
       <use x="81.884765625" xlink:href="#WenQuanYiMicroHei-30"/>
      </g>
     </g>
    </g>
   </g>
   <g id="matplotlib.axis_2">
    <g id="ytick_1">
     <g id="line2d_15">
      <defs>
       <path d="
M0 0
L4 0" id="m728421d6d4" style="stroke:#000000;stroke-width:0.5;"/>
      </defs>
      <g>
       <use style="stroke:#000000;stroke-width:0.5;" x="23.95427125" xlink:href="#m728421d6d4" y="184.998780938"/>
      </g>
     </g>
     <g id="line2d_16">
      <defs>
       <path d="
M0 0
L-4 0" id="mcb0005524f" style="stroke:#000000;stroke-width:0.5;"/>
      </defs>
      <g>
       <use style="stroke:#000000;stroke-width:0.5;" x="358.75427125" xlink:href="#mcb0005524f" y="184.998780938"/>
      </g>
     </g>
     <g id="text_7">
      <!-- 0.0 -->
      <g transform="translate(7.20937125 187.595398125)scale(0.09996 -0.09996)">
       <use xlink:href="#WenQuanYiMicroHei-30"/>
       <use x="55.078125" xlink:href="#WenQuanYiMicroHei-2e"/>
       <use x="81.884765625" xlink:href="#WenQuanYiMicroHei-30"/>
      </g>
     </g>
    </g>
    <g id="ytick_2">
     <g id="line2d_17">
      <g>
       <use style="stroke:#000000;stroke-width:0.5;" x="23.95427125" xlink:href="#m728421d6d4" y="150.438780938"/>
      </g>
     </g>
     <g id="line2d_18">
      <g>
       <use style="stroke:#000000;stroke-width:0.5;" x="358.75427125" xlink:href="#mcb0005524f" y="150.438780938"/>
      </g>
     </g>
     <g id="text_8">
      <!-- 0.5 -->
      <g transform="translate(7.29683625 153.035398125)scale(0.09996 -0.09996)">
       <use xlink:href="#WenQuanYiMicroHei-30"/>
       <use x="55.078125" xlink:href="#WenQuanYiMicroHei-2e"/>
       <use x="81.884765625" xlink:href="#WenQuanYiMicroHei-35"/>
      </g>
     </g>
    </g>
    <g id="ytick_3">
     <g id="line2d_19">
      <g>
       <use style="stroke:#000000;stroke-width:0.5;" x="23.95427125" xlink:href="#m728421d6d4" y="115.878780938"/>
      </g>
     </g>
     <g id="line2d_20">
      <g>
       <use style="stroke:#000000;stroke-width:0.5;" x="358.75427125" xlink:href="#mcb0005524f" y="115.878780938"/>
      </g>
     </g>
     <g id="text_9">
      <!-- 1.0 -->
      <g transform="translate(7.59984 118.475398125)scale(0.09996 -0.09996)">
       <use xlink:href="#WenQuanYiMicroHei-31"/>
       <use x="55.078125" xlink:href="#WenQuanYiMicroHei-2e"/>
       <use x="81.884765625" xlink:href="#WenQuanYiMicroHei-30"/>
      </g>
     </g>
    </g>
    <g id="ytick_4">
     <g id="line2d_21">
      <g>
       <use style="stroke:#000000;stroke-width:0.5;" x="23.95427125" xlink:href="#m728421d6d4" y="81.3187809375"/>
      </g>
     </g>
     <g id="line2d_22">
      <g>
       <use style="stroke:#000000;stroke-width:0.5;" x="358.75427125" xlink:href="#mcb0005524f" y="81.3187809375"/>
      </g>
     </g>
     <g id="text_10">
      <!-- 1.5 -->
      <g transform="translate(7.687305 83.915398125)scale(0.09996 -0.09996)">
       <use xlink:href="#WenQuanYiMicroHei-31"/>
       <use x="55.078125" xlink:href="#WenQuanYiMicroHei-2e"/>
       <use x="81.884765625" xlink:href="#WenQuanYiMicroHei-35"/>
      </g>
     </g>
    </g>
    <g id="ytick_5">
     <g id="line2d_23">
      <g>
       <use style="stroke:#000000;stroke-width:0.5;" x="23.95427125" xlink:href="#m728421d6d4" y="46.7587809375"/>
      </g>
     </g>
     <g id="line2d_24">
      <g>
       <use style="stroke:#000000;stroke-width:0.5;" x="358.75427125" xlink:href="#mcb0005524f" y="46.7587809375"/>
      </g>
     </g>
     <g id="text_11">
      <!-- 2.0 -->
      <g transform="translate(7.2 49.355398125)scale(0.09996 -0.09996)">
       <use xlink:href="#WenQuanYiMicroHei-32"/>
       <use x="55.078125" xlink:href="#WenQuanYiMicroHei-2e"/>
       <use x="81.884765625" xlink:href="#WenQuanYiMicroHei-30"/>
      </g>
     </g>
    </g>
    <g id="ytick_6">
     <g id="line2d_25">
      <g>
       <use style="stroke:#000000;stroke-width:0.5;" x="23.95427125" xlink:href="#m728421d6d4" y="12.1987809375"/>
      </g>
     </g>
     <g id="line2d_26">
      <g>
       <use style="stroke:#000000;stroke-width:0.5;" x="358.75427125" xlink:href="#mcb0005524f" y="12.1987809375"/>
      </g>
     </g>
     <g id="text_12">
      <!-- 2.5 -->
      <g transform="translate(7.287465 14.795398125)scale(0.09996 -0.09996)">
       <use xlink:href="#WenQuanYiMicroHei-32"/>
       <use x="55.078125" xlink:href="#WenQuanYiMicroHei-2e"/>
       <use x="81.884765625" xlink:href="#WenQuanYiMicroHei-35"/>
      </g>
     </g>
    </g>
   </g>
   <g id="legend_1">
    <g id="patch_8">
     <path d="
M258.732 65.1823
L353.756 65.1823
L353.756 17.1968
L258.732 17.1968
z
" style="fill:#ffffff;stroke:#000000;stroke-linejoin:miter;"/>
    </g>
    <g id="line2d_27">
     <path d="
M265.729 25.292
L279.723 25.292" style="fill:none;stroke:#a60628;stroke-linecap:square;stroke-width:2.0;"/>
    </g>
    <g id="line2d_28"/>
    <g id="text_13">
     <!-- 核密度估计 -->
     <defs>
      <path d="
M24.6094 80.8594
L32.4219 78.5156
Q29.2969 69.5312 25.3906 60.5469
L25.3906 -8.98438
L17.5781 -8.98438
L17.5781 45.7031
Q12.8906 38.2812 7.8125 32.0312
L3.90625 39.8438
Q18.3594 59.375 24.6094 80.8594
M31.6406 61.3281
L58.9844 61.3281
L58.9844 80.8594
L66.7969 80.8594
L66.7969 61.3281
L94.5312 61.3281
L94.5312 54.2969
L66.7969 54.2969
L66.7969 34.7656
L88.6719 34.7656
L88.6719 -8.98438
L80.8594 -8.98438
L80.8594 -2.34375
L46.4844 -2.34375
L46.4844 -8.98438
L38.6719 -8.98438
L38.6719 34.7656
L58.9844 34.7656
L58.9844 54.2969
L31.6406 54.2969
z

M46.4844 5.07812
L80.8594 5.07812
L80.8594 27.3438
L46.4844 27.3438
z
" id="WenQuanYiMicroHei-4f30"/>
      <path d="
M53.9062 81.25
Q56.25 77.7344 57.8125 73.0469
L92.5781 73.0469
L92.5781 66.0156
L21.4844 66.0156
L21.4844 35.5469
Q21.4844 10.5469 11.3281 -8.98438
L3.90625 -4.29688
Q9.375 7.03125 11.5156 16.2031
Q13.6719 25.3906 13.6719 38.2812
L13.6719 73.0469
L49.2188 73.0469
Q48.0469 76.1719 46.0938 78.9062
z

M23.4375 55.8594
L38.2812 55.8594
L38.2812 63.2812
L45.7031 63.2812
L45.7031 55.8594
L69.5312 55.8594
L69.5312 63.2812
L76.9531 63.2812
L76.9531 55.8594
L91.7969 55.8594
L91.7969 49.2188
L76.9531 49.2188
L76.9531 33.5938
L38.2812 33.5938
L38.2812 49.2188
L23.4375 49.2188
z

M69.5312 40.2344
L69.5312 49.2188
L45.7031 49.2188
L45.7031 40.2344
z

M27.3438 26.9531
L85.5469 26.9531
L85.5469 21.0938
Q78.9062 11.3281 66.4062 4.29688
Q76.9531 0 95.3125 -0.78125
L92.9688 -8.59375
Q70.7031 -7.8125 57.0312 -0.390625
Q42.5781 -6.25 23.8281 -9.375
L19.1406 -2.34375
Q36.7188 0 48.8281 4.29688
Q39.8438 10.1562 32.4219 20.3125
L27.3438 20.3125
z

M42.1875 20.3125
Q49.6094 12.1094 57.8125 8.20312
Q67.9688 13.2812 74.2188 20.3125
z
" id="WenQuanYiMicroHei-5ea6"/>
      <path d="
M19.9219 80.8594
Q26.5625 73.0469 30.8594 64.4531
L23.4375 60.1562
Q19.5312 68.75 12.8906 76.5625
z

M5.07812 51.9531
L26.1719 51.9531
L26.1719 6.64062
L34.375 15.625
L39.4531 10.9375
Q33.9844 3.51562 24.6094 -3.90625
L18.75 1.17188
L18.75 44.9219
L5.07812 44.9219
z

M32.0312 50.3906
L59.7656 50.3906
L59.7656 80.8594
L67.5781 80.8594
L67.5781 50.3906
L94.9219 50.3906
L94.9219 42.9688
L67.5781 42.9688
L67.5781 -9.76562
L59.7656 -9.76562
L59.7656 42.9688
L32.0312 42.9688
z
" id="WenQuanYiMicroHei-8ba1"/>
      <path d="
M50.7812 81.6406
Q53.5156 77.3438 55.0781 72.2656
L92.5781 72.2656
L92.5781 54.2969
L84.7656 54.2969
L84.7656 65.2344
L15.2344 65.2344
L15.2344 54.2969
L7.42188 54.2969
L7.42188 72.2656
L46.4844 72.2656
Q44.5312 76.1719 42.5781 79.2969
z

M46.0938 22.6562
L54.2969 22.6562
L54.2969 3.51562
L80.4688 3.51562
L80.4688 17.9688
L88.2812 17.9688
L88.2812 -8.59375
L80.4688 -8.59375
L80.4688 -3.90625
L12.1094 -3.90625
L12.1094 17.9688
L19.9219 17.9688
L19.9219 3.51562
L46.0938 3.51562
z

M46.0938 64.0625
Q51.9531 60.9375 58.2031 56.25
L52.3438 50.3906
Q46.875 55.0781 39.8438 59.7656
z

M28.5156 57.8125
L36.3281 57.8125
L36.3281 40.2344
Q57.0312 47.6562 72.2656 62.8906
L78.125 57.4219
Q60.9375 40.625 39.4531 33.2031
Q41.7969 32.4219 45.3125 32.4219
Q62.5 32.4219 65.625 33.7812
Q68.75 35.1562 70.3125 42.1875
L77.7344 40.2344
Q75.7812 30.0781 71.0938 27.3438
Q66.7969 25.3906 45.3125 25.3906
Q35.1562 25.3906 32.8125 26.1719
Q30.4688 26.9531 29.2969 29.6875
Q19.5312 26.5625 8.98438 24.2188
L5.46875 31.25
Q18.3594 33.9844 28.5156 37.5
z

M17.5781 54.2969
L24.2188 50.3906
Q19.1406 40.625 14.0625 35.5469
L7.8125 41.0156
Q13.6719 47.2656 17.5781 54.2969
M82.4219 52.3438
Q89.4531 44.1406 94.1406 34.7656
L86.7188 30.4688
Q82.8125 39.8438 75.7812 48.4375
z
" id="WenQuanYiMicroHei-5bc6"/>
      <path d="
M51.9531 42.5781
Q62.5 43.3594 70.3125 44.9219
Q73.4375 50 76.1719 56.25
L83.9844 53.125
Q71.4844 24.2188 43.3594 12.5
L39.0625 18.75
Q55.4688 26.1719 65.625 38.2812
Q55.0781 36.3281 43.75 35.5469
L42.1875 42.1875
Q50 49.6094 55.8594 60.5469
L41.0156 60.5469
L41.0156 67.9688
L63.6719 67.9688
Q61.7188 73.8281 58.5938 78.5156
L66.7969 81.25
Q70.3125 75 72.2656 67.9688
L94.1406 67.9688
L94.1406 60.5469
L64.8438 60.5469
Q59.7656 50 51.9531 42.5781
M85.1562 40.2344
L92.9688 37.5
Q86.7188 24.2188 77.7344 14.8438
Q87.1094 7.8125 95.3125 -1.5625
L89.4531 -7.8125
Q81.25 1.95312 71.875 9.375
Q59.375 -1.5625 41.7969 -8.98438
L38.2812 -2.34375
Q71.875 12.1094 85.1562 40.2344
M6.64062 62.8906
L19.1406 62.8906
L19.1406 80.8594
L26.5625 80.8594
L26.5625 62.8906
L38.2812 62.8906
L38.2812 55.4688
L26.5625 55.4688
L26.5625 50.7812
Q33.9844 41.7969 39.4531 33.2031
L34.375 25.7812
Q30.4688 33.9844 26.5625 40.2344
L26.5625 -8.98438
L19.1406 -8.98438
L19.1406 33.5938
Q14.8438 20.7031 8.98438 12.1094
L3.51562 17.5781
Q14.8438 34.375 18.3594 55.4688
L6.64062 55.4688
z
" id="WenQuanYiMicroHei-6838"/>
     </defs>
     <g transform="translate(290.71899625 28.7905790625)scale(0.09996 -0.09996)">
      <use xlink:href="#WenQuanYiMicroHei-6838"/>
      <use x="100.0" xlink:href="#WenQuanYiMicroHei-5bc6"/>
      <use x="200.0" xlink:href="#WenQuanYiMicroHei-5ea6"/>
      <use x="300.0" xlink:href="#WenQuanYiMicroHei-4f30"/>
      <use x="400.0" xlink:href="#WenQuanYiMicroHei-8ba1"/>
     </g>
    </g>
    <g id="line2d_29">
     <path d="
M265.729 40.2875
L279.723 40.2875" style="fill:none;opacity:0.8;stroke:#7a68a6;stroke-linecap:square;stroke-width:2.0;"/>
    </g>
    <g id="line2d_30"/>
    <g id="text_14">
     <!-- 正态分布拟合 -->
     <defs>
      <path d="
M9.76562 75.7812
L91.7969 75.7812
L91.7969 68.3594
L56.6406 68.3594
L56.6406 42.1875
L89.0625 42.1875
L89.0625 34.7656
L56.6406 34.7656
L56.6406 1.5625
L94.9219 1.5625
L94.9219 -5.85938
L5.07812 -5.85938
L5.07812 1.5625
L19.9219 1.5625
L19.9219 52.3438
L27.7344 52.3438
L27.7344 1.5625
L48.8281 1.5625
L48.8281 68.3594
L9.76562 68.3594
z
" id="WenQuanYiMicroHei-6b63"/>
      <path d="
M6.64062 67.9688
L35.1562 67.9688
Q38.6719 74.6094 41.4062 81.6406
L49.2188 79.2969
L44.5312 67.9688
L93.75 67.9688
L93.75 60.5469
L41.0156 60.5469
Q37.1094 52.7344 30.8594 42.9688
L51.1719 42.9688
L51.1719 57.8125
L58.9844 57.8125
L58.9844 42.9688
L87.1094 42.9688
L87.1094 10.9375
Q87.1094 6.25 84.375 3.90625
Q81.6406 1.5625 76.5625 1.5625
Q72.2656 1.5625 66.7969 2.73438
L64.8438 10.1562
Q72.2656 8.98438 76.1719 8.98438
Q79.2969 8.98438 79.2969 12.8906
L79.2969 35.5469
L58.9844 35.5469
L58.9844 -8.98438
L51.1719 -8.98438
L51.1719 35.5469
L31.25 35.5469
L31.25 -0.78125
L23.4375 -0.78125
L23.4375 33.2031
Q17.1875 25.3906 9.375 18.75
L4.29688 23.8281
Q19.9219 40.2344 31.25 60.5469
L6.64062 60.5469
z
" id="WenQuanYiMicroHei-5e03"/>
      <path d="
M49.2188 82.0312
L57.4219 79.6875
Q56.25 78.125 54.6875 76.5625
Q74.2188 60.9375 95.7031 52.3438
L91.0156 44.5312
Q70.3125 53.5156 50 71.4844
Q31.6406 54.2969 8.20312 43.75
L3.90625 50.7812
Q35.5469 65.625 49.2188 82.0312
M20.3125 48.4375
L79.2969 48.4375
L79.2969 40.625
L20.3125 40.625
z

M82.8125 30.0781
L82.8125 -8.98438
L75 -8.98438
L75 -2.73438
L24.2188 -2.73438
L24.2188 -8.98438
L16.4062 -8.98438
L16.4062 30.0781
z

M24.2188 4.6875
L75 4.6875
L75 22.6562
L24.2188 22.6562
z
" id="WenQuanYiMicroHei-5408"/>
      <path d="
M64.4531 80.4688
Q78.9062 57.8125 95.3125 46.0938
L90.2344 37.5
Q73.8281 50 58.5938 74.2188
z

M35.9375 80.0781
L41.7969 75.3906
Q28.9062 52.3438 10.9375 36.7188
L5.46875 44.1406
Q22.2656 57.0312 35.9375 80.0781
M21.0938 42.1875
L78.9062 42.1875
Q78.9062 5.85938 76.1719 -1.17188
Q73.4375 -8.20312 64.8438 -8.20312
Q60.1562 -8.20312 53.9062 -7.42188
L52.3438 0.78125
Q58.9844 0 63.6719 0
Q66.7969 0 68.1562 3.90625
Q69.5312 7.8125 70.3125 34.7656
L46.0938 34.7656
Q44.9219 18.3594 37.8906 8.59375
Q30.8594 -1.17188 14.0625 -8.98438
L7.8125 -2.34375
Q23.4375 4.6875 29.6875 12.8906
Q35.9375 21.0938 37.8906 34.7656
L21.0938 34.7656
z
" id="WenQuanYiMicroHei-5206"/>
      <path d="
M5.46875 64.4531
L17.5781 64.4531
L17.5781 80.8594
L25.3906 80.8594
L25.3906 64.4531
L33.2031 64.4531
L33.2031 57.0312
L25.3906 57.0312
L25.3906 37.8906
L34.375 42.1875
L35.9375 35.1562
Q30.8594 32.0312 25.3906 29.2969
L25.3906 1.95312
Q25.3906 -4.29688 23.4375 -6.64062
Q21.4844 -8.98438 15.625 -8.98438
Q10.9375 -8.98438 7.03125 -7.42188
L5.46875 0.390625
Q9.76562 -1.17188 14.4531 -1.17188
Q16.0156 -1.17188 16.7969 -0.1875
Q17.5781 0.78125 17.5781 3.51562
L17.5781 25.7812
L7.8125 21.875
L4.6875 30.0781
L17.5781 34.7656
L17.5781 57.0312
L5.46875 57.0312
z

M57.8125 78.9062
Q65.625 65.2344 70.7031 49.2188
L63.6719 46.0938
Q58.5938 62.5 51.1719 75.7812
z

M77.3438 78.125
L84.7656 78.125
Q84.7656 35.1562 79.2969 21.0938
Q87.8906 10.9375 94.5312 -1.95312
L89.0625 -8.20312
Q83.2031 3.90625 76.1719 12.8906
Q69.5312 0 56.6406 -8.59375
L52.7344 -1.5625
Q66.7969 7.8125 72.6562 25.7812
Q77.3438 39.8438 77.3438 78.125
M39.8438 70.7031
L47.2656 70.7031
L47.2656 12.8906
Q53.125 17.1875 58.5938 22.2656
L61.7188 16.0156
Q54.2969 9.375 44.5312 2.73438
L39.8438 7.8125
z
" id="WenQuanYiMicroHei-62df"/>
      <path d="
M51.1719 26.5625
Q57.0312 19.5312 60.9375 10.9375
L53.5156 7.8125
Q49.6094 16.4062 44.1406 23.0469
z

M83.5938 23.8281
Q91.0156 13.2812 95.7031 0.78125
L87.5 -2.73438
Q83.2031 10.1562 76.1719 20.3125
z

M28.125 23.4375
L35.9375 23.4375
L35.9375 4.6875
Q35.9375 2.34375 37.1094 1.35938
Q38.2812 0.390625 44.9219 0.390625
Q52.3438 0.390625 59.7656 0.78125
Q65.625 0.78125 66.9844 2.92188
Q68.3594 5.07812 69.1406 12.5
L76.9531 8.98438
Q74.6094 -3.51562 70.7031 -5.07812
Q65.2344 -7.03125 44.9219 -7.03125
L41.4062 -7.03125
Q33.2031 -7.03125 30.6562 -4.875
Q28.125 -2.73438 28.125 1.95312
z

M16.0156 22.2656
L22.6562 17.9688
Q16.4062 3.125 9.76562 -5.46875
L3.51562 0
Q11.3281 10.1562 16.0156 22.2656
M11.7188 67.5781
L43.75 67.5781
Q44.9219 73.4375 45.3125 80.8594
L52.7344 80.0781
Q52.7344 73.4375 51.5625 67.5781
L89.8438 67.5781
L89.8438 60.1562
L60.9375 60.1562
Q71.4844 41.4062 93.75 35.5469
L90.625 27.7344
Q64.8438 35.1562 52.7344 60.1562
L49.6094 60.1562
Q41.0156 34.7656 11.3281 28.125
L6.64062 35.1562
Q32.8125 41.0156 41.4062 60.1562
L11.7188 60.1562
z

M46.0938 44.1406
Q54.2969 40.2344 61.3281 35.5469
L55.8594 28.9062
Q48.8281 34.7656 41.0156 39.0625
z
" id="WenQuanYiMicroHei-6001"/>
     </defs>
     <g transform="translate(290.71899625 43.7861409375)scale(0.09996 -0.09996)">
      <use xlink:href="#WenQuanYiMicroHei-6b63"/>
      <use x="100.0" xlink:href="#WenQuanYiMicroHei-6001"/>
      <use x="200.0" xlink:href="#WenQuanYiMicroHei-5206"/>
      <use x="300.0" xlink:href="#WenQuanYiMicroHei-5e03"/>
      <use x="400.0" xlink:href="#WenQuanYiMicroHei-62df"/>
      <use x="500.0" xlink:href="#WenQuanYiMicroHei-5408"/>
     </g>
    </g>
    <g id="patch_9">
     <path d="
M262.73 58.7817
L282.722 58.7817
L282.722 51.7845
L262.73 51.7845
z
" style="fill:none;stroke:#348abd;stroke-linejoin:miter;"/>
    </g>
    <g id="text_15">
     <!-- 直方图统计 -->
     <defs>
      <path d="
M48.0469 81.25
Q53.125 73.4375 55.8594 64.8438
L93.3594 64.8438
L93.3594 57.4219
L39.8438 57.4219
Q39.8438 48.8281 39.4531 41.7969
L83.5938 41.7969
Q83.5938 5.07812 80.4688 -1.95312
Q77.3438 -8.98438 67.9688 -8.98438
Q62.8906 -8.98438 55.4688 -8.20312
L54.2969 -0.390625
Q61.7188 -1.17188 66.7969 -1.17188
Q71.4844 -1.17188 73.2344 3.3125
Q75 7.8125 75.7812 34.375
L38.6719 34.375
Q36.7188 4.29688 11.7188 -8.98438
L7.42188 -1.95312
Q20.3125 4.6875 26.5625 17.9688
Q32.0312 30.0781 32.0312 57.4219
L6.25 57.4219
L6.25 64.8438
L46.4844 64.8438
Q44.1406 72.2656 40.2344 78.5156
z
" id="WenQuanYiMicroHei-65b9"/>
      <path d="
M47.6562 80.8594
L55.8594 80.8594
L54.6875 72.2656
L91.4062 72.2656
L91.4062 64.8438
L53.125 64.8438
L51.5625 55.4688
L78.9062 55.4688
L78.9062 1.17188
L93.3594 1.17188
L93.3594 -6.25
L7.03125 -6.25
L7.03125 1.17188
L20.7031 1.17188
L20.7031 55.4688
L43.3594 55.4688
L44.9219 64.8438
L8.59375 64.8438
L8.59375 72.2656
L46.4844 72.2656
z

M71.0938 41.0156
L71.0938 48.0469
L28.5156 48.0469
L28.5156 41.0156
z

M28.5156 28.125
L71.0938 28.125
L71.0938 34.7656
L28.5156 34.7656
z

M28.5156 14.8438
L71.0938 14.8438
L71.0938 21.875
L28.5156 21.875
z

M28.5156 1.17188
L71.0938 1.17188
L71.0938 8.59375
L28.5156 8.59375
z
" id="WenQuanYiMicroHei-76f4"/>
      <path d="
M37.8906 68.3594
L44.9219 66.7969
L43.3594 63.6719
L68.3594 63.6719
L68.3594 57.4219
Q63.6719 49.2188 57.0312 44.1406
Q67.9688 39.0625 79.6875 36.7188
L75.7812 30.0781
Q63.2812 33.2031 50.3906 39.4531
Q39.0625 33.5938 23.4375 30.8594
L19.5312 37.1094
Q33.5938 39.4531 42.9688 44.1406
Q38.2812 47.2656 34.375 51.1719
Q30.8594 47.2656 26.5625 44.5312
L21.4844 49.2188
Q32.4219 56.6406 37.8906 68.3594
M39.0625 56.25
Q43.75 51.5625 50 47.6562
Q55.8594 51.9531 59.375 57.0312
L39.4531 57.0312
z

M44.1406 33.5938
Q55.0781 30.4688 64.8438 26.5625
L61.7188 19.5312
Q51.1719 24.2188 40.625 26.9531
z

M35.9375 23.0469
Q54.2969 18.3594 66.7969 11.7188
L62.5 5.46875
Q50.3906 11.7188 32.8125 16.7969
z

M91.0156 77.7344
L91.0156 -8.98438
L83.2031 -8.98438
L83.2031 -3.51562
L16.7969 -3.51562
L16.7969 -8.98438
L8.98438 -8.98438
L8.98438 77.7344
z

M16.7969 3.90625
L83.2031 3.90625
L83.2031 70.3125
L16.7969 70.3125
z
" id="WenQuanYiMicroHei-56fe"/>
      <path d="
M33.2031 65.2344
L40.2344 62.5
Q30.4688 41.7969 17.9688 27.7344
Q27.7344 30.0781 35.9375 32.8125
L37.8906 26.5625
Q24.6094 21.4844 8.20312 18.75
L5.85938 25.3906
Q14.4531 33.5938 22.2656 46.0938
Q15.625 44.5312 8.20312 43.75
L6.64062 51.1719
Q15.625 62.1094 21.4844 80.8594
L28.9062 78.5156
Q23.4375 62.1094 15.2344 51.5625
Q21.4844 51.9531 26.5625 52.7344
z

M37.8906 15.2344
L39.4531 8.20312
Q25.3906 3.125 8.20312 -0.78125
L5.07812 7.42188
Q23.4375 10.9375 37.8906 15.2344
M57.8125 62.1094
L42.1875 62.1094
L42.1875 69.1406
L63.6719 69.1406
Q62.1094 74.2188 59.7656 78.5156
L67.5781 80.8594
Q70.3125 75.7812 71.875 69.1406
L93.3594 69.1406
L93.3594 62.1094
L66.4062 62.1094
Q59.375 46.0938 52.3438 39.4531
Q64.8438 40.625 78.9062 43.75
Q75.7812 49.6094 72.2656 55.0781
L78.5156 58.9844
Q87.1094 46.0938 92.5781 31.6406
L85.5469 27.7344
Q83.9844 32.8125 81.6406 37.8906
L75.7812 36.3281
L75.7812 1.95312
Q75.7812 0.390625 76.75 -0.1875
Q77.7344 -0.78125 81.25 -0.78125
Q84.7656 -0.78125 85.5469 0.96875
Q86.3281 2.73438 86.7188 16.4062
L94.9219 14.0625
Q94.5312 1.95312 93.5469 -1.5625
Q92.5781 -5.07812 90.625 -6.4375
Q88.6719 -7.8125 81.25 -7.8125
Q73.0469 -7.8125 70.5 -6.04688
Q67.9688 -4.29688 67.9688 -0.390625
L67.9688 35.1562
Q64.8438 34.375 61.7188 33.9844
Q59.375 3.125 42.9688 -8.98438
L37.8906 -2.34375
Q51.5625 7.42188 54.2969 33.2031
L43.75 32.4219
L41.7969 38.6719
Q51.1719 46.875 57.8125 62.1094" id="WenQuanYiMicroHei-7edf"/>
     </defs>
     <g transform="translate(290.71899625 58.7817028125)scale(0.09996 -0.09996)">
      <use xlink:href="#WenQuanYiMicroHei-76f4"/>
      <use x="100.0" xlink:href="#WenQuanYiMicroHei-65b9"/>
      <use x="200.0" xlink:href="#WenQuanYiMicroHei-56fe"/>
      <use x="300.0" xlink:href="#WenQuanYiMicroHei-7edf"/>
      <use x="400.0" xlink:href="#WenQuanYiMicroHei-8ba1"/>
     </g>
    </g>
   </g>
  </g>
 </g>
 <defs>
  <clipPath id="pf0b3882f03">
   <rect height="172.8" width="334.8" x="23.95427125" y="12.1987809375"/>
  </clipPath>
 </defs>
</svg>
