<?xml version="1.0" encoding="utf-8" standalone="no"?>
<!DOCTYPE svg PUBLIC "-//W3C//DTD SVG 1.1//EN"
  "http://www.w3.org/Graphics/SVG/1.1/DTD/svg11.dtd">
<!-- Created with matplotlib (http://matplotlib.org/) -->
<svg height="321pt" version="1.1" viewBox="0 0 488 321" width="488pt" xmlns="http://www.w3.org/2000/svg" xmlns:xlink="http://www.w3.org/1999/xlink">
 <defs>
  <style type="text/css">
*{stroke-linecap:butt;stroke-linejoin:round;}
  </style>
 </defs>
 <g id="figure_1">
  <g id="patch_1">
   <path d="
M0 321.396
L488.067 321.396
L488.067 0
L0 0
z
" style="fill:#ffffff;"/>
  </g>
  <g id="axes_1">
   <g id="patch_2">
    <path d="
M29.4302 143.108
L475.83 143.108
L475.83 12.1988
L29.4302 12.1988
z
" style="fill:#ffffff;"/>
   </g>
   <g id="line2d_1">
    <defs>
     <path d="
M0 1.5
C0.397805 1.5 0.77937 1.34195 1.06066 1.06066
C1.34195 0.77937 1.5 0.397805 1.5 0
C1.5 -0.397805 1.34195 -0.77937 1.06066 -1.06066
C0.77937 -1.34195 0.397805 -1.5 0 -1.5
C-0.397805 -1.5 -0.77937 -1.34195 -1.06066 -1.06066
C-1.34195 -0.77937 -1.5 -0.397805 -1.5 0
C-1.5 0.397805 -1.34195 0.77937 -1.06066 1.06066
C-0.77937 1.34195 -0.397805 1.5 0 1.5
z
" id="m40abdef5e7" style="stroke:#348abd;stroke-width:0.5;"/>
    </defs>
    <g clip-path="url(#p0e435dbfb8)">
     <use style="fill:#348abd;stroke:#348abd;stroke-width:0.5;" x="29.430205" xlink:href="#m40abdef5e7" y="77.653326392"/>
     <use style="fill:#348abd;stroke:#348abd;stroke-width:0.5;" x="49.0091523684" xlink:href="#m40abdef5e7" y="44.7721599089"/>
     <use style="fill:#348abd;stroke:#348abd;stroke-width:0.5;" x="68.5880997368" xlink:href="#m40abdef5e7" y="20.7910241206"/>
     <use style="fill:#348abd;stroke:#348abd;stroke-width:0.5;" x="88.1670471053" xlink:href="#m40abdef5e7" y="12.2009553084"/>
     <use style="fill:#348abd;stroke:#348abd;stroke-width:0.5;" x="107.745994474" xlink:href="#m40abdef5e7" y="21.3270496985"/>
     <use style="fill:#348abd;stroke:#348abd;stroke-width:0.5;" x="127.324941842" xlink:href="#m40abdef5e7" y="45.6991236299"/>
     <use style="fill:#348abd;stroke:#348abd;stroke-width:0.5;" x="146.903889211" xlink:href="#m40abdef5e7" y="78.7203245793"/>
     <use style="fill:#348abd;stroke:#348abd;stroke-width:0.5;" x="166.482836579" xlink:href="#m40abdef5e7" y="111.452718359"/>
     <use style="fill:#348abd;stroke:#348abd;stroke-width:0.5;" x="186.061783947" xlink:href="#m40abdef5e7" y="135.036542969"/>
     <use style="fill:#348abd;stroke:#348abd;stroke-width:0.5;" x="205.640731316" xlink:href="#m40abdef5e7" y="143.088303375"/>
     <use style="fill:#348abd;stroke:#348abd;stroke-width:0.5;" x="225.219678684" xlink:href="#m40abdef5e7" y="133.428608685"/>
     <use style="fill:#348abd;stroke:#348abd;stroke-width:0.5;" x="244.798626053" xlink:href="#m40abdef5e7" y="108.672073539"/>
     <use style="fill:#348abd;stroke:#348abd;stroke-width:0.5;" x="264.377573421" xlink:href="#m40abdef5e7" y="75.5196135745"/>
     <use style="fill:#348abd;stroke:#348abd;stroke-width:0.5;" x="283.956520789" xlink:href="#m40abdef5e7" y="42.9446911978"/>
     <use style="fill:#348abd;stroke:#348abd;stroke-width:0.5;" x="303.535468158" xlink:href="#m40abdef5e7" y="19.7644452162"/>
     <use style="fill:#348abd;stroke:#348abd;stroke-width:0.5;" x="323.114415526" xlink:href="#m40abdef5e7" y="12.2531329879"/>
     <use style="fill:#348abd;stroke:#348abd;stroke-width:0.5;" x="342.693362895" xlink:href="#m40abdef5e7" y="22.4438608939"/>
     <use style="fill:#348abd;stroke:#348abd;stroke-width:0.5;" x="362.272310263" xlink:href="#m40abdef5e7" y="47.5782781556"/>
     <use style="fill:#348abd;stroke:#348abd;stroke-width:0.5;" x="381.851257632" xlink:href="#m40abdef5e7" y="80.8531868014"/>
     <use style="fill:#348abd;stroke:#348abd;stroke-width:0.5;" x="401.430205" xlink:href="#m40abdef5e7" y="113.261980923"/>
    </g>
   </g>
   <g id="line2d_2">
    <path clip-path="url(#p0e435dbfb8)" d="
M29.4302 77.6533
L33.9393 69.6752
L38.4484 61.8698
L42.9575 54.3267
L47.4666 47.1355
L51.9757 40.3857
L56.4848 34.1669
L60.9938 28.5686
L65.5029 23.6803
L70.012 19.5914
L74.5211 16.3688
L79.0302 14.044
L83.5393 12.6449
L88.0484 12.1995
L92.5575 12.7268
L97.0666 14.2061
L101.576 16.6065
L106.085 19.8967
L110.594 24.0435
L115.103 28.9837
L119.612 34.6332
L124.121 40.9077
L128.63 47.7223
L133.139 54.9824
L137.648 62.5754
L142.157 70.387
L146.667 78.303
L151.176 86.209
L155.685 93.9917
L160.194 101.538
L164.703 108.734
L169.212 115.467
L173.721 121.643
L178.23 127.181
L182.739 131.997
L187.248 136.011
L191.757 139.158
L196.267 141.407
L200.776 142.731
L205.285 143.101
L209.794 142.497
L214.303 140.94
L218.812 138.464
L223.321 135.101
L227.83 130.888
L232.339 125.886
L236.848 120.182
L241.357 113.859
L245.867 107.005
L250.376 99.7143
L254.885 92.0989
L259.394 84.2739
L263.903 76.3541
L268.412 68.4541
L272.921 60.6871
L277.43 53.1658
L281.939 46.0032
L286.448 39.311
L290.957 33.1844
L295.467 27.7044
L299.976 22.951
L304.485 19.0046
L308.994 15.9295
L313.503 13.7562
L318.012 12.5108
L322.521 12.2191
L327.03 12.9006
L331.539 14.5347
L336.048 17.0861
L340.557 20.5197
L345.067 24.7989
L349.576 29.8615
L354.085 35.6212
L358.594 41.9909
L363.103 48.8832
L367.612 56.2035
L372.121 63.8398
L376.63 71.6773
L381.139 79.6016
L385.648 87.498
L390.157 95.252
L394.667 102.749
L399.176 109.874
L403.685 116.514
L408.194 122.552
L412.703 127.875
L417.212 132.369
L421.721 135.917
L426.23 138.407
L430.739 139.723
L435.248 139.751
L439.757 138.376
L444.267 135.483
L448.776 130.959
L453.285 124.688
L457.794 116.556
L462.303 106.448
L466.812 94.2498
L471.321 79.8468
L475.83 63.1243" style="fill:none;stroke:#a60628;stroke-linecap:square;stroke-width:2.0;"/>
   </g>
   <g id="patch_3">
    <path d="
M29.4302 12.1988
L475.83 12.1988" style="fill:none;stroke:#000000;stroke-linecap:square;stroke-linejoin:miter;"/>
   </g>
   <g id="patch_4">
    <path d="
M475.83 143.108
L475.83 12.1988" style="fill:none;stroke:#000000;stroke-linecap:square;stroke-linejoin:miter;"/>
   </g>
   <g id="patch_5">
    <path d="
M29.4302 143.108
L475.83 143.108" style="fill:none;stroke:#000000;stroke-linecap:square;stroke-linejoin:miter;"/>
   </g>
   <g id="patch_6">
    <path d="
M29.4302 143.108
L29.4302 12.1988" style="fill:none;stroke:#000000;stroke-linecap:square;stroke-linejoin:miter;"/>
   </g>
   <g id="matplotlib.axis_1">
    <g id="xtick_1">
     <g id="line2d_3">
      <defs>
       <path d="
M0 0
L0 -4" id="m93b0483c22" style="stroke:#000000;stroke-width:0.5;"/>
      </defs>
      <g>
       <use style="stroke:#000000;stroke-width:0.5;" x="29.430205" xlink:href="#m93b0483c22" y="143.107871847"/>
      </g>
     </g>
     <g id="line2d_4">
      <defs>
       <path d="
M0 0
L0 4" id="m741efc42ff" style="stroke:#000000;stroke-width:0.5;"/>
      </defs>
      <g>
       <use style="stroke:#000000;stroke-width:0.5;" x="29.430205" xlink:href="#m741efc42ff" y="12.1987809375"/>
      </g>
     </g>
     <g id="text_1">
      <!-- 0 -->
      <defs>
       <path d="
M50.3906 35.7969
Q50.3906 27.1562 49.1406 20.3125
Q47.9062 13.4844 45.1406 8.73438
Q42.3906 4 38.0312 1.5
Q33.6875 -0.984375 27.4844 -0.984375
Q21.7344 -0.984375 17.4531 1.5
Q13.1875 4 10.375 8.73438
Q7.5625 13.4844 6.17188 20.3125
Q4.78125 27.1562 4.78125 35.7969
Q4.78125 44.4375 6.03125 51.2656
Q7.28125 58.1094 9.98438 62.8125
Q12.7031 67.5312 17.0156 70.0156
Q21.3438 72.5156 27.4844 72.5156
Q33.2969 72.5156 37.5938 70.0469
Q41.8906 67.5781 44.7188 62.8594
Q47.5625 58.1562 48.9688 51.3125
Q50.3906 44.4844 50.3906 35.7969
M13.8125 35.7969
Q13.8125 28.4688 14.5469 23
Q15.2812 17.5312 16.8906 13.8906
Q18.5 10.25 21.1094 8.42188
Q23.7344 6.59375 27.4844 6.59375
Q31.25 6.59375 33.8906 8.39062
Q36.5312 10.2031 38.2031 13.8125
Q39.8906 17.4375 40.6406 22.9219
Q41.4062 28.4219 41.4062 35.7969
Q41.4062 43.1094 40.6406 48.5781
Q39.8906 54.0469 38.2031 57.6562
Q36.5312 61.2812 33.8906 63.0781
Q31.25 64.8906 27.4844 64.8906
Q23.7344 64.8906 21.1094 63.0781
Q18.5 61.2812 16.8906 57.6562
Q15.2812 54.0469 14.5469 48.5781
Q13.8125 43.1094 13.8125 35.7969" id="WenQuanYiMicroHei-30"/>
      </defs>
      <g transform="translate(27.1506484375 154.703269972)scale(0.09996 -0.09996)">
       <use xlink:href="#WenQuanYiMicroHei-30"/>
      </g>
     </g>
    </g>
    <g id="xtick_2">
     <g id="line2d_5">
      <g>
       <use style="stroke:#000000;stroke-width:0.5;" x="103.830205" xlink:href="#m93b0483c22" y="143.107871847"/>
      </g>
     </g>
     <g id="line2d_6">
      <g>
       <use style="stroke:#000000;stroke-width:0.5;" x="103.830205" xlink:href="#m741efc42ff" y="12.1987809375"/>
      </g>
     </g>
     <g id="text_2">
      <!-- 2 -->
      <defs>
       <path d="
M49.2188 0
L4.6875 0
L4.6875 7.625
L21.7812 26.2188
Q25.4375 30.1719 28.3125 33.4375
Q31.2031 36.7188 33.2188 39.8438
Q35.25 42.9688 36.3281 46.1094
Q37.4062 49.2656 37.4062 52.9844
Q37.4062 55.8594 36.5781 58.0469
Q35.75 60.25 34.2031 61.7812
Q32.6719 63.3281 30.5625 64.1094
Q28.4688 64.8906 25.875 64.8906
Q21.2344 64.8906 17.5 63.0156
Q13.7656 61.1406 10.4062 58.2031
L5.42188 64.0156
Q7.375 65.7656 9.60938 67.2969
Q11.8594 68.8438 14.4531 69.9688
Q17.0469 71.0938 19.9219 71.75
Q22.7969 72.4062 25.9844 72.4062
Q30.6719 72.4062 34.4531 71.0938
Q38.2344 69.7812 40.8594 67.3125
Q43.5 64.8438 44.9375 61.2969
Q46.3906 57.7656 46.3906 53.3281
Q46.3906 49.1719 45.0938 45.4062
Q43.7969 41.6562 41.5312 38.0156
Q39.2656 34.375 36.1094 30.7031
Q32.9531 27.0469 29.2969 23.0938
L15.5781 8.5
L15.5781 8.10938
L49.2188 8.10938
z
" id="WenQuanYiMicroHei-32"/>
      </defs>
      <g transform="translate(101.604533125 154.703269972)scale(0.09996 -0.09996)">
       <use xlink:href="#WenQuanYiMicroHei-32"/>
      </g>
     </g>
    </g>
    <g id="xtick_3">
     <g id="line2d_7">
      <g>
       <use style="stroke:#000000;stroke-width:0.5;" x="178.230205" xlink:href="#m93b0483c22" y="143.107871847"/>
      </g>
     </g>
     <g id="line2d_8">
      <g>
       <use style="stroke:#000000;stroke-width:0.5;" x="178.230205" xlink:href="#m741efc42ff" y="12.1987809375"/>
      </g>
     </g>
     <g id="text_3">
      <!-- 4 -->
      <defs>
       <path d="
M53.0781 16.0156
L42.6719 16.0156
L42.6719 0
L34.0781 0
L34.0781 16.0156
L1.125 16.0156
L1.125 23.7812
L33.5 71.7812
L42.6719 71.7812
L42.6719 24.125
L53.0781 24.125
z

M34.0781 24.125
L34.0781 41.5
Q34.0781 44.2344 34.1562 47.2344
Q34.2344 50.25 34.3281 53.0938
Q34.4219 55.9531 34.5469 58.4375
Q34.6719 60.9375 34.7188 62.5938
L34.2812 62.5938
Q33.9375 61.625 33.4219 60.4219
Q32.9062 59.2344 32.2969 58.0312
Q31.6875 56.8438 31.0469 55.7188
Q30.4219 54.5938 29.8906 53.8125
L9.8125 24.125
z
" id="WenQuanYiMicroHei-34"/>
      </defs>
      <g transform="translate(175.633587813 154.703269972)scale(0.09996 -0.09996)">
       <use xlink:href="#WenQuanYiMicroHei-34"/>
      </g>
     </g>
    </g>
    <g id="xtick_4">
     <g id="line2d_9">
      <g>
       <use style="stroke:#000000;stroke-width:0.5;" x="252.630205" xlink:href="#m93b0483c22" y="143.107871847"/>
      </g>
     </g>
     <g id="line2d_10">
      <g>
       <use style="stroke:#000000;stroke-width:0.5;" x="252.630205" xlink:href="#m741efc42ff" y="12.1987809375"/>
      </g>
     </g>
     <g id="text_4">
      <!-- 6 -->
      <defs>
       <path d="
M5.51562 30.5156
Q5.51562 35.6406 6.03125 40.7188
Q6.54688 45.7969 7.82812 50.4531
Q9.125 55.125 11.375 59.125
Q13.625 63.1406 17.0938 66.0938
Q20.5625 69.0469 25.3906 70.7188
Q30.2188 72.4062 36.7188 72.4062
Q37.6406 72.4062 38.7656 72.3594
Q39.8906 72.3125 41.0312 72.1875
Q42.1875 72.0781 43.2344 71.9062
Q44.2812 71.7344 45.125 71.4844
L45.125 63.9219
Q43.4062 64.5 41.25 64.7969
Q39.1094 65.0938 37.0156 65.0938
Q32.625 65.0938 29.2656 64.0312
Q25.9219 62.9844 23.4844 61.0781
Q21.0469 59.1875 19.4062 56.5469
Q17.7812 53.9062 16.75 50.7031
Q15.7188 47.5156 15.2344 43.8906
Q14.75 40.2812 14.5938 36.375
L15.1875 36.375
Q16.1562 38.1406 17.5469 39.6719
Q18.9531 41.2188 20.7969 42.3125
Q22.6562 43.4062 24.9688 44.0312
Q27.2969 44.6719 30.1719 44.6719
Q34.8125 44.6719 38.5625 43.2344
Q42.3281 41.7969 44.9688 39.0156
Q47.6094 36.2344 49.0469 32.2031
Q50.4844 28.1719 50.4844 23
Q50.4844 17.4375 48.9688 12.9844
Q47.4688 8.54688 44.625 5.4375
Q41.7969 2.34375 37.7969 0.671875
Q33.7969 -0.984375 28.8125 -0.984375
Q23.9219 -0.984375 19.6406 0.921875
Q15.375 2.82812 12.25 6.73438
Q9.125 10.6406 7.3125 16.5469
Q5.51562 22.4688 5.51562 30.5156
M28.7188 6.5
Q31.6406 6.5 34.0469 7.5
Q36.4688 8.5 38.2188 10.5156
Q39.9844 12.5469 40.9375 15.6406
Q41.8906 18.75 41.8906 23
Q41.8906 26.4219 41.0781 29.125
Q40.2812 31.8438 38.6719 33.7344
Q37.0625 35.6406 34.6406 36.6719
Q32.2344 37.7031 29 37.7031
Q25.7344 37.7031 23.0156 36.5469
Q20.3125 35.4062 18.4062 33.5625
Q16.5 31.7344 15.4531 29.3906
Q14.4062 27.0469 14.4062 24.7031
Q14.4062 21.4375 15.3125 18.1875
Q16.2188 14.9375 18 12.3438
Q19.7812 9.76562 22.4531 8.125
Q25.1406 6.5 28.7188 6.5" id="WenQuanYiMicroHei-36"/>
      </defs>
      <g transform="translate(250.382666875 154.703269972)scale(0.09996 -0.09996)">
       <use xlink:href="#WenQuanYiMicroHei-36"/>
      </g>
     </g>
    </g>
    <g id="xtick_5">
     <g id="line2d_11">
      <g>
       <use style="stroke:#000000;stroke-width:0.5;" x="327.030205" xlink:href="#m93b0483c22" y="143.107871847"/>
      </g>
     </g>
     <g id="line2d_12">
      <g>
       <use style="stroke:#000000;stroke-width:0.5;" x="327.030205" xlink:href="#m741efc42ff" y="12.1987809375"/>
      </g>
     </g>
     <g id="text_5">
      <!-- 8 -->
      <defs>
       <path d="
M27.5938 72.5156
Q31.6875 72.5156 35.3281 71.4375
Q38.9688 70.3594 41.7188 68.2031
Q44.4844 66.0625 46.0938 62.8438
Q47.7031 59.625 47.7031 55.3281
Q47.7031 52.0469 46.7188 49.4062
Q45.75 46.7812 44.0312 44.6562
Q42.3281 42.5312 39.9844 40.8438
Q37.6406 39.1562 34.9062 37.7969
Q37.75 36.2812 40.4531 34.4219
Q43.1719 32.5625 45.2812 30.25
Q47.4062 27.9375 48.7031 25.0469
Q50 22.1719 50 18.6094
Q50 14.1094 48.3594 10.4688
Q46.7344 6.84375 43.7812 4.29688
Q40.8281 1.76562 36.6875 0.390625
Q32.5625 -0.984375 27.5938 -0.984375
Q22.2188 -0.984375 18.0469 0.328125
Q13.875 1.65625 11.0156 4.125
Q8.15625 6.59375 6.65625 10.1562
Q5.17188 13.7188 5.17188 18.2188
Q5.17188 21.875 6.26562 24.7969
Q7.375 27.7344 9.21875 30.0781
Q11.0781 32.4219 13.6094 34.2188
Q16.1562 36.0312 19 37.4062
Q16.6094 38.9219 14.5 40.7031
Q12.4062 42.4844 10.8594 44.6719
Q9.32812 46.875 8.42188 49.5312
Q7.51562 52.2031 7.51562 55.4219
Q7.51562 59.6719 9.15625 62.8594
Q10.7969 66.0625 13.5781 68.2031
Q16.3594 70.3594 20 71.4375
Q23.6406 72.5156 27.5938 72.5156
M13.9219 18.1094
Q13.9219 15.5312 14.7031 13.3594
Q15.4844 11.1875 17.1406 9.64062
Q18.7969 8.10938 21.3281 7.25
Q23.875 6.39062 27.3906 6.39062
Q30.8125 6.39062 33.4219 7.25
Q36.0312 8.10938 37.7812 9.6875
Q39.5469 11.2812 40.4219 13.5156
Q41.3125 15.7656 41.3125 18.5
Q41.3125 21.0469 40.3594 23.0938
Q39.4062 25.1406 37.625 26.8906
Q35.8438 28.6562 33.3438 30.2188
Q30.8594 31.7812 27.7812 33.2969
L26.3125 33.9844
Q20.1719 31.0625 17.0469 27.2656
Q13.9219 23.4844 13.9219 18.1094
M27.4844 65.0938
Q22.3125 65.0938 19.2656 62.5
Q16.2188 59.9062 16.2188 54.9844
Q16.2188 52.2031 17.0625 50.1875
Q17.9219 48.1875 19.4375 46.625
Q20.9531 45.0625 23.0781 43.8125
Q25.2031 42.5781 27.6875 41.4062
Q30.0312 42.4844 32.1094 43.75
Q34.1875 45.0156 35.7188 46.625
Q37.25 48.25 38.125 50.2969
Q39.0156 52.3438 39.0156 54.9844
Q39.0156 59.9062 35.9375 62.5
Q32.8594 65.0938 27.4844 65.0938" id="WenQuanYiMicroHei-38"/>
      </defs>
      <g transform="translate(324.789695312 154.703269972)scale(0.09996 -0.09996)">
       <use xlink:href="#WenQuanYiMicroHei-38"/>
      </g>
     </g>
    </g>
    <g id="xtick_6">
     <g id="line2d_13">
      <g>
       <use style="stroke:#000000;stroke-width:0.5;" x="401.430205" xlink:href="#m93b0483c22" y="143.107871847"/>
      </g>
     </g>
     <g id="line2d_14">
      <g>
       <use style="stroke:#000000;stroke-width:0.5;" x="401.430205" xlink:href="#m741efc42ff" y="12.1987809375"/>
      </g>
     </g>
     <g id="text_6">
      <!-- 10 -->
      <defs>
       <path d="
M34.7188 0
L26.125 0
L26.125 44.5781
Q26.125 46.6875 26.1406 49.0781
Q26.1719 51.4688 26.2344 53.8281
Q26.3125 56.2031 26.3906 58.375
Q26.4688 60.5469 26.5156 62.2031
Q25.6875 61.3281 25.0469 60.6875
Q24.4219 60.0625 23.75 59.4688
Q23.0938 58.8906 22.3594 58.2188
Q21.625 57.5625 20.6094 56.6875
L13.375 50.7812
L8.6875 56.7812
L27.3906 71.3906
L34.7188 71.3906
z
" id="WenQuanYiMicroHei-31"/>
      </defs>
      <g transform="translate(396.593078125 154.703269972)scale(0.09996 -0.09996)">
       <use xlink:href="#WenQuanYiMicroHei-31"/>
       <use x="55.078125" xlink:href="#WenQuanYiMicroHei-30"/>
      </g>
     </g>
    </g>
    <g id="xtick_7">
     <g id="line2d_15">
      <g>
       <use style="stroke:#000000;stroke-width:0.5;" x="475.830205" xlink:href="#m93b0483c22" y="143.107871847"/>
      </g>
     </g>
     <g id="line2d_16">
      <g>
       <use style="stroke:#000000;stroke-width:0.5;" x="475.830205" xlink:href="#m741efc42ff" y="12.1987809375"/>
      </g>
     </g>
     <g id="text_7">
      <!-- 12 -->
      <g transform="translate(471.051648437 154.703269972)scale(0.09996 -0.09996)">
       <use xlink:href="#WenQuanYiMicroHei-31"/>
       <use x="55.078125" xlink:href="#WenQuanYiMicroHei-32"/>
      </g>
     </g>
    </g>
   </g>
   <g id="matplotlib.axis_2">
    <g id="ytick_1">
     <g id="line2d_17">
      <defs>
       <path d="
M0 0
L4 0" id="m728421d6d4" style="stroke:#000000;stroke-width:0.5;"/>
      </defs>
      <g>
       <use style="stroke:#000000;stroke-width:0.5;" x="29.430205" xlink:href="#m728421d6d4" y="143.107871847"/>
      </g>
     </g>
     <g id="line2d_18">
      <defs>
       <path d="
M0 0
L-4 0" id="mcb0005524f" style="stroke:#000000;stroke-width:0.5;"/>
      </defs>
      <g>
       <use style="stroke:#000000;stroke-width:0.5;" x="475.830205" xlink:href="#mcb0005524f" y="143.107871847"/>
      </g>
     </g>
     <g id="text_8">
      <!-- −1.0 -->
      <defs>
       <path d="
M4.98438 31.5938
L4.98438 38.9219
L50.0938 38.9219
L50.0938 31.5938
z
" id="WenQuanYiMicroHei-2212"/>
       <path d="
M7.17188 5.42188
Q7.17188 7.28125 7.65625 8.5625
Q8.15625 9.85938 8.98438 10.6562
Q9.8125 11.4688 10.9375 11.8281
Q12.0625 12.2031 13.375 12.2031
Q14.6562 12.2031 15.7969 11.8281
Q16.9375 11.4688 17.7656 10.6562
Q18.6094 9.85938 19.0938 8.5625
Q19.5781 7.28125 19.5781 5.42188
Q19.5781 3.60938 19.0938 2.3125
Q18.6094 1.03125 17.7656 0.1875
Q16.9375 -0.640625 15.7969 -1.03125
Q14.6562 -1.42188 13.375 -1.42188
Q12.0625 -1.42188 10.9375 -1.03125
Q9.8125 -0.640625 8.98438 0.1875
Q8.15625 1.03125 7.65625 2.3125
Q7.17188 3.60938 7.17188 5.42188" id="WenQuanYiMicroHei-2e"/>
      </defs>
      <g transform="translate(7.2 145.704489034)scale(0.09996 -0.09996)">
       <use xlink:href="#WenQuanYiMicroHei-2212"/>
       <use x="55.078125" xlink:href="#WenQuanYiMicroHei-31"/>
       <use x="110.15625" xlink:href="#WenQuanYiMicroHei-2e"/>
       <use x="136.962890625" xlink:href="#WenQuanYiMicroHei-30"/>
      </g>
     </g>
    </g>
    <g id="ytick_2">
     <g id="line2d_19">
      <g>
       <use style="stroke:#000000;stroke-width:0.5;" x="29.430205" xlink:href="#m728421d6d4" y="110.380599119"/>
      </g>
     </g>
     <g id="line2d_20">
      <g>
       <use style="stroke:#000000;stroke-width:0.5;" x="475.830205" xlink:href="#mcb0005524f" y="110.380599119"/>
      </g>
     </g>
     <g id="text_9">
      <!-- −0.5 -->
      <defs>
       <path d="
M26.6094 43.7969
Q31.4531 43.7969 35.625 42.4531
Q39.7969 41.1094 42.8906 38.4688
Q46 35.8438 47.75 31.9375
Q49.5156 28.0312 49.5156 22.9062
Q49.5156 17.3281 47.8438 12.8906
Q46.1875 8.45312 42.9219 5.375
Q39.6562 2.29688 34.8438 0.65625
Q30.0312 -0.984375 23.7812 -0.984375
Q21.2969 -0.984375 18.875 -0.734375
Q16.4531 -0.484375 14.2344 -0.015625
Q12.0156 0.4375 10.0156 1.17188
Q8.01562 1.90625 6.39062 2.875
L6.39062 11.2812
Q8.01562 10.1562 10.1875 9.28125
Q12.3594 8.40625 14.75 7.8125
Q17.1406 7.23438 19.5469 6.90625
Q21.9688 6.59375 24.0312 6.59375
Q27.875 6.59375 30.9062 7.5
Q33.9375 8.40625 36.0312 10.2969
Q38.1406 12.2031 39.25 15.0781
Q40.375 17.9688 40.375 21.9219
Q40.375 28.9062 36.0781 32.5938
Q31.7812 36.2812 23.5781 36.2812
Q22.2656 36.2812 20.7188 36.1562
Q19.1875 36.0312 17.6406 35.8281
Q16.1094 35.6406 14.7188 35.4219
Q13.3281 35.2031 12.3125 35.0156
L7.90625 37.7969
L10.5938 71.3906
L44.2812 71.3906
L44.2812 63.2812
L18.3125 63.2812
L16.4062 42.8281
Q17.9688 43.1094 20.5312 43.4531
Q23.0938 43.7969 26.6094 43.7969" id="WenQuanYiMicroHei-35"/>
      </defs>
      <g transform="translate(7.287465 112.977216307)scale(0.09996 -0.09996)">
       <use xlink:href="#WenQuanYiMicroHei-2212"/>
       <use x="55.078125" xlink:href="#WenQuanYiMicroHei-30"/>
       <use x="110.15625" xlink:href="#WenQuanYiMicroHei-2e"/>
       <use x="136.962890625" xlink:href="#WenQuanYiMicroHei-35"/>
      </g>
     </g>
    </g>
    <g id="ytick_3">
     <g id="line2d_21">
      <g>
       <use style="stroke:#000000;stroke-width:0.5;" x="29.430205" xlink:href="#m728421d6d4" y="77.653326392"/>
      </g>
     </g>
     <g id="line2d_22">
      <g>
       <use style="stroke:#000000;stroke-width:0.5;" x="475.830205" xlink:href="#mcb0005524f" y="77.653326392"/>
      </g>
     </g>
     <g id="text_10">
      <!-- 0.0 -->
      <g transform="translate(12.685305 80.2499435795)scale(0.09996 -0.09996)">
       <use xlink:href="#WenQuanYiMicroHei-30"/>
       <use x="55.078125" xlink:href="#WenQuanYiMicroHei-2e"/>
       <use x="81.884765625" xlink:href="#WenQuanYiMicroHei-30"/>
      </g>
     </g>
    </g>
    <g id="ytick_4">
     <g id="line2d_23">
      <g>
       <use style="stroke:#000000;stroke-width:0.5;" x="29.430205" xlink:href="#m728421d6d4" y="44.9260536648"/>
      </g>
     </g>
     <g id="line2d_24">
      <g>
       <use style="stroke:#000000;stroke-width:0.5;" x="475.830205" xlink:href="#mcb0005524f" y="44.9260536648"/>
      </g>
     </g>
     <g id="text_11">
      <!-- 0.5 -->
      <g transform="translate(12.77277 47.5226708523)scale(0.09996 -0.09996)">
       <use xlink:href="#WenQuanYiMicroHei-30"/>
       <use x="55.078125" xlink:href="#WenQuanYiMicroHei-2e"/>
       <use x="81.884765625" xlink:href="#WenQuanYiMicroHei-35"/>
      </g>
     </g>
    </g>
    <g id="ytick_5">
     <g id="line2d_25">
      <g>
       <use style="stroke:#000000;stroke-width:0.5;" x="29.430205" xlink:href="#m728421d6d4" y="12.1987809375"/>
      </g>
     </g>
     <g id="line2d_26">
      <g>
       <use style="stroke:#000000;stroke-width:0.5;" x="475.830205" xlink:href="#mcb0005524f" y="12.1987809375"/>
      </g>
     </g>
     <g id="text_12">
      <!-- 1.0 -->
      <g transform="translate(13.07577375 14.795398125)scale(0.09996 -0.09996)">
       <use xlink:href="#WenQuanYiMicroHei-31"/>
       <use x="55.078125" xlink:href="#WenQuanYiMicroHei-2e"/>
       <use x="81.884765625" xlink:href="#WenQuanYiMicroHei-30"/>
      </g>
     </g>
    </g>
   </g>
   <g id="legend_1">
    <g id="patch_7">
     <path d="
M388.946 50.674
L470.832 50.674
L470.832 17.1968
L388.946 17.1968
z
" style="fill:#ffffff;stroke:#000000;stroke-linejoin:miter;"/>
    </g>
    <g id="line2d_27"/>
    <g id="line2d_28">
     <g>
      <use style="fill:#348abd;stroke:#348abd;stroke-width:0.5;" x="395.9434225" xlink:href="#m40abdef5e7" y="25.2919790625"/>
      <use style="fill:#348abd;stroke:#348abd;stroke-width:0.5;" x="409.9378225" xlink:href="#m40abdef5e7" y="25.2919790625"/>
     </g>
    </g>
    <g id="text_13">
     <!-- 数据点 -->
     <defs>
      <path d="
M82.8125 16.0156
Q89.8438 6.64062 94.5312 -4.29688
L87.1094 -8.59375
Q83.2031 2.34375 75.7812 11.7188
z

M16.7969 14.8438
L23.8281 10.9375
Q17.9688 -1.5625 12.1094 -8.59375
L5.46875 -2.73438
Q12.5 5.46875 16.7969 14.8438
M60.5469 13.6719
Q66.0156 5.85938 69.9219 -3.51562
L61.7188 -7.03125
Q58.2031 2.73438 53.125 10.5469
z

M38.6719 12.5
Q44.1406 3.51562 46.0938 -5.46875
L37.5 -8.20312
Q35.5469 1.95312 30.4688 10.5469
z

M44.1406 80.8594
L51.9531 80.8594
L51.9531 70.3125
L90.2344 70.3125
L90.2344 62.8906
L51.9531 62.8906
L51.9531 50
L84.375 50
L84.375 18.75
L15.2344 18.75
L15.2344 50
L44.1406 50
z

M23.0469 26.1719
L76.5625 26.1719
L76.5625 42.5781
L23.0469 42.5781
z
" id="WenQuanYiMicroHei-70b9"/>
      <path d="
M5.46875 64.4531
L17.5781 64.4531
L17.5781 80.8594
L25.3906 80.8594
L25.3906 64.4531
L33.2031 64.4531
L33.2031 57.0312
L25.3906 57.0312
L25.3906 37.8906
L34.375 42.1875
L35.9375 35.1562
Q30.8594 32.0312 25.3906 29.2969
L25.3906 1.95312
Q25.3906 -4.29688 23.4375 -6.64062
Q21.4844 -8.98438 15.625 -8.98438
Q10.9375 -8.98438 7.03125 -7.42188
L5.46875 0.390625
Q9.76562 -1.17188 14.4531 -1.17188
Q16.0156 -1.17188 16.7969 -0.1875
Q17.5781 0.78125 17.5781 3.51562
L17.5781 25.7812
L7.8125 21.875
L4.6875 30.0781
L17.5781 34.7656
L17.5781 57.0312
L5.46875 57.0312
z

M66.0156 35.1562
L46.875 35.1562
Q46.0938 10.5469 38.6719 -8.20312
L31.6406 -3.90625
Q39.4531 16.7969 39.4531 40.625
L39.4531 76.9531
L90.625 76.9531
L90.625 53.125
L73.4375 53.125
L73.4375 42.1875
L94.1406 42.1875
L94.1406 35.1562
L73.4375 35.1562
L73.4375 23.8281
L90.2344 23.8281
L90.2344 -8.98438
L82.8125 -8.98438
L82.8125 -3.125
L57.0312 -3.125
L57.0312 -8.98438
L49.6094 -8.98438
L49.6094 23.8281
L66.0156 23.8281
z

M83.2031 69.9219
L46.875 69.9219
L46.875 60.1562
L83.2031 60.1562
z

M46.875 53.125
L46.875 42.1875
L66.0156 42.1875
L66.0156 53.125
z

M57.0312 3.90625
L82.8125 3.90625
L82.8125 16.7969
L57.0312 16.7969
z
" id="WenQuanYiMicroHei-636e"/>
      <path d="
M66.7969 64.4531
L92.9688 64.4531
L92.9688 57.0312
L88.6719 57.0312
Q86.3281 29.6875 77.7344 15.625
Q84.7656 6.25 95.7031 -1.5625
L89.8438 -8.98438
Q80.8594 -1.5625 73.0469 8.59375
Q65.2344 -1.95312 53.9062 -9.375
L48.4375 -2.34375
Q60.1562 4.6875 67.9688 16.0156
Q62.5 25.3906 57.8125 37.1094
L54.6875 30.4688
L48.4375 35.1562
Q58.2031 55.8594 62.5 80.8594
L70.3125 78.5156
Q68.75 71.0938 66.7969 64.4531
M80.8594 57.0312
L64.8438 57.0312
Q64.4531 55.0781 62.1094 48.0469
Q66.7969 33.9844 72.6562 23.8281
Q77.7344 34.7656 80.0781 50.3906
L80.0781 50.7812
z

M7.03125 64.0625
L27.3438 64.0625
L27.3438 80.4688
L34.375 80.4688
L34.375 64.0625
L53.125 64.0625
L53.125 57.4219
L34.375 57.4219
L34.375 39.4531
L27.3438 39.4531
L27.3438 51.5625
Q20.7031 42.1875 11.7188 36.3281
L6.64062 42.5781
Q16.4062 47.6562 23.8281 57.4219
L7.03125 57.4219
z

M16.4062 78.9062
Q19.5312 74.2188 21.4844 68.3594
L15.2344 65.2344
Q13.2812 71.0938 10.5469 76.1719
z

M45.3125 78.9062
L51.1719 76.1719
Q47.6562 69.5312 43.75 66.0156
L38.6719 70.7031
Q42.5781 74.2188 45.3125 78.9062
M42.5781 53.9062
Q46.875 49.2188 49.6094 44.1406
L43.75 40.625
Q41.4062 46.0938 37.1094 50.7812
z

M6.64062 31.25
L21.875 31.25
Q23.4375 34.375 24.6094 37.5
L32.0312 36.7188
L29.6875 31.25
L47.2656 31.25
L47.2656 24.6094
Q42.5781 14.4531 35.9375 7.42188
Q42.5781 3.51562 48.0469 0
L43.3594 -7.03125
Q38.2812 -2.73438 30.0781 1.95312
Q21.875 -5.07812 8.20312 -9.375
L5.85938 -2.73438
Q16.0156 0.390625 23.4375 5.46875
Q17.1875 8.98438 9.76562 12.5
Q14.4531 18.75 17.9688 24.6094
L6.64062 24.6094
z

M26.1719 24.6094
Q23.4375 19.5312 20.3125 15.625
L29.6875 10.9375
Q35.5469 17.1875 39.0625 24.6094
z
" id="WenQuanYiMicroHei-6570"/>
     </defs>
     <g transform="translate(420.9334225 28.7905790625)scale(0.09996 -0.09996)">
      <use xlink:href="#WenQuanYiMicroHei-6570"/>
      <use x="100.0" xlink:href="#WenQuanYiMicroHei-636e"/>
      <use x="200.0" xlink:href="#WenQuanYiMicroHei-70b9"/>
     </g>
    </g>
    <g id="line2d_29">
     <path d="
M395.943 40.7748
L409.938 40.7748" style="fill:none;stroke:#a60628;stroke-linecap:square;stroke-width:2.0;"/>
    </g>
    <g id="line2d_30"/>
    <g id="text_14">
     <!-- spline曲线 -->
     <defs>
      <path d="
M42 0
L42 34.5156
Q42 40.875 39.4219 44.0469
Q36.8594 47.2188 31.3906 47.2188
Q27.4375 47.2188 24.75 45.9375
Q22.0781 44.6719 20.4375 42.1875
Q18.7969 39.7031 18.0938 36.0781
Q17.3906 32.4688 17.3906 27.7812
L17.3906 0
L8.5 0
L8.5 53.6094
L15.7188 53.6094
L17 46.3906
L17.4844 46.3906
Q18.7031 48.4844 20.3906 50.0156
Q22.0781 51.5625 24.0781 52.5781
Q26.0781 53.6094 28.3125 54.0938
Q30.5625 54.5938 32.9062 54.5938
Q41.8438 54.5938 46.3594 49.9219
Q50.875 45.2656 50.875 35.0156
L50.875 0
z
" id="WenQuanYiMicroHei-6e"/>
      <path d="
M17.3906 0
L8.5 0
L8.5 75.9844
L17.3906 75.9844
z
" id="WenQuanYiMicroHei-6c"/>
      <path d="
M33.2031 65.2344
L40.2344 62.5
Q30.4688 41.7969 17.9688 27.7344
Q27.7344 30.0781 35.9375 32.8125
L37.8906 26.5625
Q24.6094 21.4844 8.20312 18.75
L5.85938 25.3906
Q14.4531 33.5938 22.2656 46.0938
Q15.625 44.5312 8.20312 43.75
L6.64062 51.1719
Q15.625 62.1094 21.4844 80.8594
L28.9062 78.5156
Q23.4375 62.1094 15.2344 51.5625
Q21.4844 51.9531 26.5625 52.7344
z

M37.8906 15.2344
L39.4531 8.20312
Q25.3906 3.125 8.20312 -0.78125
L5.07812 7.42188
Q23.4375 10.9375 37.8906 15.2344
M87.8906 63.6719
L88.6719 56.25
L66.0156 52.3438
L66.7969 39.8438
L92.9688 45.3125
L93.75 37.8906
L67.9688 32.4219
Q69.1406 25 71.875 17.5781
Q78.5156 23.8281 83.9844 32.0312
L91.0156 28.5156
Q83.9844 17.1875 75.3906 9.375
Q81.6406 -0.390625 85.1562 -0.390625
Q87.1094 -0.390625 87.8906 12.8906
L95.7031 9.375
Q93.75 -1.95312 91.2031 -5.65625
Q88.6719 -9.375 85.1562 -9.375
Q78.125 -9.375 69.5312 4.6875
Q58.9844 -2.34375 45.7031 -7.03125
L41.4062 0.78125
Q56.25 5.85938 65.625 12.5
Q62.1094 19.9219 60.1562 30.8594
L40.2344 26.5625
L39.0625 33.9844
L59.375 38.2812
Q58.5938 44.1406 58.2031 51.1719
L43.3594 48.8281
L42.1875 56.25
L57.8125 58.5938
Q57.4219 68.75 57.4219 80.8594
L65.2344 80.8594
Q65.2344 69.1406 65.625 60.1562
z

M76.1719 80.4688
Q80.0781 76.1719 84.375 70.3125
L78.5156 65.625
Q75 71.0938 69.9219 76.1719
z
" id="WenQuanYiMicroHei-7ebf"/>
      <path d="
M29.6875 -0.984375
Q24.3125 -0.984375 19.875 0.828125
Q15.4375 2.64062 12.2344 6.10938
Q9.03125 9.57812 7.26562 14.7031
Q5.51562 19.8281 5.51562 26.4219
Q5.51562 33.0625 7.125 38.2812
Q8.73438 43.5 11.6562 47.1406
Q14.5938 50.7812 18.6719 52.6875
Q22.75 54.5938 27.6875 54.5938
Q32.5156 54.5938 36.375 52.8594
Q40.2344 51.125 42.9219 47.9688
Q45.6094 44.8281 47.0469 40.4062
Q48.4844 35.9844 48.4844 30.6094
L48.4844 25.0938
L14.7031 25.0938
Q14.9375 15.6719 18.6719 11.2188
Q22.4062 6.78125 29.7812 6.78125
Q32.2812 6.78125 34.4062 7.03125
Q36.5312 7.28125 38.5 7.73438
Q40.4844 8.20312 42.3281 8.90625
Q44.1875 9.625 46.0938 10.5
L46.0938 2.59375
Q44.1406 1.65625 42.25 0.96875
Q40.375 0.296875 38.3906 -0.140625
Q36.4219 -0.59375 34.2969 -0.78125
Q32.1719 -0.984375 29.6875 -0.984375
M27.4844 47.2188
Q21.9219 47.2188 18.6719 43.4062
Q15.4375 39.5938 14.8906 32.3281
L38.9219 32.3281
Q38.9219 35.6406 38.25 38.3906
Q37.5938 41.1562 36.2031 43.1094
Q34.8125 45.0625 32.6562 46.1406
Q30.5156 47.2188 27.4844 47.2188" id="WenQuanYiMicroHei-65"/>
      <path d="
M40.5781 14.7031
Q40.5781 10.7969 39.1562 7.85938
Q37.75 4.9375 35.0781 2.95312
Q32.4219 0.984375 28.6562 0
Q24.9062 -0.984375 20.2188 -0.984375
Q14.8906 -0.984375 11.0781 -0.125
Q7.28125 0.734375 4.39062 2.39062
L4.39062 10.5
Q5.90625 9.71875 7.76562 8.95312
Q9.625 8.20312 11.6719 7.60938
Q13.7188 7.03125 15.8906 6.65625
Q18.0625 6.29688 20.2188 6.29688
Q23.3906 6.29688 25.6094 6.82812
Q27.8281 7.375 29.2188 8.375
Q30.6094 9.375 31.25 10.8125
Q31.8906 12.25 31.8906 14.0156
Q31.8906 15.5312 31.3906 16.75
Q30.9062 17.9688 29.6094 19.1562
Q28.3281 20.3594 26.0781 21.5781
Q23.8281 22.7969 20.3125 24.3125
Q16.7969 25.8281 13.9844 27.2969
Q11.1875 28.7656 9.23438 30.5625
Q7.28125 32.375 6.21875 34.7344
Q5.17188 37.1094 5.17188 40.375
Q5.17188 43.7969 6.51562 46.4531
Q7.85938 49.125 10.2969 50.9219
Q12.75 52.7344 16.1562 53.6562
Q19.5781 54.5938 23.7812 54.5938
Q28.5156 54.5938 32.4375 53.5625
Q36.375 52.5469 39.8906 50.875
L36.8125 43.7031
Q33.6406 45.125 30.2969 46.1719
Q26.9531 47.2188 23.4844 47.2188
Q18.5 47.2188 16.1094 45.5781
Q13.7188 43.9531 13.7188 40.9219
Q13.7188 39.2031 14.2812 37.9375
Q14.8438 36.6719 16.2031 35.5469
Q17.5781 34.4219 19.875 33.2656
Q22.1719 32.125 25.5938 30.7188
Q29.1094 29.25 31.8594 27.7812
Q34.625 26.3125 36.5781 24.4844
Q38.5312 22.6562 39.5469 20.3125
Q40.5781 17.9688 40.5781 14.7031" id="WenQuanYiMicroHei-73"/>
      <path d="
M32.7188 -0.984375
Q29.8281 -0.984375 27.4844 -0.34375
Q25.1406 0.296875 23.2656 1.34375
Q21.3906 2.39062 19.9375 3.79688
Q18.5 5.21875 17.3906 6.78125
L16.7969 6.78125
Q16.9375 5.125 17.0938 3.60938
Q17.1875 2.34375 17.2812 1
Q17.3906 -0.34375 17.3906 -1.125
L17.3906 -24.0312
L8.5 -24.0312
L8.5 53.6094
L15.7188 53.6094
L17 46.3906
L17.3906 46.3906
Q18.5 48.0938 19.9219 49.5781
Q21.3438 51.0781 23.2188 52.1719
Q25.0938 53.2656 27.4375 53.9219
Q29.7812 54.5938 32.7188 54.5938
Q37.3125 54.5938 41.0625 52.8281
Q44.8281 51.0781 47.4844 47.5781
Q50.1406 44.0938 51.6094 38.9062
Q53.0781 33.7344 53.0781 26.9062
Q53.0781 20.0156 51.6094 14.8125
Q50.1406 9.625 47.4844 6.10938
Q44.8281 2.59375 41.0625 0.796875
Q37.3125 -0.984375 32.7188 -0.984375
M31 47.2188
Q27.2969 47.2188 24.7344 46.0938
Q22.1719 44.9688 20.5781 42.6719
Q19 40.375 18.2344 36.9531
Q17.4844 33.5469 17.3906 28.9062
L17.3906 26.9062
Q17.3906 21.9688 18.0469 18.1406
Q18.7031 14.3125 20.2812 11.6875
Q21.875 9.07812 24.5156 7.73438
Q27.1562 6.39062 31.1094 6.39062
Q37.7031 6.39062 40.7969 11.7188
Q43.8906 17.0469 43.8906 27
Q43.8906 37.1562 40.7969 42.1875
Q37.7031 47.2188 31 47.2188" id="WenQuanYiMicroHei-70"/>
      <path d="
M88.2812 64.4531
L88.2812 -9.375
L80.4688 -9.375
L80.4688 -3.51562
L19.1406 -3.51562
L19.1406 -9.375
L11.3281 -9.375
L11.3281 64.4531
L34.375 64.4531
L34.375 80.8594
L42.1875 80.8594
L42.1875 64.4531
L57.4219 64.4531
L57.4219 80.8594
L65.2344 80.8594
L65.2344 64.4531
z

M19.1406 33.9844
L34.375 33.9844
L34.375 57.0312
L19.1406 57.0312
z

M42.1875 57.0312
L42.1875 33.9844
L57.4219 33.9844
L57.4219 57.0312
z

M65.2344 57.0312
L65.2344 33.9844
L80.4688 33.9844
L80.4688 57.0312
z

M19.1406 3.90625
L34.375 3.90625
L34.375 26.5625
L19.1406 26.5625
z

M42.1875 3.90625
L57.4219 3.90625
L57.4219 26.5625
L42.1875 26.5625
z

M65.2344 3.90625
L80.4688 3.90625
L80.4688 26.5625
L65.2344 26.5625
z
" id="WenQuanYiMicroHei-66f2"/>
      <path d="
M17.3906 0
L8.5 0
L8.5 53.6094
L17.3906 53.6094
z

M7.8125 68.1094
Q7.8125 71.0469 9.29688 72.3594
Q10.7969 73.6875 12.9844 73.6875
Q14.0625 73.6875 15.0156 73.3594
Q15.9688 73.0469 16.6719 72.3594
Q17.3906 71.6875 17.7969 70.625
Q18.2188 69.5781 18.2188 68.1094
Q18.2188 65.2812 16.6719 63.8906
Q15.1406 62.5 12.9844 62.5
Q10.7969 62.5 9.29688 63.8594
Q7.8125 65.2344 7.8125 68.1094" id="WenQuanYiMicroHei-69"/>
     </defs>
     <g transform="translate(420.9334225 44.2734459375)scale(0.09996 -0.09996)">
      <use xlink:href="#WenQuanYiMicroHei-73"/>
      <use x="45.1171875" xlink:href="#WenQuanYiMicroHei-70"/>
      <use x="103.7109375" xlink:href="#WenQuanYiMicroHei-6c"/>
      <use x="129.58984375" xlink:href="#WenQuanYiMicroHei-69"/>
      <use x="155.46875" xlink:href="#WenQuanYiMicroHei-6e"/>
      <use x="214.35546875" xlink:href="#WenQuanYiMicroHei-65"/>
      <use x="267.87109375" xlink:href="#WenQuanYiMicroHei-66f2"/>
      <use x="367.87109375" xlink:href="#WenQuanYiMicroHei-7ebf"/>
     </g>
    </g>
   </g>
  </g>
  <g id="axes_2">
   <g id="patch_8">
    <path d="
M29.4302 300.199
L475.83 300.199
L475.83 169.29
L29.4302 169.29
z
" style="fill:#ffffff;"/>
   </g>
   <g id="line2d_31">
    <g clip-path="url(#pb658296eb8)">
     <use style="fill:#348abd;stroke:#348abd;stroke-width:0.5;" x="29.430205" xlink:href="#m40abdef5e7" y="234.726949822"/>
     <use style="fill:#348abd;stroke:#348abd;stroke-width:0.5;" x="31.6734210804" xlink:href="#m40abdef5e7" y="220.980733147"/>
     <use style="fill:#348abd;stroke:#348abd;stroke-width:0.5;" x="33.9166371608" xlink:href="#m40abdef5e7" y="212.718116003"/>
     <use style="fill:#348abd;stroke:#348abd;stroke-width:0.5;" x="36.1598532412" xlink:href="#m40abdef5e7" y="219.314278504"/>
     <use style="fill:#348abd;stroke:#348abd;stroke-width:0.5;" x="38.4030693216" xlink:href="#m40abdef5e7" y="209.49214216"/>
     <use style="fill:#348abd;stroke:#348abd;stroke-width:0.5;" x="40.646285402" xlink:href="#m40abdef5e7" y="224.858978271"/>
     <use style="fill:#348abd;stroke:#348abd;stroke-width:0.5;" x="42.8895014824" xlink:href="#m40abdef5e7" y="197.673276567"/>
     <use style="fill:#348abd;stroke:#348abd;stroke-width:0.5;" x="45.1327175628" xlink:href="#m40abdef5e7" y="218.694747301"/>
     <use style="fill:#348abd;stroke:#348abd;stroke-width:0.5;" x="47.3759336432" xlink:href="#m40abdef5e7" y="201.37415351"/>
     <use style="fill:#348abd;stroke:#348abd;stroke-width:0.5;" x="49.6191497236" xlink:href="#m40abdef5e7" y="207.432470041"/>
     <use style="fill:#348abd;stroke:#348abd;stroke-width:0.5;" x="51.862365804" xlink:href="#m40abdef5e7" y="198.964145097"/>
     <use style="fill:#348abd;stroke:#348abd;stroke-width:0.5;" x="54.1055818844" xlink:href="#m40abdef5e7" y="197.509965784"/>
     <use style="fill:#348abd;stroke:#348abd;stroke-width:0.5;" x="56.3487979648" xlink:href="#m40abdef5e7" y="180.005871961"/>
     <use style="fill:#348abd;stroke:#348abd;stroke-width:0.5;" x="58.5920140452" xlink:href="#m40abdef5e7" y="201.731466969"/>
     <use style="fill:#348abd;stroke:#348abd;stroke-width:0.5;" x="60.8352301256" xlink:href="#m40abdef5e7" y="202.510137109"/>
     <use style="fill:#348abd;stroke:#348abd;stroke-width:0.5;" x="63.078446206" xlink:href="#m40abdef5e7" y="196.00290947"/>
     <use style="fill:#348abd;stroke:#348abd;stroke-width:0.5;" x="65.3216622864" xlink:href="#m40abdef5e7" y="194.228421116"/>
     <use style="fill:#348abd;stroke:#348abd;stroke-width:0.5;" x="67.5648783668" xlink:href="#m40abdef5e7" y="191.971201571"/>
     <use style="fill:#348abd;stroke:#348abd;stroke-width:0.5;" x="69.8080944472" xlink:href="#m40abdef5e7" y="183.999007616"/>
     <use style="fill:#348abd;stroke:#348abd;stroke-width:0.5;" x="72.0513105276" xlink:href="#m40abdef5e7" y="190.722132202"/>
     <use style="fill:#348abd;stroke:#348abd;stroke-width:0.5;" x="74.294526608" xlink:href="#m40abdef5e7" y="188.150578984"/>
     <use style="fill:#348abd;stroke:#348abd;stroke-width:0.5;" x="76.5377426884" xlink:href="#m40abdef5e7" y="191.170717313"/>
     <use style="fill:#348abd;stroke:#348abd;stroke-width:0.5;" x="78.7809587688" xlink:href="#m40abdef5e7" y="195.03928522"/>
     <use style="fill:#348abd;stroke:#348abd;stroke-width:0.5;" x="81.0241748492" xlink:href="#m40abdef5e7" y="188.574174283"/>
     <use style="fill:#348abd;stroke:#348abd;stroke-width:0.5;" x="83.2673909296" xlink:href="#m40abdef5e7" y="196.95050637"/>
     <use style="fill:#348abd;stroke:#348abd;stroke-width:0.5;" x="85.5106070101" xlink:href="#m40abdef5e7" y="221.679211588"/>
     <use style="fill:#348abd;stroke:#348abd;stroke-width:0.5;" x="87.7538230905" xlink:href="#m40abdef5e7" y="213.557872833"/>
     <use style="fill:#348abd;stroke:#348abd;stroke-width:0.5;" x="89.9970391709" xlink:href="#m40abdef5e7" y="211.555141855"/>
     <use style="fill:#348abd;stroke:#348abd;stroke-width:0.5;" x="92.2402552513" xlink:href="#m40abdef5e7" y="225.202336062"/>
     <use style="fill:#348abd;stroke:#348abd;stroke-width:0.5;" x="94.4834713317" xlink:href="#m40abdef5e7" y="206.683128228"/>
     <use style="fill:#348abd;stroke:#348abd;stroke-width:0.5;" x="96.7266874121" xlink:href="#m40abdef5e7" y="232.232641419"/>
     <use style="fill:#348abd;stroke:#348abd;stroke-width:0.5;" x="98.9699034925" xlink:href="#m40abdef5e7" y="228.761206162"/>
     <use style="fill:#348abd;stroke:#348abd;stroke-width:0.5;" x="101.213119573" xlink:href="#m40abdef5e7" y="222.399301158"/>
     <use style="fill:#348abd;stroke:#348abd;stroke-width:0.5;" x="103.456335653" xlink:href="#m40abdef5e7" y="242.605602905"/>
     <use style="fill:#348abd;stroke:#348abd;stroke-width:0.5;" x="105.699551734" xlink:href="#m40abdef5e7" y="234.318860488"/>
     <use style="fill:#348abd;stroke:#348abd;stroke-width:0.5;" x="107.942767814" xlink:href="#m40abdef5e7" y="256.355520331"/>
     <use style="fill:#348abd;stroke:#348abd;stroke-width:0.5;" x="110.185983894" xlink:href="#m40abdef5e7" y="244.185944339"/>
     <use style="fill:#348abd;stroke:#348abd;stroke-width:0.5;" x="112.429199975" xlink:href="#m40abdef5e7" y="249.624039427"/>
     <use style="fill:#348abd;stroke:#348abd;stroke-width:0.5;" x="114.672416055" xlink:href="#m40abdef5e7" y="253.105416132"/>
     <use style="fill:#348abd;stroke:#348abd;stroke-width:0.5;" x="116.915632136" xlink:href="#m40abdef5e7" y="254.816676229"/>
     <use style="fill:#348abd;stroke:#348abd;stroke-width:0.5;" x="119.158848216" xlink:href="#m40abdef5e7" y="262.943686796"/>
     <use style="fill:#348abd;stroke:#348abd;stroke-width:0.5;" x="121.402064296" xlink:href="#m40abdef5e7" y="276.827622899"/>
     <use style="fill:#348abd;stroke:#348abd;stroke-width:0.5;" x="123.645280377" xlink:href="#m40abdef5e7" y="270.081918506"/>
     <use style="fill:#348abd;stroke:#348abd;stroke-width:0.5;" x="125.888496457" xlink:href="#m40abdef5e7" y="278.405657931"/>
     <use style="fill:#348abd;stroke:#348abd;stroke-width:0.5;" x="128.131712538" xlink:href="#m40abdef5e7" y="264.601350113"/>
     <use style="fill:#348abd;stroke:#348abd;stroke-width:0.5;" x="130.374928618" xlink:href="#m40abdef5e7" y="297.757120123"/>
     <use style="fill:#348abd;stroke:#348abd;stroke-width:0.5;" x="132.618144698" xlink:href="#m40abdef5e7" y="270.734093662"/>
     <use style="fill:#348abd;stroke:#348abd;stroke-width:0.5;" x="134.861360779" xlink:href="#m40abdef5e7" y="278.473114707"/>
     <use style="fill:#348abd;stroke:#348abd;stroke-width:0.5;" x="137.104576859" xlink:href="#m40abdef5e7" y="272.912129443"/>
     <use style="fill:#348abd;stroke:#348abd;stroke-width:0.5;" x="139.34779294" xlink:href="#m40abdef5e7" y="287.043352813"/>
     <use style="fill:#348abd;stroke:#348abd;stroke-width:0.5;" x="141.59100902" xlink:href="#m40abdef5e7" y="284.657511758"/>
     <use style="fill:#348abd;stroke:#348abd;stroke-width:0.5;" x="143.834225101" xlink:href="#m40abdef5e7" y="283.835678627"/>
     <use style="fill:#348abd;stroke:#348abd;stroke-width:0.5;" x="146.077441181" xlink:href="#m40abdef5e7" y="278.225173954"/>
     <use style="fill:#348abd;stroke:#348abd;stroke-width:0.5;" x="148.320657261" xlink:href="#m40abdef5e7" y="279.659974372"/>
     <use style="fill:#348abd;stroke:#348abd;stroke-width:0.5;" x="150.563873342" xlink:href="#m40abdef5e7" y="265.940937643"/>
     <use style="fill:#348abd;stroke:#348abd;stroke-width:0.5;" x="152.807089422" xlink:href="#m40abdef5e7" y="267.7588258"/>
     <use style="fill:#348abd;stroke:#348abd;stroke-width:0.5;" x="155.050305503" xlink:href="#m40abdef5e7" y="274.189873768"/>
     <use style="fill:#348abd;stroke:#348abd;stroke-width:0.5;" x="157.293521583" xlink:href="#m40abdef5e7" y="262.471445966"/>
     <use style="fill:#348abd;stroke:#348abd;stroke-width:0.5;" x="159.536737663" xlink:href="#m40abdef5e7" y="256.240442796"/>
     <use style="fill:#348abd;stroke:#348abd;stroke-width:0.5;" x="161.779953744" xlink:href="#m40abdef5e7" y="232.730940372"/>
     <use style="fill:#348abd;stroke:#348abd;stroke-width:0.5;" x="164.023169824" xlink:href="#m40abdef5e7" y="248.06686188"/>
     <use style="fill:#348abd;stroke:#348abd;stroke-width:0.5;" x="166.266385905" xlink:href="#m40abdef5e7" y="243.205408849"/>
     <use style="fill:#348abd;stroke:#348abd;stroke-width:0.5;" x="168.509601985" xlink:href="#m40abdef5e7" y="238.221727437"/>
     <use style="fill:#348abd;stroke:#348abd;stroke-width:0.5;" x="170.752818065" xlink:href="#m40abdef5e7" y="226.569987148"/>
     <use style="fill:#348abd;stroke:#348abd;stroke-width:0.5;" x="172.996034146" xlink:href="#m40abdef5e7" y="220.963516823"/>
     <use style="fill:#348abd;stroke:#348abd;stroke-width:0.5;" x="175.239250226" xlink:href="#m40abdef5e7" y="226.821292663"/>
     <use style="fill:#348abd;stroke:#348abd;stroke-width:0.5;" x="177.482466307" xlink:href="#m40abdef5e7" y="230.432360919"/>
     <use style="fill:#348abd;stroke:#348abd;stroke-width:0.5;" x="179.725682387" xlink:href="#m40abdef5e7" y="225.552979978"/>
     <use style="fill:#348abd;stroke:#348abd;stroke-width:0.5;" x="181.968898467" xlink:href="#m40abdef5e7" y="219.547030545"/>
     <use style="fill:#348abd;stroke:#348abd;stroke-width:0.5;" x="184.212114548" xlink:href="#m40abdef5e7" y="204.077691388"/>
     <use style="fill:#348abd;stroke:#348abd;stroke-width:0.5;" x="186.455330628" xlink:href="#m40abdef5e7" y="190.691223899"/>
     <use style="fill:#348abd;stroke:#348abd;stroke-width:0.5;" x="188.698546709" xlink:href="#m40abdef5e7" y="201.048147144"/>
     <use style="fill:#348abd;stroke:#348abd;stroke-width:0.5;" x="190.941762789" xlink:href="#m40abdef5e7" y="195.136101351"/>
     <use style="fill:#348abd;stroke:#348abd;stroke-width:0.5;" x="193.184978869" xlink:href="#m40abdef5e7" y="209.241843384"/>
     <use style="fill:#348abd;stroke:#348abd;stroke-width:0.5;" x="195.42819495" xlink:href="#m40abdef5e7" y="197.880790269"/>
     <use style="fill:#348abd;stroke:#348abd;stroke-width:0.5;" x="197.67141103" xlink:href="#m40abdef5e7" y="200.991840163"/>
     <use style="fill:#348abd;stroke:#348abd;stroke-width:0.5;" x="199.914627111" xlink:href="#m40abdef5e7" y="186.022193282"/>
     <use style="fill:#348abd;stroke:#348abd;stroke-width:0.5;" x="202.157843191" xlink:href="#m40abdef5e7" y="201.44488278"/>
     <use style="fill:#348abd;stroke:#348abd;stroke-width:0.5;" x="204.401059271" xlink:href="#m40abdef5e7" y="187.553687073"/>
     <use style="fill:#348abd;stroke:#348abd;stroke-width:0.5;" x="206.644275352" xlink:href="#m40abdef5e7" y="191.38692422"/>
     <use style="fill:#348abd;stroke:#348abd;stroke-width:0.5;" x="208.887491432" xlink:href="#m40abdef5e7" y="189.605589804"/>
     <use style="fill:#348abd;stroke:#348abd;stroke-width:0.5;" x="211.130707513" xlink:href="#m40abdef5e7" y="197.519039449"/>
     <use style="fill:#348abd;stroke:#348abd;stroke-width:0.5;" x="213.373923593" xlink:href="#m40abdef5e7" y="180.761766278"/>
     <use style="fill:#348abd;stroke:#348abd;stroke-width:0.5;" x="215.617139673" xlink:href="#m40abdef5e7" y="189.774374265"/>
     <use style="fill:#348abd;stroke:#348abd;stroke-width:0.5;" x="217.860355754" xlink:href="#m40abdef5e7" y="218.599850765"/>
     <use style="fill:#348abd;stroke:#348abd;stroke-width:0.5;" x="220.103571834" xlink:href="#m40abdef5e7" y="219.602275539"/>
     <use style="fill:#348abd;stroke:#348abd;stroke-width:0.5;" x="222.346787915" xlink:href="#m40abdef5e7" y="199.751223286"/>
     <use style="fill:#348abd;stroke:#348abd;stroke-width:0.5;" x="224.590003995" xlink:href="#m40abdef5e7" y="195.572104279"/>
     <use style="fill:#348abd;stroke:#348abd;stroke-width:0.5;" x="226.833220075" xlink:href="#m40abdef5e7" y="212.292389733"/>
     <use style="fill:#348abd;stroke:#348abd;stroke-width:0.5;" x="229.076436156" xlink:href="#m40abdef5e7" y="216.497721169"/>
     <use style="fill:#348abd;stroke:#348abd;stroke-width:0.5;" x="231.319652236" xlink:href="#m40abdef5e7" y="217.290591122"/>
     <use style="fill:#348abd;stroke:#348abd;stroke-width:0.5;" x="233.562868317" xlink:href="#m40abdef5e7" y="223.640642712"/>
     <use style="fill:#348abd;stroke:#348abd;stroke-width:0.5;" x="235.806084397" xlink:href="#m40abdef5e7" y="223.690458592"/>
     <use style="fill:#348abd;stroke:#348abd;stroke-width:0.5;" x="238.049300477" xlink:href="#m40abdef5e7" y="230.570025959"/>
     <use style="fill:#348abd;stroke:#348abd;stroke-width:0.5;" x="240.292516558" xlink:href="#m40abdef5e7" y="238.355922532"/>
     <use style="fill:#348abd;stroke:#348abd;stroke-width:0.5;" x="242.535732638" xlink:href="#m40abdef5e7" y="239.876205318"/>
     <use style="fill:#348abd;stroke:#348abd;stroke-width:0.5;" x="244.778948719" xlink:href="#m40abdef5e7" y="232.424186185"/>
     <use style="fill:#348abd;stroke:#348abd;stroke-width:0.5;" x="247.022164799" xlink:href="#m40abdef5e7" y="240.292415387"/>
     <use style="fill:#348abd;stroke:#348abd;stroke-width:0.5;" x="249.265380879" xlink:href="#m40abdef5e7" y="253.824254532"/>
     <use style="fill:#348abd;stroke:#348abd;stroke-width:0.5;" x="251.50859696" xlink:href="#m40abdef5e7" y="247.723797548"/>
     <use style="fill:#348abd;stroke:#348abd;stroke-width:0.5;" x="253.75181304" xlink:href="#m40abdef5e7" y="269.962711212"/>
     <use style="fill:#348abd;stroke:#348abd;stroke-width:0.5;" x="255.995029121" xlink:href="#m40abdef5e7" y="271.037033502"/>
     <use style="fill:#348abd;stroke:#348abd;stroke-width:0.5;" x="258.238245201" xlink:href="#m40abdef5e7" y="262.11462944"/>
     <use style="fill:#348abd;stroke:#348abd;stroke-width:0.5;" x="260.481461281" xlink:href="#m40abdef5e7" y="258.201159486"/>
     <use style="fill:#348abd;stroke:#348abd;stroke-width:0.5;" x="262.724677362" xlink:href="#m40abdef5e7" y="271.257553895"/>
     <use style="fill:#348abd;stroke:#348abd;stroke-width:0.5;" x="264.967893442" xlink:href="#m40abdef5e7" y="260.669264284"/>
     <use style="fill:#348abd;stroke:#348abd;stroke-width:0.5;" x="267.211109523" xlink:href="#m40abdef5e7" y="272.611539428"/>
     <use style="fill:#348abd;stroke:#348abd;stroke-width:0.5;" x="269.454325603" xlink:href="#m40abdef5e7" y="286.974344148"/>
     <use style="fill:#348abd;stroke:#348abd;stroke-width:0.5;" x="271.697541683" xlink:href="#m40abdef5e7" y="281.401193698"/>
     <use style="fill:#348abd;stroke:#348abd;stroke-width:0.5;" x="273.940757764" xlink:href="#m40abdef5e7" y="269.061956077"/>
     <use style="fill:#348abd;stroke:#348abd;stroke-width:0.5;" x="276.183973844" xlink:href="#m40abdef5e7" y="274.893730047"/>
     <use style="fill:#348abd;stroke:#348abd;stroke-width:0.5;" x="278.427189925" xlink:href="#m40abdef5e7" y="270.073969632"/>
     <use style="fill:#348abd;stroke:#348abd;stroke-width:0.5;" x="280.670406005" xlink:href="#m40abdef5e7" y="277.355636825"/>
     <use style="fill:#348abd;stroke:#348abd;stroke-width:0.5;" x="282.913622085" xlink:href="#m40abdef5e7" y="276.155203399"/>
     <use style="fill:#348abd;stroke:#348abd;stroke-width:0.5;" x="285.156838166" xlink:href="#m40abdef5e7" y="266.898692577"/>
     <use style="fill:#348abd;stroke:#348abd;stroke-width:0.5;" x="287.400054246" xlink:href="#m40abdef5e7" y="281.754053408"/>
     <use style="fill:#348abd;stroke:#348abd;stroke-width:0.5;" x="289.643270327" xlink:href="#m40abdef5e7" y="269.83787813"/>
     <use style="fill:#348abd;stroke:#348abd;stroke-width:0.5;" x="291.886486407" xlink:href="#m40abdef5e7" y="261.86683446"/>
     <use style="fill:#348abd;stroke:#348abd;stroke-width:0.5;" x="294.129702487" xlink:href="#m40abdef5e7" y="266.804967138"/>
     <use style="fill:#348abd;stroke:#348abd;stroke-width:0.5;" x="296.372918568" xlink:href="#m40abdef5e7" y="248.983210083"/>
     <use style="fill:#348abd;stroke:#348abd;stroke-width:0.5;" x="298.616134648" xlink:href="#m40abdef5e7" y="250.615289033"/>
     <use style="fill:#348abd;stroke:#348abd;stroke-width:0.5;" x="300.859350729" xlink:href="#m40abdef5e7" y="264.019144465"/>
     <use style="fill:#348abd;stroke:#348abd;stroke-width:0.5;" x="303.102566809" xlink:href="#m40abdef5e7" y="231.790993947"/>
     <use style="fill:#348abd;stroke:#348abd;stroke-width:0.5;" x="305.345782889" xlink:href="#m40abdef5e7" y="241.398429676"/>
     <use style="fill:#348abd;stroke:#348abd;stroke-width:0.5;" x="307.58899897" xlink:href="#m40abdef5e7" y="226.173631124"/>
     <use style="fill:#348abd;stroke:#348abd;stroke-width:0.5;" x="309.83221505" xlink:href="#m40abdef5e7" y="219.743373564"/>
     <use style="fill:#348abd;stroke:#348abd;stroke-width:0.5;" x="312.075431131" xlink:href="#m40abdef5e7" y="237.141394982"/>
     <use style="fill:#348abd;stroke:#348abd;stroke-width:0.5;" x="314.318647211" xlink:href="#m40abdef5e7" y="228.311759693"/>
     <use style="fill:#348abd;stroke:#348abd;stroke-width:0.5;" x="316.561863291" xlink:href="#m40abdef5e7" y="227.358848168"/>
     <use style="fill:#348abd;stroke:#348abd;stroke-width:0.5;" x="318.805079372" xlink:href="#m40abdef5e7" y="220.533632859"/>
     <use style="fill:#348abd;stroke:#348abd;stroke-width:0.5;" x="321.048295452" xlink:href="#m40abdef5e7" y="204.40202672"/>
     <use style="fill:#348abd;stroke:#348abd;stroke-width:0.5;" x="323.291511533" xlink:href="#m40abdef5e7" y="209.775707082"/>
     <use style="fill:#348abd;stroke:#348abd;stroke-width:0.5;" x="325.534727613" xlink:href="#m40abdef5e7" y="212.284607566"/>
     <use style="fill:#348abd;stroke:#348abd;stroke-width:0.5;" x="327.777943693" xlink:href="#m40abdef5e7" y="210.405278125"/>
     <use style="fill:#348abd;stroke:#348abd;stroke-width:0.5;" x="330.021159774" xlink:href="#m40abdef5e7" y="204.947731706"/>
     <use style="fill:#348abd;stroke:#348abd;stroke-width:0.5;" x="332.264375854" xlink:href="#m40abdef5e7" y="193.90264728"/>
     <use style="fill:#348abd;stroke:#348abd;stroke-width:0.5;" x="334.507591935" xlink:href="#m40abdef5e7" y="204.8107956"/>
     <use style="fill:#348abd;stroke:#348abd;stroke-width:0.5;" x="336.750808015" xlink:href="#m40abdef5e7" y="193.887164337"/>
     <use style="fill:#348abd;stroke:#348abd;stroke-width:0.5;" x="338.994024095" xlink:href="#m40abdef5e7" y="185.164721544"/>
     <use style="fill:#348abd;stroke:#348abd;stroke-width:0.5;" x="341.237240176" xlink:href="#m40abdef5e7" y="202.415055885"/>
     <use style="fill:#348abd;stroke:#348abd;stroke-width:0.5;" x="343.480456256" xlink:href="#m40abdef5e7" y="180.23679881"/>
     <use style="fill:#348abd;stroke:#348abd;stroke-width:0.5;" x="345.723672337" xlink:href="#m40abdef5e7" y="187.329601187"/>
     <use style="fill:#348abd;stroke:#348abd;stroke-width:0.5;" x="347.966888417" xlink:href="#m40abdef5e7" y="186.525233553"/>
     <use style="fill:#348abd;stroke:#348abd;stroke-width:0.5;" x="350.210104497" xlink:href="#m40abdef5e7" y="203.417795331"/>
     <use style="fill:#348abd;stroke:#348abd;stroke-width:0.5;" x="352.453320578" xlink:href="#m40abdef5e7" y="182.626700956"/>
     <use style="fill:#348abd;stroke:#348abd;stroke-width:0.5;" x="354.696536658" xlink:href="#m40abdef5e7" y="203.064526412"/>
     <use style="fill:#348abd;stroke:#348abd;stroke-width:0.5;" x="356.939752739" xlink:href="#m40abdef5e7" y="202.338919623"/>
     <use style="fill:#348abd;stroke:#348abd;stroke-width:0.5;" x="359.182968819" xlink:href="#m40abdef5e7" y="197.384385626"/>
     <use style="fill:#348abd;stroke:#348abd;stroke-width:0.5;" x="361.426184899" xlink:href="#m40abdef5e7" y="205.65764382"/>
     <use style="fill:#348abd;stroke:#348abd;stroke-width:0.5;" x="363.66940098" xlink:href="#m40abdef5e7" y="199.146098589"/>
     <use style="fill:#348abd;stroke:#348abd;stroke-width:0.5;" x="365.91261706" xlink:href="#m40abdef5e7" y="199.012938793"/>
     <use style="fill:#348abd;stroke:#348abd;stroke-width:0.5;" x="368.155833141" xlink:href="#m40abdef5e7" y="208.07007884"/>
     <use style="fill:#348abd;stroke:#348abd;stroke-width:0.5;" x="370.399049221" xlink:href="#m40abdef5e7" y="209.155728085"/>
     <use style="fill:#348abd;stroke:#348abd;stroke-width:0.5;" x="372.642265302" xlink:href="#m40abdef5e7" y="234.131679336"/>
     <use style="fill:#348abd;stroke:#348abd;stroke-width:0.5;" x="374.885481382" xlink:href="#m40abdef5e7" y="217.192226246"/>
     <use style="fill:#348abd;stroke:#348abd;stroke-width:0.5;" x="377.128697462" xlink:href="#m40abdef5e7" y="232.251059433"/>
     <use style="fill:#348abd;stroke:#348abd;stroke-width:0.5;" x="379.371913543" xlink:href="#m40abdef5e7" y="240.507741312"/>
     <use style="fill:#348abd;stroke:#348abd;stroke-width:0.5;" x="381.615129623" xlink:href="#m40abdef5e7" y="251.288949319"/>
     <use style="fill:#348abd;stroke:#348abd;stroke-width:0.5;" x="383.858345704" xlink:href="#m40abdef5e7" y="234.225409754"/>
     <use style="fill:#348abd;stroke:#348abd;stroke-width:0.5;" x="386.101561784" xlink:href="#m40abdef5e7" y="249.287434807"/>
     <use style="fill:#348abd;stroke:#348abd;stroke-width:0.5;" x="388.344777864" xlink:href="#m40abdef5e7" y="249.853800863"/>
     <use style="fill:#348abd;stroke:#348abd;stroke-width:0.5;" x="390.587993945" xlink:href="#m40abdef5e7" y="266.283733709"/>
     <use style="fill:#348abd;stroke:#348abd;stroke-width:0.5;" x="392.831210025" xlink:href="#m40abdef5e7" y="255.80033734"/>
     <use style="fill:#348abd;stroke:#348abd;stroke-width:0.5;" x="395.074426106" xlink:href="#m40abdef5e7" y="284.374526153"/>
     <use style="fill:#348abd;stroke:#348abd;stroke-width:0.5;" x="397.317642186" xlink:href="#m40abdef5e7" y="272.20301746"/>
     <use style="fill:#348abd;stroke:#348abd;stroke-width:0.5;" x="399.560858266" xlink:href="#m40abdef5e7" y="252.246700147"/>
     <use style="fill:#348abd;stroke:#348abd;stroke-width:0.5;" x="401.804074347" xlink:href="#m40abdef5e7" y="272.09884446"/>
     <use style="fill:#348abd;stroke:#348abd;stroke-width:0.5;" x="404.047290427" xlink:href="#m40abdef5e7" y="292.881372831"/>
     <use style="fill:#348abd;stroke:#348abd;stroke-width:0.5;" x="406.290506508" xlink:href="#m40abdef5e7" y="264.309499909"/>
     <use style="fill:#348abd;stroke:#348abd;stroke-width:0.5;" x="408.533722588" xlink:href="#m40abdef5e7" y="272.032570424"/>
     <use style="fill:#348abd;stroke:#348abd;stroke-width:0.5;" x="410.776938668" xlink:href="#m40abdef5e7" y="284.254023006"/>
     <use style="fill:#348abd;stroke:#348abd;stroke-width:0.5;" x="413.020154749" xlink:href="#m40abdef5e7" y="278.662690072"/>
     <use style="fill:#348abd;stroke:#348abd;stroke-width:0.5;" x="415.263370829" xlink:href="#m40abdef5e7" y="268.282223251"/>
     <use style="fill:#348abd;stroke:#348abd;stroke-width:0.5;" x="417.50658691" xlink:href="#m40abdef5e7" y="277.507602303"/>
     <use style="fill:#348abd;stroke:#348abd;stroke-width:0.5;" x="419.74980299" xlink:href="#m40abdef5e7" y="274.895152639"/>
     <use style="fill:#348abd;stroke:#348abd;stroke-width:0.5;" x="421.99301907" xlink:href="#m40abdef5e7" y="262.154962042"/>
     <use style="fill:#348abd;stroke:#348abd;stroke-width:0.5;" x="424.236235151" xlink:href="#m40abdef5e7" y="260.81466512"/>
     <use style="fill:#348abd;stroke:#348abd;stroke-width:0.5;" x="426.479451231" xlink:href="#m40abdef5e7" y="279.634465252"/>
     <use style="fill:#348abd;stroke:#348abd;stroke-width:0.5;" x="428.722667312" xlink:href="#m40abdef5e7" y="264.902879938"/>
     <use style="fill:#348abd;stroke:#348abd;stroke-width:0.5;" x="430.965883392" xlink:href="#m40abdef5e7" y="266.134965411"/>
     <use style="fill:#348abd;stroke:#348abd;stroke-width:0.5;" x="433.209099472" xlink:href="#m40abdef5e7" y="281.180943418"/>
     <use style="fill:#348abd;stroke:#348abd;stroke-width:0.5;" x="435.452315553" xlink:href="#m40abdef5e7" y="261.67864609"/>
     <use style="fill:#348abd;stroke:#348abd;stroke-width:0.5;" x="437.695531633" xlink:href="#m40abdef5e7" y="254.49930509"/>
     <use style="fill:#348abd;stroke:#348abd;stroke-width:0.5;" x="439.938747714" xlink:href="#m40abdef5e7" y="260.951677952"/>
     <use style="fill:#348abd;stroke:#348abd;stroke-width:0.5;" x="442.181963794" xlink:href="#m40abdef5e7" y="260.011162729"/>
     <use style="fill:#348abd;stroke:#348abd;stroke-width:0.5;" x="444.425179874" xlink:href="#m40abdef5e7" y="235.625329081"/>
     <use style="fill:#348abd;stroke:#348abd;stroke-width:0.5;" x="446.668395955" xlink:href="#m40abdef5e7" y="228.158170322"/>
     <use style="fill:#348abd;stroke:#348abd;stroke-width:0.5;" x="448.911612035" xlink:href="#m40abdef5e7" y="234.838140812"/>
     <use style="fill:#348abd;stroke:#348abd;stroke-width:0.5;" x="451.154828116" xlink:href="#m40abdef5e7" y="231.859949217"/>
     <use style="fill:#348abd;stroke:#348abd;stroke-width:0.5;" x="453.398044196" xlink:href="#m40abdef5e7" y="216.804297655"/>
     <use style="fill:#348abd;stroke:#348abd;stroke-width:0.5;" x="455.641260276" xlink:href="#m40abdef5e7" y="228.48781597"/>
     <use style="fill:#348abd;stroke:#348abd;stroke-width:0.5;" x="457.884476357" xlink:href="#m40abdef5e7" y="219.492598943"/>
     <use style="fill:#348abd;stroke:#348abd;stroke-width:0.5;" x="460.127692437" xlink:href="#m40abdef5e7" y="221.145365635"/>
     <use style="fill:#348abd;stroke:#348abd;stroke-width:0.5;" x="462.370908518" xlink:href="#m40abdef5e7" y="198.587948996"/>
     <use style="fill:#348abd;stroke:#348abd;stroke-width:0.5;" x="464.614124598" xlink:href="#m40abdef5e7" y="218.822519679"/>
     <use style="fill:#348abd;stroke:#348abd;stroke-width:0.5;" x="466.857340678" xlink:href="#m40abdef5e7" y="209.966072256"/>
     <use style="fill:#348abd;stroke:#348abd;stroke-width:0.5;" x="469.100556759" xlink:href="#m40abdef5e7" y="205.894565774"/>
     <use style="fill:#348abd;stroke:#348abd;stroke-width:0.5;" x="471.343772839" xlink:href="#m40abdef5e7" y="198.48956823"/>
     <use style="fill:#348abd;stroke:#348abd;stroke-width:0.5;" x="473.58698892" xlink:href="#m40abdef5e7" y="204.038837714"/>
     <use style="fill:#348abd;stroke:#348abd;stroke-width:0.5;" x="475.830205" xlink:href="#m40abdef5e7" y="205.064274766"/>
    </g>
   </g>
   <g id="line2d_32">
    <path clip-path="url(#pb658296eb8)" d="
M29.4302 231.604
L32.3333 225.407
L35.2363 219.746
L37.916 214.996
L40.5958 210.7
L43.0522 207.163
L45.5086 204.007
L47.9651 201.232
L50.1982 199.039
L52.4313 197.161
L54.4411 195.74
L56.4509 194.572
L58.4607 193.658
L60.4705 192.997
L62.4803 192.59
L64.2668 192.44
L66.0533 192.49
L67.8398 192.739
L69.8496 193.258
L71.8594 194.029
L73.8692 195.052
L75.879 196.326
L77.8888 197.851
L80.122 199.84
L82.3551 202.138
L84.5882 204.746
L87.0446 207.969
L89.7244 211.874
L92.8507 216.863
L96.4237 223.013
L101.113 231.572
L113.619 254.676
L117.192 260.705
L120.318 265.553
L122.998 269.311
L125.454 272.379
L127.687 274.812
L129.697 276.681
L131.484 278.065
L133.27 279.169
L134.833 279.891
L136.396 280.371
L137.96 280.598
L139.3 280.581
L140.639 280.36
L141.979 279.929
L143.319 279.285
L144.882 278.275
L146.446 277.003
L148.232 275.245
L150.018 273.185
L152.028 270.534
L154.261 267.213
L156.718 263.153
L159.621 257.883
L162.971 251.286
L166.99 242.838
L173.913 227.647
L179.049 216.604
L182.399 209.879
L185.302 204.533
L187.758 200.458
L189.991 197.179
L192.001 194.622
L193.788 192.699
L195.351 191.311
L196.914 190.217
L198.254 189.529
L199.594 189.075
L200.934 188.846
L202.273 188.833
L203.613 189.028
L205.176 189.505
L206.74 190.239
L208.303 191.213
L210.089 192.605
L211.876 194.273
L213.886 196.452
L216.119 199.215
L218.575 202.621
L221.255 206.711
L224.381 211.885
L228.401 218.997
L235.547 232.213
L240.906 241.917
L244.479 247.968
L247.606 252.832
L250.285 256.591
L252.742 259.638
L254.975 262.032
L256.985 263.868
L258.995 265.41
L261.004 266.669
L263.014 267.654
L265.024 268.373
L267.034 268.837
L269.044 269.055
L271.053 269.036
L273.063 268.789
L275.073 268.323
L277.306 267.561
L279.539 266.554
L281.772 265.314
L284.229 263.697
L286.909 261.65
L289.588 259.329
L292.491 256.531
L295.618 253.219
L299.191 249.1
L303.21 244.101
L307.677 238.182
L313.483 230.086
L323.308 216.333
L327.551 210.814
L330.901 206.8
L333.804 203.637
L336.484 201.026
L338.94 198.932
L341.173 197.305
L343.183 196.088
L345.193 195.122
L346.979 194.49
L348.766 194.085
L350.552 193.918
L352.116 193.979
L353.679 194.24
L355.242 194.712
L356.805 195.401
L358.368 196.317
L359.931 197.469
L361.718 199.084
L363.504 201.03
L365.291 203.319
L367.077 205.963
L369.087 209.334
L371.32 213.504
L374 218.987
L377.35 226.376
L383.379 240.351
L388.069 250.967
L391.195 257.514
L393.652 262.191
L395.885 265.987
L397.894 268.991
L399.904 271.605
L401.914 273.833
L403.701 275.493
L405.487 276.854
L407.274 277.918
L408.837 278.608
L410.4 279.076
L411.963 279.322
L413.526 279.349
L415.089 279.159
L416.653 278.753
L418.216 278.133
L420.002 277.165
L421.789 275.924
L423.575 274.413
L425.585 272.412
L427.818 269.847
L430.275 266.656
L432.954 262.792
L436.081 257.867
L439.877 251.432
L445.237 241.847
L453.499 227.071
L457.295 220.749
L460.422 215.955
L463.101 212.229
L465.558 209.187
L467.791 206.775
L469.801 204.926
L471.587 203.563
L473.374 202.483
L474.937 201.787
L475.83 201.499
L475.83 201.499" style="fill:none;stroke:#a60628;stroke-linecap:square;stroke-width:2;"/>
   </g>
   <g id="line2d_33">
    <path clip-path="url(#pb658296eb8)" d="
M29.4302 234.744
L36.1599 221.786
L40.6463 213.728
L42.8895 209.997
L45.1327 206.516
L47.3759 203.319
L49.6191 200.44
L51.8624 197.907
L54.1056 195.746
L56.3488 193.979
L58.592 192.623
L60.8352 191.692
L63.0784 191.195
L65.3217 191.138
L67.5649 191.521
L69.8081 192.34
L72.0513 193.588
L74.2945 195.25
L76.5377 197.311
L78.781 199.75
L81.0242 202.543
L83.2674 205.66
L85.5106 209.07
L87.7538 212.74
L92.2403 220.707
L96.7267 229.238
L105.7 246.614
L110.186 254.759
L112.429 258.548
L114.672 262.098
L116.916 265.371
L119.159 268.335
L121.402 270.96
L123.645 273.22
L125.888 275.091
L128.132 276.555
L130.375 277.597
L132.618 278.207
L134.861 278.378
L137.105 278.109
L139.348 277.402
L141.591 276.264
L143.834 274.708
L146.077 272.748
L148.321 270.404
L150.564 267.701
L152.807 264.665
L155.05 261.327
L157.294 257.721
L161.78 249.852
L166.266 241.374
L177.482 219.782
L181.969 211.899
L184.212 208.284
L186.455 204.937
L188.699 201.889
L190.942 199.174
L193.185 196.817
L195.428 194.844
L197.671 193.272
L199.915 192.12
L202.158 191.398
L204.401 191.113
L206.644 191.268
L208.887 191.862
L211.131 192.889
L213.374 194.339
L215.617 196.196
L217.86 198.442
L220.104 201.055
L222.347 204.007
L224.59 207.27
L226.833 210.81
L231.32 218.577
L235.806 226.994
L247.022 248.635
L251.509 256.614
L253.752 260.292
L255.995 263.713
L258.238 266.841
L260.481 269.645
L262.725 272.097
L264.968 274.172
L267.211 275.849
L269.454 277.111
L271.698 277.946
L273.941 278.344
L276.184 278.303
L278.427 277.822
L280.67 276.906
L282.914 275.565
L285.157 273.811
L287.4 271.664
L289.643 269.144
L291.886 266.276
L294.13 263.091
L296.373 259.619
L300.859 251.961
L305.346 243.608
L318.805 217.814
L323.292 210.125
L325.535 206.634
L327.778 203.427
L330.021 200.537
L332.264 197.991
L334.508 195.816
L336.751 194.034
L338.994 192.664
L341.237 191.717
L343.48 191.205
L345.724 191.133
L347.967 191.5
L350.21 192.304
L352.453 193.536
L354.697 195.185
L356.94 197.232
L359.183 199.658
L361.426 202.438
L363.669 205.544
L365.913 208.945
L368.156 212.606
L372.642 220.56
L377.129 229.084
L386.102 246.465
L390.588 254.621
L392.831 258.418
L395.074 261.977
L397.318 265.26
L399.561 268.236
L401.804 270.873
L404.047 273.146
L406.291 275.032
L408.534 276.51
L410.777 277.568
L413.02 278.193
L415.263 278.379
L417.507 278.126
L419.75 277.434
L421.993 276.312
L424.236 274.77
L426.479 272.824
L428.723 270.493
L430.966 267.803
L433.209 264.778
L435.452 261.45
L437.696 257.853
L442.182 249.997
L446.668 241.528
L457.884 219.928
L462.371 212.032
L464.614 208.408
L466.857 205.05
L469.101 201.992
L471.344 199.264
L473.587 196.894
L475.83 194.907
L475.83 194.907" style="fill:none;stroke:#7a68a6;stroke-linecap:square;stroke-width:2.0;"/>
   </g>
   <g id="patch_9">
    <path d="
M29.4302 169.29
L475.83 169.29" style="fill:none;stroke:#000000;stroke-linecap:square;stroke-linejoin:miter;"/>
   </g>
   <g id="patch_10">
    <path d="
M475.83 300.199
L475.83 169.29" style="fill:none;stroke:#000000;stroke-linecap:square;stroke-linejoin:miter;"/>
   </g>
   <g id="patch_11">
    <path d="
M29.4302 300.199
L475.83 300.199" style="fill:none;stroke:#000000;stroke-linecap:square;stroke-linejoin:miter;"/>
   </g>
   <g id="patch_12">
    <path d="
M29.4302 300.199
L29.4302 169.29" style="fill:none;stroke:#000000;stroke-linecap:square;stroke-linejoin:miter;"/>
   </g>
   <g id="matplotlib.axis_3">
    <g id="xtick_8">
     <g id="line2d_34">
      <g>
       <use style="stroke:#000000;stroke-width:0.5;" x="29.430205" xlink:href="#m93b0483c22" y="300.198780937"/>
      </g>
     </g>
     <g id="line2d_35">
      <g>
       <use style="stroke:#000000;stroke-width:0.5;" x="29.430205" xlink:href="#m741efc42ff" y="169.289690028"/>
      </g>
     </g>
     <g id="text_15">
      <!-- 0 -->
      <g transform="translate(27.1506484375 311.794179062)scale(0.09996 -0.09996)">
       <use xlink:href="#WenQuanYiMicroHei-30"/>
      </g>
     </g>
    </g>
    <g id="xtick_9">
     <g id="line2d_36">
      <g>
       <use style="stroke:#000000;stroke-width:0.5;" x="141.030205" xlink:href="#m93b0483c22" y="300.198780937"/>
      </g>
     </g>
     <g id="line2d_37">
      <g>
       <use style="stroke:#000000;stroke-width:0.5;" x="141.030205" xlink:href="#m741efc42ff" y="169.289690028"/>
      </g>
     </g>
     <g id="text_16">
      <!-- 5 -->
      <g transform="translate(138.8748175 311.794179062)scale(0.09996 -0.09996)">
       <use xlink:href="#WenQuanYiMicroHei-35"/>
      </g>
     </g>
    </g>
    <g id="xtick_10">
     <g id="line2d_38">
      <g>
       <use style="stroke:#000000;stroke-width:0.5;" x="252.630205" xlink:href="#m93b0483c22" y="300.198780937"/>
      </g>
     </g>
     <g id="line2d_39">
      <g>
       <use style="stroke:#000000;stroke-width:0.5;" x="252.630205" xlink:href="#m741efc42ff" y="169.289690028"/>
      </g>
     </g>
     <g id="text_17">
      <!-- 10 -->
      <g transform="translate(247.793078125 311.794179062)scale(0.09996 -0.09996)">
       <use xlink:href="#WenQuanYiMicroHei-31"/>
       <use x="55.078125" xlink:href="#WenQuanYiMicroHei-30"/>
      </g>
     </g>
    </g>
    <g id="xtick_11">
     <g id="line2d_40">
      <g>
       <use style="stroke:#000000;stroke-width:0.5;" x="364.230205" xlink:href="#m93b0483c22" y="300.198780937"/>
      </g>
     </g>
     <g id="line2d_41">
      <g>
       <use style="stroke:#000000;stroke-width:0.5;" x="364.230205" xlink:href="#m741efc42ff" y="169.289690028"/>
      </g>
     </g>
     <g id="text_18">
      <!-- 15 -->
      <g transform="translate(359.436810625 311.794179062)scale(0.09996 -0.09996)">
       <use xlink:href="#WenQuanYiMicroHei-31"/>
       <use x="55.078125" xlink:href="#WenQuanYiMicroHei-35"/>
      </g>
     </g>
    </g>
    <g id="xtick_12">
     <g id="line2d_42">
      <g>
       <use style="stroke:#000000;stroke-width:0.5;" x="475.830205" xlink:href="#m93b0483c22" y="300.198780937"/>
      </g>
     </g>
     <g id="line2d_43">
      <g>
       <use style="stroke:#000000;stroke-width:0.5;" x="475.830205" xlink:href="#m741efc42ff" y="169.289690028"/>
      </g>
     </g>
     <g id="text_19">
      <!-- 20 -->
      <g transform="translate(470.793158125 311.794179062)scale(0.09996 -0.09996)">
       <use xlink:href="#WenQuanYiMicroHei-32"/>
       <use x="55.078125" xlink:href="#WenQuanYiMicroHei-30"/>
      </g>
     </g>
    </g>
   </g>
   <g id="matplotlib.axis_4">
    <g id="ytick_6">
     <g id="line2d_44">
      <g>
       <use style="stroke:#000000;stroke-width:0.5;" x="29.430205" xlink:href="#m728421d6d4" y="300.198780937"/>
      </g>
     </g>
     <g id="line2d_45">
      <g>
       <use style="stroke:#000000;stroke-width:0.5;" x="475.830205" xlink:href="#mcb0005524f" y="300.198780937"/>
      </g>
     </g>
     <g id="text_20">
      <!-- −1.5 -->
      <g transform="translate(7.287465 302.795398125)scale(0.09996 -0.09996)">
       <use xlink:href="#WenQuanYiMicroHei-2212"/>
       <use x="55.078125" xlink:href="#WenQuanYiMicroHei-31"/>
       <use x="110.15625" xlink:href="#WenQuanYiMicroHei-2e"/>
       <use x="136.962890625" xlink:href="#WenQuanYiMicroHei-35"/>
      </g>
     </g>
    </g>
    <g id="ytick_7">
     <g id="line2d_46">
      <g>
       <use style="stroke:#000000;stroke-width:0.5;" x="29.430205" xlink:href="#m728421d6d4" y="278.380599119"/>
      </g>
     </g>
     <g id="line2d_47">
      <g>
       <use style="stroke:#000000;stroke-width:0.5;" x="475.830205" xlink:href="#mcb0005524f" y="278.380599119"/>
      </g>
     </g>
     <g id="text_21">
      <!-- −1.0 -->
      <g transform="translate(7.2 280.977216307)scale(0.09996 -0.09996)">
       <use xlink:href="#WenQuanYiMicroHei-2212"/>
       <use x="55.078125" xlink:href="#WenQuanYiMicroHei-31"/>
       <use x="110.15625" xlink:href="#WenQuanYiMicroHei-2e"/>
       <use x="136.962890625" xlink:href="#WenQuanYiMicroHei-30"/>
      </g>
     </g>
    </g>
    <g id="ytick_8">
     <g id="line2d_48">
      <g>
       <use style="stroke:#000000;stroke-width:0.5;" x="29.430205" xlink:href="#m728421d6d4" y="256.562417301"/>
      </g>
     </g>
     <g id="line2d_49">
      <g>
       <use style="stroke:#000000;stroke-width:0.5;" x="475.830205" xlink:href="#mcb0005524f" y="256.562417301"/>
      </g>
     </g>
     <g id="text_22">
      <!-- −0.5 -->
      <g transform="translate(7.287465 259.159034489)scale(0.09996 -0.09996)">
       <use xlink:href="#WenQuanYiMicroHei-2212"/>
       <use x="55.078125" xlink:href="#WenQuanYiMicroHei-30"/>
       <use x="110.15625" xlink:href="#WenQuanYiMicroHei-2e"/>
       <use x="136.962890625" xlink:href="#WenQuanYiMicroHei-35"/>
      </g>
     </g>
    </g>
    <g id="ytick_9">
     <g id="line2d_50">
      <g>
       <use style="stroke:#000000;stroke-width:0.5;" x="29.430205" xlink:href="#m728421d6d4" y="234.744235483"/>
      </g>
     </g>
     <g id="line2d_51">
      <g>
       <use style="stroke:#000000;stroke-width:0.5;" x="475.830205" xlink:href="#mcb0005524f" y="234.744235483"/>
      </g>
     </g>
     <g id="text_23">
      <!-- 0.0 -->
      <g transform="translate(12.685305 237.34085267)scale(0.09996 -0.09996)">
       <use xlink:href="#WenQuanYiMicroHei-30"/>
       <use x="55.078125" xlink:href="#WenQuanYiMicroHei-2e"/>
       <use x="81.884765625" xlink:href="#WenQuanYiMicroHei-30"/>
      </g>
     </g>
    </g>
    <g id="ytick_10">
     <g id="line2d_52">
      <g>
       <use style="stroke:#000000;stroke-width:0.5;" x="29.430205" xlink:href="#m728421d6d4" y="212.926053665"/>
      </g>
     </g>
     <g id="line2d_53">
      <g>
       <use style="stroke:#000000;stroke-width:0.5;" x="475.830205" xlink:href="#mcb0005524f" y="212.926053665"/>
      </g>
     </g>
     <g id="text_24">
      <!-- 0.5 -->
      <g transform="translate(12.77277 215.522670852)scale(0.09996 -0.09996)">
       <use xlink:href="#WenQuanYiMicroHei-30"/>
       <use x="55.078125" xlink:href="#WenQuanYiMicroHei-2e"/>
       <use x="81.884765625" xlink:href="#WenQuanYiMicroHei-35"/>
      </g>
     </g>
    </g>
    <g id="ytick_11">
     <g id="line2d_54">
      <g>
       <use style="stroke:#000000;stroke-width:0.5;" x="29.430205" xlink:href="#m728421d6d4" y="191.107871847"/>
      </g>
     </g>
     <g id="line2d_55">
      <g>
       <use style="stroke:#000000;stroke-width:0.5;" x="475.830205" xlink:href="#mcb0005524f" y="191.107871847"/>
      </g>
     </g>
     <g id="text_25">
      <!-- 1.0 -->
      <g transform="translate(13.07577375 193.704489034)scale(0.09996 -0.09996)">
       <use xlink:href="#WenQuanYiMicroHei-31"/>
       <use x="55.078125" xlink:href="#WenQuanYiMicroHei-2e"/>
       <use x="81.884765625" xlink:href="#WenQuanYiMicroHei-30"/>
      </g>
     </g>
    </g>
    <g id="ytick_12">
     <g id="line2d_56">
      <g>
       <use style="stroke:#000000;stroke-width:0.5;" x="29.430205" xlink:href="#m728421d6d4" y="169.289690028"/>
      </g>
     </g>
     <g id="line2d_57">
      <g>
       <use style="stroke:#000000;stroke-width:0.5;" x="475.830205" xlink:href="#mcb0005524f" y="169.289690028"/>
      </g>
     </g>
     <g id="text_26">
      <!-- 1.5 -->
      <g transform="translate(13.16323875 171.886307216)scale(0.09996 -0.09996)">
       <use xlink:href="#WenQuanYiMicroHei-31"/>
       <use x="55.078125" xlink:href="#WenQuanYiMicroHei-2e"/>
       <use x="81.884765625" xlink:href="#WenQuanYiMicroHei-35"/>
      </g>
     </g>
    </g>
   </g>
   <g id="legend_2">
    <g id="patch_13">
     <path d="
M385.843 222.76
L470.832 222.76
L470.832 174.288
L385.843 174.288
z
" style="fill:#ffffff;stroke:#000000;stroke-linejoin:miter;"/>
    </g>
    <g id="line2d_58"/>
    <g id="line2d_59">
     <g>
      <use style="fill:#348abd;stroke:#348abd;stroke-width:0.5;" x="392.839976875" xlink:href="#m40abdef5e7" y="182.382888153"/>
      <use style="fill:#348abd;stroke:#348abd;stroke-width:0.5;" x="406.834376875" xlink:href="#m40abdef5e7" y="182.382888153"/>
     </g>
    </g>
    <g id="text_27">
     <!-- 数据点 -->
     <g transform="translate(417.829976875 185.881488153)scale(0.09996 -0.09996)">
      <use xlink:href="#WenQuanYiMicroHei-6570"/>
      <use x="100.0" xlink:href="#WenQuanYiMicroHei-636e"/>
      <use x="200.0" xlink:href="#WenQuanYiMicroHei-70b9"/>
     </g>
    </g>
    <g id="line2d_60">
     <path d="
M392.84 197.866
L406.834 197.866" style="fill:none;stroke:#a60628;stroke-linecap:square;stroke-width:2;"/>
    </g>
    <g id="line2d_61"/>
    <g id="text_28">
     <!-- spline曲线 -->
     <g transform="translate(417.829976875 201.364355028)scale(0.09996 -0.09996)">
      <use xlink:href="#WenQuanYiMicroHei-73"/>
      <use x="45.1171875" xlink:href="#WenQuanYiMicroHei-70"/>
      <use x="103.7109375" xlink:href="#WenQuanYiMicroHei-6c"/>
      <use x="129.58984375" xlink:href="#WenQuanYiMicroHei-69"/>
      <use x="155.46875" xlink:href="#WenQuanYiMicroHei-6e"/>
      <use x="214.35546875" xlink:href="#WenQuanYiMicroHei-65"/>
      <use x="267.87109375" xlink:href="#WenQuanYiMicroHei-66f2"/>
      <use x="367.87109375" xlink:href="#WenQuanYiMicroHei-7ebf"/>
     </g>
    </g>
    <g id="line2d_62">
     <path d="
M392.84 212.861
L406.834 212.861" style="fill:none;stroke:#7a68a6;stroke-linecap:square;stroke-width:2.0;"/>
    </g>
    <g id="line2d_63"/>
    <g id="text_29">
     <!-- 无噪声曲线 -->
     <defs>
      <path d="
M11.7188 76.1719
L88.2812 76.1719
L88.2812 68.75
L52.3438 68.75
Q51.9531 56.6406 50.3906 46.875
L92.9688 46.875
L92.9688 39.4531
L60.1562 39.4531
L60.1562 2.73438
Q60.1562 1.5625 61.5156 0.78125
Q62.8906 0 69.1406 0
Q81.6406 0 83.5938 1.5625
Q85.9375 3.51562 86.3281 12.8906
L94.5312 10.5469
Q93.75 -1.17188 90.2344 -4.29688
Q86.7188 -7.42188 69.1406 -7.42188
Q58.5938 -7.42188 55.4688 -5.65625
Q52.3438 -3.90625 52.3438 0.390625
L52.3438 39.4531
L48.8281 39.4531
Q42.1875 9.375 10.9375 -9.375
L5.46875 -3.125
Q33.9844 14.0625 40.2344 39.4531
L7.03125 39.4531
L7.03125 46.875
L42.1875 46.875
Q43.75 56.6406 44.5312 68.75
L11.7188 68.75
z
" id="WenQuanYiMicroHei-65e0"/>
      <path d="
M6.25 73.8281
L46.4844 73.8281
L46.4844 81.25
L54.2969 81.25
L54.2969 73.8281
L93.75 73.8281
L93.75 66.4062
L54.2969 66.4062
L54.2969 58.2031
L87.5 58.2031
L87.5 50.7812
L13.2812 50.7812
L13.2812 58.2031
L46.4844 58.2031
L46.4844 66.4062
L6.25 66.4062
z

M80.8594 17.1875
L21.875 17.1875
Q21.0938 0 10.5469 -9.76562
L5.07812 -3.125
Q14.0625 5.46875 14.0625 25
L14.0625 44.5312
L88.6719 44.5312
L88.6719 10.1562
L80.8594 10.1562
z

M80.8594 37.1094
L55.4688 37.1094
L55.4688 24.6094
L80.8594 24.6094
z

M21.875 24.6094
L47.6562 24.6094
L47.6562 37.1094
L21.875 37.1094
z
" id="WenQuanYiMicroHei-58f0"/>
      <path d="
M42.1875 78.9062
L83.9844 78.9062
L83.9844 58.5938
L42.1875 58.5938
z

M50 65.2344
L76.1719 65.2344
L76.1719 72.2656
L50 72.2656
z

M34.7656 53.125
L60.1562 53.125
L60.1562 31.6406
L34.7656 31.6406
z

M42.1875 38.2812
L52.7344 38.2812
L52.7344 46.875
L42.1875 46.875
z

M66.4062 53.125
L91.7969 53.125
L91.7969 31.6406
L66.4062 31.6406
z

M73.8281 38.2812
L84.375 38.2812
L84.375 46.875
L73.8281 46.875
z

M33.9844 24.2188
L60.1562 24.2188
L60.1562 28.9062
L67.5781 28.9062
L67.5781 24.2188
L94.9219 24.2188
L94.9219 17.5781
L71.875 17.5781
Q81.6406 6.25 96.4844 1.17188
L92.5781 -6.25
Q78.125 0.390625 67.5781 13.2812
L67.5781 -8.98438
L60.1562 -8.98438
L60.1562 12.8906
Q50.7812 1.95312 35.1562 -5.46875
L30.0781 0.78125
Q45.3125 7.03125 55.8594 17.5781
L33.9844 17.5781
z

M30.0781 71.875
L30.0781 10.5469
L23.0469 10.5469
L23.0469 17.1875
L15.2344 17.1875
L15.2344 7.03125
L8.20312 7.03125
L8.20312 71.875
z

M15.2344 23.8281
L23.0469 23.8281
L23.0469 65.2344
L15.2344 65.2344
z
" id="WenQuanYiMicroHei-566a"/>
     </defs>
     <g transform="translate(417.829976875 216.359916903)scale(0.09996 -0.09996)">
      <use xlink:href="#WenQuanYiMicroHei-65e0"/>
      <use x="100.0" xlink:href="#WenQuanYiMicroHei-566a"/>
      <use x="200.0" xlink:href="#WenQuanYiMicroHei-58f0"/>
      <use x="300.0" xlink:href="#WenQuanYiMicroHei-66f2"/>
      <use x="400.0" xlink:href="#WenQuanYiMicroHei-7ebf"/>
     </g>
    </g>
   </g>
  </g>
 </g>
 <defs>
  <clipPath id="p0e435dbfb8">
   <rect height="130.909090909" width="446.4" x="29.430205" y="12.1987809375"/>
  </clipPath>
  <clipPath id="pb658296eb8">
   <rect height="130.909090909" width="446.4" x="29.430205" y="169.289690028"/>
  </clipPath>
 </defs>
</svg>
