<?xml version="1.0" encoding="utf-8" standalone="no"?>
<!DOCTYPE svg PUBLIC "-//W3C//DTD SVG 1.1//EN"
  "http://www.w3.org/Graphics/SVG/1.1/DTD/svg11.dtd">
<!-- Created with matplotlib (http://matplotlib.org/) -->
<svg height="206pt" version="1.1" viewBox="0 0 376 206" width="376pt" xmlns="http://www.w3.org/2000/svg" xmlns:xlink="http://www.w3.org/1999/xlink">
 <defs>
  <style type="text/css">
*{stroke-linecap:butt;stroke-linejoin:round;}
  </style>
 </defs>
 <g id="figure_1">
  <g id="patch_1">
   <path d="
M0 206.196
L376.267 206.196
L376.267 0
L0 0
z
" style="fill:#ffffff;"/>
  </g>
  <g id="axes_1">
   <g id="patch_2">
    <path d="
M29.4302 184.999
L364.23 184.999
L364.23 12.1988
L29.4302 12.1988
z
" style="fill:#ffffff;"/>
   </g>
   <g id="line2d_1">
    <defs>
     <path d="
M0 3
C0.795609 3 1.55874 2.6839 2.12132 2.12132
C2.6839 1.55874 3 0.795609 3 0
C3 -0.795609 2.6839 -1.55874 2.12132 -2.12132
C1.55874 -2.6839 0.795609 -3 0 -3
C-0.795609 -3 -1.55874 -2.6839 -2.12132 -2.12132
C-2.6839 -1.55874 -3 -0.795609 -3 0
C-3 0.795609 -2.6839 1.55874 -2.12132 2.12132
C-1.55874 2.6839 -0.795609 3 0 3
z
" id="md175be6dbf" style="stroke:#000000;stroke-width:0.5;"/>
    </defs>
    <g clip-path="url(#p7559c7b864)">
     <use style="fill:#ff0000;stroke:#000000;stroke-width:0.5;" x="29.430205" xlink:href="#md175be6dbf" y="98.5987809375"/>
     <use style="fill:#ff0000;stroke:#000000;stroke-width:0.5;" x="62.910205" xlink:href="#md175be6dbf" y="50.1300522126"/>
     <use style="fill:#ff0000;stroke:#000000;stroke-width:0.5;" x="96.390205" xlink:href="#md175be6dbf" y="46.2232491523"/>
     <use style="fill:#ff0000;stroke:#000000;stroke-width:0.5;" x="129.870205" xlink:href="#md175be6dbf" y="90.4702684733"/>
     <use style="fill:#ff0000;stroke:#000000;stroke-width:0.5;" x="163.350205" xlink:href="#md175be6dbf" y="142.190604667"/>
     <use style="fill:#ff0000;stroke:#000000;stroke-width:0.5;" x="196.830205" xlink:href="#md175be6dbf" y="153.832819158"/>
     <use style="fill:#ff0000;stroke:#000000;stroke-width:0.5;" x="230.310205" xlink:href="#md175be6dbf" y="114.693113634"/>
     <use style="fill:#ff0000;stroke:#000000;stroke-width:0.5;" x="263.790205" xlink:href="#md175be6dbf" y="60.7563528513"/>
     <use style="fill:#ff0000;stroke:#000000;stroke-width:0.5;" x="297.270205" xlink:href="#md175be6dbf" y="41.611745932"/>
     <use style="fill:#ff0000;stroke:#000000;stroke-width:0.5;" x="330.750205" xlink:href="#md175be6dbf" y="74.8607561876"/>
     <use style="fill:#ff0000;stroke:#000000;stroke-width:0.5;" x="364.230205" xlink:href="#md175be6dbf" y="129.934396925"/>
    </g>
   </g>
   <g id="line2d_2">
    <path clip-path="url(#p7559c7b864)" d="
M29.4302 98.5988
L32.7782 98.5988
L36.1262 98.5988
L39.4742 98.5988
L42.8222 98.5988
L46.1702 98.5988
L49.5182 50.1301
L52.8662 50.1301
L56.2142 50.1301
L59.5622 50.1301
L62.9102 50.1301
L66.2582 50.1301
L69.6062 50.1301
L72.9542 50.1301
L76.3022 50.1301
L79.6502 50.1301
L82.9982 46.2232
L86.3462 46.2232
L89.6942 46.2232
L93.0422 46.2232
L96.3902 46.2232
L99.7382 46.2232
L103.086 46.2232
L106.434 46.2232
L109.782 46.2232
L113.13 46.2232
L116.478 90.4703
L119.826 90.4703
L123.174 90.4703
L126.522 90.4703
L129.87 90.4703
L133.218 90.4703
L136.566 90.4703
L139.914 90.4703
L143.262 90.4703
L146.61 90.4703
L149.958 142.191
L153.306 142.191
L156.654 142.191
L160.002 142.191
L163.35 142.191
L166.698 142.191
L170.046 142.191
L173.394 142.191
L176.742 142.191
L180.09 142.191
L183.438 153.833
L186.786 153.833
L190.134 153.833
L193.482 153.833
L196.83 153.833
L200.178 153.833
L203.526 153.833
L206.874 153.833
L210.222 153.833
L213.57 153.833
L216.918 114.693
L220.266 114.693
L223.614 114.693
L226.962 114.693
L230.31 114.693
L233.658 114.693
L237.006 114.693
L240.354 114.693
L243.702 114.693
L247.05 114.693
L250.398 60.7564
L253.746 60.7564
L257.094 60.7564
L260.442 60.7564
L263.79 60.7564
L267.138 60.7564
L270.486 60.7564
L273.834 60.7564
L277.182 60.7564
L280.53 60.7564
L283.878 41.6117
L287.226 41.6117
L290.574 41.6117
L293.922 41.6117
L297.27 41.6117
L300.618 41.6117
L303.966 41.6117
L307.314 41.6117
L310.662 41.6117
L314.01 41.6117
L317.358 74.8608
L320.706 74.8608
L324.054 74.8608
L327.402 74.8608
L330.75 74.8608
L334.098 74.8608
L337.446 74.8608
L340.794 74.8608
L344.142 74.8608
L347.49 74.8608
L350.838 129.934
L354.186 129.934
L357.534 129.934
L360.882 129.934
L364.23 129.934" style="fill:none;stroke:#348abd;stroke-linecap:square;stroke-width:2.0;"/>
   </g>
   <g id="line2d_3">
    <path clip-path="url(#p7559c7b864)" d="
M29.4302 98.5988
L32.7782 98.5988
L36.1262 98.5988
L39.4742 98.5988
L42.8222 98.5988
L46.1702 98.5988
L49.5182 98.5988
L52.8662 98.5988
L56.2142 98.5988
L59.5622 98.5988
L62.9102 50.1301
L66.2582 50.1301
L69.6062 50.1301
L72.9542 50.1301
L76.3022 50.1301
L79.6502 50.1301
L82.9982 50.1301
L86.3462 50.1301
L89.6942 50.1301
L93.0422 50.1301
L96.3902 46.2232
L99.7382 46.2232
L103.086 46.2232
L106.434 46.2232
L109.782 46.2232
L113.13 46.2232
L116.478 46.2232
L119.826 46.2232
L123.174 46.2232
L126.522 46.2232
L129.87 90.4703
L133.218 90.4703
L136.566 90.4703
L139.914 90.4703
L143.262 90.4703
L146.61 90.4703
L149.958 90.4703
L153.306 90.4703
L156.654 90.4703
L160.002 90.4703
L163.35 142.191
L166.698 142.191
L170.046 142.191
L173.394 142.191
L176.742 142.191
L180.09 142.191
L183.438 142.191
L186.786 142.191
L190.134 142.191
L193.482 142.191
L196.83 153.833
L200.178 153.833
L203.526 153.833
L206.874 153.833
L210.222 153.833
L213.57 153.833
L216.918 153.833
L220.266 153.833
L223.614 153.833
L226.962 153.833
L230.31 114.693
L233.658 114.693
L237.006 114.693
L240.354 114.693
L243.702 114.693
L247.05 114.693
L250.398 114.693
L253.746 114.693
L257.094 114.693
L260.442 114.693
L263.79 60.7564
L267.138 60.7564
L270.486 60.7564
L273.834 60.7564
L277.182 60.7564
L280.53 60.7564
L283.878 60.7564
L287.226 60.7564
L290.574 60.7564
L293.922 60.7564
L297.27 41.6117
L300.618 41.6117
L303.966 41.6117
L307.314 41.6117
L310.662 41.6117
L314.01 41.6117
L317.358 41.6117
L320.706 41.6117
L324.054 41.6117
L327.402 41.6117
L330.75 74.8608
L334.098 74.8608
L337.446 74.8608
L340.794 74.8608
L344.142 74.8608
L347.49 74.8608
L350.838 74.8608
L354.186 74.8608
L357.534 74.8608
L360.882 74.8608
L364.23 74.8608" style="fill:none;stroke:#a60628;stroke-linecap:square;stroke-width:2.0;"/>
   </g>
   <g id="line2d_4">
    <path clip-path="url(#p7559c7b864)" d="
M29.4302 98.5988
L32.7782 93.7519
L36.1262 88.905
L39.4742 84.0582
L42.8222 79.2113
L46.1702 74.3644
L49.5182 69.5175
L52.8662 64.6707
L56.2142 59.8238
L59.5622 54.9769
L62.9102 50.1301
L66.2582 49.7394
L69.6062 49.3487
L72.9542 48.958
L76.3022 48.5673
L79.6502 48.1767
L82.9982 47.786
L86.3462 47.3953
L89.6942 47.0046
L93.0422 46.6139
L96.3902 46.2232
L99.7382 50.648
L103.086 55.0727
L106.434 59.4974
L109.782 63.9221
L113.13 68.3468
L116.478 72.7715
L119.826 77.1962
L123.174 81.6209
L126.522 86.0456
L129.87 90.4703
L133.218 95.6423
L136.566 100.814
L139.914 105.986
L143.262 111.158
L146.61 116.33
L149.958 121.502
L153.306 126.675
L156.654 131.847
L160.002 137.019
L163.35 142.191
L166.698 143.355
L170.046 144.519
L173.394 145.683
L176.742 146.847
L180.09 148.012
L183.438 149.176
L186.786 150.34
L190.134 151.504
L193.482 152.669
L196.83 153.833
L200.178 149.919
L203.526 146.005
L206.874 142.091
L210.222 138.177
L213.57 134.263
L216.918 130.349
L220.266 126.435
L223.614 122.521
L226.962 118.607
L230.31 114.693
L233.658 109.299
L237.006 103.906
L240.354 98.5121
L243.702 93.1184
L247.05 87.7247
L250.398 82.3311
L253.746 76.9374
L257.094 71.5437
L260.442 66.15
L263.79 60.7564
L267.138 58.8419
L270.486 56.9274
L273.834 55.013
L277.182 53.0985
L280.53 51.184
L283.878 49.2696
L287.226 47.3551
L290.574 45.4407
L293.922 43.5262
L297.27 41.6117
L300.618 44.9366
L303.966 48.2615
L307.314 51.5864
L310.662 54.9114
L314.01 58.2363
L317.358 61.5612
L320.706 64.8861
L324.054 68.211
L327.402 71.5359
L330.75 74.8608
L334.098 80.3681
L337.446 85.8755
L340.794 91.3828
L344.142 96.8902
L347.49 102.398
L350.838 107.905
L354.186 113.412
L357.534 118.92
L360.882 124.427
L364.23 129.934" style="fill:none;stroke:#7a68a6;stroke-linecap:square;stroke-width:2.0;"/>
   </g>
   <g id="line2d_5">
    <path clip-path="url(#p7559c7b864)" d="
M29.4302 98.5988
L32.7782 92.4599
L36.1262 86.6081
L39.4742 81.0434
L42.8222 75.7659
L46.1702 70.7755
L49.5182 66.0722
L52.8662 61.656
L56.2142 57.5269
L59.5622 53.6849
L62.9102 50.1301
L66.2582 47.0208
L69.6062 44.5157
L72.9542 42.6147
L76.3022 41.3179
L79.6502 40.6251
L82.9982 40.5365
L86.3462 41.052
L89.6942 42.1716
L93.0422 43.8954
L96.3902 46.2232
L99.7382 49.0327
L103.086 52.201
L106.434 55.7283
L109.782 59.6146
L113.13 63.8598
L116.478 68.464
L119.826 73.4271
L123.174 78.7492
L126.522 84.4303
L129.87 90.4703
L133.218 96.585
L136.566 102.49
L139.914 108.186
L143.262 113.672
L146.61 118.949
L149.958 124.016
L153.306 128.874
L156.654 133.522
L160.002 137.961
L163.35 142.191
L166.698 146.019
L170.046 149.256
L173.394 151.9
L176.742 153.952
L180.09 155.413
L183.438 156.281
L186.786 156.557
L190.134 156.241
L193.482 155.333
L196.83 153.833
L200.178 151.825
L203.526 149.393
L206.874 146.538
L210.222 143.26
L213.57 139.558
L216.918 135.432
L220.266 130.882
L223.614 125.91
L226.962 120.513
L230.31 114.693
L233.658 108.725
L237.006 102.885
L240.354 97.172
L243.702 91.5869
L247.05 86.1295
L250.398 80.7996
L253.746 75.5973
L257.094 70.5227
L260.442 65.5757
L263.79 60.7564
L267.138 56.2849
L270.486 52.3817
L273.834 49.0467
L277.182 46.2799
L280.53 44.0813
L283.878 42.4509
L287.226 41.3888
L290.574 40.8949
L293.922 40.9692
L297.27 41.6117
L300.618 42.7782
L303.966 44.4243
L307.314 46.5501
L310.662 49.1555
L314.01 52.2406
L317.358 55.8053
L320.706 59.8497
L324.054 64.3737
L327.402 69.3774
L330.75 74.8608
L334.098 80.5623
L337.446 86.2208
L340.794 91.836
L344.142 97.4081
L347.49 102.937
L350.838 108.423
L354.186 113.865
L357.534 119.265
L360.882 124.621
L364.23 129.934" style="fill:none;stroke:#467821;stroke-linecap:square;stroke-width:2.0;"/>
   </g>
   <g id="patch_3">
    <path d="
M29.4302 12.1988
L364.23 12.1988" style="fill:none;stroke:#000000;stroke-linecap:square;stroke-linejoin:miter;"/>
   </g>
   <g id="patch_4">
    <path d="
M364.23 184.999
L364.23 12.1988" style="fill:none;stroke:#000000;stroke-linecap:square;stroke-linejoin:miter;"/>
   </g>
   <g id="patch_5">
    <path d="
M29.4302 184.999
L364.23 184.999" style="fill:none;stroke:#000000;stroke-linecap:square;stroke-linejoin:miter;"/>
   </g>
   <g id="patch_6">
    <path d="
M29.4302 184.999
L29.4302 12.1988" style="fill:none;stroke:#000000;stroke-linecap:square;stroke-linejoin:miter;"/>
   </g>
   <g id="matplotlib.axis_1">
    <g id="xtick_1">
     <g id="line2d_6">
      <defs>
       <path d="
M0 0
L0 -4" id="m93b0483c22" style="stroke:#000000;stroke-width:0.5;"/>
      </defs>
      <g>
       <use style="stroke:#000000;stroke-width:0.5;" x="29.430205" xlink:href="#m93b0483c22" y="184.998780938"/>
      </g>
     </g>
     <g id="line2d_7">
      <defs>
       <path d="
M0 0
L0 4" id="m741efc42ff" style="stroke:#000000;stroke-width:0.5;"/>
      </defs>
      <g>
       <use style="stroke:#000000;stroke-width:0.5;" x="29.430205" xlink:href="#m741efc42ff" y="12.1987809375"/>
      </g>
     </g>
     <g id="text_1">
      <!-- 0 -->
      <defs>
       <path d="
M50.3906 35.7969
Q50.3906 27.1562 49.1406 20.3125
Q47.9062 13.4844 45.1406 8.73438
Q42.3906 4 38.0312 1.5
Q33.6875 -0.984375 27.4844 -0.984375
Q21.7344 -0.984375 17.4531 1.5
Q13.1875 4 10.375 8.73438
Q7.5625 13.4844 6.17188 20.3125
Q4.78125 27.1562 4.78125 35.7969
Q4.78125 44.4375 6.03125 51.2656
Q7.28125 58.1094 9.98438 62.8125
Q12.7031 67.5312 17.0156 70.0156
Q21.3438 72.5156 27.4844 72.5156
Q33.2969 72.5156 37.5938 70.0469
Q41.8906 67.5781 44.7188 62.8594
Q47.5625 58.1562 48.9688 51.3125
Q50.3906 44.4844 50.3906 35.7969
M13.8125 35.7969
Q13.8125 28.4688 14.5469 23
Q15.2812 17.5312 16.8906 13.8906
Q18.5 10.25 21.1094 8.42188
Q23.7344 6.59375 27.4844 6.59375
Q31.25 6.59375 33.8906 8.39062
Q36.5312 10.2031 38.2031 13.8125
Q39.8906 17.4375 40.6406 22.9219
Q41.4062 28.4219 41.4062 35.7969
Q41.4062 43.1094 40.6406 48.5781
Q39.8906 54.0469 38.2031 57.6562
Q36.5312 61.2812 33.8906 63.0781
Q31.25 64.8906 27.4844 64.8906
Q23.7344 64.8906 21.1094 63.0781
Q18.5 61.2812 16.8906 57.6562
Q15.2812 54.0469 14.5469 48.5781
Q13.8125 43.1094 13.8125 35.7969" id="WenQuanYiMicroHei-30"/>
      </defs>
      <g transform="translate(27.1506484375 196.594179063)scale(0.09996 -0.09996)">
       <use xlink:href="#WenQuanYiMicroHei-30"/>
      </g>
     </g>
    </g>
    <g id="xtick_2">
     <g id="line2d_8">
      <g>
       <use style="stroke:#000000;stroke-width:0.5;" x="96.390205" xlink:href="#m93b0483c22" y="184.998780938"/>
      </g>
     </g>
     <g id="line2d_9">
      <g>
       <use style="stroke:#000000;stroke-width:0.5;" x="96.390205" xlink:href="#m741efc42ff" y="12.1987809375"/>
      </g>
     </g>
     <g id="text_2">
      <!-- 2 -->
      <defs>
       <path d="
M49.2188 0
L4.6875 0
L4.6875 7.625
L21.7812 26.2188
Q25.4375 30.1719 28.3125 33.4375
Q31.2031 36.7188 33.2188 39.8438
Q35.25 42.9688 36.3281 46.1094
Q37.4062 49.2656 37.4062 52.9844
Q37.4062 55.8594 36.5781 58.0469
Q35.75 60.25 34.2031 61.7812
Q32.6719 63.3281 30.5625 64.1094
Q28.4688 64.8906 25.875 64.8906
Q21.2344 64.8906 17.5 63.0156
Q13.7656 61.1406 10.4062 58.2031
L5.42188 64.0156
Q7.375 65.7656 9.60938 67.2969
Q11.8594 68.8438 14.4531 69.9688
Q17.0469 71.0938 19.9219 71.75
Q22.7969 72.4062 25.9844 72.4062
Q30.6719 72.4062 34.4531 71.0938
Q38.2344 69.7812 40.8594 67.3125
Q43.5 64.8438 44.9375 61.2969
Q46.3906 57.7656 46.3906 53.3281
Q46.3906 49.1719 45.0938 45.4062
Q43.7969 41.6562 41.5312 38.0156
Q39.2656 34.375 36.1094 30.7031
Q32.9531 27.0469 29.2969 23.0938
L15.5781 8.5
L15.5781 8.10938
L49.2188 8.10938
z
" id="WenQuanYiMicroHei-32"/>
      </defs>
      <g transform="translate(94.164533125 196.594179063)scale(0.09996 -0.09996)">
       <use xlink:href="#WenQuanYiMicroHei-32"/>
      </g>
     </g>
    </g>
    <g id="xtick_3">
     <g id="line2d_10">
      <g>
       <use style="stroke:#000000;stroke-width:0.5;" x="163.350205" xlink:href="#m93b0483c22" y="184.998780938"/>
      </g>
     </g>
     <g id="line2d_11">
      <g>
       <use style="stroke:#000000;stroke-width:0.5;" x="163.350205" xlink:href="#m741efc42ff" y="12.1987809375"/>
      </g>
     </g>
     <g id="text_3">
      <!-- 4 -->
      <defs>
       <path d="
M53.0781 16.0156
L42.6719 16.0156
L42.6719 0
L34.0781 0
L34.0781 16.0156
L1.125 16.0156
L1.125 23.7812
L33.5 71.7812
L42.6719 71.7812
L42.6719 24.125
L53.0781 24.125
z

M34.0781 24.125
L34.0781 41.5
Q34.0781 44.2344 34.1562 47.2344
Q34.2344 50.25 34.3281 53.0938
Q34.4219 55.9531 34.5469 58.4375
Q34.6719 60.9375 34.7188 62.5938
L34.2812 62.5938
Q33.9375 61.625 33.4219 60.4219
Q32.9062 59.2344 32.2969 58.0312
Q31.6875 56.8438 31.0469 55.7188
Q30.4219 54.5938 29.8906 53.8125
L9.8125 24.125
z
" id="WenQuanYiMicroHei-34"/>
      </defs>
      <g transform="translate(160.753587813 196.594179063)scale(0.09996 -0.09996)">
       <use xlink:href="#WenQuanYiMicroHei-34"/>
      </g>
     </g>
    </g>
    <g id="xtick_4">
     <g id="line2d_12">
      <g>
       <use style="stroke:#000000;stroke-width:0.5;" x="230.310205" xlink:href="#m93b0483c22" y="184.998780938"/>
      </g>
     </g>
     <g id="line2d_13">
      <g>
       <use style="stroke:#000000;stroke-width:0.5;" x="230.310205" xlink:href="#m741efc42ff" y="12.1987809375"/>
      </g>
     </g>
     <g id="text_4">
      <!-- 6 -->
      <defs>
       <path d="
M5.51562 30.5156
Q5.51562 35.6406 6.03125 40.7188
Q6.54688 45.7969 7.82812 50.4531
Q9.125 55.125 11.375 59.125
Q13.625 63.1406 17.0938 66.0938
Q20.5625 69.0469 25.3906 70.7188
Q30.2188 72.4062 36.7188 72.4062
Q37.6406 72.4062 38.7656 72.3594
Q39.8906 72.3125 41.0312 72.1875
Q42.1875 72.0781 43.2344 71.9062
Q44.2812 71.7344 45.125 71.4844
L45.125 63.9219
Q43.4062 64.5 41.25 64.7969
Q39.1094 65.0938 37.0156 65.0938
Q32.625 65.0938 29.2656 64.0312
Q25.9219 62.9844 23.4844 61.0781
Q21.0469 59.1875 19.4062 56.5469
Q17.7812 53.9062 16.75 50.7031
Q15.7188 47.5156 15.2344 43.8906
Q14.75 40.2812 14.5938 36.375
L15.1875 36.375
Q16.1562 38.1406 17.5469 39.6719
Q18.9531 41.2188 20.7969 42.3125
Q22.6562 43.4062 24.9688 44.0312
Q27.2969 44.6719 30.1719 44.6719
Q34.8125 44.6719 38.5625 43.2344
Q42.3281 41.7969 44.9688 39.0156
Q47.6094 36.2344 49.0469 32.2031
Q50.4844 28.1719 50.4844 23
Q50.4844 17.4375 48.9688 12.9844
Q47.4688 8.54688 44.625 5.4375
Q41.7969 2.34375 37.7969 0.671875
Q33.7969 -0.984375 28.8125 -0.984375
Q23.9219 -0.984375 19.6406 0.921875
Q15.375 2.82812 12.25 6.73438
Q9.125 10.6406 7.3125 16.5469
Q5.51562 22.4688 5.51562 30.5156
M28.7188 6.5
Q31.6406 6.5 34.0469 7.5
Q36.4688 8.5 38.2188 10.5156
Q39.9844 12.5469 40.9375 15.6406
Q41.8906 18.75 41.8906 23
Q41.8906 26.4219 41.0781 29.125
Q40.2812 31.8438 38.6719 33.7344
Q37.0625 35.6406 34.6406 36.6719
Q32.2344 37.7031 29 37.7031
Q25.7344 37.7031 23.0156 36.5469
Q20.3125 35.4062 18.4062 33.5625
Q16.5 31.7344 15.4531 29.3906
Q14.4062 27.0469 14.4062 24.7031
Q14.4062 21.4375 15.3125 18.1875
Q16.2188 14.9375 18 12.3438
Q19.7812 9.76562 22.4531 8.125
Q25.1406 6.5 28.7188 6.5" id="WenQuanYiMicroHei-36"/>
      </defs>
      <g transform="translate(228.062666875 196.594179063)scale(0.09996 -0.09996)">
       <use xlink:href="#WenQuanYiMicroHei-36"/>
      </g>
     </g>
    </g>
    <g id="xtick_5">
     <g id="line2d_14">
      <g>
       <use style="stroke:#000000;stroke-width:0.5;" x="297.270205" xlink:href="#m93b0483c22" y="184.998780938"/>
      </g>
     </g>
     <g id="line2d_15">
      <g>
       <use style="stroke:#000000;stroke-width:0.5;" x="297.270205" xlink:href="#m741efc42ff" y="12.1987809375"/>
      </g>
     </g>
     <g id="text_5">
      <!-- 8 -->
      <defs>
       <path d="
M27.5938 72.5156
Q31.6875 72.5156 35.3281 71.4375
Q38.9688 70.3594 41.7188 68.2031
Q44.4844 66.0625 46.0938 62.8438
Q47.7031 59.625 47.7031 55.3281
Q47.7031 52.0469 46.7188 49.4062
Q45.75 46.7812 44.0312 44.6562
Q42.3281 42.5312 39.9844 40.8438
Q37.6406 39.1562 34.9062 37.7969
Q37.75 36.2812 40.4531 34.4219
Q43.1719 32.5625 45.2812 30.25
Q47.4062 27.9375 48.7031 25.0469
Q50 22.1719 50 18.6094
Q50 14.1094 48.3594 10.4688
Q46.7344 6.84375 43.7812 4.29688
Q40.8281 1.76562 36.6875 0.390625
Q32.5625 -0.984375 27.5938 -0.984375
Q22.2188 -0.984375 18.0469 0.328125
Q13.875 1.65625 11.0156 4.125
Q8.15625 6.59375 6.65625 10.1562
Q5.17188 13.7188 5.17188 18.2188
Q5.17188 21.875 6.26562 24.7969
Q7.375 27.7344 9.21875 30.0781
Q11.0781 32.4219 13.6094 34.2188
Q16.1562 36.0312 19 37.4062
Q16.6094 38.9219 14.5 40.7031
Q12.4062 42.4844 10.8594 44.6719
Q9.32812 46.875 8.42188 49.5312
Q7.51562 52.2031 7.51562 55.4219
Q7.51562 59.6719 9.15625 62.8594
Q10.7969 66.0625 13.5781 68.2031
Q16.3594 70.3594 20 71.4375
Q23.6406 72.5156 27.5938 72.5156
M13.9219 18.1094
Q13.9219 15.5312 14.7031 13.3594
Q15.4844 11.1875 17.1406 9.64062
Q18.7969 8.10938 21.3281 7.25
Q23.875 6.39062 27.3906 6.39062
Q30.8125 6.39062 33.4219 7.25
Q36.0312 8.10938 37.7812 9.6875
Q39.5469 11.2812 40.4219 13.5156
Q41.3125 15.7656 41.3125 18.5
Q41.3125 21.0469 40.3594 23.0938
Q39.4062 25.1406 37.625 26.8906
Q35.8438 28.6562 33.3438 30.2188
Q30.8594 31.7812 27.7812 33.2969
L26.3125 33.9844
Q20.1719 31.0625 17.0469 27.2656
Q13.9219 23.4844 13.9219 18.1094
M27.4844 65.0938
Q22.3125 65.0938 19.2656 62.5
Q16.2188 59.9062 16.2188 54.9844
Q16.2188 52.2031 17.0625 50.1875
Q17.9219 48.1875 19.4375 46.625
Q20.9531 45.0625 23.0781 43.8125
Q25.2031 42.5781 27.6875 41.4062
Q30.0312 42.4844 32.1094 43.75
Q34.1875 45.0156 35.7188 46.625
Q37.25 48.25 38.125 50.2969
Q39.0156 52.3438 39.0156 54.9844
Q39.0156 59.9062 35.9375 62.5
Q32.8594 65.0938 27.4844 65.0938" id="WenQuanYiMicroHei-38"/>
      </defs>
      <g transform="translate(295.029695313 196.594179063)scale(0.09996 -0.09996)">
       <use xlink:href="#WenQuanYiMicroHei-38"/>
      </g>
     </g>
    </g>
    <g id="xtick_6">
     <g id="line2d_16">
      <g>
       <use style="stroke:#000000;stroke-width:0.5;" x="364.230205" xlink:href="#m93b0483c22" y="184.998780938"/>
      </g>
     </g>
     <g id="line2d_17">
      <g>
       <use style="stroke:#000000;stroke-width:0.5;" x="364.230205" xlink:href="#m741efc42ff" y="12.1987809375"/>
      </g>
     </g>
     <g id="text_6">
      <!-- 10 -->
      <defs>
       <path d="
M34.7188 0
L26.125 0
L26.125 44.5781
Q26.125 46.6875 26.1406 49.0781
Q26.1719 51.4688 26.2344 53.8281
Q26.3125 56.2031 26.3906 58.375
Q26.4688 60.5469 26.5156 62.2031
Q25.6875 61.3281 25.0469 60.6875
Q24.4219 60.0625 23.75 59.4688
Q23.0938 58.8906 22.3594 58.2188
Q21.625 57.5625 20.6094 56.6875
L13.375 50.7812
L8.6875 56.7812
L27.3906 71.3906
L34.7188 71.3906
z
" id="WenQuanYiMicroHei-31"/>
      </defs>
      <g transform="translate(359.393078125 196.594179063)scale(0.09996 -0.09996)">
       <use xlink:href="#WenQuanYiMicroHei-31"/>
       <use x="55.078125" xlink:href="#WenQuanYiMicroHei-30"/>
      </g>
     </g>
    </g>
   </g>
   <g id="matplotlib.axis_2">
    <g id="ytick_1">
     <g id="line2d_18">
      <defs>
       <path d="
M0 0
L4 0" id="m728421d6d4" style="stroke:#000000;stroke-width:0.5;"/>
      </defs>
      <g>
       <use style="stroke:#000000;stroke-width:0.5;" x="29.430205" xlink:href="#m728421d6d4" y="184.998780937"/>
      </g>
     </g>
     <g id="line2d_19">
      <defs>
       <path d="
M0 0
L-4 0" id="mcb0005524f" style="stroke:#000000;stroke-width:0.5;"/>
      </defs>
      <g>
       <use style="stroke:#000000;stroke-width:0.5;" x="364.230205" xlink:href="#mcb0005524f" y="184.998780937"/>
      </g>
     </g>
     <g id="text_7">
      <!-- −1.5 -->
      <defs>
       <path d="
M4.98438 31.5938
L4.98438 38.9219
L50.0938 38.9219
L50.0938 31.5938
z
" id="WenQuanYiMicroHei-2212"/>
       <path d="
M26.6094 43.7969
Q31.4531 43.7969 35.625 42.4531
Q39.7969 41.1094 42.8906 38.4688
Q46 35.8438 47.75 31.9375
Q49.5156 28.0312 49.5156 22.9062
Q49.5156 17.3281 47.8438 12.8906
Q46.1875 8.45312 42.9219 5.375
Q39.6562 2.29688 34.8438 0.65625
Q30.0312 -0.984375 23.7812 -0.984375
Q21.2969 -0.984375 18.875 -0.734375
Q16.4531 -0.484375 14.2344 -0.015625
Q12.0156 0.4375 10.0156 1.17188
Q8.01562 1.90625 6.39062 2.875
L6.39062 11.2812
Q8.01562 10.1562 10.1875 9.28125
Q12.3594 8.40625 14.75 7.8125
Q17.1406 7.23438 19.5469 6.90625
Q21.9688 6.59375 24.0312 6.59375
Q27.875 6.59375 30.9062 7.5
Q33.9375 8.40625 36.0312 10.2969
Q38.1406 12.2031 39.25 15.0781
Q40.375 17.9688 40.375 21.9219
Q40.375 28.9062 36.0781 32.5938
Q31.7812 36.2812 23.5781 36.2812
Q22.2656 36.2812 20.7188 36.1562
Q19.1875 36.0312 17.6406 35.8281
Q16.1094 35.6406 14.7188 35.4219
Q13.3281 35.2031 12.3125 35.0156
L7.90625 37.7969
L10.5938 71.3906
L44.2812 71.3906
L44.2812 63.2812
L18.3125 63.2812
L16.4062 42.8281
Q17.9688 43.1094 20.5312 43.4531
Q23.0938 43.7969 26.6094 43.7969" id="WenQuanYiMicroHei-35"/>
       <path d="
M7.17188 5.42188
Q7.17188 7.28125 7.65625 8.5625
Q8.15625 9.85938 8.98438 10.6562
Q9.8125 11.4688 10.9375 11.8281
Q12.0625 12.2031 13.375 12.2031
Q14.6562 12.2031 15.7969 11.8281
Q16.9375 11.4688 17.7656 10.6562
Q18.6094 9.85938 19.0938 8.5625
Q19.5781 7.28125 19.5781 5.42188
Q19.5781 3.60938 19.0938 2.3125
Q18.6094 1.03125 17.7656 0.1875
Q16.9375 -0.640625 15.7969 -1.03125
Q14.6562 -1.42188 13.375 -1.42188
Q12.0625 -1.42188 10.9375 -1.03125
Q9.8125 -0.640625 8.98438 0.1875
Q8.15625 1.03125 7.65625 2.3125
Q7.17188 3.60938 7.17188 5.42188" id="WenQuanYiMicroHei-2e"/>
      </defs>
      <g transform="translate(7.287465 187.595398125)scale(0.09996 -0.09996)">
       <use xlink:href="#WenQuanYiMicroHei-2212"/>
       <use x="55.078125" xlink:href="#WenQuanYiMicroHei-31"/>
       <use x="110.15625" xlink:href="#WenQuanYiMicroHei-2e"/>
       <use x="136.962890625" xlink:href="#WenQuanYiMicroHei-35"/>
      </g>
     </g>
    </g>
    <g id="ytick_2">
     <g id="line2d_20">
      <g>
       <use style="stroke:#000000;stroke-width:0.5;" x="29.430205" xlink:href="#m728421d6d4" y="156.198780938"/>
      </g>
     </g>
     <g id="line2d_21">
      <g>
       <use style="stroke:#000000;stroke-width:0.5;" x="364.230205" xlink:href="#mcb0005524f" y="156.198780938"/>
      </g>
     </g>
     <g id="text_8">
      <!-- −1.0 -->
      <g transform="translate(7.2 158.795398125)scale(0.09996 -0.09996)">
       <use xlink:href="#WenQuanYiMicroHei-2212"/>
       <use x="55.078125" xlink:href="#WenQuanYiMicroHei-31"/>
       <use x="110.15625" xlink:href="#WenQuanYiMicroHei-2e"/>
       <use x="136.962890625" xlink:href="#WenQuanYiMicroHei-30"/>
      </g>
     </g>
    </g>
    <g id="ytick_3">
     <g id="line2d_22">
      <g>
       <use style="stroke:#000000;stroke-width:0.5;" x="29.430205" xlink:href="#m728421d6d4" y="127.398780937"/>
      </g>
     </g>
     <g id="line2d_23">
      <g>
       <use style="stroke:#000000;stroke-width:0.5;" x="364.230205" xlink:href="#mcb0005524f" y="127.398780937"/>
      </g>
     </g>
     <g id="text_9">
      <!-- −0.5 -->
      <g transform="translate(7.287465 129.995398125)scale(0.09996 -0.09996)">
       <use xlink:href="#WenQuanYiMicroHei-2212"/>
       <use x="55.078125" xlink:href="#WenQuanYiMicroHei-30"/>
       <use x="110.15625" xlink:href="#WenQuanYiMicroHei-2e"/>
       <use x="136.962890625" xlink:href="#WenQuanYiMicroHei-35"/>
      </g>
     </g>
    </g>
    <g id="ytick_4">
     <g id="line2d_24">
      <g>
       <use style="stroke:#000000;stroke-width:0.5;" x="29.430205" xlink:href="#m728421d6d4" y="98.5987809375"/>
      </g>
     </g>
     <g id="line2d_25">
      <g>
       <use style="stroke:#000000;stroke-width:0.5;" x="364.230205" xlink:href="#mcb0005524f" y="98.5987809375"/>
      </g>
     </g>
     <g id="text_10">
      <!-- 0.0 -->
      <g transform="translate(12.685305 101.195398125)scale(0.09996 -0.09996)">
       <use xlink:href="#WenQuanYiMicroHei-30"/>
       <use x="55.078125" xlink:href="#WenQuanYiMicroHei-2e"/>
       <use x="81.884765625" xlink:href="#WenQuanYiMicroHei-30"/>
      </g>
     </g>
    </g>
    <g id="ytick_5">
     <g id="line2d_26">
      <g>
       <use style="stroke:#000000;stroke-width:0.5;" x="29.430205" xlink:href="#m728421d6d4" y="69.7987809375"/>
      </g>
     </g>
     <g id="line2d_27">
      <g>
       <use style="stroke:#000000;stroke-width:0.5;" x="364.230205" xlink:href="#mcb0005524f" y="69.7987809375"/>
      </g>
     </g>
     <g id="text_11">
      <!-- 0.5 -->
      <g transform="translate(12.77277 72.395398125)scale(0.09996 -0.09996)">
       <use xlink:href="#WenQuanYiMicroHei-30"/>
       <use x="55.078125" xlink:href="#WenQuanYiMicroHei-2e"/>
       <use x="81.884765625" xlink:href="#WenQuanYiMicroHei-35"/>
      </g>
     </g>
    </g>
    <g id="ytick_6">
     <g id="line2d_28">
      <g>
       <use style="stroke:#000000;stroke-width:0.5;" x="29.430205" xlink:href="#m728421d6d4" y="40.9987809375"/>
      </g>
     </g>
     <g id="line2d_29">
      <g>
       <use style="stroke:#000000;stroke-width:0.5;" x="364.230205" xlink:href="#mcb0005524f" y="40.9987809375"/>
      </g>
     </g>
     <g id="text_12">
      <!-- 1.0 -->
      <g transform="translate(13.07577375 43.595398125)scale(0.09996 -0.09996)">
       <use xlink:href="#WenQuanYiMicroHei-31"/>
       <use x="55.078125" xlink:href="#WenQuanYiMicroHei-2e"/>
       <use x="81.884765625" xlink:href="#WenQuanYiMicroHei-30"/>
      </g>
     </g>
    </g>
    <g id="ytick_7">
     <g id="line2d_30">
      <g>
       <use style="stroke:#000000;stroke-width:0.5;" x="29.430205" xlink:href="#m728421d6d4" y="12.1987809375"/>
      </g>
     </g>
     <g id="line2d_31">
      <g>
       <use style="stroke:#000000;stroke-width:0.5;" x="364.230205" xlink:href="#mcb0005524f" y="12.1987809375"/>
      </g>
     </g>
     <g id="text_13">
      <!-- 1.5 -->
      <g transform="translate(13.16323875 14.795398125)scale(0.09996 -0.09996)">
       <use xlink:href="#WenQuanYiMicroHei-31"/>
       <use x="55.078125" xlink:href="#WenQuanYiMicroHei-2e"/>
       <use x="81.884765625" xlink:href="#WenQuanYiMicroHei-35"/>
      </g>
     </g>
    </g>
   </g>
   <g id="legend_1">
    <g id="patch_7">
     <path d="
M281.334 180.001
L359.232 180.001
L359.232 117.02
L281.334 117.02
z
" style="fill:#ffffff;stroke:#000000;stroke-linejoin:miter;"/>
    </g>
    <g id="line2d_32">
     <path d="
M288.331 125.115
L302.325 125.115" style="fill:none;stroke:#348abd;stroke-linecap:square;stroke-width:2.0;"/>
    </g>
    <g id="line2d_33"/>
    <g id="text_14">
     <!-- nearest -->
     <defs>
      <path d="
M42 0
L42 34.5156
Q42 40.875 39.4219 44.0469
Q36.8594 47.2188 31.3906 47.2188
Q27.4375 47.2188 24.75 45.9375
Q22.0781 44.6719 20.4375 42.1875
Q18.7969 39.7031 18.0938 36.0781
Q17.3906 32.4688 17.3906 27.7812
L17.3906 0
L8.5 0
L8.5 53.6094
L15.7188 53.6094
L17 46.3906
L17.4844 46.3906
Q18.7031 48.4844 20.3906 50.0156
Q22.0781 51.5625 24.0781 52.5781
Q26.0781 53.6094 28.3125 54.0938
Q30.5625 54.5938 32.9062 54.5938
Q41.8438 54.5938 46.3594 49.9219
Q50.875 45.2656 50.875 35.0156
L50.875 0
z
" id="WenQuanYiMicroHei-6e"/>
      <path d="
M29.6875 -0.984375
Q24.3125 -0.984375 19.875 0.828125
Q15.4375 2.64062 12.2344 6.10938
Q9.03125 9.57812 7.26562 14.7031
Q5.51562 19.8281 5.51562 26.4219
Q5.51562 33.0625 7.125 38.2812
Q8.73438 43.5 11.6562 47.1406
Q14.5938 50.7812 18.6719 52.6875
Q22.75 54.5938 27.6875 54.5938
Q32.5156 54.5938 36.375 52.8594
Q40.2344 51.125 42.9219 47.9688
Q45.6094 44.8281 47.0469 40.4062
Q48.4844 35.9844 48.4844 30.6094
L48.4844 25.0938
L14.7031 25.0938
Q14.9375 15.6719 18.6719 11.2188
Q22.4062 6.78125 29.7812 6.78125
Q32.2812 6.78125 34.4062 7.03125
Q36.5312 7.28125 38.5 7.73438
Q40.4844 8.20312 42.3281 8.90625
Q44.1875 9.625 46.0938 10.5
L46.0938 2.59375
Q44.1406 1.65625 42.25 0.96875
Q40.375 0.296875 38.3906 -0.140625
Q36.4219 -0.59375 34.2969 -0.78125
Q32.1719 -0.984375 29.6875 -0.984375
M27.4844 47.2188
Q21.9219 47.2188 18.6719 43.4062
Q15.4375 39.5938 14.8906 32.3281
L38.9219 32.3281
Q38.9219 35.6406 38.25 38.3906
Q37.5938 41.1562 36.2031 43.1094
Q34.8125 45.0625 32.6562 46.1406
Q30.5156 47.2188 27.4844 47.2188" id="WenQuanYiMicroHei-65"/>
      <path d="
M24.7031 6.29688
Q25.5938 6.29688 26.6875 6.39062
Q27.7812 6.5 28.7969 6.64062
Q29.8281 6.78125 30.6875 6.96875
Q31.5469 7.17188 31.9844 7.32812
L31.9844 0.59375
Q31.3438 0.296875 30.3594 0
Q29.3906 -0.296875 28.2188 -0.515625
Q27.0469 -0.734375 25.7812 -0.859375
Q24.5156 -0.984375 23.2969 -0.984375
Q20.2656 -0.984375 17.6719 -0.1875
Q15.0938 0.59375 13.2031 2.48438
Q11.3281 4.39062 10.25 7.64062
Q9.1875 10.8906 9.1875 15.8281
L9.1875 46.9219
L1.60938 46.9219
L1.60938 50.875
L9.1875 54.6875
L12.9844 65.9219
L18.1094 65.9219
L18.1094 53.6094
L31.5938 53.6094
L31.5938 46.9219
L18.1094 46.9219
L18.1094 15.8281
Q18.1094 11.0781 19.6406 8.6875
Q21.1875 6.29688 24.7031 6.29688" id="WenQuanYiMicroHei-74"/>
      <path d="
M40.5781 14.7031
Q40.5781 10.7969 39.1562 7.85938
Q37.75 4.9375 35.0781 2.95312
Q32.4219 0.984375 28.6562 0
Q24.9062 -0.984375 20.2188 -0.984375
Q14.8906 -0.984375 11.0781 -0.125
Q7.28125 0.734375 4.39062 2.39062
L4.39062 10.5
Q5.90625 9.71875 7.76562 8.95312
Q9.625 8.20312 11.6719 7.60938
Q13.7188 7.03125 15.8906 6.65625
Q18.0625 6.29688 20.2188 6.29688
Q23.3906 6.29688 25.6094 6.82812
Q27.8281 7.375 29.2188 8.375
Q30.6094 9.375 31.25 10.8125
Q31.8906 12.25 31.8906 14.0156
Q31.8906 15.5312 31.3906 16.75
Q30.9062 17.9688 29.6094 19.1562
Q28.3281 20.3594 26.0781 21.5781
Q23.8281 22.7969 20.3125 24.3125
Q16.7969 25.8281 13.9844 27.2969
Q11.1875 28.7656 9.23438 30.5625
Q7.28125 32.375 6.21875 34.7344
Q5.17188 37.1094 5.17188 40.375
Q5.17188 43.7969 6.51562 46.4531
Q7.85938 49.125 10.2969 50.9219
Q12.75 52.7344 16.1562 53.6562
Q19.5781 54.5938 23.7812 54.5938
Q28.5156 54.5938 32.4375 53.5625
Q36.375 52.5469 39.8906 50.875
L36.8125 43.7031
Q33.6406 45.125 30.2969 46.1719
Q26.9531 47.2188 23.4844 47.2188
Q18.5 47.2188 16.1094 45.5781
Q13.7188 43.9531 13.7188 40.9219
Q13.7188 39.2031 14.2812 37.9375
Q14.8438 36.6719 16.2031 35.5469
Q17.5781 34.4219 19.875 33.2656
Q22.1719 32.125 25.5938 30.7188
Q29.1094 29.25 31.8594 27.7812
Q34.625 26.3125 36.5781 24.4844
Q38.5312 22.6562 39.5469 20.3125
Q40.5781 17.9688 40.5781 14.7031" id="WenQuanYiMicroHei-73"/>
      <path d="
M31.6875 54.5938
Q33.1094 54.5938 34.8594 54.4688
Q36.625 54.3438 37.8906 54.1094
L36.7188 45.9062
Q35.3594 46.1406 33.9062 46.3125
Q32.4688 46.4844 31.2031 46.4844
Q28.125 46.4844 25.5781 45.2344
Q23.0469 44 21.2188 41.6719
Q19.3906 39.3594 18.3906 36.1094
Q17.3906 32.8594 17.3906 28.9062
L17.3906 0
L8.5 0
L8.5 53.6094
L15.7188 53.6094
L16.7969 43.7969
L17.1875 43.7969
Q18.4062 45.9062 19.7969 47.8594
Q21.1875 49.8125 22.9219 51.2969
Q24.6562 52.7812 26.7969 53.6875
Q28.9531 54.5938 31.6875 54.5938" id="WenQuanYiMicroHei-72"/>
      <path d="
M38.7188 0
L36.9219 7.42188
L36.5312 7.42188
Q34.9062 5.21875 33.2969 3.625
Q31.6875 2.04688 29.7812 1.01562
Q27.875 0 25.5312 -0.484375
Q23.1875 -0.984375 20.125 -0.984375
Q16.75 -0.984375 13.9062 -0.03125
Q11.0781 0.921875 9 2.90625
Q6.9375 4.89062 5.76562 7.89062
Q4.59375 10.8906 4.59375 14.9844
Q4.59375 23 10.2344 27.2969
Q15.875 31.5938 27.3906 31.9844
L36.375 32.3281
L36.375 35.6875
Q36.375 38.9688 35.6719 41.1562
Q34.9688 43.3594 33.625 44.7031
Q32.2812 46.0469 30.2969 46.625
Q28.3281 47.2188 25.7812 47.2188
Q21.7344 47.2188 18.2344 46.0469
Q14.75 44.875 11.5312 43.2188
L8.40625 49.9062
Q12.0156 51.8594 16.4531 53.2188
Q20.9062 54.5938 25.7812 54.5938
Q30.7656 54.5938 34.3906 53.5938
Q38.0312 52.5938 40.4062 50.4219
Q42.7812 48.25 43.9531 44.875
Q45.125 41.5 45.125 36.7188
L45.125 0
z

M22.4062 6.20312
Q25.3906 6.20312 27.9219 7.125
Q30.4688 8.0625 32.3281 9.9375
Q34.1875 11.8125 35.2344 14.6719
Q36.2812 17.5312 36.2812 21.3906
L36.2812 26.2188
L29.2969 25.875
Q24.9062 25.6875 21.9219 24.9062
Q18.9531 24.125 17.1562 22.7344
Q15.375 21.3438 14.5938 19.3594
Q13.8125 17.3906 13.8125 14.8906
Q13.8125 10.4062 16.1875 8.29688
Q18.5625 6.20312 22.4062 6.20312" id="WenQuanYiMicroHei-61"/>
     </defs>
     <g transform="translate(313.320889375 128.613531563)scale(0.09996 -0.09996)">
      <use xlink:href="#WenQuanYiMicroHei-6e"/>
      <use x="58.88671875" xlink:href="#WenQuanYiMicroHei-65"/>
      <use x="112.40234375" xlink:href="#WenQuanYiMicroHei-61"/>
      <use x="165.478515625" xlink:href="#WenQuanYiMicroHei-72"/>
      <use x="205.37109375" xlink:href="#WenQuanYiMicroHei-65"/>
      <use x="258.88671875" xlink:href="#WenQuanYiMicroHei-73"/>
      <use x="304.00390625" xlink:href="#WenQuanYiMicroHei-74"/>
     </g>
    </g>
    <g id="line2d_34">
     <path d="
M288.331 140.11
L302.325 140.11" style="fill:none;stroke:#a60628;stroke-linecap:square;stroke-width:2.0;"/>
    </g>
    <g id="line2d_35"/>
    <g id="text_15">
     <!-- zero -->
     <defs>
      <path d="
M52.2031 26.9062
Q52.2031 20.2188 50.5625 15.0156
Q48.9219 9.8125 45.875 6.26562
Q42.8281 2.73438 38.4688 0.875
Q34.125 -0.984375 28.7188 -0.984375
Q23.6875 -0.984375 19.4375 0.875
Q15.1875 2.73438 12.0781 6.26562
Q8.98438 9.8125 7.25 15.0156
Q5.51562 20.2188 5.51562 26.9062
Q5.51562 33.5469 7.15625 38.6875
Q8.79688 43.8438 11.8125 47.375
Q14.8438 50.9219 19.2031 52.75
Q23.5781 54.5938 29 54.5938
Q34.0312 54.5938 38.2812 52.75
Q42.5312 50.9219 45.625 47.375
Q48.7344 43.8438 50.4688 38.6875
Q52.2031 33.5469 52.2031 26.9062
M14.7031 26.9062
Q14.7031 16.7031 18.0469 11.5469
Q21.3906 6.39062 28.9062 6.39062
Q36.4219 6.39062 39.7188 11.5469
Q43.0156 16.7031 43.0156 26.9062
Q43.0156 37.1094 39.6719 42.1562
Q36.3281 47.2188 28.8125 47.2188
Q21.2969 47.2188 18 42.1562
Q14.7031 37.1094 14.7031 26.9062" id="WenQuanYiMicroHei-6f"/>
      <path d="
M40.0938 0
L4 0
L4 6.10938
L30.1719 46.9219
L5.60938 46.9219
L5.60938 53.6094
L39.2031 53.6094
L39.2031 46.4844
L13.625 6.6875
L40.0938 6.6875
z
" id="WenQuanYiMicroHei-7a"/>
     </defs>
     <g transform="translate(313.320889375 143.609093438)scale(0.09996 -0.09996)">
      <use xlink:href="#WenQuanYiMicroHei-7a"/>
      <use x="44.091796875" xlink:href="#WenQuanYiMicroHei-65"/>
      <use x="97.607421875" xlink:href="#WenQuanYiMicroHei-72"/>
      <use x="137.5" xlink:href="#WenQuanYiMicroHei-6f"/>
     </g>
    </g>
    <g id="line2d_36">
     <path d="
M288.331 155.106
L302.325 155.106" style="fill:none;stroke:#7a68a6;stroke-linecap:square;stroke-width:2.0;"/>
    </g>
    <g id="line2d_37"/>
    <g id="text_16">
     <!-- slinear -->
     <defs>
      <path d="
M17.3906 0
L8.5 0
L8.5 53.6094
L17.3906 53.6094
z

M7.8125 68.1094
Q7.8125 71.0469 9.29688 72.3594
Q10.7969 73.6875 12.9844 73.6875
Q14.0625 73.6875 15.0156 73.3594
Q15.9688 73.0469 16.6719 72.3594
Q17.3906 71.6875 17.7969 70.625
Q18.2188 69.5781 18.2188 68.1094
Q18.2188 65.2812 16.6719 63.8906
Q15.1406 62.5 12.9844 62.5
Q10.7969 62.5 9.29688 63.8594
Q7.8125 65.2344 7.8125 68.1094" id="WenQuanYiMicroHei-69"/>
      <path d="
M17.3906 0
L8.5 0
L8.5 75.9844
L17.3906 75.9844
z
" id="WenQuanYiMicroHei-6c"/>
     </defs>
     <g transform="translate(313.320889375 158.604655313)scale(0.09996 -0.09996)">
      <use xlink:href="#WenQuanYiMicroHei-73"/>
      <use x="45.1171875" xlink:href="#WenQuanYiMicroHei-6c"/>
      <use x="70.99609375" xlink:href="#WenQuanYiMicroHei-69"/>
      <use x="96.875" xlink:href="#WenQuanYiMicroHei-6e"/>
      <use x="155.76171875" xlink:href="#WenQuanYiMicroHei-65"/>
      <use x="209.27734375" xlink:href="#WenQuanYiMicroHei-61"/>
      <use x="262.353515625" xlink:href="#WenQuanYiMicroHei-72"/>
     </g>
    </g>
    <g id="line2d_38">
     <path d="
M288.331 170.102
L302.325 170.102" style="fill:none;stroke:#467821;stroke-linecap:square;stroke-width:2.0;"/>
    </g>
    <g id="line2d_39"/>
    <g id="text_17">
     <!-- quadratic -->
     <defs>
      <path d="
M41.6094 7.17188
L41.2188 7.17188
Q40.1406 5.51562 38.6875 4.03125
Q37.25 2.54688 35.375 1.42188
Q33.5 0.296875 31.1562 -0.34375
Q28.8125 -0.984375 25.875 -0.984375
Q21.3438 -0.984375 17.5781 0.78125
Q13.8125 2.54688 11.125 6.03125
Q8.45312 9.51562 6.98438 14.6875
Q5.51562 19.875 5.51562 26.7031
Q5.51562 33.5938 6.98438 38.7969
Q8.45312 44 11.125 47.5156
Q13.8125 51.0312 17.5781 52.8125
Q21.3438 54.5938 25.875 54.5938
Q28.7656 54.5938 31.1094 53.9531
Q33.4531 53.3281 35.3281 52.25
Q37.2031 51.1719 38.6719 49.75
Q40.1406 48.3438 41.2188 46.7812
L41.7969 46.7812
Q41.6562 48.4375 41.5 49.9531
Q41.4062 51.2188 41.3125 52.5625
Q41.2188 53.9062 41.2188 54.6875
L41.2188 75.9844
L50.0938 75.9844
L50.0938 0
L42.9219 0
z

M27.5938 6.39062
Q31.2969 6.39062 33.8594 7.51562
Q36.4219 8.64062 38 10.9375
Q39.5938 13.2344 40.3438 16.6719
Q41.1094 20.125 41.2188 24.7031
L41.2188 26.7031
Q41.2188 31.6406 40.5469 35.4688
Q39.8906 39.3125 38.2969 41.9219
Q36.7188 44.5312 34.0781 45.875
Q31.4531 47.2188 27.4844 47.2188
Q20.9062 47.2188 17.7969 41.8906
Q14.7031 36.5781 14.7031 26.6094
Q14.7031 16.4062 17.7969 11.3906
Q20.9062 6.39062 27.5938 6.39062" id="WenQuanYiMicroHei-64"/>
      <path d="
M43.2188 0
L41.8906 7.17188
L41.4062 7.17188
Q40.1875 5.07812 38.5 3.53125
Q36.8125 2 34.8125 1
Q32.8125 0 30.5625 -0.484375
Q28.3281 -0.984375 25.9844 -0.984375
Q21.5312 -0.984375 18.1562 0.140625
Q14.7969 1.26562 12.5469 3.65625
Q10.2969 6.0625 9.15625 9.76562
Q8.01562 13.4844 8.01562 18.6094
L8.01562 53.6094
L16.8906 53.6094
L16.8906 19.0938
Q16.8906 12.75 19.4844 9.5625
Q22.0781 6.39062 27.4844 6.39062
Q31.4531 6.39062 34.125 7.65625
Q36.8125 8.9375 38.4531 11.4062
Q40.0938 13.875 40.7969 17.4844
Q41.5 21.0938 41.5 25.7812
L41.5 53.6094
L50.3906 53.6094
L50.3906 0
z
" id="WenQuanYiMicroHei-75"/>
      <path d="
M27.5938 6.39062
Q31.2969 6.39062 33.8594 7.51562
Q36.4219 8.64062 38 10.9375
Q39.5938 13.2344 40.3438 16.6719
Q41.1094 20.125 41.2188 24.7031
L41.2188 26.7031
Q41.2188 31.6406 40.5469 35.4688
Q39.8906 39.3125 38.2969 41.9219
Q36.7188 44.5312 34.0781 45.875
Q31.4531 47.2188 27.4844 47.2188
Q20.9062 47.2188 17.7969 41.8906
Q14.7031 36.5781 14.7031 26.6094
Q14.7031 16.4062 17.7969 11.3906
Q20.9062 6.39062 27.5938 6.39062
M25.875 -0.984375
Q21.3438 -0.984375 17.5781 0.78125
Q13.8125 2.54688 11.125 6.03125
Q8.45312 9.51562 6.98438 14.6875
Q5.51562 19.875 5.51562 26.7031
Q5.51562 33.5938 6.98438 38.7969
Q8.45312 44 11.125 47.5156
Q13.8125 51.0312 17.5781 52.8125
Q21.3438 54.5938 25.875 54.5938
Q28.7656 54.5938 31.1094 53.9219
Q33.4531 53.2656 35.2969 52.1719
Q37.1562 51.0781 38.625 49.5781
Q40.0938 48.0938 41.2188 46.3906
L41.6094 46.3906
L42.9219 53.6094
L50.0938 53.6094
L50.0938 -24.0312
L41.2188 -24.0312
L41.2188 -1.125
Q41.2188 -0.203125 41.3125 1.21875
Q41.4062 2.64062 41.5 3.95312
Q41.6562 5.51562 41.7969 7.17188
L41.2188 7.17188
Q40.1406 5.51562 38.6875 4.03125
Q37.25 2.54688 35.375 1.42188
Q33.5 0.296875 31.1562 -0.34375
Q28.8125 -0.984375 25.875 -0.984375" id="WenQuanYiMicroHei-71"/>
      <path d="
M29 -0.984375
Q24.0781 -0.984375 19.7812 0.546875
Q15.4844 2.09375 12.2969 5.4375
Q9.125 8.79688 7.3125 13.9844
Q5.51562 19.1875 5.51562 26.5156
Q5.51562 34.1875 7.375 39.5312
Q9.23438 44.875 12.4688 48.2188
Q15.7188 51.5625 20.0625 53.0781
Q24.4219 54.5938 29.3906 54.5938
Q33.2031 54.5938 36.8438 53.7656
Q40.4844 52.9375 42.9219 51.7031
L40.2812 44.1875
Q39.1562 44.6719 37.7812 45.1406
Q36.4219 45.6094 34.9531 45.9688
Q33.5 46.3438 32.0781 46.5625
Q30.6719 46.7812 29.3906 46.7812
Q21.7344 46.7812 18.2188 41.875
Q14.7031 36.9688 14.7031 26.6094
Q14.7031 16.3125 18.2344 11.5469
Q21.7812 6.78125 29 6.78125
Q32.9531 6.78125 36.1562 7.6875
Q39.3594 8.59375 42 9.8125
L42 1.90625
Q39.3594 0.484375 36.3438 -0.25
Q33.3438 -0.984375 29 -0.984375" id="WenQuanYiMicroHei-63"/>
     </defs>
     <g transform="translate(313.320889375 173.600217187)scale(0.09996 -0.09996)">
      <use xlink:href="#WenQuanYiMicroHei-71"/>
      <use x="58.59375" xlink:href="#WenQuanYiMicroHei-75"/>
      <use x="117.48046875" xlink:href="#WenQuanYiMicroHei-61"/>
      <use x="170.556640625" xlink:href="#WenQuanYiMicroHei-64"/>
      <use x="229.150390625" xlink:href="#WenQuanYiMicroHei-72"/>
      <use x="269.04296875" xlink:href="#WenQuanYiMicroHei-61"/>
      <use x="322.119140625" xlink:href="#WenQuanYiMicroHei-74"/>
      <use x="356.005859375" xlink:href="#WenQuanYiMicroHei-69"/>
      <use x="381.884765625" xlink:href="#WenQuanYiMicroHei-63"/>
     </g>
    </g>
   </g>
  </g>
 </g>
 <defs>
  <clipPath id="p7559c7b864">
   <rect height="172.8" width="334.8" x="29.430205" y="12.1987809375"/>
  </clipPath>
 </defs>
</svg>
