<?xml version="1.0" encoding="utf-8" standalone="no"?>
<!DOCTYPE svg PUBLIC "-//W3C//DTD SVG 1.1//EN"
  "http://www.w3.org/Graphics/SVG/1.1/DTD/svg11.dtd">
<!-- Created with matplotlib (http://matplotlib.org/) -->
<svg height="263pt" version="1.1" viewBox="0 0 545 263" width="545pt" xmlns="http://www.w3.org/2000/svg" xmlns:xlink="http://www.w3.org/1999/xlink">
 <defs>
  <style type="text/css">
*{stroke-linecap:butt;stroke-linejoin:round;}
  </style>
 </defs>
 <g id="figure_1">
  <g id="patch_1">
   <path d="
M0 263.796
L545.007 263.796
L545.007 -5.68434e-14
L0 -5.68434e-14
z
" style="fill:#ffffff;"/>
  </g>
  <g id="axes_1">
   <g id="patch_2">
    <path d="
M29.4302 242.599
L531.63 242.599
L531.63 12.1988
L29.4302 12.1988
z
" style="fill:#ffffff;"/>
   </g>
   <g id="line2d_1">
    <path clip-path="url(#p66d213601c)" d="
M29.4302 181.958
L29.9329 195.044
L30.4356 206.069
L30.9383 214.626
L31.441 220.41
L31.9437 223.228
L32.4464 223.003
L32.9491 219.779
L33.4518 213.717
L33.9545 205.089
L34.9599 181.703
L37.9762 100.751
L38.4789 91.4877
L38.9816 84.6466
L39.4843 80.5039
L39.987 79.2305
L40.4897 80.8859
L40.9924 85.4171
L41.4951 92.6614
L42.5005 114.134
L44.0086 157.375
L45.5167 201.162
L46.5221 223.603
L47.0248 231.506
L47.5275 236.802
L48.0302 239.314
L48.5329 238.97
L49.0356 235.801
L49.5383 229.945
L50.041 221.634
L51.0464 199.014
L54.5653 106.884
L55.068 98.6399
L55.5707 92.7931
L56.0734 89.549
L56.5762 89.0185
L57.0789 91.2139
L57.5816 96.0499
L58.0843 103.347
L59.0897 124.182
L60.5978 165.014
L62.1059 205.784
L63.1113 226.583
L63.614 233.903
L64.1167 238.808
L64.6194 241.13
L65.1221 240.791
L65.6248 237.804
L66.1275 232.274
L66.6302 224.389
L67.6356 202.706
L69.1437 161.251
L70.6518 120.095
L71.6572 98.8136
L72.1599 91.1147
L72.6626 85.7178
L73.1653 82.7817
L73.668 82.3824
L74.1707 84.5104
L74.6734 89.0724
L75.1762 95.8942
L76.1816 115.26
L77.6897 153.175
L79.1978 191.375
L80.2032 211.281
L80.7059 218.493
L81.2086 223.529
L81.7113 226.216
L82.214 226.456
L82.7167 224.23
L83.2194 219.597
L83.7221 212.692
L84.7275 192.961
L85.7329 167.402
L88.2464 98.7724
L89.2518 77.9305
L89.7545 70.2761
L90.2572 64.7639
L90.7599 61.5345
L91.2626 60.6571
L91.7653 62.1283
L92.268 65.8723
L92.7707 71.7443
L93.7762 88.9786
L94.7816 111.523
L97.2951 171.418
L98.3005 188.819
L98.8032 194.853
L99.3059 198.831
L99.8086 200.619
L100.311 200.15
L100.814 197.422
L101.317 192.503
L101.819 185.522
L102.825 166.185
L103.83 141.527
L106.344 74.9311
L107.349 53.8792
L107.852 45.7839
L108.355 39.5982
L108.857 35.4714
L109.36 33.4936
L109.863 33.6937
L110.365 36.0395
L110.868 40.4386
L111.371 46.7416
L112.376 64.2078
L113.884 98.3111
L115.895 144.433
L116.9 161.807
L117.403 168.118
L117.906 172.587
L118.409 175.088
L118.911 175.544
L119.414 173.938
L119.917 170.306
L120.419 164.741
L121.425 148.432
L122.43 126.692
L125.949 42.2605
L126.955 25.876
L127.457 20.2088
L127.96 16.4172
L128.463 14.5851
L128.965 14.7457
L129.468 16.8809
L129.971 20.9226
L130.473 26.7549
L131.479 43.1078
L132.484 64.2063
L135.5 133.277
L136.506 150.509
L137.009 156.948
L137.511 161.716
L138.014 164.703
L138.517 165.844
L139.019 165.118
L139.522 162.551
L140.025 158.214
L140.528 152.221
L141.533 135.921
L142.538 115.281
L145.555 48.3925
L146.56 31.6116
L147.063 25.2823
L147.565 20.538
L148.068 17.4902
L148.571 16.2109
L149.073 16.7305
L149.576 19.0376
L150.079 23.0801
L150.582 28.7664
L151.587 44.5218
L152.592 64.8956
L156.614 154.229
L157.619 168.893
L158.122 174.036
L158.625 177.58
L159.128 179.467
L159.63 179.674
L160.133 178.217
L160.636 175.146
L161.138 170.549
L162.144 157.284
L163.149 139.715
L167.171 61.5049
L168.176 48.8707
L168.679 44.5776
L169.182 41.7757
L169.684 40.5321
L170.187 40.8813
L170.69 42.8245
L171.192 46.3301
L171.695 51.3344
L172.7 65.4358
L173.706 84.0575
L175.214 117.29
L177.225 162.615
L178.23 181.922
L179.236 197.072
L179.738 202.749
L180.241 207.031
L180.744 209.855
L181.246 211.184
L181.749 211.016
L182.252 209.373
L182.755 206.309
L183.257 201.902
L184.263 189.501
L185.268 173.268
L187.279 134.945
L188.787 107.202
L189.792 91.9735
L190.798 80.7884
L191.3 77.0009
L191.803 74.5256
L192.306 73.4134
L192.809 73.6898
L193.311 75.3546
L193.814 78.3822
L194.317 82.7224
L195.322 95.0235
L196.328 111.416
L197.836 141.165
L200.349 193.089
L201.355 210.645
L202.36 224.57
L202.863 229.889
L203.365 234
L203.868 236.843
L204.371 238.383
L204.873 238.605
L205.376 237.517
L205.879 235.148
L206.382 231.55
L206.884 226.793
L207.89 214.177
L208.895 198.209
L210.906 160.779
L212.917 124.399
L213.922 109.593
L214.928 98.3443
L215.43 94.2788
L215.933 91.3381
L216.436 89.5635
L216.938 88.9774
L217.441 89.5829
L217.944 91.3643
L218.446 94.2873
L218.949 98.2999
L219.955 109.304
L220.96 123.648
L222.468 149.373
L225.484 202.411
L226.49 216.586
L227.495 227.479
L227.998 231.485
L228.5 234.448
L229.003 236.325
L229.506 237.088
L230.009 236.727
L230.511 235.246
L231.014 232.666
L231.517 229.025
L232.522 218.775
L233.528 205.065
L235.036 179.695
L239.057 106.37
L240.063 91.8812
L241.068 80.5003
L242.073 72.7371
L242.576 70.3164
L243.079 68.8987
L243.582 68.4888
L244.084 69.0781
L244.587 70.6449
L245.09 73.1549
L245.592 76.5614
L246.598 85.8223
L247.603 97.8456
L249.111 119.472
L252.63 172.081
L253.636 183.966
L254.641 193.177
L255.144 196.621
L255.646 199.225
L256.149 200.953
L256.652 201.78
L257.155 201.692
L257.657 200.686
L258.16 198.771
L258.663 195.966
L259.165 192.299
L260.171 182.549
L261.176 169.942
L262.684 146.903
L267.711 62.6118
L268.717 49.6147
L269.722 39.2501
L270.728 31.8833
L271.23 29.4016
L271.733 27.7448
L272.236 26.9196
L272.738 26.9237
L273.241 27.7463
L273.744 29.3678
L274.246 31.7607
L275.252 38.7119
L276.257 48.2328
L277.263 59.8585
L278.771 80.0473
L282.29 129.386
L283.798 146.706
L284.803 155.732
L285.809 162.324
L286.311 164.628
L286.814 166.24
L287.317 167.148
L287.819 167.345
L288.322 166.831
L288.825 165.615
L289.328 163.71
L289.83 161.137
L290.836 154.099
L291.841 144.781
L292.846 133.544
L294.355 114.033
L298.879 51.8823
L300.387 35.3992
L301.392 26.7768
L302.398 20.3807
L302.9 18.0827
L303.403 16.4091
L303.906 15.3718
L304.409 14.9773
L304.911 15.2267
L305.414 16.1162
L305.917 17.6367
L306.419 19.7742
L307.425 25.8209
L308.43 34.0542
L309.436 44.2084
L310.944 62.3325
L312.955 89.9346
L316.473 138.681
L317.982 156.421
L318.987 166.4
L319.992 174.625
L320.998 180.921
L322.003 185.173
L322.506 186.514
L323.009 187.328
L323.511 187.619
L324.014 187.393
L324.517 186.658
L325.019 185.43
L325.522 183.724
L326.528 178.96
L327.533 172.557
L328.538 164.745
L330.046 150.964
L332.56 124.949
L335.073 99.2584
L336.582 85.869
L337.587 78.3031
L338.592 72.0611
L339.598 67.3036
L340.1 65.521
L340.603 64.1519
L341.106 63.2049
L341.609 62.6861
L342.111 62.5991
L342.614 62.9449
L343.117 63.7218
L343.619 64.9259
L344.122 66.5506
L345.128 71.0246
L346.133 77.0474
L347.138 84.4901
L348.646 97.9663
L350.155 113.653
L352.668 142.761
L356.187 183.864
L358.198 204.435
L359.706 217.381
L360.711 224.573
L361.717 230.493
L362.722 235.065
L363.728 238.241
L364.23 239.298
L364.733 239.998
L365.236 240.344
L365.738 240.339
L366.241 239.985
L366.744 239.289
L367.246 238.257
L368.252 235.221
L369.257 230.957
L370.263 225.563
L371.268 219.152
L372.776 207.904
L374.787 190.595
L378.306 157.253
L381.322 129.555
L383.333 113.338
L384.841 102.928
L386.349 94.3015
L387.355 89.6303
L388.36 85.8653
L389.365 83.0266
L390.371 81.1207
L390.873 80.516
L391.376 80.1412
L391.879 79.9933
L392.382 80.0691
L392.884 80.3643
L393.387 80.8741
L393.89 81.5931
L394.895 83.634
L395.9 86.4323
L396.906 89.9256
L398.414 96.3165
L399.922 103.861
L401.933 115.244
L405.452 136.942
L408.468 155.132
L410.479 166.04
L411.987 173.244
L413.495 179.432
L415.003 184.479
L416.009 187.161
L417.014 189.273
L418.019 190.801
L419.025 191.738
L419.528 191.984
L420.03 192.081
L420.533 192.032
L421.036 191.835
L421.538 191.494
L422.544 190.381
L423.549 188.71
L424.555 186.5
L425.56 183.775
L427.068 178.783
L428.576 172.799
L430.084 165.938
L432.095 155.642
L434.609 141.365
L438.128 119.842
L443.657 85.888
L446.673 68.9085
L449.187 56.2132
L451.198 47.2108
L453.209 39.3465
L454.717 34.2384
L456.225 29.829
L457.733 26.1277
L459.241 23.1361
L460.246 21.5334
L461.252 20.2402
L462.257 19.252
L463.263 18.5629
L464.268 18.1663
L465.273 18.0546
L466.279 18.2192
L467.284 18.6511
L468.29 19.3404
L469.295 20.277
L470.3 21.4499
L471.809 23.6281
L473.317 26.2742
L474.825 29.3487
L476.836 34.0446
L478.846 39.3351
L481.36 46.6409
L484.376 56.1902
L488.398 69.7786
L499.457 107.719
L502.976 118.832
L505.992 127.673
L509.009 135.765
L511.522 141.87
L514.036 147.348
L516.046 151.254
L518.057 154.719
L520.068 157.73
L522.079 160.277
L523.587 161.876
L525.095 163.205
L526.603 164.262
L528.111 165.045
L529.619 165.553
L531.128 165.783
L531.63 165.799
L531.63 165.799" style="fill:none;stroke:#348abd;stroke-linecap:square;stroke-width:2.0;"/>
   </g>
   <g id="line2d_2">
    <path clip-path="url(#p66d213601c)" d="
M29.4302 159.495
L39.987 158.054
L50.041 156.454
L59.5924 154.712
L69.1437 152.74
L78.1924 150.65
L87.241 148.34
L96.2897 145.808
L105.841 142.897
L115.392 139.751
L125.446 136.205
L136.506 132.057
L149.073 127.092
L166.165 120.076
L190.295 110.189
L201.857 105.712
L211.409 102.253
L219.955 99.3978
L227.495 97.1036
L234.533 95.1787
L241.571 93.4845
L248.106 92.1344
L254.641 91.0129
L261.176 90.131
L267.209 89.5373
L273.241 89.1604
L279.273 89.0036
L285.306 89.0682
L291.338 89.3537
L297.371 89.8576
L303.403 90.5755
L309.938 91.5877
L316.473 92.8338
L323.009 94.3015
L330.046 96.1136
L337.587 98.299
L345.63 100.878
L354.176 103.86
L363.728 107.432
L375.29 112.004
L392.884 119.242
L415.003 128.304
L427.571 133.211
L438.63 137.293
L448.684 140.769
L458.236 143.842
L467.787 146.676
L476.836 149.135
L485.884 151.371
L494.933 153.388
L504.484 155.287
L514.036 156.959
L524.09 158.49
L531.63 159.495
L531.63 159.495" style="fill:none;stroke:#a60628;stroke-linecap:square;stroke-width:2.0;"/>
   </g>
   <g id="line2d_3">
    <defs>
     <path d="
M-3 3
L3 -3
M-3 -3
L3 3" id="mf164f45cc5" style="stroke:#000000;"/>
    </defs>
    <g clip-path="url(#p66d213601c)">
     <use style="stroke:#000000;" x="28.6773737495" xlink:href="#mf164f45cc5" y="159.588590871"/>
     <use style="stroke:#000000;" x="35.7864836145" xlink:href="#mf164f45cc5" y="158.655505989"/>
     <use style="stroke:#000000;" x="44.0107853273" xlink:href="#mf164f45cc5" y="157.441698417"/>
     <use style="stroke:#000000;" x="52.5843515173" xlink:href="#mf164f45cc5" y="156.012301091"/>
     <use style="stroke:#000000;" x="60.2314860989" xlink:href="#mf164f45cc5" y="154.587565848"/>
     <use style="stroke:#000000;" x="69.4422696222" xlink:href="#mf164f45cc5" y="152.674532759"/>
     <use style="stroke:#000000;" x="77.6000304053" xlink:href="#mf164f45cc5" y="150.793849826"/>
     <use style="stroke:#000000;" x="86.40522981" xlink:href="#mf164f45cc5" y="148.562744932"/>
     <use style="stroke:#000000;" x="96.1668178512" xlink:href="#mf164f45cc5" y="145.843451947"/>
     <use style="stroke:#000000;" x="103.75288581" xlink:href="#mf164f45cc5" y="143.553637381"/>
     <use style="stroke:#000000;" x="115.661939203" xlink:href="#mf164f45cc5" y="139.659270968"/>
     <use style="stroke:#000000;" x="121.957331947" xlink:href="#mf164f45cc5" y="137.461352629"/>
     <use style="stroke:#000000;" x="135.459022501" xlink:href="#mf164f45cc5" y="132.45943762"/>
     <use style="stroke:#000000;" x="141.840613991" xlink:href="#mf164f45cc5" y="129.977621701"/>
     <use style="stroke:#000000;" x="155.147199047" xlink:href="#mf164f45cc5" y="124.622344593"/>
     <use style="stroke:#000000;" x="164.084981345" xlink:href="#mf164f45cc5" y="120.93787792"/>
     <use style="stroke:#000000;" x="175.172981514" xlink:href="#mf164f45cc5" y="116.342925021"/>
     <use style="stroke:#000000;" x="188.571768312" xlink:href="#mf164f45cc5" y="110.877133226"/>
     <use style="stroke:#000000;" x="196.128502369" xlink:href="#mf164f45cc5" y="107.896903205"/>
     <use style="stroke:#000000;" x="214.640880116" xlink:href="#mf164f45cc5" y="101.143702067"/>
     <use style="stroke:#000000;" x="219.096459024" xlink:href="#mf164f45cc5" y="99.6729006519"/>
     <use style="stroke:#000000;" x="239.912534632" xlink:href="#mf164f45cc5" y="93.8618517393"/>
     <use style="stroke:#000000;" x="247.165473696" xlink:href="#mf164f45cc5" y="92.3149271659"/>
     <use style="stroke:#000000;" x="265.982816693" xlink:href="#mf164f45cc5" y="89.6405178869"/>
     <use style="stroke:#000000;" x="279.397896458" xlink:href="#mf164f45cc5" y="89.002685086"/>
     <use style="stroke:#000000;" x="296.07643327" xlink:href="#mf164f45cc5" y="89.7312320563"/>
     <use style="stroke:#000000;" x="313.110908001" xlink:href="#mf164f45cc5" y="92.1641275559"/>
     <use style="stroke:#000000;" x="335.248845011" xlink:href="#mf164f45cc5" y="97.5959225509"/>
     <use style="stroke:#000000;" x="349.05695941" xlink:href="#mf164f45cc5" y="102.046171605"/>
     <use style="stroke:#000000;" x="383.087095139" xlink:href="#mf164f45cc5" y="115.187928657"/>
     <use style="stroke:#000000;" x="403.301748476" xlink:href="#mf164f45cc5" y="123.550595883"/>
     <use style="stroke:#000000;" x="435.479367042" xlink:href="#mf164f45cc5" y="136.155641075"/>
     <use style="stroke:#000000;" x="520.210228856" xlink:href="#mf164f45cc5" y="157.925832944"/>
    </g>
   </g>
   <g id="patch_3">
    <path d="
M29.4302 12.1988
L531.63 12.1988" style="fill:none;stroke:#000000;stroke-linecap:square;stroke-linejoin:miter;"/>
   </g>
   <g id="patch_4">
    <path d="
M531.63 242.599
L531.63 12.1988" style="fill:none;stroke:#000000;stroke-linecap:square;stroke-linejoin:miter;"/>
   </g>
   <g id="patch_5">
    <path d="
M29.4302 242.599
L531.63 242.599" style="fill:none;stroke:#000000;stroke-linecap:square;stroke-linejoin:miter;"/>
   </g>
   <g id="patch_6">
    <path d="
M29.4302 242.599
L29.4302 12.1988" style="fill:none;stroke:#000000;stroke-linecap:square;stroke-linejoin:miter;"/>
   </g>
   <g id="matplotlib.axis_1">
    <g id="xtick_1">
     <g id="line2d_4">
      <defs>
       <path d="
M0 0
L0 -4" id="m93b0483c22" style="stroke:#000000;stroke-width:0.5;"/>
      </defs>
      <g>
       <use style="stroke:#000000;stroke-width:0.5;" x="29.430205" xlink:href="#m93b0483c22" y="242.598780937"/>
      </g>
     </g>
     <g id="line2d_5">
      <defs>
       <path d="
M0 0
L0 4" id="m741efc42ff" style="stroke:#000000;stroke-width:0.5;"/>
      </defs>
      <g>
       <use style="stroke:#000000;stroke-width:0.5;" x="29.430205" xlink:href="#m741efc42ff" y="12.1987809375"/>
      </g>
     </g>
     <g id="text_1">
      <!-- −1.0 -->
      <defs>
       <path d="
M34.7188 0
L26.125 0
L26.125 44.5781
Q26.125 46.6875 26.1406 49.0781
Q26.1719 51.4688 26.2344 53.8281
Q26.3125 56.2031 26.3906 58.375
Q26.4688 60.5469 26.5156 62.2031
Q25.6875 61.3281 25.0469 60.6875
Q24.4219 60.0625 23.75 59.4688
Q23.0938 58.8906 22.3594 58.2188
Q21.625 57.5625 20.6094 56.6875
L13.375 50.7812
L8.6875 56.7812
L27.3906 71.3906
L34.7188 71.3906
z
" id="WenQuanYiMicroHei-31"/>
       <path d="
M50.3906 35.7969
Q50.3906 27.1562 49.1406 20.3125
Q47.9062 13.4844 45.1406 8.73438
Q42.3906 4 38.0312 1.5
Q33.6875 -0.984375 27.4844 -0.984375
Q21.7344 -0.984375 17.4531 1.5
Q13.1875 4 10.375 8.73438
Q7.5625 13.4844 6.17188 20.3125
Q4.78125 27.1562 4.78125 35.7969
Q4.78125 44.4375 6.03125 51.2656
Q7.28125 58.1094 9.98438 62.8125
Q12.7031 67.5312 17.0156 70.0156
Q21.3438 72.5156 27.4844 72.5156
Q33.2969 72.5156 37.5938 70.0469
Q41.8906 67.5781 44.7188 62.8594
Q47.5625 58.1562 48.9688 51.3125
Q50.3906 44.4844 50.3906 35.7969
M13.8125 35.7969
Q13.8125 28.4688 14.5469 23
Q15.2812 17.5312 16.8906 13.8906
Q18.5 10.25 21.1094 8.42188
Q23.7344 6.59375 27.4844 6.59375
Q31.25 6.59375 33.8906 8.39062
Q36.5312 10.2031 38.2031 13.8125
Q39.8906 17.4375 40.6406 22.9219
Q41.4062 28.4219 41.4062 35.7969
Q41.4062 43.1094 40.6406 48.5781
Q39.8906 54.0469 38.2031 57.6562
Q36.5312 61.2812 33.8906 63.0781
Q31.25 64.8906 27.4844 64.8906
Q23.7344 64.8906 21.1094 63.0781
Q18.5 61.2812 16.8906 57.6562
Q15.2812 54.0469 14.5469 48.5781
Q13.8125 43.1094 13.8125 35.7969" id="WenQuanYiMicroHei-30"/>
       <path d="
M4.98438 31.5938
L4.98438 38.9219
L50.0938 38.9219
L50.0938 31.5938
z
" id="WenQuanYiMicroHei-2212"/>
       <path d="
M7.17188 5.42188
Q7.17188 7.28125 7.65625 8.5625
Q8.15625 9.85938 8.98438 10.6562
Q9.8125 11.4688 10.9375 11.8281
Q12.0625 12.2031 13.375 12.2031
Q14.6562 12.2031 15.7969 11.8281
Q16.9375 11.4688 17.7656 10.6562
Q18.6094 9.85938 19.0938 8.5625
Q19.5781 7.28125 19.5781 5.42188
Q19.5781 3.60938 19.0938 2.3125
Q18.6094 1.03125 17.7656 0.1875
Q16.9375 -0.640625 15.7969 -1.03125
Q14.6562 -1.42188 13.375 -1.42188
Q12.0625 -1.42188 10.9375 -1.03125
Q9.8125 -0.640625 8.98438 0.1875
Q8.15625 1.03125 7.65625 2.3125
Q7.17188 3.60938 7.17188 5.42188" id="WenQuanYiMicroHei-2e"/>
      </defs>
      <g transform="translate(20.3151025 254.194179062)scale(0.09996 -0.09996)">
       <use xlink:href="#WenQuanYiMicroHei-2212"/>
       <use x="55.078125" xlink:href="#WenQuanYiMicroHei-31"/>
       <use x="110.15625" xlink:href="#WenQuanYiMicroHei-2e"/>
       <use x="136.962890625" xlink:href="#WenQuanYiMicroHei-30"/>
      </g>
     </g>
    </g>
    <g id="xtick_2">
     <g id="line2d_6">
      <g>
       <use style="stroke:#000000;stroke-width:0.5;" x="154.980205" xlink:href="#m93b0483c22" y="242.598780937"/>
      </g>
     </g>
     <g id="line2d_7">
      <g>
       <use style="stroke:#000000;stroke-width:0.5;" x="154.980205" xlink:href="#m741efc42ff" y="12.1987809375"/>
      </g>
     </g>
     <g id="text_2">
      <!-- −0.5 -->
      <defs>
       <path d="
M26.6094 43.7969
Q31.4531 43.7969 35.625 42.4531
Q39.7969 41.1094 42.8906 38.4688
Q46 35.8438 47.75 31.9375
Q49.5156 28.0312 49.5156 22.9062
Q49.5156 17.3281 47.8438 12.8906
Q46.1875 8.45312 42.9219 5.375
Q39.6562 2.29688 34.8438 0.65625
Q30.0312 -0.984375 23.7812 -0.984375
Q21.2969 -0.984375 18.875 -0.734375
Q16.4531 -0.484375 14.2344 -0.015625
Q12.0156 0.4375 10.0156 1.17188
Q8.01562 1.90625 6.39062 2.875
L6.39062 11.2812
Q8.01562 10.1562 10.1875 9.28125
Q12.3594 8.40625 14.75 7.8125
Q17.1406 7.23438 19.5469 6.90625
Q21.9688 6.59375 24.0312 6.59375
Q27.875 6.59375 30.9062 7.5
Q33.9375 8.40625 36.0312 10.2969
Q38.1406 12.2031 39.25 15.0781
Q40.375 17.9688 40.375 21.9219
Q40.375 28.9062 36.0781 32.5938
Q31.7812 36.2812 23.5781 36.2812
Q22.2656 36.2812 20.7188 36.1562
Q19.1875 36.0312 17.6406 35.8281
Q16.1094 35.6406 14.7188 35.4219
Q13.3281 35.2031 12.3125 35.0156
L7.90625 37.7969
L10.5938 71.3906
L44.2812 71.3906
L44.2812 63.2812
L18.3125 63.2812
L16.4062 42.8281
Q17.9688 43.1094 20.5312 43.4531
Q23.0938 43.7969 26.6094 43.7969" id="WenQuanYiMicroHei-35"/>
      </defs>
      <g transform="translate(145.908835 254.194179062)scale(0.09996 -0.09996)">
       <use xlink:href="#WenQuanYiMicroHei-2212"/>
       <use x="55.078125" xlink:href="#WenQuanYiMicroHei-30"/>
       <use x="110.15625" xlink:href="#WenQuanYiMicroHei-2e"/>
       <use x="136.962890625" xlink:href="#WenQuanYiMicroHei-35"/>
      </g>
     </g>
    </g>
    <g id="xtick_3">
     <g id="line2d_8">
      <g>
       <use style="stroke:#000000;stroke-width:0.5;" x="280.530205" xlink:href="#m93b0483c22" y="242.598780937"/>
      </g>
     </g>
     <g id="line2d_9">
      <g>
       <use style="stroke:#000000;stroke-width:0.5;" x="280.530205" xlink:href="#m741efc42ff" y="12.1987809375"/>
      </g>
     </g>
     <g id="text_3">
      <!-- 0.0 -->
      <g transform="translate(274.157755 254.194179062)scale(0.09996 -0.09996)">
       <use xlink:href="#WenQuanYiMicroHei-30"/>
       <use x="55.078125" xlink:href="#WenQuanYiMicroHei-2e"/>
       <use x="81.884765625" xlink:href="#WenQuanYiMicroHei-30"/>
      </g>
     </g>
    </g>
    <g id="xtick_4">
     <g id="line2d_10">
      <g>
       <use style="stroke:#000000;stroke-width:0.5;" x="406.080205" xlink:href="#m93b0483c22" y="242.598780937"/>
      </g>
     </g>
     <g id="line2d_11">
      <g>
       <use style="stroke:#000000;stroke-width:0.5;" x="406.080205" xlink:href="#m741efc42ff" y="12.1987809375"/>
      </g>
     </g>
     <g id="text_4">
      <!-- 0.5 -->
      <g transform="translate(399.7514875 254.194179062)scale(0.09996 -0.09996)">
       <use xlink:href="#WenQuanYiMicroHei-30"/>
       <use x="55.078125" xlink:href="#WenQuanYiMicroHei-2e"/>
       <use x="81.884765625" xlink:href="#WenQuanYiMicroHei-35"/>
      </g>
     </g>
    </g>
    <g id="xtick_5">
     <g id="line2d_12">
      <g>
       <use style="stroke:#000000;stroke-width:0.5;" x="531.630205" xlink:href="#m93b0483c22" y="242.598780937"/>
      </g>
     </g>
     <g id="line2d_13">
      <g>
       <use style="stroke:#000000;stroke-width:0.5;" x="531.630205" xlink:href="#m741efc42ff" y="12.1987809375"/>
      </g>
     </g>
     <g id="text_5">
      <!-- 1.0 -->
      <g transform="translate(525.452989375 254.194179062)scale(0.09996 -0.09996)">
       <use xlink:href="#WenQuanYiMicroHei-31"/>
       <use x="55.078125" xlink:href="#WenQuanYiMicroHei-2e"/>
       <use x="81.884765625" xlink:href="#WenQuanYiMicroHei-30"/>
      </g>
     </g>
    </g>
   </g>
   <g id="matplotlib.axis_2">
    <g id="ytick_1">
     <g id="line2d_14">
      <defs>
       <path d="
M0 0
L4 0" id="m728421d6d4" style="stroke:#000000;stroke-width:0.5;"/>
      </defs>
      <g>
       <use style="stroke:#000000;stroke-width:0.5;" x="29.430205" xlink:href="#m728421d6d4" y="242.598780937"/>
      </g>
     </g>
     <g id="line2d_15">
      <defs>
       <path d="
M0 0
L-4 0" id="mcb0005524f" style="stroke:#000000;stroke-width:0.5;"/>
      </defs>
      <g>
       <use style="stroke:#000000;stroke-width:0.5;" x="531.630205" xlink:href="#mcb0005524f" y="242.598780937"/>
      </g>
     </g>
     <g id="text_6">
      <!-- −1.0 -->
      <g transform="translate(7.2 245.195398125)scale(0.09996 -0.09996)">
       <use xlink:href="#WenQuanYiMicroHei-2212"/>
       <use x="55.078125" xlink:href="#WenQuanYiMicroHei-31"/>
       <use x="110.15625" xlink:href="#WenQuanYiMicroHei-2e"/>
       <use x="136.962890625" xlink:href="#WenQuanYiMicroHei-30"/>
      </g>
     </g>
    </g>
    <g id="ytick_2">
     <g id="line2d_16">
      <g>
       <use style="stroke:#000000;stroke-width:0.5;" x="29.430205" xlink:href="#m728421d6d4" y="204.198780937"/>
      </g>
     </g>
     <g id="line2d_17">
      <g>
       <use style="stroke:#000000;stroke-width:0.5;" x="531.630205" xlink:href="#mcb0005524f" y="204.198780937"/>
      </g>
     </g>
     <g id="text_7">
      <!-- −0.5 -->
      <g transform="translate(7.287465 206.795398125)scale(0.09996 -0.09996)">
       <use xlink:href="#WenQuanYiMicroHei-2212"/>
       <use x="55.078125" xlink:href="#WenQuanYiMicroHei-30"/>
       <use x="110.15625" xlink:href="#WenQuanYiMicroHei-2e"/>
       <use x="136.962890625" xlink:href="#WenQuanYiMicroHei-35"/>
      </g>
     </g>
    </g>
    <g id="ytick_3">
     <g id="line2d_18">
      <g>
       <use style="stroke:#000000;stroke-width:0.5;" x="29.430205" xlink:href="#m728421d6d4" y="165.798780937"/>
      </g>
     </g>
     <g id="line2d_19">
      <g>
       <use style="stroke:#000000;stroke-width:0.5;" x="531.630205" xlink:href="#mcb0005524f" y="165.798780937"/>
      </g>
     </g>
     <g id="text_8">
      <!-- 0.0 -->
      <g transform="translate(12.685305 168.395398125)scale(0.09996 -0.09996)">
       <use xlink:href="#WenQuanYiMicroHei-30"/>
       <use x="55.078125" xlink:href="#WenQuanYiMicroHei-2e"/>
       <use x="81.884765625" xlink:href="#WenQuanYiMicroHei-30"/>
      </g>
     </g>
    </g>
    <g id="ytick_4">
     <g id="line2d_20">
      <g>
       <use style="stroke:#000000;stroke-width:0.5;" x="29.430205" xlink:href="#m728421d6d4" y="127.398780937"/>
      </g>
     </g>
     <g id="line2d_21">
      <g>
       <use style="stroke:#000000;stroke-width:0.5;" x="531.630205" xlink:href="#mcb0005524f" y="127.398780937"/>
      </g>
     </g>
     <g id="text_9">
      <!-- 0.5 -->
      <g transform="translate(12.77277 129.995398125)scale(0.09996 -0.09996)">
       <use xlink:href="#WenQuanYiMicroHei-30"/>
       <use x="55.078125" xlink:href="#WenQuanYiMicroHei-2e"/>
       <use x="81.884765625" xlink:href="#WenQuanYiMicroHei-35"/>
      </g>
     </g>
    </g>
    <g id="ytick_5">
     <g id="line2d_22">
      <g>
       <use style="stroke:#000000;stroke-width:0.5;" x="29.430205" xlink:href="#m728421d6d4" y="88.9987809375"/>
      </g>
     </g>
     <g id="line2d_23">
      <g>
       <use style="stroke:#000000;stroke-width:0.5;" x="531.630205" xlink:href="#mcb0005524f" y="88.9987809375"/>
      </g>
     </g>
     <g id="text_10">
      <!-- 1.0 -->
      <g transform="translate(13.07577375 91.595398125)scale(0.09996 -0.09996)">
       <use xlink:href="#WenQuanYiMicroHei-31"/>
       <use x="55.078125" xlink:href="#WenQuanYiMicroHei-2e"/>
       <use x="81.884765625" xlink:href="#WenQuanYiMicroHei-30"/>
      </g>
     </g>
    </g>
    <g id="ytick_6">
     <g id="line2d_24">
      <g>
       <use style="stroke:#000000;stroke-width:0.5;" x="29.430205" xlink:href="#m728421d6d4" y="50.5987809375"/>
      </g>
     </g>
     <g id="line2d_25">
      <g>
       <use style="stroke:#000000;stroke-width:0.5;" x="531.630205" xlink:href="#mcb0005524f" y="50.5987809375"/>
      </g>
     </g>
     <g id="text_11">
      <!-- 1.5 -->
      <g transform="translate(13.16323875 53.195398125)scale(0.09996 -0.09996)">
       <use xlink:href="#WenQuanYiMicroHei-31"/>
       <use x="55.078125" xlink:href="#WenQuanYiMicroHei-2e"/>
       <use x="81.884765625" xlink:href="#WenQuanYiMicroHei-35"/>
      </g>
     </g>
    </g>
    <g id="ytick_7">
     <g id="line2d_26">
      <g>
       <use style="stroke:#000000;stroke-width:0.5;" x="29.430205" xlink:href="#m728421d6d4" y="12.1987809375"/>
      </g>
     </g>
     <g id="line2d_27">
      <g>
       <use style="stroke:#000000;stroke-width:0.5;" x="531.630205" xlink:href="#mcb0005524f" y="12.1987809375"/>
      </g>
     </g>
     <g id="text_12">
      <!-- 2.0 -->
      <defs>
       <path d="
M49.2188 0
L4.6875 0
L4.6875 7.625
L21.7812 26.2188
Q25.4375 30.1719 28.3125 33.4375
Q31.2031 36.7188 33.2188 39.8438
Q35.25 42.9688 36.3281 46.1094
Q37.4062 49.2656 37.4062 52.9844
Q37.4062 55.8594 36.5781 58.0469
Q35.75 60.25 34.2031 61.7812
Q32.6719 63.3281 30.5625 64.1094
Q28.4688 64.8906 25.875 64.8906
Q21.2344 64.8906 17.5 63.0156
Q13.7656 61.1406 10.4062 58.2031
L5.42188 64.0156
Q7.375 65.7656 9.60938 67.2969
Q11.8594 68.8438 14.4531 69.9688
Q17.0469 71.0938 19.9219 71.75
Q22.7969 72.4062 25.9844 72.4062
Q30.6719 72.4062 34.4531 71.0938
Q38.2344 69.7812 40.8594 67.3125
Q43.5 64.8438 44.9375 61.2969
Q46.3906 57.7656 46.3906 53.3281
Q46.3906 49.1719 45.0938 45.4062
Q43.7969 41.6562 41.5312 38.0156
Q39.2656 34.375 36.1094 30.7031
Q32.9531 27.0469 29.2969 23.0938
L15.5781 8.5
L15.5781 8.10938
L49.2188 8.10938
z
" id="WenQuanYiMicroHei-32"/>
      </defs>
      <g transform="translate(12.67593375 14.795398125)scale(0.09996 -0.09996)">
       <use xlink:href="#WenQuanYiMicroHei-32"/>
       <use x="55.078125" xlink:href="#WenQuanYiMicroHei-2e"/>
       <use x="81.884765625" xlink:href="#WenQuanYiMicroHei-30"/>
      </g>
     </g>
    </g>
   </g>
  </g>
 </g>
 <defs>
  <clipPath id="p66d213601c">
   <rect height="230.4" width="502.2" x="29.430205" y="12.1987809375"/>
  </clipPath>
 </defs>
</svg>
