<?xml version="1.0" encoding="utf-8" standalone="no"?>
<!DOCTYPE svg PUBLIC "-//W3C//DTD SVG 1.1//EN"
  "http://www.w3.org/Graphics/SVG/1.1/DTD/svg11.dtd">
<!-- Created with matplotlib (http://matplotlib.org/) -->
<svg height="272pt" version="1.1" viewBox="0 0 482 272" width="482pt" xmlns="http://www.w3.org/2000/svg" xmlns:xlink="http://www.w3.org/1999/xlink">
 <defs>
  <style type="text/css">
*{stroke-linecap:butt;stroke-linejoin:round;}
  </style>
 </defs>
 <g id="figure_1">
  <g id="patch_1">
   <path d="
M0 272.232
L482.993 272.232
L482.993 0
L0 0
z
" style="fill:#ffffff;"/>
  </g>
  <g id="axes_1">
   <g id="patch_2">
    <path d="
M29.3927 251.034
L475.793 251.034
L475.793 20.634
L29.3927 20.634
z
" style="fill:#ffffff;"/>
   </g>
   <g id="line2d_1">
    <path clip-path="url(#p0e6528ba2d)" d="
M29.3927 20.634
L32.0765 23.7258
L34.7603 27.1977
L36.5494 29.7898
L38.3386 32.6748
L40.1278 35.9472
L41.917 39.7575
L43.7061 44.3684
L44.6007 47.1187
L45.4953 50.3034
L46.3899 54.1089
L47.2845 58.8764
L48.1791 65.3415
L49.0737 75.654
L49.9683 106.531
L50.8629 82.2629
L51.7574 69.5881
L52.652 62.7791
L53.5466 58.1638
L54.4412 54.7084
L55.3358 51.9729
L56.2304 49.7285
L57.125 47.8411
L58.9142 44.8233
L60.7033 42.5078
L62.4925 40.6781
L64.2817 39.2064
L66.0709 38.0109
L67.8601 37.0362
L70.5438 35.9057
L73.2276 35.0957
L75.9114 34.5464
L78.5951 34.2173
L81.2789 34.0803
L84.8572 34.1635
L88.4356 34.5241
L92.014 35.1471
L95.5923 36.0291
L99.1707 37.1784
L102.749 38.6159
L105.433 39.9045
L108.117 41.3992
L110.8 43.1338
L113.484 45.1571
L116.168 47.5418
L117.957 49.3859
L119.746 51.4894
L121.535 53.9251
L123.325 56.8042
L125.114 60.3104
L126.008 62.3934
L126.903 64.7794
L127.798 67.5702
L128.692 70.9311
L129.587 75.1556
L130.481 80.8494
L131.376 89.6273
L132.27 109.82
L133.165 103.877
L134.06 87.7909
L134.954 79.8983
L135.849 74.6369
L136.743 70.6938
L137.638 67.5458
L138.533 64.9306
L140.322 60.7535
L142.111 57.4964
L143.9 54.843
L145.689 52.618
L147.478 50.7139
L149.268 49.0603
L151.951 46.9464
L154.635 45.177
L157.319 43.679
L160.003 42.402
L163.581 40.9824
L167.159 39.8326
L170.738 38.9105
L174.316 38.1864
L178.789 37.5278
L183.262 37.1164
L187.735 36.9333
L192.208 36.9677
L196.681 37.2156
L201.154 37.6791
L205.627 38.3671
L210.1 39.2961
L214.573 40.4923
L218.151 41.668
L221.729 43.0694
L225.308 44.7383
L227.992 46.2007
L230.675 47.883
L233.359 49.8357
L236.043 52.1326
L237.832 53.9086
L239.621 55.936
L241.41 58.2865
L243.2 61.0698
L244.989 64.4651
L245.883 66.4844
L246.778 68.7985
L247.672 71.5052
L248.567 74.7622
L249.462 78.8468
L250.356 84.3212
L251.251 92.6387
L252.145 110.535
L253.04 110.535
L253.935 92.6387
L254.829 84.3212
L255.724 78.8468
L256.618 74.7622
L257.513 71.5052
L258.408 68.7985
L260.197 64.4651
L261.986 61.0698
L263.775 58.2865
L265.564 55.936
L267.353 53.9086
L269.143 52.1326
L271.826 49.8357
L274.51 47.883
L277.194 46.2007
L279.878 44.7383
L283.456 43.0694
L287.034 41.668
L290.613 40.4923
L295.086 39.2961
L299.559 38.3671
L304.032 37.6791
L308.505 37.2156
L312.977 36.9677
L317.45 36.9333
L321.923 37.1164
L326.396 37.5278
L330.869 38.1864
L334.448 38.9105
L338.026 39.8326
L341.604 40.9824
L345.183 42.402
L347.866 43.679
L350.55 45.177
L353.234 46.9464
L355.918 49.0603
L357.707 50.7139
L359.496 52.618
L361.285 54.843
L363.074 57.4964
L364.864 60.7535
L365.758 62.6979
L366.653 64.9306
L367.547 67.5458
L368.442 70.6938
L369.337 74.6369
L370.231 79.8983
L371.126 87.7909
L372.02 103.877
L372.915 109.82
L373.81 89.6273
L374.704 80.8494
L375.599 75.1556
L376.493 70.9311
L377.388 67.5702
L378.282 64.7794
L380.072 60.3104
L381.861 56.8042
L383.65 53.9251
L385.439 51.4894
L387.228 49.3859
L389.018 47.5418
L391.701 45.1571
L394.385 43.1338
L397.069 41.3992
L399.753 39.9045
L402.436 38.6159
L406.015 37.1784
L409.593 36.0291
L413.171 35.1471
L416.75 34.5241
L420.328 34.1635
L423.907 34.0803
L426.59 34.2173
L429.274 34.5464
L431.958 35.0957
L434.642 35.9057
L437.325 37.0362
L439.115 38.0109
L440.904 39.2064
L442.693 40.6781
L444.482 42.5078
L446.271 44.8233
L447.166 46.2253
L448.06 47.8411
L448.955 49.7285
L449.85 51.9729
L450.744 54.7084
L451.639 58.1638
L452.533 62.7791
L453.428 69.5881
L454.323 82.2629
L455.217 106.531
L456.112 75.654
L457.006 65.3415
L457.901 58.8764
L458.796 54.1089
L459.69 50.3034
L460.585 47.1187
L462.374 41.9392
L464.163 37.7723
L465.952 34.2549
L467.741 31.1907
L469.531 28.4616
L472.214 24.8353
L474.898 21.6287
L475.793 20.634
L475.793 20.634" style="fill:none;stroke:#348abd;stroke-linecap:square;stroke-width:2.0;"/>
   </g>
   <g id="line2d_2">
    <path clip-path="url(#p0e6528ba2d)" d="
M29.3927 86.6396
L31.1819 90.6285
L32.9711 95.2678
L34.7603 100.909
L35.6548 104.312
L36.5494 108.315
L37.444 113.238
L38.3386 119.754
L39.2332 129.746
L40.1278 154.964
L41.917 126.869
L42.8116 120.026
L43.7061 115.563
L44.6007 112.334
L45.4953 109.862
L46.3899 107.906
L47.2845 106.325
L48.1791 105.03
L49.0737 103.961
L50.8629 102.345
L52.652 101.257
L54.4412 100.572
L56.2304 100.209
L58.0196 100.118
L59.8088 100.265
L61.5979 100.631
L63.3871 101.202
L65.1763 101.974
L66.9655 102.951
L68.7546 104.142
L70.5438 105.566
L72.333 107.251
L74.1222 109.244
L75.9114 111.614
L77.7005 114.471
L79.4897 118
L80.3843 120.113
L81.2789 122.545
L82.1735 125.4
L83.0681 128.852
L83.9627 133.213
L84.8572 139.135
L85.7518 148.423
L86.6464 171.694
L87.541 159.352
L88.4356 144.764
L89.3302 137.288
L90.2248 132.26
L91.1194 128.488
L92.014 125.485
L92.9086 123.003
L93.8031 120.899
L95.5923 117.49
L97.3815 114.824
L99.1707 112.676
L100.96 110.912
L102.749 109.447
L104.538 108.225
L106.327 107.204
L109.011 105.99
L111.695 105.094
L114.379 104.472
L117.062 104.089
L119.746 103.926
L122.43 103.968
L125.114 104.208
L127.798 104.644
L130.481 105.278
L133.165 106.121
L135.849 107.187
L138.533 108.502
L141.216 110.103
L143.9 112.043
L145.689 113.566
L147.478 115.313
L149.268 117.335
L151.057 119.707
L152.846 122.545
L154.635 126.041
L155.53 128.135
L156.424 130.549
L157.319 133.393
L158.214 136.848
L159.108 141.24
L160.003 147.27
L160.897 156.928
L161.792 183.737
L162.687 164.946
L163.581 151.308
L164.476 144.022
L165.37 139.034
L166.265 135.246
L167.159 132.199
L168.054 129.656
L169.843 125.579
L171.632 122.396
L173.422 119.808
L175.211 117.646
L177 115.808
L178.789 114.225
L181.473 112.231
L184.157 110.6
L186.84 109.261
L189.524 108.166
L192.208 107.283
L194.892 106.585
L198.47 105.915
L202.048 105.517
L205.627 105.373
L209.205 105.475
L212.784 105.824
L216.362 106.427
L219.94 107.302
L222.624 108.152
L225.308 109.189
L227.992 110.438
L230.675 111.931
L233.359 113.72
L236.043 115.876
L237.832 117.571
L239.621 119.527
L241.41 121.816
L243.2 124.547
L244.989 127.899
L245.883 129.9
L246.778 132.198
L247.672 134.892
L248.567 138.137
L249.462 142.213
L250.356 147.68
L251.251 155.994
L252.145 173.888
L253.04 173.888
L253.935 155.994
L254.829 147.68
L255.724 142.213
L256.618 138.137
L257.513 134.892
L258.408 132.198
L260.197 127.899
L261.986 124.547
L263.775 121.816
L265.564 119.527
L267.353 117.571
L269.143 115.876
L271.826 113.72
L274.51 111.931
L277.194 110.438
L279.878 109.189
L282.561 108.152
L286.14 107.056
L289.718 106.252
L293.297 105.713
L296.875 105.427
L300.453 105.386
L304.032 105.592
L307.61 106.056
L311.188 106.798
L313.872 107.556
L316.556 108.506
L319.24 109.678
L321.923 111.108
L324.607 112.851
L326.396 114.225
L328.186 115.808
L329.975 117.646
L331.764 119.808
L333.553 122.396
L335.342 125.579
L336.237 127.479
L337.131 129.656
L338.026 132.199
L338.921 135.246
L339.815 139.034
L340.71 144.022
L341.604 151.308
L342.499 164.946
L343.394 183.737
L344.288 156.928
L345.183 147.27
L346.077 141.24
L346.972 136.848
L347.866 133.393
L348.761 130.549
L350.55 126.041
L352.339 122.545
L354.129 119.707
L355.918 117.335
L357.707 115.313
L359.496 113.566
L361.285 112.043
L363.969 110.103
L366.653 108.502
L369.337 107.187
L372.02 106.121
L374.704 105.278
L377.388 104.644
L380.072 104.208
L382.755 103.968
L385.439 103.926
L388.123 104.089
L390.807 104.472
L393.491 105.094
L396.174 105.99
L398.858 107.204
L400.647 108.225
L402.436 109.447
L404.226 110.912
L406.015 112.676
L407.804 114.824
L409.593 117.49
L411.382 120.899
L412.277 123.003
L413.171 125.485
L414.066 128.488
L414.961 132.26
L415.855 137.288
L416.75 144.764
L417.644 159.352
L418.539 171.694
L419.434 148.423
L420.328 139.135
L421.223 133.213
L422.117 128.852
L423.012 125.4
L423.907 122.545
L425.696 118
L427.485 114.471
L429.274 111.614
L431.063 109.244
L432.852 107.251
L434.642 105.566
L436.431 104.142
L438.22 102.951
L440.009 101.974
L441.798 101.202
L443.588 100.631
L445.377 100.265
L447.166 100.118
L448.955 100.209
L450.744 100.572
L452.533 101.257
L454.323 102.345
L455.217 103.076
L456.112 103.961
L457.006 105.03
L457.901 106.325
L458.796 107.906
L459.69 109.862
L460.585 112.334
L461.479 115.563
L462.374 120.026
L463.268 126.869
L465.058 154.964
L465.952 129.746
L466.847 119.754
L467.741 113.238
L468.636 108.315
L469.531 104.312
L471.32 97.9303
L473.109 92.8502
L474.898 88.5671
L475.793 86.6396
L475.793 86.6396" style="fill:none;stroke:#a60628;stroke-linecap:square;stroke-width:2.0;"/>
   </g>
   <g id="line2d_3">
    <path clip-path="url(#p0e6528ba2d)" d="
M29.3927 162.413
L31.1819 169.279
L32.0765 173.479
L32.9711 178.523
L33.8657 184.981
L34.7603 194.327
L35.6548 213.489
L36.5494 213.672
L37.444 197.064
L38.3386 189.838
L39.2332 185.442
L40.1278 182.445
L41.0224 180.293
L41.917 178.711
L42.8116 177.544
L43.7061 176.698
L44.6007 176.109
L45.4953 175.734
L46.3899 175.544
L47.2845 175.516
L48.1791 175.635
L49.0737 175.891
L49.9683 176.276
L51.7574 177.421
L53.5466 179.069
L55.3358 181.267
L57.125 184.12
L58.0196 185.853
L58.9142 187.84
L59.8088 190.145
L60.7033 192.86
L61.5979 196.135
L62.4925 200.231
L63.3871 205.678
L64.2817 213.802
L65.1763 230.301
L66.0709 235.676
L66.9655 216.054
L67.8601 207.593
L68.7546 202.201
L69.6492 198.284
L70.5438 195.243
L71.4384 192.785
L72.333 190.746
L73.2276 189.025
L75.0168 186.286
L76.8059 184.234
L78.5951 182.685
L80.3843 181.528
L82.1735 180.693
L83.9627 180.132
L85.7518 179.813
L87.541 179.714
L89.3302 179.822
L91.1194 180.128
L92.9086 180.632
L94.6977 181.335
L96.4869 182.249
L98.2761 183.388
L100.065 184.779
L101.854 186.46
L103.644 188.487
L105.433 190.95
L107.222 193.991
L108.117 195.801
L109.011 197.863
L109.906 200.249
L110.8 203.066
L111.695 206.491
L112.59 210.843
L113.484 216.796
L114.379 226.241
L115.273 251.034
L117.062 221.635
L117.957 214.255
L118.852 209.254
L119.746 205.487
L120.641 202.479
L121.535 199.988
L122.43 197.874
L124.219 194.446
L126.008 191.768
L127.798 189.616
L129.587 187.859
L131.376 186.414
L133.165 185.225
L134.954 184.251
L136.743 183.465
L139.427 182.594
L142.111 182.05
L144.795 181.802
L147.478 181.833
L150.162 182.135
L152.846 182.711
L155.53 183.575
L158.214 184.751
L160.003 185.728
L161.792 186.88
L163.581 188.232
L165.37 189.816
L167.159 191.682
L168.949 193.898
L170.738 196.573
L172.527 199.884
L173.422 201.869
L174.316 204.153
L175.211 206.833
L176.105 210.064
L177 214.117
L177.895 219.544
L178.789 227.752
L179.684 245.073
L180.578 246.939
L181.473 228.434
L182.367 220.026
L183.262 214.54
L184.157 210.472
L185.051 207.249
L185.946 204.588
L186.84 202.329
L188.63 198.654
L190.419 195.756
L192.208 193.394
L193.997 191.43
L195.786 189.776
L197.575 188.372
L199.365 187.178
L202.048 185.714
L204.732 184.584
L207.416 183.742
L210.1 183.155
L212.784 182.805
L215.467 182.678
L218.151 182.769
L220.835 183.079
L223.519 183.616
L226.202 184.392
L228.886 185.432
L231.57 186.771
L234.254 188.46
L236.043 189.82
L237.832 191.406
L239.621 193.267
L241.41 195.474
L243.2 198.135
L244.989 201.431
L245.883 203.408
L246.778 205.685
L247.672 208.361
L248.567 211.592
L249.462 215.656
L250.356 221.114
L251.251 229.422
L252.145 247.313
L253.04 247.313
L253.935 229.422
L254.829 221.114
L255.724 215.656
L256.618 211.592
L257.513 208.361
L258.408 205.685
L260.197 201.431
L261.986 198.135
L263.775 195.474
L265.564 193.267
L267.353 191.406
L269.143 189.82
L270.932 188.46
L273.616 186.771
L276.299 185.432
L278.983 184.392
L281.667 183.616
L284.351 183.079
L287.034 182.769
L289.718 182.678
L292.402 182.805
L295.086 183.155
L297.769 183.742
L300.453 184.584
L303.137 185.714
L305.821 187.178
L307.61 188.372
L309.399 189.776
L311.188 191.43
L312.977 193.394
L314.767 195.756
L316.556 198.654
L318.345 202.329
L319.24 204.588
L320.134 207.249
L321.029 210.472
L321.923 214.54
L322.818 220.026
L323.713 228.434
L324.607 246.939
L325.502 245.073
L326.396 227.752
L327.291 219.544
L328.186 214.117
L329.08 210.064
L329.975 206.833
L330.869 204.153
L332.658 199.884
L334.448 196.573
L336.237 193.898
L338.026 191.682
L339.815 189.816
L341.604 188.232
L343.394 186.88
L345.183 185.728
L347.866 184.322
L350.55 183.254
L353.234 182.488
L355.918 182.004
L358.602 181.792
L361.285 181.853
L363.969 182.197
L366.653 182.846
L368.442 183.465
L370.231 184.251
L372.02 185.225
L373.81 186.414
L375.599 187.859
L377.388 189.616
L379.177 191.768
L380.966 194.446
L382.755 197.874
L383.65 199.988
L384.545 202.479
L385.439 205.487
L386.334 209.254
L387.228 214.255
L388.123 221.635
L389.912 251.034
L390.807 226.241
L391.701 216.796
L392.596 210.843
L393.491 206.491
L394.385 203.066
L395.28 200.249
L396.174 197.863
L397.963 193.991
L399.753 190.95
L401.542 188.487
L403.331 186.46
L405.12 184.779
L406.909 183.388
L408.699 182.249
L410.488 181.335
L412.277 180.632
L414.066 180.128
L415.855 179.822
L417.644 179.714
L419.434 179.813
L421.223 180.132
L423.012 180.693
L424.801 181.528
L426.59 182.685
L428.379 184.234
L430.169 186.286
L431.063 187.554
L431.958 189.025
L432.852 190.746
L433.747 192.785
L434.642 195.243
L435.536 198.284
L436.431 202.201
L437.325 207.593
L438.22 216.054
L439.115 235.676
L440.009 230.301
L440.904 213.802
L441.798 205.678
L442.693 200.231
L443.588 196.135
L444.482 192.86
L445.377 190.145
L446.271 187.84
L448.06 184.12
L449.85 181.267
L451.639 179.069
L453.428 177.421
L455.217 176.276
L456.112 175.891
L457.006 175.635
L457.901 175.516
L458.796 175.544
L459.69 175.734
L460.585 176.109
L461.479 176.698
L462.374 177.544
L463.268 178.711
L464.163 180.293
L465.058 182.445
L465.952 185.442
L466.847 189.838
L467.741 197.064
L468.636 213.672
L469.531 213.489
L470.425 194.327
L471.32 184.981
L472.214 178.523
L473.109 173.479
L474.004 169.279
L475.793 162.413
L475.793 162.413" style="fill:none;stroke:#7a68a6;stroke-linecap:square;stroke-width:2.0;"/>
   </g>
   <g id="patch_3">
    <path d="
M29.3927 20.634
L475.793 20.634" style="fill:none;stroke:#000000;stroke-linecap:square;stroke-linejoin:miter;"/>
   </g>
   <g id="patch_4">
    <path d="
M475.793 251.034
L475.793 20.634" style="fill:none;stroke:#000000;stroke-linecap:square;stroke-linejoin:miter;"/>
   </g>
   <g id="patch_5">
    <path d="
M29.3927 251.034
L475.793 251.034" style="fill:none;stroke:#000000;stroke-linecap:square;stroke-linejoin:miter;"/>
   </g>
   <g id="patch_6">
    <path d="
M29.3927 251.034
L29.3927 20.634" style="fill:none;stroke:#000000;stroke-linecap:square;stroke-linejoin:miter;"/>
   </g>
   <g id="matplotlib.axis_1">
    <g id="xtick_1">
     <g id="line2d_4">
      <defs>
       <path d="
M0 0
L0 -4" id="m93b0483c22" style="stroke:#000000;stroke-width:0.5;"/>
      </defs>
      <g>
       <use style="stroke:#000000;stroke-width:0.5;" x="39.4524202113" xlink:href="#m93b0483c22" y="251.034"/>
      </g>
     </g>
     <g id="line2d_5">
      <defs>
       <path d="
M0 0
L0 4" id="m741efc42ff" style="stroke:#000000;stroke-width:0.5;"/>
      </defs>
      <g>
       <use style="stroke:#000000;stroke-width:0.5;" x="39.4524202113" xlink:href="#m741efc42ff" y="20.634"/>
      </g>
     </g>
     <g id="text_1">
      <!-- −1.5 -->
      <defs>
       <path d="
M34.7188 0
L26.125 0
L26.125 44.5781
Q26.125 46.6875 26.1406 49.0781
Q26.1719 51.4688 26.2344 53.8281
Q26.3125 56.2031 26.3906 58.375
Q26.4688 60.5469 26.5156 62.2031
Q25.6875 61.3281 25.0469 60.6875
Q24.4219 60.0625 23.75 59.4688
Q23.0938 58.8906 22.3594 58.2188
Q21.625 57.5625 20.6094 56.6875
L13.375 50.7812
L8.6875 56.7812
L27.3906 71.3906
L34.7188 71.3906
z
" id="WenQuanYiMicroHei-31"/>
       <path d="
M4.98438 31.5938
L4.98438 38.9219
L50.0938 38.9219
L50.0938 31.5938
z
" id="WenQuanYiMicroHei-2212"/>
       <path d="
M26.6094 43.7969
Q31.4531 43.7969 35.625 42.4531
Q39.7969 41.1094 42.8906 38.4688
Q46 35.8438 47.75 31.9375
Q49.5156 28.0312 49.5156 22.9062
Q49.5156 17.3281 47.8438 12.8906
Q46.1875 8.45312 42.9219 5.375
Q39.6562 2.29688 34.8438 0.65625
Q30.0312 -0.984375 23.7812 -0.984375
Q21.2969 -0.984375 18.875 -0.734375
Q16.4531 -0.484375 14.2344 -0.015625
Q12.0156 0.4375 10.0156 1.17188
Q8.01562 1.90625 6.39062 2.875
L6.39062 11.2812
Q8.01562 10.1562 10.1875 9.28125
Q12.3594 8.40625 14.75 7.8125
Q17.1406 7.23438 19.5469 6.90625
Q21.9688 6.59375 24.0312 6.59375
Q27.875 6.59375 30.9062 7.5
Q33.9375 8.40625 36.0312 10.2969
Q38.1406 12.2031 39.25 15.0781
Q40.375 17.9688 40.375 21.9219
Q40.375 28.9062 36.0781 32.5938
Q31.7812 36.2812 23.5781 36.2812
Q22.2656 36.2812 20.7188 36.1562
Q19.1875 36.0312 17.6406 35.8281
Q16.1094 35.6406 14.7188 35.4219
Q13.3281 35.2031 12.3125 35.0156
L7.90625 37.7969
L10.5938 71.3906
L44.2812 71.3906
L44.2812 63.2812
L18.3125 63.2812
L16.4062 42.8281
Q17.9688 43.1094 20.5312 43.4531
Q23.0938 43.7969 26.6094 43.7969" id="WenQuanYiMicroHei-35"/>
       <path d="
M7.17188 5.42188
Q7.17188 7.28125 7.65625 8.5625
Q8.15625 9.85938 8.98438 10.6562
Q9.8125 11.4688 10.9375 11.8281
Q12.0625 12.2031 13.375 12.2031
Q14.6562 12.2031 15.7969 11.8281
Q16.9375 11.4688 17.7656 10.6562
Q18.6094 9.85938 19.0938 8.5625
Q19.5781 7.28125 19.5781 5.42188
Q19.5781 3.60938 19.0938 2.3125
Q18.6094 1.03125 17.7656 0.1875
Q16.9375 -0.640625 15.7969 -1.03125
Q14.6562 -1.42188 13.375 -1.42188
Q12.0625 -1.42188 10.9375 -1.03125
Q9.8125 -0.640625 8.98438 0.1875
Q8.15625 1.03125 7.65625 2.3125
Q7.17188 3.60938 7.17188 5.42188" id="WenQuanYiMicroHei-2e"/>
      </defs>
      <g transform="translate(30.3810502113 262.629398125)scale(0.09996 -0.09996)">
       <use xlink:href="#WenQuanYiMicroHei-2212"/>
       <use x="55.078125" xlink:href="#WenQuanYiMicroHei-31"/>
       <use x="110.15625" xlink:href="#WenQuanYiMicroHei-2e"/>
       <use x="136.962890625" xlink:href="#WenQuanYiMicroHei-35"/>
      </g>
     </g>
    </g>
    <g id="xtick_2">
     <g id="line2d_6">
      <g>
       <use style="stroke:#000000;stroke-width:0.5;" x="110.499186808" xlink:href="#m93b0483c22" y="251.034"/>
      </g>
     </g>
     <g id="line2d_7">
      <g>
       <use style="stroke:#000000;stroke-width:0.5;" x="110.499186808" xlink:href="#m741efc42ff" y="20.634"/>
      </g>
     </g>
     <g id="text_2">
      <!-- −1.0 -->
      <defs>
       <path d="
M50.3906 35.7969
Q50.3906 27.1562 49.1406 20.3125
Q47.9062 13.4844 45.1406 8.73438
Q42.3906 4 38.0312 1.5
Q33.6875 -0.984375 27.4844 -0.984375
Q21.7344 -0.984375 17.4531 1.5
Q13.1875 4 10.375 8.73438
Q7.5625 13.4844 6.17188 20.3125
Q4.78125 27.1562 4.78125 35.7969
Q4.78125 44.4375 6.03125 51.2656
Q7.28125 58.1094 9.98438 62.8125
Q12.7031 67.5312 17.0156 70.0156
Q21.3438 72.5156 27.4844 72.5156
Q33.2969 72.5156 37.5938 70.0469
Q41.8906 67.5781 44.7188 62.8594
Q47.5625 58.1562 48.9688 51.3125
Q50.3906 44.4844 50.3906 35.7969
M13.8125 35.7969
Q13.8125 28.4688 14.5469 23
Q15.2812 17.5312 16.8906 13.8906
Q18.5 10.25 21.1094 8.42188
Q23.7344 6.59375 27.4844 6.59375
Q31.25 6.59375 33.8906 8.39062
Q36.5312 10.2031 38.2031 13.8125
Q39.8906 17.4375 40.6406 22.9219
Q41.4062 28.4219 41.4062 35.7969
Q41.4062 43.1094 40.6406 48.5781
Q39.8906 54.0469 38.2031 57.6562
Q36.5312 61.2812 33.8906 63.0781
Q31.25 64.8906 27.4844 64.8906
Q23.7344 64.8906 21.1094 63.0781
Q18.5 61.2812 16.8906 57.6562
Q15.2812 54.0469 14.5469 48.5781
Q13.8125 43.1094 13.8125 35.7969" id="WenQuanYiMicroHei-30"/>
      </defs>
      <g transform="translate(101.384084308 262.629398125)scale(0.09996 -0.09996)">
       <use xlink:href="#WenQuanYiMicroHei-2212"/>
       <use x="55.078125" xlink:href="#WenQuanYiMicroHei-31"/>
       <use x="110.15625" xlink:href="#WenQuanYiMicroHei-2e"/>
       <use x="136.962890625" xlink:href="#WenQuanYiMicroHei-30"/>
      </g>
     </g>
    </g>
    <g id="xtick_3">
     <g id="line2d_8">
      <g>
       <use style="stroke:#000000;stroke-width:0.5;" x="181.545953404" xlink:href="#m93b0483c22" y="251.034"/>
      </g>
     </g>
     <g id="line2d_9">
      <g>
       <use style="stroke:#000000;stroke-width:0.5;" x="181.545953404" xlink:href="#m741efc42ff" y="20.634"/>
      </g>
     </g>
     <g id="text_3">
      <!-- −0.5 -->
      <g transform="translate(172.474583404 262.629398125)scale(0.09996 -0.09996)">
       <use xlink:href="#WenQuanYiMicroHei-2212"/>
       <use x="55.078125" xlink:href="#WenQuanYiMicroHei-30"/>
       <use x="110.15625" xlink:href="#WenQuanYiMicroHei-2e"/>
       <use x="136.962890625" xlink:href="#WenQuanYiMicroHei-35"/>
      </g>
     </g>
    </g>
    <g id="xtick_4">
     <g id="line2d_10">
      <g>
       <use style="stroke:#000000;stroke-width:0.5;" x="252.59272" xlink:href="#m93b0483c22" y="251.034"/>
      </g>
     </g>
     <g id="line2d_11">
      <g>
       <use style="stroke:#000000;stroke-width:0.5;" x="252.59272" xlink:href="#m741efc42ff" y="20.634"/>
      </g>
     </g>
     <g id="text_4">
      <!-- 0.0 -->
      <g transform="translate(246.22027 262.629398125)scale(0.09996 -0.09996)">
       <use xlink:href="#WenQuanYiMicroHei-30"/>
       <use x="55.078125" xlink:href="#WenQuanYiMicroHei-2e"/>
       <use x="81.884765625" xlink:href="#WenQuanYiMicroHei-30"/>
      </g>
     </g>
    </g>
    <g id="xtick_5">
     <g id="line2d_12">
      <g>
       <use style="stroke:#000000;stroke-width:0.5;" x="323.639486596" xlink:href="#m93b0483c22" y="251.034"/>
      </g>
     </g>
     <g id="line2d_13">
      <g>
       <use style="stroke:#000000;stroke-width:0.5;" x="323.639486596" xlink:href="#m741efc42ff" y="20.634"/>
      </g>
     </g>
     <g id="text_5">
      <!-- 0.5 -->
      <g transform="translate(317.310769096 262.629398125)scale(0.09996 -0.09996)">
       <use xlink:href="#WenQuanYiMicroHei-30"/>
       <use x="55.078125" xlink:href="#WenQuanYiMicroHei-2e"/>
       <use x="81.884765625" xlink:href="#WenQuanYiMicroHei-35"/>
      </g>
     </g>
    </g>
    <g id="xtick_6">
     <g id="line2d_14">
      <g>
       <use style="stroke:#000000;stroke-width:0.5;" x="394.686253192" xlink:href="#m93b0483c22" y="251.034"/>
      </g>
     </g>
     <g id="line2d_15">
      <g>
       <use style="stroke:#000000;stroke-width:0.5;" x="394.686253192" xlink:href="#m741efc42ff" y="20.634"/>
      </g>
     </g>
     <g id="text_6">
      <!-- 1.0 -->
      <g transform="translate(388.509037567 262.629398125)scale(0.09996 -0.09996)">
       <use xlink:href="#WenQuanYiMicroHei-31"/>
       <use x="55.078125" xlink:href="#WenQuanYiMicroHei-2e"/>
       <use x="81.884765625" xlink:href="#WenQuanYiMicroHei-30"/>
      </g>
     </g>
    </g>
    <g id="xtick_7">
     <g id="line2d_16">
      <g>
       <use style="stroke:#000000;stroke-width:0.5;" x="465.733019789" xlink:href="#m93b0483c22" y="251.034"/>
      </g>
     </g>
     <g id="line2d_17">
      <g>
       <use style="stroke:#000000;stroke-width:0.5;" x="465.733019789" xlink:href="#m741efc42ff" y="20.634"/>
      </g>
     </g>
     <g id="text_7">
      <!-- 1.5 -->
      <g transform="translate(459.599536664 262.629398125)scale(0.09996 -0.09996)">
       <use xlink:href="#WenQuanYiMicroHei-31"/>
       <use x="55.078125" xlink:href="#WenQuanYiMicroHei-2e"/>
       <use x="81.884765625" xlink:href="#WenQuanYiMicroHei-35"/>
      </g>
     </g>
    </g>
   </g>
   <g id="matplotlib.axis_2">
    <g id="ytick_1">
     <g id="line2d_18">
      <defs>
       <path d="
M0 0
L4 0" id="m728421d6d4" style="stroke:#000000;stroke-width:0.5;"/>
      </defs>
      <g>
       <use style="stroke:#000000;stroke-width:0.5;" x="29.39272" xlink:href="#m728421d6d4" y="243.742775394"/>
      </g>
     </g>
     <g id="line2d_19">
      <defs>
       <path d="
M0 0
L-4 0" id="mcb0005524f" style="stroke:#000000;stroke-width:0.5;"/>
      </defs>
      <g>
       <use style="stroke:#000000;stroke-width:0.5;" x="475.79272" xlink:href="#mcb0005524f" y="243.742775394"/>
      </g>
     </g>
     <g id="text_8">
      <!-- $\mathdefault{10^{-8}}$ -->
      <defs>
       <path d="
M27.5938 72.5156
Q31.6875 72.5156 35.3281 71.4375
Q38.9688 70.3594 41.7188 68.2031
Q44.4844 66.0625 46.0938 62.8438
Q47.7031 59.625 47.7031 55.3281
Q47.7031 52.0469 46.7188 49.4062
Q45.75 46.7812 44.0312 44.6562
Q42.3281 42.5312 39.9844 40.8438
Q37.6406 39.1562 34.9062 37.7969
Q37.75 36.2812 40.4531 34.4219
Q43.1719 32.5625 45.2812 30.25
Q47.4062 27.9375 48.7031 25.0469
Q50 22.1719 50 18.6094
Q50 14.1094 48.3594 10.4688
Q46.7344 6.84375 43.7812 4.29688
Q40.8281 1.76562 36.6875 0.390625
Q32.5625 -0.984375 27.5938 -0.984375
Q22.2188 -0.984375 18.0469 0.328125
Q13.875 1.65625 11.0156 4.125
Q8.15625 6.59375 6.65625 10.1562
Q5.17188 13.7188 5.17188 18.2188
Q5.17188 21.875 6.26562 24.7969
Q7.375 27.7344 9.21875 30.0781
Q11.0781 32.4219 13.6094 34.2188
Q16.1562 36.0312 19 37.4062
Q16.6094 38.9219 14.5 40.7031
Q12.4062 42.4844 10.8594 44.6719
Q9.32812 46.875 8.42188 49.5312
Q7.51562 52.2031 7.51562 55.4219
Q7.51562 59.6719 9.15625 62.8594
Q10.7969 66.0625 13.5781 68.2031
Q16.3594 70.3594 20 71.4375
Q23.6406 72.5156 27.5938 72.5156
M13.9219 18.1094
Q13.9219 15.5312 14.7031 13.3594
Q15.4844 11.1875 17.1406 9.64062
Q18.7969 8.10938 21.3281 7.25
Q23.875 6.39062 27.3906 6.39062
Q30.8125 6.39062 33.4219 7.25
Q36.0312 8.10938 37.7812 9.6875
Q39.5469 11.2812 40.4219 13.5156
Q41.3125 15.7656 41.3125 18.5
Q41.3125 21.0469 40.3594 23.0938
Q39.4062 25.1406 37.625 26.8906
Q35.8438 28.6562 33.3438 30.2188
Q30.8594 31.7812 27.7812 33.2969
L26.3125 33.9844
Q20.1719 31.0625 17.0469 27.2656
Q13.9219 23.4844 13.9219 18.1094
M27.4844 65.0938
Q22.3125 65.0938 19.2656 62.5
Q16.2188 59.9062 16.2188 54.9844
Q16.2188 52.2031 17.0625 50.1875
Q17.9219 48.1875 19.4375 46.625
Q20.9531 45.0625 23.0781 43.8125
Q25.2031 42.5781 27.6875 41.4062
Q30.0312 42.4844 32.1094 43.75
Q34.1875 45.0156 35.7188 46.625
Q37.25 48.25 38.125 50.2969
Q39.0156 52.3438 39.0156 54.9844
Q39.0156 59.9062 35.9375 62.5
Q32.8594 65.0938 27.4844 65.0938" id="WenQuanYiMicroHei-38"/>
       <path d="
M4 22.7031
L4 30.9062
L28.2188 30.9062
L28.2188 22.7031
z
" id="WenQuanYiMicroHei-2d"/>
      </defs>
      <g transform="translate(7.2 246.788431644)scale(0.09996 -0.09996)">
       <use transform="translate(0.0 0.80625)" xlink:href="#WenQuanYiMicroHei-31"/>
       <use transform="translate(55.078125 0.80625)" xlink:href="#WenQuanYiMicroHei-30"/>
       <use transform="translate(110.15625 57.2390625)scale(0.7)" xlink:href="#WenQuanYiMicroHei-2d"/>
       <use transform="translate(132.680664062 57.2390625)scale(0.7)" xlink:href="#WenQuanYiMicroHei-38"/>
      </g>
     </g>
    </g>
    <g id="ytick_2">
     <g id="line2d_20">
      <g>
       <use style="stroke:#000000;stroke-width:0.5;" x="29.39272" xlink:href="#m728421d6d4" y="206.228493997"/>
      </g>
     </g>
     <g id="line2d_21">
      <g>
       <use style="stroke:#000000;stroke-width:0.5;" x="475.79272" xlink:href="#mcb0005524f" y="206.228493997"/>
      </g>
     </g>
     <g id="text_9">
      <!-- $\mathdefault{10^{-7}}$ -->
      <defs>
       <path d="
M13.7188 0
L41.2188 63.2812
L4.39062 63.2812
L4.39062 71.3906
L50.2969 71.3906
L50.2969 64.3125
L23.1875 0
z
" id="WenQuanYiMicroHei-37"/>
      </defs>
      <g transform="translate(7.2 209.224170247)scale(0.09996 -0.09996)">
       <use transform="translate(0.0 0.59375)" xlink:href="#WenQuanYiMicroHei-31"/>
       <use transform="translate(55.078125 0.59375)" xlink:href="#WenQuanYiMicroHei-30"/>
       <use transform="translate(110.15625 57.0265625)scale(0.7)" xlink:href="#WenQuanYiMicroHei-2d"/>
       <use transform="translate(132.680664062 57.0265625)scale(0.7)" xlink:href="#WenQuanYiMicroHei-37"/>
      </g>
     </g>
    </g>
    <g id="ytick_3">
     <g id="line2d_22">
      <g>
       <use style="stroke:#000000;stroke-width:0.5;" x="29.39272" xlink:href="#m728421d6d4" y="168.7142126"/>
      </g>
     </g>
     <g id="line2d_23">
      <g>
       <use style="stroke:#000000;stroke-width:0.5;" x="475.79272" xlink:href="#mcb0005524f" y="168.7142126"/>
      </g>
     </g>
     <g id="text_10">
      <!-- $\mathdefault{10^{-6}}$ -->
      <defs>
       <path d="
M5.51562 30.5156
Q5.51562 35.6406 6.03125 40.7188
Q6.54688 45.7969 7.82812 50.4531
Q9.125 55.125 11.375 59.125
Q13.625 63.1406 17.0938 66.0938
Q20.5625 69.0469 25.3906 70.7188
Q30.2188 72.4062 36.7188 72.4062
Q37.6406 72.4062 38.7656 72.3594
Q39.8906 72.3125 41.0312 72.1875
Q42.1875 72.0781 43.2344 71.9062
Q44.2812 71.7344 45.125 71.4844
L45.125 63.9219
Q43.4062 64.5 41.25 64.7969
Q39.1094 65.0938 37.0156 65.0938
Q32.625 65.0938 29.2656 64.0312
Q25.9219 62.9844 23.4844 61.0781
Q21.0469 59.1875 19.4062 56.5469
Q17.7812 53.9062 16.75 50.7031
Q15.7188 47.5156 15.2344 43.8906
Q14.75 40.2812 14.5938 36.375
L15.1875 36.375
Q16.1562 38.1406 17.5469 39.6719
Q18.9531 41.2188 20.7969 42.3125
Q22.6562 43.4062 24.9688 44.0312
Q27.2969 44.6719 30.1719 44.6719
Q34.8125 44.6719 38.5625 43.2344
Q42.3281 41.7969 44.9688 39.0156
Q47.6094 36.2344 49.0469 32.2031
Q50.4844 28.1719 50.4844 23
Q50.4844 17.4375 48.9688 12.9844
Q47.4688 8.54688 44.625 5.4375
Q41.7969 2.34375 37.7969 0.671875
Q33.7969 -0.984375 28.8125 -0.984375
Q23.9219 -0.984375 19.6406 0.921875
Q15.375 2.82812 12.25 6.73438
Q9.125 10.6406 7.3125 16.5469
Q5.51562 22.4688 5.51562 30.5156
M28.7188 6.5
Q31.6406 6.5 34.0469 7.5
Q36.4688 8.5 38.2188 10.5156
Q39.9844 12.5469 40.9375 15.6406
Q41.8906 18.75 41.8906 23
Q41.8906 26.4219 41.0781 29.125
Q40.2812 31.8438 38.6719 33.7344
Q37.0625 35.6406 34.6406 36.6719
Q32.2344 37.7031 29 37.7031
Q25.7344 37.7031 23.0156 36.5469
Q20.3125 35.4062 18.4062 33.5625
Q16.5 31.7344 15.4531 29.3906
Q14.4062 27.0469 14.4062 24.7031
Q14.4062 21.4375 15.3125 18.1875
Q16.2188 14.9375 18 12.3438
Q19.7812 9.76562 22.4531 8.125
Q25.1406 6.5 28.7188 6.5" id="WenQuanYiMicroHei-36"/>
      </defs>
      <g transform="translate(7.2 171.75986885)scale(0.09996 -0.09996)">
       <use transform="translate(0.0 0.8828125)" xlink:href="#WenQuanYiMicroHei-31"/>
       <use transform="translate(55.078125 0.8828125)" xlink:href="#WenQuanYiMicroHei-30"/>
       <use transform="translate(110.15625 57.315625)scale(0.7)" xlink:href="#WenQuanYiMicroHei-2d"/>
       <use transform="translate(132.680664062 57.315625)scale(0.7)" xlink:href="#WenQuanYiMicroHei-36"/>
      </g>
     </g>
    </g>
    <g id="ytick_4">
     <g id="line2d_24">
      <g>
       <use style="stroke:#000000;stroke-width:0.5;" x="29.39272" xlink:href="#m728421d6d4" y="131.199931202"/>
      </g>
     </g>
     <g id="line2d_25">
      <g>
       <use style="stroke:#000000;stroke-width:0.5;" x="475.79272" xlink:href="#mcb0005524f" y="131.199931202"/>
      </g>
     </g>
     <g id="text_11">
      <!-- $\mathdefault{10^{-5}}$ -->
      <g transform="translate(7.2 134.195607452)scale(0.09996 -0.09996)">
       <use transform="translate(0.0 0.59375)" xlink:href="#WenQuanYiMicroHei-31"/>
       <use transform="translate(55.078125 0.59375)" xlink:href="#WenQuanYiMicroHei-30"/>
       <use transform="translate(110.15625 57.0265625)scale(0.7)" xlink:href="#WenQuanYiMicroHei-2d"/>
       <use transform="translate(132.680664062 57.0265625)scale(0.7)" xlink:href="#WenQuanYiMicroHei-35"/>
      </g>
     </g>
    </g>
    <g id="ytick_5">
     <g id="line2d_26">
      <g>
       <use style="stroke:#000000;stroke-width:0.5;" x="29.39272" xlink:href="#m728421d6d4" y="93.6856498048"/>
      </g>
     </g>
     <g id="line2d_27">
      <g>
       <use style="stroke:#000000;stroke-width:0.5;" x="475.79272" xlink:href="#mcb0005524f" y="93.6856498048"/>
      </g>
     </g>
     <g id="text_12">
      <!-- $\mathdefault{10^{-4}}$ -->
      <defs>
       <path d="
M53.0781 16.0156
L42.6719 16.0156
L42.6719 0
L34.0781 0
L34.0781 16.0156
L1.125 16.0156
L1.125 23.7812
L33.5 71.7812
L42.6719 71.7812
L42.6719 24.125
L53.0781 24.125
z

M34.0781 24.125
L34.0781 41.5
Q34.0781 44.2344 34.1562 47.2344
Q34.2344 50.25 34.3281 53.0938
Q34.4219 55.9531 34.5469 58.4375
Q34.6719 60.9375 34.7188 62.5938
L34.2812 62.5938
Q33.9375 61.625 33.4219 60.4219
Q32.9062 59.2344 32.2969 58.0312
Q31.6875 56.8438 31.0469 55.7188
Q30.4219 54.5938 29.8906 53.8125
L9.8125 24.125
z
" id="WenQuanYiMicroHei-34"/>
      </defs>
      <g transform="translate(7.2 96.6813260548)scale(0.09996 -0.09996)">
       <use transform="translate(0.0 0.3203125)" xlink:href="#WenQuanYiMicroHei-31"/>
       <use transform="translate(55.078125 0.3203125)" xlink:href="#WenQuanYiMicroHei-30"/>
       <use transform="translate(110.15625 56.753125)scale(0.7)" xlink:href="#WenQuanYiMicroHei-2d"/>
       <use transform="translate(132.680664062 56.753125)scale(0.7)" xlink:href="#WenQuanYiMicroHei-34"/>
      </g>
     </g>
    </g>
    <g id="ytick_6">
     <g id="line2d_28">
      <g>
       <use style="stroke:#000000;stroke-width:0.5;" x="29.39272" xlink:href="#m728421d6d4" y="56.1713684075"/>
      </g>
     </g>
     <g id="line2d_29">
      <g>
       <use style="stroke:#000000;stroke-width:0.5;" x="475.79272" xlink:href="#mcb0005524f" y="56.1713684075"/>
      </g>
     </g>
     <g id="text_13">
      <!-- $\mathdefault{10^{-3}}$ -->
      <defs>
       <path d="
M46.9219 54.6875
Q46.9219 51.125 45.7969 48.1875
Q44.6719 45.2656 42.6406 43.1094
Q40.625 40.9688 37.7969 39.5781
Q34.9688 38.1875 31.5 37.5938
L31.5 37.3125
Q40.1406 36.2344 44.625 31.8125
Q49.125 27.3906 49.125 20.3125
Q49.125 15.625 47.5312 11.7188
Q45.9531 7.8125 42.7188 4.98438
Q39.5 2.15625 34.5625 0.578125
Q29.6406 -0.984375 22.9062 -0.984375
Q17.5781 -0.984375 12.8594 -0.140625
Q8.15625 0.6875 4 2.875
L4 11.1875
Q8.25 8.9375 13.2031 7.71875
Q18.1719 6.5 22.7031 6.5
Q27.2031 6.5 30.4688 7.46875
Q33.7344 8.45312 35.8594 10.25
Q37.9844 12.0625 38.9844 14.6875
Q39.9844 17.3281 39.9844 20.6094
Q39.9844 23.9219 38.6875 26.2812
Q37.4062 28.6562 35.0156 30.1875
Q32.625 31.7344 29.1719 32.4688
Q25.7344 33.2031 21.3906 33.2031
L14.8906 33.2031
L14.8906 40.5781
L21.3906 40.5781
Q25.3438 40.5781 28.4219 41.5469
Q31.5 42.5312 33.5625 44.3281
Q35.6406 46.1406 36.7188 48.625
Q37.7969 51.125 37.7969 54.1094
Q37.7969 56.6406 36.9062 58.6406
Q36.0312 60.6406 34.4219 62.0312
Q32.8125 63.4219 30.5625 64.1562
Q28.3281 64.8906 25.5938 64.8906
Q20.3594 64.8906 16.375 63.25
Q12.4062 61.625 8.79688 58.9844
L4.29688 65.0938
Q6.15625 66.6094 8.42188 67.9219
Q10.6875 69.2344 13.375 70.2344
Q16.0625 71.2344 19.1094 71.8125
Q22.1719 72.4062 25.5938 72.4062
Q30.8594 72.4062 34.8281 71.0938
Q38.8125 69.7812 41.5 67.4062
Q44.1875 65.0469 45.5469 61.7969
Q46.9219 58.5469 46.9219 54.6875" id="WenQuanYiMicroHei-33"/>
      </defs>
      <g transform="translate(7.2 59.2170246575)scale(0.09996 -0.09996)">
       <use transform="translate(0.0 0.8828125)" xlink:href="#WenQuanYiMicroHei-31"/>
       <use transform="translate(55.078125 0.8828125)" xlink:href="#WenQuanYiMicroHei-30"/>
       <use transform="translate(110.15625 57.315625)scale(0.7)" xlink:href="#WenQuanYiMicroHei-2d"/>
       <use transform="translate(132.680664062 57.315625)scale(0.7)" xlink:href="#WenQuanYiMicroHei-33"/>
      </g>
     </g>
    </g>
    <g id="ytick_7">
     <g id="line2d_30">
      <defs>
       <path d="
M0 0
L2 0" id="mf0c55a9a47" style="stroke:#000000;stroke-width:0.5;"/>
      </defs>
      <g>
       <use style="stroke:#000000;stroke-width:0.5;" x="29.39272" xlink:href="#mf0c55a9a47" y="249.55381111"/>
      </g>
     </g>
     <g id="line2d_31">
      <defs>
       <path d="
M0 0
L-2 0" id="ma4f294b3af" style="stroke:#000000;stroke-width:0.5;"/>
      </defs>
      <g>
       <use style="stroke:#000000;stroke-width:0.5;" x="475.79272" xlink:href="#ma4f294b3af" y="249.55381111"/>
      </g>
     </g>
    </g>
    <g id="ytick_8">
     <g id="line2d_32">
      <g>
       <use style="stroke:#000000;stroke-width:0.5;" x="29.39272" xlink:href="#mf0c55a9a47" y="247.378284892"/>
      </g>
     </g>
     <g id="line2d_33">
      <g>
       <use style="stroke:#000000;stroke-width:0.5;" x="475.79272" xlink:href="#ma4f294b3af" y="247.378284892"/>
      </g>
     </g>
    </g>
    <g id="ytick_9">
     <g id="line2d_34">
      <g>
       <use style="stroke:#000000;stroke-width:0.5;" x="29.39272" xlink:href="#mf0c55a9a47" y="245.459334771"/>
      </g>
     </g>
     <g id="line2d_35">
      <g>
       <use style="stroke:#000000;stroke-width:0.5;" x="475.79272" xlink:href="#ma4f294b3af" y="245.459334771"/>
      </g>
     </g>
    </g>
    <g id="ytick_10">
     <g id="line2d_36">
      <g>
       <use style="stroke:#000000;stroke-width:0.5;" x="29.39272" xlink:href="#mf0c55a9a47" y="232.449851428"/>
      </g>
     </g>
     <g id="line2d_37">
      <g>
       <use style="stroke:#000000;stroke-width:0.5;" x="475.79272" xlink:href="#ma4f294b3af" y="232.449851428"/>
      </g>
     </g>
    </g>
    <g id="ytick_11">
     <g id="line2d_38">
      <g>
       <use style="stroke:#000000;stroke-width:0.5;" x="29.39272" xlink:href="#mf0c55a9a47" y="225.843914384"/>
      </g>
     </g>
     <g id="line2d_39">
      <g>
       <use style="stroke:#000000;stroke-width:0.5;" x="475.79272" xlink:href="#ma4f294b3af" y="225.843914384"/>
      </g>
     </g>
    </g>
    <g id="ytick_12">
     <g id="line2d_40">
      <g>
       <use style="stroke:#000000;stroke-width:0.5;" x="29.39272" xlink:href="#mf0c55a9a47" y="221.156927461"/>
      </g>
     </g>
     <g id="line2d_41">
      <g>
       <use style="stroke:#000000;stroke-width:0.5;" x="475.79272" xlink:href="#ma4f294b3af" y="221.156927461"/>
      </g>
     </g>
    </g>
    <g id="ytick_13">
     <g id="line2d_42">
      <g>
       <use style="stroke:#000000;stroke-width:0.5;" x="29.39272" xlink:href="#mf0c55a9a47" y="217.521417963"/>
      </g>
     </g>
     <g id="line2d_43">
      <g>
       <use style="stroke:#000000;stroke-width:0.5;" x="475.79272" xlink:href="#ma4f294b3af" y="217.521417963"/>
      </g>
     </g>
    </g>
    <g id="ytick_14">
     <g id="line2d_44">
      <g>
       <use style="stroke:#000000;stroke-width:0.5;" x="29.39272" xlink:href="#mf0c55a9a47" y="214.550990418"/>
      </g>
     </g>
     <g id="line2d_45">
      <g>
       <use style="stroke:#000000;stroke-width:0.5;" x="475.79272" xlink:href="#ma4f294b3af" y="214.550990418"/>
      </g>
     </g>
    </g>
    <g id="ytick_15">
     <g id="line2d_46">
      <g>
       <use style="stroke:#000000;stroke-width:0.5;" x="29.39272" xlink:href="#mf0c55a9a47" y="212.039529713"/>
      </g>
     </g>
     <g id="line2d_47">
      <g>
       <use style="stroke:#000000;stroke-width:0.5;" x="475.79272" xlink:href="#ma4f294b3af" y="212.039529713"/>
      </g>
     </g>
    </g>
    <g id="ytick_16">
     <g id="line2d_48">
      <g>
       <use style="stroke:#000000;stroke-width:0.5;" x="29.39272" xlink:href="#mf0c55a9a47" y="209.864003495"/>
      </g>
     </g>
     <g id="line2d_49">
      <g>
       <use style="stroke:#000000;stroke-width:0.5;" x="475.79272" xlink:href="#ma4f294b3af" y="209.864003495"/>
      </g>
     </g>
    </g>
    <g id="ytick_17">
     <g id="line2d_50">
      <g>
       <use style="stroke:#000000;stroke-width:0.5;" x="29.39272" xlink:href="#mf0c55a9a47" y="207.945053374"/>
      </g>
     </g>
     <g id="line2d_51">
      <g>
       <use style="stroke:#000000;stroke-width:0.5;" x="475.79272" xlink:href="#ma4f294b3af" y="207.945053374"/>
      </g>
     </g>
    </g>
    <g id="ytick_18">
     <g id="line2d_52">
      <g>
       <use style="stroke:#000000;stroke-width:0.5;" x="29.39272" xlink:href="#mf0c55a9a47" y="194.93557003"/>
      </g>
     </g>
     <g id="line2d_53">
      <g>
       <use style="stroke:#000000;stroke-width:0.5;" x="475.79272" xlink:href="#ma4f294b3af" y="194.93557003"/>
      </g>
     </g>
    </g>
    <g id="ytick_19">
     <g id="line2d_54">
      <g>
       <use style="stroke:#000000;stroke-width:0.5;" x="29.39272" xlink:href="#mf0c55a9a47" y="188.329632987"/>
      </g>
     </g>
     <g id="line2d_55">
      <g>
       <use style="stroke:#000000;stroke-width:0.5;" x="475.79272" xlink:href="#ma4f294b3af" y="188.329632987"/>
      </g>
     </g>
    </g>
    <g id="ytick_20">
     <g id="line2d_56">
      <g>
       <use style="stroke:#000000;stroke-width:0.5;" x="29.39272" xlink:href="#mf0c55a9a47" y="183.642646064"/>
      </g>
     </g>
     <g id="line2d_57">
      <g>
       <use style="stroke:#000000;stroke-width:0.5;" x="475.79272" xlink:href="#ma4f294b3af" y="183.642646064"/>
      </g>
     </g>
    </g>
    <g id="ytick_21">
     <g id="line2d_58">
      <g>
       <use style="stroke:#000000;stroke-width:0.5;" x="29.39272" xlink:href="#mf0c55a9a47" y="180.007136566"/>
      </g>
     </g>
     <g id="line2d_59">
      <g>
       <use style="stroke:#000000;stroke-width:0.5;" x="475.79272" xlink:href="#ma4f294b3af" y="180.007136566"/>
      </g>
     </g>
    </g>
    <g id="ytick_22">
     <g id="line2d_60">
      <g>
       <use style="stroke:#000000;stroke-width:0.5;" x="29.39272" xlink:href="#mf0c55a9a47" y="177.03670902"/>
      </g>
     </g>
     <g id="line2d_61">
      <g>
       <use style="stroke:#000000;stroke-width:0.5;" x="475.79272" xlink:href="#ma4f294b3af" y="177.03670902"/>
      </g>
     </g>
    </g>
    <g id="ytick_23">
     <g id="line2d_62">
      <g>
       <use style="stroke:#000000;stroke-width:0.5;" x="29.39272" xlink:href="#mf0c55a9a47" y="174.525248315"/>
      </g>
     </g>
     <g id="line2d_63">
      <g>
       <use style="stroke:#000000;stroke-width:0.5;" x="475.79272" xlink:href="#ma4f294b3af" y="174.525248315"/>
      </g>
     </g>
    </g>
    <g id="ytick_24">
     <g id="line2d_64">
      <g>
       <use style="stroke:#000000;stroke-width:0.5;" x="29.39272" xlink:href="#mf0c55a9a47" y="172.349722098"/>
      </g>
     </g>
     <g id="line2d_65">
      <g>
       <use style="stroke:#000000;stroke-width:0.5;" x="475.79272" xlink:href="#ma4f294b3af" y="172.349722098"/>
      </g>
     </g>
    </g>
    <g id="ytick_25">
     <g id="line2d_66">
      <g>
       <use style="stroke:#000000;stroke-width:0.5;" x="29.39272" xlink:href="#mf0c55a9a47" y="170.430771976"/>
      </g>
     </g>
     <g id="line2d_67">
      <g>
       <use style="stroke:#000000;stroke-width:0.5;" x="475.79272" xlink:href="#ma4f294b3af" y="170.430771976"/>
      </g>
     </g>
    </g>
    <g id="ytick_26">
     <g id="line2d_68">
      <g>
       <use style="stroke:#000000;stroke-width:0.5;" x="29.39272" xlink:href="#mf0c55a9a47" y="157.421288633"/>
      </g>
     </g>
     <g id="line2d_69">
      <g>
       <use style="stroke:#000000;stroke-width:0.5;" x="475.79272" xlink:href="#ma4f294b3af" y="157.421288633"/>
      </g>
     </g>
    </g>
    <g id="ytick_27">
     <g id="line2d_70">
      <g>
       <use style="stroke:#000000;stroke-width:0.5;" x="29.39272" xlink:href="#mf0c55a9a47" y="150.815351589"/>
      </g>
     </g>
     <g id="line2d_71">
      <g>
       <use style="stroke:#000000;stroke-width:0.5;" x="475.79272" xlink:href="#ma4f294b3af" y="150.815351589"/>
      </g>
     </g>
    </g>
    <g id="ytick_28">
     <g id="line2d_72">
      <g>
       <use style="stroke:#000000;stroke-width:0.5;" x="29.39272" xlink:href="#mf0c55a9a47" y="146.128364667"/>
      </g>
     </g>
     <g id="line2d_73">
      <g>
       <use style="stroke:#000000;stroke-width:0.5;" x="475.79272" xlink:href="#ma4f294b3af" y="146.128364667"/>
      </g>
     </g>
    </g>
    <g id="ytick_29">
     <g id="line2d_74">
      <g>
       <use style="stroke:#000000;stroke-width:0.5;" x="29.39272" xlink:href="#mf0c55a9a47" y="142.492855169"/>
      </g>
     </g>
     <g id="line2d_75">
      <g>
       <use style="stroke:#000000;stroke-width:0.5;" x="475.79272" xlink:href="#ma4f294b3af" y="142.492855169"/>
      </g>
     </g>
    </g>
    <g id="ytick_30">
     <g id="line2d_76">
      <g>
       <use style="stroke:#000000;stroke-width:0.5;" x="29.39272" xlink:href="#mf0c55a9a47" y="139.522427623"/>
      </g>
     </g>
     <g id="line2d_77">
      <g>
       <use style="stroke:#000000;stroke-width:0.5;" x="475.79272" xlink:href="#ma4f294b3af" y="139.522427623"/>
      </g>
     </g>
    </g>
    <g id="ytick_31">
     <g id="line2d_78">
      <g>
       <use style="stroke:#000000;stroke-width:0.5;" x="29.39272" xlink:href="#mf0c55a9a47" y="137.010966918"/>
      </g>
     </g>
     <g id="line2d_79">
      <g>
       <use style="stroke:#000000;stroke-width:0.5;" x="475.79272" xlink:href="#ma4f294b3af" y="137.010966918"/>
      </g>
     </g>
    </g>
    <g id="ytick_32">
     <g id="line2d_80">
      <g>
       <use style="stroke:#000000;stroke-width:0.5;" x="29.39272" xlink:href="#mf0c55a9a47" y="134.8354407"/>
      </g>
     </g>
     <g id="line2d_81">
      <g>
       <use style="stroke:#000000;stroke-width:0.5;" x="475.79272" xlink:href="#ma4f294b3af" y="134.8354407"/>
      </g>
     </g>
    </g>
    <g id="ytick_33">
     <g id="line2d_82">
      <g>
       <use style="stroke:#000000;stroke-width:0.5;" x="29.39272" xlink:href="#mf0c55a9a47" y="132.916490579"/>
      </g>
     </g>
     <g id="line2d_83">
      <g>
       <use style="stroke:#000000;stroke-width:0.5;" x="475.79272" xlink:href="#ma4f294b3af" y="132.916490579"/>
      </g>
     </g>
    </g>
    <g id="ytick_34">
     <g id="line2d_84">
      <g>
       <use style="stroke:#000000;stroke-width:0.5;" x="29.39272" xlink:href="#mf0c55a9a47" y="119.907007236"/>
      </g>
     </g>
     <g id="line2d_85">
      <g>
       <use style="stroke:#000000;stroke-width:0.5;" x="475.79272" xlink:href="#ma4f294b3af" y="119.907007236"/>
      </g>
     </g>
    </g>
    <g id="ytick_35">
     <g id="line2d_86">
      <g>
       <use style="stroke:#000000;stroke-width:0.5;" x="29.39272" xlink:href="#mf0c55a9a47" y="113.301070192"/>
      </g>
     </g>
     <g id="line2d_87">
      <g>
       <use style="stroke:#000000;stroke-width:0.5;" x="475.79272" xlink:href="#ma4f294b3af" y="113.301070192"/>
      </g>
     </g>
    </g>
    <g id="ytick_36">
     <g id="line2d_88">
      <g>
       <use style="stroke:#000000;stroke-width:0.5;" x="29.39272" xlink:href="#mf0c55a9a47" y="108.614083269"/>
      </g>
     </g>
     <g id="line2d_89">
      <g>
       <use style="stroke:#000000;stroke-width:0.5;" x="475.79272" xlink:href="#ma4f294b3af" y="108.614083269"/>
      </g>
     </g>
    </g>
    <g id="ytick_37">
     <g id="line2d_90">
      <g>
       <use style="stroke:#000000;stroke-width:0.5;" x="29.39272" xlink:href="#mf0c55a9a47" y="104.978573771"/>
      </g>
     </g>
     <g id="line2d_91">
      <g>
       <use style="stroke:#000000;stroke-width:0.5;" x="475.79272" xlink:href="#ma4f294b3af" y="104.978573771"/>
      </g>
     </g>
    </g>
    <g id="ytick_38">
     <g id="line2d_92">
      <g>
       <use style="stroke:#000000;stroke-width:0.5;" x="29.39272" xlink:href="#mf0c55a9a47" y="102.008146226"/>
      </g>
     </g>
     <g id="line2d_93">
      <g>
       <use style="stroke:#000000;stroke-width:0.5;" x="475.79272" xlink:href="#ma4f294b3af" y="102.008146226"/>
      </g>
     </g>
    </g>
    <g id="ytick_39">
     <g id="line2d_94">
      <g>
       <use style="stroke:#000000;stroke-width:0.5;" x="29.39272" xlink:href="#mf0c55a9a47" y="99.4966855207"/>
      </g>
     </g>
     <g id="line2d_95">
      <g>
       <use style="stroke:#000000;stroke-width:0.5;" x="475.79272" xlink:href="#ma4f294b3af" y="99.4966855207"/>
      </g>
     </g>
    </g>
    <g id="ytick_40">
     <g id="line2d_96">
      <g>
       <use style="stroke:#000000;stroke-width:0.5;" x="29.39272" xlink:href="#mf0c55a9a47" y="97.321159303"/>
      </g>
     </g>
     <g id="line2d_97">
      <g>
       <use style="stroke:#000000;stroke-width:0.5;" x="475.79272" xlink:href="#ma4f294b3af" y="97.321159303"/>
      </g>
     </g>
    </g>
    <g id="ytick_41">
     <g id="line2d_98">
      <g>
       <use style="stroke:#000000;stroke-width:0.5;" x="29.39272" xlink:href="#mf0c55a9a47" y="95.4022091818"/>
      </g>
     </g>
     <g id="line2d_99">
      <g>
       <use style="stroke:#000000;stroke-width:0.5;" x="475.79272" xlink:href="#ma4f294b3af" y="95.4022091818"/>
      </g>
     </g>
    </g>
    <g id="ytick_42">
     <g id="line2d_100">
      <g>
       <use style="stroke:#000000;stroke-width:0.5;" x="29.39272" xlink:href="#mf0c55a9a47" y="82.3927258385"/>
      </g>
     </g>
     <g id="line2d_101">
      <g>
       <use style="stroke:#000000;stroke-width:0.5;" x="475.79272" xlink:href="#ma4f294b3af" y="82.3927258385"/>
      </g>
     </g>
    </g>
    <g id="ytick_43">
     <g id="line2d_102">
      <g>
       <use style="stroke:#000000;stroke-width:0.5;" x="29.39272" xlink:href="#mf0c55a9a47" y="75.7867887946"/>
      </g>
     </g>
     <g id="line2d_103">
      <g>
       <use style="stroke:#000000;stroke-width:0.5;" x="475.79272" xlink:href="#ma4f294b3af" y="75.7867887946"/>
      </g>
     </g>
    </g>
    <g id="ytick_44">
     <g id="line2d_104">
      <g>
       <use style="stroke:#000000;stroke-width:0.5;" x="29.39272" xlink:href="#mf0c55a9a47" y="71.0998018721"/>
      </g>
     </g>
     <g id="line2d_105">
      <g>
       <use style="stroke:#000000;stroke-width:0.5;" x="475.79272" xlink:href="#ma4f294b3af" y="71.0998018721"/>
      </g>
     </g>
    </g>
    <g id="ytick_45">
     <g id="line2d_106">
      <g>
       <use style="stroke:#000000;stroke-width:0.5;" x="29.39272" xlink:href="#mf0c55a9a47" y="67.4642923739"/>
      </g>
     </g>
     <g id="line2d_107">
      <g>
       <use style="stroke:#000000;stroke-width:0.5;" x="475.79272" xlink:href="#ma4f294b3af" y="67.4642923739"/>
      </g>
     </g>
    </g>
    <g id="ytick_46">
     <g id="line2d_108">
      <g>
       <use style="stroke:#000000;stroke-width:0.5;" x="29.39272" xlink:href="#mf0c55a9a47" y="64.4938648283"/>
      </g>
     </g>
     <g id="line2d_109">
      <g>
       <use style="stroke:#000000;stroke-width:0.5;" x="475.79272" xlink:href="#ma4f294b3af" y="64.4938648283"/>
      </g>
     </g>
    </g>
    <g id="ytick_47">
     <g id="line2d_110">
      <g>
       <use style="stroke:#000000;stroke-width:0.5;" x="29.39272" xlink:href="#mf0c55a9a47" y="61.9824041234"/>
      </g>
     </g>
     <g id="line2d_111">
      <g>
       <use style="stroke:#000000;stroke-width:0.5;" x="475.79272" xlink:href="#ma4f294b3af" y="61.9824041234"/>
      </g>
     </g>
    </g>
    <g id="ytick_48">
     <g id="line2d_112">
      <g>
       <use style="stroke:#000000;stroke-width:0.5;" x="29.39272" xlink:href="#mf0c55a9a47" y="59.8068779057"/>
      </g>
     </g>
     <g id="line2d_113">
      <g>
       <use style="stroke:#000000;stroke-width:0.5;" x="475.79272" xlink:href="#ma4f294b3af" y="59.8068779057"/>
      </g>
     </g>
    </g>
    <g id="ytick_49">
     <g id="line2d_114">
      <g>
       <use style="stroke:#000000;stroke-width:0.5;" x="29.39272" xlink:href="#mf0c55a9a47" y="57.8879277844"/>
      </g>
     </g>
     <g id="line2d_115">
      <g>
       <use style="stroke:#000000;stroke-width:0.5;" x="475.79272" xlink:href="#ma4f294b3af" y="57.8879277844"/>
      </g>
     </g>
    </g>
    <g id="ytick_50">
     <g id="line2d_116">
      <g>
       <use style="stroke:#000000;stroke-width:0.5;" x="29.39272" xlink:href="#mf0c55a9a47" y="44.8784444411"/>
      </g>
     </g>
     <g id="line2d_117">
      <g>
       <use style="stroke:#000000;stroke-width:0.5;" x="475.79272" xlink:href="#ma4f294b3af" y="44.8784444411"/>
      </g>
     </g>
    </g>
    <g id="ytick_51">
     <g id="line2d_118">
      <g>
       <use style="stroke:#000000;stroke-width:0.5;" x="29.39272" xlink:href="#mf0c55a9a47" y="38.2725073973"/>
      </g>
     </g>
     <g id="line2d_119">
      <g>
       <use style="stroke:#000000;stroke-width:0.5;" x="475.79272" xlink:href="#ma4f294b3af" y="38.2725073973"/>
      </g>
     </g>
    </g>
    <g id="ytick_52">
     <g id="line2d_120">
      <g>
       <use style="stroke:#000000;stroke-width:0.5;" x="29.39272" xlink:href="#mf0c55a9a47" y="33.5855204747"/>
      </g>
     </g>
     <g id="line2d_121">
      <g>
       <use style="stroke:#000000;stroke-width:0.5;" x="475.79272" xlink:href="#ma4f294b3af" y="33.5855204747"/>
      </g>
     </g>
    </g>
    <g id="ytick_53">
     <g id="line2d_122">
      <g>
       <use style="stroke:#000000;stroke-width:0.5;" x="29.39272" xlink:href="#mf0c55a9a47" y="29.9500109765"/>
      </g>
     </g>
     <g id="line2d_123">
      <g>
       <use style="stroke:#000000;stroke-width:0.5;" x="475.79272" xlink:href="#ma4f294b3af" y="29.9500109765"/>
      </g>
     </g>
    </g>
    <g id="ytick_54">
     <g id="line2d_124">
      <g>
       <use style="stroke:#000000;stroke-width:0.5;" x="29.39272" xlink:href="#mf0c55a9a47" y="26.9795834309"/>
      </g>
     </g>
     <g id="line2d_125">
      <g>
       <use style="stroke:#000000;stroke-width:0.5;" x="475.79272" xlink:href="#ma4f294b3af" y="26.9795834309"/>
      </g>
     </g>
    </g>
    <g id="ytick_55">
     <g id="line2d_126">
      <g>
       <use style="stroke:#000000;stroke-width:0.5;" x="29.39272" xlink:href="#mf0c55a9a47" y="24.4681227261"/>
      </g>
     </g>
     <g id="line2d_127">
      <g>
       <use style="stroke:#000000;stroke-width:0.5;" x="475.79272" xlink:href="#ma4f294b3af" y="24.4681227261"/>
      </g>
     </g>
    </g>
    <g id="ytick_56">
     <g id="line2d_128">
      <g>
       <use style="stroke:#000000;stroke-width:0.5;" x="29.39272" xlink:href="#mf0c55a9a47" y="22.2925965084"/>
      </g>
     </g>
     <g id="line2d_129">
      <g>
       <use style="stroke:#000000;stroke-width:0.5;" x="475.79272" xlink:href="#ma4f294b3af" y="22.2925965084"/>
      </g>
     </g>
    </g>
    <g id="ytick_57"/>
   </g>
   <g id="legend_1">
    <g id="patch_7">
     <path d="
M77.1949 25.1944
L427.991 25.1944
Q429.99 25.1944 429.99 23.1952
L429.99 9.1992
Q429.99 7.2 427.991 7.2
L77.1949 7.2
Q75.1957 7.2 75.1957 9.1992
L75.1957 23.1952
Q75.1957 25.1944 77.1949 25.1944
z
" style="fill:#ffffff;stroke:#000000;stroke-linejoin:miter;"/>
    </g>
    <g id="line2d_130">
     <path d="
M82.1929 15.2952
L96.1873 15.2952" style="fill:none;stroke:#348abd;stroke-linecap:square;stroke-width:2.0;"/>
    </g>
    <g id="line2d_131"/>
    <g id="text_14">
     <!-- 3阶多项式的误差 -->
     <defs>
      <path d="
M89.8438 62.8906
L89.8438 12.1094
L82.0312 12.1094
L82.0312 55.8594
L50 55.8594
L50 11.7188
L42.5781 11.7188
L42.5781 62.8906
L59.7656 62.8906
Q60.5469 66.7969 60.9375 70.7031
L38.6719 70.7031
L38.6719 77.7344
L92.9688 77.7344
L92.9688 70.7031
L68.75 70.7031
Q68.3594 66.7969 67.5781 62.8906
z

M62.5 47.6562
L69.9219 47.6562
Q69.9219 30.0781 69.5312 29.2969
Q69.5312 15.2344 62.1094 6.04688
Q54.6875 -3.125 38.2812 -8.98438
L33.2031 -2.34375
Q45.3125 1.5625 51.75 7.03125
Q58.2031 12.5 60.3438 18.75
Q62.5 25 62.5 47.6562
M73.0469 12.8906
Q83.9844 6.25 94.9219 -2.73438
L89.0625 -8.98438
Q79.6875 0 67.1875 8.59375
z

M5.85938 72.2656
L34.375 72.2656
L34.375 64.8438
L24.2188 64.8438
L24.2188 15.625
L34.7656 19.9219
L35.9375 12.8906
Q22.6562 7.03125 6.64062 3.125
L5.07812 10.5469
Q10.9375 12.1094 16.4062 13.2812
L16.4062 64.8438
L5.85938 64.8438
z
" id="WenQuanYiMicroHei-9879"/>
      <path d="
M50.3906 81.6406
L58.2031 80.0781
Q55.0781 76.1719 51.1719 73.0469
L83.5938 73.0469
L83.5938 66.0156
Q68.3594 42.1875 13.6719 34.375
L10.5469 42.1875
Q60.9375 47.2656 74.6094 66.0156
L41.4062 66.0156
L35.9375 62.8906
Q40.2344 59.7656 44.5312 56.25
L39.0625 50.7812
Q34.375 55.0781 28.5156 59.375
Q23.4375 57.0312 18.3594 55.4688
L13.2812 60.9375
Q31.25 67.1875 38.6719 72.6562
L39.0625 73.0469
L39.4531 73.0469
Q46.0938 77.3438 50.3906 81.6406
M55.0781 42.1875
L62.1094 38.6719
Q59.7656 36.7188 57.0312 34.7656
L87.1094 34.7656
L87.1094 27.7344
Q69.9219 -0.390625 9.375 -9.375
L6.25 -1.5625
Q63.2812 5.07812 78.125 27.7344
L47.6562 27.7344
Q41.0156 23.0469 37.1094 21.4844
Q42.1875 17.9688 46.875 14.0625
L41.0156 8.20312
Q35.9375 12.8906 29.6875 17.5781
Q24.2188 14.8438 18.75 12.8906
L14.0625 19.5312
Q37.1094 27.3438 55.0781 42.1875" id="WenQuanYiMicroHei-591a"/>
      <path d="
M32.8125 82.0312
Q37.1094 76.9531 40.2344 71.0938
L59.375 71.0938
Q63.6719 76.9531 66.0156 82.0312
L75 79.2969
Q72.2656 74.6094 68.75 71.0938
L89.8438 71.0938
L89.8438 63.6719
L54.2969 63.6719
Q53.5156 59.375 52.3438 55.0781
L86.7188 55.0781
L86.7188 48.0469
L50 48.0469
L46.4844 39.4531
L92.9688 39.4531
L92.9688 32.0312
L42.5781 32.0312
Q39.4531 26.5625 35.9375 22.2656
L87.5 22.2656
L87.5 14.8438
L57.8125 14.8438
L57.8125 1.5625
L92.5781 1.5625
L92.5781 -5.85938
L15.2344 -5.85938
L15.2344 1.5625
L50 1.5625
L50 14.8438
L28.9062 14.8438
Q19.5312 6.64062 9.375 2.73438
L5.07812 9.76562
Q21.4844 16.4062 32.8125 32.0312
L7.42188 32.0312
L7.42188 39.4531
L37.5 39.4531
Q39.4531 42.9688 41.4062 48.0469
L12.5 48.0469
L12.5 55.0781
L43.75 55.0781
Q44.9219 59.375 45.7031 63.6719
L10.1562 63.6719
L10.1562 71.0938
L30.4688 71.0938
Q28.125 75 25.3906 78.5156
z
" id="WenQuanYiMicroHei-5dee"/>
      <path d="
M58.9844 80.4688
L66.7969 78.9062
Q64.8438 71.4844 61.7188 64.4531
L92.1875 64.4531
Q92.1875 12.8906 88.6719 0.78125
Q85.9375 -8.98438 75.7812 -8.98438
Q70.7031 -8.98438 63.6719 -7.42188
L61.7188 0.78125
Q71.4844 -0.78125 75.7812 -0.78125
Q80.4688 -0.78125 81.6406 4.6875
Q83.9844 15.2344 83.9844 57.0312
L57.8125 57.0312
Q53.125 48.8281 47.6562 43.3594
L41.7969 48.8281
Q53.5156 61.7188 58.9844 80.4688
M62.1094 41.7969
Q67.9688 33.2031 71.875 22.6562
L64.4531 19.1406
Q60.5469 30.0781 54.6875 38.6719
z

M40.2344 67.9688
L40.2344 -2.73438
L33.2031 -2.73438
L33.2031 0.390625
L15.2344 0.390625
L15.2344 -5.46875
L8.20312 -5.46875
L8.20312 67.9688
L16.7969 67.9688
Q18.75 74.2188 19.5312 80.8594
L27.7344 79.2969
Q26.1719 73.0469 24.2188 67.9688
z

M33.2031 37.8906
L33.2031 60.5469
L15.2344 60.5469
L15.2344 37.8906
z

M15.2344 30.4688
L15.2344 7.8125
L33.2031 7.8125
L33.2031 30.4688
z
" id="WenQuanYiMicroHei-7684"/>
      <path d="
M7.03125 64.0625
L55.8594 64.0625
Q55.0781 72.2656 55.0781 80.8594
L63.6719 80.8594
Q63.6719 71.875 64.0625 64.0625
L93.3594 64.0625
L93.3594 56.6406
L64.4531 56.6406
Q66.4062 30.8594 73.8281 12.5
Q78.9062 0.390625 82.0312 0.390625
Q85.5469 0.390625 87.5 18.75
L94.5312 16.0156
Q92.5781 0.78125 89.6406 -4.09375
Q86.7188 -8.98438 82.0312 -8.98438
Q75.3906 -8.98438 68.75 4.6875
Q58.9844 25.3906 56.25 56.6406
L7.03125 56.6406
z

M76.1719 80.8594
Q82.8125 77.3438 87.8906 72.2656
L82.8125 66.0156
Q77.3438 71.875 71.0938 75.7812
z

M10.1562 40.625
L51.5625 40.625
L51.5625 33.2031
L33.9844 33.2031
L33.9844 8.20312
Q44.9219 9.76562 53.9062 11.7188
L55.0781 4.29688
Q34.375 -0.78125 8.59375 -3.90625
L7.03125 4.29688
Q17.1875 5.46875 26.1719 7.03125
L26.1719 33.2031
L10.1562 33.2031
z
" id="WenQuanYiMicroHei-5f0f"/>
      <path d="
M41.4062 77.7344
L41.4062 69.9219
L30.8594 48.0469
Q39.0625 38.2812 39.0625 28.125
Q39.0625 20.3125 35.7344 16.2031
Q32.4219 12.1094 25.7812 12.1094
Q23.4375 12.1094 19.9219 12.8906
L18.3594 21.0938
Q22.6562 19.9219 25.7812 19.9219
Q28.5156 19.9219 29.875 22.0625
Q31.25 24.2188 31.25 28.125
Q31.25 37.5 21.875 46.875
L32.8125 69.9219
L15.625 69.9219
L15.625 -9.375
L8.20312 -9.375
L8.20312 77.7344
z

M64.8438 80.8594
L72.2656 78.5156
L69.9219 74.2188
Q81.25 58.5938 96.0938 47.6562
L91.4062 40.625
Q77.3438 51.9531 66.0156 67.5781
Q55.4688 50.7812 41.7969 39.8438
L37.5 46.4844
Q56.6406 62.8906 64.8438 80.8594
M74.6094 44.5312
L82.4219 44.5312
L82.4219 -9.375
L74.6094 -9.375
z

M50.3906 43.75
L58.2031 43.75
L58.2031 29.2969
Q58.2031 1.5625 42.9688 -9.375
L37.5 -3.51562
Q50 5.46875 50.3906 30.4688
z
" id="WenQuanYiMicroHei-9636"/>
      <path d="
M19.5312 80.8594
Q25.7812 73.0469 29.6875 64.4531
L22.2656 60.1562
Q18.75 68.75 12.5 76.5625
z

M5.07812 51.9531
L25.3906 51.9531
L25.3906 8.98438
L30.4688 16.0156
L35.1562 11.7188
Q30.8594 3.51562 23.8281 -3.90625
L17.9688 1.17188
L17.9688 44.9219
L5.07812 44.9219
z

M39.0625 77.7344
L86.7188 77.7344
L86.7188 50.3906
L39.0625 50.3906
z

M46.875 57.4219
L78.9062 57.4219
L78.9062 70.7031
L46.875 70.7031
z

M58.2031 35.9375
L37.1094 35.9375
L37.1094 43.3594
L88.2812 43.3594
L88.2812 35.9375
L66.4062 35.9375
Q65.625 30.0781 64.4531 25.3906
L92.9688 25.3906
L92.9688 17.9688
L67.5781 17.9688
Q77.7344 3.90625 94.9219 -1.5625
L90.625 -8.98438
Q72.2656 -1.5625 61.3281 14.8438
Q54.2969 -2.73438 33.5938 -8.98438
L30.0781 -1.5625
Q48.0469 3.90625 53.9062 17.9688
L33.2031 17.9688
L33.2031 25.3906
L56.25 25.3906
Q57.8125 30.0781 58.2031 35.9375" id="WenQuanYiMicroHei-8bef"/>
     </defs>
     <g transform="translate(107.182938438 18.793798125)scale(0.09996 -0.09996)">
      <use xlink:href="#WenQuanYiMicroHei-33"/>
      <use x="55.078125" xlink:href="#WenQuanYiMicroHei-9636"/>
      <use x="155.078125" xlink:href="#WenQuanYiMicroHei-591a"/>
      <use x="255.078125" xlink:href="#WenQuanYiMicroHei-9879"/>
      <use x="355.078125" xlink:href="#WenQuanYiMicroHei-5f0f"/>
      <use x="455.078125" xlink:href="#WenQuanYiMicroHei-7684"/>
      <use x="555.078125" xlink:href="#WenQuanYiMicroHei-8bef"/>
      <use x="655.078125" xlink:href="#WenQuanYiMicroHei-5dee"/>
     </g>
    </g>
    <g id="line2d_132">
     <path d="
M204.549 15.2952
L218.543 15.2952" style="fill:none;stroke:#a60628;stroke-linecap:square;stroke-width:2.0;"/>
    </g>
    <g id="line2d_133"/>
    <g id="text_15">
     <!-- 5阶多项式的误差 -->
     <g transform="translate(229.538664063 18.793798125)scale(0.09996 -0.09996)">
      <use xlink:href="#WenQuanYiMicroHei-35"/>
      <use x="55.078125" xlink:href="#WenQuanYiMicroHei-9636"/>
      <use x="155.078125" xlink:href="#WenQuanYiMicroHei-591a"/>
      <use x="255.078125" xlink:href="#WenQuanYiMicroHei-9879"/>
      <use x="355.078125" xlink:href="#WenQuanYiMicroHei-5f0f"/>
      <use x="455.078125" xlink:href="#WenQuanYiMicroHei-7684"/>
      <use x="555.078125" xlink:href="#WenQuanYiMicroHei-8bef"/>
      <use x="655.078125" xlink:href="#WenQuanYiMicroHei-5dee"/>
     </g>
    </g>
    <g id="line2d_134">
     <path d="
M326.665 15.2952
L340.66 15.2952" style="fill:none;stroke:#7a68a6;stroke-linecap:square;stroke-width:2.0;"/>
    </g>
    <g id="line2d_135"/>
    <g id="text_16">
     <!-- 7阶多项式的误差 -->
     <g transform="translate(351.655422812 18.793798125)scale(0.09996 -0.09996)">
      <use xlink:href="#WenQuanYiMicroHei-37"/>
      <use x="55.078125" xlink:href="#WenQuanYiMicroHei-9636"/>
      <use x="155.078125" xlink:href="#WenQuanYiMicroHei-591a"/>
      <use x="255.078125" xlink:href="#WenQuanYiMicroHei-9879"/>
      <use x="355.078125" xlink:href="#WenQuanYiMicroHei-5f0f"/>
      <use x="455.078125" xlink:href="#WenQuanYiMicroHei-7684"/>
      <use x="555.078125" xlink:href="#WenQuanYiMicroHei-8bef"/>
      <use x="655.078125" xlink:href="#WenQuanYiMicroHei-5dee"/>
     </g>
    </g>
   </g>
  </g>
 </g>
 <defs>
  <clipPath id="p0e6528ba2d">
   <rect height="230.4" width="446.4" x="29.39272" y="20.634"/>
  </clipPath>
 </defs>
</svg>
