<?xml version="1.0" encoding="UTF-8" standalone="no"?>
<!DOCTYPE svg PUBLIC "-//W3C//DTD SVG 1.1//EN"
 "http://www.w3.org/Graphics/SVG/1.1/DTD/svg11.dtd">
<!-- Generated by graphviz version 2.36.0 (20140111.2315)
 -->
<!-- Title: structs Pages: 1 -->
<svg width="656pt" height="211pt"
 viewBox="0.00 0.00 656.00 211.00" xmlns="http://www.w3.org/2000/svg" xmlns:xlink="http://www.w3.org/1999/xlink">
<g id="graph0" class="graph" transform="scale(1 1) rotate(0) translate(4 207)">
<title>structs</title>
<polygon fill="white" stroke="none" points="-4,4 -4,-207 652,-207 652,4 -4,4"/>
<!-- CylinderSource -->
<g id="node1" class="node"><title>CylinderSource</title>
<polygon fill="lightgrey" stroke="black" points="0,-165 0,-203 104,-203 104,-165 0,-165"/>
<text text-anchor="middle" x="52" y="-187.8" font-family="Times New Roman,serif" font-size="14.00">CylinderSource</text>
<text text-anchor="middle" x="52" y="-172.8" font-family="Times New Roman,serif" font-size="14.00">(outer)</text>
</g>
<!-- TriangleFilter -->
<g id="node2" class="node"><title>TriangleFilter</title>
<polygon fill="lightgrey" stroke="black" points="142,-166 142,-202 232,-202 232,-166 142,-166"/>
<text text-anchor="middle" x="187" y="-180.3" font-family="Times New Roman,serif" font-size="14.00">TriangleFilter</text>
</g>
<!-- CylinderSource&#45;&gt;TriangleFilter -->
<g id="edge1" class="edge"><title>CylinderSource&#45;&gt;TriangleFilter</title>
<path fill="none" stroke="black" stroke-width="2" d="M104.041,-184C113.089,-184 122.541,-184 131.676,-184"/>
<polygon fill="black" stroke="black" stroke-width="2" points="131.817,-187.5 141.817,-184 131.817,-180.5 131.817,-187.5"/>
</g>
<!-- TransformFilter -->
<g id="node3" class="node"><title>TransformFilter</title>
<polygon fill="lightgrey" stroke="black" points="308,-111 308,-147 412,-147 412,-111 308,-111"/>
<text text-anchor="middle" x="360" y="-125.3" font-family="Times New Roman,serif" font-size="14.00">TransformFilter</text>
</g>
<!-- TriangleFilter&#45;&gt;TransformFilter -->
<g id="edge2" class="edge"><title>TriangleFilter&#45;&gt;TransformFilter</title>
<path fill="none" stroke="black" stroke-width="2" d="M232.037,-169.836C252.208,-163.348 276.441,-155.554 298.305,-148.522"/>
<polygon fill="black" stroke="black" stroke-width="2" points="299.388,-151.85 307.836,-145.456 297.244,-145.186 299.388,-151.85"/>
</g>
<!-- BooleanOperationPolyDataFilter -->
<g id="node5" class="node"><title>BooleanOperationPolyDataFilter</title>
<polygon fill="lightgrey" stroke="black" points="450.5,-86 450.5,-124 647.5,-124 647.5,-86 450.5,-86"/>
<text text-anchor="middle" x="549" y="-108.8" font-family="Times New Roman,serif" font-size="14.00">BooleanOperationPolyDataFilter</text>
<text text-anchor="middle" x="549" y="-93.8" font-family="Times New Roman,serif" font-size="14.00">(difference)</text>
</g>
<!-- TransformFilter&#45;&gt;BooleanOperationPolyDataFilter -->
<g id="edge4" class="edge"><title>TransformFilter&#45;&gt;BooleanOperationPolyDataFilter</title>
<path fill="none" stroke="black" stroke-width="2" d="M412.099,-122.442C420.927,-121.309 430.396,-120.094 440.075,-118.851"/>
<polygon fill="black" stroke="black" stroke-width="2" points="440.748,-122.294 450.221,-117.549 439.857,-115.351 440.748,-122.294"/>
</g>
<!-- Transform -->
<g id="node4" class="node"><title>Transform</title>
<polygon fill="lightgrey" stroke="black" points="149,-111 149,-147 225,-147 225,-111 149,-111"/>
<text text-anchor="middle" x="187" y="-125.3" font-family="Times New Roman,serif" font-size="14.00">Transform</text>
</g>
<!-- Transform&#45;&gt;TransformFilter -->
<g id="edge3" class="edge"><title>Transform&#45;&gt;TransformFilter</title>
<path fill="none" stroke="black" d="M225.104,-129C246.248,-129 273.279,-129 297.51,-129"/>
<polygon fill="black" stroke="black" points="297.698,-132.5 307.698,-129 297.698,-125.5 297.698,-132.5"/>
<text text-anchor="middle" x="270" y="-132" font-family="Times New Roman,serif" font-size="10.00">transform</text>
</g>
<!-- CylinderSource2 -->
<g id="node6" class="node"><title>CylinderSource2</title>
<polygon fill="lightgrey" stroke="black" points="0,-0 0,-38 104,-38 104,-0 0,-0"/>
<text text-anchor="middle" x="52" y="-22.8" font-family="Times New Roman,serif" font-size="14.00">CylinderSource</text>
<text text-anchor="middle" x="52" y="-7.8" font-family="Times New Roman,serif" font-size="14.00">(inner)</text>
</g>
<!-- TriangleFilter2 -->
<g id="node7" class="node"><title>TriangleFilter2</title>
<polygon fill="lightgrey" stroke="black" points="142,-1 142,-37 232,-37 232,-1 142,-1"/>
<text text-anchor="middle" x="187" y="-15.3" font-family="Times New Roman,serif" font-size="14.00">TriangleFilter</text>
</g>
<!-- CylinderSource2&#45;&gt;TriangleFilter2 -->
<g id="edge5" class="edge"><title>CylinderSource2&#45;&gt;TriangleFilter2</title>
<path fill="none" stroke="black" stroke-width="2" d="M104.041,-19C113.089,-19 122.541,-19 131.676,-19"/>
<polygon fill="black" stroke="black" stroke-width="2" points="131.817,-22.5001 141.817,-19 131.817,-15.5001 131.817,-22.5001"/>
</g>
<!-- TransformFilter2 -->
<g id="node8" class="node"><title>TransformFilter2</title>
<polygon fill="lightgrey" stroke="black" points="308,-56 308,-92 412,-92 412,-56 308,-56"/>
<text text-anchor="middle" x="360" y="-70.3" font-family="Times New Roman,serif" font-size="14.00">TransformFilter</text>
</g>
<!-- TriangleFilter2&#45;&gt;TransformFilter2 -->
<g id="edge6" class="edge"><title>TriangleFilter2&#45;&gt;TransformFilter2</title>
<path fill="none" stroke="black" stroke-width="2" d="M232.037,-33.1639C252.208,-39.6516 276.441,-47.446 298.305,-54.4784"/>
<polygon fill="black" stroke="black" stroke-width="2" points="297.244,-57.8135 307.836,-57.5436 299.388,-51.1497 297.244,-57.8135"/>
</g>
<!-- TransformFilter2&#45;&gt;BooleanOperationPolyDataFilter -->
<g id="edge8" class="edge"><title>TransformFilter2&#45;&gt;BooleanOperationPolyDataFilter</title>
<path fill="none" stroke="black" stroke-width="2" d="M412.099,-82.4709C420.927,-83.9344 430.396,-85.5041 440.075,-87.1087"/>
<polygon fill="black" stroke="black" stroke-width="2" points="439.783,-90.608 450.221,-88.7907 440.928,-83.7023 439.783,-90.608"/>
</g>
<!-- Transform2 -->
<g id="node9" class="node"><title>Transform2</title>
<polygon fill="lightgrey" stroke="black" points="149,-56 149,-92 225,-92 225,-56 149,-56"/>
<text text-anchor="middle" x="187" y="-70.3" font-family="Times New Roman,serif" font-size="14.00">Transform</text>
</g>
<!-- Transform2&#45;&gt;TransformFilter2 -->
<g id="edge7" class="edge"><title>Transform2&#45;&gt;TransformFilter2</title>
<path fill="none" stroke="black" d="M225.104,-74C246.248,-74 273.279,-74 297.51,-74"/>
<polygon fill="black" stroke="black" points="297.698,-77.5001 307.698,-74 297.698,-70.5001 297.698,-77.5001"/>
<text text-anchor="middle" x="270" y="-77" font-family="Times New Roman,serif" font-size="10.00">transform</text>
</g>
</g>
</svg>
