<?xml version="1.0" encoding="UTF-8" standalone="no"?>
<!DOCTYPE svg PUBLIC "-//W3C//DTD SVG 1.1//EN"
 "http://www.w3.org/Graphics/SVG/1.1/DTD/svg11.dtd">
<!-- Generated by graphviz version 2.38.0 (20140413.2041)
 -->
<!-- Title: structs Pages: 1 -->
<svg width="715pt" height="210pt"
 viewBox="0.00 0.00 715.00 210.00" xmlns="http://www.w3.org/2000/svg" xmlns:xlink="http://www.w3.org/1999/xlink">
<g id="graph0" class="graph" transform="scale(1 1) rotate(0) translate(4 206)">
<title>structs</title>
<polygon fill="white" stroke="none" points="-4,4 -4,-206 711,-206 711,4 -4,4"/>
<!-- tube1 -->
<g id="node1" class="node"><title>tube1</title>
<polygon fill="lightgrey" stroke="black" points="14,-110.5 14,-146.5 68,-146.5 68,-110.5 14,-110.5"/>
<text text-anchor="middle" x="41" y="-124.8" font-family="Times New Roman,serif" font-size="14.00">tube1</text>
</g>
<!-- BooleanOperationPolyDataFilter -->
<g id="node2" class="node"><title>BooleanOperationPolyDataFilter</title>
<polygon fill="lightgrey" stroke="black" points="118,-137.5 118,-173.5 380,-173.5 380,-137.5 118,-137.5"/>
<text text-anchor="middle" x="249" y="-151.8" font-family="Times New Roman,serif" font-size="14.00">BooleanOperationPolyDataFilter(difference)</text>
</g>
<!-- tube1&#45;&gt;BooleanOperationPolyDataFilter -->
<g id="edge1" class="edge"><title>tube1&#45;&gt;BooleanOperationPolyDataFilter</title>
<path fill="none" stroke="black" stroke-width="2" d="M68.09,-131.92C79.1026,-133.363 92.8405,-135.164 107.786,-137.122"/>
<polygon fill="black" stroke="black" stroke-width="2" points="107.395,-140.601 117.765,-138.43 108.305,-133.66 107.395,-140.601"/>
</g>
<!-- IntersectionPolyDataFilter -->
<g id="node7" class="node"><title>IntersectionPolyDataFilter</title>
<polygon fill="lightgrey" stroke="black" points="168.5,-82.5 168.5,-118.5 329.5,-118.5 329.5,-82.5 168.5,-82.5"/>
<text text-anchor="middle" x="249" y="-96.8" font-family="Times New Roman,serif" font-size="14.00">IntersectionPolyDataFilter</text>
</g>
<!-- tube1&#45;&gt;IntersectionPolyDataFilter -->
<g id="edge5" class="edge"><title>tube1&#45;&gt;IntersectionPolyDataFilter</title>
<path fill="none" stroke="black" stroke-width="2" d="M68.09,-124.954C90.9509,-121.846 125.556,-117.143 158.329,-112.688"/>
<polygon fill="black" stroke="black" stroke-width="2" points="158.989,-116.131 168.426,-111.316 158.046,-109.195 158.989,-116.131"/>
</g>
<!-- PolyDataMapper1 -->
<g id="node8" class="node"><title>PolyDataMapper1</title>
<polygon fill="lightgrey" stroke="black" points="416,-137.5 416,-173.5 527,-173.5 527,-137.5 416,-137.5"/>
<text text-anchor="middle" x="471.5" y="-151.8" font-family="Times New Roman,serif" font-size="14.00">PolyDataMapper</text>
</g>
<!-- BooleanOperationPolyDataFilter&#45;&gt;PolyDataMapper1 -->
<g id="edge7" class="edge"><title>BooleanOperationPolyDataFilter&#45;&gt;PolyDataMapper1</title>
<path fill="none" stroke="black" stroke-width="2" d="M380.178,-155.5C388.963,-155.5 397.573,-155.5 405.776,-155.5"/>
<polygon fill="black" stroke="black" stroke-width="2" points="405.93,-159 415.93,-155.5 405.93,-152 405.93,-159"/>
</g>
<!-- tube2_inner -->
<g id="node3" class="node"><title>tube2_inner</title>
<polygon fill="lightgrey" stroke="black" points="0,-165.5 0,-201.5 82,-201.5 82,-165.5 0,-165.5"/>
<text text-anchor="middle" x="41" y="-179.8" font-family="Times New Roman,serif" font-size="14.00">tube2_inner</text>
</g>
<!-- tube2_inner&#45;&gt;BooleanOperationPolyDataFilter -->
<g id="edge2" class="edge"><title>tube2_inner&#45;&gt;BooleanOperationPolyDataFilter</title>
<path fill="none" stroke="black" stroke-width="2" d="M82.2079,-178.035C90.0328,-176.971 98.6395,-175.801 107.691,-174.571"/>
<polygon fill="black" stroke="black" stroke-width="2" points="108.233,-178.03 117.671,-173.215 107.29,-171.093 108.233,-178.03"/>
</g>
<!-- tube2 -->
<g id="node4" class="node"><title>tube2</title>
<polygon fill="lightgrey" stroke="black" points="14,-55.5 14,-91.5 68,-91.5 68,-55.5 14,-55.5"/>
<text text-anchor="middle" x="41" y="-69.8" font-family="Times New Roman,serif" font-size="14.00">tube2</text>
</g>
<!-- BooleanOperationPolyDataFilter2 -->
<g id="node5" class="node"><title>BooleanOperationPolyDataFilter2</title>
<polygon fill="lightgrey" stroke="black" points="118,-27.5 118,-63.5 380,-63.5 380,-27.5 118,-27.5"/>
<text text-anchor="middle" x="249" y="-41.8" font-family="Times New Roman,serif" font-size="14.00">BooleanOperationPolyDataFilter(difference)</text>
</g>
<!-- tube2&#45;&gt;BooleanOperationPolyDataFilter2 -->
<g id="edge3" class="edge"><title>tube2&#45;&gt;BooleanOperationPolyDataFilter2</title>
<path fill="none" stroke="black" stroke-width="2" d="M68.09,-69.9538C79.1026,-68.4569 92.8405,-66.5896 107.786,-64.5582"/>
<polygon fill="black" stroke="black" stroke-width="2" points="108.328,-68.0168 117.765,-63.2018 107.385,-61.0806 108.328,-68.0168"/>
</g>
<!-- tube2&#45;&gt;IntersectionPolyDataFilter -->
<g id="edge6" class="edge"><title>tube2&#45;&gt;IntersectionPolyDataFilter</title>
<path fill="none" stroke="black" stroke-width="2" d="M68.09,-76.9196C90.9509,-79.9159 125.556,-84.4515 158.329,-88.747"/>
<polygon fill="black" stroke="black" stroke-width="2" points="158.056,-92.2411 168.426,-90.0705 158.966,-85.3005 158.056,-92.2411"/>
</g>
<!-- PolyDataMapper3 -->
<g id="node10" class="node"><title>PolyDataMapper3</title>
<polygon fill="lightgrey" stroke="black" points="416,-27.5 416,-63.5 527,-63.5 527,-27.5 416,-27.5"/>
<text text-anchor="middle" x="471.5" y="-41.8" font-family="Times New Roman,serif" font-size="14.00">PolyDataMapper</text>
</g>
<!-- BooleanOperationPolyDataFilter2&#45;&gt;PolyDataMapper3 -->
<g id="edge9" class="edge"><title>BooleanOperationPolyDataFilter2&#45;&gt;PolyDataMapper3</title>
<path fill="none" stroke="black" stroke-width="2" d="M380.178,-45.5C388.963,-45.5 397.573,-45.5 405.776,-45.5"/>
<polygon fill="black" stroke="black" stroke-width="2" points="405.93,-49.0001 415.93,-45.5 405.93,-42.0001 405.93,-49.0001"/>
</g>
<!-- tube1_inner -->
<g id="node6" class="node"><title>tube1_inner</title>
<polygon fill="lightgrey" stroke="black" points="0,-0.5 0,-36.5 82,-36.5 82,-0.5 0,-0.5"/>
<text text-anchor="middle" x="41" y="-14.8" font-family="Times New Roman,serif" font-size="14.00">tube1_inner</text>
</g>
<!-- tube1_inner&#45;&gt;BooleanOperationPolyDataFilter2 -->
<g id="edge4" class="edge"><title>tube1_inner&#45;&gt;BooleanOperationPolyDataFilter2</title>
<path fill="none" stroke="black" stroke-width="2" d="M82.2079,-23.77C90.0328,-24.7956 98.6395,-25.9236 107.691,-27.1099"/>
<polygon fill="black" stroke="black" stroke-width="2" points="107.3,-30.5887 117.671,-28.418 108.21,-23.648 107.3,-30.5887"/>
</g>
<!-- PolyDataMapper2 -->
<g id="node9" class="node"><title>PolyDataMapper2</title>
<polygon fill="lightgrey" stroke="black" points="416,-82.5 416,-118.5 527,-118.5 527,-82.5 416,-82.5"/>
<text text-anchor="middle" x="471.5" y="-96.8" font-family="Times New Roman,serif" font-size="14.00">PolyDataMapper</text>
</g>
<!-- IntersectionPolyDataFilter&#45;&gt;PolyDataMapper2 -->
<g id="edge8" class="edge"><title>IntersectionPolyDataFilter&#45;&gt;PolyDataMapper2</title>
<path fill="none" stroke="black" stroke-width="2" d="M329.606,-100.5C354.647,-100.5 381.98,-100.5 405.851,-100.5"/>
<polygon fill="black" stroke="black" stroke-width="2" points="405.853,-104 415.853,-100.5 405.853,-97.0001 405.853,-104"/>
</g>
<!-- Actor1 -->
<g id="node11" class="node"><title>Actor1</title>
<polygon fill="lightgrey" stroke="black" points="563,-137.5 563,-173.5 617,-173.5 617,-137.5 563,-137.5"/>
<text text-anchor="middle" x="590" y="-151.8" font-family="Times New Roman,serif" font-size="14.00">Actor</text>
</g>
<!-- PolyDataMapper1&#45;&gt;Actor1 -->
<g id="edge10" class="edge"><title>PolyDataMapper1&#45;&gt;Actor1</title>
<path fill="none" stroke="black" stroke-width="2" d="M527.339,-155.5C535.956,-155.5 544.673,-155.5 552.733,-155.5"/>
<polygon fill="black" stroke="black" stroke-width="2" points="552.885,-159 562.885,-155.5 552.885,-152 552.885,-159"/>
</g>
<!-- Actor2 -->
<g id="node12" class="node"><title>Actor2</title>
<polygon fill="lightgrey" stroke="black" points="563,-82.5 563,-118.5 617,-118.5 617,-82.5 563,-82.5"/>
<text text-anchor="middle" x="590" y="-96.8" font-family="Times New Roman,serif" font-size="14.00">Actor</text>
</g>
<!-- PolyDataMapper2&#45;&gt;Actor2 -->
<g id="edge11" class="edge"><title>PolyDataMapper2&#45;&gt;Actor2</title>
<path fill="none" stroke="black" stroke-width="2" d="M527.339,-100.5C535.956,-100.5 544.673,-100.5 552.733,-100.5"/>
<polygon fill="black" stroke="black" stroke-width="2" points="552.885,-104 562.885,-100.5 552.885,-97.0001 552.885,-104"/>
</g>
<!-- Actor3 -->
<g id="node13" class="node"><title>Actor3</title>
<polygon fill="lightgrey" stroke="black" points="563,-27.5 563,-63.5 617,-63.5 617,-27.5 563,-27.5"/>
<text text-anchor="middle" x="590" y="-41.8" font-family="Times New Roman,serif" font-size="14.00">Actor</text>
</g>
<!-- PolyDataMapper3&#45;&gt;Actor3 -->
<g id="edge12" class="edge"><title>PolyDataMapper3&#45;&gt;Actor3</title>
<path fill="none" stroke="black" stroke-width="2" d="M527.339,-45.5C535.956,-45.5 544.673,-45.5 552.733,-45.5"/>
<polygon fill="black" stroke="black" stroke-width="2" points="552.885,-49.0001 562.885,-45.5 552.885,-42.0001 552.885,-49.0001"/>
</g>
<!-- Scene -->
<g id="node14" class="node"><title>Scene</title>
<polygon fill="lightgrey" stroke="black" points="653,-82.5 653,-118.5 707,-118.5 707,-82.5 653,-82.5"/>
<text text-anchor="middle" x="680" y="-96.8" font-family="Times New Roman,serif" font-size="14.00">Scene</text>
</g>
<!-- Actor1&#45;&gt;Scene -->
<g id="edge13" class="edge"><title>Actor1&#45;&gt;Scene</title>
<path fill="none" stroke="black" stroke-width="2" d="M617.403,-138.998C625.832,-133.73 635.293,-127.817 644.224,-122.235"/>
<polygon fill="black" stroke="black" stroke-width="2" points="646.294,-125.069 652.919,-116.801 642.584,-119.133 646.294,-125.069"/>
</g>
<!-- Actor2&#45;&gt;Scene -->
<g id="edge14" class="edge"><title>Actor2&#45;&gt;Scene</title>
<path fill="none" stroke="black" stroke-width="2" d="M617.403,-100.5C625.393,-100.5 634.311,-100.5 642.824,-100.5"/>
<polygon fill="black" stroke="black" stroke-width="2" points="642.919,-104 652.919,-100.5 642.919,-97.0001 642.919,-104"/>
</g>
<!-- Actor3&#45;&gt;Scene -->
<g id="edge15" class="edge"><title>Actor3&#45;&gt;Scene</title>
<path fill="none" stroke="black" stroke-width="2" d="M617.403,-62.0018C625.832,-67.2702 635.293,-73.1833 644.224,-78.7647"/>
<polygon fill="black" stroke="black" stroke-width="2" points="642.584,-81.8673 652.919,-84.1994 646.294,-75.9313 642.584,-81.8673"/>
</g>
</g>
</svg>
