<?xml version="1.0" encoding="utf-8" standalone="no"?>
<!DOCTYPE svg PUBLIC "-//W3C//DTD SVG 1.1//EN"
  "http://www.w3.org/Graphics/SVG/1.1/DTD/svg11.dtd">
<!-- Created with matplotlib (http://matplotlib.org/) -->
<svg height="206pt" version="1.1" viewBox="0 0 376 206" width="376pt" xmlns="http://www.w3.org/2000/svg" xmlns:xlink="http://www.w3.org/1999/xlink">
 <defs>
  <style type="text/css">
*{stroke-linecap:butt;stroke-linejoin:round;}
  </style>
 </defs>
 <g id="figure_1">
  <g id="patch_1">
   <path d="
M0 206.196
L376.536 206.196
L376.536 0
L0 0
z
" style="fill:#ffffff;"/>
  </g>
  <g id="axes_1">
   <g id="patch_2">
    <path d="
M29.6988 90.7442
L364.499 90.7442
L364.499 12.1988
L29.6988 12.1988
z
" style="fill:#ffffff;"/>
   </g>
   <g id="line2d_1">
    <path clip-path="url(#pefe211d44d)" d="
M29.6988 90.7442
L30.3698 90.6668
L31.0407 90.4334
L31.7117 90.04
L32.3826 89.4801
L33.0536 88.7445
L33.7245 87.8215
L34.3954 86.6964
L35.7373 83.7677
L37.0792 79.7897
L38.4211 74.5717
L39.763 67.9692
L41.1049 60.065
L44.4596 39.2806
L45.8015 32.7138
L47.1433 27.5296
L48.4852 23.5807
L49.8271 20.6763
L51.169 18.6487
L51.8399 17.9224
L52.5109 17.3712
L53.1818 16.986
L53.8528 16.7606
L54.5237 16.6911
L55.1946 16.7764
L55.8656 17.0179
L56.5365 17.4196
L57.2075 17.9882
L57.8784 18.7329
L58.5493 19.6658
L59.2203 20.8017
L60.5622 23.7549
L61.9041 27.762
L63.2459 33.0139
L64.5878 39.6521
L65.9297 47.5845
L69.2844 68.339
L70.6263 74.87
L71.9682 80.0205
L73.3101 83.9405
L74.652 86.8207
L75.9938 88.8278
L76.6648 89.5449
L77.3357 90.0875
L78.0067 90.4644
L78.6776 90.6818
L79.3485 90.7434
L80.0195 90.6503
L80.6904 90.4007
L81.3614 89.9907
L82.0323 89.4134
L82.7033 88.6594
L83.3742 87.7165
L84.0451 86.5699
L85.387 83.5921
L86.7289 79.5557
L88.0708 74.2698
L89.4127 67.5959
L90.7546 59.6358
L93.4383 42.6753
L94.7802 35.4882
L96.1221 29.6939
L97.464 25.2137
L98.8059 21.8631
L100.148 19.46
L100.819 18.5665
L101.49 17.8585
L102.161 17.3245
L102.832 16.9559
L103.502 16.7464
L104.173 16.6927
L104.844 16.7938
L105.515 17.0513
L106.186 17.4697
L106.857 18.0557
L107.528 18.8191
L108.199 19.7719
L108.87 20.9294
L110.212 23.9318
L111.554 27.9977
L112.896 33.3177
L114.238 40.0272
L115.579 48.0147
L118.263 64.959
L119.605 72.1118
L120.947 77.8709
L122.289 82.3199
L123.631 85.6443
L124.973 88.0253
L125.644 88.9091
L126.314 89.608
L126.985 90.1333
L127.656 90.4937
L128.327 90.6952
L128.998 90.7411
L129.669 90.6321
L130.34 90.3665
L131.011 89.9397
L131.682 89.3449
L132.353 88.5723
L133.024 87.6094
L133.695 86.4411
L135.037 83.4139
L136.379 79.3184
L137.72 73.9642
L139.062 67.2192
L140.404 59.2047
L143.088 42.2778
L144.43 35.1594
L145.772 29.4355
L147.114 25.0175
L148.456 21.7193
L149.797 19.3602
L150.468 18.4861
L151.139 17.7963
L151.81 17.2796
L152.481 16.9274
L153.152 16.7339
L153.823 16.6959
L154.494 16.8128
L155.165 17.0865
L155.836 17.5216
L156.507 18.1252
L157.178 18.9072
L157.849 19.8801
L159.191 22.4629
L160.533 26.0279
L161.874 30.7619
L163.216 36.8402
L164.558 44.2951
L168.584 69.0681
L169.926 75.4559
L171.268 80.4727
L172.609 84.2782
L173.951 87.0625
L175.293 88.9885
L175.964 89.6692
L176.635 90.1775
L177.306 90.5215
L177.977 90.707
L178.648 90.7371
L179.319 90.6123
L179.99 90.3305
L180.661 89.887
L181.332 89.2746
L182.003 88.4832
L182.674 87.5002
L184.015 84.8944
L185.357 81.3021
L186.699 76.5359
L188.041 70.4219
L189.383 62.9345
L193.409 38.1871
L194.751 31.8351
L196.092 26.8515
L197.434 23.0743
L198.776 20.3137
L200.118 18.4077
L200.789 17.736
L201.46 17.2363
L202.131 16.9005
L202.802 16.723
L203.473 16.7007
L204.144 16.8335
L204.815 17.1233
L205.486 17.5752
L206.157 18.1965
L206.828 18.9973
L207.498 19.9905
L208.84 22.6192
L210.182 26.239
L211.524 31.0376
L212.866 37.1873
L214.208 44.7071
L218.234 69.4273
L219.575 75.7434
L220.917 80.694
L222.259 84.443
L223.601 87.18
L224.943 89.066
L225.614 89.7287
L226.285 90.2199
L226.956 90.5475
L227.627 90.7171
L228.298 90.7315
L228.969 90.5908
L229.64 90.2929
L230.31 89.8326
L230.981 89.2025
L231.652 88.3922
L232.323 87.3888
L233.665 84.7369
L235.007 81.0896
L236.349 76.2585
L237.691 70.073
L239.033 62.5211
L243.058 37.8297
L244.4 31.5494
L245.742 26.6318
L247.084 22.9108
L248.426 20.1973
L249.768 18.3312
L250.439 17.6775
L251.11 17.1948
L251.781 16.8753
L252.452 16.7137
L253.122 16.7072
L253.793 16.8557
L254.464 17.1618
L255.135 17.6305
L255.806 18.2696
L256.477 19.0894
L257.148 20.103
L258.49 22.778
L259.832 26.4531
L261.174 31.3168
L262.516 37.5381
L263.858 45.1218
L267.883 69.7829
L269.225 76.0273
L270.567 80.9122
L271.909 84.6053
L273.251 87.2954
L274.593 89.1416
L275.264 89.7864
L275.935 90.2606
L276.605 90.572
L277.276 90.7257
L277.947 90.7243
L278.618 90.5678
L279.289 90.2536
L279.96 89.7764
L280.631 89.1284
L281.302 88.2991
L281.973 87.2752
L283.315 84.5769
L284.657 80.8739
L285.999 75.9775
L287.341 69.7204
L288.682 62.1052
L292.708 37.476
L294.05 31.2673
L295.392 26.4152
L296.734 22.7499
L298.076 20.083
L299.417 18.2566
L300.088 17.6207
L300.759 17.1549
L301.43 16.8517
L302.101 16.7059
L302.772 16.7152
L303.443 16.8797
L304.114 17.202
L304.785 17.6877
L305.456 18.3446
L306.127 19.1835
L306.798 20.2177
L308.14 22.9394
L309.482 26.6703
L310.823 31.5996
L312.165 37.8925
L313.507 45.539
L317.533 70.1348
L318.875 76.3077
L320.217 81.1273
L321.559 84.765
L322.9 87.4086
L324.242 89.2154
L324.913 89.8424
L325.584 90.2997
L326.255 90.5948
L326.926 90.7326
L327.597 90.7155
L328.268 90.5431
L328.939 90.2126
L329.61 89.7184
L330.281 89.0525
L330.952 88.2041
L331.623 87.1595
L332.965 84.4142
L334.306 80.6552
L335.648 75.693
L336.99 69.3643
L338.332 61.6867
L341.687 40.72
L343.029 33.8811
L344.371 28.4359
L345.712 24.2616
L347.054 21.1682
L348.396 18.9813
L349.067 18.1838
L349.738 17.5657
L350.409 17.1168
L351.08 16.8298
L351.751 16.6998
L352.422 16.7248
L353.093 16.9052
L353.764 17.2439
L354.435 17.7466
L355.106 18.4215
L355.777 19.2796
L356.448 20.3345
L357.789 23.1035
L359.131 26.8906
L360.473 31.886
L361.815 38.2505
L363.157 45.9588
L364.499 54.5324
L364.499 54.5324" style="fill:none;stroke:#348abd;stroke-linecap:square;stroke-width:2.0;"/>
   </g>
   <g id="patch_3">
    <path d="
M29.6988 12.1988
L364.499 12.1988" style="fill:none;stroke:#000000;stroke-linecap:square;stroke-linejoin:miter;"/>
   </g>
   <g id="patch_4">
    <path d="
M364.499 90.7442
L364.499 12.1988" style="fill:none;stroke:#000000;stroke-linecap:square;stroke-linejoin:miter;"/>
   </g>
   <g id="patch_5">
    <path d="
M29.6988 90.7442
L364.499 90.7442" style="fill:none;stroke:#000000;stroke-linecap:square;stroke-linejoin:miter;"/>
   </g>
   <g id="patch_6">
    <path d="
M29.6988 90.7442
L29.6988 12.1988" style="fill:none;stroke:#000000;stroke-linecap:square;stroke-linejoin:miter;"/>
   </g>
   <g id="matplotlib.axis_1">
    <g id="xtick_1">
     <g id="line2d_2">
      <defs>
       <path d="
M0 0
L0 -4" id="m93b0483c22" style="stroke:#000000;stroke-width:0.5;"/>
      </defs>
      <g>
       <use style="stroke:#000000;stroke-width:0.5;" x="29.6988475" xlink:href="#m93b0483c22" y="90.744235483"/>
      </g>
     </g>
     <g id="line2d_3">
      <defs>
       <path d="
M0 0
L0 4" id="m741efc42ff" style="stroke:#000000;stroke-width:0.5;"/>
      </defs>
      <g>
       <use style="stroke:#000000;stroke-width:0.5;" x="29.6988475" xlink:href="#m741efc42ff" y="12.1987809375"/>
      </g>
     </g>
     <g id="text_1">
      <!-- 0 -->
      <defs>
       <path d="
M50.3906 35.7969
Q50.3906 27.1562 49.1406 20.3125
Q47.9062 13.4844 45.1406 8.73438
Q42.3906 4 38.0312 1.5
Q33.6875 -0.984375 27.4844 -0.984375
Q21.7344 -0.984375 17.4531 1.5
Q13.1875 4 10.375 8.73438
Q7.5625 13.4844 6.17188 20.3125
Q4.78125 27.1562 4.78125 35.7969
Q4.78125 44.4375 6.03125 51.2656
Q7.28125 58.1094 9.98438 62.8125
Q12.7031 67.5312 17.0156 70.0156
Q21.3438 72.5156 27.4844 72.5156
Q33.2969 72.5156 37.5938 70.0469
Q41.8906 67.5781 44.7188 62.8594
Q47.5625 58.1562 48.9688 51.3125
Q50.3906 44.4844 50.3906 35.7969
M13.8125 35.7969
Q13.8125 28.4688 14.5469 23
Q15.2812 17.5312 16.8906 13.8906
Q18.5 10.25 21.1094 8.42188
Q23.7344 6.59375 27.4844 6.59375
Q31.25 6.59375 33.8906 8.39062
Q36.5312 10.2031 38.2031 13.8125
Q39.8906 17.4375 40.6406 22.9219
Q41.4062 28.4219 41.4062 35.7969
Q41.4062 43.1094 40.6406 48.5781
Q39.8906 54.0469 38.2031 57.6562
Q36.5312 61.2812 33.8906 63.0781
Q31.25 64.8906 27.4844 64.8906
Q23.7344 64.8906 21.1094 63.0781
Q18.5 61.2812 16.8906 57.6562
Q15.2812 54.0469 14.5469 48.5781
Q13.8125 43.1094 13.8125 35.7969" id="WenQuanYiMicroHei-30"/>
      </defs>
      <g transform="translate(27.4192909375 102.339633608)scale(0.09996 -0.09996)">
       <use xlink:href="#WenQuanYiMicroHei-30"/>
      </g>
     </g>
    </g>
    <g id="xtick_2">
     <g id="line2d_4">
      <g>
       <use style="stroke:#000000;stroke-width:0.5;" x="96.6588475" xlink:href="#m93b0483c22" y="90.744235483"/>
      </g>
     </g>
     <g id="line2d_5">
      <g>
       <use style="stroke:#000000;stroke-width:0.5;" x="96.6588475" xlink:href="#m741efc42ff" y="12.1987809375"/>
      </g>
     </g>
     <g id="text_2">
      <!-- 2 -->
      <defs>
       <path d="
M49.2188 0
L4.6875 0
L4.6875 7.625
L21.7812 26.2188
Q25.4375 30.1719 28.3125 33.4375
Q31.2031 36.7188 33.2188 39.8438
Q35.25 42.9688 36.3281 46.1094
Q37.4062 49.2656 37.4062 52.9844
Q37.4062 55.8594 36.5781 58.0469
Q35.75 60.25 34.2031 61.7812
Q32.6719 63.3281 30.5625 64.1094
Q28.4688 64.8906 25.875 64.8906
Q21.2344 64.8906 17.5 63.0156
Q13.7656 61.1406 10.4062 58.2031
L5.42188 64.0156
Q7.375 65.7656 9.60938 67.2969
Q11.8594 68.8438 14.4531 69.9688
Q17.0469 71.0938 19.9219 71.75
Q22.7969 72.4062 25.9844 72.4062
Q30.6719 72.4062 34.4531 71.0938
Q38.2344 69.7812 40.8594 67.3125
Q43.5 64.8438 44.9375 61.2969
Q46.3906 57.7656 46.3906 53.3281
Q46.3906 49.1719 45.0938 45.4062
Q43.7969 41.6562 41.5312 38.0156
Q39.2656 34.375 36.1094 30.7031
Q32.9531 27.0469 29.2969 23.0938
L15.5781 8.5
L15.5781 8.10938
L49.2188 8.10938
z
" id="WenQuanYiMicroHei-32"/>
      </defs>
      <g transform="translate(94.433175625 102.339633608)scale(0.09996 -0.09996)">
       <use xlink:href="#WenQuanYiMicroHei-32"/>
      </g>
     </g>
    </g>
    <g id="xtick_3">
     <g id="line2d_6">
      <g>
       <use style="stroke:#000000;stroke-width:0.5;" x="163.6188475" xlink:href="#m93b0483c22" y="90.744235483"/>
      </g>
     </g>
     <g id="line2d_7">
      <g>
       <use style="stroke:#000000;stroke-width:0.5;" x="163.6188475" xlink:href="#m741efc42ff" y="12.1987809375"/>
      </g>
     </g>
     <g id="text_3">
      <!-- 4 -->
      <defs>
       <path d="
M53.0781 16.0156
L42.6719 16.0156
L42.6719 0
L34.0781 0
L34.0781 16.0156
L1.125 16.0156
L1.125 23.7812
L33.5 71.7812
L42.6719 71.7812
L42.6719 24.125
L53.0781 24.125
z

M34.0781 24.125
L34.0781 41.5
Q34.0781 44.2344 34.1562 47.2344
Q34.2344 50.25 34.3281 53.0938
Q34.4219 55.9531 34.5469 58.4375
Q34.6719 60.9375 34.7188 62.5938
L34.2812 62.5938
Q33.9375 61.625 33.4219 60.4219
Q32.9062 59.2344 32.2969 58.0312
Q31.6875 56.8438 31.0469 55.7188
Q30.4219 54.5938 29.8906 53.8125
L9.8125 24.125
z
" id="WenQuanYiMicroHei-34"/>
      </defs>
      <g transform="translate(161.022230313 102.339633608)scale(0.09996 -0.09996)">
       <use xlink:href="#WenQuanYiMicroHei-34"/>
      </g>
     </g>
    </g>
    <g id="xtick_4">
     <g id="line2d_8">
      <g>
       <use style="stroke:#000000;stroke-width:0.5;" x="230.5788475" xlink:href="#m93b0483c22" y="90.744235483"/>
      </g>
     </g>
     <g id="line2d_9">
      <g>
       <use style="stroke:#000000;stroke-width:0.5;" x="230.5788475" xlink:href="#m741efc42ff" y="12.1987809375"/>
      </g>
     </g>
     <g id="text_4">
      <!-- 6 -->
      <defs>
       <path d="
M5.51562 30.5156
Q5.51562 35.6406 6.03125 40.7188
Q6.54688 45.7969 7.82812 50.4531
Q9.125 55.125 11.375 59.125
Q13.625 63.1406 17.0938 66.0938
Q20.5625 69.0469 25.3906 70.7188
Q30.2188 72.4062 36.7188 72.4062
Q37.6406 72.4062 38.7656 72.3594
Q39.8906 72.3125 41.0312 72.1875
Q42.1875 72.0781 43.2344 71.9062
Q44.2812 71.7344 45.125 71.4844
L45.125 63.9219
Q43.4062 64.5 41.25 64.7969
Q39.1094 65.0938 37.0156 65.0938
Q32.625 65.0938 29.2656 64.0312
Q25.9219 62.9844 23.4844 61.0781
Q21.0469 59.1875 19.4062 56.5469
Q17.7812 53.9062 16.75 50.7031
Q15.7188 47.5156 15.2344 43.8906
Q14.75 40.2812 14.5938 36.375
L15.1875 36.375
Q16.1562 38.1406 17.5469 39.6719
Q18.9531 41.2188 20.7969 42.3125
Q22.6562 43.4062 24.9688 44.0312
Q27.2969 44.6719 30.1719 44.6719
Q34.8125 44.6719 38.5625 43.2344
Q42.3281 41.7969 44.9688 39.0156
Q47.6094 36.2344 49.0469 32.2031
Q50.4844 28.1719 50.4844 23
Q50.4844 17.4375 48.9688 12.9844
Q47.4688 8.54688 44.625 5.4375
Q41.7969 2.34375 37.7969 0.671875
Q33.7969 -0.984375 28.8125 -0.984375
Q23.9219 -0.984375 19.6406 0.921875
Q15.375 2.82812 12.25 6.73438
Q9.125 10.6406 7.3125 16.5469
Q5.51562 22.4688 5.51562 30.5156
M28.7188 6.5
Q31.6406 6.5 34.0469 7.5
Q36.4688 8.5 38.2188 10.5156
Q39.9844 12.5469 40.9375 15.6406
Q41.8906 18.75 41.8906 23
Q41.8906 26.4219 41.0781 29.125
Q40.2812 31.8438 38.6719 33.7344
Q37.0625 35.6406 34.6406 36.6719
Q32.2344 37.7031 29 37.7031
Q25.7344 37.7031 23.0156 36.5469
Q20.3125 35.4062 18.4062 33.5625
Q16.5 31.7344 15.4531 29.3906
Q14.4062 27.0469 14.4062 24.7031
Q14.4062 21.4375 15.3125 18.1875
Q16.2188 14.9375 18 12.3438
Q19.7812 9.76562 22.4531 8.125
Q25.1406 6.5 28.7188 6.5" id="WenQuanYiMicroHei-36"/>
      </defs>
      <g transform="translate(228.331309375 102.339633608)scale(0.09996 -0.09996)">
       <use xlink:href="#WenQuanYiMicroHei-36"/>
      </g>
     </g>
    </g>
    <g id="xtick_5">
     <g id="line2d_10">
      <g>
       <use style="stroke:#000000;stroke-width:0.5;" x="297.5388475" xlink:href="#m93b0483c22" y="90.744235483"/>
      </g>
     </g>
     <g id="line2d_11">
      <g>
       <use style="stroke:#000000;stroke-width:0.5;" x="297.5388475" xlink:href="#m741efc42ff" y="12.1987809375"/>
      </g>
     </g>
     <g id="text_5">
      <!-- 8 -->
      <defs>
       <path d="
M27.5938 72.5156
Q31.6875 72.5156 35.3281 71.4375
Q38.9688 70.3594 41.7188 68.2031
Q44.4844 66.0625 46.0938 62.8438
Q47.7031 59.625 47.7031 55.3281
Q47.7031 52.0469 46.7188 49.4062
Q45.75 46.7812 44.0312 44.6562
Q42.3281 42.5312 39.9844 40.8438
Q37.6406 39.1562 34.9062 37.7969
Q37.75 36.2812 40.4531 34.4219
Q43.1719 32.5625 45.2812 30.25
Q47.4062 27.9375 48.7031 25.0469
Q50 22.1719 50 18.6094
Q50 14.1094 48.3594 10.4688
Q46.7344 6.84375 43.7812 4.29688
Q40.8281 1.76562 36.6875 0.390625
Q32.5625 -0.984375 27.5938 -0.984375
Q22.2188 -0.984375 18.0469 0.328125
Q13.875 1.65625 11.0156 4.125
Q8.15625 6.59375 6.65625 10.1562
Q5.17188 13.7188 5.17188 18.2188
Q5.17188 21.875 6.26562 24.7969
Q7.375 27.7344 9.21875 30.0781
Q11.0781 32.4219 13.6094 34.2188
Q16.1562 36.0312 19 37.4062
Q16.6094 38.9219 14.5 40.7031
Q12.4062 42.4844 10.8594 44.6719
Q9.32812 46.875 8.42188 49.5312
Q7.51562 52.2031 7.51562 55.4219
Q7.51562 59.6719 9.15625 62.8594
Q10.7969 66.0625 13.5781 68.2031
Q16.3594 70.3594 20 71.4375
Q23.6406 72.5156 27.5938 72.5156
M13.9219 18.1094
Q13.9219 15.5312 14.7031 13.3594
Q15.4844 11.1875 17.1406 9.64062
Q18.7969 8.10938 21.3281 7.25
Q23.875 6.39062 27.3906 6.39062
Q30.8125 6.39062 33.4219 7.25
Q36.0312 8.10938 37.7812 9.6875
Q39.5469 11.2812 40.4219 13.5156
Q41.3125 15.7656 41.3125 18.5
Q41.3125 21.0469 40.3594 23.0938
Q39.4062 25.1406 37.625 26.8906
Q35.8438 28.6562 33.3438 30.2188
Q30.8594 31.7812 27.7812 33.2969
L26.3125 33.9844
Q20.1719 31.0625 17.0469 27.2656
Q13.9219 23.4844 13.9219 18.1094
M27.4844 65.0938
Q22.3125 65.0938 19.2656 62.5
Q16.2188 59.9062 16.2188 54.9844
Q16.2188 52.2031 17.0625 50.1875
Q17.9219 48.1875 19.4375 46.625
Q20.9531 45.0625 23.0781 43.8125
Q25.2031 42.5781 27.6875 41.4062
Q30.0312 42.4844 32.1094 43.75
Q34.1875 45.0156 35.7188 46.625
Q37.25 48.25 38.125 50.2969
Q39.0156 52.3438 39.0156 54.9844
Q39.0156 59.9062 35.9375 62.5
Q32.8594 65.0938 27.4844 65.0938" id="WenQuanYiMicroHei-38"/>
      </defs>
      <g transform="translate(295.298337813 102.339633608)scale(0.09996 -0.09996)">
       <use xlink:href="#WenQuanYiMicroHei-38"/>
      </g>
     </g>
    </g>
    <g id="xtick_6">
     <g id="line2d_12">
      <g>
       <use style="stroke:#000000;stroke-width:0.5;" x="364.4988475" xlink:href="#m93b0483c22" y="90.744235483"/>
      </g>
     </g>
     <g id="line2d_13">
      <g>
       <use style="stroke:#000000;stroke-width:0.5;" x="364.4988475" xlink:href="#m741efc42ff" y="12.1987809375"/>
      </g>
     </g>
     <g id="text_6">
      <!-- 10 -->
      <defs>
       <path d="
M34.7188 0
L26.125 0
L26.125 44.5781
Q26.125 46.6875 26.1406 49.0781
Q26.1719 51.4688 26.2344 53.8281
Q26.3125 56.2031 26.3906 58.375
Q26.4688 60.5469 26.5156 62.2031
Q25.6875 61.3281 25.0469 60.6875
Q24.4219 60.0625 23.75 59.4688
Q23.0938 58.8906 22.3594 58.2188
Q21.625 57.5625 20.6094 56.6875
L13.375 50.7812
L8.6875 56.7812
L27.3906 71.3906
L34.7188 71.3906
z
" id="WenQuanYiMicroHei-31"/>
      </defs>
      <g transform="translate(359.661720625 102.339633608)scale(0.09996 -0.09996)">
       <use xlink:href="#WenQuanYiMicroHei-31"/>
       <use x="55.078125" xlink:href="#WenQuanYiMicroHei-30"/>
      </g>
     </g>
    </g>
   </g>
   <g id="matplotlib.axis_2">
    <g id="ytick_1">
     <g id="line2d_14">
      <defs>
       <path d="
M0 0
L4 0" id="m728421d6d4" style="stroke:#000000;stroke-width:0.5;"/>
      </defs>
      <g>
       <use style="stroke:#000000;stroke-width:0.5;" x="29.6988475" xlink:href="#m728421d6d4" y="90.744235483"/>
      </g>
     </g>
     <g id="line2d_15">
      <defs>
       <path d="
M0 0
L-4 0" id="mcb0005524f" style="stroke:#000000;stroke-width:0.5;"/>
      </defs>
      <g>
       <use style="stroke:#000000;stroke-width:0.5;" x="364.4988475" xlink:href="#mcb0005524f" y="90.744235483"/>
      </g>
     </g>
     <g id="text_7">
      <!-- 0.0 -->
      <defs>
       <path d="
M7.17188 5.42188
Q7.17188 7.28125 7.65625 8.5625
Q8.15625 9.85938 8.98438 10.6562
Q9.8125 11.4688 10.9375 11.8281
Q12.0625 12.2031 13.375 12.2031
Q14.6562 12.2031 15.7969 11.8281
Q16.9375 11.4688 17.7656 10.6562
Q18.6094 9.85938 19.0938 8.5625
Q19.5781 7.28125 19.5781 5.42188
Q19.5781 3.60938 19.0938 2.3125
Q18.6094 1.03125 17.7656 0.1875
Q16.9375 -0.640625 15.7969 -1.03125
Q14.6562 -1.42188 13.375 -1.42188
Q12.0625 -1.42188 10.9375 -1.03125
Q9.8125 -0.640625 8.98438 0.1875
Q8.15625 1.03125 7.65625 2.3125
Q7.17188 3.60938 7.17188 5.42188" id="WenQuanYiMicroHei-2e"/>
      </defs>
      <g transform="translate(12.9539475 93.3408526705)scale(0.09996 -0.09996)">
       <use xlink:href="#WenQuanYiMicroHei-30"/>
       <use x="55.078125" xlink:href="#WenQuanYiMicroHei-2e"/>
       <use x="81.884765625" xlink:href="#WenQuanYiMicroHei-30"/>
      </g>
     </g>
    </g>
    <g id="ytick_2">
     <g id="line2d_16">
      <g>
       <use style="stroke:#000000;stroke-width:0.5;" x="29.6988475" xlink:href="#m728421d6d4" y="75.0351445739"/>
      </g>
     </g>
     <g id="line2d_17">
      <g>
       <use style="stroke:#000000;stroke-width:0.5;" x="364.4988475" xlink:href="#mcb0005524f" y="75.0351445739"/>
      </g>
     </g>
     <g id="text_8">
      <!-- 0.2 -->
      <g transform="translate(13.071088125 77.6317617614)scale(0.09996 -0.09996)">
       <use xlink:href="#WenQuanYiMicroHei-30"/>
       <use x="55.078125" xlink:href="#WenQuanYiMicroHei-2e"/>
       <use x="81.884765625" xlink:href="#WenQuanYiMicroHei-32"/>
      </g>
     </g>
    </g>
    <g id="ytick_3">
     <g id="line2d_18">
      <g>
       <use style="stroke:#000000;stroke-width:0.5;" x="29.6988475" xlink:href="#m728421d6d4" y="59.3260536648"/>
      </g>
     </g>
     <g id="line2d_19">
      <g>
       <use style="stroke:#000000;stroke-width:0.5;" x="364.4988475" xlink:href="#mcb0005524f" y="59.3260536648"/>
      </g>
     </g>
     <g id="text_9">
      <!-- 0.4 -->
      <g transform="translate(12.685305 61.9226708523)scale(0.09996 -0.09996)">
       <use xlink:href="#WenQuanYiMicroHei-30"/>
       <use x="55.078125" xlink:href="#WenQuanYiMicroHei-2e"/>
       <use x="81.884765625" xlink:href="#WenQuanYiMicroHei-34"/>
      </g>
     </g>
    </g>
    <g id="ytick_4">
     <g id="line2d_20">
      <g>
       <use style="stroke:#000000;stroke-width:0.5;" x="29.6988475" xlink:href="#m728421d6d4" y="43.6169627557"/>
      </g>
     </g>
     <g id="line2d_21">
      <g>
       <use style="stroke:#000000;stroke-width:0.5;" x="364.4988475" xlink:href="#mcb0005524f" y="43.6169627557"/>
      </g>
     </g>
     <g id="text_10">
      <!-- 0.6 -->
      <g transform="translate(12.94457625 46.2135799432)scale(0.09996 -0.09996)">
       <use xlink:href="#WenQuanYiMicroHei-30"/>
       <use x="55.078125" xlink:href="#WenQuanYiMicroHei-2e"/>
       <use x="81.884765625" xlink:href="#WenQuanYiMicroHei-36"/>
      </g>
     </g>
    </g>
    <g id="ytick_5">
     <g id="line2d_22">
      <g>
       <use style="stroke:#000000;stroke-width:0.5;" x="29.6988475" xlink:href="#m728421d6d4" y="27.9078718466"/>
      </g>
     </g>
     <g id="line2d_23">
      <g>
       <use style="stroke:#000000;stroke-width:0.5;" x="364.4988475" xlink:href="#mcb0005524f" y="27.9078718466"/>
      </g>
     </g>
     <g id="text_11">
      <!-- 0.8 -->
      <g transform="translate(12.992994375 30.5044890341)scale(0.09996 -0.09996)">
       <use xlink:href="#WenQuanYiMicroHei-30"/>
       <use x="55.078125" xlink:href="#WenQuanYiMicroHei-2e"/>
       <use x="81.884765625" xlink:href="#WenQuanYiMicroHei-38"/>
      </g>
     </g>
    </g>
    <g id="ytick_6">
     <g id="line2d_24">
      <g>
       <use style="stroke:#000000;stroke-width:0.5;" x="29.6988475" xlink:href="#m728421d6d4" y="12.1987809375"/>
      </g>
     </g>
     <g id="line2d_25">
      <g>
       <use style="stroke:#000000;stroke-width:0.5;" x="364.4988475" xlink:href="#mcb0005524f" y="12.1987809375"/>
      </g>
     </g>
     <g id="text_12">
      <!-- 1.0 -->
      <g transform="translate(13.34441625 14.795398125)scale(0.09996 -0.09996)">
       <use xlink:href="#WenQuanYiMicroHei-31"/>
       <use x="55.078125" xlink:href="#WenQuanYiMicroHei-2e"/>
       <use x="81.884765625" xlink:href="#WenQuanYiMicroHei-30"/>
      </g>
     </g>
    </g>
   </g>
   <g id="legend_1">
    <g id="patch_7">
     <path d="
M319.017 35.1911
L359.501 35.1911
L359.501 17.1968
L319.017 17.1968
z
" style="fill:#ffffff;stroke:#000000;stroke-linejoin:miter;"/>
    </g>
    <g id="line2d_26">
     <path d="
M326.014 25.292
L340.009 25.292" style="fill:none;stroke:#348abd;stroke-linecap:square;stroke-width:2.0;"/>
    </g>
    <g id="line2d_27"/>
    <g id="text_13">
     <!-- $q$ -->
     <defs>
      <path d="
M14.7031 -18.1094
Q15.0469 -15.9219 16.0156 -15.9219
Q19.625 -15.9219 21.7031 -15.3281
Q23.7812 -14.75 24.4219 -12.5
L28.7188 4.5
Q23 -1.125 17.2812 -1.125
Q10.9844 -1.125 7.39062 3.64062
Q3.8125 8.40625 3.8125 14.8906
Q3.8125 21.2969 7.10938 28.1719
Q10.4062 35.0625 16.0469 39.625
Q21.6875 44.1875 28.2188 44.1875
Q31.25 44.1875 33.6875 42.375
Q36.1406 40.5781 37.4062 37.5938
Q37.9844 38.7656 40.6406 41.4688
Q43.3125 44.1875 44.3906 44.1875
Q45.5156 44.1875 45.5156 42.9219
L31.5 -12.8906
Q31.25 -14.3594 31.2031 -14.5938
Q31.2031 -15.9219 37.7969 -15.9219
Q38.2812 -15.9219 38.5469 -16.3125
Q38.8125 -16.7031 38.8125 -17.1875
Q38.4844 -18.5 38.25 -18.9375
Q38.0312 -19.3906 37.1094 -19.3906
L15.7188 -19.3906
Q14.7031 -19.3906 14.7031 -18.1094
M17.4844 1.51562
Q21 1.51562 24.3438 4.17188
Q27.6875 6.84375 30.1719 10.5
L35.7969 33.0156
Q35.2031 36.5312 33.2188 39.0625
Q31.25 41.6094 27.9844 41.6094
Q24.6094 41.6094 21.7031 38.8438
Q18.7969 36.0781 16.7969 32.3281
Q14.8438 28.3281 13.0625 21.3438
Q11.2812 14.3594 11.2812 10.5
Q11.2812 7.03125 12.7656 4.26562
Q14.2656 1.51562 17.4844 1.51562" id="Cmmi10-71"/>
     </defs>
     <g transform="translate(351.0042475 28.7905790625)scale(0.09996 -0.09996)">
      <use transform="translate(0.0 0.8125)" xlink:href="#Cmmi10-71"/>
     </g>
    </g>
   </g>
  </g>
  <g id="axes_2">
   <g id="patch_8">
    <path d="
M29.6988 184.999
L364.499 184.999
L364.499 106.453
L29.6988 106.453
z
" style="fill:#ffffff;"/>
   </g>
   <g id="line2d_28">
    <path clip-path="url(#p504a52766b)" d="
M29.6988 107.17
L30.3698 107.273
L31.0407 107.581
L31.7117 108.095
L32.3826 108.819
L33.0536 109.755
L33.7245 110.907
L35.0664 113.882
L36.4083 117.803
L37.7502 122.743
L39.092 128.77
L40.4339 135.872
L45.1305 162.85
L46.4724 168.848
L47.8143 173.761
L49.1562 177.657
L50.498 180.609
L51.8399 182.675
L52.5109 183.388
L53.1818 183.892
L53.8528 184.19
L54.5237 184.282
L55.1946 184.169
L55.8656 183.85
L56.5365 183.325
L57.2075 182.591
L57.8784 181.644
L59.2203 179.096
L60.5622 175.632
L61.9041 171.185
L63.2459 165.681
L64.5878 159.076
L66.6007 147.454
L68.6135 135.487
L69.9554 128.436
L71.2972 122.466
L72.6391 117.58
L73.981 113.709
L75.3229 110.779
L76.6648 108.736
L77.3357 108.033
L78.0067 107.54
L78.6776 107.253
L79.3485 107.171
L80.0195 107.295
L80.6904 107.623
L81.3614 108.159
L82.0323 108.904
L82.7033 109.862
L84.0451 112.433
L85.387 115.921
L86.7289 120.393
L88.0708 125.926
L89.4127 132.558
L91.4255 144.205
L93.4383 156.156
L94.7802 163.182
L96.1221 169.124
L97.464 173.983
L98.8059 177.829
L100.148 180.736
L101.49 182.757
L102.161 183.449
L102.832 183.932
L103.502 184.208
L104.173 184.28
L104.844 184.146
L105.515 183.806
L106.186 183.26
L106.857 182.504
L107.528 181.536
L108.87 178.942
L110.212 175.43
L111.554 170.931
L112.896 165.371
L114.238 158.712
L116.25 147.04
L118.263 135.105
L119.605 128.106
L120.947 122.191
L122.289 117.359
L123.631 113.537
L124.973 110.654
L125.644 109.547
L126.314 108.654
L126.985 107.974
L127.656 107.501
L128.327 107.235
L128.998 107.174
L129.669 107.319
L130.34 107.669
L131.011 108.226
L131.682 108.992
L132.353 109.971
L133.695 112.588
L135.037 116.124
L136.379 120.649
L137.72 126.237
L139.062 132.924
L141.075 144.62
L143.088 156.538
L144.43 163.511
L145.772 169.397
L147.114 174.203
L148.456 178
L149.797 180.859
L150.468 181.956
L151.139 182.837
L151.81 183.508
L152.481 183.969
L153.152 184.225
L153.823 184.275
L154.494 184.121
L155.165 183.76
L155.836 183.193
L156.507 182.415
L157.178 181.425
L158.52 178.786
L159.862 175.225
L161.203 170.675
L162.545 165.059
L163.887 158.344
L165.9 146.624
L167.913 134.724
L169.255 127.778
L170.597 121.92
L171.939 117.141
L173.28 113.368
L174.622 110.532
L175.293 109.446
L175.964 108.576
L176.635 107.916
L177.306 107.465
L177.977 107.22
L178.648 107.18
L179.319 107.345
L179.99 107.716
L180.661 108.294
L181.332 109.082
L182.003 110.083
L183.345 112.745
L184.686 116.33
L186.028 120.907
L187.37 126.551
L188.712 133.292
L190.725 145.036
L192.738 156.917
L194.08 163.837
L195.421 169.667
L196.763 174.42
L198.105 178.167
L199.447 180.981
L200.118 182.056
L200.789 182.915
L201.46 183.564
L202.131 184.005
L202.802 184.24
L203.473 184.269
L204.144 184.093
L204.815 183.712
L205.486 183.123
L206.157 182.324
L206.828 181.312
L208.169 178.628
L209.511 175.018
L210.853 170.415
L212.195 164.743
L213.537 157.975
L215.55 146.209
L217.563 134.346
L218.904 127.453
L220.246 121.651
L221.588 116.925
L222.93 113.202
L224.272 110.411
L224.943 109.348
L225.614 108.499
L226.285 107.861
L226.956 107.43
L227.627 107.206
L228.298 107.187
L228.969 107.373
L229.64 107.765
L230.31 108.364
L230.981 109.174
L231.652 110.197
L232.994 112.905
L234.336 116.538
L235.678 121.168
L237.02 126.868
L238.362 133.663
L240.375 145.451
L242.387 157.294
L243.729 164.161
L245.071 169.935
L246.413 174.634
L247.755 178.332
L249.097 181.1
L249.768 182.153
L250.439 182.991
L251.11 183.618
L251.781 184.038
L252.452 184.252
L253.122 184.26
L253.793 184.064
L254.464 183.662
L255.135 183.052
L255.806 182.231
L256.477 181.197
L257.819 178.467
L259.161 174.809
L260.503 170.153
L261.845 164.425
L263.187 157.602
L265.199 145.793
L267.212 133.971
L268.554 127.131
L269.896 121.385
L271.238 116.712
L272.58 113.038
L273.922 110.293
L274.593 109.252
L275.264 108.424
L275.935 107.807
L276.605 107.398
L277.276 107.195
L277.947 107.197
L278.618 107.404
L279.289 107.817
L279.96 108.437
L280.631 109.268
L281.302 110.314
L282.644 113.067
L283.986 116.749
L285.328 121.431
L286.67 127.187
L288.011 134.037
L290.024 145.867
L292.037 157.668
L293.379 164.481
L294.721 170.199
L296.063 174.846
L297.405 178.495
L298.747 181.217
L299.417 182.248
L300.088 183.064
L300.759 183.671
L301.43 184.069
L302.101 184.262
L302.772 184.25
L303.443 184.032
L304.114 183.609
L304.785 182.978
L305.456 182.136
L306.127 181.08
L307.469 178.303
L308.811 174.596
L310.153 169.888
L311.494 164.104
L312.836 157.228
L314.849 145.378
L316.862 133.598
L318.204 126.812
L319.546 121.122
L320.888 116.501
L322.23 112.876
L323.571 110.177
L324.242 109.158
L324.913 108.352
L325.584 107.756
L326.255 107.368
L326.926 107.186
L327.597 107.208
L328.268 107.436
L328.939 107.87
L329.61 108.512
L330.281 109.365
L330.952 110.432
L332.294 113.231
L333.636 116.963
L334.977 121.698
L336.319 127.51
L337.661 134.413
L339.674 146.282
L341.687 158.04
L343.029 164.799
L344.371 170.461
L345.712 175.055
L347.054 178.656
L348.396 181.332
L349.067 182.341
L349.738 183.136
L350.409 183.721
L351.08 184.098
L351.751 184.27
L352.422 184.237
L353.093 183.999
L353.764 183.554
L354.435 182.902
L355.106 182.038
L355.777 180.96
L357.118 178.138
L358.46 174.382
L359.802 169.62
L361.144 163.78
L362.486 156.85
L364.499 144.962
L364.499 144.962" style="fill:none;stroke:#348abd;stroke-linecap:square;stroke-width:2.0;"/>
   </g>
   <g id="patch_9">
    <path d="
M29.6988 106.453
L364.499 106.453" style="fill:none;stroke:#000000;stroke-linecap:square;stroke-linejoin:miter;"/>
   </g>
   <g id="patch_10">
    <path d="
M364.499 184.999
L364.499 106.453" style="fill:none;stroke:#000000;stroke-linecap:square;stroke-linejoin:miter;"/>
   </g>
   <g id="patch_11">
    <path d="
M29.6988 184.999
L364.499 184.999" style="fill:none;stroke:#000000;stroke-linecap:square;stroke-linejoin:miter;"/>
   </g>
   <g id="patch_12">
    <path d="
M29.6988 184.999
L29.6988 106.453" style="fill:none;stroke:#000000;stroke-linecap:square;stroke-linejoin:miter;"/>
   </g>
   <g id="matplotlib.axis_3">
    <g id="xtick_7">
     <g id="line2d_29">
      <g>
       <use style="stroke:#000000;stroke-width:0.5;" x="29.6988475" xlink:href="#m93b0483c22" y="184.998780938"/>
      </g>
     </g>
     <g id="line2d_30">
      <g>
       <use style="stroke:#000000;stroke-width:0.5;" x="29.6988475" xlink:href="#m741efc42ff" y="106.453326392"/>
      </g>
     </g>
     <g id="text_14">
      <!-- 0 -->
      <g transform="translate(27.4192909375 196.594179063)scale(0.09996 -0.09996)">
       <use xlink:href="#WenQuanYiMicroHei-30"/>
      </g>
     </g>
    </g>
    <g id="xtick_8">
     <g id="line2d_31">
      <g>
       <use style="stroke:#000000;stroke-width:0.5;" x="96.6588475" xlink:href="#m93b0483c22" y="184.998780938"/>
      </g>
     </g>
     <g id="line2d_32">
      <g>
       <use style="stroke:#000000;stroke-width:0.5;" x="96.6588475" xlink:href="#m741efc42ff" y="106.453326392"/>
      </g>
     </g>
     <g id="text_15">
      <!-- 2 -->
      <g transform="translate(94.433175625 196.594179063)scale(0.09996 -0.09996)">
       <use xlink:href="#WenQuanYiMicroHei-32"/>
      </g>
     </g>
    </g>
    <g id="xtick_9">
     <g id="line2d_33">
      <g>
       <use style="stroke:#000000;stroke-width:0.5;" x="163.6188475" xlink:href="#m93b0483c22" y="184.998780938"/>
      </g>
     </g>
     <g id="line2d_34">
      <g>
       <use style="stroke:#000000;stroke-width:0.5;" x="163.6188475" xlink:href="#m741efc42ff" y="106.453326392"/>
      </g>
     </g>
     <g id="text_16">
      <!-- 4 -->
      <g transform="translate(161.022230313 196.594179063)scale(0.09996 -0.09996)">
       <use xlink:href="#WenQuanYiMicroHei-34"/>
      </g>
     </g>
    </g>
    <g id="xtick_10">
     <g id="line2d_35">
      <g>
       <use style="stroke:#000000;stroke-width:0.5;" x="230.5788475" xlink:href="#m93b0483c22" y="184.998780938"/>
      </g>
     </g>
     <g id="line2d_36">
      <g>
       <use style="stroke:#000000;stroke-width:0.5;" x="230.5788475" xlink:href="#m741efc42ff" y="106.453326392"/>
      </g>
     </g>
     <g id="text_17">
      <!-- 6 -->
      <g transform="translate(228.331309375 196.594179063)scale(0.09996 -0.09996)">
       <use xlink:href="#WenQuanYiMicroHei-36"/>
      </g>
     </g>
    </g>
    <g id="xtick_11">
     <g id="line2d_37">
      <g>
       <use style="stroke:#000000;stroke-width:0.5;" x="297.5388475" xlink:href="#m93b0483c22" y="184.998780938"/>
      </g>
     </g>
     <g id="line2d_38">
      <g>
       <use style="stroke:#000000;stroke-width:0.5;" x="297.5388475" xlink:href="#m741efc42ff" y="106.453326392"/>
      </g>
     </g>
     <g id="text_18">
      <!-- 8 -->
      <g transform="translate(295.298337813 196.594179063)scale(0.09996 -0.09996)">
       <use xlink:href="#WenQuanYiMicroHei-38"/>
      </g>
     </g>
    </g>
    <g id="xtick_12">
     <g id="line2d_39">
      <g>
       <use style="stroke:#000000;stroke-width:0.5;" x="364.4988475" xlink:href="#m93b0483c22" y="184.998780938"/>
      </g>
     </g>
     <g id="line2d_40">
      <g>
       <use style="stroke:#000000;stroke-width:0.5;" x="364.4988475" xlink:href="#m741efc42ff" y="106.453326392"/>
      </g>
     </g>
     <g id="text_19">
      <!-- 10 -->
      <g transform="translate(359.661720625 196.594179063)scale(0.09996 -0.09996)">
       <use xlink:href="#WenQuanYiMicroHei-31"/>
       <use x="55.078125" xlink:href="#WenQuanYiMicroHei-30"/>
      </g>
     </g>
    </g>
   </g>
   <g id="matplotlib.axis_4">
    <g id="ytick_7">
     <g id="line2d_41">
      <g>
       <use style="stroke:#000000;stroke-width:0.5;" x="29.6988475" xlink:href="#m728421d6d4" y="184.998780938"/>
      </g>
     </g>
     <g id="line2d_42">
      <g>
       <use style="stroke:#000000;stroke-width:0.5;" x="364.4988475" xlink:href="#mcb0005524f" y="184.998780938"/>
      </g>
     </g>
     <g id="text_20">
      <!-- −0.8 -->
      <defs>
       <path d="
M4.98438 31.5938
L4.98438 38.9219
L50.0938 38.9219
L50.0938 31.5938
z
" id="WenQuanYiMicroHei-2212"/>
      </defs>
      <g transform="translate(7.507689375 187.595398125)scale(0.09996 -0.09996)">
       <use xlink:href="#WenQuanYiMicroHei-2212"/>
       <use x="55.078125" xlink:href="#WenQuanYiMicroHei-30"/>
       <use x="110.15625" xlink:href="#WenQuanYiMicroHei-2e"/>
       <use x="136.962890625" xlink:href="#WenQuanYiMicroHei-38"/>
      </g>
     </g>
    </g>
    <g id="ytick_8">
     <g id="line2d_43">
      <g>
       <use style="stroke:#000000;stroke-width:0.5;" x="29.6988475" xlink:href="#m728421d6d4" y="175.180599119"/>
      </g>
     </g>
     <g id="line2d_44">
      <g>
       <use style="stroke:#000000;stroke-width:0.5;" x="364.4988475" xlink:href="#mcb0005524f" y="175.180599119"/>
      </g>
     </g>
     <g id="text_21">
      <!-- −0.6 -->
      <g transform="translate(7.45927125 177.777216307)scale(0.09996 -0.09996)">
       <use xlink:href="#WenQuanYiMicroHei-2212"/>
       <use x="55.078125" xlink:href="#WenQuanYiMicroHei-30"/>
       <use x="110.15625" xlink:href="#WenQuanYiMicroHei-2e"/>
       <use x="136.962890625" xlink:href="#WenQuanYiMicroHei-36"/>
      </g>
     </g>
    </g>
    <g id="ytick_9">
     <g id="line2d_45">
      <g>
       <use style="stroke:#000000;stroke-width:0.5;" x="29.6988475" xlink:href="#m728421d6d4" y="165.362417301"/>
      </g>
     </g>
     <g id="line2d_46">
      <g>
       <use style="stroke:#000000;stroke-width:0.5;" x="364.4988475" xlink:href="#mcb0005524f" y="165.362417301"/>
      </g>
     </g>
     <g id="text_22">
      <!-- −0.4 -->
      <g transform="translate(7.2 167.959034489)scale(0.09996 -0.09996)">
       <use xlink:href="#WenQuanYiMicroHei-2212"/>
       <use x="55.078125" xlink:href="#WenQuanYiMicroHei-30"/>
       <use x="110.15625" xlink:href="#WenQuanYiMicroHei-2e"/>
       <use x="136.962890625" xlink:href="#WenQuanYiMicroHei-34"/>
      </g>
     </g>
    </g>
    <g id="ytick_10">
     <g id="line2d_47">
      <g>
       <use style="stroke:#000000;stroke-width:0.5;" x="29.6988475" xlink:href="#m728421d6d4" y="155.544235483"/>
      </g>
     </g>
     <g id="line2d_48">
      <g>
       <use style="stroke:#000000;stroke-width:0.5;" x="364.4988475" xlink:href="#mcb0005524f" y="155.544235483"/>
      </g>
     </g>
     <g id="text_23">
      <!-- −0.2 -->
      <g transform="translate(7.585783125 158.14085267)scale(0.09996 -0.09996)">
       <use xlink:href="#WenQuanYiMicroHei-2212"/>
       <use x="55.078125" xlink:href="#WenQuanYiMicroHei-30"/>
       <use x="110.15625" xlink:href="#WenQuanYiMicroHei-2e"/>
       <use x="136.962890625" xlink:href="#WenQuanYiMicroHei-32"/>
      </g>
     </g>
    </g>
    <g id="ytick_11">
     <g id="line2d_49">
      <g>
       <use style="stroke:#000000;stroke-width:0.5;" x="29.6988475" xlink:href="#m728421d6d4" y="145.726053665"/>
      </g>
     </g>
     <g id="line2d_50">
      <g>
       <use style="stroke:#000000;stroke-width:0.5;" x="364.4988475" xlink:href="#mcb0005524f" y="145.726053665"/>
      </g>
     </g>
     <g id="text_24">
      <!-- 0.0 -->
      <g transform="translate(12.9539475 148.322670852)scale(0.09996 -0.09996)">
       <use xlink:href="#WenQuanYiMicroHei-30"/>
       <use x="55.078125" xlink:href="#WenQuanYiMicroHei-2e"/>
       <use x="81.884765625" xlink:href="#WenQuanYiMicroHei-30"/>
      </g>
     </g>
    </g>
    <g id="ytick_12">
     <g id="line2d_51">
      <g>
       <use style="stroke:#000000;stroke-width:0.5;" x="29.6988475" xlink:href="#m728421d6d4" y="135.907871847"/>
      </g>
     </g>
     <g id="line2d_52">
      <g>
       <use style="stroke:#000000;stroke-width:0.5;" x="364.4988475" xlink:href="#mcb0005524f" y="135.907871847"/>
      </g>
     </g>
     <g id="text_25">
      <!-- 0.2 -->
      <g transform="translate(13.071088125 138.504489034)scale(0.09996 -0.09996)">
       <use xlink:href="#WenQuanYiMicroHei-30"/>
       <use x="55.078125" xlink:href="#WenQuanYiMicroHei-2e"/>
       <use x="81.884765625" xlink:href="#WenQuanYiMicroHei-32"/>
      </g>
     </g>
    </g>
    <g id="ytick_13">
     <g id="line2d_53">
      <g>
       <use style="stroke:#000000;stroke-width:0.5;" x="29.6988475" xlink:href="#m728421d6d4" y="126.089690028"/>
      </g>
     </g>
     <g id="line2d_54">
      <g>
       <use style="stroke:#000000;stroke-width:0.5;" x="364.4988475" xlink:href="#mcb0005524f" y="126.089690028"/>
      </g>
     </g>
     <g id="text_26">
      <!-- 0.4 -->
      <g transform="translate(12.685305 128.686307216)scale(0.09996 -0.09996)">
       <use xlink:href="#WenQuanYiMicroHei-30"/>
       <use x="55.078125" xlink:href="#WenQuanYiMicroHei-2e"/>
       <use x="81.884765625" xlink:href="#WenQuanYiMicroHei-34"/>
      </g>
     </g>
    </g>
    <g id="ytick_14">
     <g id="line2d_55">
      <g>
       <use style="stroke:#000000;stroke-width:0.5;" x="29.6988475" xlink:href="#m728421d6d4" y="116.27150821"/>
      </g>
     </g>
     <g id="line2d_56">
      <g>
       <use style="stroke:#000000;stroke-width:0.5;" x="364.4988475" xlink:href="#mcb0005524f" y="116.27150821"/>
      </g>
     </g>
     <g id="text_27">
      <!-- 0.6 -->
      <g transform="translate(12.94457625 118.868125398)scale(0.09996 -0.09996)">
       <use xlink:href="#WenQuanYiMicroHei-30"/>
       <use x="55.078125" xlink:href="#WenQuanYiMicroHei-2e"/>
       <use x="81.884765625" xlink:href="#WenQuanYiMicroHei-36"/>
      </g>
     </g>
    </g>
    <g id="ytick_15">
     <g id="line2d_57">
      <g>
       <use style="stroke:#000000;stroke-width:0.5;" x="29.6988475" xlink:href="#m728421d6d4" y="106.453326392"/>
      </g>
     </g>
     <g id="line2d_58">
      <g>
       <use style="stroke:#000000;stroke-width:0.5;" x="364.4988475" xlink:href="#mcb0005524f" y="106.453326392"/>
      </g>
     </g>
     <g id="text_28">
      <!-- 0.8 -->
      <g transform="translate(12.992994375 109.04994358)scale(0.09996 -0.09996)">
       <use xlink:href="#WenQuanYiMicroHei-30"/>
       <use x="55.078125" xlink:href="#WenQuanYiMicroHei-2e"/>
       <use x="81.884765625" xlink:href="#WenQuanYiMicroHei-38"/>
      </g>
     </g>
    </g>
   </g>
   <g id="legend_2">
    <g id="patch_13">
     <path d="
M318.817 129.446
L359.501 129.446
L359.501 111.451
L318.817 111.451
z
" style="fill:#ffffff;stroke:#000000;stroke-linejoin:miter;"/>
    </g>
    <g id="line2d_59">
     <path d="
M325.814 119.547
L339.809 119.547" style="fill:none;stroke:#348abd;stroke-linecap:square;stroke-width:2.0;"/>
    </g>
    <g id="line2d_60"/>
    <g id="text_29">
     <!-- $\theta$ -->
     <defs>
      <path d="
M16.1094 -1.125
Q11.5781 -1.125 8.84375 2.1875
Q6.10938 5.51562 5.04688 10.2031
Q4 14.8906 4 19.4844
L4 19.5781
Q4 24.5625 4.95312 29.9219
Q5.90625 35.2969 7.70312 40.6406
Q9.51562 46 11.625 50.2031
Q13.0938 53.125 15.4062 56.7344
Q17.7188 60.3594 20.5781 63.5
Q23.4375 66.6562 26.7344 68.5781
Q30.0312 70.5156 33.4062 70.5156
L33.5 70.5156
Q37.1094 70.5156 39.5156 68.5
Q41.9375 66.5 43.2812 63.375
Q44.625 60.25 45.1562 56.6875
Q45.7031 53.125 45.7031 49.9062
Q45.7031 42.3281 43.6562 34.4375
Q41.6094 26.5625 37.9844 19.1875
Q36.625 16.4062 34.2031 12.6406
Q31.7812 8.89062 29.0781 5.90625
Q26.375 2.9375 23 0.90625
Q19.625 -1.125 16.2188 -1.125
z

M16.3125 1.51562
Q19.625 1.51562 22.6719 5.04688
Q25.7344 8.59375 28.0312 13.6406
Q30.3281 18.7031 32.0625 24
Q33.7969 29.2969 34.625 33.0156
L14.2031 33.0156
Q12.6406 26.7031 11.7656 22.1406
Q10.8906 17.5781 10.8906 13.1875
Q10.8906 1.51562 16.3125 1.51562
M14.9844 36.5312
L35.5 36.5312
Q36.5781 40.9219 37.2031 43.875
Q37.8438 46.8281 38.2812 50.0938
Q38.7188 53.375 38.7188 56.2031
Q38.7188 67.9219 33.4062 67.9219
Q27.0469 67.9219 22.4375 57.6875
Q17.8281 47.4688 14.9844 36.5312" id="Cmmi10-b5"/>
     </defs>
     <g transform="translate(350.8043275 123.045124517)scale(0.09996 -0.09996)">
      <use transform="translate(0.0 0.484375)" xlink:href="#Cmmi10-b5"/>
     </g>
    </g>
   </g>
  </g>
 </g>
 <defs>
  <clipPath id="p504a52766b">
   <rect height="78.5454545455" width="334.8" x="29.6988475" y="106.453326392"/>
  </clipPath>
  <clipPath id="pefe211d44d">
   <rect height="78.5454545455" width="334.8" x="29.6988475" y="12.1987809375"/>
  </clipPath>
 </defs>
</svg>
