<?xml version="1.0" encoding="utf-8" standalone="no"?>
<!DOCTYPE svg PUBLIC "-//W3C//DTD SVG 1.1//EN"
  "http://www.w3.org/Graphics/SVG/1.1/DTD/svg11.dtd">
<!-- Created with matplotlib (http://matplotlib.org/) -->
<svg height="263pt" version="1.1" viewBox="0 0 371 263" width="371pt" xmlns="http://www.w3.org/2000/svg" xmlns:xlink="http://www.w3.org/1999/xlink">
 <defs>
  <style type="text/css">
*{stroke-linecap:butt;stroke-linejoin:round;}
  </style>
 </defs>
 <g id="figure_1">
  <g id="patch_1">
   <path d="
M0 263.796
L371.103 263.796
L371.103 -5.68434e-14
L0 -5.68434e-14
z
" style="fill:#ffffff;"/>
  </g>
  <g id="axes_1">
   <g id="patch_2">
    <path d="
M21.5131 116.926
L356.313 116.926
L356.313 12.1988
L21.5131 12.1988
z
" style="fill:#ffffff;"/>
   </g>
   <g id="line2d_1">
    <path clip-path="url(#p78119f6446)" d="
M21.5131 36.1461
L24.3031 43.2484
L27.0931 56.1898
L29.8831 66.7607
L32.6731 46.6358
L35.4631 51.1949
L38.2531 43.6889
L41.0431 47.5791
L43.8331 41.3795
L46.6231 65.0896
L49.4131 37.3723
L52.2031 54.1256
L54.9931 26.0338
L57.7831 67.3929
L60.5731 31.1101
L63.3631 54.1209
L66.1531 66.8278
L68.9431 64.3213
L71.7331 61.8746
L74.5231 50.7359
L77.3131 49.2597
L80.1031 65.665
L82.8931 57.4463
L85.6831 25.0313
L88.4731 31.2361
L91.2631 50.554
L94.0531 56.5133
L96.8431 55.2861
L99.6331 47.903
L102.423 72.3839
L105.213 60.9325
L108.003 82.0456
L110.793 51.1091
L113.583 47.3992
L116.373 64.3109
L119.163 33.5334
L121.953 75.4206
L124.743 78.9905
L127.533 53.7239
L130.323 41.4162
L133.113 31.8886
L135.903 63.9473
L138.693 40.9437
L141.483 57.658
L144.273 59.6646
L147.063 43.8614
L149.853 47.3225
L152.643 80.6664
L155.433 34.9913
L158.223 36.4343
L161.013 66.441
L163.803 51.1603
L166.593 49.6907
L169.383 53.1819
L172.173 65.315
L174.963 67.1301
L177.753 57.4642
L180.543 39.5367
L183.333 48.9491
L186.123 62.6267
L188.913 45.5365
L191.703 99.6991
L194.493 39.8952
L197.283 83.1098
L200.073 62.5044
L202.863 73.8333
L205.653 76.4517
L208.443 39.7147
L211.233 64.0792
L214.023 51.8978
L216.813 57.7839
L219.603 49.9449
L222.393 55.9326
L225.183 76.2768
L227.973 42.1767
L230.763 64.469
L233.553 80.37
L236.343 63.4869
L239.133 34.629
L241.923 44.3617
L244.713 62.2981
L247.503 62.3072
L250.293 61.8939
L253.083 26.0116
L255.873 51.3677
L258.663 50.648
L261.453 41.6678
L264.243 53.5094
L267.033 60.9574
L269.823 60.0195
L272.613 58.1531
L275.403 57.6388
L278.193 46.1958
L280.983 56.3047
L283.773 46.1208
L286.563 58.2895
L289.353 55.9054
L292.143 86.9771
L294.933 43.3727
L297.723 51.8981" style="fill:none;stroke:#348abd;stroke-linecap:square;stroke-width:2;"/>
   </g>
   <g id="line2d_2">
    <path clip-path="url(#p78119f6446)" d="
M21.5131 41.8033
L24.3031 40.3158
L27.0931 60.4867
L29.8831 72.2647
L32.6731 37.4001
L35.4631 49.0127
L38.2531 37.4014
L41.0431 43.1151
L43.8331 38.0766
L46.6231 72.6666
L49.4131 36.1737
L52.2031 53.7127
L54.9931 32.3347
L57.7831 71.5684
L60.5731 30.1612
L63.3631 55.3113
L66.1531 72.7077
L68.9431 67.3072
L71.7331 56.4752
L74.5231 46.0505
L77.3131 53.0726
L80.1031 62.3769
L82.8931 50.6438
L85.6831 19.0633
L88.4731 33.2462
L91.2631 64.2519
L94.0531 58.5773
L96.8431 62.1805
L99.6331 50.6976
L102.423 65.6146
L105.213 65.599
L108.003 77.0675
L110.793 47.0053
L113.583 39.8209
L116.373 61.5509
L119.163 38.0148
L121.953 76.7182
L124.743 69.4656
L127.533 54.2941
L130.323 37.8208
L133.113 36.3891
L135.903 67.9338
L138.693 32.551
L141.483 54.0773
L144.273 64.2023
L147.063 48.3033
L149.853 44.2771
L152.643 74.8272
L155.433 37.1684
L158.223 34.8131
L161.013 67.9801
L163.803 50.9011
L166.593 51.1883
L169.383 61.5782
L172.173 76.6462
L174.963 53.8138
L177.753 56.9739
L180.543 33.3608
L183.333 49.8708
L186.123 77.2829
L188.913 42.7328
L191.703 112.685
L194.493 36.5073
L197.283 91.5858
L200.073 62.2008
L202.863 67.0203
L205.653 83.9107
L208.443 35.5929
L211.233 51.2458
L214.023 50.6427
L216.813 59.594
L219.603 53.3507
L222.393 56.5321
L225.183 71.286
L227.973 47.0128
L230.763 63.8848
L233.553 77.9966
L236.343 69.2078
L239.133 35.3523
L241.923 41.5042
L244.713 68.3427
L247.503 66.546
L250.293 63.9507
L253.083 25.414
L255.873 50.9675
L258.663 49.0212
L261.453 45.0153
L264.243 46.3101
L267.033 64.7479
L269.823 60.0909
L272.613 67.7655
L275.403 68.4234
L278.193 48.4501
L280.983 62.2979
L283.773 53.2628
L286.563 55.6349
L289.353 57.6901
L292.143 95.166
L294.933 44.173
L297.723 53.135
L300.513 51.4872
L303.303 60.9448
L306.093 55.7108
L308.883 63.0586
L311.673 50.1488
L314.463 65.4913
L317.253 47.8813
L320.043 52.3538
L322.833 58.1723
L325.623 48.3664
L328.413 51.6901
L331.203 62.0043
L333.993 61.0772
L336.783 61.6097
L339.573 54.4925
L342.363 59.4844
L345.153 63.251
L347.943 62.4863
L350.733 65.7277
L353.523 52.4623" style="fill:none;opacity:0.7;stroke:#a60628;stroke-linecap:square;stroke-width:2;"/>
   </g>
   <g id="patch_3">
    <path d="
M21.5131 12.1988
L356.313 12.1988" style="fill:none;stroke:#000000;stroke-linecap:square;stroke-linejoin:miter;"/>
   </g>
   <g id="patch_4">
    <path d="
M356.313 116.926
L356.313 12.1988" style="fill:none;stroke:#000000;stroke-linecap:square;stroke-linejoin:miter;"/>
   </g>
   <g id="patch_5">
    <path d="
M21.5131 116.926
L356.313 116.926" style="fill:none;stroke:#000000;stroke-linecap:square;stroke-linejoin:miter;"/>
   </g>
   <g id="patch_6">
    <path d="
M21.5131 116.926
L21.5131 12.1988" style="fill:none;stroke:#000000;stroke-linecap:square;stroke-linejoin:miter;"/>
   </g>
   <g id="matplotlib.axis_1">
    <g id="xtick_1">
     <g id="line2d_3">
      <defs>
       <path d="
M0 0
L0 -4" id="m93b0483c22" style="stroke:#000000;stroke-width:0.5;"/>
      </defs>
      <g>
       <use style="stroke:#000000;stroke-width:0.5;" x="21.513060625" xlink:href="#m93b0483c22" y="116.926053665"/>
      </g>
     </g>
     <g id="line2d_4">
      <defs>
       <path d="
M0 0
L0 4" id="m741efc42ff" style="stroke:#000000;stroke-width:0.5;"/>
      </defs>
      <g>
       <use style="stroke:#000000;stroke-width:0.5;" x="21.513060625" xlink:href="#m741efc42ff" y="12.1987809375"/>
      </g>
     </g>
     <g id="text_1">
      <!-- 0 -->
      <defs>
       <path d="
M50.3906 35.7969
Q50.3906 27.1562 49.1406 20.3125
Q47.9062 13.4844 45.1406 8.73438
Q42.3906 4 38.0312 1.5
Q33.6875 -0.984375 27.4844 -0.984375
Q21.7344 -0.984375 17.4531 1.5
Q13.1875 4 10.375 8.73438
Q7.5625 13.4844 6.17188 20.3125
Q4.78125 27.1562 4.78125 35.7969
Q4.78125 44.4375 6.03125 51.2656
Q7.28125 58.1094 9.98438 62.8125
Q12.7031 67.5312 17.0156 70.0156
Q21.3438 72.5156 27.4844 72.5156
Q33.2969 72.5156 37.5938 70.0469
Q41.8906 67.5781 44.7188 62.8594
Q47.5625 58.1562 48.9688 51.3125
Q50.3906 44.4844 50.3906 35.7969
M13.8125 35.7969
Q13.8125 28.4688 14.5469 23
Q15.2812 17.5312 16.8906 13.8906
Q18.5 10.25 21.1094 8.42188
Q23.7344 6.59375 27.4844 6.59375
Q31.25 6.59375 33.8906 8.39062
Q36.5312 10.2031 38.2031 13.8125
Q39.8906 17.4375 40.6406 22.9219
Q41.4062 28.4219 41.4062 35.7969
Q41.4062 43.1094 40.6406 48.5781
Q39.8906 54.0469 38.2031 57.6562
Q36.5312 61.2812 33.8906 63.0781
Q31.25 64.8906 27.4844 64.8906
Q23.7344 64.8906 21.1094 63.0781
Q18.5 61.2812 16.8906 57.6562
Q15.2812 54.0469 14.5469 48.5781
Q13.8125 43.1094 13.8125 35.7969" id="WenQuanYiMicroHei-30"/>
      </defs>
      <g transform="translate(19.2335040625 128.52145179)scale(0.09996 -0.09996)">
       <use xlink:href="#WenQuanYiMicroHei-30"/>
      </g>
     </g>
    </g>
    <g id="xtick_2">
     <g id="line2d_5">
      <g>
       <use style="stroke:#000000;stroke-width:0.5;" x="77.313060625" xlink:href="#m93b0483c22" y="116.926053665"/>
      </g>
     </g>
     <g id="line2d_6">
      <g>
       <use style="stroke:#000000;stroke-width:0.5;" x="77.313060625" xlink:href="#m741efc42ff" y="12.1987809375"/>
      </g>
     </g>
     <g id="text_2">
      <!-- 20 -->
      <defs>
       <path d="
M49.2188 0
L4.6875 0
L4.6875 7.625
L21.7812 26.2188
Q25.4375 30.1719 28.3125 33.4375
Q31.2031 36.7188 33.2188 39.8438
Q35.25 42.9688 36.3281 46.1094
Q37.4062 49.2656 37.4062 52.9844
Q37.4062 55.8594 36.5781 58.0469
Q35.75 60.25 34.2031 61.7812
Q32.6719 63.3281 30.5625 64.1094
Q28.4688 64.8906 25.875 64.8906
Q21.2344 64.8906 17.5 63.0156
Q13.7656 61.1406 10.4062 58.2031
L5.42188 64.0156
Q7.375 65.7656 9.60938 67.2969
Q11.8594 68.8438 14.4531 69.9688
Q17.0469 71.0938 19.9219 71.75
Q22.7969 72.4062 25.9844 72.4062
Q30.6719 72.4062 34.4531 71.0938
Q38.2344 69.7812 40.8594 67.3125
Q43.5 64.8438 44.9375 61.2969
Q46.3906 57.7656 46.3906 53.3281
Q46.3906 49.1719 45.0938 45.4062
Q43.7969 41.6562 41.5312 38.0156
Q39.2656 34.375 36.1094 30.7031
Q32.9531 27.0469 29.2969 23.0938
L15.5781 8.5
L15.5781 8.10938
L49.2188 8.10938
z
" id="WenQuanYiMicroHei-32"/>
      </defs>
      <g transform="translate(72.27601375 128.52145179)scale(0.09996 -0.09996)">
       <use xlink:href="#WenQuanYiMicroHei-32"/>
       <use x="55.078125" xlink:href="#WenQuanYiMicroHei-30"/>
      </g>
     </g>
    </g>
    <g id="xtick_3">
     <g id="line2d_7">
      <g>
       <use style="stroke:#000000;stroke-width:0.5;" x="133.113060625" xlink:href="#m93b0483c22" y="116.926053665"/>
      </g>
     </g>
     <g id="line2d_8">
      <g>
       <use style="stroke:#000000;stroke-width:0.5;" x="133.113060625" xlink:href="#m741efc42ff" y="12.1987809375"/>
      </g>
     </g>
     <g id="text_3">
      <!-- 40 -->
      <defs>
       <path d="
M53.0781 16.0156
L42.6719 16.0156
L42.6719 0
L34.0781 0
L34.0781 16.0156
L1.125 16.0156
L1.125 23.7812
L33.5 71.7812
L42.6719 71.7812
L42.6719 24.125
L53.0781 24.125
z

M34.0781 24.125
L34.0781 41.5
Q34.0781 44.2344 34.1562 47.2344
Q34.2344 50.25 34.3281 53.0938
Q34.4219 55.9531 34.5469 58.4375
Q34.6719 60.9375 34.7188 62.5938
L34.2812 62.5938
Q33.9375 61.625 33.4219 60.4219
Q32.9062 59.2344 32.2969 58.0312
Q31.6875 56.8438 31.0469 55.7188
Q30.4219 54.5938 29.8906 53.8125
L9.8125 24.125
z
" id="WenQuanYiMicroHei-34"/>
      </defs>
      <g transform="translate(127.89796 128.52145179)scale(0.09996 -0.09996)">
       <use xlink:href="#WenQuanYiMicroHei-34"/>
       <use x="55.078125" xlink:href="#WenQuanYiMicroHei-30"/>
      </g>
     </g>
    </g>
    <g id="xtick_4">
     <g id="line2d_9">
      <g>
       <use style="stroke:#000000;stroke-width:0.5;" x="188.913060625" xlink:href="#m93b0483c22" y="116.926053665"/>
      </g>
     </g>
     <g id="line2d_10">
      <g>
       <use style="stroke:#000000;stroke-width:0.5;" x="188.913060625" xlink:href="#m741efc42ff" y="12.1987809375"/>
      </g>
     </g>
     <g id="text_4">
      <!-- 60 -->
      <defs>
       <path d="
M5.51562 30.5156
Q5.51562 35.6406 6.03125 40.7188
Q6.54688 45.7969 7.82812 50.4531
Q9.125 55.125 11.375 59.125
Q13.625 63.1406 17.0938 66.0938
Q20.5625 69.0469 25.3906 70.7188
Q30.2188 72.4062 36.7188 72.4062
Q37.6406 72.4062 38.7656 72.3594
Q39.8906 72.3125 41.0312 72.1875
Q42.1875 72.0781 43.2344 71.9062
Q44.2812 71.7344 45.125 71.4844
L45.125 63.9219
Q43.4062 64.5 41.25 64.7969
Q39.1094 65.0938 37.0156 65.0938
Q32.625 65.0938 29.2656 64.0312
Q25.9219 62.9844 23.4844 61.0781
Q21.0469 59.1875 19.4062 56.5469
Q17.7812 53.9062 16.75 50.7031
Q15.7188 47.5156 15.2344 43.8906
Q14.75 40.2812 14.5938 36.375
L15.1875 36.375
Q16.1562 38.1406 17.5469 39.6719
Q18.9531 41.2188 20.7969 42.3125
Q22.6562 43.4062 24.9688 44.0312
Q27.2969 44.6719 30.1719 44.6719
Q34.8125 44.6719 38.5625 43.2344
Q42.3281 41.7969 44.9688 39.0156
Q47.6094 36.2344 49.0469 32.2031
Q50.4844 28.1719 50.4844 23
Q50.4844 17.4375 48.9688 12.9844
Q47.4688 8.54688 44.625 5.4375
Q41.7969 2.34375 37.7969 0.671875
Q33.7969 -0.984375 28.8125 -0.984375
Q23.9219 -0.984375 19.6406 0.921875
Q15.375 2.82812 12.25 6.73438
Q9.125 10.6406 7.3125 16.5469
Q5.51562 22.4688 5.51562 30.5156
M28.7188 6.5
Q31.6406 6.5 34.0469 7.5
Q36.4688 8.5 38.2188 10.5156
Q39.9844 12.5469 40.9375 15.6406
Q41.8906 18.75 41.8906 23
Q41.8906 26.4219 41.0781 29.125
Q40.2812 31.8438 38.6719 33.7344
Q37.0625 35.6406 34.6406 36.6719
Q32.2344 37.7031 29 37.7031
Q25.7344 37.7031 23.0156 36.5469
Q20.3125 35.4062 18.4062 33.5625
Q16.5 31.7344 15.4531 29.3906
Q14.4062 27.0469 14.4062 24.7031
Q14.4062 21.4375 15.3125 18.1875
Q16.2188 14.9375 18 12.3438
Q19.7812 9.76562 22.4531 8.125
Q25.1406 6.5 28.7188 6.5" id="WenQuanYiMicroHei-36"/>
      </defs>
      <g transform="translate(183.917403438 128.52145179)scale(0.09996 -0.09996)">
       <use xlink:href="#WenQuanYiMicroHei-36"/>
       <use x="55.078125" xlink:href="#WenQuanYiMicroHei-30"/>
      </g>
     </g>
    </g>
    <g id="xtick_5">
     <g id="line2d_11">
      <g>
       <use style="stroke:#000000;stroke-width:0.5;" x="244.713060625" xlink:href="#m93b0483c22" y="116.926053665"/>
      </g>
     </g>
     <g id="line2d_12">
      <g>
       <use style="stroke:#000000;stroke-width:0.5;" x="244.713060625" xlink:href="#m741efc42ff" y="12.1987809375"/>
      </g>
     </g>
     <g id="text_5">
      <!-- 80 -->
      <defs>
       <path d="
M27.5938 72.5156
Q31.6875 72.5156 35.3281 71.4375
Q38.9688 70.3594 41.7188 68.2031
Q44.4844 66.0625 46.0938 62.8438
Q47.7031 59.625 47.7031 55.3281
Q47.7031 52.0469 46.7188 49.4062
Q45.75 46.7812 44.0312 44.6562
Q42.3281 42.5312 39.9844 40.8438
Q37.6406 39.1562 34.9062 37.7969
Q37.75 36.2812 40.4531 34.4219
Q43.1719 32.5625 45.2812 30.25
Q47.4062 27.9375 48.7031 25.0469
Q50 22.1719 50 18.6094
Q50 14.1094 48.3594 10.4688
Q46.7344 6.84375 43.7812 4.29688
Q40.8281 1.76562 36.6875 0.390625
Q32.5625 -0.984375 27.5938 -0.984375
Q22.2188 -0.984375 18.0469 0.328125
Q13.875 1.65625 11.0156 4.125
Q8.15625 6.59375 6.65625 10.1562
Q5.17188 13.7188 5.17188 18.2188
Q5.17188 21.875 6.26562 24.7969
Q7.375 27.7344 9.21875 30.0781
Q11.0781 32.4219 13.6094 34.2188
Q16.1562 36.0312 19 37.4062
Q16.6094 38.9219 14.5 40.7031
Q12.4062 42.4844 10.8594 44.6719
Q9.32812 46.875 8.42188 49.5312
Q7.51562 52.2031 7.51562 55.4219
Q7.51562 59.6719 9.15625 62.8594
Q10.7969 66.0625 13.5781 68.2031
Q16.3594 70.3594 20 71.4375
Q23.6406 72.5156 27.5938 72.5156
M13.9219 18.1094
Q13.9219 15.5312 14.7031 13.3594
Q15.4844 11.1875 17.1406 9.64062
Q18.7969 8.10938 21.3281 7.25
Q23.875 6.39062 27.3906 6.39062
Q30.8125 6.39062 33.4219 7.25
Q36.0312 8.10938 37.7812 9.6875
Q39.5469 11.2812 40.4219 13.5156
Q41.3125 15.7656 41.3125 18.5
Q41.3125 21.0469 40.3594 23.0938
Q39.4062 25.1406 37.625 26.8906
Q35.8438 28.6562 33.3438 30.2188
Q30.8594 31.7812 27.7812 33.2969
L26.3125 33.9844
Q20.1719 31.0625 17.0469 27.2656
Q13.9219 23.4844 13.9219 18.1094
M27.4844 65.0938
Q22.3125 65.0938 19.2656 62.5
Q16.2188 59.9062 16.2188 54.9844
Q16.2188 52.2031 17.0625 50.1875
Q17.9219 48.1875 19.4375 46.625
Q20.9531 45.0625 23.0781 43.8125
Q25.2031 42.5781 27.6875 41.4062
Q30.0312 42.4844 32.1094 43.75
Q34.1875 45.0156 35.7188 46.625
Q37.25 48.25 38.125 50.2969
Q39.0156 52.3438 39.0156 54.9844
Q39.0156 59.9062 35.9375 62.5
Q32.8594 65.0938 27.4844 65.0938" id="WenQuanYiMicroHei-38"/>
      </defs>
      <g transform="translate(239.700222812 128.52145179)scale(0.09996 -0.09996)">
       <use xlink:href="#WenQuanYiMicroHei-38"/>
       <use x="55.078125" xlink:href="#WenQuanYiMicroHei-30"/>
      </g>
     </g>
    </g>
    <g id="xtick_6">
     <g id="line2d_13">
      <g>
       <use style="stroke:#000000;stroke-width:0.5;" x="300.513060625" xlink:href="#m93b0483c22" y="116.926053665"/>
      </g>
     </g>
     <g id="line2d_14">
      <g>
       <use style="stroke:#000000;stroke-width:0.5;" x="300.513060625" xlink:href="#m741efc42ff" y="12.1987809375"/>
      </g>
     </g>
     <g id="text_6">
      <!-- 100 -->
      <defs>
       <path d="
M34.7188 0
L26.125 0
L26.125 44.5781
Q26.125 46.6875 26.1406 49.0781
Q26.1719 51.4688 26.2344 53.8281
Q26.3125 56.2031 26.3906 58.375
Q26.4688 60.5469 26.5156 62.2031
Q25.6875 61.3281 25.0469 60.6875
Q24.4219 60.0625 23.75 59.4688
Q23.0938 58.8906 22.3594 58.2188
Q21.625 57.5625 20.6094 56.6875
L13.375 50.7812
L8.6875 56.7812
L27.3906 71.3906
L34.7188 71.3906
z
" id="WenQuanYiMicroHei-31"/>
      </defs>
      <g transform="translate(292.923129062 128.52145179)scale(0.09996 -0.09996)">
       <use xlink:href="#WenQuanYiMicroHei-31"/>
       <use x="55.078125" xlink:href="#WenQuanYiMicroHei-30"/>
       <use x="110.15625" xlink:href="#WenQuanYiMicroHei-30"/>
      </g>
     </g>
    </g>
    <g id="xtick_7">
     <g id="line2d_15">
      <g>
       <use style="stroke:#000000;stroke-width:0.5;" x="356.313060625" xlink:href="#m93b0483c22" y="116.926053665"/>
      </g>
     </g>
     <g id="line2d_16">
      <g>
       <use style="stroke:#000000;stroke-width:0.5;" x="356.313060625" xlink:href="#m741efc42ff" y="12.1987809375"/>
      </g>
     </g>
     <g id="text_7">
      <!-- 120 -->
      <g transform="translate(348.723129062 128.52145179)scale(0.09996 -0.09996)">
       <use xlink:href="#WenQuanYiMicroHei-31"/>
       <use x="55.078125" xlink:href="#WenQuanYiMicroHei-32"/>
       <use x="110.15625" xlink:href="#WenQuanYiMicroHei-30"/>
      </g>
     </g>
    </g>
   </g>
   <g id="matplotlib.axis_2">
    <g id="ytick_1">
     <g id="line2d_17">
      <defs>
       <path d="
M0 0
L4 0" id="m728421d6d4" style="stroke:#000000;stroke-width:0.5;"/>
      </defs>
      <g>
       <use style="stroke:#000000;stroke-width:0.5;" x="21.513060625" xlink:href="#m728421d6d4" y="116.926053665"/>
      </g>
     </g>
     <g id="line2d_18">
      <defs>
       <path d="
M0 0
L-4 0" id="mcb0005524f" style="stroke:#000000;stroke-width:0.5;"/>
      </defs>
      <g>
       <use style="stroke:#000000;stroke-width:0.5;" x="356.313060625" xlink:href="#mcb0005524f" y="116.926053665"/>
      </g>
     </g>
     <g id="text_8">
      <!-- −4 -->
      <defs>
       <path d="
M4.98438 31.5938
L4.98438 38.9219
L50.0938 38.9219
L50.0938 31.5938
z
" id="WenQuanYiMicroHei-2212"/>
      </defs>
      <g transform="translate(7.2 119.522670852)scale(0.09996 -0.09996)">
       <use xlink:href="#WenQuanYiMicroHei-2212"/>
       <use x="55.078125" xlink:href="#WenQuanYiMicroHei-34"/>
      </g>
     </g>
    </g>
    <g id="ytick_2">
     <g id="line2d_19">
      <g>
       <use style="stroke:#000000;stroke-width:0.5;" x="21.513060625" xlink:href="#m728421d6d4" y="101.965014704"/>
      </g>
     </g>
     <g id="line2d_20">
      <g>
       <use style="stroke:#000000;stroke-width:0.5;" x="356.313060625" xlink:href="#mcb0005524f" y="101.965014704"/>
      </g>
     </g>
     <g id="text_9">
      <!-- −3 -->
      <defs>
       <path d="
M46.9219 54.6875
Q46.9219 51.125 45.7969 48.1875
Q44.6719 45.2656 42.6406 43.1094
Q40.625 40.9688 37.7969 39.5781
Q34.9688 38.1875 31.5 37.5938
L31.5 37.3125
Q40.1406 36.2344 44.625 31.8125
Q49.125 27.3906 49.125 20.3125
Q49.125 15.625 47.5312 11.7188
Q45.9531 7.8125 42.7188 4.98438
Q39.5 2.15625 34.5625 0.578125
Q29.6406 -0.984375 22.9062 -0.984375
Q17.5781 -0.984375 12.8594 -0.140625
Q8.15625 0.6875 4 2.875
L4 11.1875
Q8.25 8.9375 13.2031 7.71875
Q18.1719 6.5 22.7031 6.5
Q27.2031 6.5 30.4688 7.46875
Q33.7344 8.45312 35.8594 10.25
Q37.9844 12.0625 38.9844 14.6875
Q39.9844 17.3281 39.9844 20.6094
Q39.9844 23.9219 38.6875 26.2812
Q37.4062 28.6562 35.0156 30.1875
Q32.625 31.7344 29.1719 32.4688
Q25.7344 33.2031 21.3906 33.2031
L14.8906 33.2031
L14.8906 40.5781
L21.3906 40.5781
Q25.3438 40.5781 28.4219 41.5469
Q31.5 42.5312 33.5625 44.3281
Q35.6406 46.1406 36.7188 48.625
Q37.7969 51.125 37.7969 54.1094
Q37.7969 56.6406 36.9062 58.6406
Q36.0312 60.6406 34.4219 62.0312
Q32.8125 63.4219 30.5625 64.1562
Q28.3281 64.8906 25.5938 64.8906
Q20.3594 64.8906 16.375 63.25
Q12.4062 61.625 8.79688 58.9844
L4.29688 65.0938
Q6.15625 66.6094 8.42188 67.9219
Q10.6875 69.2344 13.375 70.2344
Q16.0625 71.2344 19.1094 71.8125
Q22.1719 72.4062 25.5938 72.4062
Q30.8594 72.4062 34.8281 71.0938
Q38.8125 69.7812 41.5 67.4062
Q44.1875 65.0469 45.5469 61.7969
Q46.9219 58.5469 46.9219 54.6875" id="WenQuanYiMicroHei-33"/>
      </defs>
      <g transform="translate(7.595154375 104.561631891)scale(0.09996 -0.09996)">
       <use xlink:href="#WenQuanYiMicroHei-2212"/>
       <use x="55.078125" xlink:href="#WenQuanYiMicroHei-33"/>
      </g>
     </g>
    </g>
    <g id="ytick_3">
     <g id="line2d_21">
      <g>
       <use style="stroke:#000000;stroke-width:0.5;" x="21.513060625" xlink:href="#m728421d6d4" y="87.0039757427"/>
      </g>
     </g>
     <g id="line2d_22">
      <g>
       <use style="stroke:#000000;stroke-width:0.5;" x="356.313060625" xlink:href="#mcb0005524f" y="87.0039757427"/>
      </g>
     </g>
     <g id="text_10">
      <!-- −2 -->
      <g transform="translate(7.585783125 89.6005929302)scale(0.09996 -0.09996)">
       <use xlink:href="#WenQuanYiMicroHei-2212"/>
       <use x="55.078125" xlink:href="#WenQuanYiMicroHei-32"/>
      </g>
     </g>
    </g>
    <g id="ytick_4">
     <g id="line2d_23">
      <g>
       <use style="stroke:#000000;stroke-width:0.5;" x="21.513060625" xlink:href="#m728421d6d4" y="72.0429367817"/>
      </g>
     </g>
     <g id="line2d_24">
      <g>
       <use style="stroke:#000000;stroke-width:0.5;" x="356.313060625" xlink:href="#mcb0005524f" y="72.0429367817"/>
      </g>
     </g>
     <g id="text_11">
      <!-- −1 -->
      <g transform="translate(9.035203125 74.6395539692)scale(0.09996 -0.09996)">
       <use xlink:href="#WenQuanYiMicroHei-2212"/>
       <use x="55.078125" xlink:href="#WenQuanYiMicroHei-31"/>
      </g>
     </g>
    </g>
    <g id="ytick_5">
     <g id="line2d_25">
      <g>
       <use style="stroke:#000000;stroke-width:0.5;" x="21.513060625" xlink:href="#m728421d6d4" y="57.0818978206"/>
      </g>
     </g>
     <g id="line2d_26">
      <g>
       <use style="stroke:#000000;stroke-width:0.5;" x="356.313060625" xlink:href="#mcb0005524f" y="57.0818978206"/>
      </g>
     </g>
     <g id="text_12">
      <!-- 0 -->
      <g transform="translate(12.9539475 59.6785150081)scale(0.09996 -0.09996)">
       <use xlink:href="#WenQuanYiMicroHei-30"/>
      </g>
     </g>
    </g>
    <g id="ytick_6">
     <g id="line2d_27">
      <g>
       <use style="stroke:#000000;stroke-width:0.5;" x="21.513060625" xlink:href="#m728421d6d4" y="42.1208588596"/>
      </g>
     </g>
     <g id="line2d_28">
      <g>
       <use style="stroke:#000000;stroke-width:0.5;" x="356.313060625" xlink:href="#mcb0005524f" y="42.1208588596"/>
      </g>
     </g>
     <g id="text_13">
      <!-- 1 -->
      <g transform="translate(14.910976875 44.7174760471)scale(0.09996 -0.09996)">
       <use xlink:href="#WenQuanYiMicroHei-31"/>
      </g>
     </g>
    </g>
    <g id="ytick_7">
     <g id="line2d_29">
      <g>
       <use style="stroke:#000000;stroke-width:0.5;" x="21.513060625" xlink:href="#m728421d6d4" y="27.1598198985"/>
      </g>
     </g>
     <g id="line2d_30">
      <g>
       <use style="stroke:#000000;stroke-width:0.5;" x="356.313060625" xlink:href="#mcb0005524f" y="27.1598198985"/>
      </g>
     </g>
     <g id="text_14">
      <!-- 2 -->
      <g transform="translate(13.061716875 29.756437086)scale(0.09996 -0.09996)">
       <use xlink:href="#WenQuanYiMicroHei-32"/>
      </g>
     </g>
    </g>
    <g id="ytick_8">
     <g id="line2d_31">
      <g>
       <use style="stroke:#000000;stroke-width:0.5;" x="21.513060625" xlink:href="#m728421d6d4" y="12.1987809375"/>
      </g>
     </g>
     <g id="line2d_32">
      <g>
       <use style="stroke:#000000;stroke-width:0.5;" x="356.313060625" xlink:href="#mcb0005524f" y="12.1987809375"/>
      </g>
     </g>
     <g id="text_15">
      <!-- 3 -->
      <g transform="translate(13.002365625 14.795398125)scale(0.09996 -0.09996)">
       <use xlink:href="#WenQuanYiMicroHei-33"/>
      </g>
     </g>
    </g>
   </g>
   <g id="legend_1">
    <g id="patch_7">
     <path d="
M26.5111 111.928
L239.309 111.928
L239.309 93.9337
L26.5111 93.9337
z
" style="fill:#ffffff;stroke:#000000;stroke-linejoin:miter;"/>
    </g>
    <g id="line2d_33">
     <path d="
M33.5083 102.029
L47.5027 102.029" style="fill:none;stroke:#348abd;stroke-linecap:square;stroke-width:2;"/>
    </g>
    <g id="line2d_34"/>
    <g id="text_16">
     <!-- 实际的系统参数 -->
     <defs>
      <path d="
M33.2031 65.2344
L40.2344 62.5
Q30.4688 41.7969 17.9688 27.7344
Q27.7344 30.0781 35.9375 32.8125
L37.8906 26.5625
Q24.6094 21.4844 8.20312 18.75
L5.85938 25.3906
Q14.4531 33.5938 22.2656 46.0938
Q15.625 44.5312 8.20312 43.75
L6.64062 51.1719
Q15.625 62.1094 21.4844 80.8594
L28.9062 78.5156
Q23.4375 62.1094 15.2344 51.5625
Q21.4844 51.9531 26.5625 52.7344
z

M37.8906 15.2344
L39.4531 8.20312
Q25.3906 3.125 8.20312 -0.78125
L5.07812 7.42188
Q23.4375 10.9375 37.8906 15.2344
M57.8125 62.1094
L42.1875 62.1094
L42.1875 69.1406
L63.6719 69.1406
Q62.1094 74.2188 59.7656 78.5156
L67.5781 80.8594
Q70.3125 75.7812 71.875 69.1406
L93.3594 69.1406
L93.3594 62.1094
L66.4062 62.1094
Q59.375 46.0938 52.3438 39.4531
Q64.8438 40.625 78.9062 43.75
Q75.7812 49.6094 72.2656 55.0781
L78.5156 58.9844
Q87.1094 46.0938 92.5781 31.6406
L85.5469 27.7344
Q83.9844 32.8125 81.6406 37.8906
L75.7812 36.3281
L75.7812 1.95312
Q75.7812 0.390625 76.75 -0.1875
Q77.7344 -0.78125 81.25 -0.78125
Q84.7656 -0.78125 85.5469 0.96875
Q86.3281 2.73438 86.7188 16.4062
L94.9219 14.0625
Q94.5312 1.95312 93.5469 -1.5625
Q92.5781 -5.07812 90.625 -6.4375
Q88.6719 -7.8125 81.25 -7.8125
Q73.0469 -7.8125 70.5 -6.04688
Q67.9688 -4.29688 67.9688 -0.390625
L67.9688 35.1562
Q64.8438 34.375 61.7188 33.9844
Q59.375 3.125 42.9688 -8.98438
L37.8906 -2.34375
Q51.5625 7.42188 54.2969 33.2031
L43.75 32.4219
L41.7969 38.6719
Q51.1719 46.875 57.8125 62.1094" id="WenQuanYiMicroHei-7edf"/>
      <path d="
M58.9844 80.4688
L66.7969 78.9062
Q64.8438 71.4844 61.7188 64.4531
L92.1875 64.4531
Q92.1875 12.8906 88.6719 0.78125
Q85.9375 -8.98438 75.7812 -8.98438
Q70.7031 -8.98438 63.6719 -7.42188
L61.7188 0.78125
Q71.4844 -0.78125 75.7812 -0.78125
Q80.4688 -0.78125 81.6406 4.6875
Q83.9844 15.2344 83.9844 57.0312
L57.8125 57.0312
Q53.125 48.8281 47.6562 43.3594
L41.7969 48.8281
Q53.5156 61.7188 58.9844 80.4688
M62.1094 41.7969
Q67.9688 33.2031 71.875 22.6562
L64.4531 19.1406
Q60.5469 30.0781 54.6875 38.6719
z

M40.2344 67.9688
L40.2344 -2.73438
L33.2031 -2.73438
L33.2031 0.390625
L15.2344 0.390625
L15.2344 -5.46875
L8.20312 -5.46875
L8.20312 67.9688
L16.7969 67.9688
Q18.75 74.2188 19.5312 80.8594
L27.7344 79.2969
Q26.1719 73.0469 24.2188 67.9688
z

M33.2031 37.8906
L33.2031 60.5469
L15.2344 60.5469
L15.2344 37.8906
z

M15.2344 30.4688
L15.2344 7.8125
L33.2031 7.8125
L33.2031 30.4688
z
" id="WenQuanYiMicroHei-7684"/>
      <path d="
M50.7812 81.6406
Q53.5156 77.3438 55.0781 72.2656
L92.5781 72.2656
L92.5781 54.2969
L84.7656 54.2969
L84.7656 65.2344
L15.2344 65.2344
L15.2344 54.2969
L7.42188 54.2969
L7.42188 72.2656
L46.4844 72.2656
Q44.5312 76.1719 42.5781 79.2969
z

M6.64062 23.4375
L51.1719 23.4375
Q54.6875 30.8594 54.6875 40.2344
Q55.0781 41.0156 55.0781 60.1562
L63.2812 60.1562
Q63.2812 38.6719 62.8906 37.8906
Q62.8906 29.6875 60.5469 23.4375
L92.9688 23.4375
L92.9688 15.625
L56.6406 15.625
Q46.0938 -0.78125 14.8438 -8.98438
L10.5469 -1.5625
Q35.1562 4.6875 46.0938 15.625
L6.64062 15.625
z

M28.9062 56.6406
Q39.8438 51.5625 49.2188 44.9219
L43.75 39.0625
Q34.7656 45.7031 24.2188 50.3906
z

M19.5312 43.3594
Q30.4688 38.2812 39.4531 31.6406
L33.9844 25.7812
Q25 32.4219 14.8438 37.1094
z

M67.9688 12.8906
Q82.4219 5.07812 94.1406 -1.95312
L89.0625 -8.20312
L62.8906 7.03125
z
" id="WenQuanYiMicroHei-5b9e"/>
      <path d="
M66.7969 64.4531
L92.9688 64.4531
L92.9688 57.0312
L88.6719 57.0312
Q86.3281 29.6875 77.7344 15.625
Q84.7656 6.25 95.7031 -1.5625
L89.8438 -8.98438
Q80.8594 -1.5625 73.0469 8.59375
Q65.2344 -1.95312 53.9062 -9.375
L48.4375 -2.34375
Q60.1562 4.6875 67.9688 16.0156
Q62.5 25.3906 57.8125 37.1094
L54.6875 30.4688
L48.4375 35.1562
Q58.2031 55.8594 62.5 80.8594
L70.3125 78.5156
Q68.75 71.0938 66.7969 64.4531
M80.8594 57.0312
L64.8438 57.0312
Q64.4531 55.0781 62.1094 48.0469
Q66.7969 33.9844 72.6562 23.8281
Q77.7344 34.7656 80.0781 50.3906
L80.0781 50.7812
z

M7.03125 64.0625
L27.3438 64.0625
L27.3438 80.4688
L34.375 80.4688
L34.375 64.0625
L53.125 64.0625
L53.125 57.4219
L34.375 57.4219
L34.375 39.4531
L27.3438 39.4531
L27.3438 51.5625
Q20.7031 42.1875 11.7188 36.3281
L6.64062 42.5781
Q16.4062 47.6562 23.8281 57.4219
L7.03125 57.4219
z

M16.4062 78.9062
Q19.5312 74.2188 21.4844 68.3594
L15.2344 65.2344
Q13.2812 71.0938 10.5469 76.1719
z

M45.3125 78.9062
L51.1719 76.1719
Q47.6562 69.5312 43.75 66.0156
L38.6719 70.7031
Q42.5781 74.2188 45.3125 78.9062
M42.5781 53.9062
Q46.875 49.2188 49.6094 44.1406
L43.75 40.625
Q41.4062 46.0938 37.1094 50.7812
z

M6.64062 31.25
L21.875 31.25
Q23.4375 34.375 24.6094 37.5
L32.0312 36.7188
L29.6875 31.25
L47.2656 31.25
L47.2656 24.6094
Q42.5781 14.4531 35.9375 7.42188
Q42.5781 3.51562 48.0469 0
L43.3594 -7.03125
Q38.2812 -2.73438 30.0781 1.95312
Q21.875 -5.07812 8.20312 -9.375
L5.85938 -2.73438
Q16.0156 0.390625 23.4375 5.46875
Q17.1875 8.98438 9.76562 12.5
Q14.4531 18.75 17.9688 24.6094
L6.64062 24.6094
z

M26.1719 24.6094
Q23.4375 19.5312 20.3125 15.625
L29.6875 10.9375
Q35.5469 17.1875 39.0625 24.6094
z
" id="WenQuanYiMicroHei-6570"/>
      <path d="
M41.0156 81.25
L48.0469 79.2969
Q40.2344 69.1406 32.0312 63.6719
Q50 64.4531 69.1406 66.7969
Q65.625 69.9219 61.7188 73.0469
L67.9688 77.3438
Q77.7344 70.3125 87.1094 60.9375
L81.25 54.6875
Q78.5156 57.8125 75.3906 60.9375
Q47.6562 57.4219 16.7969 56.25
L14.8438 62.8906
Q30.0781 69.1406 41.0156 81.25
M5.46875 50.7812
L37.5 50.7812
L41.4062 56.6406
L48.8281 53.9062
Q48.0469 52.3438 46.875 50.7812
L94.5312 50.7812
L94.5312 43.3594
L69.1406 43.3594
Q82.4219 33.9844 95.7031 28.9062
L91.0156 21.0938
Q75 28.5156 58.9844 43.3594
L41.7969 43.3594
Q30.8594 30.0781 8.20312 24.2188
L4.6875 31.25
Q22.6562 35.5469 30.8594 43.3594
L5.46875 43.3594
z

M58.5938 39.4531
L63.6719 33.5938
Q48.0469 23.8281 23.0469 18.75
L19.1406 25
Q44.9219 30.8594 58.5938 39.4531
M69.1406 28.5156
L74.2188 22.6562
Q53.9062 10.5469 21.4844 4.29688
L17.1875 10.9375
Q50.3906 17.9688 69.1406 28.5156
M80.8594 18.75
L85.5469 13.2812
Q61.3281 -4.29688 16.4062 -9.375
L12.1094 -2.73438
Q58.9844 3.51562 80.8594 18.75" id="WenQuanYiMicroHei-53c2"/>
      <path d="
M66.0156 65.2344
L73.0469 62.5
Q51.5625 41.4062 28.125 29.6875
Q52.7344 31.6406 72.6562 34.375
Q68.75 38.6719 64.4531 42.9688
L71.4844 47.2656
Q83.5938 35.9375 91.0156 22.6562
L83.5938 18.3594
Q80.8594 23.8281 76.9531 28.9062
L55.0781 25.7812
L55.0781 1.95312
Q55.0781 -4.29688 53.125 -6.64062
Q51.1719 -8.98438 45.7031 -8.98438
Q40.2344 -8.98438 35.5469 -7.8125
L33.9844 0
Q39.0625 -1.17188 44.5312 -1.17188
Q46.4844 -1.17188 46.4844 3.51562
L46.4844 25
Q31.6406 23.4375 15.625 22.2656
L13.6719 28.5156
Q28.125 35.5469 41.4062 44.9219
Q29.2969 42.9688 16.7969 41.7969
L15.2344 48.8281
Q28.5156 57.0312 37.5 69.5312
L14.8438 68.75
L10.5469 75.7812
Q60.1562 77.3438 80.4688 80.0781
L86.3281 73.4375
Q70.3125 71.4844 47.6562 69.9219
Q39.0625 57.4219 27.3438 49.2188
Q41.0156 50.3906 51.1719 52.3438
Q58.5938 58.2031 66.0156 65.2344
M29.6875 19.5312
L34.7656 13.2812
Q23.0469 1.17188 8.98438 -6.25
L5.07812 1.17188
Q17.5781 7.03125 29.6875 19.5312
M69.9219 19.5312
Q82.0312 9.375 89.4531 -1.95312
L82.0312 -6.25
Q75 4.6875 62.8906 14.8438
z
" id="WenQuanYiMicroHei-7cfb"/>
      <path d="
M37.1094 77.3438
L37.1094 70.3125
L27.7344 46.875
Q35.9375 35.9375 35.9375 25.3906
Q35.9375 17.5781 33 13.6719
Q30.0781 9.76562 24.2188 9.76562
Q21.875 9.76562 18.75 10.5469
L17.1875 18.3594
Q21.4844 17.1875 24.2188 17.1875
Q26.5625 17.1875 27.7344 19.3281
Q28.9062 21.4844 28.9062 25.3906
Q28.9062 35.5469 20.3125 45.7031
L29.2969 70.3125
L14.8438 70.3125
L14.8438 -8.98438
L7.8125 -8.98438
L7.8125 77.3438
z

M44.5312 75.7812
L86.7188 75.7812
L86.7188 68.3594
L44.5312 68.3594
z

M38.6719 53.5156
L93.3594 53.5156
L93.3594 46.0938
L69.5312 46.0938
L69.5312 0.78125
Q69.5312 -4.6875 66.9844 -7.03125
Q64.4531 -9.375 55.4688 -9.375
Q52.3438 -9.375 49.6094 -8.20312
L48.0469 0
Q51.9531 -1.5625 55.4688 -1.5625
Q58.5938 -1.5625 59.9531 -0.578125
Q61.3281 0.390625 61.3281 2.34375
L61.3281 46.0938
L38.6719 46.0938
z

M82.0312 36.3281
Q90.2344 21.875 95.3125 5.46875
L87.8906 1.17188
Q83.2031 17.5781 75 32.0312
z

M46.875 35.9375
L53.9062 32.4219
Q47.2656 11.7188 39.4531 0.78125
L33.2031 6.25
Q41.4062 19.5312 46.875 35.9375" id="WenQuanYiMicroHei-9645"/>
     </defs>
     <g transform="translate(58.498260625 105.527489915)scale(0.09996 -0.09996)">
      <use xlink:href="#WenQuanYiMicroHei-5b9e"/>
      <use x="100.0" xlink:href="#WenQuanYiMicroHei-9645"/>
      <use x="200.0" xlink:href="#WenQuanYiMicroHei-7684"/>
      <use x="300.0" xlink:href="#WenQuanYiMicroHei-7cfb"/>
      <use x="400.0" xlink:href="#WenQuanYiMicroHei-7edf"/>
      <use x="500.0" xlink:href="#WenQuanYiMicroHei-53c2"/>
      <use x="600.0" xlink:href="#WenQuanYiMicroHei-6570"/>
     </g>
    </g>
    <g id="line2d_35">
     <path d="
M150.368 102.029
L164.362 102.029" style="fill:none;opacity:0.7;stroke:#a60628;stroke-linecap:square;stroke-width:2;"/>
    </g>
    <g id="line2d_36"/>
    <g id="text_17">
     <!-- 最小二乘解H1 -->
     <defs>
      <path d="
M22.2656 81.25
L29.6875 78.9062
Q28.5156 76.1719 26.9531 73.4375
L43.75 73.4375
L43.75 66.7969
Q41.4062 61.7188 39.0625 57.8125
L49.2188 57.8125
L49.2188 -0.78125
Q49.2188 -5.07812 47.2656 -7.21875
Q45.3125 -9.375 41.7969 -9.375
Q38.2812 -9.375 32.4219 -8.59375
L30.8594 -1.17188
Q37.5 -1.95312 39.8438 -1.95312
Q41.7969 -1.95312 41.7969 0.390625
L41.7969 16.0156
L33.9844 16.0156
L33.9844 1.95312
L26.9531 1.95312
L26.9531 16.0156
L19.1406 16.0156
Q18.75 -0.390625 14.0625 -9.375
L6.64062 -6.64062
Q11.7188 3.51562 11.7188 21.875
L11.7188 52.7344
Q10.1562 51.5625 8.59375 50
L4.6875 57.0312
Q16.7969 68.75 22.2656 81.25
M16.4062 57.8125
L30.4688 57.8125
Q33.2031 61.7188 35.5469 66.4062
L22.6562 66.4062
z

M19.1406 40.2344
L26.9531 40.2344
L26.9531 50.7812
L19.1406 50.7812
z

M33.9844 50.7812
L33.9844 40.2344
L41.7969 40.2344
L41.7969 50.7812
z

M19.1406 23.0469
L26.9531 23.0469
L26.9531 33.5938
L19.1406 33.5938
z

M33.9844 33.5938
L33.9844 23.0469
L41.7969 23.0469
L41.7969 33.5938
z

M52.3438 76.5625
L92.9688 76.5625
Q92.9688 55.4688 90.8125 51.3594
Q88.6719 47.2656 82.4219 47.2656
Q78.5156 47.2656 72.6562 48.4375
L71.0938 55.4688
Q77.3438 54.2969 81.6406 54.2969
Q83.5938 54.2969 84.1719 56.25
Q84.7656 58.2031 85.1562 69.9219
L70.7031 69.9219
Q68.3594 52.3438 55.8594 45.3125
L51.1719 51.5625
Q61.3281 57.0312 63.6719 69.9219
L52.3438 69.9219
z

M60.9375 45.7031
L67.1875 43.75
Q66.0156 39.4531 64.4531 35.1562
L71.875 35.1562
L71.875 45.3125
L79.2969 45.3125
L79.2969 35.1562
L92.9688 35.1562
L92.9688 28.125
L79.2969 28.125
L79.2969 17.1875
L94.9219 17.1875
L94.9219 10.1562
L79.2969 10.1562
L79.2969 -8.98438
L71.875 -8.98438
L71.875 10.1562
L52.7344 10.1562
L52.7344 17.1875
L71.875 17.1875
L71.875 28.125
L61.7188 28.125
Q59.375 23.0469 56.6406 19.5312
L50.7812 23.8281
Q57.8125 33.9844 60.9375 45.7031" id="WenQuanYiMicroHei-89e3"/>
      <path d="
M16.7969 78.125
L83.2031 78.125
L83.2031 49.2188
L16.7969 49.2188
z

M24.6094 66.7969
L75.7812 66.7969
L75.7812 71.875
L24.6094 71.875
z

M24.6094 55.8594
L75.7812 55.8594
L75.7812 60.9375
L24.6094 60.9375
z

M5.07812 43.75
L94.9219 43.75
L94.9219 37.5
L47.6562 37.5
L47.6562 8.59375
L52.7344 9.375
L53.9062 2.34375
L47.6562 1.5625
L47.6562 -8.98438
L40.2344 -8.98438
L40.2344 0.390625
Q24.6094 -1.95312 6.25 -3.51562
L5.07812 3.90625
L12.8906 4.6875
L12.8906 37.5
L5.07812 37.5
z

M20.7031 30.8594
L40.2344 30.8594
L40.2344 37.5
L20.7031 37.5
z

M20.7031 18.3594
L40.2344 18.3594
L40.2344 25.3906
L20.7031 25.3906
z

M20.7031 5.07812
L40.2344 7.42188
L40.2344 12.8906
L20.7031 12.8906
z

M58.5938 23.4375
Q63.6719 15.2344 70.7031 9.76562
Q76.9531 16.7969 80.0781 25
L54.2969 25
L54.2969 32.0312
L88.6719 32.0312
L88.6719 25
Q83.9844 13.2812 76.9531 5.46875
Q85.1562 1.17188 94.9219 -1.5625
L91.4062 -8.98438
Q80.4688 -5.85938 71.4844 0
Q64.4531 -5.46875 54.6875 -8.98438
L51.9531 -2.34375
Q59.375 0.390625 65.2344 4.6875
Q59.375 10.1562 54.6875 17.5781
z
" id="WenQuanYiMicroHei-6700"/>
      <path d="
M47.2656 80.8594
L55.0781 80.8594
L55.0781 0.78125
Q55.0781 -4.6875 53.125 -6.82812
Q51.1719 -8.98438 44.5312 -8.98438
Q35.9375 -8.98438 28.5156 -7.42188
L26.9531 0.390625
Q35.9375 -1.5625 44.5312 -1.5625
Q47.2656 -1.5625 47.2656 1.95312
z

M24.6094 61.7188
L32.0312 58.9844
Q25 29.6875 14.0625 8.98438
L6.25 14.0625
Q18.3594 35.1562 24.6094 61.7188
M75.7812 61.7188
Q87.1094 39.4531 94.9219 13.2812
L86.3281 9.375
Q79.2969 36.7188 68.3594 58.5938
z
" id="WenQuanYiMicroHei-5c0f"/>
      <path d="
M14.0625 69.5312
L85.5469 69.5312
L85.5469 62.1094
L14.0625 62.1094
z

M5.46875 7.42188
L94.1406 7.42188
L94.1406 0
L5.46875 0
z
" id="WenQuanYiMicroHei-4e8c"/>
      <path d="
M60.4062 0
L51.3125 0
L51.3125 33.2969
L18.7969 33.2969
L18.7969 0
L9.71875 0
L9.71875 71.3906
L18.7969 71.3906
L18.7969 41.3125
L51.3125 41.3125
L51.3125 71.3906
L60.4062 71.3906
z
" id="WenQuanYiMicroHei-48"/>
      <path d="
M83.2031 80.8594
L86.7188 74.2188
Q72.2656 72.2656 54.2969 71.0938
L54.2969 62.8906
L93.3594 62.8906
L93.3594 55.8594
L54.2969 55.8594
L54.2969 28.125
Q71.0938 10.1562 94.9219 3.125
L91.0156 -4.6875
Q68.75 3.51562 54.2969 19.5312
L54.2969 -8.98438
L46.4844 -8.98438
L46.4844 18.75
Q30.0781 2.73438 8.98438 -4.6875
L4.6875 1.95312
Q29.6875 10.5469 46.4844 28.125
L46.4844 55.8594
L6.64062 55.8594
L6.64062 62.8906
L46.4844 62.8906
L46.4844 70.3125
Q32.4219 69.5312 16.7969 69.1406
L14.4531 76.1719
Q48.8281 76.1719 83.2031 80.8594
M9.375 47.2656
L31.25 47.2656
L31.25 51.9531
L39.0625 51.9531
L39.0625 24.2188
L31.25 24.2188
L31.25 27.7344
Q21.4844 24.2188 10.1562 21.4844
L7.42188 28.9062
Q20.3125 31.6406 31.25 34.7656
L31.25 40.2344
L9.375 40.2344
z

M62.1094 51.9531
L69.9219 51.9531
L69.9219 42.5781
Q79.2969 46.0938 87.5 50.3906
L92.1875 44.1406
Q82.0312 39.0625 69.9219 35.5469
L69.9219 32.8125
Q69.9219 31.25 70.8906 30.4688
Q71.875 29.6875 75.3906 29.6875
Q82.8125 29.6875 84.375 30.8594
Q85.9375 32.0312 86.7188 37.1094
L94.1406 34.7656
Q92.9688 26.5625 90.4219 24.6094
Q87.8906 22.6562 75.3906 22.6562
Q66.4062 22.6562 64.25 24.2188
Q62.1094 25.7812 62.1094 30.4688
z
" id="WenQuanYiMicroHei-4e58"/>
     </defs>
     <g transform="translate(175.357748125 105.527489915)scale(0.09996 -0.09996)">
      <use xlink:href="#WenQuanYiMicroHei-6700"/>
      <use x="100.0" xlink:href="#WenQuanYiMicroHei-5c0f"/>
      <use x="200.0" xlink:href="#WenQuanYiMicroHei-4e8c"/>
      <use x="300.0" xlink:href="#WenQuanYiMicroHei-4e58"/>
      <use x="400.0" xlink:href="#WenQuanYiMicroHei-89e3"/>
      <use x="500.0" xlink:href="#WenQuanYiMicroHei-48"/>
      <use x="570.1171875" xlink:href="#WenQuanYiMicroHei-31"/>
     </g>
    </g>
   </g>
  </g>
  <g id="axes_2">
   <g id="patch_8">
    <path d="
M21.5131 242.599
L356.313 242.599
L356.313 137.872
L21.5131 137.872
z
" style="fill:#ffffff;"/>
   </g>
   <g id="line2d_37">
    <path clip-path="url(#p9231dfd4c7)" d="
M21.5131 161.819
L24.3031 168.921
L27.0931 181.862
L29.8831 192.433
L32.6731 172.308
L35.4631 176.868
L38.2531 169.362
L41.0431 173.252
L43.8331 167.052
L46.6231 190.762
L49.4131 163.045
L52.2031 179.798
L54.9931 151.707
L57.7831 193.066
L60.5731 156.783
L63.3631 179.794
L66.1531 192.501
L68.9431 189.994
L71.7331 187.547
L74.5231 176.409
L77.3131 174.932
L80.1031 191.338
L82.8931 183.119
L85.6831 150.704
L88.4731 156.909
L91.2631 176.227
L94.0531 182.186
L96.8431 180.959
L99.6331 173.576
L102.423 198.057
L105.213 186.605
L108.003 207.718
L110.793 176.782
L113.583 173.072
L116.373 189.984
L119.163 159.206
L121.953 201.093
L124.743 204.663
L127.533 179.397
L130.323 167.089
L133.113 157.561
L135.903 189.62
L138.693 166.616
L141.483 183.331
L144.273 185.337
L147.063 169.534
L149.853 172.995
L152.643 206.339
L155.433 160.664
L158.223 162.107
L161.013 192.114
L163.803 176.833
L166.593 175.363
L169.383 178.855
L172.173 190.988
L174.963 192.803
L177.753 183.137
L180.543 165.209
L183.333 174.622
L186.123 188.299
L188.913 171.209
L191.703 225.372
L194.493 165.568
L197.283 208.783
L200.073 188.177
L202.863 199.506
L205.653 202.124
L208.443 165.387
L211.233 189.752
L214.023 177.571
L216.813 183.457
L219.603 175.618
L222.393 181.605
L225.183 201.95
L227.973 167.849
L230.763 190.142
L233.553 206.043
L236.343 189.16
L239.133 160.302
L241.923 170.034
L244.713 187.971
L247.503 187.98
L250.293 187.567
L253.083 151.684
L255.873 177.04
L258.663 176.321
L261.453 167.341
L264.243 179.182
L267.033 186.63
L269.823 185.692
L272.613 183.826
L275.403 183.312
L278.193 171.869
L280.983 181.977
L283.773 171.794
L286.563 183.962
L289.353 181.578
L292.143 212.65
L294.933 169.045
L297.723 177.571" style="fill:none;stroke:#348abd;stroke-linecap:square;stroke-width:2;"/>
   </g>
   <g id="line2d_38">
    <path clip-path="url(#p9231dfd4c7)" d="
M21.5131 168.276
L24.3031 165.902
L27.0931 187.383
L29.8831 197.792
L32.6731 164.5
L35.4631 172.585
L38.2531 167.384
L41.0431 169.361
L43.8331 162.161
L46.6231 195.509
L49.4131 161.121
L52.2031 178.979
L54.9931 157.01
L57.7831 197.607
L60.5731 154.483
L63.3631 181.76
L66.1531 197.768
L68.9431 190.739
L71.7331 183.322
L74.5231 171.998
L77.3131 178.584
L80.1031 192.709
L82.8931 177.786
L85.6831 144.509
L88.4731 160.358
L91.2631 186.69
L94.0531 181.461
L96.8431 186.983
L99.6331 174.13
L102.423 193.441
L105.213 192.867
L108.003 202.669
L110.793 174.537
L113.583 167.251
L116.373 184.028
L119.163 166.259
L121.953 203.523
L124.743 196.399
L127.533 177.658
L130.323 165.209
L133.113 162.613
L135.903 191.77
L138.693 156.695
L141.483 180.707
L144.273 188.595
L147.063 170.705
L149.853 167.519
L152.643 201.742
L155.433 163.438
L158.223 162.016
L161.013 195.06
L163.803 178.954
L166.593 174.967
L169.383 188.97
L172.173 200.439
L174.963 182.909
L177.753 181.98
L180.543 159.668
L183.333 177.895
L186.123 201.067
L188.913 165.96
L191.703 234.205
L194.493 162.327
L197.283 218.82
L200.073 186.728
L202.863 190.453
L205.653 210.246
L208.443 163.297
L211.233 175.4
L214.023 177.268
L216.813 186.448
L219.603 179.773
L222.393 181.735
L225.183 194.418
L227.973 172.332
L230.763 189.804
L233.553 202.695
L236.343 192.019
L239.133 158.366
L241.923 170.311" style="fill:none;opacity:0.7;stroke:#a60628;stroke-linecap:square;stroke-width:2;"/>
   </g>
   <g id="patch_9">
    <path d="
M21.5131 137.872
L356.313 137.872" style="fill:none;stroke:#000000;stroke-linecap:square;stroke-linejoin:miter;"/>
   </g>
   <g id="patch_10">
    <path d="
M356.313 242.599
L356.313 137.872" style="fill:none;stroke:#000000;stroke-linecap:square;stroke-linejoin:miter;"/>
   </g>
   <g id="patch_11">
    <path d="
M21.5131 242.599
L356.313 242.599" style="fill:none;stroke:#000000;stroke-linecap:square;stroke-linejoin:miter;"/>
   </g>
   <g id="patch_12">
    <path d="
M21.5131 242.599
L21.5131 137.872" style="fill:none;stroke:#000000;stroke-linecap:square;stroke-linejoin:miter;"/>
   </g>
   <g id="matplotlib.axis_3">
    <g id="xtick_8">
     <g id="line2d_39">
      <g>
       <use style="stroke:#000000;stroke-width:0.5;" x="21.513060625" xlink:href="#m93b0483c22" y="242.598780937"/>
      </g>
     </g>
     <g id="line2d_40">
      <g>
       <use style="stroke:#000000;stroke-width:0.5;" x="21.513060625" xlink:href="#m741efc42ff" y="137.87150821"/>
      </g>
     </g>
     <g id="text_18">
      <!-- 0 -->
      <g transform="translate(19.2335040625 254.194179062)scale(0.09996 -0.09996)">
       <use xlink:href="#WenQuanYiMicroHei-30"/>
      </g>
     </g>
    </g>
    <g id="xtick_9">
     <g id="line2d_41">
      <g>
       <use style="stroke:#000000;stroke-width:0.5;" x="77.313060625" xlink:href="#m93b0483c22" y="242.598780937"/>
      </g>
     </g>
     <g id="line2d_42">
      <g>
       <use style="stroke:#000000;stroke-width:0.5;" x="77.313060625" xlink:href="#m741efc42ff" y="137.87150821"/>
      </g>
     </g>
     <g id="text_19">
      <!-- 20 -->
      <g transform="translate(72.27601375 254.194179062)scale(0.09996 -0.09996)">
       <use xlink:href="#WenQuanYiMicroHei-32"/>
       <use x="55.078125" xlink:href="#WenQuanYiMicroHei-30"/>
      </g>
     </g>
    </g>
    <g id="xtick_10">
     <g id="line2d_43">
      <g>
       <use style="stroke:#000000;stroke-width:0.5;" x="133.113060625" xlink:href="#m93b0483c22" y="242.598780937"/>
      </g>
     </g>
     <g id="line2d_44">
      <g>
       <use style="stroke:#000000;stroke-width:0.5;" x="133.113060625" xlink:href="#m741efc42ff" y="137.87150821"/>
      </g>
     </g>
     <g id="text_20">
      <!-- 40 -->
      <g transform="translate(127.89796 254.194179062)scale(0.09996 -0.09996)">
       <use xlink:href="#WenQuanYiMicroHei-34"/>
       <use x="55.078125" xlink:href="#WenQuanYiMicroHei-30"/>
      </g>
     </g>
    </g>
    <g id="xtick_11">
     <g id="line2d_45">
      <g>
       <use style="stroke:#000000;stroke-width:0.5;" x="188.913060625" xlink:href="#m93b0483c22" y="242.598780937"/>
      </g>
     </g>
     <g id="line2d_46">
      <g>
       <use style="stroke:#000000;stroke-width:0.5;" x="188.913060625" xlink:href="#m741efc42ff" y="137.87150821"/>
      </g>
     </g>
     <g id="text_21">
      <!-- 60 -->
      <g transform="translate(183.917403438 254.194179062)scale(0.09996 -0.09996)">
       <use xlink:href="#WenQuanYiMicroHei-36"/>
       <use x="55.078125" xlink:href="#WenQuanYiMicroHei-30"/>
      </g>
     </g>
    </g>
    <g id="xtick_12">
     <g id="line2d_47">
      <g>
       <use style="stroke:#000000;stroke-width:0.5;" x="244.713060625" xlink:href="#m93b0483c22" y="242.598780937"/>
      </g>
     </g>
     <g id="line2d_48">
      <g>
       <use style="stroke:#000000;stroke-width:0.5;" x="244.713060625" xlink:href="#m741efc42ff" y="137.87150821"/>
      </g>
     </g>
     <g id="text_22">
      <!-- 80 -->
      <g transform="translate(239.700222812 254.194179062)scale(0.09996 -0.09996)">
       <use xlink:href="#WenQuanYiMicroHei-38"/>
       <use x="55.078125" xlink:href="#WenQuanYiMicroHei-30"/>
      </g>
     </g>
    </g>
    <g id="xtick_13">
     <g id="line2d_49">
      <g>
       <use style="stroke:#000000;stroke-width:0.5;" x="300.513060625" xlink:href="#m93b0483c22" y="242.598780937"/>
      </g>
     </g>
     <g id="line2d_50">
      <g>
       <use style="stroke:#000000;stroke-width:0.5;" x="300.513060625" xlink:href="#m741efc42ff" y="137.87150821"/>
      </g>
     </g>
     <g id="text_23">
      <!-- 100 -->
      <g transform="translate(292.923129062 254.194179062)scale(0.09996 -0.09996)">
       <use xlink:href="#WenQuanYiMicroHei-31"/>
       <use x="55.078125" xlink:href="#WenQuanYiMicroHei-30"/>
       <use x="110.15625" xlink:href="#WenQuanYiMicroHei-30"/>
      </g>
     </g>
    </g>
    <g id="xtick_14">
     <g id="line2d_51">
      <g>
       <use style="stroke:#000000;stroke-width:0.5;" x="356.313060625" xlink:href="#m93b0483c22" y="242.598780937"/>
      </g>
     </g>
     <g id="line2d_52">
      <g>
       <use style="stroke:#000000;stroke-width:0.5;" x="356.313060625" xlink:href="#m741efc42ff" y="137.87150821"/>
      </g>
     </g>
     <g id="text_24">
      <!-- 120 -->
      <g transform="translate(348.723129062 254.194179062)scale(0.09996 -0.09996)">
       <use xlink:href="#WenQuanYiMicroHei-31"/>
       <use x="55.078125" xlink:href="#WenQuanYiMicroHei-32"/>
       <use x="110.15625" xlink:href="#WenQuanYiMicroHei-30"/>
      </g>
     </g>
    </g>
   </g>
   <g id="matplotlib.axis_4">
    <g id="ytick_9">
     <g id="line2d_53">
      <g>
       <use style="stroke:#000000;stroke-width:0.5;" x="21.513060625" xlink:href="#m728421d6d4" y="242.598780937"/>
      </g>
     </g>
     <g id="line2d_54">
      <g>
       <use style="stroke:#000000;stroke-width:0.5;" x="356.313060625" xlink:href="#mcb0005524f" y="242.598780937"/>
      </g>
     </g>
     <g id="text_25">
      <!-- −4 -->
      <g transform="translate(7.2 245.195398125)scale(0.09996 -0.09996)">
       <use xlink:href="#WenQuanYiMicroHei-2212"/>
       <use x="55.078125" xlink:href="#WenQuanYiMicroHei-34"/>
      </g>
     </g>
    </g>
    <g id="ytick_10">
     <g id="line2d_55">
      <g>
       <use style="stroke:#000000;stroke-width:0.5;" x="21.513060625" xlink:href="#m728421d6d4" y="227.637741976"/>
      </g>
     </g>
     <g id="line2d_56">
      <g>
       <use style="stroke:#000000;stroke-width:0.5;" x="356.313060625" xlink:href="#mcb0005524f" y="227.637741976"/>
      </g>
     </g>
     <g id="text_26">
      <!-- −3 -->
      <g transform="translate(7.595154375 230.234359164)scale(0.09996 -0.09996)">
       <use xlink:href="#WenQuanYiMicroHei-2212"/>
       <use x="55.078125" xlink:href="#WenQuanYiMicroHei-33"/>
      </g>
     </g>
    </g>
    <g id="ytick_11">
     <g id="line2d_57">
      <g>
       <use style="stroke:#000000;stroke-width:0.5;" x="21.513060625" xlink:href="#m728421d6d4" y="212.676703015"/>
      </g>
     </g>
     <g id="line2d_58">
      <g>
       <use style="stroke:#000000;stroke-width:0.5;" x="356.313060625" xlink:href="#mcb0005524f" y="212.676703015"/>
      </g>
     </g>
     <g id="text_27">
      <!-- −2 -->
      <g transform="translate(7.585783125 215.273320203)scale(0.09996 -0.09996)">
       <use xlink:href="#WenQuanYiMicroHei-2212"/>
       <use x="55.078125" xlink:href="#WenQuanYiMicroHei-32"/>
      </g>
     </g>
    </g>
    <g id="ytick_12">
     <g id="line2d_59">
      <g>
       <use style="stroke:#000000;stroke-width:0.5;" x="21.513060625" xlink:href="#m728421d6d4" y="197.715664054"/>
      </g>
     </g>
     <g id="line2d_60">
      <g>
       <use style="stroke:#000000;stroke-width:0.5;" x="356.313060625" xlink:href="#mcb0005524f" y="197.715664054"/>
      </g>
     </g>
     <g id="text_28">
      <!-- −1 -->
      <g transform="translate(9.035203125 200.312281242)scale(0.09996 -0.09996)">
       <use xlink:href="#WenQuanYiMicroHei-2212"/>
       <use x="55.078125" xlink:href="#WenQuanYiMicroHei-31"/>
      </g>
     </g>
    </g>
    <g id="ytick_13">
     <g id="line2d_61">
      <g>
       <use style="stroke:#000000;stroke-width:0.5;" x="21.513060625" xlink:href="#m728421d6d4" y="182.754625093"/>
      </g>
     </g>
     <g id="line2d_62">
      <g>
       <use style="stroke:#000000;stroke-width:0.5;" x="356.313060625" xlink:href="#mcb0005524f" y="182.754625093"/>
      </g>
     </g>
     <g id="text_29">
      <!-- 0 -->
      <g transform="translate(12.9539475 185.351242281)scale(0.09996 -0.09996)">
       <use xlink:href="#WenQuanYiMicroHei-30"/>
      </g>
     </g>
    </g>
    <g id="ytick_14">
     <g id="line2d_63">
      <g>
       <use style="stroke:#000000;stroke-width:0.5;" x="21.513060625" xlink:href="#m728421d6d4" y="167.793586132"/>
      </g>
     </g>
     <g id="line2d_64">
      <g>
       <use style="stroke:#000000;stroke-width:0.5;" x="356.313060625" xlink:href="#mcb0005524f" y="167.793586132"/>
      </g>
     </g>
     <g id="text_30">
      <!-- 1 -->
      <g transform="translate(14.910976875 170.39020332)scale(0.09996 -0.09996)">
       <use xlink:href="#WenQuanYiMicroHei-31"/>
      </g>
     </g>
    </g>
    <g id="ytick_15">
     <g id="line2d_65">
      <g>
       <use style="stroke:#000000;stroke-width:0.5;" x="21.513060625" xlink:href="#m728421d6d4" y="152.832547171"/>
      </g>
     </g>
     <g id="line2d_66">
      <g>
       <use style="stroke:#000000;stroke-width:0.5;" x="356.313060625" xlink:href="#mcb0005524f" y="152.832547171"/>
      </g>
     </g>
     <g id="text_31">
      <!-- 2 -->
      <g transform="translate(13.061716875 155.429164359)scale(0.09996 -0.09996)">
       <use xlink:href="#WenQuanYiMicroHei-32"/>
      </g>
     </g>
    </g>
    <g id="ytick_16">
     <g id="line2d_67">
      <g>
       <use style="stroke:#000000;stroke-width:0.5;" x="21.513060625" xlink:href="#m728421d6d4" y="137.87150821"/>
      </g>
     </g>
     <g id="line2d_68">
      <g>
       <use style="stroke:#000000;stroke-width:0.5;" x="356.313060625" xlink:href="#mcb0005524f" y="137.87150821"/>
      </g>
     </g>
     <g id="text_32">
      <!-- 3 -->
      <g transform="translate(13.002365625 140.468125398)scale(0.09996 -0.09996)">
       <use xlink:href="#WenQuanYiMicroHei-33"/>
      </g>
     </g>
    </g>
   </g>
   <g id="legend_2">
    <g id="patch_13">
     <path d="
M26.5111 237.601
L240.758 237.601
L240.758 219.606
L26.5111 219.606
z
" style="fill:#ffffff;stroke:#000000;stroke-linejoin:miter;"/>
    </g>
    <g id="line2d_69">
     <path d="
M33.5083 227.702
L47.5027 227.702" style="fill:none;stroke:#348abd;stroke-linecap:square;stroke-width:2;"/>
    </g>
    <g id="line2d_70"/>
    <g id="text_33">
     <!-- 实际的系统参数 -->
     <g transform="translate(58.498260625 231.200217187)scale(0.09996 -0.09996)">
      <use xlink:href="#WenQuanYiMicroHei-5b9e"/>
      <use x="100.0" xlink:href="#WenQuanYiMicroHei-9645"/>
      <use x="200.0" xlink:href="#WenQuanYiMicroHei-7684"/>
      <use x="300.0" xlink:href="#WenQuanYiMicroHei-7cfb"/>
      <use x="400.0" xlink:href="#WenQuanYiMicroHei-7edf"/>
      <use x="500.0" xlink:href="#WenQuanYiMicroHei-53c2"/>
      <use x="600.0" xlink:href="#WenQuanYiMicroHei-6570"/>
     </g>
    </g>
    <g id="line2d_71">
     <path d="
M150.368 227.702
L164.362 227.702" style="fill:none;opacity:0.7;stroke:#a60628;stroke-linecap:square;stroke-width:2;"/>
    </g>
    <g id="line2d_72"/>
    <g id="text_34">
     <!-- 最小二乘解H2 -->
     <g transform="translate(175.357748125 231.200217187)scale(0.09996 -0.09996)">
      <use xlink:href="#WenQuanYiMicroHei-6700"/>
      <use x="100.0" xlink:href="#WenQuanYiMicroHei-5c0f"/>
      <use x="200.0" xlink:href="#WenQuanYiMicroHei-4e8c"/>
      <use x="300.0" xlink:href="#WenQuanYiMicroHei-4e58"/>
      <use x="400.0" xlink:href="#WenQuanYiMicroHei-89e3"/>
      <use x="500.0" xlink:href="#WenQuanYiMicroHei-48"/>
      <use x="570.1171875" xlink:href="#WenQuanYiMicroHei-32"/>
     </g>
    </g>
   </g>
  </g>
 </g>
 <defs>
  <clipPath id="p78119f6446">
   <rect height="104.727272727" width="334.8" x="21.513060625" y="12.1987809375"/>
  </clipPath>
  <clipPath id="p9231dfd4c7">
   <rect height="104.727272727" width="334.8" x="21.513060625" y="137.87150821"/>
  </clipPath>
 </defs>
</svg>
