<?xml version="1.0" encoding="utf-8" standalone="no"?>
<!DOCTYPE svg PUBLIC "-//W3C//DTD SVG 1.1//EN"
  "http://www.w3.org/Graphics/SVG/1.1/DTD/svg11.dtd">
<!-- Created with matplotlib (http://matplotlib.org/) -->
<svg height="206pt" version="1.1" viewBox="0 0 372 206" width="372pt" xmlns="http://www.w3.org/2000/svg" xmlns:xlink="http://www.w3.org/1999/xlink">
 <defs>
  <style type="text/css">
*{stroke-linecap:butt;stroke-linejoin:round;}
  </style>
 </defs>
 <g id="figure_1">
  <g id="patch_1">
   <path d="
M0 206.196
L372.331 206.196
L372.331 0
L0 0
z
" style="fill:#ffffff;"/>
  </g>
  <g id="axes_1">
   <g id="patch_2">
    <path d="
M23.9543 184.999
L358.754 184.999
L358.754 12.1988
L23.9543 12.1988
z
" style="fill:#ffffff;"/>
   </g>
   <g id="LineCollection_1">
    <defs>
     <path d="
M90.9572 -39.4479
L90.3976 -41.1844
L90.0214 -42.9209
L89.8045 -44.6575
L89.727 -46.394
L89.7719 -48.1305
L89.9251 -49.867
L90.1744 -51.6035
L90.5094 -53.34
L90.9214 -55.0765
L91.4024 -56.813
L91.5906 -57.4017
L91.9702 -58.5496
L92.6091 -60.2861
L93.3001 -62.0226
L94.0383 -63.7591
L94.8194 -65.4956
L94.9725 -65.8119
L95.681 -67.2321
L96.5872 -68.9686
L97.525 -70.7051
L98.3543 -72.1883
L98.5001 -72.4417
L99.5513 -74.1782
L100.625 -75.9147
L101.719 -77.6512
L101.736 -77.6772
L102.894 -79.3877
L104.085 -81.1242
L105.118 -82.6072
L105.299 -82.8607
L106.583 -84.5972
L107.876 -86.3338
L108.5 -87.1551
L109.214 -88.0703
L110.59 -89.8068
L111.882 -91.4283
L111.976 -91.5433
L113.433 -93.2798
L114.89 -95.0163
L115.263 -95.4536
L116.403 -96.7528
L117.933 -98.4894
L118.645 -99.2892
L119.501 -100.226
L121.1 -101.962
L122.027 -102.963
L122.727 -103.699
L124.392 -105.435
L125.409 -106.493
L126.079 -107.172
L127.807 -108.908
L128.791 -109.895
L129.559 -110.645
L131.345 -112.381
L132.172 -113.182
L133.165 -114.118
L135.007 -115.854
L135.554 -116.366
L136.898 -117.591
L138.793 -119.328
L138.936 -119.457
L140.757 -121.064
L142.318 -122.451
L142.722 -122.801
L144.742 -124.537
L145.7 -125.362
L146.788 -126.274
L148.853 -128.01
L149.082 -128.201
L150.983 -129.747
L152.463 -130.957
L153.124 -131.483
L155.308 -133.22
L155.845 -133.646
L157.541 -134.956
L159.227 -136.266
L159.791 -136.693
L162.09 -138.429
L162.609 -138.82
L164.442 -140.166
L165.991 -141.309
L166.818 -141.902
L169.228 -143.639
L169.372 -143.742
L171.715 -145.375
L172.754 -146.104
L174.235 -147.112
L176.136 -148.413
L176.791 -148.848
L179.394 -150.585
L179.518 -150.667
L182.08 -152.321
L182.9 -152.854
L184.813 -154.058
L186.282 -154.987
L187.599 -155.794
L189.663 -157.067
L190.442 -157.531
L193.045 -159.091
L193.349 -159.267
L196.335 -161.004
L196.427 -161.058
L199.416 -162.74
L199.809 -162.963
L202.581 -164.477
L203.191 -164.812
L205.84 -166.213
L206.572 -166.603
L209.204 -167.95
L209.954 -168.336
L212.685 -169.686
L213.336 -170.01
L216.299 -171.423
L216.718 -171.624
L220.064 -173.159
L220.1 -173.176
L223.482 -174.657
L224.057 -174.896
L226.863 -176.071
L228.28 -176.632
L230.245 -177.417
L232.769 -178.369
L233.627 -178.694
L237.009 -179.894
L237.657 -180.105
L240.391 -181.005
L243.128 -181.842
L243.772 -182.04
L247.154 -182.973
L249.592 -183.578
L250.536 -183.815
L253.918 -184.538
L257.3 -185.151
L258.484 -185.315
L260.682 -185.621
L264.063 -185.936
L267.445 -186.077
L270.827 -186.007
L274.209 -185.683
L276.223 -185.315
L277.591 -185.027
L280.972 -183.918
L281.716 -183.578
L284.354 -182.133
L284.764 -181.842
L286.792 -180.105
L287.736 -179.087
L288.284 -178.369
L289.343 -176.632
L290.138 -174.896
L290.708 -173.159
L291.086 -171.423
L291.118 -171.168
L291.282 -169.686
L291.344 -167.95
L291.291 -166.213
L291.133 -164.477
L291.118 -164.374
L290.866 -162.74
L290.51 -161.004
L290.076 -159.267
L289.573 -157.531
L289.007 -155.794
L288.384 -154.058
L287.736 -152.392
L287.708 -152.321
L286.94 -150.585
L286.131 -148.848
L285.283 -147.112
L284.4 -145.375
L284.354 -145.291
L283.433 -143.639
L282.435 -141.902
L281.412 -140.166
L280.972 -139.449
L280.33 -138.429
L279.202 -136.693
L278.057 -134.956
L277.591 -134.27
L276.857 -133.22
L275.617 -131.483
L274.367 -129.747
L274.209 -129.534
L273.045 -128.01
L271.709 -126.274
L270.827 -125.143
L270.342 -124.537
L268.924 -122.801
L267.504 -121.064
L267.445 -120.994
L266.011 -119.328
L264.517 -117.591
L264.063 -117.073
L262.97 -115.854
L261.405 -114.118
L260.682 -113.323
L259.802 -112.381
L258.17 -110.645
L257.3 -109.724
L256.508 -108.908
L254.811 -107.172
L253.918 -106.261
L253.086 -105.435
L251.329 -103.699
L250.536 -102.919
L249.538 -101.962
L247.724 -100.226
L247.154 -99.6846
L245.863 -98.4894
L243.995 -96.7528
L243.772 -96.5479
L242.063 -95.0163
L240.391 -93.5081
L240.131 -93.2798
L238.136 -91.5433
L237.009 -90.5587
L236.125 -89.8068
L234.084 -88.0703
L233.627 -87.6835
L231.99 -86.3338
L230.245 -84.8864
L229.887 -84.5972
L227.726 -82.8607
L226.863 -82.1666
L225.532 -81.1242
L223.482 -79.5078
L223.325 -79.3877
L221.046 -77.6512
L220.1 -76.9274
L218.738 -75.9147
L216.718 -74.4021
L216.41 -74.1782
L214.017 -72.4417
L213.336 -71.9467
L211.579 -70.7051
L209.954 -69.5503
L209.111 -68.9686
L206.609 -67.2321
L206.572 -67.2069
L204.021 -65.4956
L203.191 -64.935
L201.394 -63.7591
L199.809 -62.7155
L198.723 -62.0226
L196.427 -60.5494
L196.003 -60.2861
L193.218 -58.5496
L193.045 -58.4415
L190.349 -56.813
L189.663 -56.3962
L187.417 -55.0765
L186.282 -54.4054
L184.415 -53.34
L182.9 -52.4702
L181.335 -51.6035
L179.518 -50.5915
L178.168 -49.867
L176.136 -48.7704
L174.903 -48.1305
L172.754 -47.0079
L171.53 -46.394
L169.372 -45.3051
L168.034 -44.6575
L165.991 -43.6631
L164.397 -42.9209
L162.609 -42.0831
L160.6 -41.1844
L159.227 -40.566
L156.62 -39.4479
L155.845 -39.1133
L152.463 -37.7265
L152.424 -37.7114
L149.082 -36.4218
L147.851 -35.9749
L145.7 -35.1879
L142.932 -34.2384
L142.318 -34.0263
L138.936 -32.9559
L137.368 -32.5019
L135.554 -31.9727
L132.172 -31.0829
L130.792 -30.7653
L128.791 -30.3016
L125.409 -29.6346
L122.027 -29.086
L121.53 -29.0288
L118.645 -28.6941
L115.263 -28.4649
L111.882 -28.4264
L108.5 -28.6178
L105.529 -29.0288
L105.118 -29.094
L101.736 -29.9734
L99.6978 -30.7653
L98.3543 -31.3851
L96.5405 -32.5019
L94.9725 -33.6897
L94.3935 -34.2384
L92.8951 -35.9749
L91.7458 -37.7114
L91.5906 -38.0107
L90.9572 -39.4479" id="C0_0_94f37b6d51"/>
    </defs>
    <g clip-path="url(#pf8ec484c33)">
     <use style="fill:none;stroke:#000080;stroke-width:2.0;" x="0.0" xlink:href="#C0_0_94f37b6d51" y="206.196342812"/>
    </g>
   </g>
   <g id="line2d_1">
    <defs>
     <path d="
M0 3
C0.795609 3 1.55874 2.6839 2.12132 2.12132
C2.6839 1.55874 3 0.795609 3 0
C3 -0.795609 2.6839 -1.55874 2.12132 -2.12132
C1.55874 -2.6839 0.795609 -3 0 -3
C-0.795609 -3 -1.55874 -2.6839 -2.12132 -2.12132
C-2.6839 -1.55874 -3 -0.795609 -3 0
C-3 0.795609 -2.6839 1.55874 -2.12132 2.12132
C-1.55874 2.6839 -0.795609 3 0 3
z
" id="md061eea0e3" style="stroke:#000000;stroke-width:0.5;"/>
    </defs>
    <g clip-path="url(#pf8ec484c33)">
     <use style="fill:#ff0000;opacity:0.5;stroke:#000000;stroke-width:0.5;" x="78.3956167279" xlink:href="#md061eea0e3" y="166.794326177"/>
     <use style="fill:#ff0000;opacity:0.5;stroke:#000000;stroke-width:0.5;" x="278.620909534" xlink:href="#md061eea0e3" y="56.3517153335"/>
     <use style="fill:#ff0000;opacity:0.5;stroke:#000000;stroke-width:0.5;" x="243.567274178" xlink:href="#md061eea0e3" y="13.2732120692"/>
     <use style="fill:#ff0000;opacity:0.5;stroke:#000000;stroke-width:0.5;" x="175.324288919" xlink:href="#md061eea0e3" y="65.0339683977"/>
     <use style="fill:#ff0000;opacity:0.5;stroke:#000000;stroke-width:0.5;" x="183.0042993" xlink:href="#md061eea0e3" y="153.495726438"/>
     <use style="fill:#ff0000;opacity:0.5;stroke:#000000;stroke-width:0.5;" x="165.386773914" xlink:href="#md061eea0e3" y="154.913815085"/>
     <use style="fill:#ff0000;opacity:0.5;stroke:#000000;stroke-width:0.5;" x="242.816451407" xlink:href="#md061eea0e3" y="119.025057894"/>
     <use style="fill:#ff0000;opacity:0.5;stroke:#000000;stroke-width:0.5;" x="288.118270718" xlink:href="#md061eea0e3" y="28.1102211297"/>
     <use style="fill:#ff0000;opacity:0.5;stroke:#000000;stroke-width:0.5;" x="162.323485093" xlink:href="#md061eea0e3" y="64.3846043003"/>
     <use style="fill:#ff0000;opacity:0.5;stroke:#000000;stroke-width:0.5;" x="239.338593767" xlink:href="#md061eea0e3" y="15.4871295944"/>
     <use style="fill:#ff0000;opacity:0.5;stroke:#000000;stroke-width:0.5;" x="268.02487955" xlink:href="#md061eea0e3" y="92.5972909139"/>
     <use style="fill:#ff0000;opacity:0.5;stroke:#000000;stroke-width:0.5;" x="287.119570221" xlink:href="#md061eea0e3" y="65.5422986389"/>
     <use style="fill:#ff0000;opacity:0.5;stroke:#000000;stroke-width:0.5;" x="279.138717947" xlink:href="#md061eea0e3" y="21.2328322508"/>
     <use style="fill:#ff0000;opacity:0.5;stroke:#000000;stroke-width:0.5;" x="143.466844794" xlink:href="#md061eea0e3" y="176.221191133"/>
     <use style="fill:#ff0000;opacity:0.5;stroke:#000000;stroke-width:0.5;" x="166.850646547" xlink:href="#md061eea0e3" y="158.311229071"/>
     <use style="fill:#ff0000;opacity:0.5;stroke:#000000;stroke-width:0.5;" x="171.279924176" xlink:href="#md061eea0e3" y="160.465487518"/>
     <use style="fill:#ff0000;opacity:0.5;stroke:#000000;stroke-width:0.5;" x="100.135802342" xlink:href="#md061eea0e3" y="174.96898571"/>
     <use style="fill:#ff0000;opacity:0.5;stroke:#000000;stroke-width:0.5;" x="123.737474728" xlink:href="#md061eea0e3" y="106.333679768"/>
     <use style="fill:#ff0000;opacity:0.5;stroke:#000000;stroke-width:0.5;" x="84.9095946278" xlink:href="#md061eea0e3" y="140.188743821"/>
     <use style="fill:#ff0000;opacity:0.5;stroke:#000000;stroke-width:0.5;" x="98.5801959312" xlink:href="#md061eea0e3" y="184.998780937"/>
     <use style="fill:#ff0000;opacity:0.5;stroke:#000000;stroke-width:0.5;" x="181.464933241" xlink:href="#md061eea0e3" y="57.2318073263"/>
     <use style="fill:#ff0000;opacity:0.5;stroke:#000000;stroke-width:0.5;" x="201.939155691" xlink:href="#md061eea0e3" y="138.874827247"/>
     <use style="fill:#ff0000;opacity:0.5;stroke:#000000;stroke-width:0.5;" x="107.658484014" xlink:href="#md061eea0e3" y="183.206067143"/>
     <use style="fill:#ff0000;opacity:0.5;stroke:#000000;stroke-width:0.5;" x="99.7504604605" xlink:href="#md061eea0e3" y="170.702852598"/>
     <use style="fill:#ff0000;opacity:0.5;stroke:#000000;stroke-width:0.5;" x="102.44072249" xlink:href="#md061eea0e3" y="135.407707005"/>
     <use style="fill:#ff0000;opacity:0.5;stroke:#000000;stroke-width:0.5;" x="266.457980179" xlink:href="#md061eea0e3" y="19.4048519806"/>
     <use style="fill:#ff0000;opacity:0.5;stroke:#000000;stroke-width:0.5;" x="156.395719626" xlink:href="#md061eea0e3" y="174.86292343"/>
     <use style="fill:#ff0000;opacity:0.5;stroke:#000000;stroke-width:0.5;" x="133.265508489" xlink:href="#md061eea0e3" y="107.459775531"/>
     <use style="fill:#ff0000;opacity:0.5;stroke:#000000;stroke-width:0.5;" x="162.357756864" xlink:href="#md061eea0e3" y="73.2836868139"/>
     <use style="fill:#ff0000;opacity:0.5;stroke:#000000;stroke-width:0.5;" x="259.526218214" xlink:href="#md061eea0e3" y="102.872032005"/>
     <use style="fill:#ff0000;opacity:0.5;stroke:#000000;stroke-width:0.5;" x="150.048069773" xlink:href="#md061eea0e3" y="65.6474884657"/>
     <use style="fill:#ff0000;opacity:0.5;stroke:#000000;stroke-width:0.5;" x="177.922316282" xlink:href="#md061eea0e3" y="152.984316118"/>
     <use style="fill:#ff0000;opacity:0.5;stroke:#000000;stroke-width:0.5;" x="236.916285124" xlink:href="#md061eea0e3" y="117.631015216"/>
     <use style="fill:#ff0000;opacity:0.5;stroke:#000000;stroke-width:0.5;" x="282.580611833" xlink:href="#md061eea0e3" y="58.6672675408"/>
     <use style="fill:#ff0000;opacity:0.5;stroke:#000000;stroke-width:0.5;" x="281.392367201" xlink:href="#md061eea0e3" y="61.3479250072"/>
     <use style="fill:#ff0000;opacity:0.5;stroke:#000000;stroke-width:0.5;" x="263.224284352" xlink:href="#md061eea0e3" y="23.5400762077"/>
     <use style="fill:#ff0000;opacity:0.5;stroke:#000000;stroke-width:0.5;" x="102.189327623" xlink:href="#md061eea0e3" y="177.365972808"/>
     <use style="fill:#ff0000;opacity:0.5;stroke:#000000;stroke-width:0.5;" x="219.827325462" xlink:href="#md061eea0e3" y="124.449874662"/>
     <use style="fill:#ff0000;opacity:0.5;stroke:#000000;stroke-width:0.5;" x="232.468108859" xlink:href="#md061eea0e3" y="39.2777095328"/>
     <use style="fill:#ff0000;opacity:0.5;stroke:#000000;stroke-width:0.5;" x="91.3706626024" xlink:href="#md061eea0e3" y="142.004529709"/>
     <use style="fill:#ff0000;opacity:0.5;stroke:#000000;stroke-width:0.5;" x="194.875386428" xlink:href="#md061eea0e3" y="139.918045098"/>
     <use style="fill:#ff0000;opacity:0.5;stroke:#000000;stroke-width:0.5;" x="108.121958295" xlink:href="#md061eea0e3" y="113.92389601"/>
     <use style="fill:#ff0000;opacity:0.5;stroke:#000000;stroke-width:0.5;" x="260.340475293" xlink:href="#md061eea0e3" y="104.098752389"/>
     <use style="fill:#ff0000;opacity:0.5;stroke:#000000;stroke-width:0.5;" x="294.185066237" xlink:href="#md061eea0e3" y="47.0309560515"/>
     <use style="fill:#ff0000;opacity:0.5;stroke:#000000;stroke-width:0.5;" x="117.579953229" xlink:href="#md061eea0e3" y="175.88732341"/>
     <use style="fill:#ff0000;opacity:0.5;stroke:#000000;stroke-width:0.5;" x="210.965856818" xlink:href="#md061eea0e3" y="38.1116512643"/>
     <use style="fill:#ff0000;opacity:0.5;stroke:#000000;stroke-width:0.5;" x="102.668728253" xlink:href="#md061eea0e3" y="176.70238901"/>
     <use style="fill:#ff0000;opacity:0.5;stroke:#000000;stroke-width:0.5;" x="131.179003327" xlink:href="#md061eea0e3" y="103.314549797"/>
     <use style="fill:#ff0000;opacity:0.5;stroke:#000000;stroke-width:0.5;" x="130.540437325" xlink:href="#md061eea0e3" y="94.1958703937"/>
     <use style="fill:#ff0000;opacity:0.5;stroke:#000000;stroke-width:0.5;" x="159.490206345" xlink:href="#md061eea0e3" y="163.128672892"/>
     <use style="fill:#ff0000;opacity:0.5;stroke:#000000;stroke-width:0.5;" x="276.143855626" xlink:href="#md061eea0e3" y="65.4263147687"/>
     <use style="fill:#ff0000;opacity:0.5;stroke:#000000;stroke-width:0.5;" x="255.605681947" xlink:href="#md061eea0e3" y="20.4074728121"/>
     <use style="fill:#ff0000;opacity:0.5;stroke:#000000;stroke-width:0.5;" x="289.610407943" xlink:href="#md061eea0e3" y="45.218645518"/>
     <use style="fill:#ff0000;opacity:0.5;stroke:#000000;stroke-width:0.5;" x="294.413701891" xlink:href="#md061eea0e3" y="34.3133427237"/>
     <use style="fill:#ff0000;opacity:0.5;stroke:#000000;stroke-width:0.5;" x="166.052940013" xlink:href="#md061eea0e3" y="71.2581700255"/>
     <use style="fill:#ff0000;opacity:0.5;stroke:#000000;stroke-width:0.5;" x="288.110370529" xlink:href="#md061eea0e3" y="43.252224788"/>
     <use style="fill:#ff0000;opacity:0.5;stroke:#000000;stroke-width:0.5;" x="210.580651591" xlink:href="#md061eea0e3" y="129.917076922"/>
     <use style="fill:#ff0000;opacity:0.5;stroke:#000000;stroke-width:0.5;" x="152.029365002" xlink:href="#md061eea0e3" y="163.856994369"/>
     <use style="fill:#ff0000;opacity:0.5;stroke:#000000;stroke-width:0.5;" x="244.210264639" xlink:href="#md061eea0e3" y="99.3080602522"/>
     <use style="fill:#ff0000;opacity:0.5;stroke:#000000;stroke-width:0.5;" x="91.4753716365" xlink:href="#md061eea0e3" y="179.780604936"/>
    </g>
   </g>
   <g id="patch_3">
    <path d="
M23.9543 12.1988
L358.754 12.1988" style="fill:none;stroke:#000000;stroke-linecap:square;stroke-linejoin:miter;"/>
   </g>
   <g id="patch_4">
    <path d="
M358.754 184.999
L358.754 12.1988" style="fill:none;stroke:#000000;stroke-linecap:square;stroke-linejoin:miter;"/>
   </g>
   <g id="patch_5">
    <path d="
M23.9543 184.999
L358.754 184.999" style="fill:none;stroke:#000000;stroke-linecap:square;stroke-linejoin:miter;"/>
   </g>
   <g id="patch_6">
    <path d="
M23.9543 184.999
L23.9543 12.1988" style="fill:none;stroke:#000000;stroke-linecap:square;stroke-linejoin:miter;"/>
   </g>
   <g id="matplotlib.axis_1">
    <g id="xtick_1">
     <g id="line2d_2">
      <defs>
       <path d="
M0 0
L0 -4" id="m93b0483c22" style="stroke:#000000;stroke-width:0.5;"/>
      </defs>
      <g>
       <use style="stroke:#000000;stroke-width:0.5;" x="23.95427125" xlink:href="#m93b0483c22" y="184.998780937"/>
      </g>
     </g>
     <g id="line2d_3">
      <defs>
       <path d="
M0 0
L0 4" id="m741efc42ff" style="stroke:#000000;stroke-width:0.5;"/>
      </defs>
      <g>
       <use style="stroke:#000000;stroke-width:0.5;" x="23.95427125" xlink:href="#m741efc42ff" y="12.1987809375"/>
      </g>
     </g>
     <g id="text_1">
      <!-- 0.0 -->
      <defs>
       <path d="
M50.3906 35.7969
Q50.3906 27.1562 49.1406 20.3125
Q47.9062 13.4844 45.1406 8.73438
Q42.3906 4 38.0312 1.5
Q33.6875 -0.984375 27.4844 -0.984375
Q21.7344 -0.984375 17.4531 1.5
Q13.1875 4 10.375 8.73438
Q7.5625 13.4844 6.17188 20.3125
Q4.78125 27.1562 4.78125 35.7969
Q4.78125 44.4375 6.03125 51.2656
Q7.28125 58.1094 9.98438 62.8125
Q12.7031 67.5312 17.0156 70.0156
Q21.3438 72.5156 27.4844 72.5156
Q33.2969 72.5156 37.5938 70.0469
Q41.8906 67.5781 44.7188 62.8594
Q47.5625 58.1562 48.9688 51.3125
Q50.3906 44.4844 50.3906 35.7969
M13.8125 35.7969
Q13.8125 28.4688 14.5469 23
Q15.2812 17.5312 16.8906 13.8906
Q18.5 10.25 21.1094 8.42188
Q23.7344 6.59375 27.4844 6.59375
Q31.25 6.59375 33.8906 8.39062
Q36.5312 10.2031 38.2031 13.8125
Q39.8906 17.4375 40.6406 22.9219
Q41.4062 28.4219 41.4062 35.7969
Q41.4062 43.1094 40.6406 48.5781
Q39.8906 54.0469 38.2031 57.6562
Q36.5312 61.2812 33.8906 63.0781
Q31.25 64.8906 27.4844 64.8906
Q23.7344 64.8906 21.1094 63.0781
Q18.5 61.2812 16.8906 57.6562
Q15.2812 54.0469 14.5469 48.5781
Q13.8125 43.1094 13.8125 35.7969" id="WenQuanYiMicroHei-30"/>
       <path d="
M7.17188 5.42188
Q7.17188 7.28125 7.65625 8.5625
Q8.15625 9.85938 8.98438 10.6562
Q9.8125 11.4688 10.9375 11.8281
Q12.0625 12.2031 13.375 12.2031
Q14.6562 12.2031 15.7969 11.8281
Q16.9375 11.4688 17.7656 10.6562
Q18.6094 9.85938 19.0938 8.5625
Q19.5781 7.28125 19.5781 5.42188
Q19.5781 3.60938 19.0938 2.3125
Q18.6094 1.03125 17.7656 0.1875
Q16.9375 -0.640625 15.7969 -1.03125
Q14.6562 -1.42188 13.375 -1.42188
Q12.0625 -1.42188 10.9375 -1.03125
Q9.8125 -0.640625 8.98438 0.1875
Q8.15625 1.03125 7.65625 2.3125
Q7.17188 3.60938 7.17188 5.42188" id="WenQuanYiMicroHei-2e"/>
      </defs>
      <g transform="translate(17.58182125 196.594179062)scale(0.09996 -0.09996)">
       <use xlink:href="#WenQuanYiMicroHei-30"/>
       <use x="55.078125" xlink:href="#WenQuanYiMicroHei-2e"/>
       <use x="81.884765625" xlink:href="#WenQuanYiMicroHei-30"/>
      </g>
     </g>
    </g>
    <g id="xtick_2">
     <g id="line2d_4">
      <g>
       <use style="stroke:#000000;stroke-width:0.5;" x="107.65427125" xlink:href="#m93b0483c22" y="184.998780937"/>
      </g>
     </g>
     <g id="line2d_5">
      <g>
       <use style="stroke:#000000;stroke-width:0.5;" x="107.65427125" xlink:href="#m741efc42ff" y="12.1987809375"/>
      </g>
     </g>
     <g id="text_2">
      <!-- 0.5 -->
      <defs>
       <path d="
M26.6094 43.7969
Q31.4531 43.7969 35.625 42.4531
Q39.7969 41.1094 42.8906 38.4688
Q46 35.8438 47.75 31.9375
Q49.5156 28.0312 49.5156 22.9062
Q49.5156 17.3281 47.8438 12.8906
Q46.1875 8.45312 42.9219 5.375
Q39.6562 2.29688 34.8438 0.65625
Q30.0312 -0.984375 23.7812 -0.984375
Q21.2969 -0.984375 18.875 -0.734375
Q16.4531 -0.484375 14.2344 -0.015625
Q12.0156 0.4375 10.0156 1.17188
Q8.01562 1.90625 6.39062 2.875
L6.39062 11.2812
Q8.01562 10.1562 10.1875 9.28125
Q12.3594 8.40625 14.75 7.8125
Q17.1406 7.23438 19.5469 6.90625
Q21.9688 6.59375 24.0312 6.59375
Q27.875 6.59375 30.9062 7.5
Q33.9375 8.40625 36.0312 10.2969
Q38.1406 12.2031 39.25 15.0781
Q40.375 17.9688 40.375 21.9219
Q40.375 28.9062 36.0781 32.5938
Q31.7812 36.2812 23.5781 36.2812
Q22.2656 36.2812 20.7188 36.1562
Q19.1875 36.0312 17.6406 35.8281
Q16.1094 35.6406 14.7188 35.4219
Q13.3281 35.2031 12.3125 35.0156
L7.90625 37.7969
L10.5938 71.3906
L44.2812 71.3906
L44.2812 63.2812
L18.3125 63.2812
L16.4062 42.8281
Q17.9688 43.1094 20.5312 43.4531
Q23.0938 43.7969 26.6094 43.7969" id="WenQuanYiMicroHei-35"/>
      </defs>
      <g transform="translate(101.32555375 196.594179062)scale(0.09996 -0.09996)">
       <use xlink:href="#WenQuanYiMicroHei-30"/>
       <use x="55.078125" xlink:href="#WenQuanYiMicroHei-2e"/>
       <use x="81.884765625" xlink:href="#WenQuanYiMicroHei-35"/>
      </g>
     </g>
    </g>
    <g id="xtick_3">
     <g id="line2d_6">
      <g>
       <use style="stroke:#000000;stroke-width:0.5;" x="191.35427125" xlink:href="#m93b0483c22" y="184.998780937"/>
      </g>
     </g>
     <g id="line2d_7">
      <g>
       <use style="stroke:#000000;stroke-width:0.5;" x="191.35427125" xlink:href="#m741efc42ff" y="12.1987809375"/>
      </g>
     </g>
     <g id="text_3">
      <!-- 1.0 -->
      <defs>
       <path d="
M34.7188 0
L26.125 0
L26.125 44.5781
Q26.125 46.6875 26.1406 49.0781
Q26.1719 51.4688 26.2344 53.8281
Q26.3125 56.2031 26.3906 58.375
Q26.4688 60.5469 26.5156 62.2031
Q25.6875 61.3281 25.0469 60.6875
Q24.4219 60.0625 23.75 59.4688
Q23.0938 58.8906 22.3594 58.2188
Q21.625 57.5625 20.6094 56.6875
L13.375 50.7812
L8.6875 56.7812
L27.3906 71.3906
L34.7188 71.3906
z
" id="WenQuanYiMicroHei-31"/>
      </defs>
      <g transform="translate(185.177055625 196.594179062)scale(0.09996 -0.09996)">
       <use xlink:href="#WenQuanYiMicroHei-31"/>
       <use x="55.078125" xlink:href="#WenQuanYiMicroHei-2e"/>
       <use x="81.884765625" xlink:href="#WenQuanYiMicroHei-30"/>
      </g>
     </g>
    </g>
    <g id="xtick_4">
     <g id="line2d_8">
      <g>
       <use style="stroke:#000000;stroke-width:0.5;" x="275.05427125" xlink:href="#m93b0483c22" y="184.998780937"/>
      </g>
     </g>
     <g id="line2d_9">
      <g>
       <use style="stroke:#000000;stroke-width:0.5;" x="275.05427125" xlink:href="#m741efc42ff" y="12.1987809375"/>
      </g>
     </g>
     <g id="text_4">
      <!-- 1.5 -->
      <g transform="translate(268.920788125 196.594179062)scale(0.09996 -0.09996)">
       <use xlink:href="#WenQuanYiMicroHei-31"/>
       <use x="55.078125" xlink:href="#WenQuanYiMicroHei-2e"/>
       <use x="81.884765625" xlink:href="#WenQuanYiMicroHei-35"/>
      </g>
     </g>
    </g>
    <g id="xtick_5">
     <g id="line2d_10">
      <g>
       <use style="stroke:#000000;stroke-width:0.5;" x="358.75427125" xlink:href="#m93b0483c22" y="184.998780937"/>
      </g>
     </g>
     <g id="line2d_11">
      <g>
       <use style="stroke:#000000;stroke-width:0.5;" x="358.75427125" xlink:href="#m741efc42ff" y="12.1987809375"/>
      </g>
     </g>
     <g id="text_5">
      <!-- 2.0 -->
      <defs>
       <path d="
M49.2188 0
L4.6875 0
L4.6875 7.625
L21.7812 26.2188
Q25.4375 30.1719 28.3125 33.4375
Q31.2031 36.7188 33.2188 39.8438
Q35.25 42.9688 36.3281 46.1094
Q37.4062 49.2656 37.4062 52.9844
Q37.4062 55.8594 36.5781 58.0469
Q35.75 60.25 34.2031 61.7812
Q32.6719 63.3281 30.5625 64.1094
Q28.4688 64.8906 25.875 64.8906
Q21.2344 64.8906 17.5 63.0156
Q13.7656 61.1406 10.4062 58.2031
L5.42188 64.0156
Q7.375 65.7656 9.60938 67.2969
Q11.8594 68.8438 14.4531 69.9688
Q17.0469 71.0938 19.9219 71.75
Q22.7969 72.4062 25.9844 72.4062
Q30.6719 72.4062 34.4531 71.0938
Q38.2344 69.7812 40.8594 67.3125
Q43.5 64.8438 44.9375 61.2969
Q46.3906 57.7656 46.3906 53.3281
Q46.3906 49.1719 45.0938 45.4062
Q43.7969 41.6562 41.5312 38.0156
Q39.2656 34.375 36.1094 30.7031
Q32.9531 27.0469 29.2969 23.0938
L15.5781 8.5
L15.5781 8.10938
L49.2188 8.10938
z
" id="WenQuanYiMicroHei-32"/>
      </defs>
      <g transform="translate(352.377135625 196.594179062)scale(0.09996 -0.09996)">
       <use xlink:href="#WenQuanYiMicroHei-32"/>
       <use x="55.078125" xlink:href="#WenQuanYiMicroHei-2e"/>
       <use x="81.884765625" xlink:href="#WenQuanYiMicroHei-30"/>
      </g>
     </g>
    </g>
   </g>
   <g id="matplotlib.axis_2">
    <g id="ytick_1">
     <g id="line2d_12">
      <defs>
       <path d="
M0 0
L4 0" id="m728421d6d4" style="stroke:#000000;stroke-width:0.5;"/>
      </defs>
      <g>
       <use style="stroke:#000000;stroke-width:0.5;" x="23.95427125" xlink:href="#m728421d6d4" y="184.113560873"/>
      </g>
     </g>
     <g id="line2d_13">
      <defs>
       <path d="
M0 0
L-4 0" id="mcb0005524f" style="stroke:#000000;stroke-width:0.5;"/>
      </defs>
      <g>
       <use style="stroke:#000000;stroke-width:0.5;" x="358.75427125" xlink:href="#mcb0005524f" y="184.113560873"/>
      </g>
     </g>
     <g id="text_6">
      <!-- 0.0 -->
      <g transform="translate(7.20937125 186.71017806)scale(0.09996 -0.09996)">
       <use xlink:href="#WenQuanYiMicroHei-30"/>
       <use x="55.078125" xlink:href="#WenQuanYiMicroHei-2e"/>
       <use x="81.884765625" xlink:href="#WenQuanYiMicroHei-30"/>
      </g>
     </g>
    </g>
    <g id="ytick_2">
     <g id="line2d_14">
      <g>
       <use style="stroke:#000000;stroke-width:0.5;" x="23.95427125" xlink:href="#m728421d6d4" y="141.134865889"/>
      </g>
     </g>
     <g id="line2d_15">
      <g>
       <use style="stroke:#000000;stroke-width:0.5;" x="358.75427125" xlink:href="#mcb0005524f" y="141.134865889"/>
      </g>
     </g>
     <g id="text_7">
      <!-- 0.5 -->
      <g transform="translate(7.29683625 143.731483076)scale(0.09996 -0.09996)">
       <use xlink:href="#WenQuanYiMicroHei-30"/>
       <use x="55.078125" xlink:href="#WenQuanYiMicroHei-2e"/>
       <use x="81.884765625" xlink:href="#WenQuanYiMicroHei-35"/>
      </g>
     </g>
    </g>
    <g id="ytick_3">
     <g id="line2d_16">
      <g>
       <use style="stroke:#000000;stroke-width:0.5;" x="23.95427125" xlink:href="#m728421d6d4" y="98.156170905"/>
      </g>
     </g>
     <g id="line2d_17">
      <g>
       <use style="stroke:#000000;stroke-width:0.5;" x="358.75427125" xlink:href="#mcb0005524f" y="98.156170905"/>
      </g>
     </g>
     <g id="text_8">
      <!-- 1.0 -->
      <g transform="translate(7.59984 100.752788093)scale(0.09996 -0.09996)">
       <use xlink:href="#WenQuanYiMicroHei-31"/>
       <use x="55.078125" xlink:href="#WenQuanYiMicroHei-2e"/>
       <use x="81.884765625" xlink:href="#WenQuanYiMicroHei-30"/>
      </g>
     </g>
    </g>
    <g id="ytick_4">
     <g id="line2d_18">
      <g>
       <use style="stroke:#000000;stroke-width:0.5;" x="23.95427125" xlink:href="#m728421d6d4" y="55.1774759213"/>
      </g>
     </g>
     <g id="line2d_19">
      <g>
       <use style="stroke:#000000;stroke-width:0.5;" x="358.75427125" xlink:href="#mcb0005524f" y="55.1774759213"/>
      </g>
     </g>
     <g id="text_9">
      <!-- 1.5 -->
      <g transform="translate(7.687305 57.7740931088)scale(0.09996 -0.09996)">
       <use xlink:href="#WenQuanYiMicroHei-31"/>
       <use x="55.078125" xlink:href="#WenQuanYiMicroHei-2e"/>
       <use x="81.884765625" xlink:href="#WenQuanYiMicroHei-35"/>
      </g>
     </g>
    </g>
    <g id="ytick_5">
     <g id="line2d_20">
      <g>
       <use style="stroke:#000000;stroke-width:0.5;" x="23.95427125" xlink:href="#m728421d6d4" y="12.1987809375"/>
      </g>
     </g>
     <g id="line2d_21">
      <g>
       <use style="stroke:#000000;stroke-width:0.5;" x="358.75427125" xlink:href="#mcb0005524f" y="12.1987809375"/>
      </g>
     </g>
     <g id="text_10">
      <!-- 2.0 -->
      <g transform="translate(7.2 14.795398125)scale(0.09996 -0.09996)">
       <use xlink:href="#WenQuanYiMicroHei-32"/>
       <use x="55.078125" xlink:href="#WenQuanYiMicroHei-2e"/>
       <use x="81.884765625" xlink:href="#WenQuanYiMicroHei-30"/>
      </g>
     </g>
    </g>
   </g>
  </g>
 </g>
 <defs>
  <clipPath id="pf8ec484c33">
   <rect height="172.8" width="334.8" x="23.95427125" y="12.1987809375"/>
  </clipPath>
 </defs>
</svg>
