<?xml version="1.0" encoding="utf-8" standalone="no"?>
<!DOCTYPE svg PUBLIC "-//W3C//DTD SVG 1.1//EN"
  "http://www.w3.org/Graphics/SVG/1.1/DTD/svg11.dtd">
<!-- Created with matplotlib (http://matplotlib.org/) -->
<svg height="206pt" version="1.1" viewBox="0 0 371 206" width="371pt" xmlns="http://www.w3.org/2000/svg" xmlns:xlink="http://www.w3.org/1999/xlink">
 <defs>
  <style type="text/css">
*{stroke-linecap:butt;stroke-linejoin:round;}
  </style>
 </defs>
 <g id="figure_1">
  <g id="patch_1">
   <path d="
M3.55271e-15 206.196
L371.044 206.196
L371.044 0
L3.55271e-15 0
z
" style="fill:#ffffff;"/>
  </g>
  <g id="axes_1">
   <g id="patch_2">
    <path d="
M26.75 184.999
L361.55 184.999
L361.55 12.1988
L26.75 12.1988
z
" style="fill:#ffffff;"/>
   </g>
   <g id="line2d_1">
    <defs>
     <path d="
M0 3
C0.795609 3 1.55874 2.6839 2.12132 2.12132
C2.6839 1.55874 3 0.795609 3 0
C3 -0.795609 2.6839 -1.55874 2.12132 -2.12132
C1.55874 -2.6839 0.795609 -3 0 -3
C-0.795609 -3 -1.55874 -2.6839 -2.12132 -2.12132
C-2.6839 -1.55874 -3 -0.795609 -3 0
C-3 0.795609 -2.6839 1.55874 -2.12132 2.12132
C-1.55874 2.6839 -0.795609 3 0 3
z
" id="m8c6fd4390b" style="stroke:#000000;stroke-width:0.5;"/>
    </defs>
    <g clip-path="url(#pcacfc7f21a)">
     <use style="fill:#348abd;stroke:#000000;stroke-width:0.5;" x="26.7500275" xlink:href="#m8c6fd4390b" y="49.476897912"/>
     <use style="fill:#348abd;stroke:#000000;stroke-width:0.5;" x="29.7855404017" xlink:href="#m8c6fd4390b" y="58.7107084605"/>
     <use style="fill:#348abd;stroke:#000000;stroke-width:0.5;" x="32.8210533033" xlink:href="#m8c6fd4390b" y="46.2147098008"/>
     <use style="fill:#348abd;stroke:#000000;stroke-width:0.5;" x="35.856566205" xlink:href="#m8c6fd4390b" y="26.5984671255"/>
     <use style="fill:#348abd;stroke:#000000;stroke-width:0.5;" x="38.8920791066" xlink:href="#m8c6fd4390b" y="26.6707788221"/>
     <use style="fill:#348abd;stroke:#000000;stroke-width:0.5;" x="41.9275920083" xlink:href="#m8c6fd4390b" y="56.1400948198"/>
     <use style="fill:#348abd;stroke:#000000;stroke-width:0.5;" x="44.9631049099" xlink:href="#m8c6fd4390b" y="31.6195868517"/>
     <use style="fill:#348abd;stroke:#000000;stroke-width:0.5;" x="47.9986178116" xlink:href="#m8c6fd4390b" y="43.0194690736"/>
     <use style="fill:#348abd;stroke:#000000;stroke-width:0.5;" x="51.0341307132" xlink:href="#m8c6fd4390b" y="42.228275352"/>
     <use style="fill:#348abd;stroke:#000000;stroke-width:0.5;" x="54.0696436149" xlink:href="#m8c6fd4390b" y="37.128934511"/>
     <use style="fill:#348abd;stroke:#000000;stroke-width:0.5;" x="57.1051565165" xlink:href="#m8c6fd4390b" y="42.0609096891"/>
     <use style="fill:#348abd;stroke:#000000;stroke-width:0.5;" x="60.1406694182" xlink:href="#m8c6fd4390b" y="29.8355880465"/>
     <use style="fill:#348abd;stroke:#000000;stroke-width:0.5;" x="63.1761823198" xlink:href="#m8c6fd4390b" y="41.6448060553"/>
     <use style="fill:#348abd;stroke:#000000;stroke-width:0.5;" x="66.2116952215" xlink:href="#m8c6fd4390b" y="53.717849156"/>
     <use style="fill:#348abd;stroke:#000000;stroke-width:0.5;" x="69.2472081231" xlink:href="#m8c6fd4390b" y="55.5118633382"/>
     <use style="fill:#348abd;stroke:#000000;stroke-width:0.5;" x="72.2827210248" xlink:href="#m8c6fd4390b" y="62.9838469906"/>
     <use style="fill:#348abd;stroke:#000000;stroke-width:0.5;" x="75.3182339264" xlink:href="#m8c6fd4390b" y="56.4017313223"/>
     <use style="fill:#348abd;stroke:#000000;stroke-width:0.5;" x="78.3537468281" xlink:href="#m8c6fd4390b" y="83.2212832894"/>
     <use style="fill:#348abd;stroke:#000000;stroke-width:0.5;" x="81.3892597297" xlink:href="#m8c6fd4390b" y="84.8212829728"/>
     <use style="fill:#348abd;stroke:#000000;stroke-width:0.5;" x="84.4247726314" xlink:href="#m8c6fd4390b" y="106.023651024"/>
     <use style="fill:#348abd;stroke:#000000;stroke-width:0.5;" x="87.460285533" xlink:href="#m8c6fd4390b" y="133.395869397"/>
     <use style="fill:#348abd;stroke:#000000;stroke-width:0.5;" x="90.4957984347" xlink:href="#m8c6fd4390b" y="104.157830155"/>
     <use style="fill:#348abd;stroke:#000000;stroke-width:0.5;" x="93.5313113363" xlink:href="#m8c6fd4390b" y="109.191064394"/>
     <use style="fill:#348abd;stroke:#000000;stroke-width:0.5;" x="96.566824238" xlink:href="#m8c6fd4390b" y="134.78376859"/>
     <use style="fill:#348abd;stroke:#000000;stroke-width:0.5;" x="99.6023371396" xlink:href="#m8c6fd4390b" y="106.663882506"/>
     <use style="fill:#348abd;stroke:#000000;stroke-width:0.5;" x="102.637850041" xlink:href="#m8c6fd4390b" y="155.515221515"/>
     <use style="fill:#348abd;stroke:#000000;stroke-width:0.5;" x="105.673362943" xlink:href="#m8c6fd4390b" y="143.446109596"/>
     <use style="fill:#348abd;stroke:#000000;stroke-width:0.5;" x="108.708875845" xlink:href="#m8c6fd4390b" y="150.509100765"/>
     <use style="fill:#348abd;stroke:#000000;stroke-width:0.5;" x="111.744388746" xlink:href="#m8c6fd4390b" y="134.161414434"/>
     <use style="fill:#348abd;stroke:#000000;stroke-width:0.5;" x="114.779901648" xlink:href="#m8c6fd4390b" y="137.381477363"/>
     <use style="fill:#348abd;stroke:#000000;stroke-width:0.5;" x="117.81541455" xlink:href="#m8c6fd4390b" y="153.99043402"/>
     <use style="fill:#348abd;stroke:#000000;stroke-width:0.5;" x="120.850927451" xlink:href="#m8c6fd4390b" y="151.836487826"/>
     <use style="fill:#348abd;stroke:#000000;stroke-width:0.5;" x="123.886440353" xlink:href="#m8c6fd4390b" y="165.780594433"/>
     <use style="fill:#348abd;stroke:#000000;stroke-width:0.5;" x="126.921953254" xlink:href="#m8c6fd4390b" y="176.687091214"/>
     <use style="fill:#348abd;stroke:#000000;stroke-width:0.5;" x="129.957466156" xlink:href="#m8c6fd4390b" y="155.176834868"/>
     <use style="fill:#348abd;stroke:#000000;stroke-width:0.5;" x="132.992979058" xlink:href="#m8c6fd4390b" y="145.70342207"/>
     <use style="fill:#348abd;stroke:#000000;stroke-width:0.5;" x="136.028491959" xlink:href="#m8c6fd4390b" y="128.769649807"/>
     <use style="fill:#348abd;stroke:#000000;stroke-width:0.5;" x="139.064004861" xlink:href="#m8c6fd4390b" y="123.715312177"/>
     <use style="fill:#348abd;stroke:#000000;stroke-width:0.5;" x="142.099517763" xlink:href="#m8c6fd4390b" y="135.937627071"/>
     <use style="fill:#348abd;stroke:#000000;stroke-width:0.5;" x="145.135030664" xlink:href="#m8c6fd4390b" y="128.263607369"/>
     <use style="fill:#348abd;stroke:#000000;stroke-width:0.5;" x="148.170543566" xlink:href="#m8c6fd4390b" y="129.685305526"/>
     <use style="fill:#348abd;stroke:#000000;stroke-width:0.5;" x="151.206056468" xlink:href="#m8c6fd4390b" y="126.440610969"/>
     <use style="fill:#348abd;stroke:#000000;stroke-width:0.5;" x="154.241569369" xlink:href="#m8c6fd4390b" y="122.003497568"/>
     <use style="fill:#348abd;stroke:#000000;stroke-width:0.5;" x="157.277082271" xlink:href="#m8c6fd4390b" y="72.070791672"/>
     <use style="fill:#348abd;stroke:#000000;stroke-width:0.5;" x="160.312595173" xlink:href="#m8c6fd4390b" y="92.6858049737"/>
     <use style="fill:#348abd;stroke:#000000;stroke-width:0.5;" x="163.348108074" xlink:href="#m8c6fd4390b" y="84.3484074278"/>
     <use style="fill:#348abd;stroke:#000000;stroke-width:0.5;" x="166.383620976" xlink:href="#m8c6fd4390b" y="86.5753594072"/>
     <use style="fill:#348abd;stroke:#000000;stroke-width:0.5;" x="169.419133878" xlink:href="#m8c6fd4390b" y="56.5134119465"/>
     <use style="fill:#348abd;stroke:#000000;stroke-width:0.5;" x="172.454646779" xlink:href="#m8c6fd4390b" y="77.997206952"/>
     <use style="fill:#348abd;stroke:#000000;stroke-width:0.5;" x="175.490159681" xlink:href="#m8c6fd4390b" y="56.51025332"/>
     <use style="fill:#348abd;stroke:#000000;stroke-width:0.5;" x="178.525672583" xlink:href="#m8c6fd4390b" y="59.8471361831"/>
     <use style="fill:#348abd;stroke:#000000;stroke-width:0.5;" x="181.561185484" xlink:href="#m8c6fd4390b" y="41.4467265443"/>
     <use style="fill:#348abd;stroke:#000000;stroke-width:0.5;" x="184.596698386" xlink:href="#m8c6fd4390b" y="49.1279873639"/>
     <use style="fill:#348abd;stroke:#000000;stroke-width:0.5;" x="187.632211287" xlink:href="#m8c6fd4390b" y="55.2000796696"/>
     <use style="fill:#348abd;stroke:#000000;stroke-width:0.5;" x="190.667724189" xlink:href="#m8c6fd4390b" y="41.3257372914"/>
     <use style="fill:#348abd;stroke:#000000;stroke-width:0.5;" x="193.703237091" xlink:href="#m8c6fd4390b" y="36.525750515"/>
     <use style="fill:#348abd;stroke:#000000;stroke-width:0.5;" x="196.738749992" xlink:href="#m8c6fd4390b" y="42.2016597175"/>
     <use style="fill:#348abd;stroke:#000000;stroke-width:0.5;" x="199.774262894" xlink:href="#m8c6fd4390b" y="42.0123401953"/>
     <use style="fill:#348abd;stroke:#000000;stroke-width:0.5;" x="202.809775796" xlink:href="#m8c6fd4390b" y="56.3077430091"/>
     <use style="fill:#348abd;stroke:#000000;stroke-width:0.5;" x="205.845288697" xlink:href="#m8c6fd4390b" y="57.5930189499"/>
     <use style="fill:#348abd;stroke:#000000;stroke-width:0.5;" x="208.880801599" xlink:href="#m8c6fd4390b" y="66.4042109798"/>
     <use style="fill:#348abd;stroke:#000000;stroke-width:0.5;" x="211.916314501" xlink:href="#m8c6fd4390b" y="68.7758460605"/>
     <use style="fill:#348abd;stroke:#000000;stroke-width:0.5;" x="214.951827402" xlink:href="#m8c6fd4390b" y="80.6009747071"/>
     <use style="fill:#348abd;stroke:#000000;stroke-width:0.5;" x="217.987340304" xlink:href="#m8c6fd4390b" y="98.2223153305"/>
     <use style="fill:#348abd;stroke:#000000;stroke-width:0.5;" x="221.022853206" xlink:href="#m8c6fd4390b" y="83.7655215845"/>
     <use style="fill:#348abd;stroke:#000000;stroke-width:0.5;" x="224.058366107" xlink:href="#m8c6fd4390b" y="98.1466589571"/>
     <use style="fill:#348abd;stroke:#000000;stroke-width:0.5;" x="227.093879009" xlink:href="#m8c6fd4390b" y="120.099951713"/>
     <use style="fill:#348abd;stroke:#000000;stroke-width:0.5;" x="230.129391911" xlink:href="#m8c6fd4390b" y="103.740791635"/>
     <use style="fill:#348abd;stroke:#000000;stroke-width:0.5;" x="233.164904812" xlink:href="#m8c6fd4390b" y="127.083865802"/>
     <use style="fill:#348abd;stroke:#000000;stroke-width:0.5;" x="236.200417714" xlink:href="#m8c6fd4390b" y="123.262137056"/>
     <use style="fill:#348abd;stroke:#000000;stroke-width:0.5;" x="239.235930616" xlink:href="#m8c6fd4390b" y="122.226518106"/>
     <use style="fill:#348abd;stroke:#000000;stroke-width:0.5;" x="242.271443517" xlink:href="#m8c6fd4390b" y="135.317016003"/>
     <use style="fill:#348abd;stroke:#000000;stroke-width:0.5;" x="245.306956419" xlink:href="#m8c6fd4390b" y="129.153045177"/>
     <use style="fill:#348abd;stroke:#000000;stroke-width:0.5;" x="248.34246932" xlink:href="#m8c6fd4390b" y="161.178450844"/>
     <use style="fill:#348abd;stroke:#000000;stroke-width:0.5;" x="251.377982222" xlink:href="#m8c6fd4390b" y="146.105077886"/>
     <use style="fill:#348abd;stroke:#000000;stroke-width:0.5;" x="254.413495124" xlink:href="#m8c6fd4390b" y="161.45883732"/>
     <use style="fill:#348abd;stroke:#000000;stroke-width:0.5;" x="257.449008025" xlink:href="#m8c6fd4390b" y="165.422216075"/>
     <use style="fill:#348abd;stroke:#000000;stroke-width:0.5;" x="260.484520927" xlink:href="#m8c6fd4390b" y="162.837405324"/>
     <use style="fill:#348abd;stroke:#000000;stroke-width:0.5;" x="263.520033829" xlink:href="#m8c6fd4390b" y="159.479895498"/>
     <use style="fill:#348abd;stroke:#000000;stroke-width:0.5;" x="266.55554673" xlink:href="#m8c6fd4390b" y="153.913974668"/>
     <use style="fill:#348abd;stroke:#000000;stroke-width:0.5;" x="269.591059632" xlink:href="#m8c6fd4390b" y="165.626558557"/>
     <use style="fill:#348abd;stroke:#000000;stroke-width:0.5;" x="272.626572534" xlink:href="#m8c6fd4390b" y="138.485648989"/>
     <use style="fill:#348abd;stroke:#000000;stroke-width:0.5;" x="275.662085435" xlink:href="#m8c6fd4390b" y="139.235300998"/>
     <use style="fill:#348abd;stroke:#000000;stroke-width:0.5;" x="278.697598337" xlink:href="#m8c6fd4390b" y="157.189499295"/>
     <use style="fill:#348abd;stroke:#000000;stroke-width:0.5;" x="281.733111239" xlink:href="#m8c6fd4390b" y="116.488974187"/>
     <use style="fill:#348abd;stroke:#000000;stroke-width:0.5;" x="284.76862414" xlink:href="#m8c6fd4390b" y="105.291617798"/>
     <use style="fill:#348abd;stroke:#000000;stroke-width:0.5;" x="287.804137042" xlink:href="#m8c6fd4390b" y="106.527625572"/>
     <use style="fill:#348abd;stroke:#000000;stroke-width:0.5;" x="290.839649944" xlink:href="#m8c6fd4390b" y="114.760030746"/>
     <use style="fill:#348abd;stroke:#000000;stroke-width:0.5;" x="293.875162845" xlink:href="#m8c6fd4390b" y="117.343910194"/>
     <use style="fill:#348abd;stroke:#000000;stroke-width:0.5;" x="296.910675747" xlink:href="#m8c6fd4390b" y="85.0654463071"/>
     <use style="fill:#348abd;stroke:#000000;stroke-width:0.5;" x="299.946188649" xlink:href="#m8c6fd4390b" y="94.0866590457"/>
     <use style="fill:#348abd;stroke:#000000;stroke-width:0.5;" x="302.98170155" xlink:href="#m8c6fd4390b" y="67.7568904453"/>
     <use style="fill:#348abd;stroke:#000000;stroke-width:0.5;" x="306.017214452" xlink:href="#m8c6fd4390b" y="72.1451352176"/>
     <use style="fill:#348abd;stroke:#000000;stroke-width:0.5;" x="309.052727353" xlink:href="#m8c6fd4390b" y="56.4400905055"/>
     <use style="fill:#348abd;stroke:#000000;stroke-width:0.5;" x="312.088240255" xlink:href="#m8c6fd4390b" y="57.2994365806"/>
     <use style="fill:#348abd;stroke:#000000;stroke-width:0.5;" x="315.123753157" xlink:href="#m8c6fd4390b" y="47.6615355656"/>
     <use style="fill:#348abd;stroke:#000000;stroke-width:0.5;" x="318.159266058" xlink:href="#m8c6fd4390b" y="50.8623044743"/>
     <use style="fill:#348abd;stroke:#000000;stroke-width:0.5;" x="321.19477896" xlink:href="#m8c6fd4390b" y="26.4659997921"/>
     <use style="fill:#348abd;stroke:#000000;stroke-width:0.5;" x="324.230291862" xlink:href="#m8c6fd4390b" y="42.5795113143"/>
     <use style="fill:#348abd;stroke:#000000;stroke-width:0.5;" x="327.265804763" xlink:href="#m8c6fd4390b" y="37.414300424"/>
    </g>
   </g>
   <g id="line2d_2">
    <path clip-path="url(#pcacfc7f21a)" d="
M26.75 69.7988
L29.7855 63.3205
L32.8211 57.4898
L35.8566 52.4136
L38.8921 48.185
L41.9276 44.8819
L44.9631 42.5646
L47.9986 41.2758
L51.0341 41.0392
L54.0696 41.859
L57.1052 43.7203
L60.1407 46.5888
L63.1762 50.412
L66.2117 55.1195
L69.2472 60.6252
L72.2827 66.8278
L75.3182 73.6135
L78.3537 80.8579
L81.3893 88.4278
L84.4248 96.1845
L87.4603 103.985
L90.4958 111.688
L93.5313 119.149
L96.5668 126.234
L99.6023 132.811
L102.638 138.761
L105.673 143.973
L108.709 148.353
L111.744 151.819
L114.78 154.308
L117.815 155.775
L120.851 156.193
L123.886 155.553
L126.922 153.868
L129.957 151.169
L132.993 147.505
L136.028 142.943
L139.064 137.567
L142.1 131.476
L145.135 124.781
L148.171 117.606
L151.206 110.082
L154.242 102.347
L157.277 94.5437
L160.313 86.8146
L163.348 79.3018
L166.384 72.1432
L169.419 65.4701
L172.455 59.4051
L175.49 54.0595
L178.526 49.5314
L181.561 45.9038
L184.597 43.2435
L187.632 41.5992
L190.668 41.0011
L193.703 41.4601
L196.739 42.9679
L199.774 45.4968
L202.81 49.0004
L205.845 53.4142
L208.881 58.6575
L211.916 64.6338
L214.952 71.2335
L217.987 78.3355
L221.023 85.8095
L224.058 93.5181
L227.094 101.32
L230.129 109.072
L233.165 116.632
L236.2 123.861
L239.236 130.626
L242.271 136.803
L245.307 142.279
L248.342 146.953
L251.378 150.74
L254.413 153.57
L257.449 155.391
L260.485 156.169
L263.52 155.891
L266.556 154.561
L269.591 152.204
L272.627 148.863
L275.662 144.6
L278.698 139.492
L281.733 133.634
L284.769 127.132
L287.804 120.107
L290.84 112.687
L293.875 105.009
L296.911 97.2127
L299.946 89.4421
L302.982 81.8395
L306.017 74.5445
L309.053 67.691
L312.088 61.4048
L315.124 55.8013
L318.159 50.9833
L321.195 47.0392
L324.23 44.0415
L327.266 42.0452" style="fill:none;stroke:#a60628;stroke-linecap:square;stroke-width:2.0;"/>
   </g>
   <g id="line2d_3">
    <path clip-path="url(#pcacfc7f21a)" d="
M26.75 69.8647
L29.7855 63.1099
L32.8211 57.0156
L35.8566 51.6955
L38.8921 47.2483
L41.9276 43.7571
L44.9631 41.2866
L47.9986 39.8829
L51.0341 39.5722
L54.0696 40.3602
L57.1052 42.2323
L60.1407 45.1535
L63.1762 49.0696
L66.2117 53.9076
L69.2472 59.5775
L72.2827 65.9738
L75.3182 72.9773
L78.3537 80.4578
L81.3893 88.2759
L84.4248 96.2861
L87.4603 104.339
L90.4958 112.286
L93.5313 119.978
L96.5668 127.271
L99.6023 134.031
L102.638 140.132
L105.673 145.459
L108.709 149.914
L111.744 153.414
L114.78 155.894
L117.815 157.307
L120.851 157.627
L123.886 156.849
L126.922 154.986
L129.957 152.074
L132.993 148.166
L136.028 143.336
L139.064 137.673
L142.1 131.282
L145.135 124.284
L148.171 116.807
L151.206 108.991
L154.242 100.982
L157.277 92.9282
L160.313 84.9801
L163.348 77.2856
L166.384 69.9878
L169.419 63.2225
L172.455 57.1158
L175.49 51.7812
L178.526 47.318
L181.561 43.8094
L184.597 41.3207
L187.632 39.8981
L190.668 39.5682
L193.703 40.3371
L196.739 42.1904
L199.774 45.0938
L202.81 48.9931
L205.845 53.8157
L208.881 59.4719
L211.916 65.8565
L214.952 72.8505
L217.987 80.3238
L221.023 88.1372
L224.058 96.1454
L227.094 104.199
L230.129 112.149
L233.165 119.846
L236.2 127.148
L239.236 133.919
L242.271 140.032
L245.307 145.373
L248.342 149.845
L251.378 153.362
L254.413 155.86
L257.449 157.292
L260.485 157.631
L263.52 156.872
L266.556 155.028
L269.591 152.134
L272.627 148.243
L275.662 143.428
L278.698 137.778
L281.733 131.4
L284.769 124.41
L287.804 116.941
L290.84 109.13
L293.875 101.123
L296.911 93.0684
L299.946 85.1172
L302.982 77.417
L306.017 70.1111
L309.053 63.3354
L312.088 57.2161
L315.124 51.8671
L318.159 47.388
L321.195 43.8621
L324.23 41.3551
L327.266 39.9136" style="fill:none;stroke:#7a68a6;stroke-linecap:square;stroke-width:2.0;"/>
   </g>
   <g id="patch_3">
    <path d="
M26.75 12.1988
L361.55 12.1988" style="fill:none;stroke:#000000;stroke-linecap:square;stroke-linejoin:miter;"/>
   </g>
   <g id="patch_4">
    <path d="
M361.55 184.999
L361.55 12.1988" style="fill:none;stroke:#000000;stroke-linecap:square;stroke-linejoin:miter;"/>
   </g>
   <g id="patch_5">
    <path d="
M26.75 184.999
L361.55 184.999" style="fill:none;stroke:#000000;stroke-linecap:square;stroke-linejoin:miter;"/>
   </g>
   <g id="patch_6">
    <path d="
M26.75 184.999
L26.75 12.1988" style="fill:none;stroke:#000000;stroke-linecap:square;stroke-linejoin:miter;"/>
   </g>
   <g id="matplotlib.axis_1">
    <g id="xtick_1">
     <g id="line2d_4">
      <defs>
       <path d="
M0 0
L0 -4" id="m93b0483c22" style="stroke:#000000;stroke-width:0.5;"/>
      </defs>
      <g>
       <use style="stroke:#000000;stroke-width:0.5;" x="26.7500275" xlink:href="#m93b0483c22" y="184.998780938"/>
      </g>
     </g>
     <g id="line2d_5">
      <defs>
       <path d="
M0 0
L0 4" id="m741efc42ff" style="stroke:#000000;stroke-width:0.5;"/>
      </defs>
      <g>
       <use style="stroke:#000000;stroke-width:0.5;" x="26.7500275" xlink:href="#m741efc42ff" y="12.1987809375"/>
      </g>
     </g>
     <g id="text_1">
      <!-- 0 -->
      <defs>
       <path d="
M50.3906 35.7969
Q50.3906 27.1562 49.1406 20.3125
Q47.9062 13.4844 45.1406 8.73438
Q42.3906 4 38.0312 1.5
Q33.6875 -0.984375 27.4844 -0.984375
Q21.7344 -0.984375 17.4531 1.5
Q13.1875 4 10.375 8.73438
Q7.5625 13.4844 6.17188 20.3125
Q4.78125 27.1562 4.78125 35.7969
Q4.78125 44.4375 6.03125 51.2656
Q7.28125 58.1094 9.98438 62.8125
Q12.7031 67.5312 17.0156 70.0156
Q21.3438 72.5156 27.4844 72.5156
Q33.2969 72.5156 37.5938 70.0469
Q41.8906 67.5781 44.7188 62.8594
Q47.5625 58.1562 48.9688 51.3125
Q50.3906 44.4844 50.3906 35.7969
M13.8125 35.7969
Q13.8125 28.4688 14.5469 23
Q15.2812 17.5312 16.8906 13.8906
Q18.5 10.25 21.1094 8.42188
Q23.7344 6.59375 27.4844 6.59375
Q31.25 6.59375 33.8906 8.39062
Q36.5312 10.2031 38.2031 13.8125
Q39.8906 17.4375 40.6406 22.9219
Q41.4062 28.4219 41.4062 35.7969
Q41.4062 43.1094 40.6406 48.5781
Q39.8906 54.0469 38.2031 57.6562
Q36.5312 61.2812 33.8906 63.0781
Q31.25 64.8906 27.4844 64.8906
Q23.7344 64.8906 21.1094 63.0781
Q18.5 61.2812 16.8906 57.6562
Q15.2812 54.0469 14.5469 48.5781
Q13.8125 43.1094 13.8125 35.7969" id="WenQuanYiMicroHei-30"/>
      </defs>
      <g transform="translate(24.4704709375 196.594179063)scale(0.09996 -0.09996)">
       <use xlink:href="#WenQuanYiMicroHei-30"/>
      </g>
     </g>
    </g>
    <g id="xtick_2">
     <g id="line2d_6">
      <g>
       <use style="stroke:#000000;stroke-width:0.5;" x="74.5785989286" xlink:href="#m93b0483c22" y="184.998780938"/>
      </g>
     </g>
     <g id="line2d_7">
      <g>
       <use style="stroke:#000000;stroke-width:0.5;" x="74.5785989286" xlink:href="#m741efc42ff" y="12.1987809375"/>
      </g>
     </g>
     <g id="text_2">
      <!-- 1 -->
      <defs>
       <path d="
M34.7188 0
L26.125 0
L26.125 44.5781
Q26.125 46.6875 26.1406 49.0781
Q26.1719 51.4688 26.2344 53.8281
Q26.3125 56.2031 26.3906 58.375
Q26.4688 60.5469 26.5156 62.2031
Q25.6875 61.3281 25.0469 60.6875
Q24.4219 60.0625 23.75 59.4688
Q23.0938 58.8906 22.3594 58.2188
Q21.625 57.5625 20.6094 56.6875
L13.375 50.7812
L8.6875 56.7812
L27.3906 71.3906
L34.7188 71.3906
z
" id="WenQuanYiMicroHei-31"/>
      </defs>
      <g transform="translate(73.2775570536 196.594179063)scale(0.09996 -0.09996)">
       <use xlink:href="#WenQuanYiMicroHei-31"/>
      </g>
     </g>
    </g>
    <g id="xtick_3">
     <g id="line2d_8">
      <g>
       <use style="stroke:#000000;stroke-width:0.5;" x="122.407170357" xlink:href="#m93b0483c22" y="184.998780938"/>
      </g>
     </g>
     <g id="line2d_9">
      <g>
       <use style="stroke:#000000;stroke-width:0.5;" x="122.407170357" xlink:href="#m741efc42ff" y="12.1987809375"/>
      </g>
     </g>
     <g id="text_3">
      <!-- 2 -->
      <defs>
       <path d="
M49.2188 0
L4.6875 0
L4.6875 7.625
L21.7812 26.2188
Q25.4375 30.1719 28.3125 33.4375
Q31.2031 36.7188 33.2188 39.8438
Q35.25 42.9688 36.3281 46.1094
Q37.4062 49.2656 37.4062 52.9844
Q37.4062 55.8594 36.5781 58.0469
Q35.75 60.25 34.2031 61.7812
Q32.6719 63.3281 30.5625 64.1094
Q28.4688 64.8906 25.875 64.8906
Q21.2344 64.8906 17.5 63.0156
Q13.7656 61.1406 10.4062 58.2031
L5.42188 64.0156
Q7.375 65.7656 9.60938 67.2969
Q11.8594 68.8438 14.4531 69.9688
Q17.0469 71.0938 19.9219 71.75
Q22.7969 72.4062 25.9844 72.4062
Q30.6719 72.4062 34.4531 71.0938
Q38.2344 69.7812 40.8594 67.3125
Q43.5 64.8438 44.9375 61.2969
Q46.3906 57.7656 46.3906 53.3281
Q46.3906 49.1719 45.0938 45.4062
Q43.7969 41.6562 41.5312 38.0156
Q39.2656 34.375 36.1094 30.7031
Q32.9531 27.0469 29.2969 23.0938
L15.5781 8.5
L15.5781 8.10938
L49.2188 8.10938
z
" id="WenQuanYiMicroHei-32"/>
      </defs>
      <g transform="translate(120.181498482 196.594179063)scale(0.09996 -0.09996)">
       <use xlink:href="#WenQuanYiMicroHei-32"/>
      </g>
     </g>
    </g>
    <g id="xtick_4">
     <g id="line2d_10">
      <g>
       <use style="stroke:#000000;stroke-width:0.5;" x="170.235741786" xlink:href="#m93b0483c22" y="184.998780938"/>
      </g>
     </g>
     <g id="line2d_11">
      <g>
       <use style="stroke:#000000;stroke-width:0.5;" x="170.235741786" xlink:href="#m741efc42ff" y="12.1987809375"/>
      </g>
     </g>
     <g id="text_4">
      <!-- 3 -->
      <defs>
       <path d="
M46.9219 54.6875
Q46.9219 51.125 45.7969 48.1875
Q44.6719 45.2656 42.6406 43.1094
Q40.625 40.9688 37.7969 39.5781
Q34.9688 38.1875 31.5 37.5938
L31.5 37.3125
Q40.1406 36.2344 44.625 31.8125
Q49.125 27.3906 49.125 20.3125
Q49.125 15.625 47.5312 11.7188
Q45.9531 7.8125 42.7188 4.98438
Q39.5 2.15625 34.5625 0.578125
Q29.6406 -0.984375 22.9062 -0.984375
Q17.5781 -0.984375 12.8594 -0.140625
Q8.15625 0.6875 4 2.875
L4 11.1875
Q8.25 8.9375 13.2031 7.71875
Q18.1719 6.5 22.7031 6.5
Q27.2031 6.5 30.4688 7.46875
Q33.7344 8.45312 35.8594 10.25
Q37.9844 12.0625 38.9844 14.6875
Q39.9844 17.3281 39.9844 20.6094
Q39.9844 23.9219 38.6875 26.2812
Q37.4062 28.6562 35.0156 30.1875
Q32.625 31.7344 29.1719 32.4688
Q25.7344 33.2031 21.3906 33.2031
L14.8906 33.2031
L14.8906 40.5781
L21.3906 40.5781
Q25.3438 40.5781 28.4219 41.5469
Q31.5 42.5312 33.5625 44.3281
Q35.6406 46.1406 36.7188 48.625
Q37.7969 51.125 37.7969 54.1094
Q37.7969 56.6406 36.9062 58.6406
Q36.0312 60.6406 34.4219 62.0312
Q32.8125 63.4219 30.5625 64.1562
Q28.3281 64.8906 25.5938 64.8906
Q20.3594 64.8906 16.375 63.25
Q12.4062 61.625 8.79688 58.9844
L4.29688 65.0938
Q6.15625 66.6094 8.42188 67.9219
Q10.6875 69.2344 13.375 70.2344
Q16.0625 71.2344 19.1094 71.8125
Q22.1719 72.4062 25.5938 72.4062
Q30.8594 72.4062 34.8281 71.0938
Q38.8125 69.7812 41.5 67.4062
Q44.1875 65.0469 45.5469 61.7969
Q46.9219 58.5469 46.9219 54.6875" id="WenQuanYiMicroHei-33"/>
      </defs>
      <g transform="translate(167.980394286 196.594179063)scale(0.09996 -0.09996)">
       <use xlink:href="#WenQuanYiMicroHei-33"/>
      </g>
     </g>
    </g>
    <g id="xtick_5">
     <g id="line2d_12">
      <g>
       <use style="stroke:#000000;stroke-width:0.5;" x="218.064313214" xlink:href="#m93b0483c22" y="184.998780938"/>
      </g>
     </g>
     <g id="line2d_13">
      <g>
       <use style="stroke:#000000;stroke-width:0.5;" x="218.064313214" xlink:href="#m741efc42ff" y="12.1987809375"/>
      </g>
     </g>
     <g id="text_5">
      <!-- 4 -->
      <defs>
       <path d="
M53.0781 16.0156
L42.6719 16.0156
L42.6719 0
L34.0781 0
L34.0781 16.0156
L1.125 16.0156
L1.125 23.7812
L33.5 71.7812
L42.6719 71.7812
L42.6719 24.125
L53.0781 24.125
z

M34.0781 24.125
L34.0781 41.5
Q34.0781 44.2344 34.1562 47.2344
Q34.2344 50.25 34.3281 53.0938
Q34.4219 55.9531 34.5469 58.4375
Q34.6719 60.9375 34.7188 62.5938
L34.2812 62.5938
Q33.9375 61.625 33.4219 60.4219
Q32.9062 59.2344 32.2969 58.0312
Q31.6875 56.8438 31.0469 55.7188
Q30.4219 54.5938 29.8906 53.8125
L9.8125 24.125
z
" id="WenQuanYiMicroHei-34"/>
      </defs>
      <g transform="translate(215.467696027 196.594179063)scale(0.09996 -0.09996)">
       <use xlink:href="#WenQuanYiMicroHei-34"/>
      </g>
     </g>
    </g>
    <g id="xtick_6">
     <g id="line2d_14">
      <g>
       <use style="stroke:#000000;stroke-width:0.5;" x="265.892884643" xlink:href="#m93b0483c22" y="184.998780938"/>
      </g>
     </g>
     <g id="line2d_15">
      <g>
       <use style="stroke:#000000;stroke-width:0.5;" x="265.892884643" xlink:href="#m741efc42ff" y="12.1987809375"/>
      </g>
     </g>
     <g id="text_6">
      <!-- 5 -->
      <defs>
       <path d="
M26.6094 43.7969
Q31.4531 43.7969 35.625 42.4531
Q39.7969 41.1094 42.8906 38.4688
Q46 35.8438 47.75 31.9375
Q49.5156 28.0312 49.5156 22.9062
Q49.5156 17.3281 47.8438 12.8906
Q46.1875 8.45312 42.9219 5.375
Q39.6562 2.29688 34.8438 0.65625
Q30.0312 -0.984375 23.7812 -0.984375
Q21.2969 -0.984375 18.875 -0.734375
Q16.4531 -0.484375 14.2344 -0.015625
Q12.0156 0.4375 10.0156 1.17188
Q8.01562 1.90625 6.39062 2.875
L6.39062 11.2812
Q8.01562 10.1562 10.1875 9.28125
Q12.3594 8.40625 14.75 7.8125
Q17.1406 7.23438 19.5469 6.90625
Q21.9688 6.59375 24.0312 6.59375
Q27.875 6.59375 30.9062 7.5
Q33.9375 8.40625 36.0312 10.2969
Q38.1406 12.2031 39.25 15.0781
Q40.375 17.9688 40.375 21.9219
Q40.375 28.9062 36.0781 32.5938
Q31.7812 36.2812 23.5781 36.2812
Q22.2656 36.2812 20.7188 36.1562
Q19.1875 36.0312 17.6406 35.8281
Q16.1094 35.6406 14.7188 35.4219
Q13.3281 35.2031 12.3125 35.0156
L7.90625 37.7969
L10.5938 71.3906
L44.2812 71.3906
L44.2812 63.2812
L18.3125 63.2812
L16.4062 42.8281
Q17.9688 43.1094 20.5312 43.4531
Q23.0938 43.7969 26.6094 43.7969" id="WenQuanYiMicroHei-35"/>
      </defs>
      <g transform="translate(263.737497143 196.594179063)scale(0.09996 -0.09996)">
       <use xlink:href="#WenQuanYiMicroHei-35"/>
      </g>
     </g>
    </g>
    <g id="xtick_7">
     <g id="line2d_16">
      <g>
       <use style="stroke:#000000;stroke-width:0.5;" x="313.721456071" xlink:href="#m93b0483c22" y="184.998780938"/>
      </g>
     </g>
     <g id="line2d_17">
      <g>
       <use style="stroke:#000000;stroke-width:0.5;" x="313.721456071" xlink:href="#m741efc42ff" y="12.1987809375"/>
      </g>
     </g>
     <g id="text_7">
      <!-- 6 -->
      <defs>
       <path d="
M5.51562 30.5156
Q5.51562 35.6406 6.03125 40.7188
Q6.54688 45.7969 7.82812 50.4531
Q9.125 55.125 11.375 59.125
Q13.625 63.1406 17.0938 66.0938
Q20.5625 69.0469 25.3906 70.7188
Q30.2188 72.4062 36.7188 72.4062
Q37.6406 72.4062 38.7656 72.3594
Q39.8906 72.3125 41.0312 72.1875
Q42.1875 72.0781 43.2344 71.9062
Q44.2812 71.7344 45.125 71.4844
L45.125 63.9219
Q43.4062 64.5 41.25 64.7969
Q39.1094 65.0938 37.0156 65.0938
Q32.625 65.0938 29.2656 64.0312
Q25.9219 62.9844 23.4844 61.0781
Q21.0469 59.1875 19.4062 56.5469
Q17.7812 53.9062 16.75 50.7031
Q15.7188 47.5156 15.2344 43.8906
Q14.75 40.2812 14.5938 36.375
L15.1875 36.375
Q16.1562 38.1406 17.5469 39.6719
Q18.9531 41.2188 20.7969 42.3125
Q22.6562 43.4062 24.9688 44.0312
Q27.2969 44.6719 30.1719 44.6719
Q34.8125 44.6719 38.5625 43.2344
Q42.3281 41.7969 44.9688 39.0156
Q47.6094 36.2344 49.0469 32.2031
Q50.4844 28.1719 50.4844 23
Q50.4844 17.4375 48.9688 12.9844
Q47.4688 8.54688 44.625 5.4375
Q41.7969 2.34375 37.7969 0.671875
Q33.7969 -0.984375 28.8125 -0.984375
Q23.9219 -0.984375 19.6406 0.921875
Q15.375 2.82812 12.25 6.73438
Q9.125 10.6406 7.3125 16.5469
Q5.51562 22.4688 5.51562 30.5156
M28.7188 6.5
Q31.6406 6.5 34.0469 7.5
Q36.4688 8.5 38.2188 10.5156
Q39.9844 12.5469 40.9375 15.6406
Q41.8906 18.75 41.8906 23
Q41.8906 26.4219 41.0781 29.125
Q40.2812 31.8438 38.6719 33.7344
Q37.0625 35.6406 34.6406 36.6719
Q32.2344 37.7031 29 37.7031
Q25.7344 37.7031 23.0156 36.5469
Q20.3125 35.4062 18.4062 33.5625
Q16.5 31.7344 15.4531 29.3906
Q14.4062 27.0469 14.4062 24.7031
Q14.4062 21.4375 15.3125 18.1875
Q16.2188 14.9375 18 12.3438
Q19.7812 9.76562 22.4531 8.125
Q25.1406 6.5 28.7188 6.5" id="WenQuanYiMicroHei-36"/>
      </defs>
      <g transform="translate(311.473917946 196.594179063)scale(0.09996 -0.09996)">
       <use xlink:href="#WenQuanYiMicroHei-36"/>
      </g>
     </g>
    </g>
    <g id="xtick_8">
     <g id="line2d_18">
      <g>
       <use style="stroke:#000000;stroke-width:0.5;" x="361.5500275" xlink:href="#m93b0483c22" y="184.998780938"/>
      </g>
     </g>
     <g id="line2d_19">
      <g>
       <use style="stroke:#000000;stroke-width:0.5;" x="361.5500275" xlink:href="#m741efc42ff" y="12.1987809375"/>
      </g>
     </g>
     <g id="text_8">
      <!-- 7 -->
      <defs>
       <path d="
M13.7188 0
L41.2188 63.2812
L4.39062 63.2812
L4.39062 71.3906
L50.2969 71.3906
L50.2969 64.3125
L23.1875 0
z
" id="WenQuanYiMicroHei-37"/>
      </defs>
      <g transform="translate(359.255633125 196.594179063)scale(0.09996 -0.09996)">
       <use xlink:href="#WenQuanYiMicroHei-37"/>
      </g>
     </g>
    </g>
   </g>
   <g id="matplotlib.axis_2">
    <g id="ytick_1">
     <g id="line2d_20">
      <defs>
       <path d="
M0 0
L4 0" id="m728421d6d4" style="stroke:#000000;stroke-width:0.5;"/>
      </defs>
      <g>
       <use style="stroke:#000000;stroke-width:0.5;" x="26.7500275" xlink:href="#m728421d6d4" y="184.998780937"/>
      </g>
     </g>
     <g id="line2d_21">
      <defs>
       <path d="
M0 0
L-4 0" id="mcb0005524f" style="stroke:#000000;stroke-width:0.5;"/>
      </defs>
      <g>
       <use style="stroke:#000000;stroke-width:0.5;" x="361.5500275" xlink:href="#mcb0005524f" y="184.998780937"/>
      </g>
     </g>
     <g id="text_9">
      <!-- −15 -->
      <defs>
       <path d="
M4.98438 31.5938
L4.98438 38.9219
L50.0938 38.9219
L50.0938 31.5938
z
" id="WenQuanYiMicroHei-2212"/>
      </defs>
      <g transform="translate(7.287465 187.595398125)scale(0.09996 -0.09996)">
       <use xlink:href="#WenQuanYiMicroHei-2212"/>
       <use x="55.078125" xlink:href="#WenQuanYiMicroHei-31"/>
       <use x="110.15625" xlink:href="#WenQuanYiMicroHei-35"/>
      </g>
     </g>
    </g>
    <g id="ytick_2">
     <g id="line2d_22">
      <g>
       <use style="stroke:#000000;stroke-width:0.5;" x="26.7500275" xlink:href="#m728421d6d4" y="156.198780938"/>
      </g>
     </g>
     <g id="line2d_23">
      <g>
       <use style="stroke:#000000;stroke-width:0.5;" x="361.5500275" xlink:href="#mcb0005524f" y="156.198780938"/>
      </g>
     </g>
     <g id="text_10">
      <!-- −10 -->
      <g transform="translate(7.2 158.795398125)scale(0.09996 -0.09996)">
       <use xlink:href="#WenQuanYiMicroHei-2212"/>
       <use x="55.078125" xlink:href="#WenQuanYiMicroHei-31"/>
       <use x="110.15625" xlink:href="#WenQuanYiMicroHei-30"/>
      </g>
     </g>
    </g>
    <g id="ytick_3">
     <g id="line2d_24">
      <g>
       <use style="stroke:#000000;stroke-width:0.5;" x="26.7500275" xlink:href="#m728421d6d4" y="127.398780937"/>
      </g>
     </g>
     <g id="line2d_25">
      <g>
       <use style="stroke:#000000;stroke-width:0.5;" x="361.5500275" xlink:href="#mcb0005524f" y="127.398780937"/>
      </g>
     </g>
     <g id="text_11">
      <!-- −5 -->
      <g transform="translate(12.793074375 129.995398125)scale(0.09996 -0.09996)">
       <use xlink:href="#WenQuanYiMicroHei-2212"/>
       <use x="55.078125" xlink:href="#WenQuanYiMicroHei-35"/>
      </g>
     </g>
    </g>
    <g id="ytick_4">
     <g id="line2d_26">
      <g>
       <use style="stroke:#000000;stroke-width:0.5;" x="26.7500275" xlink:href="#m728421d6d4" y="98.5987809375"/>
      </g>
     </g>
     <g id="line2d_27">
      <g>
       <use style="stroke:#000000;stroke-width:0.5;" x="361.5500275" xlink:href="#mcb0005524f" y="98.5987809375"/>
      </g>
     </g>
     <g id="text_12">
      <!-- 0 -->
      <g transform="translate(18.190914375 101.195398125)scale(0.09996 -0.09996)">
       <use xlink:href="#WenQuanYiMicroHei-30"/>
      </g>
     </g>
    </g>
    <g id="ytick_5">
     <g id="line2d_28">
      <g>
       <use style="stroke:#000000;stroke-width:0.5;" x="26.7500275" xlink:href="#m728421d6d4" y="69.7987809375"/>
      </g>
     </g>
     <g id="line2d_29">
      <g>
       <use style="stroke:#000000;stroke-width:0.5;" x="361.5500275" xlink:href="#mcb0005524f" y="69.7987809375"/>
      </g>
     </g>
     <g id="text_13">
      <!-- 5 -->
      <g transform="translate(18.4392525 72.395398125)scale(0.09996 -0.09996)">
       <use xlink:href="#WenQuanYiMicroHei-35"/>
      </g>
     </g>
    </g>
    <g id="ytick_6">
     <g id="line2d_30">
      <g>
       <use style="stroke:#000000;stroke-width:0.5;" x="26.7500275" xlink:href="#m728421d6d4" y="40.9987809375"/>
      </g>
     </g>
     <g id="line2d_31">
      <g>
       <use style="stroke:#000000;stroke-width:0.5;" x="361.5500275" xlink:href="#mcb0005524f" y="40.9987809375"/>
      </g>
     </g>
     <g id="text_14">
      <!-- 10 -->
      <g transform="translate(13.07577375 43.595398125)scale(0.09996 -0.09996)">
       <use xlink:href="#WenQuanYiMicroHei-31"/>
       <use x="55.078125" xlink:href="#WenQuanYiMicroHei-30"/>
      </g>
     </g>
    </g>
    <g id="ytick_7">
     <g id="line2d_32">
      <g>
       <use style="stroke:#000000;stroke-width:0.5;" x="26.7500275" xlink:href="#m728421d6d4" y="12.1987809375"/>
      </g>
     </g>
     <g id="line2d_33">
      <g>
       <use style="stroke:#000000;stroke-width:0.5;" x="361.5500275" xlink:href="#mcb0005524f" y="12.1987809375"/>
      </g>
     </g>
     <g id="text_15">
      <!-- 15 -->
      <g transform="translate(13.16323875 14.795398125)scale(0.09996 -0.09996)">
       <use xlink:href="#WenQuanYiMicroHei-31"/>
       <use x="55.078125" xlink:href="#WenQuanYiMicroHei-35"/>
      </g>
     </g>
    </g>
   </g>
   <g id="legend_1">
    <g id="patch_7">
     <path d="
M136.818 180.001
L251.483 180.001
L251.483 132.015
L136.818 132.015
z
" style="fill:#ffffff;stroke:#000000;stroke-linejoin:miter;"/>
    </g>
    <g id="line2d_34"/>
    <g id="line2d_35">
     <g>
      <use style="fill:#348abd;stroke:#000000;stroke-width:0.5;" x="143.814700938" xlink:href="#m8c6fd4390b" y="140.110493438"/>
      <use style="fill:#348abd;stroke:#000000;stroke-width:0.5;" x="157.809100938" xlink:href="#m8c6fd4390b" y="140.110493438"/>
     </g>
    </g>
    <g id="text_16">
     <!-- 带噪声的实验数据 -->
     <defs>
      <path d="
M42.1875 78.9062
L83.9844 78.9062
L83.9844 58.5938
L42.1875 58.5938
z

M50 65.2344
L76.1719 65.2344
L76.1719 72.2656
L50 72.2656
z

M34.7656 53.125
L60.1562 53.125
L60.1562 31.6406
L34.7656 31.6406
z

M42.1875 38.2812
L52.7344 38.2812
L52.7344 46.875
L42.1875 46.875
z

M66.4062 53.125
L91.7969 53.125
L91.7969 31.6406
L66.4062 31.6406
z

M73.8281 38.2812
L84.375 38.2812
L84.375 46.875
L73.8281 46.875
z

M33.9844 24.2188
L60.1562 24.2188
L60.1562 28.9062
L67.5781 28.9062
L67.5781 24.2188
L94.9219 24.2188
L94.9219 17.5781
L71.875 17.5781
Q81.6406 6.25 96.4844 1.17188
L92.5781 -6.25
Q78.125 0.390625 67.5781 13.2812
L67.5781 -8.98438
L60.1562 -8.98438
L60.1562 12.8906
Q50.7812 1.95312 35.1562 -5.46875
L30.0781 0.78125
Q45.3125 7.03125 55.8594 17.5781
L33.9844 17.5781
z

M30.0781 71.875
L30.0781 10.5469
L23.0469 10.5469
L23.0469 17.1875
L15.2344 17.1875
L15.2344 7.03125
L8.20312 7.03125
L8.20312 71.875
z

M15.2344 23.8281
L23.0469 23.8281
L23.0469 65.2344
L15.2344 65.2344
z
" id="WenQuanYiMicroHei-566a"/>
      <path d="
M58.9844 80.4688
L66.7969 78.9062
Q64.8438 71.4844 61.7188 64.4531
L92.1875 64.4531
Q92.1875 12.8906 88.6719 0.78125
Q85.9375 -8.98438 75.7812 -8.98438
Q70.7031 -8.98438 63.6719 -7.42188
L61.7188 0.78125
Q71.4844 -0.78125 75.7812 -0.78125
Q80.4688 -0.78125 81.6406 4.6875
Q83.9844 15.2344 83.9844 57.0312
L57.8125 57.0312
Q53.125 48.8281 47.6562 43.3594
L41.7969 48.8281
Q53.5156 61.7188 58.9844 80.4688
M62.1094 41.7969
Q67.9688 33.2031 71.875 22.6562
L64.4531 19.1406
Q60.5469 30.0781 54.6875 38.6719
z

M40.2344 67.9688
L40.2344 -2.73438
L33.2031 -2.73438
L33.2031 0.390625
L15.2344 0.390625
L15.2344 -5.46875
L8.20312 -5.46875
L8.20312 67.9688
L16.7969 67.9688
Q18.75 74.2188 19.5312 80.8594
L27.7344 79.2969
Q26.1719 73.0469 24.2188 67.9688
z

M33.2031 37.8906
L33.2031 60.5469
L15.2344 60.5469
L15.2344 37.8906
z

M15.2344 30.4688
L15.2344 7.8125
L33.2031 7.8125
L33.2031 30.4688
z
" id="WenQuanYiMicroHei-7684"/>
      <path d="
M6.25 73.8281
L46.4844 73.8281
L46.4844 81.25
L54.2969 81.25
L54.2969 73.8281
L93.75 73.8281
L93.75 66.4062
L54.2969 66.4062
L54.2969 58.2031
L87.5 58.2031
L87.5 50.7812
L13.2812 50.7812
L13.2812 58.2031
L46.4844 58.2031
L46.4844 66.4062
L6.25 66.4062
z

M80.8594 17.1875
L21.875 17.1875
Q21.0938 0 10.5469 -9.76562
L5.07812 -3.125
Q14.0625 5.46875 14.0625 25
L14.0625 44.5312
L88.6719 44.5312
L88.6719 10.1562
L80.8594 10.1562
z

M80.8594 37.1094
L55.4688 37.1094
L55.4688 24.6094
L80.8594 24.6094
z

M21.875 24.6094
L47.6562 24.6094
L47.6562 37.1094
L21.875 37.1094
z
" id="WenQuanYiMicroHei-58f0"/>
      <path d="
M50.7812 81.6406
Q53.5156 77.3438 55.0781 72.2656
L92.5781 72.2656
L92.5781 54.2969
L84.7656 54.2969
L84.7656 65.2344
L15.2344 65.2344
L15.2344 54.2969
L7.42188 54.2969
L7.42188 72.2656
L46.4844 72.2656
Q44.5312 76.1719 42.5781 79.2969
z

M6.64062 23.4375
L51.1719 23.4375
Q54.6875 30.8594 54.6875 40.2344
Q55.0781 41.0156 55.0781 60.1562
L63.2812 60.1562
Q63.2812 38.6719 62.8906 37.8906
Q62.8906 29.6875 60.5469 23.4375
L92.9688 23.4375
L92.9688 15.625
L56.6406 15.625
Q46.0938 -0.78125 14.8438 -8.98438
L10.5469 -1.5625
Q35.1562 4.6875 46.0938 15.625
L6.64062 15.625
z

M28.9062 56.6406
Q39.8438 51.5625 49.2188 44.9219
L43.75 39.0625
Q34.7656 45.7031 24.2188 50.3906
z

M19.5312 43.3594
Q30.4688 38.2812 39.4531 31.6406
L33.9844 25.7812
Q25 32.4219 14.8438 37.1094
z

M67.9688 12.8906
Q82.4219 5.07812 94.1406 -1.95312
L89.0625 -8.20312
L62.8906 7.03125
z
" id="WenQuanYiMicroHei-5b9e"/>
      <path d="
M66.7969 64.4531
L92.9688 64.4531
L92.9688 57.0312
L88.6719 57.0312
Q86.3281 29.6875 77.7344 15.625
Q84.7656 6.25 95.7031 -1.5625
L89.8438 -8.98438
Q80.8594 -1.5625 73.0469 8.59375
Q65.2344 -1.95312 53.9062 -9.375
L48.4375 -2.34375
Q60.1562 4.6875 67.9688 16.0156
Q62.5 25.3906 57.8125 37.1094
L54.6875 30.4688
L48.4375 35.1562
Q58.2031 55.8594 62.5 80.8594
L70.3125 78.5156
Q68.75 71.0938 66.7969 64.4531
M80.8594 57.0312
L64.8438 57.0312
Q64.4531 55.0781 62.1094 48.0469
Q66.7969 33.9844 72.6562 23.8281
Q77.7344 34.7656 80.0781 50.3906
L80.0781 50.7812
z

M7.03125 64.0625
L27.3438 64.0625
L27.3438 80.4688
L34.375 80.4688
L34.375 64.0625
L53.125 64.0625
L53.125 57.4219
L34.375 57.4219
L34.375 39.4531
L27.3438 39.4531
L27.3438 51.5625
Q20.7031 42.1875 11.7188 36.3281
L6.64062 42.5781
Q16.4062 47.6562 23.8281 57.4219
L7.03125 57.4219
z

M16.4062 78.9062
Q19.5312 74.2188 21.4844 68.3594
L15.2344 65.2344
Q13.2812 71.0938 10.5469 76.1719
z

M45.3125 78.9062
L51.1719 76.1719
Q47.6562 69.5312 43.75 66.0156
L38.6719 70.7031
Q42.5781 74.2188 45.3125 78.9062
M42.5781 53.9062
Q46.875 49.2188 49.6094 44.1406
L43.75 40.625
Q41.4062 46.0938 37.1094 50.7812
z

M6.64062 31.25
L21.875 31.25
Q23.4375 34.375 24.6094 37.5
L32.0312 36.7188
L29.6875 31.25
L47.2656 31.25
L47.2656 24.6094
Q42.5781 14.4531 35.9375 7.42188
Q42.5781 3.51562 48.0469 0
L43.3594 -7.03125
Q38.2812 -2.73438 30.0781 1.95312
Q21.875 -5.07812 8.20312 -9.375
L5.85938 -2.73438
Q16.0156 0.390625 23.4375 5.46875
Q17.1875 8.98438 9.76562 12.5
Q14.4531 18.75 17.9688 24.6094
L6.64062 24.6094
z

M26.1719 24.6094
Q23.4375 19.5312 20.3125 15.625
L29.6875 10.9375
Q35.5469 17.1875 39.0625 24.6094
z
" id="WenQuanYiMicroHei-6570"/>
      <path d="
M7.42188 77.7344
L37.1094 77.7344
L34.375 36.7188
L41.0156 36.7188
Q39.8438 4.6875 36.7188 -1.95312
Q33.5938 -8.59375 26.5625 -8.59375
L20.7031 -8.59375
L19.1406 -1.17188
Q27.7344 -1.17188 28.5156 -0.390625
Q30.0781 1.17188 30.8594 6.25
Q32.0312 13.6719 32.4219 29.6875
L8.59375 29.6875
L11.7188 64.8438
L18.75 63.6719
L16.7969 36.7188
L26.9531 36.7188
L29.6875 71.0938
L7.42188 71.0938
z

M25 22.2656
L26.5625 15.2344
Q18.75 9.375 8.98438 5.07812
L6.25 12.8906
Q16.4062 16.7969 25 22.2656
M64.0625 79.6875
L71.875 77.3438
Q71.0938 75.3906 69.9219 73.4375
Q81.6406 57.8125 94.5312 49.6094
L90.2344 41.7969
Q86.7188 44.1406 83.5938 46.875
L83.5938 41.0156
L49.6094 41.0156
L49.6094 46.0938
Q46.4844 43.75 43.75 41.4062
L39.0625 48.4375
Q56.25 63.2812 64.0625 79.6875
M51.5625 48.0469
L82.4219 48.0469
Q74.6094 55.0781 66.0156 66.7969
Q58.9844 55.4688 51.5625 48.0469
M42.5781 2.34375
L70.7031 2.34375
Q76.9531 19.5312 80.4688 36.3281
L88.6719 33.5938
Q83.9844 15.625 78.5156 2.34375
L92.5781 2.34375
L92.5781 -5.46875
L42.5781 -5.46875
z

M66.0156 35.1562
Q69.1406 24.2188 70.7031 12.8906
L62.8906 10.9375
Q62.1094 23.0469 58.9844 33.5938
z

M51.1719 32.8125
Q55.8594 20.7031 57.0312 7.8125
L50 5.85938
Q48.4375 19.5312 44.1406 31.25
z
" id="WenQuanYiMicroHei-9a8c"/>
      <path d="
M22.6562 80.8594
L30.4688 80.8594
L30.4688 71.4844
L46.0938 71.4844
L46.0938 81.25
L53.9062 81.25
L53.9062 71.4844
L69.1406 71.4844
L69.1406 81.25
L76.9531 81.25
L76.9531 71.4844
L92.5781 71.4844
L92.5781 64.0625
L76.9531 64.0625
L76.9531 51.9531
L69.1406 51.9531
L69.1406 64.0625
L53.9062 64.0625
L53.9062 52.3438
L46.0938 52.3438
L46.0938 64.0625
L30.4688 64.0625
L30.4688 51.9531
L22.6562 51.9531
L22.6562 64.0625
L7.42188 64.0625
L7.42188 71.4844
L22.6562 71.4844
z

M92.5781 48.8281
L92.5781 30.8594
L84.7656 30.8594
L84.7656 41.7969
L14.8438 41.7969
L14.8438 30.4688
L7.03125 30.4688
L7.03125 48.8281
z

M81.25 29.2969
L81.25 7.42188
Q81.25 2.73438 78.9062 0.390625
Q76.5625 -1.95312 71.4844 -1.95312
Q67.1875 -1.95312 61.3281 -1.17188
L59.375 6.25
Q67.1875 5.46875 71.0938 5.46875
Q74.2188 5.46875 74.2188 9.375
L74.2188 22.2656
L53.5156 22.2656
L53.5156 -9.76562
L45.7031 -9.76562
L45.7031 22.2656
L25 22.2656
L25 -2.34375
L17.1875 -2.34375
L17.1875 29.2969
L45.7031 29.2969
L45.7031 38.6719
L53.5156 38.6719
L53.5156 29.2969
z
" id="WenQuanYiMicroHei-5e26"/>
      <path d="
M5.46875 64.4531
L17.5781 64.4531
L17.5781 80.8594
L25.3906 80.8594
L25.3906 64.4531
L33.2031 64.4531
L33.2031 57.0312
L25.3906 57.0312
L25.3906 37.8906
L34.375 42.1875
L35.9375 35.1562
Q30.8594 32.0312 25.3906 29.2969
L25.3906 1.95312
Q25.3906 -4.29688 23.4375 -6.64062
Q21.4844 -8.98438 15.625 -8.98438
Q10.9375 -8.98438 7.03125 -7.42188
L5.46875 0.390625
Q9.76562 -1.17188 14.4531 -1.17188
Q16.0156 -1.17188 16.7969 -0.1875
Q17.5781 0.78125 17.5781 3.51562
L17.5781 25.7812
L7.8125 21.875
L4.6875 30.0781
L17.5781 34.7656
L17.5781 57.0312
L5.46875 57.0312
z

M66.0156 35.1562
L46.875 35.1562
Q46.0938 10.5469 38.6719 -8.20312
L31.6406 -3.90625
Q39.4531 16.7969 39.4531 40.625
L39.4531 76.9531
L90.625 76.9531
L90.625 53.125
L73.4375 53.125
L73.4375 42.1875
L94.1406 42.1875
L94.1406 35.1562
L73.4375 35.1562
L73.4375 23.8281
L90.2344 23.8281
L90.2344 -8.98438
L82.8125 -8.98438
L82.8125 -3.125
L57.0312 -3.125
L57.0312 -8.98438
L49.6094 -8.98438
L49.6094 23.8281
L66.0156 23.8281
z

M83.2031 69.9219
L46.875 69.9219
L46.875 60.1562
L83.2031 60.1562
z

M46.875 53.125
L46.875 42.1875
L66.0156 42.1875
L66.0156 53.125
z

M57.0312 3.90625
L82.8125 3.90625
L82.8125 16.7969
L57.0312 16.7969
z
" id="WenQuanYiMicroHei-636e"/>
     </defs>
     <g transform="translate(168.804700938 143.609093438)scale(0.09996 -0.09996)">
      <use xlink:href="#WenQuanYiMicroHei-5e26"/>
      <use x="100.0" xlink:href="#WenQuanYiMicroHei-566a"/>
      <use x="200.0" xlink:href="#WenQuanYiMicroHei-58f0"/>
      <use x="300.0" xlink:href="#WenQuanYiMicroHei-7684"/>
      <use x="400.0" xlink:href="#WenQuanYiMicroHei-5b9e"/>
      <use x="500.0" xlink:href="#WenQuanYiMicroHei-9a8c"/>
      <use x="600.0" xlink:href="#WenQuanYiMicroHei-6570"/>
      <use x="700.0" xlink:href="#WenQuanYiMicroHei-636e"/>
     </g>
    </g>
    <g id="line2d_36">
     <path d="
M143.815 155.106
L157.809 155.106" style="fill:none;stroke:#a60628;stroke-linecap:square;stroke-width:2.0;"/>
    </g>
    <g id="line2d_37"/>
    <g id="text_17">
     <!-- 真实数据 -->
     <defs>
      <path d="
M48.0469 80.8594
L55.8594 80.8594
L55.0781 73.8281
L89.4531 73.8281
L89.4531 66.7969
L53.9062 66.7969
L53.125 60.9375
L80.4688 60.9375
L80.4688 14.0625
L94.1406 14.0625
L94.1406 7.03125
L5.85938 7.03125
L5.85938 14.0625
L20.7031 14.0625
L20.7031 60.9375
L45.3125 60.9375
L46.0938 66.7969
L9.375 66.7969
L9.375 73.8281
L47.2656 73.8281
z

M73.0469 48.4375
L73.0469 53.9062
L28.125 53.9062
L28.125 48.4375
z

M28.125 36.7188
L73.0469 36.7188
L73.0469 42.5781
L28.125 42.5781
z

M28.125 25.3906
L73.0469 25.3906
L73.0469 30.8594
L28.125 30.8594
z

M28.125 14.0625
L73.0469 14.0625
L73.0469 19.5312
L28.125 19.5312
z

M35.1562 5.85938
L41.7969 0.390625
Q30.0781 -5.85938 13.6719 -9.76562
L8.98438 -3.125
Q23.4375 0 35.1562 5.85938
M61.3281 5.46875
Q75.7812 2.73438 90.2344 -2.34375
L85.9375 -9.76562
Q71.4844 -3.51562 56.6406 -0.78125
z
" id="WenQuanYiMicroHei-771f"/>
     </defs>
     <g transform="translate(168.804700938 158.604655313)scale(0.09996 -0.09996)">
      <use xlink:href="#WenQuanYiMicroHei-771f"/>
      <use x="100.0" xlink:href="#WenQuanYiMicroHei-5b9e"/>
      <use x="200.0" xlink:href="#WenQuanYiMicroHei-6570"/>
      <use x="300.0" xlink:href="#WenQuanYiMicroHei-636e"/>
     </g>
    </g>
    <g id="line2d_38">
     <path d="
M143.815 170.102
L157.809 170.102" style="fill:none;stroke:#7a68a6;stroke-linecap:square;stroke-width:2.0;"/>
    </g>
    <g id="line2d_39"/>
    <g id="text_18">
     <!-- 拟合数据 -->
     <defs>
      <path d="
M49.2188 82.0312
L57.4219 79.6875
Q56.25 78.125 54.6875 76.5625
Q74.2188 60.9375 95.7031 52.3438
L91.0156 44.5312
Q70.3125 53.5156 50 71.4844
Q31.6406 54.2969 8.20312 43.75
L3.90625 50.7812
Q35.5469 65.625 49.2188 82.0312
M20.3125 48.4375
L79.2969 48.4375
L79.2969 40.625
L20.3125 40.625
z

M82.8125 30.0781
L82.8125 -8.98438
L75 -8.98438
L75 -2.73438
L24.2188 -2.73438
L24.2188 -8.98438
L16.4062 -8.98438
L16.4062 30.0781
z

M24.2188 4.6875
L75 4.6875
L75 22.6562
L24.2188 22.6562
z
" id="WenQuanYiMicroHei-5408"/>
      <path d="
M5.46875 64.4531
L17.5781 64.4531
L17.5781 80.8594
L25.3906 80.8594
L25.3906 64.4531
L33.2031 64.4531
L33.2031 57.0312
L25.3906 57.0312
L25.3906 37.8906
L34.375 42.1875
L35.9375 35.1562
Q30.8594 32.0312 25.3906 29.2969
L25.3906 1.95312
Q25.3906 -4.29688 23.4375 -6.64062
Q21.4844 -8.98438 15.625 -8.98438
Q10.9375 -8.98438 7.03125 -7.42188
L5.46875 0.390625
Q9.76562 -1.17188 14.4531 -1.17188
Q16.0156 -1.17188 16.7969 -0.1875
Q17.5781 0.78125 17.5781 3.51562
L17.5781 25.7812
L7.8125 21.875
L4.6875 30.0781
L17.5781 34.7656
L17.5781 57.0312
L5.46875 57.0312
z

M57.8125 78.9062
Q65.625 65.2344 70.7031 49.2188
L63.6719 46.0938
Q58.5938 62.5 51.1719 75.7812
z

M77.3438 78.125
L84.7656 78.125
Q84.7656 35.1562 79.2969 21.0938
Q87.8906 10.9375 94.5312 -1.95312
L89.0625 -8.20312
Q83.2031 3.90625 76.1719 12.8906
Q69.5312 0 56.6406 -8.59375
L52.7344 -1.5625
Q66.7969 7.8125 72.6562 25.7812
Q77.3438 39.8438 77.3438 78.125
M39.8438 70.7031
L47.2656 70.7031
L47.2656 12.8906
Q53.125 17.1875 58.5938 22.2656
L61.7188 16.0156
Q54.2969 9.375 44.5312 2.73438
L39.8438 7.8125
z
" id="WenQuanYiMicroHei-62df"/>
     </defs>
     <g transform="translate(168.804700938 173.600217187)scale(0.09996 -0.09996)">
      <use xlink:href="#WenQuanYiMicroHei-62df"/>
      <use x="100.0" xlink:href="#WenQuanYiMicroHei-5408"/>
      <use x="200.0" xlink:href="#WenQuanYiMicroHei-6570"/>
      <use x="300.0" xlink:href="#WenQuanYiMicroHei-636e"/>
     </g>
    </g>
   </g>
  </g>
 </g>
 <defs>
  <clipPath id="pcacfc7f21a">
   <rect height="172.8" width="334.8" x="26.7500275" y="12.1987809375"/>
  </clipPath>
 </defs>
</svg>
