<?xml version="1.0" encoding="utf-8" standalone="no"?>
<!DOCTYPE svg PUBLIC "-//W3C//DTD SVG 1.1//EN"
  "http://www.w3.org/Graphics/SVG/1.1/DTD/svg11.dtd">
<!-- Created with matplotlib (http://matplotlib.org/) -->
<svg height="206pt" version="1.1" viewBox="0 0 376 206" width="376pt" xmlns="http://www.w3.org/2000/svg" xmlns:xlink="http://www.w3.org/1999/xlink">
 <defs>
  <style type="text/css">
*{stroke-linecap:butt;stroke-linejoin:round;}
  </style>
 </defs>
 <g id="figure_1">
  <g id="patch_1">
   <path d="
M0 206.196
L376.267 206.196
L376.267 0
L0 0
z
" style="fill:#ffffff;"/>
  </g>
  <g id="axes_1">
   <g id="patch_2">
    <path d="
M29.4302 184.999
L364.23 184.999
L364.23 12.1988
L29.4302 12.1988
z
" style="fill:#ffffff;"/>
   </g>
   <g id="line2d_1">
    <path clip-path="url(#p7559c7b864)" d="
M29.4302 33.7988
L32.812 34.6804
L36.1938 35.562
L39.5757 36.4437
L42.9575 37.3253
L46.3393 38.2069
L49.7211 39.0886
L53.1029 39.9702
L56.4848 40.8518
L59.8666 41.7335
L63.2484 42.6151
L66.6302 43.4967
L70.012 44.3784
L73.3938 45.26
L76.7757 46.1416
L80.1575 47.0233
L83.5393 47.9049
L86.9211 48.7865
L90.3029 49.6682
L93.6848 50.5498
L97.0666 51.4314
L100.448 52.3131
L103.83 53.1947
L107.212 54.0763
L110.594 54.958
L113.976 55.8396
L117.357 56.7212
L120.739 57.6029
L124.121 58.4845
L127.503 59.3661
L130.885 60.2478
L134.267 61.1294
L137.648 62.011
L141.03 62.8927
L144.412 63.7743
L147.794 64.6559
L151.176 65.5376
L154.557 66.4192
L157.939 67.3008
L161.321 68.1825
L164.703 69.0641
L168.085 69.9457
L171.467 70.8274
L174.848 71.709
L178.23 72.5906
L181.612 73.4723
L184.994 74.3539
L188.376 75.2355
L191.757 76.1171
L195.139 76.9988
L198.521 76.9988
L201.903 76.1171
L205.285 75.2355
L208.667 74.3539
L212.048 73.4723
L215.43 72.5906
L218.812 71.709
L222.194 70.8274
L225.576 69.9457
L228.957 69.0641
L232.339 68.1825
L235.721 67.3008
L239.103 66.4192
L242.485 65.5376
L245.867 64.6559
L249.248 63.7743
L252.63 62.8927
L256.012 62.011
L259.394 61.1294
L262.776 60.2478
L266.157 59.3661
L269.539 58.4845
L272.921 57.6029
L276.303 56.7212
L279.685 55.8396
L283.067 54.958
L286.448 54.0763
L289.83 53.1947
L293.212 52.3131
L296.594 51.4314
L299.976 50.5498
L303.357 49.6682
L306.739 48.7865
L310.121 47.9049
L313.503 47.0233
L316.885 46.1416
L320.267 45.26
L323.648 44.3784
L327.03 43.4967
L330.412 42.6151
L333.794 41.7335
L337.176 40.8518
L340.557 39.9702
L343.939 39.0886
L347.321 38.2069
L350.703 37.3253
L354.085 36.4437
L357.467 35.562
L360.848 34.6804
L364.23 33.7988" style="fill:none;stroke:#000000;stroke-dasharray:6.000000,6.000000;stroke-dashoffset:0.0;stroke-width:2.0;"/>
   </g>
   <g id="line2d_2">
    <path clip-path="url(#p7559c7b864)" d="
M29.4302 33.7988
L32.812 54.0034
L36.1938 63.4029
L39.5757 71.1501
L42.9575 77.8872
L46.3393 83.9502
L49.7211 89.4843
L53.1029 94.5844
L56.4848 99.3324
L59.8666 103.761
L63.2484 107.927
L66.6302 111.849
L70.012 115.552
L73.3938 119.065
L76.7757 122.388
L80.1575 125.552
L83.5393 128.555
L86.9211 131.42
L90.3029 134.149
L93.6848 136.741
L97.0666 139.221
L100.448 141.577
L103.83 143.823
L107.212 145.958
L110.594 147.988
L113.976 149.921
L117.357 151.75
L120.739 153.497
L124.121 155.148
L127.503 156.709
L130.885 158.192
L134.267 159.588
L137.648 160.9
L141.03 162.135
L144.412 163.282
L147.794 164.351
L151.176 165.347
L154.557 166.259
L157.939 167.1
L161.321 167.875
L164.703 168.569
L168.085 169.191
L171.467 169.751
L174.848 170.24
L178.23 170.655
L181.612 170.997
L184.994 171.273
L188.376 171.48
L191.757 171.616
L195.139 171.685
L198.521 171.683
L201.903 171.614
L205.285 171.481
L208.667 171.272
L212.048 170.997
L215.43 170.653
L218.812 170.234
L222.194 169.75
L225.576 169.191
L228.957 168.561
L232.339 167.866
L235.721 167.101
L239.103 166.254
L242.485 165.335
L245.867 164.348
L249.248 163.278
L252.63 162.125
L256.012 160.896
L259.394 159.58
L262.776 158.182
L266.157 156.705
L269.539 155.139
L272.921 153.484
L276.303 151.746
L279.685 149.908
L283.067 147.98
L286.448 145.949
L289.83 143.814
L293.212 141.57
L296.594 139.207
L299.976 136.738
L303.357 134.136
L306.739 131.412
L310.121 128.549
L313.503 125.54
L316.885 122.385
L320.267 119.052
L323.648 115.547
L327.03 111.842
L330.412 107.916
L333.794 103.759
L337.176 99.3214
L340.557 94.5803
L343.939 89.4763
L347.321 83.9444
L350.703 77.8808
L354.085 71.1454
L357.467 63.3998
L360.848 54.0025
L364.23 33.7988" style="fill:none;stroke:#348abd;stroke-linecap:square;stroke-width:2.0;"/>
   </g>
   <g id="line2d_3">
    <path clip-path="url(#p7559c7b864)" d="
M29.4302 33.7988
L29.7653 37.6447
L30.4356 41.7493
L31.441 46.3305
L32.7816 51.2769
L34.4572 56.5058
L36.468 61.9537
L38.814 67.5693
L41.1599 72.6238
L43.841 77.8892
L46.8572 83.307
L50.2086 88.8284
L53.5599 93.9227
L57.2464 99.116
L60.9329 103.943
L64.9545 108.849
L69.3113 113.793
L73.668 118.396
L78.3599 123.014
L83.0518 127.315
L87.7437 131.327
L92.7707 135.333
L97.7978 139.057
L103.16 142.742
L108.522 146.149
L113.884 149.295
L119.246 152.194
L124.944 155.018
L130.641 157.588
L136.338 159.916
L142.036 162.01
L147.733 163.878
L153.765 165.616
L159.798 167.115
L165.83 168.379
L171.863 169.413
L177.895 170.221
L183.928 170.804
L189.96 171.166
L195.992 171.307
L202.025 171.227
L208.057 170.927
L214.09 170.405
L220.122 169.66
L226.155 168.689
L232.187 167.489
L238.219 166.056
L244.252 164.385
L249.949 162.582
L255.646 160.556
L261.344 158.298
L267.041 155.8
L272.738 153.052
L278.1 150.227
L283.463 147.159
L288.825 143.835
L294.187 140.239
L299.214 136.604
L304.241 132.695
L309.268 128.49
L313.96 124.274
L318.652 119.75
L323.009 115.243
L327.365 110.409
L331.387 105.618
L335.409 100.466
L339.095 95.3787
L342.446 90.3979
L345.798 85.0134
L348.814 79.7486
L351.495 74.655
L354.176 69.0631
L356.522 63.6269
L358.533 58.4031
L360.209 53.4656
L361.549 48.9179
L362.555 44.9205
L363.56 39.8831
L363.895 37.6444
L364.23 32.9591
L364.23 32.9591" style="fill:none;stroke:#a60628;stroke-linecap:square;stroke-width:2.0;"/>
   </g>
   <g id="patch_3">
    <path d="
M29.4302 12.1988
L364.23 12.1988" style="fill:none;stroke:#000000;stroke-linecap:square;stroke-linejoin:miter;"/>
   </g>
   <g id="patch_4">
    <path d="
M364.23 184.999
L364.23 12.1988" style="fill:none;stroke:#000000;stroke-linecap:square;stroke-linejoin:miter;"/>
   </g>
   <g id="patch_5">
    <path d="
M29.4302 184.999
L364.23 184.999" style="fill:none;stroke:#000000;stroke-linecap:square;stroke-linejoin:miter;"/>
   </g>
   <g id="patch_6">
    <path d="
M29.4302 184.999
L29.4302 12.1988" style="fill:none;stroke:#000000;stroke-linecap:square;stroke-linejoin:miter;"/>
   </g>
   <g id="matplotlib.axis_1">
    <g id="xtick_1">
     <g id="line2d_4">
      <defs>
       <path d="
M0 0
L0 -4" id="m93b0483c22" style="stroke:#000000;stroke-width:0.5;"/>
      </defs>
      <g>
       <use style="stroke:#000000;stroke-width:0.5;" x="29.430205" xlink:href="#m93b0483c22" y="184.998780938"/>
      </g>
     </g>
     <g id="line2d_5">
      <defs>
       <path d="
M0 0
L0 4" id="m741efc42ff" style="stroke:#000000;stroke-width:0.5;"/>
      </defs>
      <g>
       <use style="stroke:#000000;stroke-width:0.5;" x="29.430205" xlink:href="#m741efc42ff" y="12.1987809375"/>
      </g>
     </g>
     <g id="text_1">
      <!-- 0 -->
      <defs>
       <path d="
M50.3906 35.7969
Q50.3906 27.1562 49.1406 20.3125
Q47.9062 13.4844 45.1406 8.73438
Q42.3906 4 38.0312 1.5
Q33.6875 -0.984375 27.4844 -0.984375
Q21.7344 -0.984375 17.4531 1.5
Q13.1875 4 10.375 8.73438
Q7.5625 13.4844 6.17188 20.3125
Q4.78125 27.1562 4.78125 35.7969
Q4.78125 44.4375 6.03125 51.2656
Q7.28125 58.1094 9.98438 62.8125
Q12.7031 67.5312 17.0156 70.0156
Q21.3438 72.5156 27.4844 72.5156
Q33.2969 72.5156 37.5938 70.0469
Q41.8906 67.5781 44.7188 62.8594
Q47.5625 58.1562 48.9688 51.3125
Q50.3906 44.4844 50.3906 35.7969
M13.8125 35.7969
Q13.8125 28.4688 14.5469 23
Q15.2812 17.5312 16.8906 13.8906
Q18.5 10.25 21.1094 8.42188
Q23.7344 6.59375 27.4844 6.59375
Q31.25 6.59375 33.8906 8.39062
Q36.5312 10.2031 38.2031 13.8125
Q39.8906 17.4375 40.6406 22.9219
Q41.4062 28.4219 41.4062 35.7969
Q41.4062 43.1094 40.6406 48.5781
Q39.8906 54.0469 38.2031 57.6562
Q36.5312 61.2812 33.8906 63.0781
Q31.25 64.8906 27.4844 64.8906
Q23.7344 64.8906 21.1094 63.0781
Q18.5 61.2812 16.8906 57.6562
Q15.2812 54.0469 14.5469 48.5781
Q13.8125 43.1094 13.8125 35.7969" id="WenQuanYiMicroHei-30"/>
      </defs>
      <g transform="translate(27.1506484375 196.594179063)scale(0.09996 -0.09996)">
       <use xlink:href="#WenQuanYiMicroHei-30"/>
      </g>
     </g>
    </g>
    <g id="xtick_2">
     <g id="line2d_6">
      <g>
       <use style="stroke:#000000;stroke-width:0.5;" x="96.390205" xlink:href="#m93b0483c22" y="184.998780938"/>
      </g>
     </g>
     <g id="line2d_7">
      <g>
       <use style="stroke:#000000;stroke-width:0.5;" x="96.390205" xlink:href="#m741efc42ff" y="12.1987809375"/>
      </g>
     </g>
     <g id="text_2">
      <!-- 2 -->
      <defs>
       <path d="
M49.2188 0
L4.6875 0
L4.6875 7.625
L21.7812 26.2188
Q25.4375 30.1719 28.3125 33.4375
Q31.2031 36.7188 33.2188 39.8438
Q35.25 42.9688 36.3281 46.1094
Q37.4062 49.2656 37.4062 52.9844
Q37.4062 55.8594 36.5781 58.0469
Q35.75 60.25 34.2031 61.7812
Q32.6719 63.3281 30.5625 64.1094
Q28.4688 64.8906 25.875 64.8906
Q21.2344 64.8906 17.5 63.0156
Q13.7656 61.1406 10.4062 58.2031
L5.42188 64.0156
Q7.375 65.7656 9.60938 67.2969
Q11.8594 68.8438 14.4531 69.9688
Q17.0469 71.0938 19.9219 71.75
Q22.7969 72.4062 25.9844 72.4062
Q30.6719 72.4062 34.4531 71.0938
Q38.2344 69.7812 40.8594 67.3125
Q43.5 64.8438 44.9375 61.2969
Q46.3906 57.7656 46.3906 53.3281
Q46.3906 49.1719 45.0938 45.4062
Q43.7969 41.6562 41.5312 38.0156
Q39.2656 34.375 36.1094 30.7031
Q32.9531 27.0469 29.2969 23.0938
L15.5781 8.5
L15.5781 8.10938
L49.2188 8.10938
z
" id="WenQuanYiMicroHei-32"/>
      </defs>
      <g transform="translate(94.164533125 196.594179063)scale(0.09996 -0.09996)">
       <use xlink:href="#WenQuanYiMicroHei-32"/>
      </g>
     </g>
    </g>
    <g id="xtick_3">
     <g id="line2d_8">
      <g>
       <use style="stroke:#000000;stroke-width:0.5;" x="163.350205" xlink:href="#m93b0483c22" y="184.998780938"/>
      </g>
     </g>
     <g id="line2d_9">
      <g>
       <use style="stroke:#000000;stroke-width:0.5;" x="163.350205" xlink:href="#m741efc42ff" y="12.1987809375"/>
      </g>
     </g>
     <g id="text_3">
      <!-- 4 -->
      <defs>
       <path d="
M53.0781 16.0156
L42.6719 16.0156
L42.6719 0
L34.0781 0
L34.0781 16.0156
L1.125 16.0156
L1.125 23.7812
L33.5 71.7812
L42.6719 71.7812
L42.6719 24.125
L53.0781 24.125
z

M34.0781 24.125
L34.0781 41.5
Q34.0781 44.2344 34.1562 47.2344
Q34.2344 50.25 34.3281 53.0938
Q34.4219 55.9531 34.5469 58.4375
Q34.6719 60.9375 34.7188 62.5938
L34.2812 62.5938
Q33.9375 61.625 33.4219 60.4219
Q32.9062 59.2344 32.2969 58.0312
Q31.6875 56.8438 31.0469 55.7188
Q30.4219 54.5938 29.8906 53.8125
L9.8125 24.125
z
" id="WenQuanYiMicroHei-34"/>
      </defs>
      <g transform="translate(160.753587813 196.594179063)scale(0.09996 -0.09996)">
       <use xlink:href="#WenQuanYiMicroHei-34"/>
      </g>
     </g>
    </g>
    <g id="xtick_4">
     <g id="line2d_10">
      <g>
       <use style="stroke:#000000;stroke-width:0.5;" x="230.310205" xlink:href="#m93b0483c22" y="184.998780938"/>
      </g>
     </g>
     <g id="line2d_11">
      <g>
       <use style="stroke:#000000;stroke-width:0.5;" x="230.310205" xlink:href="#m741efc42ff" y="12.1987809375"/>
      </g>
     </g>
     <g id="text_4">
      <!-- 6 -->
      <defs>
       <path d="
M5.51562 30.5156
Q5.51562 35.6406 6.03125 40.7188
Q6.54688 45.7969 7.82812 50.4531
Q9.125 55.125 11.375 59.125
Q13.625 63.1406 17.0938 66.0938
Q20.5625 69.0469 25.3906 70.7188
Q30.2188 72.4062 36.7188 72.4062
Q37.6406 72.4062 38.7656 72.3594
Q39.8906 72.3125 41.0312 72.1875
Q42.1875 72.0781 43.2344 71.9062
Q44.2812 71.7344 45.125 71.4844
L45.125 63.9219
Q43.4062 64.5 41.25 64.7969
Q39.1094 65.0938 37.0156 65.0938
Q32.625 65.0938 29.2656 64.0312
Q25.9219 62.9844 23.4844 61.0781
Q21.0469 59.1875 19.4062 56.5469
Q17.7812 53.9062 16.75 50.7031
Q15.7188 47.5156 15.2344 43.8906
Q14.75 40.2812 14.5938 36.375
L15.1875 36.375
Q16.1562 38.1406 17.5469 39.6719
Q18.9531 41.2188 20.7969 42.3125
Q22.6562 43.4062 24.9688 44.0312
Q27.2969 44.6719 30.1719 44.6719
Q34.8125 44.6719 38.5625 43.2344
Q42.3281 41.7969 44.9688 39.0156
Q47.6094 36.2344 49.0469 32.2031
Q50.4844 28.1719 50.4844 23
Q50.4844 17.4375 48.9688 12.9844
Q47.4688 8.54688 44.625 5.4375
Q41.7969 2.34375 37.7969 0.671875
Q33.7969 -0.984375 28.8125 -0.984375
Q23.9219 -0.984375 19.6406 0.921875
Q15.375 2.82812 12.25 6.73438
Q9.125 10.6406 7.3125 16.5469
Q5.51562 22.4688 5.51562 30.5156
M28.7188 6.5
Q31.6406 6.5 34.0469 7.5
Q36.4688 8.5 38.2188 10.5156
Q39.9844 12.5469 40.9375 15.6406
Q41.8906 18.75 41.8906 23
Q41.8906 26.4219 41.0781 29.125
Q40.2812 31.8438 38.6719 33.7344
Q37.0625 35.6406 34.6406 36.6719
Q32.2344 37.7031 29 37.7031
Q25.7344 37.7031 23.0156 36.5469
Q20.3125 35.4062 18.4062 33.5625
Q16.5 31.7344 15.4531 29.3906
Q14.4062 27.0469 14.4062 24.7031
Q14.4062 21.4375 15.3125 18.1875
Q16.2188 14.9375 18 12.3438
Q19.7812 9.76562 22.4531 8.125
Q25.1406 6.5 28.7188 6.5" id="WenQuanYiMicroHei-36"/>
      </defs>
      <g transform="translate(228.062666875 196.594179063)scale(0.09996 -0.09996)">
       <use xlink:href="#WenQuanYiMicroHei-36"/>
      </g>
     </g>
    </g>
    <g id="xtick_5">
     <g id="line2d_12">
      <g>
       <use style="stroke:#000000;stroke-width:0.5;" x="297.270205" xlink:href="#m93b0483c22" y="184.998780938"/>
      </g>
     </g>
     <g id="line2d_13">
      <g>
       <use style="stroke:#000000;stroke-width:0.5;" x="297.270205" xlink:href="#m741efc42ff" y="12.1987809375"/>
      </g>
     </g>
     <g id="text_5">
      <!-- 8 -->
      <defs>
       <path d="
M27.5938 72.5156
Q31.6875 72.5156 35.3281 71.4375
Q38.9688 70.3594 41.7188 68.2031
Q44.4844 66.0625 46.0938 62.8438
Q47.7031 59.625 47.7031 55.3281
Q47.7031 52.0469 46.7188 49.4062
Q45.75 46.7812 44.0312 44.6562
Q42.3281 42.5312 39.9844 40.8438
Q37.6406 39.1562 34.9062 37.7969
Q37.75 36.2812 40.4531 34.4219
Q43.1719 32.5625 45.2812 30.25
Q47.4062 27.9375 48.7031 25.0469
Q50 22.1719 50 18.6094
Q50 14.1094 48.3594 10.4688
Q46.7344 6.84375 43.7812 4.29688
Q40.8281 1.76562 36.6875 0.390625
Q32.5625 -0.984375 27.5938 -0.984375
Q22.2188 -0.984375 18.0469 0.328125
Q13.875 1.65625 11.0156 4.125
Q8.15625 6.59375 6.65625 10.1562
Q5.17188 13.7188 5.17188 18.2188
Q5.17188 21.875 6.26562 24.7969
Q7.375 27.7344 9.21875 30.0781
Q11.0781 32.4219 13.6094 34.2188
Q16.1562 36.0312 19 37.4062
Q16.6094 38.9219 14.5 40.7031
Q12.4062 42.4844 10.8594 44.6719
Q9.32812 46.875 8.42188 49.5312
Q7.51562 52.2031 7.51562 55.4219
Q7.51562 59.6719 9.15625 62.8594
Q10.7969 66.0625 13.5781 68.2031
Q16.3594 70.3594 20 71.4375
Q23.6406 72.5156 27.5938 72.5156
M13.9219 18.1094
Q13.9219 15.5312 14.7031 13.3594
Q15.4844 11.1875 17.1406 9.64062
Q18.7969 8.10938 21.3281 7.25
Q23.875 6.39062 27.3906 6.39062
Q30.8125 6.39062 33.4219 7.25
Q36.0312 8.10938 37.7812 9.6875
Q39.5469 11.2812 40.4219 13.5156
Q41.3125 15.7656 41.3125 18.5
Q41.3125 21.0469 40.3594 23.0938
Q39.4062 25.1406 37.625 26.8906
Q35.8438 28.6562 33.3438 30.2188
Q30.8594 31.7812 27.7812 33.2969
L26.3125 33.9844
Q20.1719 31.0625 17.0469 27.2656
Q13.9219 23.4844 13.9219 18.1094
M27.4844 65.0938
Q22.3125 65.0938 19.2656 62.5
Q16.2188 59.9062 16.2188 54.9844
Q16.2188 52.2031 17.0625 50.1875
Q17.9219 48.1875 19.4375 46.625
Q20.9531 45.0625 23.0781 43.8125
Q25.2031 42.5781 27.6875 41.4062
Q30.0312 42.4844 32.1094 43.75
Q34.1875 45.0156 35.7188 46.625
Q37.25 48.25 38.125 50.2969
Q39.0156 52.3438 39.0156 54.9844
Q39.0156 59.9062 35.9375 62.5
Q32.8594 65.0938 27.4844 65.0938" id="WenQuanYiMicroHei-38"/>
      </defs>
      <g transform="translate(295.029695313 196.594179063)scale(0.09996 -0.09996)">
       <use xlink:href="#WenQuanYiMicroHei-38"/>
      </g>
     </g>
    </g>
    <g id="xtick_6">
     <g id="line2d_14">
      <g>
       <use style="stroke:#000000;stroke-width:0.5;" x="364.230205" xlink:href="#m93b0483c22" y="184.998780938"/>
      </g>
     </g>
     <g id="line2d_15">
      <g>
       <use style="stroke:#000000;stroke-width:0.5;" x="364.230205" xlink:href="#m741efc42ff" y="12.1987809375"/>
      </g>
     </g>
     <g id="text_6">
      <!-- 10 -->
      <defs>
       <path d="
M34.7188 0
L26.125 0
L26.125 44.5781
Q26.125 46.6875 26.1406 49.0781
Q26.1719 51.4688 26.2344 53.8281
Q26.3125 56.2031 26.3906 58.375
Q26.4688 60.5469 26.5156 62.2031
Q25.6875 61.3281 25.0469 60.6875
Q24.4219 60.0625 23.75 59.4688
Q23.0938 58.8906 22.3594 58.2188
Q21.625 57.5625 20.6094 56.6875
L13.375 50.7812
L8.6875 56.7812
L27.3906 71.3906
L34.7188 71.3906
z
" id="WenQuanYiMicroHei-31"/>
      </defs>
      <g transform="translate(359.393078125 196.594179063)scale(0.09996 -0.09996)">
       <use xlink:href="#WenQuanYiMicroHei-31"/>
       <use x="55.078125" xlink:href="#WenQuanYiMicroHei-30"/>
      </g>
     </g>
    </g>
   </g>
   <g id="matplotlib.axis_2">
    <g id="ytick_1">
     <g id="line2d_16">
      <defs>
       <path d="
M0 0
L4 0" id="m728421d6d4" style="stroke:#000000;stroke-width:0.5;"/>
      </defs>
      <g>
       <use style="stroke:#000000;stroke-width:0.5;" x="29.430205" xlink:href="#m728421d6d4" y="184.998780938"/>
      </g>
     </g>
     <g id="line2d_17">
      <defs>
       <path d="
M0 0
L-4 0" id="mcb0005524f" style="stroke:#000000;stroke-width:0.5;"/>
      </defs>
      <g>
       <use style="stroke:#000000;stroke-width:0.5;" x="364.230205" xlink:href="#mcb0005524f" y="184.998780938"/>
      </g>
     </g>
     <g id="text_7">
      <!-- −3.5 -->
      <defs>
       <path d="
M46.9219 54.6875
Q46.9219 51.125 45.7969 48.1875
Q44.6719 45.2656 42.6406 43.1094
Q40.625 40.9688 37.7969 39.5781
Q34.9688 38.1875 31.5 37.5938
L31.5 37.3125
Q40.1406 36.2344 44.625 31.8125
Q49.125 27.3906 49.125 20.3125
Q49.125 15.625 47.5312 11.7188
Q45.9531 7.8125 42.7188 4.98438
Q39.5 2.15625 34.5625 0.578125
Q29.6406 -0.984375 22.9062 -0.984375
Q17.5781 -0.984375 12.8594 -0.140625
Q8.15625 0.6875 4 2.875
L4 11.1875
Q8.25 8.9375 13.2031 7.71875
Q18.1719 6.5 22.7031 6.5
Q27.2031 6.5 30.4688 7.46875
Q33.7344 8.45312 35.8594 10.25
Q37.9844 12.0625 38.9844 14.6875
Q39.9844 17.3281 39.9844 20.6094
Q39.9844 23.9219 38.6875 26.2812
Q37.4062 28.6562 35.0156 30.1875
Q32.625 31.7344 29.1719 32.4688
Q25.7344 33.2031 21.3906 33.2031
L14.8906 33.2031
L14.8906 40.5781
L21.3906 40.5781
Q25.3438 40.5781 28.4219 41.5469
Q31.5 42.5312 33.5625 44.3281
Q35.6406 46.1406 36.7188 48.625
Q37.7969 51.125 37.7969 54.1094
Q37.7969 56.6406 36.9062 58.6406
Q36.0312 60.6406 34.4219 62.0312
Q32.8125 63.4219 30.5625 64.1562
Q28.3281 64.8906 25.5938 64.8906
Q20.3594 64.8906 16.375 63.25
Q12.4062 61.625 8.79688 58.9844
L4.29688 65.0938
Q6.15625 66.6094 8.42188 67.9219
Q10.6875 69.2344 13.375 70.2344
Q16.0625 71.2344 19.1094 71.8125
Q22.1719 72.4062 25.5938 72.4062
Q30.8594 72.4062 34.8281 71.0938
Q38.8125 69.7812 41.5 67.4062
Q44.1875 65.0469 45.5469 61.7969
Q46.9219 58.5469 46.9219 54.6875" id="WenQuanYiMicroHei-33"/>
       <path d="
M4.98438 31.5938
L4.98438 38.9219
L50.0938 38.9219
L50.0938 31.5938
z
" id="WenQuanYiMicroHei-2212"/>
       <path d="
M26.6094 43.7969
Q31.4531 43.7969 35.625 42.4531
Q39.7969 41.1094 42.8906 38.4688
Q46 35.8438 47.75 31.9375
Q49.5156 28.0312 49.5156 22.9062
Q49.5156 17.3281 47.8438 12.8906
Q46.1875 8.45312 42.9219 5.375
Q39.6562 2.29688 34.8438 0.65625
Q30.0312 -0.984375 23.7812 -0.984375
Q21.2969 -0.984375 18.875 -0.734375
Q16.4531 -0.484375 14.2344 -0.015625
Q12.0156 0.4375 10.0156 1.17188
Q8.01562 1.90625 6.39062 2.875
L6.39062 11.2812
Q8.01562 10.1562 10.1875 9.28125
Q12.3594 8.40625 14.75 7.8125
Q17.1406 7.23438 19.5469 6.90625
Q21.9688 6.59375 24.0312 6.59375
Q27.875 6.59375 30.9062 7.5
Q33.9375 8.40625 36.0312 10.2969
Q38.1406 12.2031 39.25 15.0781
Q40.375 17.9688 40.375 21.9219
Q40.375 28.9062 36.0781 32.5938
Q31.7812 36.2812 23.5781 36.2812
Q22.2656 36.2812 20.7188 36.1562
Q19.1875 36.0312 17.6406 35.8281
Q16.1094 35.6406 14.7188 35.4219
Q13.3281 35.2031 12.3125 35.0156
L7.90625 37.7969
L10.5938 71.3906
L44.2812 71.3906
L44.2812 63.2812
L18.3125 63.2812
L16.4062 42.8281
Q17.9688 43.1094 20.5312 43.4531
Q23.0938 43.7969 26.6094 43.7969" id="WenQuanYiMicroHei-35"/>
       <path d="
M7.17188 5.42188
Q7.17188 7.28125 7.65625 8.5625
Q8.15625 9.85938 8.98438 10.6562
Q9.8125 11.4688 10.9375 11.8281
Q12.0625 12.2031 13.375 12.2031
Q14.6562 12.2031 15.7969 11.8281
Q16.9375 11.4688 17.7656 10.6562
Q18.6094 9.85938 19.0938 8.5625
Q19.5781 7.28125 19.5781 5.42188
Q19.5781 3.60938 19.0938 2.3125
Q18.6094 1.03125 17.7656 0.1875
Q16.9375 -0.640625 15.7969 -1.03125
Q14.6562 -1.42188 13.375 -1.42188
Q12.0625 -1.42188 10.9375 -1.03125
Q9.8125 -0.640625 8.98438 0.1875
Q8.15625 1.03125 7.65625 2.3125
Q7.17188 3.60938 7.17188 5.42188" id="WenQuanYiMicroHei-2e"/>
      </defs>
      <g transform="translate(7.287465 187.595398125)scale(0.09996 -0.09996)">
       <use xlink:href="#WenQuanYiMicroHei-2212"/>
       <use x="55.078125" xlink:href="#WenQuanYiMicroHei-33"/>
       <use x="110.15625" xlink:href="#WenQuanYiMicroHei-2e"/>
       <use x="136.962890625" xlink:href="#WenQuanYiMicroHei-35"/>
      </g>
     </g>
    </g>
    <g id="ytick_2">
     <g id="line2d_18">
      <g>
       <use style="stroke:#000000;stroke-width:0.5;" x="29.430205" xlink:href="#m728421d6d4" y="163.398780938"/>
      </g>
     </g>
     <g id="line2d_19">
      <g>
       <use style="stroke:#000000;stroke-width:0.5;" x="364.230205" xlink:href="#mcb0005524f" y="163.398780938"/>
      </g>
     </g>
     <g id="text_8">
      <!-- −3.0 -->
      <g transform="translate(7.2 165.995398125)scale(0.09996 -0.09996)">
       <use xlink:href="#WenQuanYiMicroHei-2212"/>
       <use x="55.078125" xlink:href="#WenQuanYiMicroHei-33"/>
       <use x="110.15625" xlink:href="#WenQuanYiMicroHei-2e"/>
       <use x="136.962890625" xlink:href="#WenQuanYiMicroHei-30"/>
      </g>
     </g>
    </g>
    <g id="ytick_3">
     <g id="line2d_20">
      <g>
       <use style="stroke:#000000;stroke-width:0.5;" x="29.430205" xlink:href="#m728421d6d4" y="141.798780938"/>
      </g>
     </g>
     <g id="line2d_21">
      <g>
       <use style="stroke:#000000;stroke-width:0.5;" x="364.230205" xlink:href="#mcb0005524f" y="141.798780938"/>
      </g>
     </g>
     <g id="text_9">
      <!-- −2.5 -->
      <g transform="translate(7.287465 144.395398125)scale(0.09996 -0.09996)">
       <use xlink:href="#WenQuanYiMicroHei-2212"/>
       <use x="55.078125" xlink:href="#WenQuanYiMicroHei-32"/>
       <use x="110.15625" xlink:href="#WenQuanYiMicroHei-2e"/>
       <use x="136.962890625" xlink:href="#WenQuanYiMicroHei-35"/>
      </g>
     </g>
    </g>
    <g id="ytick_4">
     <g id="line2d_22">
      <g>
       <use style="stroke:#000000;stroke-width:0.5;" x="29.430205" xlink:href="#m728421d6d4" y="120.198780938"/>
      </g>
     </g>
     <g id="line2d_23">
      <g>
       <use style="stroke:#000000;stroke-width:0.5;" x="364.230205" xlink:href="#mcb0005524f" y="120.198780938"/>
      </g>
     </g>
     <g id="text_10">
      <!-- −2.0 -->
      <g transform="translate(7.2 122.795398125)scale(0.09996 -0.09996)">
       <use xlink:href="#WenQuanYiMicroHei-2212"/>
       <use x="55.078125" xlink:href="#WenQuanYiMicroHei-32"/>
       <use x="110.15625" xlink:href="#WenQuanYiMicroHei-2e"/>
       <use x="136.962890625" xlink:href="#WenQuanYiMicroHei-30"/>
      </g>
     </g>
    </g>
    <g id="ytick_5">
     <g id="line2d_24">
      <g>
       <use style="stroke:#000000;stroke-width:0.5;" x="29.430205" xlink:href="#m728421d6d4" y="98.5987809375"/>
      </g>
     </g>
     <g id="line2d_25">
      <g>
       <use style="stroke:#000000;stroke-width:0.5;" x="364.230205" xlink:href="#mcb0005524f" y="98.5987809375"/>
      </g>
     </g>
     <g id="text_11">
      <!-- −1.5 -->
      <g transform="translate(7.287465 101.195398125)scale(0.09996 -0.09996)">
       <use xlink:href="#WenQuanYiMicroHei-2212"/>
       <use x="55.078125" xlink:href="#WenQuanYiMicroHei-31"/>
       <use x="110.15625" xlink:href="#WenQuanYiMicroHei-2e"/>
       <use x="136.962890625" xlink:href="#WenQuanYiMicroHei-35"/>
      </g>
     </g>
    </g>
    <g id="ytick_6">
     <g id="line2d_26">
      <g>
       <use style="stroke:#000000;stroke-width:0.5;" x="29.430205" xlink:href="#m728421d6d4" y="76.9987809375"/>
      </g>
     </g>
     <g id="line2d_27">
      <g>
       <use style="stroke:#000000;stroke-width:0.5;" x="364.230205" xlink:href="#mcb0005524f" y="76.9987809375"/>
      </g>
     </g>
     <g id="text_12">
      <!-- −1.0 -->
      <g transform="translate(7.2 79.595398125)scale(0.09996 -0.09996)">
       <use xlink:href="#WenQuanYiMicroHei-2212"/>
       <use x="55.078125" xlink:href="#WenQuanYiMicroHei-31"/>
       <use x="110.15625" xlink:href="#WenQuanYiMicroHei-2e"/>
       <use x="136.962890625" xlink:href="#WenQuanYiMicroHei-30"/>
      </g>
     </g>
    </g>
    <g id="ytick_7">
     <g id="line2d_28">
      <g>
       <use style="stroke:#000000;stroke-width:0.5;" x="29.430205" xlink:href="#m728421d6d4" y="55.3987809375"/>
      </g>
     </g>
     <g id="line2d_29">
      <g>
       <use style="stroke:#000000;stroke-width:0.5;" x="364.230205" xlink:href="#mcb0005524f" y="55.3987809375"/>
      </g>
     </g>
     <g id="text_13">
      <!-- −0.5 -->
      <g transform="translate(7.287465 57.995398125)scale(0.09996 -0.09996)">
       <use xlink:href="#WenQuanYiMicroHei-2212"/>
       <use x="55.078125" xlink:href="#WenQuanYiMicroHei-30"/>
       <use x="110.15625" xlink:href="#WenQuanYiMicroHei-2e"/>
       <use x="136.962890625" xlink:href="#WenQuanYiMicroHei-35"/>
      </g>
     </g>
    </g>
    <g id="ytick_8">
     <g id="line2d_30">
      <g>
       <use style="stroke:#000000;stroke-width:0.5;" x="29.430205" xlink:href="#m728421d6d4" y="33.7987809375"/>
      </g>
     </g>
     <g id="line2d_31">
      <g>
       <use style="stroke:#000000;stroke-width:0.5;" x="364.230205" xlink:href="#mcb0005524f" y="33.7987809375"/>
      </g>
     </g>
     <g id="text_14">
      <!-- 0.0 -->
      <g transform="translate(12.685305 36.395398125)scale(0.09996 -0.09996)">
       <use xlink:href="#WenQuanYiMicroHei-30"/>
       <use x="55.078125" xlink:href="#WenQuanYiMicroHei-2e"/>
       <use x="81.884765625" xlink:href="#WenQuanYiMicroHei-30"/>
      </g>
     </g>
    </g>
    <g id="ytick_9">
     <g id="line2d_32">
      <g>
       <use style="stroke:#000000;stroke-width:0.5;" x="29.430205" xlink:href="#m728421d6d4" y="12.1987809375"/>
      </g>
     </g>
     <g id="line2d_33">
      <g>
       <use style="stroke:#000000;stroke-width:0.5;" x="364.230205" xlink:href="#mcb0005524f" y="12.1987809375"/>
      </g>
     </g>
     <g id="text_15">
      <!-- 0.5 -->
      <g transform="translate(12.77277 14.795398125)scale(0.09996 -0.09996)">
       <use xlink:href="#WenQuanYiMicroHei-30"/>
       <use x="55.078125" xlink:href="#WenQuanYiMicroHei-2e"/>
       <use x="81.884765625" xlink:href="#WenQuanYiMicroHei-35"/>
      </g>
     </g>
    </g>
   </g>
   <g id="legend_1">
    <g id="patch_7">
     <path d="
M159.314 65.1823
L234.346 65.1823
L234.346 17.1968
L159.314 17.1968
z
" style="fill:#ffffff;stroke:#000000;stroke-linejoin:miter;"/>
    </g>
    <g id="line2d_34">
     <path d="
M166.311 25.292
L180.306 25.292" style="fill:none;stroke:#000000;stroke-dasharray:6.000000,6.000000;stroke-dashoffset:0.0;stroke-width:2.0;"/>
    </g>
    <g id="line2d_35"/>
    <g id="text_16">
     <!-- 初始值 -->
     <defs>
      <path d="
M39.4531 46.875
L46.0938 42.9688
Q41.7969 35.9375 37.5 31.6406
Q42.1875 26.9531 46.0938 22.2656
L41.0156 15.2344
Q34.7656 24.2188 28.5156 31.25
L28.5156 -9.375
L21.0938 -9.375
L21.0938 33.9844
Q14.4531 27.3438 8.20312 23.8281
L3.51562 30.8594
Q21.0938 40.625 32.0312 61.3281
L8.20312 61.3281
L8.20312 68.3594
L22.6562 68.3594
Q19.9219 73.0469 16.4062 77.3438
L23.4375 80.4688
Q27.7344 75 30.8594 68.3594
L40.2344 68.3594
L40.2344 61.3281
Q34.375 50.3906 28.5156 42.1875
L28.5156 39.8438
L32.8125 36.3281
Q36.7188 41.4062 39.4531 46.875
M44.1406 76.1719
L90.625 76.1719
Q90.625 33.5938 89.25 16.7969
Q87.8906 0 83.9844 -3.90625
Q80.0781 -7.8125 72.2656 -7.8125
Q68.75 -7.8125 65.625 -7.03125
L63.6719 1.5625
Q67.9688 0.78125 72.2656 0.78125
Q76.5625 0.78125 78.5156 3.125
Q80.4688 5.46875 81.4375 21.0938
Q82.4219 36.7188 82.4219 68.75
L61.7188 68.75
L61.7188 44.1406
Q61.7188 11.3281 38.2812 -8.98438
L31.6406 -3.51562
Q53.9062 16.0156 53.9062 44.1406
L53.9062 68.75
L44.1406 68.75
z
" id="WenQuanYiMicroHei-521d"/>
      <path d="
M21.4844 80.8594
L28.5156 79.2969
L25.3906 63.2812
L41.4062 63.2812
Q39.8438 32.0312 31.6406 15.625
Q37.5 9.375 43.3594 2.73438
L36.7188 -2.34375
Q32.8125 3.51562 28.125 8.98438
Q19.5312 -3.125 9.76562 -9.375
L5.07812 -2.73438
Q14.4531 3.51562 22.2656 15.625
Q16.0156 22.2656 8.59375 28.5156
Q12.5 41.4062 16.0156 55.8594
L5.07812 55.8594
L5.07812 63.2812
L17.5781 63.2812
z

M25.7812 22.2656
Q31.6406 34.7656 33.2031 55.8594
L23.8281 55.8594
Q20.7031 42.1875 17.1875 30.8594
z

M62.5 81.25
L70.3125 78.9062
Q61.7188 57.0312 53.5156 48.8281
Q66.7969 49.6094 80.8594 52.3438
Q77.3438 58.9844 73.4375 64.8438
L80.0781 67.9688
Q88.6719 55.4688 94.5312 40.625
L87.5 37.5
Q85.9375 41.7969 83.9844 46.0938
Q66.0156 42.1875 45.7031 41.0156
L43.3594 48.0469
Q54.6875 58.9844 62.5 81.25
M89.0625 31.6406
L89.0625 -8.98438
L81.6406 -8.98438
L81.6406 -2.73438
L55.0781 -2.73438
L55.0781 -8.98438
L47.6562 -8.98438
L47.6562 31.6406
z

M55.0781 4.29688
L81.6406 4.29688
L81.6406 24.6094
L55.0781 24.6094
z
" id="WenQuanYiMicroHei-59cb"/>
      <path d="
M24.6094 80.8594
L32.4219 78.5156
Q29.2969 69.5312 25.3906 60.5469
L25.3906 -8.98438
L17.5781 -8.98438
L17.5781 45.7031
Q12.8906 38.2812 7.8125 32.0312
L3.90625 39.8438
Q18.3594 59.375 24.6094 80.8594
M35.1562 71.4844
L59.375 71.4844
L59.375 80.4688
L67.1875 80.4688
L67.1875 71.4844
L91.7969 71.4844
L91.7969 64.4531
L67.1875 64.4531
L67.1875 55.4688
L87.1094 55.4688
L87.1094 1.17188
L94.5312 1.17188
L94.5312 -5.46875
L30.0781 -5.46875
L30.0781 1.17188
L41.0156 1.17188
L41.0156 55.4688
L59.375 55.4688
L59.375 64.4531
L35.1562 64.4531
z

M48.8281 41.4062
L79.2969 41.4062
L79.2969 48.8281
L48.8281 48.8281
z

M48.8281 27.7344
L79.2969 27.7344
L79.2969 35.5469
L48.8281 35.5469
z

M48.8281 14.4531
L79.2969 14.4531
L79.2969 21.875
L48.8281 21.875
z

M48.8281 1.17188
L79.2969 1.17188
L79.2969 8.59375
L48.8281 8.59375
z
" id="WenQuanYiMicroHei-503c"/>
     </defs>
     <g transform="translate(191.3011675 28.7905790625)scale(0.09996 -0.09996)">
      <use xlink:href="#WenQuanYiMicroHei-521d"/>
      <use x="100.0" xlink:href="#WenQuanYiMicroHei-59cb"/>
      <use x="200.0" xlink:href="#WenQuanYiMicroHei-503c"/>
     </g>
    </g>
    <g id="line2d_36">
     <path d="
M166.311 40.2875
L180.306 40.2875" style="fill:none;stroke:#348abd;stroke-linecap:square;stroke-width:2.0;"/>
    </g>
    <g id="line2d_37"/>
    <g id="text_17">
     <!-- 优化结果 -->
     <defs>
      <path d="
M14.8438 77.3438
L84.7656 77.3438
L84.7656 36.7188
L53.5156 36.7188
L53.5156 29.2969
L94.1406 29.2969
L94.1406 21.875
L60.1562 21.875
Q73.4375 8.59375 94.5312 1.95312
L89.8438 -6.64062
Q67.1875 2.34375 53.5156 19.1406
L53.5156 -9.375
L45.7031 -9.375
L45.7031 18.75
Q31.6406 2.34375 10.5469 -6.64062
L5.07812 0.390625
Q25.3906 8.59375 39.0625 21.875
L5.85938 21.875
L5.85938 29.2969
L45.7031 29.2969
L45.7031 36.7188
L14.8438 36.7188
z

M22.6562 60.1562
L45.7031 60.1562
L45.7031 69.9219
L22.6562 69.9219
z

M53.5156 69.9219
L53.5156 60.1562
L76.9531 60.1562
L76.9531 69.9219
z

M22.6562 44.1406
L45.7031 44.1406
L45.7031 53.5156
L22.6562 53.5156
z

M53.5156 53.5156
L53.5156 44.1406
L76.9531 44.1406
L76.9531 53.5156
z
" id="WenQuanYiMicroHei-679c"/>
      <path d="
M33.2031 65.2344
L40.2344 62.5
Q30.4688 41.7969 17.9688 27.7344
Q27.7344 30.0781 35.9375 32.8125
L37.8906 26.5625
Q24.6094 21.4844 8.20312 18.75
L5.85938 25.3906
Q14.4531 33.5938 22.2656 46.0938
Q15.625 44.5312 8.20312 43.75
L6.64062 51.1719
Q15.625 62.1094 21.4844 80.8594
L28.9062 78.5156
Q23.4375 62.1094 15.2344 51.5625
Q21.4844 51.9531 26.5625 52.7344
z

M37.8906 15.2344
L39.4531 8.20312
Q25.3906 3.125 8.20312 -0.78125
L5.07812 7.42188
Q23.4375 10.9375 37.8906 15.2344
M42.5781 67.9688
L64.4531 67.9688
L64.4531 80.8594
L72.2656 80.8594
L72.2656 67.9688
L94.9219 67.9688
L94.9219 60.5469
L72.2656 60.5469
L72.2656 46.875
L91.4062 46.875
L91.4062 39.4531
L46.0938 39.4531
L46.0938 46.875
L64.4531 46.875
L64.4531 60.5469
L42.5781 60.5469
z

M90.2344 29.6875
L90.2344 -8.98438
L82.8125 -8.98438
L82.8125 -2.34375
L55.8594 -2.34375
L55.8594 -8.98438
L48.4375 -8.98438
L48.4375 29.6875
z

M55.8594 5.07812
L82.8125 5.07812
L82.8125 22.2656
L55.8594 22.2656
z
" id="WenQuanYiMicroHei-7ed3"/>
      <path d="
M32.4219 58.5938
L53.5156 58.5938
L55.0781 80.8594
L62.8906 80.8594
Q62.5 68.75 61.7188 58.5938
L91.4062 58.5938
L91.4062 51.1719
L60.9375 51.1719
Q58.5938 28.125 52.7344 14.6406
Q46.875 1.17188 35.1562 -9.375
L28.9062 -3.90625
Q39.4531 5.07812 45.1094 17.5781
Q50.7812 30.0781 52.7344 51.1719
L32.4219 51.1719
z

M73.4375 78.5156
Q80.8594 73.8281 87.1094 67.9688
L82.0312 61.7188
Q75.3906 68.75 68.3594 73.4375
z

M63.6719 42.5781
L71.4844 42.5781
L71.4844 3.90625
Q71.4844 1.95312 72.4531 1.35938
Q73.4375 0.78125 78.9062 0.78125
Q84.375 0.78125 85.9375 3.125
Q87.5 5.46875 87.8906 14.0625
L95.3125 10.9375
Q93.75 -1.17188 90.8125 -4.09375
Q87.8906 -7.03125 78.9062 -7.03125
Q69.1406 -7.03125 66.4062 -4.875
Q63.6719 -2.73438 63.6719 2.34375
z

M27.7344 80.8594
L35.5469 78.5156
Q31.25 67.1875 25.3906 56.25
L25.3906 -8.98438
L17.5781 -8.98438
L17.5781 43.75
Q12.8906 37.5 7.8125 32.0312
L3.90625 39.8438
Q20.7031 59.375 27.7344 80.8594" id="WenQuanYiMicroHei-4f18"/>
      <path d="
M27.7344 80.8594
L35.5469 78.5156
Q31.25 67.1875 25.3906 56.25
L25.3906 -8.98438
L17.5781 -8.98438
L17.5781 43.75
Q12.8906 37.5 7.8125 32.0312
L3.90625 39.8438
Q20.7031 59.375 27.7344 80.8594
M50 78.9062
L58.2031 78.9062
L58.2031 45.7031
Q73.0469 56.6406 84.7656 71.0938
L90.625 66.4062
Q76.5625 48.0469 58.2031 35.5469
L58.2031 5.07812
Q58.2031 2.34375 59.5625 1.35938
Q60.9375 0.390625 67.9688 0.390625
Q73.4375 0.390625 76.3594 0.578125
Q79.2969 0.78125 79.2969 1.17188
Q83.5938 1.17188 84.9531 4.29688
Q86.3281 7.42188 86.7188 19.5312
L94.9219 16.0156
Q92.9688 -2.73438 89.4531 -4.6875
Q84.375 -7.42188 67.9688 -7.42188
L64.0625 -7.42188
Q55.0781 -7.42188 52.5312 -5.26562
Q50 -3.125 50 1.95312
L50 30.4688
Q44.5312 27.3438 39.8438 25
L35.9375 31.6406
Q42.1875 34.7656 50 39.8438
z
" id="WenQuanYiMicroHei-5316"/>
     </defs>
     <g transform="translate(191.3011675 43.7861409375)scale(0.09996 -0.09996)">
      <use xlink:href="#WenQuanYiMicroHei-4f18"/>
      <use x="100.0" xlink:href="#WenQuanYiMicroHei-5316"/>
      <use x="200.0" xlink:href="#WenQuanYiMicroHei-7ed3"/>
      <use x="300.0" xlink:href="#WenQuanYiMicroHei-679c"/>
     </g>
    </g>
    <g id="line2d_38">
     <path d="
M166.311 55.2831
L180.306 55.2831" style="fill:none;stroke:#a60628;stroke-linecap:square;stroke-width:2.0;"/>
    </g>
    <g id="line2d_39"/>
    <g id="text_18">
     <!-- 最速降线 -->
     <defs>
      <path d="
M33.2031 65.2344
L40.2344 62.5
Q30.4688 41.7969 17.9688 27.7344
Q27.7344 30.0781 35.9375 32.8125
L37.8906 26.5625
Q24.6094 21.4844 8.20312 18.75
L5.85938 25.3906
Q14.4531 33.5938 22.2656 46.0938
Q15.625 44.5312 8.20312 43.75
L6.64062 51.1719
Q15.625 62.1094 21.4844 80.8594
L28.9062 78.5156
Q23.4375 62.1094 15.2344 51.5625
Q21.4844 51.9531 26.5625 52.7344
z

M37.8906 15.2344
L39.4531 8.20312
Q25.3906 3.125 8.20312 -0.78125
L5.07812 7.42188
Q23.4375 10.9375 37.8906 15.2344
M87.8906 63.6719
L88.6719 56.25
L66.0156 52.3438
L66.7969 39.8438
L92.9688 45.3125
L93.75 37.8906
L67.9688 32.4219
Q69.1406 25 71.875 17.5781
Q78.5156 23.8281 83.9844 32.0312
L91.0156 28.5156
Q83.9844 17.1875 75.3906 9.375
Q81.6406 -0.390625 85.1562 -0.390625
Q87.1094 -0.390625 87.8906 12.8906
L95.7031 9.375
Q93.75 -1.95312 91.2031 -5.65625
Q88.6719 -9.375 85.1562 -9.375
Q78.125 -9.375 69.5312 4.6875
Q58.9844 -2.34375 45.7031 -7.03125
L41.4062 0.78125
Q56.25 5.85938 65.625 12.5
Q62.1094 19.9219 60.1562 30.8594
L40.2344 26.5625
L39.0625 33.9844
L59.375 38.2812
Q58.5938 44.1406 58.2031 51.1719
L43.3594 48.8281
L42.1875 56.25
L57.8125 58.5938
Q57.4219 68.75 57.4219 80.8594
L65.2344 80.8594
Q65.2344 69.1406 65.625 60.1562
z

M76.1719 80.4688
Q80.0781 76.1719 84.375 70.3125
L78.5156 65.625
Q75 71.0938 69.9219 76.1719
z
" id="WenQuanYiMicroHei-7ebf"/>
      <path d="
M16.7969 78.125
L83.2031 78.125
L83.2031 49.2188
L16.7969 49.2188
z

M24.6094 66.7969
L75.7812 66.7969
L75.7812 71.875
L24.6094 71.875
z

M24.6094 55.8594
L75.7812 55.8594
L75.7812 60.9375
L24.6094 60.9375
z

M5.07812 43.75
L94.9219 43.75
L94.9219 37.5
L47.6562 37.5
L47.6562 8.59375
L52.7344 9.375
L53.9062 2.34375
L47.6562 1.5625
L47.6562 -8.98438
L40.2344 -8.98438
L40.2344 0.390625
Q24.6094 -1.95312 6.25 -3.51562
L5.07812 3.90625
L12.8906 4.6875
L12.8906 37.5
L5.07812 37.5
z

M20.7031 30.8594
L40.2344 30.8594
L40.2344 37.5
L20.7031 37.5
z

M20.7031 18.3594
L40.2344 18.3594
L40.2344 25.3906
L20.7031 25.3906
z

M20.7031 5.07812
L40.2344 7.42188
L40.2344 12.8906
L20.7031 12.8906
z

M58.5938 23.4375
Q63.6719 15.2344 70.7031 9.76562
Q76.9531 16.7969 80.0781 25
L54.2969 25
L54.2969 32.0312
L88.6719 32.0312
L88.6719 25
Q83.9844 13.2812 76.9531 5.46875
Q85.1562 1.17188 94.9219 -1.5625
L91.4062 -8.98438
Q80.4688 -5.85938 71.4844 0
Q64.4531 -5.46875 54.6875 -8.98438
L51.9531 -2.34375
Q59.375 0.390625 65.2344 4.6875
Q59.375 10.1562 54.6875 17.5781
z
" id="WenQuanYiMicroHei-6700"/>
      <path d="
M33.2031 73.4375
L58.9844 73.4375
L58.9844 81.25
L66.4062 81.25
L66.4062 73.4375
L92.5781 73.4375
L92.5781 66.4062
L66.4062 66.4062
L66.4062 58.5938
L88.6719 58.5938
L88.6719 32.4219
L66.4062 32.4219
L66.4062 3.90625
L58.9844 3.90625
L58.9844 30.8594
Q50 16.7969 35.9375 8.59375
L30.4688 15.625
Q44.1406 22.2656 51.9531 32.4219
L36.7188 32.4219
L36.7188 58.5938
L58.9844 58.5938
L58.9844 66.4062
L33.2031 66.4062
z

M43.75 39.4531
L58.9844 39.4531
L58.9844 51.5625
L43.75 51.5625
z

M66.4062 51.5625
L66.4062 39.4531
L81.25 39.4531
L81.25 51.5625
z

M74.2188 28.9062
Q85.1562 23.0469 94.1406 15.2344
L88.6719 9.375
Q80.0781 17.5781 69.5312 23.0469
z

M11.7188 78.5156
Q19.5312 73.4375 25.7812 66.4062
L20.3125 59.7656
Q13.6719 67.5781 6.25 72.6562
z

M5.07812 46.0938
L24.6094 46.0938
L24.6094 8.59375
Q29.2969 5.07812 36.5156 3.51562
Q43.75 1.95312 67.9688 1.95312
L95.3125 1.95312
L91.4062 -6.64062
L60.1562 -6.64062
Q42.9688 -6.64062 35.1562 -4.29688
Q27.3438 -1.95312 21.4844 3.125
L10.1562 -8.20312
L4.6875 0
Q10.9375 3.51562 16.7969 7.42188
L16.7969 38.6719
L5.07812 38.6719
z
" id="WenQuanYiMicroHei-901f"/>
      <path d="
M37.1094 77.3438
L37.1094 70.3125
L27.7344 46.875
Q35.9375 35.9375 35.9375 25.3906
Q35.9375 17.5781 33 13.6719
Q30.0781 9.76562 24.2188 9.76562
Q21.875 9.76562 18.75 10.5469
L17.1875 18.3594
Q21.4844 17.1875 24.2188 17.1875
Q26.5625 17.1875 27.7344 19.3281
Q28.9062 21.4844 28.9062 25.3906
Q28.9062 35.5469 20.3125 45.7031
L29.2969 70.3125
L14.8438 70.3125
L14.8438 -8.98438
L7.8125 -8.98438
L7.8125 77.3438
z

M54.6875 81.25
L62.5 79.2969
Q61.7188 76.5625 60.1562 73.4375
L87.1094 73.4375
L87.1094 67.5781
Q81.6406 57.8125 74.6094 51.5625
Q83.9844 48.0469 94.9219 45.7031
L91.4062 38.2812
Q78.125 41.0156 67.1875 46.875
Q56.25 40.2344 42.1875 37.5
L37.8906 44.1406
Q50.7812 46.875 59.7656 51.1719
Q54.6875 54.6875 50.7812 59.375
Q47.2656 55.0781 42.9688 51.5625
L37.5 57.0312
Q49.2188 66.4062 54.6875 81.25
M55.0781 64.8438
Q60.1562 59.375 66.7969 55.4688
Q73.8281 60.5469 77.7344 67.1875
L56.6406 67.1875
z

M46.4844 25.7812
L53.5156 22.2656
L48.8281 13.6719
L67.5781 13.6719
L67.5781 27.3438
L41.7969 27.3438
L41.7969 34.7656
L67.5781 34.7656
L67.5781 41.4062
L75.3906 41.4062
L75.3906 34.7656
L90.625 34.7656
L90.625 27.3438
L75.3906 27.3438
L75.3906 13.6719
L92.5781 13.6719
L92.5781 6.64062
L75.3906 6.64062
L75.3906 -8.98438
L67.5781 -8.98438
L67.5781 6.64062
L42.1875 6.64062
L39.4531 12.8906
z
" id="WenQuanYiMicroHei-964d"/>
     </defs>
     <g transform="translate(191.3011675 58.7817028125)scale(0.09996 -0.09996)">
      <use xlink:href="#WenQuanYiMicroHei-6700"/>
      <use x="100.0" xlink:href="#WenQuanYiMicroHei-901f"/>
      <use x="200.0" xlink:href="#WenQuanYiMicroHei-964d"/>
      <use x="300.0" xlink:href="#WenQuanYiMicroHei-7ebf"/>
     </g>
    </g>
   </g>
  </g>
 </g>
 <defs>
  <clipPath id="p7559c7b864">
   <rect height="172.8" width="334.8" x="29.430205" y="12.1987809375"/>
  </clipPath>
 </defs>
</svg>
