<?xml version="1.0" encoding="utf-8" standalone="no"?>
<!DOCTYPE svg PUBLIC "-//W3C//DTD SVG 1.1//EN"
  "http://www.w3.org/Graphics/SVG/1.1/DTD/svg11.dtd">
<!-- Created with matplotlib (http://matplotlib.org/) -->
<svg height="221pt" version="1.1" viewBox="0 0 391 221" width="391pt" xmlns="http://www.w3.org/2000/svg" xmlns:xlink="http://www.w3.org/1999/xlink">
 <defs>
  <style type="text/css">
*{stroke-linecap:butt;stroke-linejoin:round;}
  </style>
 </defs>
 <g id="figure_1">
  <g id="patch_1">
   <path d="
M0 221.194
L391.265 221.194
L391.265 0
L0 0
z
" style="fill:#ffffff;"/>
  </g>
  <g id="axes_1">
   <g id="patch_2">
    <path d="
M44.4278 184.999
L379.228 184.999
L379.228 12.1988
L44.4278 12.1988
z
" style="fill:#ffffff;"/>
   </g>
   <g id="line2d_1">
    <path clip-path="url(#p7222d2245f)" d="
M44.4278 12.1988
L45.0974 12.3413
L45.767 12.7684
L46.4366 13.4792
L47.1062 14.4723
L48.1106 16.486
L49.115 19.1195
L50.1194 22.3589
L51.4586 27.5893
L52.7978 33.8108
L54.4718 42.8745
L56.1458 53.2073
L58.1546 66.9824
L60.833 86.9521
L66.8594 132.572
L68.8682 146.124
L70.5422 156.222
L72.2162 165.013
L73.5554 170.995
L74.8946 175.972
L75.899 179.014
L76.9034 181.444
L77.9078 183.251
L78.5774 184.105
L79.247 184.676
L79.9166 184.962
L80.5862 184.964
L81.2558 184.681
L81.9254 184.113
L82.595 183.263
L83.2646 182.131
L84.269 179.912
L85.2734 177.077
L86.2778 173.641
L87.617 168.16
L88.9562 161.704
L90.6302 152.375
L92.3042 141.815
L94.6478 125.387
L97.9958 99.9399
L102.348 67.0373
L104.692 51.0976
L106.366 40.9975
L108.04 32.203
L109.379 26.2179
L110.718 21.2383
L111.723 18.1945
L112.727 15.7615
L113.731 13.952
L114.401 13.0966
L115.071 12.5242
L115.74 12.2361
L116.41 12.2328
L117.079 12.5144
L117.749 13.0803
L118.419 13.9292
L119.088 15.0594
L120.093 17.2763
L121.097 20.1089
L122.101 23.542
L123.441 29.02
L124.78 35.4736
L126.454 44.8
L128.128 55.3575
L130.471 71.7827
L133.819 97.228
L138.172 130.133
L140.515 146.076
L142.189 156.178
L143.863 164.976
L145.203 170.964
L146.542 175.947
L147.546 178.993
L148.551 181.428
L149.555 183.24
L150.225 184.097
L150.894 184.671
L151.564 184.961
L152.233 184.966
L152.903 184.686
L153.573 184.121
L154.242 183.274
L154.912 182.145
L155.916 179.931
L156.921 177.101
L157.925 173.67
L159.264 168.195
L160.603 161.744
L162.277 152.42
L163.951 141.865
L166.295 125.443
L169.643 99.9993
L173.995 67.0922
L176.339 51.1465
L178.013 41.0409
L179.687 32.24
L181.026 26.2493
L182.365 21.2638
L183.37 18.2154
L184.374 15.7777
L185.379 13.9634
L186.048 13.1047
L186.718 12.5291
L187.387 12.2377
L188.057 12.2312
L188.727 12.5096
L189.396 13.0722
L190.066 13.9179
L190.735 15.0449
L191.74 17.2571
L192.744 20.085
L193.749 23.5136
L195.088 28.9859
L196.427 35.4341
L198.101 44.7544
L199.775 55.3067
L202.119 71.7266
L205.467 97.1686
L209.819 130.078
L212.163 146.027
L213.837 156.135
L215.511 164.939
L216.85 170.933
L218.189 175.921
L219.193 178.972
L220.198 181.412
L221.202 183.228
L221.872 184.089
L222.541 184.666
L223.211 184.959
L223.881 184.967
L224.55 184.69
L225.22 184.129
L225.889 183.285
L226.559 182.16
L227.563 179.95
L228.568 177.125
L229.572 173.698
L230.911 168.229
L232.251 161.783
L233.925 152.466
L235.599 141.916
L237.942 125.499
L241.29 100.059
L245.643 67.1471
L247.986 51.1954
L249.66 41.0843
L251.334 32.277
L252.673 26.2807
L254.013 21.2894
L255.017 18.2364
L256.021 15.794
L257.026 13.9748
L257.695 13.113
L258.365 12.5341
L259.035 12.2395
L259.704 12.2297
L260.374 12.5048
L261.043 13.0642
L261.713 13.9067
L262.383 15.0304
L263.387 17.2379
L264.391 20.0611
L265.396 23.4852
L266.735 28.9517
L268.074 35.3946
L269.748 44.7088
L271.422 55.2559
L273.766 71.6704
L277.114 97.1093
L281.466 130.023
L283.81 145.978
L285.484 156.092
L287.158 164.902
L288.497 170.901
L289.836 175.895
L290.841 178.951
L291.845 181.395
L292.849 183.217
L293.519 184.08
L294.189 184.661
L294.858 184.957
L295.528 184.969
L296.197 184.695
L296.867 184.137
L297.537 183.297
L298.206 182.174
L299.211 179.969
L300.215 177.148
L301.219 173.727
L302.559 168.263
L303.898 161.823
L305.572 152.512
L307.246 141.967
L309.589 125.555
L312.937 100.118
L317.29 67.202
L319.633 51.2444
L321.307 41.1277
L322.981 32.3141
L324.321 26.3122
L325.66 21.3149
L326.664 18.2573
L327.669 15.8102
L328.673 13.9863
L329.343 13.1212
L330.012 12.5391
L330.682 12.2412
L331.351 12.2282
L332.021 12.5
L332.691 13.0562
L333.36 13.8955
L334.03 15.016
L335.034 17.2187
L336.039 20.0373
L337.043 23.4569
L338.382 28.9176
L339.721 35.3551
L341.395 44.6632
L343.069 55.2052
L345.413 71.6143
L348.761 97.05
L353.113 129.968
L355.457 145.929
L357.131 156.048
L358.805 164.865
L360.144 170.87
L361.483 175.87
L362.488 178.93
L363.492 181.379
L364.497 183.205
L365.166 184.072
L365.836 184.656
L366.505 184.955
L367.175 184.97
L367.845 184.7
L368.514 184.145
L369.184 183.308
L369.853 182.189
L370.858 179.988
L371.862 177.172
L372.867 173.755
L374.206 168.297
L375.545 161.862
L377.219 152.557
L378.893 142.018
L378.893 142.018" style="fill:none;stroke:#348abd;stroke-linecap:square;stroke-width:2.0;"/>
   </g>
   <g id="patch_3">
    <path d="
M44.4278 12.1988
L379.228 12.1988" style="fill:none;stroke:#000000;stroke-linecap:square;stroke-linejoin:miter;"/>
   </g>
   <g id="patch_4">
    <path d="
M379.228 184.999
L379.228 12.1988" style="fill:none;stroke:#000000;stroke-linecap:square;stroke-linejoin:miter;"/>
   </g>
   <g id="patch_5">
    <path d="
M44.4278 184.999
L379.228 184.999" style="fill:none;stroke:#000000;stroke-linecap:square;stroke-linejoin:miter;"/>
   </g>
   <g id="patch_6">
    <path d="
M44.4278 184.999
L44.4278 12.1988" style="fill:none;stroke:#000000;stroke-linecap:square;stroke-linejoin:miter;"/>
   </g>
   <g id="matplotlib.axis_1">
    <g id="xtick_1">
     <g id="line2d_2">
      <defs>
       <path d="
M0 0
L0 -4" id="m93b0483c22" style="stroke:#000000;stroke-width:0.5;"/>
      </defs>
      <g>
       <use style="stroke:#000000;stroke-width:0.5;" x="44.427766875" xlink:href="#m93b0483c22" y="184.998780938"/>
      </g>
     </g>
     <g id="line2d_3">
      <defs>
       <path d="
M0 0
L0 4" id="m741efc42ff" style="stroke:#000000;stroke-width:0.5;"/>
      </defs>
      <g>
       <use style="stroke:#000000;stroke-width:0.5;" x="44.427766875" xlink:href="#m741efc42ff" y="12.1987809375"/>
      </g>
     </g>
     <g id="text_1">
      <!-- 0 -->
      <defs>
       <path d="
M50.3906 35.7969
Q50.3906 27.1562 49.1406 20.3125
Q47.9062 13.4844 45.1406 8.73438
Q42.3906 4 38.0312 1.5
Q33.6875 -0.984375 27.4844 -0.984375
Q21.7344 -0.984375 17.4531 1.5
Q13.1875 4 10.375 8.73438
Q7.5625 13.4844 6.17188 20.3125
Q4.78125 27.1562 4.78125 35.7969
Q4.78125 44.4375 6.03125 51.2656
Q7.28125 58.1094 9.98438 62.8125
Q12.7031 67.5312 17.0156 70.0156
Q21.3438 72.5156 27.4844 72.5156
Q33.2969 72.5156 37.5938 70.0469
Q41.8906 67.5781 44.7188 62.8594
Q47.5625 58.1562 48.9688 51.3125
Q50.3906 44.4844 50.3906 35.7969
M13.8125 35.7969
Q13.8125 28.4688 14.5469 23
Q15.2812 17.5312 16.8906 13.8906
Q18.5 10.25 21.1094 8.42188
Q23.7344 6.59375 27.4844 6.59375
Q31.25 6.59375 33.8906 8.39062
Q36.5312 10.2031 38.2031 13.8125
Q39.8906 17.4375 40.6406 22.9219
Q41.4062 28.4219 41.4062 35.7969
Q41.4062 43.1094 40.6406 48.5781
Q39.8906 54.0469 38.2031 57.6562
Q36.5312 61.2812 33.8906 63.0781
Q31.25 64.8906 27.4844 64.8906
Q23.7344 64.8906 21.1094 63.0781
Q18.5 61.2812 16.8906 57.6562
Q15.2812 54.0469 14.5469 48.5781
Q13.8125 43.1094 13.8125 35.7969" id="WenQuanYiMicroHei-30"/>
      </defs>
      <g transform="translate(42.1482103125 196.594179063)scale(0.09996 -0.09996)">
       <use xlink:href="#WenQuanYiMicroHei-30"/>
      </g>
     </g>
    </g>
    <g id="xtick_2">
     <g id="line2d_4">
      <g>
       <use style="stroke:#000000;stroke-width:0.5;" x="111.387766875" xlink:href="#m93b0483c22" y="184.998780938"/>
      </g>
     </g>
     <g id="line2d_5">
      <g>
       <use style="stroke:#000000;stroke-width:0.5;" x="111.387766875" xlink:href="#m741efc42ff" y="12.1987809375"/>
      </g>
     </g>
     <g id="text_2">
      <!-- 2 -->
      <defs>
       <path d="
M49.2188 0
L4.6875 0
L4.6875 7.625
L21.7812 26.2188
Q25.4375 30.1719 28.3125 33.4375
Q31.2031 36.7188 33.2188 39.8438
Q35.25 42.9688 36.3281 46.1094
Q37.4062 49.2656 37.4062 52.9844
Q37.4062 55.8594 36.5781 58.0469
Q35.75 60.25 34.2031 61.7812
Q32.6719 63.3281 30.5625 64.1094
Q28.4688 64.8906 25.875 64.8906
Q21.2344 64.8906 17.5 63.0156
Q13.7656 61.1406 10.4062 58.2031
L5.42188 64.0156
Q7.375 65.7656 9.60938 67.2969
Q11.8594 68.8438 14.4531 69.9688
Q17.0469 71.0938 19.9219 71.75
Q22.7969 72.4062 25.9844 72.4062
Q30.6719 72.4062 34.4531 71.0938
Q38.2344 69.7812 40.8594 67.3125
Q43.5 64.8438 44.9375 61.2969
Q46.3906 57.7656 46.3906 53.3281
Q46.3906 49.1719 45.0938 45.4062
Q43.7969 41.6562 41.5312 38.0156
Q39.2656 34.375 36.1094 30.7031
Q32.9531 27.0469 29.2969 23.0938
L15.5781 8.5
L15.5781 8.10938
L49.2188 8.10938
z
" id="WenQuanYiMicroHei-32"/>
      </defs>
      <g transform="translate(109.162095 196.594179063)scale(0.09996 -0.09996)">
       <use xlink:href="#WenQuanYiMicroHei-32"/>
      </g>
     </g>
    </g>
    <g id="xtick_3">
     <g id="line2d_6">
      <g>
       <use style="stroke:#000000;stroke-width:0.5;" x="178.347766875" xlink:href="#m93b0483c22" y="184.998780938"/>
      </g>
     </g>
     <g id="line2d_7">
      <g>
       <use style="stroke:#000000;stroke-width:0.5;" x="178.347766875" xlink:href="#m741efc42ff" y="12.1987809375"/>
      </g>
     </g>
     <g id="text_3">
      <!-- 4 -->
      <defs>
       <path d="
M53.0781 16.0156
L42.6719 16.0156
L42.6719 0
L34.0781 0
L34.0781 16.0156
L1.125 16.0156
L1.125 23.7812
L33.5 71.7812
L42.6719 71.7812
L42.6719 24.125
L53.0781 24.125
z

M34.0781 24.125
L34.0781 41.5
Q34.0781 44.2344 34.1562 47.2344
Q34.2344 50.25 34.3281 53.0938
Q34.4219 55.9531 34.5469 58.4375
Q34.6719 60.9375 34.7188 62.5938
L34.2812 62.5938
Q33.9375 61.625 33.4219 60.4219
Q32.9062 59.2344 32.2969 58.0312
Q31.6875 56.8438 31.0469 55.7188
Q30.4219 54.5938 29.8906 53.8125
L9.8125 24.125
z
" id="WenQuanYiMicroHei-34"/>
      </defs>
      <g transform="translate(175.751149688 196.594179063)scale(0.09996 -0.09996)">
       <use xlink:href="#WenQuanYiMicroHei-34"/>
      </g>
     </g>
    </g>
    <g id="xtick_4">
     <g id="line2d_8">
      <g>
       <use style="stroke:#000000;stroke-width:0.5;" x="245.307766875" xlink:href="#m93b0483c22" y="184.998780938"/>
      </g>
     </g>
     <g id="line2d_9">
      <g>
       <use style="stroke:#000000;stroke-width:0.5;" x="245.307766875" xlink:href="#m741efc42ff" y="12.1987809375"/>
      </g>
     </g>
     <g id="text_4">
      <!-- 6 -->
      <defs>
       <path d="
M5.51562 30.5156
Q5.51562 35.6406 6.03125 40.7188
Q6.54688 45.7969 7.82812 50.4531
Q9.125 55.125 11.375 59.125
Q13.625 63.1406 17.0938 66.0938
Q20.5625 69.0469 25.3906 70.7188
Q30.2188 72.4062 36.7188 72.4062
Q37.6406 72.4062 38.7656 72.3594
Q39.8906 72.3125 41.0312 72.1875
Q42.1875 72.0781 43.2344 71.9062
Q44.2812 71.7344 45.125 71.4844
L45.125 63.9219
Q43.4062 64.5 41.25 64.7969
Q39.1094 65.0938 37.0156 65.0938
Q32.625 65.0938 29.2656 64.0312
Q25.9219 62.9844 23.4844 61.0781
Q21.0469 59.1875 19.4062 56.5469
Q17.7812 53.9062 16.75 50.7031
Q15.7188 47.5156 15.2344 43.8906
Q14.75 40.2812 14.5938 36.375
L15.1875 36.375
Q16.1562 38.1406 17.5469 39.6719
Q18.9531 41.2188 20.7969 42.3125
Q22.6562 43.4062 24.9688 44.0312
Q27.2969 44.6719 30.1719 44.6719
Q34.8125 44.6719 38.5625 43.2344
Q42.3281 41.7969 44.9688 39.0156
Q47.6094 36.2344 49.0469 32.2031
Q50.4844 28.1719 50.4844 23
Q50.4844 17.4375 48.9688 12.9844
Q47.4688 8.54688 44.625 5.4375
Q41.7969 2.34375 37.7969 0.671875
Q33.7969 -0.984375 28.8125 -0.984375
Q23.9219 -0.984375 19.6406 0.921875
Q15.375 2.82812 12.25 6.73438
Q9.125 10.6406 7.3125 16.5469
Q5.51562 22.4688 5.51562 30.5156
M28.7188 6.5
Q31.6406 6.5 34.0469 7.5
Q36.4688 8.5 38.2188 10.5156
Q39.9844 12.5469 40.9375 15.6406
Q41.8906 18.75 41.8906 23
Q41.8906 26.4219 41.0781 29.125
Q40.2812 31.8438 38.6719 33.7344
Q37.0625 35.6406 34.6406 36.6719
Q32.2344 37.7031 29 37.7031
Q25.7344 37.7031 23.0156 36.5469
Q20.3125 35.4062 18.4062 33.5625
Q16.5 31.7344 15.4531 29.3906
Q14.4062 27.0469 14.4062 24.7031
Q14.4062 21.4375 15.3125 18.1875
Q16.2188 14.9375 18 12.3438
Q19.7812 9.76562 22.4531 8.125
Q25.1406 6.5 28.7188 6.5" id="WenQuanYiMicroHei-36"/>
      </defs>
      <g transform="translate(243.06022875 196.594179063)scale(0.09996 -0.09996)">
       <use xlink:href="#WenQuanYiMicroHei-36"/>
      </g>
     </g>
    </g>
    <g id="xtick_5">
     <g id="line2d_10">
      <g>
       <use style="stroke:#000000;stroke-width:0.5;" x="312.267766875" xlink:href="#m93b0483c22" y="184.998780938"/>
      </g>
     </g>
     <g id="line2d_11">
      <g>
       <use style="stroke:#000000;stroke-width:0.5;" x="312.267766875" xlink:href="#m741efc42ff" y="12.1987809375"/>
      </g>
     </g>
     <g id="text_5">
      <!-- 8 -->
      <defs>
       <path d="
M27.5938 72.5156
Q31.6875 72.5156 35.3281 71.4375
Q38.9688 70.3594 41.7188 68.2031
Q44.4844 66.0625 46.0938 62.8438
Q47.7031 59.625 47.7031 55.3281
Q47.7031 52.0469 46.7188 49.4062
Q45.75 46.7812 44.0312 44.6562
Q42.3281 42.5312 39.9844 40.8438
Q37.6406 39.1562 34.9062 37.7969
Q37.75 36.2812 40.4531 34.4219
Q43.1719 32.5625 45.2812 30.25
Q47.4062 27.9375 48.7031 25.0469
Q50 22.1719 50 18.6094
Q50 14.1094 48.3594 10.4688
Q46.7344 6.84375 43.7812 4.29688
Q40.8281 1.76562 36.6875 0.390625
Q32.5625 -0.984375 27.5938 -0.984375
Q22.2188 -0.984375 18.0469 0.328125
Q13.875 1.65625 11.0156 4.125
Q8.15625 6.59375 6.65625 10.1562
Q5.17188 13.7188 5.17188 18.2188
Q5.17188 21.875 6.26562 24.7969
Q7.375 27.7344 9.21875 30.0781
Q11.0781 32.4219 13.6094 34.2188
Q16.1562 36.0312 19 37.4062
Q16.6094 38.9219 14.5 40.7031
Q12.4062 42.4844 10.8594 44.6719
Q9.32812 46.875 8.42188 49.5312
Q7.51562 52.2031 7.51562 55.4219
Q7.51562 59.6719 9.15625 62.8594
Q10.7969 66.0625 13.5781 68.2031
Q16.3594 70.3594 20 71.4375
Q23.6406 72.5156 27.5938 72.5156
M13.9219 18.1094
Q13.9219 15.5312 14.7031 13.3594
Q15.4844 11.1875 17.1406 9.64062
Q18.7969 8.10938 21.3281 7.25
Q23.875 6.39062 27.3906 6.39062
Q30.8125 6.39062 33.4219 7.25
Q36.0312 8.10938 37.7812 9.6875
Q39.5469 11.2812 40.4219 13.5156
Q41.3125 15.7656 41.3125 18.5
Q41.3125 21.0469 40.3594 23.0938
Q39.4062 25.1406 37.625 26.8906
Q35.8438 28.6562 33.3438 30.2188
Q30.8594 31.7812 27.7812 33.2969
L26.3125 33.9844
Q20.1719 31.0625 17.0469 27.2656
Q13.9219 23.4844 13.9219 18.1094
M27.4844 65.0938
Q22.3125 65.0938 19.2656 62.5
Q16.2188 59.9062 16.2188 54.9844
Q16.2188 52.2031 17.0625 50.1875
Q17.9219 48.1875 19.4375 46.625
Q20.9531 45.0625 23.0781 43.8125
Q25.2031 42.5781 27.6875 41.4062
Q30.0312 42.4844 32.1094 43.75
Q34.1875 45.0156 35.7188 46.625
Q37.25 48.25 38.125 50.2969
Q39.0156 52.3438 39.0156 54.9844
Q39.0156 59.9062 35.9375 62.5
Q32.8594 65.0938 27.4844 65.0938" id="WenQuanYiMicroHei-38"/>
      </defs>
      <g transform="translate(310.027257188 196.594179063)scale(0.09996 -0.09996)">
       <use xlink:href="#WenQuanYiMicroHei-38"/>
      </g>
     </g>
    </g>
    <g id="xtick_6">
     <g id="line2d_12">
      <g>
       <use style="stroke:#000000;stroke-width:0.5;" x="379.227766875" xlink:href="#m93b0483c22" y="184.998780938"/>
      </g>
     </g>
     <g id="line2d_13">
      <g>
       <use style="stroke:#000000;stroke-width:0.5;" x="379.227766875" xlink:href="#m741efc42ff" y="12.1987809375"/>
      </g>
     </g>
     <g id="text_6">
      <!-- 10 -->
      <defs>
       <path d="
M34.7188 0
L26.125 0
L26.125 44.5781
Q26.125 46.6875 26.1406 49.0781
Q26.1719 51.4688 26.2344 53.8281
Q26.3125 56.2031 26.3906 58.375
Q26.4688 60.5469 26.5156 62.2031
Q25.6875 61.3281 25.0469 60.6875
Q24.4219 60.0625 23.75 59.4688
Q23.0938 58.8906 22.3594 58.2188
Q21.625 57.5625 20.6094 56.6875
L13.375 50.7812
L8.6875 56.7812
L27.3906 71.3906
L34.7188 71.3906
z
" id="WenQuanYiMicroHei-31"/>
      </defs>
      <g transform="translate(374.39064 196.594179063)scale(0.09996 -0.09996)">
       <use xlink:href="#WenQuanYiMicroHei-31"/>
       <use x="55.078125" xlink:href="#WenQuanYiMicroHei-30"/>
      </g>
     </g>
    </g>
    <g id="text_7">
     <!-- 时间(秒) -->
     <defs>
      <path d="
M25 82.0312
Q30.4688 75.7812 33.9844 68.3594
L26.9531 64.0625
Q23.8281 71.4844 18.3594 77.7344
z

M41.7969 77.3438
L89.8438 77.3438
L89.8438 1.5625
Q89.8438 -3.90625 87.5 -6.64062
Q85.1562 -9.375 80.8594 -9.375
Q77.7344 -9.375 73.4375 -8.98438
L71.4844 -0.78125
Q76.1719 -1.5625 79.2969 -1.5625
Q82.0312 -1.5625 82.0312 3.90625
L82.0312 70.3125
L41.7969 70.3125
z

M10.1562 63.2812
L17.9688 63.2812
L17.9688 -8.98438
L10.1562 -8.98438
z

M67.5781 55.0781
L67.5781 8.59375
L32.0312 8.59375
L32.0312 55.0781
z

M60.1562 35.5469
L60.1562 48.0469
L39.4531 48.0469
L39.4531 35.5469
z

M39.4531 28.125
L39.4531 15.2344
L60.1562 15.2344
L60.1562 28.125
z
" id="WenQuanYiMicroHei-95f4"/>
      <path d="
M4 27.3906
Q4 33.5 4.875 39.4219
Q5.76562 45.3594 7.5625 50.9531
Q9.375 56.5469 12.125 61.6875
Q14.8906 66.8438 18.7031 71.3906
L27.0938 71.3906
Q20.2656 61.9688 16.7188 50.6875
Q13.1875 39.4062 13.1875 27.4844
Q13.1875 21.6875 14.0781 15.9219
Q14.9844 10.1562 16.7188 4.64062
Q18.4531 -0.875 21.0469 -6.04688
Q23.6406 -11.2344 27 -15.8281
L18.7031 -15.8281
Q14.8906 -11.4219 12.125 -6.39062
Q9.375 -1.375 7.5625 4.125
Q5.76562 9.625 4.875 15.4844
Q4 21.3438 4 27.3906" id="WenQuanYiMicroHei-28"/>
      <path d="
M5.07812 54.6875
L20.3125 54.6875
L20.3125 67.5781
Q14.4531 66.0156 8.20312 64.8438
L5.46875 71.875
Q23.0469 75 37.5 81.25
L41.0156 74.6094
L27.7344 69.9219
L27.7344 54.6875
L41.7969 54.6875
L41.7969 47.6562
L27.7344 47.6562
L27.7344 45.7031
Q35.5469 37.5 41.4062 29.2969
L36.3281 22.2656
Q32.0312 29.6875 27.7344 35.5469
L27.7344 -8.98438
L20.3125 -8.98438
L20.3125 30.0781
Q15.625 18.3594 8.20312 8.59375
L2.73438 15.2344
Q13.6719 29.2969 19.1406 47.6562
L5.07812 47.6562
z

M62.5 80.8594
L70.7031 80.8594
L70.7031 21.875
L62.5 21.875
z

M81.6406 70.7031
Q89.8438 57.4219 95.3125 42.1875
L88.2812 38.2812
Q83.5938 53.125 75.3906 66.7969
z

M48.8281 69.9219
L56.25 67.1875
Q52.3438 46.4844 46.0938 32.0312
L38.6719 36.7188
Q45.3125 51.5625 48.8281 69.9219
M82.8125 36.3281
L90.625 33.5938
Q82.8125 16.7969 70.3125 6.64062
Q57.8125 -3.51562 37.1094 -9.375
L33.5938 -1.95312
Q52.7344 3.125 63.8594 12.1094
Q75 21.0938 82.8125 36.3281" id="WenQuanYiMicroHei-79d2"/>
      <path d="
M42.9688 60.5469
L75 60.5469
L75 80.8594
L82.8125 80.8594
L82.8125 60.5469
L94.5312 60.5469
L94.5312 53.125
L82.8125 53.125
L82.8125 1.95312
Q82.8125 -3.90625 80.6562 -6.25
Q78.5156 -8.59375 73.0469 -8.59375
Q66.7969 -8.59375 60.9375 -7.03125
L59.375 1.17188
Q65.625 -0.78125 71.875 -0.78125
Q73.4375 -0.78125 74.2188 0
Q75 0.78125 75 3.90625
L75 53.125
L42.9688 53.125
z

M54.2969 46.4844
Q61.7188 34.375 66.7969 20.3125
L58.9844 16.7969
Q54.2969 31.6406 47.2656 43.3594
z

M39.4531 73.4375
L39.4531 4.29688
L32.0312 4.29688
L32.0312 9.76562
L14.8438 9.76562
L14.8438 1.17188
L7.42188 1.17188
L7.42188 73.4375
z

M14.8438 45.3125
L32.0312 45.3125
L32.0312 66.4062
L14.8438 66.4062
z

M14.8438 16.7969
L32.0312 16.7969
L32.0312 38.2812
L14.8438 38.2812
z
" id="WenQuanYiMicroHei-65f6"/>
      <path d="
M26.125 27.3906
Q26.125 21.3438 25.2344 15.4844
Q24.3594 9.625 22.5312 4.125
Q20.7031 -1.375 17.9375 -6.39062
Q15.1875 -11.4219 11.375 -15.8281
L3.07812 -15.8281
Q6.45312 -11.2344 9.03125 -6.04688
Q11.625 -0.875 13.375 4.64062
Q15.1406 10.1562 16.0156 15.9219
Q16.8906 21.6875 16.8906 27.4844
Q16.8906 39.4062 13.375 50.6875
Q9.85938 61.9688 2.98438 71.3906
L11.375 71.3906
Q15.1875 66.8438 17.9375 61.6875
Q20.7031 56.5469 22.5312 50.9531
Q24.3594 45.3594 25.2344 39.4219
Q26.125 33.5 26.125 27.3906" id="WenQuanYiMicroHei-29"/>
     </defs>
     <g transform="translate(194.39568 211.591740938)scale(0.09996 -0.09996)">
      <use xlink:href="#WenQuanYiMicroHei-65f6"/>
      <use x="100.0" xlink:href="#WenQuanYiMicroHei-95f4"/>
      <use x="200.0" xlink:href="#WenQuanYiMicroHei-28"/>
      <use x="230.078125" xlink:href="#WenQuanYiMicroHei-79d2"/>
      <use x="330.078125" xlink:href="#WenQuanYiMicroHei-29"/>
     </g>
    </g>
   </g>
   <g id="matplotlib.axis_2">
    <g id="ytick_1">
     <g id="line2d_14">
      <defs>
       <path d="
M0 0
L4 0" id="m728421d6d4" style="stroke:#000000;stroke-width:0.5;"/>
      </defs>
      <g>
       <use style="stroke:#000000;stroke-width:0.5;" x="44.427766875" xlink:href="#m728421d6d4" y="184.998780938"/>
      </g>
     </g>
     <g id="line2d_15">
      <defs>
       <path d="
M0 0
L-4 0" id="mcb0005524f" style="stroke:#000000;stroke-width:0.5;"/>
      </defs>
      <g>
       <use style="stroke:#000000;stroke-width:0.5;" x="379.227766875" xlink:href="#mcb0005524f" y="184.998780938"/>
      </g>
     </g>
     <g id="text_8">
      <!-- −1.0 -->
      <defs>
       <path d="
M4.98438 31.5938
L4.98438 38.9219
L50.0938 38.9219
L50.0938 31.5938
z
" id="WenQuanYiMicroHei-2212"/>
       <path d="
M7.17188 5.42188
Q7.17188 7.28125 7.65625 8.5625
Q8.15625 9.85938 8.98438 10.6562
Q9.8125 11.4688 10.9375 11.8281
Q12.0625 12.2031 13.375 12.2031
Q14.6562 12.2031 15.7969 11.8281
Q16.9375 11.4688 17.7656 10.6562
Q18.6094 9.85938 19.0938 8.5625
Q19.5781 7.28125 19.5781 5.42188
Q19.5781 3.60938 19.0938 2.3125
Q18.6094 1.03125 17.7656 0.1875
Q16.9375 -0.640625 15.7969 -1.03125
Q14.6562 -1.42188 13.375 -1.42188
Q12.0625 -1.42188 10.9375 -1.03125
Q9.8125 -0.640625 8.98438 0.1875
Q8.15625 1.03125 7.65625 2.3125
Q7.17188 3.60938 7.17188 5.42188" id="WenQuanYiMicroHei-2e"/>
      </defs>
      <g transform="translate(22.197561875 187.595398125)scale(0.09996 -0.09996)">
       <use xlink:href="#WenQuanYiMicroHei-2212"/>
       <use x="55.078125" xlink:href="#WenQuanYiMicroHei-31"/>
       <use x="110.15625" xlink:href="#WenQuanYiMicroHei-2e"/>
       <use x="136.962890625" xlink:href="#WenQuanYiMicroHei-30"/>
      </g>
     </g>
    </g>
    <g id="ytick_2">
     <g id="line2d_16">
      <g>
       <use style="stroke:#000000;stroke-width:0.5;" x="44.427766875" xlink:href="#m728421d6d4" y="141.798780938"/>
      </g>
     </g>
     <g id="line2d_17">
      <g>
       <use style="stroke:#000000;stroke-width:0.5;" x="379.227766875" xlink:href="#mcb0005524f" y="141.798780938"/>
      </g>
     </g>
     <g id="text_9">
      <!-- −0.5 -->
      <defs>
       <path d="
M26.6094 43.7969
Q31.4531 43.7969 35.625 42.4531
Q39.7969 41.1094 42.8906 38.4688
Q46 35.8438 47.75 31.9375
Q49.5156 28.0312 49.5156 22.9062
Q49.5156 17.3281 47.8438 12.8906
Q46.1875 8.45312 42.9219 5.375
Q39.6562 2.29688 34.8438 0.65625
Q30.0312 -0.984375 23.7812 -0.984375
Q21.2969 -0.984375 18.875 -0.734375
Q16.4531 -0.484375 14.2344 -0.015625
Q12.0156 0.4375 10.0156 1.17188
Q8.01562 1.90625 6.39062 2.875
L6.39062 11.2812
Q8.01562 10.1562 10.1875 9.28125
Q12.3594 8.40625 14.75 7.8125
Q17.1406 7.23438 19.5469 6.90625
Q21.9688 6.59375 24.0312 6.59375
Q27.875 6.59375 30.9062 7.5
Q33.9375 8.40625 36.0312 10.2969
Q38.1406 12.2031 39.25 15.0781
Q40.375 17.9688 40.375 21.9219
Q40.375 28.9062 36.0781 32.5938
Q31.7812 36.2812 23.5781 36.2812
Q22.2656 36.2812 20.7188 36.1562
Q19.1875 36.0312 17.6406 35.8281
Q16.1094 35.6406 14.7188 35.4219
Q13.3281 35.2031 12.3125 35.0156
L7.90625 37.7969
L10.5938 71.3906
L44.2812 71.3906
L44.2812 63.2812
L18.3125 63.2812
L16.4062 42.8281
Q17.9688 43.1094 20.5312 43.4531
Q23.0938 43.7969 26.6094 43.7969" id="WenQuanYiMicroHei-35"/>
      </defs>
      <g transform="translate(22.285026875 144.395398125)scale(0.09996 -0.09996)">
       <use xlink:href="#WenQuanYiMicroHei-2212"/>
       <use x="55.078125" xlink:href="#WenQuanYiMicroHei-30"/>
       <use x="110.15625" xlink:href="#WenQuanYiMicroHei-2e"/>
       <use x="136.962890625" xlink:href="#WenQuanYiMicroHei-35"/>
      </g>
     </g>
    </g>
    <g id="ytick_3">
     <g id="line2d_18">
      <g>
       <use style="stroke:#000000;stroke-width:0.5;" x="44.427766875" xlink:href="#m728421d6d4" y="98.5987809375"/>
      </g>
     </g>
     <g id="line2d_19">
      <g>
       <use style="stroke:#000000;stroke-width:0.5;" x="379.227766875" xlink:href="#mcb0005524f" y="98.5987809375"/>
      </g>
     </g>
     <g id="text_10">
      <!-- 0.0 -->
      <g transform="translate(27.682866875 101.195398125)scale(0.09996 -0.09996)">
       <use xlink:href="#WenQuanYiMicroHei-30"/>
       <use x="55.078125" xlink:href="#WenQuanYiMicroHei-2e"/>
       <use x="81.884765625" xlink:href="#WenQuanYiMicroHei-30"/>
      </g>
     </g>
    </g>
    <g id="ytick_4">
     <g id="line2d_20">
      <g>
       <use style="stroke:#000000;stroke-width:0.5;" x="44.427766875" xlink:href="#m728421d6d4" y="55.3987809375"/>
      </g>
     </g>
     <g id="line2d_21">
      <g>
       <use style="stroke:#000000;stroke-width:0.5;" x="379.227766875" xlink:href="#mcb0005524f" y="55.3987809375"/>
      </g>
     </g>
     <g id="text_11">
      <!-- 0.5 -->
      <g transform="translate(27.770331875 57.995398125)scale(0.09996 -0.09996)">
       <use xlink:href="#WenQuanYiMicroHei-30"/>
       <use x="55.078125" xlink:href="#WenQuanYiMicroHei-2e"/>
       <use x="81.884765625" xlink:href="#WenQuanYiMicroHei-35"/>
      </g>
     </g>
    </g>
    <g id="ytick_5">
     <g id="line2d_22">
      <g>
       <use style="stroke:#000000;stroke-width:0.5;" x="44.427766875" xlink:href="#m728421d6d4" y="12.1987809375"/>
      </g>
     </g>
     <g id="line2d_23">
      <g>
       <use style="stroke:#000000;stroke-width:0.5;" x="379.227766875" xlink:href="#mcb0005524f" y="12.1987809375"/>
      </g>
     </g>
     <g id="text_12">
      <!-- 1.0 -->
      <g transform="translate(28.073335625 14.795398125)scale(0.09996 -0.09996)">
       <use xlink:href="#WenQuanYiMicroHei-31"/>
       <use x="55.078125" xlink:href="#WenQuanYiMicroHei-2e"/>
       <use x="81.884765625" xlink:href="#WenQuanYiMicroHei-30"/>
      </g>
     </g>
    </g>
    <g id="text_13">
     <!-- 振动角度(弧度) -->
     <defs>
      <path d="
M91.7969 76.9531
L91.7969 69.9219
L44.9219 69.9219
L44.9219 43.75
L93.75 43.75
L93.75 36.7188
L72.6562 36.7188
Q74.6094 27.3438 76.9531 21.0938
Q83.9844 26.9531 88.6719 33.2031
L94.5312 28.5156
Q88.6719 20.3125 80.0781 14.8438
Q86.3281 4.29688 96.4844 -1.95312
L92.5781 -8.98438
Q71.0938 5.46875 66.0156 36.7188
L58.9844 36.7188
L58.9844 -0.78125
Q66.4062 2.34375 72.2656 5.85938
L73.4375 -0.78125
Q65.625 -5.46875 54.6875 -9.375
L51.5625 -5.85938
L51.5625 36.7188
L44.9219 36.7188
Q44.1406 10.1562 35.9375 -8.59375
L28.9062 -4.29688
Q37.5 16.4062 37.5 40.2344
L37.5 76.9531
z

M50.3906 60.5469
L88.6719 60.5469
L88.6719 53.5156
L50.3906 53.5156
z

M5.85938 64.4531
L15.2344 64.4531
L15.2344 80.8594
L22.6562 80.8594
L22.6562 64.4531
L32.0312 64.4531
L32.0312 57.0312
L22.6562 57.0312
L22.6562 37.5
L30.0781 41.7969
L31.6406 34.7656
Q27.3438 31.6406 22.6562 28.9062
L22.6562 1.17188
Q22.6562 -4.6875 21.0938 -6.82812
Q19.5312 -8.98438 15.2344 -8.98438
Q11.3281 -8.98438 7.8125 -8.20312
L5.85938 -0.78125
Q10.1562 -1.5625 14.0625 -1.5625
Q15.2344 -1.5625 15.2344 3.125
L15.2344 25
Q11.3281 22.6562 7.03125 20.7031
L4.29688 28.9062
Q10.1562 31.25 15.2344 33.9844
L15.2344 57.0312
L5.85938 57.0312
z
" id="WenQuanYiMicroHei-632f"/>
      <path d="
M32.8125 82.8125
L41.4062 80.8594
Q39.4531 77.3438 37.1094 74.2188
L71.0938 74.2188
L71.0938 67.9688
Q67.1875 62.8906 62.8906 58.9844
L89.0625 58.9844
L89.0625 1.5625
Q89.0625 -3.90625 87.1094 -6.4375
Q85.1562 -8.98438 81.25 -8.98438
Q75.3906 -8.98438 65.625 -7.8125
L63.6719 1.17188
Q75 0 79.2969 0
Q81.25 0 81.25 2.73438
L81.25 14.0625
L55.8594 14.0625
L55.8594 -8.59375
L48.0469 -8.59375
L48.0469 14.0625
L23.4375 14.0625
Q21.0938 0.78125 10.1562 -9.375
L4.6875 -2.34375
Q16.7969 8.59375 16.7969 33.9844
L16.7969 54.6875
Q12.8906 51.9531 8.59375 49.6094
L3.125 55.8594
Q22.6562 66.7969 32.8125 82.8125
M22.6562 58.9844
L51.9531 58.9844
Q57.0312 63.2812 59.7656 67.5781
L31.6406 67.5781
Q28.5156 63.6719 22.6562 58.9844
M25 39.8438
L48.0469 39.8438
L48.0469 51.5625
L25 51.5625
z

M55.8594 51.5625
L55.8594 39.8438
L81.25 39.8438
L81.25 51.5625
z

M24.6094 21.0938
L48.0469 21.0938
L48.0469 32.8125
L25 32.8125
L25 29.2969
Q25 26.1719 24.6094 21.0938
M55.8594 32.8125
L55.8594 21.0938
L81.25 21.0938
L81.25 32.8125
z
" id="WenQuanYiMicroHei-89d2"/>
      <path d="
M82.8125 80.8594
L88.6719 74.2188
Q84.7656 73.4375 80.4688 72.2656
Q81.6406 43.75 85.3438 27.7344
Q89.0625 11.7188 96.4844 -2.73438
L91.0156 -9.375
Q83.2031 4.6875 79.0938 22.2656
Q75 39.8438 73.4375 71.0938
Q69.5312 69.9219 65.2344 69.5312
L65.2344 3.90625
Q69.1406 5.07812 72.2656 6.64062
Q70.3125 12.5 67.9688 17.5781
L73.8281 20.3125
Q79.2969 8.59375 83.2031 -5.46875
L76.5625 -8.59375
L74.2188 0.78125
Q68.3594 -1.95312 61.7188 -4.29688
L58.2031 -1.17188
L58.2031 68.3594
L50.3906 67.5781
L50.3906 50.7812
Q50.3906 13.6719 41.4062 -9.375
L34.7656 -5.07812
Q42.9688 16.4062 42.9688 52.3438
L42.9688 74.2188
Q64.8438 76.1719 82.8125 80.8594
M27.3438 55.0781
L27.3438 69.9219
L7.42188 69.9219
L7.42188 77.3438
L34.7656 77.3438
L34.7656 48.0469
L16.7969 48.0469
L15.2344 32.4219
L34.375 32.4219
Q34.375 2.73438 32.2188 -2.92188
Q30.0781 -8.59375 23.0469 -8.59375
Q18.75 -8.59375 13.2812 -7.42188
L11.7188 0
Q17.9688 -1.17188 22.2656 -1.17188
Q24.2188 -1.17188 25.1875 2.14062
Q26.1719 5.46875 26.5625 25.3906
L6.64062 25.3906
L9.76562 55.0781
z
" id="WenQuanYiMicroHei-5f27"/>
      <path d="
M49.6094 63.6719
L61.7188 63.6719
L61.7188 80.8594
L69.5312 80.8594
L69.5312 63.6719
L92.5781 63.6719
Q92.1875 8.20312 89.4531 0.390625
Q86.7188 -7.42188 80.0781 -7.42188
Q75 -7.42188 68.3594 -6.25
L67.1875 1.5625
Q75 0.390625 79.6875 0.390625
Q82.0312 0.390625 82.8125 7.03125
Q85.1562 22.2656 85.1562 56.25
L69.5312 56.25
Q69.1406 8.98438 46.875 -8.98438
L41.4062 -3.125
Q61.3281 13.6719 61.7188 56.25
L49.6094 56.25
z

M8.98438 73.8281
L42.1875 73.8281
L42.1875 66.7969
L8.98438 66.7969
z

M5.85938 51.1719
L45.3125 51.1719
L45.3125 43.75
L28.125 43.75
Q21.4844 21.0938 13.6719 10.9375
Q25.3906 12.1094 38.2812 16.4062
Q35.9375 23.8281 32.4219 30.4688
L39.4531 32.4219
Q45.7031 21.0938 48.8281 7.03125
L41.7969 5.07812
Q41.0156 7.42188 40.625 9.76562
Q25 4.6875 7.42188 3.125
L5.07812 10.1562
Q13.6719 21.875 19.5312 43.75
L5.85938 43.75
z
" id="WenQuanYiMicroHei-52a8"/>
      <path d="
M53.9062 81.25
Q56.25 77.7344 57.8125 73.0469
L92.5781 73.0469
L92.5781 66.0156
L21.4844 66.0156
L21.4844 35.5469
Q21.4844 10.5469 11.3281 -8.98438
L3.90625 -4.29688
Q9.375 7.03125 11.5156 16.2031
Q13.6719 25.3906 13.6719 38.2812
L13.6719 73.0469
L49.2188 73.0469
Q48.0469 76.1719 46.0938 78.9062
z

M23.4375 55.8594
L38.2812 55.8594
L38.2812 63.2812
L45.7031 63.2812
L45.7031 55.8594
L69.5312 55.8594
L69.5312 63.2812
L76.9531 63.2812
L76.9531 55.8594
L91.7969 55.8594
L91.7969 49.2188
L76.9531 49.2188
L76.9531 33.5938
L38.2812 33.5938
L38.2812 49.2188
L23.4375 49.2188
z

M69.5312 40.2344
L69.5312 49.2188
L45.7031 49.2188
L45.7031 40.2344
z

M27.3438 26.9531
L85.5469 26.9531
L85.5469 21.0938
Q78.9062 11.3281 66.4062 4.29688
Q76.9531 0 95.3125 -0.78125
L92.9688 -8.59375
Q70.7031 -7.8125 57.0312 -0.390625
Q42.5781 -6.25 23.8281 -9.375
L19.1406 -2.34375
Q36.7188 0 48.8281 4.29688
Q39.8438 10.1562 32.4219 20.3125
L27.3438 20.3125
z

M42.1875 20.3125
Q49.6094 12.1094 57.8125 8.20312
Q67.9688 13.2812 74.2188 20.3125
z
" id="WenQuanYiMicroHei-5ea6"/>
     </defs>
     <g transform="translate(14.795398125 131.181055313)rotate(-90.0)scale(0.09996 -0.09996)">
      <use xlink:href="#WenQuanYiMicroHei-632f"/>
      <use x="100.0" xlink:href="#WenQuanYiMicroHei-52a8"/>
      <use x="200.0" xlink:href="#WenQuanYiMicroHei-89d2"/>
      <use x="300.0" xlink:href="#WenQuanYiMicroHei-5ea6"/>
      <use x="400.0" xlink:href="#WenQuanYiMicroHei-28"/>
      <use x="430.078125" xlink:href="#WenQuanYiMicroHei-5f27"/>
      <use x="530.078125" xlink:href="#WenQuanYiMicroHei-5ea6"/>
      <use x="630.078125" xlink:href="#WenQuanYiMicroHei-29"/>
     </g>
    </g>
   </g>
  </g>
 </g>
 <defs>
  <clipPath id="p7222d2245f">
   <rect height="172.8" width="334.8" x="44.427766875" y="12.1987809375"/>
  </clipPath>
 </defs>
</svg>
