<?xml version="1.0" encoding="utf-8" standalone="no"?>
<!DOCTYPE svg PUBLIC "-//W3C//DTD SVG 1.1//EN"
  "http://www.w3.org/Graphics/SVG/1.1/DTD/svg11.dtd">
<!-- Created with matplotlib (http://matplotlib.org/) -->
<svg height="201pt" version="1.1" viewBox="0 0 371 201" width="371pt" xmlns="http://www.w3.org/2000/svg" xmlns:xlink="http://www.w3.org/1999/xlink">
 <defs>
  <style type="text/css">
*{stroke-linecap:butt;stroke-linejoin:round;}
  </style>
 </defs>
 <g id="figure_1">
  <g id="patch_1">
   <path d="
M0 201.198
L371.699 201.198
L371.699 0
L0 0
z
" style="fill:#ffffff;"/>
  </g>
  <g id="axes_1">
   <g id="patch_2">
    <path d="
M29.6988 180
L364.499 180
L364.499 7.2
L29.6988 7.2
z
" style="fill:#ffffff;"/>
   </g>
   <g id="line2d_1">
    <path clip-path="url(#pdf668f0145)" d="
M57.5988 21.6
L60.417 27.9371
L63.2352 34.071
L66.0534 40.0067
L68.8716 45.7492
L71.6898 51.3032
L74.5079 56.6735
L77.3261 61.8645
L80.1443 66.8804
L82.9625 71.7256
L85.7807 76.4039
L88.5988 80.9194
L91.417 85.2757
L94.2352 89.4765
L97.0534 93.5254
L99.8716 97.4256
L102.69 101.18
L105.508 104.793
L108.326 108.266
L111.144 111.603
L113.962 114.807
L116.781 117.879
L119.599 120.823
L122.417 123.642
L125.235 126.336
L128.053 128.91
L130.872 131.364
L133.69 133.701
L136.508 135.923
L139.326 138.032
L142.144 140.029
L144.962 141.916
L147.781 143.695
L150.599 145.367
L153.417 146.934
L156.235 148.397
L159.053 149.756
L161.872 151.014
L164.69 152.171
L167.508 153.228
L170.326 154.187
L173.144 155.047
L175.962 155.81
L178.781 156.476
L181.599 157.046
L184.417 157.52
L187.235 157.899
L190.053 158.183
L192.872 158.372
L195.69 158.467
L198.508 158.467
L201.326 158.372
L204.144 158.183
L206.962 157.899
L209.781 157.52
L212.599 157.046
L215.417 156.476
L218.235 155.81
L221.053 155.047
L223.872 154.187
L226.69 153.228
L229.508 152.171
L232.326 151.014
L235.144 149.756
L237.962 148.397
L240.781 146.934
L243.599 145.367
L246.417 143.695
L249.235 141.916
L252.053 140.029
L254.872 138.032
L257.69 135.923
L260.508 133.701
L263.326 131.364
L266.144 128.91
L268.962 126.336
L271.781 123.642
L274.599 120.823
L277.417 117.879
L280.235 114.807
L283.053 111.603
L285.872 108.266
L288.69 104.793
L291.508 101.18
L294.326 97.4256
L297.144 93.5254
L299.962 89.4765
L302.781 85.2757
L305.599 80.9194
L308.417 76.4039
L311.235 71.7256
L314.053 66.8804
L316.872 61.8645
L319.69 56.6735
L322.508 51.3032
L325.326 45.7492
L328.144 40.0067
L330.962 34.071
L333.781 27.9371
L336.599 21.6" style="fill:none;stroke:#348abd;stroke-linecap:square;stroke-width:2.0;"/>
   </g>
   <g id="line2d_2">
    <path clip-path="url(#pdf668f0145)" d="
M57.5988 21.6
L60.417 28.3361
L63.2352 34.8508
L66.0534 41.1497
L68.8716 47.2387
L71.6898 53.1231
L74.5079 58.8083
L77.3261 64.2993
L80.1443 69.6011
L82.9625 74.7185
L85.7807 79.6561
L88.5988 84.4182
L91.417 89.0093
L94.2352 93.4333
L97.0534 97.6943
L99.8716 101.796
L102.69 105.742
L105.508 109.537
L108.326 113.182
L111.144 116.683
L113.962 120.041
L116.781 123.26
L119.599 126.343
L122.417 129.293
L125.235 132.112
L128.053 134.802
L130.872 137.367
L133.69 139.808
L136.508 142.128
L139.326 144.328
L142.144 146.411
L144.962 148.379
L147.781 150.233
L150.599 151.975
L153.417 153.606
L156.235 155.129
L159.053 156.544
L161.872 157.853
L164.69 159.057
L167.508 160.156
L170.326 161.153
L173.144 162.047
L175.962 162.84
L178.781 163.532
L181.599 164.124
L184.417 164.617
L187.235 165.01
L190.053 165.305
L192.872 165.502
L195.69 165.6
L198.508 165.6
L201.326 165.502
L204.144 165.305
L206.962 165.01
L209.781 164.617
L212.599 164.124
L215.417 163.532
L218.235 162.84
L221.053 162.047
L223.872 161.153
L226.69 160.156
L229.508 159.057
L232.326 157.853
L235.144 156.544
L237.962 155.129
L240.781 153.606
L243.599 151.975
L246.417 150.233
L249.235 148.379
L252.053 146.411
L254.872 144.328
L257.69 142.128
L260.508 139.808
L263.326 137.367
L266.144 134.802
L268.962 132.112
L271.781 129.293
L274.599 126.343
L277.417 123.26
L280.235 120.041
L283.053 116.683
L285.872 113.182
L288.69 109.537
L291.508 105.742
L294.326 101.796
L297.144 97.6943
L299.962 93.4333
L302.781 89.0093
L305.599 84.4182
L308.417 79.6561
L311.235 74.7185
L314.053 69.6011
L316.872 64.2993
L319.69 58.8083
L322.508 53.1231
L325.326 47.2387
L328.144 41.1497
L330.962 34.8508
L333.781 28.3361
L336.599 21.6" style="fill:none;stroke:#a60628;stroke-linecap:square;stroke-width:2.0;"/>
   </g>
   <g id="line2d_3">
    <defs>
     <path d="
M0 3
C0.795609 3 1.55874 2.6839 2.12132 2.12132
C2.6839 1.55874 3 0.795609 3 0
C3 -0.795609 2.6839 -1.55874 2.12132 -2.12132
C1.55874 -2.6839 0.795609 -3 0 -3
C-0.795609 -3 -1.55874 -2.6839 -2.12132 -2.12132
C-2.6839 -1.55874 -3 -0.795609 -3 0
C-3 0.795609 -2.6839 1.55874 -2.12132 2.12132
C-1.55874 2.6839 -0.795609 3 0 3
z
" id="me26ab07df5" style="stroke:#000000;stroke-width:0.5;"/>
    </defs>
    <g clip-path="url(#pdf668f0145)">
     <use style="fill:#7a68a6;stroke:#000000;stroke-width:0.5;" x="57.5988475" xlink:href="#me26ab07df5" y="21.6"/>
     <use style="fill:#7a68a6;stroke:#000000;stroke-width:0.5;" x="63.4458884265" xlink:href="#me26ab07df5" y="35.4155330376"/>
     <use style="fill:#7a68a6;stroke:#000000;stroke-width:0.5;" x="69.6394846732" xlink:href="#me26ab07df5" y="49.012109259"/>
     <use style="fill:#7a68a6;stroke:#000000;stroke-width:0.5;" x="76.1602055903" xlink:href="#me26ab07df5" y="62.3466683415"/>
     <use style="fill:#7a68a6;stroke:#000000;stroke-width:0.5;" x="83.022586558" xlink:href="#me26ab07df5" y="75.4140857183"/>
     <use style="fill:#7a68a6;stroke:#000000;stroke-width:0.5;" x="90.4340079119" xlink:href="#me26ab07df5" y="88.0593954942"/>
     <use style="fill:#7a68a6;stroke:#000000;stroke-width:0.5;" x="98.3474260991" xlink:href="#me26ab07df5" y="100.228373622"/>
     <use style="fill:#7a68a6;stroke:#000000;stroke-width:0.5;" x="106.820807501" xlink:href="#me26ab07df5" y="111.851845155"/>
     <use style="fill:#7a68a6;stroke:#000000;stroke-width:0.5;" x="116.075563637" xlink:href="#me26ab07df5" y="122.593327467"/>
     <use style="fill:#7a68a6;stroke:#000000;stroke-width:0.5;" x="125.833236719" xlink:href="#me26ab07df5" y="132.67938978"/>
     <use style="fill:#7a68a6;stroke:#000000;stroke-width:0.5;" x="136.373929245" xlink:href="#me26ab07df5" y="141.623278379"/>
     <use style="fill:#7a68a6;stroke:#000000;stroke-width:0.5;" x="147.539834512" xlink:href="#me26ab07df5" y="149.414512817"/>
     <use style="fill:#7a68a6;stroke:#000000;stroke-width:0.5;" x="159.137870935" xlink:href="#me26ab07df5" y="156.258280776"/>
     <use style="fill:#7a68a6;stroke:#000000;stroke-width:0.5;" x="171.399155052" xlink:href="#me26ab07df5" y="161.339049154"/>
     <use style="fill:#7a68a6;stroke:#000000;stroke-width:0.5;" x="184.116148396" xlink:href="#me26ab07df5" y="164.539933922"/>
     <use style="fill:#7a68a6;stroke:#000000;stroke-width:0.5;" x="197.0988475" xlink:href="#me26ab07df5" y="165.360444447"/>
     <use style="fill:#7a68a6;stroke:#000000;stroke-width:0.5;" x="210.081546604" xlink:href="#me26ab07df5" y="164.539933922"/>
     <use style="fill:#7a68a6;stroke:#000000;stroke-width:0.5;" x="222.798539948" xlink:href="#me26ab07df5" y="161.339049154"/>
     <use style="fill:#7a68a6;stroke:#000000;stroke-width:0.5;" x="235.059824065" xlink:href="#me26ab07df5" y="156.258280775"/>
     <use style="fill:#7a68a6;stroke:#000000;stroke-width:0.5;" x="246.657860488" xlink:href="#me26ab07df5" y="149.414512817"/>
     <use style="fill:#7a68a6;stroke:#000000;stroke-width:0.5;" x="257.823765755" xlink:href="#me26ab07df5" y="141.623278379"/>
     <use style="fill:#7a68a6;stroke:#000000;stroke-width:0.5;" x="268.364458281" xlink:href="#me26ab07df5" y="132.67938978"/>
     <use style="fill:#7a68a6;stroke:#000000;stroke-width:0.5;" x="278.122131363" xlink:href="#me26ab07df5" y="122.593327467"/>
     <use style="fill:#7a68a6;stroke:#000000;stroke-width:0.5;" x="287.376887499" xlink:href="#me26ab07df5" y="111.851845155"/>
     <use style="fill:#7a68a6;stroke:#000000;stroke-width:0.5;" x="295.850268901" xlink:href="#me26ab07df5" y="100.228373622"/>
     <use style="fill:#7a68a6;stroke:#000000;stroke-width:0.5;" x="303.763687088" xlink:href="#me26ab07df5" y="88.0593954942"/>
     <use style="fill:#7a68a6;stroke:#000000;stroke-width:0.5;" x="311.175108442" xlink:href="#me26ab07df5" y="75.4140857183"/>
     <use style="fill:#7a68a6;stroke:#000000;stroke-width:0.5;" x="318.03748941" xlink:href="#me26ab07df5" y="62.3466683415"/>
     <use style="fill:#7a68a6;stroke:#000000;stroke-width:0.5;" x="324.558210327" xlink:href="#me26ab07df5" y="49.012109259"/>
     <use style="fill:#7a68a6;stroke:#000000;stroke-width:0.5;" x="330.751806574" xlink:href="#me26ab07df5" y="35.4155330376"/>
     <use style="fill:#7a68a6;stroke:#000000;stroke-width:0.5;" x="336.5988475" xlink:href="#me26ab07df5" y="21.6"/>
    </g>
   </g>
   <g id="patch_3">
    <path d="
M29.6988 7.2
L364.499 7.2" style="fill:none;stroke:#000000;stroke-linecap:square;stroke-linejoin:miter;"/>
   </g>
   <g id="patch_4">
    <path d="
M364.499 180
L364.499 7.2" style="fill:none;stroke:#000000;stroke-linecap:square;stroke-linejoin:miter;"/>
   </g>
   <g id="patch_5">
    <path d="
M29.6988 180
L364.499 180" style="fill:none;stroke:#000000;stroke-linecap:square;stroke-linejoin:miter;"/>
   </g>
   <g id="patch_6">
    <path d="
M29.6988 180
L29.6988 7.2" style="fill:none;stroke:#000000;stroke-linecap:square;stroke-linejoin:miter;"/>
   </g>
   <g id="matplotlib.axis_1">
    <g id="xtick_1">
     <g id="line2d_4">
      <defs>
       <path d="
M0 0
L0 -4" id="m93b0483c22" style="stroke:#000000;stroke-width:0.5;"/>
      </defs>
      <g>
       <use style="stroke:#000000;stroke-width:0.5;" x="57.5988475" xlink:href="#m93b0483c22" y="180.0"/>
      </g>
     </g>
     <g id="line2d_5">
      <defs>
       <path d="
M0 0
L0 4" id="m741efc42ff" style="stroke:#000000;stroke-width:0.5;"/>
      </defs>
      <g>
       <use style="stroke:#000000;stroke-width:0.5;" x="57.5988475" xlink:href="#m741efc42ff" y="7.2"/>
      </g>
     </g>
     <g id="text_1">
      <!-- 0.0 -->
      <defs>
       <path d="
M50.3906 35.7969
Q50.3906 27.1562 49.1406 20.3125
Q47.9062 13.4844 45.1406 8.73438
Q42.3906 4 38.0312 1.5
Q33.6875 -0.984375 27.4844 -0.984375
Q21.7344 -0.984375 17.4531 1.5
Q13.1875 4 10.375 8.73438
Q7.5625 13.4844 6.17188 20.3125
Q4.78125 27.1562 4.78125 35.7969
Q4.78125 44.4375 6.03125 51.2656
Q7.28125 58.1094 9.98438 62.8125
Q12.7031 67.5312 17.0156 70.0156
Q21.3438 72.5156 27.4844 72.5156
Q33.2969 72.5156 37.5938 70.0469
Q41.8906 67.5781 44.7188 62.8594
Q47.5625 58.1562 48.9688 51.3125
Q50.3906 44.4844 50.3906 35.7969
M13.8125 35.7969
Q13.8125 28.4688 14.5469 23
Q15.2812 17.5312 16.8906 13.8906
Q18.5 10.25 21.1094 8.42188
Q23.7344 6.59375 27.4844 6.59375
Q31.25 6.59375 33.8906 8.39062
Q36.5312 10.2031 38.2031 13.8125
Q39.8906 17.4375 40.6406 22.9219
Q41.4062 28.4219 41.4062 35.7969
Q41.4062 43.1094 40.6406 48.5781
Q39.8906 54.0469 38.2031 57.6562
Q36.5312 61.2812 33.8906 63.0781
Q31.25 64.8906 27.4844 64.8906
Q23.7344 64.8906 21.1094 63.0781
Q18.5 61.2812 16.8906 57.6562
Q15.2812 54.0469 14.5469 48.5781
Q13.8125 43.1094 13.8125 35.7969" id="WenQuanYiMicroHei-30"/>
       <path d="
M7.17188 5.42188
Q7.17188 7.28125 7.65625 8.5625
Q8.15625 9.85938 8.98438 10.6562
Q9.8125 11.4688 10.9375 11.8281
Q12.0625 12.2031 13.375 12.2031
Q14.6562 12.2031 15.7969 11.8281
Q16.9375 11.4688 17.7656 10.6562
Q18.6094 9.85938 19.0938 8.5625
Q19.5781 7.28125 19.5781 5.42188
Q19.5781 3.60938 19.0938 2.3125
Q18.6094 1.03125 17.7656 0.1875
Q16.9375 -0.640625 15.7969 -1.03125
Q14.6562 -1.42188 13.375 -1.42188
Q12.0625 -1.42188 10.9375 -1.03125
Q9.8125 -0.640625 8.98438 0.1875
Q8.15625 1.03125 7.65625 2.3125
Q7.17188 3.60938 7.17188 5.42188" id="WenQuanYiMicroHei-2e"/>
      </defs>
      <g transform="translate(51.2263975 191.595398125)scale(0.09996 -0.09996)">
       <use xlink:href="#WenQuanYiMicroHei-30"/>
       <use x="55.078125" xlink:href="#WenQuanYiMicroHei-2e"/>
       <use x="81.884765625" xlink:href="#WenQuanYiMicroHei-30"/>
      </g>
     </g>
    </g>
    <g id="xtick_2">
     <g id="line2d_6">
      <g>
       <use style="stroke:#000000;stroke-width:0.5;" x="113.3988475" xlink:href="#m93b0483c22" y="180.0"/>
      </g>
     </g>
     <g id="line2d_7">
      <g>
       <use style="stroke:#000000;stroke-width:0.5;" x="113.3988475" xlink:href="#m741efc42ff" y="7.2"/>
      </g>
     </g>
     <g id="text_2">
      <!-- 0.2 -->
      <defs>
       <path d="
M49.2188 0
L4.6875 0
L4.6875 7.625
L21.7812 26.2188
Q25.4375 30.1719 28.3125 33.4375
Q31.2031 36.7188 33.2188 39.8438
Q35.25 42.9688 36.3281 46.1094
Q37.4062 49.2656 37.4062 52.9844
Q37.4062 55.8594 36.5781 58.0469
Q35.75 60.25 34.2031 61.7812
Q32.6719 63.3281 30.5625 64.1094
Q28.4688 64.8906 25.875 64.8906
Q21.2344 64.8906 17.5 63.0156
Q13.7656 61.1406 10.4062 58.2031
L5.42188 64.0156
Q7.375 65.7656 9.60938 67.2969
Q11.8594 68.8438 14.4531 69.9688
Q17.0469 71.0938 19.9219 71.75
Q22.7969 72.4062 25.9844 72.4062
Q30.6719 72.4062 34.4531 71.0938
Q38.2344 69.7812 40.8594 67.3125
Q43.5 64.8438 44.9375 61.2969
Q46.3906 57.7656 46.3906 53.3281
Q46.3906 49.1719 45.0938 45.4062
Q43.7969 41.6562 41.5312 38.0156
Q39.2656 34.375 36.1094 30.7031
Q32.9531 27.0469 29.2969 23.0938
L15.5781 8.5
L15.5781 8.10938
L49.2188 8.10938
z
" id="WenQuanYiMicroHei-32"/>
      </defs>
      <g transform="translate(107.084967813 191.595398125)scale(0.09996 -0.09996)">
       <use xlink:href="#WenQuanYiMicroHei-30"/>
       <use x="55.078125" xlink:href="#WenQuanYiMicroHei-2e"/>
       <use x="81.884765625" xlink:href="#WenQuanYiMicroHei-32"/>
      </g>
     </g>
    </g>
    <g id="xtick_3">
     <g id="line2d_8">
      <g>
       <use style="stroke:#000000;stroke-width:0.5;" x="169.1988475" xlink:href="#m93b0483c22" y="180.0"/>
      </g>
     </g>
     <g id="line2d_9">
      <g>
       <use style="stroke:#000000;stroke-width:0.5;" x="169.1988475" xlink:href="#m741efc42ff" y="7.2"/>
      </g>
     </g>
     <g id="text_3">
      <!-- 0.4 -->
      <defs>
       <path d="
M53.0781 16.0156
L42.6719 16.0156
L42.6719 0
L34.0781 0
L34.0781 16.0156
L1.125 16.0156
L1.125 23.7812
L33.5 71.7812
L42.6719 71.7812
L42.6719 24.125
L53.0781 24.125
z

M34.0781 24.125
L34.0781 41.5
Q34.0781 44.2344 34.1562 47.2344
Q34.2344 50.25 34.3281 53.0938
Q34.4219 55.9531 34.5469 58.4375
Q34.6719 60.9375 34.7188 62.5938
L34.2812 62.5938
Q33.9375 61.625 33.4219 60.4219
Q32.9062 59.2344 32.2969 58.0312
Q31.6875 56.8438 31.0469 55.7188
Q30.4219 54.5938 29.8906 53.8125
L9.8125 24.125
z
" id="WenQuanYiMicroHei-34"/>
      </defs>
      <g transform="translate(162.69207625 191.595398125)scale(0.09996 -0.09996)">
       <use xlink:href="#WenQuanYiMicroHei-30"/>
       <use x="55.078125" xlink:href="#WenQuanYiMicroHei-2e"/>
       <use x="81.884765625" xlink:href="#WenQuanYiMicroHei-34"/>
      </g>
     </g>
    </g>
    <g id="xtick_4">
     <g id="line2d_10">
      <g>
       <use style="stroke:#000000;stroke-width:0.5;" x="224.9988475" xlink:href="#m93b0483c22" y="180.0"/>
      </g>
     </g>
     <g id="line2d_11">
      <g>
       <use style="stroke:#000000;stroke-width:0.5;" x="224.9988475" xlink:href="#m741efc42ff" y="7.2"/>
      </g>
     </g>
     <g id="text_4">
      <!-- 0.6 -->
      <defs>
       <path d="
M5.51562 30.5156
Q5.51562 35.6406 6.03125 40.7188
Q6.54688 45.7969 7.82812 50.4531
Q9.125 55.125 11.375 59.125
Q13.625 63.1406 17.0938 66.0938
Q20.5625 69.0469 25.3906 70.7188
Q30.2188 72.4062 36.7188 72.4062
Q37.6406 72.4062 38.7656 72.3594
Q39.8906 72.3125 41.0312 72.1875
Q42.1875 72.0781 43.2344 71.9062
Q44.2812 71.7344 45.125 71.4844
L45.125 63.9219
Q43.4062 64.5 41.25 64.7969
Q39.1094 65.0938 37.0156 65.0938
Q32.625 65.0938 29.2656 64.0312
Q25.9219 62.9844 23.4844 61.0781
Q21.0469 59.1875 19.4062 56.5469
Q17.7812 53.9062 16.75 50.7031
Q15.7188 47.5156 15.2344 43.8906
Q14.75 40.2812 14.5938 36.375
L15.1875 36.375
Q16.1562 38.1406 17.5469 39.6719
Q18.9531 41.2188 20.7969 42.3125
Q22.6562 43.4062 24.9688 44.0312
Q27.2969 44.6719 30.1719 44.6719
Q34.8125 44.6719 38.5625 43.2344
Q42.3281 41.7969 44.9688 39.0156
Q47.6094 36.2344 49.0469 32.2031
Q50.4844 28.1719 50.4844 23
Q50.4844 17.4375 48.9688 12.9844
Q47.4688 8.54688 44.625 5.4375
Q41.7969 2.34375 37.7969 0.671875
Q33.7969 -0.984375 28.8125 -0.984375
Q23.9219 -0.984375 19.6406 0.921875
Q15.375 2.82812 12.25 6.73438
Q9.125 10.6406 7.3125 16.5469
Q5.51562 22.4688 5.51562 30.5156
M28.7188 6.5
Q31.6406 6.5 34.0469 7.5
Q36.4688 8.5 38.2188 10.5156
Q39.9844 12.5469 40.9375 15.6406
Q41.8906 18.75 41.8906 23
Q41.8906 26.4219 41.0781 29.125
Q40.2812 31.8438 38.6719 33.7344
Q37.0625 35.6406 34.6406 36.6719
Q32.2344 37.7031 29 37.7031
Q25.7344 37.7031 23.0156 36.5469
Q20.3125 35.4062 18.4062 33.5625
Q16.5 31.7344 15.4531 29.3906
Q14.4062 27.0469 14.4062 24.7031
Q14.4062 21.4375 15.3125 18.1875
Q16.2188 14.9375 18 12.3438
Q19.7812 9.76562 22.4531 8.125
Q25.1406 6.5 28.7188 6.5" id="WenQuanYiMicroHei-36"/>
      </defs>
      <g transform="translate(218.621711875 191.595398125)scale(0.09996 -0.09996)">
       <use xlink:href="#WenQuanYiMicroHei-30"/>
       <use x="55.078125" xlink:href="#WenQuanYiMicroHei-2e"/>
       <use x="81.884765625" xlink:href="#WenQuanYiMicroHei-36"/>
      </g>
     </g>
    </g>
    <g id="xtick_5">
     <g id="line2d_12">
      <g>
       <use style="stroke:#000000;stroke-width:0.5;" x="280.7988475" xlink:href="#m93b0483c22" y="180.0"/>
      </g>
     </g>
     <g id="line2d_13">
      <g>
       <use style="stroke:#000000;stroke-width:0.5;" x="280.7988475" xlink:href="#m741efc42ff" y="7.2"/>
      </g>
     </g>
     <g id="text_5">
      <!-- 0.8 -->
      <defs>
       <path d="
M27.5938 72.5156
Q31.6875 72.5156 35.3281 71.4375
Q38.9688 70.3594 41.7188 68.2031
Q44.4844 66.0625 46.0938 62.8438
Q47.7031 59.625 47.7031 55.3281
Q47.7031 52.0469 46.7188 49.4062
Q45.75 46.7812 44.0312 44.6562
Q42.3281 42.5312 39.9844 40.8438
Q37.6406 39.1562 34.9062 37.7969
Q37.75 36.2812 40.4531 34.4219
Q43.1719 32.5625 45.2812 30.25
Q47.4062 27.9375 48.7031 25.0469
Q50 22.1719 50 18.6094
Q50 14.1094 48.3594 10.4688
Q46.7344 6.84375 43.7812 4.29688
Q40.8281 1.76562 36.6875 0.390625
Q32.5625 -0.984375 27.5938 -0.984375
Q22.2188 -0.984375 18.0469 0.328125
Q13.875 1.65625 11.0156 4.125
Q8.15625 6.59375 6.65625 10.1562
Q5.17188 13.7188 5.17188 18.2188
Q5.17188 21.875 6.26562 24.7969
Q7.375 27.7344 9.21875 30.0781
Q11.0781 32.4219 13.6094 34.2188
Q16.1562 36.0312 19 37.4062
Q16.6094 38.9219 14.5 40.7031
Q12.4062 42.4844 10.8594 44.6719
Q9.32812 46.875 8.42188 49.5312
Q7.51562 52.2031 7.51562 55.4219
Q7.51562 59.6719 9.15625 62.8594
Q10.7969 66.0625 13.5781 68.2031
Q16.3594 70.3594 20 71.4375
Q23.6406 72.5156 27.5938 72.5156
M13.9219 18.1094
Q13.9219 15.5312 14.7031 13.3594
Q15.4844 11.1875 17.1406 9.64062
Q18.7969 8.10938 21.3281 7.25
Q23.875 6.39062 27.3906 6.39062
Q30.8125 6.39062 33.4219 7.25
Q36.0312 8.10938 37.7812 9.6875
Q39.5469 11.2812 40.4219 13.5156
Q41.3125 15.7656 41.3125 18.5
Q41.3125 21.0469 40.3594 23.0938
Q39.4062 25.1406 37.625 26.8906
Q35.8438 28.6562 33.3438 30.2188
Q30.8594 31.7812 27.7812 33.2969
L26.3125 33.9844
Q20.1719 31.0625 17.0469 27.2656
Q13.9219 23.4844 13.9219 18.1094
M27.4844 65.0938
Q22.3125 65.0938 19.2656 62.5
Q16.2188 59.9062 16.2188 54.9844
Q16.2188 52.2031 17.0625 50.1875
Q17.9219 48.1875 19.4375 46.625
Q20.9531 45.0625 23.0781 43.8125
Q25.2031 42.5781 27.6875 41.4062
Q30.0312 42.4844 32.1094 43.75
Q34.1875 45.0156 35.7188 46.625
Q37.25 48.25 38.125 50.2969
Q39.0156 52.3438 39.0156 54.9844
Q39.0156 59.9062 35.9375 62.5
Q32.8594 65.0938 27.4844 65.0938" id="WenQuanYiMicroHei-38"/>
      </defs>
      <g transform="translate(274.445920938 191.595398125)scale(0.09996 -0.09996)">
       <use xlink:href="#WenQuanYiMicroHei-30"/>
       <use x="55.078125" xlink:href="#WenQuanYiMicroHei-2e"/>
       <use x="81.884765625" xlink:href="#WenQuanYiMicroHei-38"/>
      </g>
     </g>
    </g>
    <g id="xtick_6">
     <g id="line2d_14">
      <g>
       <use style="stroke:#000000;stroke-width:0.5;" x="336.5988475" xlink:href="#m93b0483c22" y="180.0"/>
      </g>
     </g>
     <g id="line2d_15">
      <g>
       <use style="stroke:#000000;stroke-width:0.5;" x="336.5988475" xlink:href="#m741efc42ff" y="7.2"/>
      </g>
     </g>
     <g id="text_6">
      <!-- 1.0 -->
      <defs>
       <path d="
M34.7188 0
L26.125 0
L26.125 44.5781
Q26.125 46.6875 26.1406 49.0781
Q26.1719 51.4688 26.2344 53.8281
Q26.3125 56.2031 26.3906 58.375
Q26.4688 60.5469 26.5156 62.2031
Q25.6875 61.3281 25.0469 60.6875
Q24.4219 60.0625 23.75 59.4688
Q23.0938 58.8906 22.3594 58.2188
Q21.625 57.5625 20.6094 56.6875
L13.375 50.7812
L8.6875 56.7812
L27.3906 71.3906
L34.7188 71.3906
z
" id="WenQuanYiMicroHei-31"/>
      </defs>
      <g transform="translate(330.421631875 191.595398125)scale(0.09996 -0.09996)">
       <use xlink:href="#WenQuanYiMicroHei-31"/>
       <use x="55.078125" xlink:href="#WenQuanYiMicroHei-2e"/>
       <use x="81.884765625" xlink:href="#WenQuanYiMicroHei-30"/>
      </g>
     </g>
    </g>
   </g>
   <g id="matplotlib.axis_2">
    <g id="ytick_1">
     <g id="line2d_16">
      <defs>
       <path d="
M0 0
L4 0" id="m728421d6d4" style="stroke:#000000;stroke-width:0.5;"/>
      </defs>
      <g>
       <use style="stroke:#000000;stroke-width:0.5;" x="29.6988475" xlink:href="#m728421d6d4" y="151.291341791"/>
      </g>
     </g>
     <g id="line2d_17">
      <defs>
       <path d="
M0 0
L-4 0" id="mcb0005524f" style="stroke:#000000;stroke-width:0.5;"/>
      </defs>
      <g>
       <use style="stroke:#000000;stroke-width:0.5;" x="364.4988475" xlink:href="#mcb0005524f" y="151.291341791"/>
      </g>
     </g>
     <g id="text_7">
      <!-- −0.4 -->
      <defs>
       <path d="
M4.98438 31.5938
L4.98438 38.9219
L50.0938 38.9219
L50.0938 31.5938
z
" id="WenQuanYiMicroHei-2212"/>
      </defs>
      <g transform="translate(7.2 153.887958979)scale(0.09996 -0.09996)">
       <use xlink:href="#WenQuanYiMicroHei-2212"/>
       <use x="55.078125" xlink:href="#WenQuanYiMicroHei-30"/>
       <use x="110.15625" xlink:href="#WenQuanYiMicroHei-2e"/>
       <use x="136.962890625" xlink:href="#WenQuanYiMicroHei-34"/>
      </g>
     </g>
    </g>
    <g id="ytick_2">
     <g id="line2d_18">
      <g>
       <use style="stroke:#000000;stroke-width:0.5;" x="29.6988475" xlink:href="#m728421d6d4" y="118.868506344"/>
      </g>
     </g>
     <g id="line2d_19">
      <g>
       <use style="stroke:#000000;stroke-width:0.5;" x="364.4988475" xlink:href="#mcb0005524f" y="118.868506344"/>
      </g>
     </g>
     <g id="text_8">
      <!-- −0.3 -->
      <defs>
       <path d="
M46.9219 54.6875
Q46.9219 51.125 45.7969 48.1875
Q44.6719 45.2656 42.6406 43.1094
Q40.625 40.9688 37.7969 39.5781
Q34.9688 38.1875 31.5 37.5938
L31.5 37.3125
Q40.1406 36.2344 44.625 31.8125
Q49.125 27.3906 49.125 20.3125
Q49.125 15.625 47.5312 11.7188
Q45.9531 7.8125 42.7188 4.98438
Q39.5 2.15625 34.5625 0.578125
Q29.6406 -0.984375 22.9062 -0.984375
Q17.5781 -0.984375 12.8594 -0.140625
Q8.15625 0.6875 4 2.875
L4 11.1875
Q8.25 8.9375 13.2031 7.71875
Q18.1719 6.5 22.7031 6.5
Q27.2031 6.5 30.4688 7.46875
Q33.7344 8.45312 35.8594 10.25
Q37.9844 12.0625 38.9844 14.6875
Q39.9844 17.3281 39.9844 20.6094
Q39.9844 23.9219 38.6875 26.2812
Q37.4062 28.6562 35.0156 30.1875
Q32.625 31.7344 29.1719 32.4688
Q25.7344 33.2031 21.3906 33.2031
L14.8906 33.2031
L14.8906 40.5781
L21.3906 40.5781
Q25.3438 40.5781 28.4219 41.5469
Q31.5 42.5312 33.5625 44.3281
Q35.6406 46.1406 36.7188 48.625
Q37.7969 51.125 37.7969 54.1094
Q37.7969 56.6406 36.9062 58.6406
Q36.0312 60.6406 34.4219 62.0312
Q32.8125 63.4219 30.5625 64.1562
Q28.3281 64.8906 25.5938 64.8906
Q20.3594 64.8906 16.375 63.25
Q12.4062 61.625 8.79688 58.9844
L4.29688 65.0938
Q6.15625 66.6094 8.42188 67.9219
Q10.6875 69.2344 13.375 70.2344
Q16.0625 71.2344 19.1094 71.8125
Q22.1719 72.4062 25.5938 72.4062
Q30.8594 72.4062 34.8281 71.0938
Q38.8125 69.7812 41.5 67.4062
Q44.1875 65.0469 45.5469 61.7969
Q46.9219 58.5469 46.9219 54.6875" id="WenQuanYiMicroHei-33"/>
      </defs>
      <g transform="translate(7.595154375 121.465123531)scale(0.09996 -0.09996)">
       <use xlink:href="#WenQuanYiMicroHei-2212"/>
       <use x="55.078125" xlink:href="#WenQuanYiMicroHei-30"/>
       <use x="110.15625" xlink:href="#WenQuanYiMicroHei-2e"/>
       <use x="136.962890625" xlink:href="#WenQuanYiMicroHei-33"/>
      </g>
     </g>
    </g>
    <g id="ytick_3">
     <g id="line2d_20">
      <g>
       <use style="stroke:#000000;stroke-width:0.5;" x="29.6988475" xlink:href="#m728421d6d4" y="86.4456708957"/>
      </g>
     </g>
     <g id="line2d_21">
      <g>
       <use style="stroke:#000000;stroke-width:0.5;" x="364.4988475" xlink:href="#mcb0005524f" y="86.4456708957"/>
      </g>
     </g>
     <g id="text_9">
      <!-- −0.2 -->
      <g transform="translate(7.585783125 89.0422880832)scale(0.09996 -0.09996)">
       <use xlink:href="#WenQuanYiMicroHei-2212"/>
       <use x="55.078125" xlink:href="#WenQuanYiMicroHei-30"/>
       <use x="110.15625" xlink:href="#WenQuanYiMicroHei-2e"/>
       <use x="136.962890625" xlink:href="#WenQuanYiMicroHei-32"/>
      </g>
     </g>
    </g>
    <g id="ytick_4">
     <g id="line2d_22">
      <g>
       <use style="stroke:#000000;stroke-width:0.5;" x="29.6988475" xlink:href="#m728421d6d4" y="54.0228354478"/>
      </g>
     </g>
     <g id="line2d_23">
      <g>
       <use style="stroke:#000000;stroke-width:0.5;" x="364.4988475" xlink:href="#mcb0005524f" y="54.0228354478"/>
      </g>
     </g>
     <g id="text_10">
      <!-- −0.1 -->
      <g transform="translate(9.035203125 56.6194526353)scale(0.09996 -0.09996)">
       <use xlink:href="#WenQuanYiMicroHei-2212"/>
       <use x="55.078125" xlink:href="#WenQuanYiMicroHei-30"/>
       <use x="110.15625" xlink:href="#WenQuanYiMicroHei-2e"/>
       <use x="136.962890625" xlink:href="#WenQuanYiMicroHei-31"/>
      </g>
     </g>
    </g>
    <g id="ytick_5">
     <g id="line2d_24">
      <g>
       <use style="stroke:#000000;stroke-width:0.5;" x="29.6988475" xlink:href="#m728421d6d4" y="21.6"/>
      </g>
     </g>
     <g id="line2d_25">
      <g>
       <use style="stroke:#000000;stroke-width:0.5;" x="364.4988475" xlink:href="#mcb0005524f" y="21.6"/>
      </g>
     </g>
     <g id="text_11">
      <!-- 0.0 -->
      <g transform="translate(12.9539475 24.1966171875)scale(0.09996 -0.09996)">
       <use xlink:href="#WenQuanYiMicroHei-30"/>
       <use x="55.078125" xlink:href="#WenQuanYiMicroHei-2e"/>
       <use x="81.884765625" xlink:href="#WenQuanYiMicroHei-30"/>
      </g>
     </g>
    </g>
   </g>
  </g>
 </g>
 <defs>
  <clipPath id="pdf668f0145">
   <rect height="172.8" width="334.8" x="29.6988475" y="7.2"/>
  </clipPath>
 </defs>
</svg>
