<?xml version="1.0" encoding="utf-8" standalone="no"?>
<!DOCTYPE svg PUBLIC "-//W3C//DTD SVG 1.1//EN"
  "http://www.w3.org/Graphics/SVG/1.1/DTD/svg11.dtd">
<!-- Created with matplotlib (http://matplotlib.org/) -->
<svg height="221pt" version="1.1" viewBox="0 0 392 221" width="392pt" xmlns="http://www.w3.org/2000/svg" xmlns:xlink="http://www.w3.org/1999/xlink">
 <defs>
  <style type="text/css">
*{stroke-linecap:butt;stroke-linejoin:round;}
  </style>
 </defs>
 <g id="figure_1">
  <g id="patch_1">
   <path d="
M0 221.194
L392.639 221.194
L392.639 -2.84217e-14
L0 -2.84217e-14
z
" style="fill:#ffffff;"/>
  </g>
  <g id="axes_1">
   <g id="patch_2">
    <path d="
M44.4574 184.999
L379.257 184.999
L379.257 12.1988
L44.4574 12.1988
z
" style="fill:#ffffff;"/>
   </g>
   <g id="line2d_1">
    <path clip-path="url(#p0688a7b2e0)" d="
M44.4574 181.936
L54.9199 181.8
L65.3824 181.394
L75.8449 180.715
L86.3074 179.763
L96.7699 178.537
L107.232 177.033
L117.695 175.251
L126.065 173.621
L134.435 171.809
L142.805 169.811
L151.175 167.627
L159.545 165.253
L167.915 162.687
L176.285 159.925
L184.655 156.965
L193.025 153.802
L201.395 150.433
L209.765 146.854
L218.135 143.06
L226.505 139.046
L234.875 134.808
L243.245 130.339
L251.615 125.634
L259.985 120.686
L268.355 115.489
L276.725 110.034
L285.095 104.315
L293.465 98.3234
L301.835 92.0491
L310.205 85.4831
L318.575 78.615
L326.945 71.4335
L335.315 63.9269
L343.685 56.0823
L352.055 47.8859
L360.425 39.3228
L368.795 30.3771
L372.98 25.7554
L372.98 25.7554" style="fill:none;stroke:#348abd;stroke-linecap:square;stroke-width:4.0;"/>
   </g>
   <g id="line2d_2">
    <path clip-path="url(#p0688a7b2e0)" d="
M44.4574 181.936
L54.9199 181.8
L65.3824 181.394
L75.8449 180.715
L86.3074 179.763
L96.7699 178.537
L107.232 177.033
L117.695 175.251
L126.065 173.621
L134.435 171.808
L142.805 169.811
L151.175 167.627
L159.545 165.253
L167.915 162.687
L176.285 159.925
L184.655 156.965
L193.025 153.802
L201.395 150.433
L209.765 146.854
L218.135 143.06
L226.505 139.046
L234.875 134.808
L243.245 130.339
L251.615 125.634
L259.985 120.686
L268.355 115.489
L276.725 110.034
L285.095 104.315
L293.465 98.3234
L301.835 92.0492
L310.205 85.4831
L318.575 78.615
L326.945 71.4335
L335.315 63.9269
L343.685 56.0823
L352.055 47.8859
L360.425 39.3229
L368.795 30.3771
L372.98 25.7554
L372.98 25.7554" style="fill:none;stroke:#ff0000;stroke-linecap:square;stroke-width:2.0;"/>
   </g>
   <g id="patch_3">
    <path d="
M44.4574 12.1988
L379.257 12.1988" style="fill:none;stroke:#000000;stroke-linecap:square;stroke-linejoin:miter;"/>
   </g>
   <g id="patch_4">
    <path d="
M379.257 184.999
L379.257 12.1988" style="fill:none;stroke:#000000;stroke-linecap:square;stroke-linejoin:miter;"/>
   </g>
   <g id="patch_5">
    <path d="
M44.4574 184.999
L379.257 184.999" style="fill:none;stroke:#000000;stroke-linecap:square;stroke-linejoin:miter;"/>
   </g>
   <g id="patch_6">
    <path d="
M44.4574 184.999
L44.4574 12.1988" style="fill:none;stroke:#000000;stroke-linecap:square;stroke-linejoin:miter;"/>
   </g>
   <g id="matplotlib.axis_1">
    <g id="xtick_1">
     <g id="line2d_3">
      <defs>
       <path d="
M0 0
L0 -4" id="m93b0483c22" style="stroke:#000000;stroke-width:0.5;"/>
      </defs>
      <g>
       <use style="stroke:#000000;stroke-width:0.5;" x="44.4574425" xlink:href="#m93b0483c22" y="184.998780937"/>
      </g>
     </g>
     <g id="line2d_4">
      <defs>
       <path d="
M0 0
L0 4" id="m741efc42ff" style="stroke:#000000;stroke-width:0.5;"/>
      </defs>
      <g>
       <use style="stroke:#000000;stroke-width:0.5;" x="44.4574425" xlink:href="#m741efc42ff" y="12.1987809375"/>
      </g>
     </g>
     <g id="text_1">
      <!-- 0.0 -->
      <defs>
       <path d="
M50.3906 35.7969
Q50.3906 27.1562 49.1406 20.3125
Q47.9062 13.4844 45.1406 8.73438
Q42.3906 4 38.0312 1.5
Q33.6875 -0.984375 27.4844 -0.984375
Q21.7344 -0.984375 17.4531 1.5
Q13.1875 4 10.375 8.73438
Q7.5625 13.4844 6.17188 20.3125
Q4.78125 27.1562 4.78125 35.7969
Q4.78125 44.4375 6.03125 51.2656
Q7.28125 58.1094 9.98438 62.8125
Q12.7031 67.5312 17.0156 70.0156
Q21.3438 72.5156 27.4844 72.5156
Q33.2969 72.5156 37.5938 70.0469
Q41.8906 67.5781 44.7188 62.8594
Q47.5625 58.1562 48.9688 51.3125
Q50.3906 44.4844 50.3906 35.7969
M13.8125 35.7969
Q13.8125 28.4688 14.5469 23
Q15.2812 17.5312 16.8906 13.8906
Q18.5 10.25 21.1094 8.42188
Q23.7344 6.59375 27.4844 6.59375
Q31.25 6.59375 33.8906 8.39062
Q36.5312 10.2031 38.2031 13.8125
Q39.8906 17.4375 40.6406 22.9219
Q41.4062 28.4219 41.4062 35.7969
Q41.4062 43.1094 40.6406 48.5781
Q39.8906 54.0469 38.2031 57.6562
Q36.5312 61.2812 33.8906 63.0781
Q31.25 64.8906 27.4844 64.8906
Q23.7344 64.8906 21.1094 63.0781
Q18.5 61.2812 16.8906 57.6562
Q15.2812 54.0469 14.5469 48.5781
Q13.8125 43.1094 13.8125 35.7969" id="WenQuanYiMicroHei-30"/>
       <path d="
M7.17188 5.42188
Q7.17188 7.28125 7.65625 8.5625
Q8.15625 9.85938 8.98438 10.6562
Q9.8125 11.4688 10.9375 11.8281
Q12.0625 12.2031 13.375 12.2031
Q14.6562 12.2031 15.7969 11.8281
Q16.9375 11.4688 17.7656 10.6562
Q18.6094 9.85938 19.0938 8.5625
Q19.5781 7.28125 19.5781 5.42188
Q19.5781 3.60938 19.0938 2.3125
Q18.6094 1.03125 17.7656 0.1875
Q16.9375 -0.640625 15.7969 -1.03125
Q14.6562 -1.42188 13.375 -1.42188
Q12.0625 -1.42188 10.9375 -1.03125
Q9.8125 -0.640625 8.98438 0.1875
Q8.15625 1.03125 7.65625 2.3125
Q7.17188 3.60938 7.17188 5.42188" id="WenQuanYiMicroHei-2e"/>
      </defs>
      <g transform="translate(38.0849925 196.594179062)scale(0.09996 -0.09996)">
       <use xlink:href="#WenQuanYiMicroHei-30"/>
       <use x="55.078125" xlink:href="#WenQuanYiMicroHei-2e"/>
       <use x="81.884765625" xlink:href="#WenQuanYiMicroHei-30"/>
      </g>
     </g>
    </g>
    <g id="xtick_2">
     <g id="line2d_5">
      <g>
       <use style="stroke:#000000;stroke-width:0.5;" x="86.3074425" xlink:href="#m93b0483c22" y="184.998780937"/>
      </g>
     </g>
     <g id="line2d_6">
      <g>
       <use style="stroke:#000000;stroke-width:0.5;" x="86.3074425" xlink:href="#m741efc42ff" y="12.1987809375"/>
      </g>
     </g>
     <g id="text_2">
      <!-- 0.2 -->
      <defs>
       <path d="
M49.2188 0
L4.6875 0
L4.6875 7.625
L21.7812 26.2188
Q25.4375 30.1719 28.3125 33.4375
Q31.2031 36.7188 33.2188 39.8438
Q35.25 42.9688 36.3281 46.1094
Q37.4062 49.2656 37.4062 52.9844
Q37.4062 55.8594 36.5781 58.0469
Q35.75 60.25 34.2031 61.7812
Q32.6719 63.3281 30.5625 64.1094
Q28.4688 64.8906 25.875 64.8906
Q21.2344 64.8906 17.5 63.0156
Q13.7656 61.1406 10.4062 58.2031
L5.42188 64.0156
Q7.375 65.7656 9.60938 67.2969
Q11.8594 68.8438 14.4531 69.9688
Q17.0469 71.0938 19.9219 71.75
Q22.7969 72.4062 25.9844 72.4062
Q30.6719 72.4062 34.4531 71.0938
Q38.2344 69.7812 40.8594 67.3125
Q43.5 64.8438 44.9375 61.2969
Q46.3906 57.7656 46.3906 53.3281
Q46.3906 49.1719 45.0938 45.4062
Q43.7969 41.6562 41.5312 38.0156
Q39.2656 34.375 36.1094 30.7031
Q32.9531 27.0469 29.2969 23.0938
L15.5781 8.5
L15.5781 8.10938
L49.2188 8.10938
z
" id="WenQuanYiMicroHei-32"/>
      </defs>
      <g transform="translate(79.9935628125 196.594179062)scale(0.09996 -0.09996)">
       <use xlink:href="#WenQuanYiMicroHei-30"/>
       <use x="55.078125" xlink:href="#WenQuanYiMicroHei-2e"/>
       <use x="81.884765625" xlink:href="#WenQuanYiMicroHei-32"/>
      </g>
     </g>
    </g>
    <g id="xtick_3">
     <g id="line2d_7">
      <g>
       <use style="stroke:#000000;stroke-width:0.5;" x="128.1574425" xlink:href="#m93b0483c22" y="184.998780937"/>
      </g>
     </g>
     <g id="line2d_8">
      <g>
       <use style="stroke:#000000;stroke-width:0.5;" x="128.1574425" xlink:href="#m741efc42ff" y="12.1987809375"/>
      </g>
     </g>
     <g id="text_3">
      <!-- 0.4 -->
      <defs>
       <path d="
M53.0781 16.0156
L42.6719 16.0156
L42.6719 0
L34.0781 0
L34.0781 16.0156
L1.125 16.0156
L1.125 23.7812
L33.5 71.7812
L42.6719 71.7812
L42.6719 24.125
L53.0781 24.125
z

M34.0781 24.125
L34.0781 41.5
Q34.0781 44.2344 34.1562 47.2344
Q34.2344 50.25 34.3281 53.0938
Q34.4219 55.9531 34.5469 58.4375
Q34.6719 60.9375 34.7188 62.5938
L34.2812 62.5938
Q33.9375 61.625 33.4219 60.4219
Q32.9062 59.2344 32.2969 58.0312
Q31.6875 56.8438 31.0469 55.7188
Q30.4219 54.5938 29.8906 53.8125
L9.8125 24.125
z
" id="WenQuanYiMicroHei-34"/>
      </defs>
      <g transform="translate(121.65067125 196.594179062)scale(0.09996 -0.09996)">
       <use xlink:href="#WenQuanYiMicroHei-30"/>
       <use x="55.078125" xlink:href="#WenQuanYiMicroHei-2e"/>
       <use x="81.884765625" xlink:href="#WenQuanYiMicroHei-34"/>
      </g>
     </g>
    </g>
    <g id="xtick_4">
     <g id="line2d_9">
      <g>
       <use style="stroke:#000000;stroke-width:0.5;" x="170.0074425" xlink:href="#m93b0483c22" y="184.998780937"/>
      </g>
     </g>
     <g id="line2d_10">
      <g>
       <use style="stroke:#000000;stroke-width:0.5;" x="170.0074425" xlink:href="#m741efc42ff" y="12.1987809375"/>
      </g>
     </g>
     <g id="text_4">
      <!-- 0.6 -->
      <defs>
       <path d="
M5.51562 30.5156
Q5.51562 35.6406 6.03125 40.7188
Q6.54688 45.7969 7.82812 50.4531
Q9.125 55.125 11.375 59.125
Q13.625 63.1406 17.0938 66.0938
Q20.5625 69.0469 25.3906 70.7188
Q30.2188 72.4062 36.7188 72.4062
Q37.6406 72.4062 38.7656 72.3594
Q39.8906 72.3125 41.0312 72.1875
Q42.1875 72.0781 43.2344 71.9062
Q44.2812 71.7344 45.125 71.4844
L45.125 63.9219
Q43.4062 64.5 41.25 64.7969
Q39.1094 65.0938 37.0156 65.0938
Q32.625 65.0938 29.2656 64.0312
Q25.9219 62.9844 23.4844 61.0781
Q21.0469 59.1875 19.4062 56.5469
Q17.7812 53.9062 16.75 50.7031
Q15.7188 47.5156 15.2344 43.8906
Q14.75 40.2812 14.5938 36.375
L15.1875 36.375
Q16.1562 38.1406 17.5469 39.6719
Q18.9531 41.2188 20.7969 42.3125
Q22.6562 43.4062 24.9688 44.0312
Q27.2969 44.6719 30.1719 44.6719
Q34.8125 44.6719 38.5625 43.2344
Q42.3281 41.7969 44.9688 39.0156
Q47.6094 36.2344 49.0469 32.2031
Q50.4844 28.1719 50.4844 23
Q50.4844 17.4375 48.9688 12.9844
Q47.4688 8.54688 44.625 5.4375
Q41.7969 2.34375 37.7969 0.671875
Q33.7969 -0.984375 28.8125 -0.984375
Q23.9219 -0.984375 19.6406 0.921875
Q15.375 2.82812 12.25 6.73438
Q9.125 10.6406 7.3125 16.5469
Q5.51562 22.4688 5.51562 30.5156
M28.7188 6.5
Q31.6406 6.5 34.0469 7.5
Q36.4688 8.5 38.2188 10.5156
Q39.9844 12.5469 40.9375 15.6406
Q41.8906 18.75 41.8906 23
Q41.8906 26.4219 41.0781 29.125
Q40.2812 31.8438 38.6719 33.7344
Q37.0625 35.6406 34.6406 36.6719
Q32.2344 37.7031 29 37.7031
Q25.7344 37.7031 23.0156 36.5469
Q20.3125 35.4062 18.4062 33.5625
Q16.5 31.7344 15.4531 29.3906
Q14.4062 27.0469 14.4062 24.7031
Q14.4062 21.4375 15.3125 18.1875
Q16.2188 14.9375 18 12.3438
Q19.7812 9.76562 22.4531 8.125
Q25.1406 6.5 28.7188 6.5" id="WenQuanYiMicroHei-36"/>
      </defs>
      <g transform="translate(163.630306875 196.594179062)scale(0.09996 -0.09996)">
       <use xlink:href="#WenQuanYiMicroHei-30"/>
       <use x="55.078125" xlink:href="#WenQuanYiMicroHei-2e"/>
       <use x="81.884765625" xlink:href="#WenQuanYiMicroHei-36"/>
      </g>
     </g>
    </g>
    <g id="xtick_5">
     <g id="line2d_11">
      <g>
       <use style="stroke:#000000;stroke-width:0.5;" x="211.8574425" xlink:href="#m93b0483c22" y="184.998780937"/>
      </g>
     </g>
     <g id="line2d_12">
      <g>
       <use style="stroke:#000000;stroke-width:0.5;" x="211.8574425" xlink:href="#m741efc42ff" y="12.1987809375"/>
      </g>
     </g>
     <g id="text_5">
      <!-- 0.8 -->
      <defs>
       <path d="
M27.5938 72.5156
Q31.6875 72.5156 35.3281 71.4375
Q38.9688 70.3594 41.7188 68.2031
Q44.4844 66.0625 46.0938 62.8438
Q47.7031 59.625 47.7031 55.3281
Q47.7031 52.0469 46.7188 49.4062
Q45.75 46.7812 44.0312 44.6562
Q42.3281 42.5312 39.9844 40.8438
Q37.6406 39.1562 34.9062 37.7969
Q37.75 36.2812 40.4531 34.4219
Q43.1719 32.5625 45.2812 30.25
Q47.4062 27.9375 48.7031 25.0469
Q50 22.1719 50 18.6094
Q50 14.1094 48.3594 10.4688
Q46.7344 6.84375 43.7812 4.29688
Q40.8281 1.76562 36.6875 0.390625
Q32.5625 -0.984375 27.5938 -0.984375
Q22.2188 -0.984375 18.0469 0.328125
Q13.875 1.65625 11.0156 4.125
Q8.15625 6.59375 6.65625 10.1562
Q5.17188 13.7188 5.17188 18.2188
Q5.17188 21.875 6.26562 24.7969
Q7.375 27.7344 9.21875 30.0781
Q11.0781 32.4219 13.6094 34.2188
Q16.1562 36.0312 19 37.4062
Q16.6094 38.9219 14.5 40.7031
Q12.4062 42.4844 10.8594 44.6719
Q9.32812 46.875 8.42188 49.5312
Q7.51562 52.2031 7.51562 55.4219
Q7.51562 59.6719 9.15625 62.8594
Q10.7969 66.0625 13.5781 68.2031
Q16.3594 70.3594 20 71.4375
Q23.6406 72.5156 27.5938 72.5156
M13.9219 18.1094
Q13.9219 15.5312 14.7031 13.3594
Q15.4844 11.1875 17.1406 9.64062
Q18.7969 8.10938 21.3281 7.25
Q23.875 6.39062 27.3906 6.39062
Q30.8125 6.39062 33.4219 7.25
Q36.0312 8.10938 37.7812 9.6875
Q39.5469 11.2812 40.4219 13.5156
Q41.3125 15.7656 41.3125 18.5
Q41.3125 21.0469 40.3594 23.0938
Q39.4062 25.1406 37.625 26.8906
Q35.8438 28.6562 33.3438 30.2188
Q30.8594 31.7812 27.7812 33.2969
L26.3125 33.9844
Q20.1719 31.0625 17.0469 27.2656
Q13.9219 23.4844 13.9219 18.1094
M27.4844 65.0938
Q22.3125 65.0938 19.2656 62.5
Q16.2188 59.9062 16.2188 54.9844
Q16.2188 52.2031 17.0625 50.1875
Q17.9219 48.1875 19.4375 46.625
Q20.9531 45.0625 23.0781 43.8125
Q25.2031 42.5781 27.6875 41.4062
Q30.0312 42.4844 32.1094 43.75
Q34.1875 45.0156 35.7188 46.625
Q37.25 48.25 38.125 50.2969
Q39.0156 52.3438 39.0156 54.9844
Q39.0156 59.9062 35.9375 62.5
Q32.8594 65.0938 27.4844 65.0938" id="WenQuanYiMicroHei-38"/>
      </defs>
      <g transform="translate(205.504515938 196.594179062)scale(0.09996 -0.09996)">
       <use xlink:href="#WenQuanYiMicroHei-30"/>
       <use x="55.078125" xlink:href="#WenQuanYiMicroHei-2e"/>
       <use x="81.884765625" xlink:href="#WenQuanYiMicroHei-38"/>
      </g>
     </g>
    </g>
    <g id="xtick_6">
     <g id="line2d_13">
      <g>
       <use style="stroke:#000000;stroke-width:0.5;" x="253.7074425" xlink:href="#m93b0483c22" y="184.998780937"/>
      </g>
     </g>
     <g id="line2d_14">
      <g>
       <use style="stroke:#000000;stroke-width:0.5;" x="253.7074425" xlink:href="#m741efc42ff" y="12.1987809375"/>
      </g>
     </g>
     <g id="text_6">
      <!-- 1.0 -->
      <defs>
       <path d="
M34.7188 0
L26.125 0
L26.125 44.5781
Q26.125 46.6875 26.1406 49.0781
Q26.1719 51.4688 26.2344 53.8281
Q26.3125 56.2031 26.3906 58.375
Q26.4688 60.5469 26.5156 62.2031
Q25.6875 61.3281 25.0469 60.6875
Q24.4219 60.0625 23.75 59.4688
Q23.0938 58.8906 22.3594 58.2188
Q21.625 57.5625 20.6094 56.6875
L13.375 50.7812
L8.6875 56.7812
L27.3906 71.3906
L34.7188 71.3906
z
" id="WenQuanYiMicroHei-31"/>
      </defs>
      <g transform="translate(247.530226875 196.594179062)scale(0.09996 -0.09996)">
       <use xlink:href="#WenQuanYiMicroHei-31"/>
       <use x="55.078125" xlink:href="#WenQuanYiMicroHei-2e"/>
       <use x="81.884765625" xlink:href="#WenQuanYiMicroHei-30"/>
      </g>
     </g>
    </g>
    <g id="xtick_7">
     <g id="line2d_15">
      <g>
       <use style="stroke:#000000;stroke-width:0.5;" x="295.5574425" xlink:href="#m93b0483c22" y="184.998780937"/>
      </g>
     </g>
     <g id="line2d_16">
      <g>
       <use style="stroke:#000000;stroke-width:0.5;" x="295.5574425" xlink:href="#m741efc42ff" y="12.1987809375"/>
      </g>
     </g>
     <g id="text_7">
      <!-- 1.2 -->
      <g transform="translate(289.438797188 196.594179062)scale(0.09996 -0.09996)">
       <use xlink:href="#WenQuanYiMicroHei-31"/>
       <use x="55.078125" xlink:href="#WenQuanYiMicroHei-2e"/>
       <use x="81.884765625" xlink:href="#WenQuanYiMicroHei-32"/>
      </g>
     </g>
    </g>
    <g id="xtick_8">
     <g id="line2d_17">
      <g>
       <use style="stroke:#000000;stroke-width:0.5;" x="337.4074425" xlink:href="#m93b0483c22" y="184.998780937"/>
      </g>
     </g>
     <g id="line2d_18">
      <g>
       <use style="stroke:#000000;stroke-width:0.5;" x="337.4074425" xlink:href="#m741efc42ff" y="12.1987809375"/>
      </g>
     </g>
     <g id="text_8">
      <!-- 1.4 -->
      <g transform="translate(331.095905625 196.594179062)scale(0.09996 -0.09996)">
       <use xlink:href="#WenQuanYiMicroHei-31"/>
       <use x="55.078125" xlink:href="#WenQuanYiMicroHei-2e"/>
       <use x="81.884765625" xlink:href="#WenQuanYiMicroHei-34"/>
      </g>
     </g>
    </g>
    <g id="xtick_9">
     <g id="line2d_19">
      <g>
       <use style="stroke:#000000;stroke-width:0.5;" x="379.2574425" xlink:href="#m93b0483c22" y="184.998780937"/>
      </g>
     </g>
     <g id="line2d_20">
      <g>
       <use style="stroke:#000000;stroke-width:0.5;" x="379.2574425" xlink:href="#m741efc42ff" y="12.1987809375"/>
      </g>
     </g>
     <g id="text_9">
      <!-- 1.6 -->
      <g transform="translate(373.07554125 196.594179062)scale(0.09996 -0.09996)">
       <use xlink:href="#WenQuanYiMicroHei-31"/>
       <use x="55.078125" xlink:href="#WenQuanYiMicroHei-2e"/>
       <use x="81.884765625" xlink:href="#WenQuanYiMicroHei-36"/>
      </g>
     </g>
    </g>
    <g id="text_10">
     <!-- 初始摆角(弧度) -->
     <defs>
      <path d="
M39.4531 46.875
L46.0938 42.9688
Q41.7969 35.9375 37.5 31.6406
Q42.1875 26.9531 46.0938 22.2656
L41.0156 15.2344
Q34.7656 24.2188 28.5156 31.25
L28.5156 -9.375
L21.0938 -9.375
L21.0938 33.9844
Q14.4531 27.3438 8.20312 23.8281
L3.51562 30.8594
Q21.0938 40.625 32.0312 61.3281
L8.20312 61.3281
L8.20312 68.3594
L22.6562 68.3594
Q19.9219 73.0469 16.4062 77.3438
L23.4375 80.4688
Q27.7344 75 30.8594 68.3594
L40.2344 68.3594
L40.2344 61.3281
Q34.375 50.3906 28.5156 42.1875
L28.5156 39.8438
L32.8125 36.3281
Q36.7188 41.4062 39.4531 46.875
M44.1406 76.1719
L90.625 76.1719
Q90.625 33.5938 89.25 16.7969
Q87.8906 0 83.9844 -3.90625
Q80.0781 -7.8125 72.2656 -7.8125
Q68.75 -7.8125 65.625 -7.03125
L63.6719 1.5625
Q67.9688 0.78125 72.2656 0.78125
Q76.5625 0.78125 78.5156 3.125
Q80.4688 5.46875 81.4375 21.0938
Q82.4219 36.7188 82.4219 68.75
L61.7188 68.75
L61.7188 44.1406
Q61.7188 11.3281 38.2812 -8.98438
L31.6406 -3.51562
Q53.9062 16.0156 53.9062 44.1406
L53.9062 68.75
L44.1406 68.75
z
" id="WenQuanYiMicroHei-521d"/>
      <path d="
M32.8125 82.8125
L41.4062 80.8594
Q39.4531 77.3438 37.1094 74.2188
L71.0938 74.2188
L71.0938 67.9688
Q67.1875 62.8906 62.8906 58.9844
L89.0625 58.9844
L89.0625 1.5625
Q89.0625 -3.90625 87.1094 -6.4375
Q85.1562 -8.98438 81.25 -8.98438
Q75.3906 -8.98438 65.625 -7.8125
L63.6719 1.17188
Q75 0 79.2969 0
Q81.25 0 81.25 2.73438
L81.25 14.0625
L55.8594 14.0625
L55.8594 -8.59375
L48.0469 -8.59375
L48.0469 14.0625
L23.4375 14.0625
Q21.0938 0.78125 10.1562 -9.375
L4.6875 -2.34375
Q16.7969 8.59375 16.7969 33.9844
L16.7969 54.6875
Q12.8906 51.9531 8.59375 49.6094
L3.125 55.8594
Q22.6562 66.7969 32.8125 82.8125
M22.6562 58.9844
L51.9531 58.9844
Q57.0312 63.2812 59.7656 67.5781
L31.6406 67.5781
Q28.5156 63.6719 22.6562 58.9844
M25 39.8438
L48.0469 39.8438
L48.0469 51.5625
L25 51.5625
z

M55.8594 51.5625
L55.8594 39.8438
L81.25 39.8438
L81.25 51.5625
z

M24.6094 21.0938
L48.0469 21.0938
L48.0469 32.8125
L25 32.8125
L25 29.2969
Q25 26.1719 24.6094 21.0938
M55.8594 32.8125
L55.8594 21.0938
L81.25 21.0938
L81.25 32.8125
z
" id="WenQuanYiMicroHei-89d2"/>
      <path d="
M5.85938 64.4531
L15.2344 64.4531
L15.2344 80.8594
L22.6562 80.8594
L22.6562 64.4531
L32.0312 64.4531
L32.0312 57.0312
L22.6562 57.0312
L22.6562 37.5
L30.0781 41.7969
L31.6406 34.7656
Q27.3438 31.6406 22.6562 28.9062
L22.6562 1.17188
Q22.6562 -4.6875 21.0938 -6.82812
Q19.5312 -8.98438 15.2344 -8.98438
Q11.3281 -8.98438 7.8125 -8.20312
L5.85938 -0.78125
Q10.1562 -1.5625 14.0625 -1.5625
Q15.2344 -1.5625 15.2344 3.125
L15.2344 25
Q11.3281 22.6562 7.03125 20.7031
L4.29688 28.9062
Q10.1562 31.25 15.2344 33.9844
L15.2344 57.0312
L5.85938 57.0312
z

M50.3906 18.3594
L32.8125 18.3594
L32.8125 25.7812
L58.5938 25.7812
L58.5938 32.8125
L38.6719 32.8125
L38.6719 39.8438
L58.5938 39.8438
L58.5938 48.8281
L37.1094 48.8281
L37.1094 78.125
L88.2812 78.125
L88.2812 48.8281
L66.4062 48.8281
L66.4062 39.8438
L88.6719 39.8438
L88.6719 32.8125
L66.4062 32.8125
L66.4062 25.7812
L93.3594 25.7812
L93.3594 18.3594
L58.5938 18.3594
Q52.7344 5.46875 46.0938 -0.78125
Q60.5469 0.390625 76.5625 3.51562
L69.9219 11.7188
L76.5625 14.8438
Q86.3281 5.46875 92.9688 -6.25
L85.1562 -10.1562
Q83.2031 -6.25 80.8594 -2.73438
Q60.5469 -6.64062 37.5 -7.8125
L35.5469 -1.5625
Q44.1406 5.46875 50.3906 18.3594
M73.0469 55.4688
L80.8594 55.4688
L80.8594 71.4844
L73.0469 71.4844
z

M44.1406 55.4688
L51.5625 55.4688
L51.5625 71.4844
L44.1406 71.4844
z

M58.5938 55.4688
L66.0156 55.4688
L66.0156 71.4844
L58.5938 71.4844
z
" id="WenQuanYiMicroHei-6446"/>
      <path d="
M82.8125 80.8594
L88.6719 74.2188
Q84.7656 73.4375 80.4688 72.2656
Q81.6406 43.75 85.3438 27.7344
Q89.0625 11.7188 96.4844 -2.73438
L91.0156 -9.375
Q83.2031 4.6875 79.0938 22.2656
Q75 39.8438 73.4375 71.0938
Q69.5312 69.9219 65.2344 69.5312
L65.2344 3.90625
Q69.1406 5.07812 72.2656 6.64062
Q70.3125 12.5 67.9688 17.5781
L73.8281 20.3125
Q79.2969 8.59375 83.2031 -5.46875
L76.5625 -8.59375
L74.2188 0.78125
Q68.3594 -1.95312 61.7188 -4.29688
L58.2031 -1.17188
L58.2031 68.3594
L50.3906 67.5781
L50.3906 50.7812
Q50.3906 13.6719 41.4062 -9.375
L34.7656 -5.07812
Q42.9688 16.4062 42.9688 52.3438
L42.9688 74.2188
Q64.8438 76.1719 82.8125 80.8594
M27.3438 55.0781
L27.3438 69.9219
L7.42188 69.9219
L7.42188 77.3438
L34.7656 77.3438
L34.7656 48.0469
L16.7969 48.0469
L15.2344 32.4219
L34.375 32.4219
Q34.375 2.73438 32.2188 -2.92188
Q30.0781 -8.59375 23.0469 -8.59375
Q18.75 -8.59375 13.2812 -7.42188
L11.7188 0
Q17.9688 -1.17188 22.2656 -1.17188
Q24.2188 -1.17188 25.1875 2.14062
Q26.1719 5.46875 26.5625 25.3906
L6.64062 25.3906
L9.76562 55.0781
z
" id="WenQuanYiMicroHei-5f27"/>
      <path d="
M4 27.3906
Q4 33.5 4.875 39.4219
Q5.76562 45.3594 7.5625 50.9531
Q9.375 56.5469 12.125 61.6875
Q14.8906 66.8438 18.7031 71.3906
L27.0938 71.3906
Q20.2656 61.9688 16.7188 50.6875
Q13.1875 39.4062 13.1875 27.4844
Q13.1875 21.6875 14.0781 15.9219
Q14.9844 10.1562 16.7188 4.64062
Q18.4531 -0.875 21.0469 -6.04688
Q23.6406 -11.2344 27 -15.8281
L18.7031 -15.8281
Q14.8906 -11.4219 12.125 -6.39062
Q9.375 -1.375 7.5625 4.125
Q5.76562 9.625 4.875 15.4844
Q4 21.3438 4 27.3906" id="WenQuanYiMicroHei-28"/>
      <path d="
M26.125 27.3906
Q26.125 21.3438 25.2344 15.4844
Q24.3594 9.625 22.5312 4.125
Q20.7031 -1.375 17.9375 -6.39062
Q15.1875 -11.4219 11.375 -15.8281
L3.07812 -15.8281
Q6.45312 -11.2344 9.03125 -6.04688
Q11.625 -0.875 13.375 4.64062
Q15.1406 10.1562 16.0156 15.9219
Q16.8906 21.6875 16.8906 27.4844
Q16.8906 39.4062 13.375 50.6875
Q9.85938 61.9688 2.98438 71.3906
L11.375 71.3906
Q15.1875 66.8438 17.9375 61.6875
Q20.7031 56.5469 22.5312 50.9531
Q24.3594 45.3594 25.2344 39.4219
Q26.125 33.5 26.125 27.3906" id="WenQuanYiMicroHei-29"/>
      <path d="
M21.4844 80.8594
L28.5156 79.2969
L25.3906 63.2812
L41.4062 63.2812
Q39.8438 32.0312 31.6406 15.625
Q37.5 9.375 43.3594 2.73438
L36.7188 -2.34375
Q32.8125 3.51562 28.125 8.98438
Q19.5312 -3.125 9.76562 -9.375
L5.07812 -2.73438
Q14.4531 3.51562 22.2656 15.625
Q16.0156 22.2656 8.59375 28.5156
Q12.5 41.4062 16.0156 55.8594
L5.07812 55.8594
L5.07812 63.2812
L17.5781 63.2812
z

M25.7812 22.2656
Q31.6406 34.7656 33.2031 55.8594
L23.8281 55.8594
Q20.7031 42.1875 17.1875 30.8594
z

M62.5 81.25
L70.3125 78.9062
Q61.7188 57.0312 53.5156 48.8281
Q66.7969 49.6094 80.8594 52.3438
Q77.3438 58.9844 73.4375 64.8438
L80.0781 67.9688
Q88.6719 55.4688 94.5312 40.625
L87.5 37.5
Q85.9375 41.7969 83.9844 46.0938
Q66.0156 42.1875 45.7031 41.0156
L43.3594 48.0469
Q54.6875 58.9844 62.5 81.25
M89.0625 31.6406
L89.0625 -8.98438
L81.6406 -8.98438
L81.6406 -2.73438
L55.0781 -2.73438
L55.0781 -8.98438
L47.6562 -8.98438
L47.6562 31.6406
z

M55.0781 4.29688
L81.6406 4.29688
L81.6406 24.6094
L55.0781 24.6094
z
" id="WenQuanYiMicroHei-59cb"/>
      <path d="
M53.9062 81.25
Q56.25 77.7344 57.8125 73.0469
L92.5781 73.0469
L92.5781 66.0156
L21.4844 66.0156
L21.4844 35.5469
Q21.4844 10.5469 11.3281 -8.98438
L3.90625 -4.29688
Q9.375 7.03125 11.5156 16.2031
Q13.6719 25.3906 13.6719 38.2812
L13.6719 73.0469
L49.2188 73.0469
Q48.0469 76.1719 46.0938 78.9062
z

M23.4375 55.8594
L38.2812 55.8594
L38.2812 63.2812
L45.7031 63.2812
L45.7031 55.8594
L69.5312 55.8594
L69.5312 63.2812
L76.9531 63.2812
L76.9531 55.8594
L91.7969 55.8594
L91.7969 49.2188
L76.9531 49.2188
L76.9531 33.5938
L38.2812 33.5938
L38.2812 49.2188
L23.4375 49.2188
z

M69.5312 40.2344
L69.5312 49.2188
L45.7031 49.2188
L45.7031 40.2344
z

M27.3438 26.9531
L85.5469 26.9531
L85.5469 21.0938
Q78.9062 11.3281 66.4062 4.29688
Q76.9531 0 95.3125 -0.78125
L92.9688 -8.59375
Q70.7031 -7.8125 57.0312 -0.390625
Q42.5781 -6.25 23.8281 -9.375
L19.1406 -2.34375
Q36.7188 0 48.8281 4.29688
Q39.8438 10.1562 32.4219 20.3125
L27.3438 20.3125
z

M42.1875 20.3125
Q49.6094 12.1094 57.8125 8.20312
Q67.9688 13.2812 74.2188 20.3125
z
" id="WenQuanYiMicroHei-5ea6"/>
     </defs>
     <g transform="translate(179.23612125 211.591740937)scale(0.09996 -0.09996)">
      <use xlink:href="#WenQuanYiMicroHei-521d"/>
      <use x="100.0" xlink:href="#WenQuanYiMicroHei-59cb"/>
      <use x="200.0" xlink:href="#WenQuanYiMicroHei-6446"/>
      <use x="300.0" xlink:href="#WenQuanYiMicroHei-89d2"/>
      <use x="400.0" xlink:href="#WenQuanYiMicroHei-28"/>
      <use x="430.078125" xlink:href="#WenQuanYiMicroHei-5f27"/>
      <use x="530.078125" xlink:href="#WenQuanYiMicroHei-5ea6"/>
      <use x="630.078125" xlink:href="#WenQuanYiMicroHei-29"/>
     </g>
    </g>
   </g>
   <g id="matplotlib.axis_2">
    <g id="ytick_1">
     <g id="line2d_21">
      <defs>
       <path d="
M0 0
L4 0" id="m728421d6d4" style="stroke:#000000;stroke-width:0.5;"/>
      </defs>
      <g>
       <use style="stroke:#000000;stroke-width:0.5;" x="44.4574425" xlink:href="#m728421d6d4" y="184.998780937"/>
      </g>
     </g>
     <g id="line2d_22">
      <defs>
       <path d="
M0 0
L-4 0" id="mcb0005524f" style="stroke:#000000;stroke-width:0.5;"/>
      </defs>
      <g>
       <use style="stroke:#000000;stroke-width:0.5;" x="379.2574425" xlink:href="#mcb0005524f" y="184.998780937"/>
      </g>
     </g>
     <g id="text_11">
      <!-- 2.00 -->
      <g transform="translate(22.197561875 187.595398125)scale(0.09996 -0.09996)">
       <use xlink:href="#WenQuanYiMicroHei-32"/>
       <use x="55.078125" xlink:href="#WenQuanYiMicroHei-2e"/>
       <use x="81.884765625" xlink:href="#WenQuanYiMicroHei-30"/>
       <use x="136.962890625" xlink:href="#WenQuanYiMicroHei-30"/>
      </g>
     </g>
    </g>
    <g id="ytick_2">
     <g id="line2d_23">
      <g>
       <use style="stroke:#000000;stroke-width:0.5;" x="44.4574425" xlink:href="#m728421d6d4" y="163.398780938"/>
      </g>
     </g>
     <g id="line2d_24">
      <g>
       <use style="stroke:#000000;stroke-width:0.5;" x="379.2574425" xlink:href="#mcb0005524f" y="163.398780938"/>
      </g>
     </g>
     <g id="text_12">
      <!-- 2.05 -->
      <defs>
       <path d="
M26.6094 43.7969
Q31.4531 43.7969 35.625 42.4531
Q39.7969 41.1094 42.8906 38.4688
Q46 35.8438 47.75 31.9375
Q49.5156 28.0312 49.5156 22.9062
Q49.5156 17.3281 47.8438 12.8906
Q46.1875 8.45312 42.9219 5.375
Q39.6562 2.29688 34.8438 0.65625
Q30.0312 -0.984375 23.7812 -0.984375
Q21.2969 -0.984375 18.875 -0.734375
Q16.4531 -0.484375 14.2344 -0.015625
Q12.0156 0.4375 10.0156 1.17188
Q8.01562 1.90625 6.39062 2.875
L6.39062 11.2812
Q8.01562 10.1562 10.1875 9.28125
Q12.3594 8.40625 14.75 7.8125
Q17.1406 7.23438 19.5469 6.90625
Q21.9688 6.59375 24.0312 6.59375
Q27.875 6.59375 30.9062 7.5
Q33.9375 8.40625 36.0312 10.2969
Q38.1406 12.2031 39.25 15.0781
Q40.375 17.9688 40.375 21.9219
Q40.375 28.9062 36.0781 32.5938
Q31.7812 36.2812 23.5781 36.2812
Q22.2656 36.2812 20.7188 36.1562
Q19.1875 36.0312 17.6406 35.8281
Q16.1094 35.6406 14.7188 35.4219
Q13.3281 35.2031 12.3125 35.0156
L7.90625 37.7969
L10.5938 71.3906
L44.2812 71.3906
L44.2812 63.2812
L18.3125 63.2812
L16.4062 42.8281
Q17.9688 43.1094 20.5312 43.4531
Q23.0938 43.7969 26.6094 43.7969" id="WenQuanYiMicroHei-35"/>
      </defs>
      <g transform="translate(22.285026875 165.995398125)scale(0.09996 -0.09996)">
       <use xlink:href="#WenQuanYiMicroHei-32"/>
       <use x="55.078125" xlink:href="#WenQuanYiMicroHei-2e"/>
       <use x="81.884765625" xlink:href="#WenQuanYiMicroHei-30"/>
       <use x="136.962890625" xlink:href="#WenQuanYiMicroHei-35"/>
      </g>
     </g>
    </g>
    <g id="ytick_3">
     <g id="line2d_25">
      <g>
       <use style="stroke:#000000;stroke-width:0.5;" x="44.4574425" xlink:href="#m728421d6d4" y="141.798780937"/>
      </g>
     </g>
     <g id="line2d_26">
      <g>
       <use style="stroke:#000000;stroke-width:0.5;" x="379.2574425" xlink:href="#mcb0005524f" y="141.798780937"/>
      </g>
     </g>
     <g id="text_13">
      <!-- 2.10 -->
      <g transform="translate(22.197561875 144.395398125)scale(0.09996 -0.09996)">
       <use xlink:href="#WenQuanYiMicroHei-32"/>
       <use x="55.078125" xlink:href="#WenQuanYiMicroHei-2e"/>
       <use x="81.884765625" xlink:href="#WenQuanYiMicroHei-31"/>
       <use x="136.962890625" xlink:href="#WenQuanYiMicroHei-30"/>
      </g>
     </g>
    </g>
    <g id="ytick_4">
     <g id="line2d_27">
      <g>
       <use style="stroke:#000000;stroke-width:0.5;" x="44.4574425" xlink:href="#m728421d6d4" y="120.198780938"/>
      </g>
     </g>
     <g id="line2d_28">
      <g>
       <use style="stroke:#000000;stroke-width:0.5;" x="379.2574425" xlink:href="#mcb0005524f" y="120.198780938"/>
      </g>
     </g>
     <g id="text_14">
      <!-- 2.15 -->
      <g transform="translate(22.285026875 122.795398125)scale(0.09996 -0.09996)">
       <use xlink:href="#WenQuanYiMicroHei-32"/>
       <use x="55.078125" xlink:href="#WenQuanYiMicroHei-2e"/>
       <use x="81.884765625" xlink:href="#WenQuanYiMicroHei-31"/>
       <use x="136.962890625" xlink:href="#WenQuanYiMicroHei-35"/>
      </g>
     </g>
    </g>
    <g id="ytick_5">
     <g id="line2d_29">
      <g>
       <use style="stroke:#000000;stroke-width:0.5;" x="44.4574425" xlink:href="#m728421d6d4" y="98.5987809375"/>
      </g>
     </g>
     <g id="line2d_30">
      <g>
       <use style="stroke:#000000;stroke-width:0.5;" x="379.2574425" xlink:href="#mcb0005524f" y="98.5987809375"/>
      </g>
     </g>
     <g id="text_15">
      <!-- 2.20 -->
      <g transform="translate(22.197561875 101.195398125)scale(0.09996 -0.09996)">
       <use xlink:href="#WenQuanYiMicroHei-32"/>
       <use x="55.078125" xlink:href="#WenQuanYiMicroHei-2e"/>
       <use x="81.884765625" xlink:href="#WenQuanYiMicroHei-32"/>
       <use x="136.962890625" xlink:href="#WenQuanYiMicroHei-30"/>
      </g>
     </g>
    </g>
    <g id="ytick_6">
     <g id="line2d_31">
      <g>
       <use style="stroke:#000000;stroke-width:0.5;" x="44.4574425" xlink:href="#m728421d6d4" y="76.9987809375"/>
      </g>
     </g>
     <g id="line2d_32">
      <g>
       <use style="stroke:#000000;stroke-width:0.5;" x="379.2574425" xlink:href="#mcb0005524f" y="76.9987809375"/>
      </g>
     </g>
     <g id="text_16">
      <!-- 2.25 -->
      <g transform="translate(22.285026875 79.595398125)scale(0.09996 -0.09996)">
       <use xlink:href="#WenQuanYiMicroHei-32"/>
       <use x="55.078125" xlink:href="#WenQuanYiMicroHei-2e"/>
       <use x="81.884765625" xlink:href="#WenQuanYiMicroHei-32"/>
       <use x="136.962890625" xlink:href="#WenQuanYiMicroHei-35"/>
      </g>
     </g>
    </g>
    <g id="ytick_7">
     <g id="line2d_33">
      <g>
       <use style="stroke:#000000;stroke-width:0.5;" x="44.4574425" xlink:href="#m728421d6d4" y="55.3987809375"/>
      </g>
     </g>
     <g id="line2d_34">
      <g>
       <use style="stroke:#000000;stroke-width:0.5;" x="379.2574425" xlink:href="#mcb0005524f" y="55.3987809375"/>
      </g>
     </g>
     <g id="text_17">
      <!-- 2.30 -->
      <defs>
       <path d="
M46.9219 54.6875
Q46.9219 51.125 45.7969 48.1875
Q44.6719 45.2656 42.6406 43.1094
Q40.625 40.9688 37.7969 39.5781
Q34.9688 38.1875 31.5 37.5938
L31.5 37.3125
Q40.1406 36.2344 44.625 31.8125
Q49.125 27.3906 49.125 20.3125
Q49.125 15.625 47.5312 11.7188
Q45.9531 7.8125 42.7188 4.98438
Q39.5 2.15625 34.5625 0.578125
Q29.6406 -0.984375 22.9062 -0.984375
Q17.5781 -0.984375 12.8594 -0.140625
Q8.15625 0.6875 4 2.875
L4 11.1875
Q8.25 8.9375 13.2031 7.71875
Q18.1719 6.5 22.7031 6.5
Q27.2031 6.5 30.4688 7.46875
Q33.7344 8.45312 35.8594 10.25
Q37.9844 12.0625 38.9844 14.6875
Q39.9844 17.3281 39.9844 20.6094
Q39.9844 23.9219 38.6875 26.2812
Q37.4062 28.6562 35.0156 30.1875
Q32.625 31.7344 29.1719 32.4688
Q25.7344 33.2031 21.3906 33.2031
L14.8906 33.2031
L14.8906 40.5781
L21.3906 40.5781
Q25.3438 40.5781 28.4219 41.5469
Q31.5 42.5312 33.5625 44.3281
Q35.6406 46.1406 36.7188 48.625
Q37.7969 51.125 37.7969 54.1094
Q37.7969 56.6406 36.9062 58.6406
Q36.0312 60.6406 34.4219 62.0312
Q32.8125 63.4219 30.5625 64.1562
Q28.3281 64.8906 25.5938 64.8906
Q20.3594 64.8906 16.375 63.25
Q12.4062 61.625 8.79688 58.9844
L4.29688 65.0938
Q6.15625 66.6094 8.42188 67.9219
Q10.6875 69.2344 13.375 70.2344
Q16.0625 71.2344 19.1094 71.8125
Q22.1719 72.4062 25.5938 72.4062
Q30.8594 72.4062 34.8281 71.0938
Q38.8125 69.7812 41.5 67.4062
Q44.1875 65.0469 45.5469 61.7969
Q46.9219 58.5469 46.9219 54.6875" id="WenQuanYiMicroHei-33"/>
      </defs>
      <g transform="translate(22.197561875 57.995398125)scale(0.09996 -0.09996)">
       <use xlink:href="#WenQuanYiMicroHei-32"/>
       <use x="55.078125" xlink:href="#WenQuanYiMicroHei-2e"/>
       <use x="81.884765625" xlink:href="#WenQuanYiMicroHei-33"/>
       <use x="136.962890625" xlink:href="#WenQuanYiMicroHei-30"/>
      </g>
     </g>
    </g>
    <g id="ytick_8">
     <g id="line2d_35">
      <g>
       <use style="stroke:#000000;stroke-width:0.5;" x="44.4574425" xlink:href="#m728421d6d4" y="33.7987809375"/>
      </g>
     </g>
     <g id="line2d_36">
      <g>
       <use style="stroke:#000000;stroke-width:0.5;" x="379.2574425" xlink:href="#mcb0005524f" y="33.7987809375"/>
      </g>
     </g>
     <g id="text_18">
      <!-- 2.35 -->
      <g transform="translate(22.285026875 36.395398125)scale(0.09996 -0.09996)">
       <use xlink:href="#WenQuanYiMicroHei-32"/>
       <use x="55.078125" xlink:href="#WenQuanYiMicroHei-2e"/>
       <use x="81.884765625" xlink:href="#WenQuanYiMicroHei-33"/>
       <use x="136.962890625" xlink:href="#WenQuanYiMicroHei-35"/>
      </g>
     </g>
    </g>
    <g id="ytick_9">
     <g id="line2d_37">
      <g>
       <use style="stroke:#000000;stroke-width:0.5;" x="44.4574425" xlink:href="#m728421d6d4" y="12.1987809375"/>
      </g>
     </g>
     <g id="line2d_38">
      <g>
       <use style="stroke:#000000;stroke-width:0.5;" x="379.2574425" xlink:href="#mcb0005524f" y="12.1987809375"/>
      </g>
     </g>
     <g id="text_19">
      <!-- 2.40 -->
      <g transform="translate(22.197561875 14.795398125)scale(0.09996 -0.09996)">
       <use xlink:href="#WenQuanYiMicroHei-32"/>
       <use x="55.078125" xlink:href="#WenQuanYiMicroHei-2e"/>
       <use x="81.884765625" xlink:href="#WenQuanYiMicroHei-34"/>
       <use x="136.962890625" xlink:href="#WenQuanYiMicroHei-30"/>
      </g>
     </g>
    </g>
    <g id="text_20">
     <!-- 摆动周期(秒) -->
     <defs>
      <path d="
M5.07812 54.6875
L20.3125 54.6875
L20.3125 67.5781
Q14.4531 66.0156 8.20312 64.8438
L5.46875 71.875
Q23.0469 75 37.5 81.25
L41.0156 74.6094
L27.7344 69.9219
L27.7344 54.6875
L41.7969 54.6875
L41.7969 47.6562
L27.7344 47.6562
L27.7344 45.7031
Q35.5469 37.5 41.4062 29.2969
L36.3281 22.2656
Q32.0312 29.6875 27.7344 35.5469
L27.7344 -8.98438
L20.3125 -8.98438
L20.3125 30.0781
Q15.625 18.3594 8.20312 8.59375
L2.73438 15.2344
Q13.6719 29.2969 19.1406 47.6562
L5.07812 47.6562
z

M62.5 80.8594
L70.7031 80.8594
L70.7031 21.875
L62.5 21.875
z

M81.6406 70.7031
Q89.8438 57.4219 95.3125 42.1875
L88.2812 38.2812
Q83.5938 53.125 75.3906 66.7969
z

M48.8281 69.9219
L56.25 67.1875
Q52.3438 46.4844 46.0938 32.0312
L38.6719 36.7188
Q45.3125 51.5625 48.8281 69.9219
M82.8125 36.3281
L90.625 33.5938
Q82.8125 16.7969 70.3125 6.64062
Q57.8125 -3.51562 37.1094 -9.375
L33.5938 -1.95312
Q52.7344 3.125 63.8594 12.1094
Q75 21.0938 82.8125 36.3281" id="WenQuanYiMicroHei-79d2"/>
      <path d="
M91.4062 77.7344
L91.4062 2.34375
Q91.4062 -3.125 89.0625 -5.85938
Q86.7188 -8.59375 82.0312 -8.59375
Q78.5156 -8.59375 72.6562 -7.8125
L70.7031 0.390625
Q76.9531 -0.78125 80.4688 -0.78125
Q83.5938 -0.78125 83.5938 4.6875
L83.5938 23.4375
L65.625 23.4375
Q63.6719 5.46875 55.8594 -8.98438
L48.8281 -3.90625
Q58.2031 12.5 58.2031 32.4219
L58.2031 77.7344
z

M66.4062 53.9062
L83.5938 53.9062
L83.5938 70.3125
L66.4062 70.3125
z

M66.4062 30.4688
L83.5938 30.4688
L83.5938 46.875
L66.4062 46.875
z

M6.25 69.1406
L14.0625 69.1406
L14.0625 80.8594
L21.875 80.8594
L21.875 69.1406
L38.2812 69.1406
L38.2812 80.8594
L46.0938 80.8594
L46.0938 69.1406
L53.9062 69.1406
L53.9062 62.1094
L46.0938 62.1094
L46.0938 19.5312
L53.5156 19.5312
L53.5156 12.5
L5.07812 12.5
L5.07812 19.5312
L14.0625 19.5312
L14.0625 62.1094
L6.25 62.1094
z

M21.875 52.3438
L38.2812 52.3438
L38.2812 62.1094
L21.875 62.1094
z

M21.875 35.9375
L38.2812 35.9375
L38.2812 45.7031
L21.875 45.7031
z

M21.875 19.5312
L38.2812 19.5312
L38.2812 29.2969
L21.875 29.2969
z

M20.7031 10.5469
L27.3438 6.25
Q20.7031 -3.51562 12.1094 -9.375
L6.25 -2.73438
Q15.2344 3.125 20.7031 10.5469
M39.4531 10.5469
Q44.5312 4.6875 47.6562 -1.95312
L41.4062 -5.46875
Q38.2812 0.78125 33.2031 6.64062
z
" id="WenQuanYiMicroHei-671f"/>
      <path d="
M89.0625 78.125
L89.0625 1.17188
Q89.0625 -3.51562 86.9062 -6.04688
Q84.7656 -8.59375 80.0781 -8.59375
Q74.2188 -8.59375 66.0156 -7.8125
L64.0625 -0.78125
Q73.0469 -1.5625 78.5156 -1.5625
Q81.25 -1.5625 81.25 3.51562
L81.25 70.7031
L21.875 70.7031
L21.875 38.2812
Q21.875 11.7188 11.7188 -8.98438
L4.29688 -4.29688
Q9.76562 7.8125 11.9062 17.375
Q14.0625 26.9531 14.0625 41.0156
L14.0625 78.125
z

M28.9062 59.375
L47.2656 59.375
L47.2656 66.7969
L55.0781 66.7969
L55.0781 59.375
L73.8281 59.375
L73.8281 52.3438
L55.0781 52.3438
L55.0781 43.75
L76.5625 43.75
L76.5625 36.7188
L27.3438 36.7188
L27.3438 43.75
L47.2656 43.75
L47.2656 52.3438
L28.9062 52.3438
z

M32.8125 30.8594
L70.7031 30.8594
L70.7031 7.03125
L32.8125 7.03125
z

M40.2344 13.6719
L63.2812 13.6719
L63.2812 24.2188
L40.2344 24.2188
z
" id="WenQuanYiMicroHei-5468"/>
      <path d="
M49.6094 63.6719
L61.7188 63.6719
L61.7188 80.8594
L69.5312 80.8594
L69.5312 63.6719
L92.5781 63.6719
Q92.1875 8.20312 89.4531 0.390625
Q86.7188 -7.42188 80.0781 -7.42188
Q75 -7.42188 68.3594 -6.25
L67.1875 1.5625
Q75 0.390625 79.6875 0.390625
Q82.0312 0.390625 82.8125 7.03125
Q85.1562 22.2656 85.1562 56.25
L69.5312 56.25
Q69.1406 8.98438 46.875 -8.98438
L41.4062 -3.125
Q61.3281 13.6719 61.7188 56.25
L49.6094 56.25
z

M8.98438 73.8281
L42.1875 73.8281
L42.1875 66.7969
L8.98438 66.7969
z

M5.85938 51.1719
L45.3125 51.1719
L45.3125 43.75
L28.125 43.75
Q21.4844 21.0938 13.6719 10.9375
Q25.3906 12.1094 38.2812 16.4062
Q35.9375 23.8281 32.4219 30.4688
L39.4531 32.4219
Q45.7031 21.0938 48.8281 7.03125
L41.7969 5.07812
Q41.0156 7.42188 40.625 9.76562
Q25 4.6875 7.42188 3.125
L5.07812 10.1562
Q13.6719 21.875 19.5312 43.75
L5.85938 43.75
z
" id="WenQuanYiMicroHei-52a8"/>
     </defs>
     <g transform="translate(14.795398125 126.183055312)rotate(-90.0)scale(0.09996 -0.09996)">
      <use xlink:href="#WenQuanYiMicroHei-6446"/>
      <use x="100.0" xlink:href="#WenQuanYiMicroHei-52a8"/>
      <use x="200.0" xlink:href="#WenQuanYiMicroHei-5468"/>
      <use x="300.0" xlink:href="#WenQuanYiMicroHei-671f"/>
      <use x="400.0" xlink:href="#WenQuanYiMicroHei-28"/>
      <use x="430.078125" xlink:href="#WenQuanYiMicroHei-79d2"/>
      <use x="530.078125" xlink:href="#WenQuanYiMicroHei-29"/>
     </g>
    </g>
   </g>
   <g id="legend_1">
    <g id="patch_7">
     <path d="
M49.4554 50.1867
L180.706 50.1867
L180.706 17.1968
L49.4554 17.1968
z
" style="fill:#ffffff;stroke:#000000;stroke-linejoin:miter;"/>
    </g>
    <g id="line2d_39">
     <path d="
M56.4526 25.292
L70.447 25.292" style="fill:none;stroke:#348abd;stroke-linecap:square;stroke-width:4.0;"/>
    </g>
    <g id="line2d_40"/>
    <g id="text_21">
     <!-- fsolve计算的单摆周期 -->
     <defs>
      <path d="
M52.2031 26.9062
Q52.2031 20.2188 50.5625 15.0156
Q48.9219 9.8125 45.875 6.26562
Q42.8281 2.73438 38.4688 0.875
Q34.125 -0.984375 28.7188 -0.984375
Q23.6875 -0.984375 19.4375 0.875
Q15.1875 2.73438 12.0781 6.26562
Q8.98438 9.8125 7.25 15.0156
Q5.51562 20.2188 5.51562 26.9062
Q5.51562 33.5469 7.15625 38.6875
Q8.79688 43.8438 11.8125 47.375
Q14.8438 50.9219 19.2031 52.75
Q23.5781 54.5938 29 54.5938
Q34.0312 54.5938 38.2812 52.75
Q42.5312 50.9219 45.625 47.375
Q48.7344 43.8438 50.4688 38.6875
Q52.2031 33.5469 52.2031 26.9062
M14.7031 26.9062
Q14.7031 16.7031 18.0469 11.5469
Q21.3906 6.39062 28.9062 6.39062
Q36.4219 6.39062 39.7188 11.5469
Q43.0156 16.7031 43.0156 26.9062
Q43.0156 37.1094 39.6719 42.1562
Q36.3281 47.2188 28.8125 47.2188
Q21.2969 47.2188 18 42.1562
Q14.7031 37.1094 14.7031 26.9062" id="WenQuanYiMicroHei-6f"/>
      <path d="
M29.6875 -0.984375
Q24.3125 -0.984375 19.875 0.828125
Q15.4375 2.64062 12.2344 6.10938
Q9.03125 9.57812 7.26562 14.7031
Q5.51562 19.8281 5.51562 26.4219
Q5.51562 33.0625 7.125 38.2812
Q8.73438 43.5 11.6562 47.1406
Q14.5938 50.7812 18.6719 52.6875
Q22.75 54.5938 27.6875 54.5938
Q32.5156 54.5938 36.375 52.8594
Q40.2344 51.125 42.9219 47.9688
Q45.6094 44.8281 47.0469 40.4062
Q48.4844 35.9844 48.4844 30.6094
L48.4844 25.0938
L14.7031 25.0938
Q14.9375 15.6719 18.6719 11.2188
Q22.4062 6.78125 29.7812 6.78125
Q32.2812 6.78125 34.4062 7.03125
Q36.5312 7.28125 38.5 7.73438
Q40.4844 8.20312 42.3281 8.90625
Q44.1875 9.625 46.0938 10.5
L46.0938 2.59375
Q44.1406 1.65625 42.25 0.96875
Q40.375 0.296875 38.3906 -0.140625
Q36.4219 -0.59375 34.2969 -0.78125
Q32.1719 -0.984375 29.6875 -0.984375
M27.4844 47.2188
Q21.9219 47.2188 18.6719 43.4062
Q15.4375 39.5938 14.8906 32.3281
L38.9219 32.3281
Q38.9219 35.6406 38.25 38.3906
Q37.5938 41.1562 36.2031 43.1094
Q34.8125 45.0625 32.6562 46.1406
Q30.5156 47.2188 27.4844 47.2188" id="WenQuanYiMicroHei-65"/>
      <path d="
M17.3906 0
L8.5 0
L8.5 75.9844
L17.3906 75.9844
z
" id="WenQuanYiMicroHei-6c"/>
      <path d="
M33.2031 81.6406
Q37.5 77.3438 40.625 71.875
L33.5938 68.75
Q30.8594 74.2188 26.5625 78.5156
z

M67.5781 81.6406
L75.7812 79.6875
Q73.0469 72.6562 68.75 66.7969
L83.5938 66.7969
L83.5938 24.2188
L53.9062 24.2188
L53.9062 15.2344
L92.9688 15.2344
L92.9688 8.20312
L53.9062 8.20312
L53.9062 -9.76562
L45.7031 -9.76562
L45.7031 8.20312
L6.64062 8.20312
L6.64062 15.2344
L45.7031 15.2344
L45.7031 24.2188
L16.0156 24.2188
L16.0156 66.7969
L59.7656 66.7969
Q64.8438 74.2188 67.5781 81.6406
M23.8281 49.2188
L45.7031 49.2188
L45.7031 59.375
L23.8281 59.375
z

M53.9062 59.375
L53.9062 49.2188
L75.7812 49.2188
L75.7812 59.375
z

M23.8281 31.6406
L45.7031 31.6406
L45.7031 41.7969
L23.8281 41.7969
z

M53.9062 41.7969
L53.9062 31.6406
L75.7812 31.6406
L75.7812 41.7969
z
" id="WenQuanYiMicroHei-5355"/>
      <path d="
M18.3125 0
L0 53.6094
L9.1875 53.6094
L18.8906 23.7812
Q19.4375 22.1719 20.1719 19.625
Q20.9062 17.0938 21.625 14.4531
Q22.3594 11.8125 22.9688 9.46875
Q23.5781 7.125 23.7812 5.90625
L24.125 5.90625
Q24.3594 7.125 24.9375 9.46875
Q25.5312 11.8125 26.2656 14.4531
Q27 17.0938 27.7344 19.625
Q28.4688 22.1719 29 23.7812
L38.7188 53.6094
L47.9062 53.6094
L29.5938 0
z
" id="WenQuanYiMicroHei-76"/>
      <path d="
M31.7812 46.9219
L19.8281 46.9219
L19.8281 0
L10.8906 0
L10.8906 46.9219
L1.42188 46.9219
L1.42188 50.5938
L10.8906 53.9062
L10.8906 58.5938
Q10.8906 63.8125 11.9844 67.25
Q13.0938 70.7031 15.1562 72.75
Q17.2344 74.8125 20.2656 75.6562
Q23.2969 76.5156 27.0938 76.5156
Q29.9844 76.5156 32.3906 75.9531
Q34.8125 75.3906 36.7188 74.7031
L34.4219 67.8281
Q32.9062 68.3594 31.125 68.7656
Q29.3438 69.1875 27.3906 69.1875
Q25.4375 69.1875 24.0156 68.7188
Q22.6094 68.2656 21.6719 67.0938
Q20.75 65.9219 20.2812 63.8906
Q19.8281 61.8594 19.8281 58.6875
L19.8281 53.6094
L31.7812 53.6094
z
" id="WenQuanYiMicroHei-66"/>
      <path d="
M40.5781 14.7031
Q40.5781 10.7969 39.1562 7.85938
Q37.75 4.9375 35.0781 2.95312
Q32.4219 0.984375 28.6562 0
Q24.9062 -0.984375 20.2188 -0.984375
Q14.8906 -0.984375 11.0781 -0.125
Q7.28125 0.734375 4.39062 2.39062
L4.39062 10.5
Q5.90625 9.71875 7.76562 8.95312
Q9.625 8.20312 11.6719 7.60938
Q13.7188 7.03125 15.8906 6.65625
Q18.0625 6.29688 20.2188 6.29688
Q23.3906 6.29688 25.6094 6.82812
Q27.8281 7.375 29.2188 8.375
Q30.6094 9.375 31.25 10.8125
Q31.8906 12.25 31.8906 14.0156
Q31.8906 15.5312 31.3906 16.75
Q30.9062 17.9688 29.6094 19.1562
Q28.3281 20.3594 26.0781 21.5781
Q23.8281 22.7969 20.3125 24.3125
Q16.7969 25.8281 13.9844 27.2969
Q11.1875 28.7656 9.23438 30.5625
Q7.28125 32.375 6.21875 34.7344
Q5.17188 37.1094 5.17188 40.375
Q5.17188 43.7969 6.51562 46.4531
Q7.85938 49.125 10.2969 50.9219
Q12.75 52.7344 16.1562 53.6562
Q19.5781 54.5938 23.7812 54.5938
Q28.5156 54.5938 32.4375 53.5625
Q36.375 52.5469 39.8906 50.875
L36.8125 43.7031
Q33.6406 45.125 30.2969 46.1719
Q26.9531 47.2188 23.4844 47.2188
Q18.5 47.2188 16.1094 45.5781
Q13.7188 43.9531 13.7188 40.9219
Q13.7188 39.2031 14.2812 37.9375
Q14.8438 36.6719 16.2031 35.5469
Q17.5781 34.4219 19.875 33.2656
Q22.1719 32.125 25.5938 30.7188
Q29.1094 29.25 31.8594 27.7812
Q34.625 26.3125 36.5781 24.4844
Q38.5312 22.6562 39.5469 20.3125
Q40.5781 17.9688 40.5781 14.7031" id="WenQuanYiMicroHei-73"/>
      <path d="
M58.9844 80.4688
L66.7969 78.9062
Q64.8438 71.4844 61.7188 64.4531
L92.1875 64.4531
Q92.1875 12.8906 88.6719 0.78125
Q85.9375 -8.98438 75.7812 -8.98438
Q70.7031 -8.98438 63.6719 -7.42188
L61.7188 0.78125
Q71.4844 -0.78125 75.7812 -0.78125
Q80.4688 -0.78125 81.6406 4.6875
Q83.9844 15.2344 83.9844 57.0312
L57.8125 57.0312
Q53.125 48.8281 47.6562 43.3594
L41.7969 48.8281
Q53.5156 61.7188 58.9844 80.4688
M62.1094 41.7969
Q67.9688 33.2031 71.875 22.6562
L64.4531 19.1406
Q60.5469 30.0781 54.6875 38.6719
z

M40.2344 67.9688
L40.2344 -2.73438
L33.2031 -2.73438
L33.2031 0.390625
L15.2344 0.390625
L15.2344 -5.46875
L8.20312 -5.46875
L8.20312 67.9688
L16.7969 67.9688
Q18.75 74.2188 19.5312 80.8594
L27.7344 79.2969
Q26.1719 73.0469 24.2188 67.9688
z

M33.2031 37.8906
L33.2031 60.5469
L15.2344 60.5469
L15.2344 37.8906
z

M15.2344 30.4688
L15.2344 7.8125
L33.2031 7.8125
L33.2031 30.4688
z
" id="WenQuanYiMicroHei-7684"/>
      <path d="
M19.9219 80.8594
Q26.5625 73.0469 30.8594 64.4531
L23.4375 60.1562
Q19.5312 68.75 12.8906 76.5625
z

M5.07812 51.9531
L26.1719 51.9531
L26.1719 6.64062
L34.375 15.625
L39.4531 10.9375
Q33.9844 3.51562 24.6094 -3.90625
L18.75 1.17188
L18.75 44.9219
L5.07812 44.9219
z

M32.0312 50.3906
L59.7656 50.3906
L59.7656 80.8594
L67.5781 80.8594
L67.5781 50.3906
L94.9219 50.3906
L94.9219 42.9688
L67.5781 42.9688
L67.5781 -9.76562
L59.7656 -9.76562
L59.7656 42.9688
L32.0312 42.9688
z
" id="WenQuanYiMicroHei-8ba1"/>
      <path d="
M21.4844 81.6406
L29.2969 79.2969
L26.9531 75
L49.6094 75
L49.6094 68.3594
L37.1094 68.3594
Q40.2344 65.2344 42.9688 62.1094
L35.9375 58.2031
Q32.8125 63.2812 28.5156 68.3594
L22.2656 68.3594
Q17.5781 62.1094 11.3281 57.4219
L5.07812 62.1094
Q16.7969 71.0938 21.4844 81.6406
M62.1094 81.6406
L69.5312 79.2969
Q68.75 77.3438 67.5781 75
L94.5312 75
L94.5312 68.3594
L78.9062 68.3594
L82.4219 64.0625
L75.3906 60.1562
Q73.0469 64.0625 69.9219 68.3594
L63.2812 68.3594
Q59.375 62.8906 54.2969 58.5938
L47.6562 63.2812
Q57.4219 71.4844 62.1094 81.6406
M16.0156 57.4219
L84.7656 57.4219
L84.7656 19.5312
L69.5312 19.5312
L69.5312 13.6719
L94.9219 13.6719
L94.9219 6.64062
L69.5312 6.64062
L69.5312 -8.59375
L61.7188 -8.59375
L61.7188 6.64062
L38.2812 6.64062
Q35.9375 -2.73438 17.1875 -8.98438
L11.7188 -1.5625
Q26.9531 1.95312 29.6875 6.64062
L5.07812 6.64062
L5.07812 13.6719
L30.8594 13.6719
L30.8594 19.5312
L16.0156 19.5312
z

M23.4375 46.4844
L77.3438 46.4844
L77.3438 50.7812
L23.4375 50.7812
z

M23.4375 36.3281
L77.3438 36.3281
L77.3438 40.625
L23.4375 40.625
z

M23.4375 26.1719
L77.3438 26.1719
L77.3438 30.4688
L23.4375 30.4688
z

M61.7188 13.6719
L61.7188 19.5312
L38.6719 19.5312
L38.6719 13.6719
z
" id="WenQuanYiMicroHei-7b97"/>
     </defs>
     <g transform="translate(81.4426425 28.7905790625)scale(0.09996 -0.09996)">
      <use xlink:href="#WenQuanYiMicroHei-66"/>
      <use x="32.91015625" xlink:href="#WenQuanYiMicroHei-73"/>
      <use x="78.02734375" xlink:href="#WenQuanYiMicroHei-6f"/>
      <use x="135.7421875" xlink:href="#WenQuanYiMicroHei-6c"/>
      <use x="161.62109375" xlink:href="#WenQuanYiMicroHei-76"/>
      <use x="209.521484375" xlink:href="#WenQuanYiMicroHei-65"/>
      <use x="263.037109375" xlink:href="#WenQuanYiMicroHei-8ba1"/>
      <use x="363.037109375" xlink:href="#WenQuanYiMicroHei-7b97"/>
      <use x="463.037109375" xlink:href="#WenQuanYiMicroHei-7684"/>
      <use x="563.037109375" xlink:href="#WenQuanYiMicroHei-5355"/>
      <use x="663.037109375" xlink:href="#WenQuanYiMicroHei-6446"/>
      <use x="763.037109375" xlink:href="#WenQuanYiMicroHei-5468"/>
      <use x="863.037109375" xlink:href="#WenQuanYiMicroHei-671f"/>
     </g>
    </g>
    <g id="line2d_41">
     <path d="
M56.4526 40.2875
L70.447 40.2875" style="fill:none;stroke:#ff0000;stroke-linecap:square;stroke-width:2.0;"/>
    </g>
    <g id="line2d_42"/>
    <g id="text_22">
     <!-- 单摆周期精确值 -->
     <defs>
      <path d="
M6.64062 49.2188
L19.5312 49.2188
L19.5312 80.8594
L26.5625 80.8594
L26.5625 49.2188
L39.0625 49.2188
L39.0625 42.5781
L26.5625 42.5781
L26.5625 34.375
Q33.9844 26.9531 39.4531 19.9219
L33.9844 12.5
Q30.4688 19.5312 26.5625 25
L26.5625 -8.98438
L19.5312 -8.98438
L19.5312 25.3906
Q15.2344 14.8438 9.375 5.85938
L4.29688 12.1094
Q14.0625 25.3906 18.75 42.5781
L6.64062 42.5781
z

M12.8906 74.2188
Q15.2344 65.625 16.7969 55.4688
L10.9375 52.7344
Q9.375 63.2812 6.64062 71.4844
z

M34.375 74.2188
L40.2344 72.2656
Q37.5 60.5469 33.9844 52.3438
L28.5156 55.4688
Q32.4219 64.8438 34.375 74.2188
M44.1406 75
L63.6719 75
L63.6719 80.8594
L71.0938 80.8594
L71.0938 75
L92.5781 75
L92.5781 68.3594
L71.0938 68.3594
L71.0938 61.7188
L89.8438 61.7188
L89.8438 55.4688
L71.0938 55.4688
L71.0938 49.2188
L94.9219 49.2188
L94.9219 42.5781
L41.4062 42.5781
L41.4062 49.2188
L63.6719 49.2188
L63.6719 55.4688
L47.6562 55.4688
L47.6562 61.7188
L63.6719 61.7188
L63.6719 68.3594
L44.1406 68.3594
z

M89.0625 36.3281
L89.0625 0.390625
Q89.0625 -4.29688 86.7188 -6.64062
Q84.375 -8.98438 79.6875 -8.98438
Q76.9531 -8.98438 73.4375 -8.20312
L71.4844 -0.78125
Q76.9531 -1.5625 79.6875 -1.5625
Q81.6406 -1.5625 81.6406 2.34375
L81.6406 5.07812
L54.2969 5.07812
L54.2969 -8.98438
L46.875 -8.98438
L46.875 36.3281
z

M54.2969 23.8281
L81.6406 23.8281
L81.6406 30.0781
L54.2969 30.0781
z

M54.2969 11.3281
L81.6406 11.3281
L81.6406 17.5781
L54.2969 17.5781
z
" id="WenQuanYiMicroHei-7cbe"/>
      <path d="
M55.8594 80.8594
L63.6719 78.9062
Q62.8906 76.5625 61.7188 73.8281
L82.8125 73.8281
L82.8125 67.1875
Q80.0781 62.1094 76.9531 58.2031
L92.5781 58.2031
L92.5781 0
Q92.5781 -4.29688 90.625 -6.4375
Q88.6719 -8.59375 85.1562 -8.59375
Q82.0312 -8.59375 77.3438 -7.8125
L75.7812 -0.390625
Q80.8594 -1.17188 83.2031 -1.17188
Q85.1562 -1.17188 85.1562 1.17188
L85.1562 14.8438
L71.875 14.8438
L71.875 -6.25
L64.4531 -6.25
L64.4531 14.8438
L51.9531 14.8438
Q50 1.17188 44.1406 -8.98438
L37.1094 -4.6875
Q45.3125 11.7188 45.3125 30.0781
L45.3125 50.3906
Q44.1406 49.2188 42.5781 48.0469
L37.5 53.9062
Q50 65.625 55.8594 80.8594
M67.5781 58.2031
Q71.0938 62.5 73.4375 66.7969
L58.2031 66.7969
Q54.6875 60.5469 52.3438 58.2031
z

M52.7344 40.2344
L64.4531 40.2344
L64.4531 51.1719
L52.7344 51.1719
z

M71.875 51.1719
L71.875 40.2344
L85.1562 40.2344
L85.1562 51.1719
z

M52.7344 21.875
L64.4531 21.875
L64.4531 33.2031
L52.7344 33.2031
L52.7344 26.9531
z

M71.875 33.2031
L71.875 21.875
L85.1562 21.875
L85.1562 33.2031
z

M6.25 74.6094
L42.1875 74.6094
L42.1875 67.1875
L26.1719 67.1875
Q22.6562 53.5156 18.75 43.75
L38.2812 43.75
L38.2812 -0.78125
L30.8594 -0.78125
L30.8594 3.125
L21.875 3.125
L21.875 -5.85938
L14.8438 -5.85938
L14.8438 34.375
Q11.3281 27.3438 8.59375 23.8281
L3.90625 30.0781
Q13.2812 44.5312 18.3594 67.1875
L6.25 67.1875
z

M21.875 10.1562
L30.8594 10.1562
L30.8594 36.7188
L21.875 36.7188
z
" id="WenQuanYiMicroHei-786e"/>
      <path d="
M24.6094 80.8594
L32.4219 78.5156
Q29.2969 69.5312 25.3906 60.5469
L25.3906 -8.98438
L17.5781 -8.98438
L17.5781 45.7031
Q12.8906 38.2812 7.8125 32.0312
L3.90625 39.8438
Q18.3594 59.375 24.6094 80.8594
M35.1562 71.4844
L59.375 71.4844
L59.375 80.4688
L67.1875 80.4688
L67.1875 71.4844
L91.7969 71.4844
L91.7969 64.4531
L67.1875 64.4531
L67.1875 55.4688
L87.1094 55.4688
L87.1094 1.17188
L94.5312 1.17188
L94.5312 -5.46875
L30.0781 -5.46875
L30.0781 1.17188
L41.0156 1.17188
L41.0156 55.4688
L59.375 55.4688
L59.375 64.4531
L35.1562 64.4531
z

M48.8281 41.4062
L79.2969 41.4062
L79.2969 48.8281
L48.8281 48.8281
z

M48.8281 27.7344
L79.2969 27.7344
L79.2969 35.5469
L48.8281 35.5469
z

M48.8281 14.4531
L79.2969 14.4531
L79.2969 21.875
L48.8281 21.875
z

M48.8281 1.17188
L79.2969 1.17188
L79.2969 8.59375
L48.8281 8.59375
z
" id="WenQuanYiMicroHei-503c"/>
     </defs>
     <g transform="translate(81.4426425 43.7861409375)scale(0.09996 -0.09996)">
      <use xlink:href="#WenQuanYiMicroHei-5355"/>
      <use x="100.0" xlink:href="#WenQuanYiMicroHei-6446"/>
      <use x="200.0" xlink:href="#WenQuanYiMicroHei-5468"/>
      <use x="300.0" xlink:href="#WenQuanYiMicroHei-671f"/>
      <use x="400.0" xlink:href="#WenQuanYiMicroHei-7cbe"/>
      <use x="500.0" xlink:href="#WenQuanYiMicroHei-786e"/>
      <use x="600.0" xlink:href="#WenQuanYiMicroHei-503c"/>
     </g>
    </g>
   </g>
  </g>
 </g>
 <defs>
  <clipPath id="p0688a7b2e0">
   <rect height="172.8" width="334.8" x="44.4574425" y="12.1987809375"/>
  </clipPath>
 </defs>
</svg>
