<?xml version="1.0" encoding="utf-8" standalone="no"?>
<!DOCTYPE svg PUBLIC "-//W3C//DTD SVG 1.1//EN"
  "http://www.w3.org/Graphics/SVG/1.1/DTD/svg11.dtd">
<!-- Created with matplotlib (http://matplotlib.org/) -->
<svg height="206pt" version="1.1" viewBox="0 0 377 206" width="377pt" xmlns="http://www.w3.org/2000/svg" xmlns:xlink="http://www.w3.org/1999/xlink">
 <defs>
  <style type="text/css">
*{stroke-linecap:butt;stroke-linejoin:round;}
  </style>
 </defs>
 <g id="figure_1">
  <g id="patch_1">
   <path d="
M0 206.196
L377.842 206.196
L377.842 0
L0 0
z
" style="fill:#ffffff;"/>
  </g>
  <g id="axes_1">
   <g id="patch_2">
    <path d="
M29.4302 184.999
L181.612 184.999
L181.612 12.1988
L29.4302 12.1988
z
" style="fill:#ffffff;"/>
   </g>
   <g id="line2d_1">
    <path clip-path="url(#p3b03e82f41)" d="
M29.4302 98.5988
L30.9674 98.5988
L32.5046 98.5988
L34.0418 98.5988
L35.579 98.5988
L37.1162 98.5988
L38.6533 98.5988
L40.1905 98.5988
L41.7277 98.5988
L43.2649 98.5988
L44.8021 98.5988
L46.3393 98.5988
L47.8765 98.5988
L49.4137 98.5988
L50.9509 98.5988
L52.4881 98.5988
L54.0252 98.5988
L55.5624 98.5988
L57.0996 98.5988
L58.6368 98.5988
L60.174 98.5988
L61.7112 98.5988
L63.2484 98.5988
L64.7856 98.5988
L66.3228 98.5988
L67.86 98.5988
L69.3971 98.5988
L70.9343 98.5988
L72.4715 98.5988
L74.0087 98.5988
L75.5459 98.5988
L77.0831 98.5988
L78.6203 98.5988
L80.1575 98.5988
L81.6947 98.5988
L83.2319 98.5988
L84.769 98.5988
L86.3062 98.5988
L87.8434 98.5988
L89.3806 98.5988
L90.9178 98.5988
L92.455 98.5988
L93.9922 98.5988
L95.5294 98.5988
L97.0666 98.5988
L98.6038 98.5988
L100.141 98.5988
L101.678 98.5988
L103.215 98.5988
L104.753 98.5988
L106.29 98.5988
L107.827 98.5988
L109.364 98.5988
L110.901 98.5988
L112.438 98.5988
L113.976 98.5988
L115.513 98.5988
L117.05 98.5988
L118.587 98.5988
L120.124 98.5988
L121.662 98.5988
L123.199 98.5988
L124.736 98.5988
L126.273 98.5988
L127.81 98.5988
L129.348 98.5988
L130.885 98.5988
L132.422 98.5988
L133.959 98.5988
L135.496 98.5988
L137.034 98.5988
L138.571 98.5988
L140.108 98.5988
L141.645 98.5988
L143.182 98.5988
L144.719 98.5988
L146.257 98.5988
L147.794 98.5988
L149.331 98.5988
L150.868 98.5988
L152.405 98.5988
L153.943 98.5988
L155.48 98.5988
L157.017 98.5988
L158.554 98.5988
L160.091 98.5988
L161.629 98.5988
L163.166 98.5988
L164.703 98.5988
L166.24 98.5988
L167.777 98.5988
L169.315 98.5988
L170.852 98.5988
L172.389 98.5988
L173.926 98.5988
L175.463 98.5988
L177 98.5988
L178.538 98.5988
L180.075 98.5988
L181.612 98.5988" style="fill:none;stroke:#348abd;stroke-linecap:square;stroke-width:2.0;"/>
   </g>
   <g id="line2d_2">
    <path clip-path="url(#p3b03e82f41)" d="
M29.4302 98.5988
L30.9674 95.981
L32.5046 93.3656
L34.0418 90.755
L35.579 88.1517
L37.1162 85.5579
L38.6533 82.9761
L40.1905 80.4086
L41.7277 77.8579
L43.2649 75.3262
L44.8021 72.8158
L46.3393 70.3292
L47.8765 67.8684
L49.4137 65.436
L50.9509 63.0339
L52.4881 60.6645
L54.0252 58.33
L55.5624 56.0324
L57.0996 53.7739
L58.6368 51.5565
L60.174 49.3824
L61.7112 47.2534
L63.2484 45.1716
L64.7856 43.1389
L66.3228 41.157
L67.86 39.228
L69.3971 37.3534
L70.9343 35.5351
L72.4715 33.7746
L74.0087 32.0737
L75.5459 30.4339
L77.0831 28.8567
L78.6203 27.3435
L80.1575 25.8957
L81.6947 24.5147
L83.2319 23.2017
L84.769 21.9579
L86.3062 20.7845
L87.8434 19.6826
L89.3806 18.6531
L90.9178 17.697
L92.455 16.8153
L93.9922 16.0086
L95.5294 15.2777
L97.0666 14.6233
L98.6038 14.0461
L100.141 13.5465
L101.678 13.125
L103.215 12.7819
L104.753 12.5177
L106.29 12.3325
L107.827 12.2265
L109.364 12.1998
L110.901 12.2525
L112.438 12.3844
L113.976 12.5955
L115.513 12.8856
L117.05 13.2544
L118.587 13.7015
L120.124 14.2266
L121.662 14.8291
L123.199 15.5086
L124.736 16.2644
L126.273 17.0958
L127.81 18.002
L129.348 18.9822
L130.885 20.0355
L132.422 21.1609
L133.959 22.3575
L135.496 23.624
L137.034 24.9594
L138.571 26.3625
L140.108 27.8318
L141.645 29.3661
L143.182 30.964
L144.719 32.624
L146.257 34.3446
L147.794 36.1242
L149.331 37.9611
L150.868 39.8537
L152.405 41.8003
L153.943 43.799
L155.48 45.848
L157.017 47.9455
L158.554 50.0894
L160.091 52.2779
L161.629 54.509
L163.166 56.7805
L164.703 59.0904
L166.24 61.4366
L167.777 63.8169
L169.315 66.2292
L170.852 68.6712
L172.389 71.1407
L173.926 73.6353
L175.463 76.1529
L177 78.6911
L178.538 81.2476
L180.075 83.82
L181.612 86.406" style="fill:none;stroke:#a60628;stroke-linecap:square;stroke-width:2.0;"/>
   </g>
   <g id="line2d_3">
    <path clip-path="url(#p3b03e82f41)" d="
M29.4302 98.5988
L30.9674 93.3656
L32.5046 88.1517
L34.0418 82.9761
L35.579 77.8579
L37.1162 72.8158
L38.6533 67.8684
L40.1905 63.0339
L41.7277 58.33
L43.2649 53.7739
L44.8021 49.3824
L46.3393 45.1716
L47.8765 41.157
L49.4137 37.3534
L50.9509 33.7746
L52.4881 30.4339
L54.0252 27.3435
L55.5624 24.5147
L57.0996 21.9579
L58.6368 19.6826
L60.174 17.697
L61.7112 16.0086
L63.2484 14.6233
L64.7856 13.5465
L66.3228 12.7819
L67.86 12.3325
L69.3971 12.1998
L70.9343 12.3844
L72.4715 12.8856
L74.0087 13.7015
L75.5459 14.8291
L77.0831 16.2644
L78.6203 18.002
L80.1575 20.0355
L81.6947 22.3575
L83.2319 24.9594
L84.769 27.8318
L86.3062 30.964
L87.8434 34.3446
L89.3806 37.9611
L90.9178 41.8003
L92.455 45.848
L93.9922 50.0894
L95.5294 54.509
L97.0666 59.0904
L98.6038 63.8169
L100.141 68.6712
L101.678 73.6353
L103.215 78.6911
L104.753 83.82
L106.29 89.0032
L107.827 94.2216
L109.364 99.4561
L110.901 104.687
L112.438 109.896
L113.976 115.064
L115.513 120.171
L117.05 125.199
L118.587 130.129
L120.124 134.943
L121.662 139.624
L123.199 144.154
L124.736 148.517
L126.273 152.697
L127.81 156.678
L129.348 160.446
L130.885 163.987
L132.422 167.287
L133.959 170.335
L135.496 173.12
L137.034 175.632
L138.571 177.86
L140.108 179.797
L141.645 181.437
L143.182 182.772
L144.719 183.798
L146.257 184.511
L147.794 184.908
L149.331 184.989
L150.868 184.753
L152.405 184.2
L153.943 183.333
L155.48 182.154
L157.017 180.669
L158.554 178.883
L160.091 176.801
L161.629 174.433
L163.166 171.786
L164.703 168.87
L166.24 165.697
L167.777 162.277
L169.315 158.623
L170.852 154.748
L172.389 150.668
L173.926 146.396
L175.463 141.949
L177 137.343
L178.538 132.594
L180.075 127.721
L181.612 122.74" style="fill:none;stroke:#7a68a6;stroke-linecap:square;stroke-width:2.0;"/>
   </g>
   <g id="line2d_4">
    <path clip-path="url(#p3b03e82f41)" d="
M29.4302 98.5988
L30.9674 90.755
L32.5046 82.9761
L34.0418 75.3262
L35.579 67.8684
L37.1162 60.6645
L38.6533 53.7739
L40.1905 47.2534
L41.7277 41.157
L43.2649 35.5351
L44.8021 30.4339
L46.3393 25.8957
L47.8765 21.9579
L49.4137 18.6531
L50.9509 16.0086
L52.4881 14.0461
L54.0252 12.7819
L55.5624 12.2265
L57.0996 12.3844
L58.6368 13.2544
L60.174 14.8291
L61.7112 17.0958
L63.2484 20.0355
L64.7856 23.624
L66.3228 27.8318
L67.86 32.624
L69.3971 37.9611
L70.9343 43.799
L72.4715 50.0894
L74.0087 56.7805
L75.5459 63.8169
L77.0831 71.1407
L78.6203 78.6911
L80.1575 86.406
L81.6947 94.2216
L83.2319 102.073
L84.769 109.896
L86.3062 117.626
L87.8434 125.199
L89.3806 132.552
L90.9178 139.624
L92.455 146.358
L93.9922 152.697
L95.5294 158.59
L97.0666 163.987
L98.6038 168.844
L100.141 173.12
L101.678 176.782
L103.215 179.797
L104.753 182.143
L106.29 183.798
L107.827 184.749
L109.364 184.989
L110.901 184.516
L112.438 183.333
L113.976 181.45
L115.513 178.883
L117.05 175.653
L118.587 171.786
L120.124 167.315
L121.662 162.277
L123.199 156.712
L124.736 150.668
L126.273 144.194
L127.81 137.343
L129.348 130.172
L130.885 122.74
L132.422 115.109
L133.959 107.342
L135.496 99.5023
L137.034 91.6553
L138.571 83.8656
L140.108 76.1976
L141.645 68.7146
L143.182 61.4784
L144.719 54.5488
L146.257 47.9829
L147.794 41.8351
L149.331 36.1561
L150.868 30.9928
L152.405 26.3879
L153.943 22.3793
L155.48 19.0002
L157.017 16.2784
L158.554 14.2366
L160.091 12.8914
L161.629 12.2541
L163.166 12.3299
L164.703 13.1182
L166.24 14.6125
L167.777 16.8003
L169.315 19.6638
L170.852 23.1791
L172.389 27.3173
L173.926 32.0442
L175.463 37.3208
L177 43.1034
L178.538 49.3444
L180.075 55.9921
L181.612 62.9917" style="fill:none;stroke:#467821;stroke-linecap:square;stroke-width:2.0;"/>
   </g>
   <g id="line2d_5">
    <path clip-path="url(#p3b03e82f41)" d="
M29.4302 98.5988
L30.9674 88.1517
L32.5046 77.8579
L34.0418 67.8684
L35.579 58.33
L37.1162 49.3824
L38.6533 41.157
L40.1905 33.7746
L41.7277 27.3435
L43.2649 21.9579
L44.8021 17.697
L46.3393 14.6233
L47.8765 12.7819
L49.4137 12.1998
L50.9509 12.8856
L52.4881 14.8291
L54.0252 18.002
L55.5624 22.3575
L57.0996 27.8318
L58.6368 34.3446
L60.174 41.8003
L61.7112 50.0894
L63.2484 59.0904
L64.7856 68.6712
L66.3228 78.6911
L67.86 89.0032
L69.3971 99.4561
L70.9343 109.896
L72.4715 120.171
L74.0087 130.129
L75.5459 139.624
L77.0831 148.517
L78.6203 156.678
L80.1575 163.987
L81.6947 170.335
L83.2319 175.632
L84.769 179.797
L86.3062 182.772
L87.8434 184.511
L89.3806 184.989
L90.9178 184.2
L92.455 182.154
L93.9922 178.883
L95.5294 174.433
L97.0666 168.87
L98.6038 162.277
L100.141 154.748
L101.678 146.396
L103.215 137.343
L104.753 127.721
L106.29 117.671
L107.827 107.342
L109.364 96.8843
L110.901 86.4518
L112.438 76.1976
L113.976 66.2721
L115.513 56.821
L117.05 47.9829
L118.587 39.8876
L120.124 32.6539
L121.662 26.3879
L123.199 21.1815
L124.736 17.1111
L126.273 14.2366
L127.81 12.6
L129.348 12.2254
L130.885 13.1182
L132.422 15.2655
L133.959 18.6356
L135.496 23.1791
L137.034 28.8294
L138.571 35.5034
L140.108 43.1034
L141.645 51.5177
L143.182 60.623
L144.719 70.2854
L146.257 80.3634
L147.794 90.709
L149.331 101.17
L150.868 111.594
L152.405 121.827
L153.943 131.719
L155.48 141.125
L157.017 149.907
L158.554 157.936
L160.091 165.094
L161.629 171.277
L163.166 176.393
L164.703 180.367
L166.24 183.142
L167.777 184.676
L169.315 184.947
L170.852 183.95
L172.389 181.702
L173.926 178.233
L175.463 173.597
L177 167.859
L178.538 161.105
L180.075 153.434
L181.612 144.959" style="fill:none;stroke:#cf4457;stroke-linecap:square;stroke-width:2.0;"/>
   </g>
   <g id="patch_3">
    <path d="
M29.4302 12.1988
L181.612 12.1988" style="fill:none;stroke:#000000;stroke-linecap:square;stroke-linejoin:miter;"/>
   </g>
   <g id="patch_4">
    <path d="
M181.612 184.999
L181.612 12.1988" style="fill:none;stroke:#000000;stroke-linecap:square;stroke-linejoin:miter;"/>
   </g>
   <g id="patch_5">
    <path d="
M29.4302 184.999
L181.612 184.999" style="fill:none;stroke:#000000;stroke-linecap:square;stroke-linejoin:miter;"/>
   </g>
   <g id="patch_6">
    <path d="
M29.4302 184.999
L29.4302 12.1988" style="fill:none;stroke:#000000;stroke-linecap:square;stroke-linejoin:miter;"/>
   </g>
   <g id="matplotlib.axis_1">
    <g id="xtick_1">
     <g id="line2d_6">
      <defs>
       <path d="
M0 0
L0 -4" id="m93b0483c22" style="stroke:#000000;stroke-width:0.5;"/>
      </defs>
      <g>
       <use style="stroke:#000000;stroke-width:0.5;" x="29.430205" xlink:href="#m93b0483c22" y="184.998780938"/>
      </g>
     </g>
     <g id="line2d_7">
      <defs>
       <path d="
M0 0
L0 4" id="m741efc42ff" style="stroke:#000000;stroke-width:0.5;"/>
      </defs>
      <g>
       <use style="stroke:#000000;stroke-width:0.5;" x="29.430205" xlink:href="#m741efc42ff" y="12.1987809375"/>
      </g>
     </g>
     <g id="text_1">
      <!-- 0.0 -->
      <defs>
       <path d="
M50.3906 35.7969
Q50.3906 27.1562 49.1406 20.3125
Q47.9062 13.4844 45.1406 8.73438
Q42.3906 4 38.0312 1.5
Q33.6875 -0.984375 27.4844 -0.984375
Q21.7344 -0.984375 17.4531 1.5
Q13.1875 4 10.375 8.73438
Q7.5625 13.4844 6.17188 20.3125
Q4.78125 27.1562 4.78125 35.7969
Q4.78125 44.4375 6.03125 51.2656
Q7.28125 58.1094 9.98438 62.8125
Q12.7031 67.5312 17.0156 70.0156
Q21.3438 72.5156 27.4844 72.5156
Q33.2969 72.5156 37.5938 70.0469
Q41.8906 67.5781 44.7188 62.8594
Q47.5625 58.1562 48.9688 51.3125
Q50.3906 44.4844 50.3906 35.7969
M13.8125 35.7969
Q13.8125 28.4688 14.5469 23
Q15.2812 17.5312 16.8906 13.8906
Q18.5 10.25 21.1094 8.42188
Q23.7344 6.59375 27.4844 6.59375
Q31.25 6.59375 33.8906 8.39062
Q36.5312 10.2031 38.2031 13.8125
Q39.8906 17.4375 40.6406 22.9219
Q41.4062 28.4219 41.4062 35.7969
Q41.4062 43.1094 40.6406 48.5781
Q39.8906 54.0469 38.2031 57.6562
Q36.5312 61.2812 33.8906 63.0781
Q31.25 64.8906 27.4844 64.8906
Q23.7344 64.8906 21.1094 63.0781
Q18.5 61.2812 16.8906 57.6562
Q15.2812 54.0469 14.5469 48.5781
Q13.8125 43.1094 13.8125 35.7969" id="WenQuanYiMicroHei-30"/>
       <path d="
M7.17188 5.42188
Q7.17188 7.28125 7.65625 8.5625
Q8.15625 9.85938 8.98438 10.6562
Q9.8125 11.4688 10.9375 11.8281
Q12.0625 12.2031 13.375 12.2031
Q14.6562 12.2031 15.7969 11.8281
Q16.9375 11.4688 17.7656 10.6562
Q18.6094 9.85938 19.0938 8.5625
Q19.5781 7.28125 19.5781 5.42188
Q19.5781 3.60938 19.0938 2.3125
Q18.6094 1.03125 17.7656 0.1875
Q16.9375 -0.640625 15.7969 -1.03125
Q14.6562 -1.42188 13.375 -1.42188
Q12.0625 -1.42188 10.9375 -1.03125
Q9.8125 -0.640625 8.98438 0.1875
Q8.15625 1.03125 7.65625 2.3125
Q7.17188 3.60938 7.17188 5.42188" id="WenQuanYiMicroHei-2e"/>
      </defs>
      <g transform="translate(23.057755 196.594179063)scale(0.09996 -0.09996)">
       <use xlink:href="#WenQuanYiMicroHei-30"/>
       <use x="55.078125" xlink:href="#WenQuanYiMicroHei-2e"/>
       <use x="81.884765625" xlink:href="#WenQuanYiMicroHei-30"/>
      </g>
     </g>
    </g>
    <g id="xtick_2">
     <g id="line2d_8">
      <g>
       <use style="stroke:#000000;stroke-width:0.5;" x="54.7938413636" xlink:href="#m93b0483c22" y="184.998780938"/>
      </g>
     </g>
     <g id="line2d_9">
      <g>
       <use style="stroke:#000000;stroke-width:0.5;" x="54.7938413636" xlink:href="#m741efc42ff" y="12.1987809375"/>
      </g>
     </g>
     <g id="text_2">
      <!-- 0.5 -->
      <defs>
       <path d="
M26.6094 43.7969
Q31.4531 43.7969 35.625 42.4531
Q39.7969 41.1094 42.8906 38.4688
Q46 35.8438 47.75 31.9375
Q49.5156 28.0312 49.5156 22.9062
Q49.5156 17.3281 47.8438 12.8906
Q46.1875 8.45312 42.9219 5.375
Q39.6562 2.29688 34.8438 0.65625
Q30.0312 -0.984375 23.7812 -0.984375
Q21.2969 -0.984375 18.875 -0.734375
Q16.4531 -0.484375 14.2344 -0.015625
Q12.0156 0.4375 10.0156 1.17188
Q8.01562 1.90625 6.39062 2.875
L6.39062 11.2812
Q8.01562 10.1562 10.1875 9.28125
Q12.3594 8.40625 14.75 7.8125
Q17.1406 7.23438 19.5469 6.90625
Q21.9688 6.59375 24.0312 6.59375
Q27.875 6.59375 30.9062 7.5
Q33.9375 8.40625 36.0312 10.2969
Q38.1406 12.2031 39.25 15.0781
Q40.375 17.9688 40.375 21.9219
Q40.375 28.9062 36.0781 32.5938
Q31.7812 36.2812 23.5781 36.2812
Q22.2656 36.2812 20.7188 36.1562
Q19.1875 36.0312 17.6406 35.8281
Q16.1094 35.6406 14.7188 35.4219
Q13.3281 35.2031 12.3125 35.0156
L7.90625 37.7969
L10.5938 71.3906
L44.2812 71.3906
L44.2812 63.2812
L18.3125 63.2812
L16.4062 42.8281
Q17.9688 43.1094 20.5312 43.4531
Q23.0938 43.7969 26.6094 43.7969" id="WenQuanYiMicroHei-35"/>
      </defs>
      <g transform="translate(48.4651238636 196.594179063)scale(0.09996 -0.09996)">
       <use xlink:href="#WenQuanYiMicroHei-30"/>
       <use x="55.078125" xlink:href="#WenQuanYiMicroHei-2e"/>
       <use x="81.884765625" xlink:href="#WenQuanYiMicroHei-35"/>
      </g>
     </g>
    </g>
    <g id="xtick_3">
     <g id="line2d_10">
      <g>
       <use style="stroke:#000000;stroke-width:0.5;" x="80.1574777273" xlink:href="#m93b0483c22" y="184.998780938"/>
      </g>
     </g>
     <g id="line2d_11">
      <g>
       <use style="stroke:#000000;stroke-width:0.5;" x="80.1574777273" xlink:href="#m741efc42ff" y="12.1987809375"/>
      </g>
     </g>
     <g id="text_3">
      <!-- 1.0 -->
      <defs>
       <path d="
M34.7188 0
L26.125 0
L26.125 44.5781
Q26.125 46.6875 26.1406 49.0781
Q26.1719 51.4688 26.2344 53.8281
Q26.3125 56.2031 26.3906 58.375
Q26.4688 60.5469 26.5156 62.2031
Q25.6875 61.3281 25.0469 60.6875
Q24.4219 60.0625 23.75 59.4688
Q23.0938 58.8906 22.3594 58.2188
Q21.625 57.5625 20.6094 56.6875
L13.375 50.7812
L8.6875 56.7812
L27.3906 71.3906
L34.7188 71.3906
z
" id="WenQuanYiMicroHei-31"/>
      </defs>
      <g transform="translate(73.9802621023 196.594179063)scale(0.09996 -0.09996)">
       <use xlink:href="#WenQuanYiMicroHei-31"/>
       <use x="55.078125" xlink:href="#WenQuanYiMicroHei-2e"/>
       <use x="81.884765625" xlink:href="#WenQuanYiMicroHei-30"/>
      </g>
     </g>
    </g>
    <g id="xtick_4">
     <g id="line2d_12">
      <g>
       <use style="stroke:#000000;stroke-width:0.5;" x="105.521114091" xlink:href="#m93b0483c22" y="184.998780938"/>
      </g>
     </g>
     <g id="line2d_13">
      <g>
       <use style="stroke:#000000;stroke-width:0.5;" x="105.521114091" xlink:href="#m741efc42ff" y="12.1987809375"/>
      </g>
     </g>
     <g id="text_4">
      <!-- 1.5 -->
      <g transform="translate(99.3876309659 196.594179063)scale(0.09996 -0.09996)">
       <use xlink:href="#WenQuanYiMicroHei-31"/>
       <use x="55.078125" xlink:href="#WenQuanYiMicroHei-2e"/>
       <use x="81.884765625" xlink:href="#WenQuanYiMicroHei-35"/>
      </g>
     </g>
    </g>
    <g id="xtick_5">
     <g id="line2d_14">
      <g>
       <use style="stroke:#000000;stroke-width:0.5;" x="130.884750455" xlink:href="#m93b0483c22" y="184.998780938"/>
      </g>
     </g>
     <g id="line2d_15">
      <g>
       <use style="stroke:#000000;stroke-width:0.5;" x="130.884750455" xlink:href="#m741efc42ff" y="12.1987809375"/>
      </g>
     </g>
     <g id="text_5">
      <!-- 2.0 -->
      <defs>
       <path d="
M49.2188 0
L4.6875 0
L4.6875 7.625
L21.7812 26.2188
Q25.4375 30.1719 28.3125 33.4375
Q31.2031 36.7188 33.2188 39.8438
Q35.25 42.9688 36.3281 46.1094
Q37.4062 49.2656 37.4062 52.9844
Q37.4062 55.8594 36.5781 58.0469
Q35.75 60.25 34.2031 61.7812
Q32.6719 63.3281 30.5625 64.1094
Q28.4688 64.8906 25.875 64.8906
Q21.2344 64.8906 17.5 63.0156
Q13.7656 61.1406 10.4062 58.2031
L5.42188 64.0156
Q7.375 65.7656 9.60938 67.2969
Q11.8594 68.8438 14.4531 69.9688
Q17.0469 71.0938 19.9219 71.75
Q22.7969 72.4062 25.9844 72.4062
Q30.6719 72.4062 34.4531 71.0938
Q38.2344 69.7812 40.8594 67.3125
Q43.5 64.8438 44.9375 61.2969
Q46.3906 57.7656 46.3906 53.3281
Q46.3906 49.1719 45.0938 45.4062
Q43.7969 41.6562 41.5312 38.0156
Q39.2656 34.375 36.1094 30.7031
Q32.9531 27.0469 29.2969 23.0938
L15.5781 8.5
L15.5781 8.10938
L49.2188 8.10938
z
" id="WenQuanYiMicroHei-32"/>
      </defs>
      <g transform="translate(124.50761483 196.594179063)scale(0.09996 -0.09996)">
       <use xlink:href="#WenQuanYiMicroHei-32"/>
       <use x="55.078125" xlink:href="#WenQuanYiMicroHei-2e"/>
       <use x="81.884765625" xlink:href="#WenQuanYiMicroHei-30"/>
      </g>
     </g>
    </g>
    <g id="xtick_6">
     <g id="line2d_16">
      <g>
       <use style="stroke:#000000;stroke-width:0.5;" x="156.248386818" xlink:href="#m93b0483c22" y="184.998780938"/>
      </g>
     </g>
     <g id="line2d_17">
      <g>
       <use style="stroke:#000000;stroke-width:0.5;" x="156.248386818" xlink:href="#m741efc42ff" y="12.1987809375"/>
      </g>
     </g>
     <g id="text_6">
      <!-- 2.5 -->
      <g transform="translate(149.914983693 196.594179063)scale(0.09996 -0.09996)">
       <use xlink:href="#WenQuanYiMicroHei-32"/>
       <use x="55.078125" xlink:href="#WenQuanYiMicroHei-2e"/>
       <use x="81.884765625" xlink:href="#WenQuanYiMicroHei-35"/>
      </g>
     </g>
    </g>
    <g id="xtick_7">
     <g id="line2d_18">
      <g>
       <use style="stroke:#000000;stroke-width:0.5;" x="181.612023182" xlink:href="#m93b0483c22" y="184.998780938"/>
      </g>
     </g>
     <g id="line2d_19">
      <g>
       <use style="stroke:#000000;stroke-width:0.5;" x="181.612023182" xlink:href="#m741efc42ff" y="12.1987809375"/>
      </g>
     </g>
     <g id="text_7">
      <!-- 3.0 -->
      <defs>
       <path d="
M46.9219 54.6875
Q46.9219 51.125 45.7969 48.1875
Q44.6719 45.2656 42.6406 43.1094
Q40.625 40.9688 37.7969 39.5781
Q34.9688 38.1875 31.5 37.5938
L31.5 37.3125
Q40.1406 36.2344 44.625 31.8125
Q49.125 27.3906 49.125 20.3125
Q49.125 15.625 47.5312 11.7188
Q45.9531 7.8125 42.7188 4.98438
Q39.5 2.15625 34.5625 0.578125
Q29.6406 -0.984375 22.9062 -0.984375
Q17.5781 -0.984375 12.8594 -0.140625
Q8.15625 0.6875 4 2.875
L4 11.1875
Q8.25 8.9375 13.2031 7.71875
Q18.1719 6.5 22.7031 6.5
Q27.2031 6.5 30.4688 7.46875
Q33.7344 8.45312 35.8594 10.25
Q37.9844 12.0625 38.9844 14.6875
Q39.9844 17.3281 39.9844 20.6094
Q39.9844 23.9219 38.6875 26.2812
Q37.4062 28.6562 35.0156 30.1875
Q32.625 31.7344 29.1719 32.4688
Q25.7344 33.2031 21.3906 33.2031
L14.8906 33.2031
L14.8906 40.5781
L21.3906 40.5781
Q25.3438 40.5781 28.4219 41.5469
Q31.5 42.5312 33.5625 44.3281
Q35.6406 46.1406 36.7188 48.625
Q37.7969 51.125 37.7969 54.1094
Q37.7969 56.6406 36.9062 58.6406
Q36.0312 60.6406 34.4219 62.0312
Q32.8125 63.4219 30.5625 64.1562
Q28.3281 64.8906 25.5938 64.8906
Q20.3594 64.8906 16.375 63.25
Q12.4062 61.625 8.79688 58.9844
L4.29688 65.0938
Q6.15625 66.6094 8.42188 67.9219
Q10.6875 69.2344 13.375 70.2344
Q16.0625 71.2344 19.1094 71.8125
Q22.1719 72.4062 25.5938 72.4062
Q30.8594 72.4062 34.8281 71.0938
Q38.8125 69.7812 41.5 67.4062
Q44.1875 65.0469 45.5469 61.7969
Q46.9219 58.5469 46.9219 54.6875" id="WenQuanYiMicroHei-33"/>
      </defs>
      <g transform="translate(175.200526307 196.594179063)scale(0.09996 -0.09996)">
       <use xlink:href="#WenQuanYiMicroHei-33"/>
       <use x="55.078125" xlink:href="#WenQuanYiMicroHei-2e"/>
       <use x="81.884765625" xlink:href="#WenQuanYiMicroHei-30"/>
      </g>
     </g>
    </g>
   </g>
   <g id="matplotlib.axis_2">
    <g id="ytick_1">
     <g id="line2d_20">
      <defs>
       <path d="
M0 0
L4 0" id="m728421d6d4" style="stroke:#000000;stroke-width:0.5;"/>
      </defs>
      <g>
       <use style="stroke:#000000;stroke-width:0.5;" x="29.430205" xlink:href="#m728421d6d4" y="184.998780937"/>
      </g>
     </g>
     <g id="line2d_21">
      <defs>
       <path d="
M0 0
L-4 0" id="mcb0005524f" style="stroke:#000000;stroke-width:0.5;"/>
      </defs>
      <g>
       <use style="stroke:#000000;stroke-width:0.5;" x="181.612023182" xlink:href="#mcb0005524f" y="184.998780937"/>
      </g>
     </g>
     <g id="text_8">
      <!-- −1.0 -->
      <defs>
       <path d="
M4.98438 31.5938
L4.98438 38.9219
L50.0938 38.9219
L50.0938 31.5938
z
" id="WenQuanYiMicroHei-2212"/>
      </defs>
      <g transform="translate(7.2 187.595398125)scale(0.09996 -0.09996)">
       <use xlink:href="#WenQuanYiMicroHei-2212"/>
       <use x="55.078125" xlink:href="#WenQuanYiMicroHei-31"/>
       <use x="110.15625" xlink:href="#WenQuanYiMicroHei-2e"/>
       <use x="136.962890625" xlink:href="#WenQuanYiMicroHei-30"/>
      </g>
     </g>
    </g>
    <g id="ytick_2">
     <g id="line2d_22">
      <g>
       <use style="stroke:#000000;stroke-width:0.5;" x="29.430205" xlink:href="#m728421d6d4" y="141.798780938"/>
      </g>
     </g>
     <g id="line2d_23">
      <g>
       <use style="stroke:#000000;stroke-width:0.5;" x="181.612023182" xlink:href="#mcb0005524f" y="141.798780938"/>
      </g>
     </g>
     <g id="text_9">
      <!-- −0.5 -->
      <g transform="translate(7.287465 144.395398125)scale(0.09996 -0.09996)">
       <use xlink:href="#WenQuanYiMicroHei-2212"/>
       <use x="55.078125" xlink:href="#WenQuanYiMicroHei-30"/>
       <use x="110.15625" xlink:href="#WenQuanYiMicroHei-2e"/>
       <use x="136.962890625" xlink:href="#WenQuanYiMicroHei-35"/>
      </g>
     </g>
    </g>
    <g id="ytick_3">
     <g id="line2d_24">
      <g>
       <use style="stroke:#000000;stroke-width:0.5;" x="29.430205" xlink:href="#m728421d6d4" y="98.5987809375"/>
      </g>
     </g>
     <g id="line2d_25">
      <g>
       <use style="stroke:#000000;stroke-width:0.5;" x="181.612023182" xlink:href="#mcb0005524f" y="98.5987809375"/>
      </g>
     </g>
     <g id="text_10">
      <!-- 0.0 -->
      <g transform="translate(12.685305 101.195398125)scale(0.09996 -0.09996)">
       <use xlink:href="#WenQuanYiMicroHei-30"/>
       <use x="55.078125" xlink:href="#WenQuanYiMicroHei-2e"/>
       <use x="81.884765625" xlink:href="#WenQuanYiMicroHei-30"/>
      </g>
     </g>
    </g>
    <g id="ytick_4">
     <g id="line2d_26">
      <g>
       <use style="stroke:#000000;stroke-width:0.5;" x="29.430205" xlink:href="#m728421d6d4" y="55.3987809375"/>
      </g>
     </g>
     <g id="line2d_27">
      <g>
       <use style="stroke:#000000;stroke-width:0.5;" x="181.612023182" xlink:href="#mcb0005524f" y="55.3987809375"/>
      </g>
     </g>
     <g id="text_11">
      <!-- 0.5 -->
      <g transform="translate(12.77277 57.995398125)scale(0.09996 -0.09996)">
       <use xlink:href="#WenQuanYiMicroHei-30"/>
       <use x="55.078125" xlink:href="#WenQuanYiMicroHei-2e"/>
       <use x="81.884765625" xlink:href="#WenQuanYiMicroHei-35"/>
      </g>
     </g>
    </g>
    <g id="ytick_5">
     <g id="line2d_28">
      <g>
       <use style="stroke:#000000;stroke-width:0.5;" x="29.430205" xlink:href="#m728421d6d4" y="12.1987809375"/>
      </g>
     </g>
     <g id="line2d_29">
      <g>
       <use style="stroke:#000000;stroke-width:0.5;" x="181.612023182" xlink:href="#mcb0005524f" y="12.1987809375"/>
      </g>
     </g>
     <g id="text_12">
      <!-- 1.0 -->
      <g transform="translate(13.07577375 14.795398125)scale(0.09996 -0.09996)">
       <use xlink:href="#WenQuanYiMicroHei-31"/>
       <use x="55.078125" xlink:href="#WenQuanYiMicroHei-2e"/>
       <use x="81.884765625" xlink:href="#WenQuanYiMicroHei-30"/>
      </g>
     </g>
    </g>
   </g>
  </g>
  <g id="axes_2">
   <g id="patch_7">
    <path d="
M212.048 184.999
L364.23 184.999
L364.23 12.1988
L212.048 12.1988
z
" style="fill:#ffffff;"/>
   </g>
   <g id="line2d_30">
    <path clip-path="url(#p662bd7e888)" d="
M212.048 12.1988
L213.586 12.1988
L215.123 12.1988
L216.66 12.1988
L218.197 12.1988
L219.734 12.1988
L221.272 12.1988
L222.809 12.1988
L224.346 12.1988
L225.883 12.1988
L227.42 12.1988
L228.957 12.1988
L230.495 12.1988
L232.032 12.1988
L233.569 12.1988
L235.106 12.1988
L236.643 12.1988
L238.181 12.1988
L239.718 12.1988
L241.255 12.1988
L242.792 12.1988
L244.329 12.1988
L245.867 12.1988
L247.404 12.1988
L248.941 12.1988
L250.478 12.1988
L252.015 12.1988
L253.553 12.1988
L255.09 12.1988
L256.627 12.1988
L258.164 12.1988
L259.701 12.1988
L261.238 12.1988
L262.776 12.1988
L264.313 12.1988
L265.85 12.1988
L267.387 12.1988
L268.924 12.1988
L270.462 12.1988
L271.999 12.1988
L273.536 12.1988
L275.073 12.1988
L276.61 12.1988
L278.148 12.1988
L279.685 12.1988
L281.222 12.1988
L282.759 12.1988
L284.296 12.1988
L285.834 12.1988
L287.371 12.1988
L288.908 12.1988
L290.445 12.1988
L291.982 12.1988
L293.519 12.1988
L295.057 12.1988
L296.594 12.1988
L298.131 12.1988
L299.668 12.1988
L301.205 12.1988
L302.743 12.1988
L304.28 12.1988
L305.817 12.1988
L307.354 12.1988
L308.891 12.1988
L310.429 12.1988
L311.966 12.1988
L313.503 12.1988
L315.04 12.1988
L316.577 12.1988
L318.115 12.1988
L319.652 12.1988
L321.189 12.1988
L322.726 12.1988
L324.263 12.1988
L325.8 12.1988
L327.338 12.1988
L328.875 12.1988
L330.412 12.1988
L331.949 12.1988
L333.486 12.1988
L335.024 12.1988
L336.561 12.1988
L338.098 12.1988
L339.635 12.1988
L341.172 12.1988
L342.71 12.1988
L344.247 12.1988
L345.784 12.1988
L347.321 12.1988
L348.858 12.1988
L350.395 12.1988
L351.933 12.1988
L353.47 12.1988
L355.007 12.1988
L356.544 12.1988
L358.081 12.1988
L359.619 12.1988
L361.156 12.1988
L362.693 12.1988
L364.23 12.1988" style="fill:none;stroke:#348abd;stroke-linecap:square;stroke-width:2.0;"/>
   </g>
   <g id="line2d_31">
    <path clip-path="url(#p662bd7e888)" d="
M212.048 12.1988
L213.586 12.2384
L215.123 12.3574
L216.66 12.5556
L218.197 12.8327
L219.734 13.1886
L221.272 13.623
L222.809 14.1353
L224.346 14.7252
L225.883 15.3921
L227.42 16.1355
L228.957 16.9545
L230.495 17.8485
L232.032 18.8167
L233.569 19.8581
L235.106 20.9718
L236.643 22.1568
L238.181 23.4119
L239.718 24.7362
L241.255 26.1282
L242.792 27.5868
L244.329 29.1105
L245.867 30.6981
L247.404 32.3481
L248.941 34.0588
L250.478 35.8288
L252.015 37.6565
L253.553 39.5401
L255.09 41.478
L256.627 43.4682
L258.164 45.5092
L259.701 47.5988
L261.238 49.7353
L262.776 51.9167
L264.313 54.1409
L265.85 56.4059
L267.387 58.7097
L268.924 61.0501
L270.462 63.425
L271.999 65.8322
L273.536 68.2694
L275.073 70.7346
L276.61 73.2253
L278.148 75.7393
L279.685 78.2743
L281.222 80.8279
L282.759 83.3979
L284.296 85.9818
L285.834 88.5773
L287.371 91.182
L288.908 93.7935
L290.445 96.4095
L291.982 99.0274
L293.519 101.645
L295.057 104.26
L296.594 106.869
L298.131 109.471
L299.668 112.063
L301.205 114.643
L302.743 117.208
L304.28 119.756
L305.817 122.284
L307.354 124.791
L308.891 127.273
L310.429 129.729
L311.966 132.157
L313.503 134.554
L315.04 136.918
L316.577 139.246
L318.115 141.538
L319.652 143.79
L321.189 146
L322.726 148.167
L324.263 150.288
L325.8 152.362
L327.338 154.387
L328.875 156.36
L330.412 158.28
L331.949 160.146
L333.486 161.955
L335.024 163.706
L336.561 165.397
L338.098 167.026
L339.635 168.593
L341.172 170.096
L342.71 171.533
L344.247 172.903
L345.784 174.204
L347.321 175.437
L348.858 176.598
L350.395 177.689
L351.933 178.706
L353.47 179.65
L355.007 180.52
L356.544 181.314
L358.081 182.032
L359.619 182.674
L361.156 183.239
L362.693 183.725
L364.23 184.134" style="fill:none;stroke:#a60628;stroke-linecap:square;stroke-width:2.0;"/>
   </g>
   <g id="line2d_32">
    <path clip-path="url(#p662bd7e888)" d="
M212.048 12.1988
L213.586 12.3574
L215.123 12.8327
L216.66 13.623
L218.197 14.7252
L219.734 16.1355
L221.272 17.8485
L222.809 19.8581
L224.346 22.1568
L225.883 24.7362
L227.42 27.5868
L228.957 30.6981
L230.495 34.0588
L232.032 37.6565
L233.569 41.478
L235.106 45.5092
L236.643 49.7353
L238.181 54.1409
L239.718 58.7097
L241.255 63.425
L242.792 68.2694
L244.329 73.2253
L245.867 78.2743
L247.404 83.3979
L248.941 88.5773
L250.478 93.7935
L252.015 99.0274
L253.553 104.26
L255.09 109.471
L256.627 114.643
L258.164 119.756
L259.701 124.791
L261.238 129.729
L262.776 134.554
L264.313 139.246
L265.85 143.79
L267.387 148.167
L268.924 152.362
L270.462 156.36
L271.999 160.146
L273.536 163.706
L275.073 167.026
L276.61 170.096
L278.148 172.903
L279.685 175.437
L281.222 177.689
L282.759 179.65
L284.296 181.314
L285.834 182.674
L287.371 183.725
L288.908 184.464
L290.445 184.888
L291.982 184.995
L293.519 184.784
L295.057 184.257
L296.594 183.415
L298.131 182.262
L299.668 180.802
L301.205 179.04
L302.743 176.983
L304.28 174.637
L305.817 172.013
L307.354 169.119
L308.891 165.966
L310.429 162.566
L311.966 158.93
L313.503 155.074
L315.04 151.009
L316.577 146.753
L318.115 142.319
L319.652 137.725
L321.189 132.988
L322.726 128.124
L324.263 123.152
L325.8 118.089
L327.338 112.955
L328.875 107.768
L330.412 102.548
L331.949 97.3129
L333.486 92.0827
L335.024 86.8764
L336.561 81.7131
L338.098 76.6119
L339.635 71.5914
L341.172 66.67
L342.71 61.8659
L344.247 57.1967
L345.784 52.6795
L347.321 48.331
L348.858 44.167
L350.395 40.2028
L351.933 36.4532
L353.47 32.9317
L355.007 29.6513
L356.544 26.6241
L358.081 23.8612
L359.619 21.3727
L361.156 19.1678
L362.693 17.2546
L364.23 15.6401" style="fill:none;stroke:#7a68a6;stroke-linecap:square;stroke-width:2.0;"/>
   </g>
   <g id="line2d_33">
    <path clip-path="url(#p662bd7e888)" d="
M212.048 12.1988
L213.586 12.5556
L215.123 13.623
L216.66 15.3921
L218.197 17.8485
L219.734 20.9718
L221.272 24.7362
L222.809 29.1105
L224.346 34.0588
L225.883 39.5401
L227.42 45.5092
L228.957 51.9167
L230.495 58.7097
L232.032 65.8322
L233.569 73.2253
L235.106 80.8279
L236.643 88.5773
L238.181 96.4095
L239.718 104.26
L241.255 112.063
L242.792 119.756
L244.329 127.273
L245.867 134.554
L247.404 141.538
L248.941 148.167
L250.478 154.387
L252.015 160.146
L253.553 165.397
L255.09 170.096
L256.627 174.204
L258.164 177.689
L259.701 180.52
L261.238 182.674
L262.776 184.134
L264.313 184.888
L265.85 184.929
L267.387 184.257
L268.924 182.878
L270.462 180.802
L271.999 178.048
L273.536 174.637
L275.073 170.599
L276.61 165.966
L278.148 160.777
L279.685 155.074
L281.222 148.904
L282.759 142.319
L284.296 135.374
L285.834 128.124
L287.371 120.63
L288.908 112.955
L290.445 105.161
L291.982 97.3129
L293.519 89.4753
L295.057 81.7131
L296.594 74.0904
L298.131 66.67
L299.668 59.5134
L301.205 52.6795
L302.743 46.2249
L304.28 40.2028
L305.817 34.6631
L307.354 29.6513
L308.891 25.209
L310.429 21.3727
L311.966 18.1743
L313.503 15.6401
L315.04 13.791
L316.577 12.6423
L318.115 12.2035
L319.652 12.4782
L321.189 13.4642
L322.726 15.1533
L324.263 17.5316
L325.8 20.5793
L327.338 24.2714
L328.875 28.5774
L330.412 33.4616
L331.949 38.8838
L333.486 44.7992
L335.024 51.1589
L336.561 57.9104
L338.098 64.9979
L339.635 72.3629
L341.172 79.9446
L342.71 87.6804
L344.247 95.5063
L345.784 103.358
L347.321 111.17
L348.858 118.878
L350.395 126.419
L351.933 133.73
L353.47 140.751
L355.007 147.424
L356.544 153.694
L358.081 159.508
L359.619 164.82
L361.156 169.584
L362.693 173.763
L364.23 177.32" style="fill:none;stroke:#467821;stroke-linecap:square;stroke-width:2.0;"/>
   </g>
   <g id="line2d_34">
    <path clip-path="url(#p662bd7e888)" d="
M212.048 12.1988
L213.586 12.8327
L215.123 14.7252
L216.66 17.8485
L218.197 22.1568
L219.734 27.5868
L221.272 34.0588
L222.809 41.478
L224.346 49.7353
L225.883 58.7097
L227.42 68.2694
L228.957 78.2743
L230.495 88.5773
L232.032 99.0274
L233.569 109.471
L235.106 119.756
L236.643 129.729
L238.181 139.246
L239.718 148.167
L241.255 156.36
L242.792 163.706
L244.329 170.096
L245.867 175.437
L247.404 179.65
L248.941 182.674
L250.478 184.464
L252.015 184.995
L253.553 184.257
L255.09 182.262
L256.627 179.04
L258.164 174.637
L259.701 169.119
L261.238 162.566
L262.776 155.074
L264.313 146.753
L265.85 137.725
L267.387 128.124
L268.924 118.089
L270.462 107.768
L271.999 97.3129
L273.536 86.8764
L275.073 76.6119
L276.61 66.67
L278.148 57.1967
L279.685 48.331
L281.222 40.2028
L282.759 32.9317
L284.296 26.6241
L285.834 21.3727
L287.371 17.2546
L288.908 14.3302
L290.445 12.6423
L291.982 12.2158
L293.519 13.0569
L295.057 15.1533
L296.594 18.4742
L298.131 22.9709
L299.668 28.5774
L301.205 35.2114
L302.743 42.7756
L304.28 51.1589
L305.817 60.2384
L307.354 69.8808
L308.891 79.9446
L310.429 90.2822
L311.966 100.742
L313.503 111.17
L315.04 121.414
L316.577 131.323
L318.115 140.751
L319.652 149.561
L321.189 157.624
L322.726 164.82
L324.263 171.044
L325.8 176.205
L327.338 180.228
L328.875 183.053
L330.412 184.638
L331.949 184.961
L333.486 184.016
L335.024 181.818
L336.561 178.399
L338.098 173.808
L339.635 168.115
L341.172 161.401
L342.71 153.765
L344.247 145.32
L345.784 136.189
L347.321 126.507
L348.858 116.415
L350.395 106.062
L351.933 95.5988
L353.47 85.18
L355.007 74.9582
L356.544 65.0832
L358.081 55.7
L359.619 46.9464
L361.156 38.9507
L362.693 31.8304
L364.23 25.6898" style="fill:none;stroke:#cf4457;stroke-linecap:square;stroke-width:2.0;"/>
   </g>
   <g id="patch_8">
    <path d="
M212.048 12.1988
L364.23 12.1988" style="fill:none;stroke:#000000;stroke-linecap:square;stroke-linejoin:miter;"/>
   </g>
   <g id="patch_9">
    <path d="
M364.23 184.999
L364.23 12.1988" style="fill:none;stroke:#000000;stroke-linecap:square;stroke-linejoin:miter;"/>
   </g>
   <g id="patch_10">
    <path d="
M212.048 184.999
L364.23 184.999" style="fill:none;stroke:#000000;stroke-linecap:square;stroke-linejoin:miter;"/>
   </g>
   <g id="patch_11">
    <path d="
M212.048 184.999
L212.048 12.1988" style="fill:none;stroke:#000000;stroke-linecap:square;stroke-linejoin:miter;"/>
   </g>
   <g id="matplotlib.axis_3">
    <g id="xtick_8">
     <g id="line2d_35">
      <g>
       <use style="stroke:#000000;stroke-width:0.5;" x="212.048386818" xlink:href="#m93b0483c22" y="184.998780938"/>
      </g>
     </g>
     <g id="line2d_36">
      <g>
       <use style="stroke:#000000;stroke-width:0.5;" x="212.048386818" xlink:href="#m741efc42ff" y="12.1987809375"/>
      </g>
     </g>
     <g id="text_13">
      <!-- 0.0 -->
      <g transform="translate(205.675936818 196.594179063)scale(0.09996 -0.09996)">
       <use xlink:href="#WenQuanYiMicroHei-30"/>
       <use x="55.078125" xlink:href="#WenQuanYiMicroHei-2e"/>
       <use x="81.884765625" xlink:href="#WenQuanYiMicroHei-30"/>
      </g>
     </g>
    </g>
    <g id="xtick_9">
     <g id="line2d_37">
      <g>
       <use style="stroke:#000000;stroke-width:0.5;" x="237.412023182" xlink:href="#m93b0483c22" y="184.998780938"/>
      </g>
     </g>
     <g id="line2d_38">
      <g>
       <use style="stroke:#000000;stroke-width:0.5;" x="237.412023182" xlink:href="#m741efc42ff" y="12.1987809375"/>
      </g>
     </g>
     <g id="text_14">
      <!-- 0.5 -->
      <g transform="translate(231.083305682 196.594179063)scale(0.09996 -0.09996)">
       <use xlink:href="#WenQuanYiMicroHei-30"/>
       <use x="55.078125" xlink:href="#WenQuanYiMicroHei-2e"/>
       <use x="81.884765625" xlink:href="#WenQuanYiMicroHei-35"/>
      </g>
     </g>
    </g>
    <g id="xtick_10">
     <g id="line2d_39">
      <g>
       <use style="stroke:#000000;stroke-width:0.5;" x="262.775659545" xlink:href="#m93b0483c22" y="184.998780938"/>
      </g>
     </g>
     <g id="line2d_40">
      <g>
       <use style="stroke:#000000;stroke-width:0.5;" x="262.775659545" xlink:href="#m741efc42ff" y="12.1987809375"/>
      </g>
     </g>
     <g id="text_15">
      <!-- 1.0 -->
      <g transform="translate(256.59844392 196.594179063)scale(0.09996 -0.09996)">
       <use xlink:href="#WenQuanYiMicroHei-31"/>
       <use x="55.078125" xlink:href="#WenQuanYiMicroHei-2e"/>
       <use x="81.884765625" xlink:href="#WenQuanYiMicroHei-30"/>
      </g>
     </g>
    </g>
    <g id="xtick_11">
     <g id="line2d_41">
      <g>
       <use style="stroke:#000000;stroke-width:0.5;" x="288.139295909" xlink:href="#m93b0483c22" y="184.998780938"/>
      </g>
     </g>
     <g id="line2d_42">
      <g>
       <use style="stroke:#000000;stroke-width:0.5;" x="288.139295909" xlink:href="#m741efc42ff" y="12.1987809375"/>
      </g>
     </g>
     <g id="text_16">
      <!-- 1.5 -->
      <g transform="translate(282.005812784 196.594179063)scale(0.09996 -0.09996)">
       <use xlink:href="#WenQuanYiMicroHei-31"/>
       <use x="55.078125" xlink:href="#WenQuanYiMicroHei-2e"/>
       <use x="81.884765625" xlink:href="#WenQuanYiMicroHei-35"/>
      </g>
     </g>
    </g>
    <g id="xtick_12">
     <g id="line2d_43">
      <g>
       <use style="stroke:#000000;stroke-width:0.5;" x="313.502932273" xlink:href="#m93b0483c22" y="184.998780938"/>
      </g>
     </g>
     <g id="line2d_44">
      <g>
       <use style="stroke:#000000;stroke-width:0.5;" x="313.502932273" xlink:href="#m741efc42ff" y="12.1987809375"/>
      </g>
     </g>
     <g id="text_17">
      <!-- 2.0 -->
      <g transform="translate(307.125796648 196.594179063)scale(0.09996 -0.09996)">
       <use xlink:href="#WenQuanYiMicroHei-32"/>
       <use x="55.078125" xlink:href="#WenQuanYiMicroHei-2e"/>
       <use x="81.884765625" xlink:href="#WenQuanYiMicroHei-30"/>
      </g>
     </g>
    </g>
    <g id="xtick_13">
     <g id="line2d_45">
      <g>
       <use style="stroke:#000000;stroke-width:0.5;" x="338.866568636" xlink:href="#m93b0483c22" y="184.998780938"/>
      </g>
     </g>
     <g id="line2d_46">
      <g>
       <use style="stroke:#000000;stroke-width:0.5;" x="338.866568636" xlink:href="#m741efc42ff" y="12.1987809375"/>
      </g>
     </g>
     <g id="text_18">
      <!-- 2.5 -->
      <g transform="translate(332.533165511 196.594179063)scale(0.09996 -0.09996)">
       <use xlink:href="#WenQuanYiMicroHei-32"/>
       <use x="55.078125" xlink:href="#WenQuanYiMicroHei-2e"/>
       <use x="81.884765625" xlink:href="#WenQuanYiMicroHei-35"/>
      </g>
     </g>
    </g>
    <g id="xtick_14">
     <g id="line2d_47">
      <g>
       <use style="stroke:#000000;stroke-width:0.5;" x="364.230205" xlink:href="#m93b0483c22" y="184.998780938"/>
      </g>
     </g>
     <g id="line2d_48">
      <g>
       <use style="stroke:#000000;stroke-width:0.5;" x="364.230205" xlink:href="#m741efc42ff" y="12.1987809375"/>
      </g>
     </g>
     <g id="text_19">
      <!-- 3.0 -->
      <g transform="translate(357.818708125 196.594179063)scale(0.09996 -0.09996)">
       <use xlink:href="#WenQuanYiMicroHei-33"/>
       <use x="55.078125" xlink:href="#WenQuanYiMicroHei-2e"/>
       <use x="81.884765625" xlink:href="#WenQuanYiMicroHei-30"/>
      </g>
     </g>
    </g>
   </g>
   <g id="matplotlib.axis_4">
    <g id="ytick_6">
     <g id="line2d_49">
      <g>
       <use style="stroke:#000000;stroke-width:0.5;" x="212.048386818" xlink:href="#m728421d6d4" y="184.998780937"/>
      </g>
     </g>
     <g id="line2d_50">
      <g>
       <use style="stroke:#000000;stroke-width:0.5;" x="364.230205" xlink:href="#mcb0005524f" y="184.998780937"/>
      </g>
     </g>
     <g id="text_20">
      <!-- −1.0 -->
      <g transform="translate(189.818181818 187.595398125)scale(0.09996 -0.09996)">
       <use xlink:href="#WenQuanYiMicroHei-2212"/>
       <use x="55.078125" xlink:href="#WenQuanYiMicroHei-31"/>
       <use x="110.15625" xlink:href="#WenQuanYiMicroHei-2e"/>
       <use x="136.962890625" xlink:href="#WenQuanYiMicroHei-30"/>
      </g>
     </g>
    </g>
    <g id="ytick_7">
     <g id="line2d_51">
      <g>
       <use style="stroke:#000000;stroke-width:0.5;" x="212.048386818" xlink:href="#m728421d6d4" y="141.798780938"/>
      </g>
     </g>
     <g id="line2d_52">
      <g>
       <use style="stroke:#000000;stroke-width:0.5;" x="364.230205" xlink:href="#mcb0005524f" y="141.798780938"/>
      </g>
     </g>
     <g id="text_21">
      <!-- −0.5 -->
      <g transform="translate(189.905646818 144.395398125)scale(0.09996 -0.09996)">
       <use xlink:href="#WenQuanYiMicroHei-2212"/>
       <use x="55.078125" xlink:href="#WenQuanYiMicroHei-30"/>
       <use x="110.15625" xlink:href="#WenQuanYiMicroHei-2e"/>
       <use x="136.962890625" xlink:href="#WenQuanYiMicroHei-35"/>
      </g>
     </g>
    </g>
    <g id="ytick_8">
     <g id="line2d_53">
      <g>
       <use style="stroke:#000000;stroke-width:0.5;" x="212.048386818" xlink:href="#m728421d6d4" y="98.5987809375"/>
      </g>
     </g>
     <g id="line2d_54">
      <g>
       <use style="stroke:#000000;stroke-width:0.5;" x="364.230205" xlink:href="#mcb0005524f" y="98.5987809375"/>
      </g>
     </g>
     <g id="text_22">
      <!-- 0.0 -->
      <g transform="translate(195.303486818 101.195398125)scale(0.09996 -0.09996)">
       <use xlink:href="#WenQuanYiMicroHei-30"/>
       <use x="55.078125" xlink:href="#WenQuanYiMicroHei-2e"/>
       <use x="81.884765625" xlink:href="#WenQuanYiMicroHei-30"/>
      </g>
     </g>
    </g>
    <g id="ytick_9">
     <g id="line2d_55">
      <g>
       <use style="stroke:#000000;stroke-width:0.5;" x="212.048386818" xlink:href="#m728421d6d4" y="55.3987809375"/>
      </g>
     </g>
     <g id="line2d_56">
      <g>
       <use style="stroke:#000000;stroke-width:0.5;" x="364.230205" xlink:href="#mcb0005524f" y="55.3987809375"/>
      </g>
     </g>
     <g id="text_23">
      <!-- 0.5 -->
      <g transform="translate(195.390951818 57.995398125)scale(0.09996 -0.09996)">
       <use xlink:href="#WenQuanYiMicroHei-30"/>
       <use x="55.078125" xlink:href="#WenQuanYiMicroHei-2e"/>
       <use x="81.884765625" xlink:href="#WenQuanYiMicroHei-35"/>
      </g>
     </g>
    </g>
    <g id="ytick_10">
     <g id="line2d_57">
      <g>
       <use style="stroke:#000000;stroke-width:0.5;" x="212.048386818" xlink:href="#m728421d6d4" y="12.1987809375"/>
      </g>
     </g>
     <g id="line2d_58">
      <g>
       <use style="stroke:#000000;stroke-width:0.5;" x="364.230205" xlink:href="#mcb0005524f" y="12.1987809375"/>
      </g>
     </g>
     <g id="text_24">
      <!-- 1.0 -->
      <g transform="translate(195.693955568 14.795398125)scale(0.09996 -0.09996)">
       <use xlink:href="#WenQuanYiMicroHei-31"/>
       <use x="55.078125" xlink:href="#WenQuanYiMicroHei-2e"/>
       <use x="81.884765625" xlink:href="#WenQuanYiMicroHei-30"/>
      </g>
     </g>
    </g>
   </g>
  </g>
 </g>
 <defs>
  <clipPath id="p3b03e82f41">
   <rect height="172.8" width="152.181818182" x="29.430205" y="12.1987809375"/>
  </clipPath>
  <clipPath id="p662bd7e888">
   <rect height="172.8" width="152.181818182" x="212.048386818" y="12.1987809375"/>
  </clipPath>
 </defs>
</svg>
