<?xml version="1.0" encoding="utf-8" standalone="no"?>
<!DOCTYPE svg PUBLIC "-//W3C//DTD SVG 1.1//EN"
  "http://www.w3.org/Graphics/SVG/1.1/DTD/svg11.dtd">
<!-- Created with matplotlib (http://matplotlib.org/) -->
<svg height="206pt" version="1.1" viewBox="0 0 370 206" width="370pt" xmlns="http://www.w3.org/2000/svg" xmlns:xlink="http://www.w3.org/1999/xlink">
 <defs>
  <style type="text/css">
*{stroke-linecap:butt;stroke-linejoin:round;}
  </style>
 </defs>
 <g id="figure_1">
  <g id="patch_1">
   <path d="
M0 206.196
L370.042 206.196
L370.042 0
L0 0
z
" style="fill:#ffffff;"/>
  </g>
  <g id="axes_1">
   <g id="patch_2">
    <path d="
M21.6302 184.999
L356.43 184.999
L356.43 12.1988
L21.6302 12.1988
z
" style="fill:#ffffff;"/>
   </g>
   <g id="line2d_1">
    <path clip-path="url(#p9819a559c5)" d="
M21.6302 182.119
L25.012 182.119
L28.3938 182.119
L31.7757 182.119
L35.1575 182.119
L38.5393 182.119
L41.9211 182.119
L45.3029 182.119
L48.6847 182.119
L52.0666 182.119
L55.4484 182.119
L58.8302 182.119
L62.212 182.119
L65.5938 182.119
L68.9757 182.119
L72.3575 182.119
L75.7393 182.119
L79.1211 182.119
L82.5029 182.119
L85.8847 182.119
L89.2666 182.119
L92.6484 182.119
L96.0302 182.119
L99.412 182.119
L102.794 182.119
L106.176 182.119
L109.557 182.119
L112.939 182.119
L116.321 182.119
L119.703 182.119
L123.085 182.119
L126.467 182.119
L129.848 182.119
L133.23 182.119
L136.612 182.119
L139.994 182.119
L143.376 182.119
L146.757 182.119
L150.139 182.119
L153.521 182.119
L156.903 182.119
L160.285 182.119
L163.667 182.119
L167.048 182.119
L170.43 182.119
L173.812 182.119
L177.194 182.119
L180.576 182.119
L183.957 182.119
L187.339 182.119
L190.721 182.119
L194.103 182.119
L197.485 182.119
L200.867 182.119
L204.248 182.119
L207.63 182.119
L211.012 182.119
L214.394 182.119
L217.776 182.119
L221.157 182.119
L224.539 182.119
L227.921 182.119
L231.303 182.119
L234.685 182.119
L238.067 182.119
L241.448 182.119
L244.83 182.119
L248.212 182.119
L251.594 182.119
L254.976 182.119
L258.357 182.119
L261.739 182.119
L265.121 182.119
L268.503 182.119
L271.885 182.119
L275.267 182.119
L278.648 182.119
L282.03 182.119
L285.412 182.119
L288.794 182.119
L292.176 182.119
L295.557 182.119
L298.939 182.119
L302.321 182.119
L305.703 182.119
L309.085 182.119
L312.467 182.119
L315.848 182.119
L319.23 182.119
L322.612 182.119
L325.994 182.119
L329.376 182.119
L332.757 182.119
L336.139 182.119
L339.521 182.119
L342.903 182.119
L346.285 182.119
L349.667 182.119
L353.048 182.119
L356.43 182.119" style="fill:none;stroke:#348abd;stroke-linecap:square;stroke-width:2.0;"/>
   </g>
   <g id="line2d_2">
    <path clip-path="url(#p9819a559c5)" d="
M21.6302 182.119
L25.012 182.09
L28.3938 182.06
L31.7757 182.03
L35.1575 182
L38.5393 181.97
L41.9211 181.939
L45.3029 181.908
L48.6847 181.876
L52.0666 181.845
L55.4484 181.813
L58.8302 181.78
L62.212 181.748
L65.5938 181.715
L68.9757 181.681
L72.3575 181.648
L75.7393 181.614
L79.1211 181.579
L82.5029 181.545
L85.8847 181.509
L89.2666 181.474
L92.6484 181.438
L96.0302 181.402
L99.412 181.366
L102.794 181.329
L106.176 181.291
L109.557 181.254
L112.939 181.216
L116.321 181.177
L119.703 181.139
L123.085 181.099
L126.467 181.06
L129.848 181.02
L133.23 180.979
L136.612 180.939
L139.994 180.897
L143.376 180.856
L146.757 180.814
L150.139 180.771
L153.521 180.728
L156.903 180.685
L160.285 180.641
L163.667 180.597
L167.048 180.552
L170.43 180.507
L173.812 180.461
L177.194 180.415
L180.576 180.369
L183.957 180.322
L187.339 180.274
L190.721 180.226
L194.103 180.178
L197.485 180.129
L200.867 180.08
L204.248 180.03
L207.63 179.979
L211.012 179.928
L214.394 179.877
L217.776 179.825
L221.157 179.772
L224.539 179.719
L227.921 179.666
L231.303 179.611
L234.685 179.557
L238.067 179.501
L241.448 179.446
L244.83 179.389
L248.212 179.332
L251.594 179.275
L254.976 179.217
L258.357 179.158
L261.739 179.099
L265.121 179.039
L268.503 178.978
L271.885 178.917
L275.267 178.855
L278.648 178.793
L282.03 178.73
L285.412 178.666
L288.794 178.602
L292.176 178.537
L295.557 178.472
L298.939 178.405
L302.321 178.338
L305.703 178.271
L309.085 178.202
L312.467 178.133
L315.848 178.064
L319.23 177.993
L322.612 177.922
L325.994 177.85
L329.376 177.778
L332.757 177.705
L336.139 177.631
L339.521 177.556
L342.903 177.48
L346.285 177.404
L349.667 177.327
L353.048 177.249
L356.43 177.17" style="fill:none;stroke:#a60628;stroke-linecap:square;stroke-width:2.0;"/>
   </g>
   <g id="line2d_3">
    <path clip-path="url(#p9819a559c5)" d="
M21.6302 182.119
L25.012 182.06
L28.3938 182
L31.7757 181.939
L35.1575 181.876
L38.5393 181.813
L41.9211 181.748
L45.3029 181.681
L48.6847 181.614
L52.0666 181.545
L55.4484 181.474
L58.8302 181.402
L62.212 181.329
L65.5938 181.254
L68.9757 181.177
L72.3575 181.099
L75.7393 181.02
L79.1211 180.939
L82.5029 180.856
L85.8847 180.771
L89.2666 180.685
L92.6484 180.597
L96.0302 180.507
L99.412 180.415
L102.794 180.322
L106.176 180.226
L109.557 180.129
L112.939 180.03
L116.321 179.928
L119.703 179.825
L123.085 179.719
L126.467 179.611
L129.848 179.501
L133.23 179.389
L136.612 179.275
L139.994 179.158
L143.376 179.039
L146.757 178.917
L150.139 178.793
L153.521 178.666
L156.903 178.537
L160.285 178.405
L163.667 178.271
L167.048 178.133
L170.43 177.993
L173.812 177.85
L177.194 177.705
L180.576 177.556
L183.957 177.404
L187.339 177.249
L190.721 177.091
L194.103 176.929
L197.485 176.765
L200.867 176.597
L204.248 176.425
L207.63 176.25
L211.012 176.072
L214.394 175.889
L217.776 175.703
L221.157 175.514
L224.539 175.32
L227.921 175.123
L231.303 174.921
L234.685 174.716
L238.067 174.506
L241.448 174.292
L244.83 174.073
L248.212 173.85
L251.594 173.623
L254.976 173.39
L258.357 173.153
L261.739 172.912
L265.121 172.665
L268.503 172.413
L271.885 172.157
L275.267 171.894
L278.648 171.627
L282.03 171.354
L285.412 171.076
L288.794 170.792
L292.176 170.502
L295.557 170.206
L298.939 169.904
L302.321 169.596
L305.703 169.282
L309.085 168.961
L312.467 168.633
L315.848 168.299
L319.23 167.959
L322.612 167.611
L325.994 167.256
L329.376 166.894
L332.757 166.525
L336.139 166.148
L339.521 165.763
L342.903 165.37
L346.285 164.97
L349.667 164.561
L353.048 164.144
L356.43 163.718" style="fill:none;stroke:#7a68a6;stroke-linecap:square;stroke-width:2.0;"/>
   </g>
   <g id="line2d_4">
    <path clip-path="url(#p9819a559c5)" d="
M21.6302 182.119
L25.012 182.03
L28.3938 181.939
L31.7757 181.845
L35.1575 181.748
L38.5393 181.648
L41.9211 181.545
L45.3029 181.438
L48.6847 181.329
L52.0666 181.216
L55.4484 181.099
L58.8302 180.979
L62.212 180.856
L65.5938 180.728
L68.9757 180.597
L72.3575 180.461
L75.7393 180.322
L79.1211 180.178
L82.5029 180.03
L85.8847 179.877
L89.2666 179.719
L92.6484 179.557
L96.0302 179.389
L99.412 179.217
L102.794 179.039
L106.176 178.855
L109.557 178.666
L112.939 178.472
L116.321 178.271
L119.703 178.064
L123.085 177.85
L126.467 177.631
L129.848 177.404
L133.23 177.17
L136.612 176.929
L139.994 176.681
L143.376 176.425
L146.757 176.161
L150.139 175.889
L153.521 175.609
L156.903 175.32
L160.285 175.022
L163.667 174.716
L167.048 174.399
L170.43 174.073
L173.812 173.737
L177.194 173.39
L180.576 173.033
L183.957 172.665
L187.339 172.286
L190.721 171.894
L194.103 171.491
L197.485 171.076
L200.867 170.647
L204.248 170.206
L207.63 169.751
L211.012 169.282
L214.394 168.798
L217.776 168.299
L221.157 167.786
L224.539 167.256
L227.921 166.71
L231.303 166.148
L234.685 165.568
L238.067 164.97
L241.448 164.353
L244.83 163.718
L248.212 163.064
L251.594 162.389
L254.976 161.693
L258.357 160.976
L261.739 160.237
L265.121 159.475
L268.503 158.69
L271.885 157.88
L275.267 157.046
L278.648 156.186
L282.03 155.299
L285.412 154.386
L288.794 153.444
L292.176 152.473
L295.557 151.472
L298.939 150.441
L302.321 149.378
L305.703 148.282
L309.085 147.152
L312.467 145.987
L315.848 144.787
L319.23 143.55
L322.612 142.275
L325.994 140.96
L329.376 139.605
L332.757 138.209
L336.139 136.769
L339.521 135.285
L342.903 133.756
L346.285 132.179
L349.667 130.554
L353.048 128.879
L356.43 127.152" style="fill:none;stroke:#467821;stroke-linecap:square;stroke-width:2.0;"/>
   </g>
   <g id="line2d_5">
    <path clip-path="url(#p9819a559c5)" d="
M21.6302 182.119
L25.012 182
L28.3938 181.876
L31.7757 181.748
L35.1575 181.614
L38.5393 181.474
L41.9211 181.329
L45.3029 181.177
L48.6847 181.02
L52.0666 180.856
L55.4484 180.685
L58.8302 180.507
L62.212 180.322
L65.5938 180.129
L68.9757 179.928
L72.3575 179.719
L75.7393 179.501
L79.1211 179.275
L82.5029 179.039
L85.8847 178.793
L89.2666 178.537
L92.6484 178.271
L96.0302 177.993
L99.412 177.705
L102.794 177.404
L106.176 177.091
L109.557 176.765
L112.939 176.425
L116.321 176.072
L119.703 175.703
L123.085 175.32
L126.467 174.921
L129.848 174.506
L133.23 174.073
L136.612 173.623
L139.994 173.153
L143.376 172.665
L146.757 172.157
L150.139 171.627
L153.521 171.076
L156.903 170.502
L160.285 169.904
L163.667 169.282
L167.048 168.633
L170.43 167.959
L173.812 167.256
L177.194 166.525
L180.576 165.763
L183.957 164.97
L187.339 164.144
L190.721 163.284
L194.103 162.389
L197.485 161.456
L200.867 160.486
L204.248 159.475
L207.63 158.423
L211.012 157.327
L214.394 156.186
L217.776 154.998
L221.157 153.761
L224.539 152.473
L227.921 151.132
L231.303 149.736
L234.685 148.282
L238.067 146.768
L241.448 145.191
L244.83 143.55
L248.212 141.841
L251.594 140.062
L254.976 138.209
L258.357 136.28
L261.739 134.271
L265.121 132.179
L268.503 130.001
L271.885 127.734
L275.267 125.373
L278.648 122.914
L282.03 120.354
L285.412 117.689
L288.794 114.914
L292.176 112.024
L295.557 109.015
L298.939 105.882
L302.321 102.62
L305.703 99.2236
L309.085 95.687
L312.467 92.0045
L315.848 88.1702
L319.23 84.1779
L322.612 80.0209
L325.994 75.6925
L329.376 71.1856
L332.757 66.493
L336.139 61.6068
L339.521 56.5192
L342.903 51.2218
L346.285 45.706
L349.667 39.9627
L353.048 33.9827
L356.43 27.7561" style="fill:none;stroke:#cf4457;stroke-linecap:square;stroke-width:2.0;"/>
   </g>
   <g id="patch_3">
    <path d="
M21.6302 12.1988
L356.43 12.1988" style="fill:none;stroke:#000000;stroke-linecap:square;stroke-linejoin:miter;"/>
   </g>
   <g id="patch_4">
    <path d="
M356.43 184.999
L356.43 12.1988" style="fill:none;stroke:#000000;stroke-linecap:square;stroke-linejoin:miter;"/>
   </g>
   <g id="patch_5">
    <path d="
M21.6302 184.999
L356.43 184.999" style="fill:none;stroke:#000000;stroke-linecap:square;stroke-linejoin:miter;"/>
   </g>
   <g id="patch_6">
    <path d="
M21.6302 184.999
L21.6302 12.1988" style="fill:none;stroke:#000000;stroke-linecap:square;stroke-linejoin:miter;"/>
   </g>
   <g id="matplotlib.axis_1">
    <g id="xtick_1">
     <g id="line2d_6">
      <defs>
       <path d="
M0 0
L0 -4" id="m93b0483c22" style="stroke:#000000;stroke-width:0.5;"/>
      </defs>
      <g>
       <use style="stroke:#000000;stroke-width:0.5;" x="21.63020125" xlink:href="#m93b0483c22" y="184.998780938"/>
      </g>
     </g>
     <g id="line2d_7">
      <defs>
       <path d="
M0 0
L0 4" id="m741efc42ff" style="stroke:#000000;stroke-width:0.5;"/>
      </defs>
      <g>
       <use style="stroke:#000000;stroke-width:0.5;" x="21.63020125" xlink:href="#m741efc42ff" y="12.1987809375"/>
      </g>
     </g>
     <g id="text_1">
      <!-- 0.0 -->
      <defs>
       <path d="
M50.3906 35.7969
Q50.3906 27.1562 49.1406 20.3125
Q47.9062 13.4844 45.1406 8.73438
Q42.3906 4 38.0312 1.5
Q33.6875 -0.984375 27.4844 -0.984375
Q21.7344 -0.984375 17.4531 1.5
Q13.1875 4 10.375 8.73438
Q7.5625 13.4844 6.17188 20.3125
Q4.78125 27.1562 4.78125 35.7969
Q4.78125 44.4375 6.03125 51.2656
Q7.28125 58.1094 9.98438 62.8125
Q12.7031 67.5312 17.0156 70.0156
Q21.3438 72.5156 27.4844 72.5156
Q33.2969 72.5156 37.5938 70.0469
Q41.8906 67.5781 44.7188 62.8594
Q47.5625 58.1562 48.9688 51.3125
Q50.3906 44.4844 50.3906 35.7969
M13.8125 35.7969
Q13.8125 28.4688 14.5469 23
Q15.2812 17.5312 16.8906 13.8906
Q18.5 10.25 21.1094 8.42188
Q23.7344 6.59375 27.4844 6.59375
Q31.25 6.59375 33.8906 8.39062
Q36.5312 10.2031 38.2031 13.8125
Q39.8906 17.4375 40.6406 22.9219
Q41.4062 28.4219 41.4062 35.7969
Q41.4062 43.1094 40.6406 48.5781
Q39.8906 54.0469 38.2031 57.6562
Q36.5312 61.2812 33.8906 63.0781
Q31.25 64.8906 27.4844 64.8906
Q23.7344 64.8906 21.1094 63.0781
Q18.5 61.2812 16.8906 57.6562
Q15.2812 54.0469 14.5469 48.5781
Q13.8125 43.1094 13.8125 35.7969" id="WenQuanYiMicroHei-30"/>
       <path d="
M7.17188 5.42188
Q7.17188 7.28125 7.65625 8.5625
Q8.15625 9.85938 8.98438 10.6562
Q9.8125 11.4688 10.9375 11.8281
Q12.0625 12.2031 13.375 12.2031
Q14.6562 12.2031 15.7969 11.8281
Q16.9375 11.4688 17.7656 10.6562
Q18.6094 9.85938 19.0938 8.5625
Q19.5781 7.28125 19.5781 5.42188
Q19.5781 3.60938 19.0938 2.3125
Q18.6094 1.03125 17.7656 0.1875
Q16.9375 -0.640625 15.7969 -1.03125
Q14.6562 -1.42188 13.375 -1.42188
Q12.0625 -1.42188 10.9375 -1.03125
Q9.8125 -0.640625 8.98438 0.1875
Q8.15625 1.03125 7.65625 2.3125
Q7.17188 3.60938 7.17188 5.42188" id="WenQuanYiMicroHei-2e"/>
      </defs>
      <g transform="translate(15.25775125 196.594179063)scale(0.09996 -0.09996)">
       <use xlink:href="#WenQuanYiMicroHei-30"/>
       <use x="55.078125" xlink:href="#WenQuanYiMicroHei-2e"/>
       <use x="81.884765625" xlink:href="#WenQuanYiMicroHei-30"/>
      </g>
     </g>
    </g>
    <g id="xtick_2">
     <g id="line2d_8">
      <g>
       <use style="stroke:#000000;stroke-width:0.5;" x="77.43020125" xlink:href="#m93b0483c22" y="184.998780938"/>
      </g>
     </g>
     <g id="line2d_9">
      <g>
       <use style="stroke:#000000;stroke-width:0.5;" x="77.43020125" xlink:href="#m741efc42ff" y="12.1987809375"/>
      </g>
     </g>
     <g id="text_2">
      <!-- 0.5 -->
      <defs>
       <path d="
M26.6094 43.7969
Q31.4531 43.7969 35.625 42.4531
Q39.7969 41.1094 42.8906 38.4688
Q46 35.8438 47.75 31.9375
Q49.5156 28.0312 49.5156 22.9062
Q49.5156 17.3281 47.8438 12.8906
Q46.1875 8.45312 42.9219 5.375
Q39.6562 2.29688 34.8438 0.65625
Q30.0312 -0.984375 23.7812 -0.984375
Q21.2969 -0.984375 18.875 -0.734375
Q16.4531 -0.484375 14.2344 -0.015625
Q12.0156 0.4375 10.0156 1.17188
Q8.01562 1.90625 6.39062 2.875
L6.39062 11.2812
Q8.01562 10.1562 10.1875 9.28125
Q12.3594 8.40625 14.75 7.8125
Q17.1406 7.23438 19.5469 6.90625
Q21.9688 6.59375 24.0312 6.59375
Q27.875 6.59375 30.9062 7.5
Q33.9375 8.40625 36.0312 10.2969
Q38.1406 12.2031 39.25 15.0781
Q40.375 17.9688 40.375 21.9219
Q40.375 28.9062 36.0781 32.5938
Q31.7812 36.2812 23.5781 36.2812
Q22.2656 36.2812 20.7188 36.1562
Q19.1875 36.0312 17.6406 35.8281
Q16.1094 35.6406 14.7188 35.4219
Q13.3281 35.2031 12.3125 35.0156
L7.90625 37.7969
L10.5938 71.3906
L44.2812 71.3906
L44.2812 63.2812
L18.3125 63.2812
L16.4062 42.8281
Q17.9688 43.1094 20.5312 43.4531
Q23.0938 43.7969 26.6094 43.7969" id="WenQuanYiMicroHei-35"/>
      </defs>
      <g transform="translate(71.10148375 196.594179063)scale(0.09996 -0.09996)">
       <use xlink:href="#WenQuanYiMicroHei-30"/>
       <use x="55.078125" xlink:href="#WenQuanYiMicroHei-2e"/>
       <use x="81.884765625" xlink:href="#WenQuanYiMicroHei-35"/>
      </g>
     </g>
    </g>
    <g id="xtick_3">
     <g id="line2d_10">
      <g>
       <use style="stroke:#000000;stroke-width:0.5;" x="133.23020125" xlink:href="#m93b0483c22" y="184.998780938"/>
      </g>
     </g>
     <g id="line2d_11">
      <g>
       <use style="stroke:#000000;stroke-width:0.5;" x="133.23020125" xlink:href="#m741efc42ff" y="12.1987809375"/>
      </g>
     </g>
     <g id="text_3">
      <!-- 1.0 -->
      <defs>
       <path d="
M34.7188 0
L26.125 0
L26.125 44.5781
Q26.125 46.6875 26.1406 49.0781
Q26.1719 51.4688 26.2344 53.8281
Q26.3125 56.2031 26.3906 58.375
Q26.4688 60.5469 26.5156 62.2031
Q25.6875 61.3281 25.0469 60.6875
Q24.4219 60.0625 23.75 59.4688
Q23.0938 58.8906 22.3594 58.2188
Q21.625 57.5625 20.6094 56.6875
L13.375 50.7812
L8.6875 56.7812
L27.3906 71.3906
L34.7188 71.3906
z
" id="WenQuanYiMicroHei-31"/>
      </defs>
      <g transform="translate(127.052985625 196.594179063)scale(0.09996 -0.09996)">
       <use xlink:href="#WenQuanYiMicroHei-31"/>
       <use x="55.078125" xlink:href="#WenQuanYiMicroHei-2e"/>
       <use x="81.884765625" xlink:href="#WenQuanYiMicroHei-30"/>
      </g>
     </g>
    </g>
    <g id="xtick_4">
     <g id="line2d_12">
      <g>
       <use style="stroke:#000000;stroke-width:0.5;" x="189.03020125" xlink:href="#m93b0483c22" y="184.998780938"/>
      </g>
     </g>
     <g id="line2d_13">
      <g>
       <use style="stroke:#000000;stroke-width:0.5;" x="189.03020125" xlink:href="#m741efc42ff" y="12.1987809375"/>
      </g>
     </g>
     <g id="text_4">
      <!-- 1.5 -->
      <g transform="translate(182.896718125 196.594179063)scale(0.09996 -0.09996)">
       <use xlink:href="#WenQuanYiMicroHei-31"/>
       <use x="55.078125" xlink:href="#WenQuanYiMicroHei-2e"/>
       <use x="81.884765625" xlink:href="#WenQuanYiMicroHei-35"/>
      </g>
     </g>
    </g>
    <g id="xtick_5">
     <g id="line2d_14">
      <g>
       <use style="stroke:#000000;stroke-width:0.5;" x="244.83020125" xlink:href="#m93b0483c22" y="184.998780938"/>
      </g>
     </g>
     <g id="line2d_15">
      <g>
       <use style="stroke:#000000;stroke-width:0.5;" x="244.83020125" xlink:href="#m741efc42ff" y="12.1987809375"/>
      </g>
     </g>
     <g id="text_5">
      <!-- 2.0 -->
      <defs>
       <path d="
M49.2188 0
L4.6875 0
L4.6875 7.625
L21.7812 26.2188
Q25.4375 30.1719 28.3125 33.4375
Q31.2031 36.7188 33.2188 39.8438
Q35.25 42.9688 36.3281 46.1094
Q37.4062 49.2656 37.4062 52.9844
Q37.4062 55.8594 36.5781 58.0469
Q35.75 60.25 34.2031 61.7812
Q32.6719 63.3281 30.5625 64.1094
Q28.4688 64.8906 25.875 64.8906
Q21.2344 64.8906 17.5 63.0156
Q13.7656 61.1406 10.4062 58.2031
L5.42188 64.0156
Q7.375 65.7656 9.60938 67.2969
Q11.8594 68.8438 14.4531 69.9688
Q17.0469 71.0938 19.9219 71.75
Q22.7969 72.4062 25.9844 72.4062
Q30.6719 72.4062 34.4531 71.0938
Q38.2344 69.7812 40.8594 67.3125
Q43.5 64.8438 44.9375 61.2969
Q46.3906 57.7656 46.3906 53.3281
Q46.3906 49.1719 45.0938 45.4062
Q43.7969 41.6562 41.5312 38.0156
Q39.2656 34.375 36.1094 30.7031
Q32.9531 27.0469 29.2969 23.0938
L15.5781 8.5
L15.5781 8.10938
L49.2188 8.10938
z
" id="WenQuanYiMicroHei-32"/>
      </defs>
      <g transform="translate(238.453065625 196.594179063)scale(0.09996 -0.09996)">
       <use xlink:href="#WenQuanYiMicroHei-32"/>
       <use x="55.078125" xlink:href="#WenQuanYiMicroHei-2e"/>
       <use x="81.884765625" xlink:href="#WenQuanYiMicroHei-30"/>
      </g>
     </g>
    </g>
    <g id="xtick_6">
     <g id="line2d_16">
      <g>
       <use style="stroke:#000000;stroke-width:0.5;" x="300.63020125" xlink:href="#m93b0483c22" y="184.998780938"/>
      </g>
     </g>
     <g id="line2d_17">
      <g>
       <use style="stroke:#000000;stroke-width:0.5;" x="300.63020125" xlink:href="#m741efc42ff" y="12.1987809375"/>
      </g>
     </g>
     <g id="text_6">
      <!-- 2.5 -->
      <g transform="translate(294.296798125 196.594179063)scale(0.09996 -0.09996)">
       <use xlink:href="#WenQuanYiMicroHei-32"/>
       <use x="55.078125" xlink:href="#WenQuanYiMicroHei-2e"/>
       <use x="81.884765625" xlink:href="#WenQuanYiMicroHei-35"/>
      </g>
     </g>
    </g>
    <g id="xtick_7">
     <g id="line2d_18">
      <g>
       <use style="stroke:#000000;stroke-width:0.5;" x="356.43020125" xlink:href="#m93b0483c22" y="184.998780938"/>
      </g>
     </g>
     <g id="line2d_19">
      <g>
       <use style="stroke:#000000;stroke-width:0.5;" x="356.43020125" xlink:href="#m741efc42ff" y="12.1987809375"/>
      </g>
     </g>
     <g id="text_7">
      <!-- 3.0 -->
      <defs>
       <path d="
M46.9219 54.6875
Q46.9219 51.125 45.7969 48.1875
Q44.6719 45.2656 42.6406 43.1094
Q40.625 40.9688 37.7969 39.5781
Q34.9688 38.1875 31.5 37.5938
L31.5 37.3125
Q40.1406 36.2344 44.625 31.8125
Q49.125 27.3906 49.125 20.3125
Q49.125 15.625 47.5312 11.7188
Q45.9531 7.8125 42.7188 4.98438
Q39.5 2.15625 34.5625 0.578125
Q29.6406 -0.984375 22.9062 -0.984375
Q17.5781 -0.984375 12.8594 -0.140625
Q8.15625 0.6875 4 2.875
L4 11.1875
Q8.25 8.9375 13.2031 7.71875
Q18.1719 6.5 22.7031 6.5
Q27.2031 6.5 30.4688 7.46875
Q33.7344 8.45312 35.8594 10.25
Q37.9844 12.0625 38.9844 14.6875
Q39.9844 17.3281 39.9844 20.6094
Q39.9844 23.9219 38.6875 26.2812
Q37.4062 28.6562 35.0156 30.1875
Q32.625 31.7344 29.1719 32.4688
Q25.7344 33.2031 21.3906 33.2031
L14.8906 33.2031
L14.8906 40.5781
L21.3906 40.5781
Q25.3438 40.5781 28.4219 41.5469
Q31.5 42.5312 33.5625 44.3281
Q35.6406 46.1406 36.7188 48.625
Q37.7969 51.125 37.7969 54.1094
Q37.7969 56.6406 36.9062 58.6406
Q36.0312 60.6406 34.4219 62.0312
Q32.8125 63.4219 30.5625 64.1562
Q28.3281 64.8906 25.5938 64.8906
Q20.3594 64.8906 16.375 63.25
Q12.4062 61.625 8.79688 58.9844
L4.29688 65.0938
Q6.15625 66.6094 8.42188 67.9219
Q10.6875 69.2344 13.375 70.2344
Q16.0625 71.2344 19.1094 71.8125
Q22.1719 72.4062 25.5938 72.4062
Q30.8594 72.4062 34.8281 71.0938
Q38.8125 69.7812 41.5 67.4062
Q44.1875 65.0469 45.5469 61.7969
Q46.9219 58.5469 46.9219 54.6875" id="WenQuanYiMicroHei-33"/>
      </defs>
      <g transform="translate(350.018704375 196.594179063)scale(0.09996 -0.09996)">
       <use xlink:href="#WenQuanYiMicroHei-33"/>
       <use x="55.078125" xlink:href="#WenQuanYiMicroHei-2e"/>
       <use x="81.884765625" xlink:href="#WenQuanYiMicroHei-30"/>
      </g>
     </g>
    </g>
   </g>
   <g id="matplotlib.axis_2">
    <g id="ytick_1">
     <g id="line2d_20">
      <defs>
       <path d="
M0 0
L4 0" id="m728421d6d4" style="stroke:#000000;stroke-width:0.5;"/>
      </defs>
      <g>
       <use style="stroke:#000000;stroke-width:0.5;" x="21.63020125" xlink:href="#m728421d6d4" y="184.998780938"/>
      </g>
     </g>
     <g id="line2d_21">
      <defs>
       <path d="
M0 0
L-4 0" id="mcb0005524f" style="stroke:#000000;stroke-width:0.5;"/>
      </defs>
      <g>
       <use style="stroke:#000000;stroke-width:0.5;" x="356.43020125" xlink:href="#mcb0005524f" y="184.998780938"/>
      </g>
     </g>
     <g id="text_8">
      <!-- 0 -->
      <g transform="translate(13.071088125 187.595398125)scale(0.09996 -0.09996)">
       <use xlink:href="#WenQuanYiMicroHei-30"/>
      </g>
     </g>
    </g>
    <g id="ytick_2">
     <g id="line2d_22">
      <g>
       <use style="stroke:#000000;stroke-width:0.5;" x="21.63020125" xlink:href="#m728421d6d4" y="156.198780938"/>
      </g>
     </g>
     <g id="line2d_23">
      <g>
       <use style="stroke:#000000;stroke-width:0.5;" x="356.43020125" xlink:href="#mcb0005524f" y="156.198780938"/>
      </g>
     </g>
     <g id="text_9">
      <!-- 10 -->
      <g transform="translate(7.9559475 158.795398125)scale(0.09996 -0.09996)">
       <use xlink:href="#WenQuanYiMicroHei-31"/>
       <use x="55.078125" xlink:href="#WenQuanYiMicroHei-30"/>
      </g>
     </g>
    </g>
    <g id="ytick_3">
     <g id="line2d_24">
      <g>
       <use style="stroke:#000000;stroke-width:0.5;" x="21.63020125" xlink:href="#m728421d6d4" y="127.398780938"/>
      </g>
     </g>
     <g id="line2d_25">
      <g>
       <use style="stroke:#000000;stroke-width:0.5;" x="356.43020125" xlink:href="#mcb0005524f" y="127.398780938"/>
      </g>
     </g>
     <g id="text_10">
      <!-- 20 -->
      <g transform="translate(7.5561075 129.995398125)scale(0.09996 -0.09996)">
       <use xlink:href="#WenQuanYiMicroHei-32"/>
       <use x="55.078125" xlink:href="#WenQuanYiMicroHei-30"/>
      </g>
     </g>
    </g>
    <g id="ytick_4">
     <g id="line2d_26">
      <g>
       <use style="stroke:#000000;stroke-width:0.5;" x="21.63020125" xlink:href="#m728421d6d4" y="98.5987809375"/>
      </g>
     </g>
     <g id="line2d_27">
      <g>
       <use style="stroke:#000000;stroke-width:0.5;" x="356.43020125" xlink:href="#mcb0005524f" y="98.5987809375"/>
      </g>
     </g>
     <g id="text_11">
      <!-- 30 -->
      <g transform="translate(7.487385 101.195398125)scale(0.09996 -0.09996)">
       <use xlink:href="#WenQuanYiMicroHei-33"/>
       <use x="55.078125" xlink:href="#WenQuanYiMicroHei-30"/>
      </g>
     </g>
    </g>
    <g id="ytick_5">
     <g id="line2d_28">
      <g>
       <use style="stroke:#000000;stroke-width:0.5;" x="21.63020125" xlink:href="#m728421d6d4" y="69.7987809375"/>
      </g>
     </g>
     <g id="line2d_29">
      <g>
       <use style="stroke:#000000;stroke-width:0.5;" x="356.43020125" xlink:href="#mcb0005524f" y="69.7987809375"/>
      </g>
     </g>
     <g id="text_12">
      <!-- 40 -->
      <defs>
       <path d="
M53.0781 16.0156
L42.6719 16.0156
L42.6719 0
L34.0781 0
L34.0781 16.0156
L1.125 16.0156
L1.125 23.7812
L33.5 71.7812
L42.6719 71.7812
L42.6719 24.125
L53.0781 24.125
z

M34.0781 24.125
L34.0781 41.5
Q34.0781 44.2344 34.1562 47.2344
Q34.2344 50.25 34.3281 53.0938
Q34.4219 55.9531 34.5469 58.4375
Q34.6719 60.9375 34.7188 62.5938
L34.2812 62.5938
Q33.9375 61.625 33.4219 60.4219
Q32.9062 59.2344 32.2969 58.0312
Q31.6875 56.8438 31.0469 55.7188
Q30.4219 54.5938 29.8906 53.8125
L9.8125 24.125
z
" id="WenQuanYiMicroHei-34"/>
      </defs>
      <g transform="translate(7.2 72.395398125)scale(0.09996 -0.09996)">
       <use xlink:href="#WenQuanYiMicroHei-34"/>
       <use x="55.078125" xlink:href="#WenQuanYiMicroHei-30"/>
      </g>
     </g>
    </g>
    <g id="ytick_6">
     <g id="line2d_30">
      <g>
       <use style="stroke:#000000;stroke-width:0.5;" x="21.63020125" xlink:href="#m728421d6d4" y="40.9987809375"/>
      </g>
     </g>
     <g id="line2d_31">
      <g>
       <use style="stroke:#000000;stroke-width:0.5;" x="356.43020125" xlink:href="#mcb0005524f" y="40.9987809375"/>
      </g>
     </g>
     <g id="text_13">
      <!-- 50 -->
      <g transform="translate(7.726351875 43.595398125)scale(0.09996 -0.09996)">
       <use xlink:href="#WenQuanYiMicroHei-35"/>
       <use x="55.078125" xlink:href="#WenQuanYiMicroHei-30"/>
      </g>
     </g>
    </g>
    <g id="ytick_7">
     <g id="line2d_32">
      <g>
       <use style="stroke:#000000;stroke-width:0.5;" x="21.63020125" xlink:href="#m728421d6d4" y="12.1987809375"/>
      </g>
     </g>
     <g id="line2d_33">
      <g>
       <use style="stroke:#000000;stroke-width:0.5;" x="356.43020125" xlink:href="#mcb0005524f" y="12.1987809375"/>
      </g>
     </g>
     <g id="text_14">
      <!-- 60 -->
      <defs>
       <path d="
M5.51562 30.5156
Q5.51562 35.6406 6.03125 40.7188
Q6.54688 45.7969 7.82812 50.4531
Q9.125 55.125 11.375 59.125
Q13.625 63.1406 17.0938 66.0938
Q20.5625 69.0469 25.3906 70.7188
Q30.2188 72.4062 36.7188 72.4062
Q37.6406 72.4062 38.7656 72.3594
Q39.8906 72.3125 41.0312 72.1875
Q42.1875 72.0781 43.2344 71.9062
Q44.2812 71.7344 45.125 71.4844
L45.125 63.9219
Q43.4062 64.5 41.25 64.7969
Q39.1094 65.0938 37.0156 65.0938
Q32.625 65.0938 29.2656 64.0312
Q25.9219 62.9844 23.4844 61.0781
Q21.0469 59.1875 19.4062 56.5469
Q17.7812 53.9062 16.75 50.7031
Q15.7188 47.5156 15.2344 43.8906
Q14.75 40.2812 14.5938 36.375
L15.1875 36.375
Q16.1562 38.1406 17.5469 39.6719
Q18.9531 41.2188 20.7969 42.3125
Q22.6562 43.4062 24.9688 44.0312
Q27.2969 44.6719 30.1719 44.6719
Q34.8125 44.6719 38.5625 43.2344
Q42.3281 41.7969 44.9688 39.0156
Q47.6094 36.2344 49.0469 32.2031
Q50.4844 28.1719 50.4844 23
Q50.4844 17.4375 48.9688 12.9844
Q47.4688 8.54688 44.625 5.4375
Q41.7969 2.34375 37.7969 0.671875
Q33.7969 -0.984375 28.8125 -0.984375
Q23.9219 -0.984375 19.6406 0.921875
Q15.375 2.82812 12.25 6.73438
Q9.125 10.6406 7.3125 16.5469
Q5.51562 22.4688 5.51562 30.5156
M28.7188 6.5
Q31.6406 6.5 34.0469 7.5
Q36.4688 8.5 38.2188 10.5156
Q39.9844 12.5469 40.9375 15.6406
Q41.8906 18.75 41.8906 23
Q41.8906 26.4219 41.0781 29.125
Q40.2812 31.8438 38.6719 33.7344
Q37.0625 35.6406 34.6406 36.6719
Q32.2344 37.7031 29 37.7031
Q25.7344 37.7031 23.0156 36.5469
Q20.3125 35.4062 18.4062 33.5625
Q16.5 31.7344 15.4531 29.3906
Q14.4062 27.0469 14.4062 24.7031
Q14.4062 21.4375 15.3125 18.1875
Q16.2188 14.9375 18 12.3438
Q19.7812 9.76562 22.4531 8.125
Q25.1406 6.5 28.7188 6.5" id="WenQuanYiMicroHei-36"/>
      </defs>
      <g transform="translate(7.638886875 14.795398125)scale(0.09996 -0.09996)">
       <use xlink:href="#WenQuanYiMicroHei-36"/>
       <use x="55.078125" xlink:href="#WenQuanYiMicroHei-30"/>
      </g>
     </g>
    </g>
   </g>
  </g>
 </g>
 <defs>
  <clipPath id="p9819a559c5">
   <rect height="172.8" width="334.8" x="21.63020125" y="12.1987809375"/>
  </clipPath>
 </defs>
</svg>
