<?xml version="1.0" encoding="utf-8" standalone="no"?>
<!DOCTYPE svg PUBLIC "-//W3C//DTD SVG 1.1//EN"
  "http://www.w3.org/Graphics/SVG/1.1/DTD/svg11.dtd">
<!-- Created with matplotlib (http://matplotlib.org/) -->
<svg height="206pt" version="1.1" viewBox="0 0 469 206" width="469pt" xmlns="http://www.w3.org/2000/svg" xmlns:xlink="http://www.w3.org/1999/xlink">
 <defs>
  <style type="text/css">
*{stroke-linecap:butt;stroke-linejoin:round;}
  </style>
 </defs>
 <g id="figure_1">
  <g id="patch_1">
   <path d="
M0 206.196
L469.993 206.196
L469.993 0
L0 0
z
" style="fill:#ffffff;"/>
  </g>
  <g id="axes_1">
   <g id="patch_2">
    <path d="
M16.3932 184.999
L219.302 184.999
L219.302 12.1988
L16.3932 12.1988
z
" style="fill:#ffffff;"/>
   </g>
   <g id="line2d_1">
    <defs>
     <path d="
M0 3
C0.795609 3 1.55874 2.6839 2.12132 2.12132
C2.6839 1.55874 3 0.795609 3 0
C3 -0.795609 2.6839 -1.55874 2.12132 -2.12132
C1.55874 -2.6839 0.795609 -3 0 -3
C-0.795609 -3 -1.55874 -2.6839 -2.12132 -2.12132
C-2.6839 -1.55874 -3 -0.795609 -3 0
C-3 0.795609 -2.6839 1.55874 -2.12132 2.12132
C-1.55874 2.6839 -0.795609 3 0 3
z
" id="m8c6fd4390b" style="stroke:#000000;stroke-width:0.5;"/>
    </defs>
    <g clip-path="url(#pf6851d6795)">
     <use style="fill:#348abd;stroke:#000000;stroke-width:0.5;" x="33.3023252841" xlink:href="#m8c6fd4390b" y="170.598780937"/>
    </g>
   </g>
   <g id="line2d_2">
    <defs>
     <path d="
M0 3
C0.795609 3 1.55874 2.6839 2.12132 2.12132
C2.6839 1.55874 3 0.795609 3 0
C3 -0.795609 2.6839 -1.55874 2.12132 -2.12132
C1.55874 -2.6839 0.795609 -3 0 -3
C-0.795609 -3 -1.55874 -2.6839 -2.12132 -2.12132
C-2.6839 -1.55874 -3 -0.795609 -3 0
C-3 0.795609 -2.6839 1.55874 -2.12132 2.12132
C-1.55874 2.6839 -0.795609 3 0 3
z
" id="m21c3f7e587" style="stroke:#000000;stroke-width:0.5;"/>
    </defs>
    <g clip-path="url(#pf6851d6795)">
     <use style="fill:#a60628;stroke:#000000;stroke-width:0.5;" x="89.6659616477" xlink:href="#m21c3f7e587" y="122.598780937"/>
    </g>
   </g>
   <g id="line2d_3">
    <defs>
     <path d="
M0 3
C0.795609 3 1.55874 2.6839 2.12132 2.12132
C2.6839 1.55874 3 0.795609 3 0
C3 -0.795609 2.6839 -1.55874 2.12132 -2.12132
C1.55874 -2.6839 0.795609 -3 0 -3
C-0.795609 -3 -1.55874 -2.6839 -2.12132 -2.12132
C-2.6839 -1.55874 -3 -0.795609 -3 0
C-3 0.795609 -2.6839 1.55874 -2.12132 2.12132
C-1.55874 2.6839 -0.795609 3 0 3
z
" id="me26ab07df5" style="stroke:#000000;stroke-width:0.5;"/>
    </defs>
    <g clip-path="url(#pf6851d6795)">
     <use style="fill:#7a68a6;stroke:#000000;stroke-width:0.5;" x="146.029598011" xlink:href="#me26ab07df5" y="74.5987809375"/>
    </g>
   </g>
   <g id="line2d_4">
    <defs>
     <path d="
M0 3
C0.795609 3 1.55874 2.6839 2.12132 2.12132
C2.6839 1.55874 3 0.795609 3 0
C3 -0.795609 2.6839 -1.55874 2.12132 -2.12132
C1.55874 -2.6839 0.795609 -3 0 -3
C-0.795609 -3 -1.55874 -2.6839 -2.12132 -2.12132
C-2.6839 -1.55874 -3 -0.795609 -3 0
C-3 0.795609 -2.6839 1.55874 -2.12132 2.12132
C-1.55874 2.6839 -0.795609 3 0 3
z
" id="m6501654331" style="stroke:#000000;stroke-width:0.5;"/>
    </defs>
    <g clip-path="url(#pf6851d6795)">
     <use style="fill:#467821;stroke:#000000;stroke-width:0.5;" x="202.393234375" xlink:href="#m6501654331" y="26.5987809375"/>
    </g>
   </g>
   <g id="line2d_5">
    <defs>
     <path d="
M3 5.51091e-16
L-3 -3
L-3 3
z
" id="m112c25961c" style="stroke:#000000;stroke-linejoin:miter;stroke-width:0.5;"/>
    </defs>
    <g clip-path="url(#pf6851d6795)">
     <use style="fill:#cf4457;stroke:#000000;stroke-linejoin:miter;stroke-width:0.5;" x="168.575052557" xlink:href="#m112c25961c" y="170.598780937"/>
    </g>
   </g>
   <g id="matplotlib.axis_1">
    <g id="xtick_1">
     <g id="line2d_6">
      <defs>
       <path d="
M0 0
L0 -4" id="m93b0483c22" style="stroke:#000000;stroke-width:0.5;"/>
      </defs>
      <g>
       <use style="stroke:#000000;stroke-width:0.5;" x="33.3023252841" xlink:href="#m93b0483c22" y="184.998780937"/>
      </g>
     </g>
     <g id="line2d_7">
      <defs>
       <path d="
M0 0
L0 4" id="m741efc42ff" style="stroke:#000000;stroke-width:0.5;"/>
      </defs>
      <g>
       <use style="stroke:#000000;stroke-width:0.5;" x="33.3023252841" xlink:href="#m741efc42ff" y="12.1987809375"/>
      </g>
     </g>
     <g id="text_1">
      <!-- 0 -->
      <defs>
       <path d="
M50.3906 35.7969
Q50.3906 27.1562 49.1406 20.3125
Q47.9062 13.4844 45.1406 8.73438
Q42.3906 4 38.0312 1.5
Q33.6875 -0.984375 27.4844 -0.984375
Q21.7344 -0.984375 17.4531 1.5
Q13.1875 4 10.375 8.73438
Q7.5625 13.4844 6.17188 20.3125
Q4.78125 27.1562 4.78125 35.7969
Q4.78125 44.4375 6.03125 51.2656
Q7.28125 58.1094 9.98438 62.8125
Q12.7031 67.5312 17.0156 70.0156
Q21.3438 72.5156 27.4844 72.5156
Q33.2969 72.5156 37.5938 70.0469
Q41.8906 67.5781 44.7188 62.8594
Q47.5625 58.1562 48.9688 51.3125
Q50.3906 44.4844 50.3906 35.7969
M13.8125 35.7969
Q13.8125 28.4688 14.5469 23
Q15.2812 17.5312 16.8906 13.8906
Q18.5 10.25 21.1094 8.42188
Q23.7344 6.59375 27.4844 6.59375
Q31.25 6.59375 33.8906 8.39062
Q36.5312 10.2031 38.2031 13.8125
Q39.8906 17.4375 40.6406 22.9219
Q41.4062 28.4219 41.4062 35.7969
Q41.4062 43.1094 40.6406 48.5781
Q39.8906 54.0469 38.2031 57.6562
Q36.5312 61.2812 33.8906 63.0781
Q31.25 64.8906 27.4844 64.8906
Q23.7344 64.8906 21.1094 63.0781
Q18.5 61.2812 16.8906 57.6562
Q15.2812 54.0469 14.5469 48.5781
Q13.8125 43.1094 13.8125 35.7969" id="WenQuanYiMicroHei-30"/>
      </defs>
      <g transform="translate(31.0227687216 196.594179062)scale(0.09996 -0.09996)">
       <use xlink:href="#WenQuanYiMicroHei-30"/>
      </g>
     </g>
    </g>
    <g id="xtick_2">
     <g id="line2d_8">
      <g>
       <use style="stroke:#000000;stroke-width:0.5;" x="67.1205071023" xlink:href="#m93b0483c22" y="184.998780937"/>
      </g>
     </g>
     <g id="line2d_9">
      <g>
       <use style="stroke:#000000;stroke-width:0.5;" x="67.1205071023" xlink:href="#m741efc42ff" y="12.1987809375"/>
      </g>
     </g>
     <g id="text_2">
      <!-- 1 -->
      <defs>
       <path d="
M34.7188 0
L26.125 0
L26.125 44.5781
Q26.125 46.6875 26.1406 49.0781
Q26.1719 51.4688 26.2344 53.8281
Q26.3125 56.2031 26.3906 58.375
Q26.4688 60.5469 26.5156 62.2031
Q25.6875 61.3281 25.0469 60.6875
Q24.4219 60.0625 23.75 59.4688
Q23.0938 58.8906 22.3594 58.2188
Q21.625 57.5625 20.6094 56.6875
L13.375 50.7812
L8.6875 56.7812
L27.3906 71.3906
L34.7188 71.3906
z
" id="WenQuanYiMicroHei-31"/>
      </defs>
      <g transform="translate(65.8194652273 196.594179062)scale(0.09996 -0.09996)">
       <use xlink:href="#WenQuanYiMicroHei-31"/>
      </g>
     </g>
    </g>
    <g id="xtick_3">
     <g id="line2d_10">
      <g>
       <use style="stroke:#000000;stroke-width:0.5;" x="100.93868892" xlink:href="#m93b0483c22" y="184.998780937"/>
      </g>
     </g>
     <g id="line2d_11">
      <g>
       <use style="stroke:#000000;stroke-width:0.5;" x="100.93868892" xlink:href="#m741efc42ff" y="12.1987809375"/>
      </g>
     </g>
     <g id="text_3">
      <!-- 2 -->
      <defs>
       <path d="
M49.2188 0
L4.6875 0
L4.6875 7.625
L21.7812 26.2188
Q25.4375 30.1719 28.3125 33.4375
Q31.2031 36.7188 33.2188 39.8438
Q35.25 42.9688 36.3281 46.1094
Q37.4062 49.2656 37.4062 52.9844
Q37.4062 55.8594 36.5781 58.0469
Q35.75 60.25 34.2031 61.7812
Q32.6719 63.3281 30.5625 64.1094
Q28.4688 64.8906 25.875 64.8906
Q21.2344 64.8906 17.5 63.0156
Q13.7656 61.1406 10.4062 58.2031
L5.42188 64.0156
Q7.375 65.7656 9.60938 67.2969
Q11.8594 68.8438 14.4531 69.9688
Q17.0469 71.0938 19.9219 71.75
Q22.7969 72.4062 25.9844 72.4062
Q30.6719 72.4062 34.4531 71.0938
Q38.2344 69.7812 40.8594 67.3125
Q43.5 64.8438 44.9375 61.2969
Q46.3906 57.7656 46.3906 53.3281
Q46.3906 49.1719 45.0938 45.4062
Q43.7969 41.6562 41.5312 38.0156
Q39.2656 34.375 36.1094 30.7031
Q32.9531 27.0469 29.2969 23.0938
L15.5781 8.5
L15.5781 8.10938
L49.2188 8.10938
z
" id="WenQuanYiMicroHei-32"/>
      </defs>
      <g transform="translate(98.7130170455 196.594179062)scale(0.09996 -0.09996)">
       <use xlink:href="#WenQuanYiMicroHei-32"/>
      </g>
     </g>
    </g>
    <g id="xtick_4">
     <g id="line2d_12">
      <g>
       <use style="stroke:#000000;stroke-width:0.5;" x="134.756870739" xlink:href="#m93b0483c22" y="184.998780937"/>
      </g>
     </g>
     <g id="line2d_13">
      <g>
       <use style="stroke:#000000;stroke-width:0.5;" x="134.756870739" xlink:href="#m741efc42ff" y="12.1987809375"/>
      </g>
     </g>
     <g id="text_4">
      <!-- 3 -->
      <defs>
       <path d="
M46.9219 54.6875
Q46.9219 51.125 45.7969 48.1875
Q44.6719 45.2656 42.6406 43.1094
Q40.625 40.9688 37.7969 39.5781
Q34.9688 38.1875 31.5 37.5938
L31.5 37.3125
Q40.1406 36.2344 44.625 31.8125
Q49.125 27.3906 49.125 20.3125
Q49.125 15.625 47.5312 11.7188
Q45.9531 7.8125 42.7188 4.98438
Q39.5 2.15625 34.5625 0.578125
Q29.6406 -0.984375 22.9062 -0.984375
Q17.5781 -0.984375 12.8594 -0.140625
Q8.15625 0.6875 4 2.875
L4 11.1875
Q8.25 8.9375 13.2031 7.71875
Q18.1719 6.5 22.7031 6.5
Q27.2031 6.5 30.4688 7.46875
Q33.7344 8.45312 35.8594 10.25
Q37.9844 12.0625 38.9844 14.6875
Q39.9844 17.3281 39.9844 20.6094
Q39.9844 23.9219 38.6875 26.2812
Q37.4062 28.6562 35.0156 30.1875
Q32.625 31.7344 29.1719 32.4688
Q25.7344 33.2031 21.3906 33.2031
L14.8906 33.2031
L14.8906 40.5781
L21.3906 40.5781
Q25.3438 40.5781 28.4219 41.5469
Q31.5 42.5312 33.5625 44.3281
Q35.6406 46.1406 36.7188 48.625
Q37.7969 51.125 37.7969 54.1094
Q37.7969 56.6406 36.9062 58.6406
Q36.0312 60.6406 34.4219 62.0312
Q32.8125 63.4219 30.5625 64.1562
Q28.3281 64.8906 25.5938 64.8906
Q20.3594 64.8906 16.375 63.25
Q12.4062 61.625 8.79688 58.9844
L4.29688 65.0938
Q6.15625 66.6094 8.42188 67.9219
Q10.6875 69.2344 13.375 70.2344
Q16.0625 71.2344 19.1094 71.8125
Q22.1719 72.4062 25.5938 72.4062
Q30.8594 72.4062 34.8281 71.0938
Q38.8125 69.7812 41.5 67.4062
Q44.1875 65.0469 45.5469 61.7969
Q46.9219 58.5469 46.9219 54.6875" id="WenQuanYiMicroHei-33"/>
      </defs>
      <g transform="translate(132.501523239 196.594179062)scale(0.09996 -0.09996)">
       <use xlink:href="#WenQuanYiMicroHei-33"/>
      </g>
     </g>
    </g>
    <g id="xtick_5">
     <g id="line2d_14">
      <g>
       <use style="stroke:#000000;stroke-width:0.5;" x="168.575052557" xlink:href="#m93b0483c22" y="184.998780937"/>
      </g>
     </g>
     <g id="line2d_15">
      <g>
       <use style="stroke:#000000;stroke-width:0.5;" x="168.575052557" xlink:href="#m741efc42ff" y="12.1987809375"/>
      </g>
     </g>
     <g id="text_5">
      <!-- 4 -->
      <defs>
       <path d="
M53.0781 16.0156
L42.6719 16.0156
L42.6719 0
L34.0781 0
L34.0781 16.0156
L1.125 16.0156
L1.125 23.7812
L33.5 71.7812
L42.6719 71.7812
L42.6719 24.125
L53.0781 24.125
z

M34.0781 24.125
L34.0781 41.5
Q34.0781 44.2344 34.1562 47.2344
Q34.2344 50.25 34.3281 53.0938
Q34.4219 55.9531 34.5469 58.4375
Q34.6719 60.9375 34.7188 62.5938
L34.2812 62.5938
Q33.9375 61.625 33.4219 60.4219
Q32.9062 59.2344 32.2969 58.0312
Q31.6875 56.8438 31.0469 55.7188
Q30.4219 54.5938 29.8906 53.8125
L9.8125 24.125
z
" id="WenQuanYiMicroHei-34"/>
      </defs>
      <g transform="translate(165.978435369 196.594179062)scale(0.09996 -0.09996)">
       <use xlink:href="#WenQuanYiMicroHei-34"/>
      </g>
     </g>
    </g>
    <g id="xtick_6">
     <g id="line2d_16">
      <g>
       <use style="stroke:#000000;stroke-width:0.5;" x="202.393234375" xlink:href="#m93b0483c22" y="184.998780937"/>
      </g>
     </g>
     <g id="line2d_17">
      <g>
       <use style="stroke:#000000;stroke-width:0.5;" x="202.393234375" xlink:href="#m741efc42ff" y="12.1987809375"/>
      </g>
     </g>
     <g id="text_6">
      <!-- 5 -->
      <defs>
       <path d="
M26.6094 43.7969
Q31.4531 43.7969 35.625 42.4531
Q39.7969 41.1094 42.8906 38.4688
Q46 35.8438 47.75 31.9375
Q49.5156 28.0312 49.5156 22.9062
Q49.5156 17.3281 47.8438 12.8906
Q46.1875 8.45312 42.9219 5.375
Q39.6562 2.29688 34.8438 0.65625
Q30.0312 -0.984375 23.7812 -0.984375
Q21.2969 -0.984375 18.875 -0.734375
Q16.4531 -0.484375 14.2344 -0.015625
Q12.0156 0.4375 10.0156 1.17188
Q8.01562 1.90625 6.39062 2.875
L6.39062 11.2812
Q8.01562 10.1562 10.1875 9.28125
Q12.3594 8.40625 14.75 7.8125
Q17.1406 7.23438 19.5469 6.90625
Q21.9688 6.59375 24.0312 6.59375
Q27.875 6.59375 30.9062 7.5
Q33.9375 8.40625 36.0312 10.2969
Q38.1406 12.2031 39.25 15.0781
Q40.375 17.9688 40.375 21.9219
Q40.375 28.9062 36.0781 32.5938
Q31.7812 36.2812 23.5781 36.2812
Q22.2656 36.2812 20.7188 36.1562
Q19.1875 36.0312 17.6406 35.8281
Q16.1094 35.6406 14.7188 35.4219
Q13.3281 35.2031 12.3125 35.0156
L7.90625 37.7969
L10.5938 71.3906
L44.2812 71.3906
L44.2812 63.2812
L18.3125 63.2812
L16.4062 42.8281
Q17.9688 43.1094 20.5312 43.4531
Q23.0938 43.7969 26.6094 43.7969" id="WenQuanYiMicroHei-35"/>
      </defs>
      <g transform="translate(200.237846875 196.594179062)scale(0.09996 -0.09996)">
       <use xlink:href="#WenQuanYiMicroHei-35"/>
      </g>
     </g>
    </g>
   </g>
   <g id="matplotlib.axis_2">
    <g id="ytick_1">
     <g id="line2d_18">
      <defs>
       <path d="
M0 0
L4 0" id="m728421d6d4" style="stroke:#000000;stroke-width:0.5;"/>
      </defs>
      <g>
       <use style="stroke:#000000;stroke-width:0.5;" x="16.393234375" xlink:href="#m728421d6d4" y="170.598780937"/>
      </g>
     </g>
     <g id="line2d_19">
      <defs>
       <path d="
M0 0
L-4 0" id="mcb0005524f" style="stroke:#000000;stroke-width:0.5;"/>
      </defs>
      <g>
       <use style="stroke:#000000;stroke-width:0.5;" x="219.302325284" xlink:href="#mcb0005524f" y="170.598780937"/>
      </g>
     </g>
     <g id="text_7">
      <!-- 3 -->
      <g transform="translate(7.882539375 173.195398125)scale(0.09996 -0.09996)">
       <use xlink:href="#WenQuanYiMicroHei-33"/>
      </g>
     </g>
    </g>
    <g id="ytick_2">
     <g id="line2d_20">
      <g>
       <use style="stroke:#000000;stroke-width:0.5;" x="16.393234375" xlink:href="#m728421d6d4" y="146.598780937"/>
      </g>
     </g>
     <g id="line2d_21">
      <g>
       <use style="stroke:#000000;stroke-width:0.5;" x="219.302325284" xlink:href="#mcb0005524f" y="146.598780937"/>
      </g>
     </g>
     <g id="text_8">
      <!-- 4 -->
      <g transform="translate(7.2 149.195398125)scale(0.09996 -0.09996)">
       <use xlink:href="#WenQuanYiMicroHei-34"/>
      </g>
     </g>
    </g>
    <g id="ytick_3">
     <g id="line2d_22">
      <g>
       <use style="stroke:#000000;stroke-width:0.5;" x="16.393234375" xlink:href="#m728421d6d4" y="122.598780937"/>
      </g>
     </g>
     <g id="line2d_23">
      <g>
       <use style="stroke:#000000;stroke-width:0.5;" x="219.302325284" xlink:href="#mcb0005524f" y="122.598780937"/>
      </g>
     </g>
     <g id="text_9">
      <!-- 5 -->
      <g transform="translate(8.082459375 125.195398125)scale(0.09996 -0.09996)">
       <use xlink:href="#WenQuanYiMicroHei-35"/>
      </g>
     </g>
    </g>
    <g id="ytick_4">
     <g id="line2d_24">
      <g>
       <use style="stroke:#000000;stroke-width:0.5;" x="16.393234375" xlink:href="#m728421d6d4" y="98.5987809375"/>
      </g>
     </g>
     <g id="line2d_25">
      <g>
       <use style="stroke:#000000;stroke-width:0.5;" x="219.302325284" xlink:href="#mcb0005524f" y="98.5987809375"/>
      </g>
     </g>
     <g id="text_10">
      <!-- 6 -->
      <defs>
       <path d="
M5.51562 30.5156
Q5.51562 35.6406 6.03125 40.7188
Q6.54688 45.7969 7.82812 50.4531
Q9.125 55.125 11.375 59.125
Q13.625 63.1406 17.0938 66.0938
Q20.5625 69.0469 25.3906 70.7188
Q30.2188 72.4062 36.7188 72.4062
Q37.6406 72.4062 38.7656 72.3594
Q39.8906 72.3125 41.0312 72.1875
Q42.1875 72.0781 43.2344 71.9062
Q44.2812 71.7344 45.125 71.4844
L45.125 63.9219
Q43.4062 64.5 41.25 64.7969
Q39.1094 65.0938 37.0156 65.0938
Q32.625 65.0938 29.2656 64.0312
Q25.9219 62.9844 23.4844 61.0781
Q21.0469 59.1875 19.4062 56.5469
Q17.7812 53.9062 16.75 50.7031
Q15.7188 47.5156 15.2344 43.8906
Q14.75 40.2812 14.5938 36.375
L15.1875 36.375
Q16.1562 38.1406 17.5469 39.6719
Q18.9531 41.2188 20.7969 42.3125
Q22.6562 43.4062 24.9688 44.0312
Q27.2969 44.6719 30.1719 44.6719
Q34.8125 44.6719 38.5625 43.2344
Q42.3281 41.7969 44.9688 39.0156
Q47.6094 36.2344 49.0469 32.2031
Q50.4844 28.1719 50.4844 23
Q50.4844 17.4375 48.9688 12.9844
Q47.4688 8.54688 44.625 5.4375
Q41.7969 2.34375 37.7969 0.671875
Q33.7969 -0.984375 28.8125 -0.984375
Q23.9219 -0.984375 19.6406 0.921875
Q15.375 2.82812 12.25 6.73438
Q9.125 10.6406 7.3125 16.5469
Q5.51562 22.4688 5.51562 30.5156
M28.7188 6.5
Q31.6406 6.5 34.0469 7.5
Q36.4688 8.5 38.2188 10.5156
Q39.9844 12.5469 40.9375 15.6406
Q41.8906 18.75 41.8906 23
Q41.8906 26.4219 41.0781 29.125
Q40.2812 31.8438 38.6719 33.7344
Q37.0625 35.6406 34.6406 36.6719
Q32.2344 37.7031 29 37.7031
Q25.7344 37.7031 23.0156 36.5469
Q20.3125 35.4062 18.4062 33.5625
Q16.5 31.7344 15.4531 29.3906
Q14.4062 27.0469 14.4062 24.7031
Q14.4062 21.4375 15.3125 18.1875
Q16.2188 14.9375 18 12.3438
Q19.7812 9.76562 22.4531 8.125
Q25.1406 6.5 28.7188 6.5" id="WenQuanYiMicroHei-36"/>
      </defs>
      <g transform="translate(7.898158125 101.195398125)scale(0.09996 -0.09996)">
       <use xlink:href="#WenQuanYiMicroHei-36"/>
      </g>
     </g>
    </g>
    <g id="ytick_5">
     <g id="line2d_26">
      <g>
       <use style="stroke:#000000;stroke-width:0.5;" x="16.393234375" xlink:href="#m728421d6d4" y="74.5987809375"/>
      </g>
     </g>
     <g id="line2d_27">
      <g>
       <use style="stroke:#000000;stroke-width:0.5;" x="219.302325284" xlink:href="#mcb0005524f" y="74.5987809375"/>
      </g>
     </g>
     <g id="text_11">
      <!-- 7 -->
      <defs>
       <path d="
M13.7188 0
L41.2188 63.2812
L4.39062 63.2812
L4.39062 71.3906
L50.2969 71.3906
L50.2969 64.3125
L23.1875 0
z
" id="WenQuanYiMicroHei-37"/>
      </defs>
      <g transform="translate(7.804445625 77.195398125)scale(0.09996 -0.09996)">
       <use xlink:href="#WenQuanYiMicroHei-37"/>
      </g>
     </g>
    </g>
    <g id="ytick_6">
     <g id="line2d_28">
      <g>
       <use style="stroke:#000000;stroke-width:0.5;" x="16.393234375" xlink:href="#m728421d6d4" y="50.5987809375"/>
      </g>
     </g>
     <g id="line2d_29">
      <g>
       <use style="stroke:#000000;stroke-width:0.5;" x="219.302325284" xlink:href="#mcb0005524f" y="50.5987809375"/>
      </g>
     </g>
     <g id="text_12">
      <!-- 8 -->
      <defs>
       <path d="
M27.5938 72.5156
Q31.6875 72.5156 35.3281 71.4375
Q38.9688 70.3594 41.7188 68.2031
Q44.4844 66.0625 46.0938 62.8438
Q47.7031 59.625 47.7031 55.3281
Q47.7031 52.0469 46.7188 49.4062
Q45.75 46.7812 44.0312 44.6562
Q42.3281 42.5312 39.9844 40.8438
Q37.6406 39.1562 34.9062 37.7969
Q37.75 36.2812 40.4531 34.4219
Q43.1719 32.5625 45.2812 30.25
Q47.4062 27.9375 48.7031 25.0469
Q50 22.1719 50 18.6094
Q50 14.1094 48.3594 10.4688
Q46.7344 6.84375 43.7812 4.29688
Q40.8281 1.76562 36.6875 0.390625
Q32.5625 -0.984375 27.5938 -0.984375
Q22.2188 -0.984375 18.0469 0.328125
Q13.875 1.65625 11.0156 4.125
Q8.15625 6.59375 6.65625 10.1562
Q5.17188 13.7188 5.17188 18.2188
Q5.17188 21.875 6.26562 24.7969
Q7.375 27.7344 9.21875 30.0781
Q11.0781 32.4219 13.6094 34.2188
Q16.1562 36.0312 19 37.4062
Q16.6094 38.9219 14.5 40.7031
Q12.4062 42.4844 10.8594 44.6719
Q9.32812 46.875 8.42188 49.5312
Q7.51562 52.2031 7.51562 55.4219
Q7.51562 59.6719 9.15625 62.8594
Q10.7969 66.0625 13.5781 68.2031
Q16.3594 70.3594 20 71.4375
Q23.6406 72.5156 27.5938 72.5156
M13.9219 18.1094
Q13.9219 15.5312 14.7031 13.3594
Q15.4844 11.1875 17.1406 9.64062
Q18.7969 8.10938 21.3281 7.25
Q23.875 6.39062 27.3906 6.39062
Q30.8125 6.39062 33.4219 7.25
Q36.0312 8.10938 37.7812 9.6875
Q39.5469 11.2812 40.4219 13.5156
Q41.3125 15.7656 41.3125 18.5
Q41.3125 21.0469 40.3594 23.0938
Q39.4062 25.1406 37.625 26.8906
Q35.8438 28.6562 33.3438 30.2188
Q30.8594 31.7812 27.7812 33.2969
L26.3125 33.9844
Q20.1719 31.0625 17.0469 27.2656
Q13.9219 23.4844 13.9219 18.1094
M27.4844 65.0938
Q22.3125 65.0938 19.2656 62.5
Q16.2188 59.9062 16.2188 54.9844
Q16.2188 52.2031 17.0625 50.1875
Q17.9219 48.1875 19.4375 46.625
Q20.9531 45.0625 23.0781 43.8125
Q25.2031 42.5781 27.6875 41.4062
Q30.0312 42.4844 32.1094 43.75
Q34.1875 45.0156 35.7188 46.625
Q37.25 48.25 38.125 50.2969
Q39.0156 52.3438 39.0156 54.9844
Q39.0156 59.9062 35.9375 62.5
Q32.8594 65.0938 27.4844 65.0938" id="WenQuanYiMicroHei-38"/>
      </defs>
      <g transform="translate(7.912215 53.195398125)scale(0.09996 -0.09996)">
       <use xlink:href="#WenQuanYiMicroHei-38"/>
      </g>
     </g>
    </g>
    <g id="ytick_7">
     <g id="line2d_30">
      <g>
       <use style="stroke:#000000;stroke-width:0.5;" x="16.393234375" xlink:href="#m728421d6d4" y="26.5987809375"/>
      </g>
     </g>
     <g id="line2d_31">
      <g>
       <use style="stroke:#000000;stroke-width:0.5;" x="219.302325284" xlink:href="#mcb0005524f" y="26.5987809375"/>
      </g>
     </g>
     <g id="text_13">
      <!-- 9 -->
      <defs>
       <path d="
M50.2031 40.9219
Q50.2031 35.7969 49.6875 30.6875
Q49.1719 25.5938 47.875 20.9531
Q46.5781 16.3125 44.3281 12.2812
Q42.0938 8.25 38.625 5.3125
Q35.1562 2.39062 30.3125 0.703125
Q25.4844 -0.984375 19 -0.984375
Q18.0625 -0.984375 16.9375 -0.921875
Q15.8281 -0.875 14.7031 -0.75
Q13.5781 -0.640625 12.5 -0.484375
Q11.4219 -0.34375 10.5938 -0.09375
L10.5938 7.51562
Q12.3125 6.89062 14.4531 6.59375
Q16.6094 6.29688 18.7031 6.29688
Q25.2969 6.29688 29.5469 8.59375
Q33.7969 10.8906 36.2812 14.8125
Q38.7656 18.75 39.8125 23.9688
Q40.875 29.2031 41.1094 35.0156
L40.4844 35.0156
Q39.5 33.25 38.125 31.7344
Q36.7656 30.2188 34.9062 29.0938
Q33.0625 27.9844 30.7188 27.3438
Q28.375 26.7031 25.4844 26.7031
Q20.8438 26.7031 17.0781 28.1406
Q13.3281 29.5938 10.6875 32.375
Q8.0625 35.1562 6.60938 39.1875
Q5.17188 43.2188 5.17188 48.3906
Q5.17188 53.9531 6.70312 58.4219
Q8.25 62.8906 11.0625 65.9844
Q13.875 69.0938 17.8906 70.75
Q21.9219 72.4062 26.9062 72.4062
Q31.8438 72.4062 36.0781 70.5
Q40.3281 68.6094 43.4531 64.7031
Q46.5781 60.7969 48.3906 54.8594
Q50.2031 48.9219 50.2031 40.9219
M27 64.8906
Q24.0781 64.8906 21.6562 63.9062
Q19.2344 62.9375 17.4688 60.8906
Q15.7188 58.8438 14.7656 55.7344
Q13.8125 52.6406 13.8125 48.3906
Q13.8125 44.9688 14.625 42.25
Q15.4375 39.5469 17.0469 37.6406
Q18.6562 35.75 21.0625 34.7188
Q23.4844 33.6875 26.7031 33.6875
Q30.0312 33.6875 32.7188 34.8281
Q35.4062 35.9844 37.2969 37.8125
Q39.2031 39.6562 40.25 42
Q41.3125 44.3438 41.3125 46.6875
Q41.3125 49.9531 40.4062 53.2031
Q39.5 56.4531 37.7188 59.0625
Q35.9375 61.6719 33.25 63.2812
Q30.5625 64.8906 27 64.8906" id="WenQuanYiMicroHei-39"/>
      </defs>
      <g transform="translate(7.891910625 29.195398125)scale(0.09996 -0.09996)">
       <use xlink:href="#WenQuanYiMicroHei-39"/>
      </g>
     </g>
    </g>
   </g>
   <g id="patch_3">
    <path d="
M16.3932 12.1988
L219.302 12.1988" style="fill:none;stroke:#000000;"/>
   </g>
   <g id="patch_4">
    <path d="
M219.302 184.999
L219.302 12.1988" style="fill:none;stroke:#000000;"/>
   </g>
   <g id="patch_5">
    <path d="
M16.3932 184.999
L219.302 184.999" style="fill:none;stroke:#000000;"/>
   </g>
   <g id="patch_6">
    <path d="
M16.3932 184.999
L16.3932 12.1988" style="fill:none;stroke:#000000;"/>
   </g>
  </g>
  <g id="axes_2">
   <g id="patch_7">
    <path d="
M259.884 184.999
L462.793 184.999
L462.793 12.1988
L259.884 12.1988
z
" style="fill:#ffffff;"/>
   </g>
   <g id="line2d_32">
    <path clip-path="url(#pdf424e8872)" d="
M259.884 127.399
L261.934 126.485
L263.983 125.572
L266.033 124.661
L268.082 123.753
L270.132 122.848
L272.182 121.948
L274.231 121.054
L276.281 120.166
L278.33 119.285
L280.38 118.412
L282.43 117.549
L284.479 116.695
L286.529 115.852
L288.578 115.021
L290.628 114.202
L292.678 113.396
L294.727 112.605
L296.777 111.828
L298.826 111.067
L300.876 110.323
L302.925 109.596
L304.975 108.886
L307.025 108.196
L309.074 107.525
L311.124 106.873
L313.173 106.243
L315.223 105.633
L317.273 105.046
L319.322 104.481
L321.372 103.939
L323.421 103.421
L325.471 102.927
L327.521 102.457
L329.57 102.013
L331.62 101.594
L333.669 101.201
L335.719 100.835
L337.768 100.495
L339.818 100.183
L341.868 99.8976
L343.917 99.6401
L345.967 99.4106
L348.016 99.2093
L350.066 99.0363
L352.116 98.8919
L354.165 98.7762
L356.215 98.6894
L358.264 98.6314
L360.314 98.6024
L362.363 98.6024
L364.413 98.6314
L366.463 98.6894
L368.512 98.7762
L370.562 98.8919
L372.611 99.0363
L374.661 99.2093
L376.711 99.4106
L378.76 99.6401
L380.81 99.8976
L382.859 100.183
L384.909 100.495
L386.959 100.835
L389.008 101.201
L391.058 101.594
L393.107 102.013
L395.157 102.457
L397.206 102.927
L399.256 103.421
L401.306 103.939
L403.355 104.481
L405.405 105.046
L407.454 105.633
L409.504 106.243
L411.554 106.873
L413.603 107.525
L415.653 108.196
L417.702 108.886
L419.752 109.596
L421.801 110.323
L423.851 111.067
L425.901 111.828
L427.95 112.605
L430 113.396
L432.049 114.202
L434.099 115.021
L436.149 115.852
L438.198 116.695
L440.248 117.549
L442.297 118.412
L444.347 119.285
L446.397 120.166
L448.446 121.054
L450.496 121.948
L452.545 122.848
L454.595 123.753
L456.644 124.661
L458.694 125.572
L460.744 126.485
L462.793 127.399" style="fill:none;stroke:#348abd;stroke-linecap:square;stroke-width:2.0;"/>
   </g>
   <g id="line2d_33">
    <path clip-path="url(#pdf424e8872)" d="
M259.884 111.399
L261.934 109.884
L263.983 108.387
L266.033 106.909
L268.082 105.451
L270.132 104.016
L272.182 102.604
L274.231 101.217
L276.281 99.8565
L278.33 98.5237
L280.38 97.22
L282.43 95.9467
L284.479 94.7051
L286.529 93.4964
L288.578 92.3218
L290.628 91.1825
L292.678 90.0797
L294.727 89.0145
L296.777 87.988
L298.826 87.0011
L300.876 86.0549
L302.925 85.1503
L304.975 84.2883
L307.025 83.4696
L309.074 82.6952
L311.124 81.9659
L313.173 81.2822
L315.223 80.645
L317.273 80.0549
L319.322 79.5125
L321.372 79.0182
L323.421 78.5727
L325.471 78.1764
L327.521 77.8296
L329.57 77.5327
L331.62 77.286
L333.669 77.0898
L335.719 76.9443
L337.768 76.8495
L339.818 76.8057
L341.868 76.8127
L343.917 76.8708
L345.967 76.9797
L348.016 77.1394
L350.066 77.3496
L352.116 77.6103
L354.165 77.9211
L356.215 78.2818
L358.264 78.6918
L360.314 79.151
L362.363 79.6587
L364.413 80.2145
L366.463 80.8178
L368.512 81.4679
L370.562 82.1644
L372.611 82.9064
L374.661 83.6932
L376.711 84.524
L378.76 85.3979
L380.81 86.3142
L382.859 87.2718
L384.909 88.2699
L386.959 89.3073
L389.008 90.3831
L391.058 91.4961
L393.107 92.6454
L395.157 93.8296
L397.206 95.0476
L399.256 96.2981
L401.306 97.58
L403.355 98.892
L405.405 100.233
L407.454 101.601
L409.504 102.995
L411.554 104.413
L413.603 105.855
L415.653 107.318
L417.702 108.802
L419.752 110.304
L421.801 111.824
L423.851 113.359
L425.901 114.908
L427.95 116.47
L430 118.043
L432.049 119.625
L434.099 121.215
L436.149 122.812
L438.198 124.413
L440.248 126.017
L442.297 127.622
L444.347 129.228
L446.397 130.831
L448.446 132.431
L450.496 134.026
L452.545 135.614
L454.595 137.194
L456.644 138.764
L458.694 140.322
L460.744 141.868
L462.793 143.399" style="fill:none;stroke:#a60628;stroke-linecap:square;stroke-width:2.0;"/>
   </g>
   <g id="line2d_34">
    <path clip-path="url(#pdf424e8872)" d="
M259.884 95.3988
L261.934 93.2828
L263.983 91.2011
L266.033 89.1559
L268.082 87.1492
L270.132 85.183
L272.182 83.2594
L274.231 81.3802
L276.281 79.5473
L278.33 77.7626
L280.38 76.0279
L282.43 74.3449
L284.479 72.7153
L286.529 71.1408
L288.578 69.6229
L290.628 68.1632
L292.678 66.7632
L294.727 65.4242
L296.777 64.1476
L298.826 62.9347
L300.876 61.7867
L302.925 60.7048
L304.975 59.69
L307.025 58.7434
L309.074 57.866
L311.124 57.0585
L313.173 56.3219
L315.223 55.6569
L317.273 55.0641
L319.322 54.5441
L321.372 54.0975
L323.421 53.7246
L325.471 53.426
L327.521 53.2019
L329.57 53.0524
L331.62 52.9779
L333.669 52.9782
L335.719 53.0535
L337.768 53.2037
L339.818 53.4286
L341.868 53.7279
L343.917 54.1014
L345.967 54.5488
L348.016 55.0694
L350.066 55.663
L352.116 56.3287
L354.165 57.066
L356.215 57.8741
L358.264 58.7523
L360.314 59.6995
L362.363 60.715
L364.413 61.7975
L366.463 62.9461
L368.512 64.1597
L370.562 65.4369
L372.611 66.7764
L374.661 68.1771
L376.711 69.6373
L378.76 71.1557
L380.81 72.7308
L382.859 74.3609
L384.909 76.0444
L386.959 77.7796
L389.008 79.5648
L391.058 81.3981
L393.107 83.2778
L395.157 85.2019
L397.206 87.1684
L399.256 89.1755
L401.306 91.2211
L403.355 93.3031
L405.405 95.4194
L407.454 97.568
L409.504 99.7465
L411.554 101.953
L413.603 104.185
L415.653 106.44
L417.702 108.717
L419.752 111.012
L421.801 113.324
L423.851 115.65
L425.901 117.988
L427.95 120.335
L430 122.69
L432.049 125.049
L434.099 127.41
L436.149 129.772
L438.198 132.131
L440.248 134.485
L442.297 136.832
L444.347 139.17
L446.397 141.496
L448.446 143.808
L450.496 146.103
L452.545 148.379
L454.595 150.634
L456.644 152.866
L458.694 155.072
L460.744 157.251
L462.793 159.399" style="fill:none;stroke:#7a68a6;stroke-linecap:square;stroke-width:2.0;"/>
   </g>
   <g id="line2d_35">
    <path clip-path="url(#pdf424e8872)" d="
M259.884 79.3988
L261.934 76.6817
L263.983 74.0156
L266.033 71.4033
L268.082 68.8474
L270.132 66.3504
L272.182 63.9149
L274.231 61.5433
L276.281 59.2381
L278.33 57.0014
L280.38 54.8357
L282.43 52.743
L284.479 50.7255
L286.529 48.7852
L288.578 46.924
L290.628 45.1439
L292.678 43.4466
L294.727 41.8339
L296.777 40.3072
L298.826 38.8683
L300.876 37.5186
L302.925 36.2593
L304.975 35.0918
L307.025 34.0172
L309.074 33.0367
L311.124 32.1512
L313.173 31.3616
L315.223 30.6687
L317.273 30.0732
L319.322 29.5757
L321.372 29.1767
L323.421 28.8766
L325.471 28.6757
L327.521 28.5742
L329.57 28.5722
L331.62 28.6697
L333.669 28.8667
L335.719 29.1628
L337.768 29.5579
L339.818 30.0514
L341.868 30.643
L343.917 31.3321
L345.967 32.1178
L348.016 32.9995
L350.066 33.9763
L352.116 35.0471
L354.165 36.2109
L356.215 37.4665
L358.264 38.8127
L360.314 40.2481
L362.363 41.7712
L364.413 43.3806
L366.463 45.0745
L368.512 46.8514
L370.562 48.7093
L372.611 50.6465
L374.661 52.661
L376.711 54.7507
L378.76 56.9136
L380.81 59.1474
L382.859 61.45
L384.909 63.8189
L386.959 66.2519
L389.008 68.7465
L391.058 71.3001
L393.107 73.9102
L395.157 76.5742
L397.206 79.2893
L399.256 82.0529
L401.306 84.8622
L403.355 87.7142
L405.405 90.6063
L407.454 93.5353
L409.504 96.4985
L411.554 99.4928
L413.603 102.515
L415.653 105.563
L417.702 108.632
L419.752 111.72
L421.801 114.825
L423.851 117.941
L425.901 121.068
L427.95 124.2
L430 127.336
L432.049 130.472
L434.099 133.605
L436.149 136.732
L438.198 139.849
L440.248 142.953
L442.297 146.043
L444.347 149.113
L446.397 152.161
L448.446 155.185
L450.496 158.18
L452.545 161.145
L454.595 164.075
L456.644 166.969
L458.694 169.822
L460.744 172.633
L462.793 175.399" style="fill:none;stroke:#467821;stroke-linecap:square;stroke-width:2.0;"/>
   </g>
   <g id="line2d_36">
    <path clip-path="url(#pdf424e8872)" d="
M259.884 88.9988
L261.934 88.1043
L263.983 87.2495
L266.033 86.435
L268.082 85.6619
L270.132 84.9307
L272.182 84.2423
L274.231 83.5973
L276.281 82.9965
L278.33 82.4404
L280.38 81.9295
L282.43 81.4644
L284.479 81.0456
L286.529 80.6734
L288.578 80.3483
L290.628 80.0706
L292.678 79.8405
L294.727 79.6583
L296.777 79.5242
L298.826 79.4383
L300.876 79.4007
L302.925 79.4114
L304.975 79.4704
L307.025 79.5777
L309.074 79.7331
L311.124 79.9366
L313.173 80.1878
L315.223 80.4865
L317.273 80.8325
L319.322 81.2254
L321.372 81.6648
L323.421 82.1502
L325.471 82.6812
L327.521 83.2572
L329.57 83.8777
L331.62 84.542
L333.669 85.2494
L335.719 85.9993
L337.768 86.7909
L339.818 87.6233
L341.868 88.4959
L343.917 89.4075
L345.967 90.3575
L348.016 91.3447
L350.066 92.3682
L352.116 93.427
L354.165 94.52
L356.215 95.6462
L358.264 96.8043
L360.314 97.9932
L362.363 99.2117
L364.413 100.459
L366.463 101.733
L368.512 103.032
L370.562 104.357
L372.611 105.704
L374.661 107.074
L376.711 108.464
L378.76 109.873
L380.81 111.299
L382.859 112.742
L384.909 114.2
L386.959 115.671
L389.008 117.153
L391.058 118.646
L393.107 120.148
L395.157 121.657
L397.206 123.172
L399.256 124.691
L401.306 126.213
L403.355 127.736
L405.405 129.259
L407.454 130.78
L409.504 132.297
L411.554 133.81
L413.603 135.316
L415.653 136.814
L417.702 138.303
L419.752 139.78
L421.801 141.245
L423.851 142.697
L425.901 144.132
L427.95 145.551
L430 146.952
L432.049 148.333
L434.099 149.693
L436.149 151.031
L438.198 152.344
L440.248 153.633
L442.297 154.895
L444.347 156.129
L446.397 157.335
L448.446 158.51
L450.496 159.654
L452.545 160.766
L454.595 161.844
L456.644 162.887
L458.694 163.895
L460.744 164.866
L462.793 165.799" style="fill:none;stroke:#cf4457;stroke-dasharray:6.000000,6.000000;stroke-dashoffset:0.0;stroke-width:2.0;"/>
   </g>
   <g id="matplotlib.axis_3">
    <g id="xtick_7">
     <g id="line2d_37">
      <g>
       <use style="stroke:#000000;stroke-width:0.5;" x="259.884143466" xlink:href="#m93b0483c22" y="184.998780937"/>
      </g>
     </g>
     <g id="line2d_38">
      <g>
       <use style="stroke:#000000;stroke-width:0.5;" x="259.884143466" xlink:href="#m741efc42ff" y="12.1987809375"/>
      </g>
     </g>
     <g id="text_14">
      <!-- 0.0 -->
      <defs>
       <path d="
M7.17188 5.42188
Q7.17188 7.28125 7.65625 8.5625
Q8.15625 9.85938 8.98438 10.6562
Q9.8125 11.4688 10.9375 11.8281
Q12.0625 12.2031 13.375 12.2031
Q14.6562 12.2031 15.7969 11.8281
Q16.9375 11.4688 17.7656 10.6562
Q18.6094 9.85938 19.0938 8.5625
Q19.5781 7.28125 19.5781 5.42188
Q19.5781 3.60938 19.0938 2.3125
Q18.6094 1.03125 17.7656 0.1875
Q16.9375 -0.640625 15.7969 -1.03125
Q14.6562 -1.42188 13.375 -1.42188
Q12.0625 -1.42188 10.9375 -1.03125
Q9.8125 -0.640625 8.98438 0.1875
Q8.15625 1.03125 7.65625 2.3125
Q7.17188 3.60938 7.17188 5.42188" id="WenQuanYiMicroHei-2e"/>
      </defs>
      <g transform="translate(253.511693466 196.594179062)scale(0.09996 -0.09996)">
       <use xlink:href="#WenQuanYiMicroHei-30"/>
       <use x="55.078125" xlink:href="#WenQuanYiMicroHei-2e"/>
       <use x="81.884765625" xlink:href="#WenQuanYiMicroHei-30"/>
      </g>
     </g>
    </g>
    <g id="xtick_8">
     <g id="line2d_39">
      <g>
       <use style="stroke:#000000;stroke-width:0.5;" x="292.178128282" xlink:href="#m93b0483c22" y="184.998780937"/>
      </g>
     </g>
     <g id="line2d_40">
      <g>
       <use style="stroke:#000000;stroke-width:0.5;" x="292.178128282" xlink:href="#m741efc42ff" y="12.1987809375"/>
      </g>
     </g>
     <g id="text_15">
      <!-- 0.5 -->
      <g transform="translate(285.849410782 196.594179062)scale(0.09996 -0.09996)">
       <use xlink:href="#WenQuanYiMicroHei-30"/>
       <use x="55.078125" xlink:href="#WenQuanYiMicroHei-2e"/>
       <use x="81.884765625" xlink:href="#WenQuanYiMicroHei-35"/>
      </g>
     </g>
    </g>
    <g id="xtick_9">
     <g id="line2d_41">
      <g>
       <use style="stroke:#000000;stroke-width:0.5;" x="324.472113099" xlink:href="#m93b0483c22" y="184.998780937"/>
      </g>
     </g>
     <g id="line2d_42">
      <g>
       <use style="stroke:#000000;stroke-width:0.5;" x="324.472113099" xlink:href="#m741efc42ff" y="12.1987809375"/>
      </g>
     </g>
     <g id="text_16">
      <!-- 1.0 -->
      <g transform="translate(318.294897474 196.594179062)scale(0.09996 -0.09996)">
       <use xlink:href="#WenQuanYiMicroHei-31"/>
       <use x="55.078125" xlink:href="#WenQuanYiMicroHei-2e"/>
       <use x="81.884765625" xlink:href="#WenQuanYiMicroHei-30"/>
      </g>
     </g>
    </g>
    <g id="xtick_10">
     <g id="line2d_43">
      <g>
       <use style="stroke:#000000;stroke-width:0.5;" x="356.766097915" xlink:href="#m93b0483c22" y="184.998780937"/>
      </g>
     </g>
     <g id="line2d_44">
      <g>
       <use style="stroke:#000000;stroke-width:0.5;" x="356.766097915" xlink:href="#m741efc42ff" y="12.1987809375"/>
      </g>
     </g>
     <g id="text_17">
      <!-- 1.5 -->
      <g transform="translate(350.63261479 196.594179062)scale(0.09996 -0.09996)">
       <use xlink:href="#WenQuanYiMicroHei-31"/>
       <use x="55.078125" xlink:href="#WenQuanYiMicroHei-2e"/>
       <use x="81.884765625" xlink:href="#WenQuanYiMicroHei-35"/>
      </g>
     </g>
    </g>
    <g id="xtick_11">
     <g id="line2d_45">
      <g>
       <use style="stroke:#000000;stroke-width:0.5;" x="389.060082732" xlink:href="#m93b0483c22" y="184.998780937"/>
      </g>
     </g>
     <g id="line2d_46">
      <g>
       <use style="stroke:#000000;stroke-width:0.5;" x="389.060082732" xlink:href="#m741efc42ff" y="12.1987809375"/>
      </g>
     </g>
     <g id="text_18">
      <!-- 2.0 -->
      <g transform="translate(382.682947107 196.594179062)scale(0.09996 -0.09996)">
       <use xlink:href="#WenQuanYiMicroHei-32"/>
       <use x="55.078125" xlink:href="#WenQuanYiMicroHei-2e"/>
       <use x="81.884765625" xlink:href="#WenQuanYiMicroHei-30"/>
      </g>
     </g>
    </g>
    <g id="xtick_12">
     <g id="line2d_47">
      <g>
       <use style="stroke:#000000;stroke-width:0.5;" x="421.354067548" xlink:href="#m93b0483c22" y="184.998780937"/>
      </g>
     </g>
     <g id="line2d_48">
      <g>
       <use style="stroke:#000000;stroke-width:0.5;" x="421.354067548" xlink:href="#m741efc42ff" y="12.1987809375"/>
      </g>
     </g>
     <g id="text_19">
      <!-- 2.5 -->
      <g transform="translate(415.020664423 196.594179062)scale(0.09996 -0.09996)">
       <use xlink:href="#WenQuanYiMicroHei-32"/>
       <use x="55.078125" xlink:href="#WenQuanYiMicroHei-2e"/>
       <use x="81.884765625" xlink:href="#WenQuanYiMicroHei-35"/>
      </g>
     </g>
    </g>
    <g id="xtick_13">
     <g id="line2d_49">
      <g>
       <use style="stroke:#000000;stroke-width:0.5;" x="453.648052365" xlink:href="#m93b0483c22" y="184.998780937"/>
      </g>
     </g>
     <g id="line2d_50">
      <g>
       <use style="stroke:#000000;stroke-width:0.5;" x="453.648052365" xlink:href="#m741efc42ff" y="12.1987809375"/>
      </g>
     </g>
     <g id="text_20">
      <!-- 3.0 -->
      <g transform="translate(447.23655549 196.594179062)scale(0.09996 -0.09996)">
       <use xlink:href="#WenQuanYiMicroHei-33"/>
       <use x="55.078125" xlink:href="#WenQuanYiMicroHei-2e"/>
       <use x="81.884765625" xlink:href="#WenQuanYiMicroHei-30"/>
      </g>
     </g>
    </g>
   </g>
   <g id="matplotlib.axis_4">
    <g id="ytick_8">
     <g id="line2d_51">
      <g>
       <use style="stroke:#000000;stroke-width:0.5;" x="259.884143466" xlink:href="#m728421d6d4" y="184.998780937"/>
      </g>
     </g>
     <g id="line2d_52">
      <g>
       <use style="stroke:#000000;stroke-width:0.5;" x="462.793234375" xlink:href="#mcb0005524f" y="184.998780937"/>
      </g>
     </g>
     <g id="text_21">
      <!-- −6 -->
      <defs>
       <path d="
M4.98438 31.5938
L4.98438 38.9219
L50.0938 38.9219
L50.0938 31.5938
z
" id="WenQuanYiMicroHei-2212"/>
      </defs>
      <g transform="translate(245.830354091 187.595398125)scale(0.09996 -0.09996)">
       <use xlink:href="#WenQuanYiMicroHei-2212"/>
       <use x="55.078125" xlink:href="#WenQuanYiMicroHei-36"/>
      </g>
     </g>
    </g>
    <g id="ytick_9">
     <g id="line2d_53">
      <g>
       <use style="stroke:#000000;stroke-width:0.5;" x="259.884143466" xlink:href="#m728421d6d4" y="165.798780937"/>
      </g>
     </g>
     <g id="line2d_54">
      <g>
       <use style="stroke:#000000;stroke-width:0.5;" x="462.793234375" xlink:href="#mcb0005524f" y="165.798780937"/>
      </g>
     </g>
     <g id="text_22">
      <!-- −4 -->
      <g transform="translate(245.571082841 168.395398125)scale(0.09996 -0.09996)">
       <use xlink:href="#WenQuanYiMicroHei-2212"/>
       <use x="55.078125" xlink:href="#WenQuanYiMicroHei-34"/>
      </g>
     </g>
    </g>
    <g id="ytick_10">
     <g id="line2d_55">
      <g>
       <use style="stroke:#000000;stroke-width:0.5;" x="259.884143466" xlink:href="#m728421d6d4" y="146.598780937"/>
      </g>
     </g>
     <g id="line2d_56">
      <g>
       <use style="stroke:#000000;stroke-width:0.5;" x="462.793234375" xlink:href="#mcb0005524f" y="146.598780937"/>
      </g>
     </g>
     <g id="text_23">
      <!-- −2 -->
      <g transform="translate(245.956865966 149.195398125)scale(0.09996 -0.09996)">
       <use xlink:href="#WenQuanYiMicroHei-2212"/>
       <use x="55.078125" xlink:href="#WenQuanYiMicroHei-32"/>
      </g>
     </g>
    </g>
    <g id="ytick_11">
     <g id="line2d_57">
      <g>
       <use style="stroke:#000000;stroke-width:0.5;" x="259.884143466" xlink:href="#m728421d6d4" y="127.398780937"/>
      </g>
     </g>
     <g id="line2d_58">
      <g>
       <use style="stroke:#000000;stroke-width:0.5;" x="462.793234375" xlink:href="#mcb0005524f" y="127.398780937"/>
      </g>
     </g>
     <g id="text_24">
      <!-- 0 -->
      <g transform="translate(251.325030341 129.995398125)scale(0.09996 -0.09996)">
       <use xlink:href="#WenQuanYiMicroHei-30"/>
      </g>
     </g>
    </g>
    <g id="ytick_12">
     <g id="line2d_59">
      <g>
       <use style="stroke:#000000;stroke-width:0.5;" x="259.884143466" xlink:href="#m728421d6d4" y="108.198780937"/>
      </g>
     </g>
     <g id="line2d_60">
      <g>
       <use style="stroke:#000000;stroke-width:0.5;" x="462.793234375" xlink:href="#mcb0005524f" y="108.198780937"/>
      </g>
     </g>
     <g id="text_25">
      <!-- 2 -->
      <g transform="translate(251.432799716 110.795398125)scale(0.09996 -0.09996)">
       <use xlink:href="#WenQuanYiMicroHei-32"/>
      </g>
     </g>
    </g>
    <g id="ytick_13">
     <g id="line2d_61">
      <g>
       <use style="stroke:#000000;stroke-width:0.5;" x="259.884143466" xlink:href="#m728421d6d4" y="88.9987809375"/>
      </g>
     </g>
     <g id="line2d_62">
      <g>
       <use style="stroke:#000000;stroke-width:0.5;" x="462.793234375" xlink:href="#mcb0005524f" y="88.9987809375"/>
      </g>
     </g>
     <g id="text_26">
      <!-- 4 -->
      <g transform="translate(250.690909091 91.595398125)scale(0.09996 -0.09996)">
       <use xlink:href="#WenQuanYiMicroHei-34"/>
      </g>
     </g>
    </g>
    <g id="ytick_14">
     <g id="line2d_63">
      <g>
       <use style="stroke:#000000;stroke-width:0.5;" x="259.884143466" xlink:href="#m728421d6d4" y="69.7987809375"/>
      </g>
     </g>
     <g id="line2d_64">
      <g>
       <use style="stroke:#000000;stroke-width:0.5;" x="462.793234375" xlink:href="#mcb0005524f" y="69.7987809375"/>
      </g>
     </g>
     <g id="text_27">
      <!-- 6 -->
      <g transform="translate(251.389067216 72.395398125)scale(0.09996 -0.09996)">
       <use xlink:href="#WenQuanYiMicroHei-36"/>
      </g>
     </g>
    </g>
    <g id="ytick_15">
     <g id="line2d_65">
      <g>
       <use style="stroke:#000000;stroke-width:0.5;" x="259.884143466" xlink:href="#m728421d6d4" y="50.5987809375"/>
      </g>
     </g>
     <g id="line2d_66">
      <g>
       <use style="stroke:#000000;stroke-width:0.5;" x="462.793234375" xlink:href="#mcb0005524f" y="50.5987809375"/>
      </g>
     </g>
     <g id="text_28">
      <!-- 8 -->
      <g transform="translate(251.403124091 53.195398125)scale(0.09996 -0.09996)">
       <use xlink:href="#WenQuanYiMicroHei-38"/>
      </g>
     </g>
    </g>
    <g id="ytick_16">
     <g id="line2d_67">
      <g>
       <use style="stroke:#000000;stroke-width:0.5;" x="259.884143466" xlink:href="#m728421d6d4" y="31.3987809375"/>
      </g>
     </g>
     <g id="line2d_68">
      <g>
       <use style="stroke:#000000;stroke-width:0.5;" x="462.793234375" xlink:href="#mcb0005524f" y="31.3987809375"/>
      </g>
     </g>
     <g id="text_29">
      <!-- 10 -->
      <g transform="translate(246.209889716 33.995398125)scale(0.09996 -0.09996)">
       <use xlink:href="#WenQuanYiMicroHei-31"/>
       <use x="55.078125" xlink:href="#WenQuanYiMicroHei-30"/>
      </g>
     </g>
    </g>
    <g id="ytick_17">
     <g id="line2d_69">
      <g>
       <use style="stroke:#000000;stroke-width:0.5;" x="259.884143466" xlink:href="#m728421d6d4" y="12.1987809375"/>
      </g>
     </g>
     <g id="line2d_70">
      <g>
       <use style="stroke:#000000;stroke-width:0.5;" x="462.793234375" xlink:href="#mcb0005524f" y="12.1987809375"/>
      </g>
     </g>
     <g id="text_30">
      <!-- 12 -->
      <g transform="translate(246.327030341 14.795398125)scale(0.09996 -0.09996)">
       <use xlink:href="#WenQuanYiMicroHei-31"/>
       <use x="55.078125" xlink:href="#WenQuanYiMicroHei-32"/>
      </g>
     </g>
    </g>
   </g>
   <g id="patch_8">
    <path d="
M259.884 12.1988
L462.793 12.1988" style="fill:none;stroke:#000000;"/>
   </g>
   <g id="patch_9">
    <path d="
M462.793 184.999
L462.793 12.1988" style="fill:none;stroke:#000000;"/>
   </g>
   <g id="patch_10">
    <path d="
M259.884 184.999
L462.793 184.999" style="fill:none;stroke:#000000;"/>
   </g>
   <g id="patch_11">
    <path d="
M259.884 184.999
L259.884 12.1988" style="fill:none;stroke:#000000;"/>
   </g>
  </g>
 </g>
 <defs>
  <clipPath id="pdf424e8872">
   <rect height="172.8" width="202.909090909" x="259.884143466" y="12.1987809375"/>
  </clipPath>
  <clipPath id="pf6851d6795">
   <rect height="172.8" width="202.909090909" x="16.393234375" y="12.1987809375"/>
  </clipPath>
 </defs>
</svg>
