<?xml version="1.0" encoding="utf-8" standalone="no"?>
<!DOCTYPE svg PUBLIC "-//W3C//DTD SVG 1.1//EN"
  "http://www.w3.org/Graphics/SVG/1.1/DTD/svg11.dtd">
<!-- Created with matplotlib (http://matplotlib.org/) -->
<svg height="303pt" version="1.1" viewBox="0 0 351 303" width="351pt" xmlns="http://www.w3.org/2000/svg" xmlns:xlink="http://www.w3.org/1999/xlink">
 <defs>
  <style type="text/css">
*{stroke-linecap:butt;stroke-linejoin:round;}
  </style>
 </defs>
 <g id="figure_1">
  <g id="patch_1">
   <path d="
M0 303.527
L351.355 303.527
L351.355 0
L0 0
z
" style="fill:#ffffff;"/>
  </g>
  <g id="axes_1">
   <g id="patch_2">
    <path d="
M7.2 296.327
L342 296.327
L342 9.35539
L7.2 9.35539
z
" style="fill:#ffffff;"/>
   </g>
   <g id="patch_3">
    <path clip-path="url(#pe78eda361c)" d="
M150.686 248.498
C150.686 241.599 149.193 234.781 146.31 228.513
C143.427 222.245 139.222 216.674 133.984 212.184
L102.857 248.498
L150.686 248.498
z
" style="fill:#0000ff;opacity:0.3;stroke:#000000;"/>
   </g>
   <g id="line2d_1">
    <path clip-path="url(#pe78eda361c)" d="
M7.2 9.35539
L342 296.327" style="fill:none;stroke:#348abd;stroke-linecap:square;stroke-width:2.0;"/>
   </g>
   <g id="line2d_2">
    <path clip-path="url(#pe78eda361c)" d="
M102.857 248.498
L180.508 157.905" style="fill:none;stroke:#808080;stroke-dasharray:6.000000,6.000000;stroke-dashoffset:0.0;stroke-width:2.0;"/>
    <defs>
     <path d="
M0 3
C0.795609 3 1.55874 2.6839 2.12132 2.12132
C2.6839 1.55874 3 0.795609 3 0
C3 -0.795609 2.6839 -1.55874 2.12132 -2.12132
C1.55874 -2.6839 0.795609 -3 0 -3
C-0.795609 -3 -1.55874 -2.6839 -2.12132 -2.12132
C-2.6839 -1.55874 -3 -0.795609 -3 0
C-3 0.795609 -2.6839 1.55874 -2.12132 2.12132
C-1.55874 2.6839 -0.795609 3 0 3
z
" id="mcba2a72c1a" style="stroke:#000000;stroke-width:0.5;"/>
    </defs>
    <g clip-path="url(#pe78eda361c)">
     <use style="fill:#808080;stroke:#000000;stroke-width:0.5;" x="102.857142857" xlink:href="#mcba2a72c1a" y="248.498244643"/>
     <use style="fill:#808080;stroke:#000000;stroke-width:0.5;" x="180.508235294" xlink:href="#mcba2a72c1a" y="157.905303466"/>
    </g>
   </g>
   <g id="mpl_toolkits.axisartist.axis_artist_1">
    <defs>
     <path d="
M0 0
L2.44929e-16 -4" id="me26b6abbdb" style="stroke:#000000;stroke-width:0.5;"/>
    </defs>
    <g>
     <use style="fill:none;stroke:#000000;stroke-width:0.5;" x="7.2" xlink:href="#me26b6abbdb" y="248.498244643"/>
     <use style="fill:none;stroke:#000000;stroke-width:0.5;" x="7.2" xlink:href="#me26b6abbdb" y="248.498244643"/>
    </g>
    <g>
     <use style="fill:none;stroke:#000000;stroke-width:0.5;" x="55.0285714286" xlink:href="#me26b6abbdb" y="248.498244643"/>
     <use style="fill:none;stroke:#000000;stroke-width:0.5;" x="55.0285714286" xlink:href="#me26b6abbdb" y="248.498244643"/>
    </g>
    <g>
     <use style="fill:none;stroke:#000000;stroke-width:0.5;" x="102.857142857" xlink:href="#me26b6abbdb" y="248.498244643"/>
     <use style="fill:none;stroke:#000000;stroke-width:0.5;" x="102.857142857" xlink:href="#me26b6abbdb" y="248.498244643"/>
    </g>
    <g>
     <use style="fill:none;stroke:#000000;stroke-width:0.5;" x="150.685714286" xlink:href="#me26b6abbdb" y="248.498244643"/>
     <use style="fill:none;stroke:#000000;stroke-width:0.5;" x="150.685714286" xlink:href="#me26b6abbdb" y="248.498244643"/>
    </g>
    <g>
     <use style="fill:none;stroke:#000000;stroke-width:0.5;" x="198.514285714" xlink:href="#me26b6abbdb" y="248.498244643"/>
     <use style="fill:none;stroke:#000000;stroke-width:0.5;" x="198.514285714" xlink:href="#me26b6abbdb" y="248.498244643"/>
    </g>
    <g>
     <use style="fill:none;stroke:#000000;stroke-width:0.5;" x="246.342857143" xlink:href="#me26b6abbdb" y="248.498244643"/>
     <use style="fill:none;stroke:#000000;stroke-width:0.5;" x="246.342857143" xlink:href="#me26b6abbdb" y="248.498244643"/>
    </g>
    <g>
     <use style="fill:none;stroke:#000000;stroke-width:0.5;" x="294.171428571" xlink:href="#me26b6abbdb" y="248.498244643"/>
     <use style="fill:none;stroke:#000000;stroke-width:0.5;" x="294.171428571" xlink:href="#me26b6abbdb" y="248.498244643"/>
    </g>
    <g>
     <use style="fill:none;stroke:#000000;stroke-width:0.5;" x="342.0" xlink:href="#me26b6abbdb" y="248.498244643"/>
     <use style="fill:none;stroke:#000000;stroke-width:0.5;" x="342.0" xlink:href="#me26b6abbdb" y="248.498244643"/>
    </g>
    <g id="text_1">
     <!-- −2 -->
     <defs>
      <path d="
M49.2188 0
L4.6875 0
L4.6875 7.625
L21.7812 26.2188
Q25.4375 30.1719 28.3125 33.4375
Q31.2031 36.7188 33.2188 39.8438
Q35.25 42.9688 36.3281 46.1094
Q37.4062 49.2656 37.4062 52.9844
Q37.4062 55.8594 36.5781 58.0469
Q35.75 60.25 34.2031 61.7812
Q32.6719 63.3281 30.5625 64.1094
Q28.4688 64.8906 25.875 64.8906
Q21.2344 64.8906 17.5 63.0156
Q13.7656 61.1406 10.4062 58.2031
L5.42188 64.0156
Q7.375 65.7656 9.60938 67.2969
Q11.8594 68.8438 14.4531 69.9688
Q17.0469 71.0938 19.9219 71.75
Q22.7969 72.4062 25.9844 72.4062
Q30.6719 72.4062 34.4531 71.0938
Q38.2344 69.7812 40.8594 67.3125
Q43.5 64.8438 44.9375 61.2969
Q46.3906 57.7656 46.3906 53.3281
Q46.3906 49.1719 45.0938 45.4062
Q43.7969 41.6562 41.5312 38.0156
Q39.2656 34.375 36.1094 30.7031
Q32.9531 27.0469 29.2969 23.0938
L15.5781 8.5
L15.5781 8.10938
L49.2188 8.10938
z
" id="WenQuanYiMicroHei-32"/>
      <path d="
M4.98438 31.5938
L4.98438 38.9219
L50.0938 38.9219
L50.0938 31.5938
z
" id="WenQuanYiMicroHei-2212"/>
     </defs>
     <g transform="translate(2.23636125 259.746906518)scale(0.09996 -0.09996)">
      <use xlink:href="#WenQuanYiMicroHei-2212"/>
      <use x="55.078125" xlink:href="#WenQuanYiMicroHei-32"/>
     </g>
    </g>
    <g id="text_2">
     <!-- −1 -->
     <defs>
      <path d="
M34.7188 0
L26.125 0
L26.125 44.5781
Q26.125 46.6875 26.1406 49.0781
Q26.1719 51.4688 26.2344 53.8281
Q26.3125 56.2031 26.3906 58.375
Q26.4688 60.5469 26.5156 62.2031
Q25.6875 61.3281 25.0469 60.6875
Q24.4219 60.0625 23.75 59.4688
Q23.0938 58.8906 22.3594 58.2188
Q21.625 57.5625 20.6094 56.6875
L13.375 50.7812
L8.6875 56.7812
L27.3906 71.3906
L34.7188 71.3906
z
" id="WenQuanYiMicroHei-31"/>
     </defs>
     <g transform="translate(50.7896426786 259.746906518)scale(0.09996 -0.09996)">
      <use xlink:href="#WenQuanYiMicroHei-2212"/>
      <use x="55.078125" xlink:href="#WenQuanYiMicroHei-31"/>
     </g>
    </g>
    <g id="text_3">
     <!-- 0 -->
     <defs>
      <path d="
M50.3906 35.7969
Q50.3906 27.1562 49.1406 20.3125
Q47.9062 13.4844 45.1406 8.73438
Q42.3906 4 38.0312 1.5
Q33.6875 -0.984375 27.4844 -0.984375
Q21.7344 -0.984375 17.4531 1.5
Q13.1875 4 10.375 8.73438
Q7.5625 13.4844 6.17188 20.3125
Q4.78125 27.1562 4.78125 35.7969
Q4.78125 44.4375 6.03125 51.2656
Q7.28125 58.1094 9.98438 62.8125
Q12.7031 67.5312 17.0156 70.0156
Q21.3438 72.5156 27.4844 72.5156
Q33.2969 72.5156 37.5938 70.0469
Q41.8906 67.5781 44.7188 62.8594
Q47.5625 58.1562 48.9688 51.3125
Q50.3906 44.4844 50.3906 35.7969
M13.8125 35.7969
Q13.8125 28.4688 14.5469 23
Q15.2812 17.5312 16.8906 13.8906
Q18.5 10.25 21.1094 8.42188
Q23.7344 6.59375 27.4844 6.59375
Q31.25 6.59375 33.8906 8.39062
Q36.5312 10.2031 38.2031 13.8125
Q39.8906 17.4375 40.6406 22.9219
Q41.4062 28.4219 41.4062 35.7969
Q41.4062 43.1094 40.6406 48.5781
Q39.8906 54.0469 38.2031 57.6562
Q36.5312 61.2812 33.8906 63.0781
Q31.25 64.8906 27.4844 64.8906
Q23.7344 64.8906 21.1094 63.0781
Q18.5 61.2812 16.8906 57.6562
Q15.2812 54.0469 14.5469 48.5781
Q13.8125 43.1094 13.8125 35.7969" id="WenQuanYiMicroHei-30"/>
     </defs>
     <g transform="translate(100.577586295 259.746906518)scale(0.09996 -0.09996)">
      <use xlink:href="#WenQuanYiMicroHei-30"/>
     </g>
    </g>
    <g id="text_4">
     <!-- 1 -->
     <g transform="translate(149.384672411 259.746906518)scale(0.09996 -0.09996)">
      <use xlink:href="#WenQuanYiMicroHei-31"/>
     </g>
    </g>
    <g id="text_5">
     <!-- 2 -->
     <g transform="translate(196.288613839 259.746906518)scale(0.09996 -0.09996)">
      <use xlink:href="#WenQuanYiMicroHei-32"/>
     </g>
    </g>
    <g id="text_6">
     <!-- 3 -->
     <defs>
      <path d="
M46.9219 54.6875
Q46.9219 51.125 45.7969 48.1875
Q44.6719 45.2656 42.6406 43.1094
Q40.625 40.9688 37.7969 39.5781
Q34.9688 38.1875 31.5 37.5938
L31.5 37.3125
Q40.1406 36.2344 44.625 31.8125
Q49.125 27.3906 49.125 20.3125
Q49.125 15.625 47.5312 11.7188
Q45.9531 7.8125 42.7188 4.98438
Q39.5 2.15625 34.5625 0.578125
Q29.6406 -0.984375 22.9062 -0.984375
Q17.5781 -0.984375 12.8594 -0.140625
Q8.15625 0.6875 4 2.875
L4 11.1875
Q8.25 8.9375 13.2031 7.71875
Q18.1719 6.5 22.7031 6.5
Q27.2031 6.5 30.4688 7.46875
Q33.7344 8.45312 35.8594 10.25
Q37.9844 12.0625 38.9844 14.6875
Q39.9844 17.3281 39.9844 20.6094
Q39.9844 23.9219 38.6875 26.2812
Q37.4062 28.6562 35.0156 30.1875
Q32.625 31.7344 29.1719 32.4688
Q25.7344 33.2031 21.3906 33.2031
L14.8906 33.2031
L14.8906 40.5781
L21.3906 40.5781
Q25.3438 40.5781 28.4219 41.5469
Q31.5 42.5312 33.5625 44.3281
Q35.6406 46.1406 36.7188 48.625
Q37.7969 51.125 37.7969 54.1094
Q37.7969 56.6406 36.9062 58.6406
Q36.0312 60.6406 34.4219 62.0312
Q32.8125 63.4219 30.5625 64.1562
Q28.3281 64.8906 25.5938 64.8906
Q20.3594 64.8906 16.375 63.25
Q12.4062 61.625 8.79688 58.9844
L4.29688 65.0938
Q6.15625 66.6094 8.42188 67.9219
Q10.6875 69.2344 13.375 70.2344
Q16.0625 71.2344 19.1094 71.8125
Q22.1719 72.4062 25.5938 72.4062
Q30.8594 72.4062 34.8281 71.0938
Q38.8125 69.7812 41.5 67.4062
Q44.1875 65.0469 45.5469 61.7969
Q46.9219 58.5469 46.9219 54.6875" id="WenQuanYiMicroHei-33"/>
     </defs>
     <g transform="translate(244.087509643 259.746906518)scale(0.09996 -0.09996)">
      <use xlink:href="#WenQuanYiMicroHei-33"/>
     </g>
    </g>
    <g id="text_7">
     <!-- 4 -->
     <defs>
      <path d="
M53.0781 16.0156
L42.6719 16.0156
L42.6719 0
L34.0781 0
L34.0781 16.0156
L1.125 16.0156
L1.125 23.7812
L33.5 71.7812
L42.6719 71.7812
L42.6719 24.125
L53.0781 24.125
z

M34.0781 24.125
L34.0781 41.5
Q34.0781 44.2344 34.1562 47.2344
Q34.2344 50.25 34.3281 53.0938
Q34.4219 55.9531 34.5469 58.4375
Q34.6719 60.9375 34.7188 62.5938
L34.2812 62.5938
Q33.9375 61.625 33.4219 60.4219
Q32.9062 59.2344 32.2969 58.0312
Q31.6875 56.8438 31.0469 55.7188
Q30.4219 54.5938 29.8906 53.8125
L9.8125 24.125
z
" id="WenQuanYiMicroHei-34"/>
     </defs>
     <g transform="translate(291.574811384 259.746906518)scale(0.09996 -0.09996)">
      <use xlink:href="#WenQuanYiMicroHei-34"/>
     </g>
    </g>
    <g id="text_8">
     <!-- 5 -->
     <defs>
      <path d="
M26.6094 43.7969
Q31.4531 43.7969 35.625 42.4531
Q39.7969 41.1094 42.8906 38.4688
Q46 35.8438 47.75 31.9375
Q49.5156 28.0312 49.5156 22.9062
Q49.5156 17.3281 47.8438 12.8906
Q46.1875 8.45312 42.9219 5.375
Q39.6562 2.29688 34.8438 0.65625
Q30.0312 -0.984375 23.7812 -0.984375
Q21.2969 -0.984375 18.875 -0.734375
Q16.4531 -0.484375 14.2344 -0.015625
Q12.0156 0.4375 10.0156 1.17188
Q8.01562 1.90625 6.39062 2.875
L6.39062 11.2812
Q8.01562 10.1562 10.1875 9.28125
Q12.3594 8.40625 14.75 7.8125
Q17.1406 7.23438 19.5469 6.90625
Q21.9688 6.59375 24.0312 6.59375
Q27.875 6.59375 30.9062 7.5
Q33.9375 8.40625 36.0312 10.2969
Q38.1406 12.2031 39.25 15.0781
Q40.375 17.9688 40.375 21.9219
Q40.375 28.9062 36.0781 32.5938
Q31.7812 36.2812 23.5781 36.2812
Q22.2656 36.2812 20.7188 36.1562
Q19.1875 36.0312 17.6406 35.8281
Q16.1094 35.6406 14.7188 35.4219
Q13.3281 35.2031 12.3125 35.0156
L7.90625 37.7969
L10.5938 71.3906
L44.2812 71.3906
L44.2812 63.2812
L18.3125 63.2812
L16.4062 42.8281
Q17.9688 43.1094 20.5312 43.4531
Q23.0938 43.7969 26.6094 43.7969" id="WenQuanYiMicroHei-35"/>
     </defs>
     <g transform="translate(339.8446125 259.746906518)scale(0.09996 -0.09996)">
      <use xlink:href="#WenQuanYiMicroHei-35"/>
     </g>
    </g>
    <g id="line2d_3">
     <path clip-path="url(#pe78eda361c)" d="
M7.2 248.498
L342 248.498" style="fill:none;stroke:#000000;stroke-linecap:square;"/>
    </g>
   </g>
   <g id="mpl_toolkits.axisartist.axis_artist_2">
    <defs>
     <path d="
M0 0
L-4 -4.89859e-16" id="m2d49bb8ccc" style="stroke:#000000;stroke-width:0.5;"/>
    </defs>
    <g>
     <use style="fill:none;stroke:#000000;stroke-width:0.5;" x="102.857142857" xlink:href="#m2d49bb8ccc" y="296.326816071"/>
     <use style="fill:none;stroke:#000000;stroke-width:0.5;" x="102.857142857" xlink:href="#m2d49bb8ccc" y="296.326816071"/>
    </g>
    <g>
     <use style="fill:none;stroke:#000000;stroke-width:0.5;" x="102.857142857" xlink:href="#m2d49bb8ccc" y="248.498244643"/>
     <use style="fill:none;stroke:#000000;stroke-width:0.5;" x="102.857142857" xlink:href="#m2d49bb8ccc" y="248.498244643"/>
    </g>
    <g>
     <use style="fill:none;stroke:#000000;stroke-width:0.5;" x="102.857142857" xlink:href="#m2d49bb8ccc" y="200.669673214"/>
     <use style="fill:none;stroke:#000000;stroke-width:0.5;" x="102.857142857" xlink:href="#m2d49bb8ccc" y="200.669673214"/>
    </g>
    <g>
     <use style="fill:none;stroke:#000000;stroke-width:0.5;" x="102.857142857" xlink:href="#m2d49bb8ccc" y="152.841101786"/>
     <use style="fill:none;stroke:#000000;stroke-width:0.5;" x="102.857142857" xlink:href="#m2d49bb8ccc" y="152.841101786"/>
    </g>
    <g>
     <use style="fill:none;stroke:#000000;stroke-width:0.5;" x="102.857142857" xlink:href="#m2d49bb8ccc" y="105.012530357"/>
     <use style="fill:none;stroke:#000000;stroke-width:0.5;" x="102.857142857" xlink:href="#m2d49bb8ccc" y="105.012530357"/>
    </g>
    <g>
     <use style="fill:none;stroke:#000000;stroke-width:0.5;" x="102.857142857" xlink:href="#m2d49bb8ccc" y="57.1839589286"/>
     <use style="fill:none;stroke:#000000;stroke-width:0.5;" x="102.857142857" xlink:href="#m2d49bb8ccc" y="57.1839589286"/>
    </g>
    <g>
     <use style="fill:none;stroke:#000000;stroke-width:0.5;" x="102.857142857" xlink:href="#m2d49bb8ccc" y="9.3553875"/>
     <use style="fill:none;stroke:#000000;stroke-width:0.5;" x="102.857142857" xlink:href="#m2d49bb8ccc" y="9.3553875"/>
    </g>
    <g id="text_9">
     <!-- −1 -->
     <g transform="translate(114.105804732 300.565744821)rotate(-90.0)scale(0.09996 -0.09996)">
      <use xlink:href="#WenQuanYiMicroHei-2212"/>
      <use x="55.078125" xlink:href="#WenQuanYiMicroHei-31"/>
     </g>
    </g>
    <g id="text_10">
     <!-- 0 -->
     <g transform="translate(114.105804732 250.777801205)rotate(-90.0)scale(0.09996 -0.09996)">
      <use xlink:href="#WenQuanYiMicroHei-30"/>
     </g>
    </g>
    <g id="text_11">
     <!-- 1 -->
     <g transform="translate(114.105804732 201.970715089)rotate(-90.0)scale(0.09996 -0.09996)">
      <use xlink:href="#WenQuanYiMicroHei-31"/>
     </g>
    </g>
    <g id="text_12">
     <!-- 2 -->
     <g transform="translate(114.105804732 155.066773661)rotate(-90.0)scale(0.09996 -0.09996)">
      <use xlink:href="#WenQuanYiMicroHei-32"/>
     </g>
    </g>
    <g id="text_13">
     <!-- 3 -->
     <g transform="translate(114.105804732 107.267877857)rotate(-90.0)scale(0.09996 -0.09996)">
      <use xlink:href="#WenQuanYiMicroHei-33"/>
     </g>
    </g>
    <g id="text_14">
     <!-- 4 -->
     <g transform="translate(114.105804732 59.7805761161)rotate(-90.0)scale(0.09996 -0.09996)">
      <use xlink:href="#WenQuanYiMicroHei-34"/>
     </g>
    </g>
    <g id="text_15">
     <!-- 5 -->
     <g transform="translate(114.105804732 11.510775)rotate(-90.0)scale(0.09996 -0.09996)">
      <use xlink:href="#WenQuanYiMicroHei-35"/>
     </g>
    </g>
    <g id="line2d_4">
     <path clip-path="url(#pe78eda361c)" d="
M102.857 296.327
L102.857 9.35539" style="fill:none;stroke:#000000;stroke-linecap:square;"/>
    </g>
   </g>
   <g id="text_16">
    <!-- $\theta$ -->
    <defs>
     <path d="
M16.1094 -1.125
Q11.5781 -1.125 8.84375 2.1875
Q6.10938 5.51562 5.04688 10.2031
Q4 14.8906 4 19.4844
L4 19.5781
Q4 24.5625 4.95312 29.9219
Q5.90625 35.2969 7.70312 40.6406
Q9.51562 46 11.625 50.2031
Q13.0938 53.125 15.4062 56.7344
Q17.7188 60.3594 20.5781 63.5
Q23.4375 66.6562 26.7344 68.5781
Q30.0312 70.5156 33.4062 70.5156
L33.5 70.5156
Q37.1094 70.5156 39.5156 68.5
Q41.9375 66.5 43.2812 63.375
Q44.625 60.25 45.1562 56.6875
Q45.7031 53.125 45.7031 49.9062
Q45.7031 42.3281 43.6562 34.4375
Q41.6094 26.5625 37.9844 19.1875
Q36.625 16.4062 34.2031 12.6406
Q31.7812 8.89062 29.0781 5.90625
Q26.375 2.9375 23 0.90625
Q19.625 -1.125 16.2188 -1.125
z

M16.3125 1.51562
Q19.625 1.51562 22.6719 5.04688
Q25.7344 8.59375 28.0312 13.6406
Q30.3281 18.7031 32.0625 24
Q33.7969 29.2969 34.625 33.0156
L14.2031 33.0156
Q12.6406 26.7031 11.7656 22.1406
Q10.8906 17.5781 10.8906 13.1875
Q10.8906 1.51562 16.3125 1.51562
M14.9844 36.5312
L35.5 36.5312
Q36.5781 40.9219 37.2031 43.875
Q37.8438 46.8281 38.2812 50.0938
Q38.7188 53.375 38.7188 56.2031
Q38.7188 67.9219 33.4062 67.9219
Q27.0469 67.9219 22.4375 57.6875
Q17.8281 47.4688 14.9844 36.5312" id="Cmmi10-b5"/>
    </defs>
    <g transform="translate(150.685714286 224.583958929)scale(0.144 -0.144)">
     <use transform="translate(0.0 0.484375)" xlink:href="#Cmmi10-b5"/>
    </g>
   </g>
   <g id="text_17">
    <!-- $r$ -->
    <defs>
     <path d="
M7.71875 1.70312
Q7.71875 2.29688 7.8125 2.59375
L15.2812 32.4219
Q16.0156 35.2031 16.0156 37.3125
Q16.0156 41.6094 13.0938 41.6094
Q9.96875 41.6094 8.45312 37.8594
Q6.9375 34.125 5.51562 28.4219
Q5.51562 28.125 5.21875 27.9531
Q4.9375 27.7812 4.6875 27.7812
L3.51562 27.7812
Q3.17188 27.7812 2.92188 28.1406
Q2.6875 28.5156 2.6875 28.8125
Q3.76562 33.1562 4.76562 36.1719
Q5.76562 39.2031 7.89062 41.6875
Q10.0156 44.1875 13.1875 44.1875
Q16.6562 44.1875 19.2656 42.1875
Q21.875 40.1875 22.5156 36.9219
Q25.0469 40.2344 28.2969 42.2031
Q31.5469 44.1875 35.4062 44.1875
Q38.5781 44.1875 40.9844 42.3281
Q43.4062 40.4844 43.4062 37.3125
Q43.4062 34.7656 41.8125 32.875
Q40.2344 31 37.5938 31
Q35.9844 31 34.8906 32
Q33.7969 33.0156 33.7969 34.625
Q33.7969 36.8125 35.4062 38.5469
Q37.0156 40.2812 39.1094 40.2812
Q37.5 41.6094 35.2031 41.6094
Q30.9062 41.6094 27.7344 38.5469
Q24.5625 35.5 22.0156 30.8125
L14.8906 2.20312
Q14.5469 0.828125 13.3438 -0.140625
Q12.1562 -1.125 10.6875 -1.125
Q9.46875 -1.125 8.59375 -0.34375
Q7.71875 0.4375 7.71875 1.70312" id="Cmmi10-72"/>
    </defs>
    <g transform="translate(141.12 195.886816071)scale(0.144 -0.144)">
     <use transform="translate(0.0 0.8125)" xlink:href="#Cmmi10-72"/>
    </g>
   </g>
  </g>
 </g>
 <defs>
  <clipPath id="pe78eda361c">
   <rect height="286.971428571" width="334.8" x="7.2" y="9.3553875"/>
  </clipPath>
 </defs>
</svg>
