<?xml version="1.0" encoding="utf-8" standalone="no"?>
<!DOCTYPE svg PUBLIC "-//W3C//DTD SVG 1.1//EN"
  "http://www.w3.org/Graphics/SVG/1.1/DTD/svg11.dtd">
<!-- Created with matplotlib (http://matplotlib.org/) -->
<svg height="227pt" version="1.1" viewBox="0 0 376 227" width="376pt" xmlns="http://www.w3.org/2000/svg" xmlns:xlink="http://www.w3.org/1999/xlink">
 <defs>
  <style type="text/css">
*{stroke-linecap:butt;stroke-linejoin:round;}
  </style>
 </defs>
 <g id="figure_1">
  <g id="patch_1">
   <path d="
M0 227.646
L376.267 227.646
L376.267 -2.84217e-14
L0 -2.84217e-14
z
" style="fill:#ffffff;"/>
  </g>
  <g id="axes_1">
   <g id="patch_2">
    <path d="
M29.4302 206.448
L364.23 206.448
L364.23 33.6484
L29.4302 33.6484
z
" style="fill:#ffffff;"/>
   </g>
   <g id="line2d_1">
    <path clip-path="url(#p04275b4917)" d="
M29.4302 120.048
L33.6257 97.9534
L36.143 86.1186
L37.8212 79.2389
L39.4994 73.3691
L40.3385 77.4588
L41.1776 68.6545
L42.0167 66.768
L42.8558 65.2117
L43.6949 63.9952
L44.534 63.1259
L45.3731 62.6094
L46.2122 62.4488
L47.0513 62.6451
L47.8904 63.1971
L48.7295 64.1013
L49.5686 65.3522
L50.4076 48.7059
L51.2467 68.8609
L52.0858 70.6184
L55.4422 82.9081
L56.2813 86.4861
L57.1204 75.5599
L57.9595 94.2426
L60.4768 107.01
L67.1896 142.561
L68.0287 189.114
L68.8678 156.659
L69.7069 154.344
L71.3851 161.177
L73.0633 166.992
L74.7415 171.645
L75.5806 196.13
L76.4197 175.022
L77.2588 176.204
L78.0979 177.038
L78.937 177.519
L79.7761 173.873
L80.6152 177.412
L81.4543 176.825
L82.2934 175.886
L83.1325 174.601
L83.9716 172.977
L84.8107 171.026
L86.4889 166.19
L88.167 160.213
L89.0061 156.841
L89.8452 170.042
L90.6843 149.435
L93.2016 137.026
L94.0407 130.444
L94.8798 128.184
L100.754 97.1185
L103.271 85.3899
L104.949 78.6039
L106.627 72.8435
L108.305 68.2513
L109.144 66.43
L109.984 64.941
L110.823 63.7933
L111.662 62.9943
L112.501 62.5488
L113.34 62.4595
L114.179 62.7271
L115.018 63.3499
L115.857 64.324
L116.696 65.6433
L117.535 67.2998
L118.375 80.5907
L119.214 71.581
L120.892 77.0616
L122.57 83.606
L123.409 46.199
L124.248 91.0522
L126.766 103.504
L129.283 116.875
L130.122 135.414
L130.961 125.934
L134.317 143.394
L135.157 123.345
L135.996 151.362
L137.674 158.557
L139.352 164.798
L141.03 169.931
L141.869 172.042
L142.708 173.831
L143.547 175.286
L144.387 176.399
L145.226 177.163
L146.065 177.573
L146.904 177.626
L147.743 177.323
L148.582 176.665
L149.421 175.656
L150.26 174.303
L151.099 172.613
L151.938 170.598
L153.617 165.642
L155.295 159.558
L156.973 152.496
L157.812 159.469
L158.651 144.631
L161.169 131.758
L167.881 96.2893
L170.399 84.6697
L172.077 77.9791
L173.755 72.3296
L175.433 67.861
L176.272 66.1053
L177.111 64.6839
L177.951 63.6055
L178.79 62.8768
L179.629 35.1647
L180.468 62.4845
L181.307 62.8233
L182.146 63.5168
L182.985 64.5605
L183.824 65.948
L184.663 67.6707
L185.502 76.8624
L186.341 72.0771
L188.02 77.6707
L189.698 84.3129
L191.376 91.8395
L193.893 104.375
L201.445 144.22
L202.284 154.963
L203.123 152.12
L204.802 159.226
L206.48 165.363
L207.319 168.02
L208.158 203.449
L208.997 172.426
L209.836 180.394
L210.675 175.536
L211.514 176.085
L212.354 177.273
L213.193 177.612
L214.032 177.594
L214.871 177.22
L215.71 176.491
L216.549 175.413
L217.388 173.991
L218.227 172.236
L219.066 170.157
L220.744 165.082
L222.423 158.893
L224.101 151.742
L226.618 139.607
L228.296 130.868
L229.135 129.615
L229.975 121.862
L234.17 99.6394
L236.687 87.6011
L237.526 57.6273
L238.366 80.5392
L240.044 74.4549
L240.883 79.4395
L241.722 69.499
L242.561 67.4836
L243.4 65.794
L244.239 79.5428
L245.078 63.4316
L245.917 62.7735
L246.757 62.4702
L247.596 62.5238
L248.435 62.9338
L249.274 63.6976
L250.113 64.8107
L250.952 66.266
L251.791 68.0546
L252.63 70.1653
L254.308 75.299
L255.987 81.5402
L257.665 88.7342
L260.182 100.917
L263.538 118.688
L264.378 123.221
L265.217 126.362
L266.056 132.201
L268.573 145.04
L270.251 152.869
L271.929 159.886
L272.769 163.035
L273.608 154.623
L274.447 168.516
L276.125 172.797
L276.964 174.453
L277.803 175.773
L278.642 176.747
L279.481 177.37
L280.32 177.637
L281.16 160.81
L281.999 177.102
L282.838 187.853
L283.677 175.156
L284.516 173.667
L285.355 171.845
L286.194 169.703
L287.872 164.511
L289.551 158.218
L291.229 150.981
L293.746 138.751
L295.424 129.976
L296.263 138.844
L297.102 120.955
L301.298 98.7938
L303.815 86.8557
L305.493 79.8841
L307.172 73.9063
L308.85 69.0704
L309.689 67.1193
L310.528 65.4961
L311.367 48.4764
L312.206 63.2717
L313.045 62.6843
L313.884 62.4524
L314.723 62.5773
L315.563 63.0584
L316.402 63.8925
L317.241 65.0746
L318.08 66.5974
L318.919 68.4513
L320.597 73.1049
L321.436 75.8757
L322.275 97.2587
L323.114 82.2194
L324.793 89.4994
L325.632 93.4349
L326.471 80.0042
L327.31 101.775
L331.505 124.127
L334.023 137.459
L334.862 149.64
L335.701 145.854
L337.379 153.611
L339.057 160.536
L340.735 166.46
L342.414 171.236
L343.253 173.155
L344.092 174.745
L344.931 175.995
L345.77 176.9
L346.609 177.452
L347.448 177.648
L348.287 177.487
L349.126 176.971
L349.966 176.102
L350.805 174.885
L351.644 173.329
L352.483 175.563
L353.322 169.237
L355 163.929
L356.678 157.534
L358.357 150.212
L360.874 137.891
L364.23 120.048
L364.23 120.048" style="fill:none;stroke:#348abd;stroke-linecap:square;stroke-width:2.0;"/>
   </g>
   <g id="line2d_2">
    <path clip-path="url(#p04275b4917)" d="
M31.1084 122.535
L33.6257 109.473
L36.143 97.6386
L37.8212 90.7589
L38.6603 88.9788
L39.4994 87.6881
L40.3385 84.8891
L41.1776 80.1745
L42.0167 78.288
L42.8558 76.7317
L43.6949 75.5152
L44.534 74.6459
L45.3731 74.1651
L47.0513 74.1651
L47.8904 74.7171
L48.7295 74.7171
L49.5686 75.6213
L50.4076 76.8722
L51.2467 80.3809
L52.0858 82.1384
L54.6031 91.0802
L55.4422 91.0802
L57.1204 98.0061
L57.9595 105.763
L60.4768 118.53
L67.1896 154.081
L68.0287 165.864
L68.8678 168.179
L69.7069 169.397
L70.546 169.397
L72.2242 175.741
L73.9024 180.992
L74.7415 183.165
L75.5806 186.542
L76.4197 187.724
L77.2588 188.558
L78.0979 187.724
L78.937 188.558
L79.7761 188.558
L80.6152 188.345
L81.4543 187.406
L82.2934 187.406
L83.1325 186.121
L83.9716 184.497
L84.8107 182.546
L86.4889 177.71
L87.3279 174.856
L88.167 174.856
L89.8452 168.361
L90.6843 160.955
L93.2016 148.546
L94.0407 141.964
L94.8798 139.704
L100.754 108.639
L103.271 96.9099
L104.949 90.1239
L106.627 84.3635
L108.305 79.7713
L109.144 77.95
L109.984 76.461
L110.823 75.3133
L111.662 74.5143
L112.501 74.2471
L114.179 74.2471
L115.018 74.8699
L115.857 75.844
L116.696 77.1633
L117.535 78.8198
L118.375 83.101
L120.053 88.5816
L121.731 88.5816
L123.409 95.126
L124.248 102.572
L126.766 115.024
L129.283 128.395
L130.122 137.454
L131.8 146.367
L133.478 146.367
L135.157 154.914
L135.996 162.882
L137.674 170.077
L139.352 176.318
L141.03 181.451
L141.869 183.562
L142.708 185.351
L143.547 186.806
L144.387 187.919
L145.226 188.683
L146.065 188.843
L147.743 188.843
L148.582 188.185
L149.421 187.176
L150.26 185.823
L151.099 184.133
L151.938 182.118
L153.617 177.162
L155.295 171.078
L156.134 170.989
L157.812 164.016
L158.651 156.151
L161.169 143.278
L167.881 107.809
L170.399 96.1897
L172.077 89.4991
L173.755 83.8496
L175.433 79.381
L176.272 77.6253
L177.111 76.2039
L177.951 75.1255
L178.79 74.3968
L181.307 74.3433
L182.146 75.0368
L182.985 76.0805
L183.824 77.468
L184.663 79.1907
L185.502 83.5971
L186.341 86.2535
L187.181 88.3824
L188.02 89.1907
L189.698 95.8329
L191.376 103.36
L193.893 115.895
L201.445 155.74
L202.284 163.64
L203.123 166.483
L203.963 167.304
L205.641 173.946
L207.319 179.54
L208.158 183.946
L208.997 187.056
L209.836 187.605
L210.675 187.605
L211.514 188.793
L214.871 188.74
L215.71 188.011
L216.549 186.933
L217.388 185.511
L218.227 183.756
L219.066 181.677
L220.744 176.602
L222.423 170.413
L224.101 163.262
L226.618 151.127
L228.296 142.388
L229.135 141.135
L229.975 133.382
L234.17 111.159
L236.687 99.1211
L237.526 92.0592
L238.366 88.8848
L240.044 88.8848
L240.883 85.9749
L241.722 81.019
L242.561 81.019
L243.4 79.0036
L244.239 77.314
L245.078 74.9516
L245.917 74.2935
L247.596 74.2935
L248.435 74.4538
L249.274 75.2176
L250.113 76.3307
L250.952 77.786
L251.791 79.5746
L252.63 81.6853
L254.308 86.819
L255.987 93.0602
L257.665 100.254
L260.182 112.437
L263.538 130.208
L264.378 134.741
L265.217 137.882
L266.056 143.721
L268.573 156.56
L270.251 164.389
L271.09 168.011
L271.929 168.011
L273.608 174.555
L274.447 180.036
L276.125 184.317
L276.964 185.973
L277.803 187.293
L278.642 188.267
L279.481 188.267
L281.16 188.89
L281.999 188.622
L282.838 186.676
L283.677 186.676
L284.516 185.187
L285.355 183.365
L286.194 181.223
L287.872 176.031
L289.551 169.738
L291.229 162.501
L293.746 150.271
L294.585 150.271
L296.263 141.496
L297.102 132.475
L301.298 110.314
L303.815 98.3757
L305.493 91.4041
L307.172 85.4263
L308.85 80.5904
L309.689 78.6393
L310.528 77.0161
L311.367 74.7917
L312.206 74.2043
L313.045 74.0973
L314.723 74.2043
L315.563 74.5784
L316.402 75.4125
L317.241 76.5946
L318.08 78.1174
L318.919 79.9713
L320.597 84.6249
L321.436 87.3957
L322.275 93.7394
L323.954 101.019
L324.793 97.2732
L326.471 104.955
L327.31 113.295
L331.505 135.647
L334.023 148.979
L334.862 157.374
L335.701 161.16
L336.54 161.345
L338.218 168.709
L339.896 175.153
L341.575 180.52
L342.414 182.756
L343.253 184.675
L344.092 186.265
L344.931 187.515
L345.77 188.42
L346.609 188.972
L348.287 188.972
L349.126 188.491
L349.966 187.622
L350.805 187.083
L351.644 186.405
L352.483 184.849
L353.322 180.757
L355 175.449
L356.678 169.054
L358.357 161.732
L360.874 149.411
L362.552 140.601
L362.552 140.601" style="fill:none;stroke:#a60628;stroke-linecap:square;stroke-width:2.0;"/>
   </g>
   <g id="line2d_3">
    <path clip-path="url(#p04275b4917)" d="
M31.1084 99.5512
L33.6257 86.5816
L36.143 74.82
L37.8212 67.9715
L38.6603 66.2395
L40.3385 60.9637
L41.1776 58.7725
L42.0167 56.8977
L42.8558 54.0311
L43.6949 52.8221
L44.534 51.9582
L45.3731 51.4449
L46.2122 51.2853
L47.0513 51.4803
L47.8904 52.0289
L48.7295 49.2803
L49.5686 50.5235
L50.4076 52.0077
L51.2467 53.9147
L52.0858 56.1369
L52.9249 62.3078
L54.6031 68.2908
L55.4422 68.6755
L57.1204 75.9939
L58.7986 84.0446
L59.6377 91.2254
L63.8332 113.48
L65.5114 122.362
L66.3505 135.179
L67.1896 140.605
L69.7069 152.314
L70.546 147.335
L71.3851 149.402
L73.0633 155.181
L73.9024 162.172
L74.7415 164.332
L75.5806 166.175
L76.4197 167.688
L77.2588 168.863
L78.0979 164.412
L78.937 164.89
L79.7761 165.014
L80.6152 164.783
L81.4543 164.199
L82.2934 164.02
L83.1325 162.743
L83.9716 161.13
L84.8107 159.191
L86.4889 154.385
L87.3279 151.548
L88.167 151.804
L89.8452 144.876
L91.5234 137.131
L92.3625 129.211
L96.558 107.627
L99.9144 89.9414
L102.432 77.7873
L104.11 70.5948
L105.788 64.3411
L107.466 59.1809
L108.305 57.0519
L109.144 55.2419
L109.984 53.762
L110.823 52.6215
L111.662 51.8274
L112.501 51.3846
L113.34 51.2959
L114.179 51.5618
L115.018 52.1808
L115.857 53.1488
L116.696 56.7215
L117.535 58.3678
L118.375 60.3388
L120.053 65.2046
L120.892 65.8076
L121.731 60.7312
L123.409 67.7049
L125.087 75.4856
L125.926 87.8249
L127.605 96.4505
L128.444 103.69
L131.8 121.639
L132.639 123.235
L133.478 122.717
L135.996 134.825
L136.835 138.508
L137.674 146.798
L139.352 153.001
L141.03 158.103
L141.869 160.2
L142.708 161.978
L143.547 163.424
L144.387 164.53
L145.226 165.289
L146.065 165.697
L146.904 165.75
L147.743 165.449
L148.582 164.795
L149.421 163.792
L150.26 162.447
L151.099 160.768
L151.938 158.765
L153.617 153.84
L155.295 147.793
L156.134 146.558
L157.812 139.118
L159.49 130.974
L160.329 124.538
L168.72 80.8879
L170.399 73.3687
L172.077 66.7195
L173.755 61.1049
L175.433 56.664
L176.272 54.9191
L177.111 53.5065
L177.951 46.9672
L178.79 46.2431
L179.629 45.871
L180.468 45.8532
L181.307 46.19
L182.146 52.3466
L182.985 53.3838
L183.824 56.1917
L184.663 57.9037
L185.502 59.9383
L187.181 64.9228
L188.02 66.4129
L189.698 73.0141
L191.376 80.4941
L193.893 92.9522
L199.767 124.105
L200.606 129.73
L203.123 141.743
L203.963 145.384
L204.802 147.464
L205.641 150.644
L206.48 160.177
L207.319 162.817
L208.158 166.41
L208.997 168.445
L209.836 170.058
L210.675 164.823
L211.514 165.86
L212.354 165.3
L213.193 165.637
L214.032 165.718
L214.871 165.346
L215.71 164.622
L216.549 163.55
L217.388 162.138
L218.227 160.393
L219.066 158.327
L220.744 153.283
L222.423 147.132
L224.101 140.026
L227.457 124.316
L230.814 106.471
L231.653 101.336
L235.009 84.0982
L235.848 74.8358
L237.526 67.3955
L238.366 63.9975
L239.205 62.3651
L240.044 64.7395
L241.722 59.8142
L242.561 60.8318
L243.4 57.6302
L244.239 56.2851
L245.078 55.2824
L245.917 54.6284
L246.757 51.3066
L247.596 51.3598
L248.435 51.7672
L249.274 52.5264
L250.113 53.6325
L250.952 55.0788
L251.791 56.8563
L252.63 58.954
L254.308 64.056
L255.987 70.2585
L257.665 77.408
L260.182 89.5157
L265.217 115.893
L268.573 133.365
L270.251 141.146
L271.09 144.745
L271.929 145.861
L273.608 151.855
L275.286 156.72
L276.125 160.95
L276.964 162.597
L277.803 163.908
L278.642 164.876
L279.481 162.147
L280.32 162.413
L281.16 164.635
L281.999 164.192
L282.838 163.398
L283.677 165.605
L284.516 164.125
L285.355 160.005
L286.194 157.876
L287.872 152.716
L289.551 146.462
L291.229 139.269
L293.746 127.115
L294.585 125.471
L297.941 107.597
L298.781 100.443
L302.137 83.286
L303.815 75.5412
L305.493 68.6126
L307.172 62.6719
L308.85 57.8659
L309.689 52.7799
L310.528 51.1668
L311.367 49.8896
L312.206 48.9562
L313.045 48.3724
L313.884 51.2888
L314.723 51.413
L315.563 51.891
L316.402 52.72
L317.241 53.8948
L318.08 55.4082
L318.919 57.2506
L319.758 59.4108
L320.597 65.5431
L322.275 71.3224
L323.954 78.1131
L324.793 74.6622
L327.31 86.8621
L328.149 91.1882
L328.988 99.1064
L332.344 117.06
L333.184 123.069
L335.701 135.758
L336.54 139.704
L337.379 141.883
L339.057 148.766
L340.735 154.653
L342.414 159.399
L343.253 161.306
L344.092 162.886
L344.931 164.129
L345.77 165.028
L346.609 165.576
L347.448 165.771
L348.287 165.612
L349.126 165.099
L349.966 164.235
L350.805 163.85
L351.644 162.303
L352.483 160.428
L354.161 155.743
L355 152.137
L356.678 145.782
L358.357 138.505
L360.874 126.26
L362.552 117.505
L362.552 117.505" style="fill:none;stroke:#7a68a6;stroke-linecap:square;stroke-width:2.0;"/>
   </g>
   <g id="patch_3">
    <path d="
M29.4302 33.6484
L364.23 33.6484" style="fill:none;stroke:#000000;stroke-linecap:square;stroke-linejoin:miter;"/>
   </g>
   <g id="patch_4">
    <path d="
M364.23 206.448
L364.23 33.6484" style="fill:none;stroke:#000000;stroke-linecap:square;stroke-linejoin:miter;"/>
   </g>
   <g id="patch_5">
    <path d="
M29.4302 206.448
L364.23 206.448" style="fill:none;stroke:#000000;stroke-linecap:square;stroke-linejoin:miter;"/>
   </g>
   <g id="patch_6">
    <path d="
M29.4302 206.448
L29.4302 33.6484" style="fill:none;stroke:#000000;stroke-linecap:square;stroke-linejoin:miter;"/>
   </g>
   <g id="matplotlib.axis_1">
    <g id="xtick_1">
     <g id="line2d_4">
      <defs>
       <path d="
M0 0
L0 -4" id="m93b0483c22" style="stroke:#000000;stroke-width:0.5;"/>
      </defs>
      <g>
       <use style="stroke:#000000;stroke-width:0.5;" x="29.430205" xlink:href="#m93b0483c22" y="206.448361875"/>
      </g>
     </g>
     <g id="line2d_5">
      <defs>
       <path d="
M0 0
L0 4" id="m741efc42ff" style="stroke:#000000;stroke-width:0.5;"/>
      </defs>
      <g>
       <use style="stroke:#000000;stroke-width:0.5;" x="29.430205" xlink:href="#m741efc42ff" y="33.648361875"/>
      </g>
     </g>
     <g id="text_1">
      <!-- 0 -->
      <defs>
       <path d="
M50.3906 35.7969
Q50.3906 27.1562 49.1406 20.3125
Q47.9062 13.4844 45.1406 8.73438
Q42.3906 4 38.0312 1.5
Q33.6875 -0.984375 27.4844 -0.984375
Q21.7344 -0.984375 17.4531 1.5
Q13.1875 4 10.375 8.73438
Q7.5625 13.4844 6.17188 20.3125
Q4.78125 27.1562 4.78125 35.7969
Q4.78125 44.4375 6.03125 51.2656
Q7.28125 58.1094 9.98438 62.8125
Q12.7031 67.5312 17.0156 70.0156
Q21.3438 72.5156 27.4844 72.5156
Q33.2969 72.5156 37.5938 70.0469
Q41.8906 67.5781 44.7188 62.8594
Q47.5625 58.1562 48.9688 51.3125
Q50.3906 44.4844 50.3906 35.7969
M13.8125 35.7969
Q13.8125 28.4688 14.5469 23
Q15.2812 17.5312 16.8906 13.8906
Q18.5 10.25 21.1094 8.42188
Q23.7344 6.59375 27.4844 6.59375
Q31.25 6.59375 33.8906 8.39062
Q36.5312 10.2031 38.2031 13.8125
Q39.8906 17.4375 40.6406 22.9219
Q41.4062 28.4219 41.4062 35.7969
Q41.4062 43.1094 40.6406 48.5781
Q39.8906 54.0469 38.2031 57.6562
Q36.5312 61.2812 33.8906 63.0781
Q31.25 64.8906 27.4844 64.8906
Q23.7344 64.8906 21.1094 63.0781
Q18.5 61.2812 16.8906 57.6562
Q15.2812 54.0469 14.5469 48.5781
Q13.8125 43.1094 13.8125 35.7969" id="WenQuanYiMicroHei-30"/>
      </defs>
      <g transform="translate(27.1506484375 218.04376)scale(0.09996 -0.09996)">
       <use xlink:href="#WenQuanYiMicroHei-30"/>
      </g>
     </g>
    </g>
    <g id="xtick_2">
     <g id="line2d_6">
      <g>
       <use style="stroke:#000000;stroke-width:0.5;" x="96.390205" xlink:href="#m93b0483c22" y="206.448361875"/>
      </g>
     </g>
     <g id="line2d_7">
      <g>
       <use style="stroke:#000000;stroke-width:0.5;" x="96.390205" xlink:href="#m741efc42ff" y="33.648361875"/>
      </g>
     </g>
     <g id="text_2">
      <!-- 2 -->
      <defs>
       <path d="
M49.2188 0
L4.6875 0
L4.6875 7.625
L21.7812 26.2188
Q25.4375 30.1719 28.3125 33.4375
Q31.2031 36.7188 33.2188 39.8438
Q35.25 42.9688 36.3281 46.1094
Q37.4062 49.2656 37.4062 52.9844
Q37.4062 55.8594 36.5781 58.0469
Q35.75 60.25 34.2031 61.7812
Q32.6719 63.3281 30.5625 64.1094
Q28.4688 64.8906 25.875 64.8906
Q21.2344 64.8906 17.5 63.0156
Q13.7656 61.1406 10.4062 58.2031
L5.42188 64.0156
Q7.375 65.7656 9.60938 67.2969
Q11.8594 68.8438 14.4531 69.9688
Q17.0469 71.0938 19.9219 71.75
Q22.7969 72.4062 25.9844 72.4062
Q30.6719 72.4062 34.4531 71.0938
Q38.2344 69.7812 40.8594 67.3125
Q43.5 64.8438 44.9375 61.2969
Q46.3906 57.7656 46.3906 53.3281
Q46.3906 49.1719 45.0938 45.4062
Q43.7969 41.6562 41.5312 38.0156
Q39.2656 34.375 36.1094 30.7031
Q32.9531 27.0469 29.2969 23.0938
L15.5781 8.5
L15.5781 8.10938
L49.2188 8.10938
z
" id="WenQuanYiMicroHei-32"/>
      </defs>
      <g transform="translate(94.164533125 218.04376)scale(0.09996 -0.09996)">
       <use xlink:href="#WenQuanYiMicroHei-32"/>
      </g>
     </g>
    </g>
    <g id="xtick_3">
     <g id="line2d_8">
      <g>
       <use style="stroke:#000000;stroke-width:0.5;" x="163.350205" xlink:href="#m93b0483c22" y="206.448361875"/>
      </g>
     </g>
     <g id="line2d_9">
      <g>
       <use style="stroke:#000000;stroke-width:0.5;" x="163.350205" xlink:href="#m741efc42ff" y="33.648361875"/>
      </g>
     </g>
     <g id="text_3">
      <!-- 4 -->
      <defs>
       <path d="
M53.0781 16.0156
L42.6719 16.0156
L42.6719 0
L34.0781 0
L34.0781 16.0156
L1.125 16.0156
L1.125 23.7812
L33.5 71.7812
L42.6719 71.7812
L42.6719 24.125
L53.0781 24.125
z

M34.0781 24.125
L34.0781 41.5
Q34.0781 44.2344 34.1562 47.2344
Q34.2344 50.25 34.3281 53.0938
Q34.4219 55.9531 34.5469 58.4375
Q34.6719 60.9375 34.7188 62.5938
L34.2812 62.5938
Q33.9375 61.625 33.4219 60.4219
Q32.9062 59.2344 32.2969 58.0312
Q31.6875 56.8438 31.0469 55.7188
Q30.4219 54.5938 29.8906 53.8125
L9.8125 24.125
z
" id="WenQuanYiMicroHei-34"/>
      </defs>
      <g transform="translate(160.753587813 218.04376)scale(0.09996 -0.09996)">
       <use xlink:href="#WenQuanYiMicroHei-34"/>
      </g>
     </g>
    </g>
    <g id="xtick_4">
     <g id="line2d_10">
      <g>
       <use style="stroke:#000000;stroke-width:0.5;" x="230.310205" xlink:href="#m93b0483c22" y="206.448361875"/>
      </g>
     </g>
     <g id="line2d_11">
      <g>
       <use style="stroke:#000000;stroke-width:0.5;" x="230.310205" xlink:href="#m741efc42ff" y="33.648361875"/>
      </g>
     </g>
     <g id="text_4">
      <!-- 6 -->
      <defs>
       <path d="
M5.51562 30.5156
Q5.51562 35.6406 6.03125 40.7188
Q6.54688 45.7969 7.82812 50.4531
Q9.125 55.125 11.375 59.125
Q13.625 63.1406 17.0938 66.0938
Q20.5625 69.0469 25.3906 70.7188
Q30.2188 72.4062 36.7188 72.4062
Q37.6406 72.4062 38.7656 72.3594
Q39.8906 72.3125 41.0312 72.1875
Q42.1875 72.0781 43.2344 71.9062
Q44.2812 71.7344 45.125 71.4844
L45.125 63.9219
Q43.4062 64.5 41.25 64.7969
Q39.1094 65.0938 37.0156 65.0938
Q32.625 65.0938 29.2656 64.0312
Q25.9219 62.9844 23.4844 61.0781
Q21.0469 59.1875 19.4062 56.5469
Q17.7812 53.9062 16.75 50.7031
Q15.7188 47.5156 15.2344 43.8906
Q14.75 40.2812 14.5938 36.375
L15.1875 36.375
Q16.1562 38.1406 17.5469 39.6719
Q18.9531 41.2188 20.7969 42.3125
Q22.6562 43.4062 24.9688 44.0312
Q27.2969 44.6719 30.1719 44.6719
Q34.8125 44.6719 38.5625 43.2344
Q42.3281 41.7969 44.9688 39.0156
Q47.6094 36.2344 49.0469 32.2031
Q50.4844 28.1719 50.4844 23
Q50.4844 17.4375 48.9688 12.9844
Q47.4688 8.54688 44.625 5.4375
Q41.7969 2.34375 37.7969 0.671875
Q33.7969 -0.984375 28.8125 -0.984375
Q23.9219 -0.984375 19.6406 0.921875
Q15.375 2.82812 12.25 6.73438
Q9.125 10.6406 7.3125 16.5469
Q5.51562 22.4688 5.51562 30.5156
M28.7188 6.5
Q31.6406 6.5 34.0469 7.5
Q36.4688 8.5 38.2188 10.5156
Q39.9844 12.5469 40.9375 15.6406
Q41.8906 18.75 41.8906 23
Q41.8906 26.4219 41.0781 29.125
Q40.2812 31.8438 38.6719 33.7344
Q37.0625 35.6406 34.6406 36.6719
Q32.2344 37.7031 29 37.7031
Q25.7344 37.7031 23.0156 36.5469
Q20.3125 35.4062 18.4062 33.5625
Q16.5 31.7344 15.4531 29.3906
Q14.4062 27.0469 14.4062 24.7031
Q14.4062 21.4375 15.3125 18.1875
Q16.2188 14.9375 18 12.3438
Q19.7812 9.76562 22.4531 8.125
Q25.1406 6.5 28.7188 6.5" id="WenQuanYiMicroHei-36"/>
      </defs>
      <g transform="translate(228.062666875 218.04376)scale(0.09996 -0.09996)">
       <use xlink:href="#WenQuanYiMicroHei-36"/>
      </g>
     </g>
    </g>
    <g id="xtick_5">
     <g id="line2d_12">
      <g>
       <use style="stroke:#000000;stroke-width:0.5;" x="297.270205" xlink:href="#m93b0483c22" y="206.448361875"/>
      </g>
     </g>
     <g id="line2d_13">
      <g>
       <use style="stroke:#000000;stroke-width:0.5;" x="297.270205" xlink:href="#m741efc42ff" y="33.648361875"/>
      </g>
     </g>
     <g id="text_5">
      <!-- 8 -->
      <defs>
       <path d="
M27.5938 72.5156
Q31.6875 72.5156 35.3281 71.4375
Q38.9688 70.3594 41.7188 68.2031
Q44.4844 66.0625 46.0938 62.8438
Q47.7031 59.625 47.7031 55.3281
Q47.7031 52.0469 46.7188 49.4062
Q45.75 46.7812 44.0312 44.6562
Q42.3281 42.5312 39.9844 40.8438
Q37.6406 39.1562 34.9062 37.7969
Q37.75 36.2812 40.4531 34.4219
Q43.1719 32.5625 45.2812 30.25
Q47.4062 27.9375 48.7031 25.0469
Q50 22.1719 50 18.6094
Q50 14.1094 48.3594 10.4688
Q46.7344 6.84375 43.7812 4.29688
Q40.8281 1.76562 36.6875 0.390625
Q32.5625 -0.984375 27.5938 -0.984375
Q22.2188 -0.984375 18.0469 0.328125
Q13.875 1.65625 11.0156 4.125
Q8.15625 6.59375 6.65625 10.1562
Q5.17188 13.7188 5.17188 18.2188
Q5.17188 21.875 6.26562 24.7969
Q7.375 27.7344 9.21875 30.0781
Q11.0781 32.4219 13.6094 34.2188
Q16.1562 36.0312 19 37.4062
Q16.6094 38.9219 14.5 40.7031
Q12.4062 42.4844 10.8594 44.6719
Q9.32812 46.875 8.42188 49.5312
Q7.51562 52.2031 7.51562 55.4219
Q7.51562 59.6719 9.15625 62.8594
Q10.7969 66.0625 13.5781 68.2031
Q16.3594 70.3594 20 71.4375
Q23.6406 72.5156 27.5938 72.5156
M13.9219 18.1094
Q13.9219 15.5312 14.7031 13.3594
Q15.4844 11.1875 17.1406 9.64062
Q18.7969 8.10938 21.3281 7.25
Q23.875 6.39062 27.3906 6.39062
Q30.8125 6.39062 33.4219 7.25
Q36.0312 8.10938 37.7812 9.6875
Q39.5469 11.2812 40.4219 13.5156
Q41.3125 15.7656 41.3125 18.5
Q41.3125 21.0469 40.3594 23.0938
Q39.4062 25.1406 37.625 26.8906
Q35.8438 28.6562 33.3438 30.2188
Q30.8594 31.7812 27.7812 33.2969
L26.3125 33.9844
Q20.1719 31.0625 17.0469 27.2656
Q13.9219 23.4844 13.9219 18.1094
M27.4844 65.0938
Q22.3125 65.0938 19.2656 62.5
Q16.2188 59.9062 16.2188 54.9844
Q16.2188 52.2031 17.0625 50.1875
Q17.9219 48.1875 19.4375 46.625
Q20.9531 45.0625 23.0781 43.8125
Q25.2031 42.5781 27.6875 41.4062
Q30.0312 42.4844 32.1094 43.75
Q34.1875 45.0156 35.7188 46.625
Q37.25 48.25 38.125 50.2969
Q39.0156 52.3438 39.0156 54.9844
Q39.0156 59.9062 35.9375 62.5
Q32.8594 65.0938 27.4844 65.0938" id="WenQuanYiMicroHei-38"/>
      </defs>
      <g transform="translate(295.029695313 218.04376)scale(0.09996 -0.09996)">
       <use xlink:href="#WenQuanYiMicroHei-38"/>
      </g>
     </g>
    </g>
    <g id="xtick_6">
     <g id="line2d_14">
      <g>
       <use style="stroke:#000000;stroke-width:0.5;" x="364.230205" xlink:href="#m93b0483c22" y="206.448361875"/>
      </g>
     </g>
     <g id="line2d_15">
      <g>
       <use style="stroke:#000000;stroke-width:0.5;" x="364.230205" xlink:href="#m741efc42ff" y="33.648361875"/>
      </g>
     </g>
     <g id="text_6">
      <!-- 10 -->
      <defs>
       <path d="
M34.7188 0
L26.125 0
L26.125 44.5781
Q26.125 46.6875 26.1406 49.0781
Q26.1719 51.4688 26.2344 53.8281
Q26.3125 56.2031 26.3906 58.375
Q26.4688 60.5469 26.5156 62.2031
Q25.6875 61.3281 25.0469 60.6875
Q24.4219 60.0625 23.75 59.4688
Q23.0938 58.8906 22.3594 58.2188
Q21.625 57.5625 20.6094 56.6875
L13.375 50.7812
L8.6875 56.7812
L27.3906 71.3906
L34.7188 71.3906
z
" id="WenQuanYiMicroHei-31"/>
      </defs>
      <g transform="translate(359.393078125 218.04376)scale(0.09996 -0.09996)">
       <use xlink:href="#WenQuanYiMicroHei-31"/>
       <use x="55.078125" xlink:href="#WenQuanYiMicroHei-30"/>
      </g>
     </g>
    </g>
   </g>
   <g id="matplotlib.axis_2">
    <g id="ytick_1">
     <g id="line2d_16">
      <defs>
       <path d="
M0 0
L4 0" id="m728421d6d4" style="stroke:#000000;stroke-width:0.5;"/>
      </defs>
      <g>
       <use style="stroke:#000000;stroke-width:0.5;" x="29.430205" xlink:href="#m728421d6d4" y="206.448361875"/>
      </g>
     </g>
     <g id="line2d_17">
      <defs>
       <path d="
M0 0
L-4 0" id="mcb0005524f" style="stroke:#000000;stroke-width:0.5;"/>
      </defs>
      <g>
       <use style="stroke:#000000;stroke-width:0.5;" x="364.230205" xlink:href="#mcb0005524f" y="206.448361875"/>
      </g>
     </g>
     <g id="text_7">
      <!-- −1.5 -->
      <defs>
       <path d="
M4.98438 31.5938
L4.98438 38.9219
L50.0938 38.9219
L50.0938 31.5938
z
" id="WenQuanYiMicroHei-2212"/>
       <path d="
M26.6094 43.7969
Q31.4531 43.7969 35.625 42.4531
Q39.7969 41.1094 42.8906 38.4688
Q46 35.8438 47.75 31.9375
Q49.5156 28.0312 49.5156 22.9062
Q49.5156 17.3281 47.8438 12.8906
Q46.1875 8.45312 42.9219 5.375
Q39.6562 2.29688 34.8438 0.65625
Q30.0312 -0.984375 23.7812 -0.984375
Q21.2969 -0.984375 18.875 -0.734375
Q16.4531 -0.484375 14.2344 -0.015625
Q12.0156 0.4375 10.0156 1.17188
Q8.01562 1.90625 6.39062 2.875
L6.39062 11.2812
Q8.01562 10.1562 10.1875 9.28125
Q12.3594 8.40625 14.75 7.8125
Q17.1406 7.23438 19.5469 6.90625
Q21.9688 6.59375 24.0312 6.59375
Q27.875 6.59375 30.9062 7.5
Q33.9375 8.40625 36.0312 10.2969
Q38.1406 12.2031 39.25 15.0781
Q40.375 17.9688 40.375 21.9219
Q40.375 28.9062 36.0781 32.5938
Q31.7812 36.2812 23.5781 36.2812
Q22.2656 36.2812 20.7188 36.1562
Q19.1875 36.0312 17.6406 35.8281
Q16.1094 35.6406 14.7188 35.4219
Q13.3281 35.2031 12.3125 35.0156
L7.90625 37.7969
L10.5938 71.3906
L44.2812 71.3906
L44.2812 63.2812
L18.3125 63.2812
L16.4062 42.8281
Q17.9688 43.1094 20.5312 43.4531
Q23.0938 43.7969 26.6094 43.7969" id="WenQuanYiMicroHei-35"/>
       <path d="
M7.17188 5.42188
Q7.17188 7.28125 7.65625 8.5625
Q8.15625 9.85938 8.98438 10.6562
Q9.8125 11.4688 10.9375 11.8281
Q12.0625 12.2031 13.375 12.2031
Q14.6562 12.2031 15.7969 11.8281
Q16.9375 11.4688 17.7656 10.6562
Q18.6094 9.85938 19.0938 8.5625
Q19.5781 7.28125 19.5781 5.42188
Q19.5781 3.60938 19.0938 2.3125
Q18.6094 1.03125 17.7656 0.1875
Q16.9375 -0.640625 15.7969 -1.03125
Q14.6562 -1.42188 13.375 -1.42188
Q12.0625 -1.42188 10.9375 -1.03125
Q9.8125 -0.640625 8.98438 0.1875
Q8.15625 1.03125 7.65625 2.3125
Q7.17188 3.60938 7.17188 5.42188" id="WenQuanYiMicroHei-2e"/>
      </defs>
      <g transform="translate(7.287465 209.044979063)scale(0.09996 -0.09996)">
       <use xlink:href="#WenQuanYiMicroHei-2212"/>
       <use x="55.078125" xlink:href="#WenQuanYiMicroHei-31"/>
       <use x="110.15625" xlink:href="#WenQuanYiMicroHei-2e"/>
       <use x="136.962890625" xlink:href="#WenQuanYiMicroHei-35"/>
      </g>
     </g>
    </g>
    <g id="ytick_2">
     <g id="line2d_18">
      <g>
       <use style="stroke:#000000;stroke-width:0.5;" x="29.430205" xlink:href="#m728421d6d4" y="177.648361875"/>
      </g>
     </g>
     <g id="line2d_19">
      <g>
       <use style="stroke:#000000;stroke-width:0.5;" x="364.230205" xlink:href="#mcb0005524f" y="177.648361875"/>
      </g>
     </g>
     <g id="text_8">
      <!-- −1.0 -->
      <g transform="translate(7.2 180.244979063)scale(0.09996 -0.09996)">
       <use xlink:href="#WenQuanYiMicroHei-2212"/>
       <use x="55.078125" xlink:href="#WenQuanYiMicroHei-31"/>
       <use x="110.15625" xlink:href="#WenQuanYiMicroHei-2e"/>
       <use x="136.962890625" xlink:href="#WenQuanYiMicroHei-30"/>
      </g>
     </g>
    </g>
    <g id="ytick_3">
     <g id="line2d_20">
      <g>
       <use style="stroke:#000000;stroke-width:0.5;" x="29.430205" xlink:href="#m728421d6d4" y="148.848361875"/>
      </g>
     </g>
     <g id="line2d_21">
      <g>
       <use style="stroke:#000000;stroke-width:0.5;" x="364.230205" xlink:href="#mcb0005524f" y="148.848361875"/>
      </g>
     </g>
     <g id="text_9">
      <!-- −0.5 -->
      <g transform="translate(7.287465 151.444979063)scale(0.09996 -0.09996)">
       <use xlink:href="#WenQuanYiMicroHei-2212"/>
       <use x="55.078125" xlink:href="#WenQuanYiMicroHei-30"/>
       <use x="110.15625" xlink:href="#WenQuanYiMicroHei-2e"/>
       <use x="136.962890625" xlink:href="#WenQuanYiMicroHei-35"/>
      </g>
     </g>
    </g>
    <g id="ytick_4">
     <g id="line2d_22">
      <g>
       <use style="stroke:#000000;stroke-width:0.5;" x="29.430205" xlink:href="#m728421d6d4" y="120.048361875"/>
      </g>
     </g>
     <g id="line2d_23">
      <g>
       <use style="stroke:#000000;stroke-width:0.5;" x="364.230205" xlink:href="#mcb0005524f" y="120.048361875"/>
      </g>
     </g>
     <g id="text_10">
      <!-- 0.0 -->
      <g transform="translate(12.685305 122.644979063)scale(0.09996 -0.09996)">
       <use xlink:href="#WenQuanYiMicroHei-30"/>
       <use x="55.078125" xlink:href="#WenQuanYiMicroHei-2e"/>
       <use x="81.884765625" xlink:href="#WenQuanYiMicroHei-30"/>
      </g>
     </g>
    </g>
    <g id="ytick_5">
     <g id="line2d_24">
      <g>
       <use style="stroke:#000000;stroke-width:0.5;" x="29.430205" xlink:href="#m728421d6d4" y="91.248361875"/>
      </g>
     </g>
     <g id="line2d_25">
      <g>
       <use style="stroke:#000000;stroke-width:0.5;" x="364.230205" xlink:href="#mcb0005524f" y="91.248361875"/>
      </g>
     </g>
     <g id="text_11">
      <!-- 0.5 -->
      <g transform="translate(12.77277 93.8449790625)scale(0.09996 -0.09996)">
       <use xlink:href="#WenQuanYiMicroHei-30"/>
       <use x="55.078125" xlink:href="#WenQuanYiMicroHei-2e"/>
       <use x="81.884765625" xlink:href="#WenQuanYiMicroHei-35"/>
      </g>
     </g>
    </g>
    <g id="ytick_6">
     <g id="line2d_26">
      <g>
       <use style="stroke:#000000;stroke-width:0.5;" x="29.430205" xlink:href="#m728421d6d4" y="62.448361875"/>
      </g>
     </g>
     <g id="line2d_27">
      <g>
       <use style="stroke:#000000;stroke-width:0.5;" x="364.230205" xlink:href="#mcb0005524f" y="62.448361875"/>
      </g>
     </g>
     <g id="text_12">
      <!-- 1.0 -->
      <g transform="translate(13.07577375 65.0449790625)scale(0.09996 -0.09996)">
       <use xlink:href="#WenQuanYiMicroHei-31"/>
       <use x="55.078125" xlink:href="#WenQuanYiMicroHei-2e"/>
       <use x="81.884765625" xlink:href="#WenQuanYiMicroHei-30"/>
      </g>
     </g>
    </g>
    <g id="ytick_7">
     <g id="line2d_28">
      <g>
       <use style="stroke:#000000;stroke-width:0.5;" x="29.430205" xlink:href="#m728421d6d4" y="33.648361875"/>
      </g>
     </g>
     <g id="line2d_29">
      <g>
       <use style="stroke:#000000;stroke-width:0.5;" x="364.230205" xlink:href="#mcb0005524f" y="33.648361875"/>
      </g>
     </g>
     <g id="text_13">
      <!-- 1.5 -->
      <g transform="translate(13.16323875 36.2449790625)scale(0.09996 -0.09996)">
       <use xlink:href="#WenQuanYiMicroHei-31"/>
       <use x="55.078125" xlink:href="#WenQuanYiMicroHei-2e"/>
       <use x="81.884765625" xlink:href="#WenQuanYiMicroHei-35"/>
      </g>
     </g>
    </g>
   </g>
   <g id="legend_1">
    <g id="patch_7">
     <path d="
M34.4282 25.1944
L282.384 25.1944
L282.384 7.2
L34.4282 7.2
z
" style="fill:#ffffff;stroke:#000000;stroke-linejoin:miter;"/>
    </g>
    <g id="line2d_30">
     <path d="
M41.4254 15.2952
L55.4198 15.2952" style="fill:none;stroke:#348abd;stroke-linecap:square;stroke-width:2.0;"/>
    </g>
    <g id="line2d_31"/>
    <g id="text_14">
     <!-- 噪声信号 -->
     <defs>
      <path d="
M24.6094 80.8594
L32.4219 78.5156
Q29.2969 69.5312 25.3906 60.5469
L25.3906 -8.98438
L17.5781 -8.98438
L17.5781 45.7031
Q12.8906 38.2812 7.8125 32.0312
L3.90625 39.8438
Q18.3594 59.375 24.6094 80.8594
M32.8125 69.5312
L60.5469 69.5312
Q58.5938 74.2188 56.25 78.125
L64.4531 80.8594
Q67.5781 75.7812 69.5312 69.5312
L94.9219 69.5312
L94.9219 62.1094
L32.8125 62.1094
z

M37.8906 54.2969
L89.4531 54.2969
L89.4531 47.2656
L37.8906 47.2656
z

M37.8906 39.4531
L89.4531 39.4531
L89.4531 32.4219
L37.8906 32.4219
z

M88.6719 24.6094
L88.6719 -8.20312
L80.8594 -8.20312
L80.8594 -3.51562
L46.4844 -3.51562
L46.4844 -8.59375
L38.6719 -8.59375
L38.6719 24.6094
z

M46.4844 3.51562
L80.8594 3.51562
L80.8594 17.5781
L46.4844 17.5781
z
" id="WenQuanYiMicroHei-4fe1"/>
      <path d="
M6.25 73.8281
L46.4844 73.8281
L46.4844 81.25
L54.2969 81.25
L54.2969 73.8281
L93.75 73.8281
L93.75 66.4062
L54.2969 66.4062
L54.2969 58.2031
L87.5 58.2031
L87.5 50.7812
L13.2812 50.7812
L13.2812 58.2031
L46.4844 58.2031
L46.4844 66.4062
L6.25 66.4062
z

M80.8594 17.1875
L21.875 17.1875
Q21.0938 0 10.5469 -9.76562
L5.07812 -3.125
Q14.0625 5.46875 14.0625 25
L14.0625 44.5312
L88.6719 44.5312
L88.6719 10.1562
L80.8594 10.1562
z

M80.8594 37.1094
L55.4688 37.1094
L55.4688 24.6094
L80.8594 24.6094
z

M21.875 24.6094
L47.6562 24.6094
L47.6562 37.1094
L21.875 37.1094
z
" id="WenQuanYiMicroHei-58f0"/>
      <path d="
M42.1875 78.9062
L83.9844 78.9062
L83.9844 58.5938
L42.1875 58.5938
z

M50 65.2344
L76.1719 65.2344
L76.1719 72.2656
L50 72.2656
z

M34.7656 53.125
L60.1562 53.125
L60.1562 31.6406
L34.7656 31.6406
z

M42.1875 38.2812
L52.7344 38.2812
L52.7344 46.875
L42.1875 46.875
z

M66.4062 53.125
L91.7969 53.125
L91.7969 31.6406
L66.4062 31.6406
z

M73.8281 38.2812
L84.375 38.2812
L84.375 46.875
L73.8281 46.875
z

M33.9844 24.2188
L60.1562 24.2188
L60.1562 28.9062
L67.5781 28.9062
L67.5781 24.2188
L94.9219 24.2188
L94.9219 17.5781
L71.875 17.5781
Q81.6406 6.25 96.4844 1.17188
L92.5781 -6.25
Q78.125 0.390625 67.5781 13.2812
L67.5781 -8.98438
L60.1562 -8.98438
L60.1562 12.8906
Q50.7812 1.95312 35.1562 -5.46875
L30.0781 0.78125
Q45.3125 7.03125 55.8594 17.5781
L33.9844 17.5781
z

M30.0781 71.875
L30.0781 10.5469
L23.0469 10.5469
L23.0469 17.1875
L15.2344 17.1875
L15.2344 7.03125
L8.20312 7.03125
L8.20312 71.875
z

M15.2344 23.8281
L23.0469 23.8281
L23.0469 65.2344
L15.2344 65.2344
z
" id="WenQuanYiMicroHei-566a"/>
      <path d="
M16.4062 77.3438
L81.25 77.3438
L81.25 50.3906
L16.4062 50.3906
z

M24.2188 57.8125
L73.4375 57.8125
L73.4375 69.9219
L24.2188 69.9219
z

M5.07812 43.3594
L94.9219 43.3594
L94.9219 35.9375
L31.6406 35.9375
L28.5156 23.4375
L83.5938 23.4375
Q82.4219 1.5625 79.2969 -3.70312
Q76.1719 -8.98438 69.5312 -8.98438
Q60.1562 -8.98438 48.8281 -8.20312
L47.2656 -0.390625
Q59.7656 -1.17188 68.75 -1.17188
Q71.4844 -1.17188 72.8438 1.35938
Q74.2188 3.90625 75 16.0156
L17.9688 16.0156
L23.4375 35.9375
L5.07812 35.9375
z
" id="WenQuanYiMicroHei-53f7"/>
     </defs>
     <g transform="translate(66.415405 18.793798125)scale(0.09996 -0.09996)">
      <use xlink:href="#WenQuanYiMicroHei-566a"/>
      <use x="100.0" xlink:href="#WenQuanYiMicroHei-58f0"/>
      <use x="200.0" xlink:href="#WenQuanYiMicroHei-4fe1"/>
      <use x="300.0" xlink:href="#WenQuanYiMicroHei-53f7"/>
     </g>
    </g>
    <g id="line2d_32">
     <path d="
M128.063 15.2952
L142.057 15.2952" style="fill:none;stroke:#a60628;stroke-linecap:square;stroke-width:2.0;"/>
    </g>
    <g id="line2d_33"/>
    <g id="text_15">
     <!-- 中值滤波 -->
     <defs>
      <path d="
M16.4062 80.4688
Q26.5625 75.3906 35.1562 68.75
L29.6875 62.1094
Q20.7031 69.5312 10.9375 75
z

M11.7188 57.0312
Q21.0938 52.3438 29.2969 46.0938
L23.8281 39.4531
Q15.625 46.4844 6.25 51.5625
z

M23.8281 31.6406
L30.4688 26.5625
Q24.2188 8.20312 12.5 -8.98438
L5.07812 -3.51562
Q16.7969 13.2812 23.8281 31.6406
M61.3281 68.3594
L61.3281 80.8594
L69.1406 80.8594
L69.1406 68.3594
L92.5781 68.3594
L92.5781 61.3281
Q92.5781 60.9375 90.625 55.6562
Q88.6719 50.3906 86.7188 46.0938
L79.2969 48.4375
Q82.0312 54.6875 83.9844 60.9375
L69.1406 60.9375
L69.1406 41.7969
L89.4531 41.7969
Q87.5 23.0469 74.6094 8.98438
Q82.8125 3.125 95.3125 -1.95312
L89.4531 -9.375
Q77.7344 -3.90625 68.75 3.51562
Q59.375 -3.90625 46.875 -8.59375
L42.9688 -1.17188
Q54.6875 2.73438 62.8906 8.98438
Q55.4688 16.0156 50 26.1719
L55.8594 30.4688
Q61.3281 20.7031 68.75 14.0625
Q77.7344 23.4375 80.0781 34.7656
L48.4375 34.7656
L48.4375 32.4219
Q48.4375 9.375 35.1562 -8.98438
L28.125 -4.6875
Q35.5469 6.25 38.4688 14.8438
Q41.4062 23.4375 41.4062 35.5469
L41.4062 68.3594
z

M48.4375 41.7969
L61.3281 41.7969
L61.3281 60.9375
L48.4375 60.9375
z
" id="WenQuanYiMicroHei-6ce2"/>
      <path d="
M89.4531 66.0156
L89.4531 17.9688
L81.6406 17.9688
L81.6406 24.2188
L53.5156 24.2188
L53.5156 -9.76562
L45.7031 -9.76562
L45.7031 24.2188
L18.75 24.2188
L18.75 17.1875
L10.9375 17.1875
L10.9375 66.0156
L45.7031 66.0156
L45.7031 81.25
L53.5156 81.25
L53.5156 66.0156
z

M18.75 31.6406
L45.7031 31.6406
L45.7031 58.5938
L18.75 58.5938
z

M53.5156 58.5938
L53.5156 31.6406
L81.6406 31.6406
L81.6406 58.5938
z
" id="WenQuanYiMicroHei-4e2d"/>
      <path d="
M69.5312 25
Q73.4375 19.1406 75.7812 11.7188
L68.75 9.375
Q66.7969 16.7969 62.5 23.0469
z

M83.9844 22.2656
Q91.0156 13.2812 95.3125 3.125
L88.6719 -0.78125
Q84.375 9.375 77.7344 18.3594
z

M52.7344 21.875
L60.5469 21.875
L60.5469 3.125
Q60.5469 -0.390625 63.6719 -0.390625
Q71.4844 -0.390625 73.0469 0.78125
Q74.6094 1.95312 75.3906 8.59375
L82.8125 6.64062
Q82.0312 -1.95312 79.2969 -5.07812
Q76.9531 -7.8125 63.6719 -7.8125
Q56.25 -7.8125 54.4844 -6.04688
Q52.7344 -4.29688 52.7344 0.78125
z

M43.3594 21.0938
L50 18.75
Q46.4844 4.29688 41.7969 -5.85938
L34.375 -1.95312
Q40.2344 9.76562 43.3594 21.0938
M75 50.7812
L75.7812 44.1406
L57.0312 41.7969
L57.0312 38.2812
Q57.0312 37.1094 58.9844 36.3281
Q60.9375 35.5469 64.4531 35.5469
Q75.7812 35.5469 77.3438 36.7188
Q78.9062 37.8906 79.2969 43.75
L86.3281 41.7969
Q85.5469 33.5938 82.6094 31.25
Q79.6875 28.9062 64.4531 28.9062
Q55.0781 28.9062 52.5312 30.4688
Q50 32.0312 50 35.9375
L50 40.625
L41.4062 39.8438
L40.2344 46.4844
L50 47.6562
L50 55.4688
L37.5 55.4688
L37.5 29.2969
Q37.5 7.42188 25.7812 -9.375
L18.75 -5.07812
Q25.3906 5.07812 27.7344 13.0781
Q30.0781 21.0938 30.0781 32.0312
L30.0781 62.5
L51.5625 62.5
L51.5625 81.6406
L59.375 81.6406
L59.375 75
L84.7656 75
L84.7656 67.9688
L59.375 67.9688
L59.375 62.5
L92.9688 62.5
L92.9688 55.8594
Q90.2344 50.3906 85.5469 44.9219
L78.9062 48.8281
Q81.6406 52.3438 83.5938 55.4688
L57.0312 55.4688
L57.0312 48.4375
z

M12.5 79.2969
Q19.5312 73.8281 25 67.9688
L19.1406 62.1094
Q13.6719 69.1406 6.64062 75
z

M9.375 55.8594
Q16.7969 51.1719 23.0469 44.9219
L17.5781 38.6719
Q11.3281 45.7031 4.29688 50.7812
z

M17.1875 29.6875
L23.4375 25.3906
Q19.1406 7.42188 10.9375 -9.375
L4.29688 -4.29688
Q12.5 11.7188 17.1875 29.6875" id="WenQuanYiMicroHei-6ee4"/>
      <path d="
M24.6094 80.8594
L32.4219 78.5156
Q29.2969 69.5312 25.3906 60.5469
L25.3906 -8.98438
L17.5781 -8.98438
L17.5781 45.7031
Q12.8906 38.2812 7.8125 32.0312
L3.90625 39.8438
Q18.3594 59.375 24.6094 80.8594
M35.1562 71.4844
L59.375 71.4844
L59.375 80.4688
L67.1875 80.4688
L67.1875 71.4844
L91.7969 71.4844
L91.7969 64.4531
L67.1875 64.4531
L67.1875 55.4688
L87.1094 55.4688
L87.1094 1.17188
L94.5312 1.17188
L94.5312 -5.46875
L30.0781 -5.46875
L30.0781 1.17188
L41.0156 1.17188
L41.0156 55.4688
L59.375 55.4688
L59.375 64.4531
L35.1562 64.4531
z

M48.8281 41.4062
L79.2969 41.4062
L79.2969 48.8281
L48.8281 48.8281
z

M48.8281 27.7344
L79.2969 27.7344
L79.2969 35.5469
L48.8281 35.5469
z

M48.8281 14.4531
L79.2969 14.4531
L79.2969 21.875
L48.8281 21.875
z

M48.8281 1.17188
L79.2969 1.17188
L79.2969 8.59375
L48.8281 8.59375
z
" id="WenQuanYiMicroHei-503c"/>
     </defs>
     <g transform="translate(153.05261125 18.793798125)scale(0.09996 -0.09996)">
      <use xlink:href="#WenQuanYiMicroHei-4e2d"/>
      <use x="100.0" xlink:href="#WenQuanYiMicroHei-503c"/>
      <use x="200.0" xlink:href="#WenQuanYiMicroHei-6ee4"/>
      <use x="300.0" xlink:href="#WenQuanYiMicroHei-6ce2"/>
     </g>
    </g>
    <g id="line2d_34">
     <path d="
M214.466 15.2952
L228.46 15.2952" style="fill:none;stroke:#7a68a6;stroke-linecap:square;stroke-width:2.0;"/>
    </g>
    <g id="line2d_35"/>
    <g id="text_16">
     <!-- 移动平均 -->
     <defs>
      <path d="
M10.9375 76.9531
L88.6719 76.9531
L88.6719 69.5312
L54.2969 69.5312
L54.2969 30.4688
L93.75 30.4688
L93.75 23.0469
L54.2969 23.0469
L54.2969 -8.59375
L46.4844 -8.59375
L46.4844 23.0469
L6.25 23.0469
L6.25 30.4688
L46.4844 30.4688
L46.4844 69.5312
L10.9375 69.5312
z

M75.7812 64.8438
L83.9844 62.1094
Q78.9062 46.0938 72.2656 34.7656
L64.4531 39.0625
Q71.875 52.3438 75.7812 64.8438
M22.2656 63.6719
Q29.6875 52.3438 34.7656 38.2812
L26.5625 34.7656
Q21.875 48.8281 14.8438 60.1562
z
" id="WenQuanYiMicroHei-5e73"/>
      <path d="
M5.46875 57.8125
L16.7969 57.8125
L16.7969 79.2969
L24.2188 79.2969
L24.2188 57.8125
L35.5469 57.8125
L35.5469 50.3906
L24.2188 50.3906
L24.2188 19.5312
L33.9844 23.4375
L35.1562 16.4062
Q21.875 10.1562 5.85938 5.85938
L4.29688 13.6719
Q10.9375 15.2344 16.7969 17.1875
L16.7969 50.3906
L5.46875 50.3906
z

M50.3906 81.25
L58.2031 79.6875
L55.0781 67.9688
L92.1875 67.9688
Q92.1875 13.6719 88.6719 1.17188
Q85.9375 -8.59375 76.1719 -8.59375
Q69.5312 -8.59375 59.375 -7.42188
L57.8125 0.390625
Q70.7031 -0.78125 76.1719 -0.78125
Q80.4688 -0.78125 81.6406 4.6875
Q83.9844 15.2344 83.9844 60.5469
L51.9531 60.5469
Q49.2188 51.1719 41.4062 41.0156
L35.5469 46.4844
Q45.7031 60.5469 50.3906 81.25
M59.7656 52.3438
Q67.1875 45.3125 71.875 37.5
L64.8438 33.2031
Q60.5469 41.0156 53.5156 48.4375
z

M75.3906 29.2969
L76.9531 22.2656
Q62.5 15.625 44.5312 10.9375
L41.7969 18.75
Q60.5469 23.4375 75.3906 29.2969" id="WenQuanYiMicroHei-5747"/>
      <path d="
M5.07812 54.6875
L20.3125 54.6875
L20.3125 67.5781
Q14.4531 66.0156 8.20312 64.8438
L5.46875 71.875
Q23.0469 75 37.5 81.25
L41.0156 74.6094
L27.7344 69.9219
L27.7344 54.6875
L41.7969 54.6875
L41.7969 47.6562
L27.7344 47.6562
L27.7344 45.7031
Q35.5469 37.5 41.4062 29.2969
L36.3281 22.2656
Q32.0312 29.6875 27.7344 35.5469
L27.7344 -8.98438
L20.3125 -8.98438
L20.3125 30.0781
Q15.625 18.3594 8.20312 8.59375
L2.73438 15.2344
Q13.6719 29.2969 19.1406 47.6562
L5.07812 47.6562
z

M63.2812 80.8594
L71.0938 79.2969
Q69.1406 75.7812 66.4062 72.2656
L90.2344 72.2656
L90.2344 65.2344
Q79.2969 41.4062 40.2344 33.9844
L37.1094 41.7969
Q71.875 46.875 81.6406 65.2344
L59.375 65.2344
Q57.4219 63.2812 55.4688 62.1094
Q58.9844 58.9844 62.5 55.4688
L57.4219 50
Q53.9062 53.9062 49.6094 57.8125
L42.9688 54.2969
L37.8906 59.7656
Q55.0781 68.75 63.2812 80.8594
M67.1875 41.7969
L73.8281 38.2812
Q72.2656 36.3281 70.3125 34.375
L92.5781 34.375
L92.5781 27.3438
Q80.4688 -0.390625 37.5 -9.375
L33.9844 -1.5625
Q74.2188 5.07812 84.375 27.3438
L63.2812 27.3438
Q61.3281 25.3906 58.9844 23.4375
Q62.8906 20.3125 66.7969 16.0156
L61.3281 10.5469
Q57.4219 14.8438 52.7344 18.75
L42.5781 12.5
L38.2812 19.1406
Q54.6875 27.3438 67.1875 41.7969" id="WenQuanYiMicroHei-79fb"/>
      <path d="
M49.6094 63.6719
L61.7188 63.6719
L61.7188 80.8594
L69.5312 80.8594
L69.5312 63.6719
L92.5781 63.6719
Q92.1875 8.20312 89.4531 0.390625
Q86.7188 -7.42188 80.0781 -7.42188
Q75 -7.42188 68.3594 -6.25
L67.1875 1.5625
Q75 0.390625 79.6875 0.390625
Q82.0312 0.390625 82.8125 7.03125
Q85.1562 22.2656 85.1562 56.25
L69.5312 56.25
Q69.1406 8.98438 46.875 -8.98438
L41.4062 -3.125
Q61.3281 13.6719 61.7188 56.25
L49.6094 56.25
z

M8.98438 73.8281
L42.1875 73.8281
L42.1875 66.7969
L8.98438 66.7969
z

M5.85938 51.1719
L45.3125 51.1719
L45.3125 43.75
L28.125 43.75
Q21.4844 21.0938 13.6719 10.9375
Q25.3906 12.1094 38.2812 16.4062
Q35.9375 23.8281 32.4219 30.4688
L39.4531 32.4219
Q45.7031 21.0938 48.8281 7.03125
L41.7969 5.07812
Q41.0156 7.42188 40.625 9.76562
Q25 4.6875 7.42188 3.125
L5.07812 10.1562
Q13.6719 21.875 19.5312 43.75
L5.85938 43.75
z
" id="WenQuanYiMicroHei-52a8"/>
     </defs>
     <g transform="translate(239.45553625 18.793798125)scale(0.09996 -0.09996)">
      <use xlink:href="#WenQuanYiMicroHei-79fb"/>
      <use x="100.0" xlink:href="#WenQuanYiMicroHei-52a8"/>
      <use x="200.0" xlink:href="#WenQuanYiMicroHei-5e73"/>
      <use x="300.0" xlink:href="#WenQuanYiMicroHei-5747"/>
     </g>
    </g>
   </g>
  </g>
 </g>
 <defs>
  <clipPath id="p04275b4917">
   <rect height="172.8" width="334.8" x="29.430205" y="33.648361875"/>
  </clipPath>
 </defs>
</svg>
