<?xml version="1.0" encoding="utf-8" standalone="no"?>
<!DOCTYPE svg PUBLIC "-//W3C//DTD SVG 1.1//EN"
  "http://www.w3.org/Graphics/SVG/1.1/DTD/svg11.dtd">
<!-- Created with matplotlib (http://matplotlib.org/) -->
<svg height="206pt" version="1.1" viewBox="0 0 368 206" width="368pt" xmlns="http://www.w3.org/2000/svg" xmlns:xlink="http://www.w3.org/1999/xlink">
 <defs>
  <style type="text/css">
*{stroke-linecap:butt;stroke-linejoin:round;}
  </style>
 </defs>
 <g id="figure_1">
  <g id="patch_1">
   <path d="
M3.55271e-15 206.196
L368.75 206.196
L368.75 0
L3.55271e-15 0
z
" style="fill:#ffffff;"/>
  </g>
  <g id="axes_1">
   <g id="patch_2">
    <path d="
M26.75 184.999
L361.55 184.999
L361.55 12.1988
L26.75 12.1988
z
" style="fill:#ffffff;"/>
   </g>
   <g id="line2d_1">
    <path clip-path="url(#pcacfc7f21a)" d="
M26.75 95.7377
L27.5891 96.5341
L28.4282 92.8034
L29.2673 84.0308
L30.9455 86.7281
L31.7846 77.6319
L32.6237 73.2114
L33.4628 75.9156
L34.3019 72.7905
L35.9801 78.1424
L36.8192 76.7486
L38.4974 97.7047
L39.3365 100.943
L40.1756 106.777
L41.0147 104.967
L41.8538 110.198
L42.6929 118.332
L43.532 109.89
L44.3711 111.191
L45.2102 110.802
L46.0493 119.008
L46.8884 122.144
L47.7275 121.505
L48.5666 128.135
L49.4057 125.971
L50.2448 129.43
L51.0839 131.111
L51.923 134.576
L52.7621 123.907
L53.6012 123.985
L54.4403 130.077
L55.2794 125.34
L56.1184 132.372
L56.9575 131.169
L57.7966 142.456
L58.6357 150.107
L59.4748 148.973
L60.3139 144.719
L61.153 143.732
L61.9921 144.398
L62.8312 146.133
L63.6703 154.649
L64.5094 158.795
L65.3485 161.448
L66.1876 155.359
L67.0267 153.38
L67.8658 163.535
L68.7049 161.669
L69.544 163.887
L70.3831 167.786
L71.2222 164.262
L72.9004 152.96
L73.7395 157.794
L74.5786 159.575
L75.4177 157.667
L76.2568 152.047
L77.0959 154.807
L77.935 155.877
L79.6132 169.14
L80.4523 164.459
L81.2914 156.647
L82.1305 157.062
L82.9696 151.282
L83.8087 149.199
L84.6478 152.915
L85.4869 150.833
L86.326 141.974
L87.1651 142.18
L88.0042 133.168
L88.8433 148.258
L89.6824 143.524
L90.5215 143.022
L91.3606 144.744
L92.1997 144.216
L93.0387 155.664
L93.8778 156.93
L94.7169 154.873
L95.556 146.36
L96.3951 149.345
L97.2342 154.002
L98.0733 156.892
L98.9124 151.62
L99.7515 149.726
L100.591 152.777
L101.43 149.821
L102.269 149.262
L103.108 143.682
L103.947 147.726
L104.786 149.614
L105.625 151.872
L106.464 160.302
L108.143 157.093
L108.982 157.063
L109.821 158.414
L110.66 166.567
L111.499 168.99
L112.338 170.964
L113.177 175.585
L114.016 176.514
L114.855 174.187
L115.694 163.322
L116.533 162.317
L117.373 160.833
L118.212 161.262
L119.051 172.314
L119.89 172.467
L120.729 172.12
L121.568 157.932
L122.407 159.04
L123.246 157.303
L124.085 157.503
L124.924 164.234
L125.764 157.652
L127.442 148.764
L128.281 154.002
L129.12 145.922
L129.959 153.997
L130.798 150.616
L131.637 137.999
L132.476 143.705
L133.315 146.967
L134.155 146.393
L134.994 149.293
L135.833 158.225
L136.672 157.83
L137.511 163.949
L138.35 161.221
L139.189 166.517
L140.028 157.589
L140.867 162.1
L141.706 163.956
L142.546 159.27
L143.385 166.359
L144.224 165.049
L145.063 157.52
L145.902 166.779
L146.741 165.716
L147.58 164.219
L148.419 159.716
L150.097 174.446
L150.936 171.44
L151.776 169.729
L152.615 168.286
L153.454 166.291
L154.293 170.208
L155.132 168.87
L155.971 167.182
L156.81 171.297
L157.649 160.55
L158.488 157.82
L159.327 164.682
L160.167 160.901
L161.006 166.515
L161.845 161.981
L162.684 155.308
L163.523 160.035
L164.362 154.486
L165.201 152.108
L166.04 147.373
L166.879 136.447
L167.718 137.861
L168.558 142.202
L170.236 152.025
L171.075 152.469
L171.914 150.504
L172.753 148.91
L173.592 144.146
L174.431 144.071
L175.27 135.699
L176.109 137.223
L176.949 121.555
L177.788 117.951
L178.627 122.888
L179.466 129.057
L180.305 126.278
L181.144 127.565
L181.983 123.452
L182.822 120.726
L183.661 121.146
L184.5 126.023
L185.34 134.749
L186.179 137.321
L187.018 132.388
L187.857 131.155
L188.696 138.33
L189.535 137.333
L190.374 135.113
L191.213 140.204
L192.052 139.319
L192.891 138.983
L193.73 145.567
L194.57 143.506
L195.409 140.276
L197.087 127.968
L197.926 135.903
L198.765 141.305
L201.282 132.412
L202.121 110.221
L202.961 106.932
L203.8 100.391
L204.639 94.8963
L205.478 91.1443
L206.317 92.9602
L207.156 88.5886
L207.995 93.04
L208.834 94.4041
L209.673 97.1998
L210.512 96.7282
L211.352 83.3958
L212.191 94.1512
L213.03 90.1984
L213.869 99.4876
L214.708 102.206
L215.547 95.9336
L216.386 95.5633
L217.225 101.771
L218.064 105.891
L218.903 101.977
L219.743 106.184
L220.582 104.937
L221.421 104.674
L222.26 108.428
L223.099 96.0785
L223.938 92.4271
L224.777 104.092
L225.616 103.018
L226.455 106.83
L227.294 101.92
L228.133 106.485
L228.973 107.146
L229.812 104.237
L230.651 99.2502
L231.49 106.164
L232.329 108.091
L233.168 110.826
L234.007 114.589
L234.846 104.42
L235.685 102.088
L236.524 109.35
L237.364 104.064
L238.203 91.8399
L239.042 85.893
L239.881 94.6445
L240.72 97.4337
L241.559 90.1363
L242.398 94.2125
L243.237 91.6561
L244.076 87.1942
L244.915 92.5333
L245.755 92.8762
L246.594 111.546
L247.433 117.446
L248.272 118.901
L249.111 126.088
L249.95 116.686
L250.789 124.923
L251.628 127.458
L252.467 126.705
L253.306 118.403
L254.146 126.674
L254.985 119.974
L255.824 119.915
L256.663 125.568
L257.502 122.907
L258.341 121.76
L259.18 125.217
L260.019 124.815
L260.858 127.035
L261.697 126.381
L262.536 122.567
L263.376 113.432
L264.215 120.561
L265.054 108.275
L265.893 119.519
L266.732 120.393
L267.571 117.005
L268.41 115.386
L269.249 118.973
L270.088 120.172
L270.927 123.011
L271.767 126.406
L272.606 121.512
L273.445 119.456
L274.284 123.447
L275.123 118.265
L275.962 116.495
L276.801 111.813
L277.64 108.187
L278.479 112.962
L279.318 116.188
L280.158 111.884
L280.997 108.368
L281.836 108.489
L282.675 107.813
L283.514 100.453
L284.353 103.861
L285.192 100.71
L286.87 103.128
L287.709 96.7991
L289.388 87.3589
L290.227 79.8394
L291.066 79.7184
L291.905 75.7903
L292.744 77.5775
L293.583 75.7103
L294.422 76.4599
L295.261 75.9012
L296.1 72.4731
L296.94 77.186
L297.779 65.1339
L298.618 70.9285
L299.457 77.9223
L300.296 71.2516
L301.135 66.6916
L302.813 59.4774
L303.652 59.5479
L304.491 64.7161
L305.33 64.2795
L306.17 68.1799
L307.009 62.5632
L307.848 63.4103
L308.687 68.1651
L309.526 70.0163
L310.365 67.6378
L311.204 70.8849
L312.043 75.6209
L313.721 72.8062
L315.4 78.4394
L316.239 77.1028
L317.917 93.5508
L318.756 97.689
L319.595 98.9185
L320.434 97.1276
L321.273 88.6296
L322.112 83.6895
L322.952 84.6107
L323.791 84.7202
L324.63 90.4948
L325.469 90.6014
L326.308 92.2641
L327.147 90.4053
L327.986 95.1701
L328.825 92.1787
L329.664 83.3501
L330.503 83.9766
L331.343 81.6627
L332.182 77.6875
L333.021 79.9985
L333.86 78.7077
L334.699 78.6352
L335.538 78.0726
L336.377 82.5251
L337.216 82.3839
L338.055 79.5155
L338.894 71.1569
L339.733 65.6315
L340.573 53.2291
L341.412 57.6491
L342.251 52.6245
L343.09 51.5685
L343.929 38.9552
L345.607 48.4478
L346.446 51.9003
L347.285 64.1339
L348.124 67.1623
L348.964 71.5349
L349.803 70.6686
L350.642 68.7001
L351.481 57.8933
L352.32 52.4189
L353.159 55.7419
L353.998 60.9167
L354.837 58.0833
L355.676 65.6878
L356.515 55.1386
L357.355 48.3451
L358.194 51.0475
L359.033 60.9152
L359.872 53.1169
L360.711 53.7766
L361.55 46.6468
L361.55 46.6468" style="fill:none;stroke:#348abd;stroke-linecap:square;stroke-width:2.0;"/>
   </g>
   <g id="line2d_2">
    <path clip-path="url(#pcacfc7f21a)" d="
M26.75 95.7377
L27.5891 95.7377
L28.4282 92.8034
L29.2673 84.0308
L30.9455 84.0308
L31.7846 77.6319
L32.6237 73.2114
L33.4628 73.2114
L34.3019 72.7905
L295.261 72.7905
L296.1 72.4731
L296.94 72.4731
L297.779 65.1339
L301.135 65.1339
L301.974 63.0966
L302.813 59.4774
L339.733 59.4774
L340.573 53.2291
L341.412 53.2291
L342.251 52.6245
L343.09 51.5685
L343.929 38.9552
L361.55 38.9552
L361.55 38.9552" style="fill:none;stroke:#a60628;stroke-linecap:square;stroke-width:2.0;"/>
   </g>
   <g id="line2d_3">
    <path clip-path="url(#pcacfc7f21a)" d="
M26.75 95.7377
L27.5891 96.1359
L28.4282 95.0251
L29.2673 92.2765
L30.1064 90.8971
L30.9455 90.2023
L32.6237 86.5071
L34.3019 84.0763
L35.141 83.293
L36.8192 82.3934
L37.6583 82.7773
L39.3365 84.8457
L40.1756 86.1358
L41.8538 88.3933
L42.6929 89.8903
L46.0493 93.6957
L49.4057 98.0875
L51.923 101.341
L56.9575 105.633
L58.6357 107.717
L60.3139 109.626
L63.6703 112.969
L66.1876 115.816
L67.0267 116.583
L70.3831 120.178
L72.0613 121.673
L73.7395 122.856
L75.4177 124.068
L77.935 125.528
L81.2914 127.807
L82.9696 128.582
L86.326 129.702
L87.1651 129.873
L88.0042 129.917
L89.6824 130.337
L92.1997 130.856
L94.7169 131.769
L97.2342 132.409
L98.9124 132.912
L103.108 133.789
L105.625 134.293
L108.982 135.261
L110.66 135.8
L114.016 137.218
L115.694 137.807
L119.051 138.758
L120.729 139.351
L126.603 140.447
L133.315 140.904
L135.833 141.142
L138.35 141.586
L140.867 142.035
L147.58 143.225
L149.258 143.498
L152.615 144.226
L159.327 145.314
L164.362 145.844
L166.04 145.89
L169.397 145.775
L173.592 145.884
L176.109 145.769
L181.144 145.07
L185.34 144.547
L202.121 143.71
L204.639 143.104
L209.673 141.729
L218.903 139.591
L235.685 136.791
L238.203 136.376
L241.559 135.685
L246.594 134.757
L251.628 134.471
L258.341 134.132
L265.054 133.764
L281.836 132.658
L286.87 132.086
L290.227 131.539
L299.457 129.63
L304.491 128.447
L311.204 126.998
L317.917 125.897
L322.952 125.319
L327.986 124.741
L332.182 124.179
L340.573 122.868
L344.768 121.894
L348.124 121.228
L352.32 120.495
L361.55 118.705
L361.55 118.705" style="fill:none;stroke:#7a68a6;stroke-linecap:square;stroke-width:2.0;"/>
   </g>
   <g id="line2d_4">
    <path clip-path="url(#pcacfc7f21a)" d="
M26.75 95.7377
L27.5891 96.5341
L37.6583 96.5341
L38.4974 97.7047
L39.3365 100.943
L40.1756 106.777
L41.0147 106.777
L41.8538 110.198
L42.6929 118.332
L45.2102 118.332
L46.0493 119.008
L46.8884 122.144
L47.7275 122.144
L48.5666 128.135
L49.4057 128.135
L50.2448 129.43
L51.0839 131.111
L51.923 134.576
L56.9575 134.576
L58.6357 150.107
L62.8312 150.107
L64.5094 158.795
L65.3485 161.448
L67.0267 161.448
L67.8658 163.535
L68.7049 163.535
L69.544 163.887
L70.3831 167.786
L78.7741 167.786
L79.6132 169.14
L111.499 169.14
L112.338 170.964
L113.177 175.585
L114.016 176.514
L361.55 176.514
L361.55 176.514" style="fill:none;stroke:#467821;stroke-linecap:square;stroke-width:2.0;"/>
   </g>
   <g id="patch_3">
    <path d="
M26.75 12.1988
L361.55 12.1988" style="fill:none;stroke:#000000;stroke-linecap:square;stroke-linejoin:miter;"/>
   </g>
   <g id="patch_4">
    <path d="
M361.55 184.999
L361.55 12.1988" style="fill:none;stroke:#000000;stroke-linecap:square;stroke-linejoin:miter;"/>
   </g>
   <g id="patch_5">
    <path d="
M26.75 184.999
L361.55 184.999" style="fill:none;stroke:#000000;stroke-linecap:square;stroke-linejoin:miter;"/>
   </g>
   <g id="patch_6">
    <path d="
M26.75 184.999
L26.75 12.1988" style="fill:none;stroke:#000000;stroke-linecap:square;stroke-linejoin:miter;"/>
   </g>
   <g id="matplotlib.axis_1">
    <g id="xtick_1">
     <g id="line2d_5">
      <defs>
       <path d="
M0 0
L0 -4" id="m93b0483c22" style="stroke:#000000;stroke-width:0.5;"/>
      </defs>
      <g>
       <use style="stroke:#000000;stroke-width:0.5;" x="26.7500275" xlink:href="#m93b0483c22" y="184.998780938"/>
      </g>
     </g>
     <g id="line2d_6">
      <defs>
       <path d="
M0 0
L0 4" id="m741efc42ff" style="stroke:#000000;stroke-width:0.5;"/>
      </defs>
      <g>
       <use style="stroke:#000000;stroke-width:0.5;" x="26.7500275" xlink:href="#m741efc42ff" y="12.1987809375"/>
      </g>
     </g>
     <g id="text_1">
      <!-- 0 -->
      <defs>
       <path d="
M50.3906 35.7969
Q50.3906 27.1562 49.1406 20.3125
Q47.9062 13.4844 45.1406 8.73438
Q42.3906 4 38.0312 1.5
Q33.6875 -0.984375 27.4844 -0.984375
Q21.7344 -0.984375 17.4531 1.5
Q13.1875 4 10.375 8.73438
Q7.5625 13.4844 6.17188 20.3125
Q4.78125 27.1562 4.78125 35.7969
Q4.78125 44.4375 6.03125 51.2656
Q7.28125 58.1094 9.98438 62.8125
Q12.7031 67.5312 17.0156 70.0156
Q21.3438 72.5156 27.4844 72.5156
Q33.2969 72.5156 37.5938 70.0469
Q41.8906 67.5781 44.7188 62.8594
Q47.5625 58.1562 48.9688 51.3125
Q50.3906 44.4844 50.3906 35.7969
M13.8125 35.7969
Q13.8125 28.4688 14.5469 23
Q15.2812 17.5312 16.8906 13.8906
Q18.5 10.25 21.1094 8.42188
Q23.7344 6.59375 27.4844 6.59375
Q31.25 6.59375 33.8906 8.39062
Q36.5312 10.2031 38.2031 13.8125
Q39.8906 17.4375 40.6406 22.9219
Q41.4062 28.4219 41.4062 35.7969
Q41.4062 43.1094 40.6406 48.5781
Q39.8906 54.0469 38.2031 57.6562
Q36.5312 61.2812 33.8906 63.0781
Q31.25 64.8906 27.4844 64.8906
Q23.7344 64.8906 21.1094 63.0781
Q18.5 61.2812 16.8906 57.6562
Q15.2812 54.0469 14.5469 48.5781
Q13.8125 43.1094 13.8125 35.7969" id="WenQuanYiMicroHei-30"/>
      </defs>
      <g transform="translate(24.4704709375 196.594179063)scale(0.09996 -0.09996)">
       <use xlink:href="#WenQuanYiMicroHei-30"/>
      </g>
     </g>
    </g>
    <g id="xtick_2">
     <g id="line2d_7">
      <g>
       <use style="stroke:#000000;stroke-width:0.5;" x="68.704914718" xlink:href="#m93b0483c22" y="184.998780938"/>
      </g>
     </g>
     <g id="line2d_8">
      <g>
       <use style="stroke:#000000;stroke-width:0.5;" x="68.704914718" xlink:href="#m741efc42ff" y="12.1987809375"/>
      </g>
     </g>
     <g id="text_2">
      <!-- 50 -->
      <defs>
       <path d="
M26.6094 43.7969
Q31.4531 43.7969 35.625 42.4531
Q39.7969 41.1094 42.8906 38.4688
Q46 35.8438 47.75 31.9375
Q49.5156 28.0312 49.5156 22.9062
Q49.5156 17.3281 47.8438 12.8906
Q46.1875 8.45312 42.9219 5.375
Q39.6562 2.29688 34.8438 0.65625
Q30.0312 -0.984375 23.7812 -0.984375
Q21.2969 -0.984375 18.875 -0.734375
Q16.4531 -0.484375 14.2344 -0.015625
Q12.0156 0.4375 10.0156 1.17188
Q8.01562 1.90625 6.39062 2.875
L6.39062 11.2812
Q8.01562 10.1562 10.1875 9.28125
Q12.3594 8.40625 14.75 7.8125
Q17.1406 7.23438 19.5469 6.90625
Q21.9688 6.59375 24.0312 6.59375
Q27.875 6.59375 30.9062 7.5
Q33.9375 8.40625 36.0312 10.2969
Q38.1406 12.2031 39.25 15.0781
Q40.375 17.9688 40.375 21.9219
Q40.375 28.9062 36.0781 32.5938
Q31.7812 36.2812 23.5781 36.2812
Q22.2656 36.2812 20.7188 36.1562
Q19.1875 36.0312 17.6406 35.8281
Q16.1094 35.6406 14.7188 35.4219
Q13.3281 35.2031 12.3125 35.0156
L7.90625 37.7969
L10.5938 71.3906
L44.2812 71.3906
L44.2812 63.2812
L18.3125 63.2812
L16.4062 42.8281
Q17.9688 43.1094 20.5312 43.4531
Q23.0938 43.7969 26.6094 43.7969" id="WenQuanYiMicroHei-35"/>
      </defs>
      <g transform="translate(63.7529900305 196.594179063)scale(0.09996 -0.09996)">
       <use xlink:href="#WenQuanYiMicroHei-35"/>
       <use x="55.078125" xlink:href="#WenQuanYiMicroHei-30"/>
      </g>
     </g>
    </g>
    <g id="xtick_3">
     <g id="line2d_9">
      <g>
       <use style="stroke:#000000;stroke-width:0.5;" x="110.659801936" xlink:href="#m93b0483c22" y="184.998780938"/>
      </g>
     </g>
     <g id="line2d_10">
      <g>
       <use style="stroke:#000000;stroke-width:0.5;" x="110.659801936" xlink:href="#m741efc42ff" y="12.1987809375"/>
      </g>
     </g>
     <g id="text_3">
      <!-- 100 -->
      <defs>
       <path d="
M34.7188 0
L26.125 0
L26.125 44.5781
Q26.125 46.6875 26.1406 49.0781
Q26.1719 51.4688 26.2344 53.8281
Q26.3125 56.2031 26.3906 58.375
Q26.4688 60.5469 26.5156 62.2031
Q25.6875 61.3281 25.0469 60.6875
Q24.4219 60.0625 23.75 59.4688
Q23.0938 58.8906 22.3594 58.2188
Q21.625 57.5625 20.6094 56.6875
L13.375 50.7812
L8.6875 56.7812
L27.3906 71.3906
L34.7188 71.3906
z
" id="WenQuanYiMicroHei-31"/>
      </defs>
      <g transform="translate(103.069870374 196.594179063)scale(0.09996 -0.09996)">
       <use xlink:href="#WenQuanYiMicroHei-31"/>
       <use x="55.078125" xlink:href="#WenQuanYiMicroHei-30"/>
       <use x="110.15625" xlink:href="#WenQuanYiMicroHei-30"/>
      </g>
     </g>
    </g>
    <g id="xtick_4">
     <g id="line2d_11">
      <g>
       <use style="stroke:#000000;stroke-width:0.5;" x="152.614689154" xlink:href="#m93b0483c22" y="184.998780938"/>
      </g>
     </g>
     <g id="line2d_12">
      <g>
       <use style="stroke:#000000;stroke-width:0.5;" x="152.614689154" xlink:href="#m741efc42ff" y="12.1987809375"/>
      </g>
     </g>
     <g id="text_4">
      <!-- 150 -->
      <g transform="translate(145.024757592 196.594179063)scale(0.09996 -0.09996)">
       <use xlink:href="#WenQuanYiMicroHei-31"/>
       <use x="55.078125" xlink:href="#WenQuanYiMicroHei-35"/>
       <use x="110.15625" xlink:href="#WenQuanYiMicroHei-30"/>
      </g>
     </g>
    </g>
    <g id="xtick_5">
     <g id="line2d_13">
      <g>
       <use style="stroke:#000000;stroke-width:0.5;" x="194.569576372" xlink:href="#m93b0483c22" y="184.998780938"/>
      </g>
     </g>
     <g id="line2d_14">
      <g>
       <use style="stroke:#000000;stroke-width:0.5;" x="194.569576372" xlink:href="#m741efc42ff" y="12.1987809375"/>
      </g>
     </g>
     <g id="text_5">
      <!-- 200 -->
      <defs>
       <path d="
M49.2188 0
L4.6875 0
L4.6875 7.625
L21.7812 26.2188
Q25.4375 30.1719 28.3125 33.4375
Q31.2031 36.7188 33.2188 39.8438
Q35.25 42.9688 36.3281 46.1094
Q37.4062 49.2656 37.4062 52.9844
Q37.4062 55.8594 36.5781 58.0469
Q35.75 60.25 34.2031 61.7812
Q32.6719 63.3281 30.5625 64.1094
Q28.4688 64.8906 25.875 64.8906
Q21.2344 64.8906 17.5 63.0156
Q13.7656 61.1406 10.4062 58.2031
L5.42188 64.0156
Q7.375 65.7656 9.60938 67.2969
Q11.8594 68.8438 14.4531 69.9688
Q17.0469 71.0938 19.9219 71.75
Q22.7969 72.4062 25.9844 72.4062
Q30.6719 72.4062 34.4531 71.0938
Q38.2344 69.7812 40.8594 67.3125
Q43.5 64.8438 44.9375 61.2969
Q46.3906 57.7656 46.3906 53.3281
Q46.3906 49.1719 45.0938 45.4062
Q43.7969 41.6562 41.5312 38.0156
Q39.2656 34.375 36.1094 30.7031
Q32.9531 27.0469 29.2969 23.0938
L15.5781 8.5
L15.5781 8.10938
L49.2188 8.10938
z
" id="WenQuanYiMicroHei-32"/>
      </defs>
      <g transform="translate(186.77972481 196.594179063)scale(0.09996 -0.09996)">
       <use xlink:href="#WenQuanYiMicroHei-32"/>
       <use x="55.078125" xlink:href="#WenQuanYiMicroHei-30"/>
       <use x="110.15625" xlink:href="#WenQuanYiMicroHei-30"/>
      </g>
     </g>
    </g>
    <g id="xtick_6">
     <g id="line2d_15">
      <g>
       <use style="stroke:#000000;stroke-width:0.5;" x="236.52446359" xlink:href="#m93b0483c22" y="184.998780938"/>
      </g>
     </g>
     <g id="line2d_16">
      <g>
       <use style="stroke:#000000;stroke-width:0.5;" x="236.52446359" xlink:href="#m741efc42ff" y="12.1987809375"/>
      </g>
     </g>
     <g id="text_6">
      <!-- 250 -->
      <g transform="translate(228.734612028 196.594179063)scale(0.09996 -0.09996)">
       <use xlink:href="#WenQuanYiMicroHei-32"/>
       <use x="55.078125" xlink:href="#WenQuanYiMicroHei-35"/>
       <use x="110.15625" xlink:href="#WenQuanYiMicroHei-30"/>
      </g>
     </g>
    </g>
    <g id="xtick_7">
     <g id="line2d_17">
      <g>
       <use style="stroke:#000000;stroke-width:0.5;" x="278.479350808" xlink:href="#m93b0483c22" y="184.998780938"/>
      </g>
     </g>
     <g id="line2d_18">
      <g>
       <use style="stroke:#000000;stroke-width:0.5;" x="278.479350808" xlink:href="#m741efc42ff" y="12.1987809375"/>
      </g>
     </g>
     <g id="text_7">
      <!-- 300 -->
      <defs>
       <path d="
M46.9219 54.6875
Q46.9219 51.125 45.7969 48.1875
Q44.6719 45.2656 42.6406 43.1094
Q40.625 40.9688 37.7969 39.5781
Q34.9688 38.1875 31.5 37.5938
L31.5 37.3125
Q40.1406 36.2344 44.625 31.8125
Q49.125 27.3906 49.125 20.3125
Q49.125 15.625 47.5312 11.7188
Q45.9531 7.8125 42.7188 4.98438
Q39.5 2.15625 34.5625 0.578125
Q29.6406 -0.984375 22.9062 -0.984375
Q17.5781 -0.984375 12.8594 -0.140625
Q8.15625 0.6875 4 2.875
L4 11.1875
Q8.25 8.9375 13.2031 7.71875
Q18.1719 6.5 22.7031 6.5
Q27.2031 6.5 30.4688 7.46875
Q33.7344 8.45312 35.8594 10.25
Q37.9844 12.0625 38.9844 14.6875
Q39.9844 17.3281 39.9844 20.6094
Q39.9844 23.9219 38.6875 26.2812
Q37.4062 28.6562 35.0156 30.1875
Q32.625 31.7344 29.1719 32.4688
Q25.7344 33.2031 21.3906 33.2031
L14.8906 33.2031
L14.8906 40.5781
L21.3906 40.5781
Q25.3438 40.5781 28.4219 41.5469
Q31.5 42.5312 33.5625 44.3281
Q35.6406 46.1406 36.7188 48.625
Q37.7969 51.125 37.7969 54.1094
Q37.7969 56.6406 36.9062 58.6406
Q36.0312 60.6406 34.4219 62.0312
Q32.8125 63.4219 30.5625 64.1562
Q28.3281 64.8906 25.5938 64.8906
Q20.3594 64.8906 16.375 63.25
Q12.4062 61.625 8.79688 58.9844
L4.29688 65.0938
Q6.15625 66.6094 8.42188 67.9219
Q10.6875 69.2344 13.375 70.2344
Q16.0625 71.2344 19.1094 71.8125
Q22.1719 72.4062 25.5938 72.4062
Q30.8594 72.4062 34.8281 71.0938
Q38.8125 69.7812 41.5 67.4062
Q44.1875 65.0469 45.5469 61.7969
Q46.9219 58.5469 46.9219 54.6875" id="WenQuanYiMicroHei-33"/>
      </defs>
      <g transform="translate(270.655137996 196.594179063)scale(0.09996 -0.09996)">
       <use xlink:href="#WenQuanYiMicroHei-33"/>
       <use x="55.078125" xlink:href="#WenQuanYiMicroHei-30"/>
       <use x="110.15625" xlink:href="#WenQuanYiMicroHei-30"/>
      </g>
     </g>
    </g>
    <g id="xtick_8">
     <g id="line2d_19">
      <g>
       <use style="stroke:#000000;stroke-width:0.5;" x="320.434238026" xlink:href="#m93b0483c22" y="184.998780938"/>
      </g>
     </g>
     <g id="line2d_20">
      <g>
       <use style="stroke:#000000;stroke-width:0.5;" x="320.434238026" xlink:href="#m741efc42ff" y="12.1987809375"/>
      </g>
     </g>
     <g id="text_8">
      <!-- 350 -->
      <g transform="translate(312.610025214 196.594179063)scale(0.09996 -0.09996)">
       <use xlink:href="#WenQuanYiMicroHei-33"/>
       <use x="55.078125" xlink:href="#WenQuanYiMicroHei-35"/>
       <use x="110.15625" xlink:href="#WenQuanYiMicroHei-30"/>
      </g>
     </g>
    </g>
   </g>
   <g id="matplotlib.axis_2">
    <g id="ytick_1">
     <g id="line2d_21">
      <defs>
       <path d="
M0 0
L4 0" id="m728421d6d4" style="stroke:#000000;stroke-width:0.5;"/>
      </defs>
      <g>
       <use style="stroke:#000000;stroke-width:0.5;" x="26.7500275" xlink:href="#m728421d6d4" y="184.998780937"/>
      </g>
     </g>
     <g id="line2d_22">
      <defs>
       <path d="
M0 0
L-4 0" id="mcb0005524f" style="stroke:#000000;stroke-width:0.5;"/>
      </defs>
      <g>
       <use style="stroke:#000000;stroke-width:0.5;" x="361.5500275" xlink:href="#mcb0005524f" y="184.998780937"/>
      </g>
     </g>
     <g id="text_9">
      <!-- −15 -->
      <defs>
       <path d="
M4.98438 31.5938
L4.98438 38.9219
L50.0938 38.9219
L50.0938 31.5938
z
" id="WenQuanYiMicroHei-2212"/>
      </defs>
      <g transform="translate(7.287465 187.595398125)scale(0.09996 -0.09996)">
       <use xlink:href="#WenQuanYiMicroHei-2212"/>
       <use x="55.078125" xlink:href="#WenQuanYiMicroHei-31"/>
       <use x="110.15625" xlink:href="#WenQuanYiMicroHei-35"/>
      </g>
     </g>
    </g>
    <g id="ytick_2">
     <g id="line2d_23">
      <g>
       <use style="stroke:#000000;stroke-width:0.5;" x="26.7500275" xlink:href="#m728421d6d4" y="156.198780938"/>
      </g>
     </g>
     <g id="line2d_24">
      <g>
       <use style="stroke:#000000;stroke-width:0.5;" x="361.5500275" xlink:href="#mcb0005524f" y="156.198780938"/>
      </g>
     </g>
     <g id="text_10">
      <!-- −10 -->
      <g transform="translate(7.2 158.795398125)scale(0.09996 -0.09996)">
       <use xlink:href="#WenQuanYiMicroHei-2212"/>
       <use x="55.078125" xlink:href="#WenQuanYiMicroHei-31"/>
       <use x="110.15625" xlink:href="#WenQuanYiMicroHei-30"/>
      </g>
     </g>
    </g>
    <g id="ytick_3">
     <g id="line2d_25">
      <g>
       <use style="stroke:#000000;stroke-width:0.5;" x="26.7500275" xlink:href="#m728421d6d4" y="127.398780937"/>
      </g>
     </g>
     <g id="line2d_26">
      <g>
       <use style="stroke:#000000;stroke-width:0.5;" x="361.5500275" xlink:href="#mcb0005524f" y="127.398780937"/>
      </g>
     </g>
     <g id="text_11">
      <!-- −5 -->
      <g transform="translate(12.793074375 129.995398125)scale(0.09996 -0.09996)">
       <use xlink:href="#WenQuanYiMicroHei-2212"/>
       <use x="55.078125" xlink:href="#WenQuanYiMicroHei-35"/>
      </g>
     </g>
    </g>
    <g id="ytick_4">
     <g id="line2d_27">
      <g>
       <use style="stroke:#000000;stroke-width:0.5;" x="26.7500275" xlink:href="#m728421d6d4" y="98.5987809375"/>
      </g>
     </g>
     <g id="line2d_28">
      <g>
       <use style="stroke:#000000;stroke-width:0.5;" x="361.5500275" xlink:href="#mcb0005524f" y="98.5987809375"/>
      </g>
     </g>
     <g id="text_12">
      <!-- 0 -->
      <g transform="translate(18.190914375 101.195398125)scale(0.09996 -0.09996)">
       <use xlink:href="#WenQuanYiMicroHei-30"/>
      </g>
     </g>
    </g>
    <g id="ytick_5">
     <g id="line2d_29">
      <g>
       <use style="stroke:#000000;stroke-width:0.5;" x="26.7500275" xlink:href="#m728421d6d4" y="69.7987809375"/>
      </g>
     </g>
     <g id="line2d_30">
      <g>
       <use style="stroke:#000000;stroke-width:0.5;" x="361.5500275" xlink:href="#mcb0005524f" y="69.7987809375"/>
      </g>
     </g>
     <g id="text_13">
      <!-- 5 -->
      <g transform="translate(18.4392525 72.395398125)scale(0.09996 -0.09996)">
       <use xlink:href="#WenQuanYiMicroHei-35"/>
      </g>
     </g>
    </g>
    <g id="ytick_6">
     <g id="line2d_31">
      <g>
       <use style="stroke:#000000;stroke-width:0.5;" x="26.7500275" xlink:href="#m728421d6d4" y="40.9987809375"/>
      </g>
     </g>
     <g id="line2d_32">
      <g>
       <use style="stroke:#000000;stroke-width:0.5;" x="361.5500275" xlink:href="#mcb0005524f" y="40.9987809375"/>
      </g>
     </g>
     <g id="text_14">
      <!-- 10 -->
      <g transform="translate(13.07577375 43.595398125)scale(0.09996 -0.09996)">
       <use xlink:href="#WenQuanYiMicroHei-31"/>
       <use x="55.078125" xlink:href="#WenQuanYiMicroHei-30"/>
      </g>
     </g>
    </g>
    <g id="ytick_7">
     <g id="line2d_33">
      <g>
       <use style="stroke:#000000;stroke-width:0.5;" x="26.7500275" xlink:href="#m728421d6d4" y="12.1987809375"/>
      </g>
     </g>
     <g id="line2d_34">
      <g>
       <use style="stroke:#000000;stroke-width:0.5;" x="361.5500275" xlink:href="#mcb0005524f" y="12.1987809375"/>
      </g>
     </g>
     <g id="text_15">
      <!-- 15 -->
      <g transform="translate(13.16323875 14.795398125)scale(0.09996 -0.09996)">
       <use xlink:href="#WenQuanYiMicroHei-31"/>
       <use x="55.078125" xlink:href="#WenQuanYiMicroHei-35"/>
      </g>
     </g>
    </g>
   </g>
   <g id="legend_1">
    <g id="patch_7">
     <path d="
M31.748 50.1867
L258.496 50.1867
L258.496 17.1968
L31.748 17.1968
z
" style="fill:#ffffff;stroke:#000000;stroke-linejoin:miter;"/>
    </g>
    <g id="line2d_35">
     <path d="
M38.7452 25.292
L52.7396 25.292" style="fill:none;stroke:#348abd;stroke-linecap:square;stroke-width:2.0;"/>
    </g>
    <g id="line2d_36"/>
    <g id="text_16">
     <!-- data -->
     <defs>
      <path d="
M41.6094 7.17188
L41.2188 7.17188
Q40.1406 5.51562 38.6875 4.03125
Q37.25 2.54688 35.375 1.42188
Q33.5 0.296875 31.1562 -0.34375
Q28.8125 -0.984375 25.875 -0.984375
Q21.3438 -0.984375 17.5781 0.78125
Q13.8125 2.54688 11.125 6.03125
Q8.45312 9.51562 6.98438 14.6875
Q5.51562 19.875 5.51562 26.7031
Q5.51562 33.5938 6.98438 38.7969
Q8.45312 44 11.125 47.5156
Q13.8125 51.0312 17.5781 52.8125
Q21.3438 54.5938 25.875 54.5938
Q28.7656 54.5938 31.1094 53.9531
Q33.4531 53.3281 35.3281 52.25
Q37.2031 51.1719 38.6719 49.75
Q40.1406 48.3438 41.2188 46.7812
L41.7969 46.7812
Q41.6562 48.4375 41.5 49.9531
Q41.4062 51.2188 41.3125 52.5625
Q41.2188 53.9062 41.2188 54.6875
L41.2188 75.9844
L50.0938 75.9844
L50.0938 0
L42.9219 0
z

M27.5938 6.39062
Q31.2969 6.39062 33.8594 7.51562
Q36.4219 8.64062 38 10.9375
Q39.5938 13.2344 40.3438 16.6719
Q41.1094 20.125 41.2188 24.7031
L41.2188 26.7031
Q41.2188 31.6406 40.5469 35.4688
Q39.8906 39.3125 38.2969 41.9219
Q36.7188 44.5312 34.0781 45.875
Q31.4531 47.2188 27.4844 47.2188
Q20.9062 47.2188 17.7969 41.8906
Q14.7031 36.5781 14.7031 26.6094
Q14.7031 16.4062 17.7969 11.3906
Q20.9062 6.39062 27.5938 6.39062" id="WenQuanYiMicroHei-64"/>
      <path d="
M24.7031 6.29688
Q25.5938 6.29688 26.6875 6.39062
Q27.7812 6.5 28.7969 6.64062
Q29.8281 6.78125 30.6875 6.96875
Q31.5469 7.17188 31.9844 7.32812
L31.9844 0.59375
Q31.3438 0.296875 30.3594 0
Q29.3906 -0.296875 28.2188 -0.515625
Q27.0469 -0.734375 25.7812 -0.859375
Q24.5156 -0.984375 23.2969 -0.984375
Q20.2656 -0.984375 17.6719 -0.1875
Q15.0938 0.59375 13.2031 2.48438
Q11.3281 4.39062 10.25 7.64062
Q9.1875 10.8906 9.1875 15.8281
L9.1875 46.9219
L1.60938 46.9219
L1.60938 50.875
L9.1875 54.6875
L12.9844 65.9219
L18.1094 65.9219
L18.1094 53.6094
L31.5938 53.6094
L31.5938 46.9219
L18.1094 46.9219
L18.1094 15.8281
Q18.1094 11.0781 19.6406 8.6875
Q21.1875 6.29688 24.7031 6.29688" id="WenQuanYiMicroHei-74"/>
      <path d="
M38.7188 0
L36.9219 7.42188
L36.5312 7.42188
Q34.9062 5.21875 33.2969 3.625
Q31.6875 2.04688 29.7812 1.01562
Q27.875 0 25.5312 -0.484375
Q23.1875 -0.984375 20.125 -0.984375
Q16.75 -0.984375 13.9062 -0.03125
Q11.0781 0.921875 9 2.90625
Q6.9375 4.89062 5.76562 7.89062
Q4.59375 10.8906 4.59375 14.9844
Q4.59375 23 10.2344 27.2969
Q15.875 31.5938 27.3906 31.9844
L36.375 32.3281
L36.375 35.6875
Q36.375 38.9688 35.6719 41.1562
Q34.9688 43.3594 33.625 44.7031
Q32.2812 46.0469 30.2969 46.625
Q28.3281 47.2188 25.7812 47.2188
Q21.7344 47.2188 18.2344 46.0469
Q14.75 44.875 11.5312 43.2188
L8.40625 49.9062
Q12.0156 51.8594 16.4531 53.2188
Q20.9062 54.5938 25.7812 54.5938
Q30.7656 54.5938 34.3906 53.5938
Q38.0312 52.5938 40.4062 50.4219
Q42.7812 48.25 43.9531 44.875
Q45.125 41.5 45.125 36.7188
L45.125 0
z

M22.4062 6.20312
Q25.3906 6.20312 27.9219 7.125
Q30.4688 8.0625 32.3281 9.9375
Q34.1875 11.8125 35.2344 14.6719
Q36.2812 17.5312 36.2812 21.3906
L36.2812 26.2188
L29.2969 25.875
Q24.9062 25.6875 21.9219 24.9062
Q18.9531 24.125 17.1562 22.7344
Q15.375 21.3438 14.5938 19.3594
Q13.8125 17.3906 13.8125 14.8906
Q13.8125 10.4062 16.1875 8.29688
Q18.5625 6.20312 22.4062 6.20312" id="WenQuanYiMicroHei-61"/>
     </defs>
     <g transform="translate(63.7352275 28.7905790625)scale(0.09996 -0.09996)">
      <use xlink:href="#WenQuanYiMicroHei-64"/>
      <use x="58.59375" xlink:href="#WenQuanYiMicroHei-61"/>
      <use x="111.669921875" xlink:href="#WenQuanYiMicroHei-74"/>
      <use x="145.556640625" xlink:href="#WenQuanYiMicroHei-61"/>
     </g>
    </g>
    <g id="line2d_37">
     <path d="
M38.7452 40.2875
L52.7396 40.2875" style="fill:none;stroke:#a60628;stroke-linecap:square;stroke-width:2.0;"/>
    </g>
    <g id="line2d_38"/>
    <g id="text_17">
     <!-- expanding max -->
     <defs>
      <path d="
M72.7031 0
L72.7031 34.5156
Q72.7031 40.875 70.2656 44.0469
Q67.8281 47.2188 62.7031 47.2188
Q59.125 47.2188 56.6406 46.0625
Q54.1562 44.9219 52.5625 42.7031
Q50.9844 40.4844 50.25 37.1875
Q49.5156 33.8906 49.5156 29.5938
L49.5156 0
L40.5781 0
L40.5781 34.5156
Q40.5781 40.875 38.1562 44.0469
Q35.75 47.2188 30.6094 47.2188
Q26.8594 47.2188 24.3125 45.9375
Q21.7812 44.6719 20.2344 42.1875
Q18.7031 39.7031 18.0469 36.0781
Q17.3906 32.4688 17.3906 27.7812
L17.3906 0
L8.5 0
L8.5 53.6094
L15.7188 53.6094
L17 46.3906
L17.4844 46.3906
Q18.6562 48.4844 20.2656 50.0156
Q21.875 51.5625 23.7969 52.5781
Q25.7344 53.6094 27.9062 54.0938
Q30.0781 54.5938 32.3281 54.5938
Q38.1875 54.5938 42.0625 52.4375
Q45.9531 50.2969 47.7969 45.7031
L48.1875 45.7031
Q49.4688 48 51.25 49.6562
Q53.0312 51.3125 55.1562 52.4062
Q57.2812 53.5156 59.625 54.0469
Q61.9688 54.5938 64.4062 54.5938
Q72.9531 54.5938 77.2656 49.9219
Q81.5938 45.2656 81.5938 35.0156
L81.5938 0
z
" id="WenQuanYiMicroHei-6d"/>
      <path d="
M42 0
L42 34.5156
Q42 40.875 39.4219 44.0469
Q36.8594 47.2188 31.3906 47.2188
Q27.4375 47.2188 24.75 45.9375
Q22.0781 44.6719 20.4375 42.1875
Q18.7969 39.7031 18.0938 36.0781
Q17.3906 32.4688 17.3906 27.7812
L17.3906 0
L8.5 0
L8.5 53.6094
L15.7188 53.6094
L17 46.3906
L17.4844 46.3906
Q18.7031 48.4844 20.3906 50.0156
Q22.0781 51.5625 24.0781 52.5781
Q26.0781 53.6094 28.3125 54.0938
Q30.5625 54.5938 32.9062 54.5938
Q41.8438 54.5938 46.3594 49.9219
Q50.875 45.2656 50.875 35.0156
L50.875 0
z
" id="WenQuanYiMicroHei-6e"/>
      <path d="
M29.6875 -0.984375
Q24.3125 -0.984375 19.875 0.828125
Q15.4375 2.64062 12.2344 6.10938
Q9.03125 9.57812 7.26562 14.7031
Q5.51562 19.8281 5.51562 26.4219
Q5.51562 33.0625 7.125 38.2812
Q8.73438 43.5 11.6562 47.1406
Q14.5938 50.7812 18.6719 52.6875
Q22.75 54.5938 27.6875 54.5938
Q32.5156 54.5938 36.375 52.8594
Q40.2344 51.125 42.9219 47.9688
Q45.6094 44.8281 47.0469 40.4062
Q48.4844 35.9844 48.4844 30.6094
L48.4844 25.0938
L14.7031 25.0938
Q14.9375 15.6719 18.6719 11.2188
Q22.4062 6.78125 29.7812 6.78125
Q32.2812 6.78125 34.4062 7.03125
Q36.5312 7.28125 38.5 7.73438
Q40.4844 8.20312 42.3281 8.90625
Q44.1875 9.625 46.0938 10.5
L46.0938 2.59375
Q44.1406 1.65625 42.25 0.96875
Q40.375 0.296875 38.3906 -0.140625
Q36.4219 -0.59375 34.2969 -0.78125
Q32.1719 -0.984375 29.6875 -0.984375
M27.4844 47.2188
Q21.9219 47.2188 18.6719 43.4062
Q15.4375 39.5938 14.8906 32.3281
L38.9219 32.3281
Q38.9219 35.6406 38.25 38.3906
Q37.5938 41.1562 36.2031 43.1094
Q34.8125 45.0625 32.6562 46.1406
Q30.5156 47.2188 27.4844 47.2188" id="WenQuanYiMicroHei-65"/>
      <path d="
M49.8125 53.6094
L49.8125 48.0938
L40.1875 46.7812
Q41.5469 45.0625 42.4688 42.4062
Q43.4062 39.75 43.4062 36.375
Q43.4062 32.6719 42.25 29.5156
Q41.1094 26.375 38.7812 24.0781
Q36.4688 21.7812 33.0469 20.4844
Q29.6406 19.1875 25.0938 19.1875
Q24.0312 19.1875 22.9531 19.2031
Q21.875 19.2344 21.1875 19.3906
Q20.3594 18.8906 19.5469 18.2812
Q18.75 17.6719 18.0938 16.8906
Q17.4375 16.1094 17.0156 15.125
Q16.6094 14.1562 16.6094 12.9844
Q16.6094 11.6719 17.1875 10.8594
Q17.7812 10.0625 18.7812 9.625
Q19.7812 9.1875 21.1406 9.03125
Q22.5156 8.89062 24.0312 8.89062
L32.625 8.89062
Q37.1562 8.89062 40.2812 7.73438
Q43.4062 6.59375 45.375 4.64062
Q47.3594 2.6875 48.2344 0.015625
Q49.125 -2.64062 49.125 -5.60938
Q49.125 -9.90625 47.5312 -13.3281
Q45.9531 -16.75 42.6719 -19.1094
Q39.4062 -21.4844 34.3906 -22.75
Q29.3906 -24.0312 22.6094 -24.0312
Q17.3906 -24.0312 13.4844 -23
Q9.57812 -21.9688 6.98438 -20.0156
Q4.39062 -18.0625 3.09375 -15.2969
Q1.8125 -12.5469 1.8125 -9.07812
Q1.8125 -6.15625 2.76562 -3.92188
Q3.71875 -1.70312 5.32812 -0.09375
Q6.9375 1.51562 9.0625 2.53125
Q11.1875 3.5625 13.4844 4.10938
Q11.4219 5.03125 10.1094 7.03125
Q8.79688 9.03125 8.79688 11.625
Q8.79688 14.5938 10.3594 16.7656
Q11.9219 18.9531 15.2812 21
Q13.1875 21.875 11.4531 23.4062
Q9.71875 24.9531 8.51562 26.9219
Q7.32812 28.9062 6.65625 31.25
Q6 33.5938 6 36.0781
Q6 40.4375 7.21875 43.8438
Q8.45312 47.2656 10.8438 49.6562
Q13.2344 52.0469 16.7969 53.3125
Q20.3594 54.5938 25.0938 54.5938
Q26.9062 54.5938 28.8281 54.3125
Q30.7656 54.0469 32.0781 53.6094
z

M10.2031 -8.79688
Q10.2031 -10.5938 10.8281 -12.1562
Q11.4688 -13.7188 12.9062 -14.8438
Q14.3594 -15.9688 16.7188 -16.625
Q19.0938 -17.2812 22.6094 -17.2812
Q31.6875 -17.2812 36.2031 -14.4688
Q40.7188 -11.6719 40.7188 -6.39062
Q40.7188 -4.15625 40.125 -2.73438
Q39.5469 -1.3125 38.2031 -0.5
Q36.8594 0.296875 34.6562 0.578125
Q32.4688 0.875 29.2969 0.875
L20.7031 0.875
Q19 0.875 17.1406 0.484375
Q15.2812 0.09375 13.7344 -0.96875
Q12.2031 -2.04688 11.2031 -3.92188
Q10.2031 -5.8125 10.2031 -8.79688
M14.7031 36.375
Q14.7031 30.7656 17.3281 28.0312
Q19.9688 25.2969 24.8125 25.2969
Q29.6875 25.2969 32.2031 28
Q34.7188 30.7188 34.7188 36.5312
Q34.7188 42.5312 32.1562 45.3594
Q29.5938 48.1875 24.7031 48.1875
Q19.875 48.1875 17.2812 45.25
Q14.7031 42.3281 14.7031 36.375" id="WenQuanYiMicroHei-67"/>
      <path d="
M32.7188 -0.984375
Q29.8281 -0.984375 27.4844 -0.34375
Q25.1406 0.296875 23.2656 1.34375
Q21.3906 2.39062 19.9375 3.79688
Q18.5 5.21875 17.3906 6.78125
L16.7969 6.78125
Q16.9375 5.125 17.0938 3.60938
Q17.1875 2.34375 17.2812 1
Q17.3906 -0.34375 17.3906 -1.125
L17.3906 -24.0312
L8.5 -24.0312
L8.5 53.6094
L15.7188 53.6094
L17 46.3906
L17.3906 46.3906
Q18.5 48.0938 19.9219 49.5781
Q21.3438 51.0781 23.2188 52.1719
Q25.0938 53.2656 27.4375 53.9219
Q29.7812 54.5938 32.7188 54.5938
Q37.3125 54.5938 41.0625 52.8281
Q44.8281 51.0781 47.4844 47.5781
Q50.1406 44.0938 51.6094 38.9062
Q53.0781 33.7344 53.0781 26.9062
Q53.0781 20.0156 51.6094 14.8125
Q50.1406 9.625 47.4844 6.10938
Q44.8281 2.59375 41.0625 0.796875
Q37.3125 -0.984375 32.7188 -0.984375
M31 47.2188
Q27.2969 47.2188 24.7344 46.0938
Q22.1719 44.9688 20.5781 42.6719
Q19 40.375 18.2344 36.9531
Q17.4844 33.5469 17.3906 28.9062
L17.3906 26.9062
Q17.3906 21.9688 18.0469 18.1406
Q18.7031 14.3125 20.2812 11.6875
Q21.875 9.07812 24.5156 7.73438
Q27.1562 6.39062 31.1094 6.39062
Q37.7031 6.39062 40.7969 11.7188
Q43.8906 17.0469 43.8906 27
Q43.8906 37.1562 40.7969 42.1875
Q37.7031 47.2188 31 47.2188" id="WenQuanYiMicroHei-70"/>
      <path id="WenQuanYiMicroHei-20"/>
      <path d="
M17.3906 0
L8.5 0
L8.5 53.6094
L17.3906 53.6094
z

M7.8125 68.1094
Q7.8125 71.0469 9.29688 72.3594
Q10.7969 73.6875 12.9844 73.6875
Q14.0625 73.6875 15.0156 73.3594
Q15.9688 73.0469 16.6719 72.3594
Q17.3906 71.6875 17.7969 70.625
Q18.2188 69.5781 18.2188 68.1094
Q18.2188 65.2812 16.6719 63.8906
Q15.1406 62.5 12.9844 62.5
Q10.7969 62.5 9.29688 63.8594
Q7.8125 65.2344 7.8125 68.1094" id="WenQuanYiMicroHei-69"/>
      <path d="
M19.9219 27.4844
L2.6875 53.6094
L12.7969 53.6094
L25 33.5938
L37.2031 53.6094
L47.3125 53.6094
L29.9844 27.4844
L48.1875 0
L38.0938 0
L25 21.2969
L11.8125 0
L1.70312 0
z
" id="WenQuanYiMicroHei-78"/>
     </defs>
     <g transform="translate(63.7352275 43.7861409375)scale(0.09996 -0.09996)">
      <use xlink:href="#WenQuanYiMicroHei-65"/>
      <use x="53.515625" xlink:href="#WenQuanYiMicroHei-78"/>
      <use x="103.515625" xlink:href="#WenQuanYiMicroHei-70"/>
      <use x="162.109375" xlink:href="#WenQuanYiMicroHei-61"/>
      <use x="215.185546875" xlink:href="#WenQuanYiMicroHei-6e"/>
      <use x="274.072265625" xlink:href="#WenQuanYiMicroHei-64"/>
      <use x="332.666015625" xlink:href="#WenQuanYiMicroHei-69"/>
      <use x="358.544921875" xlink:href="#WenQuanYiMicroHei-6e"/>
      <use x="417.431640625" xlink:href="#WenQuanYiMicroHei-67"/>
      <use x="469.23828125" xlink:href="#WenQuanYiMicroHei-20"/>
      <use x="495.21484375" xlink:href="#WenQuanYiMicroHei-6d"/>
      <use x="584.814453125" xlink:href="#WenQuanYiMicroHei-61"/>
      <use x="637.890625" xlink:href="#WenQuanYiMicroHei-78"/>
     </g>
    </g>
    <g id="line2d_39">
     <path d="
M155.308 25.292
L169.302 25.292" style="fill:none;stroke:#7a68a6;stroke-linecap:square;stroke-width:2.0;"/>
    </g>
    <g id="line2d_40"/>
    <g id="text_18">
     <!-- expanding mean -->
     <g transform="translate(180.29795875 28.7905790625)scale(0.09996 -0.09996)">
      <use xlink:href="#WenQuanYiMicroHei-65"/>
      <use x="53.515625" xlink:href="#WenQuanYiMicroHei-78"/>
      <use x="103.515625" xlink:href="#WenQuanYiMicroHei-70"/>
      <use x="162.109375" xlink:href="#WenQuanYiMicroHei-61"/>
      <use x="215.185546875" xlink:href="#WenQuanYiMicroHei-6e"/>
      <use x="274.072265625" xlink:href="#WenQuanYiMicroHei-64"/>
      <use x="332.666015625" xlink:href="#WenQuanYiMicroHei-69"/>
      <use x="358.544921875" xlink:href="#WenQuanYiMicroHei-6e"/>
      <use x="417.431640625" xlink:href="#WenQuanYiMicroHei-67"/>
      <use x="469.23828125" xlink:href="#WenQuanYiMicroHei-20"/>
      <use x="495.21484375" xlink:href="#WenQuanYiMicroHei-6d"/>
      <use x="584.814453125" xlink:href="#WenQuanYiMicroHei-65"/>
      <use x="638.330078125" xlink:href="#WenQuanYiMicroHei-61"/>
      <use x="691.40625" xlink:href="#WenQuanYiMicroHei-6e"/>
     </g>
    </g>
    <g id="line2d_41">
     <path d="
M155.308 40.2875
L169.302 40.2875" style="fill:none;stroke:#467821;stroke-linecap:square;stroke-width:2.0;"/>
    </g>
    <g id="line2d_42"/>
    <g id="text_19">
     <!-- expanding min -->
     <g transform="translate(180.29795875 43.7861409375)scale(0.09996 -0.09996)">
      <use xlink:href="#WenQuanYiMicroHei-65"/>
      <use x="53.515625" xlink:href="#WenQuanYiMicroHei-78"/>
      <use x="103.515625" xlink:href="#WenQuanYiMicroHei-70"/>
      <use x="162.109375" xlink:href="#WenQuanYiMicroHei-61"/>
      <use x="215.185546875" xlink:href="#WenQuanYiMicroHei-6e"/>
      <use x="274.072265625" xlink:href="#WenQuanYiMicroHei-64"/>
      <use x="332.666015625" xlink:href="#WenQuanYiMicroHei-69"/>
      <use x="358.544921875" xlink:href="#WenQuanYiMicroHei-6e"/>
      <use x="417.431640625" xlink:href="#WenQuanYiMicroHei-67"/>
      <use x="469.23828125" xlink:href="#WenQuanYiMicroHei-20"/>
      <use x="495.21484375" xlink:href="#WenQuanYiMicroHei-6d"/>
      <use x="584.814453125" xlink:href="#WenQuanYiMicroHei-69"/>
      <use x="610.693359375" xlink:href="#WenQuanYiMicroHei-6e"/>
     </g>
    </g>
   </g>
  </g>
 </g>
 <defs>
  <clipPath id="pcacfc7f21a">
   <rect height="172.8" width="334.8" x="26.7500275" y="12.1987809375"/>
  </clipPath>
 </defs>
</svg>
