<?xml version="1.0" encoding="utf-8" standalone="no"?>
<!DOCTYPE svg PUBLIC "-//W3C//DTD SVG 1.1//EN"
  "http://www.w3.org/Graphics/SVG/1.1/DTD/svg11.dtd">
<!-- Created with matplotlib (http://matplotlib.org/) -->
<svg height="206pt" version="1.1" viewBox="0 0 376 206" width="376pt" xmlns="http://www.w3.org/2000/svg" xmlns:xlink="http://www.w3.org/1999/xlink">
 <defs>
  <style type="text/css">
*{stroke-linecap:butt;stroke-linejoin:round;}
  </style>
 </defs>
 <g id="figure_1">
  <g id="patch_1">
   <path d="
M0 206.196
L376.467 206.196
L376.467 0
L0 0
z
" style="fill:#ffffff;"/>
  </g>
  <g id="axes_1">
   <g id="patch_2">
    <path d="
M29.4302 184.999
L364.23 184.999
L364.23 12.1988
L29.4302 12.1988
z
" style="fill:#ffffff;"/>
   </g>
   <g id="line2d_1">
    <path clip-path="url(#p7559c7b864)" d="
M29.4302 98.5988
L34.4522 85.8323
L36.1262 35.6789
L37.8002 77.8876
L39.4742 74.2062
L41.1482 40.3852
L42.8222 67.609
L44.4962 64.7591
L46.1702 62.2472
L47.8442 60.0986
L49.5182 58.3347
L51.1922 56.9731
L52.8662 56.0274
L54.5402 55.507
L56.2142 55.4172
L57.8882 55.7589
L59.5622 56.5286
L61.2362 57.7186
L62.9102 59.3171
L64.5842 61.3081
L66.2582 63.6717
L67.9322 66.3843
L69.6062 69.4188
L71.2802 72.7448
L74.6282 80.136
L76.3022 84.1273
L77.9762 99.4599
L79.6502 92.5024
L82.9982 101.121
L84.6722 109.294
L86.3462 109.638
L89.6942 117.716
L91.3682 107.816
L93.0422 125.031
L94.7162 128.31
L96.3902 131.293
L98.0642 165.964
L99.7382 136.251
L101.412 138.177
L103.086 139.708
L104.76 140.828
L106.434 141.526
L108.108 141.795
L109.782 142.523
L111.456 141.041
L113.13 140.024
L114.804 138.594
L116.478 136.764
L118.152 134.553
L119.826 131.982
L121.5 129.078
L123.174 125.869
L124.848 139.144
L126.522 118.67
L129.87 110.67
L134.892 97.8724
L139.914 85.1402
L143.262 77.2531
L146.61 70.217
L148.284 67.1073
L149.958 64.3123
L151.632 61.8599
L153.306 59.7746
L154.98 58.0772
L156.654 56.7847
L158.328 58.0334
L160.002 55.4617
L161.676 55.4445
L163.35 55.8585
L165.024 56.6995
L166.698 57.9592
L168.372 59.625
L170.046 61.6801
L171.72 64.1041
L173.394 66.8728
L175.068 69.9585
L176.742 73.3304
L180.09 80.7953
L183.438 88.9699
L185.112 93.2223
L186.786 97.9478
L188.46 84.9165
L190.134 106.13
L193.482 114.431
L196.83 122.1
L198.504 125.602
L200.178 128.833
L201.852 100.655
L203.526 134.361
L205.2 136.602
L206.874 138.463
L208.548 139.925
L210.222 140.975
L211.896 141.602
L213.57 141.798
L215.244 141.563
L216.918 140.899
L218.592 139.812
L220.266 138.314
L221.94 136.418
L223.614 134.145
L225.288 131.516
L226.962 128.559
L228.636 125.302
L230.31 126.031
L231.984 118.024
L235.332 109.97
L247.05 80.4476
L250.398 73.0212
L252.072 69.6734
L253.746 66.6145
L255.42 63.8753
L257.094 16.0116
L258.768 59.4615
L260.442 57.8311
L262.116 56.6081
L263.79 55.8045
L265.464 55.4286
L267.138 55.484
L268.812 73.151
L270.486 56.8824
L272.16 58.2113
L273.834 59.9438
L275.508 62.0625
L277.182 64.5463
L278.856 67.3703
L280.53 70.5063
L283.878 77.5864
L287.226 85.5041
L292.248 98.2548
L297.27 111.036
L300.618 119.007
L302.292 155.21
L303.966 126.165
L305.64 129.348
L307.314 132.224
L308.988 134.763
L310.662 136.942
L312.336 138.737
L314.01 140.131
L315.684 141.11
L317.358 141.665
L319.032 112.809
L320.706 141.482
L322.38 140.746
L324.054 139.589
L325.728 138.022
L327.402 136.062
L329.076 133.727
L330.75 131.041
L332.424 128.032
L334.098 124.728
L337.446 117.372
L339.12 113.394
L340.794 154.591
L342.468 105.036
L345.816 96.4205
L347.49 134.792
L349.164 87.8923
L352.512 79.791
L355.86 72.4395
L357.534 69.138
L359.208 66.1308
L360.882 63.4481
L362.556 61.1166
L362.556 61.1166" style="fill:none;stroke:#348abd;stroke-linecap:square;stroke-width:2.0;"/>
   </g>
   <g id="line2d_2">
    <path clip-path="url(#p7559c7b864)" d="
M29.4302 76.9988
L34.4522 64.2323
L36.1262 56.2876
L37.8002 52.6062
L39.4742 46.009
L41.1482 46.009
L42.8222 43.1591
L44.4962 40.6472
L46.1702 40.6472
L47.8442 38.4986
L49.5182 36.7347
L51.1922 35.3731
L52.8662 34.4274
L54.5402 34.1589
L57.8882 34.1589
L59.5622 34.9286
L61.2362 36.1186
L62.9102 37.7171
L64.5842 39.7081
L66.2582 42.0717
L67.9322 44.7843
L69.6062 47.8188
L71.2802 51.1448
L74.6282 58.536
L76.3022 62.5273
L77.9762 70.9024
L79.6502 75.2025
L81.3242 77.8599
L82.9982 79.5205
L84.6722 87.6944
L86.3462 88.0382
L88.0202 88.0382
L91.3682 96.1157
L93.0422 103.431
L94.7162 106.71
L96.3902 109.693
L98.0642 114.651
L99.7382 116.577
L101.412 118.108
L103.086 118.108
L104.76 119.228
L106.434 119.926
L109.782 119.926
L111.456 119.441
L113.13 118.424
L114.804 116.994
L116.478 115.164
L118.152 112.953
L119.826 110.382
L121.5 110.382
L123.174 107.478
L124.848 104.269
L126.522 97.0696
L129.87 89.0695
L134.892 76.2724
L139.914 63.5402
L143.262 55.6531
L146.61 48.617
L148.284 45.5073
L149.958 42.7123
L151.632 40.2599
L153.306 38.1746
L154.98 36.4772
L156.654 36.4334
L158.328 35.1847
L160.002 34.2585
L163.35 34.2585
L165.024 35.0995
L166.698 36.3592
L168.372 38.025
L170.046 40.0801
L171.72 42.5041
L173.394 45.2728
L175.068 48.3585
L176.742 51.7304
L180.09 59.1953
L183.438 67.3699
L185.112 67.3699
L186.786 71.6223
L188.46 76.3478
L190.134 84.5297
L193.482 92.8307
L196.83 100.5
L198.504 100.5
L200.178 104.002
L201.852 107.233
L203.526 112.761
L205.2 115.002
L206.874 116.863
L208.548 118.325
L210.222 119.375
L211.896 119.963
L215.244 119.963
L216.918 119.299
L218.592 118.212
L220.266 116.714
L221.94 114.818
L223.614 112.545
L225.288 109.916
L226.962 106.959
L228.636 104.431
L230.31 103.702
L231.984 96.4236
L235.332 88.3704
L247.05 58.8476
L250.398 51.4212
L252.072 48.0734
L253.746 45.0145
L255.42 42.2753
L257.094 37.8615
L258.768 36.2311
L260.442 35.0081
L262.116 35.0081
L263.79 34.2045
L267.138 34.2045
L268.812 35.2824
L270.486 36.6113
L272.16 38.3438
L273.834 38.3438
L275.508 40.4625
L277.182 42.9463
L278.856 45.7703
L280.53 48.9063
L283.878 55.9864
L287.226 63.9041
L292.248 76.6548
L297.27 89.4362
L300.618 97.4074
L302.292 104.565
L303.966 107.748
L305.64 110.624
L307.314 110.624
L308.988 113.163
L310.662 115.342
L312.336 117.137
L314.01 118.531
L315.684 118.531
L317.358 119.51
L319.032 119.51
L320.706 119.146
L322.38 117.989
L324.054 117.989
L325.728 116.422
L327.402 114.462
L329.076 112.127
L330.75 109.441
L332.424 106.432
L334.098 103.128
L335.772 99.5625
L337.446 99.5625
L340.794 91.7939
L342.468 83.4355
L344.142 83.4355
L347.49 74.8205
L349.164 66.2923
L352.512 58.191
L355.86 50.8395
L357.534 47.538
L359.208 44.5308
L362.556 44.5308
L362.556 44.5308" style="fill:none;opacity:0.6;stroke:#a60628;stroke-linecap:square;stroke-width:2.0;"/>
   </g>
   <g id="patch_3">
    <path d="
M29.4302 12.1988
L364.23 12.1988" style="fill:none;stroke:#000000;stroke-linecap:square;stroke-linejoin:miter;"/>
   </g>
   <g id="patch_4">
    <path d="
M364.23 184.999
L364.23 12.1988" style="fill:none;stroke:#000000;stroke-linecap:square;stroke-linejoin:miter;"/>
   </g>
   <g id="patch_5">
    <path d="
M29.4302 184.999
L364.23 184.999" style="fill:none;stroke:#000000;stroke-linecap:square;stroke-linejoin:miter;"/>
   </g>
   <g id="patch_6">
    <path d="
M29.4302 184.999
L29.4302 12.1988" style="fill:none;stroke:#000000;stroke-linecap:square;stroke-linejoin:miter;"/>
   </g>
   <g id="matplotlib.axis_1">
    <g id="xtick_1">
     <g id="line2d_3">
      <defs>
       <path d="
M0 0
L0 -4" id="m93b0483c22" style="stroke:#000000;stroke-width:0.5;"/>
      </defs>
      <g>
       <use style="stroke:#000000;stroke-width:0.5;" x="29.430205" xlink:href="#m93b0483c22" y="184.998780938"/>
      </g>
     </g>
     <g id="line2d_4">
      <defs>
       <path d="
M0 0
L0 4" id="m741efc42ff" style="stroke:#000000;stroke-width:0.5;"/>
      </defs>
      <g>
       <use style="stroke:#000000;stroke-width:0.5;" x="29.430205" xlink:href="#m741efc42ff" y="12.1987809375"/>
      </g>
     </g>
     <g id="text_1">
      <!-- 0 -->
      <defs>
       <path d="
M50.3906 35.7969
Q50.3906 27.1562 49.1406 20.3125
Q47.9062 13.4844 45.1406 8.73438
Q42.3906 4 38.0312 1.5
Q33.6875 -0.984375 27.4844 -0.984375
Q21.7344 -0.984375 17.4531 1.5
Q13.1875 4 10.375 8.73438
Q7.5625 13.4844 6.17188 20.3125
Q4.78125 27.1562 4.78125 35.7969
Q4.78125 44.4375 6.03125 51.2656
Q7.28125 58.1094 9.98438 62.8125
Q12.7031 67.5312 17.0156 70.0156
Q21.3438 72.5156 27.4844 72.5156
Q33.2969 72.5156 37.5938 70.0469
Q41.8906 67.5781 44.7188 62.8594
Q47.5625 58.1562 48.9688 51.3125
Q50.3906 44.4844 50.3906 35.7969
M13.8125 35.7969
Q13.8125 28.4688 14.5469 23
Q15.2812 17.5312 16.8906 13.8906
Q18.5 10.25 21.1094 8.42188
Q23.7344 6.59375 27.4844 6.59375
Q31.25 6.59375 33.8906 8.39062
Q36.5312 10.2031 38.2031 13.8125
Q39.8906 17.4375 40.6406 22.9219
Q41.4062 28.4219 41.4062 35.7969
Q41.4062 43.1094 40.6406 48.5781
Q39.8906 54.0469 38.2031 57.6562
Q36.5312 61.2812 33.8906 63.0781
Q31.25 64.8906 27.4844 64.8906
Q23.7344 64.8906 21.1094 63.0781
Q18.5 61.2812 16.8906 57.6562
Q15.2812 54.0469 14.5469 48.5781
Q13.8125 43.1094 13.8125 35.7969" id="WenQuanYiMicroHei-30"/>
      </defs>
      <g transform="translate(27.1506484375 196.594179063)scale(0.09996 -0.09996)">
       <use xlink:href="#WenQuanYiMicroHei-30"/>
      </g>
     </g>
    </g>
    <g id="xtick_2">
     <g id="line2d_5">
      <g>
       <use style="stroke:#000000;stroke-width:0.5;" x="113.130205" xlink:href="#m93b0483c22" y="184.998780938"/>
      </g>
     </g>
     <g id="line2d_6">
      <g>
       <use style="stroke:#000000;stroke-width:0.5;" x="113.130205" xlink:href="#m741efc42ff" y="12.1987809375"/>
      </g>
     </g>
     <g id="text_2">
      <!-- 5 -->
      <defs>
       <path d="
M26.6094 43.7969
Q31.4531 43.7969 35.625 42.4531
Q39.7969 41.1094 42.8906 38.4688
Q46 35.8438 47.75 31.9375
Q49.5156 28.0312 49.5156 22.9062
Q49.5156 17.3281 47.8438 12.8906
Q46.1875 8.45312 42.9219 5.375
Q39.6562 2.29688 34.8438 0.65625
Q30.0312 -0.984375 23.7812 -0.984375
Q21.2969 -0.984375 18.875 -0.734375
Q16.4531 -0.484375 14.2344 -0.015625
Q12.0156 0.4375 10.0156 1.17188
Q8.01562 1.90625 6.39062 2.875
L6.39062 11.2812
Q8.01562 10.1562 10.1875 9.28125
Q12.3594 8.40625 14.75 7.8125
Q17.1406 7.23438 19.5469 6.90625
Q21.9688 6.59375 24.0312 6.59375
Q27.875 6.59375 30.9062 7.5
Q33.9375 8.40625 36.0312 10.2969
Q38.1406 12.2031 39.25 15.0781
Q40.375 17.9688 40.375 21.9219
Q40.375 28.9062 36.0781 32.5938
Q31.7812 36.2812 23.5781 36.2812
Q22.2656 36.2812 20.7188 36.1562
Q19.1875 36.0312 17.6406 35.8281
Q16.1094 35.6406 14.7188 35.4219
Q13.3281 35.2031 12.3125 35.0156
L7.90625 37.7969
L10.5938 71.3906
L44.2812 71.3906
L44.2812 63.2812
L18.3125 63.2812
L16.4062 42.8281
Q17.9688 43.1094 20.5312 43.4531
Q23.0938 43.7969 26.6094 43.7969" id="WenQuanYiMicroHei-35"/>
      </defs>
      <g transform="translate(110.9748175 196.594179063)scale(0.09996 -0.09996)">
       <use xlink:href="#WenQuanYiMicroHei-35"/>
      </g>
     </g>
    </g>
    <g id="xtick_3">
     <g id="line2d_7">
      <g>
       <use style="stroke:#000000;stroke-width:0.5;" x="196.830205" xlink:href="#m93b0483c22" y="184.998780938"/>
      </g>
     </g>
     <g id="line2d_8">
      <g>
       <use style="stroke:#000000;stroke-width:0.5;" x="196.830205" xlink:href="#m741efc42ff" y="12.1987809375"/>
      </g>
     </g>
     <g id="text_3">
      <!-- 10 -->
      <defs>
       <path d="
M34.7188 0
L26.125 0
L26.125 44.5781
Q26.125 46.6875 26.1406 49.0781
Q26.1719 51.4688 26.2344 53.8281
Q26.3125 56.2031 26.3906 58.375
Q26.4688 60.5469 26.5156 62.2031
Q25.6875 61.3281 25.0469 60.6875
Q24.4219 60.0625 23.75 59.4688
Q23.0938 58.8906 22.3594 58.2188
Q21.625 57.5625 20.6094 56.6875
L13.375 50.7812
L8.6875 56.7812
L27.3906 71.3906
L34.7188 71.3906
z
" id="WenQuanYiMicroHei-31"/>
      </defs>
      <g transform="translate(191.993078125 196.594179063)scale(0.09996 -0.09996)">
       <use xlink:href="#WenQuanYiMicroHei-31"/>
       <use x="55.078125" xlink:href="#WenQuanYiMicroHei-30"/>
      </g>
     </g>
    </g>
    <g id="xtick_4">
     <g id="line2d_9">
      <g>
       <use style="stroke:#000000;stroke-width:0.5;" x="280.530205" xlink:href="#m93b0483c22" y="184.998780938"/>
      </g>
     </g>
     <g id="line2d_10">
      <g>
       <use style="stroke:#000000;stroke-width:0.5;" x="280.530205" xlink:href="#m741efc42ff" y="12.1987809375"/>
      </g>
     </g>
     <g id="text_4">
      <!-- 15 -->
      <g transform="translate(275.736810625 196.594179063)scale(0.09996 -0.09996)">
       <use xlink:href="#WenQuanYiMicroHei-31"/>
       <use x="55.078125" xlink:href="#WenQuanYiMicroHei-35"/>
      </g>
     </g>
    </g>
    <g id="xtick_5">
     <g id="line2d_11">
      <g>
       <use style="stroke:#000000;stroke-width:0.5;" x="364.230205" xlink:href="#m93b0483c22" y="184.998780938"/>
      </g>
     </g>
     <g id="line2d_12">
      <g>
       <use style="stroke:#000000;stroke-width:0.5;" x="364.230205" xlink:href="#m741efc42ff" y="12.1987809375"/>
      </g>
     </g>
     <g id="text_5">
      <!-- 20 -->
      <defs>
       <path d="
M49.2188 0
L4.6875 0
L4.6875 7.625
L21.7812 26.2188
Q25.4375 30.1719 28.3125 33.4375
Q31.2031 36.7188 33.2188 39.8438
Q35.25 42.9688 36.3281 46.1094
Q37.4062 49.2656 37.4062 52.9844
Q37.4062 55.8594 36.5781 58.0469
Q35.75 60.25 34.2031 61.7812
Q32.6719 63.3281 30.5625 64.1094
Q28.4688 64.8906 25.875 64.8906
Q21.2344 64.8906 17.5 63.0156
Q13.7656 61.1406 10.4062 58.2031
L5.42188 64.0156
Q7.375 65.7656 9.60938 67.2969
Q11.8594 68.8438 14.4531 69.9688
Q17.0469 71.0938 19.9219 71.75
Q22.7969 72.4062 25.9844 72.4062
Q30.6719 72.4062 34.4531 71.0938
Q38.2344 69.7812 40.8594 67.3125
Q43.5 64.8438 44.9375 61.2969
Q46.3906 57.7656 46.3906 53.3281
Q46.3906 49.1719 45.0938 45.4062
Q43.7969 41.6562 41.5312 38.0156
Q39.2656 34.375 36.1094 30.7031
Q32.9531 27.0469 29.2969 23.0938
L15.5781 8.5
L15.5781 8.10938
L49.2188 8.10938
z
" id="WenQuanYiMicroHei-32"/>
      </defs>
      <g transform="translate(359.193158125 196.594179063)scale(0.09996 -0.09996)">
       <use xlink:href="#WenQuanYiMicroHei-32"/>
       <use x="55.078125" xlink:href="#WenQuanYiMicroHei-30"/>
      </g>
     </g>
    </g>
   </g>
   <g id="matplotlib.axis_2">
    <g id="ytick_1">
     <g id="line2d_13">
      <defs>
       <path d="
M0 0
L4 0" id="m728421d6d4" style="stroke:#000000;stroke-width:0.5;"/>
      </defs>
      <g>
       <use style="stroke:#000000;stroke-width:0.5;" x="29.430205" xlink:href="#m728421d6d4" y="184.998780937"/>
      </g>
     </g>
     <g id="line2d_14">
      <defs>
       <path d="
M0 0
L-4 0" id="mcb0005524f" style="stroke:#000000;stroke-width:0.5;"/>
      </defs>
      <g>
       <use style="stroke:#000000;stroke-width:0.5;" x="364.230205" xlink:href="#mcb0005524f" y="184.998780937"/>
      </g>
     </g>
     <g id="text_6">
      <!-- −2.0 -->
      <defs>
       <path d="
M4.98438 31.5938
L4.98438 38.9219
L50.0938 38.9219
L50.0938 31.5938
z
" id="WenQuanYiMicroHei-2212"/>
       <path d="
M7.17188 5.42188
Q7.17188 7.28125 7.65625 8.5625
Q8.15625 9.85938 8.98438 10.6562
Q9.8125 11.4688 10.9375 11.8281
Q12.0625 12.2031 13.375 12.2031
Q14.6562 12.2031 15.7969 11.8281
Q16.9375 11.4688 17.7656 10.6562
Q18.6094 9.85938 19.0938 8.5625
Q19.5781 7.28125 19.5781 5.42188
Q19.5781 3.60938 19.0938 2.3125
Q18.6094 1.03125 17.7656 0.1875
Q16.9375 -0.640625 15.7969 -1.03125
Q14.6562 -1.42188 13.375 -1.42188
Q12.0625 -1.42188 10.9375 -1.03125
Q9.8125 -0.640625 8.98438 0.1875
Q8.15625 1.03125 7.65625 2.3125
Q7.17188 3.60938 7.17188 5.42188" id="WenQuanYiMicroHei-2e"/>
      </defs>
      <g transform="translate(7.2 187.595398125)scale(0.09996 -0.09996)">
       <use xlink:href="#WenQuanYiMicroHei-2212"/>
       <use x="55.078125" xlink:href="#WenQuanYiMicroHei-32"/>
       <use x="110.15625" xlink:href="#WenQuanYiMicroHei-2e"/>
       <use x="136.962890625" xlink:href="#WenQuanYiMicroHei-30"/>
      </g>
     </g>
    </g>
    <g id="ytick_2">
     <g id="line2d_15">
      <g>
       <use style="stroke:#000000;stroke-width:0.5;" x="29.430205" xlink:href="#m728421d6d4" y="163.398780938"/>
      </g>
     </g>
     <g id="line2d_16">
      <g>
       <use style="stroke:#000000;stroke-width:0.5;" x="364.230205" xlink:href="#mcb0005524f" y="163.398780938"/>
      </g>
     </g>
     <g id="text_7">
      <!-- −1.5 -->
      <g transform="translate(7.287465 165.995398125)scale(0.09996 -0.09996)">
       <use xlink:href="#WenQuanYiMicroHei-2212"/>
       <use x="55.078125" xlink:href="#WenQuanYiMicroHei-31"/>
       <use x="110.15625" xlink:href="#WenQuanYiMicroHei-2e"/>
       <use x="136.962890625" xlink:href="#WenQuanYiMicroHei-35"/>
      </g>
     </g>
    </g>
    <g id="ytick_3">
     <g id="line2d_17">
      <g>
       <use style="stroke:#000000;stroke-width:0.5;" x="29.430205" xlink:href="#m728421d6d4" y="141.798780938"/>
      </g>
     </g>
     <g id="line2d_18">
      <g>
       <use style="stroke:#000000;stroke-width:0.5;" x="364.230205" xlink:href="#mcb0005524f" y="141.798780938"/>
      </g>
     </g>
     <g id="text_8">
      <!-- −1.0 -->
      <g transform="translate(7.2 144.395398125)scale(0.09996 -0.09996)">
       <use xlink:href="#WenQuanYiMicroHei-2212"/>
       <use x="55.078125" xlink:href="#WenQuanYiMicroHei-31"/>
       <use x="110.15625" xlink:href="#WenQuanYiMicroHei-2e"/>
       <use x="136.962890625" xlink:href="#WenQuanYiMicroHei-30"/>
      </g>
     </g>
    </g>
    <g id="ytick_4">
     <g id="line2d_19">
      <g>
       <use style="stroke:#000000;stroke-width:0.5;" x="29.430205" xlink:href="#m728421d6d4" y="120.198780938"/>
      </g>
     </g>
     <g id="line2d_20">
      <g>
       <use style="stroke:#000000;stroke-width:0.5;" x="364.230205" xlink:href="#mcb0005524f" y="120.198780938"/>
      </g>
     </g>
     <g id="text_9">
      <!-- −0.5 -->
      <g transform="translate(7.287465 122.795398125)scale(0.09996 -0.09996)">
       <use xlink:href="#WenQuanYiMicroHei-2212"/>
       <use x="55.078125" xlink:href="#WenQuanYiMicroHei-30"/>
       <use x="110.15625" xlink:href="#WenQuanYiMicroHei-2e"/>
       <use x="136.962890625" xlink:href="#WenQuanYiMicroHei-35"/>
      </g>
     </g>
    </g>
    <g id="ytick_5">
     <g id="line2d_21">
      <g>
       <use style="stroke:#000000;stroke-width:0.5;" x="29.430205" xlink:href="#m728421d6d4" y="98.5987809375"/>
      </g>
     </g>
     <g id="line2d_22">
      <g>
       <use style="stroke:#000000;stroke-width:0.5;" x="364.230205" xlink:href="#mcb0005524f" y="98.5987809375"/>
      </g>
     </g>
     <g id="text_10">
      <!-- 0.0 -->
      <g transform="translate(12.685305 101.195398125)scale(0.09996 -0.09996)">
       <use xlink:href="#WenQuanYiMicroHei-30"/>
       <use x="55.078125" xlink:href="#WenQuanYiMicroHei-2e"/>
       <use x="81.884765625" xlink:href="#WenQuanYiMicroHei-30"/>
      </g>
     </g>
    </g>
    <g id="ytick_6">
     <g id="line2d_23">
      <g>
       <use style="stroke:#000000;stroke-width:0.5;" x="29.430205" xlink:href="#m728421d6d4" y="76.9987809375"/>
      </g>
     </g>
     <g id="line2d_24">
      <g>
       <use style="stroke:#000000;stroke-width:0.5;" x="364.230205" xlink:href="#mcb0005524f" y="76.9987809375"/>
      </g>
     </g>
     <g id="text_11">
      <!-- 0.5 -->
      <g transform="translate(12.77277 79.595398125)scale(0.09996 -0.09996)">
       <use xlink:href="#WenQuanYiMicroHei-30"/>
       <use x="55.078125" xlink:href="#WenQuanYiMicroHei-2e"/>
       <use x="81.884765625" xlink:href="#WenQuanYiMicroHei-35"/>
      </g>
     </g>
    </g>
    <g id="ytick_7">
     <g id="line2d_25">
      <g>
       <use style="stroke:#000000;stroke-width:0.5;" x="29.430205" xlink:href="#m728421d6d4" y="55.3987809375"/>
      </g>
     </g>
     <g id="line2d_26">
      <g>
       <use style="stroke:#000000;stroke-width:0.5;" x="364.230205" xlink:href="#mcb0005524f" y="55.3987809375"/>
      </g>
     </g>
     <g id="text_12">
      <!-- 1.0 -->
      <g transform="translate(13.07577375 57.995398125)scale(0.09996 -0.09996)">
       <use xlink:href="#WenQuanYiMicroHei-31"/>
       <use x="55.078125" xlink:href="#WenQuanYiMicroHei-2e"/>
       <use x="81.884765625" xlink:href="#WenQuanYiMicroHei-30"/>
      </g>
     </g>
    </g>
    <g id="ytick_8">
     <g id="line2d_27">
      <g>
       <use style="stroke:#000000;stroke-width:0.5;" x="29.430205" xlink:href="#m728421d6d4" y="33.7987809375"/>
      </g>
     </g>
     <g id="line2d_28">
      <g>
       <use style="stroke:#000000;stroke-width:0.5;" x="364.230205" xlink:href="#mcb0005524f" y="33.7987809375"/>
      </g>
     </g>
     <g id="text_13">
      <!-- 1.5 -->
      <g transform="translate(13.16323875 36.395398125)scale(0.09996 -0.09996)">
       <use xlink:href="#WenQuanYiMicroHei-31"/>
       <use x="55.078125" xlink:href="#WenQuanYiMicroHei-2e"/>
       <use x="81.884765625" xlink:href="#WenQuanYiMicroHei-35"/>
      </g>
     </g>
    </g>
    <g id="ytick_9">
     <g id="line2d_29">
      <g>
       <use style="stroke:#000000;stroke-width:0.5;" x="29.430205" xlink:href="#m728421d6d4" y="12.1987809375"/>
      </g>
     </g>
     <g id="line2d_30">
      <g>
       <use style="stroke:#000000;stroke-width:0.5;" x="364.230205" xlink:href="#mcb0005524f" y="12.1987809375"/>
      </g>
     </g>
     <g id="text_14">
      <!-- 2.0 -->
      <g transform="translate(12.67593375 14.795398125)scale(0.09996 -0.09996)">
       <use xlink:href="#WenQuanYiMicroHei-32"/>
       <use x="55.078125" xlink:href="#WenQuanYiMicroHei-2e"/>
       <use x="81.884765625" xlink:href="#WenQuanYiMicroHei-30"/>
      </g>
     </g>
    </g>
   </g>
   <g id="legend_1">
    <g id="patch_7">
     <path d="
M134.656 180.001
L259.005 180.001
L259.005 147.011
L134.656 147.011
z
" style="fill:#ffffff;stroke:#000000;stroke-linejoin:miter;"/>
    </g>
    <g id="line2d_31">
     <path d="
M141.653 155.106
L155.647 155.106" style="fill:none;stroke:#348abd;stroke-linecap:square;stroke-width:2.0;"/>
    </g>
    <g id="line2d_32"/>
    <g id="text_15">
     <!-- 带噪声的信号 -->
     <defs>
      <path d="
M42.1875 78.9062
L83.9844 78.9062
L83.9844 58.5938
L42.1875 58.5938
z

M50 65.2344
L76.1719 65.2344
L76.1719 72.2656
L50 72.2656
z

M34.7656 53.125
L60.1562 53.125
L60.1562 31.6406
L34.7656 31.6406
z

M42.1875 38.2812
L52.7344 38.2812
L52.7344 46.875
L42.1875 46.875
z

M66.4062 53.125
L91.7969 53.125
L91.7969 31.6406
L66.4062 31.6406
z

M73.8281 38.2812
L84.375 38.2812
L84.375 46.875
L73.8281 46.875
z

M33.9844 24.2188
L60.1562 24.2188
L60.1562 28.9062
L67.5781 28.9062
L67.5781 24.2188
L94.9219 24.2188
L94.9219 17.5781
L71.875 17.5781
Q81.6406 6.25 96.4844 1.17188
L92.5781 -6.25
Q78.125 0.390625 67.5781 13.2812
L67.5781 -8.98438
L60.1562 -8.98438
L60.1562 12.8906
Q50.7812 1.95312 35.1562 -5.46875
L30.0781 0.78125
Q45.3125 7.03125 55.8594 17.5781
L33.9844 17.5781
z

M30.0781 71.875
L30.0781 10.5469
L23.0469 10.5469
L23.0469 17.1875
L15.2344 17.1875
L15.2344 7.03125
L8.20312 7.03125
L8.20312 71.875
z

M15.2344 23.8281
L23.0469 23.8281
L23.0469 65.2344
L15.2344 65.2344
z
" id="WenQuanYiMicroHei-566a"/>
      <path d="
M58.9844 80.4688
L66.7969 78.9062
Q64.8438 71.4844 61.7188 64.4531
L92.1875 64.4531
Q92.1875 12.8906 88.6719 0.78125
Q85.9375 -8.98438 75.7812 -8.98438
Q70.7031 -8.98438 63.6719 -7.42188
L61.7188 0.78125
Q71.4844 -0.78125 75.7812 -0.78125
Q80.4688 -0.78125 81.6406 4.6875
Q83.9844 15.2344 83.9844 57.0312
L57.8125 57.0312
Q53.125 48.8281 47.6562 43.3594
L41.7969 48.8281
Q53.5156 61.7188 58.9844 80.4688
M62.1094 41.7969
Q67.9688 33.2031 71.875 22.6562
L64.4531 19.1406
Q60.5469 30.0781 54.6875 38.6719
z

M40.2344 67.9688
L40.2344 -2.73438
L33.2031 -2.73438
L33.2031 0.390625
L15.2344 0.390625
L15.2344 -5.46875
L8.20312 -5.46875
L8.20312 67.9688
L16.7969 67.9688
Q18.75 74.2188 19.5312 80.8594
L27.7344 79.2969
Q26.1719 73.0469 24.2188 67.9688
z

M33.2031 37.8906
L33.2031 60.5469
L15.2344 60.5469
L15.2344 37.8906
z

M15.2344 30.4688
L15.2344 7.8125
L33.2031 7.8125
L33.2031 30.4688
z
" id="WenQuanYiMicroHei-7684"/>
      <path d="
M6.25 73.8281
L46.4844 73.8281
L46.4844 81.25
L54.2969 81.25
L54.2969 73.8281
L93.75 73.8281
L93.75 66.4062
L54.2969 66.4062
L54.2969 58.2031
L87.5 58.2031
L87.5 50.7812
L13.2812 50.7812
L13.2812 58.2031
L46.4844 58.2031
L46.4844 66.4062
L6.25 66.4062
z

M80.8594 17.1875
L21.875 17.1875
Q21.0938 0 10.5469 -9.76562
L5.07812 -3.125
Q14.0625 5.46875 14.0625 25
L14.0625 44.5312
L88.6719 44.5312
L88.6719 10.1562
L80.8594 10.1562
z

M80.8594 37.1094
L55.4688 37.1094
L55.4688 24.6094
L80.8594 24.6094
z

M21.875 24.6094
L47.6562 24.6094
L47.6562 37.1094
L21.875 37.1094
z
" id="WenQuanYiMicroHei-58f0"/>
      <path d="
M22.6562 80.8594
L30.4688 80.8594
L30.4688 71.4844
L46.0938 71.4844
L46.0938 81.25
L53.9062 81.25
L53.9062 71.4844
L69.1406 71.4844
L69.1406 81.25
L76.9531 81.25
L76.9531 71.4844
L92.5781 71.4844
L92.5781 64.0625
L76.9531 64.0625
L76.9531 51.9531
L69.1406 51.9531
L69.1406 64.0625
L53.9062 64.0625
L53.9062 52.3438
L46.0938 52.3438
L46.0938 64.0625
L30.4688 64.0625
L30.4688 51.9531
L22.6562 51.9531
L22.6562 64.0625
L7.42188 64.0625
L7.42188 71.4844
L22.6562 71.4844
z

M92.5781 48.8281
L92.5781 30.8594
L84.7656 30.8594
L84.7656 41.7969
L14.8438 41.7969
L14.8438 30.4688
L7.03125 30.4688
L7.03125 48.8281
z

M81.25 29.2969
L81.25 7.42188
Q81.25 2.73438 78.9062 0.390625
Q76.5625 -1.95312 71.4844 -1.95312
Q67.1875 -1.95312 61.3281 -1.17188
L59.375 6.25
Q67.1875 5.46875 71.0938 5.46875
Q74.2188 5.46875 74.2188 9.375
L74.2188 22.2656
L53.5156 22.2656
L53.5156 -9.76562
L45.7031 -9.76562
L45.7031 22.2656
L25 22.2656
L25 -2.34375
L17.1875 -2.34375
L17.1875 29.2969
L45.7031 29.2969
L45.7031 38.6719
L53.5156 38.6719
L53.5156 29.2969
z
" id="WenQuanYiMicroHei-5e26"/>
      <path d="
M16.4062 77.3438
L81.25 77.3438
L81.25 50.3906
L16.4062 50.3906
z

M24.2188 57.8125
L73.4375 57.8125
L73.4375 69.9219
L24.2188 69.9219
z

M5.07812 43.3594
L94.9219 43.3594
L94.9219 35.9375
L31.6406 35.9375
L28.5156 23.4375
L83.5938 23.4375
Q82.4219 1.5625 79.2969 -3.70312
Q76.1719 -8.98438 69.5312 -8.98438
Q60.1562 -8.98438 48.8281 -8.20312
L47.2656 -0.390625
Q59.7656 -1.17188 68.75 -1.17188
Q71.4844 -1.17188 72.8438 1.35938
Q74.2188 3.90625 75 16.0156
L17.9688 16.0156
L23.4375 35.9375
L5.07812 35.9375
z
" id="WenQuanYiMicroHei-53f7"/>
      <path d="
M24.6094 80.8594
L32.4219 78.5156
Q29.2969 69.5312 25.3906 60.5469
L25.3906 -8.98438
L17.5781 -8.98438
L17.5781 45.7031
Q12.8906 38.2812 7.8125 32.0312
L3.90625 39.8438
Q18.3594 59.375 24.6094 80.8594
M32.8125 69.5312
L60.5469 69.5312
Q58.5938 74.2188 56.25 78.125
L64.4531 80.8594
Q67.5781 75.7812 69.5312 69.5312
L94.9219 69.5312
L94.9219 62.1094
L32.8125 62.1094
z

M37.8906 54.2969
L89.4531 54.2969
L89.4531 47.2656
L37.8906 47.2656
z

M37.8906 39.4531
L89.4531 39.4531
L89.4531 32.4219
L37.8906 32.4219
z

M88.6719 24.6094
L88.6719 -8.20312
L80.8594 -8.20312
L80.8594 -3.51562
L46.4844 -3.51562
L46.4844 -8.59375
L38.6719 -8.59375
L38.6719 24.6094
z

M46.4844 3.51562
L80.8594 3.51562
L80.8594 17.5781
L46.4844 17.5781
z
" id="WenQuanYiMicroHei-4fe1"/>
     </defs>
     <g transform="translate(166.643065938 158.604655313)scale(0.09996 -0.09996)">
      <use xlink:href="#WenQuanYiMicroHei-5e26"/>
      <use x="100.0" xlink:href="#WenQuanYiMicroHei-566a"/>
      <use x="200.0" xlink:href="#WenQuanYiMicroHei-58f0"/>
      <use x="300.0" xlink:href="#WenQuanYiMicroHei-7684"/>
      <use x="400.0" xlink:href="#WenQuanYiMicroHei-4fe1"/>
      <use x="500.0" xlink:href="#WenQuanYiMicroHei-53f7"/>
     </g>
    </g>
    <g id="line2d_33">
     <path d="
M141.653 170.102
L155.647 170.102" style="fill:none;opacity:0.6;stroke:#a60628;stroke-linecap:square;stroke-width:2.0;"/>
    </g>
    <g id="line2d_34"/>
    <g id="text_16">
     <!-- 中值滤波之后的信号 -->
     <defs>
      <path d="
M69.5312 25
Q73.4375 19.1406 75.7812 11.7188
L68.75 9.375
Q66.7969 16.7969 62.5 23.0469
z

M83.9844 22.2656
Q91.0156 13.2812 95.3125 3.125
L88.6719 -0.78125
Q84.375 9.375 77.7344 18.3594
z

M52.7344 21.875
L60.5469 21.875
L60.5469 3.125
Q60.5469 -0.390625 63.6719 -0.390625
Q71.4844 -0.390625 73.0469 0.78125
Q74.6094 1.95312 75.3906 8.59375
L82.8125 6.64062
Q82.0312 -1.95312 79.2969 -5.07812
Q76.9531 -7.8125 63.6719 -7.8125
Q56.25 -7.8125 54.4844 -6.04688
Q52.7344 -4.29688 52.7344 0.78125
z

M43.3594 21.0938
L50 18.75
Q46.4844 4.29688 41.7969 -5.85938
L34.375 -1.95312
Q40.2344 9.76562 43.3594 21.0938
M75 50.7812
L75.7812 44.1406
L57.0312 41.7969
L57.0312 38.2812
Q57.0312 37.1094 58.9844 36.3281
Q60.9375 35.5469 64.4531 35.5469
Q75.7812 35.5469 77.3438 36.7188
Q78.9062 37.8906 79.2969 43.75
L86.3281 41.7969
Q85.5469 33.5938 82.6094 31.25
Q79.6875 28.9062 64.4531 28.9062
Q55.0781 28.9062 52.5312 30.4688
Q50 32.0312 50 35.9375
L50 40.625
L41.4062 39.8438
L40.2344 46.4844
L50 47.6562
L50 55.4688
L37.5 55.4688
L37.5 29.2969
Q37.5 7.42188 25.7812 -9.375
L18.75 -5.07812
Q25.3906 5.07812 27.7344 13.0781
Q30.0781 21.0938 30.0781 32.0312
L30.0781 62.5
L51.5625 62.5
L51.5625 81.6406
L59.375 81.6406
L59.375 75
L84.7656 75
L84.7656 67.9688
L59.375 67.9688
L59.375 62.5
L92.9688 62.5
L92.9688 55.8594
Q90.2344 50.3906 85.5469 44.9219
L78.9062 48.8281
Q81.6406 52.3438 83.5938 55.4688
L57.0312 55.4688
L57.0312 48.4375
z

M12.5 79.2969
Q19.5312 73.8281 25 67.9688
L19.1406 62.1094
Q13.6719 69.1406 6.64062 75
z

M9.375 55.8594
Q16.7969 51.1719 23.0469 44.9219
L17.5781 38.6719
Q11.3281 45.7031 4.29688 50.7812
z

M17.1875 29.6875
L23.4375 25.3906
Q19.1406 7.42188 10.9375 -9.375
L4.29688 -4.29688
Q12.5 11.7188 17.1875 29.6875" id="WenQuanYiMicroHei-6ee4"/>
      <path d="
M24.6094 80.8594
L32.4219 78.5156
Q29.2969 69.5312 25.3906 60.5469
L25.3906 -8.98438
L17.5781 -8.98438
L17.5781 45.7031
Q12.8906 38.2812 7.8125 32.0312
L3.90625 39.8438
Q18.3594 59.375 24.6094 80.8594
M35.1562 71.4844
L59.375 71.4844
L59.375 80.4688
L67.1875 80.4688
L67.1875 71.4844
L91.7969 71.4844
L91.7969 64.4531
L67.1875 64.4531
L67.1875 55.4688
L87.1094 55.4688
L87.1094 1.17188
L94.5312 1.17188
L94.5312 -5.46875
L30.0781 -5.46875
L30.0781 1.17188
L41.0156 1.17188
L41.0156 55.4688
L59.375 55.4688
L59.375 64.4531
L35.1562 64.4531
z

M48.8281 41.4062
L79.2969 41.4062
L79.2969 48.8281
L48.8281 48.8281
z

M48.8281 27.7344
L79.2969 27.7344
L79.2969 35.5469
L48.8281 35.5469
z

M48.8281 14.4531
L79.2969 14.4531
L79.2969 21.875
L48.8281 21.875
z

M48.8281 1.17188
L79.2969 1.17188
L79.2969 8.59375
L48.8281 8.59375
z
" id="WenQuanYiMicroHei-503c"/>
      <path d="
M89.4531 66.0156
L89.4531 17.9688
L81.6406 17.9688
L81.6406 24.2188
L53.5156 24.2188
L53.5156 -9.76562
L45.7031 -9.76562
L45.7031 24.2188
L18.75 24.2188
L18.75 17.1875
L10.9375 17.1875
L10.9375 66.0156
L45.7031 66.0156
L45.7031 81.25
L53.5156 81.25
L53.5156 66.0156
z

M18.75 31.6406
L45.7031 31.6406
L45.7031 58.5938
L18.75 58.5938
z

M53.5156 58.5938
L53.5156 31.6406
L81.6406 31.6406
L81.6406 58.5938
z
" id="WenQuanYiMicroHei-4e2d"/>
      <path d="
M16.4062 80.4688
Q26.5625 75.3906 35.1562 68.75
L29.6875 62.1094
Q20.7031 69.5312 10.9375 75
z

M11.7188 57.0312
Q21.0938 52.3438 29.2969 46.0938
L23.8281 39.4531
Q15.625 46.4844 6.25 51.5625
z

M23.8281 31.6406
L30.4688 26.5625
Q24.2188 8.20312 12.5 -8.98438
L5.07812 -3.51562
Q16.7969 13.2812 23.8281 31.6406
M61.3281 68.3594
L61.3281 80.8594
L69.1406 80.8594
L69.1406 68.3594
L92.5781 68.3594
L92.5781 61.3281
Q92.5781 60.9375 90.625 55.6562
Q88.6719 50.3906 86.7188 46.0938
L79.2969 48.4375
Q82.0312 54.6875 83.9844 60.9375
L69.1406 60.9375
L69.1406 41.7969
L89.4531 41.7969
Q87.5 23.0469 74.6094 8.98438
Q82.8125 3.125 95.3125 -1.95312
L89.4531 -9.375
Q77.7344 -3.90625 68.75 3.51562
Q59.375 -3.90625 46.875 -8.59375
L42.9688 -1.17188
Q54.6875 2.73438 62.8906 8.98438
Q55.4688 16.0156 50 26.1719
L55.8594 30.4688
Q61.3281 20.7031 68.75 14.0625
Q77.7344 23.4375 80.0781 34.7656
L48.4375 34.7656
L48.4375 32.4219
Q48.4375 9.375 35.1562 -8.98438
L28.125 -4.6875
Q35.5469 6.25 38.4688 14.8438
Q41.4062 23.4375 41.4062 35.5469
L41.4062 68.3594
z

M48.4375 41.7969
L61.3281 41.7969
L61.3281 60.9375
L48.4375 60.9375
z
" id="WenQuanYiMicroHei-6ce2"/>
      <path d="
M46.4844 80.8594
Q51.5625 72.2656 54.2969 62.1094
L87.5 62.1094
L87.5 55.0781
Q63.6719 29.6875 35.1562 9.76562
Q41.7969 5.46875 50.3906 3.51562
Q58.9844 1.5625 76.9531 1.5625
L95.3125 1.5625
L92.9688 -7.42188
Q65.625 -7.42188 52.9219 -5.46875
Q40.2344 -3.51562 33.3906 0.96875
Q26.5625 5.46875 25 5.46875
Q23.8281 5.46875 22.0625 3.70312
Q20.3125 1.95312 11.7188 -9.375
L5.46875 -3.125
Q15.625 8.98438 18.75 11.5156
Q21.875 14.0625 24.6094 14.0625
L26.1719 14.0625
Q57.8125 36.3281 75 54.2969
L10.9375 54.2969
L10.9375 62.1094
L45.3125 62.1094
Q42.5781 71.0938 38.2812 78.125
z
" id="WenQuanYiMicroHei-4e4b"/>
      <path d="
M83.2031 80.0781
L87.1094 73.0469
Q60.1562 69.1406 23.4375 67.1875
L23.4375 55.0781
L92.5781 55.0781
L92.5781 47.6562
L23.4375 47.6562
Q23.4375 21.875 20.7031 10.9375
Q17.9688 0 10.9375 -8.59375
L3.90625 -2.73438
Q10.1562 4.29688 12.6875 14.6406
Q15.2344 25 15.2344 51.5625
L15.2344 73.8281
Q57.0312 76.1719 83.2031 80.0781
M85.9375 33.9844
L85.9375 -8.59375
L78.125 -8.59375
L78.125 -1.95312
L39.0625 -1.95312
L39.0625 -8.98438
L31.25 -8.98438
L31.25 33.9844
z

M39.0625 5.46875
L78.125 5.46875
L78.125 26.5625
L39.0625 26.5625
z
" id="WenQuanYiMicroHei-540e"/>
     </defs>
     <g transform="translate(166.643065938 173.600217187)scale(0.09996 -0.09996)">
      <use xlink:href="#WenQuanYiMicroHei-4e2d"/>
      <use x="100.0" xlink:href="#WenQuanYiMicroHei-503c"/>
      <use x="200.0" xlink:href="#WenQuanYiMicroHei-6ee4"/>
      <use x="300.0" xlink:href="#WenQuanYiMicroHei-6ce2"/>
      <use x="400.0" xlink:href="#WenQuanYiMicroHei-4e4b"/>
      <use x="500.0" xlink:href="#WenQuanYiMicroHei-540e"/>
      <use x="600.0" xlink:href="#WenQuanYiMicroHei-7684"/>
      <use x="700.0" xlink:href="#WenQuanYiMicroHei-4fe1"/>
      <use x="800.0" xlink:href="#WenQuanYiMicroHei-53f7"/>
     </g>
    </g>
   </g>
  </g>
 </g>
 <defs>
  <clipPath id="p7559c7b864">
   <rect height="172.8" width="334.8" x="29.430205" y="12.1987809375"/>
  </clipPath>
 </defs>
</svg>
