<?xml version="1.0" encoding="utf-8" standalone="no"?>
<!DOCTYPE svg PUBLIC "-//W3C//DTD SVG 1.1//EN"
  "http://www.w3.org/Graphics/SVG/1.1/DTD/svg11.dtd">
<!-- Created with matplotlib (http://matplotlib.org/) -->
<svg height="203pt" version="1.1" viewBox="0 0 511 203" width="511pt" xmlns="http://www.w3.org/2000/svg" xmlns:xlink="http://www.w3.org/1999/xlink">
 <defs>
  <style type="text/css">
*{stroke-linecap:butt;stroke-linejoin:round;}
  </style>
 </defs>
 <g id="figure_1">
  <g id="patch_1">
   <path d="
M0 203.337
L511.574 203.337
L511.574 0
L0 0
z
" style="fill:#ffffff;"/>
  </g>
  <g id="axes_1">
   <g id="patch_2">
    <path d="
M47.2532 167.142
L493.653 167.142
L493.653 23.1418
L47.2532 23.1418
z
" style="fill:#ffffff;"/>
   </g>
   <g id="line2d_1">
    <path clip-path="url(#p8c1c981107)" d="
M47.2532 95.1427
L51.6126 95.2636
L55.9719 95.636
L59.4594 96.1354
L62.9469 96.8448
L66.4344 97.8123
L69.0501 98.7527
L71.6657 99.9334
L74.2813 101.436
L76.0251 102.681
L77.7688 104.195
L79.5126 106.085
L81.2563 108.544
L82.1282 110.095
L83.0001 111.967
L83.8719 114.312
L84.7438 117.423
L85.6157 121.997
L86.4876 130.607
L87.3594 142.855
L88.2313 125.445
L89.1032 119.174
L89.9751 115.237
L90.8469 112.354
L91.7188 110.074
L92.5907 108.188
L94.3344 105.182
L96.0782 102.842
L97.8219 100.946
L99.5657 99.3805
L101.309 98.0818
L103.053 97.0172
L104.797 96.1749
L106.541 95.5623
L108.284 95.2081
L110.028 95.1722
L110.9 95.306
L111.772 95.5688
L112.644 95.9927
L113.516 96.6257
L114.388 97.5426
L115.259 98.8692
L116.131 100.841
L117.003 103.981
L117.875 109.915
L118.747 139.02
L119.619 109.108
L120.491 100.519
L121.363 95.1242
L122.234 90.9867
L123.978 84.4527
L125.722 79.0369
L128.338 71.7681
L133.569 57.448
L135.313 52.525
L136.184 50.3121
L137.056 48.5632
L137.928 47.5019
L138.8 47.1458
L139.672 47.2871
L144.031 49.1433
L145.775 49.4632
L147.519 49.5403
L150.134 49.3349
L153.622 48.7207
L159.725 47.5485
L162.341 47.2502
L164.956 47.1423
L168.444 47.2741
L172.803 47.7324
L184.138 49.0835
L189.369 49.4301
L194.6 49.5417
L199.831 49.425
L205.063 49.1024
L212.038 48.427
L222.5 47.353
L226.859 47.1505
L230.347 47.1898
L233.834 47.422
L238.194 47.9328
L248.656 49.3247
L252.144 49.5312
L254.759 49.5015
L257.375 49.2614
L259.991 48.7682
L262.606 48.0295
L265.222 47.2812
L266.094 47.1553
L266.966 47.173
L267.838 47.3915
L268.709 47.855
L269.581 48.5786
L270.453 49.5417
L272.197 51.9884
L276.556 59.0473
L280.916 65.8064
L291.378 81.4638
L293.994 85.9293
L295.738 89.285
L297.481 93.1614
L298.353 95.4057
L299.225 97.9626
L300.097 100.986
L300.969 104.774
L301.841 110.042
L302.713 119.468
L303.584 131.029
L304.456 115.024
L305.328 109.441
L306.2 106.13
L307.072 103.846
L307.944 102.148
L308.816 100.83
L309.688 99.7777
L311.431 98.215
L313.175 97.1368
L314.919 96.3811
L316.663 95.855
L319.278 95.3761
L321.894 95.1683
L324.509 95.161
L327.997 95.3892
L331.484 95.833
L335.844 96.6371
L340.203 97.687
L344.563 98.9765
L348.922 100.524
L352.409 101.977
L355.897 103.669
L358.513 105.134
L361.128 106.82
L363.744 108.8
L365.488 110.342
L367.231 112.127
L368.975 114.248
L370.719 116.87
L371.591 118.459
L372.463 120.317
L373.334 122.559
L374.206 125.392
L375.078 129.254
L375.95 135.384
L376.822 151.821
L377.694 141.069
L378.566 132.19
L379.438 127.502
L380.309 124.306
L381.181 121.885
L382.053 119.939
L383.797 116.923
L385.541 114.629
L387.284 112.785
L389.028 111.25
L391.644 109.351
L394.259 107.794
L396.875 106.482
L400.363 105.014
L403.85 103.785
L408.209 102.497
L413.441 101.225
L418.672 100.176
L424.775 99.1646
L431.75 98.2254
L439.597 97.3815
L449.188 96.5874
L459.65 95.9553
L470.984 95.4935
L483.191 95.2161
L492.781 95.1432
L492.781 95.1432" style="fill:none;stroke:#348abd;stroke-linecap:square;stroke-width:2.0;"/>
   </g>
   <g id="line2d_2">
    <path clip-path="url(#p8c1c981107)" d="
M47.4485 60.8628
L48.0623 81.4927
L48.2297 79.0399
L48.4808 79.9866
L48.6482 87.6693
L48.7877 82.9136
L49.0388 83.6545
L49.3457 87.5809
L49.5968 87.6595
L49.8479 91.8447
L50.1548 92.72
L50.8523 104.844
L51.1313 100.46
L51.6614 95.7173
L51.9404 94.5348
L52.2194 94.0794
L52.4705 94.791
L52.7495 96.8189
L53.0006 101.155
L54.284 95.2638
L55.8743 95.6663
L58.4411 95.9769
L61.3985 96.5027
L65.2766 97.4602
L67.8434 98.2949
L70.6892 99.4574
L73.6745 101.057
L75.0695 101.969
L77.2178 103.663
L78.836 105.276
L80.0078 106.695
L81.4865 108.891
L82.5746 110.988
L83.6069 113.464
L84.6113 116.831
L85.2809 119.841
L85.9226 124.091
L86.5643 131.384
L86.8433 138.175
L87.0944 153.05
L87.2897 150.341
L87.5408 137.072
L87.8477 130.708
L88.4336 123.864
L89.0474 119.735
L89.6333 116.767
L90.4982 113.516
L91.9211 109.688
L93.2882 106.947
L94.8785 104.501
L96.692 102.213
L97.4453 101.444
L97.9196 100.974
L98.4218 100.416
L98.8961 100.037
L99.1472 99.7694
L99.3983 99.7282
L99.6215 99.3694
L99.8726 99.3057
L100.096 98.9917
L100.319 98.9777
L100.793 98.5072
L101.044 98.4481
L101.491 97.9948
L102.188 97.6471
L102.858 97.1614
L103.751 96.7228
L104.392 96.475
L104.839 96.1835
L105.257 96.1339
L105.48 95.9287
L105.899 95.8856
L106.122 95.7062
L106.345 95.8396
L106.541 95.5822
L106.764 95.6687
L106.959 95.4725
L107.182 95.5976
L107.378 95.3691
L107.573 95.4895
L107.991 95.2834
L108.215 95.4564
L108.41 95.2297
L108.605 95.194
L108.801 95.3105
L109.805 95.2913
L110 95.4184
L110.614 95.3045
L111.395 95.472
L112.93 96.1613
L113.292 96.5314
L113.488 96.5476
L113.683 96.7253
L113.878 97.1051
L114.046 97.1228
L114.241 97.2682
L114.436 97.701
L114.604 97.7549
L114.799 98.0049
L114.966 98.429
L115.162 98.5266
L115.357 99.0995
L115.524 99.19
L116.082 100.607
L116.25 100.86
L116.417 101.661
L116.613 101.951
L117.673 106.857
L118.175 111.179
L118.677 115.88
L118.845 116.669
L118.984 116.379
L120.658 99.7478
L121.495 94.8459
L122.499 90.3808
L124.62 82.8592
L124.927 82.1123
L125.262 80.9033
L125.429 80.6451
L125.903 79.1572
L126.043 78.8497
L126.378 77.8206
L126.852 76.6248
L127.159 75.5983
L127.298 75.477
L127.466 74.733
L127.633 74.5889
L127.94 73.6459
L128.554 71.9669
L129.168 70.4476
L129.614 69.2006
L129.781 69.1881
L130.06 68.275
L130.367 67.3283
L130.535 67.2805
L130.814 66.3015
L130.981 66.0186
L131.26 65.232
L131.427 64.8897
L131.706 64.0814
L131.874 63.8813
L132.153 62.8841
L132.292 62.8341
L132.739 61.4713
L132.878 61.4254
L133.325 59.9814
L133.632 59.6226
L134.05 58.1978
L134.496 57.4599
L134.915 56.106
L135.333 55.3481
L135.64 54.8519
L136.338 52.8668
L137.454 50.5419
L138.57 48.6023
L138.988 48.2008
L139.239 48.1424
L139.797 47.0294
L140.076 46.8526
L140.467 46.8902
L140.746 46.4469
L140.886 46.4208
L141.025 46.5482
L141.165 46.8528
L141.416 46.4568
L141.555 46.4538
L141.695 46.6718
L141.806 47.1198
L142.085 46.7196
L142.225 46.9378
L142.364 47.4803
L142.476 47.1872
L142.615 47.1772
L142.866 47.82
L143.006 47.6197
L143.145 47.8592
L143.257 48.4126
L143.397 48.0901
L143.536 48.2875
L143.648 48.8303
L143.787 48.4889
L144.038 49.035
L144.178 48.8068
L144.317 49.2741
L144.429 49.0913
L144.568 49.1245
L144.68 49.5243
L144.819 49.1452
L144.959 49.6036
L145.071 49.2759
L145.322 49.477
L145.461 49.3026
L145.573 49.7182
L145.712 49.2803
L145.852 49.8776
L145.963 49.3071
L146.103 49.7339
L146.214 49.36
L146.354 49.6651
L146.466 49.4186
L146.605 49.6532
L146.717 49.4662
L146.856 49.6858
L146.968 49.493
L147.107 49.7584
L147.219 49.4978
L147.358 49.8752
L147.47 49.4896
L147.609 50.0514
L147.721 49.4877
L147.833 50.0113
L147.972 49.5211
L148.084 49.7769
L148.335 49.5817
L148.474 49.8582
L148.586 49.4734
L148.698 50.0168
L148.837 49.507
L149.088 49.7485
L149.2 49.4437
L149.311 49.96
L149.451 49.5028
L149.562 49.5185
L149.702 49.9041
L149.814 49.4004
L150.065 49.696
L150.176 49.3522
L150.288 49.6725
L150.427 49.5913
L150.539 49.3095
L150.651 49.6383
L150.79 49.5645
L150.902 49.2594
L151.153 49.6267
L151.264 49.2228
L151.376 49.3335
L151.515 49.8256
L151.739 49.16
L151.85 49.5169
L151.99 49.4421
L152.101 49.0923
L152.213 49.153
L152.325 49.6109
L152.576 48.9969
L152.687 49.084
L152.799 49.5154
L153.162 48.9356
L153.413 49.3613
L153.636 48.7902
L153.747 48.8879
L153.859 49.2241
L153.999 49.2028
L154.222 48.6755
L154.333 48.7195
L154.584 49.3538
L154.808 48.6383
L155.031 48.5694
L155.394 48.9745
L155.617 48.4572
L155.84 48.3691
L156.063 48.6304
L156.175 48.8749
L156.314 48.8839
L156.649 48.2552
L156.984 48.1326
L157.319 48.3355
L157.653 48.727
L157.905 48.4857
L158.351 48.0788
L159.021 47.821
L159.69 47.7707
L160.137 47.9041
L160.667 48.133
L161.225 47.4438
L161.559 47.3948
L161.783 47.6132
L161.894 47.8217
L162.09 47.8917
L162.424 47.2887
L162.648 47.3161
L162.871 47.7774
L163.066 47.6029
L163.289 47.2034
L163.401 47.2123
L163.624 47.7102
L164.043 47.1539
L164.154 47.2941
L164.266 47.6553
L164.684 47.1683
L164.796 47.4473
L164.991 47.4566
L165.214 47.1509
L165.326 47.4584
L165.521 47.3657
L165.633 47.1197
L165.744 47.2247
L165.94 47.6153
L166.163 47.1504
L166.275 47.5361
L166.581 47.1431
L166.693 47.5203
L167 47.1742
L167.195 47.6397
L167.307 47.1786
L167.614 47.4083
L167.725 47.1701
L167.837 47.552
L168.032 47.2198
L168.144 47.3421
L168.451 47.2585
L168.646 47.4889
L168.758 47.2432
L168.953 47.6015
L169.065 47.2579
L169.26 47.657
L169.371 47.2828
L169.567 47.6467
L169.678 47.3162
L169.874 47.5808
L169.985 47.3744
L170.292 47.492
L170.487 47.4153
L170.599 47.7232
L170.794 47.4253
L171.101 47.6001
L171.297 47.4766
L171.492 47.7051
L171.799 47.5334
L172.106 47.7788
L172.301 47.6129
L172.496 47.6414
L172.803 47.8628
L173.194 47.7063
L173.584 47.8888
L173.78 48.0455
L174.282 47.9053
L175.258 47.9944
L175.844 48.1536
L176.319 48.3047
L176.709 48.1849
L178.523 48.5668
L178.718 48.4458
L178.997 48.6172
L179.192 48.5147
L179.667 48.6515
L180.225 48.6551
L180.699 48.7994
L181.536 48.8396
L182.178 48.9359
L182.736 48.9206
L183.098 49.0398
L183.377 48.9782
L184.019 49.0707
L185.47 49.1987
L193.7 49.5371
L196.155 50.0207
L198.639 49.4824
L205.558 49.1295
L207.204 48.9559
L210.524 48.6801
L210.747 48.6901
L211.361 48.5667
L212.114 48.521
L212.644 48.4074
L212.868 48.5032
L213.621 48.3096
L214.374 48.3751
L215.044 48.2709
L215.63 48.1887
L216.299 48.0028
L216.662 48.1595
L217.108 47.9115
L217.332 48.0325
L217.694 47.8452
L217.917 48.0112
L218.057 47.8458
L218.643 47.7506
L218.782 47.9766
L219.006 47.7065
L219.145 47.9738
L219.368 47.6711
L219.508 47.8935
L219.731 47.6505
L219.87 47.7561
L220.233 47.6161
L220.456 47.8525
L220.596 47.5609
L220.959 47.7129
L221.098 47.5083
L221.461 47.7156
L221.6 47.4803
L221.74 47.4998
L221.879 47.752
L222.242 47.4145
L222.381 47.4587
L222.521 47.6695
L222.744 47.5999
L223.023 47.3538
L223.302 47.5702
L223.525 47.7035
L223.804 47.3586
L224.083 47.2927
L224.502 47.5197
L224.641 47.6459
L224.865 47.6689
L225.423 47.3525
L226.12 47.2624
L226.818 47.3735
L227.236 47.6476
L228.129 47.1648
L228.408 47.3752
L228.547 47.6044
L229.022 47.1563
L229.161 47.2119
L229.496 47.4864
L229.775 47.1691
L229.914 47.2754
L230.054 47.589
L230.389 47.1863
L230.724 47.5024
L230.863 47.2312
L231.003 47.2613
L231.142 47.6212
L231.337 47.2712
L231.477 47.2785
L231.672 47.5988
L231.812 47.2676
L232.146 47.4483
L232.286 47.2831
L232.425 47.6301
L232.621 47.3142
L232.76 47.4817
L233.095 47.4301
L234.295 47.4518
L234.434 47.7421
L234.63 47.4706
L234.825 47.6418
L235.16 47.53
L235.355 47.7878
L235.494 47.6236
L235.69 47.5868
L235.885 47.7887
L236.415 47.7051
L236.61 47.9021
L237.141 47.7497
L238.257 47.9951
L239.038 48.0716
L240.07 48.2377
L240.461 48.21
L240.851 48.4885
L241.298 48.3332
L241.493 48.4751
L241.939 48.4321
L242.135 48.6536
L242.386 48.4982
L242.581 48.6414
L242.832 48.5702
L243.027 48.7193
L243.279 48.6247
L243.53 48.8035
L243.725 48.7183
L243.976 48.7382
L244.227 48.8951
L244.925 48.8637
L246.18 49.1003
L247.185 49.1969
L247.491 49.2792
L247.743 49.2141
L248.301 49.291
L249.165 49.437
L250.337 49.4498
L253.685 49.5734
L256.922 49.418
L259.405 49.0865
L261.86 48.5807
L265.32 47.7459
L266.519 47.555
L268.165 47.5749
L270.593 49.9006
L273.857 53.575
L276.759 58.7434
L281.223 66.0401
L286.44 73.7669
L290.876 80.5703
L292.662 83.4786
L296.791 91.5032
L298.381 95.3319
L298.576 96.0911
L298.827 96.591
L299.664 99.4767
L300.111 100.853
L301.534 107.841
L302.371 114.144
L302.761 118.996
L302.957 122.458
L303.626 127.869
L304.017 120.037
L304.407 115.619
L305.133 110.515
L305.858 107.386
L306.054 107.021
L306.388 105.717
L306.528 105.421
L306.723 104.733
L306.918 104.546
L307.058 103.943
L307.253 103.672
L307.588 102.952
L308.062 102.037
L308.258 101.853
L308.397 101.474
L308.592 101.487
L308.732 100.976
L308.871 101.01
L309.206 100.405
L309.402 100.44
L309.541 99.9741
L309.876 99.8412
L310.015 99.4616
L310.35 99.4358
L310.629 98.9163
L310.769 99.0668
L311.243 98.4333
L311.382 98.5777
L311.996 97.9502
L312.136 98.0914
L312.889 97.3809
L313.168 97.5462
L313.503 97.1956
L313.921 96.8012
L314.619 96.5481
L315.735 96.1504
L316.432 95.9529
L316.711 96.0267
L317.074 96.1734
L317.493 95.6827
L317.772 95.6942
L317.911 95.8415
L318.134 95.8626
L318.413 95.5026
L318.553 95.5249
L318.692 95.7067
L318.915 95.6393
L319.194 95.4147
L319.334 95.6226
L319.836 95.44
L320.059 95.4967
L320.199 95.2777
L320.338 95.3932
L320.562 95.3954
L320.701 95.2359
L320.841 95.4833
L321.064 95.239
L321.426 95.2971
L321.566 95.2127
L321.789 95.3394
L321.929 95.1817
L322.152 95.3292
L322.291 95.1775
L322.654 95.2119
L322.877 95.1792
L323.017 95.3318
L323.24 95.1406
L323.603 95.2507
L323.826 95.143
L324.189 95.3301
L324.635 95.1643
L325.221 95.3333
L325.89 95.23
L327.006 95.3442
L327.537 95.4813
L327.983 95.3835
L328.513 95.5197
L328.736 95.4625
L328.959 95.6084
L329.266 95.5258
L329.49 95.6745
L329.796 95.5918
L330.633 95.7268
L331.861 95.8946
L333.256 96.1824
L334.344 96.3263
L338.864 97.3334
L343.021 98.509
L349.271 100.654
L353.205 102.335
L358.171 104.93
L358.45 105.186
L359.37 105.653
L360.765 106.61
L360.961 106.834
L361.519 107.097
L361.714 107.385
L361.993 107.431
L362.746 108.125
L362.942 108.145
L363.137 108.425
L363.611 108.687
L364.086 109.18
L364.476 109.42
L365.341 110.3
L366.122 110.97
L366.903 111.863
L367.406 112.468
L367.796 112.761
L368.187 113.35
L368.298 113.65
L368.494 113.684
L368.689 113.856
L369.191 114.57
L369.387 114.818
L369.582 115.351
L369.693 115.314
L369.889 115.546
L370 116.115
L370.196 116.036
L372.121 119.594
L372.735 121.135
L372.846 121.242
L372.958 122.068
L373.153 122.023
L373.265 122.619
L373.572 123.298
L373.99 124.807
L374.715 127.439
L375.022 129.066
L375.246 130.367
L375.971 135.624
L376.194 138.039
L376.724 147.911
L377.673 142.147
L378.008 137.067
L378.761 131.006
L379.096 129.432
L379.514 127.573
L379.961 125.502
L380.407 124.282
L381.049 122.9
L381.718 120.956
L382.5 119.406
L383.058 118.737
L383.169 118.667
L383.42 118.106
L384.09 116.523
L384.425 116.143
L384.648 116.15
L384.759 116.255
L384.899 116.028
L385.234 115.043
L385.457 114.791
L385.569 114.813
L385.82 115.001
L386.154 113.952
L386.266 113.87
L386.378 113.94
L386.489 114.18
L386.964 113.166
L387.215 113.558
L387.438 112.67
L387.549 112.583
L387.801 112.935
L388.024 112.112
L388.135 112.14
L388.247 112.488
L388.61 111.686
L388.721 112.024
L389.084 111.333
L389.196 111.779
L389.447 110.928
L389.698 111.158
L389.809 110.67
L389.921 110.682
L390.06 111.128
L390.284 110.348
L390.395 110.808
L390.646 110.072
L390.758 110.527
L391.009 109.835
L391.121 110.376
L391.372 109.655
L391.511 109.933
L391.623 109.377
L391.734 109.585
L391.986 109.161
L392.097 109.717
L392.237 109.011
L392.348 109.135
L392.488 109.06
L392.599 108.789
L392.739 109.247
L392.85 108.606
L392.962 108.941
L393.102 108.531
L393.353 108.517
L393.464 108.316
L393.604 108.527
L393.715 108.121
L393.855 108.528
L393.966 107.962
L394.106 108.496
L394.218 107.821
L394.329 108.392
L394.469 107.685
L394.58 108.255
L394.72 107.551
L394.859 108.078
L394.971 107.423
L395.11 107.833
L395.222 107.313
L395.361 107.559
L395.473 107.241
L395.724 107.235
L395.864 107.03
L395.975 107.333
L396.115 106.847
L396.254 107.255
L396.366 106.779
L396.617 106.884
L396.756 106.55
L396.896 106.976
L397.008 106.49
L397.147 106.471
L397.259 106.728
L397.398 106.253
L397.649 106.406
L397.789 106.074
L397.928 106.308
L398.179 105.904
L398.43 106.084
L398.57 105.741
L398.709 105.84
L398.821 106.092
L398.961 105.628
L399.1 105.556
L399.24 105.845
L399.63 105.391
L399.77 105.705
L400.021 105.162
L400.16 105.148
L400.411 105.377
L400.69 104.892
L400.83 104.927
L401.081 105.167
L401.36 104.662
L401.639 104.65
L401.89 104.993
L402.309 104.337
L402.588 104.226
L403.006 104.333
L403.285 104.489
L403.955 103.937
L404.652 103.689
L405.21 103.69
L405.517 103.747
L406.215 103.067
L406.494 103.028
L406.94 103.226
L407.219 102.802
L407.498 102.785
L407.637 102.97
L407.805 102.919
L408.084 102.533
L408.223 102.599
L408.363 102.867
L408.67 102.381
L408.809 102.419
L408.949 102.722
L409.256 102.225
L409.395 102.382
L409.563 102.4
L409.702 102.116
L410.009 102.335
L410.148 102.005
L410.455 102.152
L410.595 101.887
L410.734 102.125
L411.041 101.834
L411.209 102.043
L411.348 101.705
L411.488 102
L411.655 101.662
L411.795 101.776
L412.101 101.632
L412.576 101.56
L412.883 101.462
L413.329 101.479
L413.496 101.222
L413.664 101.588
L413.803 101.161
L413.971 101.274
L414.278 101.059
L414.445 101.359
L414.585 101.031
L414.752 100.992
L414.891 101.307
L415.059 100.924
L415.226 100.882
L415.394 101.139
L415.701 100.75
L416.007 101.007
L416.342 100.622
L416.51 100.681
L416.677 100.874
L417.151 100.462
L417.486 100.546
L417.654 100.667
L417.96 100.463
L418.463 100.223
L420.137 99.9312
L420.639 100.034
L420.834 100.132
L421.336 99.7129
L421.671 99.8015
L421.866 99.907
L422.201 99.5677
L422.564 99.803
L422.731 99.5277
L422.899 99.4721
L423.066 99.6688
L423.429 99.3875
L423.596 99.6347
L423.792 99.3415
L424.154 99.3992
L424.322 99.2455
L424.517 99.4649
L424.684 99.1793
L424.852 99.4456
L425.047 99.1254
L425.214 99.4031
L425.41 99.0725
L425.605 99.2558
L425.772 99.044
L426.135 99.0979
L426.33 98.9405
L426.526 99.1036
L426.888 98.8653
L427.084 98.9967
L427.642 98.7918
L427.837 98.9176
L428.786 98.6747
L429.344 98.7678
L429.93 98.6154
L430.739 98.5229
L431.325 98.2787
L431.715 98.3448
L431.938 98.3963
L432.329 98.1613
L432.524 98.2584
L433.557 98.045
L433.78 98.1203
L433.975 97.9737
L434.198 98.1011
L434.394 97.9286
L434.617 98.0069
L435.035 97.8772
L435.231 98.0048
L435.454 97.8123
L435.677 97.8183
L435.9 97.9725
L436.319 97.7108
L436.765 97.7728
L436.988 97.85
L437.63 97.6317
L438.523 97.6078
L438.774 97.6516
L439.443 97.399
L439.918 97.4765
L440.141 97.3361
L440.615 97.3666
L440.838 97.2732
L441.09 97.3745
L441.313 97.2271
L441.564 97.2974
L442.038 97.175
L442.289 97.3013
L442.764 97.0947
L443.991 97.0712
L446.586 96.8539
L447.116 96.7865
L448.734 96.6599
L451.608 96.4241
L452.194 96.4261
L453.421 96.3057
L456.993 96.1253
L458.025 96.0611
L460.564 95.9448
L462.489 95.8224
L463.298 95.7872
L470.245 95.5228
L472.477 95.4581
L486.594 95.177
L488.659 95.1602
L488.659 95.1602" style="fill:none;opacity:0.6;stroke:#a60628;stroke-linecap:square;stroke-width:2.0;"/>
   </g>
   <g id="patch_3">
    <path d="
M47.2532 23.1418
L493.653 23.1418" style="fill:none;stroke:#000000;stroke-linecap:square;stroke-linejoin:miter;"/>
   </g>
   <g id="patch_4">
    <path d="
M493.653 167.142
L493.653 23.1418" style="fill:none;stroke:#000000;stroke-linecap:square;stroke-linejoin:miter;"/>
   </g>
   <g id="patch_5">
    <path d="
M47.2532 167.142
L493.653 167.142" style="fill:none;stroke:#000000;stroke-linecap:square;stroke-linejoin:miter;"/>
   </g>
   <g id="patch_6">
    <path d="
M47.2532 167.142
L47.2532 23.1418" style="fill:none;stroke:#000000;stroke-linecap:square;stroke-linejoin:miter;"/>
   </g>
   <g id="matplotlib.axis_1">
    <g id="xtick_1">
     <g id="line2d_3">
      <defs>
       <path d="
M0 0
L0 -4" id="m93b0483c22" style="stroke:#000000;stroke-width:0.5;"/>
      </defs>
      <g>
       <use style="stroke:#000000;stroke-width:0.5;" x="47.25319875" xlink:href="#m93b0483c22" y="167.14175"/>
      </g>
     </g>
     <g id="line2d_4">
      <defs>
       <path d="
M0 0
L0 4" id="m741efc42ff" style="stroke:#000000;stroke-width:0.5;"/>
      </defs>
      <g>
       <use style="stroke:#000000;stroke-width:0.5;" x="47.25319875" xlink:href="#m741efc42ff" y="23.14175"/>
      </g>
     </g>
     <g id="text_1">
      <!-- 0 -->
      <defs>
       <path d="
M50.3906 35.7969
Q50.3906 27.1562 49.1406 20.3125
Q47.9062 13.4844 45.1406 8.73438
Q42.3906 4 38.0312 1.5
Q33.6875 -0.984375 27.4844 -0.984375
Q21.7344 -0.984375 17.4531 1.5
Q13.1875 4 10.375 8.73438
Q7.5625 13.4844 6.17188 20.3125
Q4.78125 27.1562 4.78125 35.7969
Q4.78125 44.4375 6.03125 51.2656
Q7.28125 58.1094 9.98438 62.8125
Q12.7031 67.5312 17.0156 70.0156
Q21.3438 72.5156 27.4844 72.5156
Q33.2969 72.5156 37.5938 70.0469
Q41.8906 67.5781 44.7188 62.8594
Q47.5625 58.1562 48.9688 51.3125
Q50.3906 44.4844 50.3906 35.7969
M13.8125 35.7969
Q13.8125 28.4688 14.5469 23
Q15.2812 17.5312 16.8906 13.8906
Q18.5 10.25 21.1094 8.42188
Q23.7344 6.59375 27.4844 6.59375
Q31.25 6.59375 33.8906 8.39062
Q36.5312 10.2031 38.2031 13.8125
Q39.8906 17.4375 40.6406 22.9219
Q41.4062 28.4219 41.4062 35.7969
Q41.4062 43.1094 40.6406 48.5781
Q39.8906 54.0469 38.2031 57.6562
Q36.5312 61.2812 33.8906 63.0781
Q31.25 64.8906 27.4844 64.8906
Q23.7344 64.8906 21.1094 63.0781
Q18.5 61.2812 16.8906 57.6562
Q15.2812 54.0469 14.5469 48.5781
Q13.8125 43.1094 13.8125 35.7969" id="WenQuanYiMicroHei-30"/>
      </defs>
      <g transform="translate(44.9736421875 178.737148125)scale(0.09996 -0.09996)">
       <use xlink:href="#WenQuanYiMicroHei-30"/>
      </g>
     </g>
    </g>
    <g id="xtick_2">
     <g id="line2d_5">
      <g>
       <use style="stroke:#000000;stroke-width:0.5;" x="103.05319875" xlink:href="#m93b0483c22" y="167.14175"/>
      </g>
     </g>
     <g id="line2d_6">
      <g>
       <use style="stroke:#000000;stroke-width:0.5;" x="103.05319875" xlink:href="#m741efc42ff" y="23.14175"/>
      </g>
     </g>
     <g id="text_2">
      <!-- 500 -->
      <defs>
       <path d="
M26.6094 43.7969
Q31.4531 43.7969 35.625 42.4531
Q39.7969 41.1094 42.8906 38.4688
Q46 35.8438 47.75 31.9375
Q49.5156 28.0312 49.5156 22.9062
Q49.5156 17.3281 47.8438 12.8906
Q46.1875 8.45312 42.9219 5.375
Q39.6562 2.29688 34.8438 0.65625
Q30.0312 -0.984375 23.7812 -0.984375
Q21.2969 -0.984375 18.875 -0.734375
Q16.4531 -0.484375 14.2344 -0.015625
Q12.0156 0.4375 10.0156 1.17188
Q8.01562 1.90625 6.39062 2.875
L6.39062 11.2812
Q8.01562 10.1562 10.1875 9.28125
Q12.3594 8.40625 14.75 7.8125
Q17.1406 7.23438 19.5469 6.90625
Q21.9688 6.59375 24.0312 6.59375
Q27.875 6.59375 30.9062 7.5
Q33.9375 8.40625 36.0312 10.2969
Q38.1406 12.2031 39.25 15.0781
Q40.375 17.9688 40.375 21.9219
Q40.375 28.9062 36.0781 32.5938
Q31.7812 36.2812 23.5781 36.2812
Q22.2656 36.2812 20.7188 36.1562
Q19.1875 36.0312 17.6406 35.8281
Q16.1094 35.6406 14.7188 35.4219
Q13.3281 35.2031 12.3125 35.0156
L7.90625 37.7969
L10.5938 71.3906
L44.2812 71.3906
L44.2812 63.2812
L18.3125 63.2812
L16.4062 42.8281
Q17.9688 43.1094 20.5312 43.4531
Q23.0938 43.7969 26.6094 43.7969" id="WenQuanYiMicroHei-35"/>
      </defs>
      <g transform="translate(95.348469375 178.737148125)scale(0.09996 -0.09996)">
       <use xlink:href="#WenQuanYiMicroHei-35"/>
       <use x="55.078125" xlink:href="#WenQuanYiMicroHei-30"/>
       <use x="110.15625" xlink:href="#WenQuanYiMicroHei-30"/>
      </g>
     </g>
    </g>
    <g id="xtick_3">
     <g id="line2d_7">
      <g>
       <use style="stroke:#000000;stroke-width:0.5;" x="158.85319875" xlink:href="#m93b0483c22" y="167.14175"/>
      </g>
     </g>
     <g id="line2d_8">
      <g>
       <use style="stroke:#000000;stroke-width:0.5;" x="158.85319875" xlink:href="#m741efc42ff" y="23.14175"/>
      </g>
     </g>
     <g id="text_3">
      <!-- 1000 -->
      <defs>
       <path d="
M34.7188 0
L26.125 0
L26.125 44.5781
Q26.125 46.6875 26.1406 49.0781
Q26.1719 51.4688 26.2344 53.8281
Q26.3125 56.2031 26.3906 58.375
Q26.4688 60.5469 26.5156 62.2031
Q25.6875 61.3281 25.0469 60.6875
Q24.4219 60.0625 23.75 59.4688
Q23.0938 58.8906 22.3594 58.2188
Q21.625 57.5625 20.6094 56.6875
L13.375 50.7812
L8.6875 56.7812
L27.3906 71.3906
L34.7188 71.3906
z
" id="WenQuanYiMicroHei-31"/>
      </defs>
      <g transform="translate(148.5104625 178.737148125)scale(0.09996 -0.09996)">
       <use xlink:href="#WenQuanYiMicroHei-31"/>
       <use x="55.078125" xlink:href="#WenQuanYiMicroHei-30"/>
       <use x="110.15625" xlink:href="#WenQuanYiMicroHei-30"/>
       <use x="165.234375" xlink:href="#WenQuanYiMicroHei-30"/>
      </g>
     </g>
    </g>
    <g id="xtick_4">
     <g id="line2d_9">
      <g>
       <use style="stroke:#000000;stroke-width:0.5;" x="214.65319875" xlink:href="#m93b0483c22" y="167.14175"/>
      </g>
     </g>
     <g id="line2d_10">
      <g>
       <use style="stroke:#000000;stroke-width:0.5;" x="214.65319875" xlink:href="#m741efc42ff" y="23.14175"/>
      </g>
     </g>
     <g id="text_4">
      <!-- 1500 -->
      <g transform="translate(204.3104625 178.737148125)scale(0.09996 -0.09996)">
       <use xlink:href="#WenQuanYiMicroHei-31"/>
       <use x="55.078125" xlink:href="#WenQuanYiMicroHei-35"/>
       <use x="110.15625" xlink:href="#WenQuanYiMicroHei-30"/>
       <use x="165.234375" xlink:href="#WenQuanYiMicroHei-30"/>
      </g>
     </g>
    </g>
    <g id="xtick_5">
     <g id="line2d_11">
      <g>
       <use style="stroke:#000000;stroke-width:0.5;" x="270.45319875" xlink:href="#m93b0483c22" y="167.14175"/>
      </g>
     </g>
     <g id="line2d_12">
      <g>
       <use style="stroke:#000000;stroke-width:0.5;" x="270.45319875" xlink:href="#m741efc42ff" y="23.14175"/>
      </g>
     </g>
     <g id="text_5">
      <!-- 2000 -->
      <defs>
       <path d="
M49.2188 0
L4.6875 0
L4.6875 7.625
L21.7812 26.2188
Q25.4375 30.1719 28.3125 33.4375
Q31.2031 36.7188 33.2188 39.8438
Q35.25 42.9688 36.3281 46.1094
Q37.4062 49.2656 37.4062 52.9844
Q37.4062 55.8594 36.5781 58.0469
Q35.75 60.25 34.2031 61.7812
Q32.6719 63.3281 30.5625 64.1094
Q28.4688 64.8906 25.875 64.8906
Q21.2344 64.8906 17.5 63.0156
Q13.7656 61.1406 10.4062 58.2031
L5.42188 64.0156
Q7.375 65.7656 9.60938 67.2969
Q11.8594 68.8438 14.4531 69.9688
Q17.0469 71.0938 19.9219 71.75
Q22.7969 72.4062 25.9844 72.4062
Q30.6719 72.4062 34.4531 71.0938
Q38.2344 69.7812 40.8594 67.3125
Q43.5 64.8438 44.9375 61.2969
Q46.3906 57.7656 46.3906 53.3281
Q46.3906 49.1719 45.0938 45.4062
Q43.7969 41.6562 41.5312 38.0156
Q39.2656 34.375 36.1094 30.7031
Q32.9531 27.0469 29.2969 23.0938
L15.5781 8.5
L15.5781 8.10938
L49.2188 8.10938
z
" id="WenQuanYiMicroHei-32"/>
      </defs>
      <g transform="translate(259.9105425 178.737148125)scale(0.09996 -0.09996)">
       <use xlink:href="#WenQuanYiMicroHei-32"/>
       <use x="55.078125" xlink:href="#WenQuanYiMicroHei-30"/>
       <use x="110.15625" xlink:href="#WenQuanYiMicroHei-30"/>
       <use x="165.234375" xlink:href="#WenQuanYiMicroHei-30"/>
      </g>
     </g>
    </g>
    <g id="xtick_6">
     <g id="line2d_13">
      <g>
       <use style="stroke:#000000;stroke-width:0.5;" x="326.25319875" xlink:href="#m93b0483c22" y="167.14175"/>
      </g>
     </g>
     <g id="line2d_14">
      <g>
       <use style="stroke:#000000;stroke-width:0.5;" x="326.25319875" xlink:href="#m741efc42ff" y="23.14175"/>
      </g>
     </g>
     <g id="text_6">
      <!-- 2500 -->
      <g transform="translate(315.7105425 178.737148125)scale(0.09996 -0.09996)">
       <use xlink:href="#WenQuanYiMicroHei-32"/>
       <use x="55.078125" xlink:href="#WenQuanYiMicroHei-35"/>
       <use x="110.15625" xlink:href="#WenQuanYiMicroHei-30"/>
       <use x="165.234375" xlink:href="#WenQuanYiMicroHei-30"/>
      </g>
     </g>
    </g>
    <g id="xtick_7">
     <g id="line2d_15">
      <g>
       <use style="stroke:#000000;stroke-width:0.5;" x="382.05319875" xlink:href="#m93b0483c22" y="167.14175"/>
      </g>
     </g>
     <g id="line2d_16">
      <g>
       <use style="stroke:#000000;stroke-width:0.5;" x="382.05319875" xlink:href="#m741efc42ff" y="23.14175"/>
      </g>
     </g>
     <g id="text_7">
      <!-- 3000 -->
      <defs>
       <path d="
M46.9219 54.6875
Q46.9219 51.125 45.7969 48.1875
Q44.6719 45.2656 42.6406 43.1094
Q40.625 40.9688 37.7969 39.5781
Q34.9688 38.1875 31.5 37.5938
L31.5 37.3125
Q40.1406 36.2344 44.625 31.8125
Q49.125 27.3906 49.125 20.3125
Q49.125 15.625 47.5312 11.7188
Q45.9531 7.8125 42.7188 4.98438
Q39.5 2.15625 34.5625 0.578125
Q29.6406 -0.984375 22.9062 -0.984375
Q17.5781 -0.984375 12.8594 -0.140625
Q8.15625 0.6875 4 2.875
L4 11.1875
Q8.25 8.9375 13.2031 7.71875
Q18.1719 6.5 22.7031 6.5
Q27.2031 6.5 30.4688 7.46875
Q33.7344 8.45312 35.8594 10.25
Q37.9844 12.0625 38.9844 14.6875
Q39.9844 17.3281 39.9844 20.6094
Q39.9844 23.9219 38.6875 26.2812
Q37.4062 28.6562 35.0156 30.1875
Q32.625 31.7344 29.1719 32.4688
Q25.7344 33.2031 21.3906 33.2031
L14.8906 33.2031
L14.8906 40.5781
L21.3906 40.5781
Q25.3438 40.5781 28.4219 41.5469
Q31.5 42.5312 33.5625 44.3281
Q35.6406 46.1406 36.7188 48.625
Q37.7969 51.125 37.7969 54.1094
Q37.7969 56.6406 36.9062 58.6406
Q36.0312 60.6406 34.4219 62.0312
Q32.8125 63.4219 30.5625 64.1562
Q28.3281 64.8906 25.5938 64.8906
Q20.3594 64.8906 16.375 63.25
Q12.4062 61.625 8.79688 58.9844
L4.29688 65.0938
Q6.15625 66.6094 8.42188 67.9219
Q10.6875 69.2344 13.375 70.2344
Q16.0625 71.2344 19.1094 71.8125
Q22.1719 72.4062 25.5938 72.4062
Q30.8594 72.4062 34.8281 71.0938
Q38.8125 69.7812 41.5 67.4062
Q44.1875 65.0469 45.5469 61.7969
Q46.9219 58.5469 46.9219 54.6875" id="WenQuanYiMicroHei-33"/>
      </defs>
      <g transform="translate(371.47618125 178.737148125)scale(0.09996 -0.09996)">
       <use xlink:href="#WenQuanYiMicroHei-33"/>
       <use x="55.078125" xlink:href="#WenQuanYiMicroHei-30"/>
       <use x="110.15625" xlink:href="#WenQuanYiMicroHei-30"/>
       <use x="165.234375" xlink:href="#WenQuanYiMicroHei-30"/>
      </g>
     </g>
    </g>
    <g id="xtick_8">
     <g id="line2d_17">
      <g>
       <use style="stroke:#000000;stroke-width:0.5;" x="437.85319875" xlink:href="#m93b0483c22" y="167.14175"/>
      </g>
     </g>
     <g id="line2d_18">
      <g>
       <use style="stroke:#000000;stroke-width:0.5;" x="437.85319875" xlink:href="#m741efc42ff" y="23.14175"/>
      </g>
     </g>
     <g id="text_8">
      <!-- 3500 -->
      <g transform="translate(427.27618125 178.737148125)scale(0.09996 -0.09996)">
       <use xlink:href="#WenQuanYiMicroHei-33"/>
       <use x="55.078125" xlink:href="#WenQuanYiMicroHei-35"/>
       <use x="110.15625" xlink:href="#WenQuanYiMicroHei-30"/>
       <use x="165.234375" xlink:href="#WenQuanYiMicroHei-30"/>
      </g>
     </g>
    </g>
    <g id="xtick_9">
     <g id="line2d_19">
      <g>
       <use style="stroke:#000000;stroke-width:0.5;" x="493.65319875" xlink:href="#m93b0483c22" y="167.14175"/>
      </g>
     </g>
     <g id="line2d_20">
      <g>
       <use style="stroke:#000000;stroke-width:0.5;" x="493.65319875" xlink:href="#m741efc42ff" y="23.14175"/>
      </g>
     </g>
     <g id="text_9">
      <!-- 4000 -->
      <defs>
       <path d="
M53.0781 16.0156
L42.6719 16.0156
L42.6719 0
L34.0781 0
L34.0781 16.0156
L1.125 16.0156
L1.125 23.7812
L33.5 71.7812
L42.6719 71.7812
L42.6719 24.125
L53.0781 24.125
z

M34.0781 24.125
L34.0781 41.5
Q34.0781 44.2344 34.1562 47.2344
Q34.2344 50.25 34.3281 53.0938
Q34.4219 55.9531 34.5469 58.4375
Q34.6719 60.9375 34.7188 62.5938
L34.2812 62.5938
Q33.9375 61.625 33.4219 60.4219
Q32.9062 59.2344 32.2969 58.0312
Q31.6875 56.8438 31.0469 55.7188
Q30.4219 54.5938 29.8906 53.8125
L9.8125 24.125
z
" id="WenQuanYiMicroHei-34"/>
      </defs>
      <g transform="translate(482.93248875 178.737148125)scale(0.09996 -0.09996)">
       <use xlink:href="#WenQuanYiMicroHei-34"/>
       <use x="55.078125" xlink:href="#WenQuanYiMicroHei-30"/>
       <use x="110.15625" xlink:href="#WenQuanYiMicroHei-30"/>
       <use x="165.234375" xlink:href="#WenQuanYiMicroHei-30"/>
      </g>
     </g>
    </g>
    <g id="text_10">
     <!-- 频率(Hz) -->
     <defs>
      <path d="
M90.2344 62.8906
L90.2344 12.1094
L82.4219 12.1094
L82.4219 55.8594
L58.9844 55.8594
L58.9844 11.7188
L51.1719 11.7188
L51.1719 62.8906
L64.4531 62.8906
L66.0156 70.7031
L47.6562 70.7031
L47.6562 77.7344
L93.3594 77.7344
L93.3594 70.7031
L73.4375 70.7031
L72.6562 62.8906
z

M66.7969 47.6562
L74.6094 47.6562
Q74.6094 22.2656 72.6562 15.2344
Q70.7031 8.20312 64.6406 1.75
Q58.5938 -4.6875 48.0469 -8.98438
L42.9688 -2.34375
Q52.7344 1.5625 58 6.82812
Q63.2812 12.1094 65.0312 18.5469
Q66.7969 25 66.7969 47.6562
M77.7344 12.8906
Q86.3281 6.25 94.9219 -2.73438
L89.0625 -8.98438
Q81.6406 0 71.4844 8.59375
z

M25.7812 81.25
L33.2031 81.25
L33.2031 69.1406
L44.1406 69.1406
L44.1406 62.5
L33.2031 62.5
L33.2031 50
L47.6562 50
L47.6562 43.3594
L6.64062 43.3594
L6.64062 50
L12.8906 50
L12.8906 73.8281
L20.3125 73.8281
L20.3125 50
L25.7812 50
z

M25 38.2812
L32.4219 38.2812
L32.4219 16.7969
Q37.1094 23.4375 39.8438 32.4219
L47.2656 29.6875
Q37.5 1.17188 10.9375 -8.98438
L7.8125 -2.34375
Q17.9688 1.17188 25 7.8125
z

M14.0625 35.9375
L21.0938 33.5938
Q16.7969 19.5312 11.7188 10.5469
L5.07812 14.0625
Q10.9375 25 14.0625 35.9375" id="WenQuanYiMicroHei-9891"/>
      <path d="
M40.0938 0
L4 0
L4 6.10938
L30.1719 46.9219
L5.60938 46.9219
L5.60938 53.6094
L39.2031 53.6094
L39.2031 46.4844
L13.625 6.6875
L40.0938 6.6875
z
" id="WenQuanYiMicroHei-7a"/>
      <path d="
M51.1719 81.25
Q54.2969 76.5625 55.8594 71.0938
L94.5312 71.0938
L94.5312 63.6719
L5.46875 63.6719
L5.46875 71.0938
L46.0938 71.0938
Q44.9219 75.3906 42.9688 78.5156
z

M46.4844 25.3906
L53.9062 25.3906
L53.9062 17.1875
L93.75 17.1875
L93.75 10.1562
L53.9062 10.1562
L53.9062 -8.98438
L46.4844 -8.98438
L46.4844 10.1562
L6.25 10.1562
L6.25 17.1875
L46.4844 17.1875
z

M45.7031 69.5312
L52.7344 67.5781
Q46.875 55.4688 42.1875 50
Q47.6562 50 54.2969 51.1719
Q57.8125 55.0781 60.9375 59.375
L67.9688 57.0312
Q56.6406 41.7969 42.5781 31.6406
Q52.3438 33.2031 60.5469 35.1562
Q58.9844 37.5 57.0312 39.8438
L63.2812 42.9688
Q69.9219 35.1562 74.6094 25.3906
L67.5781 22.2656
Q66.0156 26.1719 64.0625 29.6875
Q49.2188 26.1719 32.0312 23.8281
L30.0781 30.0781
Q39.4531 35.9375 48.0469 44.5312
Q41.4062 43.3594 33.9844 42.5781
L32.8125 49.2188
Q41.0156 58.9844 45.7031 69.5312
M17.1875 62.1094
Q23.4375 56.6406 27.7344 50
L20.7031 46.0938
Q16.7969 52.3438 10.1562 57.8125
z

M83.2031 62.1094
L89.8438 58.2031
Q83.2031 49.6094 76.5625 44.5312
L70.7031 50
Q78.5156 55.8594 83.2031 62.1094
M25.3906 42.5781
L31.25 38.2812
Q24.2188 29.6875 13.6719 22.2656
L7.8125 28.125
Q18.75 35.5469 25.3906 42.5781
M76.9531 41.4062
Q85.1562 36.7188 92.1875 30.0781
L86.3281 23.0469
Q79.6875 30.8594 71.875 35.9375
z
" id="WenQuanYiMicroHei-7387"/>
      <path d="
M4 27.3906
Q4 33.5 4.875 39.4219
Q5.76562 45.3594 7.5625 50.9531
Q9.375 56.5469 12.125 61.6875
Q14.8906 66.8438 18.7031 71.3906
L27.0938 71.3906
Q20.2656 61.9688 16.7188 50.6875
Q13.1875 39.4062 13.1875 27.4844
Q13.1875 21.6875 14.0781 15.9219
Q14.9844 10.1562 16.7188 4.64062
Q18.4531 -0.875 21.0469 -6.04688
Q23.6406 -11.2344 27 -15.8281
L18.7031 -15.8281
Q14.8906 -11.4219 12.125 -6.39062
Q9.375 -1.375 7.5625 4.125
Q5.76562 9.625 4.875 15.4844
Q4 21.3438 4 27.3906" id="WenQuanYiMicroHei-28"/>
      <path d="
M26.125 27.3906
Q26.125 21.3438 25.2344 15.4844
Q24.3594 9.625 22.5312 4.125
Q20.7031 -1.375 17.9375 -6.39062
Q15.1875 -11.4219 11.375 -15.8281
L3.07812 -15.8281
Q6.45312 -11.2344 9.03125 -6.04688
Q11.625 -0.875 13.375 4.64062
Q15.1406 10.1562 16.0156 15.9219
Q16.8906 21.6875 16.8906 27.4844
Q16.8906 39.4062 13.375 50.6875
Q9.85938 61.9688 2.98438 71.3906
L11.375 71.3906
Q15.1875 66.8438 17.9375 61.6875
Q20.7031 56.5469 22.5312 50.9531
Q24.3594 45.3594 25.2344 39.4219
Q26.125 33.5 26.125 27.3906" id="WenQuanYiMicroHei-29"/>
      <path d="
M60.4062 0
L51.3125 0
L51.3125 33.2969
L18.7969 33.2969
L18.7969 0
L9.71875 0
L9.71875 71.3906
L18.7969 71.3906
L18.7969 41.3125
L51.3125 41.3125
L51.3125 71.3906
L60.4062 71.3906
z
" id="WenQuanYiMicroHei-48"/>
     </defs>
     <g transform="translate(252.193318125 193.73471)scale(0.09996 -0.09996)">
      <use xlink:href="#WenQuanYiMicroHei-9891"/>
      <use x="100.0" xlink:href="#WenQuanYiMicroHei-7387"/>
      <use x="200.0" xlink:href="#WenQuanYiMicroHei-28"/>
      <use x="230.078125" xlink:href="#WenQuanYiMicroHei-48"/>
      <use x="300.1953125" xlink:href="#WenQuanYiMicroHei-7a"/>
      <use x="344.287109375" xlink:href="#WenQuanYiMicroHei-29"/>
     </g>
    </g>
   </g>
   <g id="matplotlib.axis_2">
    <g id="ytick_1">
     <g id="line2d_21">
      <defs>
       <path d="
M0 0
L4 0" id="m728421d6d4" style="stroke:#000000;stroke-width:0.5;"/>
      </defs>
      <g>
       <use style="stroke:#000000;stroke-width:0.5;" x="47.25319875" xlink:href="#m728421d6d4" y="167.14175"/>
      </g>
     </g>
     <g id="line2d_22">
      <defs>
       <path d="
M0 0
L-4 0" id="mcb0005524f" style="stroke:#000000;stroke-width:0.5;"/>
      </defs>
      <g>
       <use style="stroke:#000000;stroke-width:0.5;" x="493.65319875" xlink:href="#mcb0005524f" y="167.14175"/>
      </g>
     </g>
     <g id="text_11">
      <!-- −100 -->
      <defs>
       <path d="
M4.98438 31.5938
L4.98438 38.9219
L50.0938 38.9219
L50.0938 31.5938
z
" id="WenQuanYiMicroHei-2212"/>
      </defs>
      <g transform="translate(22.197561875 169.738367187)scale(0.09996 -0.09996)">
       <use xlink:href="#WenQuanYiMicroHei-2212"/>
       <use x="55.078125" xlink:href="#WenQuanYiMicroHei-31"/>
       <use x="110.15625" xlink:href="#WenQuanYiMicroHei-30"/>
       <use x="165.234375" xlink:href="#WenQuanYiMicroHei-30"/>
      </g>
     </g>
    </g>
    <g id="ytick_2">
     <g id="line2d_23">
      <g>
       <use style="stroke:#000000;stroke-width:0.5;" x="47.25319875" xlink:href="#m728421d6d4" y="143.14175"/>
      </g>
     </g>
     <g id="line2d_24">
      <g>
       <use style="stroke:#000000;stroke-width:0.5;" x="493.65319875" xlink:href="#mcb0005524f" y="143.14175"/>
      </g>
     </g>
     <g id="text_12">
      <!-- −80 -->
      <defs>
       <path d="
M27.5938 72.5156
Q31.6875 72.5156 35.3281 71.4375
Q38.9688 70.3594 41.7188 68.2031
Q44.4844 66.0625 46.0938 62.8438
Q47.7031 59.625 47.7031 55.3281
Q47.7031 52.0469 46.7188 49.4062
Q45.75 46.7812 44.0312 44.6562
Q42.3281 42.5312 39.9844 40.8438
Q37.6406 39.1562 34.9062 37.7969
Q37.75 36.2812 40.4531 34.4219
Q43.1719 32.5625 45.2812 30.25
Q47.4062 27.9375 48.7031 25.0469
Q50 22.1719 50 18.6094
Q50 14.1094 48.3594 10.4688
Q46.7344 6.84375 43.7812 4.29688
Q40.8281 1.76562 36.6875 0.390625
Q32.5625 -0.984375 27.5938 -0.984375
Q22.2188 -0.984375 18.0469 0.328125
Q13.875 1.65625 11.0156 4.125
Q8.15625 6.59375 6.65625 10.1562
Q5.17188 13.7188 5.17188 18.2188
Q5.17188 21.875 6.26562 24.7969
Q7.375 27.7344 9.21875 30.0781
Q11.0781 32.4219 13.6094 34.2188
Q16.1562 36.0312 19 37.4062
Q16.6094 38.9219 14.5 40.7031
Q12.4062 42.4844 10.8594 44.6719
Q9.32812 46.875 8.42188 49.5312
Q7.51562 52.2031 7.51562 55.4219
Q7.51562 59.6719 9.15625 62.8594
Q10.7969 66.0625 13.5781 68.2031
Q16.3594 70.3594 20 71.4375
Q23.6406 72.5156 27.5938 72.5156
M13.9219 18.1094
Q13.9219 15.5312 14.7031 13.3594
Q15.4844 11.1875 17.1406 9.64062
Q18.7969 8.10938 21.3281 7.25
Q23.875 6.39062 27.3906 6.39062
Q30.8125 6.39062 33.4219 7.25
Q36.0312 8.10938 37.7812 9.6875
Q39.5469 11.2812 40.4219 13.5156
Q41.3125 15.7656 41.3125 18.5
Q41.3125 21.0469 40.3594 23.0938
Q39.4062 25.1406 37.625 26.8906
Q35.8438 28.6562 33.3438 30.2188
Q30.8594 31.7812 27.7812 33.2969
L26.3125 33.9844
Q20.1719 31.0625 17.0469 27.2656
Q13.9219 23.4844 13.9219 18.1094
M27.4844 65.0938
Q22.3125 65.0938 19.2656 62.5
Q16.2188 59.9062 16.2188 54.9844
Q16.2188 52.2031 17.0625 50.1875
Q17.9219 48.1875 19.4375 46.625
Q20.9531 45.0625 23.0781 43.8125
Q25.2031 42.5781 27.6875 41.4062
Q30.0312 42.4844 32.1094 43.75
Q34.1875 45.0156 35.7188 46.625
Q37.25 48.25 38.125 50.2969
Q39.0156 52.3438 39.0156 54.9844
Q39.0156 59.9062 35.9375 62.5
Q32.8594 65.0938 27.4844 65.0938" id="WenQuanYiMicroHei-38"/>
      </defs>
      <g transform="translate(27.70317125 145.738367187)scale(0.09996 -0.09996)">
       <use xlink:href="#WenQuanYiMicroHei-2212"/>
       <use x="55.078125" xlink:href="#WenQuanYiMicroHei-38"/>
       <use x="110.15625" xlink:href="#WenQuanYiMicroHei-30"/>
      </g>
     </g>
    </g>
    <g id="ytick_3">
     <g id="line2d_25">
      <g>
       <use style="stroke:#000000;stroke-width:0.5;" x="47.25319875" xlink:href="#m728421d6d4" y="119.14175"/>
      </g>
     </g>
     <g id="line2d_26">
      <g>
       <use style="stroke:#000000;stroke-width:0.5;" x="493.65319875" xlink:href="#mcb0005524f" y="119.14175"/>
      </g>
     </g>
     <g id="text_13">
      <!-- −60 -->
      <defs>
       <path d="
M5.51562 30.5156
Q5.51562 35.6406 6.03125 40.7188
Q6.54688 45.7969 7.82812 50.4531
Q9.125 55.125 11.375 59.125
Q13.625 63.1406 17.0938 66.0938
Q20.5625 69.0469 25.3906 70.7188
Q30.2188 72.4062 36.7188 72.4062
Q37.6406 72.4062 38.7656 72.3594
Q39.8906 72.3125 41.0312 72.1875
Q42.1875 72.0781 43.2344 71.9062
Q44.2812 71.7344 45.125 71.4844
L45.125 63.9219
Q43.4062 64.5 41.25 64.7969
Q39.1094 65.0938 37.0156 65.0938
Q32.625 65.0938 29.2656 64.0312
Q25.9219 62.9844 23.4844 61.0781
Q21.0469 59.1875 19.4062 56.5469
Q17.7812 53.9062 16.75 50.7031
Q15.7188 47.5156 15.2344 43.8906
Q14.75 40.2812 14.5938 36.375
L15.1875 36.375
Q16.1562 38.1406 17.5469 39.6719
Q18.9531 41.2188 20.7969 42.3125
Q22.6562 43.4062 24.9688 44.0312
Q27.2969 44.6719 30.1719 44.6719
Q34.8125 44.6719 38.5625 43.2344
Q42.3281 41.7969 44.9688 39.0156
Q47.6094 36.2344 49.0469 32.2031
Q50.4844 28.1719 50.4844 23
Q50.4844 17.4375 48.9688 12.9844
Q47.4688 8.54688 44.625 5.4375
Q41.7969 2.34375 37.7969 0.671875
Q33.7969 -0.984375 28.8125 -0.984375
Q23.9219 -0.984375 19.6406 0.921875
Q15.375 2.82812 12.25 6.73438
Q9.125 10.6406 7.3125 16.5469
Q5.51562 22.4688 5.51562 30.5156
M28.7188 6.5
Q31.6406 6.5 34.0469 7.5
Q36.4688 8.5 38.2188 10.5156
Q39.9844 12.5469 40.9375 15.6406
Q41.8906 18.75 41.8906 23
Q41.8906 26.4219 41.0781 29.125
Q40.2812 31.8438 38.6719 33.7344
Q37.0625 35.6406 34.6406 36.6719
Q32.2344 37.7031 29 37.7031
Q25.7344 37.7031 23.0156 36.5469
Q20.3125 35.4062 18.4062 33.5625
Q16.5 31.7344 15.4531 29.3906
Q14.4062 27.0469 14.4062 24.7031
Q14.4062 21.4375 15.3125 18.1875
Q16.2188 14.9375 18 12.3438
Q19.7812 9.76562 22.4531 8.125
Q25.1406 6.5 28.7188 6.5" id="WenQuanYiMicroHei-36"/>
      </defs>
      <g transform="translate(27.70317125 121.738367188)scale(0.09996 -0.09996)">
       <use xlink:href="#WenQuanYiMicroHei-2212"/>
       <use x="55.078125" xlink:href="#WenQuanYiMicroHei-36"/>
       <use x="110.15625" xlink:href="#WenQuanYiMicroHei-30"/>
      </g>
     </g>
    </g>
    <g id="ytick_4">
     <g id="line2d_27">
      <g>
       <use style="stroke:#000000;stroke-width:0.5;" x="47.25319875" xlink:href="#m728421d6d4" y="95.14175"/>
      </g>
     </g>
     <g id="line2d_28">
      <g>
       <use style="stroke:#000000;stroke-width:0.5;" x="493.65319875" xlink:href="#mcb0005524f" y="95.14175"/>
      </g>
     </g>
     <g id="text_14">
      <!-- −40 -->
      <g transform="translate(27.70317125 97.7383671875)scale(0.09996 -0.09996)">
       <use xlink:href="#WenQuanYiMicroHei-2212"/>
       <use x="55.078125" xlink:href="#WenQuanYiMicroHei-34"/>
       <use x="110.15625" xlink:href="#WenQuanYiMicroHei-30"/>
      </g>
     </g>
    </g>
    <g id="ytick_5">
     <g id="line2d_29">
      <g>
       <use style="stroke:#000000;stroke-width:0.5;" x="47.25319875" xlink:href="#m728421d6d4" y="71.14175"/>
      </g>
     </g>
     <g id="line2d_30">
      <g>
       <use style="stroke:#000000;stroke-width:0.5;" x="493.65319875" xlink:href="#mcb0005524f" y="71.14175"/>
      </g>
     </g>
     <g id="text_15">
      <!-- −20 -->
      <g transform="translate(27.70317125 73.7383671875)scale(0.09996 -0.09996)">
       <use xlink:href="#WenQuanYiMicroHei-2212"/>
       <use x="55.078125" xlink:href="#WenQuanYiMicroHei-32"/>
       <use x="110.15625" xlink:href="#WenQuanYiMicroHei-30"/>
      </g>
     </g>
    </g>
    <g id="ytick_6">
     <g id="line2d_31">
      <g>
       <use style="stroke:#000000;stroke-width:0.5;" x="47.25319875" xlink:href="#m728421d6d4" y="47.14175"/>
      </g>
     </g>
     <g id="line2d_32">
      <g>
       <use style="stroke:#000000;stroke-width:0.5;" x="493.65319875" xlink:href="#mcb0005524f" y="47.14175"/>
      </g>
     </g>
     <g id="text_16">
      <!-- 0 -->
      <g transform="translate(38.694085625 49.7383671875)scale(0.09996 -0.09996)">
       <use xlink:href="#WenQuanYiMicroHei-30"/>
      </g>
     </g>
    </g>
    <g id="ytick_7">
     <g id="line2d_33">
      <g>
       <use style="stroke:#000000;stroke-width:0.5;" x="47.25319875" xlink:href="#m728421d6d4" y="23.14175"/>
      </g>
     </g>
     <g id="line2d_34">
      <g>
       <use style="stroke:#000000;stroke-width:0.5;" x="493.65319875" xlink:href="#mcb0005524f" y="23.14175"/>
      </g>
     </g>
     <g id="text_17">
      <!-- 20 -->
      <g transform="translate(33.179105 25.7383671875)scale(0.09996 -0.09996)">
       <use xlink:href="#WenQuanYiMicroHei-32"/>
       <use x="55.078125" xlink:href="#WenQuanYiMicroHei-30"/>
      </g>
     </g>
    </g>
    <g id="text_18">
     <!-- 增益(dB) -->
     <defs>
      <path d="
M41.6094 7.17188
L41.2188 7.17188
Q40.1406 5.51562 38.6875 4.03125
Q37.25 2.54688 35.375 1.42188
Q33.5 0.296875 31.1562 -0.34375
Q28.8125 -0.984375 25.875 -0.984375
Q21.3438 -0.984375 17.5781 0.78125
Q13.8125 2.54688 11.125 6.03125
Q8.45312 9.51562 6.98438 14.6875
Q5.51562 19.875 5.51562 26.7031
Q5.51562 33.5938 6.98438 38.7969
Q8.45312 44 11.125 47.5156
Q13.8125 51.0312 17.5781 52.8125
Q21.3438 54.5938 25.875 54.5938
Q28.7656 54.5938 31.1094 53.9531
Q33.4531 53.3281 35.3281 52.25
Q37.2031 51.1719 38.6719 49.75
Q40.1406 48.3438 41.2188 46.7812
L41.7969 46.7812
Q41.6562 48.4375 41.5 49.9531
Q41.4062 51.2188 41.3125 52.5625
Q41.2188 53.9062 41.2188 54.6875
L41.2188 75.9844
L50.0938 75.9844
L50.0938 0
L42.9219 0
z

M27.5938 6.39062
Q31.2969 6.39062 33.8594 7.51562
Q36.4219 8.64062 38 10.9375
Q39.5938 13.2344 40.3438 16.6719
Q41.1094 20.125 41.2188 24.7031
L41.2188 26.7031
Q41.2188 31.6406 40.5469 35.4688
Q39.8906 39.3125 38.2969 41.9219
Q36.7188 44.5312 34.0781 45.875
Q31.4531 47.2188 27.4844 47.2188
Q20.9062 47.2188 17.7969 41.8906
Q14.7031 36.5781 14.7031 26.6094
Q14.7031 16.4062 17.7969 11.3906
Q20.9062 6.39062 27.5938 6.39062" id="WenQuanYiMicroHei-64"/>
      <path d="
M9.71875 71.3906
L29.2031 71.3906
Q35.4531 71.3906 40.2031 70.4375
Q44.9688 69.4844 48.1719 67.3594
Q51.375 65.2344 52.9844 61.7812
Q54.5938 58.3438 54.5938 53.3281
Q54.5938 50.2969 53.6406 47.6562
Q52.6875 45.0156 50.875 43.0156
Q49.0781 41.0156 46.4062 39.6719
Q43.75 38.3281 40.375 37.8906
L40.375 37.4062
Q43.75 36.8125 46.7031 35.7188
Q49.6562 34.625 51.8438 32.6875
Q54.0469 30.7656 55.3125 27.8281
Q56.5938 24.9062 56.5938 20.7031
Q56.5938 15.8281 55 11.9844
Q53.4219 8.15625 50.4062 5.48438
Q47.4062 2.82812 43.1094 1.40625
Q38.8125 0 33.4062 0
L9.71875 0
z

M18.7969 41.1094
L30.7188 41.1094
Q34.8125 41.1094 37.5938 41.8438
Q40.375 42.5781 42.0781 44.0156
Q43.7969 45.4531 44.5469 47.625
Q45.3125 49.8125 45.3125 52.6875
Q45.3125 58.5469 41.5469 61.0781
Q37.7969 63.625 29.6875 63.625
L18.7969 63.625
z

M18.7969 33.5
L18.7969 7.71875
L31.7812 7.71875
Q36.0781 7.71875 38.9844 8.6875
Q41.8906 9.67188 43.6719 11.4219
Q45.4531 13.1875 46.2344 15.6406
Q47.0156 18.1094 47.0156 21.0938
Q47.0156 23.8281 46.2031 26.125
Q45.4062 28.4219 43.5781 30.0469
Q41.75 31.6875 38.7188 32.5938
Q35.6875 33.5 31.2031 33.5
z
" id="WenQuanYiMicroHei-42"/>
      <path d="
M85.5469 28.125
L85.5469 0.390625
L94.9219 0.390625
L94.9219 -7.03125
L5.07812 -7.03125
L5.07812 0.390625
L14.4531 0.390625
L14.4531 28.125
z

M22.2656 0.390625
L35.9375 0.390625
L35.9375 21.0938
L22.2656 21.0938
z

M43.3594 0.390625
L56.6406 0.390625
L56.6406 21.0938
L43.3594 21.0938
z

M64.0625 0.390625
L77.7344 0.390625
L77.7344 21.0938
L64.0625 21.0938
z

M26.9531 82.0312
Q34.375 75.7812 39.0625 69.1406
L31.6406 64.8438
Q27.3438 71.4844 19.5312 77.3438
z

M69.9219 81.25
L78.9062 78.5156
Q74.2188 69.5312 68.75 62.8906
L89.8438 62.8906
L89.8438 55.4688
L10.5469 55.4688
L10.5469 62.8906
L59.7656 62.8906
Q65.625 71.4844 69.9219 81.25
M33.2031 52.3438
L38.6719 46.0938
Q29.2969 37.1094 8.98438 30.0781
L5.07812 37.5
Q21.875 42.5781 33.2031 52.3438
M65.2344 52.3438
Q80.0781 47.6562 94.9219 38.2812
L90.2344 30.4688
Q75.3906 41.0156 60.5469 46.0938
z
" id="WenQuanYiMicroHei-76ca"/>
      <path d="
M5.46875 57.8125
L15.2344 57.8125
L15.2344 79.2969
L22.6562 79.2969
L22.6562 57.8125
L33.2031 57.8125
L33.2031 50.3906
L22.6562 50.3906
L22.6562 19.5312
Q27.7344 21.4844 31.6406 23.4375
L32.8125 16.4062
Q20.7031 10.1562 5.85938 5.85938
L4.29688 13.6719
Q10.1562 15.2344 15.2344 17.1875
L15.2344 50.3906
L5.46875 50.3906
z

M52.3438 81.6406
Q56.25 76.1719 58.9844 69.9219
L71.0938 69.9219
Q74.6094 74.6094 77.3438 81.6406
L85.1562 79.2969
Q83.2031 74.2188 79.6875 69.9219
L92.5781 69.9219
L92.5781 35.9375
L36.7188 35.9375
L36.7188 69.9219
L50.3906 69.9219
Q48.0469 74.6094 45.3125 78.125
z

M44.1406 42.5781
L60.9375 42.5781
L60.9375 63.2812
L44.1406 63.2812
z

M52.7344 60.1562
Q57.0312 54.6875 59.375 47.6562
L52.3438 44.5312
Q50 51.5625 46.0938 57.0312
z

M68.3594 63.2812
L68.3594 42.5781
L85.1562 42.5781
L85.1562 63.2812
z

M75.7812 60.1562
L82.8125 58.5938
Q81.25 50.3906 76.1719 44.1406
L70.3125 47.6562
Q74.6094 53.125 75.7812 60.1562
M89.4531 30.4688
L89.4531 -8.59375
L82.0312 -8.59375
L82.0312 -3.125
L47.2656 -3.125
L47.2656 -8.59375
L39.8438 -8.59375
L39.8438 30.4688
z

M47.2656 16.4062
L82.0312 16.4062
L82.0312 23.8281
L47.2656 23.8281
z

M47.2656 3.51562
L82.0312 3.51562
L82.0312 10.5469
L47.2656 10.5469
z
" id="WenQuanYiMicroHei-589e"/>
     </defs>
     <g transform="translate(14.795398125 113.764766563)rotate(-90.0)scale(0.09996 -0.09996)">
      <use xlink:href="#WenQuanYiMicroHei-589e"/>
      <use x="100.0" xlink:href="#WenQuanYiMicroHei-76ca"/>
      <use x="200.0" xlink:href="#WenQuanYiMicroHei-28"/>
      <use x="230.078125" xlink:href="#WenQuanYiMicroHei-64"/>
      <use x="288.671875" xlink:href="#WenQuanYiMicroHei-42"/>
      <use x="350.78125" xlink:href="#WenQuanYiMicroHei-29"/>
     </g>
    </g>
   </g>
   <g id="text_19">
    <!-- 频率扫描波测量的滤波器频谱 -->
    <defs>
     <path d="
M43.75 41.4062
L83.2031 41.4062
L83.2031 63.2812
L42.5781 63.2812
L42.5781 70.7031
L91.4062 70.7031
L91.4062 -5.46875
L83.2031 -5.46875
L83.2031 1.17188
L40.625 1.17188
L40.625 8.59375
L83.2031 8.59375
L83.2031 33.9844
L43.75 33.9844
z

M5.07812 64.4531
L19.5312 64.4531
L19.5312 80.8594
L27.3438 80.8594
L27.3438 64.4531
L39.4531 64.4531
L39.4531 57.0312
L27.3438 57.0312
L27.3438 36.7188
L39.4531 41.7969
L41.0156 34.7656
L27.3438 28.5156
L27.3438 1.5625
Q27.3438 -4.29688 25.3906 -6.64062
Q23.4375 -8.98438 18.75 -8.98438
Q12.5 -8.98438 7.03125 -7.8125
L5.46875 0.390625
Q11.3281 -1.17188 17.5781 -1.17188
Q19.5312 -1.17188 19.5312 3.51562
L19.5312 25.3906
L6.64062 20.7031
L3.90625 28.9062
Q12.1094 31.25 19.5312 33.9844
L19.5312 57.0312
L5.07812 57.0312
z
" id="WenQuanYiMicroHei-626b"/>
     <path d="
M16.7969 78.9062
L82.4219 78.9062
L82.4219 52.7344
L16.7969 52.7344
z

M24.6094 68.75
L74.6094 68.75
L74.6094 73.0469
L24.6094 73.0469
z

M24.6094 58.9844
L74.6094 58.9844
L74.6094 63.2812
L24.6094 63.2812
z

M6.64062 48.8281
L92.9688 48.8281
L92.9688 42.9688
L6.64062 42.9688
z

M16.4062 39.0625
L83.2031 39.0625
L83.2031 13.2812
L53.9062 13.2812
L53.9062 9.375
L86.7188 9.375
L86.7188 3.51562
L53.9062 3.51562
L53.9062 -0.390625
L94.9219 -0.390625
L94.9219 -7.03125
L4.6875 -7.03125
L4.6875 -0.390625
L45.7031 -0.390625
L45.7031 3.51562
L13.2812 3.51562
L13.2812 9.375
L45.7031 9.375
L45.7031 13.2812
L16.4062 13.2812
z

M24.2188 28.5156
L45.7031 28.5156
L45.7031 32.8125
L24.2188 32.8125
z

M53.9062 32.8125
L53.9062 28.5156
L75.3906 28.5156
L75.3906 32.8125
z

M24.2188 19.5312
L45.7031 19.5312
L45.7031 23.4375
L24.2188 23.4375
z

M53.9062 23.4375
L53.9062 19.5312
L75.3906 19.5312
L75.3906 23.4375
z
" id="WenQuanYiMicroHei-91cf"/>
     <path d="
M58.9844 80.4688
L66.7969 78.9062
Q64.8438 71.4844 61.7188 64.4531
L92.1875 64.4531
Q92.1875 12.8906 88.6719 0.78125
Q85.9375 -8.98438 75.7812 -8.98438
Q70.7031 -8.98438 63.6719 -7.42188
L61.7188 0.78125
Q71.4844 -0.78125 75.7812 -0.78125
Q80.4688 -0.78125 81.6406 4.6875
Q83.9844 15.2344 83.9844 57.0312
L57.8125 57.0312
Q53.125 48.8281 47.6562 43.3594
L41.7969 48.8281
Q53.5156 61.7188 58.9844 80.4688
M62.1094 41.7969
Q67.9688 33.2031 71.875 22.6562
L64.4531 19.1406
Q60.5469 30.0781 54.6875 38.6719
z

M40.2344 67.9688
L40.2344 -2.73438
L33.2031 -2.73438
L33.2031 0.390625
L15.2344 0.390625
L15.2344 -5.46875
L8.20312 -5.46875
L8.20312 67.9688
L16.7969 67.9688
Q18.75 74.2188 19.5312 80.8594
L27.7344 79.2969
Q26.1719 73.0469 24.2188 67.9688
z

M33.2031 37.8906
L33.2031 60.5469
L15.2344 60.5469
L15.2344 37.8906
z

M15.2344 30.4688
L15.2344 7.8125
L33.2031 7.8125
L33.2031 30.4688
z
" id="WenQuanYiMicroHei-7684"/>
     <path d="
M69.5312 25
Q73.4375 19.1406 75.7812 11.7188
L68.75 9.375
Q66.7969 16.7969 62.5 23.0469
z

M83.9844 22.2656
Q91.0156 13.2812 95.3125 3.125
L88.6719 -0.78125
Q84.375 9.375 77.7344 18.3594
z

M52.7344 21.875
L60.5469 21.875
L60.5469 3.125
Q60.5469 -0.390625 63.6719 -0.390625
Q71.4844 -0.390625 73.0469 0.78125
Q74.6094 1.95312 75.3906 8.59375
L82.8125 6.64062
Q82.0312 -1.95312 79.2969 -5.07812
Q76.9531 -7.8125 63.6719 -7.8125
Q56.25 -7.8125 54.4844 -6.04688
Q52.7344 -4.29688 52.7344 0.78125
z

M43.3594 21.0938
L50 18.75
Q46.4844 4.29688 41.7969 -5.85938
L34.375 -1.95312
Q40.2344 9.76562 43.3594 21.0938
M75 50.7812
L75.7812 44.1406
L57.0312 41.7969
L57.0312 38.2812
Q57.0312 37.1094 58.9844 36.3281
Q60.9375 35.5469 64.4531 35.5469
Q75.7812 35.5469 77.3438 36.7188
Q78.9062 37.8906 79.2969 43.75
L86.3281 41.7969
Q85.5469 33.5938 82.6094 31.25
Q79.6875 28.9062 64.4531 28.9062
Q55.0781 28.9062 52.5312 30.4688
Q50 32.0312 50 35.9375
L50 40.625
L41.4062 39.8438
L40.2344 46.4844
L50 47.6562
L50 55.4688
L37.5 55.4688
L37.5 29.2969
Q37.5 7.42188 25.7812 -9.375
L18.75 -5.07812
Q25.3906 5.07812 27.7344 13.0781
Q30.0781 21.0938 30.0781 32.0312
L30.0781 62.5
L51.5625 62.5
L51.5625 81.6406
L59.375 81.6406
L59.375 75
L84.7656 75
L84.7656 67.9688
L59.375 67.9688
L59.375 62.5
L92.9688 62.5
L92.9688 55.8594
Q90.2344 50.3906 85.5469 44.9219
L78.9062 48.8281
Q81.6406 52.3438 83.5938 55.4688
L57.0312 55.4688
L57.0312 48.4375
z

M12.5 79.2969
Q19.5312 73.8281 25 67.9688
L19.1406 62.1094
Q13.6719 69.1406 6.64062 75
z

M9.375 55.8594
Q16.7969 51.1719 23.0469 44.9219
L17.5781 38.6719
Q11.3281 45.7031 4.29688 50.7812
z

M17.1875 29.6875
L23.4375 25.3906
Q19.1406 7.42188 10.9375 -9.375
L4.29688 -4.29688
Q12.5 11.7188 17.1875 29.6875" id="WenQuanYiMicroHei-6ee4"/>
     <path d="
M84.7656 80.8594
L92.1875 80.8594
L92.1875 1.5625
Q92.1875 -4.29688 90.4219 -6.64062
Q88.6719 -8.98438 83.5938 -8.98438
Q77.3438 -8.98438 72.2656 -7.42188
L70.7031 0.78125
Q76.1719 -1.17188 82.4219 -1.17188
Q84.7656 -1.17188 84.7656 3.51562
z

M69.1406 70.7031
L76.5625 70.7031
L76.5625 13.6719
L69.1406 13.6719
z

M62.8906 75.3906
L62.8906 15.2344
L55.4688 15.2344
L55.4688 68.75
L35.9375 68.75
L35.9375 14.8438
L28.5156 14.8438
L28.5156 75.3906
z

M42.1875 60.1562
L49.6094 60.1562
Q49.6094 30.0781 48.0469 21.4844
Q46.0938 10.5469 41.4062 2.92188
Q36.7188 -4.6875 30.4688 -8.98438
L25.7812 -3.125
Q31.6406 1.17188 35.7344 7.8125
Q39.8438 14.4531 41.0156 22.8438
Q42.1875 31.25 42.1875 60.1562
M53.5156 12.5
Q60.5469 4.29688 64.8438 -4.6875
L58.2031 -8.59375
Q54.2969 0.390625 47.6562 8.98438
z

M12.5 79.2969
Q19.5312 73.8281 25 67.9688
L19.1406 62.1094
Q13.6719 69.1406 6.64062 75
z

M9.375 55.8594
Q16.7969 51.1719 23.0469 44.9219
L17.5781 38.6719
Q11.3281 45.7031 4.29688 50.7812
z

M17.1875 29.6875
L23.4375 25.3906
Q19.1406 7.42188 10.9375 -9.375
L4.29688 -4.29688
Q12.5 11.7188 17.1875 29.6875" id="WenQuanYiMicroHei-6d4b"/>
     <path d="
M5.46875 64.4531
L17.5781 64.4531
L17.5781 80.8594
L25.3906 80.8594
L25.3906 64.4531
L33.2031 64.4531
L33.2031 57.0312
L25.3906 57.0312
L25.3906 37.8906
L34.375 42.1875
L35.9375 35.1562
Q30.8594 32.0312 25.3906 29.2969
L25.3906 1.95312
Q25.3906 -4.29688 23.4375 -6.64062
Q21.4844 -8.98438 15.625 -8.98438
Q10.9375 -8.98438 7.03125 -7.42188
L5.46875 0.390625
Q9.76562 -1.17188 14.4531 -1.17188
Q16.0156 -1.17188 16.7969 -0.1875
Q17.5781 0.78125 17.5781 3.51562
L17.5781 25.7812
L7.8125 21.875
L4.6875 30.0781
L17.5781 34.7656
L17.5781 57.0312
L5.46875 57.0312
z

M35.5469 68.3594
L48.4375 68.3594
L48.4375 80.8594
L55.8594 80.8594
L55.8594 68.3594
L74.6094 68.3594
L74.6094 80.8594
L82.0312 80.8594
L82.0312 68.3594
L94.5312 68.3594
L94.5312 61.3281
L82.0312 61.3281
L82.0312 49.6094
L74.6094 49.6094
L74.6094 61.3281
L55.8594 61.3281
L55.8594 49.6094
L48.4375 49.6094
L48.4375 61.3281
L35.5469 61.3281
z

M90.625 45.3125
L90.625 -8.98438
L83.2031 -8.98438
L83.2031 -3.51562
L47.6562 -3.51562
L47.6562 -8.98438
L40.2344 -8.98438
L40.2344 45.3125
z

M47.6562 24.2188
L62.1094 24.2188
L62.1094 38.2812
L47.6562 38.2812
z

M69.1406 38.2812
L69.1406 24.2188
L83.2031 24.2188
L83.2031 38.2812
z

M47.6562 3.51562
L62.1094 3.51562
L62.1094 17.5781
L47.6562 17.5781
z

M69.1406 3.51562
L83.2031 3.51562
L83.2031 17.5781
L69.1406 17.5781
z
" id="WenQuanYiMicroHei-63cf"/>
     <path d="
M19.1406 80.8594
Q24.6094 73.4375 28.125 65.2344
L20.7031 60.9375
Q17.5781 69.1406 12.1094 76.5625
z

M5.07812 51.9531
L23.4375 51.9531
L23.4375 7.42188
Q26.5625 10.5469 29.6875 14.8438
L34.7656 10.1562
Q30.0781 2.73438 21.875 -3.90625
L16.4062 1.17188
L16.4062 44.9219
L5.07812 44.9219
z

M48.4375 81.25
Q51.9531 75.7812 54.2969 69.1406
L68.3594 69.1406
Q72.2656 75.3906 74.2188 81.25
L82.4219 79.2969
Q80.0781 73.4375 77.7344 69.1406
L92.1875 69.1406
L92.1875 62.5
L73.8281 62.5
L73.8281 41.7969
L94.9219 41.7969
L94.9219 34.7656
L29.2969 34.7656
L29.2969 41.7969
L49.6094 41.7969
L49.6094 62.5
L32.4219 62.5
L32.4219 69.1406
L46.0938 69.1406
Q44.1406 74.2188 41.7969 78.125
z

M56.6406 41.7969
L66.7969 41.7969
L66.7969 62.5
L56.6406 62.5
z

M85.9375 60.1562
L92.1875 56.6406
Q89.0625 48.8281 83.5938 43.3594
L77.3438 47.2656
Q83.2031 53.5156 85.9375 60.1562
M38.6719 59.7656
Q43.3594 54.2969 46.875 47.2656
L39.8438 44.1406
Q37.1094 51.5625 32.4219 57.0312
z

M85.5469 29.2969
L85.5469 -8.98438
L78.5156 -8.98438
L78.5156 -5.07812
L45.3125 -5.07812
L45.3125 -8.98438
L37.5 -8.98438
L37.5 29.2969
z

M45.3125 15.2344
L78.5156 15.2344
L78.5156 22.6562
L45.3125 22.6562
z

M45.3125 1.95312
L78.5156 1.95312
L78.5156 8.98438
L45.3125 8.98438
z
" id="WenQuanYiMicroHei-8c31"/>
     <path d="
M16.4062 80.4688
Q26.5625 75.3906 35.1562 68.75
L29.6875 62.1094
Q20.7031 69.5312 10.9375 75
z

M11.7188 57.0312
Q21.0938 52.3438 29.2969 46.0938
L23.8281 39.4531
Q15.625 46.4844 6.25 51.5625
z

M23.8281 31.6406
L30.4688 26.5625
Q24.2188 8.20312 12.5 -8.98438
L5.07812 -3.51562
Q16.7969 13.2812 23.8281 31.6406
M61.3281 68.3594
L61.3281 80.8594
L69.1406 80.8594
L69.1406 68.3594
L92.5781 68.3594
L92.5781 61.3281
Q92.5781 60.9375 90.625 55.6562
Q88.6719 50.3906 86.7188 46.0938
L79.2969 48.4375
Q82.0312 54.6875 83.9844 60.9375
L69.1406 60.9375
L69.1406 41.7969
L89.4531 41.7969
Q87.5 23.0469 74.6094 8.98438
Q82.8125 3.125 95.3125 -1.95312
L89.4531 -9.375
Q77.7344 -3.90625 68.75 3.51562
Q59.375 -3.90625 46.875 -8.59375
L42.9688 -1.17188
Q54.6875 2.73438 62.8906 8.98438
Q55.4688 16.0156 50 26.1719
L55.8594 30.4688
Q61.3281 20.7031 68.75 14.0625
Q77.7344 23.4375 80.0781 34.7656
L48.4375 34.7656
L48.4375 32.4219
Q48.4375 9.375 35.1562 -8.98438
L28.125 -4.6875
Q35.5469 6.25 38.4688 14.8438
Q41.4062 23.4375 41.4062 35.5469
L41.4062 68.3594
z

M48.4375 41.7969
L61.3281 41.7969
L61.3281 60.9375
L48.4375 60.9375
z
" id="WenQuanYiMicroHei-6ce2"/>
     <path d="
M55.0781 78.125
L87.5 78.125
L87.5 53.9062
L55.0781 53.9062
z

M62.5 60.9375
L79.6875 60.9375
L79.6875 71.0938
L62.5 71.0938
z

M12.5 78.125
L44.1406 78.125
L44.1406 53.9062
L12.5 53.9062
z

M19.5312 60.9375
L37.1094 60.9375
L37.1094 71.0938
L19.5312 71.0938
z

M10.5469 45.7031
L42.9688 45.7031
Q44.5312 49.2188 44.9219 53.125
L52.3438 52.3438
Q52.3438 48.8281 51.1719 45.7031
L69.1406 45.7031
Q67.9688 47.2656 66.4062 48.4375
L72.2656 52.7344
Q75.7812 49.6094 78.9062 45.7031
L91.7969 45.7031
L91.7969 38.6719
L62.1094 38.6719
Q71.4844 30.8594 94.9219 28.5156
L92.1875 21.4844
Q64.4531 24.2188 53.125 38.6719
L48.0469 38.6719
Q44.5312 33.5938 34.7656 28.7031
Q25 23.8281 9.375 21.875
L4.29688 28.9062
Q27.3438 31.6406 37.1094 38.6719
L10.5469 38.6719
z

M45.7031 21.0938
L45.7031 -8.98438
L37.8906 -8.98438
L37.8906 -5.46875
L21.875 -5.46875
L21.875 -8.98438
L14.4531 -8.98438
L14.4531 21.0938
z

M21.875 1.5625
L37.8906 1.5625
L37.8906 14.0625
L21.875 14.0625
z

M87.1094 21.0938
L87.1094 -8.98438
L79.2969 -8.98438
L79.2969 -5.46875
L62.1094 -5.46875
L62.1094 -8.98438
L54.2969 -8.98438
L54.2969 21.0938
z

M62.1094 1.5625
L79.2969 1.5625
L79.2969 14.0625
L62.1094 14.0625
z
" id="WenQuanYiMicroHei-5668"/>
    </defs>
    <g transform="translate(177.58444875 18.14175)scale(0.144 -0.144)">
     <use xlink:href="#WenQuanYiMicroHei-9891"/>
     <use x="100.0" xlink:href="#WenQuanYiMicroHei-7387"/>
     <use x="200.0" xlink:href="#WenQuanYiMicroHei-626b"/>
     <use x="300.0" xlink:href="#WenQuanYiMicroHei-63cf"/>
     <use x="400.0" xlink:href="#WenQuanYiMicroHei-6ce2"/>
     <use x="500.0" xlink:href="#WenQuanYiMicroHei-6d4b"/>
     <use x="600.0" xlink:href="#WenQuanYiMicroHei-91cf"/>
     <use x="700.0" xlink:href="#WenQuanYiMicroHei-7684"/>
     <use x="800.0" xlink:href="#WenQuanYiMicroHei-6ee4"/>
     <use x="900.0" xlink:href="#WenQuanYiMicroHei-6ce2"/>
     <use x="1000.0" xlink:href="#WenQuanYiMicroHei-5668"/>
     <use x="1100.0" xlink:href="#WenQuanYiMicroHei-9891"/>
     <use x="1200.0" xlink:href="#WenQuanYiMicroHei-8c31"/>
    </g>
   </g>
   <g id="legend_1">
    <g id="patch_7">
     <path d="
M341.249 61.1297
L488.655 61.1297
L488.655 28.1397
L341.249 28.1397
z
" style="fill:#ffffff;stroke:#000000;stroke-linejoin:miter;"/>
    </g>
    <g id="line2d_35">
     <path d="
M348.246 36.2349
L362.24 36.2349" style="fill:none;stroke:#348abd;stroke-linecap:square;stroke-width:2.0;"/>
    </g>
    <g id="line2d_36"/>
    <g id="text_20">
     <!-- 带通IIR滤波器的频率响应 -->
     <defs>
      <path d="
M92.5781 69.5312
L92.5781 62.1094
L21.4844 62.1094
L21.4844 33.2031
Q21.4844 8.59375 10.9375 -9.375
L3.51562 -5.07812
Q8.98438 6.25 11.3281 15.0312
Q13.6719 23.8281 13.6719 35.9375
L13.6719 69.5312
L50.7812 69.5312
Q49.2188 74.2188 46.4844 78.5156
L54.2969 81.25
Q57.8125 75.7812 59.375 69.5312
z

M56.25 53.5156
Q63.2812 37.5 65.625 21.4844
L57.0312 19.1406
Q55.0781 36.7188 48.4375 51.5625
z

M24.6094 2.73438
L65.2344 2.73438
Q74.6094 25 81.25 51.9531
L89.4531 49.2188
Q83.2031 23.4375 74.2188 2.73438
L94.9219 2.73438
L94.9219 -4.6875
L24.6094 -4.6875
z

M36.3281 46.0938
Q44.1406 31.6406 48.0469 13.6719
L40.2344 10.9375
Q36.3281 28.9062 28.5156 43.75
z
" id="WenQuanYiMicroHei-5e94"/>
      <path d="
M22.6562 80.8594
L30.4688 80.8594
L30.4688 71.4844
L46.0938 71.4844
L46.0938 81.25
L53.9062 81.25
L53.9062 71.4844
L69.1406 71.4844
L69.1406 81.25
L76.9531 81.25
L76.9531 71.4844
L92.5781 71.4844
L92.5781 64.0625
L76.9531 64.0625
L76.9531 51.9531
L69.1406 51.9531
L69.1406 64.0625
L53.9062 64.0625
L53.9062 52.3438
L46.0938 52.3438
L46.0938 64.0625
L30.4688 64.0625
L30.4688 51.9531
L22.6562 51.9531
L22.6562 64.0625
L7.42188 64.0625
L7.42188 71.4844
L22.6562 71.4844
z

M92.5781 48.8281
L92.5781 30.8594
L84.7656 30.8594
L84.7656 41.7969
L14.8438 41.7969
L14.8438 30.4688
L7.03125 30.4688
L7.03125 48.8281
z

M81.25 29.2969
L81.25 7.42188
Q81.25 2.73438 78.9062 0.390625
Q76.5625 -1.95312 71.4844 -1.95312
Q67.1875 -1.95312 61.3281 -1.17188
L59.375 6.25
Q67.1875 5.46875 71.0938 5.46875
Q74.2188 5.46875 74.2188 9.375
L74.2188 22.2656
L53.5156 22.2656
L53.5156 -9.76562
L45.7031 -9.76562
L45.7031 22.2656
L25 22.2656
L25 -2.34375
L17.1875 -2.34375
L17.1875 29.2969
L45.7031 29.2969
L45.7031 38.6719
L53.5156 38.6719
L53.5156 29.2969
z
" id="WenQuanYiMicroHei-5e26"/>
      <path d="
M11.7188 78.5156
Q19.5312 73.4375 25.7812 66.4062
L20.3125 59.7656
Q13.6719 67.5781 6.25 72.6562
z

M5.07812 46.0938
L24.6094 46.0938
L24.6094 8.59375
Q29.2969 5.07812 36.5156 3.51562
Q43.75 1.95312 67.9688 1.95312
L95.3125 1.95312
L91.4062 -6.64062
L60.1562 -6.64062
Q42.9688 -6.64062 35.1562 -4.29688
Q27.3438 -1.95312 21.4844 3.125
L10.1562 -8.20312
L4.6875 0
Q10.9375 3.51562 16.7969 7.42188
L16.7969 38.6719
L5.07812 38.6719
z

M35.1562 78.5156
L89.8438 78.5156
L89.8438 73.0469
Q80.0781 65.625 68.75 60.5469
L70.3125 58.9844
L91.0156 58.9844
L91.0156 14.8438
Q91.0156 10.9375 88.4688 8.78125
Q85.9375 6.64062 81.25 6.64062
Q77.3438 6.64062 71.875 7.42188
L70.3125 14.0625
Q77.3438 13.2812 80.8594 13.2812
Q83.2031 13.2812 83.2031 16.4062
L83.2031 24.2188
L66.4062 24.2188
L66.4062 8.59375
L58.5938 8.59375
L58.5938 24.2188
L42.5781 24.2188
L42.5781 7.42188
L35.1562 7.42188
L35.1562 58.9844
L59.7656 58.9844
Q54.6875 62.5 48.0469 65.625
L54.2969 70.3125
Q58.9844 67.5781 62.8906 64.8438
Q70.7031 67.9688 76.5625 71.875
L35.1562 71.875
z

M42.5781 44.9219
L58.5938 44.9219
L58.5938 51.9531
L42.5781 51.9531
z

M66.4062 44.9219
L83.2031 44.9219
L83.2031 51.9531
L66.4062 51.9531
z

M42.5781 30.4688
L58.5938 30.4688
L58.5938 38.6719
L42.5781 38.6719
z

M66.4062 30.4688
L83.2031 30.4688
L83.2031 38.6719
L66.4062 38.6719
z
" id="WenQuanYiMicroHei-901a"/>
      <path d="
M29.8906 0
L4 0
L4 4.98438
L12.4062 6.98438
L12.4062 64.4062
L4 66.4062
L4 71.3906
L29.8906 71.3906
L29.8906 66.4062
L21.4844 64.4062
L21.4844 6.98438
L29.8906 4.98438
z
" id="WenQuanYiMicroHei-49"/>
      <path d="
M92.5781 67.1875
L92.5781 1.5625
Q92.5781 -3.125 89.6406 -5.65625
Q86.7188 -8.20312 81.25 -8.20312
Q76.9531 -8.20312 71.875 -7.42188
L69.9219 0.390625
Q76.9531 -0.390625 80.8594 -0.390625
Q85.5469 -0.390625 85.5469 3.51562
L85.5469 59.7656
L48.0469 59.7656
L48.0469 -9.375
L41.0156 -9.375
L41.0156 67.1875
L54.2969 67.1875
Q57.8125 73.4375 59.7656 82.0312
L67.9688 80.0781
Q66.0156 72.2656 63.2812 67.1875
z

M55.4688 51.1719
L78.5156 51.1719
L78.5156 8.59375
L55.4688 8.59375
z

M62.5 14.8438
L71.0938 14.8438
L71.0938 44.9219
L62.5 44.9219
z

M35.9375 72.2656
L35.9375 10.5469
L28.5156 10.5469
L28.5156 16.7969
L15.2344 16.7969
L15.2344 7.03125
L7.8125 7.03125
L7.8125 72.2656
z

M15.2344 24.2188
L28.5156 24.2188
L28.5156 64.8438
L15.2344 64.8438
z
" id="WenQuanYiMicroHei-54cd"/>
      <path d="
M18.7969 29.5
L18.7969 0
L9.71875 0
L9.71875 71.3906
L27.0938 71.3906
Q40.0938 71.3906 46.2812 66.3594
Q52.4844 61.3281 52.4844 51.125
Q52.4844 46.875 51.2812 43.7031
Q50.0938 40.5312 48.1094 38.25
Q46.1406 35.9844 43.5938 34.4688
Q41.0625 32.9531 38.375 31.9844
L57.8125 0
L47.125 0
L29.9844 29.5
z

M18.7969 37.2031
L26.8125 37.2031
Q31.2031 37.2031 34.2812 38.0625
Q37.3594 38.9219 39.3281 40.5938
Q41.3125 42.2812 42.2031 44.7969
Q43.1094 47.3125 43.1094 50.6875
Q43.1094 54.2031 42.1094 56.6406
Q41.1094 59.0781 39.0781 60.6406
Q37.0625 62.2031 33.9531 62.9062
Q30.8594 63.625 26.6094 63.625
L18.7969 63.625
z
" id="WenQuanYiMicroHei-52"/>
     </defs>
     <g transform="translate(373.23576 39.733548125)scale(0.09996 -0.09996)">
      <use xlink:href="#WenQuanYiMicroHei-5e26"/>
      <use x="100.0" xlink:href="#WenQuanYiMicroHei-901a"/>
      <use x="200.0" xlink:href="#WenQuanYiMicroHei-49"/>
      <use x="233.88671875" xlink:href="#WenQuanYiMicroHei-49"/>
      <use x="267.7734375" xlink:href="#WenQuanYiMicroHei-52"/>
      <use x="326.7578125" xlink:href="#WenQuanYiMicroHei-6ee4"/>
      <use x="426.7578125" xlink:href="#WenQuanYiMicroHei-6ce2"/>
      <use x="526.7578125" xlink:href="#WenQuanYiMicroHei-5668"/>
      <use x="626.7578125" xlink:href="#WenQuanYiMicroHei-7684"/>
      <use x="726.7578125" xlink:href="#WenQuanYiMicroHei-9891"/>
      <use x="826.7578125" xlink:href="#WenQuanYiMicroHei-7387"/>
      <use x="926.7578125" xlink:href="#WenQuanYiMicroHei-54cd"/>
      <use x="1026.7578125" xlink:href="#WenQuanYiMicroHei-5e94"/>
     </g>
    </g>
    <g id="line2d_37">
     <path d="
M348.246 51.2305
L362.24 51.2305" style="fill:none;opacity:0.6;stroke:#a60628;stroke-linecap:square;stroke-width:2.0;"/>
    </g>
    <g id="line2d_38"/>
    <g id="text_21">
     <!-- 频率扫描波测量的频谱 -->
     <g transform="translate(373.23576 54.72911)scale(0.09996 -0.09996)">
      <use xlink:href="#WenQuanYiMicroHei-9891"/>
      <use x="100.0" xlink:href="#WenQuanYiMicroHei-7387"/>
      <use x="200.0" xlink:href="#WenQuanYiMicroHei-626b"/>
      <use x="300.0" xlink:href="#WenQuanYiMicroHei-63cf"/>
      <use x="400.0" xlink:href="#WenQuanYiMicroHei-6ce2"/>
      <use x="500.0" xlink:href="#WenQuanYiMicroHei-6d4b"/>
      <use x="600.0" xlink:href="#WenQuanYiMicroHei-91cf"/>
      <use x="700.0" xlink:href="#WenQuanYiMicroHei-7684"/>
      <use x="800.0" xlink:href="#WenQuanYiMicroHei-9891"/>
      <use x="900.0" xlink:href="#WenQuanYiMicroHei-8c31"/>
     </g>
    </g>
   </g>
  </g>
 </g>
 <defs>
  <clipPath id="p8c1c981107">
   <rect height="144.0" width="446.4" x="47.25319875" y="23.14175"/>
  </clipPath>
 </defs>
</svg>
