<?xml version="1.0" encoding="utf-8" standalone="no"?>
<!DOCTYPE svg PUBLIC "-//W3C//DTD SVG 1.1//EN"
  "http://www.w3.org/Graphics/SVG/1.1/DTD/svg11.dtd">
<!-- Created with matplotlib (http://matplotlib.org/) -->
<svg height="217pt" version="1.1" viewBox="0 0 595 217" width="595pt" xmlns="http://www.w3.org/2000/svg" xmlns:xlink="http://www.w3.org/1999/xlink">
 <defs>
  <style type="text/css">
*{stroke-linecap:butt;stroke-linejoin:round;}
  </style>
 </defs>
 <g id="figure_1">
  <g id="patch_1">
   <path d="
M0 217.139
L595.791 217.139
L595.791 2.84217e-14
L0 2.84217e-14
z
" style="fill:#ffffff;"/>
  </g>
  <g id="axes_1">
   <g id="patch_2">
    <path d="
M24.2135 195.942
L277.85 195.942
L277.85 23.1418
L24.2135 23.1418
z
" style="fill:#ffffff;"/>
   </g>
   <g id="line2d_1">
    <path clip-path="url(#p82c64a5809)" d="
M24.2135 195.942
L25.4817 195.591
L26.7499 194.578
L28.0181 192.958
L29.2863 190.786
L30.5545 188.117
L31.8226 185.001
L33.0908 181.49
L35.6272 173.474
L38.1635 164.431
L41.9681 149.658
L50.8454 114.146
L54.6499 100.084
L57.1863 91.4316
L59.7226 83.4548
L62.259 76.2072
L64.7954 69.72
L67.3317 64.0045
L69.8681 59.0549
L72.4045 54.8506
L74.9408 51.3596
L77.4772 48.54
L80.0135 46.343
L82.5499 44.7147
L85.0863 43.5979
L87.6226 42.9338
L90.159 42.6634
L92.6954 42.7288
L95.2317 43.0742
L97.7681 43.6466
L101.573 44.8238
L106.645 46.7608
L118.059 51.3558
L123.132 53.0915
L126.936 54.1814
L130.741 55.0716
L134.545 55.7593
L138.35 56.2516
L142.154 56.5632
L147.227 56.7318
L152.3 56.6684
L158.641 56.3504
L167.518 55.6466
L187.809 53.9421
L197.954 53.3484
L208.1 52.9669
L220.782 52.7197
L241.073 52.5892
L276.582 52.4333
L276.582 52.4333" style="fill:none;stroke:#348abd;stroke-linecap:square;stroke-width:2.0;"/>
   </g>
   <g id="line2d_2">
    <path clip-path="url(#p82c64a5809)" d="
M24.2135 195.942
L25.4817 159.195
L26.7499 132.817
L28.0181 113.837
L29.2863 100.135
L30.5545 90.202
L31.8226 82.9608
L33.0908 77.6437
L34.359 73.7034
L35.6272 70.7494
L36.8954 68.5035
L38.1635 66.767
L39.4317 65.3983
L40.6999 64.2963
L41.9681 63.3887
L44.5045 61.9653
L47.0408 60.8677
L50.8454 59.5575
L54.6499 58.4801
L59.7226 57.2686
L66.0635 56.0165
L72.4045 54.9969
L80.0135 54.0256
L87.6226 53.2803
L96.4999 52.6388
L106.645 52.1378
L119.327 51.7625
L134.545 51.5538
L156.104 51.5045
L203.027 51.6951
L272.777 51.8943
L276.582 51.8993
L276.582 51.8993" style="fill:none;stroke:#a60628;stroke-linecap:square;stroke-width:2.0;"/>
   </g>
   <g id="line2d_3">
    <path clip-path="url(#p82c64a5809)" d="
M24.2135 195.942
L25.4817 194.989
L26.7499 192.559
L28.0181 189.153
L29.2863 185.125
L31.8226 176.121
L36.8954 157.634
L39.4317 148.991
L41.9681 140.932
L44.5045 133.481
L47.0408 126.62
L49.5772 120.318
L52.1135 114.536
L54.6499 109.233
L57.1863 104.372
L59.7226 99.9166
L62.259 95.8321
L64.7954 92.0876
L67.3317 88.6548
L69.8681 85.5074
L72.4045 82.6216
L74.9408 79.9755
L77.4772 77.5491
L81.2817 74.2821
L85.0863 71.4134
L88.8908 68.8949
L92.6954 66.6842
L96.4999 64.7442
L100.304 63.0424
L104.109 61.5503
L109.182 59.8438
L114.254 58.4144
L119.327 57.2189
L125.668 55.9982
L132.009 55.0272
L139.618 54.1247
L147.227 53.4469
L156.104 52.8723
L167.518 52.382
L181.468 52.0371
L199.223 51.8378
L227.123 51.7771
L276.582 51.8562
L276.582 51.8562" style="fill:none;stroke:#7a68a6;stroke-linecap:square;stroke-width:2.0;"/>
   </g>
   <g id="patch_3">
    <path d="
M24.2135 23.1418
L277.85 23.1418" style="fill:none;stroke:#000000;stroke-linecap:square;stroke-linejoin:miter;"/>
   </g>
   <g id="patch_4">
    <path d="
M277.85 195.942
L277.85 23.1418" style="fill:none;stroke:#000000;stroke-linecap:square;stroke-linejoin:miter;"/>
   </g>
   <g id="patch_5">
    <path d="
M24.2135 195.942
L277.85 195.942" style="fill:none;stroke:#000000;stroke-linecap:square;stroke-linejoin:miter;"/>
   </g>
   <g id="patch_6">
    <path d="
M24.2135 195.942
L24.2135 23.1418" style="fill:none;stroke:#000000;stroke-linecap:square;stroke-linejoin:miter;"/>
   </g>
   <g id="matplotlib.axis_1">
    <g id="xtick_1">
     <g id="line2d_4">
      <defs>
       <path d="
M0 0
L0 -4" id="m93b0483c22" style="stroke:#000000;stroke-width:0.5;"/>
      </defs>
      <g>
       <use style="stroke:#000000;stroke-width:0.5;" x="24.2135425" xlink:href="#m93b0483c22" y="195.94175"/>
      </g>
     </g>
     <g id="line2d_5">
      <defs>
       <path d="
M0 0
L0 4" id="m741efc42ff" style="stroke:#000000;stroke-width:0.5;"/>
      </defs>
      <g>
       <use style="stroke:#000000;stroke-width:0.5;" x="24.2135425" xlink:href="#m741efc42ff" y="23.14175"/>
      </g>
     </g>
     <g id="text_1">
      <!-- 0.0 -->
      <defs>
       <path d="
M50.3906 35.7969
Q50.3906 27.1562 49.1406 20.3125
Q47.9062 13.4844 45.1406 8.73438
Q42.3906 4 38.0312 1.5
Q33.6875 -0.984375 27.4844 -0.984375
Q21.7344 -0.984375 17.4531 1.5
Q13.1875 4 10.375 8.73438
Q7.5625 13.4844 6.17188 20.3125
Q4.78125 27.1562 4.78125 35.7969
Q4.78125 44.4375 6.03125 51.2656
Q7.28125 58.1094 9.98438 62.8125
Q12.7031 67.5312 17.0156 70.0156
Q21.3438 72.5156 27.4844 72.5156
Q33.2969 72.5156 37.5938 70.0469
Q41.8906 67.5781 44.7188 62.8594
Q47.5625 58.1562 48.9688 51.3125
Q50.3906 44.4844 50.3906 35.7969
M13.8125 35.7969
Q13.8125 28.4688 14.5469 23
Q15.2812 17.5312 16.8906 13.8906
Q18.5 10.25 21.1094 8.42188
Q23.7344 6.59375 27.4844 6.59375
Q31.25 6.59375 33.8906 8.39062
Q36.5312 10.2031 38.2031 13.8125
Q39.8906 17.4375 40.6406 22.9219
Q41.4062 28.4219 41.4062 35.7969
Q41.4062 43.1094 40.6406 48.5781
Q39.8906 54.0469 38.2031 57.6562
Q36.5312 61.2812 33.8906 63.0781
Q31.25 64.8906 27.4844 64.8906
Q23.7344 64.8906 21.1094 63.0781
Q18.5 61.2812 16.8906 57.6562
Q15.2812 54.0469 14.5469 48.5781
Q13.8125 43.1094 13.8125 35.7969" id="WenQuanYiMicroHei-30"/>
       <path d="
M7.17188 5.42188
Q7.17188 7.28125 7.65625 8.5625
Q8.15625 9.85938 8.98438 10.6562
Q9.8125 11.4688 10.9375 11.8281
Q12.0625 12.2031 13.375 12.2031
Q14.6562 12.2031 15.7969 11.8281
Q16.9375 11.4688 17.7656 10.6562
Q18.6094 9.85938 19.0938 8.5625
Q19.5781 7.28125 19.5781 5.42188
Q19.5781 3.60938 19.0938 2.3125
Q18.6094 1.03125 17.7656 0.1875
Q16.9375 -0.640625 15.7969 -1.03125
Q14.6562 -1.42188 13.375 -1.42188
Q12.0625 -1.42188 10.9375 -1.03125
Q9.8125 -0.640625 8.98438 0.1875
Q8.15625 1.03125 7.65625 2.3125
Q7.17188 3.60938 7.17188 5.42188" id="WenQuanYiMicroHei-2e"/>
      </defs>
      <g transform="translate(17.8410925 207.537148125)scale(0.09996 -0.09996)">
       <use xlink:href="#WenQuanYiMicroHei-30"/>
       <use x="55.078125" xlink:href="#WenQuanYiMicroHei-2e"/>
       <use x="81.884765625" xlink:href="#WenQuanYiMicroHei-30"/>
      </g>
     </g>
    </g>
    <g id="xtick_2">
     <g id="line2d_6">
      <g>
       <use style="stroke:#000000;stroke-width:0.5;" x="87.6226334091" xlink:href="#m93b0483c22" y="195.94175"/>
      </g>
     </g>
     <g id="line2d_7">
      <g>
       <use style="stroke:#000000;stroke-width:0.5;" x="87.6226334091" xlink:href="#m741efc42ff" y="23.14175"/>
      </g>
     </g>
     <g id="text_2">
      <!-- 0.5 -->
      <defs>
       <path d="
M26.6094 43.7969
Q31.4531 43.7969 35.625 42.4531
Q39.7969 41.1094 42.8906 38.4688
Q46 35.8438 47.75 31.9375
Q49.5156 28.0312 49.5156 22.9062
Q49.5156 17.3281 47.8438 12.8906
Q46.1875 8.45312 42.9219 5.375
Q39.6562 2.29688 34.8438 0.65625
Q30.0312 -0.984375 23.7812 -0.984375
Q21.2969 -0.984375 18.875 -0.734375
Q16.4531 -0.484375 14.2344 -0.015625
Q12.0156 0.4375 10.0156 1.17188
Q8.01562 1.90625 6.39062 2.875
L6.39062 11.2812
Q8.01562 10.1562 10.1875 9.28125
Q12.3594 8.40625 14.75 7.8125
Q17.1406 7.23438 19.5469 6.90625
Q21.9688 6.59375 24.0312 6.59375
Q27.875 6.59375 30.9062 7.5
Q33.9375 8.40625 36.0312 10.2969
Q38.1406 12.2031 39.25 15.0781
Q40.375 17.9688 40.375 21.9219
Q40.375 28.9062 36.0781 32.5938
Q31.7812 36.2812 23.5781 36.2812
Q22.2656 36.2812 20.7188 36.1562
Q19.1875 36.0312 17.6406 35.8281
Q16.1094 35.6406 14.7188 35.4219
Q13.3281 35.2031 12.3125 35.0156
L7.90625 37.7969
L10.5938 71.3906
L44.2812 71.3906
L44.2812 63.2812
L18.3125 63.2812
L16.4062 42.8281
Q17.9688 43.1094 20.5312 43.4531
Q23.0938 43.7969 26.6094 43.7969" id="WenQuanYiMicroHei-35"/>
      </defs>
      <g transform="translate(81.2939159091 207.537148125)scale(0.09996 -0.09996)">
       <use xlink:href="#WenQuanYiMicroHei-30"/>
       <use x="55.078125" xlink:href="#WenQuanYiMicroHei-2e"/>
       <use x="81.884765625" xlink:href="#WenQuanYiMicroHei-35"/>
      </g>
     </g>
    </g>
    <g id="xtick_3">
     <g id="line2d_8">
      <g>
       <use style="stroke:#000000;stroke-width:0.5;" x="151.031724318" xlink:href="#m93b0483c22" y="195.94175"/>
      </g>
     </g>
     <g id="line2d_9">
      <g>
       <use style="stroke:#000000;stroke-width:0.5;" x="151.031724318" xlink:href="#m741efc42ff" y="23.14175"/>
      </g>
     </g>
     <g id="text_3">
      <!-- 1.0 -->
      <defs>
       <path d="
M34.7188 0
L26.125 0
L26.125 44.5781
Q26.125 46.6875 26.1406 49.0781
Q26.1719 51.4688 26.2344 53.8281
Q26.3125 56.2031 26.3906 58.375
Q26.4688 60.5469 26.5156 62.2031
Q25.6875 61.3281 25.0469 60.6875
Q24.4219 60.0625 23.75 59.4688
Q23.0938 58.8906 22.3594 58.2188
Q21.625 57.5625 20.6094 56.6875
L13.375 50.7812
L8.6875 56.7812
L27.3906 71.3906
L34.7188 71.3906
z
" id="WenQuanYiMicroHei-31"/>
      </defs>
      <g transform="translate(144.854508693 207.537148125)scale(0.09996 -0.09996)">
       <use xlink:href="#WenQuanYiMicroHei-31"/>
       <use x="55.078125" xlink:href="#WenQuanYiMicroHei-2e"/>
       <use x="81.884765625" xlink:href="#WenQuanYiMicroHei-30"/>
      </g>
     </g>
    </g>
    <g id="xtick_4">
     <g id="line2d_10">
      <g>
       <use style="stroke:#000000;stroke-width:0.5;" x="214.440815227" xlink:href="#m93b0483c22" y="195.94175"/>
      </g>
     </g>
     <g id="line2d_11">
      <g>
       <use style="stroke:#000000;stroke-width:0.5;" x="214.440815227" xlink:href="#m741efc42ff" y="23.14175"/>
      </g>
     </g>
     <g id="text_4">
      <!-- 1.5 -->
      <g transform="translate(208.307332102 207.537148125)scale(0.09996 -0.09996)">
       <use xlink:href="#WenQuanYiMicroHei-31"/>
       <use x="55.078125" xlink:href="#WenQuanYiMicroHei-2e"/>
       <use x="81.884765625" xlink:href="#WenQuanYiMicroHei-35"/>
      </g>
     </g>
    </g>
    <g id="xtick_5">
     <g id="line2d_12">
      <g>
       <use style="stroke:#000000;stroke-width:0.5;" x="277.849906136" xlink:href="#m93b0483c22" y="195.94175"/>
      </g>
     </g>
     <g id="line2d_13">
      <g>
       <use style="stroke:#000000;stroke-width:0.5;" x="277.849906136" xlink:href="#m741efc42ff" y="23.14175"/>
      </g>
     </g>
     <g id="text_5">
      <!-- 2.0 -->
      <defs>
       <path d="
M49.2188 0
L4.6875 0
L4.6875 7.625
L21.7812 26.2188
Q25.4375 30.1719 28.3125 33.4375
Q31.2031 36.7188 33.2188 39.8438
Q35.25 42.9688 36.3281 46.1094
Q37.4062 49.2656 37.4062 52.9844
Q37.4062 55.8594 36.5781 58.0469
Q35.75 60.25 34.2031 61.7812
Q32.6719 63.3281 30.5625 64.1094
Q28.4688 64.8906 25.875 64.8906
Q21.2344 64.8906 17.5 63.0156
Q13.7656 61.1406 10.4062 58.2031
L5.42188 64.0156
Q7.375 65.7656 9.60938 67.2969
Q11.8594 68.8438 14.4531 69.9688
Q17.0469 71.0938 19.9219 71.75
Q22.7969 72.4062 25.9844 72.4062
Q30.6719 72.4062 34.4531 71.0938
Q38.2344 69.7812 40.8594 67.3125
Q43.5 64.8438 44.9375 61.2969
Q46.3906 57.7656 46.3906 53.3281
Q46.3906 49.1719 45.0938 45.4062
Q43.7969 41.6562 41.5312 38.0156
Q39.2656 34.375 36.1094 30.7031
Q32.9531 27.0469 29.2969 23.0938
L15.5781 8.5
L15.5781 8.10938
L49.2188 8.10938
z
" id="WenQuanYiMicroHei-32"/>
      </defs>
      <g transform="translate(271.472770511 207.537148125)scale(0.09996 -0.09996)">
       <use xlink:href="#WenQuanYiMicroHei-32"/>
       <use x="55.078125" xlink:href="#WenQuanYiMicroHei-2e"/>
       <use x="81.884765625" xlink:href="#WenQuanYiMicroHei-30"/>
      </g>
     </g>
    </g>
   </g>
   <g id="matplotlib.axis_2">
    <g id="ytick_1">
     <g id="line2d_14">
      <defs>
       <path d="
M0 0
L4 0" id="m728421d6d4" style="stroke:#000000;stroke-width:0.5;"/>
      </defs>
      <g>
       <use style="stroke:#000000;stroke-width:0.5;" x="24.2135425" xlink:href="#m728421d6d4" y="195.94175"/>
      </g>
     </g>
     <g id="line2d_15">
      <defs>
       <path d="
M0 0
L-4 0" id="mcb0005524f" style="stroke:#000000;stroke-width:0.5;"/>
      </defs>
      <g>
       <use style="stroke:#000000;stroke-width:0.5;" x="277.849906136" xlink:href="#mcb0005524f" y="195.94175"/>
      </g>
     </g>
     <g id="text_6">
      <!-- 0.0 -->
      <g transform="translate(7.4686425 198.538367188)scale(0.09996 -0.09996)">
       <use xlink:href="#WenQuanYiMicroHei-30"/>
       <use x="55.078125" xlink:href="#WenQuanYiMicroHei-2e"/>
       <use x="81.884765625" xlink:href="#WenQuanYiMicroHei-30"/>
      </g>
     </g>
    </g>
    <g id="ytick_2">
     <g id="line2d_16">
      <g>
       <use style="stroke:#000000;stroke-width:0.5;" x="24.2135425" xlink:href="#m728421d6d4" y="167.14175"/>
      </g>
     </g>
     <g id="line2d_17">
      <g>
       <use style="stroke:#000000;stroke-width:0.5;" x="277.849906136" xlink:href="#mcb0005524f" y="167.14175"/>
      </g>
     </g>
     <g id="text_7">
      <!-- 0.2 -->
      <g transform="translate(7.585783125 169.738367187)scale(0.09996 -0.09996)">
       <use xlink:href="#WenQuanYiMicroHei-30"/>
       <use x="55.078125" xlink:href="#WenQuanYiMicroHei-2e"/>
       <use x="81.884765625" xlink:href="#WenQuanYiMicroHei-32"/>
      </g>
     </g>
    </g>
    <g id="ytick_3">
     <g id="line2d_18">
      <g>
       <use style="stroke:#000000;stroke-width:0.5;" x="24.2135425" xlink:href="#m728421d6d4" y="138.34175"/>
      </g>
     </g>
     <g id="line2d_19">
      <g>
       <use style="stroke:#000000;stroke-width:0.5;" x="277.849906136" xlink:href="#mcb0005524f" y="138.34175"/>
      </g>
     </g>
     <g id="text_8">
      <!-- 0.4 -->
      <defs>
       <path d="
M53.0781 16.0156
L42.6719 16.0156
L42.6719 0
L34.0781 0
L34.0781 16.0156
L1.125 16.0156
L1.125 23.7812
L33.5 71.7812
L42.6719 71.7812
L42.6719 24.125
L53.0781 24.125
z

M34.0781 24.125
L34.0781 41.5
Q34.0781 44.2344 34.1562 47.2344
Q34.2344 50.25 34.3281 53.0938
Q34.4219 55.9531 34.5469 58.4375
Q34.6719 60.9375 34.7188 62.5938
L34.2812 62.5938
Q33.9375 61.625 33.4219 60.4219
Q32.9062 59.2344 32.2969 58.0312
Q31.6875 56.8438 31.0469 55.7188
Q30.4219 54.5938 29.8906 53.8125
L9.8125 24.125
z
" id="WenQuanYiMicroHei-34"/>
      </defs>
      <g transform="translate(7.2 140.938367188)scale(0.09996 -0.09996)">
       <use xlink:href="#WenQuanYiMicroHei-30"/>
       <use x="55.078125" xlink:href="#WenQuanYiMicroHei-2e"/>
       <use x="81.884765625" xlink:href="#WenQuanYiMicroHei-34"/>
      </g>
     </g>
    </g>
    <g id="ytick_4">
     <g id="line2d_20">
      <g>
       <use style="stroke:#000000;stroke-width:0.5;" x="24.2135425" xlink:href="#m728421d6d4" y="109.54175"/>
      </g>
     </g>
     <g id="line2d_21">
      <g>
       <use style="stroke:#000000;stroke-width:0.5;" x="277.849906136" xlink:href="#mcb0005524f" y="109.54175"/>
      </g>
     </g>
     <g id="text_9">
      <!-- 0.6 -->
      <defs>
       <path d="
M5.51562 30.5156
Q5.51562 35.6406 6.03125 40.7188
Q6.54688 45.7969 7.82812 50.4531
Q9.125 55.125 11.375 59.125
Q13.625 63.1406 17.0938 66.0938
Q20.5625 69.0469 25.3906 70.7188
Q30.2188 72.4062 36.7188 72.4062
Q37.6406 72.4062 38.7656 72.3594
Q39.8906 72.3125 41.0312 72.1875
Q42.1875 72.0781 43.2344 71.9062
Q44.2812 71.7344 45.125 71.4844
L45.125 63.9219
Q43.4062 64.5 41.25 64.7969
Q39.1094 65.0938 37.0156 65.0938
Q32.625 65.0938 29.2656 64.0312
Q25.9219 62.9844 23.4844 61.0781
Q21.0469 59.1875 19.4062 56.5469
Q17.7812 53.9062 16.75 50.7031
Q15.7188 47.5156 15.2344 43.8906
Q14.75 40.2812 14.5938 36.375
L15.1875 36.375
Q16.1562 38.1406 17.5469 39.6719
Q18.9531 41.2188 20.7969 42.3125
Q22.6562 43.4062 24.9688 44.0312
Q27.2969 44.6719 30.1719 44.6719
Q34.8125 44.6719 38.5625 43.2344
Q42.3281 41.7969 44.9688 39.0156
Q47.6094 36.2344 49.0469 32.2031
Q50.4844 28.1719 50.4844 23
Q50.4844 17.4375 48.9688 12.9844
Q47.4688 8.54688 44.625 5.4375
Q41.7969 2.34375 37.7969 0.671875
Q33.7969 -0.984375 28.8125 -0.984375
Q23.9219 -0.984375 19.6406 0.921875
Q15.375 2.82812 12.25 6.73438
Q9.125 10.6406 7.3125 16.5469
Q5.51562 22.4688 5.51562 30.5156
M28.7188 6.5
Q31.6406 6.5 34.0469 7.5
Q36.4688 8.5 38.2188 10.5156
Q39.9844 12.5469 40.9375 15.6406
Q41.8906 18.75 41.8906 23
Q41.8906 26.4219 41.0781 29.125
Q40.2812 31.8438 38.6719 33.7344
Q37.0625 35.6406 34.6406 36.6719
Q32.2344 37.7031 29 37.7031
Q25.7344 37.7031 23.0156 36.5469
Q20.3125 35.4062 18.4062 33.5625
Q16.5 31.7344 15.4531 29.3906
Q14.4062 27.0469 14.4062 24.7031
Q14.4062 21.4375 15.3125 18.1875
Q16.2188 14.9375 18 12.3438
Q19.7812 9.76562 22.4531 8.125
Q25.1406 6.5 28.7188 6.5" id="WenQuanYiMicroHei-36"/>
      </defs>
      <g transform="translate(7.45927125 112.138367187)scale(0.09996 -0.09996)">
       <use xlink:href="#WenQuanYiMicroHei-30"/>
       <use x="55.078125" xlink:href="#WenQuanYiMicroHei-2e"/>
       <use x="81.884765625" xlink:href="#WenQuanYiMicroHei-36"/>
      </g>
     </g>
    </g>
    <g id="ytick_5">
     <g id="line2d_22">
      <g>
       <use style="stroke:#000000;stroke-width:0.5;" x="24.2135425" xlink:href="#m728421d6d4" y="80.74175"/>
      </g>
     </g>
     <g id="line2d_23">
      <g>
       <use style="stroke:#000000;stroke-width:0.5;" x="277.849906136" xlink:href="#mcb0005524f" y="80.74175"/>
      </g>
     </g>
     <g id="text_10">
      <!-- 0.8 -->
      <defs>
       <path d="
M27.5938 72.5156
Q31.6875 72.5156 35.3281 71.4375
Q38.9688 70.3594 41.7188 68.2031
Q44.4844 66.0625 46.0938 62.8438
Q47.7031 59.625 47.7031 55.3281
Q47.7031 52.0469 46.7188 49.4062
Q45.75 46.7812 44.0312 44.6562
Q42.3281 42.5312 39.9844 40.8438
Q37.6406 39.1562 34.9062 37.7969
Q37.75 36.2812 40.4531 34.4219
Q43.1719 32.5625 45.2812 30.25
Q47.4062 27.9375 48.7031 25.0469
Q50 22.1719 50 18.6094
Q50 14.1094 48.3594 10.4688
Q46.7344 6.84375 43.7812 4.29688
Q40.8281 1.76562 36.6875 0.390625
Q32.5625 -0.984375 27.5938 -0.984375
Q22.2188 -0.984375 18.0469 0.328125
Q13.875 1.65625 11.0156 4.125
Q8.15625 6.59375 6.65625 10.1562
Q5.17188 13.7188 5.17188 18.2188
Q5.17188 21.875 6.26562 24.7969
Q7.375 27.7344 9.21875 30.0781
Q11.0781 32.4219 13.6094 34.2188
Q16.1562 36.0312 19 37.4062
Q16.6094 38.9219 14.5 40.7031
Q12.4062 42.4844 10.8594 44.6719
Q9.32812 46.875 8.42188 49.5312
Q7.51562 52.2031 7.51562 55.4219
Q7.51562 59.6719 9.15625 62.8594
Q10.7969 66.0625 13.5781 68.2031
Q16.3594 70.3594 20 71.4375
Q23.6406 72.5156 27.5938 72.5156
M13.9219 18.1094
Q13.9219 15.5312 14.7031 13.3594
Q15.4844 11.1875 17.1406 9.64062
Q18.7969 8.10938 21.3281 7.25
Q23.875 6.39062 27.3906 6.39062
Q30.8125 6.39062 33.4219 7.25
Q36.0312 8.10938 37.7812 9.6875
Q39.5469 11.2812 40.4219 13.5156
Q41.3125 15.7656 41.3125 18.5
Q41.3125 21.0469 40.3594 23.0938
Q39.4062 25.1406 37.625 26.8906
Q35.8438 28.6562 33.3438 30.2188
Q30.8594 31.7812 27.7812 33.2969
L26.3125 33.9844
Q20.1719 31.0625 17.0469 27.2656
Q13.9219 23.4844 13.9219 18.1094
M27.4844 65.0938
Q22.3125 65.0938 19.2656 62.5
Q16.2188 59.9062 16.2188 54.9844
Q16.2188 52.2031 17.0625 50.1875
Q17.9219 48.1875 19.4375 46.625
Q20.9531 45.0625 23.0781 43.8125
Q25.2031 42.5781 27.6875 41.4062
Q30.0312 42.4844 32.1094 43.75
Q34.1875 45.0156 35.7188 46.625
Q37.25 48.25 38.125 50.2969
Q39.0156 52.3438 39.0156 54.9844
Q39.0156 59.9062 35.9375 62.5
Q32.8594 65.0938 27.4844 65.0938" id="WenQuanYiMicroHei-38"/>
      </defs>
      <g transform="translate(7.507689375 83.3383671875)scale(0.09996 -0.09996)">
       <use xlink:href="#WenQuanYiMicroHei-30"/>
       <use x="55.078125" xlink:href="#WenQuanYiMicroHei-2e"/>
       <use x="81.884765625" xlink:href="#WenQuanYiMicroHei-38"/>
      </g>
     </g>
    </g>
    <g id="ytick_6">
     <g id="line2d_24">
      <g>
       <use style="stroke:#000000;stroke-width:0.5;" x="24.2135425" xlink:href="#m728421d6d4" y="51.94175"/>
      </g>
     </g>
     <g id="line2d_25">
      <g>
       <use style="stroke:#000000;stroke-width:0.5;" x="277.849906136" xlink:href="#mcb0005524f" y="51.94175"/>
      </g>
     </g>
     <g id="text_11">
      <!-- 1.0 -->
      <g transform="translate(7.85911125 54.5383671875)scale(0.09996 -0.09996)">
       <use xlink:href="#WenQuanYiMicroHei-31"/>
       <use x="55.078125" xlink:href="#WenQuanYiMicroHei-2e"/>
       <use x="81.884765625" xlink:href="#WenQuanYiMicroHei-30"/>
      </g>
     </g>
    </g>
    <g id="ytick_7">
     <g id="line2d_26">
      <g>
       <use style="stroke:#000000;stroke-width:0.5;" x="24.2135425" xlink:href="#m728421d6d4" y="23.14175"/>
      </g>
     </g>
     <g id="line2d_27">
      <g>
       <use style="stroke:#000000;stroke-width:0.5;" x="277.849906136" xlink:href="#mcb0005524f" y="23.14175"/>
      </g>
     </g>
     <g id="text_12">
      <!-- 1.2 -->
      <g transform="translate(7.976251875 25.7383671875)scale(0.09996 -0.09996)">
       <use xlink:href="#WenQuanYiMicroHei-31"/>
       <use x="55.078125" xlink:href="#WenQuanYiMicroHei-2e"/>
       <use x="81.884765625" xlink:href="#WenQuanYiMicroHei-32"/>
      </g>
     </g>
    </g>
   </g>
   <g id="text_13">
    <!-- 目标系统的位移 -->
    <defs>
     <path d="
M33.2031 65.2344
L40.2344 62.5
Q30.4688 41.7969 17.9688 27.7344
Q27.7344 30.0781 35.9375 32.8125
L37.8906 26.5625
Q24.6094 21.4844 8.20312 18.75
L5.85938 25.3906
Q14.4531 33.5938 22.2656 46.0938
Q15.625 44.5312 8.20312 43.75
L6.64062 51.1719
Q15.625 62.1094 21.4844 80.8594
L28.9062 78.5156
Q23.4375 62.1094 15.2344 51.5625
Q21.4844 51.9531 26.5625 52.7344
z

M37.8906 15.2344
L39.4531 8.20312
Q25.3906 3.125 8.20312 -0.78125
L5.07812 7.42188
Q23.4375 10.9375 37.8906 15.2344
M57.8125 62.1094
L42.1875 62.1094
L42.1875 69.1406
L63.6719 69.1406
Q62.1094 74.2188 59.7656 78.5156
L67.5781 80.8594
Q70.3125 75.7812 71.875 69.1406
L93.3594 69.1406
L93.3594 62.1094
L66.4062 62.1094
Q59.375 46.0938 52.3438 39.4531
Q64.8438 40.625 78.9062 43.75
Q75.7812 49.6094 72.2656 55.0781
L78.5156 58.9844
Q87.1094 46.0938 92.5781 31.6406
L85.5469 27.7344
Q83.9844 32.8125 81.6406 37.8906
L75.7812 36.3281
L75.7812 1.95312
Q75.7812 0.390625 76.75 -0.1875
Q77.7344 -0.78125 81.25 -0.78125
Q84.7656 -0.78125 85.5469 0.96875
Q86.3281 2.73438 86.7188 16.4062
L94.9219 14.0625
Q94.5312 1.95312 93.5469 -1.5625
Q92.5781 -5.07812 90.625 -6.4375
Q88.6719 -7.8125 81.25 -7.8125
Q73.0469 -7.8125 70.5 -6.04688
Q67.9688 -4.29688 67.9688 -0.390625
L67.9688 35.1562
Q64.8438 34.375 61.7188 33.9844
Q59.375 3.125 42.9688 -8.98438
L37.8906 -2.34375
Q51.5625 7.42188 54.2969 33.2031
L43.75 32.4219
L41.7969 38.6719
Q51.1719 46.875 57.8125 62.1094" id="WenQuanYiMicroHei-7edf"/>
     <path d="
M58.9844 80.4688
L66.7969 78.9062
Q64.8438 71.4844 61.7188 64.4531
L92.1875 64.4531
Q92.1875 12.8906 88.6719 0.78125
Q85.9375 -8.98438 75.7812 -8.98438
Q70.7031 -8.98438 63.6719 -7.42188
L61.7188 0.78125
Q71.4844 -0.78125 75.7812 -0.78125
Q80.4688 -0.78125 81.6406 4.6875
Q83.9844 15.2344 83.9844 57.0312
L57.8125 57.0312
Q53.125 48.8281 47.6562 43.3594
L41.7969 48.8281
Q53.5156 61.7188 58.9844 80.4688
M62.1094 41.7969
Q67.9688 33.2031 71.875 22.6562
L64.4531 19.1406
Q60.5469 30.0781 54.6875 38.6719
z

M40.2344 67.9688
L40.2344 -2.73438
L33.2031 -2.73438
L33.2031 0.390625
L15.2344 0.390625
L15.2344 -5.46875
L8.20312 -5.46875
L8.20312 67.9688
L16.7969 67.9688
Q18.75 74.2188 19.5312 80.8594
L27.7344 79.2969
Q26.1719 73.0469 24.2188 67.9688
z

M33.2031 37.8906
L33.2031 60.5469
L15.2344 60.5469
L15.2344 37.8906
z

M15.2344 30.4688
L15.2344 7.8125
L33.2031 7.8125
L33.2031 30.4688
z
" id="WenQuanYiMicroHei-7684"/>
     <path d="
M82.4219 76.5625
L82.4219 -8.98438
L74.6094 -8.98438
L74.6094 -0.390625
L24.2188 -0.390625
L24.2188 -8.98438
L16.4062 -8.98438
L16.4062 76.5625
z

M24.2188 53.125
L74.6094 53.125
L74.6094 69.1406
L24.2188 69.1406
z

M24.2188 30.0781
L74.6094 30.0781
L74.6094 46.0938
L24.2188 46.0938
z

M24.2188 7.03125
L74.6094 7.03125
L74.6094 22.6562
L24.2188 22.6562
z
" id="WenQuanYiMicroHei-76ee"/>
     <path d="
M66.0156 65.2344
L73.0469 62.5
Q51.5625 41.4062 28.125 29.6875
Q52.7344 31.6406 72.6562 34.375
Q68.75 38.6719 64.4531 42.9688
L71.4844 47.2656
Q83.5938 35.9375 91.0156 22.6562
L83.5938 18.3594
Q80.8594 23.8281 76.9531 28.9062
L55.0781 25.7812
L55.0781 1.95312
Q55.0781 -4.29688 53.125 -6.64062
Q51.1719 -8.98438 45.7031 -8.98438
Q40.2344 -8.98438 35.5469 -7.8125
L33.9844 0
Q39.0625 -1.17188 44.5312 -1.17188
Q46.4844 -1.17188 46.4844 3.51562
L46.4844 25
Q31.6406 23.4375 15.625 22.2656
L13.6719 28.5156
Q28.125 35.5469 41.4062 44.9219
Q29.2969 42.9688 16.7969 41.7969
L15.2344 48.8281
Q28.5156 57.0312 37.5 69.5312
L14.8438 68.75
L10.5469 75.7812
Q60.1562 77.3438 80.4688 80.0781
L86.3281 73.4375
Q70.3125 71.4844 47.6562 69.9219
Q39.0625 57.4219 27.3438 49.2188
Q41.0156 50.3906 51.1719 52.3438
Q58.5938 58.2031 66.0156 65.2344
M29.6875 19.5312
L34.7656 13.2812
Q23.0469 1.17188 8.98438 -6.25
L5.07812 1.17188
Q17.5781 7.03125 29.6875 19.5312
M69.9219 19.5312
Q82.0312 9.375 89.4531 -1.95312
L82.0312 -6.25
Q75 4.6875 62.8906 14.8438
z
" id="WenQuanYiMicroHei-7cfb"/>
     <path d="
M6.64062 62.8906
L19.1406 62.8906
L19.1406 80.8594
L26.5625 80.8594
L26.5625 62.8906
L38.2812 62.8906
L38.2812 55.4688
L26.5625 55.4688
L26.5625 50.7812
Q33.9844 41.7969 39.4531 33.2031
L34.375 25.7812
Q30.4688 33.9844 26.5625 40.2344
L26.5625 -8.98438
L19.1406 -8.98438
L19.1406 33.5938
Q14.8438 20.7031 8.98438 12.1094
L3.51562 17.5781
Q14.8438 34.375 18.3594 55.4688
L6.64062 55.4688
z

M44.5312 75.7812
L86.7188 75.7812
L86.7188 68.3594
L44.5312 68.3594
z

M38.6719 53.5156
L93.3594 53.5156
L93.3594 46.0938
L69.5312 46.0938
L69.5312 0.78125
Q69.5312 -4.6875 66.9844 -7.03125
Q64.4531 -9.375 55.4688 -9.375
Q52.3438 -9.375 49.6094 -8.20312
L48.0469 0
Q51.9531 -1.5625 55.4688 -1.5625
Q58.5938 -1.5625 59.9531 -0.578125
Q61.3281 0.390625 61.3281 2.34375
L61.3281 46.0938
L38.6719 46.0938
z

M82.0312 36.3281
Q90.2344 21.875 95.3125 5.46875
L87.8906 1.17188
Q83.2031 17.5781 75 32.0312
z

M46.875 35.9375
L53.9062 32.4219
Q47.2656 11.7188 39.4531 0.78125
L33.2031 6.25
Q41.4062 19.5312 46.875 35.9375" id="WenQuanYiMicroHei-6807"/>
     <path d="
M5.07812 54.6875
L20.3125 54.6875
L20.3125 67.5781
Q14.4531 66.0156 8.20312 64.8438
L5.46875 71.875
Q23.0469 75 37.5 81.25
L41.0156 74.6094
L27.7344 69.9219
L27.7344 54.6875
L41.7969 54.6875
L41.7969 47.6562
L27.7344 47.6562
L27.7344 45.7031
Q35.5469 37.5 41.4062 29.2969
L36.3281 22.2656
Q32.0312 29.6875 27.7344 35.5469
L27.7344 -8.98438
L20.3125 -8.98438
L20.3125 30.0781
Q15.625 18.3594 8.20312 8.59375
L2.73438 15.2344
Q13.6719 29.2969 19.1406 47.6562
L5.07812 47.6562
z

M63.2812 80.8594
L71.0938 79.2969
Q69.1406 75.7812 66.4062 72.2656
L90.2344 72.2656
L90.2344 65.2344
Q79.2969 41.4062 40.2344 33.9844
L37.1094 41.7969
Q71.875 46.875 81.6406 65.2344
L59.375 65.2344
Q57.4219 63.2812 55.4688 62.1094
Q58.9844 58.9844 62.5 55.4688
L57.4219 50
Q53.9062 53.9062 49.6094 57.8125
L42.9688 54.2969
L37.8906 59.7656
Q55.0781 68.75 63.2812 80.8594
M67.1875 41.7969
L73.8281 38.2812
Q72.2656 36.3281 70.3125 34.375
L92.5781 34.375
L92.5781 27.3438
Q80.4688 -0.390625 37.5 -9.375
L33.9844 -1.5625
Q74.2188 5.07812 84.375 27.3438
L63.2812 27.3438
Q61.3281 25.3906 58.9844 23.4375
Q62.8906 20.3125 66.7969 16.0156
L61.3281 10.5469
Q57.4219 14.8438 52.7344 18.75
L42.5781 12.5
L38.2812 19.1406
Q54.6875 27.3438 67.1875 41.7969" id="WenQuanYiMicroHei-79fb"/>
     <path d="
M27.7344 80.8594
L35.5469 78.5156
Q31.25 67.1875 25.3906 56.25
L25.3906 -8.98438
L17.5781 -8.98438
L17.5781 43.75
Q12.8906 37.5 7.8125 32.0312
L3.90625 39.8438
Q20.7031 59.375 27.7344 80.8594
M33.9844 64.0625
L58.9844 64.0625
Q56.6406 71.875 53.125 78.5156
L61.3281 81.25
Q65.2344 73.4375 67.5781 64.0625
L92.1875 64.0625
L92.1875 56.6406
L33.9844 56.6406
z

M78.5156 53.125
L87.5 50.3906
Q80.4688 22.6562 73.0469 2.34375
L94.9219 2.34375
L94.9219 -5.07812
L30.8594 -5.07812
L30.8594 2.34375
L64.4531 2.34375
Q72.6562 26.5625 78.5156 53.125
M47.2656 51.1719
Q53.5156 30.4688 55.4688 9.375
L46.875 7.03125
Q44.9219 29.2969 38.6719 48.8281
z
" id="WenQuanYiMicroHei-4f4d"/>
    </defs>
    <g transform="translate(102.347349318 18.14175)scale(0.144 -0.144)">
     <use xlink:href="#WenQuanYiMicroHei-76ee"/>
     <use x="100.0" xlink:href="#WenQuanYiMicroHei-6807"/>
     <use x="200.0" xlink:href="#WenQuanYiMicroHei-7cfb"/>
     <use x="300.0" xlink:href="#WenQuanYiMicroHei-7edf"/>
     <use x="400.0" xlink:href="#WenQuanYiMicroHei-7684"/>
     <use x="500.0" xlink:href="#WenQuanYiMicroHei-4f4d"/>
     <use x="600.0" xlink:href="#WenQuanYiMicroHei-79fb"/>
    </g>
   </g>
   <g id="legend_1">
    <g id="patch_7">
     <path d="
M176.601 190.944
L272.852 190.944
L272.852 142.958
L176.601 142.958
z
" style="fill:#ffffff;stroke:#000000;stroke-linejoin:miter;"/>
    </g>
    <g id="line2d_28">
     <path d="
M183.599 151.053
L197.593 151.053" style="fill:none;stroke:#348abd;stroke-linecap:square;stroke-width:2.0;"/>
    </g>
    <g id="line2d_29"/>
    <g id="text_14">
     <!-- PI控制 -->
     <defs>
      <path d="
M5.46875 64.4531
L17.5781 64.4531
L17.5781 80.8594
L25.3906 80.8594
L25.3906 64.4531
L33.2031 64.4531
L33.2031 57.0312
L25.3906 57.0312
L25.3906 37.8906
L34.375 42.1875
L35.9375 35.1562
Q30.8594 32.0312 25.3906 29.2969
L25.3906 1.95312
Q25.3906 -4.29688 23.4375 -6.64062
Q21.4844 -8.98438 15.625 -8.98438
Q10.9375 -8.98438 7.03125 -7.42188
L5.46875 0.390625
Q9.76562 -1.17188 14.4531 -1.17188
Q16.0156 -1.17188 16.7969 -0.1875
Q17.5781 0.78125 17.5781 3.51562
L17.5781 25.7812
L7.8125 21.875
L4.6875 30.0781
L17.5781 34.7656
L17.5781 57.0312
L5.46875 57.0312
z

M93.75 69.9219
L93.75 51.9531
L85.9375 51.9531
L85.9375 62.8906
L45.7031 62.8906
L45.7031 50.7812
L37.8906 50.7812
L37.8906 69.9219
L61.7188 69.9219
Q60.5469 74.6094 58.5938 78.9062
L66.7969 80.8594
Q69.1406 75.3906 70.3125 69.9219
z

M74.6094 55.4688
Q83.9844 48.8281 91.7969 40.2344
L86.3281 33.5938
Q78.5156 43.3594 69.1406 50
z

M55.4688 54.6875
L62.5 50.7812
Q55.8594 40.2344 43.3594 32.4219
L38.6719 38.6719
Q50 46.0938 55.4688 54.6875
M41.7969 27.7344
L89.4531 27.7344
L89.4531 20.7031
L69.5312 20.7031
L69.5312 1.17188
L94.5312 1.17188
L94.5312 -5.85938
L37.1094 -5.85938
L37.1094 1.17188
L61.7188 1.17188
L61.7188 20.7031
L41.7969 20.7031
z
" id="WenQuanYiMicroHei-63a7"/>
      <path d="
M29.8906 0
L4 0
L4 4.98438
L12.4062 6.98438
L12.4062 64.4062
L4 66.4062
L4 71.3906
L29.8906 71.3906
L29.8906 66.4062
L21.4844 64.4062
L21.4844 6.98438
L29.8906 4.98438
z
" id="WenQuanYiMicroHei-49"/>
      <path d="
M52.4844 50.4844
Q52.4844 46.0469 51.1406 41.9375
Q49.8125 37.8438 46.7344 34.6875
Q43.6562 31.5469 38.5938 29.6562
Q33.5469 27.7812 26.125 27.7812
L18.7969 27.7812
L18.7969 0
L9.71875 0
L9.71875 71.3906
L27.3906 71.3906
Q33.9375 71.3906 38.6719 70
Q43.4062 68.6094 46.4844 65.9375
Q49.5625 63.2812 51.0156 59.375
Q52.4844 55.4688 52.4844 50.4844
M18.7969 35.5
L25.0938 35.5
Q29.6406 35.5 33.0312 36.2812
Q36.4219 37.0625 38.6406 38.7969
Q40.875 40.5312 41.9844 43.2812
Q43.1094 46.0469 43.1094 50
Q43.1094 56.9375 39.1094 60.2812
Q35.1094 63.625 26.6094 63.625
L18.7969 63.625
z
" id="WenQuanYiMicroHei-50"/>
      <path d="
M16.0156 78.9062
L22.6562 76.9531
Q21.875 73.8281 20.7031 70.7031
L28.9062 70.7031
L28.9062 80.8594
L36.7188 80.8594
L36.7188 70.7031
L55.4688 70.7031
L55.4688 63.2812
L36.7188 63.2812
L36.7188 52.7344
L59.375 52.7344
L59.375 45.3125
L36.7188 45.3125
L36.7188 35.1562
L57.0312 35.1562
L57.0312 7.42188
Q57.0312 2.73438 54.4844 0.578125
Q51.9531 -1.5625 47.2656 -1.5625
Q44.5312 -1.5625 40.625 -1.17188
L39.0625 5.85938
Q44.1406 5.46875 46.875 5.46875
Q49.2188 5.46875 49.2188 8.98438
L49.2188 27.7344
L36.7188 27.7344
L36.7188 -8.98438
L28.9062 -8.98438
L28.9062 27.7344
L17.1875 27.7344
L17.1875 -1.17188
L9.375 -1.17188
L9.375 35.1562
L28.9062 35.1562
L28.9062 45.3125
L5.07812 45.3125
L5.07812 52.7344
L9.375 52.7344
L5.07812 56.25
Q12.5 66.0156 16.0156 78.9062
M28.9062 52.7344
L28.9062 63.2812
L17.9688 63.2812
Q15.625 57.4219 12.5 52.7344
z

M83.9844 80.4688
L91.7969 80.4688
L91.7969 1.17188
Q91.7969 -4.6875 89.6406 -6.82812
Q87.5 -8.98438 82.4219 -8.98438
Q75.3906 -8.98438 69.1406 -7.42188
L67.5781 0.390625
Q74.6094 -1.5625 81.25 -1.5625
Q83.9844 -1.5625 83.9844 3.125
z

M66.7969 70.3125
L74.6094 70.3125
L74.6094 13.6719
L66.7969 13.6719
z
" id="WenQuanYiMicroHei-5236"/>
     </defs>
     <g transform="translate(208.588559261 154.5520625)scale(0.09996 -0.09996)">
      <use xlink:href="#WenQuanYiMicroHei-50"/>
      <use x="57.6171875" xlink:href="#WenQuanYiMicroHei-49"/>
      <use x="91.50390625" xlink:href="#WenQuanYiMicroHei-63a7"/>
      <use x="191.50390625" xlink:href="#WenQuanYiMicroHei-5236"/>
     </g>
    </g>
    <g id="line2d_30">
     <path d="
M183.599 166.049
L197.593 166.049" style="fill:none;stroke:#a60628;stroke-linecap:square;stroke-width:2.0;"/>
    </g>
    <g id="line2d_31"/>
    <g id="text_15">
     <!-- PID控制 -->
     <defs>
      <path d="
M62.3125 36.375
Q62.3125 27.3438 59.9688 20.5312
Q57.625 13.7188 53.1719 9.15625
Q48.7344 4.59375 42.2656 2.29688
Q35.7969 0 27.5938 0
L9.71875 0
L9.71875 71.3906
L29.5938 71.3906
Q37.0625 71.3906 43.1094 69.1406
Q49.1719 66.8906 53.4219 62.4688
Q57.6719 58.0625 59.9844 51.5156
Q62.3125 44.9688 62.3125 36.375
M52.6875 36.0781
Q52.6875 43.2188 51.0781 48.4062
Q49.4688 53.6094 46.3906 56.9844
Q43.3125 60.3594 38.8125 61.9844
Q34.3281 63.625 28.6094 63.625
L18.7969 63.625
L18.7969 7.8125
L26.7031 7.8125
Q39.5938 7.8125 46.1406 14.9375
Q52.6875 22.0781 52.6875 36.0781" id="WenQuanYiMicroHei-44"/>
     </defs>
     <g transform="translate(208.588559261 169.547624375)scale(0.09996 -0.09996)">
      <use xlink:href="#WenQuanYiMicroHei-50"/>
      <use x="57.6171875" xlink:href="#WenQuanYiMicroHei-49"/>
      <use x="91.50390625" xlink:href="#WenQuanYiMicroHei-44"/>
      <use x="159.912109375" xlink:href="#WenQuanYiMicroHei-63a7"/>
      <use x="259.912109375" xlink:href="#WenQuanYiMicroHei-5236"/>
     </g>
    </g>
    <g id="line2d_32">
     <path d="
M183.599 181.045
L197.593 181.045" style="fill:none;stroke:#7a68a6;stroke-linecap:square;stroke-width:2.0;"/>
    </g>
    <g id="line2d_33"/>
    <g id="text_16">
     <!-- 低通+PID控制 -->
     <defs>
      <path d="
M23.875 31.5938
L4.98438 31.5938
L4.98438 38.9219
L23.875 38.9219
L23.875 57.9062
L31.2031 57.9062
L31.2031 38.9219
L50.0938 38.9219
L50.0938 31.5938
L31.2031 31.5938
L31.2031 12.7969
L23.875 12.7969
z
" id="WenQuanYiMicroHei-2b"/>
      <path d="
M11.7188 78.5156
Q19.5312 73.4375 25.7812 66.4062
L20.3125 59.7656
Q13.6719 67.5781 6.25 72.6562
z

M5.07812 46.0938
L24.6094 46.0938
L24.6094 8.59375
Q29.2969 5.07812 36.5156 3.51562
Q43.75 1.95312 67.9688 1.95312
L95.3125 1.95312
L91.4062 -6.64062
L60.1562 -6.64062
Q42.9688 -6.64062 35.1562 -4.29688
Q27.3438 -1.95312 21.4844 3.125
L10.1562 -8.20312
L4.6875 0
Q10.9375 3.51562 16.7969 7.42188
L16.7969 38.6719
L5.07812 38.6719
z

M35.1562 78.5156
L89.8438 78.5156
L89.8438 73.0469
Q80.0781 65.625 68.75 60.5469
L70.3125 58.9844
L91.0156 58.9844
L91.0156 14.8438
Q91.0156 10.9375 88.4688 8.78125
Q85.9375 6.64062 81.25 6.64062
Q77.3438 6.64062 71.875 7.42188
L70.3125 14.0625
Q77.3438 13.2812 80.8594 13.2812
Q83.2031 13.2812 83.2031 16.4062
L83.2031 24.2188
L66.4062 24.2188
L66.4062 8.59375
L58.5938 8.59375
L58.5938 24.2188
L42.5781 24.2188
L42.5781 7.42188
L35.1562 7.42188
L35.1562 58.9844
L59.7656 58.9844
Q54.6875 62.5 48.0469 65.625
L54.2969 70.3125
Q58.9844 67.5781 62.8906 64.8438
Q70.7031 67.9688 76.5625 71.875
L35.1562 71.875
z

M42.5781 44.9219
L58.5938 44.9219
L58.5938 51.9531
L42.5781 51.9531
z

M66.4062 44.9219
L83.2031 44.9219
L83.2031 51.9531
L66.4062 51.9531
z

M42.5781 30.4688
L58.5938 30.4688
L58.5938 38.6719
L42.5781 38.6719
z

M66.4062 30.4688
L83.2031 30.4688
L83.2031 38.6719
L66.4062 38.6719
z
" id="WenQuanYiMicroHei-901a"/>
      <path d="
M24.6094 80.8594
L32.4219 78.5156
Q29.2969 69.5312 25.3906 60.5469
L25.3906 -8.98438
L17.5781 -8.98438
L17.5781 45.7031
Q12.8906 38.2812 7.8125 32.0312
L3.90625 39.8438
Q18.3594 59.375 24.6094 80.8594
M44.5312 41.0156
L44.5312 0.390625
L53.5156 3.51562
L55.4688 -3.51562
Q47.6562 -6.25 40.625 -7.8125
L36.7188 -3.51562
L36.7188 75
Q68.3594 76.1719 82.4219 80.8594
L88.6719 74.2188
Q81.25 71.875 70.7031 70.3125
Q71.0938 57.8125 71.875 48.4375
L92.5781 48.4375
L92.5781 41.0156
L72.6562 41.0156
Q74.2188 20.7031 79.2969 7.8125
Q82.8125 -0.390625 85.5469 -0.390625
Q86.7188 -0.390625 87.5 4.09375
Q88.2812 8.59375 88.6719 17.1875
L95.3125 15.625
Q94.1406 -0.390625 91.7969 -4.875
Q89.4531 -9.375 85.5469 -9.375
Q79.2969 -9.375 74.2188 0.390625
Q67.1875 13.6719 64.4531 41.0156
z

M44.5312 67.9688
L44.5312 48.4375
L64.0625 48.4375
Q63.2812 57.8125 62.8906 69.1406
Q54.6875 68.3594 44.5312 67.9688
M63.6719 10.1562
Q67.9688 3.125 70.3125 -5.46875
L63.2812 -7.42188
Q60.9375 0.78125 57.0312 7.8125
z
" id="WenQuanYiMicroHei-4f4e"/>
     </defs>
     <g transform="translate(208.588559261 184.54318625)scale(0.09996 -0.09996)">
      <use xlink:href="#WenQuanYiMicroHei-4f4e"/>
      <use x="100.0" xlink:href="#WenQuanYiMicroHei-901a"/>
      <use x="200.0" xlink:href="#WenQuanYiMicroHei-2b"/>
      <use x="255.078125" xlink:href="#WenQuanYiMicroHei-50"/>
      <use x="312.6953125" xlink:href="#WenQuanYiMicroHei-49"/>
      <use x="346.58203125" xlink:href="#WenQuanYiMicroHei-44"/>
      <use x="414.990234375" xlink:href="#WenQuanYiMicroHei-63a7"/>
      <use x="514.990234375" xlink:href="#WenQuanYiMicroHei-5236"/>
     </g>
    </g>
   </g>
  </g>
  <g id="axes_2">
   <g id="patch_8">
    <path d="
M328.577 195.942
L582.214 195.942
L582.214 23.1418
L328.577 23.1418
z
" style="fill:#ffffff;"/>
   </g>
   <g id="line2d_34">
    <path clip-path="url(#p445fd19570)" d="
M328.577 141.942
L329.845 140.995
L331.114 140.302
L332.382 139.847
L333.65 139.614
L334.918 139.586
L336.186 139.747
L337.454 140.082
L338.723 140.574
L339.991 141.21
L342.527 142.852
L345.064 144.897
L347.6 147.241
L351.404 151.119
L361.55 161.832
L365.354 165.473
L369.159 168.727
L371.695 170.652
L374.232 172.369
L376.768 173.875
L379.304 175.17
L381.841 176.26
L384.377 177.154
L386.914 177.862
L389.45 178.399
L393.254 178.916
L397.059 179.133
L400.864 179.106
L405.936 178.784
L412.277 178.084
L435.104 175.202
L442.714 174.588
L450.323 174.208
L459.2 174.014
L470.614 174.031
L530.218 174.563
L580.945 174.469
L580.945 174.469" style="fill:none;stroke:#348abd;stroke-linecap:square;stroke-width:2.0;"/>
   </g>
   <g id="line2d_35">
    <path clip-path="url(#p445fd19570)" d="
M328.577 33.9418
L329.845 72.9095
L331.114 100.741
L332.382 120.631
L333.65 134.859
L334.918 145.048
L336.186 152.356
L337.454 157.608
L338.723 161.394
L339.991 164.131
L341.259 166.121
L342.527 167.575
L343.795 168.646
L345.064 169.443
L346.332 170.042
L348.868 170.856
L351.404 171.366
L355.209 171.85
L361.55 172.35
L371.695 172.875
L385.645 173.36
L403.4 173.749
L427.495 174.045
L463.004 174.241
L526.414 174.333
L580.945 174.343
L580.945 174.343" style="fill:none;stroke:#ff0000;stroke-linecap:square;stroke-width:2.0;"/>
   </g>
   <g id="patch_9">
    <path d="
M328.577 23.1418
L582.214 23.1418" style="fill:none;stroke:#000000;stroke-linecap:square;stroke-linejoin:miter;"/>
   </g>
   <g id="patch_10">
    <path d="
M582.214 195.942
L582.214 23.1418" style="fill:none;stroke:#000000;stroke-linecap:square;stroke-linejoin:miter;"/>
   </g>
   <g id="patch_11">
    <path d="
M328.577 195.942
L582.214 195.942" style="fill:none;stroke:#000000;stroke-linecap:square;stroke-linejoin:miter;"/>
   </g>
   <g id="patch_12">
    <path d="
M328.577 195.942
L328.577 23.1418" style="fill:none;stroke:#000000;stroke-linecap:square;stroke-linejoin:miter;"/>
   </g>
   <g id="matplotlib.axis_3">
    <g id="xtick_6">
     <g id="line2d_36">
      <g>
       <use style="stroke:#000000;stroke-width:0.5;" x="328.577178864" xlink:href="#m93b0483c22" y="195.94175"/>
      </g>
     </g>
     <g id="line2d_37">
      <g>
       <use style="stroke:#000000;stroke-width:0.5;" x="328.577178864" xlink:href="#m741efc42ff" y="23.14175"/>
      </g>
     </g>
     <g id="text_17">
      <!-- 0.0 -->
      <g transform="translate(322.204728864 207.537148125)scale(0.09996 -0.09996)">
       <use xlink:href="#WenQuanYiMicroHei-30"/>
       <use x="55.078125" xlink:href="#WenQuanYiMicroHei-2e"/>
       <use x="81.884765625" xlink:href="#WenQuanYiMicroHei-30"/>
      </g>
     </g>
    </g>
    <g id="xtick_7">
     <g id="line2d_38">
      <g>
       <use style="stroke:#000000;stroke-width:0.5;" x="391.986269773" xlink:href="#m93b0483c22" y="195.94175"/>
      </g>
     </g>
     <g id="line2d_39">
      <g>
       <use style="stroke:#000000;stroke-width:0.5;" x="391.986269773" xlink:href="#m741efc42ff" y="23.14175"/>
      </g>
     </g>
     <g id="text_18">
      <!-- 0.5 -->
      <g transform="translate(385.657552273 207.537148125)scale(0.09996 -0.09996)">
       <use xlink:href="#WenQuanYiMicroHei-30"/>
       <use x="55.078125" xlink:href="#WenQuanYiMicroHei-2e"/>
       <use x="81.884765625" xlink:href="#WenQuanYiMicroHei-35"/>
      </g>
     </g>
    </g>
    <g id="xtick_8">
     <g id="line2d_40">
      <g>
       <use style="stroke:#000000;stroke-width:0.5;" x="455.395360682" xlink:href="#m93b0483c22" y="195.94175"/>
      </g>
     </g>
     <g id="line2d_41">
      <g>
       <use style="stroke:#000000;stroke-width:0.5;" x="455.395360682" xlink:href="#m741efc42ff" y="23.14175"/>
      </g>
     </g>
     <g id="text_19">
      <!-- 1.0 -->
      <g transform="translate(449.218145057 207.537148125)scale(0.09996 -0.09996)">
       <use xlink:href="#WenQuanYiMicroHei-31"/>
       <use x="55.078125" xlink:href="#WenQuanYiMicroHei-2e"/>
       <use x="81.884765625" xlink:href="#WenQuanYiMicroHei-30"/>
      </g>
     </g>
    </g>
    <g id="xtick_9">
     <g id="line2d_42">
      <g>
       <use style="stroke:#000000;stroke-width:0.5;" x="518.804451591" xlink:href="#m93b0483c22" y="195.94175"/>
      </g>
     </g>
     <g id="line2d_43">
      <g>
       <use style="stroke:#000000;stroke-width:0.5;" x="518.804451591" xlink:href="#m741efc42ff" y="23.14175"/>
      </g>
     </g>
     <g id="text_20">
      <!-- 1.5 -->
      <g transform="translate(512.670968466 207.537148125)scale(0.09996 -0.09996)">
       <use xlink:href="#WenQuanYiMicroHei-31"/>
       <use x="55.078125" xlink:href="#WenQuanYiMicroHei-2e"/>
       <use x="81.884765625" xlink:href="#WenQuanYiMicroHei-35"/>
      </g>
     </g>
    </g>
    <g id="xtick_10">
     <g id="line2d_44">
      <g>
       <use style="stroke:#000000;stroke-width:0.5;" x="582.2135425" xlink:href="#m93b0483c22" y="195.94175"/>
      </g>
     </g>
     <g id="line2d_45">
      <g>
       <use style="stroke:#000000;stroke-width:0.5;" x="582.2135425" xlink:href="#m741efc42ff" y="23.14175"/>
      </g>
     </g>
     <g id="text_21">
      <!-- 2.0 -->
      <g transform="translate(575.836406875 207.537148125)scale(0.09996 -0.09996)">
       <use xlink:href="#WenQuanYiMicroHei-32"/>
       <use x="55.078125" xlink:href="#WenQuanYiMicroHei-2e"/>
       <use x="81.884765625" xlink:href="#WenQuanYiMicroHei-30"/>
      </g>
     </g>
    </g>
   </g>
   <g id="matplotlib.axis_4">
    <g id="ytick_8">
     <g id="line2d_46">
      <g>
       <use style="stroke:#000000;stroke-width:0.5;" x="328.577178864" xlink:href="#m728421d6d4" y="195.94175"/>
      </g>
     </g>
     <g id="line2d_47">
      <g>
       <use style="stroke:#000000;stroke-width:0.5;" x="582.2135425" xlink:href="#mcb0005524f" y="195.94175"/>
      </g>
     </g>
     <g id="text_22">
      <!-- 0 -->
      <g transform="translate(320.018065739 198.538367188)scale(0.09996 -0.09996)">
       <use xlink:href="#WenQuanYiMicroHei-30"/>
      </g>
     </g>
    </g>
    <g id="ytick_9">
     <g id="line2d_48">
      <g>
       <use style="stroke:#000000;stroke-width:0.5;" x="328.577178864" xlink:href="#m728421d6d4" y="174.34175"/>
      </g>
     </g>
     <g id="line2d_49">
      <g>
       <use style="stroke:#000000;stroke-width:0.5;" x="582.2135425" xlink:href="#mcb0005524f" y="174.34175"/>
      </g>
     </g>
     <g id="text_23">
      <!-- 20 -->
      <g transform="translate(314.503085114 176.938367188)scale(0.09996 -0.09996)">
       <use xlink:href="#WenQuanYiMicroHei-32"/>
       <use x="55.078125" xlink:href="#WenQuanYiMicroHei-30"/>
      </g>
     </g>
    </g>
    <g id="ytick_10">
     <g id="line2d_50">
      <g>
       <use style="stroke:#000000;stroke-width:0.5;" x="328.577178864" xlink:href="#m728421d6d4" y="152.74175"/>
      </g>
     </g>
     <g id="line2d_51">
      <g>
       <use style="stroke:#000000;stroke-width:0.5;" x="582.2135425" xlink:href="#mcb0005524f" y="152.74175"/>
      </g>
     </g>
     <g id="text_24">
      <!-- 40 -->
      <g transform="translate(314.146977614 155.338367188)scale(0.09996 -0.09996)">
       <use xlink:href="#WenQuanYiMicroHei-34"/>
       <use x="55.078125" xlink:href="#WenQuanYiMicroHei-30"/>
      </g>
     </g>
    </g>
    <g id="ytick_11">
     <g id="line2d_52">
      <g>
       <use style="stroke:#000000;stroke-width:0.5;" x="328.577178864" xlink:href="#m728421d6d4" y="131.14175"/>
      </g>
     </g>
     <g id="line2d_53">
      <g>
       <use style="stroke:#000000;stroke-width:0.5;" x="582.2135425" xlink:href="#mcb0005524f" y="131.14175"/>
      </g>
     </g>
     <g id="text_25">
      <!-- 60 -->
      <g transform="translate(314.585864489 133.738367187)scale(0.09996 -0.09996)">
       <use xlink:href="#WenQuanYiMicroHei-36"/>
       <use x="55.078125" xlink:href="#WenQuanYiMicroHei-30"/>
      </g>
     </g>
    </g>
    <g id="ytick_12">
     <g id="line2d_54">
      <g>
       <use style="stroke:#000000;stroke-width:0.5;" x="328.577178864" xlink:href="#m728421d6d4" y="109.54175"/>
      </g>
     </g>
     <g id="line2d_55">
      <g>
       <use style="stroke:#000000;stroke-width:0.5;" x="582.2135425" xlink:href="#mcb0005524f" y="109.54175"/>
      </g>
     </g>
     <g id="text_26">
      <!-- 80 -->
      <g transform="translate(314.551503239 112.138367187)scale(0.09996 -0.09996)">
       <use xlink:href="#WenQuanYiMicroHei-38"/>
       <use x="55.078125" xlink:href="#WenQuanYiMicroHei-30"/>
      </g>
     </g>
    </g>
    <g id="ytick_13">
     <g id="line2d_56">
      <g>
       <use style="stroke:#000000;stroke-width:0.5;" x="328.577178864" xlink:href="#m728421d6d4" y="87.94175"/>
      </g>
     </g>
     <g id="line2d_57">
      <g>
       <use style="stroke:#000000;stroke-width:0.5;" x="582.2135425" xlink:href="#mcb0005524f" y="87.94175"/>
      </g>
     </g>
     <g id="text_27">
      <!-- 100 -->
      <g transform="translate(309.397315739 90.5383671875)scale(0.09996 -0.09996)">
       <use xlink:href="#WenQuanYiMicroHei-31"/>
       <use x="55.078125" xlink:href="#WenQuanYiMicroHei-30"/>
       <use x="110.15625" xlink:href="#WenQuanYiMicroHei-30"/>
      </g>
     </g>
    </g>
    <g id="ytick_14">
     <g id="line2d_58">
      <g>
       <use style="stroke:#000000;stroke-width:0.5;" x="328.577178864" xlink:href="#m728421d6d4" y="66.34175"/>
      </g>
     </g>
     <g id="line2d_59">
      <g>
       <use style="stroke:#000000;stroke-width:0.5;" x="582.2135425" xlink:href="#mcb0005524f" y="66.34175"/>
      </g>
     </g>
     <g id="text_28">
      <!-- 120 -->
      <g transform="translate(309.397315739 68.9383671875)scale(0.09996 -0.09996)">
       <use xlink:href="#WenQuanYiMicroHei-31"/>
       <use x="55.078125" xlink:href="#WenQuanYiMicroHei-32"/>
       <use x="110.15625" xlink:href="#WenQuanYiMicroHei-30"/>
      </g>
     </g>
    </g>
    <g id="ytick_15">
     <g id="line2d_60">
      <g>
       <use style="stroke:#000000;stroke-width:0.5;" x="328.577178864" xlink:href="#m728421d6d4" y="44.74175"/>
      </g>
     </g>
     <g id="line2d_61">
      <g>
       <use style="stroke:#000000;stroke-width:0.5;" x="582.2135425" xlink:href="#mcb0005524f" y="44.74175"/>
      </g>
     </g>
     <g id="text_29">
      <!-- 140 -->
      <g transform="translate(309.397315739 47.3383671875)scale(0.09996 -0.09996)">
       <use xlink:href="#WenQuanYiMicroHei-31"/>
       <use x="55.078125" xlink:href="#WenQuanYiMicroHei-34"/>
       <use x="110.15625" xlink:href="#WenQuanYiMicroHei-30"/>
      </g>
     </g>
    </g>
    <g id="ytick_16">
     <g id="line2d_62">
      <g>
       <use style="stroke:#000000;stroke-width:0.5;" x="328.577178864" xlink:href="#m728421d6d4" y="23.14175"/>
      </g>
     </g>
     <g id="line2d_63">
      <g>
       <use style="stroke:#000000;stroke-width:0.5;" x="582.2135425" xlink:href="#mcb0005524f" y="23.14175"/>
      </g>
     </g>
     <g id="text_30">
      <!-- 160 -->
      <g transform="translate(309.397315739 25.7383671875)scale(0.09996 -0.09996)">
       <use xlink:href="#WenQuanYiMicroHei-31"/>
       <use x="55.078125" xlink:href="#WenQuanYiMicroHei-36"/>
       <use x="110.15625" xlink:href="#WenQuanYiMicroHei-30"/>
      </g>
     </g>
    </g>
   </g>
   <g id="text_31">
    <!-- 控制力 -->
    <defs>
     <path d="
M11.3281 63.2812
L38.6719 63.2812
L38.6719 80.4688
L46.4844 80.4688
L46.4844 63.2812
L87.8906 63.2812
Q87.8906 24.6094 86.5156 12.6875
Q85.1562 0.78125 81.8281 -3.3125
Q78.5156 -7.42188 70.3125 -7.42188
Q64.0625 -7.42188 57.8125 -6.64062
L55.8594 1.17188
Q63.2812 0.390625 70.3125 0.390625
Q74.2188 0.390625 75.9688 2.53125
Q77.7344 4.6875 78.7031 17.1875
Q79.6875 29.6875 79.6875 55.8594
L46.4844 55.8594
L46.4844 54.2969
Q46.4844 15.2344 10.5469 -9.375
L6.25 -2.34375
Q38.6719 20.3125 38.6719 54.2969
L38.6719 55.8594
L11.3281 55.8594
z
" id="WenQuanYiMicroHei-529b"/>
    </defs>
    <g transform="translate(435.004735682 18.14175)scale(0.144 -0.144)">
     <use xlink:href="#WenQuanYiMicroHei-63a7"/>
     <use x="100.0" xlink:href="#WenQuanYiMicroHei-5236"/>
     <use x="200.0" xlink:href="#WenQuanYiMicroHei-529b"/>
    </g>
   </g>
   <g id="legend_2">
    <g id="patch_13">
     <path d="
M480.965 61.1297
L577.216 61.1297
L577.216 28.1397
L480.965 28.1397
z
" style="fill:#ffffff;stroke:#000000;stroke-linejoin:miter;"/>
    </g>
    <g id="line2d_64">
     <path d="
M487.962 36.2349
L501.957 36.2349" style="fill:none;stroke:#348abd;stroke-linecap:square;stroke-width:2.0;"/>
    </g>
    <g id="line2d_65"/>
    <g id="text_32">
     <!-- PI控制 -->
     <g transform="translate(512.952195625 39.733548125)scale(0.09996 -0.09996)">
      <use xlink:href="#WenQuanYiMicroHei-50"/>
      <use x="57.6171875" xlink:href="#WenQuanYiMicroHei-49"/>
      <use x="91.50390625" xlink:href="#WenQuanYiMicroHei-63a7"/>
      <use x="191.50390625" xlink:href="#WenQuanYiMicroHei-5236"/>
     </g>
    </g>
    <g id="line2d_66">
     <path d="
M487.962 51.2305
L501.957 51.2305" style="fill:none;stroke:#ff0000;stroke-linecap:square;stroke-width:2.0;"/>
    </g>
    <g id="line2d_67"/>
    <g id="text_33">
     <!-- 低通+PID控制 -->
     <g transform="translate(512.952195625 54.72911)scale(0.09996 -0.09996)">
      <use xlink:href="#WenQuanYiMicroHei-4f4e"/>
      <use x="100.0" xlink:href="#WenQuanYiMicroHei-901a"/>
      <use x="200.0" xlink:href="#WenQuanYiMicroHei-2b"/>
      <use x="255.078125" xlink:href="#WenQuanYiMicroHei-50"/>
      <use x="312.6953125" xlink:href="#WenQuanYiMicroHei-49"/>
      <use x="346.58203125" xlink:href="#WenQuanYiMicroHei-44"/>
      <use x="414.990234375" xlink:href="#WenQuanYiMicroHei-63a7"/>
      <use x="514.990234375" xlink:href="#WenQuanYiMicroHei-5236"/>
     </g>
    </g>
   </g>
  </g>
 </g>
 <defs>
  <clipPath id="p445fd19570">
   <rect height="172.8" width="253.636363636" x="328.577178864" y="23.14175"/>
  </clipPath>
  <clipPath id="p82c64a5809">
   <rect height="172.8" width="253.636363636" x="24.2135425" y="23.14175"/>
  </clipPath>
 </defs>
</svg>
