<?xml version="1.0" encoding="utf-8" standalone="no"?>
<!DOCTYPE svg PUBLIC "-//W3C//DTD SVG 1.1//EN"
  "http://www.w3.org/Graphics/SVG/1.1/DTD/svg11.dtd">
<!-- Created with matplotlib (http://matplotlib.org/) -->
<svg height="221pt" version="1.1" viewBox="0 0 499 221" width="499pt" xmlns="http://www.w3.org/2000/svg" xmlns:xlink="http://www.w3.org/1999/xlink">
 <defs>
  <style type="text/css">
*{stroke-linecap:butt;stroke-linejoin:round;}
  </style>
 </defs>
 <g id="figure_1">
  <g id="patch_1">
   <path d="
M0 221.194
L499.188 221.194
L499.188 0
L0 0
z
" style="fill:#ffffff;"/>
  </g>
  <g id="axes_1">
   <g id="patch_2">
    <path d="
M39.2111 184.999
L485.611 184.999
L485.611 12.1988
L39.2111 12.1988
z
" style="fill:#ffffff;"/>
   </g>
   <g id="line2d_1">
    <path clip-path="url(#pd0b0f375b4)" d="
M39.2111 184.999
L41.4431 184.939
L45.9071 184.496
L50.3711 183.692
L54.8351 182.6
L59.2991 181.286
L65.9951 179.013
L74.9231 175.648
L97.2431 166.996
L106.171 163.807
L115.099 160.884
L124.027 158.254
L132.955 155.923
L141.883 153.885
L150.811 152.124
L159.739 150.618
L168.667 149.342
L177.595 148.27
L188.755 147.18
L199.915 146.324
L213.307 145.547
L228.931 144.907
L246.787 144.433
L269.107 144.093
L298.123 143.895
L347.227 143.82
L483.379 143.851
L483.379 143.851" style="fill:none;stroke:#348abd;stroke-linecap:square;stroke-width:2.0;"/>
   </g>
   <g id="line2d_2">
    <path clip-path="url(#pd0b0f375b4)" d="
M39.2111 184.999
L41.4431 183.807
L43.6751 180.408
L45.9071 175.084
L48.1391 168.129
L50.3711 159.844
L52.6031 150.528
L57.0671 129.962
L63.7631 98.2049
L65.9951 88.2705
L68.2271 78.958
L70.4591 70.4028
L72.6911 62.7116
L74.9231 55.963
L77.1551 50.2083
L79.3871 45.4731
L81.6191 41.7594
L83.8511 39.0476
L86.0831 37.299
L88.3151 36.4585
L90.5471 36.4573
L92.7791 37.2154
L95.0111 38.6448
L97.2431 40.6518
L99.4751 43.1394
L101.707 46.0099
L103.939 49.1669
L108.403 55.9723
L112.867 62.8757
L117.331 69.3128
L119.563 72.2178
L121.795 74.8584
L124.027 77.2045
L126.259 79.2351
L128.491 80.9378
L130.723 82.3082
L132.955 83.3493
L135.187 84.0707
L137.419 84.4878
L139.651 84.6207
L141.883 84.4937
L144.115 84.1343
L146.347 83.572
L148.579 82.838
L153.043 80.9812
L159.739 77.6837
L166.435 74.4177
L170.899 72.5348
L175.363 71.0135
L179.827 69.9087
L184.291 69.2323
L188.755 68.9604
L193.219 69.041
L197.683 69.4039
L204.379 70.3022
L220.003 72.7321
L226.699 73.4714
L233.395 73.9046
L240.091 74.0382
L246.787 73.9273
L255.715 73.5421
L273.571 72.6781
L282.499 72.4457
L293.659 72.3957
L309.283 72.6045
L331.603 72.8969
L351.691 72.8929
L400.795 72.7563
L483.379 72.7872
L483.379 72.7872" style="fill:none;stroke:#a60628;stroke-linecap:square;stroke-width:2.0;"/>
   </g>
   <g id="line2d_3">
    <path clip-path="url(#pd0b0f375b4)" d="
M39.2111 184.999
L41.4431 183.805
L43.6751 180.393
L45.9071 175.034
L48.1391 168.014
L50.3711 159.627
L52.6031 150.17
L57.0671 129.194
L63.7631 96.5318
L65.9951 86.2361
L68.2271 76.5437
L70.4591 67.5979
L72.6911 59.5136
L74.9231 52.3775
L77.1551 46.2491
L79.3871 41.1618
L81.6191 37.1244
L83.8511 34.1236
L86.0831 32.1259
L88.3151 31.0803
L90.5471 30.9209
L92.7791 31.5695
L95.0111 32.9387
L97.2431 34.934
L99.4751 37.4567
L101.707 40.4065
L103.939 43.683
L108.403 50.8299
L115.099 61.7251
L117.331 65.1056
L119.563 68.2616
L121.795 71.1481
L124.027 73.7297
L126.259 75.9803
L128.491 77.8832
L130.723 79.4303
L132.955 80.6214
L135.187 81.4638
L137.419 81.9712
L139.651 82.163
L141.883 82.0632
L144.115 81.6997
L146.347 81.1034
L148.579 80.3068
L150.811 79.344
L155.275 77.056
L168.667 69.5287
L173.131 67.4563
L177.595 65.8112
L179.827 65.166
L182.059 64.6424
L184.291 64.2394
L188.755 63.7798
L193.219 63.7371
L197.683 64.0376
L202.147 64.5936
L208.843 65.7054
L220.003 67.6128
L226.699 68.458
L231.163 68.8283
L235.627 69.035
L242.323 69.0587
L249.019 68.8038
L257.947 68.2013
L273.571 67.0694
L282.499 66.6426
L291.427 66.4356
L302.587 66.4219
L338.299 66.6261
L358.387 66.359
L391.867 65.8808
L469.987 65.2887
L483.379 65.1787
L483.379 65.1787" style="fill:none;stroke:#7a68a6;stroke-linecap:square;stroke-width:2.0;"/>
   </g>
   <g id="line2d_4">
    <path clip-path="url(#pd0b0f375b4)" d="
M39.2111 184.999
L41.4431 184.698
L43.6751 183.83
L45.9071 182.441
L48.1391 180.58
L50.3711 178.292
L52.6031 175.621
L54.8351 172.612
L57.0671 169.305
L59.2991 165.74
L63.7631 157.99
L68.2271 149.643
L77.1551 132.142
L83.8511 119.106
L88.3151 110.761
L92.7791 102.835
L97.2431 95.4187
L101.707 88.5814
L106.171 82.3692
L110.635 76.8087
L115.099 71.9097
L117.331 69.7072
L119.563 67.6672
L121.795 65.787
L124.027 64.0635
L126.259 62.493
L128.491 61.0712
L130.723 59.7933
L132.955 58.6544
L135.187 57.6489
L137.419 56.7713
L141.883 55.3756
L146.347 54.4184
L150.811 53.8491
L155.275 53.6174
L159.739 53.6734
L164.203 53.9695
L168.667 54.4601
L175.363 55.4691
L184.291 57.1294
L206.611 61.4632
L215.539 62.8856
L222.235 63.7636
L228.931 64.4685
L235.627 65.0011
L244.555 65.4587
L253.483 65.6604
L262.411 65.6511
L273.571 65.4178
L289.195 64.8408
L331.603 63.1398
L351.691 62.6334
L374.011 62.3211
L403.027 62.1626
L483.379 61.9915
L483.379 61.9915" style="fill:none;stroke:#467821;stroke-linecap:square;stroke-width:2.0;"/>
   </g>
   <g id="patch_3">
    <path d="
M39.2111 12.1988
L485.611 12.1988" style="fill:none;stroke:#000000;stroke-linecap:square;stroke-linejoin:miter;"/>
   </g>
   <g id="patch_4">
    <path d="
M485.611 184.999
L485.611 12.1988" style="fill:none;stroke:#000000;stroke-linecap:square;stroke-linejoin:miter;"/>
   </g>
   <g id="patch_5">
    <path d="
M39.2111 184.999
L485.611 184.999" style="fill:none;stroke:#000000;stroke-linecap:square;stroke-linejoin:miter;"/>
   </g>
   <g id="patch_6">
    <path d="
M39.2111 184.999
L39.2111 12.1988" style="fill:none;stroke:#000000;stroke-linecap:square;stroke-linejoin:miter;"/>
   </g>
   <g id="matplotlib.axis_1">
    <g id="xtick_1">
     <g id="line2d_5">
      <defs>
       <path d="
M0 0
L0 -4" id="m93b0483c22" style="stroke:#000000;stroke-width:0.5;"/>
      </defs>
      <g>
       <use style="stroke:#000000;stroke-width:0.5;" x="39.211104375" xlink:href="#m93b0483c22" y="184.998780938"/>
      </g>
     </g>
     <g id="line2d_6">
      <defs>
       <path d="
M0 0
L0 4" id="m741efc42ff" style="stroke:#000000;stroke-width:0.5;"/>
      </defs>
      <g>
       <use style="stroke:#000000;stroke-width:0.5;" x="39.211104375" xlink:href="#m741efc42ff" y="12.1987809375"/>
      </g>
     </g>
     <g id="text_1">
      <!-- 0.0 -->
      <defs>
       <path d="
M50.3906 35.7969
Q50.3906 27.1562 49.1406 20.3125
Q47.9062 13.4844 45.1406 8.73438
Q42.3906 4 38.0312 1.5
Q33.6875 -0.984375 27.4844 -0.984375
Q21.7344 -0.984375 17.4531 1.5
Q13.1875 4 10.375 8.73438
Q7.5625 13.4844 6.17188 20.3125
Q4.78125 27.1562 4.78125 35.7969
Q4.78125 44.4375 6.03125 51.2656
Q7.28125 58.1094 9.98438 62.8125
Q12.7031 67.5312 17.0156 70.0156
Q21.3438 72.5156 27.4844 72.5156
Q33.2969 72.5156 37.5938 70.0469
Q41.8906 67.5781 44.7188 62.8594
Q47.5625 58.1562 48.9688 51.3125
Q50.3906 44.4844 50.3906 35.7969
M13.8125 35.7969
Q13.8125 28.4688 14.5469 23
Q15.2812 17.5312 16.8906 13.8906
Q18.5 10.25 21.1094 8.42188
Q23.7344 6.59375 27.4844 6.59375
Q31.25 6.59375 33.8906 8.39062
Q36.5312 10.2031 38.2031 13.8125
Q39.8906 17.4375 40.6406 22.9219
Q41.4062 28.4219 41.4062 35.7969
Q41.4062 43.1094 40.6406 48.5781
Q39.8906 54.0469 38.2031 57.6562
Q36.5312 61.2812 33.8906 63.0781
Q31.25 64.8906 27.4844 64.8906
Q23.7344 64.8906 21.1094 63.0781
Q18.5 61.2812 16.8906 57.6562
Q15.2812 54.0469 14.5469 48.5781
Q13.8125 43.1094 13.8125 35.7969" id="WenQuanYiMicroHei-30"/>
       <path d="
M7.17188 5.42188
Q7.17188 7.28125 7.65625 8.5625
Q8.15625 9.85938 8.98438 10.6562
Q9.8125 11.4688 10.9375 11.8281
Q12.0625 12.2031 13.375 12.2031
Q14.6562 12.2031 15.7969 11.8281
Q16.9375 11.4688 17.7656 10.6562
Q18.6094 9.85938 19.0938 8.5625
Q19.5781 7.28125 19.5781 5.42188
Q19.5781 3.60938 19.0938 2.3125
Q18.6094 1.03125 17.7656 0.1875
Q16.9375 -0.640625 15.7969 -1.03125
Q14.6562 -1.42188 13.375 -1.42188
Q12.0625 -1.42188 10.9375 -1.03125
Q9.8125 -0.640625 8.98438 0.1875
Q8.15625 1.03125 7.65625 2.3125
Q7.17188 3.60938 7.17188 5.42188" id="WenQuanYiMicroHei-2e"/>
      </defs>
      <g transform="translate(32.838654375 196.594179063)scale(0.09996 -0.09996)">
       <use xlink:href="#WenQuanYiMicroHei-30"/>
       <use x="55.078125" xlink:href="#WenQuanYiMicroHei-2e"/>
       <use x="81.884765625" xlink:href="#WenQuanYiMicroHei-30"/>
      </g>
     </g>
    </g>
    <g id="xtick_2">
     <g id="line2d_7">
      <g>
       <use style="stroke:#000000;stroke-width:0.5;" x="150.811104375" xlink:href="#m93b0483c22" y="184.998780938"/>
      </g>
     </g>
     <g id="line2d_8">
      <g>
       <use style="stroke:#000000;stroke-width:0.5;" x="150.811104375" xlink:href="#m741efc42ff" y="12.1987809375"/>
      </g>
     </g>
     <g id="text_2">
      <!-- 0.5 -->
      <defs>
       <path d="
M26.6094 43.7969
Q31.4531 43.7969 35.625 42.4531
Q39.7969 41.1094 42.8906 38.4688
Q46 35.8438 47.75 31.9375
Q49.5156 28.0312 49.5156 22.9062
Q49.5156 17.3281 47.8438 12.8906
Q46.1875 8.45312 42.9219 5.375
Q39.6562 2.29688 34.8438 0.65625
Q30.0312 -0.984375 23.7812 -0.984375
Q21.2969 -0.984375 18.875 -0.734375
Q16.4531 -0.484375 14.2344 -0.015625
Q12.0156 0.4375 10.0156 1.17188
Q8.01562 1.90625 6.39062 2.875
L6.39062 11.2812
Q8.01562 10.1562 10.1875 9.28125
Q12.3594 8.40625 14.75 7.8125
Q17.1406 7.23438 19.5469 6.90625
Q21.9688 6.59375 24.0312 6.59375
Q27.875 6.59375 30.9062 7.5
Q33.9375 8.40625 36.0312 10.2969
Q38.1406 12.2031 39.25 15.0781
Q40.375 17.9688 40.375 21.9219
Q40.375 28.9062 36.0781 32.5938
Q31.7812 36.2812 23.5781 36.2812
Q22.2656 36.2812 20.7188 36.1562
Q19.1875 36.0312 17.6406 35.8281
Q16.1094 35.6406 14.7188 35.4219
Q13.3281 35.2031 12.3125 35.0156
L7.90625 37.7969
L10.5938 71.3906
L44.2812 71.3906
L44.2812 63.2812
L18.3125 63.2812
L16.4062 42.8281
Q17.9688 43.1094 20.5312 43.4531
Q23.0938 43.7969 26.6094 43.7969" id="WenQuanYiMicroHei-35"/>
      </defs>
      <g transform="translate(144.482386875 196.594179063)scale(0.09996 -0.09996)">
       <use xlink:href="#WenQuanYiMicroHei-30"/>
       <use x="55.078125" xlink:href="#WenQuanYiMicroHei-2e"/>
       <use x="81.884765625" xlink:href="#WenQuanYiMicroHei-35"/>
      </g>
     </g>
    </g>
    <g id="xtick_3">
     <g id="line2d_9">
      <g>
       <use style="stroke:#000000;stroke-width:0.5;" x="262.411104375" xlink:href="#m93b0483c22" y="184.998780938"/>
      </g>
     </g>
     <g id="line2d_10">
      <g>
       <use style="stroke:#000000;stroke-width:0.5;" x="262.411104375" xlink:href="#m741efc42ff" y="12.1987809375"/>
      </g>
     </g>
     <g id="text_3">
      <!-- 1.0 -->
      <defs>
       <path d="
M34.7188 0
L26.125 0
L26.125 44.5781
Q26.125 46.6875 26.1406 49.0781
Q26.1719 51.4688 26.2344 53.8281
Q26.3125 56.2031 26.3906 58.375
Q26.4688 60.5469 26.5156 62.2031
Q25.6875 61.3281 25.0469 60.6875
Q24.4219 60.0625 23.75 59.4688
Q23.0938 58.8906 22.3594 58.2188
Q21.625 57.5625 20.6094 56.6875
L13.375 50.7812
L8.6875 56.7812
L27.3906 71.3906
L34.7188 71.3906
z
" id="WenQuanYiMicroHei-31"/>
      </defs>
      <g transform="translate(256.23388875 196.594179063)scale(0.09996 -0.09996)">
       <use xlink:href="#WenQuanYiMicroHei-31"/>
       <use x="55.078125" xlink:href="#WenQuanYiMicroHei-2e"/>
       <use x="81.884765625" xlink:href="#WenQuanYiMicroHei-30"/>
      </g>
     </g>
    </g>
    <g id="xtick_4">
     <g id="line2d_11">
      <g>
       <use style="stroke:#000000;stroke-width:0.5;" x="374.011104375" xlink:href="#m93b0483c22" y="184.998780938"/>
      </g>
     </g>
     <g id="line2d_12">
      <g>
       <use style="stroke:#000000;stroke-width:0.5;" x="374.011104375" xlink:href="#m741efc42ff" y="12.1987809375"/>
      </g>
     </g>
     <g id="text_4">
      <!-- 1.5 -->
      <g transform="translate(367.87762125 196.594179063)scale(0.09996 -0.09996)">
       <use xlink:href="#WenQuanYiMicroHei-31"/>
       <use x="55.078125" xlink:href="#WenQuanYiMicroHei-2e"/>
       <use x="81.884765625" xlink:href="#WenQuanYiMicroHei-35"/>
      </g>
     </g>
    </g>
    <g id="xtick_5">
     <g id="line2d_13">
      <g>
       <use style="stroke:#000000;stroke-width:0.5;" x="485.611104375" xlink:href="#m93b0483c22" y="184.998780938"/>
      </g>
     </g>
     <g id="line2d_14">
      <g>
       <use style="stroke:#000000;stroke-width:0.5;" x="485.611104375" xlink:href="#m741efc42ff" y="12.1987809375"/>
      </g>
     </g>
     <g id="text_5">
      <!-- 2.0 -->
      <defs>
       <path d="
M49.2188 0
L4.6875 0
L4.6875 7.625
L21.7812 26.2188
Q25.4375 30.1719 28.3125 33.4375
Q31.2031 36.7188 33.2188 39.8438
Q35.25 42.9688 36.3281 46.1094
Q37.4062 49.2656 37.4062 52.9844
Q37.4062 55.8594 36.5781 58.0469
Q35.75 60.25 34.2031 61.7812
Q32.6719 63.3281 30.5625 64.1094
Q28.4688 64.8906 25.875 64.8906
Q21.2344 64.8906 17.5 63.0156
Q13.7656 61.1406 10.4062 58.2031
L5.42188 64.0156
Q7.375 65.7656 9.60938 67.2969
Q11.8594 68.8438 14.4531 69.9688
Q17.0469 71.0938 19.9219 71.75
Q22.7969 72.4062 25.9844 72.4062
Q30.6719 72.4062 34.4531 71.0938
Q38.2344 69.7812 40.8594 67.3125
Q43.5 64.8438 44.9375 61.2969
Q46.3906 57.7656 46.3906 53.3281
Q46.3906 49.1719 45.0938 45.4062
Q43.7969 41.6562 41.5312 38.0156
Q39.2656 34.375 36.1094 30.7031
Q32.9531 27.0469 29.2969 23.0938
L15.5781 8.5
L15.5781 8.10938
L49.2188 8.10938
z
" id="WenQuanYiMicroHei-32"/>
      </defs>
      <g transform="translate(479.23396875 196.594179063)scale(0.09996 -0.09996)">
       <use xlink:href="#WenQuanYiMicroHei-32"/>
       <use x="55.078125" xlink:href="#WenQuanYiMicroHei-2e"/>
       <use x="81.884765625" xlink:href="#WenQuanYiMicroHei-30"/>
      </g>
     </g>
    </g>
    <g id="text_6">
     <!-- 时间（秒） -->
     <defs>
      <path d="
M25 82.0312
Q30.4688 75.7812 33.9844 68.3594
L26.9531 64.0625
Q23.8281 71.4844 18.3594 77.7344
z

M41.7969 77.3438
L89.8438 77.3438
L89.8438 1.5625
Q89.8438 -3.90625 87.5 -6.64062
Q85.1562 -9.375 80.8594 -9.375
Q77.7344 -9.375 73.4375 -8.98438
L71.4844 -0.78125
Q76.1719 -1.5625 79.2969 -1.5625
Q82.0312 -1.5625 82.0312 3.90625
L82.0312 70.3125
L41.7969 70.3125
z

M10.1562 63.2812
L17.9688 63.2812
L17.9688 -8.98438
L10.1562 -8.98438
z

M67.5781 55.0781
L67.5781 8.59375
L32.0312 8.59375
L32.0312 55.0781
z

M60.1562 35.5469
L60.1562 48.0469
L39.4531 48.0469
L39.4531 35.5469
z

M39.4531 28.125
L39.4531 15.2344
L60.1562 15.2344
L60.1562 28.125
z
" id="WenQuanYiMicroHei-95f4"/>
      <path d="
M64.0625 71.4844
L73.4375 71.4844
Q47.6562 55.8594 47.6562 27.3438
Q47.6562 -0.390625 73.4375 -15.625
L64.0625 -15.625
Q52.7344 -10.5469 45.5 1.35938
Q38.2812 13.2812 38.2812 27.3438
Q38.2812 41.7969 45.5 53.7031
Q52.7344 65.625 64.0625 71.4844" id="WenQuanYiMicroHei-ff08"/>
      <path d="
M5.07812 54.6875
L20.3125 54.6875
L20.3125 67.5781
Q14.4531 66.0156 8.20312 64.8438
L5.46875 71.875
Q23.0469 75 37.5 81.25
L41.0156 74.6094
L27.7344 69.9219
L27.7344 54.6875
L41.7969 54.6875
L41.7969 47.6562
L27.7344 47.6562
L27.7344 45.7031
Q35.5469 37.5 41.4062 29.2969
L36.3281 22.2656
Q32.0312 29.6875 27.7344 35.5469
L27.7344 -8.98438
L20.3125 -8.98438
L20.3125 30.0781
Q15.625 18.3594 8.20312 8.59375
L2.73438 15.2344
Q13.6719 29.2969 19.1406 47.6562
L5.07812 47.6562
z

M62.5 80.8594
L70.7031 80.8594
L70.7031 21.875
L62.5 21.875
z

M81.6406 70.7031
Q89.8438 57.4219 95.3125 42.1875
L88.2812 38.2812
Q83.5938 53.125 75.3906 66.7969
z

M48.8281 69.9219
L56.25 67.1875
Q52.3438 46.4844 46.0938 32.0312
L38.6719 36.7188
Q45.3125 51.5625 48.8281 69.9219
M82.8125 36.3281
L90.625 33.5938
Q82.8125 16.7969 70.3125 6.64062
Q57.8125 -3.51562 37.1094 -9.375
L33.5938 -1.95312
Q52.7344 3.125 63.8594 12.1094
Q75 21.0938 82.8125 36.3281" id="WenQuanYiMicroHei-79d2"/>
      <path d="
M42.9688 60.5469
L75 60.5469
L75 80.8594
L82.8125 80.8594
L82.8125 60.5469
L94.5312 60.5469
L94.5312 53.125
L82.8125 53.125
L82.8125 1.95312
Q82.8125 -3.90625 80.6562 -6.25
Q78.5156 -8.59375 73.0469 -8.59375
Q66.7969 -8.59375 60.9375 -7.03125
L59.375 1.17188
Q65.625 -0.78125 71.875 -0.78125
Q73.4375 -0.78125 74.2188 0
Q75 0.78125 75 3.90625
L75 53.125
L42.9688 53.125
z

M54.2969 46.4844
Q61.7188 34.375 66.7969 20.3125
L58.9844 16.7969
Q54.2969 31.6406 47.2656 43.3594
z

M39.4531 73.4375
L39.4531 4.29688
L32.0312 4.29688
L32.0312 9.76562
L14.8438 9.76562
L14.8438 1.17188
L7.42188 1.17188
L7.42188 73.4375
z

M14.8438 45.3125
L32.0312 45.3125
L32.0312 66.4062
L14.8438 66.4062
z

M14.8438 16.7969
L32.0312 16.7969
L32.0312 38.2812
L14.8438 38.2812
z
" id="WenQuanYiMicroHei-65f6"/>
      <path d="
M35.9375 -15.625
L26.5625 -15.625
Q52.3438 -0.390625 52.3438 27.3438
Q52.3438 55.8594 26.5625 71.4844
L35.9375 71.4844
Q47.2656 65.625 54.4844 53.7031
Q61.7188 41.7969 61.7188 27.3438
Q61.7188 13.2812 54.4844 1.35938
Q47.2656 -10.5469 35.9375 -15.625" id="WenQuanYiMicroHei-ff09"/>
     </defs>
     <g transform="translate(239.705346562 211.591740938)scale(0.09996 -0.09996)">
      <use xlink:href="#WenQuanYiMicroHei-65f6"/>
      <use x="100.0" xlink:href="#WenQuanYiMicroHei-95f4"/>
      <use x="200.0" xlink:href="#WenQuanYiMicroHei-ff08"/>
      <use x="300.0" xlink:href="#WenQuanYiMicroHei-79d2"/>
      <use x="400.0" xlink:href="#WenQuanYiMicroHei-ff09"/>
     </g>
    </g>
   </g>
   <g id="matplotlib.axis_2">
    <g id="ytick_1">
     <g id="line2d_15">
      <defs>
       <path d="
M0 0
L4 0" id="m728421d6d4" style="stroke:#000000;stroke-width:0.5;"/>
      </defs>
      <g>
       <use style="stroke:#000000;stroke-width:0.5;" x="39.211104375" xlink:href="#m728421d6d4" y="184.998780938"/>
      </g>
     </g>
     <g id="line2d_16">
      <defs>
       <path d="
M0 0
L-4 0" id="mcb0005524f" style="stroke:#000000;stroke-width:0.5;"/>
      </defs>
      <g>
       <use style="stroke:#000000;stroke-width:0.5;" x="485.611104375" xlink:href="#mcb0005524f" y="184.998780938"/>
      </g>
     </g>
     <g id="text_7">
      <!-- 0.0 -->
      <g transform="translate(22.466204375 187.595398125)scale(0.09996 -0.09996)">
       <use xlink:href="#WenQuanYiMicroHei-30"/>
       <use x="55.078125" xlink:href="#WenQuanYiMicroHei-2e"/>
       <use x="81.884765625" xlink:href="#WenQuanYiMicroHei-30"/>
      </g>
     </g>
    </g>
    <g id="ytick_2">
     <g id="line2d_17">
      <g>
       <use style="stroke:#000000;stroke-width:0.5;" x="39.211104375" xlink:href="#m728421d6d4" y="160.313066652"/>
      </g>
     </g>
     <g id="line2d_18">
      <g>
       <use style="stroke:#000000;stroke-width:0.5;" x="485.611104375" xlink:href="#mcb0005524f" y="160.313066652"/>
      </g>
     </g>
     <g id="text_8">
      <!-- 0.2 -->
      <g transform="translate(22.583345 162.909683839)scale(0.09996 -0.09996)">
       <use xlink:href="#WenQuanYiMicroHei-30"/>
       <use x="55.078125" xlink:href="#WenQuanYiMicroHei-2e"/>
       <use x="81.884765625" xlink:href="#WenQuanYiMicroHei-32"/>
      </g>
     </g>
    </g>
    <g id="ytick_3">
     <g id="line2d_19">
      <g>
       <use style="stroke:#000000;stroke-width:0.5;" x="39.211104375" xlink:href="#m728421d6d4" y="135.627352366"/>
      </g>
     </g>
     <g id="line2d_20">
      <g>
       <use style="stroke:#000000;stroke-width:0.5;" x="485.611104375" xlink:href="#mcb0005524f" y="135.627352366"/>
      </g>
     </g>
     <g id="text_9">
      <!-- 0.4 -->
      <defs>
       <path d="
M53.0781 16.0156
L42.6719 16.0156
L42.6719 0
L34.0781 0
L34.0781 16.0156
L1.125 16.0156
L1.125 23.7812
L33.5 71.7812
L42.6719 71.7812
L42.6719 24.125
L53.0781 24.125
z

M34.0781 24.125
L34.0781 41.5
Q34.0781 44.2344 34.1562 47.2344
Q34.2344 50.25 34.3281 53.0938
Q34.4219 55.9531 34.5469 58.4375
Q34.6719 60.9375 34.7188 62.5938
L34.2812 62.5938
Q33.9375 61.625 33.4219 60.4219
Q32.9062 59.2344 32.2969 58.0312
Q31.6875 56.8438 31.0469 55.7188
Q30.4219 54.5938 29.8906 53.8125
L9.8125 24.125
z
" id="WenQuanYiMicroHei-34"/>
      </defs>
      <g transform="translate(22.197561875 138.223969554)scale(0.09996 -0.09996)">
       <use xlink:href="#WenQuanYiMicroHei-30"/>
       <use x="55.078125" xlink:href="#WenQuanYiMicroHei-2e"/>
       <use x="81.884765625" xlink:href="#WenQuanYiMicroHei-34"/>
      </g>
     </g>
    </g>
    <g id="ytick_4">
     <g id="line2d_21">
      <g>
       <use style="stroke:#000000;stroke-width:0.5;" x="39.211104375" xlink:href="#m728421d6d4" y="110.94163808"/>
      </g>
     </g>
     <g id="line2d_22">
      <g>
       <use style="stroke:#000000;stroke-width:0.5;" x="485.611104375" xlink:href="#mcb0005524f" y="110.94163808"/>
      </g>
     </g>
     <g id="text_10">
      <!-- 0.6 -->
      <defs>
       <path d="
M5.51562 30.5156
Q5.51562 35.6406 6.03125 40.7188
Q6.54688 45.7969 7.82812 50.4531
Q9.125 55.125 11.375 59.125
Q13.625 63.1406 17.0938 66.0938
Q20.5625 69.0469 25.3906 70.7188
Q30.2188 72.4062 36.7188 72.4062
Q37.6406 72.4062 38.7656 72.3594
Q39.8906 72.3125 41.0312 72.1875
Q42.1875 72.0781 43.2344 71.9062
Q44.2812 71.7344 45.125 71.4844
L45.125 63.9219
Q43.4062 64.5 41.25 64.7969
Q39.1094 65.0938 37.0156 65.0938
Q32.625 65.0938 29.2656 64.0312
Q25.9219 62.9844 23.4844 61.0781
Q21.0469 59.1875 19.4062 56.5469
Q17.7812 53.9062 16.75 50.7031
Q15.7188 47.5156 15.2344 43.8906
Q14.75 40.2812 14.5938 36.375
L15.1875 36.375
Q16.1562 38.1406 17.5469 39.6719
Q18.9531 41.2188 20.7969 42.3125
Q22.6562 43.4062 24.9688 44.0312
Q27.2969 44.6719 30.1719 44.6719
Q34.8125 44.6719 38.5625 43.2344
Q42.3281 41.7969 44.9688 39.0156
Q47.6094 36.2344 49.0469 32.2031
Q50.4844 28.1719 50.4844 23
Q50.4844 17.4375 48.9688 12.9844
Q47.4688 8.54688 44.625 5.4375
Q41.7969 2.34375 37.7969 0.671875
Q33.7969 -0.984375 28.8125 -0.984375
Q23.9219 -0.984375 19.6406 0.921875
Q15.375 2.82812 12.25 6.73438
Q9.125 10.6406 7.3125 16.5469
Q5.51562 22.4688 5.51562 30.5156
M28.7188 6.5
Q31.6406 6.5 34.0469 7.5
Q36.4688 8.5 38.2188 10.5156
Q39.9844 12.5469 40.9375 15.6406
Q41.8906 18.75 41.8906 23
Q41.8906 26.4219 41.0781 29.125
Q40.2812 31.8438 38.6719 33.7344
Q37.0625 35.6406 34.6406 36.6719
Q32.2344 37.7031 29 37.7031
Q25.7344 37.7031 23.0156 36.5469
Q20.3125 35.4062 18.4062 33.5625
Q16.5 31.7344 15.4531 29.3906
Q14.4062 27.0469 14.4062 24.7031
Q14.4062 21.4375 15.3125 18.1875
Q16.2188 14.9375 18 12.3438
Q19.7812 9.76562 22.4531 8.125
Q25.1406 6.5 28.7188 6.5" id="WenQuanYiMicroHei-36"/>
      </defs>
      <g transform="translate(22.456833125 113.538255268)scale(0.09996 -0.09996)">
       <use xlink:href="#WenQuanYiMicroHei-30"/>
       <use x="55.078125" xlink:href="#WenQuanYiMicroHei-2e"/>
       <use x="81.884765625" xlink:href="#WenQuanYiMicroHei-36"/>
      </g>
     </g>
    </g>
    <g id="ytick_5">
     <g id="line2d_23">
      <g>
       <use style="stroke:#000000;stroke-width:0.5;" x="39.211104375" xlink:href="#m728421d6d4" y="86.2559237946"/>
      </g>
     </g>
     <g id="line2d_24">
      <g>
       <use style="stroke:#000000;stroke-width:0.5;" x="485.611104375" xlink:href="#mcb0005524f" y="86.2559237946"/>
      </g>
     </g>
     <g id="text_11">
      <!-- 0.8 -->
      <defs>
       <path d="
M27.5938 72.5156
Q31.6875 72.5156 35.3281 71.4375
Q38.9688 70.3594 41.7188 68.2031
Q44.4844 66.0625 46.0938 62.8438
Q47.7031 59.625 47.7031 55.3281
Q47.7031 52.0469 46.7188 49.4062
Q45.75 46.7812 44.0312 44.6562
Q42.3281 42.5312 39.9844 40.8438
Q37.6406 39.1562 34.9062 37.7969
Q37.75 36.2812 40.4531 34.4219
Q43.1719 32.5625 45.2812 30.25
Q47.4062 27.9375 48.7031 25.0469
Q50 22.1719 50 18.6094
Q50 14.1094 48.3594 10.4688
Q46.7344 6.84375 43.7812 4.29688
Q40.8281 1.76562 36.6875 0.390625
Q32.5625 -0.984375 27.5938 -0.984375
Q22.2188 -0.984375 18.0469 0.328125
Q13.875 1.65625 11.0156 4.125
Q8.15625 6.59375 6.65625 10.1562
Q5.17188 13.7188 5.17188 18.2188
Q5.17188 21.875 6.26562 24.7969
Q7.375 27.7344 9.21875 30.0781
Q11.0781 32.4219 13.6094 34.2188
Q16.1562 36.0312 19 37.4062
Q16.6094 38.9219 14.5 40.7031
Q12.4062 42.4844 10.8594 44.6719
Q9.32812 46.875 8.42188 49.5312
Q7.51562 52.2031 7.51562 55.4219
Q7.51562 59.6719 9.15625 62.8594
Q10.7969 66.0625 13.5781 68.2031
Q16.3594 70.3594 20 71.4375
Q23.6406 72.5156 27.5938 72.5156
M13.9219 18.1094
Q13.9219 15.5312 14.7031 13.3594
Q15.4844 11.1875 17.1406 9.64062
Q18.7969 8.10938 21.3281 7.25
Q23.875 6.39062 27.3906 6.39062
Q30.8125 6.39062 33.4219 7.25
Q36.0312 8.10938 37.7812 9.6875
Q39.5469 11.2812 40.4219 13.5156
Q41.3125 15.7656 41.3125 18.5
Q41.3125 21.0469 40.3594 23.0938
Q39.4062 25.1406 37.625 26.8906
Q35.8438 28.6562 33.3438 30.2188
Q30.8594 31.7812 27.7812 33.2969
L26.3125 33.9844
Q20.1719 31.0625 17.0469 27.2656
Q13.9219 23.4844 13.9219 18.1094
M27.4844 65.0938
Q22.3125 65.0938 19.2656 62.5
Q16.2188 59.9062 16.2188 54.9844
Q16.2188 52.2031 17.0625 50.1875
Q17.9219 48.1875 19.4375 46.625
Q20.9531 45.0625 23.0781 43.8125
Q25.2031 42.5781 27.6875 41.4062
Q30.0312 42.4844 32.1094 43.75
Q34.1875 45.0156 35.7188 46.625
Q37.25 48.25 38.125 50.2969
Q39.0156 52.3438 39.0156 54.9844
Q39.0156 59.9062 35.9375 62.5
Q32.8594 65.0938 27.4844 65.0938" id="WenQuanYiMicroHei-38"/>
      </defs>
      <g transform="translate(22.50525125 88.8525409821)scale(0.09996 -0.09996)">
       <use xlink:href="#WenQuanYiMicroHei-30"/>
       <use x="55.078125" xlink:href="#WenQuanYiMicroHei-2e"/>
       <use x="81.884765625" xlink:href="#WenQuanYiMicroHei-38"/>
      </g>
     </g>
    </g>
    <g id="ytick_6">
     <g id="line2d_25">
      <g>
       <use style="stroke:#000000;stroke-width:0.5;" x="39.211104375" xlink:href="#m728421d6d4" y="61.5702095089"/>
      </g>
     </g>
     <g id="line2d_26">
      <g>
       <use style="stroke:#000000;stroke-width:0.5;" x="485.611104375" xlink:href="#mcb0005524f" y="61.5702095089"/>
      </g>
     </g>
     <g id="text_12">
      <!-- 1.0 -->
      <g transform="translate(22.856673125 64.1668266964)scale(0.09996 -0.09996)">
       <use xlink:href="#WenQuanYiMicroHei-31"/>
       <use x="55.078125" xlink:href="#WenQuanYiMicroHei-2e"/>
       <use x="81.884765625" xlink:href="#WenQuanYiMicroHei-30"/>
      </g>
     </g>
    </g>
    <g id="ytick_7">
     <g id="line2d_27">
      <g>
       <use style="stroke:#000000;stroke-width:0.5;" x="39.211104375" xlink:href="#m728421d6d4" y="36.8844952232"/>
      </g>
     </g>
     <g id="line2d_28">
      <g>
       <use style="stroke:#000000;stroke-width:0.5;" x="485.611104375" xlink:href="#mcb0005524f" y="36.8844952232"/>
      </g>
     </g>
     <g id="text_13">
      <!-- 1.2 -->
      <g transform="translate(22.97381375 39.4811124107)scale(0.09996 -0.09996)">
       <use xlink:href="#WenQuanYiMicroHei-31"/>
       <use x="55.078125" xlink:href="#WenQuanYiMicroHei-2e"/>
       <use x="81.884765625" xlink:href="#WenQuanYiMicroHei-32"/>
      </g>
     </g>
    </g>
    <g id="ytick_8">
     <g id="line2d_29">
      <g>
       <use style="stroke:#000000;stroke-width:0.5;" x="39.211104375" xlink:href="#m728421d6d4" y="12.1987809375"/>
      </g>
     </g>
     <g id="line2d_30">
      <g>
       <use style="stroke:#000000;stroke-width:0.5;" x="485.611104375" xlink:href="#mcb0005524f" y="12.1987809375"/>
      </g>
     </g>
     <g id="text_14">
      <!-- 1.4 -->
      <g transform="translate(22.588030625 14.795398125)scale(0.09996 -0.09996)">
       <use xlink:href="#WenQuanYiMicroHei-31"/>
       <use x="55.078125" xlink:href="#WenQuanYiMicroHei-2e"/>
       <use x="81.884765625" xlink:href="#WenQuanYiMicroHei-34"/>
      </g>
     </g>
    </g>
    <g id="text_15">
     <!-- 位移（米） -->
     <defs>
      <path d="
M6.64062 46.875
L45.7031 46.875
L45.7031 80.8594
L53.5156 80.8594
L53.5156 46.875
L93.3594 46.875
L93.3594 39.4531
L60.9375 39.4531
Q73.4375 17.9688 93.3594 7.8125
L88.6719 -1.17188
Q67.1875 11.7188 53.5156 36.7188
L53.5156 -8.98438
L45.7031 -8.98438
L45.7031 36.7188
Q32.8125 12.5 11.3281 -1.5625
L5.46875 5.85938
Q26.1719 19.1406 37.5 39.4531
L6.64062 39.4531
z

M76.5625 75.7812
L85.1562 72.2656
Q78.5156 60.1562 72.2656 51.5625
L64.0625 55.8594
Q71.4844 65.625 76.5625 75.7812
M20.3125 75
Q29.6875 65.625 35.5469 55.0781
L28.125 50.7812
Q22.6562 61.3281 13.2812 70.7031
z
" id="WenQuanYiMicroHei-7c73"/>
      <path d="
M5.07812 54.6875
L20.3125 54.6875
L20.3125 67.5781
Q14.4531 66.0156 8.20312 64.8438
L5.46875 71.875
Q23.0469 75 37.5 81.25
L41.0156 74.6094
L27.7344 69.9219
L27.7344 54.6875
L41.7969 54.6875
L41.7969 47.6562
L27.7344 47.6562
L27.7344 45.7031
Q35.5469 37.5 41.4062 29.2969
L36.3281 22.2656
Q32.0312 29.6875 27.7344 35.5469
L27.7344 -8.98438
L20.3125 -8.98438
L20.3125 30.0781
Q15.625 18.3594 8.20312 8.59375
L2.73438 15.2344
Q13.6719 29.2969 19.1406 47.6562
L5.07812 47.6562
z

M63.2812 80.8594
L71.0938 79.2969
Q69.1406 75.7812 66.4062 72.2656
L90.2344 72.2656
L90.2344 65.2344
Q79.2969 41.4062 40.2344 33.9844
L37.1094 41.7969
Q71.875 46.875 81.6406 65.2344
L59.375 65.2344
Q57.4219 63.2812 55.4688 62.1094
Q58.9844 58.9844 62.5 55.4688
L57.4219 50
Q53.9062 53.9062 49.6094 57.8125
L42.9688 54.2969
L37.8906 59.7656
Q55.0781 68.75 63.2812 80.8594
M67.1875 41.7969
L73.8281 38.2812
Q72.2656 36.3281 70.3125 34.375
L92.5781 34.375
L92.5781 27.3438
Q80.4688 -0.390625 37.5 -9.375
L33.9844 -1.5625
Q74.2188 5.07812 84.375 27.3438
L63.2812 27.3438
Q61.3281 25.3906 58.9844 23.4375
Q62.8906 20.3125 66.7969 16.0156
L61.3281 10.5469
Q57.4219 14.8438 52.7344 18.75
L42.5781 12.5
L38.2812 19.1406
Q54.6875 27.3438 67.1875 41.7969" id="WenQuanYiMicroHei-79fb"/>
      <path d="
M27.7344 80.8594
L35.5469 78.5156
Q31.25 67.1875 25.3906 56.25
L25.3906 -8.98438
L17.5781 -8.98438
L17.5781 43.75
Q12.8906 37.5 7.8125 32.0312
L3.90625 39.8438
Q20.7031 59.375 27.7344 80.8594
M33.9844 64.0625
L58.9844 64.0625
Q56.6406 71.875 53.125 78.5156
L61.3281 81.25
Q65.2344 73.4375 67.5781 64.0625
L92.1875 64.0625
L92.1875 56.6406
L33.9844 56.6406
z

M78.5156 53.125
L87.5 50.3906
Q80.4688 22.6562 73.0469 2.34375
L94.9219 2.34375
L94.9219 -5.07812
L30.8594 -5.07812
L30.8594 2.34375
L64.4531 2.34375
Q72.6562 26.5625 78.5156 53.125
M47.2656 51.1719
Q53.5156 30.4688 55.4688 9.375
L46.875 7.03125
Q44.9219 29.2969 38.6719 48.8281
z
" id="WenQuanYiMicroHei-4f4d"/>
     </defs>
     <g transform="translate(14.795398125 121.480249688)rotate(-90.0)scale(0.09996 -0.09996)">
      <use xlink:href="#WenQuanYiMicroHei-4f4d"/>
      <use x="100.0" xlink:href="#WenQuanYiMicroHei-79fb"/>
      <use x="200.0" xlink:href="#WenQuanYiMicroHei-ff08"/>
      <use x="300.0" xlink:href="#WenQuanYiMicroHei-7c73"/>
      <use x="400.0" xlink:href="#WenQuanYiMicroHei-ff09"/>
     </g>
    </g>
   </g>
   <g id="legend_1">
    <g id="patch_7">
     <path d="
M249.106 53.3792
L480.613 53.3792
L480.613 17.1968
L249.106 17.1968
z
" style="fill:#ffffff;stroke:#000000;stroke-linejoin:miter;"/>
    </g>
    <g id="line2d_31">
     <path d="
M256.103 25.292
L270.097 25.292" style="fill:none;stroke:#348abd;stroke-linecap:square;stroke-width:2.0;"/>
    </g>
    <g id="line2d_32"/>
    <g id="text_16">
     <!-- $K_p=10, K_i=  0$ -->
     <defs>
      <path d="
M9.28125 0
L9.28125 3.51562
Q21.7812 3.51562 21.7812 6.6875
L21.7812 59.1875
Q16.6094 56.6875 8.6875 56.6875
L8.6875 60.2031
Q20.9531 60.2031 27.2031 66.6094
L28.6094 66.6094
Q28.9531 66.6094 29.2656 66.3281
Q29.5938 66.0625 29.5938 65.7188
L29.5938 6.6875
Q29.5938 3.51562 42.0938 3.51562
L42.0938 0
z
" id="Cmr10-31"/>
      <path d="
M25 -2.20312
Q12.75 -2.20312 8.32812 7.875
Q3.90625 17.9688 3.90625 31.8906
Q3.90625 40.5781 5.48438 48.2344
Q7.07812 55.9062 11.7812 61.25
Q16.5 66.6094 25 66.6094
Q31.5938 66.6094 35.7812 63.375
Q39.9844 60.1562 42.1875 55.0469
Q44.3906 49.9531 45.1875 44.1094
Q46 38.2812 46 31.8906
Q46 23.2969 44.4062 15.7969
Q42.8281 8.29688 38.1875 3.04688
Q33.5469 -2.20312 25 -2.20312
M25 0.390625
Q30.5625 0.390625 33.2969 6.09375
Q36.0312 11.8125 36.6719 18.75
Q37.3125 25.6875 37.3125 33.5
Q37.3125 41.0156 36.6719 47.3594
Q36.0312 53.7188 33.3125 58.8594
Q30.6094 64.0156 25 64.0156
Q19.3438 64.0156 16.6094 58.8281
Q13.875 53.6562 13.2344 47.3281
Q12.5938 41.0156 12.5938 33.5
Q12.5938 27.9375 12.8594 23
Q13.1406 18.0625 14.3125 12.8125
Q15.4844 7.5625 18.0938 3.96875
Q20.7031 0.390625 25 0.390625" id="Cmr10-30"/>
      <path d="
M4.6875 0
Q3.71875 0 3.71875 1.3125
Q3.76562 1.5625 3.90625 2.17188
Q4.04688 2.78125 4.3125 3.14062
Q4.59375 3.51562 4.98438 3.51562
Q11.0781 3.51562 13.4844 4.20312
Q14.7969 4.64062 15.375 6.89062
L29.1094 61.8125
Q29.2969 62.7969 29.2969 63.1875
Q29.2969 64.2656 28.0781 64.4062
Q26.2188 64.7969 20.9062 64.7969
Q19.9219 64.7969 19.9219 66.1094
Q20.2656 67.3906 20.4531 67.8438
Q20.6562 68.3125 21.5781 68.3125
L48.4844 68.3125
Q49.5156 68.3125 49.5156 67
Q49.4688 66.75 49.3125 66.1562
Q49.1719 65.5781 48.9219 65.1875
Q48.6875 64.7969 48.1875 64.7969
Q42.0938 64.7969 39.7031 64.1094
Q38.375 63.625 37.7969 61.375
L29.6875 29
L68.8906 59.2812
Q69 59.4688 70.1406 60.6094
Q71.2969 61.7656 71.2969 62.8906
Q71.2969 64.7969 67.9219 64.7969
Q66.8906 64.7969 66.8906 66.1094
Q67.0938 66.8906 67.2031 67.3281
Q67.3281 67.7812 67.6406 68.0469
Q67.9688 68.3125 68.6094 68.3125
L87.9844 68.3125
Q88.5312 68.3125 88.7656 67.9219
Q89.0156 67.5312 89.0156 67
Q88.9688 66.75 88.7969 66.1094
Q88.625 65.4844 88.3594 65.1406
Q88.0938 64.7969 87.5938 64.7969
Q80.2812 64.7969 71.5781 58.0156
Q71.5312 57.9531 71.4375 57.9219
Q71.3438 57.9062 71.2344 57.875
Q71.1406 57.8594 71.0938 57.8125
L50.4844 41.7969
L65.4844 6.6875
Q66.8438 4.5 68.4062 4
Q69.9688 3.51562 73.1875 3.51562
Q74.2188 3.51562 74.2188 2.20312
Q73.9219 1.03125 73.625 0.515625
Q73.3438 0 72.5156 0
L49.3125 0
Q48.3906 0 48.3906 1.3125
Q48.5312 2.34375 48.7188 2.92188
Q48.9219 3.51562 49.7031 3.51562
Q52.25 3.51562 54.0312 4.03125
Q55.8125 4.54688 55.8125 6.39062
Q55.8125 7.07812 55.7188 7.42188
L43.3125 36.2812
L28.7188 25
L24.125 6.5
Q23.875 5.28125 23.875 5.07812
Q23.875 4.04688 25.0938 3.90625
Q27 3.51562 32.3281 3.51562
Q33.2969 3.51562 33.2969 2.20312
Q32.9531 0.78125 32.75 0.390625
Q32.5625 0 31.5938 0
z
" id="Cmmi10-4b"/>
      <path d="
M-2.48438 -19.3906
Q-3.42188 -19.3906 -3.42188 -18.1094
Q-3.07812 -15.9219 -2.09375 -15.9219
Q1.03125 -15.9219 2.26562 -15.3594
Q3.51562 -14.7969 4.20312 -12.5
L15.4844 32.5156
Q16.2188 34.375 16.2188 37.3125
Q16.2188 41.6094 13.2812 41.6094
Q10.1562 41.6094 8.64062 37.8594
Q7.125 34.125 5.71875 28.4219
Q5.71875 27.7812 4.89062 27.7812
L3.71875 27.7812
Q3.46875 27.7812 3.17188 28.1406
Q2.875 28.5156 2.875 28.8125
Q3.95312 33.1562 4.95312 36.1719
Q5.95312 39.2031 8.07812 41.6875
Q10.2031 44.1875 13.375 44.1875
Q16.7969 44.1875 19.375 42.25
Q21.9688 40.3281 22.7031 37.0156
Q25.4375 40.1875 28.75 42.1875
Q32.0781 44.1875 35.5938 44.1875
Q39.7969 44.1875 42.8906 41.9375
Q46 39.7031 47.5625 36.0625
Q49.125 32.4219 49.125 28.2188
Q49.125 21.7812 45.8281 14.8906
Q42.5312 8.01562 36.8906 3.4375
Q31.25 -1.125 24.8125 -1.125
Q21.875 -1.125 19.5 0.53125
Q17.1406 2.20312 15.8281 4.89062
L11.2812 -12.8906
Q11.0312 -14.3594 10.9844 -14.5938
Q10.9844 -15.9219 17.5781 -15.9219
Q18.6094 -15.9219 18.6094 -17.1875
Q18.2656 -18.5 18.0469 -18.9375
Q17.8281 -19.3906 16.8906 -19.3906
z

M24.9062 1.51562
Q28.375 1.51562 31.3438 4.375
Q34.3281 7.23438 36.1875 10.7969
Q37.5469 13.4844 38.7344 17.3594
Q39.9375 21.2344 40.8125 25.625
Q41.7031 30.0312 41.7031 32.625
Q41.7031 34.9062 41.0938 36.9062
Q40.4844 38.9219 39.0938 40.2656
Q37.7031 41.6094 35.4062 41.6094
Q31.7344 41.6094 28.4844 38.9844
Q25.25 36.375 22.6094 32.5156
L22.6094 32.1719
L17.0938 10.1094
Q17.7812 6.54688 19.7344 4.03125
Q21.6875 1.51562 24.9062 1.51562" id="Cmmi10-70"/>
      <path d="
M7.51562 13.2812
Q6.6875 13.2812 6.14062 13.9062
Q5.60938 14.5469 5.60938 15.2812
Q5.60938 16.1094 6.14062 16.6875
Q6.6875 17.2812 7.51562 17.2812
L70.3125 17.2812
Q71.0469 17.2812 71.5781 16.6875
Q72.125 16.1094 72.125 15.2812
Q72.125 14.5469 71.5781 13.9062
Q71.0469 13.2812 70.3125 13.2812
z

M7.51562 32.7188
Q6.6875 32.7188 6.14062 33.2969
Q5.60938 33.8906 5.60938 34.7188
Q5.60938 35.4531 6.14062 36.0781
Q6.6875 36.7188 7.51562 36.7188
L70.3125 36.7188
Q71.0469 36.7188 71.5781 36.0781
Q72.125 35.4531 72.125 34.7188
Q72.125 33.8906 71.5781 33.2969
Q71.0469 32.7188 70.3125 32.7188
z
" id="Cmr10-3d"/>
      <path d="
M7.8125 7.17188
Q7.8125 9.03125 8.59375 11.0781
L16.7031 32.625
Q18.0156 36.2812 18.0156 38.625
Q18.0156 41.6094 15.8281 41.6094
Q11.8594 41.6094 9.29688 37.5312
Q6.73438 33.4531 5.51562 28.4219
Q5.32812 27.7812 4.6875 27.7812
L3.51562 27.7812
Q2.6875 27.7812 2.6875 28.7188
L2.6875 29
Q4.29688 34.9688 7.60938 39.5781
Q10.9375 44.1875 16.0156 44.1875
Q19.5781 44.1875 22.0469 41.8438
Q24.5156 39.5 24.5156 35.8906
Q24.5156 34.0312 23.6875 31.9844
L15.5781 10.5
Q14.2031 7.17188 14.2031 4.5
Q14.2031 1.51562 16.5 1.51562
Q20.4062 1.51562 23.0156 5.6875
Q25.6406 9.85938 26.7031 14.7031
Q26.9062 15.2812 27.4844 15.2812
L28.7188 15.2812
Q29.1094 15.2812 29.3438 15.0156
Q29.5938 14.75 29.5938 14.4062
Q29.5938 14.3125 29.5 14.1094
Q28.125 8.45312 24.7344 3.65625
Q21.3438 -1.125 16.3125 -1.125
Q12.7969 -1.125 10.2969 1.29688
Q7.8125 3.71875 7.8125 7.17188
M19.0938 60.5938
Q19.0938 62.7031 20.8438 64.4062
Q22.6094 66.1094 24.7031 66.1094
Q26.4219 66.1094 27.5156 65.0625
Q28.6094 64.0156 28.6094 62.4062
Q28.6094 60.1562 26.8281 58.4688
Q25.0469 56.7812 22.9062 56.7812
Q21.2969 56.7812 20.1875 57.875
Q19.0938 58.9844 19.0938 60.5938" id="Cmmi10-69"/>
      <path d="
M9.90625 -18.0156
Q9.90625 -17.5781 10.2969 -17.1875
Q13.9219 -13.7188 15.9219 -9.17188
Q17.9219 -4.64062 17.9219 0.390625
L17.9219 1.60938
Q16.3125 0 13.9219 0
Q11.625 0 10.0156 1.60938
Q8.40625 3.21875 8.40625 5.51562
Q8.40625 7.85938 10.0156 9.42188
Q11.625 10.9844 13.9219 10.9844
Q17.4844 10.9844 19 7.6875
Q20.5156 4.39062 20.5156 0.390625
Q20.5156 -5.17188 18.2812 -10.1719
Q16.0625 -15.1875 12.0156 -19.1875
Q11.625 -19.3906 11.375 -19.3906
Q10.8906 -19.3906 10.3906 -18.9375
Q9.90625 -18.5 9.90625 -18.0156" id="Cmmi10-3b"/>
     </defs>
     <g transform="translate(281.092944375 28.7905790625)scale(0.09996 -0.09996)">
      <use transform="translate(0.0 0.6875)" xlink:href="#Cmmi10-4b"/>
      <use transform="translate(84.912109375 -24.821875)scale(0.7)" xlink:href="#Cmmi10-70"/>
      <use transform="translate(152.763671875 0.6875)" xlink:href="#Cmr10-3d"/>
      <use transform="translate(236.822265625 0.6875)" xlink:href="#Cmr10-31"/>
      <use transform="translate(286.822265625 0.6875)" xlink:href="#Cmr10-30"/>
      <use transform="translate(336.822265625 0.6875)" xlink:href="#Cmmi10-3b"/>
      <use transform="translate(366.490234375 0.6875)" xlink:href="#Cmmi10-4b"/>
      <use transform="translate(451.40234375 -24.821875)scale(0.7)" xlink:href="#Cmmi10-69"/>
      <use transform="translate(503.384765625 0.6875)" xlink:href="#Cmr10-3d"/>
      <use transform="translate(587.443359375 0.6875)" xlink:href="#Cmr10-30"/>
     </g>
    </g>
    <g id="line2d_33">
     <path d="
M256.103 41.8838
L270.097 41.8838" style="fill:none;stroke:#a60628;stroke-linecap:square;stroke-width:2.0;"/>
    </g>
    <g id="line2d_34"/>
    <g id="text_17">
     <!-- $K_p=200, K_i=  0$ -->
     <defs>
      <path d="
M4.98438 0
L4.98438 2.6875
Q4.98438 2.9375 5.17188 3.21875
L20.7031 20.4062
Q24.2188 24.2188 26.4062 26.7969
Q28.6094 29.3906 30.75 32.7656
Q32.9062 36.1406 34.1562 39.625
Q35.4062 43.1094 35.4062 47.0156
Q35.4062 51.125 33.8906 54.8594
Q32.375 58.5938 29.375 60.8438
Q26.375 63.0938 22.125 63.0938
Q17.7812 63.0938 14.3125 60.4688
Q10.8438 57.8594 9.42188 53.7188
Q9.8125 53.8125 10.5 53.8125
Q12.75 53.8125 14.3281 52.2969
Q15.9219 50.7812 15.9219 48.3906
Q15.9219 46.0938 14.3281 44.5
Q12.75 42.9219 10.5 42.9219
Q8.15625 42.9219 6.5625 44.5469
Q4.98438 46.1875 4.98438 48.3906
Q4.98438 52.1562 6.39062 55.4375
Q7.8125 58.7344 10.4688 61.2969
Q13.1406 63.875 16.4844 65.2344
Q19.8281 66.6094 23.5781 66.6094
Q29.2969 66.6094 34.2188 64.1875
Q39.1562 61.7656 42.0312 57.3438
Q44.9219 52.9375 44.9219 47.0156
Q44.9219 42.6719 43.0156 38.7656
Q41.1094 34.8594 38.125 31.6562
Q35.1562 28.4688 30.5156 24.4062
Q25.875 20.3594 24.4219 19
L13.0938 8.10938
L22.7031 8.10938
Q29.7812 8.10938 34.5469 8.21875
Q39.3125 8.34375 39.5938 8.59375
Q40.7656 9.85938 42 17.8281
L44.9219 17.8281
L42.0938 0
z
" id="Cmr10-32"/>
     </defs>
     <g transform="translate(281.092944375 45.3823771875)scale(0.09996 -0.09996)">
      <use transform="translate(0.0 0.6875)" xlink:href="#Cmmi10-4b"/>
      <use transform="translate(84.912109375 -24.821875)scale(0.7)" xlink:href="#Cmmi10-70"/>
      <use transform="translate(152.763671875 0.6875)" xlink:href="#Cmr10-3d"/>
      <use transform="translate(236.822265625 0.6875)" xlink:href="#Cmr10-32"/>
      <use transform="translate(286.822265625 0.6875)" xlink:href="#Cmr10-30"/>
      <use transform="translate(336.822265625 0.6875)" xlink:href="#Cmr10-30"/>
      <use transform="translate(386.822265625 0.6875)" xlink:href="#Cmmi10-3b"/>
      <use transform="translate(416.490234375 0.6875)" xlink:href="#Cmmi10-4b"/>
      <use transform="translate(501.40234375 -24.821875)scale(0.7)" xlink:href="#Cmmi10-69"/>
      <use transform="translate(553.384765625 0.6875)" xlink:href="#Cmr10-3d"/>
      <use transform="translate(637.443359375 0.6875)" xlink:href="#Cmr10-30"/>
     </g>
    </g>
    <g id="line2d_35">
     <path d="
M372.856 25.292
L386.851 25.292" style="fill:none;stroke:#7a68a6;stroke-linecap:square;stroke-width:2.0;"/>
    </g>
    <g id="line2d_36"/>
    <g id="text_18">
     <!-- $K_p=200, K_i=100$ -->
     <g transform="translate(397.846224375 28.7905790625)scale(0.09996 -0.09996)">
      <use transform="translate(0.0 0.6875)" xlink:href="#Cmmi10-4b"/>
      <use transform="translate(84.912109375 -24.821875)scale(0.7)" xlink:href="#Cmmi10-70"/>
      <use transform="translate(152.763671875 0.6875)" xlink:href="#Cmr10-3d"/>
      <use transform="translate(236.822265625 0.6875)" xlink:href="#Cmr10-32"/>
      <use transform="translate(286.822265625 0.6875)" xlink:href="#Cmr10-30"/>
      <use transform="translate(336.822265625 0.6875)" xlink:href="#Cmr10-30"/>
      <use transform="translate(386.822265625 0.6875)" xlink:href="#Cmmi10-3b"/>
      <use transform="translate(416.490234375 0.6875)" xlink:href="#Cmmi10-4b"/>
      <use transform="translate(501.40234375 -24.821875)scale(0.7)" xlink:href="#Cmmi10-69"/>
      <use transform="translate(553.384765625 0.6875)" xlink:href="#Cmr10-3d"/>
      <use transform="translate(637.443359375 0.6875)" xlink:href="#Cmr10-31"/>
      <use transform="translate(687.443359375 0.6875)" xlink:href="#Cmr10-30"/>
      <use transform="translate(737.443359375 0.6875)" xlink:href="#Cmr10-30"/>
     </g>
    </g>
    <g id="line2d_37">
     <path d="
M372.856 41.8838
L386.851 41.8838" style="fill:none;stroke:#467821;stroke-linecap:square;stroke-width:2.0;"/>
    </g>
    <g id="line2d_38"/>
    <g id="text_19">
     <!-- $K_p=50, K_i=100$ -->
     <defs>
      <path d="
M8.6875 11.375
Q9.71875 8.45312 11.8438 6.04688
Q13.9688 3.65625 16.875 2.3125
Q19.7812 0.984375 22.9062 0.984375
Q30.125 0.984375 32.8594 6.59375
Q35.5938 12.2031 35.5938 20.2188
Q35.5938 23.6875 35.4688 26.0469
Q35.3594 28.4219 34.8125 30.6094
Q33.8906 34.125 31.5625 36.7656
Q29.25 39.4062 25.875 39.4062
Q22.5156 39.4062 20.0938 38.375
Q17.6719 37.3594 16.1562 35.9844
Q14.6562 34.625 13.4844 33.1094
Q12.3125 31.5938 12.0156 31.5
L10.8906 31.5
Q10.6406 31.5 10.2656 31.8125
Q9.90625 32.125 9.90625 32.4219
L9.90625 65.8281
Q9.90625 66.0625 10.2188 66.3281
Q10.5469 66.6094 10.8906 66.6094
L11.1875 66.6094
Q17.9219 63.375 25.4844 63.375
Q32.9062 63.375 39.7969 66.6094
L40.0938 66.6094
Q40.4375 66.6094 40.7188 66.3594
Q41.0156 66.1094 41.0156 65.8281
L41.0156 64.8906
Q41.0156 64.4062 40.8281 64.4062
Q37.4062 59.8594 32.25 57.3125
Q27.0938 54.7812 21.5781 54.7812
Q17.5781 54.7812 13.375 55.9062
L13.375 37.0156
Q16.7031 39.7031 19.3125 40.8438
Q21.9219 42 25.9844 42
Q31.5 42 35.8594 38.8125
Q40.2344 35.6406 42.5781 30.5312
Q44.9219 25.4375 44.9219 20.125
Q44.9219 14.1094 41.9688 8.98438
Q39.0156 3.85938 33.9375 0.828125
Q28.8594 -2.20312 22.9062 -2.20312
Q17.9688 -2.20312 13.8438 0.328125
Q9.71875 2.875 7.34375 7.17188
Q4.98438 11.4688 4.98438 16.3125
Q4.98438 18.5625 6.4375 19.9688
Q7.90625 21.3906 10.1094 21.3906
Q12.3125 21.3906 13.7969 19.9375
Q15.2812 18.5 15.2812 16.3125
Q15.2812 14.1562 13.7969 12.6719
Q12.3125 11.1875 10.1094 11.1875
Q9.76562 11.1875 9.32812 11.25
Q8.89062 11.3281 8.6875 11.375" id="Cmr10-35"/>
     </defs>
     <g transform="translate(397.846224375 45.3823771875)scale(0.09996 -0.09996)">
      <use transform="translate(0.0 0.6875)" xlink:href="#Cmmi10-4b"/>
      <use transform="translate(84.912109375 -24.821875)scale(0.7)" xlink:href="#Cmmi10-70"/>
      <use transform="translate(152.763671875 0.6875)" xlink:href="#Cmr10-3d"/>
      <use transform="translate(236.822265625 0.6875)" xlink:href="#Cmr10-35"/>
      <use transform="translate(286.822265625 0.6875)" xlink:href="#Cmr10-30"/>
      <use transform="translate(336.822265625 0.6875)" xlink:href="#Cmmi10-3b"/>
      <use transform="translate(366.490234375 0.6875)" xlink:href="#Cmmi10-4b"/>
      <use transform="translate(451.40234375 -24.821875)scale(0.7)" xlink:href="#Cmmi10-69"/>
      <use transform="translate(503.384765625 0.6875)" xlink:href="#Cmr10-3d"/>
      <use transform="translate(587.443359375 0.6875)" xlink:href="#Cmr10-31"/>
      <use transform="translate(637.443359375 0.6875)" xlink:href="#Cmr10-30"/>
      <use transform="translate(687.443359375 0.6875)" xlink:href="#Cmr10-30"/>
     </g>
    </g>
   </g>
  </g>
 </g>
 <defs>
  <clipPath id="pd0b0f375b4">
   <rect height="172.8" width="446.4" x="39.211104375" y="12.1987809375"/>
  </clipPath>
 </defs>
</svg>
