<?xml version="1.0" encoding="utf-8" standalone="no"?>
<!DOCTYPE svg PUBLIC "-//W3C//DTD SVG 1.1//EN"
  "http://www.w3.org/Graphics/SVG/1.1/DTD/svg11.dtd">
<!-- Created with matplotlib (http://matplotlib.org/) -->
<svg height="227pt" version="1.1" viewBox="0 0 389 227" width="389pt" xmlns="http://www.w3.org/2000/svg" xmlns:xlink="http://www.w3.org/1999/xlink">
 <defs>
  <style type="text/css">
*{stroke-linecap:butt;stroke-linejoin:round;}
  </style>
 </defs>
 <g id="figure_1">
  <g id="patch_1">
   <path d="
M-1.77636e-15 227.689
L389.305 227.689
L389.305 -2.84217e-14
L-1.77636e-15 -2.84217e-14
z
" style="fill:#ffffff;"/>
  </g>
  <g id="axes_1">
   <g id="patch_2">
    <path d="
M39.3079 190.595
L374.108 190.595
L374.108 17.7954
L39.3079 17.7954
z
" style="fill:#ffffff;"/>
   </g>
   <g id="line2d_1">
    <path clip-path="url(#p6478e51d82)" d="
M117.313 184.128
L150.908 172.119
L184.503 145.34
L218.098 126.708
L251.693 105.482
L285.288 71.9224
L318.883 30.5151" style="fill:none;stroke:#348abd;stroke-linecap:square;stroke-width:2.0;"/>
    <defs>
     <path d="
M0 3
C0.795609 3 1.55874 2.6839 2.12132 2.12132
C2.6839 1.55874 3 0.795609 3 0
C3 -0.795609 2.6839 -1.55874 2.12132 -2.12132
C1.55874 -2.6839 0.795609 -3 0 -3
C-0.795609 -3 -1.55874 -2.6839 -2.12132 -2.12132
C-2.6839 -1.55874 -3 -0.795609 -3 0
C-3 0.795609 -2.6839 1.55874 -2.12132 2.12132
C-1.55874 2.6839 -0.795609 3 0 3
z
" id="m8c6fd4390b" style="stroke:#000000;stroke-width:0.5;"/>
    </defs>
    <g clip-path="url(#p6478e51d82)">
     <use style="fill:#348abd;stroke:#000000;stroke-width:0.5;" x="117.312993109" xlink:href="#m8c6fd4390b" y="184.12795495"/>
     <use style="fill:#348abd;stroke:#000000;stroke-width:0.5;" x="150.907940625" xlink:href="#m8c6fd4390b" y="172.118566568"/>
     <use style="fill:#348abd;stroke:#000000;stroke-width:0.5;" x="184.502888141" xlink:href="#m8c6fd4390b" y="145.339777046"/>
     <use style="fill:#348abd;stroke:#000000;stroke-width:0.5;" x="218.097835657" xlink:href="#m8c6fd4390b" y="126.707864283"/>
     <use style="fill:#348abd;stroke:#000000;stroke-width:0.5;" x="251.692783173" xlink:href="#m8c6fd4390b" y="105.481707885"/>
     <use style="fill:#348abd;stroke:#000000;stroke-width:0.5;" x="285.287730689" xlink:href="#m8c6fd4390b" y="71.9223570449"/>
     <use style="fill:#348abd;stroke:#000000;stroke-width:0.5;" x="318.882678206" xlink:href="#m8c6fd4390b" y="30.5151014683"/>
    </g>
   </g>
   <g id="patch_3">
    <path d="
M39.3079 17.7954
L374.108 17.7954" style="fill:none;stroke:#000000;stroke-linecap:square;stroke-linejoin:miter;"/>
   </g>
   <g id="patch_4">
    <path d="
M374.108 190.595
L374.108 17.7954" style="fill:none;stroke:#000000;stroke-linecap:square;stroke-linejoin:miter;"/>
   </g>
   <g id="patch_5">
    <path d="
M39.3079 190.595
L374.108 190.595" style="fill:none;stroke:#000000;stroke-linecap:square;stroke-linejoin:miter;"/>
   </g>
   <g id="patch_6">
    <path d="
M39.3079 190.595
L39.3079 17.7954" style="fill:none;stroke:#000000;stroke-linecap:square;stroke-linejoin:miter;"/>
   </g>
   <g id="matplotlib.axis_1">
    <g id="xtick_1">
     <g id="line2d_2">
      <defs>
       <path d="
M0 0
L0 -4" id="m93b0483c22" style="stroke:#000000;stroke-width:0.5;"/>
      </defs>
      <g>
       <use style="stroke:#000000;stroke-width:0.5;" x="39.307940625" xlink:href="#m93b0483c22" y="190.595398125"/>
      </g>
     </g>
     <g id="line2d_3">
      <defs>
       <path d="
M0 0
L0 4" id="m741efc42ff" style="stroke:#000000;stroke-width:0.5;"/>
      </defs>
      <g>
       <use style="stroke:#000000;stroke-width:0.5;" x="39.307940625" xlink:href="#m741efc42ff" y="17.795398125"/>
      </g>
     </g>
     <g id="text_1">
      <!-- $\mathdefault{10^{3}}$ -->
      <defs>
       <path d="
M46.9219 54.6875
Q46.9219 51.125 45.7969 48.1875
Q44.6719 45.2656 42.6406 43.1094
Q40.625 40.9688 37.7969 39.5781
Q34.9688 38.1875 31.5 37.5938
L31.5 37.3125
Q40.1406 36.2344 44.625 31.8125
Q49.125 27.3906 49.125 20.3125
Q49.125 15.625 47.5312 11.7188
Q45.9531 7.8125 42.7188 4.98438
Q39.5 2.15625 34.5625 0.578125
Q29.6406 -0.984375 22.9062 -0.984375
Q17.5781 -0.984375 12.8594 -0.140625
Q8.15625 0.6875 4 2.875
L4 11.1875
Q8.25 8.9375 13.2031 7.71875
Q18.1719 6.5 22.7031 6.5
Q27.2031 6.5 30.4688 7.46875
Q33.7344 8.45312 35.8594 10.25
Q37.9844 12.0625 38.9844 14.6875
Q39.9844 17.3281 39.9844 20.6094
Q39.9844 23.9219 38.6875 26.2812
Q37.4062 28.6562 35.0156 30.1875
Q32.625 31.7344 29.1719 32.4688
Q25.7344 33.2031 21.3906 33.2031
L14.8906 33.2031
L14.8906 40.5781
L21.3906 40.5781
Q25.3438 40.5781 28.4219 41.5469
Q31.5 42.5312 33.5625 44.3281
Q35.6406 46.1406 36.7188 48.625
Q37.7969 51.125 37.7969 54.1094
Q37.7969 56.6406 36.9062 58.6406
Q36.0312 60.6406 34.4219 62.0312
Q32.8125 63.4219 30.5625 64.1562
Q28.3281 64.8906 25.5938 64.8906
Q20.3594 64.8906 16.375 63.25
Q12.4062 61.625 8.79688 58.9844
L4.29688 65.0938
Q6.15625 66.6094 8.42188 67.9219
Q10.6875 69.2344 13.375 70.2344
Q16.0625 71.2344 19.1094 71.8125
Q22.1719 72.4062 25.5938 72.4062
Q30.8594 72.4062 34.8281 71.0938
Q38.8125 69.7812 41.5 67.4062
Q44.1875 65.0469 45.5469 61.7969
Q46.9219 58.5469 46.9219 54.6875" id="WenQuanYiMicroHei-33"/>
       <path d="
M34.7188 0
L26.125 0
L26.125 44.5781
Q26.125 46.6875 26.1406 49.0781
Q26.1719 51.4688 26.2344 53.8281
Q26.3125 56.2031 26.3906 58.375
Q26.4688 60.5469 26.5156 62.2031
Q25.6875 61.3281 25.0469 60.6875
Q24.4219 60.0625 23.75 59.4688
Q23.0938 58.8906 22.3594 58.2188
Q21.625 57.5625 20.6094 56.6875
L13.375 50.7812
L8.6875 56.7812
L27.3906 71.3906
L34.7188 71.3906
z
" id="WenQuanYiMicroHei-31"/>
       <path d="
M50.3906 35.7969
Q50.3906 27.1562 49.1406 20.3125
Q47.9062 13.4844 45.1406 8.73438
Q42.3906 4 38.0312 1.5
Q33.6875 -0.984375 27.4844 -0.984375
Q21.7344 -0.984375 17.4531 1.5
Q13.1875 4 10.375 8.73438
Q7.5625 13.4844 6.17188 20.3125
Q4.78125 27.1562 4.78125 35.7969
Q4.78125 44.4375 6.03125 51.2656
Q7.28125 58.1094 9.98438 62.8125
Q12.7031 67.5312 17.0156 70.0156
Q21.3438 72.5156 27.4844 72.5156
Q33.2969 72.5156 37.5938 70.0469
Q41.8906 67.5781 44.7188 62.8594
Q47.5625 58.1562 48.9688 51.3125
Q50.3906 44.4844 50.3906 35.7969
M13.8125 35.7969
Q13.8125 28.4688 14.5469 23
Q15.2812 17.5312 16.8906 13.8906
Q18.5 10.25 21.1094 8.42188
Q23.7344 6.59375 27.4844 6.59375
Q31.25 6.59375 33.8906 8.39062
Q36.5312 10.2031 38.2031 13.8125
Q39.8906 17.4375 40.6406 22.9219
Q41.4062 28.4219 41.4062 35.7969
Q41.4062 43.1094 40.6406 48.5781
Q39.8906 54.0469 38.2031 57.6562
Q36.5312 61.2812 33.8906 63.0781
Q31.25 64.8906 27.4844 64.8906
Q23.7344 64.8906 21.1094 63.0781
Q18.5 61.2812 16.8906 57.6562
Q15.2812 54.0469 14.5469 48.5781
Q13.8125 43.1094 13.8125 35.7969" id="WenQuanYiMicroHei-30"/>
      </defs>
      <g transform="translate(31.311140625 203.088874375)scale(0.09996 -0.09996)">
       <use transform="translate(0.0 0.8828125)" xlink:href="#WenQuanYiMicroHei-31"/>
       <use transform="translate(55.078125 0.8828125)" xlink:href="#WenQuanYiMicroHei-30"/>
       <use transform="translate(110.15625 57.315625)scale(0.7)" xlink:href="#WenQuanYiMicroHei-33"/>
      </g>
     </g>
    </g>
    <g id="xtick_2">
     <g id="line2d_4">
      <g>
       <use style="stroke:#000000;stroke-width:0.5;" x="150.907940625" xlink:href="#m93b0483c22" y="190.595398125"/>
      </g>
     </g>
     <g id="line2d_5">
      <g>
       <use style="stroke:#000000;stroke-width:0.5;" x="150.907940625" xlink:href="#m741efc42ff" y="17.795398125"/>
      </g>
     </g>
     <g id="text_2">
      <!-- $\mathdefault{10^{4}}$ -->
      <defs>
       <path d="
M53.0781 16.0156
L42.6719 16.0156
L42.6719 0
L34.0781 0
L34.0781 16.0156
L1.125 16.0156
L1.125 23.7812
L33.5 71.7812
L42.6719 71.7812
L42.6719 24.125
L53.0781 24.125
z

M34.0781 24.125
L34.0781 41.5
Q34.0781 44.2344 34.1562 47.2344
Q34.2344 50.25 34.3281 53.0938
Q34.4219 55.9531 34.5469 58.4375
Q34.6719 60.9375 34.7188 62.5938
L34.2812 62.5938
Q33.9375 61.625 33.4219 60.4219
Q32.9062 59.2344 32.2969 58.0312
Q31.6875 56.8438 31.0469 55.7188
Q30.4219 54.5938 29.8906 53.8125
L9.8125 24.125
z
" id="WenQuanYiMicroHei-34"/>
      </defs>
      <g transform="translate(142.911140625 202.988914375)scale(0.09996 -0.09996)">
       <use transform="translate(0.0 0.3203125)" xlink:href="#WenQuanYiMicroHei-31"/>
       <use transform="translate(55.078125 0.3203125)" xlink:href="#WenQuanYiMicroHei-30"/>
       <use transform="translate(110.15625 56.753125)scale(0.7)" xlink:href="#WenQuanYiMicroHei-34"/>
      </g>
     </g>
    </g>
    <g id="xtick_3">
     <g id="line2d_6">
      <g>
       <use style="stroke:#000000;stroke-width:0.5;" x="262.507940625" xlink:href="#m93b0483c22" y="190.595398125"/>
      </g>
     </g>
     <g id="line2d_7">
      <g>
       <use style="stroke:#000000;stroke-width:0.5;" x="262.507940625" xlink:href="#m741efc42ff" y="17.795398125"/>
      </g>
     </g>
     <g id="text_3">
      <!-- $\mathdefault{10^{5}}$ -->
      <defs>
       <path d="
M26.6094 43.7969
Q31.4531 43.7969 35.625 42.4531
Q39.7969 41.1094 42.8906 38.4688
Q46 35.8438 47.75 31.9375
Q49.5156 28.0312 49.5156 22.9062
Q49.5156 17.3281 47.8438 12.8906
Q46.1875 8.45312 42.9219 5.375
Q39.6562 2.29688 34.8438 0.65625
Q30.0312 -0.984375 23.7812 -0.984375
Q21.2969 -0.984375 18.875 -0.734375
Q16.4531 -0.484375 14.2344 -0.015625
Q12.0156 0.4375 10.0156 1.17188
Q8.01562 1.90625 6.39062 2.875
L6.39062 11.2812
Q8.01562 10.1562 10.1875 9.28125
Q12.3594 8.40625 14.75 7.8125
Q17.1406 7.23438 19.5469 6.90625
Q21.9688 6.59375 24.0312 6.59375
Q27.875 6.59375 30.9062 7.5
Q33.9375 8.40625 36.0312 10.2969
Q38.1406 12.2031 39.25 15.0781
Q40.375 17.9688 40.375 21.9219
Q40.375 28.9062 36.0781 32.5938
Q31.7812 36.2812 23.5781 36.2812
Q22.2656 36.2812 20.7188 36.1562
Q19.1875 36.0312 17.6406 35.8281
Q16.1094 35.6406 14.7188 35.4219
Q13.3281 35.2031 12.3125 35.0156
L7.90625 37.7969
L10.5938 71.3906
L44.2812 71.3906
L44.2812 63.2812
L18.3125 63.2812
L16.4062 42.8281
Q17.9688 43.1094 20.5312 43.4531
Q23.0938 43.7969 26.6094 43.7969" id="WenQuanYiMicroHei-35"/>
      </defs>
      <g transform="translate(254.511140625 202.988914375)scale(0.09996 -0.09996)">
       <use transform="translate(0.0 0.59375)" xlink:href="#WenQuanYiMicroHei-31"/>
       <use transform="translate(55.078125 0.59375)" xlink:href="#WenQuanYiMicroHei-30"/>
       <use transform="translate(110.15625 57.0265625)scale(0.7)" xlink:href="#WenQuanYiMicroHei-35"/>
      </g>
     </g>
    </g>
    <g id="xtick_4">
     <g id="line2d_8">
      <g>
       <use style="stroke:#000000;stroke-width:0.5;" x="374.107940625" xlink:href="#m93b0483c22" y="190.595398125"/>
      </g>
     </g>
     <g id="line2d_9">
      <g>
       <use style="stroke:#000000;stroke-width:0.5;" x="374.107940625" xlink:href="#m741efc42ff" y="17.795398125"/>
      </g>
     </g>
     <g id="text_4">
      <!-- $\mathdefault{10^{6}}$ -->
      <defs>
       <path d="
M5.51562 30.5156
Q5.51562 35.6406 6.03125 40.7188
Q6.54688 45.7969 7.82812 50.4531
Q9.125 55.125 11.375 59.125
Q13.625 63.1406 17.0938 66.0938
Q20.5625 69.0469 25.3906 70.7188
Q30.2188 72.4062 36.7188 72.4062
Q37.6406 72.4062 38.7656 72.3594
Q39.8906 72.3125 41.0312 72.1875
Q42.1875 72.0781 43.2344 71.9062
Q44.2812 71.7344 45.125 71.4844
L45.125 63.9219
Q43.4062 64.5 41.25 64.7969
Q39.1094 65.0938 37.0156 65.0938
Q32.625 65.0938 29.2656 64.0312
Q25.9219 62.9844 23.4844 61.0781
Q21.0469 59.1875 19.4062 56.5469
Q17.7812 53.9062 16.75 50.7031
Q15.7188 47.5156 15.2344 43.8906
Q14.75 40.2812 14.5938 36.375
L15.1875 36.375
Q16.1562 38.1406 17.5469 39.6719
Q18.9531 41.2188 20.7969 42.3125
Q22.6562 43.4062 24.9688 44.0312
Q27.2969 44.6719 30.1719 44.6719
Q34.8125 44.6719 38.5625 43.2344
Q42.3281 41.7969 44.9688 39.0156
Q47.6094 36.2344 49.0469 32.2031
Q50.4844 28.1719 50.4844 23
Q50.4844 17.4375 48.9688 12.9844
Q47.4688 8.54688 44.625 5.4375
Q41.7969 2.34375 37.7969 0.671875
Q33.7969 -0.984375 28.8125 -0.984375
Q23.9219 -0.984375 19.6406 0.921875
Q15.375 2.82812 12.25 6.73438
Q9.125 10.6406 7.3125 16.5469
Q5.51562 22.4688 5.51562 30.5156
M28.7188 6.5
Q31.6406 6.5 34.0469 7.5
Q36.4688 8.5 38.2188 10.5156
Q39.9844 12.5469 40.9375 15.6406
Q41.8906 18.75 41.8906 23
Q41.8906 26.4219 41.0781 29.125
Q40.2812 31.8438 38.6719 33.7344
Q37.0625 35.6406 34.6406 36.6719
Q32.2344 37.7031 29 37.7031
Q25.7344 37.7031 23.0156 36.5469
Q20.3125 35.4062 18.4062 33.5625
Q16.5 31.7344 15.4531 29.3906
Q14.4062 27.0469 14.4062 24.7031
Q14.4062 21.4375 15.3125 18.1875
Q16.2188 14.9375 18 12.3438
Q19.7812 9.76562 22.4531 8.125
Q25.1406 6.5 28.7188 6.5" id="WenQuanYiMicroHei-36"/>
      </defs>
      <g transform="translate(366.111140625 203.088874375)scale(0.09996 -0.09996)">
       <use transform="translate(0.0 0.8828125)" xlink:href="#WenQuanYiMicroHei-31"/>
       <use transform="translate(55.078125 0.8828125)" xlink:href="#WenQuanYiMicroHei-30"/>
       <use transform="translate(110.15625 57.315625)scale(0.7)" xlink:href="#WenQuanYiMicroHei-36"/>
      </g>
     </g>
    </g>
    <g id="xtick_5">
     <g id="line2d_10">
      <defs>
       <path d="
M0 0
L0 -2" id="m177f7580d0" style="stroke:#000000;stroke-width:0.5;"/>
      </defs>
      <g>
       <use style="stroke:#000000;stroke-width:0.5;" x="72.9028881411" xlink:href="#m177f7580d0" y="190.595398125"/>
      </g>
     </g>
     <g id="line2d_11">
      <defs>
       <path d="
M0 0
L0 2" id="m5284c7e2a0" style="stroke:#000000;stroke-width:0.5;"/>
      </defs>
      <g>
       <use style="stroke:#000000;stroke-width:0.5;" x="72.9028881411" xlink:href="#m5284c7e2a0" y="17.795398125"/>
      </g>
     </g>
    </g>
    <g id="xtick_6">
     <g id="line2d_12">
      <g>
       <use style="stroke:#000000;stroke-width:0.5;" x="92.5546726517" xlink:href="#m177f7580d0" y="190.595398125"/>
      </g>
     </g>
     <g id="line2d_13">
      <g>
       <use style="stroke:#000000;stroke-width:0.5;" x="92.5546726517" xlink:href="#m5284c7e2a0" y="17.795398125"/>
      </g>
     </g>
    </g>
    <g id="xtick_7">
     <g id="line2d_14">
      <g>
       <use style="stroke:#000000;stroke-width:0.5;" x="106.497835657" xlink:href="#m177f7580d0" y="190.595398125"/>
      </g>
     </g>
     <g id="line2d_15">
      <g>
       <use style="stroke:#000000;stroke-width:0.5;" x="106.497835657" xlink:href="#m5284c7e2a0" y="17.795398125"/>
      </g>
     </g>
    </g>
    <g id="xtick_8">
     <g id="line2d_16">
      <g>
       <use style="stroke:#000000;stroke-width:0.5;" x="117.312993109" xlink:href="#m177f7580d0" y="190.595398125"/>
      </g>
     </g>
     <g id="line2d_17">
      <g>
       <use style="stroke:#000000;stroke-width:0.5;" x="117.312993109" xlink:href="#m5284c7e2a0" y="17.795398125"/>
      </g>
     </g>
    </g>
    <g id="xtick_9">
     <g id="line2d_18">
      <g>
       <use style="stroke:#000000;stroke-width:0.5;" x="126.149620168" xlink:href="#m177f7580d0" y="190.595398125"/>
      </g>
     </g>
     <g id="line2d_19">
      <g>
       <use style="stroke:#000000;stroke-width:0.5;" x="126.149620168" xlink:href="#m5284c7e2a0" y="17.795398125"/>
      </g>
     </g>
    </g>
    <g id="xtick_10">
     <g id="line2d_20">
      <g>
       <use style="stroke:#000000;stroke-width:0.5;" x="133.620881891" xlink:href="#m177f7580d0" y="190.595398125"/>
      </g>
     </g>
     <g id="line2d_21">
      <g>
       <use style="stroke:#000000;stroke-width:0.5;" x="133.620881891" xlink:href="#m5284c7e2a0" y="17.795398125"/>
      </g>
     </g>
    </g>
    <g id="xtick_11">
     <g id="line2d_22">
      <g>
       <use style="stroke:#000000;stroke-width:0.5;" x="140.092783173" xlink:href="#m177f7580d0" y="190.595398125"/>
      </g>
     </g>
     <g id="line2d_23">
      <g>
       <use style="stroke:#000000;stroke-width:0.5;" x="140.092783173" xlink:href="#m5284c7e2a0" y="17.795398125"/>
      </g>
     </g>
    </g>
    <g id="xtick_12">
     <g id="line2d_24">
      <g>
       <use style="stroke:#000000;stroke-width:0.5;" x="145.801404678" xlink:href="#m177f7580d0" y="190.595398125"/>
      </g>
     </g>
     <g id="line2d_25">
      <g>
       <use style="stroke:#000000;stroke-width:0.5;" x="145.801404678" xlink:href="#m5284c7e2a0" y="17.795398125"/>
      </g>
     </g>
    </g>
    <g id="xtick_13">
     <g id="line2d_26">
      <g>
       <use style="stroke:#000000;stroke-width:0.5;" x="184.502888141" xlink:href="#m177f7580d0" y="190.595398125"/>
      </g>
     </g>
     <g id="line2d_27">
      <g>
       <use style="stroke:#000000;stroke-width:0.5;" x="184.502888141" xlink:href="#m5284c7e2a0" y="17.795398125"/>
      </g>
     </g>
    </g>
    <g id="xtick_14">
     <g id="line2d_28">
      <g>
       <use style="stroke:#000000;stroke-width:0.5;" x="204.154672652" xlink:href="#m177f7580d0" y="190.595398125"/>
      </g>
     </g>
     <g id="line2d_29">
      <g>
       <use style="stroke:#000000;stroke-width:0.5;" x="204.154672652" xlink:href="#m5284c7e2a0" y="17.795398125"/>
      </g>
     </g>
    </g>
    <g id="xtick_15">
     <g id="line2d_30">
      <g>
       <use style="stroke:#000000;stroke-width:0.5;" x="218.097835657" xlink:href="#m177f7580d0" y="190.595398125"/>
      </g>
     </g>
     <g id="line2d_31">
      <g>
       <use style="stroke:#000000;stroke-width:0.5;" x="218.097835657" xlink:href="#m5284c7e2a0" y="17.795398125"/>
      </g>
     </g>
    </g>
    <g id="xtick_16">
     <g id="line2d_32">
      <g>
       <use style="stroke:#000000;stroke-width:0.5;" x="228.912993109" xlink:href="#m177f7580d0" y="190.595398125"/>
      </g>
     </g>
     <g id="line2d_33">
      <g>
       <use style="stroke:#000000;stroke-width:0.5;" x="228.912993109" xlink:href="#m5284c7e2a0" y="17.795398125"/>
      </g>
     </g>
    </g>
    <g id="xtick_17">
     <g id="line2d_34">
      <g>
       <use style="stroke:#000000;stroke-width:0.5;" x="237.749620168" xlink:href="#m177f7580d0" y="190.595398125"/>
      </g>
     </g>
     <g id="line2d_35">
      <g>
       <use style="stroke:#000000;stroke-width:0.5;" x="237.749620168" xlink:href="#m5284c7e2a0" y="17.795398125"/>
      </g>
     </g>
    </g>
    <g id="xtick_18">
     <g id="line2d_36">
      <g>
       <use style="stroke:#000000;stroke-width:0.5;" x="245.220881891" xlink:href="#m177f7580d0" y="190.595398125"/>
      </g>
     </g>
     <g id="line2d_37">
      <g>
       <use style="stroke:#000000;stroke-width:0.5;" x="245.220881891" xlink:href="#m5284c7e2a0" y="17.795398125"/>
      </g>
     </g>
    </g>
    <g id="xtick_19">
     <g id="line2d_38">
      <g>
       <use style="stroke:#000000;stroke-width:0.5;" x="251.692783173" xlink:href="#m177f7580d0" y="190.595398125"/>
      </g>
     </g>
     <g id="line2d_39">
      <g>
       <use style="stroke:#000000;stroke-width:0.5;" x="251.692783173" xlink:href="#m5284c7e2a0" y="17.795398125"/>
      </g>
     </g>
    </g>
    <g id="xtick_20">
     <g id="line2d_40">
      <g>
       <use style="stroke:#000000;stroke-width:0.5;" x="257.401404678" xlink:href="#m177f7580d0" y="190.595398125"/>
      </g>
     </g>
     <g id="line2d_41">
      <g>
       <use style="stroke:#000000;stroke-width:0.5;" x="257.401404678" xlink:href="#m5284c7e2a0" y="17.795398125"/>
      </g>
     </g>
    </g>
    <g id="xtick_21">
     <g id="line2d_42">
      <g>
       <use style="stroke:#000000;stroke-width:0.5;" x="296.102888141" xlink:href="#m177f7580d0" y="190.595398125"/>
      </g>
     </g>
     <g id="line2d_43">
      <g>
       <use style="stroke:#000000;stroke-width:0.5;" x="296.102888141" xlink:href="#m5284c7e2a0" y="17.795398125"/>
      </g>
     </g>
    </g>
    <g id="xtick_22">
     <g id="line2d_44">
      <g>
       <use style="stroke:#000000;stroke-width:0.5;" x="315.754672652" xlink:href="#m177f7580d0" y="190.595398125"/>
      </g>
     </g>
     <g id="line2d_45">
      <g>
       <use style="stroke:#000000;stroke-width:0.5;" x="315.754672652" xlink:href="#m5284c7e2a0" y="17.795398125"/>
      </g>
     </g>
    </g>
    <g id="xtick_23">
     <g id="line2d_46">
      <g>
       <use style="stroke:#000000;stroke-width:0.5;" x="329.697835657" xlink:href="#m177f7580d0" y="190.595398125"/>
      </g>
     </g>
     <g id="line2d_47">
      <g>
       <use style="stroke:#000000;stroke-width:0.5;" x="329.697835657" xlink:href="#m5284c7e2a0" y="17.795398125"/>
      </g>
     </g>
    </g>
    <g id="xtick_24">
     <g id="line2d_48">
      <g>
       <use style="stroke:#000000;stroke-width:0.5;" x="340.512993109" xlink:href="#m177f7580d0" y="190.595398125"/>
      </g>
     </g>
     <g id="line2d_49">
      <g>
       <use style="stroke:#000000;stroke-width:0.5;" x="340.512993109" xlink:href="#m5284c7e2a0" y="17.795398125"/>
      </g>
     </g>
    </g>
    <g id="xtick_25">
     <g id="line2d_50">
      <g>
       <use style="stroke:#000000;stroke-width:0.5;" x="349.349620168" xlink:href="#m177f7580d0" y="190.595398125"/>
      </g>
     </g>
     <g id="line2d_51">
      <g>
       <use style="stroke:#000000;stroke-width:0.5;" x="349.349620168" xlink:href="#m5284c7e2a0" y="17.795398125"/>
      </g>
     </g>
    </g>
    <g id="xtick_26">
     <g id="line2d_52">
      <g>
       <use style="stroke:#000000;stroke-width:0.5;" x="356.820881891" xlink:href="#m177f7580d0" y="190.595398125"/>
      </g>
     </g>
     <g id="line2d_53">
      <g>
       <use style="stroke:#000000;stroke-width:0.5;" x="356.820881891" xlink:href="#m5284c7e2a0" y="17.795398125"/>
      </g>
     </g>
    </g>
    <g id="xtick_27">
     <g id="line2d_54">
      <g>
       <use style="stroke:#000000;stroke-width:0.5;" x="363.292783173" xlink:href="#m177f7580d0" y="190.595398125"/>
      </g>
     </g>
     <g id="line2d_55">
      <g>
       <use style="stroke:#000000;stroke-width:0.5;" x="363.292783173" xlink:href="#m5284c7e2a0" y="17.795398125"/>
      </g>
     </g>
    </g>
    <g id="xtick_28">
     <g id="line2d_56">
      <g>
       <use style="stroke:#000000;stroke-width:0.5;" x="369.001404678" xlink:href="#m177f7580d0" y="190.595398125"/>
      </g>
     </g>
     <g id="line2d_57">
      <g>
       <use style="stroke:#000000;stroke-width:0.5;" x="369.001404678" xlink:href="#m5284c7e2a0" y="17.795398125"/>
      </g>
     </g>
    </g>
    <g id="text_5">
     <!-- 数组大小 -->
     <defs>
      <path d="
M33.2031 65.2344
L40.2344 62.5
Q30.4688 41.7969 17.9688 27.7344
Q27.7344 30.0781 35.9375 32.8125
L37.8906 26.5625
Q24.6094 21.4844 8.20312 18.75
L5.85938 25.3906
Q14.4531 33.5938 22.2656 46.0938
Q15.625 44.5312 8.20312 43.75
L6.64062 51.1719
Q15.625 62.1094 21.4844 80.8594
L28.9062 78.5156
Q23.4375 62.1094 15.2344 51.5625
Q21.4844 51.9531 26.5625 52.7344
z

M37.8906 15.2344
L39.4531 8.20312
Q25.3906 3.125 8.20312 -0.78125
L5.07812 7.42188
Q23.4375 10.9375 37.8906 15.2344
M88.2812 77.3438
L88.2812 1.95312
L95.7031 1.95312
L95.7031 -5.46875
L39.4531 -5.46875
L39.4531 1.95312
L48.0469 1.95312
L48.0469 77.3438
z

M55.4688 51.9531
L80.8594 51.9531
L80.8594 70.3125
L55.4688 70.3125
z

M55.4688 26.9531
L80.8594 26.9531
L80.8594 45.3125
L55.4688 45.3125
z

M55.4688 1.95312
L80.8594 1.95312
L80.8594 19.9219
L55.4688 19.9219
z
" id="WenQuanYiMicroHei-7ec4"/>
      <path d="
M47.2656 80.8594
L55.0781 80.8594
L55.0781 0.78125
Q55.0781 -4.6875 53.125 -6.82812
Q51.1719 -8.98438 44.5312 -8.98438
Q35.9375 -8.98438 28.5156 -7.42188
L26.9531 0.390625
Q35.9375 -1.5625 44.5312 -1.5625
Q47.2656 -1.5625 47.2656 1.95312
z

M24.6094 61.7188
L32.0312 58.9844
Q25 29.6875 14.0625 8.98438
L6.25 14.0625
Q18.3594 35.1562 24.6094 61.7188
M75.7812 61.7188
Q87.1094 39.4531 94.9219 13.2812
L86.3281 9.375
Q79.2969 36.7188 68.3594 58.5938
z
" id="WenQuanYiMicroHei-5c0f"/>
      <path d="
M66.7969 64.4531
L92.9688 64.4531
L92.9688 57.0312
L88.6719 57.0312
Q86.3281 29.6875 77.7344 15.625
Q84.7656 6.25 95.7031 -1.5625
L89.8438 -8.98438
Q80.8594 -1.5625 73.0469 8.59375
Q65.2344 -1.95312 53.9062 -9.375
L48.4375 -2.34375
Q60.1562 4.6875 67.9688 16.0156
Q62.5 25.3906 57.8125 37.1094
L54.6875 30.4688
L48.4375 35.1562
Q58.2031 55.8594 62.5 80.8594
L70.3125 78.5156
Q68.75 71.0938 66.7969 64.4531
M80.8594 57.0312
L64.8438 57.0312
Q64.4531 55.0781 62.1094 48.0469
Q66.7969 33.9844 72.6562 23.8281
Q77.7344 34.7656 80.0781 50.3906
L80.0781 50.7812
z

M7.03125 64.0625
L27.3438 64.0625
L27.3438 80.4688
L34.375 80.4688
L34.375 64.0625
L53.125 64.0625
L53.125 57.4219
L34.375 57.4219
L34.375 39.4531
L27.3438 39.4531
L27.3438 51.5625
Q20.7031 42.1875 11.7188 36.3281
L6.64062 42.5781
Q16.4062 47.6562 23.8281 57.4219
L7.03125 57.4219
z

M16.4062 78.9062
Q19.5312 74.2188 21.4844 68.3594
L15.2344 65.2344
Q13.2812 71.0938 10.5469 76.1719
z

M45.3125 78.9062
L51.1719 76.1719
Q47.6562 69.5312 43.75 66.0156
L38.6719 70.7031
Q42.5781 74.2188 45.3125 78.9062
M42.5781 53.9062
Q46.875 49.2188 49.6094 44.1406
L43.75 40.625
Q41.4062 46.0938 37.1094 50.7812
z

M6.64062 31.25
L21.875 31.25
Q23.4375 34.375 24.6094 37.5
L32.0312 36.7188
L29.6875 31.25
L47.2656 31.25
L47.2656 24.6094
Q42.5781 14.4531 35.9375 7.42188
Q42.5781 3.51562 48.0469 0
L43.3594 -7.03125
Q38.2812 -2.73438 30.0781 1.95312
Q21.875 -5.07812 8.20312 -9.375
L5.85938 -2.73438
Q16.0156 0.390625 23.4375 5.46875
Q17.1875 8.98438 9.76562 12.5
Q14.4531 18.75 17.9688 24.6094
L6.64062 24.6094
z

M26.1719 24.6094
Q23.4375 19.5312 20.3125 15.625
L29.6875 10.9375
Q35.5469 17.1875 39.0625 24.6094
z
" id="WenQuanYiMicroHei-6570"/>
      <path d="
M8.59375 57.8125
L44.9219 57.8125
L44.9219 80.4688
L53.5156 80.4688
L53.5156 57.8125
L91.7969 57.8125
L91.7969 50
L55.0781 50
Q65.625 12.8906 96.0938 -0.390625
L91.7969 -8.98438
Q64.0625 3.90625 51.1719 37.8906
Q42.5781 9.375 8.59375 -8.98438
L4.29688 -1.5625
Q42.1875 19.9219 44.5312 50
L8.59375 50
z
" id="WenQuanYiMicroHei-5927"/>
     </defs>
     <g transform="translate(187.262596875 218.08643625)scale(0.09996 -0.09996)">
      <use xlink:href="#WenQuanYiMicroHei-6570"/>
      <use x="100.0" xlink:href="#WenQuanYiMicroHei-7ec4"/>
      <use x="200.0" xlink:href="#WenQuanYiMicroHei-5927"/>
      <use x="300.0" xlink:href="#WenQuanYiMicroHei-5c0f"/>
     </g>
    </g>
   </g>
   <g id="matplotlib.axis_2">
    <g id="ytick_1">
     <g id="line2d_58">
      <defs>
       <path d="
M0 0
L4 0" id="m728421d6d4" style="stroke:#000000;stroke-width:0.5;"/>
      </defs>
      <g>
       <use style="stroke:#000000;stroke-width:0.5;" x="39.307940625" xlink:href="#m728421d6d4" y="190.595398125"/>
      </g>
     </g>
     <g id="line2d_59">
      <defs>
       <path d="
M0 0
L-4 0" id="mcb0005524f" style="stroke:#000000;stroke-width:0.5;"/>
      </defs>
      <g>
       <use style="stroke:#000000;stroke-width:0.5;" x="374.107940625" xlink:href="#mcb0005524f" y="190.595398125"/>
      </g>
     </g>
     <g id="text_6">
      <!-- 3.0 -->
      <defs>
       <path d="
M7.17188 5.42188
Q7.17188 7.28125 7.65625 8.5625
Q8.15625 9.85938 8.98438 10.6562
Q9.8125 11.4688 10.9375 11.8281
Q12.0625 12.2031 13.375 12.2031
Q14.6562 12.2031 15.7969 11.8281
Q16.9375 11.4688 17.7656 10.6562
Q18.6094 9.85938 19.0938 8.5625
Q19.5781 7.28125 19.5781 5.42188
Q19.5781 3.60938 19.0938 2.3125
Q18.6094 1.03125 17.7656 0.1875
Q16.9375 -0.640625 15.7969 -1.03125
Q14.6562 -1.42188 13.375 -1.42188
Q12.0625 -1.42188 10.9375 -1.03125
Q9.8125 -0.640625 8.98438 0.1875
Q8.15625 1.03125 7.65625 2.3125
Q7.17188 3.60938 7.17188 5.42188" id="WenQuanYiMicroHei-2e"/>
      </defs>
      <g transform="translate(22.484946875 193.192015312)scale(0.09996 -0.09996)">
       <use xlink:href="#WenQuanYiMicroHei-33"/>
       <use x="55.078125" xlink:href="#WenQuanYiMicroHei-2e"/>
       <use x="81.884765625" xlink:href="#WenQuanYiMicroHei-30"/>
      </g>
     </g>
    </g>
    <g id="ytick_2">
     <g id="line2d_60">
      <g>
       <use style="stroke:#000000;stroke-width:0.5;" x="39.307940625" xlink:href="#m728421d6d4" y="161.795398125"/>
      </g>
     </g>
     <g id="line2d_61">
      <g>
       <use style="stroke:#000000;stroke-width:0.5;" x="374.107940625" xlink:href="#mcb0005524f" y="161.795398125"/>
      </g>
     </g>
     <g id="text_7">
      <!-- 3.5 -->
      <g transform="translate(22.572411875 164.392015313)scale(0.09996 -0.09996)">
       <use xlink:href="#WenQuanYiMicroHei-33"/>
       <use x="55.078125" xlink:href="#WenQuanYiMicroHei-2e"/>
       <use x="81.884765625" xlink:href="#WenQuanYiMicroHei-35"/>
      </g>
     </g>
    </g>
    <g id="ytick_3">
     <g id="line2d_62">
      <g>
       <use style="stroke:#000000;stroke-width:0.5;" x="39.307940625" xlink:href="#m728421d6d4" y="132.995398125"/>
      </g>
     </g>
     <g id="line2d_63">
      <g>
       <use style="stroke:#000000;stroke-width:0.5;" x="374.107940625" xlink:href="#mcb0005524f" y="132.995398125"/>
      </g>
     </g>
     <g id="text_8">
      <!-- 4.0 -->
      <g transform="translate(22.197561875 135.592015313)scale(0.09996 -0.09996)">
       <use xlink:href="#WenQuanYiMicroHei-34"/>
       <use x="55.078125" xlink:href="#WenQuanYiMicroHei-2e"/>
       <use x="81.884765625" xlink:href="#WenQuanYiMicroHei-30"/>
      </g>
     </g>
    </g>
    <g id="ytick_4">
     <g id="line2d_64">
      <g>
       <use style="stroke:#000000;stroke-width:0.5;" x="39.307940625" xlink:href="#m728421d6d4" y="104.195398125"/>
      </g>
     </g>
     <g id="line2d_65">
      <g>
       <use style="stroke:#000000;stroke-width:0.5;" x="374.107940625" xlink:href="#mcb0005524f" y="104.195398125"/>
      </g>
     </g>
     <g id="text_9">
      <!-- 4.5 -->
      <g transform="translate(22.285026875 106.792015312)scale(0.09996 -0.09996)">
       <use xlink:href="#WenQuanYiMicroHei-34"/>
       <use x="55.078125" xlink:href="#WenQuanYiMicroHei-2e"/>
       <use x="81.884765625" xlink:href="#WenQuanYiMicroHei-35"/>
      </g>
     </g>
    </g>
    <g id="ytick_5">
     <g id="line2d_66">
      <g>
       <use style="stroke:#000000;stroke-width:0.5;" x="39.307940625" xlink:href="#m728421d6d4" y="75.395398125"/>
      </g>
     </g>
     <g id="line2d_67">
      <g>
       <use style="stroke:#000000;stroke-width:0.5;" x="374.107940625" xlink:href="#mcb0005524f" y="75.395398125"/>
      </g>
     </g>
     <g id="text_10">
      <!-- 5.0 -->
      <g transform="translate(22.72391375 77.9920153125)scale(0.09996 -0.09996)">
       <use xlink:href="#WenQuanYiMicroHei-35"/>
       <use x="55.078125" xlink:href="#WenQuanYiMicroHei-2e"/>
       <use x="81.884765625" xlink:href="#WenQuanYiMicroHei-30"/>
      </g>
     </g>
    </g>
    <g id="ytick_6">
     <g id="line2d_68">
      <g>
       <use style="stroke:#000000;stroke-width:0.5;" x="39.307940625" xlink:href="#m728421d6d4" y="46.595398125"/>
      </g>
     </g>
     <g id="line2d_69">
      <g>
       <use style="stroke:#000000;stroke-width:0.5;" x="374.107940625" xlink:href="#mcb0005524f" y="46.595398125"/>
      </g>
     </g>
     <g id="text_11">
      <!-- 5.5 -->
      <g transform="translate(22.81137875 49.1920153125)scale(0.09996 -0.09996)">
       <use xlink:href="#WenQuanYiMicroHei-35"/>
       <use x="55.078125" xlink:href="#WenQuanYiMicroHei-2e"/>
       <use x="81.884765625" xlink:href="#WenQuanYiMicroHei-35"/>
      </g>
     </g>
    </g>
    <g id="ytick_7">
     <g id="line2d_70">
      <g>
       <use style="stroke:#000000;stroke-width:0.5;" x="39.307940625" xlink:href="#m728421d6d4" y="17.795398125"/>
      </g>
     </g>
     <g id="line2d_71">
      <g>
       <use style="stroke:#000000;stroke-width:0.5;" x="374.107940625" xlink:href="#mcb0005524f" y="17.795398125"/>
      </g>
     </g>
     <g id="text_12">
      <!-- 6.0 -->
      <g transform="translate(22.63644875 20.3920153125)scale(0.09996 -0.09996)">
       <use xlink:href="#WenQuanYiMicroHei-36"/>
       <use x="55.078125" xlink:href="#WenQuanYiMicroHei-2e"/>
       <use x="81.884765625" xlink:href="#WenQuanYiMicroHei-30"/>
      </g>
     </g>
    </g>
    <g id="text_13">
     <!-- 平均每个元素的排序耗时（秒） -->
     <defs>
      <path d="
M14.0625 74.6094
L85.9375 74.6094
L85.9375 67.1875
L14.0625 67.1875
z

M7.8125 48.4375
L92.1875 48.4375
L92.1875 41.0156
L65.2344 41.0156
L65.2344 3.125
Q65.2344 1.17188 66.0156 0.578125
Q66.7969 0 69.1406 0
Q80.0781 0 82.2188 0.78125
Q84.375 1.5625 85.5469 4.09375
Q86.7188 6.64062 87.1094 16.7969
L95.3125 14.4531
Q94.5312 2.34375 92.7656 -1.35938
Q91.0156 -5.07812 87.1094 -6.4375
Q83.2031 -7.8125 69.1406 -7.8125
Q62.1094 -7.8125 59.7656 -6.04688
Q57.4219 -4.29688 57.4219 0.390625
L57.4219 41.0156
L40.2344 41.0156
Q40.2344 19.1406 33.9844 8.98438
Q26.5625 -2.34375 8.98438 -8.98438
L4.6875 -1.5625
Q20.3125 3.90625 26.3594 13.0781
Q32.4219 22.2656 32.4219 41.0156
L7.8125 41.0156
z
" id="WenQuanYiMicroHei-5143"/>
      <path d="
M11.7188 75.3906
L45.7031 75.3906
L45.7031 80.8594
L53.5156 80.8594
L53.5156 75.3906
L90.2344 75.3906
L90.2344 68.75
L53.5156 68.75
L53.5156 63.2812
L87.1094 63.2812
L87.1094 57.0312
L53.5156 57.0312
L53.5156 51.5625
L94.9219 51.5625
L94.9219 44.9219
L5.07812 44.9219
L5.07812 51.5625
L45.7031 51.5625
L45.7031 57.0312
L14.8438 57.0312
L14.8438 63.2812
L45.7031 63.2812
L45.7031 68.75
L11.7188 68.75
z

M37.5 33.9844
L53.125 34.7656
Q59.375 37.8906 64.4531 41.7969
L70.7031 37.5
Q50.3906 23.8281 28.9062 18.3594
Q58.5938 19.1406 74.6094 21.4844
Q71.0938 24.6094 67.1875 27.7344
L73.4375 32.0312
Q82.8125 25 91.7969 15.625
L85.1562 10.5469
Q83.2031 13.2812 80.4688 15.625
Q67.9688 14.4531 55.0781 13.6719
L55.0781 0
Q55.0781 -5.46875 53.125 -7.60938
Q51.1719 -9.76562 44.1406 -9.76562
Q41.0156 -9.76562 37.8906 -9.375
L36.7188 -1.5625
Q40.2344 -2.34375 44.1406 -2.34375
Q46.875 -2.34375 46.875 1.17188
L46.875 13.2812
Q30.0781 12.1094 13.2812 12.1094
L12.1094 19.5312
Q26.9531 23.0469 41.4062 29.2969
Q30.0781 28.5156 18.75 28.125
L17.5781 33.5938
Q28.125 36.7188 34.7656 42.5781
L42.1875 40.2344
Q38.2812 37.1094 32.4219 33.9844
z

M66.4062 10.5469
Q79.2969 6.64062 91.7969 -1.95312
L87.5 -8.59375
Q75 0.390625 62.1094 4.6875
z

M30.0781 8.98438
L34.7656 3.90625
Q25.7812 -3.125 8.59375 -8.59375
L5.46875 -1.5625
Q20.7031 2.34375 30.0781 8.98438" id="WenQuanYiMicroHei-7d20"/>
      <path d="
M58.9844 80.4688
L66.7969 78.9062
Q64.8438 71.4844 61.7188 64.4531
L92.1875 64.4531
Q92.1875 12.8906 88.6719 0.78125
Q85.9375 -8.98438 75.7812 -8.98438
Q70.7031 -8.98438 63.6719 -7.42188
L61.7188 0.78125
Q71.4844 -0.78125 75.7812 -0.78125
Q80.4688 -0.78125 81.6406 4.6875
Q83.9844 15.2344 83.9844 57.0312
L57.8125 57.0312
Q53.125 48.8281 47.6562 43.3594
L41.7969 48.8281
Q53.5156 61.7188 58.9844 80.4688
M62.1094 41.7969
Q67.9688 33.2031 71.875 22.6562
L64.4531 19.1406
Q60.5469 30.0781 54.6875 38.6719
z

M40.2344 67.9688
L40.2344 -2.73438
L33.2031 -2.73438
L33.2031 0.390625
L15.2344 0.390625
L15.2344 -5.46875
L8.20312 -5.46875
L8.20312 67.9688
L16.7969 67.9688
Q18.75 74.2188 19.5312 80.8594
L27.7344 79.2969
Q26.1719 73.0469 24.2188 67.9688
z

M33.2031 37.8906
L33.2031 60.5469
L15.2344 60.5469
L15.2344 37.8906
z

M15.2344 30.4688
L15.2344 7.8125
L33.2031 7.8125
L33.2031 30.4688
z
" id="WenQuanYiMicroHei-7684"/>
      <path d="
M64.0625 71.4844
L73.4375 71.4844
Q47.6562 55.8594 47.6562 27.3438
Q47.6562 -0.390625 73.4375 -15.625
L64.0625 -15.625
Q52.7344 -10.5469 45.5 1.35938
Q38.2812 13.2812 38.2812 27.3438
Q38.2812 41.7969 45.5 53.7031
Q52.7344 65.625 64.0625 71.4844" id="WenQuanYiMicroHei-ff08"/>
      <path d="
M7.42188 55.4688
L20.7031 55.4688
L20.7031 64.4531
L6.64062 64.4531
L6.64062 72.2656
L20.7031 72.2656
L20.7031 80.8594
L28.125 80.8594
L28.125 72.2656
L42.5781 72.2656
L42.5781 64.4531
L28.125 64.4531
L28.125 55.4688
L42.1875 55.4688
L42.1875 48.4375
L28.125 48.4375
L28.125 39.8438
L43.3594 39.8438
L43.3594 32.4219
L28.125 32.4219
L28.125 28.125
Q38.2812 21.4844 45.7031 15.2344
L40.2344 8.20312
Q34.375 14.8438 28.125 19.5312
L28.125 -9.375
L20.7031 -9.375
L20.7031 19.5312
Q14.0625 7.03125 7.42188 0.78125
L3.51562 8.59375
Q12.8906 16.7969 19.9219 32.4219
L5.07812 32.4219
L5.07812 39.8438
L20.7031 39.8438
L20.7031 48.4375
L7.42188 48.4375
z

M85.1562 80.0781
L90.2344 74.6094
Q82.8125 71.4844 70.3125 67.9688
L70.3125 52.7344
L89.4531 57.4219
L90.2344 50.3906
L70.3125 45.7031
L70.3125 29.6875
L91.4062 34.375
L92.1875 27.3438
L70.3125 22.6562
L70.3125 3.125
Q70.3125 1.17188 71.4844 0.390625
Q72.6562 -0.390625 76.9531 -0.390625
Q83.9844 -0.390625 85.5469 1.17188
Q87.1094 2.73438 87.5 11.3281
L95.3125 8.98438
Q94.1406 -2.73438 91.4062 -5.46875
Q88.6719 -7.8125 76.9531 -7.8125
Q67.1875 -7.8125 64.8438 -6.04688
Q62.5 -4.29688 62.5 0.78125
L62.5 21.0938
L47.6562 17.9688
L46.4844 25
L62.5 28.125
L62.5 43.75
L49.2188 40.625
L48.0469 47.6562
L62.5 51.1719
L62.5 66.4062
L49.6094 64.0625
L46.4844 70.7031
Q69.9219 73.8281 85.1562 80.0781" id="WenQuanYiMicroHei-8017"/>
      <path d="
M5.07812 54.6875
L20.3125 54.6875
L20.3125 67.5781
Q14.4531 66.0156 8.20312 64.8438
L5.46875 71.875
Q23.0469 75 37.5 81.25
L41.0156 74.6094
L27.7344 69.9219
L27.7344 54.6875
L41.7969 54.6875
L41.7969 47.6562
L27.7344 47.6562
L27.7344 45.7031
Q35.5469 37.5 41.4062 29.2969
L36.3281 22.2656
Q32.0312 29.6875 27.7344 35.5469
L27.7344 -8.98438
L20.3125 -8.98438
L20.3125 30.0781
Q15.625 18.3594 8.20312 8.59375
L2.73438 15.2344
Q13.6719 29.2969 19.1406 47.6562
L5.07812 47.6562
z

M62.5 80.8594
L70.7031 80.8594
L70.7031 21.875
L62.5 21.875
z

M81.6406 70.7031
Q89.8438 57.4219 95.3125 42.1875
L88.2812 38.2812
Q83.5938 53.125 75.3906 66.7969
z

M48.8281 69.9219
L56.25 67.1875
Q52.3438 46.4844 46.0938 32.0312
L38.6719 36.7188
Q45.3125 51.5625 48.8281 69.9219
M82.8125 36.3281
L90.625 33.5938
Q82.8125 16.7969 70.3125 6.64062
Q57.8125 -3.51562 37.1094 -9.375
L33.5938 -1.95312
Q52.7344 3.125 63.8594 12.1094
Q75 21.0938 82.8125 36.3281" id="WenQuanYiMicroHei-79d2"/>
      <path d="
M10.9375 76.9531
L88.6719 76.9531
L88.6719 69.5312
L54.2969 69.5312
L54.2969 30.4688
L93.75 30.4688
L93.75 23.0469
L54.2969 23.0469
L54.2969 -8.59375
L46.4844 -8.59375
L46.4844 23.0469
L6.25 23.0469
L6.25 30.4688
L46.4844 30.4688
L46.4844 69.5312
L10.9375 69.5312
z

M75.7812 64.8438
L83.9844 62.1094
Q78.9062 46.0938 72.2656 34.7656
L64.4531 39.0625
Q71.875 52.3438 75.7812 64.8438
M22.2656 63.6719
Q29.6875 52.3438 34.7656 38.2812
L26.5625 34.7656
Q21.875 48.8281 14.8438 60.1562
z
" id="WenQuanYiMicroHei-5e73"/>
      <path d="
M28.125 81.25
L35.5469 78.9062
Q33.9844 75 32.0312 71.0938
L90.2344 71.0938
L90.2344 64.0625
L27.7344 64.0625
Q21.875 53.9062 13.6719 46.4844
L7.03125 51.5625
Q21.875 65.2344 28.125 81.25
M7.03125 33.2031
L22.6562 33.2031
Q23.8281 44.5312 24.6094 56.6406
L81.6406 56.6406
L80.8594 33.2031
L94.9219 33.2031
L94.9219 26.1719
L80.4688 26.1719
L78.9062 10.1562
L89.8438 10.1562
L89.8438 2.73438
L78.125 2.73438
Q78.125 -2.73438 74.7969 -6.25
Q71.4844 -9.76562 66.0156 -9.76562
Q62.8906 -9.76562 57.4219 -8.98438
L55.8594 -1.17188
Q62.5 -1.95312 66.0156 -1.95312
Q69.1406 -1.95312 69.9219 2.73438
L17.5781 2.73438
Q20.3125 13.6719 21.875 26.1719
L7.03125 26.1719
z

M72.6562 33.2031
Q73.4375 41.4062 73.4375 49.2188
L32.0312 49.2188
L30.8594 33.2031
z

M49.2188 48.0469
Q56.25 43.75 60.9375 38.2812
L53.5156 33.9844
Q49.6094 39.0625 42.1875 43.75
z

M71.0938 10.1562
L72.2656 26.1719
L30.0781 26.1719
Q28.9062 17.5781 27.3438 10.1562
z

M48.0469 25
Q55.0781 20.7031 59.375 15.625
L51.9531 11.3281
Q48.0469 16.0156 41.0156 20.7031
z
" id="WenQuanYiMicroHei-6bcf"/>
      <path d="
M35.5469 65.2344
L50.3906 65.2344
L50.3906 81.25
L57.8125 81.25
L57.8125 -8.98438
L50.3906 -8.98438
L50.3906 10.1562
L34.375 10.1562
L34.375 17.1875
L50.3906 17.1875
L50.3906 34.375
L36.3281 34.375
L36.3281 41.4062
L50.3906 41.4062
L50.3906 58.2031
L35.5469 58.2031
z

M76.9531 58.2031
L76.9531 41.4062
L91.0156 41.4062
L91.0156 34.375
L76.9531 34.375
L76.9531 17.1875
L94.9219 17.1875
L94.9219 10.1562
L76.9531 10.1562
L76.9531 -8.98438
L69.5312 -8.98438
L69.5312 81.25
L76.9531 81.25
L76.9531 65.2344
L92.5781 65.2344
L92.5781 58.2031
z

M5.85938 64.4531
L15.2344 64.4531
L15.2344 80.8594
L22.6562 80.8594
L22.6562 64.4531
L32.0312 64.4531
L32.0312 57.0312
L22.6562 57.0312
L22.6562 37.5
L30.0781 41.7969
L31.6406 34.7656
Q27.3438 31.6406 22.6562 28.9062
L22.6562 1.17188
Q22.6562 -4.6875 21.0938 -6.82812
Q19.5312 -8.98438 15.2344 -8.98438
Q11.3281 -8.98438 7.8125 -8.20312
L5.85938 -0.78125
Q10.1562 -1.5625 14.0625 -1.5625
Q15.2344 -1.5625 15.2344 3.125
L15.2344 25
Q11.3281 22.6562 7.03125 20.7031
L4.29688 28.9062
Q10.1562 31.25 15.2344 33.9844
L15.2344 57.0312
L5.85938 57.0312
z
" id="WenQuanYiMicroHei-6392"/>
      <path d="
M49.2188 80.8594
L57.4219 78.9062
L55.4688 75.3906
Q69.1406 51.1719 96.0938 41.7969
L91.4062 33.2031
Q65.2344 44.5312 50.7812 67.9688
Q35.1562 45.7031 10.1562 31.6406
L4.6875 37.8906
Q22.2656 48.4375 31.6406 57.8125
Q41.0156 67.1875 49.2188 80.8594
M46.0938 47.6562
L53.9062 47.6562
L53.9062 -8.98438
L46.0938 -8.98438
z
" id="WenQuanYiMicroHei-4e2a"/>
      <path d="
M35.9375 -15.625
L26.5625 -15.625
Q52.3438 -0.390625 52.3438 27.3438
Q52.3438 55.8594 26.5625 71.4844
L35.9375 71.4844
Q47.2656 65.625 54.4844 53.7031
Q61.7188 41.7969 61.7188 27.3438
Q61.7188 13.2812 54.4844 1.35938
Q47.2656 -10.5469 35.9375 -15.625" id="WenQuanYiMicroHei-ff09"/>
      <path d="
M53.9062 81.25
Q56.25 77.7344 57.8125 73.0469
L92.5781 73.0469
L92.5781 66.0156
L21.4844 66.0156
L21.4844 35.5469
Q21.4844 10.5469 11.3281 -8.98438
L3.90625 -4.29688
Q9.375 7.03125 11.5156 16.2031
Q13.6719 25.3906 13.6719 38.2812
L13.6719 73.0469
L49.2188 73.0469
Q48.0469 76.1719 46.0938 78.9062
z

M30.0781 58.5938
L85.1562 58.5938
L85.1562 51.5625
Q75.3906 42.9688 62.8906 36.7188
Q64.0625 35.9375 64.8438 34.7656
L91.4062 34.7656
L91.4062 28.125
Q88.2812 19.5312 83.9844 11.7188
L75.7812 14.0625
Q79.6875 21.0938 82.0312 27.7344
L60.9375 27.7344
L60.9375 1.5625
Q60.9375 -4.29688 58.7812 -6.64062
Q56.6406 -8.98438 50.7812 -8.98438
Q44.9219 -8.98438 39.8438 -7.8125
L38.2812 0.390625
Q43.75 -1.17188 49.6094 -1.17188
Q53.125 -1.17188 53.125 3.51562
L53.125 27.7344
L25.7812 27.7344
L25.7812 34.7656
L54.6875 34.7656
Q48.8281 39.0625 41.7969 43.3594
L47.2656 47.2656
Q51.5625 44.5312 55.8594 42.1875
Q64.8438 46.0938 72.6562 51.1719
L30.0781 51.1719
z
" id="WenQuanYiMicroHei-5e8f"/>
      <path d="
M42.9688 60.5469
L75 60.5469
L75 80.8594
L82.8125 80.8594
L82.8125 60.5469
L94.5312 60.5469
L94.5312 53.125
L82.8125 53.125
L82.8125 1.95312
Q82.8125 -3.90625 80.6562 -6.25
Q78.5156 -8.59375 73.0469 -8.59375
Q66.7969 -8.59375 60.9375 -7.03125
L59.375 1.17188
Q65.625 -0.78125 71.875 -0.78125
Q73.4375 -0.78125 74.2188 0
Q75 0.78125 75 3.90625
L75 53.125
L42.9688 53.125
z

M54.2969 46.4844
Q61.7188 34.375 66.7969 20.3125
L58.9844 16.7969
Q54.2969 31.6406 47.2656 43.3594
z

M39.4531 73.4375
L39.4531 4.29688
L32.0312 4.29688
L32.0312 9.76562
L14.8438 9.76562
L14.8438 1.17188
L7.42188 1.17188
L7.42188 73.4375
z

M14.8438 45.3125
L32.0312 45.3125
L32.0312 66.4062
L14.8438 66.4062
z

M14.8438 16.7969
L32.0312 16.7969
L32.0312 38.2812
L14.8438 38.2812
z
" id="WenQuanYiMicroHei-65f6"/>
      <path d="
M5.46875 57.8125
L16.7969 57.8125
L16.7969 79.2969
L24.2188 79.2969
L24.2188 57.8125
L35.5469 57.8125
L35.5469 50.3906
L24.2188 50.3906
L24.2188 19.5312
L33.9844 23.4375
L35.1562 16.4062
Q21.875 10.1562 5.85938 5.85938
L4.29688 13.6719
Q10.9375 15.2344 16.7969 17.1875
L16.7969 50.3906
L5.46875 50.3906
z

M50.3906 81.25
L58.2031 79.6875
L55.0781 67.9688
L92.1875 67.9688
Q92.1875 13.6719 88.6719 1.17188
Q85.9375 -8.59375 76.1719 -8.59375
Q69.5312 -8.59375 59.375 -7.42188
L57.8125 0.390625
Q70.7031 -0.78125 76.1719 -0.78125
Q80.4688 -0.78125 81.6406 4.6875
Q83.9844 15.2344 83.9844 60.5469
L51.9531 60.5469
Q49.2188 51.1719 41.4062 41.0156
L35.5469 46.4844
Q45.7031 60.5469 50.3906 81.25
M59.7656 52.3438
Q67.1875 45.3125 71.875 37.5
L64.8438 33.2031
Q60.5469 41.0156 53.5156 48.4375
z

M75.3906 29.2969
L76.9531 22.2656
Q62.5 15.625 44.5312 10.9375
L41.7969 18.75
Q60.5469 23.4375 75.3906 29.2969" id="WenQuanYiMicroHei-5747"/>
     </defs>
     <g transform="translate(14.795398125 171.94172625)rotate(-90.0)scale(0.09996 -0.09996)">
      <use xlink:href="#WenQuanYiMicroHei-5e73"/>
      <use x="100.0" xlink:href="#WenQuanYiMicroHei-5747"/>
      <use x="200.0" xlink:href="#WenQuanYiMicroHei-6bcf"/>
      <use x="300.0" xlink:href="#WenQuanYiMicroHei-4e2a"/>
      <use x="400.0" xlink:href="#WenQuanYiMicroHei-5143"/>
      <use x="500.0" xlink:href="#WenQuanYiMicroHei-7d20"/>
      <use x="600.0" xlink:href="#WenQuanYiMicroHei-7684"/>
      <use x="700.0" xlink:href="#WenQuanYiMicroHei-6392"/>
      <use x="800.0" xlink:href="#WenQuanYiMicroHei-5e8f"/>
      <use x="900.0" xlink:href="#WenQuanYiMicroHei-8017"/>
      <use x="1000.0" xlink:href="#WenQuanYiMicroHei-65f6"/>
      <use x="1100.0" xlink:href="#WenQuanYiMicroHei-ff08"/>
      <use x="1200.0" xlink:href="#WenQuanYiMicroHei-79d2"/>
      <use x="1300.0" xlink:href="#WenQuanYiMicroHei-ff09"/>
     </g>
    </g>
    <g id="text_14">
     <!-- 1e−7 -->
     <defs>
      <path d="
M29.6875 -0.984375
Q24.3125 -0.984375 19.875 0.828125
Q15.4375 2.64062 12.2344 6.10938
Q9.03125 9.57812 7.26562 14.7031
Q5.51562 19.8281 5.51562 26.4219
Q5.51562 33.0625 7.125 38.2812
Q8.73438 43.5 11.6562 47.1406
Q14.5938 50.7812 18.6719 52.6875
Q22.75 54.5938 27.6875 54.5938
Q32.5156 54.5938 36.375 52.8594
Q40.2344 51.125 42.9219 47.9688
Q45.6094 44.8281 47.0469 40.4062
Q48.4844 35.9844 48.4844 30.6094
L48.4844 25.0938
L14.7031 25.0938
Q14.9375 15.6719 18.6719 11.2188
Q22.4062 6.78125 29.7812 6.78125
Q32.2812 6.78125 34.4062 7.03125
Q36.5312 7.28125 38.5 7.73438
Q40.4844 8.20312 42.3281 8.90625
Q44.1875 9.625 46.0938 10.5
L46.0938 2.59375
Q44.1406 1.65625 42.25 0.96875
Q40.375 0.296875 38.3906 -0.140625
Q36.4219 -0.59375 34.2969 -0.78125
Q32.1719 -0.984375 29.6875 -0.984375
M27.4844 47.2188
Q21.9219 47.2188 18.6719 43.4062
Q15.4375 39.5938 14.8906 32.3281
L38.9219 32.3281
Q38.9219 35.6406 38.25 38.3906
Q37.5938 41.1562 36.2031 43.1094
Q34.8125 45.0625 32.6562 46.1406
Q30.5156 47.2188 27.4844 47.2188" id="WenQuanYiMicroHei-65"/>
      <path d="
M13.7188 0
L41.2188 63.2812
L4.39062 63.2812
L4.39062 71.3906
L50.2969 71.3906
L50.2969 64.3125
L23.1875 0
z
" id="WenQuanYiMicroHei-37"/>
      <path d="
M4.98438 31.5938
L4.98438 38.9219
L50.0938 38.9219
L50.0938 31.5938
z
" id="WenQuanYiMicroHei-2212"/>
     </defs>
     <g transform="translate(39.307940625 14.795398125)scale(0.09996 -0.09996)">
      <use xlink:href="#WenQuanYiMicroHei-31"/>
      <use x="55.078125" xlink:href="#WenQuanYiMicroHei-65"/>
      <use x="108.59375" xlink:href="#WenQuanYiMicroHei-2212"/>
      <use x="163.671875" xlink:href="#WenQuanYiMicroHei-37"/>
     </g>
    </g>
   </g>
  </g>
 </g>
 <defs>
  <clipPath id="p6478e51d82">
   <rect height="172.8" width="334.8" x="39.307940625" y="17.795398125"/>
  </clipPath>
 </defs>
</svg>
