<?xml version="1.0" encoding="utf-8" standalone="no"?>
<!DOCTYPE svg PUBLIC "-//W3C//DTD SVG 1.1//EN"
  "http://www.w3.org/Graphics/SVG/1.1/DTD/svg11.dtd">
<!-- Created with matplotlib (http://matplotlib.org/) -->
<svg height="323pt" version="1.1" viewBox="0 0 696 323" width="696pt" xmlns="http://www.w3.org/2000/svg" xmlns:xlink="http://www.w3.org/1999/xlink">
 <defs>
  <style type="text/css">
*{stroke-linecap:butt;stroke-linejoin:round;}
  </style>
 </defs>
 <g id="figure_1">
  <g id="patch_1">
   <path d="
M0 323.088
L696.692 323.088
L696.692 0
L0 0
z
" style="fill:#ffffff;"/>
  </g>
  <g id="axes_1">
   <g id="patch_2">
    <path d="
M19.8918 234.566
L689.492 234.566
L689.492 11.3657
L19.8918 11.3657
z
" style="fill:#ffffff;"/>
   </g>
   <g id="patch_3">
    <path clip-path="url(#pb48d56a3bc)" d="
M27.8633 234.566
L43.8061 234.566
L43.8061 164.157
L27.8633 164.157
z
" style="fill:#348abd;stroke:#000000;"/>
   </g>
   <g id="patch_4">
    <path clip-path="url(#pb48d56a3bc)" d="
M59.749 234.566
L75.6918 234.566
L75.6918 149.891
L59.749 149.891
z
" style="fill:#348abd;stroke:#000000;"/>
   </g>
   <g id="patch_5">
    <path clip-path="url(#pb48d56a3bc)" d="
M91.6347 234.566
L107.578 234.566
L107.578 141.389
L91.6347 141.389
z
" style="fill:#348abd;stroke:#000000;"/>
   </g>
   <g id="patch_6">
    <path clip-path="url(#pb48d56a3bc)" d="
M123.52 234.566
L139.463 234.566
L139.463 134.467
L123.52 134.467
z
" style="fill:#348abd;stroke:#000000;"/>
   </g>
   <g id="patch_7">
    <path clip-path="url(#pb48d56a3bc)" d="
M155.406 234.566
L171.349 234.566
L171.349 130.709
L155.406 130.709
z
" style="fill:#348abd;stroke:#000000;"/>
   </g>
   <g id="patch_8">
    <path clip-path="url(#pb48d56a3bc)" d="
M187.292 234.566
L203.235 234.566
L203.235 128.956
L187.292 128.956
z
" style="fill:#348abd;stroke:#000000;"/>
   </g>
   <g id="patch_9">
    <path clip-path="url(#pb48d56a3bc)" d="
M219.178 234.566
L235.12 234.566
L235.12 128.87
L219.178 128.87
z
" style="fill:#348abd;stroke:#000000;"/>
   </g>
   <g id="patch_10">
    <path clip-path="url(#pb48d56a3bc)" d="
M251.063 234.566
L267.006 234.566
L267.006 124.484
L251.063 124.484
z
" style="fill:#348abd;stroke:#000000;"/>
   </g>
   <g id="patch_11">
    <path clip-path="url(#pb48d56a3bc)" d="
M282.949 234.566
L298.892 234.566
L298.892 121.217
L282.949 121.217
z
" style="fill:#348abd;stroke:#000000;"/>
   </g>
   <g id="patch_12">
    <path clip-path="url(#pb48d56a3bc)" d="
M314.835 234.566
L330.778 234.566
L330.778 120.84
L314.835 120.84
z
" style="fill:#348abd;stroke:#000000;"/>
   </g>
   <g id="patch_13">
    <path clip-path="url(#pb48d56a3bc)" d="
M346.72 234.566
L362.663 234.566
L362.663 118.785
L346.72 118.785
z
" style="fill:#348abd;stroke:#000000;"/>
   </g>
   <g id="patch_14">
    <path clip-path="url(#pb48d56a3bc)" d="
M378.606 234.566
L394.549 234.566
L394.549 118.54
L378.606 118.54
z
" style="fill:#348abd;stroke:#000000;"/>
   </g>
   <g id="patch_15">
    <path clip-path="url(#pb48d56a3bc)" d="
M410.492 234.566
L426.435 234.566
L426.435 117.386
L410.492 117.386
z
" style="fill:#348abd;stroke:#000000;"/>
   </g>
   <g id="patch_16">
    <path clip-path="url(#pb48d56a3bc)" d="
M442.378 234.566
L458.32 234.566
L458.32 114.626
L442.378 114.626
z
" style="fill:#348abd;stroke:#000000;"/>
   </g>
   <g id="patch_17">
    <path clip-path="url(#pb48d56a3bc)" d="
M474.263 234.566
L490.206 234.566
L490.206 111.108
L474.263 111.108
z
" style="fill:#348abd;stroke:#000000;"/>
   </g>
   <g id="patch_18">
    <path clip-path="url(#pb48d56a3bc)" d="
M506.149 234.566
L522.092 234.566
L522.092 111.019
L506.149 111.019
z
" style="fill:#348abd;stroke:#000000;"/>
   </g>
   <g id="patch_19">
    <path clip-path="url(#pb48d56a3bc)" d="
M538.035 234.566
L553.978 234.566
L553.978 107.023
L538.035 107.023
z
" style="fill:#348abd;stroke:#000000;"/>
   </g>
   <g id="patch_20">
    <path clip-path="url(#pb48d56a3bc)" d="
M569.92 234.566
L585.863 234.566
L585.863 102.041
L569.92 102.041
z
" style="fill:#348abd;stroke:#000000;"/>
   </g>
   <g id="patch_21">
    <path clip-path="url(#pb48d56a3bc)" d="
M601.806 234.566
L617.749 234.566
L617.749 100.612
L601.806 100.612
z
" style="fill:#348abd;stroke:#000000;"/>
   </g>
   <g id="patch_22">
    <path clip-path="url(#pb48d56a3bc)" d="
M633.692 234.566
L649.635 234.566
L649.635 95.635
L633.692 95.635
z
" style="fill:#348abd;stroke:#000000;"/>
   </g>
   <g id="patch_23">
    <path clip-path="url(#pb48d56a3bc)" d="
M665.578 234.566
L681.52 234.566
L681.52 33.4579
L665.578 33.4579
z
" style="fill:#348abd;stroke:#000000;"/>
   </g>
   <g id="line2d_1">
    <path clip-path="url(#pb48d56a3bc)" d="
M19.8918 234.566
L689.492 234.566" style="fill:none;stroke:#000000;stroke-dasharray:6.000000,6.000000;stroke-dashoffset:0.0;stroke-width:2.0;"/>
   </g>
   <g id="matplotlib.axis_1">
    <g id="xtick_1">
     <g id="line2d_2">
      <path clip-path="url(#pb48d56a3bc)" d="
M35.8347 234.566
L35.8347 11.3657" style="fill:none;stroke:#000000;stroke-dasharray:1.000000,3.000000;stroke-dashoffset:0.0;stroke-width:0.5;"/>
     </g>
     <g id="line2d_3">
      <defs>
       <path d="
M0 0
L0 -4" id="m93b0483c22" style="stroke:#000000;stroke-width:0.5;"/>
      </defs>
      <g>
       <use style="stroke:#000000;stroke-width:0.5;" x="35.8346915179" xlink:href="#m93b0483c22" y="234.565650781"/>
      </g>
     </g>
     <g id="line2d_4">
      <defs>
       <path d="
M0 0
L0 4" id="m741efc42ff" style="stroke:#000000;stroke-width:0.5;"/>
      </defs>
      <g>
       <use style="stroke:#000000;stroke-width:0.5;" x="35.8346915179" xlink:href="#m741efc42ff" y="11.3656507812"/>
      </g>
     </g>
     <g id="text_1">
      <!-- student -->
      <defs>
       <path d="
M42 0
L42 34.5156
Q42 40.875 39.4219 44.0469
Q36.8594 47.2188 31.3906 47.2188
Q27.4375 47.2188 24.75 45.9375
Q22.0781 44.6719 20.4375 42.1875
Q18.7969 39.7031 18.0938 36.0781
Q17.3906 32.4688 17.3906 27.7812
L17.3906 0
L8.5 0
L8.5 53.6094
L15.7188 53.6094
L17 46.3906
L17.4844 46.3906
Q18.7031 48.4844 20.3906 50.0156
Q22.0781 51.5625 24.0781 52.5781
Q26.0781 53.6094 28.3125 54.0938
Q30.5625 54.5938 32.9062 54.5938
Q41.8438 54.5938 46.3594 49.9219
Q50.875 45.2656 50.875 35.0156
L50.875 0
z
" id="WenQuanYiMicroHei-6e"/>
       <path d="
M41.6094 7.17188
L41.2188 7.17188
Q40.1406 5.51562 38.6875 4.03125
Q37.25 2.54688 35.375 1.42188
Q33.5 0.296875 31.1562 -0.34375
Q28.8125 -0.984375 25.875 -0.984375
Q21.3438 -0.984375 17.5781 0.78125
Q13.8125 2.54688 11.125 6.03125
Q8.45312 9.51562 6.98438 14.6875
Q5.51562 19.875 5.51562 26.7031
Q5.51562 33.5938 6.98438 38.7969
Q8.45312 44 11.125 47.5156
Q13.8125 51.0312 17.5781 52.8125
Q21.3438 54.5938 25.875 54.5938
Q28.7656 54.5938 31.1094 53.9531
Q33.4531 53.3281 35.3281 52.25
Q37.2031 51.1719 38.6719 49.75
Q40.1406 48.3438 41.2188 46.7812
L41.7969 46.7812
Q41.6562 48.4375 41.5 49.9531
Q41.4062 51.2188 41.3125 52.5625
Q41.2188 53.9062 41.2188 54.6875
L41.2188 75.9844
L50.0938 75.9844
L50.0938 0
L42.9219 0
z

M27.5938 6.39062
Q31.2969 6.39062 33.8594 7.51562
Q36.4219 8.64062 38 10.9375
Q39.5938 13.2344 40.3438 16.6719
Q41.1094 20.125 41.2188 24.7031
L41.2188 26.7031
Q41.2188 31.6406 40.5469 35.4688
Q39.8906 39.3125 38.2969 41.9219
Q36.7188 44.5312 34.0781 45.875
Q31.4531 47.2188 27.4844 47.2188
Q20.9062 47.2188 17.7969 41.8906
Q14.7031 36.5781 14.7031 26.6094
Q14.7031 16.4062 17.7969 11.3906
Q20.9062 6.39062 27.5938 6.39062" id="WenQuanYiMicroHei-64"/>
       <path d="
M29.6875 -0.984375
Q24.3125 -0.984375 19.875 0.828125
Q15.4375 2.64062 12.2344 6.10938
Q9.03125 9.57812 7.26562 14.7031
Q5.51562 19.8281 5.51562 26.4219
Q5.51562 33.0625 7.125 38.2812
Q8.73438 43.5 11.6562 47.1406
Q14.5938 50.7812 18.6719 52.6875
Q22.75 54.5938 27.6875 54.5938
Q32.5156 54.5938 36.375 52.8594
Q40.2344 51.125 42.9219 47.9688
Q45.6094 44.8281 47.0469 40.4062
Q48.4844 35.9844 48.4844 30.6094
L48.4844 25.0938
L14.7031 25.0938
Q14.9375 15.6719 18.6719 11.2188
Q22.4062 6.78125 29.7812 6.78125
Q32.2812 6.78125 34.4062 7.03125
Q36.5312 7.28125 38.5 7.73438
Q40.4844 8.20312 42.3281 8.90625
Q44.1875 9.625 46.0938 10.5
L46.0938 2.59375
Q44.1406 1.65625 42.25 0.96875
Q40.375 0.296875 38.3906 -0.140625
Q36.4219 -0.59375 34.2969 -0.78125
Q32.1719 -0.984375 29.6875 -0.984375
M27.4844 47.2188
Q21.9219 47.2188 18.6719 43.4062
Q15.4375 39.5938 14.8906 32.3281
L38.9219 32.3281
Q38.9219 35.6406 38.25 38.3906
Q37.5938 41.1562 36.2031 43.1094
Q34.8125 45.0625 32.6562 46.1406
Q30.5156 47.2188 27.4844 47.2188" id="WenQuanYiMicroHei-65"/>
       <path d="
M43.2188 0
L41.8906 7.17188
L41.4062 7.17188
Q40.1875 5.07812 38.5 3.53125
Q36.8125 2 34.8125 1
Q32.8125 0 30.5625 -0.484375
Q28.3281 -0.984375 25.9844 -0.984375
Q21.5312 -0.984375 18.1562 0.140625
Q14.7969 1.26562 12.5469 3.65625
Q10.2969 6.0625 9.15625 9.76562
Q8.01562 13.4844 8.01562 18.6094
L8.01562 53.6094
L16.8906 53.6094
L16.8906 19.0938
Q16.8906 12.75 19.4844 9.5625
Q22.0781 6.39062 27.4844 6.39062
Q31.4531 6.39062 34.125 7.65625
Q36.8125 8.9375 38.4531 11.4062
Q40.0938 13.875 40.7969 17.4844
Q41.5 21.0938 41.5 25.7812
L41.5 53.6094
L50.3906 53.6094
L50.3906 0
z
" id="WenQuanYiMicroHei-75"/>
       <path d="
M24.7031 6.29688
Q25.5938 6.29688 26.6875 6.39062
Q27.7812 6.5 28.7969 6.64062
Q29.8281 6.78125 30.6875 6.96875
Q31.5469 7.17188 31.9844 7.32812
L31.9844 0.59375
Q31.3438 0.296875 30.3594 0
Q29.3906 -0.296875 28.2188 -0.515625
Q27.0469 -0.734375 25.7812 -0.859375
Q24.5156 -0.984375 23.2969 -0.984375
Q20.2656 -0.984375 17.6719 -0.1875
Q15.0938 0.59375 13.2031 2.48438
Q11.3281 4.39062 10.25 7.64062
Q9.1875 10.8906 9.1875 15.8281
L9.1875 46.9219
L1.60938 46.9219
L1.60938 50.875
L9.1875 54.6875
L12.9844 65.9219
L18.1094 65.9219
L18.1094 53.6094
L31.5938 53.6094
L31.5938 46.9219
L18.1094 46.9219
L18.1094 15.8281
Q18.1094 11.0781 19.6406 8.6875
Q21.1875 6.29688 24.7031 6.29688" id="WenQuanYiMicroHei-74"/>
       <path d="
M40.5781 14.7031
Q40.5781 10.7969 39.1562 7.85938
Q37.75 4.9375 35.0781 2.95312
Q32.4219 0.984375 28.6562 0
Q24.9062 -0.984375 20.2188 -0.984375
Q14.8906 -0.984375 11.0781 -0.125
Q7.28125 0.734375 4.39062 2.39062
L4.39062 10.5
Q5.90625 9.71875 7.76562 8.95312
Q9.625 8.20312 11.6719 7.60938
Q13.7188 7.03125 15.8906 6.65625
Q18.0625 6.29688 20.2188 6.29688
Q23.3906 6.29688 25.6094 6.82812
Q27.8281 7.375 29.2188 8.375
Q30.6094 9.375 31.25 10.8125
Q31.8906 12.25 31.8906 14.0156
Q31.8906 15.5312 31.3906 16.75
Q30.9062 17.9688 29.6094 19.1562
Q28.3281 20.3594 26.0781 21.5781
Q23.8281 22.7969 20.3125 24.3125
Q16.7969 25.8281 13.9844 27.2969
Q11.1875 28.7656 9.23438 30.5625
Q7.28125 32.375 6.21875 34.7344
Q5.17188 37.1094 5.17188 40.375
Q5.17188 43.7969 6.51562 46.4531
Q7.85938 49.125 10.2969 50.9219
Q12.75 52.7344 16.1562 53.6562
Q19.5781 54.5938 23.7812 54.5938
Q28.5156 54.5938 32.4375 53.5625
Q36.375 52.5469 39.8906 50.875
L36.8125 43.7031
Q33.6406 45.125 30.2969 46.1719
Q26.9531 47.2188 23.4844 47.2188
Q18.5 47.2188 16.1094 45.5781
Q13.7188 43.9531 13.7188 40.9219
Q13.7188 39.2031 14.2812 37.9375
Q14.8438 36.6719 16.2031 35.5469
Q17.5781 34.4219 19.875 33.2656
Q22.1719 32.125 25.5938 30.7188
Q29.1094 29.25 31.8594 27.7812
Q34.625 26.3125 36.5781 24.4844
Q38.5312 22.6562 39.5469 20.3125
Q40.5781 17.9688 40.5781 14.7031" id="WenQuanYiMicroHei-73"/>
      </defs>
      <g transform="translate(38.4323477679 272.215650781)rotate(-90.0)scale(0.1 -0.1)">
       <use xlink:href="#WenQuanYiMicroHei-73"/>
       <use x="45.1171875" xlink:href="#WenQuanYiMicroHei-74"/>
       <use x="79.00390625" xlink:href="#WenQuanYiMicroHei-75"/>
       <use x="137.890625" xlink:href="#WenQuanYiMicroHei-64"/>
       <use x="196.484375" xlink:href="#WenQuanYiMicroHei-65"/>
       <use x="250.0" xlink:href="#WenQuanYiMicroHei-6e"/>
       <use x="308.88671875" xlink:href="#WenQuanYiMicroHei-74"/>
      </g>
     </g>
    </g>
    <g id="xtick_2">
     <g id="line2d_5">
      <path clip-path="url(#pb48d56a3bc)" d="
M67.7204 234.566
L67.7204 11.3657" style="fill:none;stroke:#000000;stroke-dasharray:1.000000,3.000000;stroke-dashoffset:0.0;stroke-width:0.5;"/>
     </g>
     <g id="line2d_6">
      <g>
       <use style="stroke:#000000;stroke-width:0.5;" x="67.7204058036" xlink:href="#m93b0483c22" y="234.565650781"/>
      </g>
     </g>
     <g id="line2d_7">
      <g>
       <use style="stroke:#000000;stroke-width:0.5;" x="67.7204058036" xlink:href="#m741efc42ff" y="11.3656507812"/>
      </g>
     </g>
     <g id="text_2">
      <!-- none -->
      <defs>
       <path d="
M52.2031 26.9062
Q52.2031 20.2188 50.5625 15.0156
Q48.9219 9.8125 45.875 6.26562
Q42.8281 2.73438 38.4688 0.875
Q34.125 -0.984375 28.7188 -0.984375
Q23.6875 -0.984375 19.4375 0.875
Q15.1875 2.73438 12.0781 6.26562
Q8.98438 9.8125 7.25 15.0156
Q5.51562 20.2188 5.51562 26.9062
Q5.51562 33.5469 7.15625 38.6875
Q8.79688 43.8438 11.8125 47.375
Q14.8438 50.9219 19.2031 52.75
Q23.5781 54.5938 29 54.5938
Q34.0312 54.5938 38.2812 52.75
Q42.5312 50.9219 45.625 47.375
Q48.7344 43.8438 50.4688 38.6875
Q52.2031 33.5469 52.2031 26.9062
M14.7031 26.9062
Q14.7031 16.7031 18.0469 11.5469
Q21.3906 6.39062 28.9062 6.39062
Q36.4219 6.39062 39.7188 11.5469
Q43.0156 16.7031 43.0156 26.9062
Q43.0156 37.1094 39.6719 42.1562
Q36.3281 47.2188 28.8125 47.2188
Q21.2969 47.2188 18 42.1562
Q14.7031 37.1094 14.7031 26.9062" id="WenQuanYiMicroHei-6f"/>
      </defs>
      <g transform="translate(70.3180620536 260.114088281)rotate(-90.0)scale(0.1 -0.1)">
       <use xlink:href="#WenQuanYiMicroHei-6e"/>
       <use x="58.88671875" xlink:href="#WenQuanYiMicroHei-6f"/>
       <use x="116.6015625" xlink:href="#WenQuanYiMicroHei-6e"/>
       <use x="175.48828125" xlink:href="#WenQuanYiMicroHei-65"/>
      </g>
     </g>
    </g>
    <g id="xtick_3">
     <g id="line2d_8">
      <path clip-path="url(#pb48d56a3bc)" d="
M99.6061 234.566
L99.6061 11.3657" style="fill:none;stroke:#000000;stroke-dasharray:1.000000,3.000000;stroke-dashoffset:0.0;stroke-width:0.5;"/>
     </g>
     <g id="line2d_9">
      <g>
       <use style="stroke:#000000;stroke-width:0.5;" x="99.6061200893" xlink:href="#m93b0483c22" y="234.565650781"/>
      </g>
     </g>
     <g id="line2d_10">
      <g>
       <use style="stroke:#000000;stroke-width:0.5;" x="99.6061200893" xlink:href="#m741efc42ff" y="11.3656507812"/>
      </g>
     </g>
     <g id="text_3">
      <!-- entertainment -->
      <defs>
       <path d="
M72.7031 0
L72.7031 34.5156
Q72.7031 40.875 70.2656 44.0469
Q67.8281 47.2188 62.7031 47.2188
Q59.125 47.2188 56.6406 46.0625
Q54.1562 44.9219 52.5625 42.7031
Q50.9844 40.4844 50.25 37.1875
Q49.5156 33.8906 49.5156 29.5938
L49.5156 0
L40.5781 0
L40.5781 34.5156
Q40.5781 40.875 38.1562 44.0469
Q35.75 47.2188 30.6094 47.2188
Q26.8594 47.2188 24.3125 45.9375
Q21.7812 44.6719 20.2344 42.1875
Q18.7031 39.7031 18.0469 36.0781
Q17.3906 32.4688 17.3906 27.7812
L17.3906 0
L8.5 0
L8.5 53.6094
L15.7188 53.6094
L17 46.3906
L17.4844 46.3906
Q18.6562 48.4844 20.2656 50.0156
Q21.875 51.5625 23.7969 52.5781
Q25.7344 53.6094 27.9062 54.0938
Q30.0781 54.5938 32.3281 54.5938
Q38.1875 54.5938 42.0625 52.4375
Q45.9531 50.2969 47.7969 45.7031
L48.1875 45.7031
Q49.4688 48 51.25 49.6562
Q53.0312 51.3125 55.1562 52.4062
Q57.2812 53.5156 59.625 54.0469
Q61.9688 54.5938 64.4062 54.5938
Q72.9531 54.5938 77.2656 49.9219
Q81.5938 45.2656 81.5938 35.0156
L81.5938 0
z
" id="WenQuanYiMicroHei-6d"/>
       <path d="
M31.6875 54.5938
Q33.1094 54.5938 34.8594 54.4688
Q36.625 54.3438 37.8906 54.1094
L36.7188 45.9062
Q35.3594 46.1406 33.9062 46.3125
Q32.4688 46.4844 31.2031 46.4844
Q28.125 46.4844 25.5781 45.2344
Q23.0469 44 21.2188 41.6719
Q19.3906 39.3594 18.3906 36.1094
Q17.3906 32.8594 17.3906 28.9062
L17.3906 0
L8.5 0
L8.5 53.6094
L15.7188 53.6094
L16.7969 43.7969
L17.1875 43.7969
Q18.4062 45.9062 19.7969 47.8594
Q21.1875 49.8125 22.9219 51.2969
Q24.6562 52.7812 26.7969 53.6875
Q28.9531 54.5938 31.6875 54.5938" id="WenQuanYiMicroHei-72"/>
       <path d="
M17.3906 0
L8.5 0
L8.5 53.6094
L17.3906 53.6094
z

M7.8125 68.1094
Q7.8125 71.0469 9.29688 72.3594
Q10.7969 73.6875 12.9844 73.6875
Q14.0625 73.6875 15.0156 73.3594
Q15.9688 73.0469 16.6719 72.3594
Q17.3906 71.6875 17.7969 70.625
Q18.2188 69.5781 18.2188 68.1094
Q18.2188 65.2812 16.6719 63.8906
Q15.1406 62.5 12.9844 62.5
Q10.7969 62.5 9.29688 63.8594
Q7.8125 65.2344 7.8125 68.1094" id="WenQuanYiMicroHei-69"/>
       <path d="
M38.7188 0
L36.9219 7.42188
L36.5312 7.42188
Q34.9062 5.21875 33.2969 3.625
Q31.6875 2.04688 29.7812 1.01562
Q27.875 0 25.5312 -0.484375
Q23.1875 -0.984375 20.125 -0.984375
Q16.75 -0.984375 13.9062 -0.03125
Q11.0781 0.921875 9 2.90625
Q6.9375 4.89062 5.76562 7.89062
Q4.59375 10.8906 4.59375 14.9844
Q4.59375 23 10.2344 27.2969
Q15.875 31.5938 27.3906 31.9844
L36.375 32.3281
L36.375 35.6875
Q36.375 38.9688 35.6719 41.1562
Q34.9688 43.3594 33.625 44.7031
Q32.2812 46.0469 30.2969 46.625
Q28.3281 47.2188 25.7812 47.2188
Q21.7344 47.2188 18.2344 46.0469
Q14.75 44.875 11.5312 43.2188
L8.40625 49.9062
Q12.0156 51.8594 16.4531 53.2188
Q20.9062 54.5938 25.7812 54.5938
Q30.7656 54.5938 34.3906 53.5938
Q38.0312 52.5938 40.4062 50.4219
Q42.7812 48.25 43.9531 44.875
Q45.125 41.5 45.125 36.7188
L45.125 0
z

M22.4062 6.20312
Q25.3906 6.20312 27.9219 7.125
Q30.4688 8.0625 32.3281 9.9375
Q34.1875 11.8125 35.2344 14.6719
Q36.2812 17.5312 36.2812 21.3906
L36.2812 26.2188
L29.2969 25.875
Q24.9062 25.6875 21.9219 24.9062
Q18.9531 24.125 17.1562 22.7344
Q15.375 21.3438 14.5938 19.3594
Q13.8125 17.3906 13.8125 14.8906
Q13.8125 10.4062 16.1875 8.29688
Q18.5625 6.20312 22.4062 6.20312" id="WenQuanYiMicroHei-61"/>
      </defs>
      <g transform="translate(102.203776339 302.556275781)rotate(-90.0)scale(0.1 -0.1)">
       <use xlink:href="#WenQuanYiMicroHei-65"/>
       <use x="53.515625" xlink:href="#WenQuanYiMicroHei-6e"/>
       <use x="112.40234375" xlink:href="#WenQuanYiMicroHei-74"/>
       <use x="146.2890625" xlink:href="#WenQuanYiMicroHei-65"/>
       <use x="199.8046875" xlink:href="#WenQuanYiMicroHei-72"/>
       <use x="239.697265625" xlink:href="#WenQuanYiMicroHei-74"/>
       <use x="273.583984375" xlink:href="#WenQuanYiMicroHei-61"/>
       <use x="326.66015625" xlink:href="#WenQuanYiMicroHei-69"/>
       <use x="352.5390625" xlink:href="#WenQuanYiMicroHei-6e"/>
       <use x="411.42578125" xlink:href="#WenQuanYiMicroHei-6d"/>
       <use x="501.025390625" xlink:href="#WenQuanYiMicroHei-65"/>
       <use x="554.541015625" xlink:href="#WenQuanYiMicroHei-6e"/>
       <use x="613.427734375" xlink:href="#WenQuanYiMicroHei-74"/>
      </g>
     </g>
    </g>
    <g id="xtick_4">
     <g id="line2d_11">
      <path clip-path="url(#pb48d56a3bc)" d="
M131.492 234.566
L131.492 11.3657" style="fill:none;stroke:#000000;stroke-dasharray:1.000000,3.000000;stroke-dashoffset:0.0;stroke-width:0.5;"/>
     </g>
     <g id="line2d_12">
      <g>
       <use style="stroke:#000000;stroke-width:0.5;" x="131.491834375" xlink:href="#m93b0483c22" y="234.565650781"/>
      </g>
     </g>
     <g id="line2d_13">
      <g>
       <use style="stroke:#000000;stroke-width:0.5;" x="131.491834375" xlink:href="#m741efc42ff" y="11.3656507812"/>
      </g>
     </g>
     <g id="text_4">
      <!-- artist -->
      <g transform="translate(134.089490625 261.090650781)rotate(-90.0)scale(0.1 -0.1)">
       <use xlink:href="#WenQuanYiMicroHei-61"/>
       <use x="53.076171875" xlink:href="#WenQuanYiMicroHei-72"/>
       <use x="92.96875" xlink:href="#WenQuanYiMicroHei-74"/>
       <use x="126.85546875" xlink:href="#WenQuanYiMicroHei-69"/>
       <use x="152.734375" xlink:href="#WenQuanYiMicroHei-73"/>
       <use x="197.8515625" xlink:href="#WenQuanYiMicroHei-74"/>
      </g>
     </g>
    </g>
    <g id="xtick_5">
     <g id="line2d_14">
      <path clip-path="url(#pb48d56a3bc)" d="
M163.378 234.566
L163.378 11.3657" style="fill:none;stroke:#000000;stroke-dasharray:1.000000,3.000000;stroke-dashoffset:0.0;stroke-width:0.5;"/>
     </g>
     <g id="line2d_15">
      <g>
       <use style="stroke:#000000;stroke-width:0.5;" x="163.377548661" xlink:href="#m93b0483c22" y="234.565650781"/>
      </g>
     </g>
     <g id="line2d_16">
      <g>
       <use style="stroke:#000000;stroke-width:0.5;" x="163.377548661" xlink:href="#m741efc42ff" y="11.3656507812"/>
      </g>
     </g>
     <g id="text_5">
      <!-- homemaker -->
      <defs>
       <path d="
M42 0
L42 34.5156
Q42 40.875 39.4219 44.0469
Q36.8594 47.2188 31.3906 47.2188
Q27.4375 47.2188 24.75 45.9375
Q22.0781 44.6719 20.4375 42.1875
Q18.7969 39.7031 18.0938 36.0781
Q17.3906 32.4688 17.3906 27.7812
L17.3906 0
L8.5 0
L8.5 75.9844
L17.3906 75.9844
L17.3906 53.4219
L17 46.3906
L17.4844 46.3906
Q18.7031 48.4844 20.3906 50.0156
Q22.0781 51.5625 24.0781 52.5781
Q26.0781 53.6094 28.3125 54.0938
Q30.5625 54.5938 32.9062 54.5938
Q41.8438 54.5938 46.3594 49.9219
Q50.875 45.2656 50.875 35.0156
L50.875 0
z
" id="WenQuanYiMicroHei-68"/>
       <path d="
M16.7031 27.6875
L23.2969 35.9844
L37.5938 53.6094
L47.9062 53.6094
L28.3281 30.4219
L49.2188 0
L39.0156 0
L22.6094 24.6094
L17.2812 20.6094
L17.2812 0
L8.5 0
L8.5 75.9844
L17.2812 75.9844
L17.2812 41.1094
L16.5 27.6875
z
" id="WenQuanYiMicroHei-6b"/>
      </defs>
      <g transform="translate(165.975204911 292.056275781)rotate(-90.0)scale(0.1 -0.1)">
       <use xlink:href="#WenQuanYiMicroHei-68"/>
       <use x="58.88671875" xlink:href="#WenQuanYiMicroHei-6f"/>
       <use x="116.6015625" xlink:href="#WenQuanYiMicroHei-6d"/>
       <use x="206.201171875" xlink:href="#WenQuanYiMicroHei-65"/>
       <use x="259.716796875" xlink:href="#WenQuanYiMicroHei-6d"/>
       <use x="349.31640625" xlink:href="#WenQuanYiMicroHei-61"/>
       <use x="402.392578125" xlink:href="#WenQuanYiMicroHei-6b"/>
       <use x="452.001953125" xlink:href="#WenQuanYiMicroHei-65"/>
       <use x="505.517578125" xlink:href="#WenQuanYiMicroHei-72"/>
      </g>
     </g>
    </g>
    <g id="xtick_6">
     <g id="line2d_17">
      <path clip-path="url(#pb48d56a3bc)" d="
M195.263 234.566
L195.263 11.3657" style="fill:none;stroke:#000000;stroke-dasharray:1.000000,3.000000;stroke-dashoffset:0.0;stroke-width:0.5;"/>
     </g>
     <g id="line2d_18">
      <g>
       <use style="stroke:#000000;stroke-width:0.5;" x="195.263262946" xlink:href="#m93b0483c22" y="234.565650781"/>
      </g>
     </g>
     <g id="line2d_19">
      <g>
       <use style="stroke:#000000;stroke-width:0.5;" x="195.263262946" xlink:href="#m741efc42ff" y="11.3656507812"/>
      </g>
     </g>
     <g id="text_6">
      <!-- programmer -->
      <defs>
       <path d="
M49.8125 53.6094
L49.8125 48.0938
L40.1875 46.7812
Q41.5469 45.0625 42.4688 42.4062
Q43.4062 39.75 43.4062 36.375
Q43.4062 32.6719 42.25 29.5156
Q41.1094 26.375 38.7812 24.0781
Q36.4688 21.7812 33.0469 20.4844
Q29.6406 19.1875 25.0938 19.1875
Q24.0312 19.1875 22.9531 19.2031
Q21.875 19.2344 21.1875 19.3906
Q20.3594 18.8906 19.5469 18.2812
Q18.75 17.6719 18.0938 16.8906
Q17.4375 16.1094 17.0156 15.125
Q16.6094 14.1562 16.6094 12.9844
Q16.6094 11.6719 17.1875 10.8594
Q17.7812 10.0625 18.7812 9.625
Q19.7812 9.1875 21.1406 9.03125
Q22.5156 8.89062 24.0312 8.89062
L32.625 8.89062
Q37.1562 8.89062 40.2812 7.73438
Q43.4062 6.59375 45.375 4.64062
Q47.3594 2.6875 48.2344 0.015625
Q49.125 -2.64062 49.125 -5.60938
Q49.125 -9.90625 47.5312 -13.3281
Q45.9531 -16.75 42.6719 -19.1094
Q39.4062 -21.4844 34.3906 -22.75
Q29.3906 -24.0312 22.6094 -24.0312
Q17.3906 -24.0312 13.4844 -23
Q9.57812 -21.9688 6.98438 -20.0156
Q4.39062 -18.0625 3.09375 -15.2969
Q1.8125 -12.5469 1.8125 -9.07812
Q1.8125 -6.15625 2.76562 -3.92188
Q3.71875 -1.70312 5.32812 -0.09375
Q6.9375 1.51562 9.0625 2.53125
Q11.1875 3.5625 13.4844 4.10938
Q11.4219 5.03125 10.1094 7.03125
Q8.79688 9.03125 8.79688 11.625
Q8.79688 14.5938 10.3594 16.7656
Q11.9219 18.9531 15.2812 21
Q13.1875 21.875 11.4531 23.4062
Q9.71875 24.9531 8.51562 26.9219
Q7.32812 28.9062 6.65625 31.25
Q6 33.5938 6 36.0781
Q6 40.4375 7.21875 43.8438
Q8.45312 47.2656 10.8438 49.6562
Q13.2344 52.0469 16.7969 53.3125
Q20.3594 54.5938 25.0938 54.5938
Q26.9062 54.5938 28.8281 54.3125
Q30.7656 54.0469 32.0781 53.6094
z

M10.2031 -8.79688
Q10.2031 -10.5938 10.8281 -12.1562
Q11.4688 -13.7188 12.9062 -14.8438
Q14.3594 -15.9688 16.7188 -16.625
Q19.0938 -17.2812 22.6094 -17.2812
Q31.6875 -17.2812 36.2031 -14.4688
Q40.7188 -11.6719 40.7188 -6.39062
Q40.7188 -4.15625 40.125 -2.73438
Q39.5469 -1.3125 38.2031 -0.5
Q36.8594 0.296875 34.6562 0.578125
Q32.4688 0.875 29.2969 0.875
L20.7031 0.875
Q19 0.875 17.1406 0.484375
Q15.2812 0.09375 13.7344 -0.96875
Q12.2031 -2.04688 11.2031 -3.92188
Q10.2031 -5.8125 10.2031 -8.79688
M14.7031 36.375
Q14.7031 30.7656 17.3281 28.0312
Q19.9688 25.2969 24.8125 25.2969
Q29.6875 25.2969 32.2031 28
Q34.7188 30.7188 34.7188 36.5312
Q34.7188 42.5312 32.1562 45.3594
Q29.5938 48.1875 24.7031 48.1875
Q19.875 48.1875 17.2812 45.25
Q14.7031 42.3281 14.7031 36.375" id="WenQuanYiMicroHei-67"/>
       <path d="
M32.7188 -0.984375
Q29.8281 -0.984375 27.4844 -0.34375
Q25.1406 0.296875 23.2656 1.34375
Q21.3906 2.39062 19.9375 3.79688
Q18.5 5.21875 17.3906 6.78125
L16.7969 6.78125
Q16.9375 5.125 17.0938 3.60938
Q17.1875 2.34375 17.2812 1
Q17.3906 -0.34375 17.3906 -1.125
L17.3906 -24.0312
L8.5 -24.0312
L8.5 53.6094
L15.7188 53.6094
L17 46.3906
L17.3906 46.3906
Q18.5 48.0938 19.9219 49.5781
Q21.3438 51.0781 23.2188 52.1719
Q25.0938 53.2656 27.4375 53.9219
Q29.7812 54.5938 32.7188 54.5938
Q37.3125 54.5938 41.0625 52.8281
Q44.8281 51.0781 47.4844 47.5781
Q50.1406 44.0938 51.6094 38.9062
Q53.0781 33.7344 53.0781 26.9062
Q53.0781 20.0156 51.6094 14.8125
Q50.1406 9.625 47.4844 6.10938
Q44.8281 2.59375 41.0625 0.796875
Q37.3125 -0.984375 32.7188 -0.984375
M31 47.2188
Q27.2969 47.2188 24.7344 46.0938
Q22.1719 44.9688 20.5781 42.6719
Q19 40.375 18.2344 36.9531
Q17.4844 33.5469 17.3906 28.9062
L17.3906 26.9062
Q17.3906 21.9688 18.0469 18.1406
Q18.7031 14.3125 20.2812 11.6875
Q21.875 9.07812 24.5156 7.73438
Q27.1562 6.39062 31.1094 6.39062
Q37.7031 6.39062 40.7969 11.7188
Q43.8906 17.0469 43.8906 27
Q43.8906 37.1562 40.7969 42.1875
Q37.7031 47.2188 31 47.2188" id="WenQuanYiMicroHei-70"/>
      </defs>
      <g transform="translate(197.860919196 294.873463281)rotate(-90.0)scale(0.1 -0.1)">
       <use xlink:href="#WenQuanYiMicroHei-70"/>
       <use x="58.59375" xlink:href="#WenQuanYiMicroHei-72"/>
       <use x="98.486328125" xlink:href="#WenQuanYiMicroHei-6f"/>
       <use x="156.201171875" xlink:href="#WenQuanYiMicroHei-67"/>
       <use x="208.0078125" xlink:href="#WenQuanYiMicroHei-72"/>
       <use x="247.900390625" xlink:href="#WenQuanYiMicroHei-61"/>
       <use x="300.9765625" xlink:href="#WenQuanYiMicroHei-6d"/>
       <use x="390.576171875" xlink:href="#WenQuanYiMicroHei-6d"/>
       <use x="480.17578125" xlink:href="#WenQuanYiMicroHei-65"/>
       <use x="533.69140625" xlink:href="#WenQuanYiMicroHei-72"/>
      </g>
     </g>
    </g>
    <g id="xtick_7">
     <g id="line2d_20">
      <path clip-path="url(#pb48d56a3bc)" d="
M227.149 234.566
L227.149 11.3657" style="fill:none;stroke:#000000;stroke-dasharray:1.000000,3.000000;stroke-dashoffset:0.0;stroke-width:0.5;"/>
     </g>
     <g id="line2d_21">
      <g>
       <use style="stroke:#000000;stroke-width:0.5;" x="227.148977232" xlink:href="#m93b0483c22" y="234.565650781"/>
      </g>
     </g>
     <g id="line2d_22">
      <g>
       <use style="stroke:#000000;stroke-width:0.5;" x="227.148977232" xlink:href="#m741efc42ff" y="11.3656507812"/>
      </g>
     </g>
     <g id="text_7">
      <!-- technician -->
      <defs>
       <path d="
M29 -0.984375
Q24.0781 -0.984375 19.7812 0.546875
Q15.4844 2.09375 12.2969 5.4375
Q9.125 8.79688 7.3125 13.9844
Q5.51562 19.1875 5.51562 26.5156
Q5.51562 34.1875 7.375 39.5312
Q9.23438 44.875 12.4688 48.2188
Q15.7188 51.5625 20.0625 53.0781
Q24.4219 54.5938 29.3906 54.5938
Q33.2031 54.5938 36.8438 53.7656
Q40.4844 52.9375 42.9219 51.7031
L40.2812 44.1875
Q39.1562 44.6719 37.7812 45.1406
Q36.4219 45.6094 34.9531 45.9688
Q33.5 46.3438 32.0781 46.5625
Q30.6719 46.7812 29.3906 46.7812
Q21.7344 46.7812 18.2188 41.875
Q14.7031 36.9688 14.7031 26.6094
Q14.7031 16.3125 18.2344 11.5469
Q21.7812 6.78125 29 6.78125
Q32.9531 6.78125 36.1562 7.6875
Q39.3594 8.59375 42 9.8125
L42 1.90625
Q39.3594 0.484375 36.3438 -0.25
Q33.3438 -0.984375 29 -0.984375" id="WenQuanYiMicroHei-63"/>
      </defs>
      <g transform="translate(229.746633482 283.753150781)rotate(-90.0)scale(0.1 -0.1)">
       <use xlink:href="#WenQuanYiMicroHei-74"/>
       <use x="33.88671875" xlink:href="#WenQuanYiMicroHei-65"/>
       <use x="87.40234375" xlink:href="#WenQuanYiMicroHei-63"/>
       <use x="133.69140625" xlink:href="#WenQuanYiMicroHei-68"/>
       <use x="192.578125" xlink:href="#WenQuanYiMicroHei-6e"/>
       <use x="251.46484375" xlink:href="#WenQuanYiMicroHei-69"/>
       <use x="277.34375" xlink:href="#WenQuanYiMicroHei-63"/>
       <use x="323.6328125" xlink:href="#WenQuanYiMicroHei-69"/>
       <use x="349.51171875" xlink:href="#WenQuanYiMicroHei-61"/>
       <use x="402.587890625" xlink:href="#WenQuanYiMicroHei-6e"/>
      </g>
     </g>
    </g>
    <g id="xtick_8">
     <g id="line2d_23">
      <path clip-path="url(#pb48d56a3bc)" d="
M259.035 234.566
L259.035 11.3657" style="fill:none;stroke:#000000;stroke-dasharray:1.000000,3.000000;stroke-dashoffset:0.0;stroke-width:0.5;"/>
     </g>
     <g id="line2d_24">
      <g>
       <use style="stroke:#000000;stroke-width:0.5;" x="259.034691518" xlink:href="#m93b0483c22" y="234.565650781"/>
      </g>
     </g>
     <g id="line2d_25">
      <g>
       <use style="stroke:#000000;stroke-width:0.5;" x="259.034691518" xlink:href="#m741efc42ff" y="11.3656507812"/>
      </g>
     </g>
     <g id="text_8">
      <!-- other -->
      <g transform="translate(261.632347768 262.204713281)rotate(-90.0)scale(0.1 -0.1)">
       <use xlink:href="#WenQuanYiMicroHei-6f"/>
       <use x="57.71484375" xlink:href="#WenQuanYiMicroHei-74"/>
       <use x="91.6015625" xlink:href="#WenQuanYiMicroHei-68"/>
       <use x="150.48828125" xlink:href="#WenQuanYiMicroHei-65"/>
       <use x="204.00390625" xlink:href="#WenQuanYiMicroHei-72"/>
      </g>
     </g>
    </g>
    <g id="xtick_9">
     <g id="line2d_26">
      <path clip-path="url(#pb48d56a3bc)" d="
M290.92 234.566
L290.92 11.3657" style="fill:none;stroke:#000000;stroke-dasharray:1.000000,3.000000;stroke-dashoffset:0.0;stroke-width:0.5;"/>
     </g>
     <g id="line2d_27">
      <g>
       <use style="stroke:#000000;stroke-width:0.5;" x="290.920405804" xlink:href="#m93b0483c22" y="234.565650781"/>
      </g>
     </g>
     <g id="line2d_28">
      <g>
       <use style="stroke:#000000;stroke-width:0.5;" x="290.920405804" xlink:href="#m741efc42ff" y="11.3656507812"/>
      </g>
     </g>
     <g id="text_9">
      <!-- scientist -->
      <g transform="translate(293.518062054 274.784400781)rotate(-90.0)scale(0.1 -0.1)">
       <use xlink:href="#WenQuanYiMicroHei-73"/>
       <use x="45.1171875" xlink:href="#WenQuanYiMicroHei-63"/>
       <use x="91.40625" xlink:href="#WenQuanYiMicroHei-69"/>
       <use x="117.28515625" xlink:href="#WenQuanYiMicroHei-65"/>
       <use x="170.80078125" xlink:href="#WenQuanYiMicroHei-6e"/>
       <use x="229.6875" xlink:href="#WenQuanYiMicroHei-74"/>
       <use x="263.57421875" xlink:href="#WenQuanYiMicroHei-69"/>
       <use x="289.453125" xlink:href="#WenQuanYiMicroHei-73"/>
       <use x="334.5703125" xlink:href="#WenQuanYiMicroHei-74"/>
      </g>
     </g>
    </g>
    <g id="xtick_10">
     <g id="line2d_29">
      <path clip-path="url(#pb48d56a3bc)" d="
M322.806 234.566
L322.806 11.3657" style="fill:none;stroke:#000000;stroke-dasharray:1.000000,3.000000;stroke-dashoffset:0.0;stroke-width:0.5;"/>
     </g>
     <g id="line2d_30">
      <g>
       <use style="stroke:#000000;stroke-width:0.5;" x="322.806120089" xlink:href="#m93b0483c22" y="234.565650781"/>
      </g>
     </g>
     <g id="line2d_31">
      <g>
       <use style="stroke:#000000;stroke-width:0.5;" x="322.806120089" xlink:href="#m741efc42ff" y="11.3656507812"/>
      </g>
     </g>
     <g id="text_10">
      <!-- salesman -->
      <defs>
       <path d="
M17.3906 0
L8.5 0
L8.5 75.9844
L17.3906 75.9844
z
" id="WenQuanYiMicroHei-6c"/>
      </defs>
      <g transform="translate(325.403776339 279.753150781)rotate(-90.0)scale(0.1 -0.1)">
       <use xlink:href="#WenQuanYiMicroHei-73"/>
       <use x="45.1171875" xlink:href="#WenQuanYiMicroHei-61"/>
       <use x="98.193359375" xlink:href="#WenQuanYiMicroHei-6c"/>
       <use x="124.072265625" xlink:href="#WenQuanYiMicroHei-65"/>
       <use x="177.587890625" xlink:href="#WenQuanYiMicroHei-73"/>
       <use x="222.705078125" xlink:href="#WenQuanYiMicroHei-6d"/>
       <use x="312.3046875" xlink:href="#WenQuanYiMicroHei-61"/>
       <use x="365.380859375" xlink:href="#WenQuanYiMicroHei-6e"/>
      </g>
     </g>
    </g>
    <g id="xtick_11">
     <g id="line2d_32">
      <path clip-path="url(#pb48d56a3bc)" d="
M354.692 234.566
L354.692 11.3657" style="fill:none;stroke:#000000;stroke-dasharray:1.000000,3.000000;stroke-dashoffset:0.0;stroke-width:0.5;"/>
     </g>
     <g id="line2d_33">
      <g>
       <use style="stroke:#000000;stroke-width:0.5;" x="354.691834375" xlink:href="#m93b0483c22" y="234.565650781"/>
      </g>
     </g>
     <g id="line2d_34">
      <g>
       <use style="stroke:#000000;stroke-width:0.5;" x="354.691834375" xlink:href="#m741efc42ff" y="11.3656507812"/>
      </g>
     </g>
     <g id="text_11">
      <!-- writer -->
      <defs>
       <path d="
M49.2188 0
L41.0156 30.0781
Q40.8281 30.9531 40.5312 32.0469
Q40.2344 33.1562 39.9375 34.375
Q39.6562 35.5938 39.3281 36.8594
Q39.0156 38.1406 38.7188 39.3594
Q38.0312 42.1875 37.3125 45.2188
L37.0156 45.2188
Q36.3281 42.1406 35.6875 39.3125
Q35.1562 36.8594 34.5469 34.2656
Q33.9375 31.6875 33.4062 29.8906
L25 0
L14.7031 0
L0.984375 53.6094
L10.2969 53.6094
L16.7031 25.0938
Q17.1875 22.9062 17.6719 20.3438
Q18.1719 17.7812 18.6094 15.2656
Q19.0469 12.75 19.3906 10.5156
Q19.7344 8.29688 19.9219 6.89062
L20.2188 6.89062
Q20.4531 8.15625 20.875 10.2812
Q21.2969 12.4062 21.7969 14.7656
Q22.3125 17.1406 22.8438 19.4531
Q23.3906 21.7812 23.875 23.3906
L32.625 53.6094
L42.1875 53.6094
L50.5938 23.3906
Q51.0312 21.7344 51.5938 19.4844
Q52.1562 17.2344 52.6875 14.9062
Q53.2188 12.5938 53.6562 10.4375
Q54.1094 8.29688 54.2969 6.89062
L54.5938 6.89062
Q54.7344 8.15625 55.0469 10.2812
Q55.375 12.4062 55.8125 14.9375
Q56.25 17.4844 56.7656 20.1406
Q57.2812 22.7969 57.8125 25.0938
L64.5 53.6094
L73.5781 53.6094
L59.7188 0
z
" id="WenQuanYiMicroHei-77"/>
      </defs>
      <g transform="translate(357.289490625 265.034400781)rotate(-90.0)scale(0.1 -0.1)">
       <use xlink:href="#WenQuanYiMicroHei-77"/>
       <use x="74.609375" xlink:href="#WenQuanYiMicroHei-72"/>
       <use x="114.501953125" xlink:href="#WenQuanYiMicroHei-69"/>
       <use x="140.380859375" xlink:href="#WenQuanYiMicroHei-74"/>
       <use x="174.267578125" xlink:href="#WenQuanYiMicroHei-65"/>
       <use x="227.783203125" xlink:href="#WenQuanYiMicroHei-72"/>
      </g>
     </g>
    </g>
    <g id="xtick_12">
     <g id="line2d_35">
      <path clip-path="url(#pb48d56a3bc)" d="
M386.578 234.566
L386.578 11.3657" style="fill:none;stroke:#000000;stroke-dasharray:1.000000,3.000000;stroke-dashoffset:0.0;stroke-width:0.5;"/>
     </g>
     <g id="line2d_36">
      <g>
       <use style="stroke:#000000;stroke-width:0.5;" x="386.577548661" xlink:href="#m93b0483c22" y="234.565650781"/>
      </g>
     </g>
     <g id="line2d_37">
      <g>
       <use style="stroke:#000000;stroke-width:0.5;" x="386.577548661" xlink:href="#m741efc42ff" y="11.3656507812"/>
      </g>
     </g>
     <g id="text_12">
      <!-- engineer -->
      <g transform="translate(389.175204911 277.404713281)rotate(-90.0)scale(0.1 -0.1)">
       <use xlink:href="#WenQuanYiMicroHei-65"/>
       <use x="53.515625" xlink:href="#WenQuanYiMicroHei-6e"/>
       <use x="112.40234375" xlink:href="#WenQuanYiMicroHei-67"/>
       <use x="164.208984375" xlink:href="#WenQuanYiMicroHei-69"/>
       <use x="190.087890625" xlink:href="#WenQuanYiMicroHei-6e"/>
       <use x="248.974609375" xlink:href="#WenQuanYiMicroHei-65"/>
       <use x="302.490234375" xlink:href="#WenQuanYiMicroHei-65"/>
       <use x="356.005859375" xlink:href="#WenQuanYiMicroHei-72"/>
      </g>
     </g>
    </g>
    <g id="xtick_13">
     <g id="line2d_38">
      <path clip-path="url(#pb48d56a3bc)" d="
M418.463 234.566
L418.463 11.3657" style="fill:none;stroke:#000000;stroke-dasharray:1.000000,3.000000;stroke-dashoffset:0.0;stroke-width:0.5;"/>
     </g>
     <g id="line2d_39">
      <g>
       <use style="stroke:#000000;stroke-width:0.5;" x="418.463262946" xlink:href="#m93b0483c22" y="234.565650781"/>
      </g>
     </g>
     <g id="line2d_40">
      <g>
       <use style="stroke:#000000;stroke-width:0.5;" x="418.463262946" xlink:href="#m741efc42ff" y="11.3656507812"/>
      </g>
     </g>
     <g id="text_13">
      <!-- lawyer -->
      <defs>
       <path d="
M0.484375 53.6094
L9.71875 53.6094
L20.2188 23.6875
Q20.9062 21.7344 21.6094 19.5781
Q22.3125 17.4375 22.9219 15.2812
Q23.5312 13.1406 23.9688 11.125
Q24.4219 9.125 24.6094 7.42188
L24.9062 7.42188
Q25.1406 8.64062 25.6719 10.7344
Q26.2188 12.8438 26.875 15.2031
Q27.5469 17.5781 28.25 19.875
Q28.9531 22.1719 29.5 23.7812
L39.2031 53.6094
L48.3906 53.6094
L27.2031 -6.98438
Q25.8281 -10.9375 24.2344 -14.0781
Q22.6562 -17.2344 20.5469 -19.4219
Q18.4531 -21.625 15.625 -22.8281
Q12.7969 -24.0312 8.89062 -24.0312
Q6.34375 -24.0312 4.48438 -23.75
Q2.64062 -23.4844 1.3125 -23.1875
L1.3125 -16.1094
Q2.34375 -16.3594 3.90625 -16.5312
Q5.46875 -16.7031 7.17188 -16.7031
Q9.51562 -16.7031 11.2188 -16.1406
Q12.9375 -15.5781 14.2031 -14.5
Q15.4844 -13.4219 16.375 -11.8594
Q17.2812 -10.2969 18.0156 -8.29688
L20.7969 -0.484375
z
" id="WenQuanYiMicroHei-79"/>
      </defs>
      <g transform="translate(421.060919196 267.100025781)rotate(-90.0)scale(0.1 -0.1)">
       <use xlink:href="#WenQuanYiMicroHei-6c"/>
       <use x="25.87890625" xlink:href="#WenQuanYiMicroHei-61"/>
       <use x="78.955078125" xlink:href="#WenQuanYiMicroHei-77"/>
       <use x="153.564453125" xlink:href="#WenQuanYiMicroHei-79"/>
       <use x="202.44140625" xlink:href="#WenQuanYiMicroHei-65"/>
       <use x="255.95703125" xlink:href="#WenQuanYiMicroHei-72"/>
      </g>
     </g>
    </g>
    <g id="xtick_14">
     <g id="line2d_41">
      <path clip-path="url(#pb48d56a3bc)" d="
M450.349 234.566
L450.349 11.3657" style="fill:none;stroke:#000000;stroke-dasharray:1.000000,3.000000;stroke-dashoffset:0.0;stroke-width:0.5;"/>
     </g>
     <g id="line2d_42">
      <g>
       <use style="stroke:#000000;stroke-width:0.5;" x="450.348977232" xlink:href="#m93b0483c22" y="234.565650781"/>
      </g>
     </g>
     <g id="line2d_43">
      <g>
       <use style="stroke:#000000;stroke-width:0.5;" x="450.348977232" xlink:href="#m741efc42ff" y="11.3656507812"/>
      </g>
     </g>
     <g id="text_14">
      <!-- marketing -->
      <g transform="translate(452.946633482 283.131275781)rotate(-90.0)scale(0.1 -0.1)">
       <use xlink:href="#WenQuanYiMicroHei-6d"/>
       <use x="89.599609375" xlink:href="#WenQuanYiMicroHei-61"/>
       <use x="142.67578125" xlink:href="#WenQuanYiMicroHei-72"/>
       <use x="182.568359375" xlink:href="#WenQuanYiMicroHei-6b"/>
       <use x="232.177734375" xlink:href="#WenQuanYiMicroHei-65"/>
       <use x="285.693359375" xlink:href="#WenQuanYiMicroHei-74"/>
       <use x="319.580078125" xlink:href="#WenQuanYiMicroHei-69"/>
       <use x="345.458984375" xlink:href="#WenQuanYiMicroHei-6e"/>
       <use x="404.345703125" xlink:href="#WenQuanYiMicroHei-67"/>
      </g>
     </g>
    </g>
    <g id="xtick_15">
     <g id="line2d_44">
      <path clip-path="url(#pb48d56a3bc)" d="
M482.235 234.566
L482.235 11.3657" style="fill:none;stroke:#000000;stroke-dasharray:1.000000,3.000000;stroke-dashoffset:0.0;stroke-width:0.5;"/>
     </g>
     <g id="line2d_45">
      <g>
       <use style="stroke:#000000;stroke-width:0.5;" x="482.234691518" xlink:href="#m93b0483c22" y="234.565650781"/>
      </g>
     </g>
     <g id="line2d_46">
      <g>
       <use style="stroke:#000000;stroke-width:0.5;" x="482.234691518" xlink:href="#m741efc42ff" y="11.3656507812"/>
      </g>
     </g>
     <g id="text_15">
      <!-- executive -->
      <defs>
       <path d="
M18.3125 0
L0 53.6094
L9.1875 53.6094
L18.8906 23.7812
Q19.4375 22.1719 20.1719 19.625
Q20.9062 17.0938 21.625 14.4531
Q22.3594 11.8125 22.9688 9.46875
Q23.5781 7.125 23.7812 5.90625
L24.125 5.90625
Q24.3594 7.125 24.9375 9.46875
Q25.5312 11.8125 26.2656 14.4531
Q27 17.0938 27.7344 19.625
Q28.4688 22.1719 29 23.7812
L38.7188 53.6094
L47.9062 53.6094
L29.5938 0
z
" id="WenQuanYiMicroHei-76"/>
       <path d="
M19.9219 27.4844
L2.6875 53.6094
L12.7969 53.6094
L25 33.5938
L37.2031 53.6094
L47.3125 53.6094
L29.9844 27.4844
L48.1875 0
L38.0938 0
L25 21.2969
L11.8125 0
L1.70312 0
z
" id="WenQuanYiMicroHei-78"/>
      </defs>
      <g transform="translate(484.832347768 279.851588281)rotate(-90.0)scale(0.1 -0.1)">
       <use xlink:href="#WenQuanYiMicroHei-65"/>
       <use x="53.515625" xlink:href="#WenQuanYiMicroHei-78"/>
       <use x="103.515625" xlink:href="#WenQuanYiMicroHei-65"/>
       <use x="157.03125" xlink:href="#WenQuanYiMicroHei-63"/>
       <use x="203.3203125" xlink:href="#WenQuanYiMicroHei-75"/>
       <use x="262.20703125" xlink:href="#WenQuanYiMicroHei-74"/>
       <use x="296.09375" xlink:href="#WenQuanYiMicroHei-69"/>
       <use x="321.97265625" xlink:href="#WenQuanYiMicroHei-76"/>
       <use x="369.873046875" xlink:href="#WenQuanYiMicroHei-65"/>
      </g>
     </g>
    </g>
    <g id="xtick_16">
     <g id="line2d_47">
      <path clip-path="url(#pb48d56a3bc)" d="
M514.12 234.566
L514.12 11.3657" style="fill:none;stroke:#000000;stroke-dasharray:1.000000,3.000000;stroke-dashoffset:0.0;stroke-width:0.5;"/>
     </g>
     <g id="line2d_48">
      <g>
       <use style="stroke:#000000;stroke-width:0.5;" x="514.120405804" xlink:href="#m93b0483c22" y="234.565650781"/>
      </g>
     </g>
     <g id="line2d_49">
      <g>
       <use style="stroke:#000000;stroke-width:0.5;" x="514.120405804" xlink:href="#m741efc42ff" y="11.3656507812"/>
      </g>
     </g>
     <g id="text_16">
      <!-- administrator -->
      <g transform="translate(516.718062054 299.445338281)rotate(-90.0)scale(0.1 -0.1)">
       <use xlink:href="#WenQuanYiMicroHei-61"/>
       <use x="53.076171875" xlink:href="#WenQuanYiMicroHei-64"/>
       <use x="111.669921875" xlink:href="#WenQuanYiMicroHei-6d"/>
       <use x="201.26953125" xlink:href="#WenQuanYiMicroHei-69"/>
       <use x="227.1484375" xlink:href="#WenQuanYiMicroHei-6e"/>
       <use x="286.03515625" xlink:href="#WenQuanYiMicroHei-69"/>
       <use x="311.9140625" xlink:href="#WenQuanYiMicroHei-73"/>
       <use x="357.03125" xlink:href="#WenQuanYiMicroHei-74"/>
       <use x="390.91796875" xlink:href="#WenQuanYiMicroHei-72"/>
       <use x="430.810546875" xlink:href="#WenQuanYiMicroHei-61"/>
       <use x="483.88671875" xlink:href="#WenQuanYiMicroHei-74"/>
       <use x="517.7734375" xlink:href="#WenQuanYiMicroHei-6f"/>
       <use x="575.48828125" xlink:href="#WenQuanYiMicroHei-72"/>
      </g>
     </g>
    </g>
    <g id="xtick_17">
     <g id="line2d_50">
      <path clip-path="url(#pb48d56a3bc)" d="
M546.006 234.566
L546.006 11.3657" style="fill:none;stroke:#000000;stroke-dasharray:1.000000,3.000000;stroke-dashoffset:0.0;stroke-width:0.5;"/>
     </g>
     <g id="line2d_51">
      <g>
       <use style="stroke:#000000;stroke-width:0.5;" x="546.006120089" xlink:href="#m93b0483c22" y="234.565650781"/>
      </g>
     </g>
     <g id="line2d_52">
      <g>
       <use style="stroke:#000000;stroke-width:0.5;" x="546.006120089" xlink:href="#m741efc42ff" y="11.3656507812"/>
      </g>
     </g>
     <g id="text_17">
      <!-- librarian -->
      <defs>
       <path d="
M32.7188 54.5938
Q37.3125 54.5938 41.0625 52.8281
Q44.8281 51.0781 47.4844 47.5781
Q50.1406 44.0938 51.6094 38.9062
Q53.0781 33.7344 53.0781 26.9062
Q53.0781 20.0156 51.6094 14.8125
Q50.1406 9.625 47.4844 6.10938
Q44.8281 2.59375 41.0625 0.796875
Q37.3125 -0.984375 32.7188 -0.984375
Q29.8281 -0.984375 27.4844 -0.34375
Q25.1406 0.296875 23.2656 1.34375
Q21.3906 2.39062 19.9375 3.79688
Q18.5 5.21875 17.3906 6.78125
L16.7969 6.78125
L14.9844 0
L8.5 0
L8.5 75.9844
L17.3906 75.9844
L17.3906 57.625
Q17.3906 55.9062 17.3281 53.9688
Q17.2812 52.0469 17.1875 50.3906
Q17.0938 48.4375 17 46.5781
L17.3906 46.5781
Q18.5 48.2969 19.9219 49.75
Q21.3438 51.2188 23.2188 52.2969
Q25.0938 53.375 27.4375 53.9844
Q29.7812 54.5938 32.7188 54.5938
M31 47.2188
Q27.0938 47.2188 24.4844 45.9688
Q21.875 44.7344 20.2812 42.1875
Q18.7031 39.6562 18.0469 35.8438
Q17.3906 32.0312 17.3906 26.9062
Q17.3906 21.9688 18.0469 18.1406
Q18.7031 14.3125 20.2812 11.6875
Q21.875 9.07812 24.5156 7.73438
Q27.1562 6.39062 31.1094 6.39062
Q37.7031 6.39062 40.7969 11.7188
Q43.8906 17.0469 43.8906 27
Q43.8906 37.1562 40.7969 42.1875
Q37.7031 47.2188 31 47.2188" id="WenQuanYiMicroHei-62"/>
      </defs>
      <g transform="translate(548.603776339 275.018775781)rotate(-90.0)scale(0.1 -0.1)">
       <use xlink:href="#WenQuanYiMicroHei-6c"/>
       <use x="25.87890625" xlink:href="#WenQuanYiMicroHei-69"/>
       <use x="51.7578125" xlink:href="#WenQuanYiMicroHei-62"/>
       <use x="110.3515625" xlink:href="#WenQuanYiMicroHei-72"/>
       <use x="150.244140625" xlink:href="#WenQuanYiMicroHei-61"/>
       <use x="203.3203125" xlink:href="#WenQuanYiMicroHei-72"/>
       <use x="243.212890625" xlink:href="#WenQuanYiMicroHei-69"/>
       <use x="269.091796875" xlink:href="#WenQuanYiMicroHei-61"/>
       <use x="322.16796875" xlink:href="#WenQuanYiMicroHei-6e"/>
      </g>
     </g>
    </g>
    <g id="xtick_18">
     <g id="line2d_53">
      <path clip-path="url(#pb48d56a3bc)" d="
M577.892 234.566
L577.892 11.3657" style="fill:none;stroke:#000000;stroke-dasharray:1.000000,3.000000;stroke-dashoffset:0.0;stroke-width:0.5;"/>
     </g>
     <g id="line2d_54">
      <g>
       <use style="stroke:#000000;stroke-width:0.5;" x="577.891834375" xlink:href="#m93b0483c22" y="234.565650781"/>
      </g>
     </g>
     <g id="line2d_55">
      <g>
       <use style="stroke:#000000;stroke-width:0.5;" x="577.891834375" xlink:href="#m741efc42ff" y="11.3656507812"/>
      </g>
     </g>
     <g id="text_18">
      <!-- healthcare -->
      <g transform="translate(580.489490625 284.904713281)rotate(-90.0)scale(0.1 -0.1)">
       <use xlink:href="#WenQuanYiMicroHei-68"/>
       <use x="58.88671875" xlink:href="#WenQuanYiMicroHei-65"/>
       <use x="112.40234375" xlink:href="#WenQuanYiMicroHei-61"/>
       <use x="165.478515625" xlink:href="#WenQuanYiMicroHei-6c"/>
       <use x="191.357421875" xlink:href="#WenQuanYiMicroHei-74"/>
       <use x="225.244140625" xlink:href="#WenQuanYiMicroHei-68"/>
       <use x="284.130859375" xlink:href="#WenQuanYiMicroHei-63"/>
       <use x="330.419921875" xlink:href="#WenQuanYiMicroHei-61"/>
       <use x="383.49609375" xlink:href="#WenQuanYiMicroHei-72"/>
       <use x="423.388671875" xlink:href="#WenQuanYiMicroHei-65"/>
      </g>
     </g>
    </g>
    <g id="xtick_19">
     <g id="line2d_56">
      <path clip-path="url(#pb48d56a3bc)" d="
M609.778 234.566
L609.778 11.3657" style="fill:none;stroke:#000000;stroke-dasharray:1.000000,3.000000;stroke-dashoffset:0.0;stroke-width:0.5;"/>
     </g>
     <g id="line2d_57">
      <g>
       <use style="stroke:#000000;stroke-width:0.5;" x="609.777548661" xlink:href="#m93b0483c22" y="234.565650781"/>
      </g>
     </g>
     <g id="line2d_58">
      <g>
       <use style="stroke:#000000;stroke-width:0.5;" x="609.777548661" xlink:href="#m741efc42ff" y="11.3656507812"/>
      </g>
     </g>
     <g id="text_19">
      <!-- educator -->
      <g transform="translate(612.375204911 278.001588281)rotate(-90.0)scale(0.1 -0.1)">
       <use xlink:href="#WenQuanYiMicroHei-65"/>
       <use x="53.515625" xlink:href="#WenQuanYiMicroHei-64"/>
       <use x="112.109375" xlink:href="#WenQuanYiMicroHei-75"/>
       <use x="170.99609375" xlink:href="#WenQuanYiMicroHei-63"/>
       <use x="217.28515625" xlink:href="#WenQuanYiMicroHei-61"/>
       <use x="270.361328125" xlink:href="#WenQuanYiMicroHei-74"/>
       <use x="304.248046875" xlink:href="#WenQuanYiMicroHei-6f"/>
       <use x="361.962890625" xlink:href="#WenQuanYiMicroHei-72"/>
      </g>
     </g>
    </g>
    <g id="xtick_20">
     <g id="line2d_59">
      <path clip-path="url(#pb48d56a3bc)" d="
M641.663 234.566
L641.663 11.3657" style="fill:none;stroke:#000000;stroke-dasharray:1.000000,3.000000;stroke-dashoffset:0.0;stroke-width:0.5;"/>
     </g>
     <g id="line2d_60">
      <g>
       <use style="stroke:#000000;stroke-width:0.5;" x="641.663262946" xlink:href="#m93b0483c22" y="234.565650781"/>
      </g>
     </g>
     <g id="line2d_61">
      <g>
       <use style="stroke:#000000;stroke-width:0.5;" x="641.663262946" xlink:href="#m741efc42ff" y="11.3656507812"/>
      </g>
     </g>
     <g id="text_20">
      <!-- doctor -->
      <g transform="translate(644.260919196 267.225025781)rotate(-90.0)scale(0.1 -0.1)">
       <use xlink:href="#WenQuanYiMicroHei-64"/>
       <use x="58.59375" xlink:href="#WenQuanYiMicroHei-6f"/>
       <use x="116.30859375" xlink:href="#WenQuanYiMicroHei-63"/>
       <use x="162.59765625" xlink:href="#WenQuanYiMicroHei-74"/>
       <use x="196.484375" xlink:href="#WenQuanYiMicroHei-6f"/>
       <use x="254.19921875" xlink:href="#WenQuanYiMicroHei-72"/>
      </g>
     </g>
    </g>
    <g id="xtick_21">
     <g id="line2d_62">
      <path clip-path="url(#pb48d56a3bc)" d="
M673.549 234.566
L673.549 11.3657" style="fill:none;stroke:#000000;stroke-dasharray:1.000000,3.000000;stroke-dashoffset:0.0;stroke-width:0.5;"/>
     </g>
     <g id="line2d_63">
      <g>
       <use style="stroke:#000000;stroke-width:0.5;" x="673.548977232" xlink:href="#m93b0483c22" y="234.565650781"/>
      </g>
     </g>
     <g id="line2d_64">
      <g>
       <use style="stroke:#000000;stroke-width:0.5;" x="673.548977232" xlink:href="#m741efc42ff" y="11.3656507812"/>
      </g>
     </g>
     <g id="text_21">
      <!-- retired -->
      <g transform="translate(676.146633482 267.382838281)rotate(-90.0)scale(0.1 -0.1)">
       <use xlink:href="#WenQuanYiMicroHei-72"/>
       <use x="39.892578125" xlink:href="#WenQuanYiMicroHei-65"/>
       <use x="93.408203125" xlink:href="#WenQuanYiMicroHei-74"/>
       <use x="127.294921875" xlink:href="#WenQuanYiMicroHei-69"/>
       <use x="153.173828125" xlink:href="#WenQuanYiMicroHei-72"/>
       <use x="193.06640625" xlink:href="#WenQuanYiMicroHei-65"/>
       <use x="246.58203125" xlink:href="#WenQuanYiMicroHei-64"/>
      </g>
     </g>
    </g>
    <g id="text_22">
     <!-- occupation -->
     <g transform="translate(334.544948438 313.885774219)scale(0.0833 -0.0833)">
      <use xlink:href="#WenQuanYiMicroHei-6f"/>
      <use x="57.71484375" xlink:href="#WenQuanYiMicroHei-63"/>
      <use x="104.00390625" xlink:href="#WenQuanYiMicroHei-63"/>
      <use x="150.29296875" xlink:href="#WenQuanYiMicroHei-75"/>
      <use x="209.1796875" xlink:href="#WenQuanYiMicroHei-70"/>
      <use x="267.7734375" xlink:href="#WenQuanYiMicroHei-61"/>
      <use x="320.849609375" xlink:href="#WenQuanYiMicroHei-74"/>
      <use x="354.736328125" xlink:href="#WenQuanYiMicroHei-69"/>
      <use x="380.615234375" xlink:href="#WenQuanYiMicroHei-6f"/>
      <use x="438.330078125" xlink:href="#WenQuanYiMicroHei-6e"/>
     </g>
    </g>
   </g>
   <g id="matplotlib.axis_2">
    <g id="ytick_1">
     <g id="line2d_65">
      <path clip-path="url(#pb48d56a3bc)" d="
M19.8918 234.566
L689.492 234.566" style="fill:none;stroke:#000000;stroke-dasharray:1.000000,3.000000;stroke-dashoffset:0.0;stroke-width:0.5;"/>
     </g>
     <g id="line2d_66">
      <defs>
       <path d="
M0 0
L4 0" id="m728421d6d4" style="stroke:#000000;stroke-width:0.5;"/>
      </defs>
      <g>
       <use style="stroke:#000000;stroke-width:0.5;" x="19.891834375" xlink:href="#m728421d6d4" y="234.565650781"/>
      </g>
     </g>
     <g id="line2d_67">
      <defs>
       <path d="
M0 0
L-4 0" id="mcb0005524f" style="stroke:#000000;stroke-width:0.5;"/>
      </defs>
      <g>
       <use style="stroke:#000000;stroke-width:0.5;" x="689.491834375" xlink:href="#mcb0005524f" y="234.565650781"/>
      </g>
     </g>
     <g id="text_23">
      <!-- 0 -->
      <defs>
       <path d="
M50.3906 35.7969
Q50.3906 27.1562 49.1406 20.3125
Q47.9062 13.4844 45.1406 8.73438
Q42.3906 4 38.0312 1.5
Q33.6875 -0.984375 27.4844 -0.984375
Q21.7344 -0.984375 17.4531 1.5
Q13.1875 4 10.375 8.73438
Q7.5625 13.4844 6.17188 20.3125
Q4.78125 27.1562 4.78125 35.7969
Q4.78125 44.4375 6.03125 51.2656
Q7.28125 58.1094 9.98438 62.8125
Q12.7031 67.5312 17.0156 70.0156
Q21.3438 72.5156 27.4844 72.5156
Q33.2969 72.5156 37.5938 70.0469
Q41.8906 67.5781 44.7188 62.8594
Q47.5625 58.1562 48.9688 51.3125
Q50.3906 44.4844 50.3906 35.7969
M13.8125 35.7969
Q13.8125 28.4688 14.5469 23
Q15.2812 17.5312 16.8906 13.8906
Q18.5 10.25 21.1094 8.42188
Q23.7344 6.59375 27.4844 6.59375
Q31.25 6.59375 33.8906 8.39062
Q36.5312 10.2031 38.2031 13.8125
Q39.8906 17.4375 40.6406 22.9219
Q41.4062 28.4219 41.4062 35.7969
Q41.4062 43.1094 40.6406 48.5781
Q39.8906 54.0469 38.2031 57.6562
Q36.5312 61.2812 33.8906 63.0781
Q31.25 64.8906 27.4844 64.8906
Q23.7344 64.8906 21.1094 63.0781
Q18.5 61.2812 16.8906 57.6562
Q15.2812 54.0469 14.5469 48.5781
Q13.8125 43.1094 13.8125 35.7969" id="WenQuanYiMicroHei-30"/>
      </defs>
      <g transform="translate(12.0925734375 236.729498437)scale(0.0833 -0.0833)">
       <use xlink:href="#WenQuanYiMicroHei-30"/>
      </g>
     </g>
    </g>
    <g id="ytick_2">
     <g id="line2d_68">
      <path clip-path="url(#pb48d56a3bc)" d="
M19.8918 202.68
L689.492 202.68" style="fill:none;stroke:#000000;stroke-dasharray:1.000000,3.000000;stroke-dashoffset:0.0;stroke-width:0.5;"/>
     </g>
     <g id="line2d_69">
      <g>
       <use style="stroke:#000000;stroke-width:0.5;" x="19.891834375" xlink:href="#m728421d6d4" y="202.679936496"/>
      </g>
     </g>
     <g id="line2d_70">
      <g>
       <use style="stroke:#000000;stroke-width:0.5;" x="689.491834375" xlink:href="#mcb0005524f" y="202.679936496"/>
      </g>
     </g>
     <g id="text_24">
      <!-- 10 -->
      <defs>
       <path d="
M34.7188 0
L26.125 0
L26.125 44.5781
Q26.125 46.6875 26.1406 49.0781
Q26.1719 51.4688 26.2344 53.8281
Q26.3125 56.2031 26.3906 58.375
Q26.4688 60.5469 26.5156 62.2031
Q25.6875 61.3281 25.0469 60.6875
Q24.4219 60.0625 23.75 59.4688
Q23.0938 58.8906 22.3594 58.2188
Q21.625 57.5625 20.6094 56.6875
L13.375 50.7812
L8.6875 56.7812
L27.3906 71.3906
L34.7188 71.3906
z
" id="WenQuanYiMicroHei-31"/>
      </defs>
      <g transform="translate(7.82995625 204.843784152)scale(0.0833 -0.0833)">
       <use xlink:href="#WenQuanYiMicroHei-31"/>
       <use x="55.078125" xlink:href="#WenQuanYiMicroHei-30"/>
      </g>
     </g>
    </g>
    <g id="ytick_3">
     <g id="line2d_71">
      <path clip-path="url(#pb48d56a3bc)" d="
M19.8918 170.794
L689.492 170.794" style="fill:none;stroke:#000000;stroke-dasharray:1.000000,3.000000;stroke-dashoffset:0.0;stroke-width:0.5;"/>
     </g>
     <g id="line2d_72">
      <g>
       <use style="stroke:#000000;stroke-width:0.5;" x="19.891834375" xlink:href="#m728421d6d4" y="170.79422221"/>
      </g>
     </g>
     <g id="line2d_73">
      <g>
       <use style="stroke:#000000;stroke-width:0.5;" x="689.491834375" xlink:href="#mcb0005524f" y="170.79422221"/>
      </g>
     </g>
     <g id="text_25">
      <!-- 20 -->
      <defs>
       <path d="
M49.2188 0
L4.6875 0
L4.6875 7.625
L21.7812 26.2188
Q25.4375 30.1719 28.3125 33.4375
Q31.2031 36.7188 33.2188 39.8438
Q35.25 42.9688 36.3281 46.1094
Q37.4062 49.2656 37.4062 52.9844
Q37.4062 55.8594 36.5781 58.0469
Q35.75 60.25 34.2031 61.7812
Q32.6719 63.3281 30.5625 64.1094
Q28.4688 64.8906 25.875 64.8906
Q21.2344 64.8906 17.5 63.0156
Q13.7656 61.1406 10.4062 58.2031
L5.42188 64.0156
Q7.375 65.7656 9.60938 67.2969
Q11.8594 68.8438 14.4531 69.9688
Q17.0469 71.0938 19.9219 71.75
Q22.7969 72.4062 25.9844 72.4062
Q30.6719 72.4062 34.4531 71.0938
Q38.2344 69.7812 40.8594 67.3125
Q43.5 64.8438 44.9375 61.2969
Q46.3906 57.7656 46.3906 53.3281
Q46.3906 49.1719 45.0938 45.4062
Q43.7969 41.6562 41.5312 38.0156
Q39.2656 34.375 36.1094 30.7031
Q32.9531 27.0469 29.2969 23.0938
L15.5781 8.5
L15.5781 8.10938
L49.2188 8.10938
z
" id="WenQuanYiMicroHei-32"/>
      </defs>
      <g transform="translate(7.49675625 172.958069866)scale(0.0833 -0.0833)">
       <use xlink:href="#WenQuanYiMicroHei-32"/>
       <use x="55.078125" xlink:href="#WenQuanYiMicroHei-30"/>
      </g>
     </g>
    </g>
    <g id="ytick_4">
     <g id="line2d_74">
      <path clip-path="url(#pb48d56a3bc)" d="
M19.8918 138.909
L689.492 138.909" style="fill:none;stroke:#000000;stroke-dasharray:1.000000,3.000000;stroke-dashoffset:0.0;stroke-width:0.5;"/>
     </g>
     <g id="line2d_75">
      <g>
       <use style="stroke:#000000;stroke-width:0.5;" x="19.891834375" xlink:href="#m728421d6d4" y="138.908507924"/>
      </g>
     </g>
     <g id="line2d_76">
      <g>
       <use style="stroke:#000000;stroke-width:0.5;" x="689.491834375" xlink:href="#mcb0005524f" y="138.908507924"/>
      </g>
     </g>
     <g id="text_26">
      <!-- 30 -->
      <defs>
       <path d="
M46.9219 54.6875
Q46.9219 51.125 45.7969 48.1875
Q44.6719 45.2656 42.6406 43.1094
Q40.625 40.9688 37.7969 39.5781
Q34.9688 38.1875 31.5 37.5938
L31.5 37.3125
Q40.1406 36.2344 44.625 31.8125
Q49.125 27.3906 49.125 20.3125
Q49.125 15.625 47.5312 11.7188
Q45.9531 7.8125 42.7188 4.98438
Q39.5 2.15625 34.5625 0.578125
Q29.6406 -0.984375 22.9062 -0.984375
Q17.5781 -0.984375 12.8594 -0.140625
Q8.15625 0.6875 4 2.875
L4 11.1875
Q8.25 8.9375 13.2031 7.71875
Q18.1719 6.5 22.7031 6.5
Q27.2031 6.5 30.4688 7.46875
Q33.7344 8.45312 35.8594 10.25
Q37.9844 12.0625 38.9844 14.6875
Q39.9844 17.3281 39.9844 20.6094
Q39.9844 23.9219 38.6875 26.2812
Q37.4062 28.6562 35.0156 30.1875
Q32.625 31.7344 29.1719 32.4688
Q25.7344 33.2031 21.3906 33.2031
L14.8906 33.2031
L14.8906 40.5781
L21.3906 40.5781
Q25.3438 40.5781 28.4219 41.5469
Q31.5 42.5312 33.5625 44.3281
Q35.6406 46.1406 36.7188 48.625
Q37.7969 51.125 37.7969 54.1094
Q37.7969 56.6406 36.9062 58.6406
Q36.0312 60.6406 34.4219 62.0312
Q32.8125 63.4219 30.5625 64.1562
Q28.3281 64.8906 25.5938 64.8906
Q20.3594 64.8906 16.375 63.25
Q12.4062 61.625 8.79688 58.9844
L4.29688 65.0938
Q6.15625 66.6094 8.42188 67.9219
Q10.6875 69.2344 13.375 70.2344
Q16.0625 71.2344 19.1094 71.8125
Q22.1719 72.4062 25.5938 72.4062
Q30.8594 72.4062 34.8281 71.0938
Q38.8125 69.7812 41.5 67.4062
Q44.1875 65.0469 45.5469 61.7969
Q46.9219 58.5469 46.9219 54.6875" id="WenQuanYiMicroHei-33"/>
      </defs>
      <g transform="translate(7.4394875 141.07235558)scale(0.0833 -0.0833)">
       <use xlink:href="#WenQuanYiMicroHei-33"/>
       <use x="55.078125" xlink:href="#WenQuanYiMicroHei-30"/>
      </g>
     </g>
    </g>
    <g id="ytick_5">
     <g id="line2d_77">
      <path clip-path="url(#pb48d56a3bc)" d="
M19.8918 107.023
L689.492 107.023" style="fill:none;stroke:#000000;stroke-dasharray:1.000000,3.000000;stroke-dashoffset:0.0;stroke-width:0.5;"/>
     </g>
     <g id="line2d_78">
      <g>
       <use style="stroke:#000000;stroke-width:0.5;" x="19.891834375" xlink:href="#m728421d6d4" y="107.022793638"/>
      </g>
     </g>
     <g id="line2d_79">
      <g>
       <use style="stroke:#000000;stroke-width:0.5;" x="689.491834375" xlink:href="#mcb0005524f" y="107.022793638"/>
      </g>
     </g>
     <g id="text_27">
      <!-- 40 -->
      <defs>
       <path d="
M53.0781 16.0156
L42.6719 16.0156
L42.6719 0
L34.0781 0
L34.0781 16.0156
L1.125 16.0156
L1.125 23.7812
L33.5 71.7812
L42.6719 71.7812
L42.6719 24.125
L53.0781 24.125
z

M34.0781 24.125
L34.0781 41.5
Q34.0781 44.2344 34.1562 47.2344
Q34.2344 50.25 34.3281 53.0938
Q34.4219 55.9531 34.5469 58.4375
Q34.6719 60.9375 34.7188 62.5938
L34.2812 62.5938
Q33.9375 61.625 33.4219 60.4219
Q32.9062 59.2344 32.2969 58.0312
Q31.6875 56.8438 31.0469 55.7188
Q30.4219 54.5938 29.8906 53.8125
L9.8125 24.125
z
" id="WenQuanYiMicroHei-34"/>
      </defs>
      <g transform="translate(7.2 109.186641295)scale(0.0833 -0.0833)">
       <use xlink:href="#WenQuanYiMicroHei-34"/>
       <use x="55.078125" xlink:href="#WenQuanYiMicroHei-30"/>
      </g>
     </g>
    </g>
    <g id="ytick_6">
     <g id="line2d_80">
      <path clip-path="url(#pb48d56a3bc)" d="
M19.8918 75.1371
L689.492 75.1371" style="fill:none;stroke:#000000;stroke-dasharray:1.000000,3.000000;stroke-dashoffset:0.0;stroke-width:0.5;"/>
     </g>
     <g id="line2d_81">
      <g>
       <use style="stroke:#000000;stroke-width:0.5;" x="19.891834375" xlink:href="#m728421d6d4" y="75.1370793527"/>
      </g>
     </g>
     <g id="line2d_82">
      <g>
       <use style="stroke:#000000;stroke-width:0.5;" x="689.491834375" xlink:href="#mcb0005524f" y="75.1370793527"/>
      </g>
     </g>
     <g id="text_28">
      <!-- 50 -->
      <defs>
       <path d="
M26.6094 43.7969
Q31.4531 43.7969 35.625 42.4531
Q39.7969 41.1094 42.8906 38.4688
Q46 35.8438 47.75 31.9375
Q49.5156 28.0312 49.5156 22.9062
Q49.5156 17.3281 47.8438 12.8906
Q46.1875 8.45312 42.9219 5.375
Q39.6562 2.29688 34.8438 0.65625
Q30.0312 -0.984375 23.7812 -0.984375
Q21.2969 -0.984375 18.875 -0.734375
Q16.4531 -0.484375 14.2344 -0.015625
Q12.0156 0.4375 10.0156 1.17188
Q8.01562 1.90625 6.39062 2.875
L6.39062 11.2812
Q8.01562 10.1562 10.1875 9.28125
Q12.3594 8.40625 14.75 7.8125
Q17.1406 7.23438 19.5469 6.90625
Q21.9688 6.59375 24.0312 6.59375
Q27.875 6.59375 30.9062 7.5
Q33.9375 8.40625 36.0312 10.2969
Q38.1406 12.2031 39.25 15.0781
Q40.375 17.9688 40.375 21.9219
Q40.375 28.9062 36.0781 32.5938
Q31.7812 36.2812 23.5781 36.2812
Q22.2656 36.2812 20.7188 36.1562
Q19.1875 36.0312 17.6406 35.8281
Q16.1094 35.6406 14.7188 35.4219
Q13.3281 35.2031 12.3125 35.0156
L7.90625 37.7969
L10.5938 71.3906
L44.2812 71.3906
L44.2812 63.2812
L18.3125 63.2812
L16.4062 42.8281
Q17.9688 43.1094 20.5312 43.4531
Q23.0938 43.7969 26.6094 43.7969" id="WenQuanYiMicroHei-35"/>
      </defs>
      <g transform="translate(7.6386265625 77.3009270089)scale(0.0833 -0.0833)">
       <use xlink:href="#WenQuanYiMicroHei-35"/>
       <use x="55.078125" xlink:href="#WenQuanYiMicroHei-30"/>
      </g>
     </g>
    </g>
    <g id="ytick_7">
     <g id="line2d_83">
      <path clip-path="url(#pb48d56a3bc)" d="
M19.8918 43.2514
L689.492 43.2514" style="fill:none;stroke:#000000;stroke-dasharray:1.000000,3.000000;stroke-dashoffset:0.0;stroke-width:0.5;"/>
     </g>
     <g id="line2d_84">
      <g>
       <use style="stroke:#000000;stroke-width:0.5;" x="19.891834375" xlink:href="#m728421d6d4" y="43.251365067"/>
      </g>
     </g>
     <g id="line2d_85">
      <g>
       <use style="stroke:#000000;stroke-width:0.5;" x="689.491834375" xlink:href="#mcb0005524f" y="43.251365067"/>
      </g>
     </g>
     <g id="text_29">
      <!-- 60 -->
      <defs>
       <path d="
M5.51562 30.5156
Q5.51562 35.6406 6.03125 40.7188
Q6.54688 45.7969 7.82812 50.4531
Q9.125 55.125 11.375 59.125
Q13.625 63.1406 17.0938 66.0938
Q20.5625 69.0469 25.3906 70.7188
Q30.2188 72.4062 36.7188 72.4062
Q37.6406 72.4062 38.7656 72.3594
Q39.8906 72.3125 41.0312 72.1875
Q42.1875 72.0781 43.2344 71.9062
Q44.2812 71.7344 45.125 71.4844
L45.125 63.9219
Q43.4062 64.5 41.25 64.7969
Q39.1094 65.0938 37.0156 65.0938
Q32.625 65.0938 29.2656 64.0312
Q25.9219 62.9844 23.4844 61.0781
Q21.0469 59.1875 19.4062 56.5469
Q17.7812 53.9062 16.75 50.7031
Q15.7188 47.5156 15.2344 43.8906
Q14.75 40.2812 14.5938 36.375
L15.1875 36.375
Q16.1562 38.1406 17.5469 39.6719
Q18.9531 41.2188 20.7969 42.3125
Q22.6562 43.4062 24.9688 44.0312
Q27.2969 44.6719 30.1719 44.6719
Q34.8125 44.6719 38.5625 43.2344
Q42.3281 41.7969 44.9688 39.0156
Q47.6094 36.2344 49.0469 32.2031
Q50.4844 28.1719 50.4844 23
Q50.4844 17.4375 48.9688 12.9844
Q47.4688 8.54688 44.625 5.4375
Q41.7969 2.34375 37.7969 0.671875
Q33.7969 -0.984375 28.8125 -0.984375
Q23.9219 -0.984375 19.6406 0.921875
Q15.375 2.82812 12.25 6.73438
Q9.125 10.6406 7.3125 16.5469
Q5.51562 22.4688 5.51562 30.5156
M28.7188 6.5
Q31.6406 6.5 34.0469 7.5
Q36.4688 8.5 38.2188 10.5156
Q39.9844 12.5469 40.9375 15.6406
Q41.8906 18.75 41.8906 23
Q41.8906 26.4219 41.0781 29.125
Q40.2812 31.8438 38.6719 33.7344
Q37.0625 35.6406 34.6406 36.6719
Q32.2344 37.7031 29 37.7031
Q25.7344 37.7031 23.0156 36.5469
Q20.3125 35.4062 18.4062 33.5625
Q16.5 31.7344 15.4531 29.3906
Q14.4062 27.0469 14.4062 24.7031
Q14.4062 21.4375 15.3125 18.1875
Q16.2188 14.9375 18 12.3438
Q19.7812 9.76562 22.4531 8.125
Q25.1406 6.5 28.7188 6.5" id="WenQuanYiMicroHei-36"/>
      </defs>
      <g transform="translate(7.5657390625 45.4152127232)scale(0.0833 -0.0833)">
       <use xlink:href="#WenQuanYiMicroHei-36"/>
       <use x="55.078125" xlink:href="#WenQuanYiMicroHei-30"/>
      </g>
     </g>
    </g>
    <g id="ytick_8">
     <g id="line2d_86">
      <path clip-path="url(#pb48d56a3bc)" d="
M19.8918 11.3657
L689.492 11.3657" style="fill:none;stroke:#000000;stroke-dasharray:1.000000,3.000000;stroke-dashoffset:0.0;stroke-width:0.5;"/>
     </g>
     <g id="line2d_87">
      <g>
       <use style="stroke:#000000;stroke-width:0.5;" x="19.891834375" xlink:href="#m728421d6d4" y="11.3656507812"/>
      </g>
     </g>
     <g id="line2d_88">
      <g>
       <use style="stroke:#000000;stroke-width:0.5;" x="689.491834375" xlink:href="#mcb0005524f" y="11.3656507812"/>
      </g>
     </g>
     <g id="text_30">
      <!-- 70 -->
      <defs>
       <path d="
M13.7188 0
L41.2188 63.2812
L4.39062 63.2812
L4.39062 71.3906
L50.2969 71.3906
L50.2969 64.3125
L23.1875 0
z
" id="WenQuanYiMicroHei-37"/>
      </defs>
      <g transform="translate(7.4720265625 13.5294984375)scale(0.0833 -0.0833)">
       <use xlink:href="#WenQuanYiMicroHei-37"/>
       <use x="55.078125" xlink:href="#WenQuanYiMicroHei-30"/>
      </g>
     </g>
    </g>
   </g>
   <g id="patch_24">
    <path d="
M19.8918 11.3657
L689.492 11.3657" style="fill:none;stroke:#000000;"/>
   </g>
   <g id="patch_25">
    <path d="
M689.492 234.566
L689.492 11.3657" style="fill:none;stroke:#000000;"/>
   </g>
   <g id="patch_26">
    <path d="
M19.8918 234.566
L689.492 234.566" style="fill:none;stroke:#000000;"/>
   </g>
   <g id="patch_27">
    <path d="
M19.8918 234.566
L19.8918 11.3657" style="fill:none;stroke:#000000;"/>
   </g>
  </g>
 </g>
 <defs>
  <clipPath id="pb48d56a3bc">
   <rect height="223.2" width="669.6" x="19.891834375" y="11.3656507812"/>
  </clipPath>
 </defs>
</svg>
