<?xml version="1.0" encoding="utf-8" standalone="no"?>
<!DOCTYPE svg PUBLIC "-//W3C//DTD SVG 1.1//EN"
  "http://www.w3.org/Graphics/SVG/1.1/DTD/svg11.dtd">
<!-- Created with matplotlib (http://matplotlib.org/) -->
<svg height="221pt" version="1.1" viewBox="0 0 398 221" width="398pt" xmlns="http://www.w3.org/2000/svg" xmlns:xlink="http://www.w3.org/1999/xlink">
 <defs>
  <style type="text/css">
*{stroke-linecap:butt;stroke-linejoin:round;}
  </style>
 </defs>
 <g id="figure_1">
  <g id="patch_1">
   <path d="
M-4.44089e-16 221.194
L398.579 221.194
L398.579 -2.84217e-14
L-4.44089e-16 -2.84217e-14
z
" style="fill:#ffffff;"/>
  </g>
  <g id="axes_1">
   <g id="patch_2">
    <path d="
M50.202 184.999
L385.002 184.999
L385.002 12.1988
L50.202 12.1988
z
" style="fill:#ffffff;"/>
   </g>
   <g id="line2d_1">
    <path clip-path="url(#pb630a55c68)" d="
M50.202 108.199
L51.876 108.106
L53.55 107.839
L55.224 107.416
L56.898 106.852
L60.246 105.358
L63.594 103.46
L66.942 101.244
L70.29 98.7851
L75.312 94.7724
L82.008 89.0688
L98.748 74.6095
L105.444 69.1444
L112.14 63.9832
L118.836 59.1613
L125.532 54.6938
L130.554 51.5766
L137.25 47.725
L143.946 44.2087
L150.642 41.0096
L157.338 38.1074
L164.034 35.4804
L170.73 33.1071
L177.426 30.9663
L184.122 29.0376
L192.492 26.8958
L200.862 25.0209
L209.232 23.3813
L217.602 21.9487
L227.646 20.4673
L237.69 19.2092
L249.408 17.98
L261.126 16.9654
L274.518 16.0214
L289.584 15.1805
L306.324 14.461
L326.412 13.8227
L349.848 13.3017
L379.98 12.8695
L383.328 12.8334
L383.328 12.8334" style="fill:none;stroke:#348abd;stroke-linecap:square;stroke-width:2.0;"/>
   </g>
   <g id="line2d_2">
    <path clip-path="url(#pb630a55c68)" d="
M50.202 108.199
L58.572 108.088
L63.594 107.777
L68.616 107.179
L71.964 106.595
L75.312 105.852
L78.66 104.944
L82.008 103.87
L85.356 102.631
L90.378 100.47
L95.4 97.967
L100.422 95.1522
L105.444 92.0625
L110.466 88.7403
L117.162 84.0299
L127.206 76.6034
L140.598 66.6715
L147.294 61.9661
L152.316 58.6461
L157.338 55.5558
L162.36 52.7377
L167.382 50.231
L172.404 48.0711
L175.752 46.8397
L179.1 45.785
L182.448 44.9144
L185.796 44.2346
L189.144 43.7513
L192.492 43.4692
L195.84 43.3923
L199.188 43.5235
L202.536 43.8646
L205.884 44.4168
L209.232 45.1801
L212.58 46.1535
L215.928 47.3354
L219.276 48.723
L222.624 50.3125
L225.972 52.0996
L229.32 54.0786
L232.668 56.2435
L237.69 59.8235
L242.712 63.7783
L247.734 68.0772
L252.756 72.6859
L257.778 77.5672
L264.474 84.4302
L271.17 91.6056
L281.214 102.72
L296.28 119.436
L302.976 126.593
L309.672 133.426
L314.694 138.277
L319.716 142.844
L324.738 147.091
L329.76 150.979
L334.782 154.475
L338.13 156.573
L341.478 158.476
L344.826 160.175
L348.174 161.666
L351.522 162.941
L354.87 163.997
L358.218 164.829
L361.566 165.434
L364.914 165.811
L368.262 165.956
L371.61 165.872
L374.958 165.556
L378.306 165.012
L381.654 164.241
L383.328 163.772
L383.328 163.772" style="fill:none;stroke:#a60628;stroke-linecap:square;stroke-width:2.0;"/>
   </g>
   <g id="patch_3">
    <path d="
M50.202 12.1988
L385.002 12.1988" style="fill:none;stroke:#000000;stroke-linecap:square;stroke-linejoin:miter;"/>
   </g>
   <g id="patch_4">
    <path d="
M385.002 184.999
L385.002 12.1988" style="fill:none;stroke:#000000;stroke-linecap:square;stroke-linejoin:miter;"/>
   </g>
   <g id="patch_5">
    <path d="
M50.202 184.999
L385.002 184.999" style="fill:none;stroke:#000000;stroke-linecap:square;stroke-linejoin:miter;"/>
   </g>
   <g id="patch_6">
    <path d="
M50.202 184.999
L50.202 12.1988" style="fill:none;stroke:#000000;stroke-linecap:square;stroke-linejoin:miter;"/>
   </g>
   <g id="matplotlib.axis_1">
    <g id="xtick_1">
     <g id="line2d_3">
      <defs>
       <path d="
M0 0
L0 -4" id="m93b0483c22" style="stroke:#000000;stroke-width:0.5;"/>
      </defs>
      <g>
       <use style="stroke:#000000;stroke-width:0.5;" x="50.20201875" xlink:href="#m93b0483c22" y="184.998780937"/>
      </g>
     </g>
     <g id="line2d_4">
      <defs>
       <path d="
M0 0
L0 4" id="m741efc42ff" style="stroke:#000000;stroke-width:0.5;"/>
      </defs>
      <g>
       <use style="stroke:#000000;stroke-width:0.5;" x="50.20201875" xlink:href="#m741efc42ff" y="12.1987809375"/>
      </g>
     </g>
     <g id="text_1">
      <!-- 0.0 -->
      <defs>
       <path d="
M50.3906 35.7969
Q50.3906 27.1562 49.1406 20.3125
Q47.9062 13.4844 45.1406 8.73438
Q42.3906 4 38.0312 1.5
Q33.6875 -0.984375 27.4844 -0.984375
Q21.7344 -0.984375 17.4531 1.5
Q13.1875 4 10.375 8.73438
Q7.5625 13.4844 6.17188 20.3125
Q4.78125 27.1562 4.78125 35.7969
Q4.78125 44.4375 6.03125 51.2656
Q7.28125 58.1094 9.98438 62.8125
Q12.7031 67.5312 17.0156 70.0156
Q21.3438 72.5156 27.4844 72.5156
Q33.2969 72.5156 37.5938 70.0469
Q41.8906 67.5781 44.7188 62.8594
Q47.5625 58.1562 48.9688 51.3125
Q50.3906 44.4844 50.3906 35.7969
M13.8125 35.7969
Q13.8125 28.4688 14.5469 23
Q15.2812 17.5312 16.8906 13.8906
Q18.5 10.25 21.1094 8.42188
Q23.7344 6.59375 27.4844 6.59375
Q31.25 6.59375 33.8906 8.39062
Q36.5312 10.2031 38.2031 13.8125
Q39.8906 17.4375 40.6406 22.9219
Q41.4062 28.4219 41.4062 35.7969
Q41.4062 43.1094 40.6406 48.5781
Q39.8906 54.0469 38.2031 57.6562
Q36.5312 61.2812 33.8906 63.0781
Q31.25 64.8906 27.4844 64.8906
Q23.7344 64.8906 21.1094 63.0781
Q18.5 61.2812 16.8906 57.6562
Q15.2812 54.0469 14.5469 48.5781
Q13.8125 43.1094 13.8125 35.7969" id="WenQuanYiMicroHei-30"/>
       <path d="
M7.17188 5.42188
Q7.17188 7.28125 7.65625 8.5625
Q8.15625 9.85938 8.98438 10.6562
Q9.8125 11.4688 10.9375 11.8281
Q12.0625 12.2031 13.375 12.2031
Q14.6562 12.2031 15.7969 11.8281
Q16.9375 11.4688 17.7656 10.6562
Q18.6094 9.85938 19.0938 8.5625
Q19.5781 7.28125 19.5781 5.42188
Q19.5781 3.60938 19.0938 2.3125
Q18.6094 1.03125 17.7656 0.1875
Q16.9375 -0.640625 15.7969 -1.03125
Q14.6562 -1.42188 13.375 -1.42188
Q12.0625 -1.42188 10.9375 -1.03125
Q9.8125 -0.640625 8.98438 0.1875
Q8.15625 1.03125 7.65625 2.3125
Q7.17188 3.60938 7.17188 5.42188" id="WenQuanYiMicroHei-2e"/>
      </defs>
      <g transform="translate(43.82956875 196.594179062)scale(0.09996 -0.09996)">
       <use xlink:href="#WenQuanYiMicroHei-30"/>
       <use x="55.078125" xlink:href="#WenQuanYiMicroHei-2e"/>
       <use x="81.884765625" xlink:href="#WenQuanYiMicroHei-30"/>
      </g>
     </g>
    </g>
    <g id="xtick_2">
     <g id="line2d_5">
      <g>
       <use style="stroke:#000000;stroke-width:0.5;" x="133.90201875" xlink:href="#m93b0483c22" y="184.998780937"/>
      </g>
     </g>
     <g id="line2d_6">
      <g>
       <use style="stroke:#000000;stroke-width:0.5;" x="133.90201875" xlink:href="#m741efc42ff" y="12.1987809375"/>
      </g>
     </g>
     <g id="text_2">
      <!-- 0.5 -->
      <defs>
       <path d="
M26.6094 43.7969
Q31.4531 43.7969 35.625 42.4531
Q39.7969 41.1094 42.8906 38.4688
Q46 35.8438 47.75 31.9375
Q49.5156 28.0312 49.5156 22.9062
Q49.5156 17.3281 47.8438 12.8906
Q46.1875 8.45312 42.9219 5.375
Q39.6562 2.29688 34.8438 0.65625
Q30.0312 -0.984375 23.7812 -0.984375
Q21.2969 -0.984375 18.875 -0.734375
Q16.4531 -0.484375 14.2344 -0.015625
Q12.0156 0.4375 10.0156 1.17188
Q8.01562 1.90625 6.39062 2.875
L6.39062 11.2812
Q8.01562 10.1562 10.1875 9.28125
Q12.3594 8.40625 14.75 7.8125
Q17.1406 7.23438 19.5469 6.90625
Q21.9688 6.59375 24.0312 6.59375
Q27.875 6.59375 30.9062 7.5
Q33.9375 8.40625 36.0312 10.2969
Q38.1406 12.2031 39.25 15.0781
Q40.375 17.9688 40.375 21.9219
Q40.375 28.9062 36.0781 32.5938
Q31.7812 36.2812 23.5781 36.2812
Q22.2656 36.2812 20.7188 36.1562
Q19.1875 36.0312 17.6406 35.8281
Q16.1094 35.6406 14.7188 35.4219
Q13.3281 35.2031 12.3125 35.0156
L7.90625 37.7969
L10.5938 71.3906
L44.2812 71.3906
L44.2812 63.2812
L18.3125 63.2812
L16.4062 42.8281
Q17.9688 43.1094 20.5312 43.4531
Q23.0938 43.7969 26.6094 43.7969" id="WenQuanYiMicroHei-35"/>
      </defs>
      <g transform="translate(127.57330125 196.594179062)scale(0.09996 -0.09996)">
       <use xlink:href="#WenQuanYiMicroHei-30"/>
       <use x="55.078125" xlink:href="#WenQuanYiMicroHei-2e"/>
       <use x="81.884765625" xlink:href="#WenQuanYiMicroHei-35"/>
      </g>
     </g>
    </g>
    <g id="xtick_3">
     <g id="line2d_7">
      <g>
       <use style="stroke:#000000;stroke-width:0.5;" x="217.60201875" xlink:href="#m93b0483c22" y="184.998780937"/>
      </g>
     </g>
     <g id="line2d_8">
      <g>
       <use style="stroke:#000000;stroke-width:0.5;" x="217.60201875" xlink:href="#m741efc42ff" y="12.1987809375"/>
      </g>
     </g>
     <g id="text_3">
      <!-- 1.0 -->
      <defs>
       <path d="
M34.7188 0
L26.125 0
L26.125 44.5781
Q26.125 46.6875 26.1406 49.0781
Q26.1719 51.4688 26.2344 53.8281
Q26.3125 56.2031 26.3906 58.375
Q26.4688 60.5469 26.5156 62.2031
Q25.6875 61.3281 25.0469 60.6875
Q24.4219 60.0625 23.75 59.4688
Q23.0938 58.8906 22.3594 58.2188
Q21.625 57.5625 20.6094 56.6875
L13.375 50.7812
L8.6875 56.7812
L27.3906 71.3906
L34.7188 71.3906
z
" id="WenQuanYiMicroHei-31"/>
      </defs>
      <g transform="translate(211.424803125 196.594179062)scale(0.09996 -0.09996)">
       <use xlink:href="#WenQuanYiMicroHei-31"/>
       <use x="55.078125" xlink:href="#WenQuanYiMicroHei-2e"/>
       <use x="81.884765625" xlink:href="#WenQuanYiMicroHei-30"/>
      </g>
     </g>
    </g>
    <g id="xtick_4">
     <g id="line2d_9">
      <g>
       <use style="stroke:#000000;stroke-width:0.5;" x="301.30201875" xlink:href="#m93b0483c22" y="184.998780937"/>
      </g>
     </g>
     <g id="line2d_10">
      <g>
       <use style="stroke:#000000;stroke-width:0.5;" x="301.30201875" xlink:href="#m741efc42ff" y="12.1987809375"/>
      </g>
     </g>
     <g id="text_4">
      <!-- 1.5 -->
      <g transform="translate(295.168535625 196.594179062)scale(0.09996 -0.09996)">
       <use xlink:href="#WenQuanYiMicroHei-31"/>
       <use x="55.078125" xlink:href="#WenQuanYiMicroHei-2e"/>
       <use x="81.884765625" xlink:href="#WenQuanYiMicroHei-35"/>
      </g>
     </g>
    </g>
    <g id="xtick_5">
     <g id="line2d_11">
      <g>
       <use style="stroke:#000000;stroke-width:0.5;" x="385.00201875" xlink:href="#m93b0483c22" y="184.998780937"/>
      </g>
     </g>
     <g id="line2d_12">
      <g>
       <use style="stroke:#000000;stroke-width:0.5;" x="385.00201875" xlink:href="#m741efc42ff" y="12.1987809375"/>
      </g>
     </g>
     <g id="text_5">
      <!-- 2.0 -->
      <defs>
       <path d="
M49.2188 0
L4.6875 0
L4.6875 7.625
L21.7812 26.2188
Q25.4375 30.1719 28.3125 33.4375
Q31.2031 36.7188 33.2188 39.8438
Q35.25 42.9688 36.3281 46.1094
Q37.4062 49.2656 37.4062 52.9844
Q37.4062 55.8594 36.5781 58.0469
Q35.75 60.25 34.2031 61.7812
Q32.6719 63.3281 30.5625 64.1094
Q28.4688 64.8906 25.875 64.8906
Q21.2344 64.8906 17.5 63.0156
Q13.7656 61.1406 10.4062 58.2031
L5.42188 64.0156
Q7.375 65.7656 9.60938 67.2969
Q11.8594 68.8438 14.4531 69.9688
Q17.0469 71.0938 19.9219 71.75
Q22.7969 72.4062 25.9844 72.4062
Q30.6719 72.4062 34.4531 71.0938
Q38.2344 69.7812 40.8594 67.3125
Q43.5 64.8438 44.9375 61.2969
Q46.3906 57.7656 46.3906 53.3281
Q46.3906 49.1719 45.0938 45.4062
Q43.7969 41.6562 41.5312 38.0156
Q39.2656 34.375 36.1094 30.7031
Q32.9531 27.0469 29.2969 23.0938
L15.5781 8.5
L15.5781 8.10938
L49.2188 8.10938
z
" id="WenQuanYiMicroHei-32"/>
      </defs>
      <g transform="translate(378.624883125 196.594179062)scale(0.09996 -0.09996)">
       <use xlink:href="#WenQuanYiMicroHei-32"/>
       <use x="55.078125" xlink:href="#WenQuanYiMicroHei-2e"/>
       <use x="81.884765625" xlink:href="#WenQuanYiMicroHei-30"/>
      </g>
     </g>
    </g>
    <g id="text_6">
     <!-- 时间（秒） -->
     <defs>
      <path d="
M25 82.0312
Q30.4688 75.7812 33.9844 68.3594
L26.9531 64.0625
Q23.8281 71.4844 18.3594 77.7344
z

M41.7969 77.3438
L89.8438 77.3438
L89.8438 1.5625
Q89.8438 -3.90625 87.5 -6.64062
Q85.1562 -9.375 80.8594 -9.375
Q77.7344 -9.375 73.4375 -8.98438
L71.4844 -0.78125
Q76.1719 -1.5625 79.2969 -1.5625
Q82.0312 -1.5625 82.0312 3.90625
L82.0312 70.3125
L41.7969 70.3125
z

M10.1562 63.2812
L17.9688 63.2812
L17.9688 -8.98438
L10.1562 -8.98438
z

M67.5781 55.0781
L67.5781 8.59375
L32.0312 8.59375
L32.0312 55.0781
z

M60.1562 35.5469
L60.1562 48.0469
L39.4531 48.0469
L39.4531 35.5469
z

M39.4531 28.125
L39.4531 15.2344
L60.1562 15.2344
L60.1562 28.125
z
" id="WenQuanYiMicroHei-95f4"/>
      <path d="
M64.0625 71.4844
L73.4375 71.4844
Q47.6562 55.8594 47.6562 27.3438
Q47.6562 -0.390625 73.4375 -15.625
L64.0625 -15.625
Q52.7344 -10.5469 45.5 1.35938
Q38.2812 13.2812 38.2812 27.3438
Q38.2812 41.7969 45.5 53.7031
Q52.7344 65.625 64.0625 71.4844" id="WenQuanYiMicroHei-ff08"/>
      <path d="
M5.07812 54.6875
L20.3125 54.6875
L20.3125 67.5781
Q14.4531 66.0156 8.20312 64.8438
L5.46875 71.875
Q23.0469 75 37.5 81.25
L41.0156 74.6094
L27.7344 69.9219
L27.7344 54.6875
L41.7969 54.6875
L41.7969 47.6562
L27.7344 47.6562
L27.7344 45.7031
Q35.5469 37.5 41.4062 29.2969
L36.3281 22.2656
Q32.0312 29.6875 27.7344 35.5469
L27.7344 -8.98438
L20.3125 -8.98438
L20.3125 30.0781
Q15.625 18.3594 8.20312 8.59375
L2.73438 15.2344
Q13.6719 29.2969 19.1406 47.6562
L5.07812 47.6562
z

M62.5 80.8594
L70.7031 80.8594
L70.7031 21.875
L62.5 21.875
z

M81.6406 70.7031
Q89.8438 57.4219 95.3125 42.1875
L88.2812 38.2812
Q83.5938 53.125 75.3906 66.7969
z

M48.8281 69.9219
L56.25 67.1875
Q52.3438 46.4844 46.0938 32.0312
L38.6719 36.7188
Q45.3125 51.5625 48.8281 69.9219
M82.8125 36.3281
L90.625 33.5938
Q82.8125 16.7969 70.3125 6.64062
Q57.8125 -3.51562 37.1094 -9.375
L33.5938 -1.95312
Q52.7344 3.125 63.8594 12.1094
Q75 21.0938 82.8125 36.3281" id="WenQuanYiMicroHei-79d2"/>
      <path d="
M42.9688 60.5469
L75 60.5469
L75 80.8594
L82.8125 80.8594
L82.8125 60.5469
L94.5312 60.5469
L94.5312 53.125
L82.8125 53.125
L82.8125 1.95312
Q82.8125 -3.90625 80.6562 -6.25
Q78.5156 -8.59375 73.0469 -8.59375
Q66.7969 -8.59375 60.9375 -7.03125
L59.375 1.17188
Q65.625 -0.78125 71.875 -0.78125
Q73.4375 -0.78125 74.2188 0
Q75 0.78125 75 3.90625
L75 53.125
L42.9688 53.125
z

M54.2969 46.4844
Q61.7188 34.375 66.7969 20.3125
L58.9844 16.7969
Q54.2969 31.6406 47.2656 43.3594
z

M39.4531 73.4375
L39.4531 4.29688
L32.0312 4.29688
L32.0312 9.76562
L14.8438 9.76562
L14.8438 1.17188
L7.42188 1.17188
L7.42188 73.4375
z

M14.8438 45.3125
L32.0312 45.3125
L32.0312 66.4062
L14.8438 66.4062
z

M14.8438 16.7969
L32.0312 16.7969
L32.0312 38.2812
L14.8438 38.2812
z
" id="WenQuanYiMicroHei-65f6"/>
      <path d="
M35.9375 -15.625
L26.5625 -15.625
Q52.3438 -0.390625 52.3438 27.3438
Q52.3438 55.8594 26.5625 71.4844
L35.9375 71.4844
Q47.2656 65.625 54.4844 53.7031
Q61.7188 41.7969 61.7188 27.3438
Q61.7188 13.2812 54.4844 1.35938
Q47.2656 -10.5469 35.9375 -15.625" id="WenQuanYiMicroHei-ff09"/>
     </defs>
     <g transform="translate(194.896260938 211.591740937)scale(0.09996 -0.09996)">
      <use xlink:href="#WenQuanYiMicroHei-65f6"/>
      <use x="100.0" xlink:href="#WenQuanYiMicroHei-95f4"/>
      <use x="200.0" xlink:href="#WenQuanYiMicroHei-ff08"/>
      <use x="300.0" xlink:href="#WenQuanYiMicroHei-79d2"/>
      <use x="400.0" xlink:href="#WenQuanYiMicroHei-ff09"/>
     </g>
    </g>
   </g>
   <g id="matplotlib.axis_2">
    <g id="ytick_1">
     <g id="line2d_13">
      <defs>
       <path d="
M0 0
L4 0" id="m728421d6d4" style="stroke:#000000;stroke-width:0.5;"/>
      </defs>
      <g>
       <use style="stroke:#000000;stroke-width:0.5;" x="50.20201875" xlink:href="#m728421d6d4" y="184.998780937"/>
      </g>
     </g>
     <g id="line2d_14">
      <defs>
       <path d="
M0 0
L-4 0" id="mcb0005524f" style="stroke:#000000;stroke-width:0.5;"/>
      </defs>
      <g>
       <use style="stroke:#000000;stroke-width:0.5;" x="385.00201875" xlink:href="#mcb0005524f" y="184.998780937"/>
      </g>
     </g>
     <g id="text_7">
      <!-- −0.04 -->
      <defs>
       <path d="
M4.98438 31.5938
L4.98438 38.9219
L50.0938 38.9219
L50.0938 31.5938
z
" id="WenQuanYiMicroHei-2212"/>
       <path d="
M53.0781 16.0156
L42.6719 16.0156
L42.6719 0
L34.0781 0
L34.0781 16.0156
L1.125 16.0156
L1.125 23.7812
L33.5 71.7812
L42.6719 71.7812
L42.6719 24.125
L53.0781 24.125
z

M34.0781 24.125
L34.0781 41.5
Q34.0781 44.2344 34.1562 47.2344
Q34.2344 50.25 34.3281 53.0938
Q34.4219 55.9531 34.5469 58.4375
Q34.6719 60.9375 34.7188 62.5938
L34.2812 62.5938
Q33.9375 61.625 33.4219 60.4219
Q32.9062 59.2344 32.2969 58.0312
Q31.6875 56.8438 31.0469 55.7188
Q30.4219 54.5938 29.8906 53.8125
L9.8125 24.125
z
" id="WenQuanYiMicroHei-34"/>
      </defs>
      <g transform="translate(22.197561875 187.595398125)scale(0.09996 -0.09996)">
       <use xlink:href="#WenQuanYiMicroHei-2212"/>
       <use x="55.078125" xlink:href="#WenQuanYiMicroHei-30"/>
       <use x="110.15625" xlink:href="#WenQuanYiMicroHei-2e"/>
       <use x="136.962890625" xlink:href="#WenQuanYiMicroHei-30"/>
       <use x="192.041015625" xlink:href="#WenQuanYiMicroHei-34"/>
      </g>
     </g>
    </g>
    <g id="ytick_2">
     <g id="line2d_15">
      <g>
       <use style="stroke:#000000;stroke-width:0.5;" x="50.20201875" xlink:href="#m728421d6d4" y="165.798780938"/>
      </g>
     </g>
     <g id="line2d_16">
      <g>
       <use style="stroke:#000000;stroke-width:0.5;" x="385.00201875" xlink:href="#mcb0005524f" y="165.798780938"/>
      </g>
     </g>
     <g id="text_8">
      <!-- −0.03 -->
      <defs>
       <path d="
M46.9219 54.6875
Q46.9219 51.125 45.7969 48.1875
Q44.6719 45.2656 42.6406 43.1094
Q40.625 40.9688 37.7969 39.5781
Q34.9688 38.1875 31.5 37.5938
L31.5 37.3125
Q40.1406 36.2344 44.625 31.8125
Q49.125 27.3906 49.125 20.3125
Q49.125 15.625 47.5312 11.7188
Q45.9531 7.8125 42.7188 4.98438
Q39.5 2.15625 34.5625 0.578125
Q29.6406 -0.984375 22.9062 -0.984375
Q17.5781 -0.984375 12.8594 -0.140625
Q8.15625 0.6875 4 2.875
L4 11.1875
Q8.25 8.9375 13.2031 7.71875
Q18.1719 6.5 22.7031 6.5
Q27.2031 6.5 30.4688 7.46875
Q33.7344 8.45312 35.8594 10.25
Q37.9844 12.0625 38.9844 14.6875
Q39.9844 17.3281 39.9844 20.6094
Q39.9844 23.9219 38.6875 26.2812
Q37.4062 28.6562 35.0156 30.1875
Q32.625 31.7344 29.1719 32.4688
Q25.7344 33.2031 21.3906 33.2031
L14.8906 33.2031
L14.8906 40.5781
L21.3906 40.5781
Q25.3438 40.5781 28.4219 41.5469
Q31.5 42.5312 33.5625 44.3281
Q35.6406 46.1406 36.7188 48.625
Q37.7969 51.125 37.7969 54.1094
Q37.7969 56.6406 36.9062 58.6406
Q36.0312 60.6406 34.4219 62.0312
Q32.8125 63.4219 30.5625 64.1562
Q28.3281 64.8906 25.5938 64.8906
Q20.3594 64.8906 16.375 63.25
Q12.4062 61.625 8.79688 58.9844
L4.29688 65.0938
Q6.15625 66.6094 8.42188 67.9219
Q10.6875 69.2344 13.375 70.2344
Q16.0625 71.2344 19.1094 71.8125
Q22.1719 72.4062 25.5938 72.4062
Q30.8594 72.4062 34.8281 71.0938
Q38.8125 69.7812 41.5 67.4062
Q44.1875 65.0469 45.5469 61.7969
Q46.9219 58.5469 46.9219 54.6875" id="WenQuanYiMicroHei-33"/>
      </defs>
      <g transform="translate(22.59271625 168.395398125)scale(0.09996 -0.09996)">
       <use xlink:href="#WenQuanYiMicroHei-2212"/>
       <use x="55.078125" xlink:href="#WenQuanYiMicroHei-30"/>
       <use x="110.15625" xlink:href="#WenQuanYiMicroHei-2e"/>
       <use x="136.962890625" xlink:href="#WenQuanYiMicroHei-30"/>
       <use x="192.041015625" xlink:href="#WenQuanYiMicroHei-33"/>
      </g>
     </g>
    </g>
    <g id="ytick_3">
     <g id="line2d_17">
      <g>
       <use style="stroke:#000000;stroke-width:0.5;" x="50.20201875" xlink:href="#m728421d6d4" y="146.598780937"/>
      </g>
     </g>
     <g id="line2d_18">
      <g>
       <use style="stroke:#000000;stroke-width:0.5;" x="385.00201875" xlink:href="#mcb0005524f" y="146.598780937"/>
      </g>
     </g>
     <g id="text_9">
      <!-- −0.02 -->
      <g transform="translate(22.583345 149.195398125)scale(0.09996 -0.09996)">
       <use xlink:href="#WenQuanYiMicroHei-2212"/>
       <use x="55.078125" xlink:href="#WenQuanYiMicroHei-30"/>
       <use x="110.15625" xlink:href="#WenQuanYiMicroHei-2e"/>
       <use x="136.962890625" xlink:href="#WenQuanYiMicroHei-30"/>
       <use x="192.041015625" xlink:href="#WenQuanYiMicroHei-32"/>
      </g>
     </g>
    </g>
    <g id="ytick_4">
     <g id="line2d_19">
      <g>
       <use style="stroke:#000000;stroke-width:0.5;" x="50.20201875" xlink:href="#m728421d6d4" y="127.398780937"/>
      </g>
     </g>
     <g id="line2d_20">
      <g>
       <use style="stroke:#000000;stroke-width:0.5;" x="385.00201875" xlink:href="#mcb0005524f" y="127.398780937"/>
      </g>
     </g>
     <g id="text_10">
      <!-- −0.01 -->
      <g transform="translate(24.032765 129.995398125)scale(0.09996 -0.09996)">
       <use xlink:href="#WenQuanYiMicroHei-2212"/>
       <use x="55.078125" xlink:href="#WenQuanYiMicroHei-30"/>
       <use x="110.15625" xlink:href="#WenQuanYiMicroHei-2e"/>
       <use x="136.962890625" xlink:href="#WenQuanYiMicroHei-30"/>
       <use x="192.041015625" xlink:href="#WenQuanYiMicroHei-31"/>
      </g>
     </g>
    </g>
    <g id="ytick_5">
     <g id="line2d_21">
      <g>
       <use style="stroke:#000000;stroke-width:0.5;" x="50.20201875" xlink:href="#m728421d6d4" y="108.198780937"/>
      </g>
     </g>
     <g id="line2d_22">
      <g>
       <use style="stroke:#000000;stroke-width:0.5;" x="385.00201875" xlink:href="#mcb0005524f" y="108.198780937"/>
      </g>
     </g>
     <g id="text_11">
      <!-- 0.00 -->
      <g transform="translate(27.951509375 110.795398125)scale(0.09996 -0.09996)">
       <use xlink:href="#WenQuanYiMicroHei-30"/>
       <use x="55.078125" xlink:href="#WenQuanYiMicroHei-2e"/>
       <use x="81.884765625" xlink:href="#WenQuanYiMicroHei-30"/>
       <use x="136.962890625" xlink:href="#WenQuanYiMicroHei-30"/>
      </g>
     </g>
    </g>
    <g id="ytick_6">
     <g id="line2d_23">
      <g>
       <use style="stroke:#000000;stroke-width:0.5;" x="50.20201875" xlink:href="#m728421d6d4" y="88.9987809375"/>
      </g>
     </g>
     <g id="line2d_24">
      <g>
       <use style="stroke:#000000;stroke-width:0.5;" x="385.00201875" xlink:href="#mcb0005524f" y="88.9987809375"/>
      </g>
     </g>
     <g id="text_12">
      <!-- 0.01 -->
      <g transform="translate(29.51807 91.595398125)scale(0.09996 -0.09996)">
       <use xlink:href="#WenQuanYiMicroHei-30"/>
       <use x="55.078125" xlink:href="#WenQuanYiMicroHei-2e"/>
       <use x="81.884765625" xlink:href="#WenQuanYiMicroHei-30"/>
       <use x="136.962890625" xlink:href="#WenQuanYiMicroHei-31"/>
      </g>
     </g>
    </g>
    <g id="ytick_7">
     <g id="line2d_25">
      <g>
       <use style="stroke:#000000;stroke-width:0.5;" x="50.20201875" xlink:href="#m728421d6d4" y="69.7987809375"/>
      </g>
     </g>
     <g id="line2d_26">
      <g>
       <use style="stroke:#000000;stroke-width:0.5;" x="385.00201875" xlink:href="#mcb0005524f" y="69.7987809375"/>
      </g>
     </g>
     <g id="text_13">
      <!-- 0.02 -->
      <g transform="translate(28.06865 72.395398125)scale(0.09996 -0.09996)">
       <use xlink:href="#WenQuanYiMicroHei-30"/>
       <use x="55.078125" xlink:href="#WenQuanYiMicroHei-2e"/>
       <use x="81.884765625" xlink:href="#WenQuanYiMicroHei-30"/>
       <use x="136.962890625" xlink:href="#WenQuanYiMicroHei-32"/>
      </g>
     </g>
    </g>
    <g id="ytick_8">
     <g id="line2d_27">
      <g>
       <use style="stroke:#000000;stroke-width:0.5;" x="50.20201875" xlink:href="#m728421d6d4" y="50.5987809375"/>
      </g>
     </g>
     <g id="line2d_28">
      <g>
       <use style="stroke:#000000;stroke-width:0.5;" x="385.00201875" xlink:href="#mcb0005524f" y="50.5987809375"/>
      </g>
     </g>
     <g id="text_14">
      <!-- 0.03 -->
      <g transform="translate(28.07802125 53.195398125)scale(0.09996 -0.09996)">
       <use xlink:href="#WenQuanYiMicroHei-30"/>
       <use x="55.078125" xlink:href="#WenQuanYiMicroHei-2e"/>
       <use x="81.884765625" xlink:href="#WenQuanYiMicroHei-30"/>
       <use x="136.962890625" xlink:href="#WenQuanYiMicroHei-33"/>
      </g>
     </g>
    </g>
    <g id="ytick_9">
     <g id="line2d_29">
      <g>
       <use style="stroke:#000000;stroke-width:0.5;" x="50.20201875" xlink:href="#m728421d6d4" y="31.3987809375"/>
      </g>
     </g>
     <g id="line2d_30">
      <g>
       <use style="stroke:#000000;stroke-width:0.5;" x="385.00201875" xlink:href="#mcb0005524f" y="31.3987809375"/>
      </g>
     </g>
     <g id="text_15">
      <!-- 0.04 -->
      <g transform="translate(27.682866875 33.995398125)scale(0.09996 -0.09996)">
       <use xlink:href="#WenQuanYiMicroHei-30"/>
       <use x="55.078125" xlink:href="#WenQuanYiMicroHei-2e"/>
       <use x="81.884765625" xlink:href="#WenQuanYiMicroHei-30"/>
       <use x="136.962890625" xlink:href="#WenQuanYiMicroHei-34"/>
      </g>
     </g>
    </g>
    <g id="ytick_10">
     <g id="line2d_31">
      <g>
       <use style="stroke:#000000;stroke-width:0.5;" x="50.20201875" xlink:href="#m728421d6d4" y="12.1987809375"/>
      </g>
     </g>
     <g id="line2d_32">
      <g>
       <use style="stroke:#000000;stroke-width:0.5;" x="385.00201875" xlink:href="#mcb0005524f" y="12.1987809375"/>
      </g>
     </g>
     <g id="text_16">
      <!-- 0.05 -->
      <g transform="translate(28.038974375 14.795398125)scale(0.09996 -0.09996)">
       <use xlink:href="#WenQuanYiMicroHei-30"/>
       <use x="55.078125" xlink:href="#WenQuanYiMicroHei-2e"/>
       <use x="81.884765625" xlink:href="#WenQuanYiMicroHei-30"/>
       <use x="136.962890625" xlink:href="#WenQuanYiMicroHei-35"/>
      </g>
     </g>
    </g>
    <g id="text_17">
     <!-- 位移（米） -->
     <defs>
      <path d="
M6.64062 46.875
L45.7031 46.875
L45.7031 80.8594
L53.5156 80.8594
L53.5156 46.875
L93.3594 46.875
L93.3594 39.4531
L60.9375 39.4531
Q73.4375 17.9688 93.3594 7.8125
L88.6719 -1.17188
Q67.1875 11.7188 53.5156 36.7188
L53.5156 -8.98438
L45.7031 -8.98438
L45.7031 36.7188
Q32.8125 12.5 11.3281 -1.5625
L5.46875 5.85938
Q26.1719 19.1406 37.5 39.4531
L6.64062 39.4531
z

M76.5625 75.7812
L85.1562 72.2656
Q78.5156 60.1562 72.2656 51.5625
L64.0625 55.8594
Q71.4844 65.625 76.5625 75.7812
M20.3125 75
Q29.6875 65.625 35.5469 55.0781
L28.125 50.7812
Q22.6562 61.3281 13.2812 70.7031
z
" id="WenQuanYiMicroHei-7c73"/>
      <path d="
M5.07812 54.6875
L20.3125 54.6875
L20.3125 67.5781
Q14.4531 66.0156 8.20312 64.8438
L5.46875 71.875
Q23.0469 75 37.5 81.25
L41.0156 74.6094
L27.7344 69.9219
L27.7344 54.6875
L41.7969 54.6875
L41.7969 47.6562
L27.7344 47.6562
L27.7344 45.7031
Q35.5469 37.5 41.4062 29.2969
L36.3281 22.2656
Q32.0312 29.6875 27.7344 35.5469
L27.7344 -8.98438
L20.3125 -8.98438
L20.3125 30.0781
Q15.625 18.3594 8.20312 8.59375
L2.73438 15.2344
Q13.6719 29.2969 19.1406 47.6562
L5.07812 47.6562
z

M63.2812 80.8594
L71.0938 79.2969
Q69.1406 75.7812 66.4062 72.2656
L90.2344 72.2656
L90.2344 65.2344
Q79.2969 41.4062 40.2344 33.9844
L37.1094 41.7969
Q71.875 46.875 81.6406 65.2344
L59.375 65.2344
Q57.4219 63.2812 55.4688 62.1094
Q58.9844 58.9844 62.5 55.4688
L57.4219 50
Q53.9062 53.9062 49.6094 57.8125
L42.9688 54.2969
L37.8906 59.7656
Q55.0781 68.75 63.2812 80.8594
M67.1875 41.7969
L73.8281 38.2812
Q72.2656 36.3281 70.3125 34.375
L92.5781 34.375
L92.5781 27.3438
Q80.4688 -0.390625 37.5 -9.375
L33.9844 -1.5625
Q74.2188 5.07812 84.375 27.3438
L63.2812 27.3438
Q61.3281 25.3906 58.9844 23.4375
Q62.8906 20.3125 66.7969 16.0156
L61.3281 10.5469
Q57.4219 14.8438 52.7344 18.75
L42.5781 12.5
L38.2812 19.1406
Q54.6875 27.3438 67.1875 41.7969" id="WenQuanYiMicroHei-79fb"/>
      <path d="
M27.7344 80.8594
L35.5469 78.5156
Q31.25 67.1875 25.3906 56.25
L25.3906 -8.98438
L17.5781 -8.98438
L17.5781 43.75
Q12.8906 37.5 7.8125 32.0312
L3.90625 39.8438
Q20.7031 59.375 27.7344 80.8594
M33.9844 64.0625
L58.9844 64.0625
Q56.6406 71.875 53.125 78.5156
L61.3281 81.25
Q65.2344 73.4375 67.5781 64.0625
L92.1875 64.0625
L92.1875 56.6406
L33.9844 56.6406
z

M78.5156 53.125
L87.5 50.3906
Q80.4688 22.6562 73.0469 2.34375
L94.9219 2.34375
L94.9219 -5.07812
L30.8594 -5.07812
L30.8594 2.34375
L64.4531 2.34375
Q72.6562 26.5625 78.5156 53.125
M47.2656 51.1719
Q53.5156 30.4688 55.4688 9.375
L46.875 7.03125
Q44.9219 29.2969 38.6719 48.8281
z
" id="WenQuanYiMicroHei-4f4d"/>
     </defs>
     <g transform="translate(14.795398125 121.480249687)rotate(-90.0)scale(0.09996 -0.09996)">
      <use xlink:href="#WenQuanYiMicroHei-4f4d"/>
      <use x="100.0" xlink:href="#WenQuanYiMicroHei-79fb"/>
      <use x="200.0" xlink:href="#WenQuanYiMicroHei-ff08"/>
      <use x="300.0" xlink:href="#WenQuanYiMicroHei-7c73"/>
      <use x="400.0" xlink:href="#WenQuanYiMicroHei-ff09"/>
     </g>
    </g>
   </g>
   <g id="legend_1">
    <g id="patch_7">
     <path d="
M295.054 50.1867
L380.004 50.1867
L380.004 17.1968
L295.054 17.1968
z
" style="fill:#ffffff;stroke:#000000;stroke-linejoin:miter;"/>
    </g>
    <g id="line2d_33">
     <path d="
M302.051 25.292
L316.045 25.292" style="fill:none;stroke:#348abd;stroke-linecap:square;stroke-width:2.0;"/>
    </g>
    <g id="line2d_34"/>
    <g id="text_18">
     <!-- 阶跃响应 -->
     <defs>
      <path d="
M92.5781 67.1875
L92.5781 1.5625
Q92.5781 -3.125 89.6406 -5.65625
Q86.7188 -8.20312 81.25 -8.20312
Q76.9531 -8.20312 71.875 -7.42188
L69.9219 0.390625
Q76.9531 -0.390625 80.8594 -0.390625
Q85.5469 -0.390625 85.5469 3.51562
L85.5469 59.7656
L48.0469 59.7656
L48.0469 -9.375
L41.0156 -9.375
L41.0156 67.1875
L54.2969 67.1875
Q57.8125 73.4375 59.7656 82.0312
L67.9688 80.0781
Q66.0156 72.2656 63.2812 67.1875
z

M55.4688 51.1719
L78.5156 51.1719
L78.5156 8.59375
L55.4688 8.59375
z

M62.5 14.8438
L71.0938 14.8438
L71.0938 44.9219
L62.5 44.9219
z

M35.9375 72.2656
L35.9375 10.5469
L28.5156 10.5469
L28.5156 16.7969
L15.2344 16.7969
L15.2344 7.03125
L7.8125 7.03125
L7.8125 72.2656
z

M15.2344 24.2188
L28.5156 24.2188
L28.5156 64.8438
L15.2344 64.8438
z
" id="WenQuanYiMicroHei-54cd"/>
      <path d="
M89.0625 79.2969
L92.5781 72.6562
Q82.0312 69.5312 71.0938 67.5781
L71.0938 46.0938
L92.9688 46.0938
L92.9688 38.6719
L72.6562 38.6719
Q78.5156 9.76562 95.7031 -0.78125
L91.4062 -8.98438
Q75.7812 1.17188 68.75 25
Q64.0625 2.73438 48.4375 -8.98438
L42.5781 -2.73438
Q60.1562 10.1562 62.5 38.6719
L43.3594 38.6719
L43.3594 46.0938
L62.8906 46.0938
Q63.2812 48.4375 63.2812 50.3906
L63.2812 66.0156
L46.0938 63.6719
L43.3594 71.0938
Q68.75 73.8281 89.0625 79.2969
M9.76562 76.1719
L41.7969 76.1719
L41.7969 44.9219
L31.25 44.9219
L31.25 32.8125
L41.7969 32.8125
L41.7969 25.7812
L31.25 25.7812
L31.25 6.64062
L43.75 9.76562
L44.9219 3.125
Q27.7344 -2.73438 6.64062 -7.42188
L3.90625 0.390625
L9.76562 1.5625
L9.76562 35.9375
L17.1875 35.9375
L17.1875 3.125
L24.2188 4.6875
L24.2188 44.9219
L9.76562 44.9219
z

M17.1875 51.9531
L33.9844 51.9531
L33.9844 69.1406
L17.1875 69.1406
z
" id="WenQuanYiMicroHei-8dc3"/>
      <path d="
M41.4062 77.7344
L41.4062 69.9219
L30.8594 48.0469
Q39.0625 38.2812 39.0625 28.125
Q39.0625 20.3125 35.7344 16.2031
Q32.4219 12.1094 25.7812 12.1094
Q23.4375 12.1094 19.9219 12.8906
L18.3594 21.0938
Q22.6562 19.9219 25.7812 19.9219
Q28.5156 19.9219 29.875 22.0625
Q31.25 24.2188 31.25 28.125
Q31.25 37.5 21.875 46.875
L32.8125 69.9219
L15.625 69.9219
L15.625 -9.375
L8.20312 -9.375
L8.20312 77.7344
z

M64.8438 80.8594
L72.2656 78.5156
L69.9219 74.2188
Q81.25 58.5938 96.0938 47.6562
L91.4062 40.625
Q77.3438 51.9531 66.0156 67.5781
Q55.4688 50.7812 41.7969 39.8438
L37.5 46.4844
Q56.6406 62.8906 64.8438 80.8594
M74.6094 44.5312
L82.4219 44.5312
L82.4219 -9.375
L74.6094 -9.375
z

M50.3906 43.75
L58.2031 43.75
L58.2031 29.2969
Q58.2031 1.5625 42.9688 -9.375
L37.5 -3.51562
Q50 5.46875 50.3906 30.4688
z
" id="WenQuanYiMicroHei-9636"/>
      <path d="
M92.5781 69.5312
L92.5781 62.1094
L21.4844 62.1094
L21.4844 33.2031
Q21.4844 8.59375 10.9375 -9.375
L3.51562 -5.07812
Q8.98438 6.25 11.3281 15.0312
Q13.6719 23.8281 13.6719 35.9375
L13.6719 69.5312
L50.7812 69.5312
Q49.2188 74.2188 46.4844 78.5156
L54.2969 81.25
Q57.8125 75.7812 59.375 69.5312
z

M56.25 53.5156
Q63.2812 37.5 65.625 21.4844
L57.0312 19.1406
Q55.0781 36.7188 48.4375 51.5625
z

M24.6094 2.73438
L65.2344 2.73438
Q74.6094 25 81.25 51.9531
L89.4531 49.2188
Q83.2031 23.4375 74.2188 2.73438
L94.9219 2.73438
L94.9219 -4.6875
L24.6094 -4.6875
z

M36.3281 46.0938
Q44.1406 31.6406 48.0469 13.6719
L40.2344 10.9375
Q36.3281 28.9062 28.5156 43.75
z
" id="WenQuanYiMicroHei-5e94"/>
     </defs>
     <g transform="translate(327.0408375 28.7905790625)scale(0.09996 -0.09996)">
      <use xlink:href="#WenQuanYiMicroHei-9636"/>
      <use x="100.0" xlink:href="#WenQuanYiMicroHei-8dc3"/>
      <use x="200.0" xlink:href="#WenQuanYiMicroHei-54cd"/>
      <use x="300.0" xlink:href="#WenQuanYiMicroHei-5e94"/>
     </g>
    </g>
    <g id="line2d_35">
     <path d="
M302.051 40.2875
L316.045 40.2875" style="fill:none;stroke:#a60628;stroke-linecap:square;stroke-width:2.0;"/>
    </g>
    <g id="line2d_36"/>
    <g id="text_19">
     <!-- 正弦波响应 -->
     <defs>
      <path d="
M16.4062 80.4688
Q26.5625 75.3906 35.1562 68.75
L29.6875 62.1094
Q20.7031 69.5312 10.9375 75
z

M11.7188 57.0312
Q21.0938 52.3438 29.2969 46.0938
L23.8281 39.4531
Q15.625 46.4844 6.25 51.5625
z

M23.8281 31.6406
L30.4688 26.5625
Q24.2188 8.20312 12.5 -8.98438
L5.07812 -3.51562
Q16.7969 13.2812 23.8281 31.6406
M61.3281 68.3594
L61.3281 80.8594
L69.1406 80.8594
L69.1406 68.3594
L92.5781 68.3594
L92.5781 61.3281
Q92.5781 60.9375 90.625 55.6562
Q88.6719 50.3906 86.7188 46.0938
L79.2969 48.4375
Q82.0312 54.6875 83.9844 60.9375
L69.1406 60.9375
L69.1406 41.7969
L89.4531 41.7969
Q87.5 23.0469 74.6094 8.98438
Q82.8125 3.125 95.3125 -1.95312
L89.4531 -9.375
Q77.7344 -3.90625 68.75 3.51562
Q59.375 -3.90625 46.875 -8.59375
L42.9688 -1.17188
Q54.6875 2.73438 62.8906 8.98438
Q55.4688 16.0156 50 26.1719
L55.8594 30.4688
Q61.3281 20.7031 68.75 14.0625
Q77.7344 23.4375 80.0781 34.7656
L48.4375 34.7656
L48.4375 32.4219
Q48.4375 9.375 35.1562 -8.98438
L28.125 -4.6875
Q35.5469 6.25 38.4688 14.8438
Q41.4062 23.4375 41.4062 35.5469
L41.4062 68.3594
z

M48.4375 41.7969
L61.3281 41.7969
L61.3281 60.9375
L48.4375 60.9375
z
" id="WenQuanYiMicroHei-6ce2"/>
      <path d="
M9.76562 75.7812
L91.7969 75.7812
L91.7969 68.3594
L56.6406 68.3594
L56.6406 42.1875
L89.0625 42.1875
L89.0625 34.7656
L56.6406 34.7656
L56.6406 1.5625
L94.9219 1.5625
L94.9219 -5.85938
L5.07812 -5.85938
L5.07812 1.5625
L19.9219 1.5625
L19.9219 52.3438
L27.7344 52.3438
L27.7344 1.5625
L48.8281 1.5625
L48.8281 68.3594
L9.76562 68.3594
z
" id="WenQuanYiMicroHei-6b63"/>
      <path d="
M27.3438 55.0781
L27.3438 69.9219
L7.42188 69.9219
L7.42188 77.3438
L34.7656 77.3438
L34.7656 48.0469
L16.7969 48.0469
L15.2344 32.4219
L34.375 32.4219
Q34.375 2.73438 32.2188 -2.92188
Q30.0781 -8.59375 23.0469 -8.59375
Q18.75 -8.59375 13.2812 -7.42188
L11.7188 0
Q17.9688 -1.17188 22.2656 -1.17188
Q24.2188 -1.17188 25.1875 2.14062
Q26.1719 5.46875 26.5625 25.3906
L6.64062 25.3906
L9.76562 55.0781
z

M38.2812 69.5312
L62.5 69.5312
Q60.9375 74.2188 58.5938 78.5156
L66.0156 80.8594
Q69.1406 75.7812 71.0938 69.5312
L94.9219 69.5312
L94.9219 62.5
L38.2812 62.5
z

M78.125 51.1719
L85.1562 48.0469
Q66.7969 13.6719 50.3906 1.95312
Q64.8438 3.125 81.25 7.03125
Q78.5156 14.0625 75 20.3125
L82.0312 23.4375
Q89.4531 10.1562 94.9219 -5.46875
L87.5 -8.98438
Q85.9375 -3.90625 84.375 0.390625
Q62.5 -5.07812 41.0156 -5.46875
L37.8906 1.5625
Q55.0781 14.8438 64.8438 29.2969
Q53.5156 26.9531 41.4062 26.1719
L39.0625 32.8125
Q49.6094 41.7969 56.6406 59.375
L64.8438 57.0312
Q57.8125 41.4062 50.7812 33.9844
Q60.1562 34.7656 70.7031 37.5
Q74.6094 44.1406 78.125 51.1719" id="WenQuanYiMicroHei-5f26"/>
     </defs>
     <g transform="translate(327.0408375 43.7861409375)scale(0.09996 -0.09996)">
      <use xlink:href="#WenQuanYiMicroHei-6b63"/>
      <use x="100.0" xlink:href="#WenQuanYiMicroHei-5f26"/>
      <use x="200.0" xlink:href="#WenQuanYiMicroHei-6ce2"/>
      <use x="300.0" xlink:href="#WenQuanYiMicroHei-54cd"/>
      <use x="400.0" xlink:href="#WenQuanYiMicroHei-5e94"/>
     </g>
    </g>
   </g>
  </g>
 </g>
 <defs>
  <clipPath id="pb630a55c68">
   <rect height="172.8" width="334.8" x="50.20201875" y="12.1987809375"/>
  </clipPath>
 </defs>
</svg>
