<?xml version="1.0" encoding="utf-8" standalone="no"?>
<!DOCTYPE svg PUBLIC "-//W3C//DTD SVG 1.1//EN"
  "http://www.w3.org/Graphics/SVG/1.1/DTD/svg11.dtd">
<!-- Created with matplotlib (http://matplotlib.org/) -->
<svg height="221pt" version="1.1" viewBox="0 0 396 221" width="396pt" xmlns="http://www.w3.org/2000/svg" xmlns:xlink="http://www.w3.org/1999/xlink">
 <defs>
  <style type="text/css">
*{stroke-linecap:butt;stroke-linejoin:round;}
  </style>
 </defs>
 <g id="figure_1">
  <g id="patch_1">
   <path d="
M0 221.194
L396.991 221.194
L396.991 2.84217e-14
L0 2.84217e-14
z
" style="fill:#ffffff;"/>
  </g>
  <g id="axes_1">
   <g id="patch_2">
    <path d="
M49.9537 184.999
L384.754 184.999
L384.754 12.1988
L49.9537 12.1988
z
" style="fill:#ffffff;"/>
   </g>
   <g id="line2d_1">
    <path clip-path="url(#pdfd2c4db3d)" d="
M66.6937 34.1335
L83.4337 34.3187
L100.174 35.6212
L116.914 44.484
L133.654 82.1567
L150.394 122.172
L167.134 143.908
L183.874 159.611
L200.614 170.322
L217.354 176.461
L234.094 179.303
L250.834 179.533
L267.574 177.986
L284.314 175.61
L301.054 172.973
L317.794 170.271
L334.534 167.585
L351.274 164.995
L368.014 162.562
L384.754 160.31" style="fill:none;stroke:#348abd;stroke-linecap:square;stroke-width:2.0;"/>
   </g>
   <g id="line2d_2">
    <path clip-path="url(#pdfd2c4db3d)" d="
M66.6937 34.1566
L83.4337 35.0836
L100.174 49.6247
L116.914 114.504
L133.654 149.4
L150.394 164.775
L167.134 158.212
L183.874 146.448
L200.614 131.62
L217.354 116.942
L234.094 104.131
L250.834 93.3779
L267.574 84.4205
L284.314 76.9334
L301.054 70.6347
L317.794 65.3014
L334.534 60.7591
L351.274 56.8687
L368.014 53.5179
L384.754 50.6144" style="fill:none;stroke:#a60628;stroke-linecap:square;stroke-width:2.0;"/>
   </g>
   <g id="patch_3">
    <path d="
M49.9537 12.1988
L384.754 12.1988" style="fill:none;stroke:#000000;stroke-linecap:square;stroke-linejoin:miter;"/>
   </g>
   <g id="patch_4">
    <path d="
M384.754 184.999
L384.754 12.1988" style="fill:none;stroke:#000000;stroke-linecap:square;stroke-linejoin:miter;"/>
   </g>
   <g id="patch_5">
    <path d="
M49.9537 184.999
L384.754 184.999" style="fill:none;stroke:#000000;stroke-linecap:square;stroke-linejoin:miter;"/>
   </g>
   <g id="patch_6">
    <path d="
M49.9537 184.999
L49.9537 12.1988" style="fill:none;stroke:#000000;stroke-linecap:square;stroke-linejoin:miter;"/>
   </g>
   <g id="matplotlib.axis_1">
    <g id="xtick_1">
     <g id="line2d_3">
      <defs>
       <path d="
M0 0
L0 -4" id="m93b0483c22" style="stroke:#000000;stroke-width:0.5;"/>
      </defs>
      <g>
       <use style="stroke:#000000;stroke-width:0.5;" x="49.953680625" xlink:href="#m93b0483c22" y="184.998780938"/>
      </g>
     </g>
     <g id="line2d_4">
      <defs>
       <path d="
M0 0
L0 4" id="m741efc42ff" style="stroke:#000000;stroke-width:0.5;"/>
      </defs>
      <g>
       <use style="stroke:#000000;stroke-width:0.5;" x="49.953680625" xlink:href="#m741efc42ff" y="12.1987809375"/>
      </g>
     </g>
     <g id="text_1">
      <!-- 0 -->
      <defs>
       <path d="
M50.3906 35.7969
Q50.3906 27.1562 49.1406 20.3125
Q47.9062 13.4844 45.1406 8.73438
Q42.3906 4 38.0312 1.5
Q33.6875 -0.984375 27.4844 -0.984375
Q21.7344 -0.984375 17.4531 1.5
Q13.1875 4 10.375 8.73438
Q7.5625 13.4844 6.17188 20.3125
Q4.78125 27.1562 4.78125 35.7969
Q4.78125 44.4375 6.03125 51.2656
Q7.28125 58.1094 9.98438 62.8125
Q12.7031 67.5312 17.0156 70.0156
Q21.3438 72.5156 27.4844 72.5156
Q33.2969 72.5156 37.5938 70.0469
Q41.8906 67.5781 44.7188 62.8594
Q47.5625 58.1562 48.9688 51.3125
Q50.3906 44.4844 50.3906 35.7969
M13.8125 35.7969
Q13.8125 28.4688 14.5469 23
Q15.2812 17.5312 16.8906 13.8906
Q18.5 10.25 21.1094 8.42188
Q23.7344 6.59375 27.4844 6.59375
Q31.25 6.59375 33.8906 8.39062
Q36.5312 10.2031 38.2031 13.8125
Q39.8906 17.4375 40.6406 22.9219
Q41.4062 28.4219 41.4062 35.7969
Q41.4062 43.1094 40.6406 48.5781
Q39.8906 54.0469 38.2031 57.6562
Q36.5312 61.2812 33.8906 63.0781
Q31.25 64.8906 27.4844 64.8906
Q23.7344 64.8906 21.1094 63.0781
Q18.5 61.2812 16.8906 57.6562
Q15.2812 54.0469 14.5469 48.5781
Q13.8125 43.1094 13.8125 35.7969" id="WenQuanYiMicroHei-30"/>
      </defs>
      <g transform="translate(47.6741240625 196.594179063)scale(0.09996 -0.09996)">
       <use xlink:href="#WenQuanYiMicroHei-30"/>
      </g>
     </g>
    </g>
    <g id="xtick_2">
     <g id="line2d_5">
      <g>
       <use style="stroke:#000000;stroke-width:0.5;" x="133.653680625" xlink:href="#m93b0483c22" y="184.998780938"/>
      </g>
     </g>
     <g id="line2d_6">
      <g>
       <use style="stroke:#000000;stroke-width:0.5;" x="133.653680625" xlink:href="#m741efc42ff" y="12.1987809375"/>
      </g>
     </g>
     <g id="text_2">
      <!-- 5 -->
      <defs>
       <path d="
M26.6094 43.7969
Q31.4531 43.7969 35.625 42.4531
Q39.7969 41.1094 42.8906 38.4688
Q46 35.8438 47.75 31.9375
Q49.5156 28.0312 49.5156 22.9062
Q49.5156 17.3281 47.8438 12.8906
Q46.1875 8.45312 42.9219 5.375
Q39.6562 2.29688 34.8438 0.65625
Q30.0312 -0.984375 23.7812 -0.984375
Q21.2969 -0.984375 18.875 -0.734375
Q16.4531 -0.484375 14.2344 -0.015625
Q12.0156 0.4375 10.0156 1.17188
Q8.01562 1.90625 6.39062 2.875
L6.39062 11.2812
Q8.01562 10.1562 10.1875 9.28125
Q12.3594 8.40625 14.75 7.8125
Q17.1406 7.23438 19.5469 6.90625
Q21.9688 6.59375 24.0312 6.59375
Q27.875 6.59375 30.9062 7.5
Q33.9375 8.40625 36.0312 10.2969
Q38.1406 12.2031 39.25 15.0781
Q40.375 17.9688 40.375 21.9219
Q40.375 28.9062 36.0781 32.5938
Q31.7812 36.2812 23.5781 36.2812
Q22.2656 36.2812 20.7188 36.1562
Q19.1875 36.0312 17.6406 35.8281
Q16.1094 35.6406 14.7188 35.4219
Q13.3281 35.2031 12.3125 35.0156
L7.90625 37.7969
L10.5938 71.3906
L44.2812 71.3906
L44.2812 63.2812
L18.3125 63.2812
L16.4062 42.8281
Q17.9688 43.1094 20.5312 43.4531
Q23.0938 43.7969 26.6094 43.7969" id="WenQuanYiMicroHei-35"/>
      </defs>
      <g transform="translate(131.498293125 196.594179063)scale(0.09996 -0.09996)">
       <use xlink:href="#WenQuanYiMicroHei-35"/>
      </g>
     </g>
    </g>
    <g id="xtick_3">
     <g id="line2d_7">
      <g>
       <use style="stroke:#000000;stroke-width:0.5;" x="217.353680625" xlink:href="#m93b0483c22" y="184.998780938"/>
      </g>
     </g>
     <g id="line2d_8">
      <g>
       <use style="stroke:#000000;stroke-width:0.5;" x="217.353680625" xlink:href="#m741efc42ff" y="12.1987809375"/>
      </g>
     </g>
     <g id="text_3">
      <!-- 10 -->
      <defs>
       <path d="
M34.7188 0
L26.125 0
L26.125 44.5781
Q26.125 46.6875 26.1406 49.0781
Q26.1719 51.4688 26.2344 53.8281
Q26.3125 56.2031 26.3906 58.375
Q26.4688 60.5469 26.5156 62.2031
Q25.6875 61.3281 25.0469 60.6875
Q24.4219 60.0625 23.75 59.4688
Q23.0938 58.8906 22.3594 58.2188
Q21.625 57.5625 20.6094 56.6875
L13.375 50.7812
L8.6875 56.7812
L27.3906 71.3906
L34.7188 71.3906
z
" id="WenQuanYiMicroHei-31"/>
      </defs>
      <g transform="translate(212.51655375 196.594179063)scale(0.09996 -0.09996)">
       <use xlink:href="#WenQuanYiMicroHei-31"/>
       <use x="55.078125" xlink:href="#WenQuanYiMicroHei-30"/>
      </g>
     </g>
    </g>
    <g id="xtick_4">
     <g id="line2d_9">
      <g>
       <use style="stroke:#000000;stroke-width:0.5;" x="301.053680625" xlink:href="#m93b0483c22" y="184.998780938"/>
      </g>
     </g>
     <g id="line2d_10">
      <g>
       <use style="stroke:#000000;stroke-width:0.5;" x="301.053680625" xlink:href="#m741efc42ff" y="12.1987809375"/>
      </g>
     </g>
     <g id="text_4">
      <!-- 15 -->
      <g transform="translate(296.26028625 196.594179063)scale(0.09996 -0.09996)">
       <use xlink:href="#WenQuanYiMicroHei-31"/>
       <use x="55.078125" xlink:href="#WenQuanYiMicroHei-35"/>
      </g>
     </g>
    </g>
    <g id="xtick_5">
     <g id="line2d_11">
      <g>
       <use style="stroke:#000000;stroke-width:0.5;" x="384.753680625" xlink:href="#m93b0483c22" y="184.998780938"/>
      </g>
     </g>
     <g id="line2d_12">
      <g>
       <use style="stroke:#000000;stroke-width:0.5;" x="384.753680625" xlink:href="#m741efc42ff" y="12.1987809375"/>
      </g>
     </g>
     <g id="text_5">
      <!-- 20 -->
      <defs>
       <path d="
M49.2188 0
L4.6875 0
L4.6875 7.625
L21.7812 26.2188
Q25.4375 30.1719 28.3125 33.4375
Q31.2031 36.7188 33.2188 39.8438
Q35.25 42.9688 36.3281 46.1094
Q37.4062 49.2656 37.4062 52.9844
Q37.4062 55.8594 36.5781 58.0469
Q35.75 60.25 34.2031 61.7812
Q32.6719 63.3281 30.5625 64.1094
Q28.4688 64.8906 25.875 64.8906
Q21.2344 64.8906 17.5 63.0156
Q13.7656 61.1406 10.4062 58.2031
L5.42188 64.0156
Q7.375 65.7656 9.60938 67.2969
Q11.8594 68.8438 14.4531 69.9688
Q17.0469 71.0938 19.9219 71.75
Q22.7969 72.4062 25.9844 72.4062
Q30.6719 72.4062 34.4531 71.0938
Q38.2344 69.7812 40.8594 67.3125
Q43.5 64.8438 44.9375 61.2969
Q46.3906 57.7656 46.3906 53.3281
Q46.3906 49.1719 45.0938 45.4062
Q43.7969 41.6562 41.5312 38.0156
Q39.2656 34.375 36.1094 30.7031
Q32.9531 27.0469 29.2969 23.0938
L15.5781 8.5
L15.5781 8.10938
L49.2188 8.10938
z
" id="WenQuanYiMicroHei-32"/>
      </defs>
      <g transform="translate(379.71663375 196.594179063)scale(0.09996 -0.09996)">
       <use xlink:href="#WenQuanYiMicroHei-32"/>
       <use x="55.078125" xlink:href="#WenQuanYiMicroHei-30"/>
      </g>
     </g>
    </g>
    <g id="text_6">
     <!-- 迭代次数 -->
     <defs>
      <path d="
M11.7188 78.5156
Q19.5312 73.4375 25.7812 66.4062
L20.3125 59.7656
Q13.6719 67.5781 6.25 72.6562
z

M5.07812 46.0938
L24.6094 46.0938
L24.6094 8.59375
Q29.2969 5.07812 36.5156 3.51562
Q43.75 1.95312 67.9688 1.95312
L95.3125 1.95312
L91.4062 -6.64062
L60.1562 -6.64062
Q42.9688 -6.64062 35.1562 -4.29688
Q27.3438 -1.95312 21.4844 3.125
L10.1562 -8.20312
L4.6875 0
Q10.9375 3.51562 16.7969 7.42188
L16.7969 38.6719
L5.07812 38.6719
z

M45.3125 78.125
L52.7344 75.3906
L49.6094 65.625
L60.5469 65.625
L60.5469 80.8594
L68.3594 80.8594
L68.3594 65.625
L89.0625 65.625
L89.0625 58.2031
L68.3594 58.2031
L68.3594 51.1719
Q68.3594 47.2656 67.5781 43.75
L92.1875 43.75
L92.1875 36.3281
L65.625 36.3281
Q65.2344 35.1562 64.8438 34.375
Q79.6875 24.2188 90.2344 10.9375
L84.7656 4.29688
Q73.4375 18.75 61.3281 27.7344
Q51.9531 14.0625 35.5469 5.46875
L31.25 12.5
Q50.7812 23.0469 57.0312 36.3281
L32.0312 36.3281
L32.0312 43.75
L59.7656 43.75
Q60.5469 47.2656 60.5469 51.1719
L60.5469 58.2031
L46.875 58.2031
Q43.75 51.5625 40.2344 45.7031
L33.2031 50
Q41.0156 62.5 45.3125 78.125" id="WenQuanYiMicroHei-8fed"/>
      <path d="
M14.0625 76.1719
Q23.4375 69.1406 31.25 59.375
L25.3906 52.3438
Q17.5781 62.8906 8.59375 70.3125
z

M25.3906 37.1094
L32.4219 32.4219
Q25.3906 12.5 13.2812 -6.25
L5.46875 -0.390625
Q17.9688 17.1875 25.3906 37.1094
M48.4375 81.6406
L55.8594 79.6875
Q54.2969 73.0469 51.9531 66.4062
L89.0625 66.4062
L89.0625 59.375
Q84.7656 50.3906 78.9062 41.4062
L72.2656 44.9219
Q76.9531 51.9531 80.0781 58.9844
L49.6094 58.9844
Q44.5312 46.875 37.8906 38.2812
L32.0312 44.5312
Q42.9688 60.1562 48.4375 81.6406
M57.4219 52.7344
L64.8438 51.5625
Q64.8438 43.75 63.6719 37.1094
Q68.75 22.6562 75.7812 13.6719
Q82.8125 4.6875 95.7031 -2.34375
L88.6719 -8.98438
Q69.1406 3.51562 60.9375 24.2188
Q55.0781 3.90625 32.0312 -8.98438
L26.1719 -2.73438
Q42.9688 6.64062 49.7969 18.3594
Q56.6406 30.0781 57.4219 52.7344" id="WenQuanYiMicroHei-6b21"/>
      <path d="
M66.7969 64.4531
L92.9688 64.4531
L92.9688 57.0312
L88.6719 57.0312
Q86.3281 29.6875 77.7344 15.625
Q84.7656 6.25 95.7031 -1.5625
L89.8438 -8.98438
Q80.8594 -1.5625 73.0469 8.59375
Q65.2344 -1.95312 53.9062 -9.375
L48.4375 -2.34375
Q60.1562 4.6875 67.9688 16.0156
Q62.5 25.3906 57.8125 37.1094
L54.6875 30.4688
L48.4375 35.1562
Q58.2031 55.8594 62.5 80.8594
L70.3125 78.5156
Q68.75 71.0938 66.7969 64.4531
M80.8594 57.0312
L64.8438 57.0312
Q64.4531 55.0781 62.1094 48.0469
Q66.7969 33.9844 72.6562 23.8281
Q77.7344 34.7656 80.0781 50.3906
L80.0781 50.7812
z

M7.03125 64.0625
L27.3438 64.0625
L27.3438 80.4688
L34.375 80.4688
L34.375 64.0625
L53.125 64.0625
L53.125 57.4219
L34.375 57.4219
L34.375 39.4531
L27.3438 39.4531
L27.3438 51.5625
Q20.7031 42.1875 11.7188 36.3281
L6.64062 42.5781
Q16.4062 47.6562 23.8281 57.4219
L7.03125 57.4219
z

M16.4062 78.9062
Q19.5312 74.2188 21.4844 68.3594
L15.2344 65.2344
Q13.2812 71.0938 10.5469 76.1719
z

M45.3125 78.9062
L51.1719 76.1719
Q47.6562 69.5312 43.75 66.0156
L38.6719 70.7031
Q42.5781 74.2188 45.3125 78.9062
M42.5781 53.9062
Q46.875 49.2188 49.6094 44.1406
L43.75 40.625
Q41.4062 46.0938 37.1094 50.7812
z

M6.64062 31.25
L21.875 31.25
Q23.4375 34.375 24.6094 37.5
L32.0312 36.7188
L29.6875 31.25
L47.2656 31.25
L47.2656 24.6094
Q42.5781 14.4531 35.9375 7.42188
Q42.5781 3.51562 48.0469 0
L43.3594 -7.03125
Q38.2812 -2.73438 30.0781 1.95312
Q21.875 -5.07812 8.20312 -9.375
L5.85938 -2.73438
Q16.0156 0.390625 23.4375 5.46875
Q17.1875 8.98438 9.76562 12.5
Q14.4531 18.75 17.9688 24.6094
L6.64062 24.6094
z

M26.1719 24.6094
Q23.4375 19.5312 20.3125 15.625
L29.6875 10.9375
Q35.5469 17.1875 39.0625 24.6094
z
" id="WenQuanYiMicroHei-6570"/>
      <path d="
M27.7344 80.8594
L35.5469 78.5156
Q31.25 67.1875 25.3906 56.25
L25.3906 -8.98438
L17.5781 -8.98438
L17.5781 43.75
Q12.8906 37.5 7.8125 32.0312
L3.90625 39.8438
Q20.7031 59.375 27.7344 80.8594
M92.5781 57.4219
L93.3594 50
L58.9844 45.7031
Q62.5 22.6562 70.3125 11.7188
Q78.125 0.78125 81.25 0.78125
Q84.375 0.78125 85.9375 3.51562
Q87.5 6.25 88.2812 14.4531
L95.3125 12.1094
Q94.1406 -0.390625 91.2031 -4.29688
Q88.2812 -8.20312 82.4219 -8.20312
Q74.6094 -8.20312 65.2344 3.90625
Q55.8594 16.0156 51.1719 44.5312
L33.5938 42.5781
L32.4219 50
L50 52.3438
Q48.0469 64.8438 46.875 80.8594
L54.6875 80.8594
Q56.25 64.8438 57.8125 53.125
z

M70.7031 79.2969
Q77.7344 72.2656 82.4219 64.4531
L75.7812 60.5469
Q71.4844 68.3594 64.0625 75
z
" id="WenQuanYiMicroHei-4ee3"/>
     </defs>
     <g transform="translate(197.810719688 211.591740938)scale(0.09996 -0.09996)">
      <use xlink:href="#WenQuanYiMicroHei-8fed"/>
      <use x="100.0" xlink:href="#WenQuanYiMicroHei-4ee3"/>
      <use x="200.0" xlink:href="#WenQuanYiMicroHei-6b21"/>
      <use x="300.0" xlink:href="#WenQuanYiMicroHei-6570"/>
     </g>
    </g>
   </g>
   <g id="matplotlib.axis_2">
    <g id="ytick_1">
     <g id="line2d_13">
      <defs>
       <path d="
M0 0
L4 0" id="m728421d6d4" style="stroke:#000000;stroke-width:0.5;"/>
      </defs>
      <g>
       <use style="stroke:#000000;stroke-width:0.5;" x="49.953680625" xlink:href="#m728421d6d4" y="184.998780938"/>
      </g>
     </g>
     <g id="line2d_14">
      <defs>
       <path d="
M0 0
L-4 0" id="mcb0005524f" style="stroke:#000000;stroke-width:0.5;"/>
      </defs>
      <g>
       <use style="stroke:#000000;stroke-width:0.5;" x="384.753680625" xlink:href="#mcb0005524f" y="184.998780938"/>
      </g>
     </g>
     <g id="text_7">
      <!-- 0.900 -->
      <defs>
       <path d="
M50.2031 40.9219
Q50.2031 35.7969 49.6875 30.6875
Q49.1719 25.5938 47.875 20.9531
Q46.5781 16.3125 44.3281 12.2812
Q42.0938 8.25 38.625 5.3125
Q35.1562 2.39062 30.3125 0.703125
Q25.4844 -0.984375 19 -0.984375
Q18.0625 -0.984375 16.9375 -0.921875
Q15.8281 -0.875 14.7031 -0.75
Q13.5781 -0.640625 12.5 -0.484375
Q11.4219 -0.34375 10.5938 -0.09375
L10.5938 7.51562
Q12.3125 6.89062 14.4531 6.59375
Q16.6094 6.29688 18.7031 6.29688
Q25.2969 6.29688 29.5469 8.59375
Q33.7969 10.8906 36.2812 14.8125
Q38.7656 18.75 39.8125 23.9688
Q40.875 29.2031 41.1094 35.0156
L40.4844 35.0156
Q39.5 33.25 38.125 31.7344
Q36.7656 30.2188 34.9062 29.0938
Q33.0625 27.9844 30.7188 27.3438
Q28.375 26.7031 25.4844 26.7031
Q20.8438 26.7031 17.0781 28.1406
Q13.3281 29.5938 10.6875 32.375
Q8.0625 35.1562 6.60938 39.1875
Q5.17188 43.2188 5.17188 48.3906
Q5.17188 53.9531 6.70312 58.4219
Q8.25 62.8906 11.0625 65.9844
Q13.875 69.0938 17.8906 70.75
Q21.9219 72.4062 26.9062 72.4062
Q31.8438 72.4062 36.0781 70.5
Q40.3281 68.6094 43.4531 64.7031
Q46.5781 60.7969 48.3906 54.8594
Q50.2031 48.9219 50.2031 40.9219
M27 64.8906
Q24.0781 64.8906 21.6562 63.9062
Q19.2344 62.9375 17.4688 60.8906
Q15.7188 58.8438 14.7656 55.7344
Q13.8125 52.6406 13.8125 48.3906
Q13.8125 44.9688 14.625 42.25
Q15.4375 39.5469 17.0469 37.6406
Q18.6562 35.75 21.0625 34.7188
Q23.4844 33.6875 26.7031 33.6875
Q30.0312 33.6875 32.7188 34.8281
Q35.4062 35.9844 37.2969 37.8125
Q39.2031 39.6562 40.25 42
Q41.3125 44.3438 41.3125 46.6875
Q41.3125 49.9531 40.4062 53.2031
Q39.5 56.4531 37.7188 59.0625
Q35.9375 61.6719 33.25 63.2812
Q30.5625 64.8906 27 64.8906" id="WenQuanYiMicroHei-39"/>
       <path d="
M7.17188 5.42188
Q7.17188 7.28125 7.65625 8.5625
Q8.15625 9.85938 8.98438 10.6562
Q9.8125 11.4688 10.9375 11.8281
Q12.0625 12.2031 13.375 12.2031
Q14.6562 12.2031 15.7969 11.8281
Q16.9375 11.4688 17.7656 10.6562
Q18.6094 9.85938 19.0938 8.5625
Q19.5781 7.28125 19.5781 5.42188
Q19.5781 3.60938 19.0938 2.3125
Q18.6094 1.03125 17.7656 0.1875
Q16.9375 -0.640625 15.7969 -1.03125
Q14.6562 -1.42188 13.375 -1.42188
Q12.0625 -1.42188 10.9375 -1.03125
Q9.8125 -0.640625 8.98438 0.1875
Q8.15625 1.03125 7.65625 2.3125
Q7.17188 3.60938 7.17188 5.42188" id="WenQuanYiMicroHei-2e"/>
      </defs>
      <g transform="translate(22.197561875 187.595398125)scale(0.09996 -0.09996)">
       <use xlink:href="#WenQuanYiMicroHei-30"/>
       <use x="55.078125" xlink:href="#WenQuanYiMicroHei-2e"/>
       <use x="81.884765625" xlink:href="#WenQuanYiMicroHei-39"/>
       <use x="136.962890625" xlink:href="#WenQuanYiMicroHei-30"/>
       <use x="192.041015625" xlink:href="#WenQuanYiMicroHei-30"/>
      </g>
     </g>
    </g>
    <g id="ytick_2">
     <g id="line2d_15">
      <g>
       <use style="stroke:#000000;stroke-width:0.5;" x="49.953680625" xlink:href="#m728421d6d4" y="160.313066652"/>
      </g>
     </g>
     <g id="line2d_16">
      <g>
       <use style="stroke:#000000;stroke-width:0.5;" x="384.753680625" xlink:href="#mcb0005524f" y="160.313066652"/>
      </g>
     </g>
     <g id="text_8">
      <!-- 0.905 -->
      <g transform="translate(22.285026875 162.909683839)scale(0.09996 -0.09996)">
       <use xlink:href="#WenQuanYiMicroHei-30"/>
       <use x="55.078125" xlink:href="#WenQuanYiMicroHei-2e"/>
       <use x="81.884765625" xlink:href="#WenQuanYiMicroHei-39"/>
       <use x="136.962890625" xlink:href="#WenQuanYiMicroHei-30"/>
       <use x="192.041015625" xlink:href="#WenQuanYiMicroHei-35"/>
      </g>
     </g>
    </g>
    <g id="ytick_3">
     <g id="line2d_17">
      <g>
       <use style="stroke:#000000;stroke-width:0.5;" x="49.953680625" xlink:href="#m728421d6d4" y="135.627352366"/>
      </g>
     </g>
     <g id="line2d_18">
      <g>
       <use style="stroke:#000000;stroke-width:0.5;" x="384.753680625" xlink:href="#mcb0005524f" y="135.627352366"/>
      </g>
     </g>
     <g id="text_9">
      <!-- 0.910 -->
      <g transform="translate(22.197561875 138.223969554)scale(0.09996 -0.09996)">
       <use xlink:href="#WenQuanYiMicroHei-30"/>
       <use x="55.078125" xlink:href="#WenQuanYiMicroHei-2e"/>
       <use x="81.884765625" xlink:href="#WenQuanYiMicroHei-39"/>
       <use x="136.962890625" xlink:href="#WenQuanYiMicroHei-31"/>
       <use x="192.041015625" xlink:href="#WenQuanYiMicroHei-30"/>
      </g>
     </g>
    </g>
    <g id="ytick_4">
     <g id="line2d_19">
      <g>
       <use style="stroke:#000000;stroke-width:0.5;" x="49.953680625" xlink:href="#m728421d6d4" y="110.94163808"/>
      </g>
     </g>
     <g id="line2d_20">
      <g>
       <use style="stroke:#000000;stroke-width:0.5;" x="384.753680625" xlink:href="#mcb0005524f" y="110.94163808"/>
      </g>
     </g>
     <g id="text_10">
      <!-- 0.915 -->
      <g transform="translate(22.285026875 113.538255268)scale(0.09996 -0.09996)">
       <use xlink:href="#WenQuanYiMicroHei-30"/>
       <use x="55.078125" xlink:href="#WenQuanYiMicroHei-2e"/>
       <use x="81.884765625" xlink:href="#WenQuanYiMicroHei-39"/>
       <use x="136.962890625" xlink:href="#WenQuanYiMicroHei-31"/>
       <use x="192.041015625" xlink:href="#WenQuanYiMicroHei-35"/>
      </g>
     </g>
    </g>
    <g id="ytick_5">
     <g id="line2d_21">
      <g>
       <use style="stroke:#000000;stroke-width:0.5;" x="49.953680625" xlink:href="#m728421d6d4" y="86.2559237946"/>
      </g>
     </g>
     <g id="line2d_22">
      <g>
       <use style="stroke:#000000;stroke-width:0.5;" x="384.753680625" xlink:href="#mcb0005524f" y="86.2559237946"/>
      </g>
     </g>
     <g id="text_11">
      <!-- 0.920 -->
      <g transform="translate(22.197561875 88.8525409821)scale(0.09996 -0.09996)">
       <use xlink:href="#WenQuanYiMicroHei-30"/>
       <use x="55.078125" xlink:href="#WenQuanYiMicroHei-2e"/>
       <use x="81.884765625" xlink:href="#WenQuanYiMicroHei-39"/>
       <use x="136.962890625" xlink:href="#WenQuanYiMicroHei-32"/>
       <use x="192.041015625" xlink:href="#WenQuanYiMicroHei-30"/>
      </g>
     </g>
    </g>
    <g id="ytick_6">
     <g id="line2d_23">
      <g>
       <use style="stroke:#000000;stroke-width:0.5;" x="49.953680625" xlink:href="#m728421d6d4" y="61.5702095089"/>
      </g>
     </g>
     <g id="line2d_24">
      <g>
       <use style="stroke:#000000;stroke-width:0.5;" x="384.753680625" xlink:href="#mcb0005524f" y="61.5702095089"/>
      </g>
     </g>
     <g id="text_12">
      <!-- 0.925 -->
      <g transform="translate(22.285026875 64.1668266964)scale(0.09996 -0.09996)">
       <use xlink:href="#WenQuanYiMicroHei-30"/>
       <use x="55.078125" xlink:href="#WenQuanYiMicroHei-2e"/>
       <use x="81.884765625" xlink:href="#WenQuanYiMicroHei-39"/>
       <use x="136.962890625" xlink:href="#WenQuanYiMicroHei-32"/>
       <use x="192.041015625" xlink:href="#WenQuanYiMicroHei-35"/>
      </g>
     </g>
    </g>
    <g id="ytick_7">
     <g id="line2d_25">
      <g>
       <use style="stroke:#000000;stroke-width:0.5;" x="49.953680625" xlink:href="#m728421d6d4" y="36.8844952232"/>
      </g>
     </g>
     <g id="line2d_26">
      <g>
       <use style="stroke:#000000;stroke-width:0.5;" x="384.753680625" xlink:href="#mcb0005524f" y="36.8844952232"/>
      </g>
     </g>
     <g id="text_13">
      <!-- 0.930 -->
      <defs>
       <path d="
M46.9219 54.6875
Q46.9219 51.125 45.7969 48.1875
Q44.6719 45.2656 42.6406 43.1094
Q40.625 40.9688 37.7969 39.5781
Q34.9688 38.1875 31.5 37.5938
L31.5 37.3125
Q40.1406 36.2344 44.625 31.8125
Q49.125 27.3906 49.125 20.3125
Q49.125 15.625 47.5312 11.7188
Q45.9531 7.8125 42.7188 4.98438
Q39.5 2.15625 34.5625 0.578125
Q29.6406 -0.984375 22.9062 -0.984375
Q17.5781 -0.984375 12.8594 -0.140625
Q8.15625 0.6875 4 2.875
L4 11.1875
Q8.25 8.9375 13.2031 7.71875
Q18.1719 6.5 22.7031 6.5
Q27.2031 6.5 30.4688 7.46875
Q33.7344 8.45312 35.8594 10.25
Q37.9844 12.0625 38.9844 14.6875
Q39.9844 17.3281 39.9844 20.6094
Q39.9844 23.9219 38.6875 26.2812
Q37.4062 28.6562 35.0156 30.1875
Q32.625 31.7344 29.1719 32.4688
Q25.7344 33.2031 21.3906 33.2031
L14.8906 33.2031
L14.8906 40.5781
L21.3906 40.5781
Q25.3438 40.5781 28.4219 41.5469
Q31.5 42.5312 33.5625 44.3281
Q35.6406 46.1406 36.7188 48.625
Q37.7969 51.125 37.7969 54.1094
Q37.7969 56.6406 36.9062 58.6406
Q36.0312 60.6406 34.4219 62.0312
Q32.8125 63.4219 30.5625 64.1562
Q28.3281 64.8906 25.5938 64.8906
Q20.3594 64.8906 16.375 63.25
Q12.4062 61.625 8.79688 58.9844
L4.29688 65.0938
Q6.15625 66.6094 8.42188 67.9219
Q10.6875 69.2344 13.375 70.2344
Q16.0625 71.2344 19.1094 71.8125
Q22.1719 72.4062 25.5938 72.4062
Q30.8594 72.4062 34.8281 71.0938
Q38.8125 69.7812 41.5 67.4062
Q44.1875 65.0469 45.5469 61.7969
Q46.9219 58.5469 46.9219 54.6875" id="WenQuanYiMicroHei-33"/>
      </defs>
      <g transform="translate(22.197561875 39.4811124107)scale(0.09996 -0.09996)">
       <use xlink:href="#WenQuanYiMicroHei-30"/>
       <use x="55.078125" xlink:href="#WenQuanYiMicroHei-2e"/>
       <use x="81.884765625" xlink:href="#WenQuanYiMicroHei-39"/>
       <use x="136.962890625" xlink:href="#WenQuanYiMicroHei-33"/>
       <use x="192.041015625" xlink:href="#WenQuanYiMicroHei-30"/>
      </g>
     </g>
    </g>
    <g id="ytick_8">
     <g id="line2d_27">
      <g>
       <use style="stroke:#000000;stroke-width:0.5;" x="49.953680625" xlink:href="#m728421d6d4" y="12.1987809375"/>
      </g>
     </g>
     <g id="line2d_28">
      <g>
       <use style="stroke:#000000;stroke-width:0.5;" x="384.753680625" xlink:href="#mcb0005524f" y="12.1987809375"/>
      </g>
     </g>
     <g id="text_14">
      <!-- 0.935 -->
      <g transform="translate(22.285026875 14.795398125)scale(0.09996 -0.09996)">
       <use xlink:href="#WenQuanYiMicroHei-30"/>
       <use x="55.078125" xlink:href="#WenQuanYiMicroHei-2e"/>
       <use x="81.884765625" xlink:href="#WenQuanYiMicroHei-39"/>
       <use x="136.962890625" xlink:href="#WenQuanYiMicroHei-33"/>
       <use x="192.041015625" xlink:href="#WenQuanYiMicroHei-35"/>
      </g>
     </g>
    </g>
    <g id="text_15">
     <!-- RMSE -->
     <defs>
      <path d="
M46.7812 0
L9.71875 0
L9.71875 71.3906
L46.7812 71.3906
L46.7812 63.375
L18.7969 63.375
L18.7969 41.3125
L44.9219 41.3125
L44.9219 33.4062
L18.7969 33.4062
L18.7969 8.01562
L46.7812 8.01562
z
" id="WenQuanYiMicroHei-45"/>
      <path d="
M47.3125 19.0938
Q47.3125 14.3594 45.625 10.625
Q43.9531 6.89062 40.8281 4.29688
Q37.7031 1.70312 33.2031 0.359375
Q28.7188 -0.984375 23.0938 -0.984375
Q17.6719 -0.984375 12.9531 -0.125
Q8.25 0.734375 5.07812 2.39062
L5.07812 11.0781
Q6.73438 10.2969 8.85938 9.54688
Q10.9844 8.79688 13.3281 8.20312
Q15.6719 7.625 18.1562 7.25
Q20.6562 6.89062 23.0938 6.89062
Q30.9062 6.89062 34.6406 9.8125
Q38.375 12.75 38.375 18.2188
Q38.375 20.8438 37.6719 22.7969
Q36.9688 24.75 35.1875 26.3906
Q33.4062 28.0312 30.4219 29.5625
Q27.4375 31.1094 22.9062 32.9062
Q18.5625 34.625 15.3594 36.6406
Q12.1562 38.6719 10.0781 41.2031
Q8.01562 43.75 7 46.9688
Q6 50.2031 6 54.2969
Q6 58.5938 7.5625 61.9531
Q9.125 65.3281 11.9531 67.6406
Q14.7969 69.9688 18.7188 71.1875
Q22.6562 72.4062 27.3906 72.4062
Q33.2031 72.4062 37.8438 71.3125
Q42.4844 70.2188 46.0938 68.5
L42.8281 60.8906
Q39.6562 62.3125 35.625 63.3594
Q31.5938 64.4062 27.2969 64.4062
Q21.3438 64.4062 18.0625 61.6406
Q14.7969 58.8906 14.7969 54.2031
Q14.7969 51.4219 15.5312 49.3906
Q16.2656 47.3594 17.9688 45.7188
Q19.6719 44.0938 22.4844 42.6562
Q25.2969 41.2188 29.3906 39.5938
Q33.8438 37.8438 37.1875 35.9844
Q40.5312 34.125 42.7656 31.7812
Q45.0156 29.4375 46.1562 26.3594
Q47.3125 23.2969 47.3125 19.0938" id="WenQuanYiMicroHei-53"/>
      <path d="
M39.2031 0
L17.5781 62.5
L17.1875 62.5
Q17.4844 58.8906 17.6719 55.3281
Q17.875 52.25 17.9844 48.8438
Q18.1094 45.4531 18.1094 42.6719
L18.1094 0
L9.71875 0
L9.71875 71.3906
L23.1875 71.3906
L43.3125 13.1875
L43.6094 13.1875
L63.8125 71.3906
L77.2969 71.3906
L77.2969 0
L68.2188 0
L68.2188 43.3125
Q68.2188 45.8438 68.3125 49.1094
Q68.4062 52.3906 68.5625 55.375
Q68.75 58.8438 68.8906 62.4062
L68.5 62.4062
L46.6875 0
z
" id="WenQuanYiMicroHei-4d"/>
      <path d="
M18.7969 29.5
L18.7969 0
L9.71875 0
L9.71875 71.3906
L27.0938 71.3906
Q40.0938 71.3906 46.2812 66.3594
Q52.4844 61.3281 52.4844 51.125
Q52.4844 46.875 51.2812 43.7031
Q50.0938 40.5312 48.1094 38.25
Q46.1406 35.9844 43.5938 34.4688
Q41.0625 32.9531 38.375 31.9844
L57.8125 0
L47.125 0
L29.9844 29.5
z

M18.7969 37.2031
L26.8125 37.2031
Q31.2031 37.2031 34.2812 38.0625
Q37.3594 38.9219 39.3281 40.5938
Q41.3125 42.2812 42.2031 44.7969
Q43.1094 47.3125 43.1094 50.6875
Q43.1094 54.2031 42.1094 56.6406
Q41.1094 59.0781 39.0781 60.6406
Q37.0625 62.2031 33.9531 62.9062
Q30.8594 63.625 26.6094 63.625
L18.7969 63.625
z
" id="WenQuanYiMicroHei-52"/>
     </defs>
     <g transform="translate(14.795398125 110.342519063)rotate(-90.0)scale(0.09996 -0.09996)">
      <use xlink:href="#WenQuanYiMicroHei-52"/>
      <use x="58.984375" xlink:href="#WenQuanYiMicroHei-4d"/>
      <use x="145.99609375" xlink:href="#WenQuanYiMicroHei-53"/>
      <use x="197.900390625" xlink:href="#WenQuanYiMicroHei-45"/>
     </g>
    </g>
   </g>
   <g id="legend_1">
    <g id="patch_7">
     <path d="
M299.617 50.1867
L379.756 50.1867
L379.756 17.1968
L299.617 17.1968
z
" style="fill:#ffffff;stroke:#000000;stroke-linejoin:miter;"/>
    </g>
    <g id="line2d_29">
     <path d="
M306.615 25.292
L320.609 25.292" style="fill:none;stroke:#348abd;stroke-linecap:square;stroke-width:2.0;"/>
    </g>
    <g id="line2d_30"/>
    <g id="text_16">
     <!-- damp=3.5 -->
     <defs>
      <path d="
M41.6094 7.17188
L41.2188 7.17188
Q40.1406 5.51562 38.6875 4.03125
Q37.25 2.54688 35.375 1.42188
Q33.5 0.296875 31.1562 -0.34375
Q28.8125 -0.984375 25.875 -0.984375
Q21.3438 -0.984375 17.5781 0.78125
Q13.8125 2.54688 11.125 6.03125
Q8.45312 9.51562 6.98438 14.6875
Q5.51562 19.875 5.51562 26.7031
Q5.51562 33.5938 6.98438 38.7969
Q8.45312 44 11.125 47.5156
Q13.8125 51.0312 17.5781 52.8125
Q21.3438 54.5938 25.875 54.5938
Q28.7656 54.5938 31.1094 53.9531
Q33.4531 53.3281 35.3281 52.25
Q37.2031 51.1719 38.6719 49.75
Q40.1406 48.3438 41.2188 46.7812
L41.7969 46.7812
Q41.6562 48.4375 41.5 49.9531
Q41.4062 51.2188 41.3125 52.5625
Q41.2188 53.9062 41.2188 54.6875
L41.2188 75.9844
L50.0938 75.9844
L50.0938 0
L42.9219 0
z

M27.5938 6.39062
Q31.2969 6.39062 33.8594 7.51562
Q36.4219 8.64062 38 10.9375
Q39.5938 13.2344 40.3438 16.6719
Q41.1094 20.125 41.2188 24.7031
L41.2188 26.7031
Q41.2188 31.6406 40.5469 35.4688
Q39.8906 39.3125 38.2969 41.9219
Q36.7188 44.5312 34.0781 45.875
Q31.4531 47.2188 27.4844 47.2188
Q20.9062 47.2188 17.7969 41.8906
Q14.7031 36.5781 14.7031 26.6094
Q14.7031 16.4062 17.7969 11.3906
Q20.9062 6.39062 27.5938 6.39062" id="WenQuanYiMicroHei-64"/>
      <path d="
M72.7031 0
L72.7031 34.5156
Q72.7031 40.875 70.2656 44.0469
Q67.8281 47.2188 62.7031 47.2188
Q59.125 47.2188 56.6406 46.0625
Q54.1562 44.9219 52.5625 42.7031
Q50.9844 40.4844 50.25 37.1875
Q49.5156 33.8906 49.5156 29.5938
L49.5156 0
L40.5781 0
L40.5781 34.5156
Q40.5781 40.875 38.1562 44.0469
Q35.75 47.2188 30.6094 47.2188
Q26.8594 47.2188 24.3125 45.9375
Q21.7812 44.6719 20.2344 42.1875
Q18.7031 39.7031 18.0469 36.0781
Q17.3906 32.4688 17.3906 27.7812
L17.3906 0
L8.5 0
L8.5 53.6094
L15.7188 53.6094
L17 46.3906
L17.4844 46.3906
Q18.6562 48.4844 20.2656 50.0156
Q21.875 51.5625 23.7969 52.5781
Q25.7344 53.6094 27.9062 54.0938
Q30.0781 54.5938 32.3281 54.5938
Q38.1875 54.5938 42.0625 52.4375
Q45.9531 50.2969 47.7969 45.7031
L48.1875 45.7031
Q49.4688 48 51.25 49.6562
Q53.0312 51.3125 55.1562 52.4062
Q57.2812 53.5156 59.625 54.0469
Q61.9688 54.5938 64.4062 54.5938
Q72.9531 54.5938 77.2656 49.9219
Q81.5938 45.2656 81.5938 35.0156
L81.5938 0
z
" id="WenQuanYiMicroHei-6d"/>
      <path d="
M4.98438 41.6094
L4.98438 48.875
L50.0938 48.875
L50.0938 41.6094
z

M4.98438 21.5781
L4.98438 28.9062
L50.0938 28.9062
L50.0938 21.5781
z
" id="WenQuanYiMicroHei-3d"/>
      <path d="
M38.7188 0
L36.9219 7.42188
L36.5312 7.42188
Q34.9062 5.21875 33.2969 3.625
Q31.6875 2.04688 29.7812 1.01562
Q27.875 0 25.5312 -0.484375
Q23.1875 -0.984375 20.125 -0.984375
Q16.75 -0.984375 13.9062 -0.03125
Q11.0781 0.921875 9 2.90625
Q6.9375 4.89062 5.76562 7.89062
Q4.59375 10.8906 4.59375 14.9844
Q4.59375 23 10.2344 27.2969
Q15.875 31.5938 27.3906 31.9844
L36.375 32.3281
L36.375 35.6875
Q36.375 38.9688 35.6719 41.1562
Q34.9688 43.3594 33.625 44.7031
Q32.2812 46.0469 30.2969 46.625
Q28.3281 47.2188 25.7812 47.2188
Q21.7344 47.2188 18.2344 46.0469
Q14.75 44.875 11.5312 43.2188
L8.40625 49.9062
Q12.0156 51.8594 16.4531 53.2188
Q20.9062 54.5938 25.7812 54.5938
Q30.7656 54.5938 34.3906 53.5938
Q38.0312 52.5938 40.4062 50.4219
Q42.7812 48.25 43.9531 44.875
Q45.125 41.5 45.125 36.7188
L45.125 0
z

M22.4062 6.20312
Q25.3906 6.20312 27.9219 7.125
Q30.4688 8.0625 32.3281 9.9375
Q34.1875 11.8125 35.2344 14.6719
Q36.2812 17.5312 36.2812 21.3906
L36.2812 26.2188
L29.2969 25.875
Q24.9062 25.6875 21.9219 24.9062
Q18.9531 24.125 17.1562 22.7344
Q15.375 21.3438 14.5938 19.3594
Q13.8125 17.3906 13.8125 14.8906
Q13.8125 10.4062 16.1875 8.29688
Q18.5625 6.20312 22.4062 6.20312" id="WenQuanYiMicroHei-61"/>
      <path d="
M32.7188 -0.984375
Q29.8281 -0.984375 27.4844 -0.34375
Q25.1406 0.296875 23.2656 1.34375
Q21.3906 2.39062 19.9375 3.79688
Q18.5 5.21875 17.3906 6.78125
L16.7969 6.78125
Q16.9375 5.125 17.0938 3.60938
Q17.1875 2.34375 17.2812 1
Q17.3906 -0.34375 17.3906 -1.125
L17.3906 -24.0312
L8.5 -24.0312
L8.5 53.6094
L15.7188 53.6094
L17 46.3906
L17.3906 46.3906
Q18.5 48.0938 19.9219 49.5781
Q21.3438 51.0781 23.2188 52.1719
Q25.0938 53.2656 27.4375 53.9219
Q29.7812 54.5938 32.7188 54.5938
Q37.3125 54.5938 41.0625 52.8281
Q44.8281 51.0781 47.4844 47.5781
Q50.1406 44.0938 51.6094 38.9062
Q53.0781 33.7344 53.0781 26.9062
Q53.0781 20.0156 51.6094 14.8125
Q50.1406 9.625 47.4844 6.10938
Q44.8281 2.59375 41.0625 0.796875
Q37.3125 -0.984375 32.7188 -0.984375
M31 47.2188
Q27.2969 47.2188 24.7344 46.0938
Q22.1719 44.9688 20.5781 42.6719
Q19 40.375 18.2344 36.9531
Q17.4844 33.5469 17.3906 28.9062
L17.3906 26.9062
Q17.3906 21.9688 18.0469 18.1406
Q18.7031 14.3125 20.2812 11.6875
Q21.875 9.07812 24.5156 7.73438
Q27.1562 6.39062 31.1094 6.39062
Q37.7031 6.39062 40.7969 11.7188
Q43.8906 17.0469 43.8906 27
Q43.8906 37.1562 40.7969 42.1875
Q37.7031 47.2188 31 47.2188" id="WenQuanYiMicroHei-70"/>
     </defs>
     <g transform="translate(331.60463625 28.7905790625)scale(0.09996 -0.09996)">
      <use xlink:href="#WenQuanYiMicroHei-64"/>
      <use x="58.59375" xlink:href="#WenQuanYiMicroHei-61"/>
      <use x="111.669921875" xlink:href="#WenQuanYiMicroHei-6d"/>
      <use x="201.26953125" xlink:href="#WenQuanYiMicroHei-70"/>
      <use x="259.86328125" xlink:href="#WenQuanYiMicroHei-3d"/>
      <use x="314.94140625" xlink:href="#WenQuanYiMicroHei-33"/>
      <use x="370.01953125" xlink:href="#WenQuanYiMicroHei-2e"/>
      <use x="396.826171875" xlink:href="#WenQuanYiMicroHei-35"/>
     </g>
    </g>
    <g id="line2d_31">
     <path d="
M306.615 40.2875
L320.609 40.2875" style="fill:none;stroke:#a60628;stroke-linecap:square;stroke-width:2.0;"/>
    </g>
    <g id="line2d_32"/>
    <g id="text_17">
     <!-- damp=3.0 -->
     <g transform="translate(331.60463625 43.7861409375)scale(0.09996 -0.09996)">
      <use xlink:href="#WenQuanYiMicroHei-64"/>
      <use x="58.59375" xlink:href="#WenQuanYiMicroHei-61"/>
      <use x="111.669921875" xlink:href="#WenQuanYiMicroHei-6d"/>
      <use x="201.26953125" xlink:href="#WenQuanYiMicroHei-70"/>
      <use x="259.86328125" xlink:href="#WenQuanYiMicroHei-3d"/>
      <use x="314.94140625" xlink:href="#WenQuanYiMicroHei-33"/>
      <use x="370.01953125" xlink:href="#WenQuanYiMicroHei-2e"/>
      <use x="396.826171875" xlink:href="#WenQuanYiMicroHei-30"/>
     </g>
    </g>
   </g>
  </g>
 </g>
 <defs>
  <clipPath id="pdfd2c4db3d">
   <rect height="172.8" width="334.8" x="49.953680625" y="12.1987809375"/>
  </clipPath>
 </defs>
</svg>
