<?xml version="1.0" encoding="UTF-8" standalone="no"?>
<!DOCTYPE svg PUBLIC "-//W3C//DTD SVG 1.1//EN"
 "http://www.w3.org/Graphics/SVG/1.1/DTD/svg11.dtd">
<!-- Generated by graphviz version 2.38.0 (20140413.2041)
 -->
<!-- Title: structs Pages: 1 -->
<svg width="826pt" height="926pt"
 viewBox="0.00 0.00 826.00 926.00" xmlns="http://www.w3.org/2000/svg" xmlns:xlink="http://www.w3.org/1999/xlink">
<g id="graph0" class="graph" transform="scale(1 1) rotate(0) translate(4 922)">
<title>structs</title>
<polygon fill="white" stroke="none" points="-4,4 -4,-922 822,-922 822,4 -4,4"/>
<!-- obj_167313968 -->
<g id="node1" class="node"><title>obj_167313968</title>
<polygon fill="white" stroke="black" points="0,-436.5 0,-472.5 54,-472.5 54,-436.5 0,-436.5"/>
<text text-anchor="middle" x="27" y="-450.8" font-family="Times New Roman,serif" font-size="14.00">Figure</text>
</g>
<!-- obj_167314352 -->
<g id="node2" class="node"><title>obj_167314352</title>
<polygon fill="white" stroke="black" points="113,-460.5 113,-496.5 184,-496.5 184,-460.5 113,-460.5"/>
<text text-anchor="middle" x="148.5" y="-474.8" font-family="Times New Roman,serif" font-size="14.00">Rectangle</text>
</g>
<!-- obj_167313968&#45;&gt;obj_167314352 -->
<g id="edge1" class="edge"><title>obj_167313968&#45;&gt;obj_167314352</title>
<path fill="none" stroke="black" stroke-width="0.5" d="M54.2248,-459.767C68.4488,-462.624 86.4206,-466.233 102.784,-469.519"/>
<polygon fill="black" stroke="black" stroke-width="0.5" points="102.223,-472.976 112.716,-471.514 103.601,-466.114 102.223,-472.976"/>
<text text-anchor="middle" x="83.5" y="-471.5" font-family="Times New Roman,serif" font-size="10.00">patch</text>
</g>
<!-- obj_165185136 -->
<g id="node3" class="node"><title>obj_165185136</title>
<polygon fill="gray" stroke="black" points="121.5,-395.5 121.5,-441.5 175.5,-441.5 175.5,-395.5 121.5,-395.5"/>
<text text-anchor="middle" x="148.5" y="-426.3" font-family="Times New Roman,serif" font-size="14.00">*</text>
<polyline fill="none" stroke="black" points="121.5,-418.5 175.5,-418.5 "/>
<text text-anchor="middle" x="148.5" y="-403.3" font-family="Times New Roman,serif" font-size="14.00">*</text>
</g>
<!-- obj_167313968&#45;&gt;obj_165185136 -->
<g id="edge47" class="edge"><title>obj_167313968&#45;&gt;obj_165185136</title>
<path fill="none" stroke="black" stroke-width="0.5" stroke-dasharray="5,2" d="M54.2248,-446.6C71.036,-441.535 93.0823,-434.894 111.52,-429.339"/>
<polygon fill="black" stroke="black" stroke-width="0.5" points="112.771,-432.618 121.336,-426.382 110.752,-425.915 112.771,-432.618"/>
<text text-anchor="middle" x="83.5" y="-444.5" font-family="Times New Roman,serif" font-size="10.00">axes</text>
</g>
<!-- obj_167313904 -->
<g id="node4" class="node"><title>obj_167313904</title>
<polygon fill="white" stroke="black" points="221,-602.5 221,-638.5 310,-638.5 310,-602.5 221,-602.5"/>
<text text-anchor="middle" x="265.5" y="-616.8" font-family="Times New Roman,serif" font-size="14.00">AxesSubplot</text>
</g>
<!-- obj_165185136&#45;&gt;obj_167313904 -->
<g id="edge38" class="edge"><title>obj_165185136:f0&#45;&gt;obj_167313904</title>
<path fill="none" stroke="black" stroke-width="0.5" d="M176.5,-430.5C246.899,-430.5 261.146,-539.229 263.91,-592.185"/>
<polygon fill="black" stroke="black" stroke-width="0.5" points="260.418,-592.437 264.333,-602.282 267.412,-592.144 260.418,-592.437"/>
</g>
<!-- obj_165396080 -->
<g id="node36" class="node"><title>obj_165396080</title>
<polygon fill="white" stroke="black" points="221,-130.5 221,-166.5 310,-166.5 310,-130.5 221,-130.5"/>
<text text-anchor="middle" x="265.5" y="-144.8" font-family="Times New Roman,serif" font-size="14.00">AxesSubplot</text>
</g>
<!-- obj_165185136&#45;&gt;obj_165396080 -->
<g id="edge46" class="edge"><title>obj_165185136:f1&#45;&gt;obj_165396080</title>
<path fill="none" stroke="black" stroke-width="0.5" d="M176.5,-406.5C224.58,-406.5 251.774,-243.968 260.948,-176.909"/>
<polygon fill="black" stroke="black" stroke-width="0.5" points="264.465,-177.016 262.314,-166.642 257.526,-176.094 264.465,-177.016"/>
</g>
<!-- obj_167313904&#45;&gt;obj_167313904 -->
<g id="edge3" class="edge"><title>obj_167313904&#45;&gt;obj_167313904</title>
<path fill="none" stroke="black" stroke-width="0.5" d="M254.355,-638.529C252.461,-648.194 256.176,-657 265.5,-657 271.328,-657 274.964,-653.56 276.41,-648.621"/>
<polygon fill="black" stroke="black" stroke-width="0.5" points="279.911,-648.608 276.645,-638.529 272.913,-648.444 279.911,-648.608"/>
<text text-anchor="middle" x="265.5" y="-660" font-family="Times New Roman,serif" font-size="10.00">axes</text>
</g>
<!-- obj_167419344 -->
<g id="node5" class="node"><title>obj_167419344</title>
<polygon fill="white" stroke="black" points="378,-866.5 378,-902.5 449,-902.5 449,-866.5 378,-866.5"/>
<text text-anchor="middle" x="413.5" y="-880.8" font-family="Times New Roman,serif" font-size="14.00">Rectangle</text>
</g>
<!-- obj_167313904&#45;&gt;obj_167419344 -->
<g id="edge2" class="edge"><title>obj_167313904&#45;&gt;obj_167419344</title>
<path fill="none" stroke="black" stroke-width="0.5" d="M271.891,-638.617C284.945,-680.348 321.405,-785.134 378,-856.5 378.695,-857.376 379.422,-858.243 380.175,-859.099"/>
<polygon fill="black" stroke="black" stroke-width="0.5" points="377.962,-861.837 387.499,-866.452 382.922,-856.897 377.962,-861.837"/>
<text text-anchor="middle" x="344" y="-830.5" font-family="Times New Roman,serif" font-size="10.00">patch</text>
</g>
<!-- obj_159507360 -->
<g id="node6" class="node"><title>obj_159507360</title>
<polygon fill="gray" stroke="black" points="386.5,-778 386.5,-847 440.5,-847 440.5,-778 386.5,-778"/>
<text text-anchor="middle" x="413.5" y="-831.8" font-family="Times New Roman,serif" font-size="14.00">*</text>
<polyline fill="none" stroke="black" points="386.5,-824 440.5,-824 "/>
<text text-anchor="middle" x="413.5" y="-808.8" font-family="Times New Roman,serif" font-size="14.00">*</text>
<polyline fill="none" stroke="black" points="386.5,-801 440.5,-801 "/>
<text text-anchor="middle" x="413.5" y="-785.8" font-family="Times New Roman,serif" font-size="14.00">*</text>
</g>
<!-- obj_167313904&#45;&gt;obj_159507360 -->
<g id="edge7" class="edge"><title>obj_167313904&#45;&gt;obj_159507360</title>
<path fill="none" stroke="black" stroke-width="0.5" d="M280.235,-638.563C302.948,-668.431 348.925,-728.895 380.221,-770.051"/>
<polygon fill="black" stroke="black" stroke-width="0.5" points="377.629,-772.424 386.468,-778.266 383.201,-768.187 377.629,-772.424"/>
<text text-anchor="middle" x="344" y="-741.5" font-family="Times New Roman,serif" font-size="10.00">patches</text>
</g>
<!-- obj_167316464 -->
<g id="node10" class="node"><title>obj_167316464</title>
<polygon fill="white" stroke="black" points="386.5,-649.5 386.5,-685.5 440.5,-685.5 440.5,-649.5 386.5,-649.5"/>
<text text-anchor="middle" x="413.5" y="-663.8" font-family="Times New Roman,serif" font-size="14.00">XAxis</text>
</g>
<!-- obj_167313904&#45;&gt;obj_167316464 -->
<g id="edge22" class="edge"><title>obj_167313904&#45;&gt;obj_167316464</title>
<path fill="none" stroke="black" stroke-width="0.5" d="M284.959,-638.681C296.351,-648.624 311.841,-660.007 328,-665.5 343.239,-670.68 360.932,-671.789 376.179,-671.363"/>
<polygon fill="black" stroke="black" stroke-width="0.5" points="376.471,-674.853 386.283,-670.855 376.12,-667.862 376.471,-674.853"/>
<text text-anchor="middle" x="344" y="-674.5" font-family="Times New Roman,serif" font-size="10.00">xaxis</text>
</g>
<!-- obj_167311536 -->
<g id="node23" class="node"><title>obj_167311536</title>
<polygon fill="white" stroke="black" points="386.5,-480.5 386.5,-516.5 440.5,-516.5 440.5,-480.5 386.5,-480.5"/>
<text text-anchor="middle" x="413.5" y="-494.8" font-family="Times New Roman,serif" font-size="14.00">YAxis</text>
</g>
<!-- obj_167313904&#45;&gt;obj_167311536 -->
<g id="edge37" class="edge"><title>obj_167313904&#45;&gt;obj_167311536</title>
<path fill="none" stroke="black" stroke-width="0.5" d="M296.863,-602.29C315.824,-590.308 340.291,-573.706 360,-556.5 371.17,-546.749 382.361,-534.766 391.523,-524.229"/>
<polygon fill="black" stroke="black" stroke-width="0.5" points="394.277,-526.395 398.101,-516.514 388.95,-521.853 394.277,-526.395"/>
<text text-anchor="middle" x="344" y="-584.5" font-family="Times New Roman,serif" font-size="10.00">yaxis</text>
</g>
<!-- obj_165396304 -->
<g id="node7" class="node"><title>obj_165396304</title>
<polygon fill="white" stroke="black" points="529,-881.5 529,-917.5 600,-917.5 600,-881.5 529,-881.5"/>
<text text-anchor="middle" x="564.5" y="-895.8" font-family="Times New Roman,serif" font-size="14.00">Rectangle</text>
</g>
<!-- obj_159507360&#45;&gt;obj_165396304 -->
<g id="edge4" class="edge"><title>obj_159507360:f0&#45;&gt;obj_165396304</title>
<path fill="none" stroke="black" stroke-width="0.5" d="M441.5,-835.5C459.491,-835.5 498.467,-857.601 527.552,-875.828"/>
<polygon fill="black" stroke="black" stroke-width="0.5" points="525.908,-878.93 536.227,-881.331 529.658,-873.019 525.908,-878.93"/>
</g>
<!-- obj_167318224 -->
<g id="node8" class="node"><title>obj_167318224</title>
<polygon fill="white" stroke="black" points="529,-826.5 529,-862.5 600,-862.5 600,-826.5 529,-826.5"/>
<text text-anchor="middle" x="564.5" y="-840.8" font-family="Times New Roman,serif" font-size="14.00">Rectangle</text>
</g>
<!-- obj_159507360&#45;&gt;obj_167318224 -->
<g id="edge5" class="edge"><title>obj_159507360:f1&#45;&gt;obj_167318224</title>
<path fill="none" stroke="black" stroke-width="0.5" d="M441.5,-812.5C467.823,-812.5 496.325,-819.556 519.157,-827.041"/>
<polygon fill="black" stroke="black" stroke-width="0.5" points="518.3,-830.447 528.894,-830.371 520.565,-823.824 518.3,-830.447"/>
</g>
<!-- obj_167319088 -->
<g id="node9" class="node"><title>obj_167319088</title>
<polygon fill="white" stroke="black" points="529,-771.5 529,-807.5 600,-807.5 600,-771.5 529,-771.5"/>
<text text-anchor="middle" x="564.5" y="-785.8" font-family="Times New Roman,serif" font-size="14.00">Rectangle</text>
</g>
<!-- obj_159507360&#45;&gt;obj_167319088 -->
<g id="edge6" class="edge"><title>obj_159507360:f2&#45;&gt;obj_167319088</title>
<path fill="none" stroke="black" stroke-width="0.5" d="M441.5,-789.5C467.031,-789.5 495.567,-789.5 518.618,-789.5"/>
<polygon fill="black" stroke="black" stroke-width="0.5" points="518.793,-793 528.793,-789.5 518.793,-786 518.793,-793"/>
</g>
<!-- obj_167316464&#45;&gt;obj_167313904 -->
<g id="edge8" class="edge"><title>obj_167316464&#45;&gt;obj_167313904</title>
<path fill="none" stroke="black" stroke-width="0.5" d="M386.127,-659.01C367.75,-653.094 342.593,-644.996 320.09,-637.752"/>
<polygon fill="black" stroke="black" stroke-width="0.5" points="320.896,-634.334 310.305,-634.602 318.751,-640.998 320.896,-634.334"/>
<text text-anchor="middle" x="344" y="-653.5" font-family="Times New Roman,serif" font-size="10.00">axes</text>
</g>
<!-- obj_159371056 -->
<g id="node11" class="node"><title>obj_159371056</title>
<polygon fill="gray" stroke="black" points="537.5,-553 537.5,-714 591.5,-714 591.5,-553 537.5,-553"/>
<text text-anchor="middle" x="564.5" y="-698.8" font-family="Times New Roman,serif" font-size="14.00">*</text>
<polyline fill="none" stroke="black" points="537.5,-691 591.5,-691 "/>
<text text-anchor="middle" x="564.5" y="-675.8" font-family="Times New Roman,serif" font-size="14.00">*</text>
<polyline fill="none" stroke="black" points="537.5,-668 591.5,-668 "/>
<text text-anchor="middle" x="564.5" y="-652.8" font-family="Times New Roman,serif" font-size="14.00">*</text>
<polyline fill="none" stroke="black" points="537.5,-645 591.5,-645 "/>
<text text-anchor="middle" x="564.5" y="-629.8" font-family="Times New Roman,serif" font-size="14.00">*</text>
<polyline fill="none" stroke="black" points="537.5,-622 591.5,-622 "/>
<text text-anchor="middle" x="564.5" y="-606.8" font-family="Times New Roman,serif" font-size="14.00">*</text>
<polyline fill="none" stroke="black" points="537.5,-599 591.5,-599 "/>
<text text-anchor="middle" x="564.5" y="-583.8" font-family="Times New Roman,serif" font-size="14.00">*</text>
<polyline fill="none" stroke="black" points="537.5,-576 591.5,-576 "/>
<text text-anchor="middle" x="564.5" y="-560.8" font-family="Times New Roman,serif" font-size="14.00">*</text>
</g>
<!-- obj_167316464&#45;&gt;obj_159371056 -->
<g id="edge20" class="edge"><title>obj_167316464&#45;&gt;obj_159371056</title>
<path fill="none" stroke="black" stroke-width="0.5" d="M440.795,-661.5C464.946,-655.989 500.939,-647.776 527.705,-641.668"/>
<polygon fill="black" stroke="black" stroke-width="0.5" points="528.497,-645.077 537.468,-639.44 526.94,-638.253 528.497,-645.077"/>
<text text-anchor="middle" x="489" y="-658.5" font-family="Times New Roman,serif" font-size="10.00">majorTicks</text>
</g>
<!-- obj_167316528 -->
<g id="node22" class="node"><title>obj_167316528</title>
<polygon fill="white" stroke="black" points="537.5,-497.5 537.5,-533.5 591.5,-533.5 591.5,-497.5 537.5,-497.5"/>
<text text-anchor="middle" x="564.5" y="-511.8" font-family="Times New Roman,serif" font-size="14.00">Text</text>
</g>
<!-- obj_167316464&#45;&gt;obj_167316528 -->
<g id="edge21" class="edge"><title>obj_167316464&#45;&gt;obj_167316528</title>
<path fill="none" stroke="black" stroke-width="0.5" d="M424.809,-649.492C434.528,-633.347 450.092,-609.501 467,-591.5 485.568,-571.731 509.504,-552.847 528.891,-538.848"/>
<polygon fill="black" stroke="black" stroke-width="0.5" points="531.043,-541.613 537.168,-532.967 526.989,-535.907 531.043,-541.613"/>
<text text-anchor="middle" x="489" y="-594.5" font-family="Times New Roman,serif" font-size="10.00">label</text>
</g>
<!-- obj_167310928 -->
<g id="node12" class="node"><title>obj_167310928</title>
<polygon fill="white" stroke="black" points="637,-787.5 637,-823.5 691,-823.5 691,-787.5 637,-787.5"/>
<text text-anchor="middle" x="664" y="-801.8" font-family="Times New Roman,serif" font-size="14.00">XTick</text>
</g>
<!-- obj_159371056&#45;&gt;obj_167310928 -->
<g id="edge13" class="edge"><title>obj_159371056:f0&#45;&gt;obj_167310928</title>
<path fill="none" stroke="black" stroke-width="0.5" d="M592.5,-702.5C631.642,-702.5 616.005,-745.465 637,-778.5 637.183,-778.788 637.37,-779.076 637.56,-779.364"/>
<polygon fill="black" stroke="black" stroke-width="0.5" points="634.899,-781.645 643.767,-787.442 640.45,-777.38 634.899,-781.645"/>
</g>
<!-- obj_167310544 -->
<g id="node16" class="node"><title>obj_167310544</title>
<polygon fill="white" stroke="black" points="637,-732.5 637,-768.5 691,-768.5 691,-732.5 637,-732.5"/>
<text text-anchor="middle" x="664" y="-746.8" font-family="Times New Roman,serif" font-size="14.00">XTick</text>
</g>
<!-- obj_159371056&#45;&gt;obj_167310544 -->
<g id="edge14" class="edge"><title>obj_159371056:f1&#45;&gt;obj_167310544</title>
<path fill="none" stroke="black" stroke-width="0.5" d="M592.5,-679.5C595.792,-679.5 619.917,-704.408 639.042,-724.718"/>
<polygon fill="black" stroke="black" stroke-width="0.5" points="636.679,-727.315 646.073,-732.216 641.785,-722.527 636.679,-727.315"/>
</g>
<!-- obj_164378000 -->
<g id="node17" class="node"><title>obj_164378000</title>
<polygon fill="white" stroke="black" points="637,-677.5 637,-713.5 691,-713.5 691,-677.5 637,-677.5"/>
<text text-anchor="middle" x="664" y="-691.8" font-family="Times New Roman,serif" font-size="14.00">XTick</text>
</g>
<!-- obj_159371056&#45;&gt;obj_164378000 -->
<g id="edge15" class="edge"><title>obj_159371056:f2&#45;&gt;obj_164378000</title>
<path fill="none" stroke="black" stroke-width="0.5" d="M592.5,-656.5C607.583,-656.5 622.467,-663.419 634.644,-671.429"/>
<polygon fill="black" stroke="black" stroke-width="0.5" points="632.82,-674.426 642.997,-677.37 636.877,-668.722 632.82,-674.426"/>
</g>
<!-- obj_165301456 -->
<g id="node18" class="node"><title>obj_165301456</title>
<polygon fill="white" stroke="black" points="637,-622.5 637,-658.5 691,-658.5 691,-622.5 637,-622.5"/>
<text text-anchor="middle" x="664" y="-636.8" font-family="Times New Roman,serif" font-size="14.00">XTick</text>
</g>
<!-- obj_159371056&#45;&gt;obj_165301456 -->
<g id="edge16" class="edge"><title>obj_159371056:f3&#45;&gt;obj_165301456</title>
<path fill="none" stroke="black" stroke-width="0.5" d="M592.5,-633.5C603.685,-633.5 615.82,-634.383 626.818,-635.522"/>
<polygon fill="black" stroke="black" stroke-width="0.5" points="626.615,-639.022 636.946,-636.672 627.405,-632.066 626.615,-639.022"/>
</g>
<!-- obj_165436304 -->
<g id="node19" class="node"><title>obj_165436304</title>
<polygon fill="white" stroke="black" points="637,-567.5 637,-603.5 691,-603.5 691,-567.5 637,-567.5"/>
<text text-anchor="middle" x="664" y="-581.8" font-family="Times New Roman,serif" font-size="14.00">XTick</text>
</g>
<!-- obj_159371056&#45;&gt;obj_165436304 -->
<g id="edge17" class="edge"><title>obj_159371056:f4&#45;&gt;obj_165436304</title>
<path fill="none" stroke="black" stroke-width="0.5" d="M592.5,-610.5C604.352,-610.5 616.714,-607.323 627.715,-603.233"/>
<polygon fill="black" stroke="black" stroke-width="0.5" points="629.042,-606.472 636.986,-599.462 626.405,-599.988 629.042,-606.472"/>
</g>
<!-- obj_167417744 -->
<g id="node20" class="node"><title>obj_167417744</title>
<polygon fill="white" stroke="black" points="637,-512.5 637,-548.5 691,-548.5 691,-512.5 637,-512.5"/>
<text text-anchor="middle" x="664" y="-526.8" font-family="Times New Roman,serif" font-size="14.00">XTick</text>
</g>
<!-- obj_159371056&#45;&gt;obj_167417744 -->
<g id="edge18" class="edge"><title>obj_159371056:f5&#45;&gt;obj_167417744</title>
<path fill="none" stroke="black" stroke-width="0.5" d="M592.5,-587.5C603.321,-587.5 622.856,-571.056 638.623,-555.833"/>
<polygon fill="black" stroke="black" stroke-width="0.5" points="641.354,-558.054 646.005,-548.535 636.433,-553.076 641.354,-558.054"/>
</g>
<!-- obj_167380560 -->
<g id="node21" class="node"><title>obj_167380560</title>
<polygon fill="white" stroke="black" points="637,-457.5 637,-493.5 691,-493.5 691,-457.5 637,-457.5"/>
<text text-anchor="middle" x="664" y="-471.8" font-family="Times New Roman,serif" font-size="14.00">XTick</text>
</g>
<!-- obj_159371056&#45;&gt;obj_167380560 -->
<g id="edge19" class="edge"><title>obj_159371056:f6&#45;&gt;obj_167380560</title>
<path fill="none" stroke="black" stroke-width="0.5" d="M592.5,-564.5C626.419,-564.5 615.291,-528.561 637,-502.5 637.302,-502.137 637.608,-501.774 637.917,-501.409"/>
<polygon fill="black" stroke="black" stroke-width="0.5" points="640.69,-503.558 644.734,-493.766 635.466,-498.899 640.69,-503.558"/>
</g>
<!-- obj_167310928&#45;&gt;obj_167313904 -->
<g id="edge9" class="edge"><title>obj_167310928&#45;&gt;obj_167313904</title>
<path fill="none" stroke="black" stroke-width="0.5" d="M637.622,-787.356C626.278,-779.46 612.639,-770.26 600,-762.5 569.318,-743.663 550.236,-752.573 529,-723.5 504.425,-689.855 542.562,-658.698 511,-631.5 458.88,-586.586 374.877,-594.088 320.174,-605.668"/>
<polygon fill="black" stroke="black" stroke-width="0.5" points="319.314,-602.274 310.315,-607.866 320.837,-609.106 319.314,-602.274"/>
<text text-anchor="middle" x="489" y="-634.5" font-family="Times New Roman,serif" font-size="10.00">axes</text>
</g>
<!-- obj_167381616 -->
<g id="node13" class="node"><title>obj_167381616</title>
<polygon fill="white" stroke="black" points="762.5,-842.5 762.5,-878.5 816.5,-878.5 816.5,-842.5 762.5,-842.5"/>
<text text-anchor="middle" x="789.5" y="-856.8" font-family="Times New Roman,serif" font-size="14.00">Text</text>
</g>
<!-- obj_167310928&#45;&gt;obj_167381616 -->
<g id="edge10" class="edge"><title>obj_167310928&#45;&gt;obj_167381616</title>
<path fill="none" stroke="black" stroke-width="0.5" d="M691.191,-817.164C709.202,-825.185 733.336,-835.933 753.063,-844.718"/>
<polygon fill="black" stroke="black" stroke-width="0.5" points="751.788,-847.982 762.347,-848.853 754.635,-841.587 751.788,-847.982"/>
<text text-anchor="middle" x="726" y="-842.5" font-family="Times New Roman,serif" font-size="10.00">label</text>
</g>
<!-- obj_167382192 -->
<g id="node14" class="node"><title>obj_167382192</title>
<polygon fill="white" stroke="black" points="761,-787.5 761,-823.5 818,-823.5 818,-787.5 761,-787.5"/>
<text text-anchor="middle" x="789.5" y="-801.8" font-family="Times New Roman,serif" font-size="14.00">Line2D</text>
</g>
<!-- obj_167310928&#45;&gt;obj_167382192 -->
<g id="edge11" class="edge"><title>obj_167310928&#45;&gt;obj_167382192</title>
<path fill="none" stroke="black" stroke-width="0.5" d="M691.191,-805.5C708.397,-805.5 731.19,-805.5 750.391,-805.5"/>
<polygon fill="black" stroke="black" stroke-width="0.5" points="750.63,-809 760.63,-805.5 750.63,-802 750.63,-809"/>
<text text-anchor="middle" x="726" y="-808.5" font-family="Times New Roman,serif" font-size="10.00">tick1line</text>
</g>
<!-- obj_167310384 -->
<g id="node15" class="node"><title>obj_167310384</title>
<polygon fill="white" stroke="black" points="761,-732.5 761,-768.5 818,-768.5 818,-732.5 761,-732.5"/>
<text text-anchor="middle" x="789.5" y="-746.8" font-family="Times New Roman,serif" font-size="14.00">Line2D</text>
</g>
<!-- obj_167310928&#45;&gt;obj_167310384 -->
<g id="edge12" class="edge"><title>obj_167310928&#45;&gt;obj_167310384</title>
<path fill="none" stroke="black" stroke-width="0.5" d="M691.191,-793.836C708.715,-786.032 732.036,-775.646 751.454,-766.998"/>
<polygon fill="black" stroke="black" stroke-width="0.5" points="752.919,-770.177 760.63,-762.912 750.071,-763.783 752.919,-770.177"/>
<text text-anchor="middle" x="726" y="-787.5" font-family="Times New Roman,serif" font-size="10.00">tick2line</text>
</g>
<!-- obj_167311536&#45;&gt;obj_167313904 -->
<g id="edge23" class="edge"><title>obj_167311536&#45;&gt;obj_167313904</title>
<path fill="none" stroke="black" stroke-width="0.5" d="M386.141,-509.97C368.611,-518.335 345.652,-530.759 328,-545.5 311.362,-559.395 295.905,-578.281 284.649,-593.625"/>
<polygon fill="black" stroke="black" stroke-width="0.5" points="281.498,-592.014 278.53,-602.185 287.193,-596.085 281.498,-592.014"/>
<text text-anchor="middle" x="344" y="-548.5" font-family="Times New Roman,serif" font-size="10.00">axes</text>
</g>
<!-- obj_160554760 -->
<g id="node24" class="node"><title>obj_160554760</title>
<polygon fill="gray" stroke="black" points="537.5,-223 537.5,-384 591.5,-384 591.5,-223 537.5,-223"/>
<text text-anchor="middle" x="564.5" y="-368.8" font-family="Times New Roman,serif" font-size="14.00">*</text>
<polyline fill="none" stroke="black" points="537.5,-361 591.5,-361 "/>
<text text-anchor="middle" x="564.5" y="-345.8" font-family="Times New Roman,serif" font-size="14.00">*</text>
<polyline fill="none" stroke="black" points="537.5,-338 591.5,-338 "/>
<text text-anchor="middle" x="564.5" y="-322.8" font-family="Times New Roman,serif" font-size="14.00">*</text>
<polyline fill="none" stroke="black" points="537.5,-315 591.5,-315 "/>
<text text-anchor="middle" x="564.5" y="-299.8" font-family="Times New Roman,serif" font-size="14.00">*</text>
<polyline fill="none" stroke="black" points="537.5,-292 591.5,-292 "/>
<text text-anchor="middle" x="564.5" y="-276.8" font-family="Times New Roman,serif" font-size="14.00">*</text>
<polyline fill="none" stroke="black" points="537.5,-269 591.5,-269 "/>
<text text-anchor="middle" x="564.5" y="-253.8" font-family="Times New Roman,serif" font-size="14.00">*</text>
<polyline fill="none" stroke="black" points="537.5,-246 591.5,-246 "/>
<text text-anchor="middle" x="564.5" y="-230.8" font-family="Times New Roman,serif" font-size="14.00">*</text>
</g>
<!-- obj_167311536&#45;&gt;obj_160554760 -->
<g id="edge35" class="edge"><title>obj_167311536&#45;&gt;obj_160554760</title>
<path fill="none" stroke="black" stroke-width="0.5" d="M440.872,-494.124C462.476,-489.226 492.412,-479.227 511,-459.5 528.052,-441.404 539.577,-417.587 547.363,-394.029"/>
<polygon fill="black" stroke="black" stroke-width="0.5" points="550.754,-394.91 550.373,-384.322 544.068,-392.837 550.754,-394.91"/>
<text text-anchor="middle" x="489" y="-489.5" font-family="Times New Roman,serif" font-size="10.00">majorTicks</text>
</g>
<!-- obj_167311664 -->
<g id="node35" class="node"><title>obj_167311664</title>
<polygon fill="white" stroke="black" points="537.5,-167.5 537.5,-203.5 591.5,-203.5 591.5,-167.5 537.5,-167.5"/>
<text text-anchor="middle" x="564.5" y="-181.8" font-family="Times New Roman,serif" font-size="14.00">Text</text>
</g>
<!-- obj_167311536&#45;&gt;obj_167311664 -->
<g id="edge36" class="edge"><title>obj_167311536&#45;&gt;obj_167311664</title>
<path fill="none" stroke="black" stroke-width="0.5" d="M418.435,-480.248C429.388,-432.575 463.796,-301.899 529,-213.5 529.561,-212.74 530.147,-211.988 530.755,-211.245"/>
<polygon fill="black" stroke="black" stroke-width="0.5" points="533.573,-213.361 537.926,-203.701 528.499,-208.538 533.573,-213.361"/>
<text text-anchor="middle" x="489" y="-327.5" font-family="Times New Roman,serif" font-size="10.00">label</text>
</g>
<!-- obj_167379440 -->
<g id="node25" class="node"><title>obj_167379440</title>
<polygon fill="white" stroke="black" points="637,-402.5 637,-438.5 691,-438.5 691,-402.5 637,-402.5"/>
<text text-anchor="middle" x="664" y="-416.8" font-family="Times New Roman,serif" font-size="14.00">YTick</text>
</g>
<!-- obj_160554760&#45;&gt;obj_167379440 -->
<g id="edge28" class="edge"><title>obj_160554760:f0&#45;&gt;obj_167379440</title>
<path fill="none" stroke="black" stroke-width="0.5" d="M592.5,-372.5C601.808,-372.5 618.976,-384.076 634.04,-395.858"/>
<polygon fill="black" stroke="black" stroke-width="0.5" points="632.14,-398.821 642.128,-402.353 636.522,-393.363 632.14,-398.821"/>
</g>
<!-- obj_167382992 -->
<g id="node29" class="node"><title>obj_167382992</title>
<polygon fill="white" stroke="black" points="637,-347.5 637,-383.5 691,-383.5 691,-347.5 637,-347.5"/>
<text text-anchor="middle" x="664" y="-361.8" font-family="Times New Roman,serif" font-size="14.00">YTick</text>
</g>
<!-- obj_160554760&#45;&gt;obj_167382992 -->
<g id="edge29" class="edge"><title>obj_160554760:f1&#45;&gt;obj_167382992</title>
<path fill="none" stroke="black" stroke-width="0.5" d="M592.5,-349.5C603.935,-349.5 616.16,-351.527 627.165,-354.137"/>
<polygon fill="black" stroke="black" stroke-width="0.5" points="626.312,-357.532 636.871,-356.658 628.071,-350.756 626.312,-357.532"/>
</g>
<!-- obj_160843088 -->
<g id="node30" class="node"><title>obj_160843088</title>
<polygon fill="white" stroke="black" points="637,-292.5 637,-328.5 691,-328.5 691,-292.5 637,-292.5"/>
<text text-anchor="middle" x="664" y="-306.8" font-family="Times New Roman,serif" font-size="14.00">YTick</text>
</g>
<!-- obj_160554760&#45;&gt;obj_160843088 -->
<g id="edge30" class="edge"><title>obj_160554760:f2&#45;&gt;obj_160843088</title>
<path fill="none" stroke="black" stroke-width="0.5" d="M592.5,-326.5C603.935,-326.5 616.16,-324.473 627.165,-321.863"/>
<polygon fill="black" stroke="black" stroke-width="0.5" points="628.071,-325.244 636.871,-319.342 626.312,-318.468 628.071,-325.244"/>
</g>
<!-- obj_165299760 -->
<g id="node31" class="node"><title>obj_165299760</title>
<polygon fill="white" stroke="black" points="637,-237.5 637,-273.5 691,-273.5 691,-237.5 637,-237.5"/>
<text text-anchor="middle" x="664" y="-251.8" font-family="Times New Roman,serif" font-size="14.00">YTick</text>
</g>
<!-- obj_160554760&#45;&gt;obj_165299760 -->
<g id="edge31" class="edge"><title>obj_160554760:f3&#45;&gt;obj_165299760</title>
<path fill="none" stroke="black" stroke-width="0.5" d="M592.5,-303.5C601.808,-303.5 618.976,-291.924 634.04,-280.142"/>
<polygon fill="black" stroke="black" stroke-width="0.5" points="636.522,-282.637 642.128,-273.647 632.14,-277.179 636.522,-282.637"/>
</g>
<!-- obj_165093456 -->
<g id="node32" class="node"><title>obj_165093456</title>
<polygon fill="white" stroke="black" points="637,-182.5 637,-218.5 691,-218.5 691,-182.5 637,-182.5"/>
<text text-anchor="middle" x="664" y="-196.8" font-family="Times New Roman,serif" font-size="14.00">YTick</text>
</g>
<!-- obj_160554760&#45;&gt;obj_165093456 -->
<g id="edge32" class="edge"><title>obj_160554760:f4&#45;&gt;obj_165093456</title>
<path fill="none" stroke="black" stroke-width="0.5" d="M592.5,-280.5C623.258,-280.5 616.432,-250.369 637,-227.5 637.408,-227.046 637.821,-226.59 638.238,-226.131"/>
<polygon fill="black" stroke="black" stroke-width="0.5" points="640.958,-228.346 645.207,-218.641 635.833,-223.578 640.958,-228.346"/>
</g>
<!-- obj_165094128 -->
<g id="node33" class="node"><title>obj_165094128</title>
<polygon fill="white" stroke="black" points="637,-127.5 637,-163.5 691,-163.5 691,-127.5 637,-127.5"/>
<text text-anchor="middle" x="664" y="-141.8" font-family="Times New Roman,serif" font-size="14.00">YTick</text>
</g>
<!-- obj_160554760&#45;&gt;obj_165094128 -->
<g id="edge33" class="edge"><title>obj_160554760:f5&#45;&gt;obj_165094128</title>
<path fill="none" stroke="black" stroke-width="0.5" d="M592.5,-257.5C635.142,-257.5 612.071,-207.096 637,-172.5 637.2,-172.223 637.402,-171.946 637.607,-171.669"/>
<polygon fill="black" stroke="black" stroke-width="0.5" points="640.447,-173.725 644.089,-163.776 635.038,-169.282 640.447,-173.725"/>
</g>
<!-- obj_165095056 -->
<g id="node34" class="node"><title>obj_165095056</title>
<polygon fill="white" stroke="black" points="637,-72.5 637,-108.5 691,-108.5 691,-72.5 637,-72.5"/>
<text text-anchor="middle" x="664" y="-86.8" font-family="Times New Roman,serif" font-size="14.00">YTick</text>
</g>
<!-- obj_160554760&#45;&gt;obj_165095056 -->
<g id="edge34" class="edge"><title>obj_160554760:f6&#45;&gt;obj_165095056</title>
<path fill="none" stroke="black" stroke-width="0.5" d="M564.5,-221.5C564.5,-205.223 587.804,-223.28 600,-212.5 633.95,-182.492 612.588,-155.673 637,-117.5 637.184,-117.212 637.372,-116.925 637.562,-116.638"/>
<polygon fill="black" stroke="black" stroke-width="0.5" points="640.45,-118.625 643.783,-108.568 634.906,-114.351 640.45,-118.625"/>
</g>
<!-- obj_167379440&#45;&gt;obj_167313904 -->
<g id="edge24" class="edge"><title>obj_167379440&#45;&gt;obj_167313904</title>
<path fill="none" stroke="black" stroke-width="0.5" d="M636.974,-419.248C584.277,-417.9 462.768,-420.907 378,-470.5 329.103,-499.107 295.042,-558.459 278.322,-593.317"/>
<polygon fill="black" stroke="black" stroke-width="0.5" points="275.116,-591.91 274.068,-602.453 281.462,-594.865 275.116,-591.91"/>
<text text-anchor="middle" x="489" y="-439.5" font-family="Times New Roman,serif" font-size="10.00">axes</text>
</g>
<!-- obj_167313008 -->
<g id="node26" class="node"><title>obj_167313008</title>
<polygon fill="white" stroke="black" points="762.5,-457.5 762.5,-493.5 816.5,-493.5 816.5,-457.5 762.5,-457.5"/>
<text text-anchor="middle" x="789.5" y="-471.8" font-family="Times New Roman,serif" font-size="14.00">Text</text>
</g>
<!-- obj_167379440&#45;&gt;obj_167313008 -->
<g id="edge25" class="edge"><title>obj_167379440&#45;&gt;obj_167313008</title>
<path fill="none" stroke="black" stroke-width="0.5" d="M691.191,-432.164C709.202,-440.185 733.336,-450.933 753.063,-459.718"/>
<polygon fill="black" stroke="black" stroke-width="0.5" points="751.788,-462.982 762.347,-463.853 754.635,-456.587 751.788,-462.982"/>
<text text-anchor="middle" x="726" y="-458.5" font-family="Times New Roman,serif" font-size="10.00">label</text>
</g>
<!-- obj_167380720 -->
<g id="node27" class="node"><title>obj_167380720</title>
<polygon fill="white" stroke="black" points="761,-402.5 761,-438.5 818,-438.5 818,-402.5 761,-402.5"/>
<text text-anchor="middle" x="789.5" y="-416.8" font-family="Times New Roman,serif" font-size="14.00">Line2D</text>
</g>
<!-- obj_167379440&#45;&gt;obj_167380720 -->
<g id="edge26" class="edge"><title>obj_167379440&#45;&gt;obj_167380720</title>
<path fill="none" stroke="black" stroke-width="0.5" d="M691.191,-420.5C708.397,-420.5 731.19,-420.5 750.391,-420.5"/>
<polygon fill="black" stroke="black" stroke-width="0.5" points="750.63,-424 760.63,-420.5 750.63,-417 750.63,-424"/>
<text text-anchor="middle" x="726" y="-423.5" font-family="Times New Roman,serif" font-size="10.00">tick1line</text>
</g>
<!-- obj_167380208 -->
<g id="node28" class="node"><title>obj_167380208</title>
<polygon fill="white" stroke="black" points="761,-347.5 761,-383.5 818,-383.5 818,-347.5 761,-347.5"/>
<text text-anchor="middle" x="789.5" y="-361.8" font-family="Times New Roman,serif" font-size="14.00">Line2D</text>
</g>
<!-- obj_167379440&#45;&gt;obj_167380208 -->
<g id="edge27" class="edge"><title>obj_167379440&#45;&gt;obj_167380208</title>
<path fill="none" stroke="black" stroke-width="0.5" d="M691.191,-408.836C708.715,-401.032 732.036,-390.646 751.454,-381.998"/>
<polygon fill="black" stroke="black" stroke-width="0.5" points="752.919,-385.177 760.63,-377.912 750.071,-378.783 752.919,-385.177"/>
<text text-anchor="middle" x="726" y="-403.5" font-family="Times New Roman,serif" font-size="10.00">tick2line</text>
</g>
<!-- obj_165396080&#45;&gt;obj_165396080 -->
<g id="edge40" class="edge"><title>obj_165396080&#45;&gt;obj_165396080</title>
<path fill="none" stroke="black" stroke-width="0.5" d="M254.355,-166.529C252.461,-176.194 256.176,-185 265.5,-185 271.328,-185 274.964,-181.56 276.41,-176.621"/>
<polygon fill="black" stroke="black" stroke-width="0.5" points="279.911,-176.608 276.645,-166.529 272.913,-176.444 279.911,-176.608"/>
<text text-anchor="middle" x="265.5" y="-188" font-family="Times New Roman,serif" font-size="10.00">axes</text>
</g>
<!-- obj_164557328 -->
<g id="node37" class="node"><title>obj_164557328</title>
<polygon fill="white" stroke="black" points="378,-213.5 378,-249.5 449,-249.5 449,-213.5 378,-213.5"/>
<text text-anchor="middle" x="413.5" y="-227.8" font-family="Times New Roman,serif" font-size="14.00">Rectangle</text>
</g>
<!-- obj_165396080&#45;&gt;obj_164557328 -->
<g id="edge39" class="edge"><title>obj_165396080&#45;&gt;obj_164557328</title>
<path fill="none" stroke="black" stroke-width="0.5" d="M298.18,-166.51C319.725,-178.758 348.43,-195.077 371.687,-208.298"/>
<polygon fill="black" stroke="black" stroke-width="0.5" points="370.207,-211.483 380.63,-213.382 373.667,-205.397 370.207,-211.483"/>
<text text-anchor="middle" x="344" y="-203.5" font-family="Times New Roman,serif" font-size="10.00">patch</text>
</g>
<!-- obj_164568040 -->
<g id="node38" class="node"><title>obj_164568040</title>
<polygon fill="gray" stroke="black" points="386.5,-158.5 386.5,-194.5 440.5,-194.5 440.5,-158.5 386.5,-158.5"/>
<text text-anchor="middle" x="413.5" y="-172.8" font-family="Times New Roman,serif" font-size="14.00">*</text>
</g>
<!-- obj_165396080&#45;&gt;obj_164568040 -->
<g id="edge43" class="edge"><title>obj_165396080&#45;&gt;obj_164568040</title>
<path fill="none" stroke="black" stroke-width="0.5" d="M310.305,-156.901C331.334,-160.934 356.232,-165.709 376.188,-169.536"/>
<polygon fill="black" stroke="black" stroke-width="0.5" points="375.646,-172.996 386.127,-171.442 376.965,-166.121 375.646,-172.996"/>
<text text-anchor="middle" x="344" y="-169.5" font-family="Times New Roman,serif" font-size="10.00">lines</text>
</g>
<!-- obj_167321584 -->
<g id="node40" class="node"><title>obj_167321584</title>
<polygon fill="white" stroke="black" points="386.5,-55.5 386.5,-91.5 440.5,-91.5 440.5,-55.5 386.5,-55.5"/>
<text text-anchor="middle" x="413.5" y="-69.8" font-family="Times New Roman,serif" font-size="14.00">XAxis</text>
</g>
<!-- obj_165396080&#45;&gt;obj_167321584 -->
<g id="edge44" class="edge"><title>obj_165396080&#45;&gt;obj_167321584</title>
<path fill="none" stroke="black" stroke-width="0.5" d="M287.964,-130.399C299.335,-121.446 313.848,-110.983 328,-103.5 343.24,-95.4411 361.107,-88.7407 376.477,-83.7314"/>
<polygon fill="black" stroke="black" stroke-width="0.5" points="377.673,-87.0242 386.164,-80.6865 375.574,-80.3463 377.673,-87.0242"/>
<text text-anchor="middle" x="344" y="-106.5" font-family="Times New Roman,serif" font-size="10.00">xaxis</text>
</g>
<!-- obj_165436592 -->
<g id="node41" class="node"><title>obj_165436592</title>
<polygon fill="white" stroke="black" points="386.5,-0.5 386.5,-36.5 440.5,-36.5 440.5,-0.5 386.5,-0.5"/>
<text text-anchor="middle" x="413.5" y="-14.8" font-family="Times New Roman,serif" font-size="14.00">YAxis</text>
</g>
<!-- obj_165396080&#45;&gt;obj_165436592 -->
<g id="edge45" class="edge"><title>obj_165396080&#45;&gt;obj_165436592</title>
<path fill="none" stroke="black" stroke-width="0.5" d="M279.427,-130.481C291.096,-114.915 309.265,-92.3365 328,-75.5 343.214,-61.8275 361.918,-48.8808 377.857,-38.7921"/>
<polygon fill="black" stroke="black" stroke-width="0.5" points="379.739,-41.7434 386.388,-33.4948 376.046,-35.7966 379.739,-41.7434"/>
<text text-anchor="middle" x="344" y="-78.5" font-family="Times New Roman,serif" font-size="10.00">yaxis</text>
</g>
<!-- obj_164504336 -->
<g id="node39" class="node"><title>obj_164504336</title>
<polygon fill="white" stroke="black" points="536,-111.5 536,-147.5 593,-147.5 593,-111.5 536,-111.5"/>
<text text-anchor="middle" x="564.5" y="-125.8" font-family="Times New Roman,serif" font-size="14.00">Line2D</text>
</g>
<!-- obj_164568040&#45;&gt;obj_164504336 -->
<g id="edge42" class="edge"><title>obj_164568040:f0&#45;&gt;obj_164504336</title>
<path fill="none" stroke="black" stroke-width="0.5" d="M440.664,-167.989C464.545,-160.506 499.531,-149.544 526.063,-141.23"/>
<polygon fill="black" stroke="black" stroke-width="0.5" points="527.281,-144.517 535.777,-138.187 525.188,-137.837 527.281,-144.517"/>
</g>
<!-- obj_164504336&#45;&gt;obj_165396080 -->
<g id="edge41" class="edge"><title>obj_164504336&#45;&gt;obj_165396080</title>
<path fill="none" stroke="black" stroke-width="0.5" d="M535.817,-130.217C499.538,-131.265 433.948,-133.537 378,-137.5 359.179,-138.833 338.612,-140.735 320.325,-142.584"/>
<polygon fill="black" stroke="black" stroke-width="0.5" points="319.729,-139.127 310.14,-143.631 320.445,-146.09 319.729,-139.127"/>
<text text-anchor="middle" x="413.5" y="-140.5" font-family="Times New Roman,serif" font-size="10.00">axes</text>
</g>
</g>
</svg>
