<?xml version="1.0" encoding="utf-8" standalone="no"?>
<!DOCTYPE svg PUBLIC "-//W3C//DTD SVG 1.1//EN"
  "http://www.w3.org/Graphics/SVG/1.1/DTD/svg11.dtd">
<!-- Created with matplotlib (http://matplotlib.org/) -->
<svg height="378pt" version="1.1" viewBox="0 0 377 378" width="377pt" xmlns="http://www.w3.org/2000/svg" xmlns:xlink="http://www.w3.org/1999/xlink">
 <defs>
  <style type="text/css">
*{stroke-linecap:butt;stroke-linejoin:round;}
  </style>
 </defs>
 <g id="figure_1">
  <g id="patch_1">
   <path d="
M0 378.996
L377.72 378.996
L377.72 0
L0 0
z
" style="fill:#ffffff;"/>
  </g>
  <g id="axes_1">
   <g id="patch_2">
    <path d="
M29.3427 113.846
L364.143 113.846
L364.143 12.1988
L29.3427 12.1988
z
" style="fill:#ffffff;"/>
   </g>
   <g id="line2d_1">
    <path clip-path="url(#p8240e5ae93)" d="
M29.3427 113.846
L31.1841 113.739
L32.5233 113.391
L34.0299 112.753
L35.7039 111.784
L37.5453 110.46
L39.7215 108.617
L42.3999 106.038
L45.7479 102.484
L50.6025 96.9698
L64.8315 80.6261
L70.3557 74.7081
L75.5451 69.4755
L80.5671 64.7328
L85.4217 60.4528
L90.2763 56.4694
L95.1309 52.7753
L99.9855 49.3607
L104.84 46.2142
L109.862 43.2281
L114.884 40.5015
L120.074 37.9417
L125.263 35.6283
L130.62 33.4826
L136.144 31.5107
L141.836 29.7165
L147.695 28.1022
L153.888 26.6311
L160.25 25.3502
L166.946 24.2295
L173.976 23.2784
L181.509 22.4867
L189.545 21.8693
L198.249 21.4277
L207.791 21.1719
L218.337 21.1156
L230.39 21.2785
L244.787 21.704
L263.535 22.4961
L299.526 24.2957
L333.676 25.9003
L360.46 26.9337
L364.143 27.0578
L364.143 27.0578" style="fill:none;stroke:#348abd;stroke-linecap:square;stroke-width:2.0;"/>
   </g>
   <g id="patch_3">
    <path d="
M29.3427 12.1988
L364.143 12.1988" style="fill:none;stroke:#000000;stroke-linecap:square;stroke-linejoin:miter;"/>
   </g>
   <g id="patch_4">
    <path d="
M364.143 113.846
L364.143 12.1988" style="fill:none;stroke:#000000;stroke-linecap:square;stroke-linejoin:miter;"/>
   </g>
   <g id="patch_5">
    <path d="
M29.3427 113.846
L364.143 113.846" style="fill:none;stroke:#000000;stroke-linecap:square;stroke-linejoin:miter;"/>
   </g>
   <g id="patch_6">
    <path d="
M29.3427 113.846
L29.3427 12.1988" style="fill:none;stroke:#000000;stroke-linecap:square;stroke-linejoin:miter;"/>
   </g>
   <g id="matplotlib.axis_1">
    <g id="xtick_1">
     <g id="line2d_2">
      <defs>
       <path d="
M0 0
L0 -4" id="m93b0483c22" style="stroke:#000000;stroke-width:0.5;"/>
      </defs>
      <g>
       <use style="stroke:#000000;stroke-width:0.5;" x="29.34274" xlink:href="#m93b0483c22" y="113.845839761"/>
      </g>
     </g>
     <g id="line2d_3">
      <defs>
       <path d="
M0 0
L0 4" id="m741efc42ff" style="stroke:#000000;stroke-width:0.5;"/>
      </defs>
      <g>
       <use style="stroke:#000000;stroke-width:0.5;" x="29.34274" xlink:href="#m741efc42ff" y="12.1987809375"/>
      </g>
     </g>
     <g id="text_1">
      <!-- 0.0 -->
      <defs>
       <path d="
M50.3906 35.7969
Q50.3906 27.1562 49.1406 20.3125
Q47.9062 13.4844 45.1406 8.73438
Q42.3906 4 38.0312 1.5
Q33.6875 -0.984375 27.4844 -0.984375
Q21.7344 -0.984375 17.4531 1.5
Q13.1875 4 10.375 8.73438
Q7.5625 13.4844 6.17188 20.3125
Q4.78125 27.1562 4.78125 35.7969
Q4.78125 44.4375 6.03125 51.2656
Q7.28125 58.1094 9.98438 62.8125
Q12.7031 67.5312 17.0156 70.0156
Q21.3438 72.5156 27.4844 72.5156
Q33.2969 72.5156 37.5938 70.0469
Q41.8906 67.5781 44.7188 62.8594
Q47.5625 58.1562 48.9688 51.3125
Q50.3906 44.4844 50.3906 35.7969
M13.8125 35.7969
Q13.8125 28.4688 14.5469 23
Q15.2812 17.5312 16.8906 13.8906
Q18.5 10.25 21.1094 8.42188
Q23.7344 6.59375 27.4844 6.59375
Q31.25 6.59375 33.8906 8.39062
Q36.5312 10.2031 38.2031 13.8125
Q39.8906 17.4375 40.6406 22.9219
Q41.4062 28.4219 41.4062 35.7969
Q41.4062 43.1094 40.6406 48.5781
Q39.8906 54.0469 38.2031 57.6562
Q36.5312 61.2812 33.8906 63.0781
Q31.25 64.8906 27.4844 64.8906
Q23.7344 64.8906 21.1094 63.0781
Q18.5 61.2812 16.8906 57.6562
Q15.2812 54.0469 14.5469 48.5781
Q13.8125 43.1094 13.8125 35.7969" id="WenQuanYiMicroHei-30"/>
       <path d="
M7.17188 5.42188
Q7.17188 7.28125 7.65625 8.5625
Q8.15625 9.85938 8.98438 10.6562
Q9.8125 11.4688 10.9375 11.8281
Q12.0625 12.2031 13.375 12.2031
Q14.6562 12.2031 15.7969 11.8281
Q16.9375 11.4688 17.7656 10.6562
Q18.6094 9.85938 19.0938 8.5625
Q19.5781 7.28125 19.5781 5.42188
Q19.5781 3.60938 19.0938 2.3125
Q18.6094 1.03125 17.7656 0.1875
Q16.9375 -0.640625 15.7969 -1.03125
Q14.6562 -1.42188 13.375 -1.42188
Q12.0625 -1.42188 10.9375 -1.03125
Q9.8125 -0.640625 8.98438 0.1875
Q8.15625 1.03125 7.65625 2.3125
Q7.17188 3.60938 7.17188 5.42188" id="WenQuanYiMicroHei-2e"/>
      </defs>
      <g transform="translate(22.97029 125.441237886)scale(0.09996 -0.09996)">
       <use xlink:href="#WenQuanYiMicroHei-30"/>
       <use x="55.078125" xlink:href="#WenQuanYiMicroHei-2e"/>
       <use x="81.884765625" xlink:href="#WenQuanYiMicroHei-30"/>
      </g>
     </g>
    </g>
    <g id="xtick_2">
     <g id="line2d_4">
      <g>
       <use style="stroke:#000000;stroke-width:0.5;" x="113.04274" xlink:href="#m93b0483c22" y="113.845839761"/>
      </g>
     </g>
     <g id="line2d_5">
      <g>
       <use style="stroke:#000000;stroke-width:0.5;" x="113.04274" xlink:href="#m741efc42ff" y="12.1987809375"/>
      </g>
     </g>
     <g id="text_2">
      <!-- 0.5 -->
      <defs>
       <path d="
M26.6094 43.7969
Q31.4531 43.7969 35.625 42.4531
Q39.7969 41.1094 42.8906 38.4688
Q46 35.8438 47.75 31.9375
Q49.5156 28.0312 49.5156 22.9062
Q49.5156 17.3281 47.8438 12.8906
Q46.1875 8.45312 42.9219 5.375
Q39.6562 2.29688 34.8438 0.65625
Q30.0312 -0.984375 23.7812 -0.984375
Q21.2969 -0.984375 18.875 -0.734375
Q16.4531 -0.484375 14.2344 -0.015625
Q12.0156 0.4375 10.0156 1.17188
Q8.01562 1.90625 6.39062 2.875
L6.39062 11.2812
Q8.01562 10.1562 10.1875 9.28125
Q12.3594 8.40625 14.75 7.8125
Q17.1406 7.23438 19.5469 6.90625
Q21.9688 6.59375 24.0312 6.59375
Q27.875 6.59375 30.9062 7.5
Q33.9375 8.40625 36.0312 10.2969
Q38.1406 12.2031 39.25 15.0781
Q40.375 17.9688 40.375 21.9219
Q40.375 28.9062 36.0781 32.5938
Q31.7812 36.2812 23.5781 36.2812
Q22.2656 36.2812 20.7188 36.1562
Q19.1875 36.0312 17.6406 35.8281
Q16.1094 35.6406 14.7188 35.4219
Q13.3281 35.2031 12.3125 35.0156
L7.90625 37.7969
L10.5938 71.3906
L44.2812 71.3906
L44.2812 63.2812
L18.3125 63.2812
L16.4062 42.8281
Q17.9688 43.1094 20.5312 43.4531
Q23.0938 43.7969 26.6094 43.7969" id="WenQuanYiMicroHei-35"/>
      </defs>
      <g transform="translate(106.7140225 125.441237886)scale(0.09996 -0.09996)">
       <use xlink:href="#WenQuanYiMicroHei-30"/>
       <use x="55.078125" xlink:href="#WenQuanYiMicroHei-2e"/>
       <use x="81.884765625" xlink:href="#WenQuanYiMicroHei-35"/>
      </g>
     </g>
    </g>
    <g id="xtick_3">
     <g id="line2d_6">
      <g>
       <use style="stroke:#000000;stroke-width:0.5;" x="196.74274" xlink:href="#m93b0483c22" y="113.845839761"/>
      </g>
     </g>
     <g id="line2d_7">
      <g>
       <use style="stroke:#000000;stroke-width:0.5;" x="196.74274" xlink:href="#m741efc42ff" y="12.1987809375"/>
      </g>
     </g>
     <g id="text_3">
      <!-- 1.0 -->
      <defs>
       <path d="
M34.7188 0
L26.125 0
L26.125 44.5781
Q26.125 46.6875 26.1406 49.0781
Q26.1719 51.4688 26.2344 53.8281
Q26.3125 56.2031 26.3906 58.375
Q26.4688 60.5469 26.5156 62.2031
Q25.6875 61.3281 25.0469 60.6875
Q24.4219 60.0625 23.75 59.4688
Q23.0938 58.8906 22.3594 58.2188
Q21.625 57.5625 20.6094 56.6875
L13.375 50.7812
L8.6875 56.7812
L27.3906 71.3906
L34.7188 71.3906
z
" id="WenQuanYiMicroHei-31"/>
      </defs>
      <g transform="translate(190.565524375 125.441237886)scale(0.09996 -0.09996)">
       <use xlink:href="#WenQuanYiMicroHei-31"/>
       <use x="55.078125" xlink:href="#WenQuanYiMicroHei-2e"/>
       <use x="81.884765625" xlink:href="#WenQuanYiMicroHei-30"/>
      </g>
     </g>
    </g>
    <g id="xtick_4">
     <g id="line2d_8">
      <g>
       <use style="stroke:#000000;stroke-width:0.5;" x="280.44274" xlink:href="#m93b0483c22" y="113.845839761"/>
      </g>
     </g>
     <g id="line2d_9">
      <g>
       <use style="stroke:#000000;stroke-width:0.5;" x="280.44274" xlink:href="#m741efc42ff" y="12.1987809375"/>
      </g>
     </g>
     <g id="text_4">
      <!-- 1.5 -->
      <g transform="translate(274.309256875 125.441237886)scale(0.09996 -0.09996)">
       <use xlink:href="#WenQuanYiMicroHei-31"/>
       <use x="55.078125" xlink:href="#WenQuanYiMicroHei-2e"/>
       <use x="81.884765625" xlink:href="#WenQuanYiMicroHei-35"/>
      </g>
     </g>
    </g>
    <g id="xtick_5">
     <g id="line2d_10">
      <g>
       <use style="stroke:#000000;stroke-width:0.5;" x="364.14274" xlink:href="#m93b0483c22" y="113.845839761"/>
      </g>
     </g>
     <g id="line2d_11">
      <g>
       <use style="stroke:#000000;stroke-width:0.5;" x="364.14274" xlink:href="#m741efc42ff" y="12.1987809375"/>
      </g>
     </g>
     <g id="text_5">
      <!-- 2.0 -->
      <defs>
       <path d="
M49.2188 0
L4.6875 0
L4.6875 7.625
L21.7812 26.2188
Q25.4375 30.1719 28.3125 33.4375
Q31.2031 36.7188 33.2188 39.8438
Q35.25 42.9688 36.3281 46.1094
Q37.4062 49.2656 37.4062 52.9844
Q37.4062 55.8594 36.5781 58.0469
Q35.75 60.25 34.2031 61.7812
Q32.6719 63.3281 30.5625 64.1094
Q28.4688 64.8906 25.875 64.8906
Q21.2344 64.8906 17.5 63.0156
Q13.7656 61.1406 10.4062 58.2031
L5.42188 64.0156
Q7.375 65.7656 9.60938 67.2969
Q11.8594 68.8438 14.4531 69.9688
Q17.0469 71.0938 19.9219 71.75
Q22.7969 72.4062 25.9844 72.4062
Q30.6719 72.4062 34.4531 71.0938
Q38.2344 69.7812 40.8594 67.3125
Q43.5 64.8438 44.9375 61.2969
Q46.3906 57.7656 46.3906 53.3281
Q46.3906 49.1719 45.0938 45.4062
Q43.7969 41.6562 41.5312 38.0156
Q39.2656 34.375 36.1094 30.7031
Q32.9531 27.0469 29.2969 23.0938
L15.5781 8.5
L15.5781 8.10938
L49.2188 8.10938
z
" id="WenQuanYiMicroHei-32"/>
      </defs>
      <g transform="translate(357.765604375 125.441237886)scale(0.09996 -0.09996)">
       <use xlink:href="#WenQuanYiMicroHei-32"/>
       <use x="55.078125" xlink:href="#WenQuanYiMicroHei-2e"/>
       <use x="81.884765625" xlink:href="#WenQuanYiMicroHei-30"/>
      </g>
     </g>
    </g>
   </g>
   <g id="matplotlib.axis_2">
    <g id="ytick_1">
     <g id="line2d_12">
      <defs>
       <path d="
M0 0
L4 0" id="m728421d6d4" style="stroke:#000000;stroke-width:0.5;"/>
      </defs>
      <g>
       <use style="stroke:#000000;stroke-width:0.5;" x="29.34274" xlink:href="#m728421d6d4" y="113.845839761"/>
      </g>
     </g>
     <g id="line2d_13">
      <defs>
       <path d="
M0 0
L-4 0" id="mcb0005524f" style="stroke:#000000;stroke-width:0.5;"/>
      </defs>
      <g>
       <use style="stroke:#000000;stroke-width:0.5;" x="364.14274" xlink:href="#mcb0005524f" y="113.845839761"/>
      </g>
     </g>
     <g id="text_6">
      <!-- 0.0 -->
      <g transform="translate(12.59784 116.442456949)scale(0.09996 -0.09996)">
       <use xlink:href="#WenQuanYiMicroHei-30"/>
       <use x="55.078125" xlink:href="#WenQuanYiMicroHei-2e"/>
       <use x="81.884765625" xlink:href="#WenQuanYiMicroHei-30"/>
      </g>
     </g>
    </g>
    <g id="ytick_2">
     <g id="line2d_14">
      <g>
       <use style="stroke:#000000;stroke-width:0.5;" x="29.34274" xlink:href="#m728421d6d4" y="96.9046632904"/>
      </g>
     </g>
     <g id="line2d_15">
      <g>
       <use style="stroke:#000000;stroke-width:0.5;" x="364.14274" xlink:href="#mcb0005524f" y="96.9046632904"/>
      </g>
     </g>
     <g id="text_7">
      <!-- 0.2 -->
      <g transform="translate(12.714980625 99.5012804779)scale(0.09996 -0.09996)">
       <use xlink:href="#WenQuanYiMicroHei-30"/>
       <use x="55.078125" xlink:href="#WenQuanYiMicroHei-2e"/>
       <use x="81.884765625" xlink:href="#WenQuanYiMicroHei-32"/>
      </g>
     </g>
    </g>
    <g id="ytick_3">
     <g id="line2d_16">
      <g>
       <use style="stroke:#000000;stroke-width:0.5;" x="29.34274" xlink:href="#m728421d6d4" y="79.9634868199"/>
      </g>
     </g>
     <g id="line2d_17">
      <g>
       <use style="stroke:#000000;stroke-width:0.5;" x="364.14274" xlink:href="#mcb0005524f" y="79.9634868199"/>
      </g>
     </g>
     <g id="text_8">
      <!-- 0.4 -->
      <defs>
       <path d="
M53.0781 16.0156
L42.6719 16.0156
L42.6719 0
L34.0781 0
L34.0781 16.0156
L1.125 16.0156
L1.125 23.7812
L33.5 71.7812
L42.6719 71.7812
L42.6719 24.125
L53.0781 24.125
z

M34.0781 24.125
L34.0781 41.5
Q34.0781 44.2344 34.1562 47.2344
Q34.2344 50.25 34.3281 53.0938
Q34.4219 55.9531 34.5469 58.4375
Q34.6719 60.9375 34.7188 62.5938
L34.2812 62.5938
Q33.9375 61.625 33.4219 60.4219
Q32.9062 59.2344 32.2969 58.0312
Q31.6875 56.8438 31.0469 55.7188
Q30.4219 54.5938 29.8906 53.8125
L9.8125 24.125
z
" id="WenQuanYiMicroHei-34"/>
      </defs>
      <g transform="translate(12.3291975 82.5601040074)scale(0.09996 -0.09996)">
       <use xlink:href="#WenQuanYiMicroHei-30"/>
       <use x="55.078125" xlink:href="#WenQuanYiMicroHei-2e"/>
       <use x="81.884765625" xlink:href="#WenQuanYiMicroHei-34"/>
      </g>
     </g>
    </g>
    <g id="ytick_4">
     <g id="line2d_18">
      <g>
       <use style="stroke:#000000;stroke-width:0.5;" x="29.34274" xlink:href="#m728421d6d4" y="63.0223103493"/>
      </g>
     </g>
     <g id="line2d_19">
      <g>
       <use style="stroke:#000000;stroke-width:0.5;" x="364.14274" xlink:href="#mcb0005524f" y="63.0223103493"/>
      </g>
     </g>
     <g id="text_9">
      <!-- 0.6 -->
      <defs>
       <path d="
M5.51562 30.5156
Q5.51562 35.6406 6.03125 40.7188
Q6.54688 45.7969 7.82812 50.4531
Q9.125 55.125 11.375 59.125
Q13.625 63.1406 17.0938 66.0938
Q20.5625 69.0469 25.3906 70.7188
Q30.2188 72.4062 36.7188 72.4062
Q37.6406 72.4062 38.7656 72.3594
Q39.8906 72.3125 41.0312 72.1875
Q42.1875 72.0781 43.2344 71.9062
Q44.2812 71.7344 45.125 71.4844
L45.125 63.9219
Q43.4062 64.5 41.25 64.7969
Q39.1094 65.0938 37.0156 65.0938
Q32.625 65.0938 29.2656 64.0312
Q25.9219 62.9844 23.4844 61.0781
Q21.0469 59.1875 19.4062 56.5469
Q17.7812 53.9062 16.75 50.7031
Q15.7188 47.5156 15.2344 43.8906
Q14.75 40.2812 14.5938 36.375
L15.1875 36.375
Q16.1562 38.1406 17.5469 39.6719
Q18.9531 41.2188 20.7969 42.3125
Q22.6562 43.4062 24.9688 44.0312
Q27.2969 44.6719 30.1719 44.6719
Q34.8125 44.6719 38.5625 43.2344
Q42.3281 41.7969 44.9688 39.0156
Q47.6094 36.2344 49.0469 32.2031
Q50.4844 28.1719 50.4844 23
Q50.4844 17.4375 48.9688 12.9844
Q47.4688 8.54688 44.625 5.4375
Q41.7969 2.34375 37.7969 0.671875
Q33.7969 -0.984375 28.8125 -0.984375
Q23.9219 -0.984375 19.6406 0.921875
Q15.375 2.82812 12.25 6.73438
Q9.125 10.6406 7.3125 16.5469
Q5.51562 22.4688 5.51562 30.5156
M28.7188 6.5
Q31.6406 6.5 34.0469 7.5
Q36.4688 8.5 38.2188 10.5156
Q39.9844 12.5469 40.9375 15.6406
Q41.8906 18.75 41.8906 23
Q41.8906 26.4219 41.0781 29.125
Q40.2812 31.8438 38.6719 33.7344
Q37.0625 35.6406 34.6406 36.6719
Q32.2344 37.7031 29 37.7031
Q25.7344 37.7031 23.0156 36.5469
Q20.3125 35.4062 18.4062 33.5625
Q16.5 31.7344 15.4531 29.3906
Q14.4062 27.0469 14.4062 24.7031
Q14.4062 21.4375 15.3125 18.1875
Q16.2188 14.9375 18 12.3438
Q19.7812 9.76562 22.4531 8.125
Q25.1406 6.5 28.7188 6.5" id="WenQuanYiMicroHei-36"/>
      </defs>
      <g transform="translate(12.58846875 65.6189275368)scale(0.09996 -0.09996)">
       <use xlink:href="#WenQuanYiMicroHei-30"/>
       <use x="55.078125" xlink:href="#WenQuanYiMicroHei-2e"/>
       <use x="81.884765625" xlink:href="#WenQuanYiMicroHei-36"/>
      </g>
     </g>
    </g>
    <g id="ytick_5">
     <g id="line2d_20">
      <g>
       <use style="stroke:#000000;stroke-width:0.5;" x="29.34274" xlink:href="#m728421d6d4" y="46.0811338787"/>
      </g>
     </g>
     <g id="line2d_21">
      <g>
       <use style="stroke:#000000;stroke-width:0.5;" x="364.14274" xlink:href="#mcb0005524f" y="46.0811338787"/>
      </g>
     </g>
     <g id="text_10">
      <!-- 0.8 -->
      <defs>
       <path d="
M27.5938 72.5156
Q31.6875 72.5156 35.3281 71.4375
Q38.9688 70.3594 41.7188 68.2031
Q44.4844 66.0625 46.0938 62.8438
Q47.7031 59.625 47.7031 55.3281
Q47.7031 52.0469 46.7188 49.4062
Q45.75 46.7812 44.0312 44.6562
Q42.3281 42.5312 39.9844 40.8438
Q37.6406 39.1562 34.9062 37.7969
Q37.75 36.2812 40.4531 34.4219
Q43.1719 32.5625 45.2812 30.25
Q47.4062 27.9375 48.7031 25.0469
Q50 22.1719 50 18.6094
Q50 14.1094 48.3594 10.4688
Q46.7344 6.84375 43.7812 4.29688
Q40.8281 1.76562 36.6875 0.390625
Q32.5625 -0.984375 27.5938 -0.984375
Q22.2188 -0.984375 18.0469 0.328125
Q13.875 1.65625 11.0156 4.125
Q8.15625 6.59375 6.65625 10.1562
Q5.17188 13.7188 5.17188 18.2188
Q5.17188 21.875 6.26562 24.7969
Q7.375 27.7344 9.21875 30.0781
Q11.0781 32.4219 13.6094 34.2188
Q16.1562 36.0312 19 37.4062
Q16.6094 38.9219 14.5 40.7031
Q12.4062 42.4844 10.8594 44.6719
Q9.32812 46.875 8.42188 49.5312
Q7.51562 52.2031 7.51562 55.4219
Q7.51562 59.6719 9.15625 62.8594
Q10.7969 66.0625 13.5781 68.2031
Q16.3594 70.3594 20 71.4375
Q23.6406 72.5156 27.5938 72.5156
M13.9219 18.1094
Q13.9219 15.5312 14.7031 13.3594
Q15.4844 11.1875 17.1406 9.64062
Q18.7969 8.10938 21.3281 7.25
Q23.875 6.39062 27.3906 6.39062
Q30.8125 6.39062 33.4219 7.25
Q36.0312 8.10938 37.7812 9.6875
Q39.5469 11.2812 40.4219 13.5156
Q41.3125 15.7656 41.3125 18.5
Q41.3125 21.0469 40.3594 23.0938
Q39.4062 25.1406 37.625 26.8906
Q35.8438 28.6562 33.3438 30.2188
Q30.8594 31.7812 27.7812 33.2969
L26.3125 33.9844
Q20.1719 31.0625 17.0469 27.2656
Q13.9219 23.4844 13.9219 18.1094
M27.4844 65.0938
Q22.3125 65.0938 19.2656 62.5
Q16.2188 59.9062 16.2188 54.9844
Q16.2188 52.2031 17.0625 50.1875
Q17.9219 48.1875 19.4375 46.625
Q20.9531 45.0625 23.0781 43.8125
Q25.2031 42.5781 27.6875 41.4062
Q30.0312 42.4844 32.1094 43.75
Q34.1875 45.0156 35.7188 46.625
Q37.25 48.25 38.125 50.2969
Q39.0156 52.3438 39.0156 54.9844
Q39.0156 59.9062 35.9375 62.5
Q32.8594 65.0938 27.4844 65.0938" id="WenQuanYiMicroHei-38"/>
      </defs>
      <g transform="translate(12.636886875 48.6777510662)scale(0.09996 -0.09996)">
       <use xlink:href="#WenQuanYiMicroHei-30"/>
       <use x="55.078125" xlink:href="#WenQuanYiMicroHei-2e"/>
       <use x="81.884765625" xlink:href="#WenQuanYiMicroHei-38"/>
      </g>
     </g>
    </g>
    <g id="ytick_6">
     <g id="line2d_22">
      <g>
       <use style="stroke:#000000;stroke-width:0.5;" x="29.34274" xlink:href="#m728421d6d4" y="29.1399574081"/>
      </g>
     </g>
     <g id="line2d_23">
      <g>
       <use style="stroke:#000000;stroke-width:0.5;" x="364.14274" xlink:href="#mcb0005524f" y="29.1399574081"/>
      </g>
     </g>
     <g id="text_11">
      <!-- 1.0 -->
      <g transform="translate(12.98830875 31.7365745956)scale(0.09996 -0.09996)">
       <use xlink:href="#WenQuanYiMicroHei-31"/>
       <use x="55.078125" xlink:href="#WenQuanYiMicroHei-2e"/>
       <use x="81.884765625" xlink:href="#WenQuanYiMicroHei-30"/>
      </g>
     </g>
    </g>
    <g id="ytick_7">
     <g id="line2d_24">
      <g>
       <use style="stroke:#000000;stroke-width:0.5;" x="29.34274" xlink:href="#m728421d6d4" y="12.1987809375"/>
      </g>
     </g>
     <g id="line2d_25">
      <g>
       <use style="stroke:#000000;stroke-width:0.5;" x="364.14274" xlink:href="#mcb0005524f" y="12.1987809375"/>
      </g>
     </g>
     <g id="text_12">
      <!-- 1.2 -->
      <g transform="translate(13.105449375 14.795398125)scale(0.09996 -0.09996)">
       <use xlink:href="#WenQuanYiMicroHei-31"/>
       <use x="55.078125" xlink:href="#WenQuanYiMicroHei-2e"/>
       <use x="81.884765625" xlink:href="#WenQuanYiMicroHei-32"/>
      </g>
     </g>
    </g>
   </g>
   <g id="legend_1">
    <g id="patch_7">
     <path d="
M34.3407 35.1911
L89.186 35.1911
L89.186 17.1968
L34.3407 17.1968
z
" style="fill:#ffffff;stroke:#000000;stroke-linejoin:miter;"/>
    </g>
    <g id="line2d_26">
     <path d="
M41.3379 25.292
L55.3323 25.292" style="fill:none;stroke:#348abd;stroke-linecap:square;stroke-width:2.0;"/>
    </g>
    <g id="line2d_27"/>
    <g id="text_13">
     <!-- 位移 -->
     <defs>
      <path d="
M5.07812 54.6875
L20.3125 54.6875
L20.3125 67.5781
Q14.4531 66.0156 8.20312 64.8438
L5.46875 71.875
Q23.0469 75 37.5 81.25
L41.0156 74.6094
L27.7344 69.9219
L27.7344 54.6875
L41.7969 54.6875
L41.7969 47.6562
L27.7344 47.6562
L27.7344 45.7031
Q35.5469 37.5 41.4062 29.2969
L36.3281 22.2656
Q32.0312 29.6875 27.7344 35.5469
L27.7344 -8.98438
L20.3125 -8.98438
L20.3125 30.0781
Q15.625 18.3594 8.20312 8.59375
L2.73438 15.2344
Q13.6719 29.2969 19.1406 47.6562
L5.07812 47.6562
z

M63.2812 80.8594
L71.0938 79.2969
Q69.1406 75.7812 66.4062 72.2656
L90.2344 72.2656
L90.2344 65.2344
Q79.2969 41.4062 40.2344 33.9844
L37.1094 41.7969
Q71.875 46.875 81.6406 65.2344
L59.375 65.2344
Q57.4219 63.2812 55.4688 62.1094
Q58.9844 58.9844 62.5 55.4688
L57.4219 50
Q53.9062 53.9062 49.6094 57.8125
L42.9688 54.2969
L37.8906 59.7656
Q55.0781 68.75 63.2812 80.8594
M67.1875 41.7969
L73.8281 38.2812
Q72.2656 36.3281 70.3125 34.375
L92.5781 34.375
L92.5781 27.3438
Q80.4688 -0.390625 37.5 -9.375
L33.9844 -1.5625
Q74.2188 5.07812 84.375 27.3438
L63.2812 27.3438
Q61.3281 25.3906 58.9844 23.4375
Q62.8906 20.3125 66.7969 16.0156
L61.3281 10.5469
Q57.4219 14.8438 52.7344 18.75
L42.5781 12.5
L38.2812 19.1406
Q54.6875 27.3438 67.1875 41.7969" id="WenQuanYiMicroHei-79fb"/>
      <path d="
M27.7344 80.8594
L35.5469 78.5156
Q31.25 67.1875 25.3906 56.25
L25.3906 -8.98438
L17.5781 -8.98438
L17.5781 43.75
Q12.8906 37.5 7.8125 32.0312
L3.90625 39.8438
Q20.7031 59.375 27.7344 80.8594
M33.9844 64.0625
L58.9844 64.0625
Q56.6406 71.875 53.125 78.5156
L61.3281 81.25
Q65.2344 73.4375 67.5781 64.0625
L92.1875 64.0625
L92.1875 56.6406
L33.9844 56.6406
z

M78.5156 53.125
L87.5 50.3906
Q80.4688 22.6562 73.0469 2.34375
L94.9219 2.34375
L94.9219 -5.07812
L30.8594 -5.07812
L30.8594 2.34375
L64.4531 2.34375
Q72.6562 26.5625 78.5156 53.125
M47.2656 51.1719
Q53.5156 30.4688 55.4688 9.375
L46.875 7.03125
Q44.9219 29.2969 38.6719 48.8281
z
" id="WenQuanYiMicroHei-4f4d"/>
     </defs>
     <g transform="translate(66.32794 28.7905790625)scale(0.09996 -0.09996)">
      <use xlink:href="#WenQuanYiMicroHei-4f4d"/>
      <use x="100.0" xlink:href="#WenQuanYiMicroHei-79fb"/>
     </g>
    </g>
   </g>
  </g>
  <g id="axes_2">
   <g id="patch_8">
    <path d="
M29.3427 235.822
L364.143 235.822
L364.143 134.175
L29.3427 134.175
z
" style="fill:#ffffff;"/>
   </g>
   <g id="line2d_28">
    <path clip-path="url(#p2215a5c9c0)" d="
M29.3427 218.881
L29.8449 218.881
L30.0123 218.5
L31.5189 204.286
L33.0255 192.245
L34.5321 182.096
L36.0387 173.574
L37.3779 167.186
L38.7171 161.771
L40.0563 157.209
L41.3955 153.401
L42.7347 150.248
L44.0739 147.668
L45.4131 145.592
L46.7523 143.956
L48.0915 142.705
L49.4307 141.789
L50.7699 141.168
L52.1091 140.801
L53.4483 140.657
L54.9549 140.726
L56.6289 141.047
L58.4703 141.65
L60.4791 142.551
L62.8227 143.859
L65.5011 145.61
L68.8491 148.073
L73.3689 151.699
L81.4041 158.495
L91.6155 167.051
L98.4789 172.504
L104.673 177.151
L110.699 181.403
L116.726 185.382
L122.585 188.99
L128.444 192.346
L134.47 195.547
L140.496 198.497
L146.69 201.279
L152.884 203.82
L159.245 206.193
L165.774 208.392
L172.47 210.416
L179.501 212.306
L186.699 214.009
L194.232 215.56
L202.1 216.95
L210.302 218.173
L219.007 219.245
L228.381 220.171
L238.425 220.933
L249.306 221.531
L261.359 221.965
L274.919 222.222
L290.487 222.29
L309.57 222.143
L335.685 221.702
L364.143 221.099
L364.143 221.099" style="fill:none;stroke:#348abd;stroke-linecap:square;stroke-width:2.0;"/>
   </g>
   <g id="patch_9">
    <path d="
M29.3427 134.175
L364.143 134.175" style="fill:none;stroke:#000000;stroke-linecap:square;stroke-linejoin:miter;"/>
   </g>
   <g id="patch_10">
    <path d="
M364.143 235.822
L364.143 134.175" style="fill:none;stroke:#000000;stroke-linecap:square;stroke-linejoin:miter;"/>
   </g>
   <g id="patch_11">
    <path d="
M29.3427 235.822
L364.143 235.822" style="fill:none;stroke:#000000;stroke-linecap:square;stroke-linejoin:miter;"/>
   </g>
   <g id="patch_12">
    <path d="
M29.3427 235.822
L29.3427 134.175" style="fill:none;stroke:#000000;stroke-linecap:square;stroke-linejoin:miter;"/>
   </g>
   <g id="matplotlib.axis_3">
    <g id="xtick_6">
     <g id="line2d_29">
      <g>
       <use style="stroke:#000000;stroke-width:0.5;" x="29.34274" xlink:href="#m93b0483c22" y="235.822310349"/>
      </g>
     </g>
     <g id="line2d_30">
      <g>
       <use style="stroke:#000000;stroke-width:0.5;" x="29.34274" xlink:href="#m741efc42ff" y="134.175251526"/>
      </g>
     </g>
     <g id="text_14">
      <!-- 0.0 -->
      <g transform="translate(22.97029 247.417708474)scale(0.09996 -0.09996)">
       <use xlink:href="#WenQuanYiMicroHei-30"/>
       <use x="55.078125" xlink:href="#WenQuanYiMicroHei-2e"/>
       <use x="81.884765625" xlink:href="#WenQuanYiMicroHei-30"/>
      </g>
     </g>
    </g>
    <g id="xtick_7">
     <g id="line2d_31">
      <g>
       <use style="stroke:#000000;stroke-width:0.5;" x="113.04274" xlink:href="#m93b0483c22" y="235.822310349"/>
      </g>
     </g>
     <g id="line2d_32">
      <g>
       <use style="stroke:#000000;stroke-width:0.5;" x="113.04274" xlink:href="#m741efc42ff" y="134.175251526"/>
      </g>
     </g>
     <g id="text_15">
      <!-- 0.5 -->
      <g transform="translate(106.7140225 247.417708474)scale(0.09996 -0.09996)">
       <use xlink:href="#WenQuanYiMicroHei-30"/>
       <use x="55.078125" xlink:href="#WenQuanYiMicroHei-2e"/>
       <use x="81.884765625" xlink:href="#WenQuanYiMicroHei-35"/>
      </g>
     </g>
    </g>
    <g id="xtick_8">
     <g id="line2d_33">
      <g>
       <use style="stroke:#000000;stroke-width:0.5;" x="196.74274" xlink:href="#m93b0483c22" y="235.822310349"/>
      </g>
     </g>
     <g id="line2d_34">
      <g>
       <use style="stroke:#000000;stroke-width:0.5;" x="196.74274" xlink:href="#m741efc42ff" y="134.175251526"/>
      </g>
     </g>
     <g id="text_16">
      <!-- 1.0 -->
      <g transform="translate(190.565524375 247.417708474)scale(0.09996 -0.09996)">
       <use xlink:href="#WenQuanYiMicroHei-31"/>
       <use x="55.078125" xlink:href="#WenQuanYiMicroHei-2e"/>
       <use x="81.884765625" xlink:href="#WenQuanYiMicroHei-30"/>
      </g>
     </g>
    </g>
    <g id="xtick_9">
     <g id="line2d_35">
      <g>
       <use style="stroke:#000000;stroke-width:0.5;" x="280.44274" xlink:href="#m93b0483c22" y="235.822310349"/>
      </g>
     </g>
     <g id="line2d_36">
      <g>
       <use style="stroke:#000000;stroke-width:0.5;" x="280.44274" xlink:href="#m741efc42ff" y="134.175251526"/>
      </g>
     </g>
     <g id="text_17">
      <!-- 1.5 -->
      <g transform="translate(274.309256875 247.417708474)scale(0.09996 -0.09996)">
       <use xlink:href="#WenQuanYiMicroHei-31"/>
       <use x="55.078125" xlink:href="#WenQuanYiMicroHei-2e"/>
       <use x="81.884765625" xlink:href="#WenQuanYiMicroHei-35"/>
      </g>
     </g>
    </g>
    <g id="xtick_10">
     <g id="line2d_37">
      <g>
       <use style="stroke:#000000;stroke-width:0.5;" x="364.14274" xlink:href="#m93b0483c22" y="235.822310349"/>
      </g>
     </g>
     <g id="line2d_38">
      <g>
       <use style="stroke:#000000;stroke-width:0.5;" x="364.14274" xlink:href="#m741efc42ff" y="134.175251526"/>
      </g>
     </g>
     <g id="text_18">
      <!-- 2.0 -->
      <g transform="translate(357.765604375 247.417708474)scale(0.09996 -0.09996)">
       <use xlink:href="#WenQuanYiMicroHei-32"/>
       <use x="55.078125" xlink:href="#WenQuanYiMicroHei-2e"/>
       <use x="81.884765625" xlink:href="#WenQuanYiMicroHei-30"/>
      </g>
     </g>
    </g>
   </g>
   <g id="matplotlib.axis_4">
    <g id="ytick_8">
     <g id="line2d_39">
      <g>
       <use style="stroke:#000000;stroke-width:0.5;" x="29.34274" xlink:href="#m728421d6d4" y="235.822310349"/>
      </g>
     </g>
     <g id="line2d_40">
      <g>
       <use style="stroke:#000000;stroke-width:0.5;" x="364.14274" xlink:href="#mcb0005524f" y="235.822310349"/>
      </g>
     </g>
     <g id="text_19">
      <!-- −0.5 -->
      <defs>
       <path d="
M4.98438 31.5938
L4.98438 38.9219
L50.0938 38.9219
L50.0938 31.5938
z
" id="WenQuanYiMicroHei-2212"/>
      </defs>
      <g transform="translate(7.2 238.418927537)scale(0.09996 -0.09996)">
       <use xlink:href="#WenQuanYiMicroHei-2212"/>
       <use x="55.078125" xlink:href="#WenQuanYiMicroHei-30"/>
       <use x="110.15625" xlink:href="#WenQuanYiMicroHei-2e"/>
       <use x="136.962890625" xlink:href="#WenQuanYiMicroHei-35"/>
      </g>
     </g>
    </g>
    <g id="ytick_9">
     <g id="line2d_41">
      <g>
       <use style="stroke:#000000;stroke-width:0.5;" x="29.34274" xlink:href="#m728421d6d4" y="218.881133879"/>
      </g>
     </g>
     <g id="line2d_42">
      <g>
       <use style="stroke:#000000;stroke-width:0.5;" x="364.14274" xlink:href="#mcb0005524f" y="218.881133879"/>
      </g>
     </g>
     <g id="text_20">
      <!-- 0.0 -->
      <g transform="translate(12.59784 221.477751066)scale(0.09996 -0.09996)">
       <use xlink:href="#WenQuanYiMicroHei-30"/>
       <use x="55.078125" xlink:href="#WenQuanYiMicroHei-2e"/>
       <use x="81.884765625" xlink:href="#WenQuanYiMicroHei-30"/>
      </g>
     </g>
    </g>
    <g id="ytick_10">
     <g id="line2d_43">
      <g>
       <use style="stroke:#000000;stroke-width:0.5;" x="29.34274" xlink:href="#m728421d6d4" y="201.939957408"/>
      </g>
     </g>
     <g id="line2d_44">
      <g>
       <use style="stroke:#000000;stroke-width:0.5;" x="364.14274" xlink:href="#mcb0005524f" y="201.939957408"/>
      </g>
     </g>
     <g id="text_21">
      <!-- 0.5 -->
      <g transform="translate(12.685305 204.536574596)scale(0.09996 -0.09996)">
       <use xlink:href="#WenQuanYiMicroHei-30"/>
       <use x="55.078125" xlink:href="#WenQuanYiMicroHei-2e"/>
       <use x="81.884765625" xlink:href="#WenQuanYiMicroHei-35"/>
      </g>
     </g>
    </g>
    <g id="ytick_11">
     <g id="line2d_45">
      <g>
       <use style="stroke:#000000;stroke-width:0.5;" x="29.34274" xlink:href="#m728421d6d4" y="184.998780938"/>
      </g>
     </g>
     <g id="line2d_46">
      <g>
       <use style="stroke:#000000;stroke-width:0.5;" x="364.14274" xlink:href="#mcb0005524f" y="184.998780938"/>
      </g>
     </g>
     <g id="text_22">
      <!-- 1.0 -->
      <g transform="translate(12.98830875 187.595398125)scale(0.09996 -0.09996)">
       <use xlink:href="#WenQuanYiMicroHei-31"/>
       <use x="55.078125" xlink:href="#WenQuanYiMicroHei-2e"/>
       <use x="81.884765625" xlink:href="#WenQuanYiMicroHei-30"/>
      </g>
     </g>
    </g>
    <g id="ytick_12">
     <g id="line2d_47">
      <g>
       <use style="stroke:#000000;stroke-width:0.5;" x="29.34274" xlink:href="#m728421d6d4" y="168.057604467"/>
      </g>
     </g>
     <g id="line2d_48">
      <g>
       <use style="stroke:#000000;stroke-width:0.5;" x="364.14274" xlink:href="#mcb0005524f" y="168.057604467"/>
      </g>
     </g>
     <g id="text_23">
      <!-- 1.5 -->
      <g transform="translate(13.07577375 170.654221654)scale(0.09996 -0.09996)">
       <use xlink:href="#WenQuanYiMicroHei-31"/>
       <use x="55.078125" xlink:href="#WenQuanYiMicroHei-2e"/>
       <use x="81.884765625" xlink:href="#WenQuanYiMicroHei-35"/>
      </g>
     </g>
    </g>
    <g id="ytick_13">
     <g id="line2d_49">
      <g>
       <use style="stroke:#000000;stroke-width:0.5;" x="29.34274" xlink:href="#m728421d6d4" y="151.116427996"/>
      </g>
     </g>
     <g id="line2d_50">
      <g>
       <use style="stroke:#000000;stroke-width:0.5;" x="364.14274" xlink:href="#mcb0005524f" y="151.116427996"/>
      </g>
     </g>
     <g id="text_24">
      <!-- 2.0 -->
      <g transform="translate(12.58846875 153.713045184)scale(0.09996 -0.09996)">
       <use xlink:href="#WenQuanYiMicroHei-32"/>
       <use x="55.078125" xlink:href="#WenQuanYiMicroHei-2e"/>
       <use x="81.884765625" xlink:href="#WenQuanYiMicroHei-30"/>
      </g>
     </g>
    </g>
    <g id="ytick_14">
     <g id="line2d_51">
      <g>
       <use style="stroke:#000000;stroke-width:0.5;" x="29.34274" xlink:href="#m728421d6d4" y="134.175251526"/>
      </g>
     </g>
     <g id="line2d_52">
      <g>
       <use style="stroke:#000000;stroke-width:0.5;" x="364.14274" xlink:href="#mcb0005524f" y="134.175251526"/>
      </g>
     </g>
     <g id="text_25">
      <!-- 2.5 -->
      <g transform="translate(12.67593375 136.771868713)scale(0.09996 -0.09996)">
       <use xlink:href="#WenQuanYiMicroHei-32"/>
       <use x="55.078125" xlink:href="#WenQuanYiMicroHei-2e"/>
       <use x="81.884765625" xlink:href="#WenQuanYiMicroHei-35"/>
      </g>
     </g>
    </g>
   </g>
   <g id="legend_2">
    <g id="patch_13">
     <path d="
M304.104 157.168
L359.145 157.168
L359.145 139.173
L304.104 139.173
z
" style="fill:#ffffff;stroke:#000000;stroke-linejoin:miter;"/>
    </g>
    <g id="line2d_53">
     <path d="
M311.101 147.268
L325.096 147.268" style="fill:none;stroke:#348abd;stroke-linecap:square;stroke-width:2.0;"/>
    </g>
    <g id="line2d_54"/>
    <g id="text_26">
     <!-- 速度 -->
     <defs>
      <path d="
M33.2031 73.4375
L58.9844 73.4375
L58.9844 81.25
L66.4062 81.25
L66.4062 73.4375
L92.5781 73.4375
L92.5781 66.4062
L66.4062 66.4062
L66.4062 58.5938
L88.6719 58.5938
L88.6719 32.4219
L66.4062 32.4219
L66.4062 3.90625
L58.9844 3.90625
L58.9844 30.8594
Q50 16.7969 35.9375 8.59375
L30.4688 15.625
Q44.1406 22.2656 51.9531 32.4219
L36.7188 32.4219
L36.7188 58.5938
L58.9844 58.5938
L58.9844 66.4062
L33.2031 66.4062
z

M43.75 39.4531
L58.9844 39.4531
L58.9844 51.5625
L43.75 51.5625
z

M66.4062 51.5625
L66.4062 39.4531
L81.25 39.4531
L81.25 51.5625
z

M74.2188 28.9062
Q85.1562 23.0469 94.1406 15.2344
L88.6719 9.375
Q80.0781 17.5781 69.5312 23.0469
z

M11.7188 78.5156
Q19.5312 73.4375 25.7812 66.4062
L20.3125 59.7656
Q13.6719 67.5781 6.25 72.6562
z

M5.07812 46.0938
L24.6094 46.0938
L24.6094 8.59375
Q29.2969 5.07812 36.5156 3.51562
Q43.75 1.95312 67.9688 1.95312
L95.3125 1.95312
L91.4062 -6.64062
L60.1562 -6.64062
Q42.9688 -6.64062 35.1562 -4.29688
Q27.3438 -1.95312 21.4844 3.125
L10.1562 -8.20312
L4.6875 0
Q10.9375 3.51562 16.7969 7.42188
L16.7969 38.6719
L5.07812 38.6719
z
" id="WenQuanYiMicroHei-901f"/>
      <path d="
M53.9062 81.25
Q56.25 77.7344 57.8125 73.0469
L92.5781 73.0469
L92.5781 66.0156
L21.4844 66.0156
L21.4844 35.5469
Q21.4844 10.5469 11.3281 -8.98438
L3.90625 -4.29688
Q9.375 7.03125 11.5156 16.2031
Q13.6719 25.3906 13.6719 38.2812
L13.6719 73.0469
L49.2188 73.0469
Q48.0469 76.1719 46.0938 78.9062
z

M23.4375 55.8594
L38.2812 55.8594
L38.2812 63.2812
L45.7031 63.2812
L45.7031 55.8594
L69.5312 55.8594
L69.5312 63.2812
L76.9531 63.2812
L76.9531 55.8594
L91.7969 55.8594
L91.7969 49.2188
L76.9531 49.2188
L76.9531 33.5938
L38.2812 33.5938
L38.2812 49.2188
L23.4375 49.2188
z

M69.5312 40.2344
L69.5312 49.2188
L45.7031 49.2188
L45.7031 40.2344
z

M27.3438 26.9531
L85.5469 26.9531
L85.5469 21.0938
Q78.9062 11.3281 66.4062 4.29688
Q76.9531 0 95.3125 -0.78125
L92.9688 -8.59375
Q70.7031 -7.8125 57.0312 -0.390625
Q42.5781 -6.25 23.8281 -9.375
L19.1406 -2.34375
Q36.7188 0 48.8281 4.29688
Q39.8438 10.1562 32.4219 20.3125
L27.3438 20.3125
z

M42.1875 20.3125
Q49.6094 12.1094 57.8125 8.20312
Q67.9688 13.2812 74.2188 20.3125
z
" id="WenQuanYiMicroHei-5ea6"/>
     </defs>
     <g transform="translate(336.091465 150.767049651)scale(0.09996 -0.09996)">
      <use xlink:href="#WenQuanYiMicroHei-901f"/>
      <use x="100.0" xlink:href="#WenQuanYiMicroHei-5ea6"/>
     </g>
    </g>
   </g>
  </g>
  <g id="axes_3">
   <g id="patch_14">
    <path d="
M29.3427 357.799
L364.143 357.799
L364.143 256.152
L29.3427 256.152
z
" style="fill:#ffffff;"/>
   </g>
   <g id="line2d_55">
    <path clip-path="url(#pb96bbb3895)" d="
M29.3427 357.799
L29.5101 273.093
L30.0123 272.606
L30.3471 273.711
L31.8537 279.347
L33.3603 284.211
L35.0343 288.833
L36.5409 292.388
L38.2149 295.767
L39.8889 298.634
L41.5629 301.061
L43.2369 303.119
L45.0783 305.024
L46.9197 306.611
L48.9285 308.045
L51.1047 309.311
L53.4483 310.407
L55.9593 311.337
L58.8051 312.156
L62.1531 312.881
L66.1707 313.514
L71.1927 314.071
L78.2235 314.611
L91.1133 315.33
L128.109 317.34
L175.985 319.99
L201.597 321.16
L230.055 322.185
L258.011 322.92
L286.469 323.43
L319.112 323.788
L359.79 324
L364.143 324.012
L364.143 324.012" style="fill:none;stroke:#348abd;stroke-linecap:square;stroke-width:2.0;"/>
   </g>
   <g id="patch_15">
    <path d="
M29.3427 256.152
L364.143 256.152" style="fill:none;stroke:#000000;stroke-linecap:square;stroke-linejoin:miter;"/>
   </g>
   <g id="patch_16">
    <path d="
M364.143 357.799
L364.143 256.152" style="fill:none;stroke:#000000;stroke-linecap:square;stroke-linejoin:miter;"/>
   </g>
   <g id="patch_17">
    <path d="
M29.3427 357.799
L364.143 357.799" style="fill:none;stroke:#000000;stroke-linecap:square;stroke-linejoin:miter;"/>
   </g>
   <g id="patch_18">
    <path d="
M29.3427 357.799
L29.3427 256.152" style="fill:none;stroke:#000000;stroke-linecap:square;stroke-linejoin:miter;"/>
   </g>
   <g id="matplotlib.axis_5">
    <g id="xtick_11">
     <g id="line2d_56">
      <g>
       <use style="stroke:#000000;stroke-width:0.5;" x="29.34274" xlink:href="#m93b0483c22" y="357.798780938"/>
      </g>
     </g>
     <g id="line2d_57">
      <g>
       <use style="stroke:#000000;stroke-width:0.5;" x="29.34274" xlink:href="#m741efc42ff" y="256.151722114"/>
      </g>
     </g>
     <g id="text_27">
      <!-- 0.0 -->
      <g transform="translate(22.97029 369.394179063)scale(0.09996 -0.09996)">
       <use xlink:href="#WenQuanYiMicroHei-30"/>
       <use x="55.078125" xlink:href="#WenQuanYiMicroHei-2e"/>
       <use x="81.884765625" xlink:href="#WenQuanYiMicroHei-30"/>
      </g>
     </g>
    </g>
    <g id="xtick_12">
     <g id="line2d_58">
      <g>
       <use style="stroke:#000000;stroke-width:0.5;" x="113.04274" xlink:href="#m93b0483c22" y="357.798780938"/>
      </g>
     </g>
     <g id="line2d_59">
      <g>
       <use style="stroke:#000000;stroke-width:0.5;" x="113.04274" xlink:href="#m741efc42ff" y="256.151722114"/>
      </g>
     </g>
     <g id="text_28">
      <!-- 0.5 -->
      <g transform="translate(106.7140225 369.394179063)scale(0.09996 -0.09996)">
       <use xlink:href="#WenQuanYiMicroHei-30"/>
       <use x="55.078125" xlink:href="#WenQuanYiMicroHei-2e"/>
       <use x="81.884765625" xlink:href="#WenQuanYiMicroHei-35"/>
      </g>
     </g>
    </g>
    <g id="xtick_13">
     <g id="line2d_60">
      <g>
       <use style="stroke:#000000;stroke-width:0.5;" x="196.74274" xlink:href="#m93b0483c22" y="357.798780938"/>
      </g>
     </g>
     <g id="line2d_61">
      <g>
       <use style="stroke:#000000;stroke-width:0.5;" x="196.74274" xlink:href="#m741efc42ff" y="256.151722114"/>
      </g>
     </g>
     <g id="text_29">
      <!-- 1.0 -->
      <g transform="translate(190.565524375 369.394179063)scale(0.09996 -0.09996)">
       <use xlink:href="#WenQuanYiMicroHei-31"/>
       <use x="55.078125" xlink:href="#WenQuanYiMicroHei-2e"/>
       <use x="81.884765625" xlink:href="#WenQuanYiMicroHei-30"/>
      </g>
     </g>
    </g>
    <g id="xtick_14">
     <g id="line2d_62">
      <g>
       <use style="stroke:#000000;stroke-width:0.5;" x="280.44274" xlink:href="#m93b0483c22" y="357.798780938"/>
      </g>
     </g>
     <g id="line2d_63">
      <g>
       <use style="stroke:#000000;stroke-width:0.5;" x="280.44274" xlink:href="#m741efc42ff" y="256.151722114"/>
      </g>
     </g>
     <g id="text_30">
      <!-- 1.5 -->
      <g transform="translate(274.309256875 369.394179063)scale(0.09996 -0.09996)">
       <use xlink:href="#WenQuanYiMicroHei-31"/>
       <use x="55.078125" xlink:href="#WenQuanYiMicroHei-2e"/>
       <use x="81.884765625" xlink:href="#WenQuanYiMicroHei-35"/>
      </g>
     </g>
    </g>
    <g id="xtick_15">
     <g id="line2d_64">
      <g>
       <use style="stroke:#000000;stroke-width:0.5;" x="364.14274" xlink:href="#m93b0483c22" y="357.798780938"/>
      </g>
     </g>
     <g id="line2d_65">
      <g>
       <use style="stroke:#000000;stroke-width:0.5;" x="364.14274" xlink:href="#m741efc42ff" y="256.151722114"/>
      </g>
     </g>
     <g id="text_31">
      <!-- 2.0 -->
      <g transform="translate(357.765604375 369.394179063)scale(0.09996 -0.09996)">
       <use xlink:href="#WenQuanYiMicroHei-32"/>
       <use x="55.078125" xlink:href="#WenQuanYiMicroHei-2e"/>
       <use x="81.884765625" xlink:href="#WenQuanYiMicroHei-30"/>
      </g>
     </g>
    </g>
   </g>
   <g id="matplotlib.axis_6">
    <g id="ytick_15">
     <g id="line2d_66">
      <g>
       <use style="stroke:#000000;stroke-width:0.5;" x="29.34274" xlink:href="#m728421d6d4" y="357.798780938"/>
      </g>
     </g>
     <g id="line2d_67">
      <g>
       <use style="stroke:#000000;stroke-width:0.5;" x="364.14274" xlink:href="#mcb0005524f" y="357.798780938"/>
      </g>
     </g>
     <g id="text_32">
      <!-- 0 -->
      <g transform="translate(20.783626875 360.395398125)scale(0.09996 -0.09996)">
       <use xlink:href="#WenQuanYiMicroHei-30"/>
      </g>
     </g>
    </g>
    <g id="ytick_16">
     <g id="line2d_68">
      <g>
       <use style="stroke:#000000;stroke-width:0.5;" x="29.34274" xlink:href="#m728421d6d4" y="340.857604467"/>
      </g>
     </g>
     <g id="line2d_69">
      <g>
       <use style="stroke:#000000;stroke-width:0.5;" x="364.14274" xlink:href="#mcb0005524f" y="340.857604467"/>
      </g>
     </g>
     <g id="text_33">
      <!-- 10 -->
      <g transform="translate(15.66848625 343.454221654)scale(0.09996 -0.09996)">
       <use xlink:href="#WenQuanYiMicroHei-31"/>
       <use x="55.078125" xlink:href="#WenQuanYiMicroHei-30"/>
      </g>
     </g>
    </g>
    <g id="ytick_17">
     <g id="line2d_70">
      <g>
       <use style="stroke:#000000;stroke-width:0.5;" x="29.34274" xlink:href="#m728421d6d4" y="323.916427996"/>
      </g>
     </g>
     <g id="line2d_71">
      <g>
       <use style="stroke:#000000;stroke-width:0.5;" x="364.14274" xlink:href="#mcb0005524f" y="323.916427996"/>
      </g>
     </g>
     <g id="text_34">
      <!-- 20 -->
      <g transform="translate(15.26864625 326.513045184)scale(0.09996 -0.09996)">
       <use xlink:href="#WenQuanYiMicroHei-32"/>
       <use x="55.078125" xlink:href="#WenQuanYiMicroHei-30"/>
      </g>
     </g>
    </g>
    <g id="ytick_18">
     <g id="line2d_72">
      <g>
       <use style="stroke:#000000;stroke-width:0.5;" x="29.34274" xlink:href="#m728421d6d4" y="306.975251526"/>
      </g>
     </g>
     <g id="line2d_73">
      <g>
       <use style="stroke:#000000;stroke-width:0.5;" x="364.14274" xlink:href="#mcb0005524f" y="306.975251526"/>
      </g>
     </g>
     <g id="text_35">
      <!-- 30 -->
      <defs>
       <path d="
M46.9219 54.6875
Q46.9219 51.125 45.7969 48.1875
Q44.6719 45.2656 42.6406 43.1094
Q40.625 40.9688 37.7969 39.5781
Q34.9688 38.1875 31.5 37.5938
L31.5 37.3125
Q40.1406 36.2344 44.625 31.8125
Q49.125 27.3906 49.125 20.3125
Q49.125 15.625 47.5312 11.7188
Q45.9531 7.8125 42.7188 4.98438
Q39.5 2.15625 34.5625 0.578125
Q29.6406 -0.984375 22.9062 -0.984375
Q17.5781 -0.984375 12.8594 -0.140625
Q8.15625 0.6875 4 2.875
L4 11.1875
Q8.25 8.9375 13.2031 7.71875
Q18.1719 6.5 22.7031 6.5
Q27.2031 6.5 30.4688 7.46875
Q33.7344 8.45312 35.8594 10.25
Q37.9844 12.0625 38.9844 14.6875
Q39.9844 17.3281 39.9844 20.6094
Q39.9844 23.9219 38.6875 26.2812
Q37.4062 28.6562 35.0156 30.1875
Q32.625 31.7344 29.1719 32.4688
Q25.7344 33.2031 21.3906 33.2031
L14.8906 33.2031
L14.8906 40.5781
L21.3906 40.5781
Q25.3438 40.5781 28.4219 41.5469
Q31.5 42.5312 33.5625 44.3281
Q35.6406 46.1406 36.7188 48.625
Q37.7969 51.125 37.7969 54.1094
Q37.7969 56.6406 36.9062 58.6406
Q36.0312 60.6406 34.4219 62.0312
Q32.8125 63.4219 30.5625 64.1562
Q28.3281 64.8906 25.5938 64.8906
Q20.3594 64.8906 16.375 63.25
Q12.4062 61.625 8.79688 58.9844
L4.29688 65.0938
Q6.15625 66.6094 8.42188 67.9219
Q10.6875 69.2344 13.375 70.2344
Q16.0625 71.2344 19.1094 71.8125
Q22.1719 72.4062 25.5938 72.4062
Q30.8594 72.4062 34.8281 71.0938
Q38.8125 69.7812 41.5 67.4062
Q44.1875 65.0469 45.5469 61.7969
Q46.9219 58.5469 46.9219 54.6875" id="WenQuanYiMicroHei-33"/>
      </defs>
      <g transform="translate(15.19992375 309.571868713)scale(0.09996 -0.09996)">
       <use xlink:href="#WenQuanYiMicroHei-33"/>
       <use x="55.078125" xlink:href="#WenQuanYiMicroHei-30"/>
      </g>
     </g>
    </g>
    <g id="ytick_19">
     <g id="line2d_74">
      <g>
       <use style="stroke:#000000;stroke-width:0.5;" x="29.34274" xlink:href="#m728421d6d4" y="290.034075055"/>
      </g>
     </g>
     <g id="line2d_75">
      <g>
       <use style="stroke:#000000;stroke-width:0.5;" x="364.14274" xlink:href="#mcb0005524f" y="290.034075055"/>
      </g>
     </g>
     <g id="text_36">
      <!-- 40 -->
      <g transform="translate(14.91253875 292.630692243)scale(0.09996 -0.09996)">
       <use xlink:href="#WenQuanYiMicroHei-34"/>
       <use x="55.078125" xlink:href="#WenQuanYiMicroHei-30"/>
      </g>
     </g>
    </g>
    <g id="ytick_20">
     <g id="line2d_76">
      <g>
       <use style="stroke:#000000;stroke-width:0.5;" x="29.34274" xlink:href="#m728421d6d4" y="273.092898585"/>
      </g>
     </g>
     <g id="line2d_77">
      <g>
       <use style="stroke:#000000;stroke-width:0.5;" x="364.14274" xlink:href="#mcb0005524f" y="273.092898585"/>
      </g>
     </g>
     <g id="text_37">
      <!-- 50 -->
      <g transform="translate(15.438890625 275.689515772)scale(0.09996 -0.09996)">
       <use xlink:href="#WenQuanYiMicroHei-35"/>
       <use x="55.078125" xlink:href="#WenQuanYiMicroHei-30"/>
      </g>
     </g>
    </g>
    <g id="ytick_21">
     <g id="line2d_78">
      <g>
       <use style="stroke:#000000;stroke-width:0.5;" x="29.34274" xlink:href="#m728421d6d4" y="256.151722114"/>
      </g>
     </g>
     <g id="line2d_79">
      <g>
       <use style="stroke:#000000;stroke-width:0.5;" x="364.14274" xlink:href="#mcb0005524f" y="256.151722114"/>
      </g>
     </g>
     <g id="text_38">
      <!-- 60 -->
      <g transform="translate(15.351425625 258.748339301)scale(0.09996 -0.09996)">
       <use xlink:href="#WenQuanYiMicroHei-36"/>
       <use x="55.078125" xlink:href="#WenQuanYiMicroHei-30"/>
      </g>
     </g>
    </g>
   </g>
   <g id="legend_3">
    <g id="patch_19">
     <path d="
M294.85 279.144
L359.145 279.144
L359.145 261.15
L294.85 261.15
z
" style="fill:#ffffff;stroke:#000000;stroke-linejoin:miter;"/>
    </g>
    <g id="line2d_80">
     <path d="
M301.847 269.245
L315.842 269.245" style="fill:none;stroke:#348abd;stroke-linecap:square;stroke-width:2.0;"/>
    </g>
    <g id="line2d_81"/>
    <g id="text_39">
     <!-- 控制力 -->
     <defs>
      <path d="
M5.46875 64.4531
L17.5781 64.4531
L17.5781 80.8594
L25.3906 80.8594
L25.3906 64.4531
L33.2031 64.4531
L33.2031 57.0312
L25.3906 57.0312
L25.3906 37.8906
L34.375 42.1875
L35.9375 35.1562
Q30.8594 32.0312 25.3906 29.2969
L25.3906 1.95312
Q25.3906 -4.29688 23.4375 -6.64062
Q21.4844 -8.98438 15.625 -8.98438
Q10.9375 -8.98438 7.03125 -7.42188
L5.46875 0.390625
Q9.76562 -1.17188 14.4531 -1.17188
Q16.0156 -1.17188 16.7969 -0.1875
Q17.5781 0.78125 17.5781 3.51562
L17.5781 25.7812
L7.8125 21.875
L4.6875 30.0781
L17.5781 34.7656
L17.5781 57.0312
L5.46875 57.0312
z

M93.75 69.9219
L93.75 51.9531
L85.9375 51.9531
L85.9375 62.8906
L45.7031 62.8906
L45.7031 50.7812
L37.8906 50.7812
L37.8906 69.9219
L61.7188 69.9219
Q60.5469 74.6094 58.5938 78.9062
L66.7969 80.8594
Q69.1406 75.3906 70.3125 69.9219
z

M74.6094 55.4688
Q83.9844 48.8281 91.7969 40.2344
L86.3281 33.5938
Q78.5156 43.3594 69.1406 50
z

M55.4688 54.6875
L62.5 50.7812
Q55.8594 40.2344 43.3594 32.4219
L38.6719 38.6719
Q50 46.0938 55.4688 54.6875
M41.7969 27.7344
L89.4531 27.7344
L89.4531 20.7031
L69.5312 20.7031
L69.5312 1.17188
L94.5312 1.17188
L94.5312 -5.85938
L37.1094 -5.85938
L37.1094 1.17188
L61.7188 1.17188
L61.7188 20.7031
L41.7969 20.7031
z
" id="WenQuanYiMicroHei-63a7"/>
      <path d="
M11.3281 63.2812
L38.6719 63.2812
L38.6719 80.4688
L46.4844 80.4688
L46.4844 63.2812
L87.8906 63.2812
Q87.8906 24.6094 86.5156 12.6875
Q85.1562 0.78125 81.8281 -3.3125
Q78.5156 -7.42188 70.3125 -7.42188
Q64.0625 -7.42188 57.8125 -6.64062
L55.8594 1.17188
Q63.2812 0.390625 70.3125 0.390625
Q74.2188 0.390625 75.9688 2.53125
Q77.7344 4.6875 78.7031 17.1875
Q79.6875 29.6875 79.6875 55.8594
L46.4844 55.8594
L46.4844 54.2969
Q46.4844 15.2344 10.5469 -9.375
L6.25 -2.34375
Q38.6719 20.3125 38.6719 54.2969
L38.6719 55.8594
L11.3281 55.8594
z
" id="WenQuanYiMicroHei-529b"/>
      <path d="
M16.0156 78.9062
L22.6562 76.9531
Q21.875 73.8281 20.7031 70.7031
L28.9062 70.7031
L28.9062 80.8594
L36.7188 80.8594
L36.7188 70.7031
L55.4688 70.7031
L55.4688 63.2812
L36.7188 63.2812
L36.7188 52.7344
L59.375 52.7344
L59.375 45.3125
L36.7188 45.3125
L36.7188 35.1562
L57.0312 35.1562
L57.0312 7.42188
Q57.0312 2.73438 54.4844 0.578125
Q51.9531 -1.5625 47.2656 -1.5625
Q44.5312 -1.5625 40.625 -1.17188
L39.0625 5.85938
Q44.1406 5.46875 46.875 5.46875
Q49.2188 5.46875 49.2188 8.98438
L49.2188 27.7344
L36.7188 27.7344
L36.7188 -8.98438
L28.9062 -8.98438
L28.9062 27.7344
L17.1875 27.7344
L17.1875 -1.17188
L9.375 -1.17188
L9.375 35.1562
L28.9062 35.1562
L28.9062 45.3125
L5.07812 45.3125
L5.07812 52.7344
L9.375 52.7344
L5.07812 56.25
Q12.5 66.0156 16.0156 78.9062
M28.9062 52.7344
L28.9062 63.2812
L17.9688 63.2812
Q15.625 57.4219 12.5 52.7344
z

M83.9844 80.4688
L91.7969 80.4688
L91.7969 1.17188
Q91.7969 -4.6875 89.6406 -6.82812
Q87.5 -8.98438 82.4219 -8.98438
Q75.3906 -8.98438 69.1406 -7.42188
L67.5781 0.390625
Q74.6094 -1.5625 81.25 -1.5625
Q83.9844 -1.5625 83.9844 3.125
z

M66.7969 70.3125
L74.6094 70.3125
L74.6094 13.6719
L66.7969 13.6719
z
" id="WenQuanYiMicroHei-5236"/>
     </defs>
     <g transform="translate(326.837355625 272.743520239)scale(0.09996 -0.09996)">
      <use xlink:href="#WenQuanYiMicroHei-63a7"/>
      <use x="100.0" xlink:href="#WenQuanYiMicroHei-5236"/>
      <use x="200.0" xlink:href="#WenQuanYiMicroHei-529b"/>
     </g>
    </g>
   </g>
  </g>
 </g>
 <defs>
  <clipPath id="p2215a5c9c0">
   <rect height="101.647058824" width="334.8" x="29.34274" y="134.175251526"/>
  </clipPath>
  <clipPath id="p8240e5ae93">
   <rect height="101.647058824" width="334.8" x="29.34274" y="12.1987809375"/>
  </clipPath>
  <clipPath id="pb96bbb3895">
   <rect height="101.647058824" width="334.8" x="29.34274" y="256.151722114"/>
  </clipPath>
 </defs>
</svg>
