<?xml version="1.0" encoding="utf-8" standalone="no"?>
<!DOCTYPE svg PUBLIC "-//W3C//DTD SVG 1.1//EN"
  "http://www.w3.org/Graphics/SVG/1.1/DTD/svg11.dtd">
<!-- Created with matplotlib (http://matplotlib.org/) -->
<svg height="230pt" version="1.1" viewBox="0 0 446 230" width="446pt" xmlns="http://www.w3.org/2000/svg" xmlns:xlink="http://www.w3.org/1999/xlink">
 <defs>
  <style type="text/css">
*{stroke-linecap:butt;stroke-linejoin:round;}
  </style>
 </defs>
 <g id="figure_1">
  <g id="patch_1">
   <path d="
M0 230.4
L446.4 230.4
L446.4 0
L0 0
z
" style="fill:#ffffff;"/>
  </g>
  <g id="patch_2">
   <path d="
M7.2 223.2
L439.2 223.2
L439.2 7.2
L7.2 7.2
z
" style="fill:#ffffff;"/>
  </g>
  <g id="pane3d_1">
   <g id="patch_3">
    <path d="
M64.4683 175.472
L188.109 122.513
L186.05 21.3187
L55.516 68.9006" style="fill:#f2f2f2;opacity:0.5;stroke:#f2f2f2;stroke-linejoin:miter;"/>
   </g>
  </g>
  <g id="pane3d_2">
   <g id="patch_4">
    <path d="
M188.109 122.513
L388.395 152.12
L396.775 47.8743
L186.05 21.3187" style="fill:#e6e6e6;opacity:0.5;stroke:#e6e6e6;stroke-linejoin:miter;"/>
   </g>
  </g>
  <g id="pane3d_3">
   <g id="patch_5">
    <path d="
M64.4683 175.472
L275.196 209.954
L388.395 152.12
L188.109 122.513" style="fill:#ececec;opacity:0.5;stroke:#ececec;stroke-linejoin:miter;"/>
   </g>
  </g>
  <g id="axis3d_1">
   <g id="line2d_1">
    <path d="
M64.4683 175.472
L275.196 209.954" style="fill:none;stroke:#000000;stroke-linecap:square;stroke-width:0.75;"/>
   </g>
   <g id="Line3DCollection_1">
    <defs>
     <path d="
M68.4981 -54.269
L191.952 -107.319
L190.085 -208.573" id="C0_0_34731ae135"/>
     <path d="
M92.8295 -50.2875
L215.143 -103.89
L214.44 -205.504" id="C0_1_98c8d0cf4b"/>
     <path d="
M117.425 -46.2629
L238.568 -100.428
L239.053 -202.402" id="C0_2_783c0627bd"/>
     <path d="
M142.288 -42.1944
L262.229 -96.9299
L263.927 -199.267" id="C0_3_fbc82e722d"/>
     <path d="
M167.425 -38.0812
L286.132 -93.3966
L289.067 -196.099" id="C0_4_02128c790c"/>
     <path d="
M192.838 -33.9227
L310.278 -89.8272
L314.477 -192.897" id="C0_5_1fa36abd53"/>
     <path d="
M218.534 -29.718
L334.672 -86.2211
L340.162 -189.66" id="C0_6_ab56e27bf0"/>
     <path d="
M244.516 -25.4665
L359.318 -82.5779
L366.125 -186.388" id="C0_7_87264ec4d9"/>
     <path d="
M270.789 -21.1673
L384.22 -78.8968
L392.373 -183.08" id="C0_8_711a89cd00"/>
    </defs>
    <use style="fill:none;stroke:#e6e6e6;stroke-width:2.0;" x="0.0" xlink:href="#C0_0_34731ae135" y="230.4"/>
    <use style="fill:none;stroke:#e6e6e6;stroke-width:2.0;" x="0.0" xlink:href="#C0_1_98c8d0cf4b" y="230.4"/>
    <use style="fill:none;stroke:#e6e6e6;stroke-width:2.0;" x="0.0" xlink:href="#C0_2_783c0627bd" y="230.4"/>
    <use style="fill:none;stroke:#e6e6e6;stroke-width:2.0;" x="0.0" xlink:href="#C0_3_fbc82e722d" y="230.4"/>
    <use style="fill:none;stroke:#e6e6e6;stroke-width:2.0;" x="0.0" xlink:href="#C0_4_02128c790c" y="230.4"/>
    <use style="fill:none;stroke:#e6e6e6;stroke-width:2.0;" x="0.0" xlink:href="#C0_5_1fa36abd53" y="230.4"/>
    <use style="fill:none;stroke:#e6e6e6;stroke-width:2.0;" x="0.0" xlink:href="#C0_6_ab56e27bf0" y="230.4"/>
    <use style="fill:none;stroke:#e6e6e6;stroke-width:2.0;" x="0.0" xlink:href="#C0_7_87264ec4d9" y="230.4"/>
    <use style="fill:none;stroke:#e6e6e6;stroke-width:2.0;" x="0.0" xlink:href="#C0_8_711a89cd00" y="230.4"/>
   </g>
   <g id="xtick_1">
    <g id="line2d_2">
     <path d="
M69.5616 175.674
L66.3672 177.047" style="fill:none;stroke:#000000;stroke-linecap:square;stroke-width:2.0;"/>
    </g>
    <g id="text_1">
     <!-- −20 -->
     <defs>
      <path d="
M49.2188 0
L4.6875 0
L4.6875 7.625
L21.7812 26.2188
Q25.4375 30.1719 28.3125 33.4375
Q31.2031 36.7188 33.2188 39.8438
Q35.25 42.9688 36.3281 46.1094
Q37.4062 49.2656 37.4062 52.9844
Q37.4062 55.8594 36.5781 58.0469
Q35.75 60.25 34.2031 61.7812
Q32.6719 63.3281 30.5625 64.1094
Q28.4688 64.8906 25.875 64.8906
Q21.2344 64.8906 17.5 63.0156
Q13.7656 61.1406 10.4062 58.2031
L5.42188 64.0156
Q7.375 65.7656 9.60938 67.2969
Q11.8594 68.8438 14.4531 69.9688
Q17.0469 71.0938 19.9219 71.75
Q22.7969 72.4062 25.9844 72.4062
Q30.6719 72.4062 34.4531 71.0938
Q38.2344 69.7812 40.8594 67.3125
Q43.5 64.8438 44.9375 61.2969
Q46.3906 57.7656 46.3906 53.3281
Q46.3906 49.1719 45.0938 45.4062
Q43.7969 41.6562 41.5312 38.0156
Q39.2656 34.375 36.1094 30.7031
Q32.9531 27.0469 29.2969 23.0938
L15.5781 8.5
L15.5781 8.10938
L49.2188 8.10938
z
" id="WenQuanYiMicroHei-32"/>
      <path d="
M50.3906 35.7969
Q50.3906 27.1562 49.1406 20.3125
Q47.9062 13.4844 45.1406 8.73438
Q42.3906 4 38.0312 1.5
Q33.6875 -0.984375 27.4844 -0.984375
Q21.7344 -0.984375 17.4531 1.5
Q13.1875 4 10.375 8.73438
Q7.5625 13.4844 6.17188 20.3125
Q4.78125 27.1562 4.78125 35.7969
Q4.78125 44.4375 6.03125 51.2656
Q7.28125 58.1094 9.98438 62.8125
Q12.7031 67.5312 17.0156 70.0156
Q21.3438 72.5156 27.4844 72.5156
Q33.2969 72.5156 37.5938 70.0469
Q41.8906 67.5781 44.7188 62.8594
Q47.5625 58.1562 48.9688 51.3125
Q50.3906 44.4844 50.3906 35.7969
M13.8125 35.7969
Q13.8125 28.4688 14.5469 23
Q15.2812 17.5312 16.8906 13.8906
Q18.5 10.25 21.1094 8.42188
Q23.7344 6.59375 27.4844 6.59375
Q31.25 6.59375 33.8906 8.39062
Q36.5312 10.2031 38.2031 13.8125
Q39.8906 17.4375 40.6406 22.9219
Q41.4062 28.4219 41.4062 35.7969
Q41.4062 43.1094 40.6406 48.5781
Q39.8906 54.0469 38.2031 57.6562
Q36.5312 61.2812 33.8906 63.0781
Q31.25 64.8906 27.4844 64.8906
Q23.7344 64.8906 21.1094 63.0781
Q18.5 61.2812 16.8906 57.6562
Q15.2812 54.0469 14.5469 48.5781
Q13.8125 43.1094 13.8125 35.7969" id="WenQuanYiMicroHei-30"/>
      <path d="
M4.98438 31.5938
L4.98438 38.9219
L50.0938 38.9219
L50.0938 31.5938
z
" id="WenQuanYiMicroHei-2212"/>
     </defs>
     <g transform="translate(53.7283532198 192.603389127)scale(0.09996 -0.09996)">
      <use xlink:href="#WenQuanYiMicroHei-2212"/>
      <use x="55.078125" xlink:href="#WenQuanYiMicroHei-32"/>
      <use x="110.15625" xlink:href="#WenQuanYiMicroHei-30"/>
     </g>
    </g>
   </g>
   <g id="xtick_2">
    <g id="line2d_3">
     <path d="
M93.8835 179.651
L90.7174 181.038" style="fill:none;stroke:#000000;stroke-linecap:square;stroke-width:2.0;"/>
    </g>
    <g id="text_2">
     <!-- −15 -->
     <defs>
      <path d="
M34.7188 0
L26.125 0
L26.125 44.5781
Q26.125 46.6875 26.1406 49.0781
Q26.1719 51.4688 26.2344 53.8281
Q26.3125 56.2031 26.3906 58.375
Q26.4688 60.5469 26.5156 62.2031
Q25.6875 61.3281 25.0469 60.6875
Q24.4219 60.0625 23.75 59.4688
Q23.0938 58.8906 22.3594 58.2188
Q21.625 57.5625 20.6094 56.6875
L13.375 50.7812
L8.6875 56.7812
L27.3906 71.3906
L34.7188 71.3906
z
" id="WenQuanYiMicroHei-31"/>
      <path d="
M26.6094 43.7969
Q31.4531 43.7969 35.625 42.4531
Q39.7969 41.1094 42.8906 38.4688
Q46 35.8438 47.75 31.9375
Q49.5156 28.0312 49.5156 22.9062
Q49.5156 17.3281 47.8438 12.8906
Q46.1875 8.45312 42.9219 5.375
Q39.6562 2.29688 34.8438 0.65625
Q30.0312 -0.984375 23.7812 -0.984375
Q21.2969 -0.984375 18.875 -0.734375
Q16.4531 -0.484375 14.2344 -0.015625
Q12.0156 0.4375 10.0156 1.17188
Q8.01562 1.90625 6.39062 2.875
L6.39062 11.2812
Q8.01562 10.1562 10.1875 9.28125
Q12.3594 8.40625 14.75 7.8125
Q17.1406 7.23438 19.5469 6.90625
Q21.9688 6.59375 24.0312 6.59375
Q27.875 6.59375 30.9062 7.5
Q33.9375 8.40625 36.0312 10.2969
Q38.1406 12.2031 39.25 15.0781
Q40.375 17.9688 40.375 21.9219
Q40.375 28.9062 36.0781 32.5938
Q31.7812 36.2812 23.5781 36.2812
Q22.2656 36.2812 20.7188 36.1562
Q19.1875 36.0312 17.6406 35.8281
Q16.1094 35.6406 14.7188 35.4219
Q13.3281 35.2031 12.3125 35.0156
L7.90625 37.7969
L10.5938 71.3906
L44.2812 71.3906
L44.2812 63.2812
L18.3125 63.2812
L16.4062 42.8281
Q17.9688 43.1094 20.5312 43.4531
Q23.0938 43.7969 26.6094 43.7969" id="WenQuanYiMicroHei-35"/>
     </defs>
     <g transform="translate(78.1010681008 196.638586579)scale(0.09996 -0.09996)">
      <use xlink:href="#WenQuanYiMicroHei-2212"/>
      <use x="55.078125" xlink:href="#WenQuanYiMicroHei-31"/>
      <use x="110.15625" xlink:href="#WenQuanYiMicroHei-35"/>
     </g>
    </g>
   </g>
   <g id="xtick_3">
    <g id="line2d_4">
     <path d="
M118.469 183.67
L115.332 185.073" style="fill:none;stroke:#000000;stroke-linecap:square;stroke-width:2.0;"/>
    </g>
    <g id="text_3">
     <!-- −10 -->
     <g transform="translate(102.650652781 200.717626518)scale(0.09996 -0.09996)">
      <use xlink:href="#WenQuanYiMicroHei-2212"/>
      <use x="55.078125" xlink:href="#WenQuanYiMicroHei-31"/>
      <use x="110.15625" xlink:href="#WenQuanYiMicroHei-30"/>
     </g>
    </g>
   </g>
   <g id="xtick_4">
    <g id="line2d_5">
     <path d="
M143.323 187.734
L140.216 189.152" style="fill:none;stroke:#000000;stroke-linecap:square;stroke-width:2.0;"/>
    </g>
    <g id="text_4">
     <!-- −5 -->
     <g transform="translate(130.309173482 204.841227371)scale(0.09996 -0.09996)">
      <use xlink:href="#WenQuanYiMicroHei-2212"/>
      <use x="55.078125" xlink:href="#WenQuanYiMicroHei-35"/>
     </g>
    </g>
   </g>
   <g id="xtick_5">
    <g id="line2d_6">
     <path d="
M168.449 191.842
L165.373 193.275" style="fill:none;stroke:#000000;stroke-linecap:square;stroke-width:2.0;"/>
    </g>
    <g id="text_5">
     <!-- 0 -->
     <g transform="translate(158.143170022 209.010123349)scale(0.09996 -0.09996)">
      <use xlink:href="#WenQuanYiMicroHei-30"/>
     </g>
    </g>
   </g>
   <g id="xtick_6">
    <g id="line2d_7">
     <path d="
M193.852 195.995
L190.807 197.444" style="fill:none;stroke:#000000;stroke-linecap:square;stroke-width:2.0;"/>
    </g>
    <g id="text_6">
     <!-- 5 -->
     <g transform="translate(183.680033128 213.22506488)scale(0.09996 -0.09996)">
      <use xlink:href="#WenQuanYiMicroHei-35"/>
     </g>
    </g>
   </g>
   <g id="xtick_7">
    <g id="line2d_8">
     <path d="
M219.537 200.194
L216.524 201.66" style="fill:none;stroke:#000000;stroke-linecap:square;stroke-width:2.0;"/>
    </g>
    <g id="text_7">
     <!-- 10 -->
     <g transform="translate(206.69323028 217.486819062)scale(0.09996 -0.09996)">
      <use xlink:href="#WenQuanYiMicroHei-31"/>
      <use x="55.078125" xlink:href="#WenQuanYiMicroHei-30"/>
     </g>
    </g>
   </g>
   <g id="xtick_8">
    <g id="line2d_9">
     <path d="
M245.507 204.44
L242.528 205.922" style="fill:none;stroke:#000000;stroke-linecap:square;stroke-width:2.0;"/>
    </g>
    <g id="text_8">
     <!-- 15 -->
     <g transform="translate(232.718870076 221.796170125)scale(0.09996 -0.09996)">
      <use xlink:href="#WenQuanYiMicroHei-31"/>
      <use x="55.078125" xlink:href="#WenQuanYiMicroHei-35"/>
     </g>
    </g>
   </g>
   <g id="xtick_9">
    <g id="line2d_10">
     <path d="
M271.769 208.734
L268.825 210.232" style="fill:none;stroke:#000000;stroke-linecap:square;stroke-width:2.0;"/>
    </g>
    <g id="text_9">
     <!-- 20 -->
     <g transform="translate(258.748930136 226.153919919)scale(0.09996 -0.09996)">
      <use xlink:href="#WenQuanYiMicroHei-32"/>
      <use x="55.078125" xlink:href="#WenQuanYiMicroHei-30"/>
     </g>
    </g>
   </g>
  </g>
  <g id="axis3d_2">
   <g id="line2d_11">
    <path d="
M388.395 152.12
L275.196 209.954" style="fill:none;stroke:#000000;stroke-linecap:square;stroke-width:0.75;"/>
   </g>
   <g id="Line3DCollection_2">
    <defs>
     <path d="
M58.3351 -162.527
L67.1283 -56.0678
L277.64 -21.6944" id="C1_0_edb2334c43"/>
     <path d="
M80.5616 -170.629
L88.1165 -65.0575
L296.906 -31.5377" id="C1_1_ad5abcbc2e"/>
     <path d="
M102.223 -178.525
L108.598 -73.8303
L315.687 -41.1326" id="C1_2_dd3530fbff"/>
     <path d="
M123.342 -186.223
L128.592 -82.3939
L333.999 -50.4885" id="C1_3_fdef6c0345"/>
     <path d="
M143.937 -193.73
L148.114 -90.7558
L351.861 -59.6141" id="C1_4_1332950087"/>
     <path d="
M164.028 -201.054
L167.182 -98.923
L369.289 -68.518" id="C1_5_2aa548ac98"/>
     <path d="
M183.633 -208.2
L185.81 -106.902
L386.298 -77.208" id="C1_6_2f5f49fa78"/>
    </defs>
    <use style="fill:none;stroke:#e6e6e6;stroke-width:2.0;" x="0.0" xlink:href="#C1_0_edb2334c43" y="230.4"/>
    <use style="fill:none;stroke:#e6e6e6;stroke-width:2.0;" x="0.0" xlink:href="#C1_1_ad5abcbc2e" y="230.4"/>
    <use style="fill:none;stroke:#e6e6e6;stroke-width:2.0;" x="0.0" xlink:href="#C1_2_dd3530fbff" y="230.4"/>
    <use style="fill:none;stroke:#e6e6e6;stroke-width:2.0;" x="0.0" xlink:href="#C1_3_fdef6c0345" y="230.4"/>
    <use style="fill:none;stroke:#e6e6e6;stroke-width:2.0;" x="0.0" xlink:href="#C1_4_1332950087" y="230.4"/>
    <use style="fill:none;stroke:#e6e6e6;stroke-width:2.0;" x="0.0" xlink:href="#C1_5_2aa548ac98" y="230.4"/>
    <use style="fill:none;stroke:#e6e6e6;stroke-width:2.0;" x="0.0" xlink:href="#C1_6_2f5f49fa78" y="230.4"/>
   </g>
   <g id="xtick_10">
    <g id="line2d_12">
     <path d="
M275.878 208.418
L281.168 209.282" style="fill:none;stroke:#000000;stroke-linecap:square;stroke-width:2.0;"/>
    </g>
    <g id="text_10">
     <!-- −30 -->
     <defs>
      <path d="
M46.9219 54.6875
Q46.9219 51.125 45.7969 48.1875
Q44.6719 45.2656 42.6406 43.1094
Q40.625 40.9688 37.7969 39.5781
Q34.9688 38.1875 31.5 37.5938
L31.5 37.3125
Q40.1406 36.2344 44.625 31.8125
Q49.125 27.3906 49.125 20.3125
Q49.125 15.625 47.5312 11.7188
Q45.9531 7.8125 42.7188 4.98438
Q39.5 2.15625 34.5625 0.578125
Q29.6406 -0.984375 22.9062 -0.984375
Q17.5781 -0.984375 12.8594 -0.140625
Q8.15625 0.6875 4 2.875
L4 11.1875
Q8.25 8.9375 13.2031 7.71875
Q18.1719 6.5 22.7031 6.5
Q27.2031 6.5 30.4688 7.46875
Q33.7344 8.45312 35.8594 10.25
Q37.9844 12.0625 38.9844 14.6875
Q39.9844 17.3281 39.9844 20.6094
Q39.9844 23.9219 38.6875 26.2812
Q37.4062 28.6562 35.0156 30.1875
Q32.625 31.7344 29.1719 32.4688
Q25.7344 33.2031 21.3906 33.2031
L14.8906 33.2031
L14.8906 40.5781
L21.3906 40.5781
Q25.3438 40.5781 28.4219 41.5469
Q31.5 42.5312 33.5625 44.3281
Q35.6406 46.1406 36.7188 48.625
Q37.7969 51.125 37.7969 54.1094
Q37.7969 56.6406 36.9062 58.6406
Q36.0312 60.6406 34.4219 62.0312
Q32.8125 63.4219 30.5625 64.1562
Q28.3281 64.8906 25.5938 64.8906
Q20.3594 64.8906 16.375 63.25
Q12.4062 61.625 8.79688 58.9844
L4.29688 65.0938
Q6.15625 66.6094 8.42188 67.9219
Q10.6875 69.2344 13.375 70.2344
Q16.0625 71.2344 19.1094 71.8125
Q22.1719 72.4062 25.5938 72.4062
Q30.8594 72.4062 34.8281 71.0938
Q38.8125 69.7812 41.5 67.4062
Q44.1875 65.0469 45.5469 61.7969
Q46.9219 58.5469 46.9219 54.6875" id="WenQuanYiMicroHei-33"/>
     </defs>
     <g transform="translate(282.052291328 224.127457272)scale(0.09996 -0.09996)">
      <use xlink:href="#WenQuanYiMicroHei-2212"/>
      <use x="55.078125" xlink:href="#WenQuanYiMicroHei-33"/>
      <use x="110.15625" xlink:href="#WenQuanYiMicroHei-30"/>
     </g>
    </g>
   </g>
   <g id="xtick_11">
    <g id="line2d_13">
     <path d="
M295.16 198.582
L300.403 199.424" style="fill:none;stroke:#000000;stroke-linecap:square;stroke-width:2.0;"/>
    </g>
    <g id="text_11">
     <!-- −20 -->
     <g transform="translate(301.155345035 214.188206787)scale(0.09996 -0.09996)">
      <use xlink:href="#WenQuanYiMicroHei-2212"/>
      <use x="55.078125" xlink:href="#WenQuanYiMicroHei-32"/>
      <use x="110.15625" xlink:href="#WenQuanYiMicroHei-30"/>
     </g>
    </g>
   </g>
   <g id="xtick_12">
    <g id="line2d_14">
     <path d="
M313.955 188.994
L319.153 189.815" style="fill:none;stroke:#000000;stroke-linecap:square;stroke-width:2.0;"/>
    </g>
    <g id="text_12">
     <!-- −10 -->
     <g transform="translate(319.776669741 204.499598178)scale(0.09996 -0.09996)">
      <use xlink:href="#WenQuanYiMicroHei-2212"/>
      <use x="55.078125" xlink:href="#WenQuanYiMicroHei-31"/>
      <use x="110.15625" xlink:href="#WenQuanYiMicroHei-30"/>
     </g>
    </g>
   </g>
   <g id="xtick_13">
    <g id="line2d_15">
     <path d="
M332.283 179.645
L337.436 180.445" style="fill:none;stroke:#000000;stroke-linecap:square;stroke-width:2.0;"/>
    </g>
    <g id="text_13">
     <!-- 0 -->
     <g transform="translate(343.429717657 195.052268698)scale(0.09996 -0.09996)">
      <use xlink:href="#WenQuanYiMicroHei-30"/>
     </g>
    </g>
   </g>
   <g id="xtick_14">
    <g id="line2d_16">
     <path d="
M350.159 170.526
L355.268 171.307" style="fill:none;stroke:#000000;stroke-linecap:square;stroke-width:2.0;"/>
    </g>
    <g id="text_14">
     <!-- 10 -->
     <g transform="translate(358.583113867 185.837316194)scale(0.09996 -0.09996)">
      <use xlink:href="#WenQuanYiMicroHei-31"/>
      <use x="55.078125" xlink:href="#WenQuanYiMicroHei-30"/>
     </g>
    </g>
   </g>
   <g id="xtick_15">
    <g id="line2d_17">
     <path d="
M367.601 161.628
L372.666 162.39" style="fill:none;stroke:#000000;stroke-linecap:square;stroke-width:2.0;"/>
    </g>
    <g id="text_15">
     <!-- 20 -->
     <g transform="translate(375.66381448 176.846271127)scale(0.09996 -0.09996)">
      <use xlink:href="#WenQuanYiMicroHei-32"/>
      <use x="55.078125" xlink:href="#WenQuanYiMicroHei-30"/>
     </g>
    </g>
   </g>
   <g id="xtick_16">
    <g id="line2d_18">
     <path d="
M384.625 152.944
L389.647 153.688" style="fill:none;stroke:#000000;stroke-linecap:square;stroke-width:2.0;"/>
    </g>
    <g id="text_16">
     <!-- 30 -->
     <g transform="translate(392.495224654 168.071070608)scale(0.09996 -0.09996)">
      <use xlink:href="#WenQuanYiMicroHei-33"/>
      <use x="55.078125" xlink:href="#WenQuanYiMicroHei-30"/>
     </g>
    </g>
   </g>
  </g>
  <g id="axis3d_3">
   <g id="line2d_19">
    <path d="
M388.395 152.12
L396.775 47.8743" style="fill:none;stroke:#000000;stroke-linecap:square;stroke-width:0.75;"/>
   </g>
   <g id="Line3DCollection_3">
    <defs>
     <path d="
M388.555 -80.2623
L188.07 -109.816
L64.2983 -56.9519" id="C2_0_be7a87efd9"/>
     <path d="
M390.101 -99.5004
L187.689 -128.522
L62.6484 -76.5928" id="C2_1_31ba2d022d"/>
     <path d="
M391.678 -119.115
L187.302 -147.58
L60.9651 -96.631" id="C2_2_dcdd4a4f1f"/>
     <path d="
M393.286 -139.118
L186.907 -166.998
L59.2475 -117.079" id="C2_3_889bd2dff6"/>
     <path d="
M394.926 -159.52
L186.504 -186.787
L57.4943 -137.949" id="C2_4_acec385a04"/>
     <path d="
M396.599 -180.333
L186.094 -206.958
L55.7046 -159.254" id="C2_5_3f2932cfbc"/>
    </defs>
    <use style="fill:none;stroke:#e6e6e6;stroke-width:2.0;" x="0.0" xlink:href="#C2_0_be7a87efd9" y="230.4"/>
    <use style="fill:none;stroke:#e6e6e6;stroke-width:2.0;" x="0.0" xlink:href="#C2_1_31ba2d022d" y="230.4"/>
    <use style="fill:none;stroke:#e6e6e6;stroke-width:2.0;" x="0.0" xlink:href="#C2_2_dcdd4a4f1f" y="230.4"/>
    <use style="fill:none;stroke:#e6e6e6;stroke-width:2.0;" x="0.0" xlink:href="#C2_3_889bd2dff6" y="230.4"/>
    <use style="fill:none;stroke:#e6e6e6;stroke-width:2.0;" x="0.0" xlink:href="#C2_4_acec385a04" y="230.4"/>
    <use style="fill:none;stroke:#e6e6e6;stroke-width:2.0;" x="0.0" xlink:href="#C2_5_3f2932cfbc" y="230.4"/>
   </g>
   <g id="xtick_17">
    <g id="line2d_20">
     <path d="
M386.882 149.891
L391.904 150.631" style="fill:none;stroke:#000000;stroke-linecap:square;stroke-width:2.0;"/>
    </g>
    <g id="text_17">
     <!-- 0 -->
     <g transform="translate(403.826512758 156.471312434)scale(0.09996 -0.09996)">
      <use xlink:href="#WenQuanYiMicroHei-30"/>
     </g>
    </g>
   </g>
   <g id="xtick_18">
    <g id="line2d_21">
     <path d="
M388.411 130.657
L393.484 131.385" style="fill:none;stroke:#000000;stroke-linecap:square;stroke-width:2.0;"/>
    </g>
    <g id="text_18">
     <!-- 10 -->
     <g transform="translate(402.982463667 137.255417399)scale(0.09996 -0.09996)">
      <use xlink:href="#WenQuanYiMicroHei-31"/>
      <use x="55.078125" xlink:href="#WenQuanYiMicroHei-30"/>
     </g>
    </g>
   </g>
   <g id="xtick_19">
    <g id="line2d_22">
     <path d="
M389.971 111.047
L395.095 111.761" style="fill:none;stroke:#000000;stroke-linecap:square;stroke-width:2.0;"/>
    </g>
    <g id="text_19">
     <!-- 20 -->
     <g transform="translate(404.529553067 117.663976776)scale(0.09996 -0.09996)">
      <use xlink:href="#WenQuanYiMicroHei-32"/>
      <use x="55.078125" xlink:href="#WenQuanYiMicroHei-30"/>
     </g>
    </g>
   </g>
   <g id="xtick_20">
    <g id="line2d_23">
     <path d="
M391.562 91.0493
L396.737 91.7485" style="fill:none;stroke:#000000;stroke-linecap:square;stroke-width:2.0;"/>
    </g>
    <g id="text_20">
     <!-- 30 -->
     <g transform="translate(406.276680798 97.6858727173)scale(0.09996 -0.09996)">
      <use xlink:href="#WenQuanYiMicroHei-33"/>
      <use x="55.078125" xlink:href="#WenQuanYiMicroHei-30"/>
     </g>
    </g>
   </g>
   <g id="xtick_21">
    <g id="line2d_24">
     <path d="
M393.184 70.6523
L398.413 71.3364" style="fill:none;stroke:#000000;stroke-linecap:square;stroke-width:2.0;"/>
    </g>
    <g id="text_21">
     <!-- 40 -->
     <defs>
      <path d="
M53.0781 16.0156
L42.6719 16.0156
L42.6719 0
L34.0781 0
L34.0781 16.0156
L1.125 16.0156
L1.125 23.7812
L33.5 71.7812
L42.6719 71.7812
L42.6719 24.125
L53.0781 24.125
z

M34.0781 24.125
L34.0781 41.5
Q34.0781 44.2344 34.1562 47.2344
Q34.2344 50.25 34.3281 53.0938
Q34.4219 55.9531 34.5469 58.4375
Q34.6719 60.9375 34.7188 62.5938
L34.2812 62.5938
Q33.9375 61.625 33.4219 60.4219
Q32.9062 59.2344 32.2969 58.0312
Q31.6875 56.8438 31.0469 55.7188
Q30.4219 54.5938 29.8906 53.8125
L9.8125 24.125
z
" id="WenQuanYiMicroHei-34"/>
     </defs>
     <g transform="translate(407.949987785 77.3095441535)scale(0.09996 -0.09996)">
      <use xlink:href="#WenQuanYiMicroHei-34"/>
      <use x="55.078125" xlink:href="#WenQuanYiMicroHei-30"/>
     </g>
    </g>
   </g>
   <g id="xtick_22">
    <g id="line2d_25">
     <path d="
M394.839 49.844
L400.123 50.5122" style="fill:none;stroke:#000000;stroke-linecap:square;stroke-width:2.0;"/>
    </g>
    <g id="text_22">
     <!-- 50 -->
     <g transform="translate(410.066746151 56.5229644782)scale(0.09996 -0.09996)">
      <use xlink:href="#WenQuanYiMicroHei-35"/>
      <use x="55.078125" xlink:href="#WenQuanYiMicroHei-30"/>
     </g>
    </g>
   </g>
  </g>
  <g id="axes_1">
   <g id="line2d_26">
    <path clip-path="url(#pa26e3a78d9)" d="
M230.934 160.724
L231.896 160.831
L234.174 160.752
L237.495 160.339
L242.674 159.497
L250.868 157.911
L256.596 156.643
L263.755 154.88
L272.638 152.412
L283.536 148.952
L296.669 144.118
L312.047 137.449
L329.237 128.49
L347.027 117.011
L363.09 103.411
L373.966 89.1998
L375.87 77.1282
L366.522 70.2739
L346.941 70.1843
L321.308 75.6939
L294.651 83.8639
L250.466 98.6713
L234.516 103.667
L222.113 107.275
L186.274 117.076
L182.727 117.88
L179.252 118.472
L175.758 118.816
L172.203 118.874
L168.59 118.61
L164.964 117.991
L161.415 116.996
L158.069 115.624
L155.084 113.898
L152.636 111.874
L150.899 109.648
L150.018 107.346
L150.086 105.124
L151.12 103.139
L153.055 101.538
L155.748 100.428
L158.998 99.8679
L162.576 99.863
L166.253 100.372
L169.821 101.321
L173.113 102.616
L176.002 104.163
L178.403 105.87
L180.265 107.657
L181.566 109.456
L182.302 111.212
L182.48 112.878
L182.116 114.416
L181.23 115.791
L179.848 116.971
L177.997 117.925
L175.711 118.62
L173.037 119.022
L170.035 119.097
L166.785 118.813
L163.394 118.142
L159.999 117.069
L156.765 115.598
L153.881 113.76
L151.547 111.62
L149.954 109.285
L149.255 106.895
L149.541 104.615
L150.819 102.611
L153.008 101.032
L155.946 99.9817
L159.415 99.5112
L163.173 99.6144
L166.983 100.239
L170.638 101.3
L173.973 102.7
L176.866 104.337
L179.241 106.12
L181.054 107.968
L182.286 109.814
L182.94 111.605
L183.025 113.296
L182.561 114.848
L181.569 116.228
L180.074 117.406
L178.104 118.348
L175.695 119.021
L172.893 119.391
L169.762 119.423
L166.385 119.081
L162.875 118.339
L159.376 117.179
L156.062 115.608
L153.135 113.66
L150.803 111.409
L149.263 108.968
L148.671 106.49
L149.112 104.15
L150.583 102.121
L152.983 100.554
L156.132 99.5523
L159.795 99.1582
L163.716 99.3563
L167.652 100.084
L171.392 101.248
L174.774 102.742
L177.682 104.464
L180.043 106.319
L181.821 108.226
L183.002 110.121
L183.591 111.949
L183.602 113.668
L183.056 115.24
L181.974 116.634
L180.381 117.816
L178.307 118.756
L175.787 119.42
L172.868 119.77
L169.614 119.771
L166.111 119.386
L162.479 118.585
L158.867 117.351
L155.459 115.691
L152.466 113.643
L150.107 111.284
L148.589 108.737
L148.07 106.165
L148.634 103.752
L150.267 101.683
L152.854 100.11
L156.198 99.1368
L160.046 98.7996
L164.131 99.0746
L168.198 99.8897
L172.037 101.144
L175.483 102.725
L178.425 104.526
L180.796 106.451
L182.561 108.418
L183.714 110.363
L184.262 112.233
L184.221 113.986
L183.613 115.586
L182.462 117.001
L180.792 118.2
L178.631 119.15
L176.015 119.817
L172.99 120.163
L169.621 120.149
L165.996 119.737
L162.237 118.895
L158.5 117.604
L154.977 115.87
L151.889 113.731
L149.467 111.269
L147.928 108.615
L147.437 105.94
L148.08 103.439
L149.838 101.307
L152.584 99.7029
L156.105 98.7309
L160.132 98.4253
L164.382 98.7551
L168.594 99.64
L172.549 100.971
L176.083 102.631
L179.086 104.506
L181.493 106.499
L183.275 108.527
L184.427 110.527
L184.961 112.445
L184.895 114.24
L184.252 115.877
L183.055 117.325
L181.33 118.553
L179.104 119.527
L176.41 120.213
L173.295 120.572
L169.821 120.563
L166.077 120.145
L162.187 119.284
L158.31 117.957
L154.647 116.167
L151.427 113.952
L148.895 111.395
L147.28 108.632
L146.76 105.841
L147.427 103.231
L149.262 101.007
L152.13 99.3381
L155.806 98.3332
L160.005 98.0268
L164.428 98.3838
L168.801 99.317
L172.898 100.71
L176.55 102.437
L179.647 104.383
L182.125 106.443
L183.958 108.536
L185.143 110.596
L185.696 112.569
L185.636 114.416
L184.987 116.101
L183.774 117.595
L182.022 118.865
L179.755 119.88
L177.007 120.605
L173.82 120.998
L170.255 121.018
L166.399 120.62
L162.375 119.767
L158.344 118.431
L154.511 116.61
L151.115 114.338
L148.415 111.696
L146.656 108.823
L146.034 105.904
L146.653 103.159
L148.503 100.806
L151.447 99.0296
L155.25 97.9475
L159.611 97.599
L164.215 97.9481
L168.771 98.9023
L173.042 100.338
L176.85 102.122
L180.082 104.132
L182.674 106.261
L184.599 108.422
L185.858 110.548
L186.468 112.586
L186.451 114.496
L185.833 116.242
L184.638 117.796
L182.891 119.126
L180.616 120.201
L177.841 120.985
L174.608 121.437
L170.971 121.514
L167.016 121.167
L162.858 120.355
L158.66 119.043
L154.627 117.223
L151.007 114.921
L148.071 112.213
L146.085 109.234
L145.268 106.175
L145.748 103.266
L147.53 100.741
L150.486 98.8029
L154.375 97.587
L158.883 97.143
L163.675 97.4385
L168.441 98.3783
L172.924 99.8318
L176.936 101.659
L180.353 103.727
L183.109 105.923
L185.178 108.157
L186.56 110.357
L187.274 112.471
L187.345 114.455
L186.8 116.278
L185.664 117.908
L183.962 119.317
L181.716 120.473
L178.952 121.341
L175.705 121.88
L172.025 122.045
L167.989 121.785
L163.708 121.054
L159.335 119.809
L155.075 118.033
L151.18 115.739
L147.933 112.993
L145.623 109.922
L144.497 106.716
L144.719 103.613
L146.323 100.866
L149.201 98.7022
L153.115 97.2809
L157.742 96.6718
L162.723 96.8528
L167.724 97.7302
L172.465 99.1677
L176.736 101.015
L180.401 103.131
L183.385 105.394
L185.658 107.704
L187.223 109.988
L188.097 112.189
L188.309 114.263
L187.888 116.177
L186.862 117.902
L185.253 119.41
L183.083 120.67
L180.375 121.649
L177.158 122.306
L173.475 122.595
L169.392 122.464
L165.008 121.86
L160.466 120.735
L155.962 119.057
L151.746 116.824
L148.11 114.085
L145.365 110.952
L143.794 107.605
L143.607 104.286
L144.885 101.266
L147.556 98.8007
L151.4 97.0851
L156.091 96.2197
L161.249 96.2035
L166.507 96.951
L171.553 98.323
L176.149 100.16
L180.136 102.306
L183.425 104.629
L185.98 107.02
L187.8 109.396
L188.904 111.696
L189.323 113.876
L189.088 115.9
L188.23 117.74
L186.773 119.368
L184.737 120.758
L182.143 121.875
L179.013 122.683
L175.381 123.135
L171.3 123.178
L166.853 122.756
L162.168 121.811
L157.422 120.3
L152.855 118.2
L148.761 115.537
L145.467 112.396
L143.297 108.939
L142.515 105.4
L143.268 102.063
L145.547 99.2157
L149.172 97.0985
L153.827 95.8585
L159.116 95.5313
L164.638 96.0516
L170.034 97.2834
L175.027 99.058
L179.425 101.206
L183.115 103.575
L186.046 106.045
L188.213 108.521
L189.633 110.935
L190.339 113.237
L190.368 115.391
L189.751 117.366
L188.516 119.139
L186.685 120.683
L184.276 121.969
L181.305 122.96
L177.797 123.615
L173.79 123.88
L169.347 123.698
L164.573 123.005
L159.62 121.742
L154.706 119.869
L150.11 117.378
L146.168 114.321
L143.236 110.824
L141.642 107.099
L141.618 103.428
L143.244 100.127
L146.415 97.4886
L150.855 95.7249
L156.169 94.931
L161.919 95.0817
L167.693 96.0576
L173.156 97.686
L178.066 99.7803
L182.272 102.169
L185.7 104.708
L188.33 107.288
L190.177 109.828
L191.274 112.27
L191.66 114.573
L191.375 116.708
L190.449 118.65
L188.909 120.375
L186.771 121.857
L184.049 123.066
L180.758 123.961
L176.922 124.496
L172.584 124.613
L167.816 124.245
L162.739 123.324
L157.532 121.788
L152.447 119.599
L147.804 116.763
L143.975 113.356
L141.343 109.543
L140.237 105.58
L140.859 101.793
L143.224 98.5239
L147.144 96.0643
L152.261 94.5976
L158.117 94.1715
L164.244 94.7095
L170.229 96.0495
L175.757 97.9918
L180.617 100.339
L184.692 102.918
L187.937 105.595
L190.355 108.269
L191.976 110.868
L192.844 113.344
L193.004 115.663
L192.496 117.8
L191.35 119.733
L189.588 121.441
L187.224 122.897
L184.266 124.069
L180.727 124.916
L176.626 125.385
L172.008 125.412
L166.951 124.926
L161.585 123.85
L156.111 122.116
L150.806 119.685
L146.026 116.57
L142.18 112.862
L139.682 108.757
L138.871 104.55
L139.934 100.604
L142.842 97.2892
L147.343 94.9033
L153.012 93.6121
L159.338 93.4292
L165.824 94.2388
L172.05 95.8456
L177.712 98.0274
L182.618 100.576
L186.675 103.317
L189.857 106.119
L192.185 108.888
L193.701 111.559
L194.459 114.089
L194.507 116.45
L193.886 118.62
L192.627 120.581
L190.749 122.314
L188.262 123.792
L185.168 124.984
L181.475 125.848
L177.196 126.327
L172.37 126.354
L167.07 125.85
L161.429 124.73
L155.651 122.916
L150.029 120.358
L144.947 117.061
L140.848 113.119
L138.189 108.738
L137.346 104.24
L138.525 100.026
L141.691 96.5035
L146.561 93.997
L152.658 92.6809
L159.423 92.5581
L166.312 93.4892
L172.884 95.2517
L178.822 97.6001
L183.939 100.31
L188.148 103.198
L191.438 106.131
L193.84 109.012
L195.409 111.782
L196.204 114.4
L196.281 116.841
L195.685 119.088
L194.449 121.125
L192.589 122.935
L190.114 124.497
L187.021 125.78
L183.308 126.744
L178.979 127.333
L174.057 127.479
L168.601 127.097
L162.723 126.093
L156.614 124.375
L150.561 121.869
L144.951 118.553
L140.259 114.495
L136.995 109.882
L135.611 105.038
L136.392 100.392
L139.367 96.406
L144.275 93.4693
L150.62 91.8116
L157.788 91.466
L165.171 92.2953
L172.263 94.0578
L178.705 96.4793
L184.281 99.3068
L188.895 102.336
L192.534 105.415
L195.237 108.443
L197.066 111.354
L198.092 114.108
L198.381 116.68
L197.986 119.057
L196.945 121.228
L195.278 123.179
L192.994 124.894
L190.087 126.35
L186.547 127.51
L182.362 128.326
L177.534 128.734
L172.091 128.649
L166.108 127.973
L159.727 126.597
L153.191 124.417
L146.852 121.364
L141.184 117.44
L136.741 112.764
L134.083 107.605
L133.655 102.387
L135.656 97.6219
L139.964 93.808
L146.143 91.3059
L153.547 90.2592
L161.476 90.5918
L169.307 92.0691
L176.572 94.3865
L182.975 97.2439
L188.368 100.39
L192.716 103.637
L196.049 106.856
L198.44 109.967
L199.97 112.922
L200.719 115.693
L200.758 118.269
L200.136 120.641
L198.888 122.804
L197.028 124.747
L194.553 126.457
L191.449 127.909
L187.694 129.068
L183.266 129.88
L178.155 130.277
L172.377 130.166
L166.001 129.435
L159.171 127.958
L152.141 125.613
L145.298 122.309
L139.169 118.037
L134.38 112.922
L131.573 107.267
L131.253 101.555
L133.637 96.3772
L138.559 92.3012
L145.491 89.7207
L153.68 88.7681
L162.333 89.3209
L170.771 91.0853
L178.506 93.7049
L185.25 96.8446
L190.878 100.236
L195.38 103.687
L198.816 107.073
L201.278 110.318
L202.867 113.384
L203.676 116.251
L203.784 118.914
L203.248 121.37
L202.105 123.619
L200.37 125.66
L198.037 127.481
L195.087 129.068
L191.487 130.389
L187.199 131.401
L182.188 132.04
L176.438 132.218
L169.971 131.822
L162.876 130.714
L155.344 128.741
L147.707 125.762
L140.461 121.689
L134.268 116.551
L129.881 110.562
L128.008 104.166
L129.111 98.0007
L133.241 92.7722
L139.975 89.0662
L148.529 87.1873
L157.972 87.1097
L167.445 88.5485
L176.301 91.0938
L184.135 94.3334
L190.762 97.9262
L196.145 101.626
L200.345 105.272
L203.472 108.773
L205.648 112.079
L206.994 115.171
L207.612 118.046
L207.583 120.709
L206.963 123.166
L205.783 125.423
L204.052 127.484
L201.758 129.346
L198.87 130.996
L195.342 132.411
L191.118 133.552
L186.139 134.362
L180.357 134.756
L173.749 134.619
L166.352 133.804
L158.295 132.134
L149.852 129.418
L141.487 125.493
L133.88 120.29
L127.892 113.924
L124.437 106.783
L124.25 99.5393
L127.633 93.0468
L134.296 88.1119
L143.417 85.2474
L153.891 84.5443
L164.638 85.7213
L174.815 88.292
L183.889 91.7402
L191.608 95.6325
L197.925 99.6576
L202.912 103.619
L206.708 107.405
L209.47 110.965
L211.351 114.281
L212.486 117.356
L212.985 120.202
L212.928 122.834
L212.37 125.269
L211.34 127.52
L209.845 129.598
L207.867 131.508
L205.371 133.248
L202.301 134.807
L198.589 136.164
L194.15 137.279
L188.895 138.092
L182.74 138.511
L175.624 138.411
L167.541 137.617
L158.585 135.912
L149.017 133.044
L139.333 128.769
L130.318 122.936
L123.034 115.608
L118.671 107.205
L118.239 98.5532
L122.188 90.763
L130.161 84.9052
L141.072 81.6419
L153.476 81.0424
L166.011 82.6745
L177.682 85.8656
L187.919 89.9499
L196.506 94.407
L203.461 98.8919
L208.932 103.207
L213.123 107.256
L216.246 111.006
L218.501 114.458
L220.059 117.63
L221.06 120.546
L221.614 123.232
L221.803 125.715
L221.682 128.018
L221.286 130.16
L220.63 132.16
L219.714 134.033
L218.522 135.79
L217.022 137.44
L215.171 138.991
L212.907 140.442
L210.154 141.79
L206.818 143.023
L202.787 144.115
L197.929 145.024
L192.101 145.682
L185.154 145.98
L176.955 145.76
L167.426 144.79
L156.61 142.758
L144.772 139.275
L132.53 133.919
L120.98 126.371
L111.716 116.636
L106.598 105.319
L107.178 93.7589
L113.981 83.7657
L126.108 76.9534
L141.565 74.0619
L158.08 74.7799
L173.847 78.1175
L187.804 82.9474
L199.541 88.3621
L209.073 93.7782
L216.634 98.8861
L222.549 103.558
L227.152 107.766
L230.754 111.531
L233.626 114.893
L239.965 122.962
L241.85 125.084
L243.828 126.955
L245.998 128.583
L248.458 129.965
L251.302 131.089
L254.626 131.934
L258.532 132.46
L263.126 132.617
L268.512 132.331
L274.785 131.509
L282.012 130.037
L290.204 127.782
L299.268 124.612
L308.947 120.423
L318.75 115.197
L327.901 109.082
L335.345 102.47
L339.881 96.0344
L340.451 90.643
L336.523 87.1193
L328.377 85.9295
L317.08 86.9896
L304.144 89.7396
L291.04 93.4275
L278.866 97.3984
L268.244 101.237
L259.396 104.762
L252.282 107.946
L246.719 110.834
L242.472 113.494
L239.298 115.982
L236.978 118.341
L235.326 120.594
L234.189 122.755
L233.45 124.827
L233.018 126.81
L232.829 128.703
L232.837 130.502
L233.014 132.205
L233.345 133.809
L233.826 135.313
L234.464 136.715
L235.275 138.011
L236.283 139.198
L237.523 140.271
L239.041 141.221
L240.892 142.037
L243.147 142.7
L245.895 143.185
L249.238 143.456
L253.301 143.461
L258.23 143.13
L264.186 142.365
L271.337 141.033
L279.842 138.961
L289.806 135.93
L301.21 131.693
L313.808 126.008
L326.978 118.737
L339.57 109.998
L349.855 100.367
L355.726 91.0102
L355.3 83.5327
L347.783 79.4119
L334.062 79.2466
L316.458 82.4236
L297.726 87.5393
L280.061 93.1805
L264.688 98.4363
L251.996 102.951
L241.858 106.727
L233.909 109.92
L227.714 112.702
L222.851 115.215
L218.952 117.55
L215.701 119.759
L207.477 125.785
L204.648 127.571
L201.542 129.213
L198.043 130.683
L194.045 131.939
L189.452 132.928
L184.184 133.579
L178.184 133.796
L171.437 133.455
L164.001 132.405
L156.039 130.472
L147.868 127.486
L139.992 123.32
L133.111 117.965
L128.059 111.612
L125.653 104.711
L126.471 97.9573
L130.633 92.1503
L137.712 87.977
L146.848 85.8099
L156.996 85.6353
L167.19 87.1337
L176.708 89.8383
L185.11 93.2831
L192.203 97.0878
L197.961 100.984
L202.466 104.803
L205.847 108.449
L208.248 111.879
L209.808 115.078
L210.644 118.046
L210.849 120.794
L210.493 123.335
L209.615 125.681
L208.232 127.842
L206.34 129.821
L203.911 131.616
L200.9 133.218
L197.247 134.602
L192.879 135.73
L187.72 136.542
L181.699 136.95
L174.774 136.829
L166.956 136.019
L158.358 134.315
L149.248 131.494
L140.113 127.345
L131.699 121.754
L124.986 114.814
L121.042 106.935
L120.755 98.8817
L124.502 91.6543
L131.949 86.2055
L142.12 83.1284
L153.718 82.4988
L165.504 83.9493
L176.546 86.8875
L186.293 90.7123
L194.513 94.9402
L201.195 99.2404
L206.457 103.415
L210.475 107.362
L213.438 111.041
L215.527 114.445
L216.896 117.585
L217.674 120.481
L217.957 123.157
L217.815 125.634
L217.291 127.932
L216.405 130.069
L215.157 132.059
L213.528 133.911
L211.481 135.631
L208.96 137.217
L205.892 138.662
L202.189 139.945
L197.745 141.031
L192.444 141.862
L186.164 142.35
L178.8 142.364
L170.288 141.721
L160.658 140.172
L150.106 137.411
L139.092 133.101
L128.438 126.966
L119.362 118.94
L113.357 109.373
L111.828 99.1697
L115.565 89.7043
L124.307 82.4124
L136.767 78.2472
L151.114 77.3575
L165.613 79.1893
L179.028 82.8585
L190.698 87.5091
L200.412 92.4988
L208.245 97.4265
L214.413 102.081
L219.186 106.376
L222.837 110.292
L225.616 113.847
L227.737 117.07
L229.378 119.997
L231.773 125.088
L233.65 129.337
L234.577 131.194
L235.573 132.889
L236.69 134.432
L237.98 135.824
L239.497 137.067
L241.303 138.153
L243.468 139.071
L246.072 139.801
L249.211 140.314
L252.997 140.567
L257.558 140.501
L263.036 140.032
L269.581 139.05
L277.335 137.408
L286.399 134.923
L296.784 131.383
L308.324 126.573
L320.561 120.345
L332.617 112.729
L343.117 104.093
L350.284 95.2867
L352.326 87.6028
L348.107 82.4351
L337.789 80.6749
L322.936 82.2459
L305.897 86.1894
L288.911 91.23
L273.504 96.3417
L260.398 100.971
L249.715 104.963
L241.243 108.38
L234.629 111.362
L229.489 114.042
L225.464 116.522
L222.242 118.864
L219.562 121.105
L212.786 127.303
L210.445 129.181
L207.859 130.946
L204.921 132.58
L201.527 134.058
L197.572 135.345
L192.951 136.394
L187.564 137.135
L181.326 137.47
L174.183 137.268
L166.145 136.355
L157.331 134.517
L148.028 131.52
L138.758 127.15
L130.31 121.299
L123.711 114.087
L120.063 105.974
L120.241 97.7846
L124.557 90.5658
L132.577 85.2747
L143.228 82.4618
L155.157 82.1345
L167.118 83.8638
L178.209 87.0219
L187.917 90.9992
L196.051 95.3204
L202.629 99.6693
L207.789 103.862
L211.716 107.809
L214.61 111.475
L216.652 114.861
L217.999 117.98
L218.779 120.855
L219.09 123.51
L219 125.968
L218.554 128.25
L217.773 130.373
L216.66 132.353
L215.199 134.201
L213.355 135.925
L211.078 137.526
L208.299 139
L204.935 140.334
L200.882 141.501
L196.025 142.457
L190.234 143.131
L183.386 143.415
L175.378 143.152
L166.169 142.123
L155.845 140.039
L144.707 136.554
L133.382 131.319
L122.913 124.105
L114.74 114.997
L110.47 104.611
L111.374 94.1625
L117.814 85.2128
L128.962 79.1161
L143.086 76.4887
L158.222 77.0781
L172.773 80.0584
L185.759 84.4651
L196.761 89.4959
L205.747 94.6121
L212.894 99.5107
L218.475 104.053
L222.782 108.195
L226.09 111.946
L228.645 115.334
L230.652 118.395
L233.672 123.675
L236.165 128.021
L237.439 129.892
L238.829 131.58
L240.403 133.087
L242.229 134.415
L244.379 135.554
L246.934 136.49
L249.985 137.198
L253.636 137.64
L258.001 137.763
L263.209 137.494
L269.392 136.733
L276.672 135.354
L285.136 133.197
L294.79 130.08
L305.49 125.819
L316.846 120.284
L328.121 113.489
L338.158 105.722
L345.442 97.6585
L348.388 90.3631
L345.861 85.0494
L337.734 82.6176
L325.092 83.225
L309.859 86.2347
L294.077 90.5956
L279.311 95.334
L266.438 99.8318
L255.754 103.835
L247.18 107.33
L240.453 110.407
L235.242 113.179
L231.223 115.74
L228.102 118.156
L225.628 120.466
L223.593 122.689
L216.886 130.787
L215.016 132.598
L212.887 134.314
L210.413 135.925
L207.502 137.419
L204.053 138.774
L199.957 139.961
L195.096 140.929
L189.346 141.606
L182.59 141.884
L174.741 141.609
L165.775 140.571
L155.795 138.498
L145.109 135.073
L134.332 129.986
L124.455 123.052
L116.816 114.385
L112.877 104.579
L113.775 94.7571
L119.823 86.3392
L130.27 80.5531
L143.55 77.9746
L157.867 78.4057
L171.728 81.1208
L184.185 85.2456
L194.803 90.0318
L203.515 94.9612
L210.462 99.7306
L215.883 104.192
L220.046 108.292
L223.205 112.028
L225.59 115.425
L227.393 118.512
L228.772 121.324
L230.736 126.242
L232.921 132.205
L233.671 133.882
L234.505 135.421
L235.463 136.828
L236.588 138.105
L237.925 139.25
L239.531 140.26
L241.467 141.122
L243.81 141.821
L246.65 142.33
L250.093 142.614
L254.266 142.619
L259.313 142.273
L265.393 141.476
L272.67 140.091
L281.289 137.944
L291.334 134.818
L302.759 130.472
L315.27 124.684
L328.19 117.35
L340.32 108.644
L349.915 99.2027
L354.932 90.2261
L353.652 83.2793
L345.503 79.7094
L331.539 79.9532
L314.096 83.3074
L295.808 88.3949
L278.705 93.8973
L263.889 98.9938
L251.685 103.379
L241.948 107.069
L234.318 110.215
L228.374 112.979
L223.712 115.49
L219.977 117.835
L216.868 120.061
L209.019 126.159
L206.321 127.981
L203.354 129.668
L200.005 131.196
L196.165 132.528
L191.736 133.615
L186.626 134.393
L180.764 134.773
L174.112 134.636
L166.692 133.833
L158.624 132.185
L150.17 129.501
L141.785 125.614
L134.14 120.452
L128.088 114.122
L124.541 107.002
L124.245 99.7565
L127.514 93.2347
L134.078 88.2472
L143.13 85.3178
L153.569 84.5509
L164.313 85.6751
L174.508 88.2081
L183.615 91.6335
L191.373 95.5147
L197.728 99.5369
L202.752 103.5
L206.58 107.292
L209.37 110.858
L211.274 114.181
L212.429 117.262
L212.944 120.114
L212.9 122.752
L212.355 125.192
L211.336 127.449
L209.851 129.531
L207.884 131.445
L205.398 133.189
L202.341 134.753
L198.642 136.115
L194.218 137.235
L188.981 138.054
L182.845 138.482
L175.75 138.392
L167.689 137.612
L158.753 135.926
L149.201 133.083
L139.521 128.838
L130.495 123.038
L123.178 115.742
L118.758 107.361
L118.25 98.7142
L122.115 90.9072
L130.013 85.0128
L140.869 81.7023
L153.245 81.0556
L165.776 82.6492
L177.459 85.8135
L187.717 89.8822
L196.329 94.3322
L203.309 98.8158
L208.802 103.133
L213.011 107.186
L216.15 110.94
L218.416 114.397
L219.982 117.573
L220.989 120.493
L221.546 123.184
L221.735 125.671
L221.613 127.977
L221.213 130.122
L220.552 132.125
L219.629 133.999
L218.427 135.758
L216.916 137.411
L215.05 138.962
L212.768 140.414
L209.995 141.762
L206.634 142.993
L202.573 144.081
L197.682 144.984
L191.816 145.631
L184.828 145.913
L176.585 145.669
L167.015 144.664
L156.168 142.585
L144.32 139.039
L132.105 133.611
L120.638 125.988
L111.524 116.196
L106.615 104.867
L107.433 93.3619
L114.446 83.4896
L126.709 76.8348
L142.207 74.0945
L158.685 74.9251
L174.367 78.3271
L188.22 83.1811
L199.854 88.5942
L209.294 93.9952
L216.778 99.0833
L222.63 103.735
L227.183 107.925
L230.745 111.675
L233.586 115.024
L239.864 123.068
L241.735 125.185
L243.698 127.054
L245.855 128.68
L248.3 130.062
L251.127 131.189
L254.434 132.037
L258.322 132.57
L262.895 132.735
L268.26 132.46
L274.513 131.653
L281.724 130.198
L289.906 127.964
L298.97 124.814
L308.668 120.644
L318.515 115.43
L327.742 109.312
L335.295 102.676
L339.966 96.1897
L340.678 90.7244
L336.871 87.1164
L328.8 85.8511
L317.521 86.8603
L304.55 89.5889
L291.376 93.2795
L279.116 97.2666
L268.406 101.126
L259.479 104.669
L252.296 107.867
L246.676 110.767
L242.381 113.434
L239.166 115.929
L236.812 118.292
L235.127 120.551
L233.96 122.716
L233.188 124.794
L232.722 126.784
L232.494 128.684
L232.457 130.492
L232.581 132.205
L232.849 133.821
L233.255 135.338
L233.803 136.756
L234.505 138.072
L235.383 139.284
L236.464 140.388
L237.79 141.378
L239.409 142.244
L241.384 142.972
L243.792 143.543
L246.727 143.927
L250.303 144.084
L254.651 143.957
L259.928 143.464
L266.3 142.495
L273.943 140.904
L283.005 138.496
L293.565 135.038
L305.548 130.269
L318.593 123.961
L331.905 116.036
L344.105 106.747
L353.248 96.8818
L357.161 87.8319
L354.193 81.289
L344.102 78.5362
L328.404 79.7427
L309.783 83.8947
L290.947 89.4498
L273.79 95.109
L259.207 100.165
L247.351 104.422
L237.968 107.969
L230.638 110.985
L224.916 113.641
L220.39 116.062
L216.704 118.327
L210.718 122.525
L207.973 124.471
L205.161 126.302
L202.138 127.998
L198.782 129.531
L194.98 130.865
L190.635 131.95
L185.661 132.722
L179.996 133.096
L173.611 132.961
L166.541 132.18
L158.909 130.593
L150.973 128.034
L143.16 124.368
L136.081 119.547
L130.501 113.686
L127.221 107.134
L126.89 100.48
L129.787 94.4707
L135.687 89.8178
L143.901 86.9974
L153.469 86.1313
L163.42 87.0133
L172.964 89.2389
L181.574 92.3538
L188.973 95.9583
L195.075 99.7524
L199.918 103.536
L203.609 107.19
L206.279 110.652
L208.062 113.894
L209.077 116.912
L209.422 119.709
L209.169 122.296
L208.366 124.682
L207.033 126.877
L205.171 128.882
L202.759 130.697
L199.755 132.307
L196.107 133.69
L191.747 134.805
L186.607 135.59
L180.629 135.959
L173.782 135.787
L166.094 134.918
L157.695 133.157
L148.87 130.295
L140.113 126.149
L132.156 120.635
L125.936 113.877
L122.447 106.299
L122.48 98.6433
L126.331 91.8486
L133.64 86.7837
L143.469 83.9725
L154.604 83.4647
L165.893 84.911
L176.469 87.7616
L185.812 91.4588
L193.699 95.5514
L200.113 99.727
L205.157 103.795
L208.993 107.656
L211.795 111.265
L213.73 114.614
L214.942 117.71
L215.548 120.572
L215.636 123.217
L215.266 125.667
L214.472 127.937
L213.267 130.043
L211.639 131.995
L209.56 133.796
L206.98 135.446
L203.834 136.934
L200.038 138.237
L195.497 139.315
L190.104 140.107
L183.759 140.518
L176.38 140.414
L167.939 139.61
L158.513 137.863
L148.355 134.89
L137.98 130.402
L128.238 124.198
L120.308 116.318
L115.541 107.202
L115.102 97.7763
L119.511 89.3099
L128.342 83.0258
L140.325 79.6546
L153.811 79.2237
L167.288 81.1906
L179.697 84.7669
L190.473 89.2074
L199.439 93.954
L206.661 98.6544
L212.331 103.119
L216.689 107.265
L219.977 111.072
L222.418 114.55
L224.201 117.727
L225.483 120.632
L226.388 123.294
L227.013 125.743
L227.43 128.003
L227.843 132.038
L227.893 135.537
L227.701 138.602
L227.293 141.311
L226.632 143.724
L226.178 144.836
L225.62 145.893
L224.935 146.901
L224.092 147.867
L223.057 148.793
L221.783 149.687
L220.213 150.551
L218.278 151.388
L215.889 152.196
L212.939 152.969
L209.297 153.694
L204.802 154.342
L199.267 154.86
L192.473 155.161
L184.189 155.101
L174.193 154.452
L162.334 152.867
L148.647 149.85
L133.54 144.758
L118.048 136.89
L104.071 125.76
L94.3366 111.59
L91.7472 95.8338
L98.0474 81.1782
L112.62 70.5522
L132.59 65.6319
L154.31 66.1391
L174.897 70.4455
L192.811 76.6754
L207.602 83.4122
L219.446 89.8436
L228.779 95.6153
L236.108 100.637
L241.912 104.942
L254.102 114.295
L257.417 116.439
L260.723 118.163
L264.177 119.481
L267.901 120.392
L271.994 120.882
L276.52 120.924
L281.513 120.482
L286.962 119.517
L292.798 117.994
L298.881 115.895
L304.976 113.24
L310.748 110.104
L315.771 106.64
L319.559 103.09
L321.646 99.7647
L321.679 97.0045
L319.52 95.1029
L315.308 94.2339
L309.444 94.4092
L302.506 95.4895
L295.119 97.2416
L287.846 99.4112
L281.114 101.78
L275.198 104.191
L270.237 106.55
L266.269 108.806
L263.267 110.938
L263.267 110.938" style="fill:none;stroke:#348abd;stroke-linecap:square;"/>
   </g>
   <g id="line2d_27">
    <path clip-path="url(#pa26e3a78d9)" d="
M230.953 160.715
L231.925 160.823
L234.225 160.743
L237.579 160.325
L242.81 159.473
L251.084 157.866
L256.867 156.581
L264.092 154.792
L273.054 152.289
L284.043 148.78
L297.273 143.878
L312.741 137.121
L329.987 128.057
L347.76 116.475
L363.681 102.809
L374.252 88.6251
L375.71 76.7149
L365.883 70.1319
L345.946 70.3205
L320.173 76.0067
L293.566 84.2218
L249.713 98.915
L233.926 103.844
L221.657 107.403
L186.121 117.113
L182.579 117.909
L179.105 118.491
L175.609 118.824
L172.051 118.869
L168.436 118.591
L164.812 117.956
L161.269 116.945
L157.935 115.557
L154.969 113.817
L152.548 111.783
L150.844 109.551
L150.002 107.25
L150.111 105.034
L151.185 103.063
L153.155 101.481
L155.876 100.393
L159.145 99.857
L162.731 99.875
L166.407 100.404
L169.967 101.369
L173.244 102.678
L176.113 104.233
L178.492 105.945
L180.331 107.733
L181.608 109.532
L182.32 111.285
L182.474 112.946
L182.088 114.478
L181.181 115.845
L179.778 117.016
L177.908 117.959
L175.605 118.642
L172.916 119.031
L169.901 119.092
L166.643 118.792
L163.249 118.105
L159.858 117.015
L156.635 115.527
L153.77 113.674
L151.464 111.524
L149.906 109.184
L149.247 106.795
L149.576 104.523
L150.895 102.535
L153.119 100.977
L156.084 99.9504
L159.57 99.5046
L163.335 99.6313
L167.142 100.276
L170.787 101.354
L174.104 102.765
L176.977 104.411
L179.329 106.198
L181.117 108.047
L182.325 109.892
L182.954 111.679
L183.016 113.364
L182.529 114.91
L181.515 116.282
L179.999 117.45
L178.01 118.381
L175.583 119.043
L172.767 119.399
L169.623 119.416
L166.238 119.058
L162.725 118.298
L159.23 117.12
L155.93 115.532
L153.023 113.57
L150.721 111.308
L149.219 108.863
L148.669 106.387
L149.155 104.056
L150.667 102.044
L153.103 100.5
L156.279 99.5237
L159.958 99.1554
L163.884 99.3774
L167.815 100.125
L171.543 101.305
L174.907 102.812
L177.793 104.541
L180.13 106.399
L181.882 108.307
L183.038 110.2
L183.602 112.024
L183.59 113.737
L183.02 115.303
L181.915 116.688
L180.302 117.861
L178.208 118.79
L175.67 119.441
L172.736 119.777
L169.469 119.762
L165.959 119.36
L162.324 118.541
L158.717 117.289
L155.323 115.611
L152.352 113.548
L150.025 111.178
L148.547 108.627
L148.073 106.058
L148.683 103.657
L150.359 101.605
L152.983 100.057
L156.353 99.11
L160.217 98.7997
L164.305 99.0993
L168.367 99.9352
L172.191 101.205
L175.618 102.798
L178.537 104.606
L180.882 106.534
L182.622 108.501
L183.749 110.444
L184.271 112.31
L184.206 114.057
L183.575 115.65
L182.401 117.057
L180.709 118.245
L178.528 119.184
L175.894 119.838
L172.853 120.169
L169.471 120.139
L165.838 119.709
L162.077 118.848
L158.345 117.539
L154.836 115.786
L151.771 113.632
L149.383 111.159
L147.885 108.501
L147.442 105.829
L148.134 103.34
L149.936 101.227
L152.72 99.6487
L156.268 98.7049
L160.31 98.4273
L164.564 98.7826
L168.768 99.6888
L172.708 101.036
L176.221 102.707
L179.2 104.589
L181.581 106.585
L183.336 108.613
L184.462 110.61
L184.969 112.524
L184.878 114.313
L184.211 115.943
L182.992 117.382
L181.245 118.599
L178.998 119.562
L176.285 120.234
L173.153 120.578
L169.666 120.553
L165.914 120.117
L162.021 119.236
L158.149 117.89
L154.499 116.081
L151.304 113.849
L148.806 111.28
L147.235 108.512
L146.765 105.725
L147.483 103.128
L149.365 100.924
L152.273 99.2818
L155.977 98.3066
L160.191 98.0296
L164.617 98.4131
L168.982 99.3682
L173.063 100.778
L176.693 102.517
L179.764 104.469
L182.215 106.532
L184.02 108.625
L185.179 110.682
L185.704 112.65
L185.619 114.491
L184.946 116.169
L183.709 117.653
L181.934 118.913
L179.647 119.917
L176.879 120.628
L173.674 121.006
L170.095 121.009
L166.23 120.593
L162.202 119.719
L158.175 118.362
L154.355 116.521
L150.984 114.231
L148.32 111.577
L146.606 108.698
L146.036 105.782
L146.709 103.05
L148.608 100.718
L151.595 98.9693
L155.427 97.9183
L159.805 97.6008
L164.412 97.9778
L168.96 98.9551
L173.214 100.408
L177 102.205
L180.205 104.222
L182.768 106.353
L184.665 108.514
L185.896 110.637
L186.479 112.67
L186.436 114.573
L185.793 116.312
L184.574 117.857
L182.803 119.177
L180.506 120.24
L177.711 121.011
L174.459 121.448
L170.808 121.507
L166.841 121.142
L162.678 120.308
L158.483 118.975
L154.462 117.134
L150.866 114.813
L147.966 112.09
L146.026 109.104
L145.263 106.046
L145.799 103.149
L147.635 100.645
L150.636 98.7361
L154.558 97.5528
L159.085 97.1417
L163.882 97.467
L168.64 98.4315
L173.105 99.9038
L177.094 101.743
L180.484 103.819
L183.211 106.018
L185.25 108.252
L186.603 110.45
L187.289 112.558
L187.332 114.536
L186.762 116.351
L185.601 117.972
L183.875 119.371
L181.607 120.515
L178.821 121.37
L175.555 121.894
L171.859 122.042
L167.81 121.763
L163.521 121.01
L159.149 119.743
L154.9 117.944
L151.026 115.629
L147.814 112.866
L145.55 109.786
L144.48 106.579
L144.761 103.486
L146.423 100.76
L149.35 98.6258
L153.302 97.2387
L157.951 96.6645
L162.94 96.8777
L167.934 97.782
L172.658 99.2401
L176.905 101.102
L180.542 103.226
L183.496 105.492
L185.739 107.803
L187.273 110.084
L188.118 112.28
L188.303 114.348
L187.855 116.255
L186.803 117.971
L185.17 119.469
L182.976 120.718
L180.246 121.684
L177.009 122.326
L173.307 122.598
L169.208 122.447
L164.814 121.822
L160.27 120.674
L155.773 118.971
L151.576 116.716
L147.973 113.957
L145.272 110.81
L143.758 107.46
L143.633 104.148
L144.973 101.147
L147.7 98.7111
L151.588 97.0308
L156.306 96.2026
L161.475 96.2215
L166.73 96.9989
L171.761 98.3941
L176.333 100.247
L180.291 102.404
L183.549 104.731
L186.072 107.123
L187.86 109.497
L188.934 111.793
L189.324 113.966
L189.063 115.983
L188.178 117.814
L186.695 119.433
L184.636 120.811
L182.018 121.916
L178.866 122.709
L175.213 123.144
L171.115 123.169
L166.655 122.725
L161.963 121.757
L157.22 120.22
L152.667 118.096
L148.601 115.41
L145.349 112.251
L143.234 108.786
L142.516 105.25
L143.337 101.928
L145.679 99.1085
L149.355 97.0271
L154.045 95.8265
L159.352 95.5379
L164.875 96.092
L170.259 97.3507
L175.229 99.1447
L179.598 101.305
L183.256 103.681
L186.154 106.153
L188.288 108.627
L189.676 111.037
L190.353 113.333
L190.353 115.479
L189.708 117.447
L188.448 119.21
L186.591 120.744
L184.157 122.017
L181.163 122.995
L177.632 123.634
L173.605 123.881
L169.146 123.678
L164.361 122.961
L159.405 121.673
L154.498 119.773
L149.924 117.256
L146.019 114.177
L143.139 110.665
L141.609 106.936
L141.656 103.275
L143.352 99.9975
L146.585 97.3937
L151.071 95.6711
L156.413 94.9195
L162.171 95.1089
L167.938 96.1168
L173.381 97.769
L178.262 99.8793
L182.436 102.277
L185.829 104.82
L188.425 107.399
L190.238 109.936
L191.303 112.372
L191.66 114.669
L191.346 116.796
L190.393 118.729
L188.827 120.444
L186.663 121.915
L183.916 123.11
L180.601 123.992
L176.743 124.51
L172.384 124.606
L167.6 124.216
L162.513 123.269
L157.307 121.706
L152.234 119.488
L147.618 116.625
L143.834 113.197
L141.262 109.371
L140.229 105.409
L140.928 101.638
L143.366 98.399
L147.346 95.9799
L152.505 94.5586
L158.382 94.1769
L164.51 94.7534
L170.48 96.1238
L175.982 98.0875
L180.81 100.448
L184.849 103.034
L188.058 105.712
L190.44 108.384
L192.027 110.978
L192.864 113.448
L192.994 115.76
L192.457 117.888
L191.284 119.812
L189.496 121.509
L187.105 122.953
L184.122 124.112
L180.558 124.943
L176.434 125.394
L171.794 125.401
L166.721 124.89
L161.346 123.787
L155.873 122.023
L150.584 119.562
L145.836 116.418
L142.041 112.689
L139.611 108.572
L138.88 104.369
L140.026 100.444
L143.01 97.1646
L147.571 94.8244
L153.279 93.5826
L159.623 93.4462
L166.104 94.2951
L172.311 95.9315
L177.942 98.1333
L182.812 100.693
L186.83 103.439
L189.974 106.242
L192.265 109.007
L193.748 111.672
L194.473 114.196
L194.491 116.549
L193.842 118.71
L192.555 120.662
L190.651 122.383
L188.136 123.85
L185.017 125.028
L181.297 125.876
L176.994 126.337
L172.145 126.342
L166.827 125.813
L161.175 124.664
L155.398 122.818
L149.792 120.227
L144.743 116.899
L140.7 112.933
L138.114 108.539
L137.357 104.046
L138.626 99.8544
L141.875 96.3709
L146.809 93.9146
L152.947 92.6523
L159.727 92.5796
L166.611 93.5523
L173.16 95.3455
L179.064 97.7141
L184.142 100.435
L188.31 103.328
L191.56 106.259
L193.924 109.137
L195.457 111.901
L196.219 114.511
L196.266 116.944
L195.641 119.181
L194.377 121.209
L192.49 123.008
L189.988 124.559
L186.868 125.829
L183.127 126.777
L178.771 127.348
L173.824 127.472
L168.347 127.065
L162.454 126.031
L156.342 124.279
L150.3 121.737
L144.72 118.387
L140.082 114.299
L136.893 109.668
L135.601 104.824
L136.482 100.198
L139.55 96.2521
L144.532 93.369
L150.927 91.7704
L158.116 91.481
L165.495 92.3572
L172.564 94.1545
L178.97 96.5989
L184.505 99.4391
L189.075 102.473
L192.671 105.552
L195.333 108.576
L197.125 111.48
L198.117 114.226
L198.375 116.79
L197.95 119.158
L196.88 121.318
L195.186 123.259
L192.875 124.964
L189.94 126.407
L186.371 127.553
L182.157 128.352
L177.301 128.739
L171.832 128.63
L165.828 127.925
L159.435 126.515
L152.899 124.297
L146.581 121.205
L140.956 117.243
L136.582 112.539
L134.017 107.369
L133.695 102.16
L135.805 97.4279
L140.209 93.6671
L146.456 91.2293
L153.898 90.2477
L161.834 90.6375
L169.648 92.1591
L176.878 94.5066
L183.237 97.3815
L188.583 100.535
L192.884 103.783
L196.173 106.999
L198.523 110.103
L200.016 113.05
L200.732 115.813
L200.74 118.38
L200.09 120.742
L198.813 122.895
L196.925 124.828
L194.422 126.527
L191.29 127.966
L187.505 129.11
L183.046 129.906
L177.904 130.282
L172.097 130.145
L165.697 129.382
L158.852 127.869
L151.822 125.482
L145.001 122.133
L138.919 117.819
L134.208 112.672
L131.505 107.003
L131.307 101.303
L133.813 96.165
L138.839 92.1509
L145.845 89.6441
L154.071 88.7646
L162.727 89.3797
L171.141 91.1906
L178.835 93.8404
L185.528 96.9965
L191.104 100.394
L195.556 103.844
L198.945 107.224
L201.364 110.462
L202.915 113.519
L203.691 116.377
L203.768 119.03
L203.204 121.476
L202.034 123.716
L200.271 125.746
L197.91 127.558
L194.931 129.132
L191.3 130.441
L186.979 131.437
L181.935 132.057
L176.151 132.211
L169.653 131.784
L162.533 130.639
L154.988 128.623
L147.357 125.595
L140.147 121.471
L134.021 116.287
L129.738 110.268
L127.996 103.869
L129.242 97.7324
L133.506 92.5644
L140.343 88.9399
L148.958 87.1481
L158.419 87.1487
L167.874 88.6482
L176.688 91.2342
L184.468 94.4966
L191.036 98.0986
L196.361 101.798
L200.509 105.439
L203.588 108.931
L205.723 112.227
L207.033 115.309
L207.619 118.174
L207.561 120.827
L206.913 123.274
L205.707 125.523
L203.95 127.574
L201.628 129.426
L198.711 131.065
L195.151 132.468
L190.892 133.595
L185.876 134.387
L180.054 134.758
L173.408 134.592
L165.976 133.741
L157.894 132.025
L149.444 129.254
L141.099 125.268
L133.551 120.005
L127.666 113.592
L124.355 106.429
L124.338 99.2033
L127.889 92.7704
L134.692 87.9276
L143.902 85.169
L154.411 84.5652
L165.146 85.821
L175.277 88.4448
L184.288 91.9227
L191.939 95.8268
L198.188 99.852
L203.114 103.806
L206.856 107.582
L209.572 111.13
L211.414 114.435
L212.516 117.498
L212.985 120.333
L212.902 122.955
L212.32 125.38
L211.268 127.623
L209.748 129.693
L207.745 131.594
L205.221 133.325
L202.121 134.875
L198.373 136.221
L193.895 137.322
L188.596 138.117
L182.393 138.513
L175.228 138.381
L167.097 137.546
L158.104 135.788
L148.517 132.853
L138.848 128.502
L129.897 122.588
L122.737 115.193
L118.556 106.756
L118.346 98.1228
L122.517 90.4105
L130.67 84.6765
L141.69 81.5545
L154.128 81.0834
L166.637 82.8122
L178.242 86.0634
L188.394 90.177
L196.894 94.6415
L203.767 99.1207
L209.167 103.423
L213.296 107.457
L216.37 111.191
L218.584 114.628
L220.109 117.786
L221.084 120.689
L221.616 123.365
L221.786 125.838
L221.649 128.132
L221.237 130.266
L220.565 132.26
L219.632 134.126
L218.421 135.877
L216.9 137.522
L215.023 139.067
L212.73 140.513
L209.941 141.855
L206.563 143.08
L202.481 144.163
L197.564 145.058
L191.667 145.696
L184.642 145.966
L176.358 145.704
L166.743 144.674
L155.852 142.559
L143.968 138.965
L131.739 133.474
L120.293 125.778
L111.253 115.917
L106.475 104.542
L107.466 93.0351
L114.66 83.2158
L127.069 76.6558
L142.653 74.0236
L159.158 74.9477
L174.822 78.4146
L188.632 83.3044
L200.215 88.7311
L209.604 94.132
L217.045 99.2123
L222.861 103.853
L227.386 108.03
L230.93 111.768
L233.76 115.105
L240.044 123.116
L241.928 125.222
L243.91 127.079
L246.091 128.692
L248.566 130.06
L251.43 131.171
L254.78 131.999
L258.717 132.508
L263.347 132.644
L268.775 132.334
L275.096 131.482
L282.374 129.974
L290.616 127.677
L299.724 124.456
L309.43 120.213
L319.232 114.934
L328.338 108.777
L335.678 102.148
L340.051 95.7333
L340.412 90.4078
L336.262 86.9861
L327.921 85.9114
L316.494 87.0723
L303.502 89.8904
L290.407 93.6107
L278.286 97.5871
L267.738 101.417
L258.97 104.927
L251.932 108.096
L246.435 110.972
L242.242 113.623
L239.111 116.105
L236.825 118.458
L235.197 120.707
L234.078 122.864
L233.35 124.933
L232.924 126.913
L232.737 128.802
L232.743 130.598
L232.915 132.298
L233.238 133.9
L233.708 135.402
L234.332 136.802
L235.125 138.097
L236.111 139.285
L237.323 140.359
L238.807 141.313
L240.618 142.134
L242.826 142.805
L245.515 143.303
L248.789 143.591
L252.77 143.62
L257.602 143.323
L263.445 142.603
L270.47 141.333
L278.839 139.341
L288.664 136.414
L299.95 132.305
L312.479 126.765
L325.675 119.638
L338.448 111.003
L349.115 101.381
L355.576 91.8823
L355.871 84.0966
L349.047 79.5622
L335.817 79.0016
L318.407 81.914
L299.599 86.9293
L281.688 92.5932
L266.003 97.9294
L253.003 102.532
L242.594 106.38
L234.424 109.623
L228.055 112.437
L223.062 114.968
L219.066 117.313
L215.747 119.529
L207.434 125.565
L204.6 127.355
L201.498 129.002
L198.011 130.477
L194.032 131.739
L189.466 132.735
L184.232 133.395
L178.273 133.623
L171.576 133.299
L164.194 132.272
L156.29 130.373
L148.174 127.43
L140.343 123.322
L133.483 118.035
L128.417 111.754
L125.955 104.92
L126.673 98.2118
L130.705 92.4194
L137.645 88.2262
L146.653 86.0112
L156.7 85.774
L166.826 87.2079
L176.305 89.8559
L184.692 93.2558
L191.784 97.0281
L197.552 100.902
L202.07 104.707
L205.464 108.346
L207.877 111.771
L209.443 114.967
L210.281 117.935
L210.483 120.683
L210.118 123.223
L209.225 125.568
L207.822 127.726
L205.902 129.7
L203.44 131.489
L200.391 133.08
L196.694 134.449
L192.279 135.555
L187.07 136.337
L181.002 136.704
L174.037 136.531
L166.197 135.654
L157.606 133.869
L148.55 130.957
L139.535 126.716
L131.318 121.052
L124.88 114.082
L121.269 106.243
L121.322 98.3156
L125.353 91.2895
L132.975 86.081
L143.189 83.234
L154.714 82.7847
L166.348 84.3488
L177.199 87.3388
L186.747 91.1698
L194.781 95.3761
L201.298 99.6413
L206.418 103.777
L210.315 107.686
L213.175 111.329
L215.172 114.702
L216.459 117.815
L217.157 120.688
L217.36 123.343
L217.132 125.802
L216.513 128.083
L215.52 130.203
L214.148 132.175
L212.374 134.008
L210.157 135.703
L207.436 137.259
L204.134 138.662
L200.159 139.886
L195.402 140.888
L189.749 141.599
L183.086 141.917
L175.325 141.693
L166.439 140.72
L156.518 138.732
L145.856 135.412
L135.044 130.447
L125.046 123.637
L117.185 115.066
L112.93 105.292
L113.464 95.4063
L119.172 86.8268
L129.373 80.8161
L142.538 78.0066
L156.862 78.2489
L170.815 80.8393
L183.407 84.9
L194.173 89.6669
L203.026 94.6044
L210.097 99.3956
L215.623 103.884
L219.87 108.011
L223.097 111.774
L225.535 115.193
L227.379 118.301
L228.791 121.131
L230.805 126.076
L233.047 132.066
L233.818 133.749
L234.675 135.292
L235.659 136.702
L236.814 137.979
L238.189 139.124
L239.837 140.13
L241.825 140.985
L244.229 141.673
L247.142 142.167
L250.672 142.429
L254.948 142.403
L260.114 142.013
L266.331 141.157
L273.759 139.694
L282.537 137.444
L292.736 134.189
L304.282 129.688
L316.841 123.73
L329.678 116.241
L341.528 107.443
L350.601 98.0389
L354.873 89.2847
L352.741 82.7414
L343.83 79.6624
L329.379 80.3378
L311.799 83.9542
L293.664 89.1196
L276.881 94.5749
L262.441 99.5729
L250.597 103.858
L241.171 107.471
L233.794 110.563
L228.047 113.294
L223.535 115.786
L219.911 118.12
L216.881 120.339
L209.15 126.426
L206.465 128.244
L203.503 129.928
L200.15 131.452
L196.301 132.781
L191.854 133.866
L186.719 134.642
L180.823 135.018
L174.126 134.876
L166.651 134.064
L158.515 132.399
L149.985 129.688
L141.52 125.759
L133.801 120.537
L127.696 114.13
L124.135 106.922
L123.873 99.5911
L127.228 93.0037
L133.917 87.9834
L143.109 85.058
L153.683 84.3249
L164.54 85.4999
L174.822 88.0881
L183.988 91.564
L191.785 95.4869
L198.165 99.5413
L203.203 103.528
L207.042 107.336
L209.841 110.914
L211.757 114.245
L212.928 117.333
L213.464 120.189
L213.45 122.831
L212.941 125.275
L211.969 127.537
L210.541 129.627
L208.642 131.551
L206.237 133.31
L203.274 134.895
L199.682 136.286
L195.38 137.448
L190.274 138.325
L184.274 138.832
L177.311 138.85
L169.358 138.213
L160.483 136.707
L150.904 134.081
L141.065 130.076
L131.701 124.504
L123.844 117.367
L118.705 109.004
L117.391 100.178
L120.51 91.9881
L127.87 85.5738
L138.482 81.721
L150.899 80.6183
L163.683 81.9001
L175.736 84.8988
L186.401 88.916
L195.407 93.3874
L202.741 97.9308
L208.54 102.323
L213.007 106.452
L216.362 110.278
L218.812 113.797
L220.538 117.028
L221.691 119.995
L222.389 122.725
L222.722 125.244
L222.753 127.578
L222.524 129.746
L222.059 131.769
L221.364 133.662
L220.433 135.438
L219.243 137.11
L217.761 138.684
L215.939 140.167
L213.715 141.56
L211.01 142.86
L207.728 144.054
L203.755 145.12
L198.956 146.018
L193.181 146.68
L186.272 147.004
L178.083 146.832
L168.516 145.934
L157.588 143.995
L145.531 140.611
L132.932 135.334
L120.875 127.795
L110.986 117.936
L105.224 106.312
L105.3 94.2671
L111.89 83.702
L124.154 76.3763
L140.027 73.1483
L157.101 73.7369
L173.44 77.1052
L187.907 82.0511
L200.065 87.6057
L209.932 93.1493
L217.76 98.3576
L223.89 103.1
L228.675 107.352
L232.439 111.138
L235.469 114.503
L242.352 122.481
L244.47 124.54
L246.719 126.33
L249.206 127.854
L252.034 129.105
L255.302 130.065
L259.112 130.701
L263.564 130.967
L268.757 130.797
L274.777 130.108
L281.683 128.796
L289.482 126.743
L298.083 123.832
L307.251 119.973
L316.541 115.152
L325.258 109.498
L332.46 103.354
L337.065 97.3074
L338.099 92.1259
L335.017 88.5627
L327.968 87.0911
L317.821 87.7179
L305.894 90.0104
L293.551 93.3174
L281.871 97.0254
L271.522 100.711
L262.793 104.161
L255.709 107.314
L250.138 110.192
L245.881 112.846
L242.72 115.327
L240.454 117.671
L238.907 119.903
L237.937 122.033
L237.434 124.066
L237.316 125.999
L237.53 127.828
L238.043 129.547
L238.842 131.148
L239.932 132.622
L241.335 133.959
L243.085 135.145
L245.236 136.162
L247.854 136.986
L251.021 137.585
L254.839 137.912
L259.422 137.908
L264.898 137.489
L271.394 136.547
L279.028 134.943
L287.867 132.508
L297.883 129.054
L308.869 124.404
L320.341 118.458
L331.437 111.294
L340.87 103.308
L347.051 95.3046
L348.454 88.4401
L344.186 83.8987
L334.488 82.3981
L320.771 83.8381
L305.092 87.3953
L289.409 91.9852
L275.093 96.7191
L262.826 101.095
L252.766 104.947
L244.758 108.307
L238.505 111.281
L233.672 113.98
L229.937 116.491
L227.019 118.871
L224.678 121.152
L222.719 123.349
L217.662 129.467
L215.872 131.339
L213.875 133.117
L211.582 134.795
L208.904 136.362
L205.745 137.802
L202.001 139.088
L197.557 140.182
L192.295 141.024
L186.093 141.527
L178.848 141.562
L170.499 140.951
L161.078 139.456
L150.776 136.784
L140.037 132.617
L129.644 126.695
L120.755 118.955
L114.788 109.725
L113.09 99.8511
L116.442 90.6259
L124.651 83.4206
L136.539 79.1778
L150.382 78.0938
L164.501 79.6866
L177.666 83.1321
L189.191 87.6056
L198.832 92.4715
L206.633 97.3222
L212.787 101.936
L217.547 106.215
L221.174 110.133
L223.91 113.702
L225.963 116.948
L227.506 119.904
L228.68 122.603
L230.341 127.339
L232.171 133.12
L233.492 136.264
L234.291 137.65
L235.23 138.915
L236.348 140.062
L237.692 141.087
L239.315 141.983
L241.283 142.738
L243.673 143.333
L246.581 143.742
L250.119 143.925
L254.418 143.825
L259.632 143.365
L265.928 142.436
L273.48 140.895
L282.437 138.552
L292.885 135.175
L304.757 130.508
L317.716 124.319
L330.999 116.519
L343.271 107.333
L352.627 97.512
L356.904 88.4033
L354.405 81.686
L344.783 78.683
L329.439 79.6442
L310.998 83.6264
L292.181 89.1079
L274.937 94.7666
L260.219 99.8585
L248.221 104.161
L238.711 107.748
L231.278 110.796
L225.478 113.475
L220.899 115.914
L217.181 118.192
L211.187 122.416
L208.462 124.376
L205.682 126.224
L202.704 127.94
L199.402 129.498
L195.666 130.862
L191.394 131.986
L186.499 132.807
L180.912 133.243
L174.601 133.187
L167.586 132.504
L159.977 131.033
L152.01 128.608
L144.089 125.081
L136.806 120.385
L130.917 114.608
L127.24 108.066
L126.469 101.323
L128.949 95.1237
L134.525 90.208
L142.553 87.1007
L152.082 85.9741
L162.115 86.6558
L171.824 88.7518
L180.64 91.8005
L188.257 95.3865
L194.568 99.193
L199.601 103.007
L203.46 106.699
L206.277 110.202
L208.188 113.485
L209.317 116.542
L209.767 119.376
L209.614 121.997
L208.909 124.418
L207.679 126.646
L205.927 128.687
L203.634 130.54
L200.763 132.195
L197.26 133.631
L193.062 134.813
L188.096 135.684
L182.298 136.163
L175.625 136.136
L168.086 135.451
L159.779 133.92
L150.947 131.331
L142.03 127.482
L133.71 122.255
L126.897 115.707
L122.607 108.187
L121.726 100.376
L124.702 93.2022
L131.332 87.5947
L140.78 84.1909
L151.843 83.1546
L163.308 84.2073
L174.216 86.8154
L183.965 90.3991
L192.268 94.4698
L199.072 98.6791
L204.464 102.81
L208.599 106.745
L211.656 110.43
L213.808 113.851
L215.208 117.014
L215.981 119.936
L216.224 122.636
L216.006 125.135
L215.369 127.452
L214.33 129.602
L212.888 131.597
L211.019 133.446
L208.68 135.149
L205.812 136.7
L202.338 138.084
L198.164 139.269
L193.186 140.206
L187.296 140.817
L180.394 140.989
L172.415 140.56
L163.372 139.312
L153.417 136.974
L142.923 133.242
L132.576 127.846
L123.418 120.674
L116.78 111.944
L114.016 102.356
L116.049 93.0745
L122.943 85.4428
L133.776 80.5119
L146.97 78.6657
L160.845 79.5909
L174.073 82.5506
L185.846 86.7275
L195.817 91.4487
L203.959 96.2583
L210.424 100.894
L215.444 105.228
L219.274 109.217
L222.151 112.863
L224.287 116.186
L225.86 119.218
L227.012 121.99
L227.857 124.531
L228.956 129.023
L229.907 134.584
L230.734 139.058
L231.462 141.549
L231.93 142.661
L232.494 143.689
L233.176 144.633
L234.008 145.492
L235.024 146.263
L236.269 146.942
L237.795 147.518
L239.671 147.98
L241.977 148.307
L244.813 148.47
L248.301 148.43
L252.586 148.126
L257.84 147.479
L264.256 146.373
L272.039 144.65
L281.384 142.1
L292.424 138.457
L305.14 133.409
L319.218 126.66
L333.853 118.05
L347.549 107.779
L358.079 96.6832
L362.833 86.3684
L359.735 78.8924
L348.401 75.8612
L330.65 77.4753
L309.738 82.4277
L288.867 88.7935
L270.151 95.0374
L241.869 104.754
L231.967 108.256
L224.247 111.151
L218.193 113.646
L213.346 115.885
L209.319 117.952
L199.275 123.371
L195.905 124.887
L192.27 126.208
L188.262 127.289
L183.798 128.072
L178.825 128.486
L173.332 128.444
L167.357 127.846
L161.013 126.582
L154.51 124.548
L148.168 121.668
L142.429 117.931
L137.819 113.434
L134.887 108.42
L134.088 103.277
L135.66 98.497
L139.532 94.5747
L145.326 91.889
L152.438 90.6181
L160.184 90.7227
L167.936 91.9973
L175.207 94.1522
L181.674 96.8908
L187.168 99.9572
L191.633 103.156
L195.09 106.35
L197.599 109.451
L199.239 112.407
L200.089 115.186
L200.218 117.772
L199.679 120.157
L198.507 122.333
L196.719 124.289
L194.316 126.013
L191.286 127.479
L187.611 128.653
L183.269 129.484
L178.254 129.904
L172.582 129.824
L166.322 129.137
L159.614 127.719
L152.702 125.454
L145.96 122.253
L139.895 118.105
L135.115 113.127
L132.243 107.605
L131.778 102.002
L133.95 96.8861
L138.619 92.8128
L145.295 90.178
L153.257 89.1296
L161.733 89.5663
L170.05 91.2146
L177.714 93.7312
L184.426 96.7871
L190.051 100.114
L194.568 103.519
L198.026 106.871
L200.513 110.094
L202.125 113.143
L202.952 115.998
L203.072 118.651
L202.542 121.098
L201.397 123.337
L199.654 125.365
L197.31 127.172
L194.345 128.739
L190.729 130.035
L186.429 131.016
L181.413 131.615
L175.673 131.745
L169.24 131.293
L162.212 130.124
L154.792 128.092
L147.321 125.064
L140.302 120.969
L134.386 115.852
L130.304 109.946
L128.723 103.7
L130.056 97.7415
L134.311 92.7478
L141.048 89.2646
L149.492 87.5616
L158.744 87.595
L167.984 89.0808
L176.597 91.6226
L184.204 94.8259
L190.626 98.3653
L195.834 102.005
L199.885 105.593
L202.884 109.039
L204.948 112.295
L206.19 115.342
L206.709 118.175
L206.58 120.798
L205.854 123.215
L204.559 125.432
L202.701 127.448
L200.265 129.257
L197.221 130.845
L193.521 132.182
L189.114 133.226
L183.947 133.91
L177.984 134.144
L171.225 133.805
L163.736 132.742
L155.691 130.777
L147.417 127.735
L139.436 123.486
L132.469 118.019
L127.376 111.532
L124.999 104.492
L125.926 97.6168
L130.269 91.7319
L137.573 87.5387
L146.941 85.4074
L157.295 85.3079
L167.654 86.8989
L177.289 89.6954
L185.767 93.2199
L192.905 97.0883
L198.688 101.032
L203.205 104.885
L206.593 108.556
L209.003 112.003
L210.575 115.213
L211.431 118.19
L211.667 120.946
L211.35 123.495
L210.525 125.849
L209.209 128.021
L207.398 130.015
L205.065 131.832
L202.166 133.463
L198.64 134.889
L194.413 136.074
L189.404 136.964
L183.535 137.476
L176.748 137.494
L169.032 136.862
L169.032 136.862" style="fill:none;stroke:#a60628;stroke-linecap:square;"/>
   </g>
  </g>
 </g>
 <defs>
  <clipPath id="pa26e3a78d9">
   <rect height="216.0" width="432.0" x="7.2" y="7.2"/>
  </clipPath>
 </defs>
</svg>
