<?xml version="1.0" encoding="UTF-8" standalone="no"?>
<!-- Created with Inkscape (http://www.inkscape.org/) -->

<svg
   xmlns:dc="http://purl.org/dc/elements/1.1/"
   xmlns:cc="http://creativecommons.org/ns#"
   xmlns:rdf="http://www.w3.org/1999/02/22-rdf-syntax-ns#"
   xmlns:svg="http://www.w3.org/2000/svg"
   xmlns="http://www.w3.org/2000/svg"
   xmlns:sodipodi="http://sodipodi.sourceforge.net/DTD/sodipodi-0.dtd"
   xmlns:inkscape="http://www.inkscape.org/namespaces/inkscape"
   width="288.57129"
   height="425.68008"
   id="svg2"
   version="1.1"
   inkscape:version="0.48.4 r9939"
   sodipodi:docname="mechanics03.svg"
   inkscape:export-filename="C:\Users\RY\Dropbox\scipybook2\notebooks\images\mechanics03.png"
   inkscape:export-xdpi="300"
   inkscape:export-ydpi="300">
  <defs
     id="defs4">
    <inkscape:path-effect
       effect="spiro"
       id="path-effect5491"
       is_visible="true" />
    <marker
       inkscape:stockid="Arrow2Mend"
       orient="auto"
       refY="0"
       refX="0"
       id="Arrow2Mend"
       style="overflow:visible">
      <path
         id="path3796"
         style="fill-rule:evenodd;stroke-width:0.625;stroke-linejoin:round"
         d="M 8.7185878,4.0337352 -2.2072895,0.01601326 8.7185884,-4.0017078 c -1.7454984,2.3720609 -1.7354408,5.6174519 -6e-7,8.035443 z"
         transform="scale(-0.6,-0.6)"
         inkscape:connector-curvature="0" />
    </marker>
    <marker
       inkscape:stockid="Arrow1Mstart"
       orient="auto"
       refY="0"
       refX="0"
       id="Arrow1Mstart"
       style="overflow:visible">
      <path
         id="path3775"
         d="M 0,0 5,-5 -12.5,0 5,5 0,0 z"
         style="fill-rule:evenodd;stroke:#000000;stroke-width:1pt"
         transform="matrix(0.4,0,0,0.4,4,0)"
         inkscape:connector-curvature="0" />
    </marker>
    <marker
       inkscape:stockid="Arrow2Lstart"
       orient="auto"
       refY="0"
       refX="0"
       id="Arrow2Lstart"
       style="overflow:visible">
      <path
         id="path3787"
         style="fill-rule:evenodd;stroke-width:0.625;stroke-linejoin:round"
         d="M 8.7185878,4.0337352 -2.2072895,0.01601326 8.7185884,-4.0017078 c -1.7454984,2.3720609 -1.7354408,5.6174519 -6e-7,8.035443 z"
         transform="matrix(1.1,0,0,1.1,1.1,0)"
         inkscape:connector-curvature="0" />
    </marker>
    <marker
       inkscape:stockid="Arrow1Lstart"
       orient="auto"
       refY="0"
       refX="0"
       id="Arrow1Lstart"
       style="overflow:visible">
      <path
         id="path3769"
         d="M 0,0 5,-5 -12.5,0 5,5 0,0 z"
         style="fill-rule:evenodd;stroke:#000000;stroke-width:1pt"
         transform="matrix(0.8,0,0,0.8,10,0)"
         inkscape:connector-curvature="0" />
    </marker>
    <marker
       inkscape:stockid="Arrow2Mstart"
       orient="auto"
       refY="0"
       refX="0"
       id="Arrow2Mstart"
       style="overflow:visible">
      <path
         id="path3793"
         style="fill-rule:evenodd;stroke-width:0.625;stroke-linejoin:round"
         d="M 8.7185878,4.0337352 -2.2072895,0.01601326 8.7185884,-4.0017078 c -1.7454984,2.3720609 -1.7354408,5.6174519 -6e-7,8.035443 z"
         transform="scale(0.6,0.6)"
         inkscape:connector-curvature="0" />
    </marker>
    <marker
       inkscape:stockid="Arrow2Lend"
       orient="auto"
       refY="0"
       refX="0"
       id="Arrow2Lend"
       style="overflow:visible">
      <path
         id="path3790"
         style="fill-rule:evenodd;stroke-width:0.625;stroke-linejoin:round"
         d="M 8.7185878,4.0337352 -2.2072895,0.01601326 8.7185884,-4.0017078 c -1.7454984,2.3720609 -1.7354408,5.6174519 -6e-7,8.035443 z"
         transform="matrix(-1.1,0,0,-1.1,-1.1,0)"
         inkscape:connector-curvature="0" />
    </marker>
    <marker
       inkscape:stockid="Arrow2Lstart"
       orient="auto"
       refY="0"
       refX="0"
       id="Arrow2Lstart-0"
       style="overflow:visible">
      <path
         inkscape:connector-curvature="0"
         id="path3787-6"
         style="fill-rule:evenodd;stroke-width:0.625;stroke-linejoin:round"
         d="M 8.7185878,4.0337352 -2.2072895,0.01601326 8.7185884,-4.0017078 c -1.7454984,2.3720609 -1.7354408,5.6174519 -6e-7,8.035443 z"
         transform="matrix(1.1,0,0,1.1,1.1,0)" />
    </marker>
    <marker
       inkscape:stockid="Arrow2Lend"
       orient="auto"
       refY="0"
       refX="0"
       id="Arrow2Lend-2"
       style="overflow:visible">
      <path
         inkscape:connector-curvature="0"
         id="path3790-7"
         style="fill-rule:evenodd;stroke-width:0.625;stroke-linejoin:round"
         d="M 8.7185878,4.0337352 -2.2072895,0.01601326 8.7185884,-4.0017078 c -1.7454984,2.3720609 -1.7354408,5.6174519 -6e-7,8.035443 z"
         transform="matrix(-1.1,0,0,-1.1,-1.1,0)" />
    </marker>
  </defs>
  <sodipodi:namedview
     id="base"
     pagecolor="#ffffff"
     bordercolor="#666666"
     borderopacity="1.0"
     inkscape:pageopacity="0.0"
     inkscape:pageshadow="2"
     inkscape:zoom="1.4142136"
     inkscape:cx="-52.485221"
     inkscape:cy="249.46609"
     inkscape:document-units="px"
     inkscape:current-layer="layer1"
     showgrid="false"
     inkscape:window-width="1858"
     inkscape:window-height="1057"
     inkscape:window-x="-8"
     inkscape:window-y="-8"
     inkscape:window-maximized="1"
     fit-margin-top="0"
     fit-margin-left="0"
     fit-margin-right="0"
     fit-margin-bottom="0">
    <sodipodi:guide
       position="-178.37045,-414.71426"
       orientation="0,744.09448"
       id="guide5942" />
    <sodipodi:guide
       position="565.72403,-414.71426"
       orientation="-1052.3622,0"
       id="guide5944" />
    <sodipodi:guide
       position="565.72403,637.64794"
       orientation="0,-744.09448"
       id="guide5946" />
    <sodipodi:guide
       position="-178.37045,637.64794"
       orientation="1052.3622,0"
       id="guide5948" />
  </sodipodi:namedview>
  <metadata
     id="metadata7">
    <rdf:RDF>
      <cc:Work
         rdf:about="">
        <dc:format>image/svg+xml</dc:format>
        <dc:type
           rdf:resource="http://purl.org/dc/dcmitype/StillImage" />
        <dc:title></dc:title>
      </cc:Work>
    </rdf:RDF>
  </metadata>
  <g
     inkscape:label="Layer 1"
     inkscape:groupmode="layer"
     id="layer1"
     transform="translate(-178.37045,-211.96784)">
    <g
       id="g4880">
      <path
         style="font-size:medium;font-style:normal;font-variant:normal;font-weight:normal;font-stretch:normal;text-indent:0;text-align:start;text-decoration:none;line-height:normal;letter-spacing:normal;word-spacing:normal;text-transform:none;direction:ltr;block-progression:tb;writing-mode:lr-tb;text-anchor:start;baseline-shift:baseline;color:#000000;fill:#ff0000;fill-opacity:1;stroke:none;stroke-width:2;marker:none;visibility:visible;display:inline;overflow:visible;enable-background:accumulate;font-family:Sans;-inkscape-font-specification:Sans"
         d="m 209,218.0625 0,202.875 0,1 1,0 254.28125,0 0,-2 -253.28125,0 0,-201.875 -2,0 z"
         id="path2991"
         inkscape:connector-curvature="0" />
      <path
         d="m 442.90482,412.05939 24.03693,8.83899 -24.03693,8.83899 c 3.84009,-5.21854 3.81797,-12.3584 0,-17.67798 z"
         style="fill:#ff0000;fill-opacity:1;fill-rule:evenodd;stroke-width:0.625;stroke-linejoin:round"
         id="path4817"
         inkscape:connector-curvature="0" />
      <path
         d="m 201.12578,239.45736 8.83899,-24.03693 8.83899,24.03693 c -5.21854,-3.84009 -12.3584,-3.81797 -17.67798,0 z"
         style="fill:#ff0000;fill-opacity:1;fill-rule:evenodd;stroke-width:0.625;stroke-linejoin:round"
         id="path4819"
         inkscape:connector-curvature="0" />
    </g>
    <rect
       style="opacity:0.72972969;fill:#000000;fill-opacity:1;fill-rule:evenodd;stroke:#000000;stroke-width:1px;stroke-linecap:butt;stroke-linejoin:miter;stroke-opacity:1"
       id="rect4775"
       width="71.428574"
       height="35.714287"
       x="288.71429"
       y="405.50504" />
    <path
       style="opacity:0.72972969;fill:none;stroke:#000000;stroke-width:5;stroke-linecap:butt;stroke-linejoin:miter;stroke-miterlimit:4;stroke-opacity:1;stroke-dasharray:none"
       d="m 325.85714,421.21933 -72.85714,190 0,0"
       id="path4777"
       inkscape:connector-curvature="0" />
    <path
       sodipodi:type="arc"
       style="opacity:0.72972969;stroke-width:5;stroke-miterlimit:4;stroke-dasharray:none"
       id="path4779"
       sodipodi:cx="144.28572"
       sodipodi:cy="609.50507"
       sodipodi:rx="27.142857"
       sodipodi:ry="27.142857"
       d="m 171.42858,609.50507 c 0,14.99058 -12.15227,27.14285 -27.14286,27.14285 -14.99058,0 -27.14286,-12.15227 -27.14286,-27.14285 0,-14.99059 12.15228,-27.14286 27.14286,-27.14286 14.99059,0 27.14286,12.15227 27.14286,27.14286 z"
       transform="translate(108.71429,1)" />
    <g
       id="g4875"
       transform="translate(-2,2)">
      <path
         style="font-size:medium;font-style:normal;font-variant:normal;font-weight:normal;font-stretch:normal;text-indent:0;text-align:start;text-decoration:none;line-height:normal;letter-spacing:normal;word-spacing:normal;text-transform:none;direction:ltr;block-progression:tb;writing-mode:lr-tb;text-anchor:start;baseline-shift:baseline;color:#000000;fill:#0000ff;fill-opacity:1;stroke:none;stroke-width:2;marker:none;visibility:visible;display:inline;overflow:visible;enable-background:accumulate;font-family:Sans;-inkscape-font-specification:Sans"
         d="m 283.78125,228.40625 -71.8125,189.71875 -0.34375,0.9375 0.90625,0.34375 237.84375,90 0.6875,-1.84375 -236.84375,-89.65625 71.40625,-188.8125 -1.84375,-0.6875 z"
         id="path2991-3"
         inkscape:connector-curvature="0" />
      <path
         d="m 433.86773,492.6152 19.35229,16.7747 -25.60944,-0.24113 c 5.43861,-3.5215 7.94509,-10.20698 6.25715,-16.53357 z"
         style="fill:#0000ff;fill-opacity:1;fill-rule:evenodd;stroke-width:0.625;stroke-linejoin:round"
         id="path4827"
         inkscape:connector-curvature="0" />
      <path
         d="m 268.8334,245.60867 16.7747,-19.35229 -0.24113,25.60944 c -3.5215,-5.43861 -10.20698,-7.94509 -16.53357,-6.25715 z"
         style="fill:#0000ff;fill-opacity:1;fill-rule:evenodd;stroke:none"
         id="path4829"
         inkscape:connector-curvature="0" />
    </g>
    <path
       style="fill:none;stroke:#000000;stroke-width:1px;stroke-linecap:butt;stroke-linejoin:miter;stroke-opacity:1"
       d="m 324.56201,421.62293 0,-48.08326"
       id="path4889"
       inkscape:connector-curvature="0" />
    <path
       style="fill:none;stroke:#000000;stroke-width:1px;stroke-linecap:butt;stroke-linejoin:miter;stroke-opacity:1;marker-start:url(#Arrow1Mstart);marker-end:url(#Arrow2Mend)"
       d="m 324.20846,386.26759 -113.49064,0"
       id="path4891"
       inkscape:connector-curvature="0" />
    <g
       style="font-size:40px;font-style:normal;font-weight:normal;line-height:125%;letter-spacing:0px;word-spacing:0px;fill:#000000;fill-opacity:1;stroke:none;font-family:Sans"
       id="text5481">
      <path
         d="m 258.81241,377.56879 c 0.16666,-0.46876 0.35416,-0.70313 0.5625,-0.70313 0.77083,0 1.39062,-0.0625 1.85937,-0.1875 0.46875,-0.125 0.8177,-0.42709 1.04688,-0.90625 l 2.45312,-5.4375 c -1.45834,1.19792 -2.79688,1.79688 -4.01562,1.79688 -1.34376,0 -2.29688,-0.50521 -2.85938,-1.51563 -0.5625,-1.02083 -0.70312,-2.22395 -0.42187,-3.60937 0.27083,-1.36458 0.90625,-2.78125 1.90625,-4.25 0.99999,-1.46874 2.19791,-2.68749 3.59375,-3.65625 1.39582,-0.97916 2.79165,-1.46874 4.1875,-1.46875 0.64582,1e-5 1.18749,0.19272 1.625,0.57812 0.4479,0.38543 0.74478,0.89585 0.89062,1.53125 0.17707,-0.24999 0.60416,-0.66144 1.28125,-1.23437 0.68749,-0.58332 1.14582,-0.87499 1.375,-0.875 0.23957,1e-5 0.33332,0.13543 0.28125,0.40625 l -8.0625,17.85937 c -0.11459,0.3125 -0.1823,0.49479 -0.20312,0.54688 -0.0521,0.28124 0.62499,0.42187 2.03125,0.42187 0.10415,0 0.17707,0.0417 0.21875,0.125 0.0417,0.0833 0.0521,0.17708 0.0312,0.28125 -0.13543,0.28125 -0.23439,0.46875 -0.29688,0.5625 -0.0625,0.0937 -0.19272,0.14062 -0.39062,0.14063 l -6.84375,0 c -0.21876,-10e-6 -0.30209,-0.13543 -0.25,-0.40625 m 2.14062,-6.28125 c 0.75,0 1.53645,-0.28125 2.35938,-0.84375 0.83332,-0.57292 1.59374,-1.25 2.28125,-2.03125 l 3.23437,-7.20313 c 0.0312,-0.74999 -0.11459,-1.39582 -0.4375,-1.9375 -0.31251,-0.54165 -0.81772,-0.81249 -1.51562,-0.8125 -0.71876,1e-5 -1.44793,0.29689 -2.1875,0.89063 -0.72918,0.58334 -1.39063,1.27605 -1.98438,2.07812 -0.58334,0.85418 -1.21354,2.02605 -1.89062,3.51563 -0.67709,1.48959 -1.09896,2.64583 -1.26563,3.46875 -0.14583,0.73958 -0.11979,1.40625 0.0781,2 0.19791,0.58333 0.64062,0.875 1.32812,0.875"
         style="font-size:32px;font-style:italic;font-variant:normal;font-stretch:normal;font-family:cmmi10;-inkscape-font-specification:cmmi10 Italic"
         id="path3038" />
    </g>
    <path
       style="fill:none;stroke:#000000;stroke-width:1px;stroke-linecap:butt;stroke-linejoin:miter;stroke-opacity:1;marker-start:url(#Arrow2Mstart);marker-end:url(#Arrow2Mend)"
       d="m 210.36427,278.43381 c 8.20989,-5.21267 18.30339,-7.38469 27.93072,-6.01041 8.75945,1.25039 17.07854,5.40994 23.33452,11.66726"
       id="path5489"
       inkscape:path-effect="#path-effect5491"
       inkscape:original-d="m 210.36427,278.43381 c 0,0 12.98035,-8.79188 27.93072,-6.01041 15.20279,2.82843 23.33452,11.66726 23.33452,11.66726"
       inkscape:connector-curvature="0"
       sodipodi:nodetypes="csc" />
    <g
       style="font-size:40px;font-style:normal;font-weight:normal;line-height:125%;letter-spacing:0px;word-spacing:0px;fill:#000000;fill-opacity:1;stroke:none;font-family:Sans"
       id="text5885">
      <path
         d="m 244.72575,256.73346 -9.9375,0 c -0.44792,3.11459 -0.44271,5.33334 0.0156,6.65625 0.57291,1.625 1.63541,2.4375 3.1875,2.4375 1.56249,0 2.93749,-0.81771 4.125,-2.45313 1.04165,-1.43749 1.91144,-3.65103 2.60937,-6.64062 m 0.48438,-2.65625 c 0.28123,-2.95832 0.23957,-4.95832 -0.125,-6 -0.57293,-1.64581 -1.62501,-2.46873 -3.15625,-2.46875 -1.59376,2e-5 -2.97397,0.81252 -4.14063,2.4375 -0.91667,1.31252 -1.73438,3.32293 -2.45312,6.03125 l 9.875,0 m -2.82813,-10.8125 c 2.49999,2e-5 4.24999,1.10419 5.25,3.3125 0.99999,2.19794 1.11978,5.24481 0.35938,9.14062 -0.75002,3.88543 -2.05731,6.9323 -3.92188,9.14063 -1.85417,2.21875 -4.03126,3.32812 -6.53125,3.32812 -2.51042,0 -4.26042,-1.10937 -5.25,-3.32812 -0.98958,-2.20833 -1.10937,-5.2552 -0.35937,-9.14063 0.76041,-3.89581 2.06249,-6.94268 3.90625,-9.14062 1.85416,-2.20831 4.03645,-3.31248 6.54687,-3.3125"
         style="font-size:32px"
         id="path3044" />
    </g>
    <g
       style="font-size:40px;font-style:normal;font-weight:normal;line-height:125%;letter-spacing:0px;word-spacing:0px;fill:#000000;fill-opacity:1;stroke:none;font-family:Sans"
       id="text5903">
      <path
         d="m 186.51108,443.53925 c -1.60418,-10e-6 -3.02605,-0.36459 -4.26563,-1.09375 -1.23958,-0.73959 -2.19792,-1.76042 -2.875,-3.0625 -0.66667,-1.3125 -1,-2.76562 -1,-4.35938 0,-2.32291 0.65625,-4.6354 1.96875,-6.9375 1.32291,-2.30207 3.0625,-4.17706 5.21875,-5.625 2.15624,-1.45831 4.41145,-2.18748 6.76563,-2.1875 1.21873,2e-5 2.33331,0.21877 3.34375,0.65625 1.01039,0.43752 1.86456,1.0469 2.5625,1.82813 0.69789,0.77085 1.23435,1.6771 1.60937,2.71875 0.3854,1.04168 0.5781,2.17709 0.57813,3.40625 -3e-5,1.76042 -0.37503,3.51563 -1.125,5.26562 -0.75002,1.73959 -1.79169,3.32813 -3.125,4.76563 -1.32294,1.42708 -2.81252,2.55729 -4.46875,3.39062 -1.65627,0.82292 -3.38543,1.23437 -5.1875,1.23438 m 0.25,-0.95313 c 1.55207,0 2.99998,-0.48958 4.34375,-1.46875 1.34373,-0.98958 2.48956,-2.26041 3.4375,-3.8125 0.9479,-1.56249 1.67185,-3.19791 2.17187,-4.90625 0.5104,-1.71874 0.76561,-3.31769 0.76563,-4.79687 -2e-5,-1.15624 -0.19794,-2.21353 -0.59375,-3.17188 -0.39586,-0.96873 -1.00523,-1.74477 -1.82813,-2.32812 -0.82293,-0.59373 -1.80731,-0.89061 -2.95312,-0.89063 -1.12502,2e-5 -2.21877,0.27086 -3.28125,0.8125 -1.06251,0.54169 -2.02605,1.26044 -2.89063,2.15625 -0.88542,0.90627 -1.67188,2.03127 -2.35937,3.375 -0.68751,1.33335 -1.20834,2.7396 -1.5625,4.21875 -0.35417,1.46876 -0.53126,2.85418 -0.53125,4.15625 -1e-5,1.81251 0.4427,3.375 1.32812,4.6875 0.89583,1.3125 2.21354,1.96875 3.95313,1.96875"
         style="font-size:32px;font-variant:normal;font-stretch:normal;font-family:cmmi10;-inkscape-font-specification:cmmi10"
         id="path3035" />
    </g>
    <g
       transform="translate(38.183766,-8.4852814)"
       style="font-size:40px;font-style:normal;font-weight:normal;line-height:125%;letter-spacing:0px;word-spacing:0px;fill:#000000;fill-opacity:1;stroke:none;font-family:Sans"
       id="flowRoot5907">
      <path
         d="m 141.34375,242.3125 c -0.20833,0 -0.3125,-0.14062 -0.3125,-0.42188 0.0833,-0.46874 0.21875,-0.70312 0.40625,-0.70312 1.26041,0 2.11458,-0.0417 2.5625,-0.125 0.48958,-0.11458 0.79687,-0.43229 0.92187,-0.95313 l 4.39063,-17.57812 c 0.0417,-0.20831 0.0625,-0.34373 0.0625,-0.40625 -1e-5,-0.1354 -0.0365,-0.22915 -0.10938,-0.28125 -0.0625,-0.0625 -0.16667,-0.10935 -0.3125,-0.14063 -0.42709,-0.0833 -1.23438,-0.12497 -2.42187,-0.125 -0.21876,3e-5 -0.32813,-0.1406 -0.32813,-0.42187 0.0729,-0.27081 0.13021,-0.4531 0.17188,-0.54688 0.0417,-0.10414 0.16666,-0.15622 0.375,-0.15625 l 8.9375,0 c 0.20832,3e-5 0.31248,0.14065 0.3125,0.42188 -0.0104,0.0521 -0.0313,0.14065 -0.0625,0.26562 -0.0313,0.12503 -0.0729,0.22919 -0.125,0.3125 -0.0521,0.0834 -0.13022,0.12503 -0.23438,0.125 -1.25001,3e-5 -2.11459,0.0417 -2.59375,0.125 -0.46876,0.11461 -0.76563,0.43753 -0.89062,0.96875 l -4.375,17.5625 c -0.0521,0.26042 -0.0781,0.40105 -0.0781,0.42188 0,0.0521 0.005,0.10417 0.0156,0.15625 0.0208,0.0417 0.0521,0.0833 0.0937,0.125 0.0521,0.0312 0.099,0.0573 0.14062,0.0781 0.0521,0.0104 0.10937,0.026 0.17188,0.0469 0.40624,0.0833 1.21874,0.125 2.4375,0.125 0.20832,0 0.31249,0.14063 0.3125,0.42187 -0.0729,0.30209 -0.13022,0.4948 -0.17188,0.57813 -0.0417,0.0833 -0.16667,0.125 -0.375,0.125 l -8.92187,0"
         style="font-size:32px;font-variant:normal;font-stretch:normal;font-family:cmmi10;-inkscape-font-specification:cmmi10"
         id="path3047" />
    </g>
    <g
       transform="translate(162.61136,2.1497185)"
       style="font-size:40px;font-style:normal;font-weight:normal;line-height:125%;letter-spacing:0px;word-spacing:0px;fill:#000000;fill-opacity:1;stroke:none;font-family:Sans"
       id="flowRoot5907-7">
      <path
         d="m 141.59375,242.3125 c -0.20833,0 -0.3125,-0.14062 -0.3125,-0.42188 0.0104,-0.0521 0.0312,-0.14062 0.0625,-0.26562 0.0312,-0.125 0.0729,-0.22917 0.125,-0.3125 0.0521,-0.0833 0.13021,-0.125 0.23437,-0.125 0.60417,0 1.13021,-0.0156 1.57813,-0.0469 0.44791,-0.0312 0.82812,-0.0885 1.14062,-0.17187 0.25,-0.0937 0.45313,-0.38021 0.60938,-0.85938 l 4.375,-17.57812 c 0.0417,-0.20831 0.0625,-0.35415 0.0625,-0.4375 -1e-5,-0.22915 -0.12501,-0.35935 -0.375,-0.39063 -0.40626,-0.0833 -1.17709,-0.12497 -2.3125,-0.125 -0.20834,3e-5 -0.31251,-0.1406 -0.3125,-0.42187 0.0104,-0.0521 0.0312,-0.1406 0.0625,-0.26563 0.0312,-0.13539 0.0729,-0.23956 0.125,-0.3125 0.0625,-0.0833 0.13541,-0.12497 0.21875,-0.125 l 11.46875,0 c 0.6979,3e-5 1.3854,0.0886 2.0625,0.26563 0.68748,0.16669 1.31769,0.43752 1.89062,0.8125 0.58332,0.37502 1.04165,0.84377 1.375,1.40625 0.34373,0.5521 0.51561,1.19793 0.51563,1.9375 -2e-5,0.8021 -0.20836,1.54689 -0.625,2.23437 -0.40627,0.68752 -0.93752,1.28648 -1.59375,1.79688 -0.64585,0.51043 -1.34898,0.9323 -2.10938,1.26562 -0.75001,0.32293 -1.53647,0.56252 -2.35937,0.71875 0.58332,2e-5 1.17186,0.1146 1.76562,0.34375 0.60415,0.22918 1.14061,0.54168 1.60938,0.9375 0.46873,0.39585 0.84373,0.86981 1.125,1.42188 0.29164,0.55209 0.43748,1.14584 0.4375,1.78125 -2e-5,1.28126 -0.44794,2.45313 -1.34375,3.51562 -0.89585,1.06251 -2.02606,1.90105 -3.39063,2.51563 -1.35418,0.60417 -2.66668,0.90625 -3.9375,0.90625 l -12.17187,0 m 5.89062,-1.375 c 0,0.16667 0.36458,0.25 1.09375,0.25 l 4.57813,0 c 1.04165,0 2.04165,-0.28646 3,-0.85938 0.95832,-0.58333 1.72394,-1.35416 2.29687,-2.3125 0.58332,-0.95832 0.87499,-1.95832 0.875,-3 -1e-5,-0.6354 -0.13543,-1.23436 -0.40625,-1.79687 -0.26043,-0.57291 -0.64064,-1.02082 -1.14062,-1.34375 -0.50002,-0.33332 -1.07293,-0.49999 -1.71875,-0.5 l -6.23438,0 -2.21875,8.85937 c -0.0833,0.29167 -0.125,0.52605 -0.125,0.70313 m 2.5625,-10.40625 4.85938,0 c 1.02082,1e-5 2.0104,-0.2604 2.96875,-0.78125 0.96873,-0.52082 1.75519,-1.22915 2.35937,-2.125 0.61457,-0.89582 0.92186,-1.84373 0.92188,-2.84375 -2e-5,-0.92706 -0.29169,-1.69269 -0.875,-2.29688 -0.57294,-0.60414 -1.31773,-0.90622 -2.23438,-0.90625 l -4.39062,0 c -0.57293,3e-5 -0.95835,0.0521 -1.15625,0.15625 -0.19793,0.10419 -0.3646,0.41669 -0.5,0.9375 l -1.95313,7.85938"
         style="font-size:32px;font-variant:normal;font-stretch:normal;font-family:cmmi10;-inkscape-font-specification:cmmi10"
         id="path3041" />
    </g>
  </g>
</svg>
