<?xml version="1.0" encoding="utf-8" standalone="no"?>
<!DOCTYPE svg PUBLIC "-//W3C//DTD SVG 1.1//EN"
  "http://www.w3.org/Graphics/SVG/1.1/DTD/svg11.dtd">
<!-- Created with matplotlib (http://matplotlib.org/) -->
<svg height="198pt" version="1.1" viewBox="0 0 393 198" width="393pt" xmlns="http://www.w3.org/2000/svg" xmlns:xlink="http://www.w3.org/1999/xlink">
 <defs>
  <style type="text/css">
*{stroke-linecap:butt;stroke-linejoin:round;}
  </style>
 </defs>
 <g id="figure_1">
  <g id="patch_1">
   <path d="
M0 198.297
L393.625 198.297
L393.625 0
L0 0
z
" style="fill:#ffffff;"/>
  </g>
  <g id="axes_1">
   <g id="patch_2">
    <path d="
M47.5937 178.766
L382.394 178.766
L382.394 11.3657
L47.5937 11.3657
z
" style="fill:#ffffff;"/>
   </g>
   <g id="line2d_1">
    <path clip-path="url(#p02fbce90f1)" d="
M50.9417 34.1891
L54.2897 141.499
L57.6377 153.971
L60.9857 94.5202
L64.3337 146.398
L67.6817 106.635
L71.0297 112.884
L74.3777 148.175
L77.7257 138.992
L81.0737 114.369
L84.4217 149.233
L87.7697 154.411
L91.1177 146.61
L94.4657 135.87
L97.8137 127.737
L101.162 124.686
L104.51 127.057
L107.858 133.716
L111.206 142.515
L114.554 150.625
L117.902 145.103
L121.25 139.318
L124.598 134.316
L127.946 130.743
L131.294 128.929
L134.642 128.954
L137.99 130.693
L141.338 133.868
L144.686 138.075
L148.034 142.812
L151.382 147.501
L154.73 151.513
L158.078 154.169
L161.426 154.769
L164.774 152.596
L168.122 146.922
L171.47 137.018
L174.818 133.963
L178.166 134.578
L181.514 134.61
L184.862 140.985
L188.21 145.875
L191.558 149.495
L194.906 152.042
L198.254 153.684
L201.602 154.575
L204.95 154.853
L208.298 154.631
L211.646 154.022
L214.994 153.116
L218.342 151.995
L221.69 150.731
L225.038 149.386
L228.386 148.013
L231.734 146.658
L235.082 145.361
L238.43 144.152
L241.778 143.056
L245.126 142.1
L248.474 141.294
L251.822 140.653
L255.17 140.183
L258.518 139.888
L261.866 139.769
L265.214 139.823
L268.562 140.044
L271.91 140.424
L275.258 140.954
L278.606 141.62
L281.954 142.409
L285.302 143.302
L288.65 144.284
L291.998 145.334
L295.346 146.432
L298.694 147.555
L302.042 148.683
L305.39 149.79
L308.738 150.852
L312.086 151.843
L315.434 152.738
L318.782 152.098
L322.13 151.415
L325.478 150.705
L328.826 149.977
L332.174 149.242
L335.522 148.509
L338.87 147.788
L342.218 147.085
L345.566 146.407
L348.914 145.761
L352.262 145.151
L355.61 144.584
L358.958 144.061
L362.306 143.588
L365.654 143.166
L369.002 142.797
L372.35 142.485
L375.698 142.229
L379.046 142.031
L382.394 141.89" style="fill:none;stroke:#348abd;stroke-linecap:square;stroke-width:2;"/>
   </g>
   <g id="patch_3">
    <path d="
M47.5937 11.3657
L382.394 11.3657" style="fill:none;stroke:#000000;stroke-linecap:square;stroke-linejoin:miter;"/>
   </g>
   <g id="patch_4">
    <path d="
M382.394 178.766
L382.394 11.3657" style="fill:none;stroke:#000000;stroke-linecap:square;stroke-linejoin:miter;"/>
   </g>
   <g id="patch_5">
    <path d="
M47.5937 178.766
L382.394 178.766" style="fill:none;stroke:#000000;stroke-linecap:square;stroke-linejoin:miter;"/>
   </g>
   <g id="patch_6">
    <path d="
M47.5937 178.766
L47.5937 11.3657" style="fill:none;stroke:#000000;stroke-linecap:square;stroke-linejoin:miter;"/>
   </g>
   <g id="matplotlib.axis_1">
    <g id="xtick_1">
     <g id="line2d_2">
      <defs>
       <path d="
M0 0
L0 -4" id="m93b0483c22" style="stroke:#000000;stroke-width:0.5;"/>
      </defs>
      <g>
       <use style="stroke:#000000;stroke-width:0.5;" x="47.5936875" xlink:href="#m93b0483c22" y="178.765650781"/>
      </g>
     </g>
     <g id="line2d_3">
      <defs>
       <path d="
M0 0
L0 4" id="m741efc42ff" style="stroke:#000000;stroke-width:0.5;"/>
      </defs>
      <g>
       <use style="stroke:#000000;stroke-width:0.5;" x="47.5936875" xlink:href="#m741efc42ff" y="11.3656507813"/>
      </g>
     </g>
     <g id="text_1">
      <!-- 0 -->
      <defs>
       <path d="
M50.3906 35.7969
Q50.3906 27.1562 49.1406 20.3125
Q47.9062 13.4844 45.1406 8.73438
Q42.3906 4 38.0312 1.5
Q33.6875 -0.984375 27.4844 -0.984375
Q21.7344 -0.984375 17.4531 1.5
Q13.1875 4 10.375 8.73438
Q7.5625 13.4844 6.17188 20.3125
Q4.78125 27.1562 4.78125 35.7969
Q4.78125 44.4375 6.03125 51.2656
Q7.28125 58.1094 9.98438 62.8125
Q12.7031 67.5312 17.0156 70.0156
Q21.3438 72.5156 27.4844 72.5156
Q33.2969 72.5156 37.5938 70.0469
Q41.8906 67.5781 44.7188 62.8594
Q47.5625 58.1562 48.9688 51.3125
Q50.3906 44.4844 50.3906 35.7969
M13.8125 35.7969
Q13.8125 28.4688 14.5469 23
Q15.2812 17.5312 16.8906 13.8906
Q18.5 10.25 21.1094 8.42188
Q23.7344 6.59375 27.4844 6.59375
Q31.25 6.59375 33.8906 8.39062
Q36.5312 10.2031 38.2031 13.8125
Q39.8906 17.4375 40.6406 22.9219
Q41.4062 28.4219 41.4062 35.7969
Q41.4062 43.1094 40.6406 48.5781
Q39.8906 54.0469 38.2031 57.6562
Q36.5312 61.2812 33.8906 63.0781
Q31.25 64.8906 27.4844 64.8906
Q23.7344 64.8906 21.1094 63.0781
Q18.5 61.2812 16.8906 57.6562
Q15.2812 54.0469 14.5469 48.5781
Q13.8125 43.1094 13.8125 35.7969" id="WenQuanYiMicroHei-30"/>
      </defs>
      <g transform="translate(45.6940570313 189.095149219)scale(0.0833 -0.0833)">
       <use xlink:href="#WenQuanYiMicroHei-30"/>
      </g>
     </g>
    </g>
    <g id="xtick_2">
     <g id="line2d_4">
      <g>
       <use style="stroke:#000000;stroke-width:0.5;" x="114.5536875" xlink:href="#m93b0483c22" y="178.765650781"/>
      </g>
     </g>
     <g id="line2d_5">
      <g>
       <use style="stroke:#000000;stroke-width:0.5;" x="114.5536875" xlink:href="#m741efc42ff" y="11.3656507813"/>
      </g>
     </g>
     <g id="text_2">
      <!-- 2 -->
      <defs>
       <path d="
M49.2188 0
L4.6875 0
L4.6875 7.625
L21.7812 26.2188
Q25.4375 30.1719 28.3125 33.4375
Q31.2031 36.7188 33.2188 39.8438
Q35.25 42.9688 36.3281 46.1094
Q37.4062 49.2656 37.4062 52.9844
Q37.4062 55.8594 36.5781 58.0469
Q35.75 60.25 34.2031 61.7812
Q32.6719 63.3281 30.5625 64.1094
Q28.4688 64.8906 25.875 64.8906
Q21.2344 64.8906 17.5 63.0156
Q13.7656 61.1406 10.4062 58.2031
L5.42188 64.0156
Q7.375 65.7656 9.60938 67.2969
Q11.8594 68.8438 14.4531 69.9688
Q17.0469 71.0938 19.9219 71.75
Q22.7969 72.4062 25.9844 72.4062
Q30.6719 72.4062 34.4531 71.0938
Q38.2344 69.7812 40.8594 67.3125
Q43.5 64.8438 44.9375 61.2969
Q46.3906 57.7656 46.3906 53.3281
Q46.3906 49.1719 45.0938 45.4062
Q43.7969 41.6562 41.5312 38.0156
Q39.2656 34.375 36.1094 30.7031
Q32.9531 27.0469 29.2969 23.0938
L15.5781 8.5
L15.5781 8.10938
L49.2188 8.10938
z
" id="WenQuanYiMicroHei-32"/>
      </defs>
      <g transform="translate(112.698960938 189.095149219)scale(0.0833 -0.0833)">
       <use xlink:href="#WenQuanYiMicroHei-32"/>
      </g>
     </g>
    </g>
    <g id="xtick_3">
     <g id="line2d_6">
      <g>
       <use style="stroke:#000000;stroke-width:0.5;" x="181.5136875" xlink:href="#m93b0483c22" y="178.765650781"/>
      </g>
     </g>
     <g id="line2d_7">
      <g>
       <use style="stroke:#000000;stroke-width:0.5;" x="181.5136875" xlink:href="#m741efc42ff" y="11.3656507813"/>
      </g>
     </g>
     <g id="text_3">
      <!-- 4 -->
      <defs>
       <path d="
M53.0781 16.0156
L42.6719 16.0156
L42.6719 0
L34.0781 0
L34.0781 16.0156
L1.125 16.0156
L1.125 23.7812
L33.5 71.7812
L42.6719 71.7812
L42.6719 24.125
L53.0781 24.125
z

M34.0781 24.125
L34.0781 41.5
Q34.0781 44.2344 34.1562 47.2344
Q34.2344 50.25 34.3281 53.0938
Q34.4219 55.9531 34.5469 58.4375
Q34.6719 60.9375 34.7188 62.5938
L34.2812 62.5938
Q33.9375 61.625 33.4219 60.4219
Q32.9062 59.2344 32.2969 58.0312
Q31.6875 56.8438 31.0469 55.7188
Q30.4219 54.5938 29.8906 53.8125
L9.8125 24.125
z
" id="WenQuanYiMicroHei-34"/>
      </defs>
      <g transform="translate(179.349839844 189.095149219)scale(0.0833 -0.0833)">
       <use xlink:href="#WenQuanYiMicroHei-34"/>
      </g>
     </g>
    </g>
    <g id="xtick_4">
     <g id="line2d_8">
      <g>
       <use style="stroke:#000000;stroke-width:0.5;" x="248.4736875" xlink:href="#m93b0483c22" y="178.765650781"/>
      </g>
     </g>
     <g id="line2d_9">
      <g>
       <use style="stroke:#000000;stroke-width:0.5;" x="248.4736875" xlink:href="#m741efc42ff" y="11.3656507813"/>
      </g>
     </g>
     <g id="text_4">
      <!-- 6 -->
      <defs>
       <path d="
M5.51562 30.5156
Q5.51562 35.6406 6.03125 40.7188
Q6.54688 45.7969 7.82812 50.4531
Q9.125 55.125 11.375 59.125
Q13.625 63.1406 17.0938 66.0938
Q20.5625 69.0469 25.3906 70.7188
Q30.2188 72.4062 36.7188 72.4062
Q37.6406 72.4062 38.7656 72.3594
Q39.8906 72.3125 41.0312 72.1875
Q42.1875 72.0781 43.2344 71.9062
Q44.2812 71.7344 45.125 71.4844
L45.125 63.9219
Q43.4062 64.5 41.25 64.7969
Q39.1094 65.0938 37.0156 65.0938
Q32.625 65.0938 29.2656 64.0312
Q25.9219 62.9844 23.4844 61.0781
Q21.0469 59.1875 19.4062 56.5469
Q17.7812 53.9062 16.75 50.7031
Q15.7188 47.5156 15.2344 43.8906
Q14.75 40.2812 14.5938 36.375
L15.1875 36.375
Q16.1562 38.1406 17.5469 39.6719
Q18.9531 41.2188 20.7969 42.3125
Q22.6562 43.4062 24.9688 44.0312
Q27.2969 44.6719 30.1719 44.6719
Q34.8125 44.6719 38.5625 43.2344
Q42.3281 41.7969 44.9688 39.0156
Q47.6094 36.2344 49.0469 32.2031
Q50.4844 28.1719 50.4844 23
Q50.4844 17.4375 48.9688 12.9844
Q47.4688 8.54688 44.625 5.4375
Q41.7969 2.34375 37.7969 0.671875
Q33.7969 -0.984375 28.8125 -0.984375
Q23.9219 -0.984375 19.6406 0.921875
Q15.375 2.82812 12.25 6.73438
Q9.125 10.6406 7.3125 16.5469
Q5.51562 22.4688 5.51562 30.5156
M28.7188 6.5
Q31.6406 6.5 34.0469 7.5
Q36.4688 8.5 38.2188 10.5156
Q39.9844 12.5469 40.9375 15.6406
Q41.8906 18.75 41.8906 23
Q41.8906 26.4219 41.0781 29.125
Q40.2812 31.8438 38.6719 33.7344
Q37.0625 35.6406 34.6406 36.6719
Q32.2344 37.7031 29 37.7031
Q25.7344 37.7031 23.0156 36.5469
Q20.3125 35.4062 18.4062 33.5625
Q16.5 31.7344 15.4531 29.3906
Q14.4062 27.0469 14.4062 24.7031
Q14.4062 21.4375 15.3125 18.1875
Q16.2188 14.9375 18 12.3438
Q19.7812 9.76562 22.4531 8.125
Q25.1406 6.5 28.7188 6.5" id="WenQuanYiMicroHei-36"/>
      </defs>
      <g transform="translate(246.600739063 189.095149219)scale(0.0833 -0.0833)">
       <use xlink:href="#WenQuanYiMicroHei-36"/>
      </g>
     </g>
    </g>
    <g id="xtick_5">
     <g id="line2d_10">
      <g>
       <use style="stroke:#000000;stroke-width:0.5;" x="315.4336875" xlink:href="#m93b0483c22" y="178.765650781"/>
      </g>
     </g>
     <g id="line2d_11">
      <g>
       <use style="stroke:#000000;stroke-width:0.5;" x="315.4336875" xlink:href="#m741efc42ff" y="11.3656507813"/>
      </g>
     </g>
     <g id="text_5">
      <!-- 8 -->
      <defs>
       <path d="
M27.5938 72.5156
Q31.6875 72.5156 35.3281 71.4375
Q38.9688 70.3594 41.7188 68.2031
Q44.4844 66.0625 46.0938 62.8438
Q47.7031 59.625 47.7031 55.3281
Q47.7031 52.0469 46.7188 49.4062
Q45.75 46.7812 44.0312 44.6562
Q42.3281 42.5312 39.9844 40.8438
Q37.6406 39.1562 34.9062 37.7969
Q37.75 36.2812 40.4531 34.4219
Q43.1719 32.5625 45.2812 30.25
Q47.4062 27.9375 48.7031 25.0469
Q50 22.1719 50 18.6094
Q50 14.1094 48.3594 10.4688
Q46.7344 6.84375 43.7812 4.29688
Q40.8281 1.76562 36.6875 0.390625
Q32.5625 -0.984375 27.5938 -0.984375
Q22.2188 -0.984375 18.0469 0.328125
Q13.875 1.65625 11.0156 4.125
Q8.15625 6.59375 6.65625 10.1562
Q5.17188 13.7188 5.17188 18.2188
Q5.17188 21.875 6.26562 24.7969
Q7.375 27.7344 9.21875 30.0781
Q11.0781 32.4219 13.6094 34.2188
Q16.1562 36.0312 19 37.4062
Q16.6094 38.9219 14.5 40.7031
Q12.4062 42.4844 10.8594 44.6719
Q9.32812 46.875 8.42188 49.5312
Q7.51562 52.2031 7.51562 55.4219
Q7.51562 59.6719 9.15625 62.8594
Q10.7969 66.0625 13.5781 68.2031
Q16.3594 70.3594 20 71.4375
Q23.6406 72.5156 27.5938 72.5156
M13.9219 18.1094
Q13.9219 15.5312 14.7031 13.3594
Q15.4844 11.1875 17.1406 9.64062
Q18.7969 8.10938 21.3281 7.25
Q23.875 6.39062 27.3906 6.39062
Q30.8125 6.39062 33.4219 7.25
Q36.0312 8.10938 37.7812 9.6875
Q39.5469 11.2812 40.4219 13.5156
Q41.3125 15.7656 41.3125 18.5
Q41.3125 21.0469 40.3594 23.0938
Q39.4062 25.1406 37.625 26.8906
Q35.8438 28.6562 33.3438 30.2188
Q30.8594 31.7812 27.7812 33.2969
L26.3125 33.9844
Q20.1719 31.0625 17.0469 27.2656
Q13.9219 23.4844 13.9219 18.1094
M27.4844 65.0938
Q22.3125 65.0938 19.2656 62.5
Q16.2188 59.9062 16.2188 54.9844
Q16.2188 52.2031 17.0625 50.1875
Q17.9219 48.1875 19.4375 46.625
Q20.9531 45.0625 23.0781 43.8125
Q25.2031 42.5781 27.6875 41.4062
Q30.0312 42.4844 32.1094 43.75
Q34.1875 45.0156 35.7188 46.625
Q37.25 48.25 38.125 50.2969
Q39.0156 52.3438 39.0156 54.9844
Q39.0156 59.9062 35.9375 62.5
Q32.8594 65.0938 27.4844 65.0938" id="WenQuanYiMicroHei-38"/>
      </defs>
      <g transform="translate(313.566596094 189.095149219)scale(0.0833 -0.0833)">
       <use xlink:href="#WenQuanYiMicroHei-38"/>
      </g>
     </g>
    </g>
    <g id="xtick_6">
     <g id="line2d_12">
      <g>
       <use style="stroke:#000000;stroke-width:0.5;" x="382.3936875" xlink:href="#m93b0483c22" y="178.765650781"/>
      </g>
     </g>
     <g id="line2d_13">
      <g>
       <use style="stroke:#000000;stroke-width:0.5;" x="382.3936875" xlink:href="#m741efc42ff" y="11.3656507813"/>
      </g>
     </g>
     <g id="text_6">
      <!-- 10 -->
      <defs>
       <path d="
M34.7188 0
L26.125 0
L26.125 44.5781
Q26.125 46.6875 26.1406 49.0781
Q26.1719 51.4688 26.2344 53.8281
Q26.3125 56.2031 26.3906 58.375
Q26.4688 60.5469 26.5156 62.2031
Q25.6875 61.3281 25.0469 60.6875
Q24.4219 60.0625 23.75 59.4688
Q23.0938 58.8906 22.3594 58.2188
Q21.625 57.5625 20.6094 56.6875
L13.375 50.7812
L8.6875 56.7812
L27.3906 71.3906
L34.7188 71.3906
z
" id="WenQuanYiMicroHei-31"/>
      </defs>
      <g transform="translate(378.362748438 189.095149219)scale(0.0833 -0.0833)">
       <use xlink:href="#WenQuanYiMicroHei-31"/>
       <use x="55.078125" xlink:href="#WenQuanYiMicroHei-30"/>
      </g>
     </g>
    </g>
   </g>
   <g id="matplotlib.axis_2">
    <g id="ytick_1">
     <g id="line2d_14">
      <defs>
       <path d="
M0 0
L4 0" id="m728421d6d4" style="stroke:#000000;stroke-width:0.5;"/>
      </defs>
      <g>
       <use style="stroke:#000000;stroke-width:0.5;" x="47.5936875" xlink:href="#m728421d6d4" y="178.765650781"/>
      </g>
     </g>
     <g id="line2d_15">
      <defs>
       <path d="
M0 0
L-4 0" id="mcb0005524f" style="stroke:#000000;stroke-width:0.5;"/>
      </defs>
      <g>
       <use style="stroke:#000000;stroke-width:0.5;" x="382.3936875" xlink:href="#mcb0005524f" y="178.765650781"/>
      </g>
     </g>
     <g id="text_7">
      <!-- −0.001 -->
      <defs>
       <path d="
M4.98438 31.5938
L4.98438 38.9219
L50.0938 38.9219
L50.0938 31.5938
z
" id="WenQuanYiMicroHei-2212"/>
       <path d="
M7.17188 5.42188
Q7.17188 7.28125 7.65625 8.5625
Q8.15625 9.85938 8.98438 10.6562
Q9.8125 11.4688 10.9375 11.8281
Q12.0625 12.2031 13.375 12.2031
Q14.6562 12.2031 15.7969 11.8281
Q16.9375 11.4688 17.7656 10.6562
Q18.6094 9.85938 19.0938 8.5625
Q19.5781 7.28125 19.5781 5.42188
Q19.5781 3.60938 19.0938 2.3125
Q18.6094 1.03125 17.7656 0.1875
Q16.9375 -0.640625 15.7969 -1.03125
Q14.6562 -1.42188 13.375 -1.42188
Q12.0625 -1.42188 10.9375 -1.03125
Q9.8125 -0.640625 8.98438 0.1875
Q8.15625 1.03125 7.65625 2.3125
Q7.17188 3.60938 7.17188 5.42188" id="WenQuanYiMicroHei-2e"/>
      </defs>
      <g transform="translate(20.5313015625 180.929498438)scale(0.0833 -0.0833)">
       <use xlink:href="#WenQuanYiMicroHei-2212"/>
       <use x="55.078125" xlink:href="#WenQuanYiMicroHei-30"/>
       <use x="110.15625" xlink:href="#WenQuanYiMicroHei-2e"/>
       <use x="136.962890625" xlink:href="#WenQuanYiMicroHei-30"/>
       <use x="192.041015625" xlink:href="#WenQuanYiMicroHei-30"/>
       <use x="247.119140625" xlink:href="#WenQuanYiMicroHei-31"/>
      </g>
     </g>
    </g>
    <g id="ytick_2">
     <g id="line2d_16">
      <g>
       <use style="stroke:#000000;stroke-width:0.5;" x="47.5936875" xlink:href="#m728421d6d4" y="154.851365067"/>
      </g>
     </g>
     <g id="line2d_17">
      <g>
       <use style="stroke:#000000;stroke-width:0.5;" x="382.3936875" xlink:href="#mcb0005524f" y="154.851365067"/>
      </g>
     </g>
     <g id="text_8">
      <!-- 0.000 -->
      <g transform="translate(23.796921875 157.015212723)scale(0.0833 -0.0833)">
       <use xlink:href="#WenQuanYiMicroHei-30"/>
       <use x="55.078125" xlink:href="#WenQuanYiMicroHei-2e"/>
       <use x="81.884765625" xlink:href="#WenQuanYiMicroHei-30"/>
       <use x="136.962890625" xlink:href="#WenQuanYiMicroHei-30"/>
       <use x="192.041015625" xlink:href="#WenQuanYiMicroHei-30"/>
      </g>
     </g>
    </g>
    <g id="ytick_3">
     <g id="line2d_18">
      <g>
       <use style="stroke:#000000;stroke-width:0.5;" x="47.5936875" xlink:href="#m728421d6d4" y="130.937079353"/>
      </g>
     </g>
     <g id="line2d_19">
      <g>
       <use style="stroke:#000000;stroke-width:0.5;" x="382.3936875" xlink:href="#mcb0005524f" y="130.937079353"/>
      </g>
     </g>
     <g id="text_9">
      <!-- 0.001 -->
      <g transform="translate(25.1023890625 133.100927009)scale(0.0833 -0.0833)">
       <use xlink:href="#WenQuanYiMicroHei-30"/>
       <use x="55.078125" xlink:href="#WenQuanYiMicroHei-2e"/>
       <use x="81.884765625" xlink:href="#WenQuanYiMicroHei-30"/>
       <use x="136.962890625" xlink:href="#WenQuanYiMicroHei-30"/>
       <use x="192.041015625" xlink:href="#WenQuanYiMicroHei-31"/>
      </g>
     </g>
    </g>
    <g id="ytick_4">
     <g id="line2d_20">
      <g>
       <use style="stroke:#000000;stroke-width:0.5;" x="47.5936875" xlink:href="#m728421d6d4" y="107.022793638"/>
      </g>
     </g>
     <g id="line2d_21">
      <g>
       <use style="stroke:#000000;stroke-width:0.5;" x="382.3936875" xlink:href="#mcb0005524f" y="107.022793638"/>
      </g>
     </g>
     <g id="text_10">
      <!-- 0.002 -->
      <g transform="translate(23.8945390625 109.186641295)scale(0.0833 -0.0833)">
       <use xlink:href="#WenQuanYiMicroHei-30"/>
       <use x="55.078125" xlink:href="#WenQuanYiMicroHei-2e"/>
       <use x="81.884765625" xlink:href="#WenQuanYiMicroHei-30"/>
       <use x="136.962890625" xlink:href="#WenQuanYiMicroHei-30"/>
       <use x="192.041015625" xlink:href="#WenQuanYiMicroHei-32"/>
      </g>
     </g>
    </g>
    <g id="ytick_5">
     <g id="line2d_22">
      <g>
       <use style="stroke:#000000;stroke-width:0.5;" x="47.5936875" xlink:href="#m728421d6d4" y="83.1085079241"/>
      </g>
     </g>
     <g id="line2d_23">
      <g>
       <use style="stroke:#000000;stroke-width:0.5;" x="382.3936875" xlink:href="#mcb0005524f" y="83.1085079241"/>
      </g>
     </g>
     <g id="text_11">
      <!-- 0.003 -->
      <defs>
       <path d="
M46.9219 54.6875
Q46.9219 51.125 45.7969 48.1875
Q44.6719 45.2656 42.6406 43.1094
Q40.625 40.9688 37.7969 39.5781
Q34.9688 38.1875 31.5 37.5938
L31.5 37.3125
Q40.1406 36.2344 44.625 31.8125
Q49.125 27.3906 49.125 20.3125
Q49.125 15.625 47.5312 11.7188
Q45.9531 7.8125 42.7188 4.98438
Q39.5 2.15625 34.5625 0.578125
Q29.6406 -0.984375 22.9062 -0.984375
Q17.5781 -0.984375 12.8594 -0.140625
Q8.15625 0.6875 4 2.875
L4 11.1875
Q8.25 8.9375 13.2031 7.71875
Q18.1719 6.5 22.7031 6.5
Q27.2031 6.5 30.4688 7.46875
Q33.7344 8.45312 35.8594 10.25
Q37.9844 12.0625 38.9844 14.6875
Q39.9844 17.3281 39.9844 20.6094
Q39.9844 23.9219 38.6875 26.2812
Q37.4062 28.6562 35.0156 30.1875
Q32.625 31.7344 29.1719 32.4688
Q25.7344 33.2031 21.3906 33.2031
L14.8906 33.2031
L14.8906 40.5781
L21.3906 40.5781
Q25.3438 40.5781 28.4219 41.5469
Q31.5 42.5312 33.5625 44.3281
Q35.6406 46.1406 36.7188 48.625
Q37.7969 51.125 37.7969 54.1094
Q37.7969 56.6406 36.9062 58.6406
Q36.0312 60.6406 34.4219 62.0312
Q32.8125 63.4219 30.5625 64.1562
Q28.3281 64.8906 25.5938 64.8906
Q20.3594 64.8906 16.375 63.25
Q12.4062 61.625 8.79688 58.9844
L4.29688 65.0938
Q6.15625 66.6094 8.42188 67.9219
Q10.6875 69.2344 13.375 70.2344
Q16.0625 71.2344 19.1094 71.8125
Q22.1719 72.4062 25.5938 72.4062
Q30.8594 72.4062 34.8281 71.0938
Q38.8125 69.7812 41.5 67.4062
Q44.1875 65.0469 45.5469 61.7969
Q46.9219 58.5469 46.9219 54.6875" id="WenQuanYiMicroHei-33"/>
      </defs>
      <g transform="translate(23.9023484375 85.2723555804)scale(0.0833 -0.0833)">
       <use xlink:href="#WenQuanYiMicroHei-30"/>
       <use x="55.078125" xlink:href="#WenQuanYiMicroHei-2e"/>
       <use x="81.884765625" xlink:href="#WenQuanYiMicroHei-30"/>
       <use x="136.962890625" xlink:href="#WenQuanYiMicroHei-30"/>
       <use x="192.041015625" xlink:href="#WenQuanYiMicroHei-33"/>
      </g>
     </g>
    </g>
    <g id="ytick_6">
     <g id="line2d_24">
      <g>
       <use style="stroke:#000000;stroke-width:0.5;" x="47.5936875" xlink:href="#m728421d6d4" y="59.1942222098"/>
      </g>
     </g>
     <g id="line2d_25">
      <g>
       <use style="stroke:#000000;stroke-width:0.5;" x="382.3936875" xlink:href="#mcb0005524f" y="59.1942222098"/>
      </g>
     </g>
     <g id="text_12">
      <!-- 0.004 -->
      <g transform="translate(23.573053125 61.3580698661)scale(0.0833 -0.0833)">
       <use xlink:href="#WenQuanYiMicroHei-30"/>
       <use x="55.078125" xlink:href="#WenQuanYiMicroHei-2e"/>
       <use x="81.884765625" xlink:href="#WenQuanYiMicroHei-30"/>
       <use x="136.962890625" xlink:href="#WenQuanYiMicroHei-30"/>
       <use x="192.041015625" xlink:href="#WenQuanYiMicroHei-34"/>
      </g>
     </g>
    </g>
    <g id="ytick_7">
     <g id="line2d_26">
      <g>
       <use style="stroke:#000000;stroke-width:0.5;" x="47.5936875" xlink:href="#m728421d6d4" y="35.2799364955"/>
      </g>
     </g>
     <g id="line2d_27">
      <g>
       <use style="stroke:#000000;stroke-width:0.5;" x="382.3936875" xlink:href="#mcb0005524f" y="35.2799364955"/>
      </g>
     </g>
     <g id="text_13">
      <!-- 0.005 -->
      <defs>
       <path d="
M26.6094 43.7969
Q31.4531 43.7969 35.625 42.4531
Q39.7969 41.1094 42.8906 38.4688
Q46 35.8438 47.75 31.9375
Q49.5156 28.0312 49.5156 22.9062
Q49.5156 17.3281 47.8438 12.8906
Q46.1875 8.45312 42.9219 5.375
Q39.6562 2.29688 34.8438 0.65625
Q30.0312 -0.984375 23.7812 -0.984375
Q21.2969 -0.984375 18.875 -0.734375
Q16.4531 -0.484375 14.2344 -0.015625
Q12.0156 0.4375 10.0156 1.17188
Q8.01562 1.90625 6.39062 2.875
L6.39062 11.2812
Q8.01562 10.1562 10.1875 9.28125
Q12.3594 8.40625 14.75 7.8125
Q17.1406 7.23438 19.5469 6.90625
Q21.9688 6.59375 24.0312 6.59375
Q27.875 6.59375 30.9062 7.5
Q33.9375 8.40625 36.0312 10.2969
Q38.1406 12.2031 39.25 15.0781
Q40.375 17.9688 40.375 21.9219
Q40.375 28.9062 36.0781 32.5938
Q31.7812 36.2812 23.5781 36.2812
Q22.2656 36.2812 20.7188 36.1562
Q19.1875 36.0312 17.6406 35.8281
Q16.1094 35.6406 14.7188 35.4219
Q13.3281 35.2031 12.3125 35.0156
L7.90625 37.7969
L10.5938 71.3906
L44.2812 71.3906
L44.2812 63.2812
L18.3125 63.2812
L16.4062 42.8281
Q17.9688 43.1094 20.5312 43.4531
Q23.0938 43.7969 26.6094 43.7969" id="WenQuanYiMicroHei-35"/>
      </defs>
      <g transform="translate(23.869809375 37.4437841518)scale(0.0833 -0.0833)">
       <use xlink:href="#WenQuanYiMicroHei-30"/>
       <use x="55.078125" xlink:href="#WenQuanYiMicroHei-2e"/>
       <use x="81.884765625" xlink:href="#WenQuanYiMicroHei-30"/>
       <use x="136.962890625" xlink:href="#WenQuanYiMicroHei-30"/>
       <use x="192.041015625" xlink:href="#WenQuanYiMicroHei-35"/>
      </g>
     </g>
    </g>
    <g id="ytick_8">
     <g id="line2d_28">
      <g>
       <use style="stroke:#000000;stroke-width:0.5;" x="47.5936875" xlink:href="#m728421d6d4" y="11.3656507813"/>
      </g>
     </g>
     <g id="line2d_29">
      <g>
       <use style="stroke:#000000;stroke-width:0.5;" x="382.3936875" xlink:href="#mcb0005524f" y="11.3656507813"/>
      </g>
     </g>
     <g id="text_14">
      <!-- 0.006 -->
      <g transform="translate(23.7891125 13.5294984375)scale(0.0833 -0.0833)">
       <use xlink:href="#WenQuanYiMicroHei-30"/>
       <use x="55.078125" xlink:href="#WenQuanYiMicroHei-2e"/>
       <use x="81.884765625" xlink:href="#WenQuanYiMicroHei-30"/>
       <use x="136.962890625" xlink:href="#WenQuanYiMicroHei-30"/>
       <use x="192.041015625" xlink:href="#WenQuanYiMicroHei-36"/>
      </g>
     </g>
    </g>
    <g id="text_15">
     <!-- 真实值与近似值的误差 -->
     <defs>
      <path d="
M32.8125 82.0312
Q37.1094 76.9531 40.2344 71.0938
L59.375 71.0938
Q63.6719 76.9531 66.0156 82.0312
L75 79.2969
Q72.2656 74.6094 68.75 71.0938
L89.8438 71.0938
L89.8438 63.6719
L54.2969 63.6719
Q53.5156 59.375 52.3438 55.0781
L86.7188 55.0781
L86.7188 48.0469
L50 48.0469
L46.4844 39.4531
L92.9688 39.4531
L92.9688 32.0312
L42.5781 32.0312
Q39.4531 26.5625 35.9375 22.2656
L87.5 22.2656
L87.5 14.8438
L57.8125 14.8438
L57.8125 1.5625
L92.5781 1.5625
L92.5781 -5.85938
L15.2344 -5.85938
L15.2344 1.5625
L50 1.5625
L50 14.8438
L28.9062 14.8438
Q19.5312 6.64062 9.375 2.73438
L5.07812 9.76562
Q21.4844 16.4062 32.8125 32.0312
L7.42188 32.0312
L7.42188 39.4531
L37.5 39.4531
Q39.4531 42.9688 41.4062 48.0469
L12.5 48.0469
L12.5 55.0781
L43.75 55.0781
Q44.9219 59.375 45.7031 63.6719
L10.1562 63.6719
L10.1562 71.0938
L30.4688 71.0938
Q28.125 75 25.3906 78.5156
z
" id="WenQuanYiMicroHei-5dee"/>
      <path d="
M48.0469 80.8594
L55.8594 80.8594
L55.0781 73.8281
L89.4531 73.8281
L89.4531 66.7969
L53.9062 66.7969
L53.125 60.9375
L80.4688 60.9375
L80.4688 14.0625
L94.1406 14.0625
L94.1406 7.03125
L5.85938 7.03125
L5.85938 14.0625
L20.7031 14.0625
L20.7031 60.9375
L45.3125 60.9375
L46.0938 66.7969
L9.375 66.7969
L9.375 73.8281
L47.2656 73.8281
z

M73.0469 48.4375
L73.0469 53.9062
L28.125 53.9062
L28.125 48.4375
z

M28.125 36.7188
L73.0469 36.7188
L73.0469 42.5781
L28.125 42.5781
z

M28.125 25.3906
L73.0469 25.3906
L73.0469 30.8594
L28.125 30.8594
z

M28.125 14.0625
L73.0469 14.0625
L73.0469 19.5312
L28.125 19.5312
z

M35.1562 5.85938
L41.7969 0.390625
Q30.0781 -5.85938 13.6719 -9.76562
L8.98438 -3.125
Q23.4375 0 35.1562 5.85938
M61.3281 5.46875
Q75.7812 2.73438 90.2344 -2.34375
L85.9375 -9.76562
Q71.4844 -3.51562 56.6406 -0.78125
z
" id="WenQuanYiMicroHei-771f"/>
      <path d="
M28.125 58.9844
L28.125 40.625
L87.1094 40.625
Q85.9375 5.85938 82.4219 -1.17188
Q78.9062 -8.20312 69.9219 -8.20312
Q64.4531 -8.20312 52.7344 -6.64062
L51.1719 0.78125
Q64.0625 -0.78125 69.1406 -0.78125
Q74.2188 -0.78125 75.7812 3.51562
Q77.7344 10.1562 79.2969 33.2031
L20.3125 33.2031
L20.3125 80.8594
L28.125 80.8594
L28.125 66.4062
L91.4062 66.4062
L91.4062 58.9844
z

M7.8125 20.3125
L67.9688 20.3125
L67.9688 12.8906
L7.8125 12.8906
z
" id="WenQuanYiMicroHei-4e0e"/>
      <path d="
M50.7812 81.6406
Q53.5156 77.3438 55.0781 72.2656
L92.5781 72.2656
L92.5781 54.2969
L84.7656 54.2969
L84.7656 65.2344
L15.2344 65.2344
L15.2344 54.2969
L7.42188 54.2969
L7.42188 72.2656
L46.4844 72.2656
Q44.5312 76.1719 42.5781 79.2969
z

M6.64062 23.4375
L51.1719 23.4375
Q54.6875 30.8594 54.6875 40.2344
Q55.0781 41.0156 55.0781 60.1562
L63.2812 60.1562
Q63.2812 38.6719 62.8906 37.8906
Q62.8906 29.6875 60.5469 23.4375
L92.9688 23.4375
L92.9688 15.625
L56.6406 15.625
Q46.0938 -0.78125 14.8438 -8.98438
L10.5469 -1.5625
Q35.1562 4.6875 46.0938 15.625
L6.64062 15.625
z

M28.9062 56.6406
Q39.8438 51.5625 49.2188 44.9219
L43.75 39.0625
Q34.7656 45.7031 24.2188 50.3906
z

M19.5312 43.3594
Q30.4688 38.2812 39.4531 31.6406
L33.9844 25.7812
Q25 32.4219 14.8438 37.1094
z

M67.9688 12.8906
Q82.4219 5.07812 94.1406 -1.95312
L89.0625 -8.20312
L62.8906 7.03125
z
" id="WenQuanYiMicroHei-5b9e"/>
      <path d="
M24.6094 80.8594
L32.4219 78.5156
Q29.2969 69.5312 25.3906 60.5469
L25.3906 -8.98438
L17.5781 -8.98438
L17.5781 45.7031
Q12.8906 38.2812 7.8125 32.0312
L3.90625 39.8438
Q18.3594 59.375 24.6094 80.8594
M35.1562 71.4844
L59.375 71.4844
L59.375 80.4688
L67.1875 80.4688
L67.1875 71.4844
L91.7969 71.4844
L91.7969 64.4531
L67.1875 64.4531
L67.1875 55.4688
L87.1094 55.4688
L87.1094 1.17188
L94.5312 1.17188
L94.5312 -5.46875
L30.0781 -5.46875
L30.0781 1.17188
L41.0156 1.17188
L41.0156 55.4688
L59.375 55.4688
L59.375 64.4531
L35.1562 64.4531
z

M48.8281 41.4062
L79.2969 41.4062
L79.2969 48.8281
L48.8281 48.8281
z

M48.8281 27.7344
L79.2969 27.7344
L79.2969 35.5469
L48.8281 35.5469
z

M48.8281 14.4531
L79.2969 14.4531
L79.2969 21.875
L48.8281 21.875
z

M48.8281 1.17188
L79.2969 1.17188
L79.2969 8.59375
L48.8281 8.59375
z
" id="WenQuanYiMicroHei-503c"/>
      <path d="
M19.5312 80.8594
Q25.7812 73.0469 29.6875 64.4531
L22.2656 60.1562
Q18.75 68.75 12.5 76.5625
z

M5.07812 51.9531
L25.3906 51.9531
L25.3906 8.98438
L30.4688 16.0156
L35.1562 11.7188
Q30.8594 3.51562 23.8281 -3.90625
L17.9688 1.17188
L17.9688 44.9219
L5.07812 44.9219
z

M39.0625 77.7344
L86.7188 77.7344
L86.7188 50.3906
L39.0625 50.3906
z

M46.875 57.4219
L78.9062 57.4219
L78.9062 70.7031
L46.875 70.7031
z

M58.2031 35.9375
L37.1094 35.9375
L37.1094 43.3594
L88.2812 43.3594
L88.2812 35.9375
L66.4062 35.9375
Q65.625 30.0781 64.4531 25.3906
L92.9688 25.3906
L92.9688 17.9688
L67.5781 17.9688
Q77.7344 3.90625 94.9219 -1.5625
L90.625 -8.98438
Q72.2656 -1.5625 61.3281 14.8438
Q54.2969 -2.73438 33.5938 -8.98438
L30.0781 -1.5625
Q48.0469 3.90625 53.9062 17.9688
L33.2031 17.9688
L33.2031 25.3906
L56.25 25.3906
Q57.8125 30.0781 58.2031 35.9375" id="WenQuanYiMicroHei-8bef"/>
      <path d="
M85.1562 80.0781
L89.8438 73.0469
Q71.0938 68.3594 46.4844 67.5781
L46.4844 53.125
L93.75 53.125
L93.75 45.7031
L77.3438 45.7031
L77.3438 7.03125
L69.1406 7.03125
L69.1406 45.7031
L46.4844 45.7031
Q45.3125 25.7812 36.7188 9.375
L30.4688 14.8438
Q38.6719 32.4219 38.6719 51.5625
L38.6719 75
Q65.625 75.3906 85.1562 80.0781
M11.7188 78.5156
Q19.5312 73.4375 25.7812 66.4062
L20.3125 59.7656
Q13.6719 67.5781 6.25 72.6562
z

M5.07812 46.0938
L24.6094 46.0938
L24.6094 8.59375
Q29.2969 5.07812 36.5156 3.51562
Q43.75 1.95312 67.9688 1.95312
L95.3125 1.95312
L91.4062 -6.64062
L60.1562 -6.64062
Q42.9688 -6.64062 35.1562 -4.29688
Q27.3438 -1.95312 21.4844 3.125
L10.1562 -8.20312
L4.6875 0
Q10.9375 3.51562 16.7969 7.42188
L16.7969 38.6719
L5.07812 38.6719
z
" id="WenQuanYiMicroHei-8fd1"/>
      <path d="
M23.4375 80.8594
L31.25 78.5156
Q27.7344 67.5781 23.0469 57.0312
L23.0469 -8.98438
L15.2344 -8.98438
L15.2344 42.1875
Q11.7188 36.7188 7.8125 32.0312
L3.90625 39.8438
Q17.1875 59.375 23.4375 80.8594
M53.9062 78.5156
Q61.3281 65.2344 66.4062 49.2188
L58.9844 46.0938
Q54.2969 62.5 47.2656 75.3906
z

M75.7812 78.125
L83.5938 78.125
Q83.5938 37.1094 78.125 22.6562
Q87.1094 11.7188 94.5312 -1.95312
L89.0625 -8.20312
Q82.4219 4.6875 75 14.4531
Q67.9688 0.78125 52.3438 -8.59375
L48.4375 -1.5625
Q64.4531 8.20312 70.7031 26.1719
Q75.7812 40.2344 75.7812 78.125
M34.375 70.7031
L42.1875 70.7031
L42.1875 12.5
Q48.8281 16.4062 55.4688 20.7031
L58.5938 14.8438
Q50 8.59375 39.4531 3.125
L34.375 8.20312
z
" id="WenQuanYiMicroHei-4f3c"/>
      <path d="
M58.9844 80.4688
L66.7969 78.9062
Q64.8438 71.4844 61.7188 64.4531
L92.1875 64.4531
Q92.1875 12.8906 88.6719 0.78125
Q85.9375 -8.98438 75.7812 -8.98438
Q70.7031 -8.98438 63.6719 -7.42188
L61.7188 0.78125
Q71.4844 -0.78125 75.7812 -0.78125
Q80.4688 -0.78125 81.6406 4.6875
Q83.9844 15.2344 83.9844 57.0312
L57.8125 57.0312
Q53.125 48.8281 47.6562 43.3594
L41.7969 48.8281
Q53.5156 61.7188 58.9844 80.4688
M62.1094 41.7969
Q67.9688 33.2031 71.875 22.6562
L64.4531 19.1406
Q60.5469 30.0781 54.6875 38.6719
z

M40.2344 67.9688
L40.2344 -2.73438
L33.2031 -2.73438
L33.2031 0.390625
L15.2344 0.390625
L15.2344 -5.46875
L8.20312 -5.46875
L8.20312 67.9688
L16.7969 67.9688
Q18.75 74.2188 19.5312 80.8594
L27.7344 79.2969
Q26.1719 73.0469 24.2188 67.9688
z

M33.2031 37.8906
L33.2031 60.5469
L15.2344 60.5469
L15.2344 37.8906
z

M15.2344 30.4688
L15.2344 7.8125
L33.2031 7.8125
L33.2031 30.4688
z
" id="WenQuanYiMicroHei-7684"/>
     </defs>
     <g transform="translate(13.5294984375 136.17875625)rotate(-90.0)scale(0.0833 -0.0833)">
      <use xlink:href="#WenQuanYiMicroHei-771f"/>
      <use x="100.0" xlink:href="#WenQuanYiMicroHei-5b9e"/>
      <use x="200.0" xlink:href="#WenQuanYiMicroHei-503c"/>
      <use x="300.0" xlink:href="#WenQuanYiMicroHei-4e0e"/>
      <use x="400.0" xlink:href="#WenQuanYiMicroHei-8fd1"/>
      <use x="500.0" xlink:href="#WenQuanYiMicroHei-4f3c"/>
      <use x="600.0" xlink:href="#WenQuanYiMicroHei-503c"/>
      <use x="700.0" xlink:href="#WenQuanYiMicroHei-7684"/>
      <use x="800.0" xlink:href="#WenQuanYiMicroHei-8bef"/>
      <use x="900.0" xlink:href="#WenQuanYiMicroHei-5dee"/>
     </g>
    </g>
   </g>
  </g>
 </g>
 <defs>
  <clipPath id="p02fbce90f1">
   <rect height="167.4" width="334.8" x="47.5936875" y="11.3656507813"/>
  </clipPath>
 </defs>
</svg>
