<?xml version="1.0" encoding="utf-8" standalone="no"?>
<!DOCTYPE svg PUBLIC "-//W3C//DTD SVG 1.1//EN"
  "http://www.w3.org/Graphics/SVG/1.1/DTD/svg11.dtd">
<!-- Created with matplotlib (http://matplotlib.org/) -->
<svg height="198pt" version="1.1" viewBox="0 0 206 198" width="206pt" xmlns="http://www.w3.org/2000/svg" xmlns:xlink="http://www.w3.org/1999/xlink">
 <defs>
  <style type="text/css">
*{stroke-linecap:butt;stroke-linejoin:round;}
  </style>
 </defs>
 <g id="figure_1">
  <g id="patch_1">
   <path d="
M-1.42109e-14 198.297
L206.306 198.297
L206.306 0
L-1.42109e-14 0
z
" style="fill:#ffffff;"/>
  </g>
  <g id="axes_1">
   <g id="patch_2">
    <path d="
M26.3918 178.766
L193.792 178.766
L193.792 11.3657
L26.3918 11.3657
z
" style="fill:#ffffff;"/>
   </g>
   <g id="PathCollection_1">
    <defs>
     <path d="
M62.6045 -122.185
L62.5759 -122.521
L62.5497 -122.856
L62.5258 -123.192
L62.5044 -123.527
L62.4854 -123.863
L62.4691 -124.198
L62.4553 -124.534
L62.4442 -124.869
L62.4357 -125.205
L62.4301 -125.54
L62.4272 -125.876
L62.427 -126.211
L62.4297 -126.547
L62.4353 -126.882
L62.4436 -127.217
L62.4549 -127.553
L62.469 -127.888
L62.4859 -128.224
L62.5057 -128.559
L62.5284 -128.895
L62.5539 -129.23
L62.5822 -129.566
L62.6134 -129.901
L62.6227 -129.991
L62.6491 -130.237
L62.6885 -130.572
L62.7307 -130.908
L62.7758 -131.243
L62.8237 -131.579
L62.8743 -131.914
L62.9278 -132.25
L62.9582 -132.429
L62.9857 -132.585
L63.0485 -132.92
L63.1139 -133.256
L63.1821 -133.591
L63.2528 -133.927
L63.2936 -134.111
L63.3283 -134.262
L63.409 -134.598
L63.4923 -134.933
L63.578 -135.269
L63.6291 -135.461
L63.6684 -135.604
L63.7646 -135.94
L63.863 -136.275
L63.9636 -136.611
L63.9646 -136.614
L64.0727 -136.946
L64.184 -137.282
L64.2973 -137.617
L64.3001 -137.625
L64.4195 -137.953
L64.5436 -138.288
L64.6355 -138.531
L64.6716 -138.623
L64.8069 -138.959
L64.9437 -139.294
L64.971 -139.359
L65.0887 -139.63
L65.2367 -139.965
L65.3065 -140.12
L65.3906 -140.301
L65.5498 -140.636
L65.6419 -140.827
L65.714 -140.972
L65.8845 -141.307
L65.9774 -141.487
L66.0602 -141.643
L66.2419 -141.978
L66.3129 -142.106
L66.4305 -142.314
L66.6233 -142.649
L66.6484 -142.692
L66.8258 -142.985
L66.9838 -143.243
L67.0322 -143.32
L67.2472 -143.656
L67.3193 -143.766
L67.4698 -143.991
L67.6548 -144.264
L67.6978 -144.326
L67.9352 -144.662
L67.9902 -144.738
L68.1815 -144.997
L68.3257 -145.19
L68.435 -145.333
L68.6612 -145.624
L68.6965 -145.668
L68.9683 -146.004
L68.9966 -146.038
L69.2509 -146.339
L69.3321 -146.434
L69.5432 -146.675
L69.6676 -146.814
L69.8459 -147.01
L70.0031 -147.18
L70.1599 -147.346
L70.3385 -147.531
L70.4858 -147.681
L70.674 -147.869
L70.8245 -148.017
L71.0095 -148.194
L71.1769 -148.352
L71.3449 -148.507
L71.5436 -148.688
L71.6804 -148.809
L71.9256 -149.023
L72.0159 -149.1
L72.3236 -149.359
L72.3514 -149.381
L72.6868 -149.651
L72.7416 -149.694
L73.0223 -149.91
L73.1798 -150.029
L73.3578 -150.161
L73.6376 -150.365
L73.6932 -150.404
L74.0287 -150.638
L74.1209 -150.7
L74.3642 -150.862
L74.6298 -151.036
L74.6997 -151.08
L75.0351 -151.289
L75.1697 -151.371
L75.3706 -151.491
L75.7061 -151.687
L75.741 -151.707
L76.0415 -151.872
L76.3525 -152.042
L76.377 -152.055
L76.7125 -152.227
L77.0099 -152.378
L77.0479 -152.396
L77.3834 -152.555
L77.7189 -152.713
L77.72 -152.713
L78.0544 -152.859
L78.3898 -153.003
L78.4997 -153.049
L78.7253 -153.139
L79.0608 -153.27
L79.3591 -153.384
L79.3962 -153.398
L79.7317 -153.516
L80.0672 -153.631
L80.3315 -153.72
L80.4027 -153.743
L80.7381 -153.845
L81.0736 -153.945
L81.4091 -154.041
L81.4603 -154.055
L81.7445 -154.129
L82.08 -154.213
L82.4155 -154.294
L82.751 -154.371
L82.8444 -154.391
L83.0864 -154.44
L83.4219 -154.505
L83.7574 -154.567
L84.0928 -154.624
L84.4283 -154.678
L84.7523 -154.726
L84.7638 -154.728
L85.0993 -154.771
L85.4347 -154.81
L85.7702 -154.845
L86.1057 -154.876
L86.4411 -154.903
L86.7766 -154.927
L87.1121 -154.946
L87.4475 -154.961
L87.783 -154.973
L88.1185 -154.98
L88.454 -154.983
L88.7894 -154.982
L89.1249 -154.978
L89.4604 -154.969
L89.7958 -154.957
L90.1313 -154.94
L90.4668 -154.92
L90.8023 -154.896
L91.1377 -154.868
L91.4732 -154.837
L91.8087 -154.803
L92.1441 -154.764
L92.4562 -154.726
L92.4796 -154.723
L92.8151 -154.675
L93.1506 -154.623
L93.486 -154.569
L93.8215 -154.511
L94.157 -154.45
L94.4745 -154.391
L94.4924 -154.387
L94.8279 -154.315
L95.1634 -154.241
L95.4989 -154.165
L95.8343 -154.086
L95.9629 -154.055
L96.1698 -154.001
L96.5053 -153.91
L96.8407 -153.819
L97.1762 -153.725
L97.196 -153.72
L97.5117 -153.622
L97.8471 -153.517
L98.1826 -153.411
L98.2693 -153.384
L98.5181 -153.297
L98.8536 -153.18
L99.189 -153.063
L99.2292 -153.049
L99.5245 -152.935
L99.86 -152.806
L100.104 -152.713
L100.195 -152.674
L100.531 -152.534
L100.866 -152.395
L100.908 -152.378
L101.202 -152.244
L101.537 -152.095
L101.658 -152.042
L101.873 -151.937
L102.208 -151.776
L102.358 -151.707
L102.544 -151.609
L102.879 -151.438
L103.015 -151.371
L103.215 -151.26
L103.55 -151.08
L103.636 -151.036
L103.886 -150.889
L104.221 -150.7
L104.221 -150.7
L104.557 -150.494
L104.779 -150.365
L104.892 -150.288
L105.228 -150.076
L105.306 -150.029
L105.563 -149.851
L105.807 -149.694
L105.898 -149.624
L106.234 -149.389
L106.281 -149.359
L106.569 -149.138
L106.734 -149.023
L106.905 -148.88
L107.161 -148.688
L107.24 -148.614
L107.563 -148.352
L107.576 -148.339
L107.911 -148.042
L107.945 -148.017
L108.247 -147.728
L108.306 -147.681
L108.582 -147.394
L108.641 -147.346
L108.918 -147.037
L108.95 -147.01
L109.233 -146.675
L109.253 -146.638
L109.503 -146.339
L109.589 -146.164
L109.748 -146.004
L109.909 -145.668
L109.924 -145.572
L110.26 -145.572
L110.274 -145.668
L110.435 -146.004
L110.595 -146.164
L110.681 -146.339
L110.931 -146.638
L110.951 -146.675
L111.234 -147.01
L111.266 -147.037
L111.543 -147.346
L111.601 -147.394
L111.878 -147.681
L111.937 -147.728
L112.238 -148.017
L112.272 -148.042
L112.608 -148.339
L112.621 -148.352
L112.943 -148.614
L113.023 -148.688
L113.279 -148.88
L113.449 -149.023
L113.614 -149.138
L113.903 -149.359
L113.95 -149.389
L114.285 -149.624
L114.377 -149.694
L114.621 -149.851
L114.878 -150.029
L114.956 -150.076
L115.292 -150.288
L115.405 -150.365
L115.627 -150.494
L115.963 -150.7
L115.963 -150.7
L116.298 -150.889
L116.548 -151.036
L116.634 -151.08
L116.969 -151.26
L117.168 -151.371
L117.304 -151.438
L117.64 -151.609
L117.826 -151.707
L117.975 -151.776
L118.311 -151.937
L118.526 -152.042
L118.646 -152.095
L118.982 -152.244
L119.275 -152.378
L119.317 -152.395
L119.653 -152.534
L119.988 -152.674
L120.08 -152.713
L120.324 -152.806
L120.659 -152.935
L120.955 -153.049
L120.995 -153.063
L121.33 -153.18
L121.666 -153.297
L121.914 -153.384
L122.001 -153.411
L122.337 -153.517
L122.672 -153.622
L122.988 -153.72
L123.007 -153.725
L123.343 -153.819
L123.678 -153.91
L124.014 -154.001
L124.221 -154.055
L124.349 -154.086
L124.685 -154.165
L125.02 -154.241
L125.356 -154.315
L125.691 -154.387
L125.709 -154.391
L126.027 -154.45
L126.362 -154.511
L126.698 -154.569
L127.033 -154.623
L127.369 -154.675
L127.704 -154.723
L127.728 -154.726
L128.04 -154.764
L128.375 -154.803
L128.71 -154.837
L129.046 -154.868
L129.381 -154.896
L129.717 -154.92
L130.052 -154.94
L130.388 -154.957
L130.723 -154.969
L131.059 -154.978
L131.394 -154.982
L131.73 -154.983
L132.065 -154.98
L132.401 -154.973
L132.736 -154.961
L133.072 -154.946
L133.407 -154.927
L133.743 -154.903
L134.078 -154.876
L134.413 -154.845
L134.749 -154.81
L135.084 -154.771
L135.42 -154.728
L135.431 -154.726
L135.755 -154.678
L136.091 -154.624
L136.426 -154.567
L136.762 -154.505
L137.097 -154.44
L137.339 -154.391
L137.433 -154.371
L137.768 -154.294
L138.104 -154.213
L138.439 -154.129
L138.723 -154.055
L138.775 -154.041
L139.11 -153.945
L139.446 -153.845
L139.781 -153.743
L139.852 -153.72
L140.116 -153.631
L140.452 -153.516
L140.787 -153.398
L140.825 -153.384
L141.123 -153.27
L141.458 -153.139
L141.684 -153.049
L141.794 -153.003
L142.129 -152.859
L142.464 -152.713
L142.465 -152.713
L142.8 -152.555
L143.136 -152.396
L143.174 -152.378
L143.471 -152.227
L143.807 -152.055
L143.831 -152.042
L144.142 -151.872
L144.443 -151.707
L144.478 -151.687
L144.813 -151.491
L145.014 -151.371
L145.149 -151.289
L145.484 -151.08
L145.554 -151.036
L145.819 -150.862
L146.063 -150.7
L146.155 -150.638
L146.49 -150.404
L146.546 -150.365
L146.826 -150.161
L147.004 -150.029
L147.161 -149.91
L147.442 -149.694
L147.497 -149.651
L147.832 -149.381
L147.86 -149.359
L148.168 -149.1
L148.258 -149.023
L148.503 -148.809
L148.64 -148.688
L148.839 -148.507
L149.007 -148.352
L149.174 -148.194
L149.359 -148.017
L149.51 -147.869
L149.698 -147.681
L149.845 -147.531
L150.024 -147.346
L150.181 -147.18
L150.338 -147.01
L150.516 -146.814
L150.64 -146.675
L150.852 -146.434
L150.933 -146.339
L151.187 -146.038
L151.215 -146.004
L151.487 -145.668
L151.522 -145.624
L151.749 -145.333
L151.858 -145.19
L152.002 -144.997
L152.193 -144.738
L152.248 -144.662
L152.486 -144.326
L152.529 -144.264
L152.714 -143.991
L152.864 -143.766
L152.936 -143.656
L153.151 -143.32
L153.2 -143.243
L153.358 -142.985
L153.535 -142.692
L153.56 -142.649
L153.753 -142.314
L153.871 -142.106
L153.942 -141.978
L154.123 -141.643
L154.206 -141.487
L154.299 -141.307
L154.47 -140.972
L154.542 -140.827
L154.634 -140.636
L154.793 -140.301
L154.877 -140.12
L154.947 -139.965
L155.095 -139.63
L155.213 -139.359
L155.24 -139.294
L155.377 -138.959
L155.512 -138.623
L155.548 -138.531
L155.64 -138.288
L155.764 -137.953
L155.884 -137.625
L155.886 -137.617
L156 -137.282
L156.111 -136.946
L156.219 -136.614
L156.22 -136.611
L156.321 -136.275
L156.419 -135.94
L156.515 -135.604
L156.555 -135.461
L156.606 -135.269
L156.691 -134.933
L156.775 -134.598
L156.855 -134.262
L156.89 -134.111
L156.931 -133.927
L157.002 -133.591
L157.07 -133.256
L157.135 -132.92
L157.198 -132.585
L157.226 -132.429
L157.256 -132.25
L157.309 -131.914
L157.36 -131.579
L157.408 -131.243
L157.453 -130.908
L157.495 -130.572
L157.535 -130.237
L157.561 -129.991
L157.57 -129.901
L157.601 -129.566
L157.63 -129.23
L157.655 -128.895
L157.678 -128.559
L157.698 -128.224
L157.715 -127.888
L157.729 -127.553
L157.74 -127.217
L157.748 -126.882
L157.754 -126.547
L157.757 -126.211
L157.757 -125.876
L157.754 -125.54
L157.748 -125.205
L157.74 -124.869
L157.728 -124.534
L157.715 -124.198
L157.698 -123.863
L157.679 -123.527
L157.658 -123.192
L157.634 -122.856
L157.608 -122.521
L157.579 -122.185
L157.561 -121.984
L157.547 -121.85
L157.511 -121.514
L157.473 -121.179
L157.432 -120.844
L157.39 -120.508
L157.345 -120.173
L157.299 -119.837
L157.25 -119.502
L157.226 -119.331
L157.198 -119.166
L157.141 -118.831
L157.083 -118.495
L157.023 -118.16
L156.962 -117.824
L156.9 -117.489
L156.89 -117.434
L156.831 -117.153
L156.759 -116.818
L156.687 -116.482
L156.615 -116.147
L156.555 -115.868
L156.54 -115.811
L156.458 -115.476
L156.375 -115.141
L156.293 -114.805
L156.219 -114.503
L156.21 -114.47
L156.116 -114.134
L156.024 -113.799
L155.934 -113.463
L155.884 -113.273
L155.838 -113.128
L155.736 -112.792
L155.637 -112.457
L155.548 -112.149
L155.538 -112.121
L155.427 -111.786
L155.319 -111.45
L155.216 -111.115
L155.213 -111.104
L155.096 -110.779
L154.981 -110.444
L154.877 -110.124
L154.871 -110.108
L154.743 -109.773
L154.622 -109.438
L154.542 -109.195
L154.501 -109.102
L154.368 -108.767
L154.245 -108.431
L154.206 -108.314
L154.108 -108.096
L153.973 -107.76
L153.871 -107.476
L153.844 -107.425
L153.694 -107.089
L153.563 -106.754
L153.535 -106.669
L153.408 -106.418
L153.266 -106.083
L153.2 -105.891
L153.114 -105.747
L152.958 -105.412
L152.864 -105.147
L152.812 -105.076
L152.637 -104.741
L152.529 -104.43
L152.502 -104.405
L152.291 -104.07
L152.193 -103.738
L152.183 -103.735
L151.881 -103.399
L151.858 -103.065
L151.858 -103.064
L151.785 -102.728
L151.522 -102.415
L151.519 -102.393
L151.386 -102.057
L151.187 -101.779
L151.17 -101.722
L151.011 -101.386
L150.852 -101.157
L150.81 -101.051
L150.633 -100.715
L150.516 -100.55
L150.44 -100.38
L150.246 -100.044
L150.181 -99.954
L150.057 -99.7089
L149.848 -99.3734
L149.845 -99.3696
L149.662 -99.0379
L149.51 -98.8083
L149.455 -98.7024
L149.253 -98.367
L149.174 -98.2542
L149.049 -98.0315
L148.839 -97.7083
L148.832 -97.696
L148.628 -97.3606
L148.503 -97.1801
L148.413 -97.0251
L148.192 -96.6896
L148.168 -96.6565
L147.978 -96.3541
L147.832 -96.147
L147.754 -96.0187
L147.526 -95.6832
L147.497 -95.6434
L147.303 -95.3477
L147.161 -95.1518
L147.072 -95.0123
L146.835 -94.6768
L146.826 -94.6654
L146.603 -94.3413
L146.49 -94.1911
L146.365 -94.0059
L146.155 -93.7218
L146.12 -93.6704
L145.877 -93.3349
L145.819 -93.2614
L145.631 -92.9994
L145.484 -92.8084
L145.381 -92.664
L145.149 -92.361
L145.125 -92.3285
L144.871 -91.993
L144.813 -91.9219
L144.613 -91.6576
L144.478 -91.4892
L144.351 -91.3221
L144.142 -91.0621
L144.085 -90.9866
L143.815 -90.6511
L143.807 -90.6407
L143.546 -90.3157
L143.471 -90.2268
L143.273 -89.9802
L143.136 -89.818
L142.996 -89.6447
L142.8 -89.4144
L142.715 -89.3093
L142.465 -89.0159
L142.43 -88.9738
L142.143 -88.6383
L142.129 -88.6229
L141.854 -88.3028
L141.794 -88.2356
L141.562 -87.9674
L141.458 -87.8529
L141.265 -87.6319
L141.123 -87.475
L140.966 -87.2964
L140.787 -87.1016
L140.662 -86.961
L140.452 -86.7328
L140.356 -86.6255
L140.116 -86.3684
L140.045 -86.29
L139.781 -86.0083
L139.732 -85.9545
L139.446 -85.6525
L139.415 -85.6191
L139.11 -85.3008
L139.094 -85.2836
L138.775 -84.9531
L138.77 -84.9481
L138.442 -84.6127
L138.439 -84.6094
L138.111 -84.2772
L138.104 -84.2695
L137.777 -83.9417
L137.768 -83.9334
L137.438 -83.6063
L137.433 -83.6008
L137.097 -83.2719
L137.096 -83.2708
L136.762 -82.9465
L136.75 -82.9353
L136.426 -82.6244
L136.401 -82.5998
L136.091 -82.3057
L136.048 -82.2644
L135.755 -81.9903
L135.69 -81.9289
L135.42 -81.678
L135.329 -81.5934
L135.084 -81.3688
L134.964 -81.258
L134.749 -81.0628
L134.595 -80.9225
L134.413 -80.7597
L134.221 -80.587
L134.078 -80.4596
L133.844 -80.2515
L133.743 -80.1624
L133.462 -79.9161
L133.407 -79.8681
L133.076 -79.5806
L133.072 -79.5767
L132.736 -79.2875
L132.687 -79.2451
L132.401 -79.001
L132.293 -78.9097
L132.065 -78.7172
L131.895 -78.5742
L131.73 -78.436
L131.492 -78.2387
L131.394 -78.1575
L131.085 -77.9032
L131.059 -77.8815
L130.723 -77.6075
L130.674 -77.5678
L130.388 -77.3356
L130.259 -77.2323
L130.052 -77.0662
L129.839 -76.8968
L129.717 -76.7993
L129.415 -76.5614
L129.381 -76.5349
L129.046 -76.272
L128.986 -76.2259
L128.71 -76.0109
L128.554 -75.8904
L128.375 -75.7522
L128.116 -75.5549
L128.04 -75.4959
L127.704 -75.2415
L127.675 -75.2195
L127.369 -74.988
L127.229 -74.884
L127.033 -74.7368
L126.778 -74.5485
L126.698 -74.488
L126.362 -74.2408
L126.324 -74.2131
L126.027 -73.9942
L125.865 -73.8776
L125.691 -73.7499
L125.402 -73.5421
L125.356 -73.508
L125.02 -73.2665
L124.935 -73.2067
L124.685 -73.0263
L124.464 -72.8712
L124.349 -72.7883
L124.014 -72.5523
L123.99 -72.5357
L123.678 -72.3155
L123.511 -72.2002
L123.343 -72.081
L123.03 -71.8648
L123.007 -71.849
L122.672 -71.6158
L122.544 -71.5293
L122.337 -71.3842
L122.056 -71.1938
L122.001 -71.155
L121.666 -70.9253
L121.565 -70.8584
L121.33 -70.696
L121.072 -70.5229
L120.995 -70.4691
L120.659 -70.2419
L120.576 -70.1874
L120.324 -70.0142
L120.079 -69.8519
L119.988 -69.7888
L119.653 -69.5632
L119.581 -69.5165
L119.317 -69.3361
L119.082 -69.181
L118.982 -69.1114
L118.646 -68.8863
L118.583 -68.8455
L118.311 -68.6589
L118.085 -68.5101
L117.975 -68.4335
L117.64 -68.2078
L117.588 -68.1746
L117.304 -67.9785
L117.093 -67.8391
L116.969 -67.7508
L116.634 -67.5233
L116.603 -67.5036
L116.298 -67.29
L116.115 -67.1682
L115.963 -67.0577
L115.635 -66.8327
L115.627 -66.8266
L115.292 -66.5869
L115.158 -66.4972
L114.956 -66.3465
L114.692 -66.1618
L114.621 -66.1058
L114.285 -65.8602
L114.235 -65.8263
L113.95 -65.6064
L113.787 -65.4908
L113.614 -65.3497
L113.355 -65.1553
L113.279 -65.0892
L112.943 -64.8233
L112.938 -64.8199
L112.608 -64.5407
L112.532 -64.4844
L112.272 -64.2482
L112.146 -64.1489
L111.937 -63.9427
L111.781 -63.8135
L111.601 -63.6196
L111.439 -63.478
L111.266 -63.2723
L111.122 -63.1425
L110.931 -62.8917
L110.835 -62.8071
L110.597 -62.4716
L110.595 -62.4669
L110.343 -62.1361
L110.26 -61.8683
L109.924 -61.8683
L109.841 -62.1361
L109.589 -62.4669
L109.587 -62.4716
L109.349 -62.8071
L109.253 -62.8917
L109.061 -63.1425
L108.918 -63.2723
L108.744 -63.478
L108.582 -63.6196
L108.402 -63.8135
L108.247 -63.9427
L108.037 -64.1489
L107.911 -64.2482
L107.651 -64.4844
L107.576 -64.5407
L107.245 -64.8199
L107.24 -64.8233
L106.905 -65.0892
L106.829 -65.1553
L106.569 -65.3497
L106.397 -65.4908
L106.234 -65.6064
L105.948 -65.8263
L105.898 -65.8602
L105.563 -66.1058
L105.492 -66.1618
L105.228 -66.3465
L105.025 -66.4972
L104.892 -66.5869
L104.557 -66.8266
L104.548 -66.8327
L104.221 -67.0577
L104.069 -67.1682
L103.886 -67.29
L103.581 -67.5036
L103.55 -67.5233
L103.215 -67.7508
L103.091 -67.8391
L102.879 -67.9785
L102.595 -68.1746
L102.544 -68.2078
L102.208 -68.4335
L102.099 -68.5101
L101.873 -68.6589
L101.6 -68.8455
L101.537 -68.8863
L101.202 -69.1114
L101.102 -69.181
L100.866 -69.3361
L100.603 -69.5165
L100.531 -69.5632
L100.195 -69.7888
L100.105 -69.8519
L99.86 -70.0142
L99.6075 -70.1874
L99.5245 -70.2419
L99.189 -70.4691
L99.112 -70.5229
L98.8536 -70.696
L98.6187 -70.8584
L98.5181 -70.9253
L98.1826 -71.155
L98.1275 -71.1938
L97.8471 -71.3842
L97.6396 -71.5293
L97.5117 -71.6158
L97.1762 -71.849
L97.154 -71.8648
L96.8407 -72.081
L96.6725 -72.2002
L96.5053 -72.3155
L96.1938 -72.5357
L96.1698 -72.5523
L95.8343 -72.7883
L95.7193 -72.8712
L95.4989 -73.0263
L95.2484 -73.2067
L95.1634 -73.2665
L94.8279 -73.508
L94.7814 -73.5421
L94.4924 -73.7499
L94.3186 -73.8776
L94.157 -73.9942
L93.8597 -74.2131
L93.8215 -74.2408
L93.486 -74.488
L93.4052 -74.5485
L93.1506 -74.7368
L92.9549 -74.884
L92.8151 -74.988
L92.509 -75.2195
L92.4796 -75.2415
L92.1441 -75.4959
L92.0673 -75.5549
L91.8087 -75.7522
L91.63 -75.8904
L91.4732 -76.0109
L91.1972 -76.2259
L91.1377 -76.272
L90.8023 -76.5349
L90.7688 -76.5614
L90.4668 -76.7993
L90.3444 -76.8968
L90.1313 -77.0662
L89.9247 -77.2323
L89.7958 -77.3356
L89.5094 -77.5678
L89.4604 -77.6075
L89.1249 -77.8815
L89.0984 -77.9032
L88.7894 -78.1575
L88.6914 -78.2387
L88.454 -78.436
L88.2888 -78.5742
L88.1185 -78.7172
L87.8907 -78.9097
L87.783 -79.001
L87.4969 -79.2451
L87.4475 -79.2875
L87.1121 -79.5767
L87.1075 -79.5806
L86.7766 -79.8681
L86.7215 -79.9161
L86.4411 -80.1624
L86.3398 -80.2515
L86.1057 -80.4596
L85.9623 -80.587
L85.7702 -80.7597
L85.5889 -80.9225
L85.4347 -81.0628
L85.2197 -81.258
L85.0993 -81.3688
L84.8545 -81.5934
L84.7638 -81.678
L84.4934 -81.9289
L84.4283 -81.9903
L84.1361 -82.2644
L84.0928 -82.3057
L83.7828 -82.5998
L83.7574 -82.6244
L83.4333 -82.9353
L83.4219 -82.9465
L83.0876 -83.2708
L83.0864 -83.2719
L82.751 -83.6008
L82.7454 -83.6063
L82.4155 -83.9334
L82.4069 -83.9417
L82.08 -84.2695
L82.0722 -84.2772
L81.7445 -84.6094
L81.7413 -84.6127
L81.4138 -84.9481
L81.4091 -84.9531
L81.0897 -85.2836
L81.0736 -85.3008
L80.7691 -85.6191
L80.7381 -85.6525
L80.452 -85.9545
L80.4027 -86.0083
L80.1383 -86.29
L80.0672 -86.3684
L79.8281 -86.6255
L79.7317 -86.7328
L79.5213 -86.961
L79.3962 -87.1016
L79.218 -87.2964
L79.0608 -87.475
L78.9182 -87.6319
L78.7253 -87.8529
L78.622 -87.9674
L78.3898 -88.2356
L78.3294 -88.3028
L78.0544 -88.6229
L78.0406 -88.6383
L77.7534 -88.9738
L77.7189 -89.0159
L77.4688 -89.3093
L77.3834 -89.4144
L77.1878 -89.6447
L77.0479 -89.818
L76.9106 -89.9802
L76.7125 -90.2268
L76.6373 -90.3157
L76.377 -90.6407
L76.3682 -90.6511
L76.0988 -90.9866
L76.0415 -91.0621
L75.8325 -91.3221
L75.7061 -91.4892
L75.5705 -91.6576
L75.3706 -91.9219
L75.313 -91.993
L75.0583 -92.3285
L75.0351 -92.361
L74.8029 -92.664
L74.6997 -92.8084
L74.5522 -92.9994
L74.3642 -93.2614
L74.3068 -93.3349
L74.0634 -93.6704
L74.0287 -93.7218
L73.8191 -94.0059
L73.6932 -94.1911
L73.5807 -94.3413
L73.3578 -94.6654
L73.349 -94.6768
L73.1122 -95.0123
L73.0223 -95.1518
L72.8807 -95.3477
L72.6868 -95.6434
L72.6572 -95.6832
L72.4298 -96.0187
L72.3514 -96.147
L72.2058 -96.3541
L72.0159 -96.6565
L71.9916 -96.6896
L71.7708 -97.0251
L71.6804 -97.1801
L71.5555 -97.3606
L71.3515 -97.696
L71.3449 -97.7083
L71.1346 -98.0315
L71.0095 -98.2542
L70.9305 -98.367
L70.7284 -98.7024
L70.674 -98.8083
L70.5219 -99.0379
L70.3385 -99.3696
L70.3357 -99.3734
L70.1266 -99.7089
L70.0031 -99.954
L69.9378 -100.044
L69.7439 -100.38
L69.6676 -100.55
L69.5509 -100.715
L69.3732 -101.051
L69.3321 -101.157
L69.1727 -101.386
L69.0138 -101.722
L68.9966 -101.779
L68.7972 -102.057
L68.6651 -102.393
L68.6612 -102.415
L68.3984 -102.728
L68.3257 -103.064
L68.3257 -103.065
L68.3022 -103.399
L68.0009 -103.735
L67.9902 -103.738
L67.8932 -104.07
L67.6819 -104.405
L67.6548 -104.43
L67.5471 -104.741
L67.3714 -105.076
L67.3193 -105.147
L67.2259 -105.412
L67.0695 -105.747
L66.9838 -105.891
L66.9181 -106.083
L66.7758 -106.418
L66.6484 -106.669
L66.6206 -106.754
L66.4896 -107.089
L66.3394 -107.425
L66.3129 -107.476
L66.2108 -107.76
L66.0755 -108.096
L65.9774 -108.314
L65.9389 -108.431
L65.8159 -108.767
L65.6824 -109.102
L65.6419 -109.195
L65.5612 -109.438
L65.4409 -109.773
L65.3129 -110.108
L65.3065 -110.124
L65.2026 -110.444
L65.0877 -110.779
L64.971 -111.104
L64.968 -111.115
L64.8644 -111.45
L64.7567 -111.786
L64.6453 -112.121
L64.6355 -112.149
L64.547 -112.457
L64.4476 -112.792
L64.3457 -113.128
L64.3001 -113.273
L64.2501 -113.463
L64.1594 -113.799
L64.0673 -114.134
L63.9741 -114.47
L63.9646 -114.503
L63.8911 -114.805
L63.8088 -115.141
L63.7261 -115.476
L63.6434 -115.811
L63.6291 -115.868
L63.5689 -116.147
L63.4964 -116.482
L63.4243 -116.818
L63.3528 -117.153
L63.2936 -117.434
L63.2835 -117.489
L63.2216 -117.824
L63.1606 -118.16
L63.1009 -118.495
L63.0425 -118.831
L62.9856 -119.166
L62.9582 -119.331
L62.9332 -119.502
L62.8851 -119.837
L62.8386 -120.173
L62.794 -120.508
L62.7514 -120.844
L62.7109 -121.179
L62.6725 -121.514
L62.6364 -121.85
L62.6227 -121.984
L62.6045 -122.185" id="C0_0_06ad959275"/>
    </defs>
    <g clip-path="url(#p8854eaee10)">
     <use style="fill:#ff0000;" x="0.0" xlink:href="#C0_0_06ad959275" y="198.296952344"/>
    </g>
   </g>
   <g id="matplotlib.axis_1">
    <g id="xtick_1">
     <g id="line2d_1">
      <defs>
       <path d="
M0 0
L0 -4" id="m93b0483c22" style="stroke:#000000;stroke-width:0.5;"/>
      </defs>
      <g>
       <use style="stroke:#000000;stroke-width:0.5;" x="26.3918375" xlink:href="#m93b0483c22" y="178.765650781"/>
      </g>
     </g>
     <g id="line2d_2">
      <defs>
       <path d="
M0 0
L0 4" id="m741efc42ff" style="stroke:#000000;stroke-width:0.5;"/>
      </defs>
      <g>
       <use style="stroke:#000000;stroke-width:0.5;" x="26.3918375" xlink:href="#m741efc42ff" y="11.3656507813"/>
      </g>
     </g>
     <g id="text_1">
      <!-- −2.0 -->
      <defs>
       <path d="
M49.2188 0
L4.6875 0
L4.6875 7.625
L21.7812 26.2188
Q25.4375 30.1719 28.3125 33.4375
Q31.2031 36.7188 33.2188 39.8438
Q35.25 42.9688 36.3281 46.1094
Q37.4062 49.2656 37.4062 52.9844
Q37.4062 55.8594 36.5781 58.0469
Q35.75 60.25 34.2031 61.7812
Q32.6719 63.3281 30.5625 64.1094
Q28.4688 64.8906 25.875 64.8906
Q21.2344 64.8906 17.5 63.0156
Q13.7656 61.1406 10.4062 58.2031
L5.42188 64.0156
Q7.375 65.7656 9.60938 67.2969
Q11.8594 68.8438 14.4531 69.9688
Q17.0469 71.0938 19.9219 71.75
Q22.7969 72.4062 25.9844 72.4062
Q30.6719 72.4062 34.4531 71.0938
Q38.2344 69.7812 40.8594 67.3125
Q43.5 64.8438 44.9375 61.2969
Q46.3906 57.7656 46.3906 53.3281
Q46.3906 49.1719 45.0938 45.4062
Q43.7969 41.6562 41.5312 38.0156
Q39.2656 34.375 36.1094 30.7031
Q32.9531 27.0469 29.2969 23.0938
L15.5781 8.5
L15.5781 8.10938
L49.2188 8.10938
z
" id="WenQuanYiMicroHei-32"/>
       <path d="
M50.3906 35.7969
Q50.3906 27.1562 49.1406 20.3125
Q47.9062 13.4844 45.1406 8.73438
Q42.3906 4 38.0312 1.5
Q33.6875 -0.984375 27.4844 -0.984375
Q21.7344 -0.984375 17.4531 1.5
Q13.1875 4 10.375 8.73438
Q7.5625 13.4844 6.17188 20.3125
Q4.78125 27.1562 4.78125 35.7969
Q4.78125 44.4375 6.03125 51.2656
Q7.28125 58.1094 9.98438 62.8125
Q12.7031 67.5312 17.0156 70.0156
Q21.3438 72.5156 27.4844 72.5156
Q33.2969 72.5156 37.5938 70.0469
Q41.8906 67.5781 44.7188 62.8594
Q47.5625 58.1562 48.9688 51.3125
Q50.3906 44.4844 50.3906 35.7969
M13.8125 35.7969
Q13.8125 28.4688 14.5469 23
Q15.2812 17.5312 16.8906 13.8906
Q18.5 10.25 21.1094 8.42188
Q23.7344 6.59375 27.4844 6.59375
Q31.25 6.59375 33.8906 8.39062
Q36.5312 10.2031 38.2031 13.8125
Q39.8906 17.4375 40.6406 22.9219
Q41.4062 28.4219 41.4062 35.7969
Q41.4062 43.1094 40.6406 48.5781
Q39.8906 54.0469 38.2031 57.6562
Q36.5312 61.2812 33.8906 63.0781
Q31.25 64.8906 27.4844 64.8906
Q23.7344 64.8906 21.1094 63.0781
Q18.5 61.2812 16.8906 57.6562
Q15.2812 54.0469 14.5469 48.5781
Q13.8125 43.1094 13.8125 35.7969" id="WenQuanYiMicroHei-30"/>
       <path d="
M4.98438 31.5938
L4.98438 38.9219
L50.0938 38.9219
L50.0938 31.5938
z
" id="WenQuanYiMicroHei-2212"/>
       <path d="
M7.17188 5.42188
Q7.17188 7.28125 7.65625 8.5625
Q8.15625 9.85938 8.98438 10.6562
Q9.8125 11.4688 10.9375 11.8281
Q12.0625 12.2031 13.375 12.2031
Q14.6562 12.2031 15.7969 11.8281
Q16.9375 11.4688 17.7656 10.6562
Q18.6094 9.85938 19.0938 8.5625
Q19.5781 7.28125 19.5781 5.42188
Q19.5781 3.60938 19.0938 2.3125
Q18.6094 1.03125 17.7656 0.1875
Q16.9375 -0.640625 15.7969 -1.03125
Q14.6562 -1.42188 13.375 -1.42188
Q12.0625 -1.42188 10.9375 -1.03125
Q9.8125 -0.640625 8.98438 0.1875
Q8.15625 1.03125 7.65625 2.3125
Q7.17188 3.60938 7.17188 5.42188" id="WenQuanYiMicroHei-2e"/>
      </defs>
      <g transform="translate(18.79591875 189.095149219)scale(0.0833 -0.0833)">
       <use xlink:href="#WenQuanYiMicroHei-2212"/>
       <use x="55.078125" xlink:href="#WenQuanYiMicroHei-32"/>
       <use x="110.15625" xlink:href="#WenQuanYiMicroHei-2e"/>
       <use x="136.962890625" xlink:href="#WenQuanYiMicroHei-30"/>
      </g>
     </g>
    </g>
    <g id="xtick_2">
     <g id="line2d_3">
      <g>
       <use style="stroke:#000000;stroke-width:0.5;" x="47.3168375" xlink:href="#m93b0483c22" y="178.765650781"/>
      </g>
     </g>
     <g id="line2d_4">
      <g>
       <use style="stroke:#000000;stroke-width:0.5;" x="47.3168375" xlink:href="#m741efc42ff" y="11.3656507813"/>
      </g>
     </g>
     <g id="text_2">
      <!-- −1.5 -->
      <defs>
       <path d="
M34.7188 0
L26.125 0
L26.125 44.5781
Q26.125 46.6875 26.1406 49.0781
Q26.1719 51.4688 26.2344 53.8281
Q26.3125 56.2031 26.3906 58.375
Q26.4688 60.5469 26.5156 62.2031
Q25.6875 61.3281 25.0469 60.6875
Q24.4219 60.0625 23.75 59.4688
Q23.0938 58.8906 22.3594 58.2188
Q21.625 57.5625 20.6094 56.6875
L13.375 50.7812
L8.6875 56.7812
L27.3906 71.3906
L34.7188 71.3906
z
" id="WenQuanYiMicroHei-31"/>
       <path d="
M26.6094 43.7969
Q31.4531 43.7969 35.625 42.4531
Q39.7969 41.1094 42.8906 38.4688
Q46 35.8438 47.75 31.9375
Q49.5156 28.0312 49.5156 22.9062
Q49.5156 17.3281 47.8438 12.8906
Q46.1875 8.45312 42.9219 5.375
Q39.6562 2.29688 34.8438 0.65625
Q30.0312 -0.984375 23.7812 -0.984375
Q21.2969 -0.984375 18.875 -0.734375
Q16.4531 -0.484375 14.2344 -0.015625
Q12.0156 0.4375 10.0156 1.17188
Q8.01562 1.90625 6.39062 2.875
L6.39062 11.2812
Q8.01562 10.1562 10.1875 9.28125
Q12.3594 8.40625 14.75 7.8125
Q17.1406 7.23438 19.5469 6.90625
Q21.9688 6.59375 24.0312 6.59375
Q27.875 6.59375 30.9062 7.5
Q33.9375 8.40625 36.0312 10.2969
Q38.1406 12.2031 39.25 15.0781
Q40.375 17.9688 40.375 21.9219
Q40.375 28.9062 36.0781 32.5938
Q31.7812 36.2812 23.5781 36.2812
Q22.2656 36.2812 20.7188 36.1562
Q19.1875 36.0312 17.6406 35.8281
Q16.1094 35.6406 14.7188 35.4219
Q13.3281 35.2031 12.3125 35.0156
L7.90625 37.7969
L10.5938 71.3906
L44.2812 71.3906
L44.2812 63.2812
L18.3125 63.2812
L16.4062 42.8281
Q17.9688 43.1094 20.5312 43.4531
Q23.0938 43.7969 26.6094 43.7969" id="WenQuanYiMicroHei-35"/>
      </defs>
      <g transform="translate(39.7573625 189.095149219)scale(0.0833 -0.0833)">
       <use xlink:href="#WenQuanYiMicroHei-2212"/>
       <use x="55.078125" xlink:href="#WenQuanYiMicroHei-31"/>
       <use x="110.15625" xlink:href="#WenQuanYiMicroHei-2e"/>
       <use x="136.962890625" xlink:href="#WenQuanYiMicroHei-35"/>
      </g>
     </g>
    </g>
    <g id="xtick_3">
     <g id="line2d_5">
      <g>
       <use style="stroke:#000000;stroke-width:0.5;" x="68.2418375" xlink:href="#m93b0483c22" y="178.765650781"/>
      </g>
     </g>
     <g id="line2d_6">
      <g>
       <use style="stroke:#000000;stroke-width:0.5;" x="68.2418375" xlink:href="#m741efc42ff" y="11.3656507813"/>
      </g>
     </g>
     <g id="text_3">
      <!-- −1.0 -->
      <g transform="translate(60.64591875 189.095149219)scale(0.0833 -0.0833)">
       <use xlink:href="#WenQuanYiMicroHei-2212"/>
       <use x="55.078125" xlink:href="#WenQuanYiMicroHei-31"/>
       <use x="110.15625" xlink:href="#WenQuanYiMicroHei-2e"/>
       <use x="136.962890625" xlink:href="#WenQuanYiMicroHei-30"/>
      </g>
     </g>
    </g>
    <g id="xtick_4">
     <g id="line2d_7">
      <g>
       <use style="stroke:#000000;stroke-width:0.5;" x="89.1668375" xlink:href="#m93b0483c22" y="178.765650781"/>
      </g>
     </g>
     <g id="line2d_8">
      <g>
       <use style="stroke:#000000;stroke-width:0.5;" x="89.1668375" xlink:href="#m741efc42ff" y="11.3656507813"/>
      </g>
     </g>
     <g id="text_4">
      <!-- −0.5 -->
      <g transform="translate(81.6073625 189.095149219)scale(0.0833 -0.0833)">
       <use xlink:href="#WenQuanYiMicroHei-2212"/>
       <use x="55.078125" xlink:href="#WenQuanYiMicroHei-30"/>
       <use x="110.15625" xlink:href="#WenQuanYiMicroHei-2e"/>
       <use x="136.962890625" xlink:href="#WenQuanYiMicroHei-35"/>
      </g>
     </g>
    </g>
    <g id="xtick_5">
     <g id="line2d_9">
      <g>
       <use style="stroke:#000000;stroke-width:0.5;" x="110.0918375" xlink:href="#m93b0483c22" y="178.765650781"/>
      </g>
     </g>
     <g id="line2d_10">
      <g>
       <use style="stroke:#000000;stroke-width:0.5;" x="110.0918375" xlink:href="#m741efc42ff" y="11.3656507813"/>
      </g>
     </g>
     <g id="text_5">
      <!-- 0.0 -->
      <g transform="translate(104.7814625 189.095149219)scale(0.0833 -0.0833)">
       <use xlink:href="#WenQuanYiMicroHei-30"/>
       <use x="55.078125" xlink:href="#WenQuanYiMicroHei-2e"/>
       <use x="81.884765625" xlink:href="#WenQuanYiMicroHei-30"/>
      </g>
     </g>
    </g>
    <g id="xtick_6">
     <g id="line2d_11">
      <g>
       <use style="stroke:#000000;stroke-width:0.5;" x="131.0168375" xlink:href="#m93b0483c22" y="178.765650781"/>
      </g>
     </g>
     <g id="line2d_12">
      <g>
       <use style="stroke:#000000;stroke-width:0.5;" x="131.0168375" xlink:href="#m741efc42ff" y="11.3656507813"/>
      </g>
     </g>
     <g id="text_6">
      <!-- 0.5 -->
      <g transform="translate(125.74290625 189.095149219)scale(0.0833 -0.0833)">
       <use xlink:href="#WenQuanYiMicroHei-30"/>
       <use x="55.078125" xlink:href="#WenQuanYiMicroHei-2e"/>
       <use x="81.884765625" xlink:href="#WenQuanYiMicroHei-35"/>
      </g>
     </g>
    </g>
    <g id="xtick_7">
     <g id="line2d_13">
      <g>
       <use style="stroke:#000000;stroke-width:0.5;" x="151.9418375" xlink:href="#m93b0483c22" y="178.765650781"/>
      </g>
     </g>
     <g id="line2d_14">
      <g>
       <use style="stroke:#000000;stroke-width:0.5;" x="151.9418375" xlink:href="#m741efc42ff" y="11.3656507813"/>
      </g>
     </g>
     <g id="text_7">
      <!-- 1.0 -->
      <g transform="translate(146.794157813 189.095149219)scale(0.0833 -0.0833)">
       <use xlink:href="#WenQuanYiMicroHei-31"/>
       <use x="55.078125" xlink:href="#WenQuanYiMicroHei-2e"/>
       <use x="81.884765625" xlink:href="#WenQuanYiMicroHei-30"/>
      </g>
     </g>
    </g>
    <g id="xtick_8">
     <g id="line2d_15">
      <g>
       <use style="stroke:#000000;stroke-width:0.5;" x="172.8668375" xlink:href="#m93b0483c22" y="178.765650781"/>
      </g>
     </g>
     <g id="line2d_16">
      <g>
       <use style="stroke:#000000;stroke-width:0.5;" x="172.8668375" xlink:href="#m741efc42ff" y="11.3656507813"/>
      </g>
     </g>
     <g id="text_8">
      <!-- 1.5 -->
      <g transform="translate(167.755601563 189.095149219)scale(0.0833 -0.0833)">
       <use xlink:href="#WenQuanYiMicroHei-31"/>
       <use x="55.078125" xlink:href="#WenQuanYiMicroHei-2e"/>
       <use x="81.884765625" xlink:href="#WenQuanYiMicroHei-35"/>
      </g>
     </g>
    </g>
    <g id="xtick_9">
     <g id="text_9">
      <!-- 2.0 -->
      <g transform="translate(188.477557813 189.095149219)scale(0.0833 -0.0833)">
       <use xlink:href="#WenQuanYiMicroHei-32"/>
       <use x="55.078125" xlink:href="#WenQuanYiMicroHei-2e"/>
       <use x="81.884765625" xlink:href="#WenQuanYiMicroHei-30"/>
      </g>
     </g>
    </g>
   </g>
   <g id="matplotlib.axis_2">
    <g id="ytick_1">
     <g id="line2d_17">
      <defs>
       <path d="
M0 0
L4 0" id="m728421d6d4" style="stroke:#000000;stroke-width:0.5;"/>
      </defs>
      <g>
       <use style="stroke:#000000;stroke-width:0.5;" x="26.3918375" xlink:href="#m728421d6d4" y="178.765650781"/>
      </g>
     </g>
     <g id="line2d_18">
      <defs>
       <path d="
M0 0
L-4 0" id="mcb0005524f" style="stroke:#000000;stroke-width:0.5;"/>
      </defs>
      <g>
       <use style="stroke:#000000;stroke-width:0.5;" x="193.7918375" xlink:href="#mcb0005524f" y="178.765650781"/>
      </g>
     </g>
     <g id="text_10">
      <!-- −2.0 -->
      <g transform="translate(7.2 180.929498438)scale(0.0833 -0.0833)">
       <use xlink:href="#WenQuanYiMicroHei-2212"/>
       <use x="55.078125" xlink:href="#WenQuanYiMicroHei-32"/>
       <use x="110.15625" xlink:href="#WenQuanYiMicroHei-2e"/>
       <use x="136.962890625" xlink:href="#WenQuanYiMicroHei-30"/>
      </g>
     </g>
    </g>
    <g id="ytick_2">
     <g id="line2d_19">
      <g>
       <use style="stroke:#000000;stroke-width:0.5;" x="26.3918375" xlink:href="#m728421d6d4" y="157.840650781"/>
      </g>
     </g>
     <g id="line2d_20">
      <g>
       <use style="stroke:#000000;stroke-width:0.5;" x="193.7918375" xlink:href="#mcb0005524f" y="157.840650781"/>
      </g>
     </g>
     <g id="text_11">
      <!-- −1.5 -->
      <g transform="translate(7.2728875 160.004498438)scale(0.0833 -0.0833)">
       <use xlink:href="#WenQuanYiMicroHei-2212"/>
       <use x="55.078125" xlink:href="#WenQuanYiMicroHei-31"/>
       <use x="110.15625" xlink:href="#WenQuanYiMicroHei-2e"/>
       <use x="136.962890625" xlink:href="#WenQuanYiMicroHei-35"/>
      </g>
     </g>
    </g>
    <g id="ytick_3">
     <g id="line2d_21">
      <g>
       <use style="stroke:#000000;stroke-width:0.5;" x="26.3918375" xlink:href="#m728421d6d4" y="136.915650781"/>
      </g>
     </g>
     <g id="line2d_22">
      <g>
       <use style="stroke:#000000;stroke-width:0.5;" x="193.7918375" xlink:href="#mcb0005524f" y="136.915650781"/>
      </g>
     </g>
     <g id="text_12">
      <!-- −1.0 -->
      <g transform="translate(7.2 139.079498438)scale(0.0833 -0.0833)">
       <use xlink:href="#WenQuanYiMicroHei-2212"/>
       <use x="55.078125" xlink:href="#WenQuanYiMicroHei-31"/>
       <use x="110.15625" xlink:href="#WenQuanYiMicroHei-2e"/>
       <use x="136.962890625" xlink:href="#WenQuanYiMicroHei-30"/>
      </g>
     </g>
    </g>
    <g id="ytick_4">
     <g id="line2d_23">
      <g>
       <use style="stroke:#000000;stroke-width:0.5;" x="26.3918375" xlink:href="#m728421d6d4" y="115.990650781"/>
      </g>
     </g>
     <g id="line2d_24">
      <g>
       <use style="stroke:#000000;stroke-width:0.5;" x="193.7918375" xlink:href="#mcb0005524f" y="115.990650781"/>
      </g>
     </g>
     <g id="text_13">
      <!-- −0.5 -->
      <g transform="translate(7.2728875 118.154498438)scale(0.0833 -0.0833)">
       <use xlink:href="#WenQuanYiMicroHei-2212"/>
       <use x="55.078125" xlink:href="#WenQuanYiMicroHei-30"/>
       <use x="110.15625" xlink:href="#WenQuanYiMicroHei-2e"/>
       <use x="136.962890625" xlink:href="#WenQuanYiMicroHei-35"/>
      </g>
     </g>
    </g>
    <g id="ytick_5">
     <g id="line2d_25">
      <g>
       <use style="stroke:#000000;stroke-width:0.5;" x="26.3918375" xlink:href="#m728421d6d4" y="95.0656507813"/>
      </g>
     </g>
     <g id="line2d_26">
      <g>
       <use style="stroke:#000000;stroke-width:0.5;" x="193.7918375" xlink:href="#mcb0005524f" y="95.0656507813"/>
      </g>
     </g>
     <g id="text_14">
      <!-- 0.0 -->
      <g transform="translate(11.7710875 97.2294984375)scale(0.0833 -0.0833)">
       <use xlink:href="#WenQuanYiMicroHei-30"/>
       <use x="55.078125" xlink:href="#WenQuanYiMicroHei-2e"/>
       <use x="81.884765625" xlink:href="#WenQuanYiMicroHei-30"/>
      </g>
     </g>
    </g>
    <g id="ytick_6">
     <g id="line2d_27">
      <g>
       <use style="stroke:#000000;stroke-width:0.5;" x="26.3918375" xlink:href="#m728421d6d4" y="74.1406507813"/>
      </g>
     </g>
     <g id="line2d_28">
      <g>
       <use style="stroke:#000000;stroke-width:0.5;" x="193.7918375" xlink:href="#mcb0005524f" y="74.1406507813"/>
      </g>
     </g>
     <g id="text_15">
      <!-- 0.5 -->
      <g transform="translate(11.843975 76.3044984375)scale(0.0833 -0.0833)">
       <use xlink:href="#WenQuanYiMicroHei-30"/>
       <use x="55.078125" xlink:href="#WenQuanYiMicroHei-2e"/>
       <use x="81.884765625" xlink:href="#WenQuanYiMicroHei-35"/>
      </g>
     </g>
    </g>
    <g id="ytick_7">
     <g id="line2d_29">
      <g>
       <use style="stroke:#000000;stroke-width:0.5;" x="26.3918375" xlink:href="#m728421d6d4" y="53.2156507813"/>
      </g>
     </g>
     <g id="line2d_30">
      <g>
       <use style="stroke:#000000;stroke-width:0.5;" x="193.7918375" xlink:href="#mcb0005524f" y="53.2156507813"/>
      </g>
     </g>
     <g id="text_16">
      <!-- 1.0 -->
      <g transform="translate(12.096478125 55.3794984375)scale(0.0833 -0.0833)">
       <use xlink:href="#WenQuanYiMicroHei-31"/>
       <use x="55.078125" xlink:href="#WenQuanYiMicroHei-2e"/>
       <use x="81.884765625" xlink:href="#WenQuanYiMicroHei-30"/>
      </g>
     </g>
    </g>
    <g id="ytick_8">
     <g id="line2d_31">
      <g>
       <use style="stroke:#000000;stroke-width:0.5;" x="26.3918375" xlink:href="#m728421d6d4" y="32.2906507813"/>
      </g>
     </g>
     <g id="line2d_32">
      <g>
       <use style="stroke:#000000;stroke-width:0.5;" x="193.7918375" xlink:href="#mcb0005524f" y="32.2906507813"/>
      </g>
     </g>
     <g id="text_17">
      <!-- 1.5 -->
      <g transform="translate(12.169365625 34.4544984375)scale(0.0833 -0.0833)">
       <use xlink:href="#WenQuanYiMicroHei-31"/>
       <use x="55.078125" xlink:href="#WenQuanYiMicroHei-2e"/>
       <use x="81.884765625" xlink:href="#WenQuanYiMicroHei-35"/>
      </g>
     </g>
    </g>
    <g id="ytick_9">
     <g id="text_18">
      <!-- 2.0 -->
      <g transform="translate(11.763278125 13.5294984375)scale(0.0833 -0.0833)">
       <use xlink:href="#WenQuanYiMicroHei-32"/>
       <use x="55.078125" xlink:href="#WenQuanYiMicroHei-2e"/>
       <use x="81.884765625" xlink:href="#WenQuanYiMicroHei-30"/>
      </g>
     </g>
    </g>
   </g>
   <g id="patch_3">
    <path d="
M26.3918 11.3657
L193.792 11.3657" style="fill:none;stroke:#000000;"/>
   </g>
   <g id="patch_4">
    <path d="
M193.792 178.766
L193.792 11.3657" style="fill:none;stroke:#000000;"/>
   </g>
   <g id="patch_5">
    <path d="
M26.3918 178.766
L193.792 178.766" style="fill:none;stroke:#000000;"/>
   </g>
   <g id="patch_6">
    <path d="
M26.3918 178.766
L26.3918 11.3657" style="fill:none;stroke:#000000;"/>
   </g>
  </g>
 </g>
 <defs>
  <clipPath id="p8854eaee10">
   <rect height="167.4" width="167.4" x="26.3918375" y="11.3656507813"/>
  </clipPath>
 </defs>
</svg>
