<?xml version="1.0" encoding="utf-8" standalone="no"?>
<!DOCTYPE svg PUBLIC "-//W3C//DTD SVG 1.1//EN"
  "http://www.w3.org/Graphics/SVG/1.1/DTD/svg11.dtd">
<!-- Created with matplotlib (http://matplotlib.org/) -->
<svg height="258pt" version="1.1" viewBox="0 0 726 258" width="726pt" xmlns="http://www.w3.org/2000/svg" xmlns:xlink="http://www.w3.org/1999/xlink">
 <defs>
  <style type="text/css">
*{stroke-linecap:butt;stroke-linejoin:round;}
  </style>
 </defs>
 <g id="figure_1">
  <g id="patch_1">
   <path d="
M0 258.798
L726.065 258.798
L726.065 0
L0 0
z
" style="fill:#ffffff;"/>
  </g>
  <g id="axes_1">
   <g id="patch_2">
    <path d="
M44.4278 111.927
L348.791 111.927
L348.791 7.2
L44.4278 7.2
z
" style="fill:#ffffff;"/>
   </g>
   <g id="line2d_1">
    <path clip-path="url(#p9e32510afb)" d="
M44.4278 45.6388
L49.0162 58.5233
L53.6046 71.5101
L56.6635 79.5949
L59.7224 86.8289
L61.2519 90.0401
L62.7814 92.943
L64.3108 95.5149
L65.8403 97.7369
L67.3697 99.5941
L68.8992 101.075
L70.4287 102.17
L71.9581 102.875
L73.4876 103.185
L75.0171 103.098
L76.5465 102.615
L78.076 101.739
L79.6055 100.473
L81.1349 98.8266
L82.6644 96.808
L84.1939 94.4307
L85.7233 91.7113
L87.2528 88.6703
L88.7823 85.3325
L91.8412 77.8868
L94.9001 69.6579
L104.077 43.8431
L107.136 36.1088
L110.195 29.3565
L111.724 26.4255
L113.254 23.8239
L114.783 21.5706
L116.313 19.6809
L117.842 18.1668
L119.372 17.0372
L120.901 16.2983
L122.431 15.954
L123.96 16.0061
L125.489 16.4544
L127.019 17.2964
L128.548 18.5277
L130.078 20.1415
L131.607 22.1279
L133.137 24.4744
L134.666 27.1646
L136.196 30.1784
L137.725 33.4913
L140.784 40.8957
L143.843 49.0971
L154.549 78.9164
L157.608 86.2367
L159.138 89.4992
L160.667 92.4579
L162.197 95.0892
L163.726 97.3737
L165.256 99.2957
L166.785 100.843
L168.314 102.007
L169.844 102.78
L171.373 103.159
L172.903 103.142
L174.432 102.728
L175.962 101.92
L177.491 100.723
L179.021 99.1422
L180.55 97.1879
L182.08 94.8724
L183.609 92.2115
L185.139 89.2252
L186.668 85.9374
L189.727 78.5748
L192.786 70.4016
L203.492 40.5525
L206.551 33.1899
L208.081 29.9021
L209.61 26.9158
L211.14 24.2549
L212.669 21.9394
L214.198 19.9851
L215.728 18.4045
L217.257 17.207
L218.787 16.3993
L220.316 15.9857
L221.846 15.9684
L223.375 16.3473
L224.905 17.1206
L226.434 18.2842
L227.964 19.8315
L229.493 21.7536
L231.023 24.0381
L232.552 26.6694
L234.081 29.6281
L235.611 32.8906
L238.67 40.2108
L241.729 48.3552
L252.435 78.2316
L255.494 85.636
L257.023 88.9489
L258.553 91.9627
L260.082 94.6528
L261.612 96.9993
L263.141 98.9858
L264.671 100.6
L266.2 101.831
L267.73 102.673
L269.259 103.121
L270.789 103.173
L272.318 102.829
L273.848 102.09
L275.377 100.96
L276.907 99.4464
L278.436 97.5567
L279.965 95.3034
L281.495 92.7017
L283.024 89.7708
L284.554 86.5339
L287.613 79.2565
L290.672 71.1415
L301.378 41.2405
L304.437 33.7948
L305.966 30.457
L307.496 27.416
L309.025 24.6966
L310.555 22.3193
L312.084 20.3007
L313.614 18.6539
L315.143 17.3887
L316.673 16.5124
L318.202 16.0296
L319.732 15.9427
L321.261 16.2524
L322.79 16.9568
L324.32 18.0524
L325.849 19.5331
L327.379 21.3903
L328.908 23.6124
L330.438 26.1842
L331.967 29.0872
L333.497 32.2983
L336.556 39.5323
L339.615 47.6172
L345.732 64.9744
L348.791 73.4885
L348.791 73.4885" style="fill:none;stroke:#348abd;stroke-linecap:square;stroke-width:2.0;"/>
   </g>
   <g id="line2d_2">
    <path clip-path="url(#p9e32510afb)" d="
M44.4278 81.3183
L45.9572 84.8079
L47.4867 88.0123
L49.0162 90.9141
L50.5456 93.5036
L52.0751 95.777
L53.6046 97.7355
L55.134 99.3837
L56.6635 100.728
L58.193 101.775
L59.7224 102.532
L61.2519 103.004
L62.7814 103.195
L64.3108 103.107
L65.8403 102.739
L67.3697 102.088
L68.8992 101.149
L70.4287 99.9148
L71.9581 98.3797
L73.4876 96.5364
L75.0171 94.3795
L76.5465 91.9066
L78.076 89.1193
L79.6055 86.0249
L81.1349 82.6381
L84.1939 75.0856
L87.2528 66.7447
L94.9001 45.2321
L97.9591 37.5421
L99.4885 34.0728
L101.018 30.8903
L102.547 28.0112
L104.077 25.4451
L105.606 23.195
L107.136 21.2595
L108.665 19.6341
L110.195 18.3121
L111.724 17.2866
L113.254 16.5508
L114.783 16.0994
L116.313 15.9288
L117.842 16.0375
L119.372 16.4265
L120.901 17.0989
L122.431 18.0597
L123.96 19.3154
L125.489 20.873
L127.019 22.7393
L128.548 24.9195
L130.078 27.4158
L131.607 30.2261
L133.137 33.3426
L136.196 40.4259
L139.255 48.4454
L145.372 65.7891
L148.431 74.1943
L151.49 81.8506
L153.02 85.2994
L154.549 88.46
L156.079 91.3162
L157.608 93.8591
L159.138 96.0859
L160.667 97.9983
L162.197 99.6011
L163.726 100.901
L165.256 101.905
L166.785 102.619
L168.314 103.05
L169.844 103.2
L171.373 103.071
L172.903 102.661
L174.432 101.967
L175.962 100.985
L177.491 99.7073
L179.021 98.1271
L180.55 96.2378
L182.08 94.0343
L183.609 91.5147
L185.139 88.6814
L186.668 85.5429
L189.727 78.4202
L192.786 70.3722
L203.492 40.707
L206.551 33.5844
L208.081 30.4458
L209.61 27.6125
L211.14 25.0929
L212.669 22.8895
L214.198 21.0002
L215.728 19.42
L217.257 18.1422
L218.787 17.1599
L220.316 16.4664
L221.846 16.0566
L223.375 15.9273
L224.905 16.0773
L226.434 16.5078
L227.964 17.2224
L229.493 18.2264
L231.023 19.5262
L232.552 21.129
L234.081 23.0414
L235.611 25.2681
L237.14 27.811
L238.67 30.6672
L240.199 33.8278
L243.258 40.9895
L246.317 49.0656
L257.023 78.7014
L260.082 85.7847
L261.612 88.9012
L263.141 91.7115
L264.671 94.2078
L266.2 96.3879
L267.73 98.2543
L269.259 99.8119
L270.789 101.068
L272.318 102.028
L273.848 102.701
L275.377 103.09
L276.907 103.198
L278.436 103.028
L279.965 102.576
L281.495 101.841
L283.024 100.815
L284.554 99.4932
L286.083 97.8678
L287.613 95.9323
L289.142 93.6822
L290.672 91.116
L292.201 88.237
L293.731 85.0544
L296.79 77.8541
L299.849 69.7504
L309.025 44.0417
L312.084 36.4892
L313.614 33.1023
L315.143 30.008
L316.673 27.2207
L318.202 24.7477
L319.732 22.5909
L321.261 20.7476
L322.79 19.2124
L324.32 17.9788
L325.849 17.0395
L327.379 16.3882
L328.908 16.0199
L330.438 15.9318
L331.967 16.1231
L333.497 16.5954
L335.026 17.3523
L336.556 18.3995
L338.085 19.7436
L339.615 21.3917
L341.144 23.3503
L342.674 25.6237
L344.203 28.2132
L345.732 31.115
L347.262 34.3194
L348.791 37.809
L348.791 37.809" style="fill:none;stroke:#a60628;stroke-linecap:square;stroke-width:2.0;"/>
   </g>
   <g id="line2d_3">
    <path clip-path="url(#p9e32510afb)" d="
M44.4278 103.168
L45.9572 103.189
L47.4867 103.048
L49.0162 102.742
L50.5456 102.264
L52.0751 101.605
L53.6046 100.751
L55.134 99.6868
L56.6635 98.3946
L58.193 96.8551
L59.7224 95.049
L61.2519 92.9578
L62.7814 90.5664
L64.3108 87.8644
L65.8403 84.8485
L67.3697 81.525
L70.4287 74.0378
L73.4876 65.6926
L79.6055 48.3898
L82.6644 40.5089
L84.1939 36.9485
L85.7233 33.6824
L87.2528 30.7259
L88.7823 28.0833
L90.3117 25.7499
L91.8412 23.7141
L93.3707 21.96
L94.9001 20.469
L96.4296 19.2215
L97.9591 18.1985
L99.4885 17.3826
L101.018 16.7586
L102.547 16.314
L104.077 16.0397
L105.606 15.9297
L107.136 15.9816
L108.665 16.1967
L110.195 16.5795
L111.724 17.1381
L113.254 17.8838
L114.783 18.8308
L116.313 19.9959
L117.842 21.3976
L119.372 23.0554
L120.901 24.9883
L122.431 27.2137
L123.96 29.7448
L125.489 32.589
L127.019 35.7455
L128.548 39.2031
L131.607 46.917
L134.666 55.3965
L140.784 72.597
L143.843 80.2647
L145.372 83.6945
L146.902 86.8217
L148.431 89.6361
L149.961 92.1377
L151.49 94.3347
L153.02 96.2408
L154.549 97.8734
L156.079 99.2518
L157.608 100.395
L159.138 101.323
L160.667 102.05
L162.197 102.591
L163.726 102.958
L165.256 103.158
L166.785 103.194
L168.314 103.069
L169.844 102.779
L171.373 102.317
L172.903 101.676
L174.432 100.841
L175.962 99.7973
L177.491 98.5275
L179.021 97.0124
L180.55 95.2323
L182.08 93.169
L183.609 90.8066
L185.139 88.1343
L186.668 85.1481
L188.198 81.8532
L191.256 74.4155
L194.315 66.1016
L200.433 48.7844
L203.492 40.8612
L205.022 37.274
L206.551 33.9792
L208.081 30.993
L209.61 28.3207
L211.14 25.9583
L212.669 23.8949
L214.198 22.1149
L215.728 20.5997
L217.257 19.33
L218.787 18.2865
L220.316 17.4516
L221.846 16.8099
L223.375 16.3488
L224.905 16.0586
L226.434 15.9331
L227.964 15.9697
L229.493 16.1692
L231.023 16.5358
L232.552 17.0773
L234.081 17.8046
L235.611 18.7318
L237.14 19.8754
L238.67 21.2539
L240.199 22.8865
L241.729 24.7926
L243.258 26.9896
L244.788 29.4912
L246.317 32.3056
L247.847 35.4327
L249.376 38.8626
L252.435 46.5303
L255.494 54.9838
L261.612 72.2103
L264.671 79.9241
L266.2 83.3818
L267.73 86.5383
L269.259 89.3825
L270.789 91.9136
L272.318 94.1389
L273.848 96.0719
L275.377 97.7297
L276.907 99.1314
L278.436 100.296
L279.965 101.243
L281.495 101.989
L283.024 102.548
L284.554 102.931
L286.083 103.146
L287.613 103.198
L289.142 103.088
L290.672 102.813
L292.201 102.369
L293.731 101.745
L295.26 100.929
L296.79 99.9058
L298.319 98.6583
L299.849 97.1672
L301.378 95.4132
L302.907 93.3774
L304.437 91.044
L305.966 88.4014
L307.496 85.4449
L309.025 82.1788
L312.084 74.7912
L315.143 66.5097
L322.79 45.0895
L325.849 37.6023
L327.379 34.2788
L328.908 31.2629
L330.438 28.5608
L331.967 26.1694
L333.497 24.0783
L335.026 22.2722
L336.556 20.7327
L338.085 19.4405
L339.615 18.3763
L341.144 17.5223
L342.674 16.8629
L344.203 16.3851
L345.732 16.079
L347.262 15.9381
L348.791 15.9593
L348.791 15.9593" style="fill:none;stroke:#7a68a6;stroke-linecap:square;stroke-width:2.0;"/>
   </g>
   <g id="line2d_4">
    <path clip-path="url(#p9e32510afb)" d="
M44.4278 46.3391
L45.9572 42.4609
L47.4867 38.8617
L49.0162 35.5738
L50.5456 32.6133
L52.0751 29.9821
L53.6046 27.6708
L55.134 25.6613
L56.6635 23.9301
L58.193 22.4508
L59.7224 21.1956
L61.2519 20.1376
L62.7814 19.2512
L64.3108 18.5132
L67.3697 17.4016
L70.4287 16.6674
L73.4876 16.2142
L76.5465 15.98
L79.6055 15.9317
L82.6644 16.0624
L85.7233 16.3907
L88.7823 16.9624
L91.8412 17.8546
L93.3707 18.4547
L94.9001 19.1807
L96.4296 20.0531
L97.9591 21.0951
L99.4885 22.3318
L101.018 23.7904
L102.547 25.4983
L104.077 27.4823
L105.606 29.7663
L107.136 32.3689
L108.665 35.3003
L110.195 38.5599
L111.724 42.1327
L114.783 50.0789
L123.96 75.5149
L125.489 79.203
L127.019 82.588
L128.548 85.6489
L130.078 88.3797
L131.607 90.7867
L133.137 92.8856
L134.666 94.6987
L136.196 96.2517
L137.725 97.5722
L139.255 98.6873
L140.784 99.6233
L142.314 100.404
L145.372 101.584
L148.431 102.368
L151.49 102.859
L154.549 103.124
L157.608 103.2
L160.667 103.097
L163.726 102.801
L166.785 102.27
L169.844 101.433
L171.373 100.867
L172.903 100.182
L174.432 99.3562
L175.962 98.3684
L177.491 97.1937
L179.021 95.8054
L180.55 94.1762
L182.08 92.2789
L183.609 90.0883
L185.139 87.5842
L186.668 84.7532
L188.198 81.5925
L189.727 78.1124
L192.786 70.3135
L197.374 57.3726
L200.433 48.8137
L203.492 41.0149
L205.022 37.5348
L206.551 34.3741
L208.081 31.5431
L209.61 29.0389
L211.14 26.8484
L212.669 24.9511
L214.198 23.3218
L215.728 21.9336
L217.257 20.7589
L218.787 19.7711
L220.316 18.9455
L223.375 17.6942
L226.434 16.8572
L229.493 16.3266
L232.552 16.0305
L235.611 15.9276
L238.67 16.0031
L241.729 16.2678
L244.788 16.7589
L247.847 17.5434
L250.906 18.7232
L252.435 19.504
L253.965 20.4399
L255.494 21.5551
L257.023 22.8756
L258.553 24.4286
L260.082 26.2416
L261.612 28.3406
L263.141 30.7476
L264.671 33.4784
L266.2 36.5393
L267.73 39.9242
L270.789 47.5665
L273.848 56.0448
L278.436 69.0484
L281.495 76.9945
L283.024 80.5674
L284.554 83.8269
L286.083 86.7584
L287.613 89.3609
L289.142 91.6449
L290.672 93.6289
L292.201 95.3369
L293.731 96.7954
L295.26 98.0322
L296.79 99.0741
L298.319 99.9465
L299.849 100.673
L302.907 101.765
L305.966 102.485
L309.025 102.928
L312.084 103.153
L315.143 103.194
L318.202 103.055
L321.261 102.717
L324.32 102.133
L327.379 101.225
L328.908 100.614
L330.438 99.876
L331.967 98.9897
L333.497 97.9317
L335.026 96.6765
L336.556 95.1971
L338.085 93.466
L339.615 91.4565
L341.144 89.1452
L342.674 86.514
L344.203 83.5535
L345.732 80.2655
L348.791 72.7882
L348.791 72.7882" style="fill:none;stroke:#467821;stroke-linecap:square;stroke-width:2.0;"/>
   </g>
   <g id="patch_3">
    <path d="
M44.4278 7.2
L348.791 7.2" style="fill:none;stroke:#000000;stroke-linecap:square;stroke-linejoin:miter;"/>
   </g>
   <g id="patch_4">
    <path d="
M348.791 111.927
L348.791 7.2" style="fill:none;stroke:#000000;stroke-linecap:square;stroke-linejoin:miter;"/>
   </g>
   <g id="patch_5">
    <path d="
M44.4278 111.927
L348.791 111.927" style="fill:none;stroke:#000000;stroke-linecap:square;stroke-linejoin:miter;"/>
   </g>
   <g id="patch_6">
    <path d="
M44.4278 111.927
L44.4278 7.2" style="fill:none;stroke:#000000;stroke-linecap:square;stroke-linejoin:miter;"/>
   </g>
   <g id="matplotlib.axis_1">
    <g id="xtick_1">
     <g id="line2d_5">
      <defs>
       <path d="
M0 0
L0 -4" id="m93b0483c22" style="stroke:#000000;stroke-width:0.5;"/>
      </defs>
      <g>
       <use style="stroke:#000000;stroke-width:0.5;" x="44.427766875" xlink:href="#m93b0483c22" y="111.927272727"/>
      </g>
     </g>
     <g id="line2d_6">
      <defs>
       <path d="
M0 0
L0 4" id="m741efc42ff" style="stroke:#000000;stroke-width:0.5;"/>
      </defs>
      <g>
       <use style="stroke:#000000;stroke-width:0.5;" x="44.427766875" xlink:href="#m741efc42ff" y="7.2"/>
      </g>
     </g>
     <g id="text_1">
      <!-- −10 -->
      <defs>
       <path d="
M34.7188 0
L26.125 0
L26.125 44.5781
Q26.125 46.6875 26.1406 49.0781
Q26.1719 51.4688 26.2344 53.8281
Q26.3125 56.2031 26.3906 58.375
Q26.4688 60.5469 26.5156 62.2031
Q25.6875 61.3281 25.0469 60.6875
Q24.4219 60.0625 23.75 59.4688
Q23.0938 58.8906 22.3594 58.2188
Q21.625 57.5625 20.6094 56.6875
L13.375 50.7812
L8.6875 56.7812
L27.3906 71.3906
L34.7188 71.3906
z
" id="WenQuanYiMicroHei-31"/>
       <path d="
M50.3906 35.7969
Q50.3906 27.1562 49.1406 20.3125
Q47.9062 13.4844 45.1406 8.73438
Q42.3906 4 38.0312 1.5
Q33.6875 -0.984375 27.4844 -0.984375
Q21.7344 -0.984375 17.4531 1.5
Q13.1875 4 10.375 8.73438
Q7.5625 13.4844 6.17188 20.3125
Q4.78125 27.1562 4.78125 35.7969
Q4.78125 44.4375 6.03125 51.2656
Q7.28125 58.1094 9.98438 62.8125
Q12.7031 67.5312 17.0156 70.0156
Q21.3438 72.5156 27.4844 72.5156
Q33.2969 72.5156 37.5938 70.0469
Q41.8906 67.5781 44.7188 62.8594
Q47.5625 58.1562 48.9688 51.3125
Q50.3906 44.4844 50.3906 35.7969
M13.8125 35.7969
Q13.8125 28.4688 14.5469 23
Q15.2812 17.5312 16.8906 13.8906
Q18.5 10.25 21.1094 8.42188
Q23.7344 6.59375 27.4844 6.59375
Q31.25 6.59375 33.8906 8.39062
Q36.5312 10.2031 38.2031 13.8125
Q39.8906 17.4375 40.6406 22.9219
Q41.4062 28.4219 41.4062 35.7969
Q41.4062 43.1094 40.6406 48.5781
Q39.8906 54.0469 38.2031 57.6562
Q36.5312 61.2812 33.8906 63.0781
Q31.25 64.8906 27.4844 64.8906
Q23.7344 64.8906 21.1094 63.0781
Q18.5 61.2812 16.8906 57.6562
Q15.2812 54.0469 14.5469 48.5781
Q13.8125 43.1094 13.8125 35.7969" id="WenQuanYiMicroHei-30"/>
       <path d="
M4.98438 31.5938
L4.98438 38.9219
L50.0938 38.9219
L50.0938 31.5938
z
" id="WenQuanYiMicroHei-2212"/>
      </defs>
      <g transform="translate(36.652753125 123.522670852)scale(0.09996 -0.09996)">
       <use xlink:href="#WenQuanYiMicroHei-2212"/>
       <use x="55.078125" xlink:href="#WenQuanYiMicroHei-31"/>
       <use x="110.15625" xlink:href="#WenQuanYiMicroHei-30"/>
      </g>
     </g>
    </g>
    <g id="xtick_2">
     <g id="line2d_7">
      <g>
       <use style="stroke:#000000;stroke-width:0.5;" x="120.518675966" xlink:href="#m93b0483c22" y="111.927272727"/>
      </g>
     </g>
     <g id="line2d_8">
      <g>
       <use style="stroke:#000000;stroke-width:0.5;" x="120.518675966" xlink:href="#m741efc42ff" y="7.2"/>
      </g>
     </g>
     <g id="text_2">
      <!-- −5 -->
      <defs>
       <path d="
M26.6094 43.7969
Q31.4531 43.7969 35.625 42.4531
Q39.7969 41.1094 42.8906 38.4688
Q46 35.8438 47.75 31.9375
Q49.5156 28.0312 49.5156 22.9062
Q49.5156 17.3281 47.8438 12.8906
Q46.1875 8.45312 42.9219 5.375
Q39.6562 2.29688 34.8438 0.65625
Q30.0312 -0.984375 23.7812 -0.984375
Q21.2969 -0.984375 18.875 -0.734375
Q16.4531 -0.484375 14.2344 -0.015625
Q12.0156 0.4375 10.0156 1.17188
Q8.01562 1.90625 6.39062 2.875
L6.39062 11.2812
Q8.01562 10.1562 10.1875 9.28125
Q12.3594 8.40625 14.75 7.8125
Q17.1406 7.23438 19.5469 6.90625
Q21.9688 6.59375 24.0312 6.59375
Q27.875 6.59375 30.9062 7.5
Q33.9375 8.40625 36.0312 10.2969
Q38.1406 12.2031 39.25 15.0781
Q40.375 17.9688 40.375 21.9219
Q40.375 28.9062 36.0781 32.5938
Q31.7812 36.2812 23.5781 36.2812
Q22.2656 36.2812 20.7188 36.1562
Q19.1875 36.0312 17.6406 35.8281
Q16.1094 35.6406 14.7188 35.4219
Q13.3281 35.2031 12.3125 35.0156
L7.90625 37.7969
L10.5938 71.3906
L44.2812 71.3906
L44.2812 63.2812
L18.3125 63.2812
L16.4062 42.8281
Q17.9688 43.1094 20.5312 43.4531
Q23.0938 43.7969 26.6094 43.7969" id="WenQuanYiMicroHei-35"/>
      </defs>
      <g transform="translate(115.540199403 123.522670852)scale(0.09996 -0.09996)">
       <use xlink:href="#WenQuanYiMicroHei-2212"/>
       <use x="55.078125" xlink:href="#WenQuanYiMicroHei-35"/>
      </g>
     </g>
    </g>
    <g id="xtick_3">
     <g id="line2d_9">
      <g>
       <use style="stroke:#000000;stroke-width:0.5;" x="196.609585057" xlink:href="#m93b0483c22" y="111.927272727"/>
      </g>
     </g>
     <g id="line2d_10">
      <g>
       <use style="stroke:#000000;stroke-width:0.5;" x="196.609585057" xlink:href="#m741efc42ff" y="7.2"/>
      </g>
     </g>
     <g id="text_3">
      <!-- 0 -->
      <g transform="translate(194.330028494 123.522670852)scale(0.09996 -0.09996)">
       <use xlink:href="#WenQuanYiMicroHei-30"/>
      </g>
     </g>
    </g>
    <g id="xtick_4">
     <g id="line2d_11">
      <g>
       <use style="stroke:#000000;stroke-width:0.5;" x="272.700494148" xlink:href="#m93b0483c22" y="111.927272727"/>
      </g>
     </g>
     <g id="line2d_12">
      <g>
       <use style="stroke:#000000;stroke-width:0.5;" x="272.700494148" xlink:href="#m741efc42ff" y="7.2"/>
      </g>
     </g>
     <g id="text_4">
      <!-- 5 -->
      <g transform="translate(270.545106648 123.522670852)scale(0.09996 -0.09996)">
       <use xlink:href="#WenQuanYiMicroHei-35"/>
      </g>
     </g>
    </g>
    <g id="xtick_5">
     <g id="line2d_13">
      <g>
       <use style="stroke:#000000;stroke-width:0.5;" x="348.791403239" xlink:href="#m93b0483c22" y="111.927272727"/>
      </g>
     </g>
     <g id="line2d_14">
      <g>
       <use style="stroke:#000000;stroke-width:0.5;" x="348.791403239" xlink:href="#m741efc42ff" y="7.2"/>
      </g>
     </g>
     <g id="text_5">
      <!-- 10 -->
      <g transform="translate(343.954276364 123.522670852)scale(0.09996 -0.09996)">
       <use xlink:href="#WenQuanYiMicroHei-31"/>
       <use x="55.078125" xlink:href="#WenQuanYiMicroHei-30"/>
      </g>
     </g>
    </g>
   </g>
   <g id="matplotlib.axis_2">
    <g id="ytick_1">
     <g id="line2d_15">
      <defs>
       <path d="
M0 0
L4 0" id="m728421d6d4" style="stroke:#000000;stroke-width:0.5;"/>
      </defs>
      <g>
       <use style="stroke:#000000;stroke-width:0.5;" x="44.427766875" xlink:href="#m728421d6d4" y="103.200190159"/>
      </g>
     </g>
     <g id="line2d_16">
      <defs>
       <path d="
M0 0
L-4 0" id="mcb0005524f" style="stroke:#000000;stroke-width:0.5;"/>
      </defs>
      <g>
       <use style="stroke:#000000;stroke-width:0.5;" x="348.791403239" xlink:href="#mcb0005524f" y="103.200190159"/>
      </g>
     </g>
     <g id="text_6">
      <!-- −1.0 -->
      <defs>
       <path d="
M7.17188 5.42188
Q7.17188 7.28125 7.65625 8.5625
Q8.15625 9.85938 8.98438 10.6562
Q9.8125 11.4688 10.9375 11.8281
Q12.0625 12.2031 13.375 12.2031
Q14.6562 12.2031 15.7969 11.8281
Q16.9375 11.4688 17.7656 10.6562
Q18.6094 9.85938 19.0938 8.5625
Q19.5781 7.28125 19.5781 5.42188
Q19.5781 3.60938 19.0938 2.3125
Q18.6094 1.03125 17.7656 0.1875
Q16.9375 -0.640625 15.7969 -1.03125
Q14.6562 -1.42188 13.375 -1.42188
Q12.0625 -1.42188 10.9375 -1.03125
Q9.8125 -0.640625 8.98438 0.1875
Q8.15625 1.03125 7.65625 2.3125
Q7.17188 3.60938 7.17188 5.42188" id="WenQuanYiMicroHei-2e"/>
      </defs>
      <g transform="translate(22.197561875 105.796807347)scale(0.09996 -0.09996)">
       <use xlink:href="#WenQuanYiMicroHei-2212"/>
       <use x="55.078125" xlink:href="#WenQuanYiMicroHei-31"/>
       <use x="110.15625" xlink:href="#WenQuanYiMicroHei-2e"/>
       <use x="136.962890625" xlink:href="#WenQuanYiMicroHei-30"/>
      </g>
     </g>
    </g>
    <g id="ytick_2">
     <g id="line2d_17">
      <g>
       <use style="stroke:#000000;stroke-width:0.5;" x="44.427766875" xlink:href="#m728421d6d4" y="81.3819132615"/>
      </g>
     </g>
     <g id="line2d_18">
      <g>
       <use style="stroke:#000000;stroke-width:0.5;" x="348.791403239" xlink:href="#mcb0005524f" y="81.3819132615"/>
      </g>
     </g>
     <g id="text_7">
      <!-- −0.5 -->
      <g transform="translate(22.285026875 83.978530449)scale(0.09996 -0.09996)">
       <use xlink:href="#WenQuanYiMicroHei-2212"/>
       <use x="55.078125" xlink:href="#WenQuanYiMicroHei-30"/>
       <use x="110.15625" xlink:href="#WenQuanYiMicroHei-2e"/>
       <use x="136.962890625" xlink:href="#WenQuanYiMicroHei-35"/>
      </g>
     </g>
    </g>
    <g id="ytick_3">
     <g id="line2d_19">
      <g>
       <use style="stroke:#000000;stroke-width:0.5;" x="44.427766875" xlink:href="#m728421d6d4" y="59.5636363636"/>
      </g>
     </g>
     <g id="line2d_20">
      <g>
       <use style="stroke:#000000;stroke-width:0.5;" x="348.791403239" xlink:href="#mcb0005524f" y="59.5636363636"/>
      </g>
     </g>
     <g id="text_8">
      <!-- 0.0 -->
      <g transform="translate(27.682866875 62.1602535511)scale(0.09996 -0.09996)">
       <use xlink:href="#WenQuanYiMicroHei-30"/>
       <use x="55.078125" xlink:href="#WenQuanYiMicroHei-2e"/>
       <use x="81.884765625" xlink:href="#WenQuanYiMicroHei-30"/>
      </g>
     </g>
    </g>
    <g id="ytick_4">
     <g id="line2d_21">
      <g>
       <use style="stroke:#000000;stroke-width:0.5;" x="44.427766875" xlink:href="#m728421d6d4" y="37.7453594657"/>
      </g>
     </g>
     <g id="line2d_22">
      <g>
       <use style="stroke:#000000;stroke-width:0.5;" x="348.791403239" xlink:href="#mcb0005524f" y="37.7453594657"/>
      </g>
     </g>
     <g id="text_9">
      <!-- 0.5 -->
      <g transform="translate(27.770331875 40.3419766532)scale(0.09996 -0.09996)">
       <use xlink:href="#WenQuanYiMicroHei-30"/>
       <use x="55.078125" xlink:href="#WenQuanYiMicroHei-2e"/>
       <use x="81.884765625" xlink:href="#WenQuanYiMicroHei-35"/>
      </g>
     </g>
    </g>
    <g id="ytick_5">
     <g id="line2d_23">
      <g>
       <use style="stroke:#000000;stroke-width:0.5;" x="44.427766875" xlink:href="#m728421d6d4" y="15.9270825679"/>
      </g>
     </g>
     <g id="line2d_24">
      <g>
       <use style="stroke:#000000;stroke-width:0.5;" x="348.791403239" xlink:href="#mcb0005524f" y="15.9270825679"/>
      </g>
     </g>
     <g id="text_10">
      <!-- 1.0 -->
      <g transform="translate(28.073335625 18.5236997554)scale(0.09996 -0.09996)">
       <use xlink:href="#WenQuanYiMicroHei-31"/>
       <use x="55.078125" xlink:href="#WenQuanYiMicroHei-2e"/>
       <use x="81.884765625" xlink:href="#WenQuanYiMicroHei-30"/>
      </g>
     </g>
    </g>
    <g id="text_11">
     <!-- $sn$ -->
     <defs>
      <path d="
M8.6875 6.10938
Q11.375 1.51562 19.4844 1.51562
Q23 1.51562 26.1719 2.70312
Q29.3438 3.90625 31.4219 6.29688
Q33.5 8.6875 33.5 12.1094
Q33.5 14.7031 31.6406 16.3594
Q29.7812 18.0156 27.0938 18.6094
L21.6875 19.6719
Q17.9688 20.6094 15.5781 23.1406
Q13.1875 25.6875 13.1875 29.2969
Q13.1875 33.7344 15.5938 37.1562
Q18.0156 40.5781 21.9688 42.375
Q25.9219 44.1875 30.1719 44.1875
Q34.7188 44.1875 38.2969 42.0156
Q41.8906 39.8438 41.8906 35.5938
Q41.8906 33.2969 40.5938 31.5312
Q39.3125 29.7812 37.0156 29.7812
Q35.6875 29.7812 34.7344 30.6406
Q33.7969 31.5 33.7969 32.8125
Q33.7969 33.9844 34.4531 35.0781
Q35.1094 36.1875 36.2031 36.8438
Q37.3125 37.5 38.4844 37.5
Q37.5938 39.6562 35.1719 40.625
Q32.7656 41.6094 29.9844 41.6094
Q27.4375 41.6094 24.8906 40.5781
Q22.3594 39.5469 20.8125 37.5625
Q19.2812 35.5938 19.2812 32.9062
Q19.2812 31.1094 20.5469 29.7344
Q21.8281 28.375 23.6875 27.7812
L29.5 26.6094
Q32.2812 26.0312 34.5938 24.5312
Q36.9219 23.0469 38.25 20.7656
Q39.5938 18.5 39.5938 15.5781
Q39.5938 11.8594 37.5156 8.25
Q35.4531 4.64062 32.4219 2.48438
Q27.0938 -1.125 19.3906 -1.125
Q14.0625 -1.125 9.60938 1.3125
Q5.17188 3.76562 5.17188 8.59375
Q5.17188 11.3281 6.75 13.3438
Q8.34375 15.375 11.0781 15.375
Q12.7031 15.375 13.7969 14.3906
Q14.8906 13.4219 14.8906 11.8125
Q14.8906 9.51562 13.1719 7.8125
Q11.4688 6.10938 9.1875 6.10938
z
" id="Cmmi10-73"/>
      <path d="
M7.71875 1.70312
Q7.71875 2.29688 7.8125 2.59375
L15.2812 32.4219
Q16.0156 35.2031 16.0156 37.3125
Q16.0156 41.6094 13.0938 41.6094
Q9.96875 41.6094 8.45312 37.8594
Q6.9375 34.125 5.51562 28.4219
Q5.51562 28.125 5.21875 27.9531
Q4.9375 27.7812 4.6875 27.7812
L3.51562 27.7812
Q3.17188 27.7812 2.92188 28.1406
Q2.6875 28.5156 2.6875 28.8125
Q3.76562 33.1562 4.76562 36.1719
Q5.76562 39.2031 7.89062 41.6875
Q10.0156 44.1875 13.1875 44.1875
Q16.9375 44.1875 19.8125 41.8125
Q22.7031 39.4531 22.7031 35.7969
Q25.6875 39.7031 29.6875 41.9375
Q33.6875 44.1875 38.1875 44.1875
Q41.75 44.1875 44.3281 42.9688
Q46.9219 41.75 48.3594 39.2812
Q49.8125 36.8125 49.8125 33.4062
Q49.8125 29.2969 47.9688 23.4844
Q46.1406 17.6719 43.4062 10.5
Q42 7.23438 42 4.5
Q42 1.51562 44.2812 1.51562
Q48.1875 1.51562 50.7969 5.70312
Q53.4219 9.90625 54.5 14.7031
Q54.6875 15.2812 55.3281 15.2812
L56.5 15.2812
Q56.8906 15.2812 57.1562 15.0312
Q57.4219 14.7969 57.4219 14.4062
Q57.4219 14.3125 57.3281 14.1094
Q55.9531 8.45312 52.5625 3.65625
Q49.1719 -1.125 44.0938 -1.125
Q40.5781 -1.125 38.0781 1.29688
Q35.5938 3.71875 35.5938 7.17188
Q35.5938 9.03125 36.375 11.0781
Q37.6406 14.3594 39.2812 18.8906
Q40.9219 23.4375 41.9688 27.5781
Q43.0156 31.7344 43.0156 34.9062
Q43.0156 37.7031 41.8594 39.6562
Q40.7188 41.6094 37.9844 41.6094
Q34.3281 41.6094 31.25 39.9844
Q28.1719 38.375 25.875 35.7188
Q23.5781 33.0625 21.6875 29.3906
L14.8906 2.20312
Q14.5469 0.828125 13.3438 -0.140625
Q12.1562 -1.125 10.6875 -1.125
Q9.46875 -1.125 8.59375 -0.34375
Q7.71875 0.4375 7.71875 1.70312" id="Cmmi10-6e"/>
     </defs>
     <g transform="translate(14.795398125 64.9114963636)rotate(-90.0)scale(0.09996 -0.09996)">
      <use transform="translate(0.0 0.8125)" xlink:href="#Cmmi10-73"/>
      <use transform="translate(46.77734375 0.8125)" xlink:href="#Cmmi10-6e"/>
     </g>
    </g>
   </g>
  </g>
  <g id="axes_2">
   <g id="patch_7">
    <path d="
M409.664 111.927
L714.028 111.927
L714.028 7.2
L409.664 7.2
z
" style="fill:#ffffff;"/>
   </g>
   <g id="line2d_25">
    <path clip-path="url(#p1751304774)" d="
M409.664 100.918
L411.194 102.104
L412.723 102.864
L414.253 103.188
L415.782 103.072
L417.311 102.518
L418.841 101.533
L420.37 100.131
L421.9 98.3298
L423.429 96.1543
L424.959 93.6312
L426.488 90.791
L429.547 84.2905
L432.606 76.9266
L437.195 64.8717
L444.842 44.3646
L447.901 36.8084
L450.96 30.0371
L452.489 27.0328
L454.019 24.3275
L455.548 21.9531
L457.078 19.9385
L458.607 18.3096
L460.136 17.0879
L461.666 16.2901
L463.195 15.9273
L464.725 16.0044
L466.254 16.5206
L467.784 17.4684
L469.313 18.8349
L470.843 20.6016
L472.372 22.7454
L473.902 25.2392
L475.431 28.0529
L476.961 31.1542
L480.02 38.0832
L483.078 45.7481
L487.667 58.0184
L493.785 74.3954
L496.844 81.9796
L499.903 88.7911
L501.432 91.8201
L502.962 94.5528
L504.491 96.9575
L506.02 99.0046
L507.55 100.668
L509.079 101.926
L510.609 102.762
L512.138 103.163
L513.668 103.124
L515.197 102.647
L516.727 101.736
L518.256 100.406
L519.786 98.6731
L521.315 96.5613
L522.845 94.097
L524.374 91.31
L525.904 88.2325
L528.962 81.3422
L532.021 73.7036
L536.61 61.4503
L542.728 45.0545
L545.787 37.4429
L548.845 30.5917
L550.375 27.5384
L551.904 24.7784
L553.434 22.3438
L554.963 20.2642
L556.493 18.5661
L558.022 17.2717
L559.552 16.3987
L561.081 15.9591
L562.611 15.9591
L564.14 16.3987
L565.67 17.2717
L567.199 18.5661
L568.729 20.2642
L570.258 22.3438
L571.787 24.7784
L573.317 27.5384
L574.846 30.5917
L577.905 37.4429
L580.964 45.0545
L585.553 57.2901
L591.671 73.7036
L594.729 81.3422
L597.788 88.2325
L599.318 91.31
L600.847 94.097
L602.377 96.5613
L603.906 98.6731
L605.436 100.406
L606.965 101.736
L608.495 102.647
L610.024 103.124
L611.554 103.163
L613.083 102.762
L614.613 101.926
L616.142 100.668
L617.671 99.0046
L619.201 96.9575
L620.73 94.5528
L622.26 91.8201
L623.789 88.7911
L626.848 81.9796
L629.907 74.3954
L634.496 62.1784
L640.613 45.7481
L643.672 38.0832
L646.731 31.1542
L648.261 28.0529
L649.79 25.2392
L651.32 22.7454
L652.849 20.6016
L654.379 18.8349
L655.908 17.4684
L657.438 16.5206
L658.967 16.0044
L660.496 15.9273
L662.026 16.2901
L663.555 17.0879
L665.085 18.3096
L666.614 19.9385
L668.144 21.9531
L669.673 24.3275
L671.203 27.0328
L672.732 30.0371
L675.791 36.8084
L678.85 44.3646
L683.438 56.5623
L689.556 73.0083
L692.615 80.699
L695.674 87.6661
L697.204 90.791
L698.733 93.6312
L700.263 96.1543
L701.792 98.3298
L703.322 100.131
L704.851 101.533
L706.38 102.518
L707.91 103.072
L709.439 103.188
L710.969 102.864
L712.498 102.104
L714.028 100.918
L714.028 100.918" style="fill:none;stroke:#348abd;stroke-linecap:square;stroke-width:2.0;"/>
   </g>
   <g id="line2d_26">
    <path clip-path="url(#p1751304774)" d="
M409.664 97.3894
L411.194 95.155
L412.723 92.6493
L415.782 86.9864
L418.841 80.7016
L423.429 70.6166
L437.195 39.6105
L440.253 33.2393
L443.312 27.4405
L444.842 24.845
L446.371 22.5056
L447.901 20.4636
L449.43 18.7588
L450.96 17.4272
L452.489 16.4991
L454.019 15.9964
L455.548 15.9314
L457.078 16.3056
L458.607 17.11
L460.136 18.3252
L461.666 19.9234
L463.195 21.8699
L464.725 24.1257
L466.254 26.6499
L469.313 32.3407
L472.372 38.6435
L476.961 48.7419
L490.726 79.7365
L493.785 86.0911
L496.844 91.8635
L498.373 94.4415
L499.903 96.7603
L501.432 98.7788
L502.962 100.457
L504.491 101.76
L506.02 102.657
L507.55 103.128
L509.079 103.16
L510.609 102.754
L512.138 101.919
L513.668 100.674
L515.197 99.0489
L516.727 97.0782
L518.256 94.8011
L519.786 92.2588
L522.845 86.5404
L525.904 80.22
L530.492 70.1084
L544.257 39.126
L547.316 32.7884
L550.375 27.0428
L551.904 24.4825
L553.434 22.1844
L554.963 20.1898
L556.493 18.5379
L558.022 17.2642
L559.552 16.3977
L561.081 15.9591
L562.611 15.9591
L564.14 16.3977
L565.67 17.2642
L567.199 18.5379
L568.729 20.1898
L570.258 22.1844
L571.787 24.4825
L573.317 27.0428
L576.376 32.7884
L579.435 39.126
L584.023 49.2505
L597.788 80.22
L600.847 86.5404
L603.906 92.2588
L605.436 94.8011
L606.965 97.0782
L608.495 99.0489
L610.024 100.674
L611.554 101.919
L613.083 102.754
L614.613 103.16
L616.142 103.128
L617.671 102.657
L619.201 101.76
L620.73 100.457
L622.26 98.7788
L623.789 96.7603
L625.319 94.4415
L626.848 91.8635
L629.907 86.0911
L632.966 79.7365
L637.554 69.5995
L651.32 38.6435
L654.379 32.3407
L657.438 26.6499
L658.967 24.1257
L660.496 21.8699
L662.026 19.9234
L663.555 18.3252
L665.085 17.11
L666.614 16.3056
L668.144 15.9314
L669.673 15.9964
L671.203 16.4991
L672.732 17.4272
L674.262 18.7588
L675.791 20.4636
L677.321 22.5056
L678.85 24.845
L681.909 30.2514
L684.968 36.3693
L689.556 46.3257
L706.38 83.905
L709.439 89.9133
L710.969 92.6493
L712.498 95.155
L714.028 97.3894
L714.028 97.3894" style="fill:none;stroke:#a60628;stroke-linecap:square;stroke-width:2.0;"/>
   </g>
   <g id="line2d_27">
    <path clip-path="url(#p1751304774)" d="
M409.664 61.2297
L418.841 45.1349
L428.018 28.8361
L431.077 23.9783
L432.606 21.8348
L434.136 19.9499
L435.665 18.3751
L437.195 17.1576
L438.724 16.3367
L440.253 15.9402
L441.783 15.9819
L443.312 16.4605
L444.842 17.3593
L446.371 18.6479
L447.901 20.2853
L449.43 22.2233
L450.96 24.4101
L454.019 29.326
L458.607 37.4077
L467.784 53.7526
L481.549 77.9567
L487.667 88.8454
L490.726 93.8619
L492.255 96.1249
L493.785 98.1579
L495.314 99.9087
L496.844 101.327
L498.373 102.369
L499.903 103.001
L501.432 103.2
L502.962 102.959
L504.491 102.288
L506.02 101.208
L507.55 99.756
L509.079 97.9763
L510.609 95.9192
L513.668 91.1803
L516.727 85.9245
L533.551 56.1664
L541.198 42.6539
L548.845 29.0806
L551.904 24.1933
L553.434 22.0279
L554.963 20.1162
L556.493 18.5099
L558.022 17.2567
L559.552 16.3967
L561.081 15.9591
L562.611 15.9591
L564.14 16.3967
L565.67 17.2567
L567.199 18.5099
L568.729 20.1162
L570.258 22.0279
L571.787 24.1933
L574.846 29.0806
L579.435 37.1467
L588.612 53.4989
L602.377 77.6954
L608.495 88.5958
L611.554 93.637
L613.083 95.9192
L614.613 97.9763
L616.142 99.756
L617.671 101.208
L619.201 102.288
L620.73 102.959
L622.26 103.2
L623.789 103.001
L625.319 102.369
L626.848 101.327
L628.378 99.9087
L629.907 98.1579
L631.437 96.1249
L634.496 91.4196
L637.554 86.1808
L655.908 53.7526
L663.555 40.1626
L669.673 29.326
L672.732 24.4101
L674.262 22.2233
L675.791 20.2853
L677.321 18.6479
L678.85 17.3593
L680.38 16.4605
L681.909 15.9819
L683.438 15.9402
L684.968 16.3367
L686.497 17.1576
L688.027 18.3751
L689.556 19.9499
L691.086 21.8348
L692.615 23.9783
L695.674 28.8361
L700.263 36.8858
L709.439 53.2451
L714.028 61.2297
L714.028 61.2297" style="fill:none;stroke:#7a68a6;stroke-linecap:square;stroke-width:2.0;"/>
   </g>
   <g id="line2d_28">
    <path clip-path="url(#p1751304774)" d="
M409.664 17.9567
L411.194 19.3962
L412.723 21.1287
L415.782 25.2236
L426.488 40.8461
L429.547 44.7492
L432.606 48.3014
L435.665 51.5464
L440.253 55.9925
L452.489 67.4215
L455.548 70.6544
L458.607 74.192
L461.666 78.0793
L464.725 82.3167
L469.313 89.1396
L472.372 93.6875
L475.431 97.8116
L476.961 99.5669
L478.49 101.034
L480.02 102.157
L481.549 102.887
L483.078 103.192
L484.608 103.058
L486.137 102.492
L487.667 101.518
L489.196 100.18
L490.726 98.5299
L492.255 96.6301
L495.314 92.3297
L502.962 80.994
L506.02 76.8593
L509.079 73.0809
L512.138 69.6422
L515.197 66.4888
L519.786 62.1276
L528.962 53.6595
L532.021 50.5885
L535.08 47.2566
L538.139 43.6007
L541.198 39.5885
L544.257 35.2418
L551.904 23.9108
L553.434 21.8742
L554.963 20.0437
L556.493 18.4822
L558.022 17.2492
L559.552 16.3957
L561.081 15.9591
L562.611 15.9591
L564.14 16.3957
L565.67 17.2492
L567.199 18.4822
L568.729 20.0437
L570.258 21.8742
L573.317 26.0919
L582.494 39.5885
L585.553 43.6007
L588.612 47.2566
L591.671 50.5885
L596.259 55.1214
L610.024 68.0341
L613.083 71.3218
L616.142 74.9254
L619.201 78.8832
L622.26 83.1834
L631.437 96.6301
L632.966 98.5299
L634.496 100.18
L636.025 101.518
L637.554 102.492
L639.084 103.058
L640.613 103.192
L642.143 102.887
L643.672 102.157
L645.202 101.034
L646.731 99.5669
L648.261 97.8116
L651.32 93.6875
L662.026 78.0793
L665.085 74.192
L668.144 70.6544
L671.203 67.4215
L675.791 62.987
L686.497 53.0746
L689.556 49.9584
L692.615 46.5672
L695.674 42.8427
L698.733 38.7611
L703.322 32.0716
L707.91 25.2236
L710.969 21.1287
L712.498 19.3962
L714.028 17.9567
L714.028 17.9567" style="fill:none;stroke:#467821;stroke-linecap:square;stroke-width:2.0;"/>
   </g>
   <g id="patch_8">
    <path d="
M409.664 7.2
L714.028 7.2" style="fill:none;stroke:#000000;stroke-linecap:square;stroke-linejoin:miter;"/>
   </g>
   <g id="patch_9">
    <path d="
M714.028 111.927
L714.028 7.2" style="fill:none;stroke:#000000;stroke-linecap:square;stroke-linejoin:miter;"/>
   </g>
   <g id="patch_10">
    <path d="
M409.664 111.927
L714.028 111.927" style="fill:none;stroke:#000000;stroke-linecap:square;stroke-linejoin:miter;"/>
   </g>
   <g id="patch_11">
    <path d="
M409.664 111.927
L409.664 7.2" style="fill:none;stroke:#000000;stroke-linecap:square;stroke-linejoin:miter;"/>
   </g>
   <g id="matplotlib.axis_3">
    <g id="xtick_6">
     <g id="line2d_29">
      <g>
       <use style="stroke:#000000;stroke-width:0.5;" x="409.664130511" xlink:href="#m93b0483c22" y="111.927272727"/>
      </g>
     </g>
     <g id="line2d_30">
      <g>
       <use style="stroke:#000000;stroke-width:0.5;" x="409.664130511" xlink:href="#m741efc42ff" y="7.2"/>
      </g>
     </g>
     <g id="text_12">
      <!-- −10 -->
      <g transform="translate(401.889116761 123.522670852)scale(0.09996 -0.09996)">
       <use xlink:href="#WenQuanYiMicroHei-2212"/>
       <use x="55.078125" xlink:href="#WenQuanYiMicroHei-31"/>
       <use x="110.15625" xlink:href="#WenQuanYiMicroHei-30"/>
      </g>
     </g>
    </g>
    <g id="xtick_7">
     <g id="line2d_31">
      <g>
       <use style="stroke:#000000;stroke-width:0.5;" x="485.755039602" xlink:href="#m93b0483c22" y="111.927272727"/>
      </g>
     </g>
     <g id="line2d_32">
      <g>
       <use style="stroke:#000000;stroke-width:0.5;" x="485.755039602" xlink:href="#m741efc42ff" y="7.2"/>
      </g>
     </g>
     <g id="text_13">
      <!-- −5 -->
      <g transform="translate(480.77656304 123.522670852)scale(0.09996 -0.09996)">
       <use xlink:href="#WenQuanYiMicroHei-2212"/>
       <use x="55.078125" xlink:href="#WenQuanYiMicroHei-35"/>
      </g>
     </g>
    </g>
    <g id="xtick_8">
     <g id="line2d_33">
      <g>
       <use style="stroke:#000000;stroke-width:0.5;" x="561.845948693" xlink:href="#m93b0483c22" y="111.927272727"/>
      </g>
     </g>
     <g id="line2d_34">
      <g>
       <use style="stroke:#000000;stroke-width:0.5;" x="561.845948693" xlink:href="#m741efc42ff" y="7.2"/>
      </g>
     </g>
     <g id="text_14">
      <!-- 0 -->
      <g transform="translate(559.566392131 123.522670852)scale(0.09996 -0.09996)">
       <use xlink:href="#WenQuanYiMicroHei-30"/>
      </g>
     </g>
    </g>
    <g id="xtick_9">
     <g id="line2d_35">
      <g>
       <use style="stroke:#000000;stroke-width:0.5;" x="637.936857784" xlink:href="#m93b0483c22" y="111.927272727"/>
      </g>
     </g>
     <g id="line2d_36">
      <g>
       <use style="stroke:#000000;stroke-width:0.5;" x="637.936857784" xlink:href="#m741efc42ff" y="7.2"/>
      </g>
     </g>
     <g id="text_15">
      <!-- 5 -->
      <g transform="translate(635.781470284 123.522670852)scale(0.09996 -0.09996)">
       <use xlink:href="#WenQuanYiMicroHei-35"/>
      </g>
     </g>
    </g>
    <g id="xtick_10">
     <g id="line2d_37">
      <g>
       <use style="stroke:#000000;stroke-width:0.5;" x="714.027766875" xlink:href="#m93b0483c22" y="111.927272727"/>
      </g>
     </g>
     <g id="line2d_38">
      <g>
       <use style="stroke:#000000;stroke-width:0.5;" x="714.027766875" xlink:href="#m741efc42ff" y="7.2"/>
      </g>
     </g>
     <g id="text_16">
      <!-- 10 -->
      <g transform="translate(709.19064 123.522670852)scale(0.09996 -0.09996)">
       <use xlink:href="#WenQuanYiMicroHei-31"/>
       <use x="55.078125" xlink:href="#WenQuanYiMicroHei-30"/>
      </g>
     </g>
    </g>
   </g>
   <g id="matplotlib.axis_4">
    <g id="ytick_6">
     <g id="line2d_39">
      <g>
       <use style="stroke:#000000;stroke-width:0.5;" x="409.664130511" xlink:href="#m728421d6d4" y="103.200496332"/>
      </g>
     </g>
     <g id="line2d_40">
      <g>
       <use style="stroke:#000000;stroke-width:0.5;" x="714.027766875" xlink:href="#mcb0005524f" y="103.200496332"/>
      </g>
     </g>
     <g id="text_17">
      <!-- −1.0 -->
      <g transform="translate(387.433925511 105.79711352)scale(0.09996 -0.09996)">
       <use xlink:href="#WenQuanYiMicroHei-2212"/>
       <use x="55.078125" xlink:href="#WenQuanYiMicroHei-31"/>
       <use x="110.15625" xlink:href="#WenQuanYiMicroHei-2e"/>
       <use x="136.962890625" xlink:href="#WenQuanYiMicroHei-30"/>
      </g>
     </g>
    </g>
    <g id="ytick_7">
     <g id="line2d_41">
      <g>
       <use style="stroke:#000000;stroke-width:0.5;" x="409.664130511" xlink:href="#m728421d6d4" y="81.3763760912"/>
      </g>
     </g>
     <g id="line2d_42">
      <g>
       <use style="stroke:#000000;stroke-width:0.5;" x="714.027766875" xlink:href="#mcb0005524f" y="81.3763760912"/>
      </g>
     </g>
     <g id="text_18">
      <!-- −0.5 -->
      <g transform="translate(387.521390511 83.9729932787)scale(0.09996 -0.09996)">
       <use xlink:href="#WenQuanYiMicroHei-2212"/>
       <use x="55.078125" xlink:href="#WenQuanYiMicroHei-30"/>
       <use x="110.15625" xlink:href="#WenQuanYiMicroHei-2e"/>
       <use x="136.962890625" xlink:href="#WenQuanYiMicroHei-35"/>
      </g>
     </g>
    </g>
    <g id="ytick_8">
     <g id="line2d_43">
      <g>
       <use style="stroke:#000000;stroke-width:0.5;" x="409.664130511" xlink:href="#m728421d6d4" y="59.5522558501"/>
      </g>
     </g>
     <g id="line2d_44">
      <g>
       <use style="stroke:#000000;stroke-width:0.5;" x="714.027766875" xlink:href="#mcb0005524f" y="59.5522558501"/>
      </g>
     </g>
     <g id="text_19">
      <!-- 0.0 -->
      <g transform="translate(392.919230511 62.1488730376)scale(0.09996 -0.09996)">
       <use xlink:href="#WenQuanYiMicroHei-30"/>
       <use x="55.078125" xlink:href="#WenQuanYiMicroHei-2e"/>
       <use x="81.884765625" xlink:href="#WenQuanYiMicroHei-30"/>
      </g>
     </g>
    </g>
    <g id="ytick_9">
     <g id="line2d_45">
      <g>
       <use style="stroke:#000000;stroke-width:0.5;" x="409.664130511" xlink:href="#m728421d6d4" y="37.728135609"/>
      </g>
     </g>
     <g id="line2d_46">
      <g>
       <use style="stroke:#000000;stroke-width:0.5;" x="714.027766875" xlink:href="#mcb0005524f" y="37.728135609"/>
      </g>
     </g>
     <g id="text_20">
      <!-- 0.5 -->
      <g transform="translate(393.006695511 40.3247527965)scale(0.09996 -0.09996)">
       <use xlink:href="#WenQuanYiMicroHei-30"/>
       <use x="55.078125" xlink:href="#WenQuanYiMicroHei-2e"/>
       <use x="81.884765625" xlink:href="#WenQuanYiMicroHei-35"/>
      </g>
     </g>
    </g>
    <g id="ytick_10">
     <g id="line2d_47">
      <g>
       <use style="stroke:#000000;stroke-width:0.5;" x="409.664130511" xlink:href="#m728421d6d4" y="15.9040153678"/>
      </g>
     </g>
     <g id="line2d_48">
      <g>
       <use style="stroke:#000000;stroke-width:0.5;" x="714.027766875" xlink:href="#mcb0005524f" y="15.9040153678"/>
      </g>
     </g>
     <g id="text_21">
      <!-- 1.0 -->
      <g transform="translate(393.309699261 18.5006325553)scale(0.09996 -0.09996)">
       <use xlink:href="#WenQuanYiMicroHei-31"/>
       <use x="55.078125" xlink:href="#WenQuanYiMicroHei-2e"/>
       <use x="81.884765625" xlink:href="#WenQuanYiMicroHei-30"/>
      </g>
     </g>
    </g>
    <g id="text_22">
     <!-- $cn$ -->
     <defs>
      <path d="
M11.7188 11.9219
Q11.7188 7.5625 13.9375 4.53125
Q16.1562 1.51562 20.3125 1.51562
Q26.2656 1.51562 31.75 4.25
Q37.25 6.98438 40.7188 11.8125
Q41.0156 12.1094 41.5 12.1094
Q42 12.1094 42.5 11.5469
Q43.0156 10.9844 43.0156 10.5
Q43.0156 10.1094 42.8281 9.90625
Q39.1562 4.78125 32.9531 1.82812
Q26.7656 -1.125 20.125 -1.125
Q15.3281 -1.125 11.6719 1.14062
Q8.01562 3.42188 6 7.21875
Q4 11.0312 4 15.8281
Q4 22.5625 7.76562 29.2031
Q11.5312 35.8438 17.7812 40.0156
Q24.0312 44.1875 30.9062 44.1875
Q35.4062 44.1875 38.9844 42.0156
Q42.5781 39.8438 42.5781 35.5938
Q42.5781 32.8594 40.9844 30.9219
Q39.4062 29 36.7188 29
Q35.1094 29 34 30
Q32.9062 31 32.9062 32.625
Q32.9062 34.9688 34.6094 36.625
Q36.3281 38.2812 38.625 38.2812
L38.8125 38.2812
Q37.6406 39.9844 35.4219 40.7969
Q33.2031 41.6094 30.8125 41.6094
Q24.9531 41.6094 20.5469 36.5938
Q16.1562 31.5938 13.9375 24.625
Q11.7188 17.6719 11.7188 11.9219" id="Cmmi10-63"/>
     </defs>
     <g transform="translate(380.031761761 64.7615563636)rotate(-90.0)scale(0.09996 -0.09996)">
      <use transform="translate(0.0 0.8125)" xlink:href="#Cmmi10-63"/>
      <use transform="translate(43.212890625 0.8125)" xlink:href="#Cmmi10-6e"/>
     </g>
    </g>
   </g>
  </g>
  <g id="axes_3">
   <g id="patch_12">
    <path d="
M44.4278 237.6
L348.791 237.6
L348.791 132.873
L44.4278 132.873
z
" style="fill:#ffffff;"/>
   </g>
   <g id="line2d_49">
    <path clip-path="url(#pc031e58f88)" d="
M44.4278 142.251
L45.9572 141.916
L47.4867 141.697
L49.0162 141.603
L50.5456 141.637
L52.0751 141.797
L55.134 142.468
L58.193 143.508
L67.3697 147.088
L70.4287 147.836
L71.9581 148.049
L73.4876 148.144
L75.0171 148.118
L76.5465 147.97
L79.6055 147.337
L82.6644 146.336
L93.3707 142.285
L94.9001 141.941
L96.4296 141.712
L97.9591 141.606
L99.4885 141.628
L101.018 141.778
L104.077 142.43
L107.136 143.456
L116.313 147.047
L119.372 147.812
L120.901 148.035
L122.431 148.141
L123.96 148.125
L125.489 147.988
L128.548 147.374
L131.607 146.386
L136.196 144.527
L139.255 143.306
L142.314 142.32
L145.372 141.727
L146.902 141.61
L148.431 141.621
L149.961 141.76
L153.02 142.393
L156.079 143.406
L165.256 147.005
L168.314 147.787
L169.844 148.02
L171.373 148.137
L172.903 148.131
L174.432 148.005
L177.491 147.409
L180.55 146.435
L185.139 144.583
L188.198 143.355
L191.256 142.356
L194.315 141.743
L195.845 141.615
L197.374 141.615
L198.904 141.743
L201.963 142.356
L205.022 143.355
L214.198 146.962
L217.257 147.761
L218.787 148.005
L220.316 148.131
L221.846 148.137
L223.375 148.02
L226.434 147.444
L229.493 146.484
L234.081 144.639
L238.67 142.861
L241.729 142.021
L243.258 141.76
L244.788 141.621
L246.317 141.61
L247.847 141.727
L249.376 141.967
L252.435 142.773
L255.494 143.898
L261.612 146.386
L264.671 147.374
L267.73 147.988
L269.259 148.125
L270.789 148.141
L272.318 148.035
L275.377 147.478
L278.436 146.532
L283.024 144.695
L287.613 142.906
L290.672 142.049
L292.201 141.778
L293.731 141.628
L295.26 141.606
L296.79 141.712
L298.319 141.941
L301.378 142.729
L304.437 143.844
L312.084 146.875
L315.143 147.707
L316.673 147.97
L318.202 148.118
L319.732 148.144
L321.261 148.049
L324.32 147.512
L327.379 146.58
L331.967 144.751
L336.556 142.951
L339.615 142.078
L341.144 141.797
L342.674 141.637
L344.203 141.603
L345.732 141.697
L347.262 141.916
L348.791 142.251
L348.791 142.251" style="fill:none;stroke:#348abd;stroke-linecap:square;stroke-width:2.0;"/>
   </g>
   <g id="line2d_50">
    <path clip-path="url(#pc031e58f88)" d="
M44.4278 147.554
L47.4867 151.966
L52.0751 158.886
L53.6046 160.977
L55.134 162.856
L56.6635 164.473
L58.193 165.788
L59.7224 166.771
L61.2519 167.397
L62.7814 167.654
L64.3108 167.536
L65.8403 167.044
L67.3697 166.191
L68.8992 164.996
L70.4287 163.485
L71.9581 161.698
L75.0171 157.484
L81.1349 148.319
L82.6644 146.32
L84.1939 144.595
L85.7233 143.214
L87.2528 142.234
L88.7823 141.698
L90.3117 141.628
L91.8412 142.028
L93.3707 142.881
L94.9001 144.149
L96.4296 145.779
L97.9591 147.705
L101.018 152.138
L105.606 159.047
L107.136 161.124
L108.665 162.985
L110.195 164.581
L111.724 165.873
L113.254 166.829
L114.783 167.429
L116.313 167.658
L117.842 167.512
L119.372 166.994
L120.901 166.114
L122.431 164.894
L123.96 163.362
L125.489 161.556
L128.548 157.317
L134.666 148.164
L136.196 146.182
L137.725 144.481
L139.255 143.127
L140.784 142.179
L142.314 141.677
L143.843 141.642
L145.372 142.076
L146.902 142.961
L148.431 144.257
L149.961 145.912
L151.49 147.857
L154.549 152.31
L159.138 159.206
L160.667 161.269
L162.197 163.112
L163.726 164.687
L165.256 165.955
L166.785 166.886
L168.314 167.459
L169.844 167.66
L171.373 167.486
L172.903 166.941
L174.432 166.036
L175.962 164.792
L177.491 163.238
L179.021 161.413
L182.08 157.149
L188.198 148.01
L189.727 146.046
L191.256 144.368
L192.786 143.043
L194.315 142.127
L195.845 141.658
L197.374 141.658
L198.904 142.127
L200.433 143.043
L201.963 144.368
L203.492 146.046
L205.022 148.01
L208.081 152.483
L212.669 159.365
L214.198 161.413
L215.728 163.238
L217.257 164.792
L218.787 166.036
L220.316 166.941
L221.846 167.486
L223.375 167.66
L224.905 167.459
L226.434 166.886
L227.964 165.955
L229.493 164.687
L231.023 163.112
L232.552 161.269
L235.611 156.98
L241.729 147.857
L243.258 145.912
L244.788 144.257
L246.317 142.961
L247.847 142.076
L249.376 141.642
L250.906 141.677
L252.435 142.179
L253.965 143.127
L255.494 144.481
L257.023 146.182
L258.553 148.164
L261.612 152.655
L266.2 159.522
L267.73 161.556
L269.259 163.362
L270.789 164.894
L272.318 166.114
L273.848 166.994
L275.377 167.512
L276.907 167.658
L278.436 167.429
L279.965 166.829
L281.495 165.873
L283.024 164.581
L284.554 162.985
L286.083 161.124
L289.142 156.811
L295.26 147.705
L296.79 145.779
L298.319 144.149
L299.849 142.881
L301.378 142.028
L302.907 141.628
L304.437 141.698
L305.966 142.234
L307.496 143.214
L309.025 144.595
L310.555 146.32
L312.084 148.319
L315.143 152.828
L319.732 159.679
L321.261 161.698
L322.79 163.485
L324.32 164.996
L325.849 166.191
L327.379 167.044
L328.908 167.536
L330.438 167.654
L331.967 167.397
L333.497 166.771
L335.026 165.788
L336.556 164.473
L338.085 162.856
L339.615 160.977
L342.674 156.642
L347.262 149.687
L348.791 147.554
L348.791 147.554" style="fill:none;stroke:#a60628;stroke-linecap:square;stroke-width:2.0;"/>
   </g>
   <g id="line2d_51">
    <path clip-path="url(#pc031e58f88)" d="
M44.4278 191.851
L45.9572 191.916
L47.4867 191.487
L49.0162 190.568
L50.5456 189.168
L52.0751 187.299
L53.6046 184.981
L55.134 182.243
L56.6635 179.122
L59.7224 171.933
L67.3697 152.284
L68.8992 148.957
L70.4287 146.126
L71.9581 143.908
L73.4876 142.399
L75.0171 141.666
L76.5465 141.743
L78.076 142.627
L79.6055 144.278
L81.1349 146.62
L82.6644 149.554
L84.1939 152.961
L87.2528 160.678
L91.8412 172.659
L94.9001 179.742
L96.4296 182.794
L97.9591 185.454
L99.4885 187.689
L101.018 189.47
L102.547 190.78
L104.077 191.607
L105.606 191.942
L107.136 191.783
L108.665 191.132
L110.195 189.994
L111.724 188.379
L113.254 186.304
L114.783 183.792
L116.313 180.876
L117.842 177.595
L120.901 170.174
L127.019 154.27
L128.548 150.725
L130.078 147.607
L131.607 145.04
L133.137 143.133
L134.666 141.968
L136.196 141.6
L137.725 142.045
L139.255 143.283
L140.784 145.257
L142.314 147.881
L143.843 151.045
L145.372 154.624
L148.431 162.509
L151.49 170.546
L154.549 177.921
L156.079 181.169
L157.608 184.049
L159.138 186.52
L160.667 188.552
L162.197 190.122
L163.726 191.215
L165.256 191.82
L166.785 191.931
L168.314 191.549
L169.844 190.677
L171.373 189.321
L172.903 187.496
L174.432 185.22
L175.962 182.52
L177.491 179.433
L179.021 176.006
L182.08 168.381
L186.668 156.346
L188.198 152.621
L189.727 149.254
L191.256 146.371
L192.786 144.09
L194.315 142.51
L195.845 141.701
L197.374 141.701
L198.904 142.51
L200.433 144.09
L201.963 146.371
L203.492 149.254
L205.022 152.621
L208.081 160.296
L212.669 172.297
L215.728 179.433
L217.257 182.52
L218.787 185.22
L220.316 187.496
L221.846 189.321
L223.375 190.677
L224.905 191.549
L226.434 191.931
L227.964 191.82
L229.493 191.215
L231.023 190.122
L232.552 188.552
L234.081 186.52
L235.611 184.049
L237.14 181.169
L238.67 177.921
L241.729 170.546
L247.847 154.624
L249.376 151.045
L250.906 147.881
L252.435 145.257
L253.965 143.283
L255.494 142.045
L257.023 141.6
L258.553 141.968
L260.082 143.133
L261.612 145.04
L263.141 147.607
L264.671 150.725
L266.2 154.27
L269.259 162.124
L273.848 174.006
L275.377 177.595
L276.907 180.876
L278.436 183.792
L279.965 186.304
L281.495 188.379
L283.024 189.994
L284.554 191.132
L286.083 191.783
L287.613 191.942
L289.142 191.607
L290.672 190.78
L292.201 189.47
L293.731 187.689
L295.26 185.454
L296.79 182.794
L298.319 179.742
L299.849 176.344
L302.907 168.759
L309.025 152.961
L310.555 149.554
L312.084 146.62
L313.614 144.278
L315.143 142.627
L316.673 141.743
L318.202 141.666
L319.732 142.399
L321.261 143.908
L322.79 146.126
L324.32 148.957
L325.849 152.284
L328.908 159.915
L333.497 171.933
L336.556 179.122
L338.085 182.243
L339.615 184.981
L341.144 187.299
L342.674 189.168
L344.203 190.568
L345.732 191.487
L347.262 191.916
L348.791 191.851
L348.791 191.851" style="fill:none;stroke:#7a68a6;stroke-linecap:square;stroke-width:2.0;"/>
   </g>
   <g id="line2d_52">
    <path clip-path="url(#pc031e58f88)" d="
M44.4278 146.988
L45.9572 150.751
L47.4867 155.258
L49.0162 160.334
L52.0751 171.497
L56.6635 188.528
L59.7224 198.84
L61.2519 203.496
L62.7814 207.774
L64.3108 211.658
L65.8403 215.139
L67.3697 218.217
L68.8992 220.892
L70.4287 223.17
L71.9581 225.057
L73.4876 226.561
L75.0171 227.686
L76.5465 228.439
L78.076 228.823
L79.6055 228.839
L81.1349 228.488
L82.6644 227.767
L84.1939 226.675
L85.7233 225.205
L87.2528 223.351
L88.7823 221.108
L90.3117 218.468
L91.8412 215.426
L93.3707 211.98
L94.9001 208.131
L96.4296 203.887
L99.4885 194.289
L102.547 183.472
L108.665 160.802
L110.195 155.684
L111.724 151.119
L113.254 147.285
L114.783 144.342
L116.313 142.424
L117.842 141.621
L119.372 141.973
L120.901 143.462
L122.431 146.017
L123.96 149.52
L125.489 153.819
L127.019 158.741
L130.078 169.752
L134.666 186.863
L137.725 197.354
L139.255 202.119
L140.784 206.514
L142.314 210.519
L143.843 214.124
L145.372 217.324
L146.902 220.121
L148.431 222.519
L149.961 224.524
L151.49 226.144
L153.02 227.384
L154.549 228.25
L156.079 228.745
L157.608 228.873
L159.138 228.633
L160.667 228.026
L162.197 227.047
L163.726 225.692
L165.256 223.956
L166.785 221.832
L168.314 219.313
L169.844 216.394
L171.373 213.071
L172.903 209.344
L174.432 205.219
L175.962 200.708
L179.021 190.641
L182.08 179.516
L186.668 162.441
L188.198 157.189
L189.727 152.438
L191.256 148.363
L192.786 145.134
L194.315 142.892
L195.845 141.744
L197.374 141.744
L198.904 142.892
L200.433 145.134
L201.963 148.363
L203.492 152.438
L205.022 157.189
L208.081 168.017
L214.198 190.641
L217.257 200.708
L218.787 205.219
L220.316 209.344
L221.846 213.071
L223.375 216.394
L224.905 219.313
L226.434 221.832
L227.964 223.956
L229.493 225.692
L231.023 227.047
L232.552 228.026
L234.081 228.633
L235.611 228.873
L237.14 228.745
L238.67 228.25
L240.199 227.384
L241.729 226.144
L243.258 224.524
L244.788 222.519
L246.317 220.121
L247.847 217.324
L249.376 214.124
L250.906 210.519
L252.435 206.514
L253.965 202.119
L257.023 192.252
L260.082 181.252
L264.671 164.11
L266.2 158.741
L267.73 153.819
L269.259 149.52
L270.789 146.017
L272.318 143.462
L273.848 141.973
L275.377 141.621
L276.907 142.424
L278.436 144.342
L279.965 147.285
L281.495 151.119
L283.024 155.684
L286.083 166.297
L292.201 189.005
L295.26 199.264
L296.79 203.887
L298.319 208.131
L299.849 211.98
L301.378 215.426
L302.907 218.468
L304.437 221.108
L305.966 223.351
L307.496 225.205
L309.025 226.675
L310.555 227.767
L312.084 228.488
L313.614 228.839
L315.143 228.823
L316.673 228.439
L318.202 227.686
L319.732 226.561
L321.261 225.057
L322.79 223.17
L324.32 220.892
L325.849 218.217
L327.379 215.139
L328.908 211.658
L330.438 207.774
L331.967 203.496
L335.026 193.837
L338.085 182.977
L344.203 160.334
L345.732 155.258
L347.262 150.751
L348.791 146.988
L348.791 146.988" style="fill:none;stroke:#467821;stroke-linecap:square;stroke-width:2.0;"/>
   </g>
   <g id="patch_13">
    <path d="
M44.4278 132.873
L348.791 132.873" style="fill:none;stroke:#000000;stroke-linecap:square;stroke-linejoin:miter;"/>
   </g>
   <g id="patch_14">
    <path d="
M348.791 237.6
L348.791 132.873" style="fill:none;stroke:#000000;stroke-linecap:square;stroke-linejoin:miter;"/>
   </g>
   <g id="patch_15">
    <path d="
M44.4278 237.6
L348.791 237.6" style="fill:none;stroke:#000000;stroke-linecap:square;stroke-linejoin:miter;"/>
   </g>
   <g id="patch_16">
    <path d="
M44.4278 237.6
L44.4278 132.873" style="fill:none;stroke:#000000;stroke-linecap:square;stroke-linejoin:miter;"/>
   </g>
   <g id="matplotlib.axis_5">
    <g id="xtick_11">
     <g id="line2d_53">
      <g>
       <use style="stroke:#000000;stroke-width:0.5;" x="44.427766875" xlink:href="#m93b0483c22" y="237.6"/>
      </g>
     </g>
     <g id="line2d_54">
      <g>
       <use style="stroke:#000000;stroke-width:0.5;" x="44.427766875" xlink:href="#m741efc42ff" y="132.872727273"/>
      </g>
     </g>
     <g id="text_23">
      <!-- −10 -->
      <g transform="translate(36.652753125 249.195398125)scale(0.09996 -0.09996)">
       <use xlink:href="#WenQuanYiMicroHei-2212"/>
       <use x="55.078125" xlink:href="#WenQuanYiMicroHei-31"/>
       <use x="110.15625" xlink:href="#WenQuanYiMicroHei-30"/>
      </g>
     </g>
    </g>
    <g id="xtick_12">
     <g id="line2d_55">
      <g>
       <use style="stroke:#000000;stroke-width:0.5;" x="120.518675966" xlink:href="#m93b0483c22" y="237.6"/>
      </g>
     </g>
     <g id="line2d_56">
      <g>
       <use style="stroke:#000000;stroke-width:0.5;" x="120.518675966" xlink:href="#m741efc42ff" y="132.872727273"/>
      </g>
     </g>
     <g id="text_24">
      <!-- −5 -->
      <g transform="translate(115.540199403 249.195398125)scale(0.09996 -0.09996)">
       <use xlink:href="#WenQuanYiMicroHei-2212"/>
       <use x="55.078125" xlink:href="#WenQuanYiMicroHei-35"/>
      </g>
     </g>
    </g>
    <g id="xtick_13">
     <g id="line2d_57">
      <g>
       <use style="stroke:#000000;stroke-width:0.5;" x="196.609585057" xlink:href="#m93b0483c22" y="237.6"/>
      </g>
     </g>
     <g id="line2d_58">
      <g>
       <use style="stroke:#000000;stroke-width:0.5;" x="196.609585057" xlink:href="#m741efc42ff" y="132.872727273"/>
      </g>
     </g>
     <g id="text_25">
      <!-- 0 -->
      <g transform="translate(194.330028494 249.195398125)scale(0.09996 -0.09996)">
       <use xlink:href="#WenQuanYiMicroHei-30"/>
      </g>
     </g>
    </g>
    <g id="xtick_14">
     <g id="line2d_59">
      <g>
       <use style="stroke:#000000;stroke-width:0.5;" x="272.700494148" xlink:href="#m93b0483c22" y="237.6"/>
      </g>
     </g>
     <g id="line2d_60">
      <g>
       <use style="stroke:#000000;stroke-width:0.5;" x="272.700494148" xlink:href="#m741efc42ff" y="132.872727273"/>
      </g>
     </g>
     <g id="text_26">
      <!-- 5 -->
      <g transform="translate(270.545106648 249.195398125)scale(0.09996 -0.09996)">
       <use xlink:href="#WenQuanYiMicroHei-35"/>
      </g>
     </g>
    </g>
    <g id="xtick_15">
     <g id="line2d_61">
      <g>
       <use style="stroke:#000000;stroke-width:0.5;" x="348.791403239" xlink:href="#m93b0483c22" y="237.6"/>
      </g>
     </g>
     <g id="line2d_62">
      <g>
       <use style="stroke:#000000;stroke-width:0.5;" x="348.791403239" xlink:href="#m741efc42ff" y="132.872727273"/>
      </g>
     </g>
     <g id="text_27">
      <!-- 10 -->
      <g transform="translate(343.954276364 249.195398125)scale(0.09996 -0.09996)">
       <use xlink:href="#WenQuanYiMicroHei-31"/>
       <use x="55.078125" xlink:href="#WenQuanYiMicroHei-30"/>
      </g>
     </g>
    </g>
   </g>
   <g id="matplotlib.axis_6">
    <g id="ytick_11">
     <g id="line2d_63">
      <g>
       <use style="stroke:#000000;stroke-width:0.5;" x="44.427766875" xlink:href="#m728421d6d4" y="230.948307563"/>
      </g>
     </g>
     <g id="line2d_64">
      <g>
       <use style="stroke:#000000;stroke-width:0.5;" x="348.791403239" xlink:href="#mcb0005524f" y="230.948307563"/>
      </g>
     </g>
     <g id="text_28">
      <!-- 0.3 -->
      <defs>
       <path d="
M46.9219 54.6875
Q46.9219 51.125 45.7969 48.1875
Q44.6719 45.2656 42.6406 43.1094
Q40.625 40.9688 37.7969 39.5781
Q34.9688 38.1875 31.5 37.5938
L31.5 37.3125
Q40.1406 36.2344 44.625 31.8125
Q49.125 27.3906 49.125 20.3125
Q49.125 15.625 47.5312 11.7188
Q45.9531 7.8125 42.7188 4.98438
Q39.5 2.15625 34.5625 0.578125
Q29.6406 -0.984375 22.9062 -0.984375
Q17.5781 -0.984375 12.8594 -0.140625
Q8.15625 0.6875 4 2.875
L4 11.1875
Q8.25 8.9375 13.2031 7.71875
Q18.1719 6.5 22.7031 6.5
Q27.2031 6.5 30.4688 7.46875
Q33.7344 8.45312 35.8594 10.25
Q37.9844 12.0625 38.9844 14.6875
Q39.9844 17.3281 39.9844 20.6094
Q39.9844 23.9219 38.6875 26.2812
Q37.4062 28.6562 35.0156 30.1875
Q32.625 31.7344 29.1719 32.4688
Q25.7344 33.2031 21.3906 33.2031
L14.8906 33.2031
L14.8906 40.5781
L21.3906 40.5781
Q25.3438 40.5781 28.4219 41.5469
Q31.5 42.5312 33.5625 44.3281
Q35.6406 46.1406 36.7188 48.625
Q37.7969 51.125 37.7969 54.1094
Q37.7969 56.6406 36.9062 58.6406
Q36.0312 60.6406 34.4219 62.0312
Q32.8125 63.4219 30.5625 64.1562
Q28.3281 64.8906 25.5938 64.8906
Q20.3594 64.8906 16.375 63.25
Q12.4062 61.625 8.79688 58.9844
L4.29688 65.0938
Q6.15625 66.6094 8.42188 67.9219
Q10.6875 69.2344 13.375 70.2344
Q16.0625 71.2344 19.1094 71.8125
Q22.1719 72.4062 25.5938 72.4062
Q30.8594 72.4062 34.8281 71.0938
Q38.8125 69.7812 41.5 67.4062
Q44.1875 65.0469 45.5469 61.7969
Q46.9219 58.5469 46.9219 54.6875" id="WenQuanYiMicroHei-33"/>
      </defs>
      <g transform="translate(27.80937875 233.544924751)scale(0.09996 -0.09996)">
       <use xlink:href="#WenQuanYiMicroHei-30"/>
       <use x="55.078125" xlink:href="#WenQuanYiMicroHei-2e"/>
       <use x="81.884765625" xlink:href="#WenQuanYiMicroHei-33"/>
      </g>
     </g>
    </g>
    <g id="ytick_12">
     <g id="line2d_65">
      <g>
       <use style="stroke:#000000;stroke-width:0.5;" x="44.427766875" xlink:href="#m728421d6d4" y="218.184132306"/>
      </g>
     </g>
     <g id="line2d_66">
      <g>
       <use style="stroke:#000000;stroke-width:0.5;" x="348.791403239" xlink:href="#mcb0005524f" y="218.184132306"/>
      </g>
     </g>
     <g id="text_29">
      <!-- 0.4 -->
      <defs>
       <path d="
M53.0781 16.0156
L42.6719 16.0156
L42.6719 0
L34.0781 0
L34.0781 16.0156
L1.125 16.0156
L1.125 23.7812
L33.5 71.7812
L42.6719 71.7812
L42.6719 24.125
L53.0781 24.125
z

M34.0781 24.125
L34.0781 41.5
Q34.0781 44.2344 34.1562 47.2344
Q34.2344 50.25 34.3281 53.0938
Q34.4219 55.9531 34.5469 58.4375
Q34.6719 60.9375 34.7188 62.5938
L34.2812 62.5938
Q33.9375 61.625 33.4219 60.4219
Q32.9062 59.2344 32.2969 58.0312
Q31.6875 56.8438 31.0469 55.7188
Q30.4219 54.5938 29.8906 53.8125
L9.8125 24.125
z
" id="WenQuanYiMicroHei-34"/>
      </defs>
      <g transform="translate(27.414224375 220.780749493)scale(0.09996 -0.09996)">
       <use xlink:href="#WenQuanYiMicroHei-30"/>
       <use x="55.078125" xlink:href="#WenQuanYiMicroHei-2e"/>
       <use x="81.884765625" xlink:href="#WenQuanYiMicroHei-34"/>
      </g>
     </g>
    </g>
    <g id="ytick_13">
     <g id="line2d_67">
      <g>
       <use style="stroke:#000000;stroke-width:0.5;" x="44.427766875" xlink:href="#m728421d6d4" y="205.419957048"/>
      </g>
     </g>
     <g id="line2d_68">
      <g>
       <use style="stroke:#000000;stroke-width:0.5;" x="348.791403239" xlink:href="#mcb0005524f" y="205.419957048"/>
      </g>
     </g>
     <g id="text_30">
      <!-- 0.5 -->
      <g transform="translate(27.770331875 208.016574235)scale(0.09996 -0.09996)">
       <use xlink:href="#WenQuanYiMicroHei-30"/>
       <use x="55.078125" xlink:href="#WenQuanYiMicroHei-2e"/>
       <use x="81.884765625" xlink:href="#WenQuanYiMicroHei-35"/>
      </g>
     </g>
    </g>
    <g id="ytick_14">
     <g id="line2d_69">
      <g>
       <use style="stroke:#000000;stroke-width:0.5;" x="44.427766875" xlink:href="#m728421d6d4" y="192.65578179"/>
      </g>
     </g>
     <g id="line2d_70">
      <g>
       <use style="stroke:#000000;stroke-width:0.5;" x="348.791403239" xlink:href="#mcb0005524f" y="192.65578179"/>
      </g>
     </g>
     <g id="text_31">
      <!-- 0.6 -->
      <defs>
       <path d="
M5.51562 30.5156
Q5.51562 35.6406 6.03125 40.7188
Q6.54688 45.7969 7.82812 50.4531
Q9.125 55.125 11.375 59.125
Q13.625 63.1406 17.0938 66.0938
Q20.5625 69.0469 25.3906 70.7188
Q30.2188 72.4062 36.7188 72.4062
Q37.6406 72.4062 38.7656 72.3594
Q39.8906 72.3125 41.0312 72.1875
Q42.1875 72.0781 43.2344 71.9062
Q44.2812 71.7344 45.125 71.4844
L45.125 63.9219
Q43.4062 64.5 41.25 64.7969
Q39.1094 65.0938 37.0156 65.0938
Q32.625 65.0938 29.2656 64.0312
Q25.9219 62.9844 23.4844 61.0781
Q21.0469 59.1875 19.4062 56.5469
Q17.7812 53.9062 16.75 50.7031
Q15.7188 47.5156 15.2344 43.8906
Q14.75 40.2812 14.5938 36.375
L15.1875 36.375
Q16.1562 38.1406 17.5469 39.6719
Q18.9531 41.2188 20.7969 42.3125
Q22.6562 43.4062 24.9688 44.0312
Q27.2969 44.6719 30.1719 44.6719
Q34.8125 44.6719 38.5625 43.2344
Q42.3281 41.7969 44.9688 39.0156
Q47.6094 36.2344 49.0469 32.2031
Q50.4844 28.1719 50.4844 23
Q50.4844 17.4375 48.9688 12.9844
Q47.4688 8.54688 44.625 5.4375
Q41.7969 2.34375 37.7969 0.671875
Q33.7969 -0.984375 28.8125 -0.984375
Q23.9219 -0.984375 19.6406 0.921875
Q15.375 2.82812 12.25 6.73438
Q9.125 10.6406 7.3125 16.5469
Q5.51562 22.4688 5.51562 30.5156
M28.7188 6.5
Q31.6406 6.5 34.0469 7.5
Q36.4688 8.5 38.2188 10.5156
Q39.9844 12.5469 40.9375 15.6406
Q41.8906 18.75 41.8906 23
Q41.8906 26.4219 41.0781 29.125
Q40.2812 31.8438 38.6719 33.7344
Q37.0625 35.6406 34.6406 36.6719
Q32.2344 37.7031 29 37.7031
Q25.7344 37.7031 23.0156 36.5469
Q20.3125 35.4062 18.4062 33.5625
Q16.5 31.7344 15.4531 29.3906
Q14.4062 27.0469 14.4062 24.7031
Q14.4062 21.4375 15.3125 18.1875
Q16.2188 14.9375 18 12.3438
Q19.7812 9.76562 22.4531 8.125
Q25.1406 6.5 28.7188 6.5" id="WenQuanYiMicroHei-36"/>
      </defs>
      <g transform="translate(27.673495625 195.252398977)scale(0.09996 -0.09996)">
       <use xlink:href="#WenQuanYiMicroHei-30"/>
       <use x="55.078125" xlink:href="#WenQuanYiMicroHei-2e"/>
       <use x="81.884765625" xlink:href="#WenQuanYiMicroHei-36"/>
      </g>
     </g>
    </g>
    <g id="ytick_15">
     <g id="line2d_71">
      <g>
       <use style="stroke:#000000;stroke-width:0.5;" x="44.427766875" xlink:href="#m728421d6d4" y="179.891606532"/>
      </g>
     </g>
     <g id="line2d_72">
      <g>
       <use style="stroke:#000000;stroke-width:0.5;" x="348.791403239" xlink:href="#mcb0005524f" y="179.891606532"/>
      </g>
     </g>
     <g id="text_32">
      <!-- 0.7 -->
      <defs>
       <path d="
M13.7188 0
L41.2188 63.2812
L4.39062 63.2812
L4.39062 71.3906
L50.2969 71.3906
L50.2969 64.3125
L23.1875 0
z
" id="WenQuanYiMicroHei-37"/>
      </defs>
      <g transform="translate(27.692238125 182.488223719)scale(0.09996 -0.09996)">
       <use xlink:href="#WenQuanYiMicroHei-30"/>
       <use x="55.078125" xlink:href="#WenQuanYiMicroHei-2e"/>
       <use x="81.884765625" xlink:href="#WenQuanYiMicroHei-37"/>
      </g>
     </g>
    </g>
    <g id="ytick_16">
     <g id="line2d_73">
      <g>
       <use style="stroke:#000000;stroke-width:0.5;" x="44.427766875" xlink:href="#m728421d6d4" y="167.127431274"/>
      </g>
     </g>
     <g id="line2d_74">
      <g>
       <use style="stroke:#000000;stroke-width:0.5;" x="348.791403239" xlink:href="#mcb0005524f" y="167.127431274"/>
      </g>
     </g>
     <g id="text_33">
      <!-- 0.8 -->
      <defs>
       <path d="
M27.5938 72.5156
Q31.6875 72.5156 35.3281 71.4375
Q38.9688 70.3594 41.7188 68.2031
Q44.4844 66.0625 46.0938 62.8438
Q47.7031 59.625 47.7031 55.3281
Q47.7031 52.0469 46.7188 49.4062
Q45.75 46.7812 44.0312 44.6562
Q42.3281 42.5312 39.9844 40.8438
Q37.6406 39.1562 34.9062 37.7969
Q37.75 36.2812 40.4531 34.4219
Q43.1719 32.5625 45.2812 30.25
Q47.4062 27.9375 48.7031 25.0469
Q50 22.1719 50 18.6094
Q50 14.1094 48.3594 10.4688
Q46.7344 6.84375 43.7812 4.29688
Q40.8281 1.76562 36.6875 0.390625
Q32.5625 -0.984375 27.5938 -0.984375
Q22.2188 -0.984375 18.0469 0.328125
Q13.875 1.65625 11.0156 4.125
Q8.15625 6.59375 6.65625 10.1562
Q5.17188 13.7188 5.17188 18.2188
Q5.17188 21.875 6.26562 24.7969
Q7.375 27.7344 9.21875 30.0781
Q11.0781 32.4219 13.6094 34.2188
Q16.1562 36.0312 19 37.4062
Q16.6094 38.9219 14.5 40.7031
Q12.4062 42.4844 10.8594 44.6719
Q9.32812 46.875 8.42188 49.5312
Q7.51562 52.2031 7.51562 55.4219
Q7.51562 59.6719 9.15625 62.8594
Q10.7969 66.0625 13.5781 68.2031
Q16.3594 70.3594 20 71.4375
Q23.6406 72.5156 27.5938 72.5156
M13.9219 18.1094
Q13.9219 15.5312 14.7031 13.3594
Q15.4844 11.1875 17.1406 9.64062
Q18.7969 8.10938 21.3281 7.25
Q23.875 6.39062 27.3906 6.39062
Q30.8125 6.39062 33.4219 7.25
Q36.0312 8.10938 37.7812 9.6875
Q39.5469 11.2812 40.4219 13.5156
Q41.3125 15.7656 41.3125 18.5
Q41.3125 21.0469 40.3594 23.0938
Q39.4062 25.1406 37.625 26.8906
Q35.8438 28.6562 33.3438 30.2188
Q30.8594 31.7812 27.7812 33.2969
L26.3125 33.9844
Q20.1719 31.0625 17.0469 27.2656
Q13.9219 23.4844 13.9219 18.1094
M27.4844 65.0938
Q22.3125 65.0938 19.2656 62.5
Q16.2188 59.9062 16.2188 54.9844
Q16.2188 52.2031 17.0625 50.1875
Q17.9219 48.1875 19.4375 46.625
Q20.9531 45.0625 23.0781 43.8125
Q25.2031 42.5781 27.6875 41.4062
Q30.0312 42.4844 32.1094 43.75
Q34.1875 45.0156 35.7188 46.625
Q37.25 48.25 38.125 50.2969
Q39.0156 52.3438 39.0156 54.9844
Q39.0156 59.9062 35.9375 62.5
Q32.8594 65.0938 27.4844 65.0938" id="WenQuanYiMicroHei-38"/>
      </defs>
      <g transform="translate(27.72191375 169.724048461)scale(0.09996 -0.09996)">
       <use xlink:href="#WenQuanYiMicroHei-30"/>
       <use x="55.078125" xlink:href="#WenQuanYiMicroHei-2e"/>
       <use x="81.884765625" xlink:href="#WenQuanYiMicroHei-38"/>
      </g>
     </g>
    </g>
    <g id="ytick_17">
     <g id="line2d_75">
      <g>
       <use style="stroke:#000000;stroke-width:0.5;" x="44.427766875" xlink:href="#m728421d6d4" y="154.363256016"/>
      </g>
     </g>
     <g id="line2d_76">
      <g>
       <use style="stroke:#000000;stroke-width:0.5;" x="348.791403239" xlink:href="#mcb0005524f" y="154.363256016"/>
      </g>
     </g>
     <g id="text_34">
      <!-- 0.9 -->
      <defs>
       <path d="
M50.2031 40.9219
Q50.2031 35.7969 49.6875 30.6875
Q49.1719 25.5938 47.875 20.9531
Q46.5781 16.3125 44.3281 12.2812
Q42.0938 8.25 38.625 5.3125
Q35.1562 2.39062 30.3125 0.703125
Q25.4844 -0.984375 19 -0.984375
Q18.0625 -0.984375 16.9375 -0.921875
Q15.8281 -0.875 14.7031 -0.75
Q13.5781 -0.640625 12.5 -0.484375
Q11.4219 -0.34375 10.5938 -0.09375
L10.5938 7.51562
Q12.3125 6.89062 14.4531 6.59375
Q16.6094 6.29688 18.7031 6.29688
Q25.2969 6.29688 29.5469 8.59375
Q33.7969 10.8906 36.2812 14.8125
Q38.7656 18.75 39.8125 23.9688
Q40.875 29.2031 41.1094 35.0156
L40.4844 35.0156
Q39.5 33.25 38.125 31.7344
Q36.7656 30.2188 34.9062 29.0938
Q33.0625 27.9844 30.7188 27.3438
Q28.375 26.7031 25.4844 26.7031
Q20.8438 26.7031 17.0781 28.1406
Q13.3281 29.5938 10.6875 32.375
Q8.0625 35.1562 6.60938 39.1875
Q5.17188 43.2188 5.17188 48.3906
Q5.17188 53.9531 6.70312 58.4219
Q8.25 62.8906 11.0625 65.9844
Q13.875 69.0938 17.8906 70.75
Q21.9219 72.4062 26.9062 72.4062
Q31.8438 72.4062 36.0781 70.5
Q40.3281 68.6094 43.4531 64.7031
Q46.5781 60.7969 48.3906 54.8594
Q50.2031 48.9219 50.2031 40.9219
M27 64.8906
Q24.0781 64.8906 21.6562 63.9062
Q19.2344 62.9375 17.4688 60.8906
Q15.7188 58.8438 14.7656 55.7344
Q13.8125 52.6406 13.8125 48.3906
Q13.8125 44.9688 14.625 42.25
Q15.4375 39.5469 17.0469 37.6406
Q18.6562 35.75 21.0625 34.7188
Q23.4844 33.6875 26.7031 33.6875
Q30.0312 33.6875 32.7188 34.8281
Q35.4062 35.9844 37.2969 37.8125
Q39.2031 39.6562 40.25 42
Q41.3125 44.3438 41.3125 46.6875
Q41.3125 49.9531 40.4062 53.2031
Q39.5 56.4531 37.7188 59.0625
Q35.9375 61.6719 33.25 63.2812
Q30.5625 64.8906 27 64.8906" id="WenQuanYiMicroHei-39"/>
      </defs>
      <g transform="translate(27.701609375 156.959873203)scale(0.09996 -0.09996)">
       <use xlink:href="#WenQuanYiMicroHei-30"/>
       <use x="55.078125" xlink:href="#WenQuanYiMicroHei-2e"/>
       <use x="81.884765625" xlink:href="#WenQuanYiMicroHei-39"/>
      </g>
     </g>
    </g>
    <g id="ytick_18">
     <g id="line2d_77">
      <g>
       <use style="stroke:#000000;stroke-width:0.5;" x="44.427766875" xlink:href="#m728421d6d4" y="141.599080758"/>
      </g>
     </g>
     <g id="line2d_78">
      <g>
       <use style="stroke:#000000;stroke-width:0.5;" x="348.791403239" xlink:href="#mcb0005524f" y="141.599080758"/>
      </g>
     </g>
     <g id="text_35">
      <!-- 1.0 -->
      <g transform="translate(28.073335625 144.195697945)scale(0.09996 -0.09996)">
       <use xlink:href="#WenQuanYiMicroHei-31"/>
       <use x="55.078125" xlink:href="#WenQuanYiMicroHei-2e"/>
       <use x="81.884765625" xlink:href="#WenQuanYiMicroHei-30"/>
      </g>
     </g>
    </g>
    <g id="text_36">
     <!-- $dn$ -->
     <defs>
      <path d="
M17.3906 -1.125
Q11.0781 -1.125 7.4375 3.64062
Q3.8125 8.40625 3.8125 14.8906
Q3.8125 21.2969 7.125 28.1719
Q10.4531 35.0625 16.0938 39.625
Q21.7344 44.1875 28.2188 44.1875
Q31.1562 44.1875 33.5156 42.5469
Q35.8906 40.9219 37.2031 38.1875
L42.8281 60.5
Q43.2188 62.2031 43.3125 63.1875
Q43.3125 64.7969 36.8125 64.7969
Q35.7969 64.7969 35.7969 66.1094
Q35.8438 66.3594 36.0156 66.9844
Q36.1875 67.625 36.4531 67.9688
Q36.7188 68.3125 37.2031 68.3125
L50.6875 69.3906
Q51.9062 69.3906 51.9062 68.1094
L37.5 10.5938
Q36.8125 8.9375 36.8125 5.8125
Q36.8125 1.51562 39.7031 1.51562
Q42.8281 1.51562 44.4531 5.48438
Q46.0938 9.46875 47.2188 14.7031
Q47.4062 15.2812 48 15.2812
L49.2188 15.2812
Q49.6094 15.2812 49.8438 14.9375
Q50.0938 14.5938 50.0938 14.3125
Q48.3438 7.32812 46.2656 3.09375
Q44.1875 -1.125 39.5 -1.125
Q36.1406 -1.125 33.5469 0.84375
Q30.9531 2.82812 30.3281 6.10938
Q23.875 -1.125 17.3906 -1.125
M17.4844 1.51562
Q21.0938 1.51562 24.4844 4.21875
Q27.875 6.9375 30.3281 10.5938
Q30.4219 10.6875 30.4219 10.9844
L35.8906 33.0156
Q35.2969 36.5312 33.2969 39.0625
Q31.2969 41.6094 27.9844 41.6094
Q24.6094 41.6094 21.7031 38.8438
Q18.7969 36.0781 16.7969 32.3281
Q14.8438 28.3281 13.0625 21.3438
Q11.2812 14.3594 11.2812 10.5
Q11.2812 7.03125 12.7656 4.26562
Q14.2656 1.51562 17.4844 1.51562" id="Cmmi10-64"/>
     </defs>
     <g transform="translate(20.012060625 190.884103636)rotate(-90.0)scale(0.09996 -0.09996)">
      <use transform="translate(0.0 0.609375)" xlink:href="#Cmmi10-64"/>
      <use transform="translate(52.001953125 0.609375)" xlink:href="#Cmmi10-6e"/>
     </g>
    </g>
   </g>
  </g>
  <g id="axes_4">
   <g id="patch_17">
    <path d="
M409.664 237.6
L714.028 237.6
L714.028 132.873
L409.664 132.873
z
" style="fill:#ffffff;"/>
   </g>
   <g id="line2d_79">
    <path clip-path="url(#p565a3b42e0)" d="
M409.664 228.873
L435.665 221.363
L458.607 214.851
L484.608 207.339
L507.55 200.829
L533.551 193.316
L558.022 186.36
L582.494 179.293
L606.965 172.338
L631.437 165.269
L655.908 158.316
L680.38 151.246
L704.851 144.295
L714.028 141.6
L714.028 141.6" style="fill:none;stroke:#348abd;stroke-linecap:square;stroke-width:2.0;"/>
   </g>
   <g id="line2d_80">
    <path clip-path="url(#p565a3b42e0)" d="
M409.664 225.083
L417.311 223.038
L428.018 220.455
L440.253 217.493
L447.901 215.422
L470.843 208.948
L481.549 206.367
L493.785 203.403
L501.432 201.329
L524.374 194.859
L535.08 192.28
L547.316 189.313
L554.963 187.236
L577.905 180.769
L588.612 178.193
L600.847 175.222
L608.495 173.143
L631.437 166.68
L642.143 164.105
L654.379 161.132
L662.026 159.05
L684.968 152.59
L695.674 150.018
L707.91 147.042
L714.028 145.39
L714.028 145.39" style="fill:none;stroke:#a60628;stroke-linecap:square;stroke-width:2.0;"/>
   </g>
   <g id="line2d_81">
    <path clip-path="url(#p565a3b42e0)" d="
M409.664 220.561
L421.9 218.268
L428.018 216.895
L434.136 215.3
L455.548 209.39
L461.666 208.078
L470.843 206.376
L481.549 204.38
L487.667 203.035
L493.785 201.47
L502.962 198.827
L510.609 196.675
L516.727 195.17
L522.845 193.88
L533.551 191.919
L542.728 190.177
L548.845 188.808
L554.963 187.219
L576.376 181.302
L582.494 179.985
L591.671 178.28
L602.377 176.287
L608.495 174.947
L614.613 173.388
L623.789 170.747
L631.437 168.591
L637.554 167.082
L643.672 165.787
L654.379 163.823
L663.555 162.085
L669.673 160.721
L675.791 159.137
L686.497 156.039
L694.145 153.956
L700.263 152.528
L707.91 151.013
L714.028 149.912
L714.028 149.912" style="fill:none;stroke:#7a68a6;stroke-linecap:square;stroke-width:2.0;"/>
   </g>
   <g id="line2d_82">
    <path clip-path="url(#p565a3b42e0)" d="
M409.664 211.98
L415.782 210.379
L420.37 209.376
L426.488 208.31
L432.606 207.495
L441.783 206.548
L455.548 205.177
L461.666 204.366
L467.784 203.306
L472.372 202.309
L478.49 200.713
L493.785 196.43
L498.373 195.408
L504.491 194.32
L510.609 193.489
L519.786 192.531
L535.08 190.989
L541.198 190.141
L547.316 189.03
L551.904 187.991
L558.022 186.35
L571.787 182.482
L576.376 181.443
L580.964 180.582
L587.082 179.676
L594.729 178.812
L616.142 176.595
L622.26 175.645
L626.848 174.744
L631.437 173.663
L637.554 171.983
L648.261 168.928
L652.849 167.811
L657.438 166.874
L663.555 165.884
L669.673 165.122
L680.38 164.068
L691.086 162.978
L697.204 162.163
L703.322 161.097
L707.91 160.094
L714.028 158.493
L714.028 158.493" style="fill:none;stroke:#467821;stroke-linecap:square;stroke-width:2.0;"/>
   </g>
   <g id="patch_18">
    <path d="
M409.664 132.873
L714.028 132.873" style="fill:none;stroke:#000000;stroke-linecap:square;stroke-linejoin:miter;"/>
   </g>
   <g id="patch_19">
    <path d="
M714.028 237.6
L714.028 132.873" style="fill:none;stroke:#000000;stroke-linecap:square;stroke-linejoin:miter;"/>
   </g>
   <g id="patch_20">
    <path d="
M409.664 237.6
L714.028 237.6" style="fill:none;stroke:#000000;stroke-linecap:square;stroke-linejoin:miter;"/>
   </g>
   <g id="patch_21">
    <path d="
M409.664 237.6
L409.664 132.873" style="fill:none;stroke:#000000;stroke-linecap:square;stroke-linejoin:miter;"/>
   </g>
   <g id="matplotlib.axis_7">
    <g id="xtick_16">
     <g id="line2d_83">
      <g>
       <use style="stroke:#000000;stroke-width:0.5;" x="409.664130511" xlink:href="#m93b0483c22" y="237.6"/>
      </g>
     </g>
     <g id="line2d_84">
      <g>
       <use style="stroke:#000000;stroke-width:0.5;" x="409.664130511" xlink:href="#m741efc42ff" y="132.872727273"/>
      </g>
     </g>
     <g id="text_37">
      <!-- −10 -->
      <g transform="translate(401.889116761 249.195398125)scale(0.09996 -0.09996)">
       <use xlink:href="#WenQuanYiMicroHei-2212"/>
       <use x="55.078125" xlink:href="#WenQuanYiMicroHei-31"/>
       <use x="110.15625" xlink:href="#WenQuanYiMicroHei-30"/>
      </g>
     </g>
    </g>
    <g id="xtick_17">
     <g id="line2d_85">
      <g>
       <use style="stroke:#000000;stroke-width:0.5;" x="485.755039602" xlink:href="#m93b0483c22" y="237.6"/>
      </g>
     </g>
     <g id="line2d_86">
      <g>
       <use style="stroke:#000000;stroke-width:0.5;" x="485.755039602" xlink:href="#m741efc42ff" y="132.872727273"/>
      </g>
     </g>
     <g id="text_38">
      <!-- −5 -->
      <g transform="translate(480.77656304 249.195398125)scale(0.09996 -0.09996)">
       <use xlink:href="#WenQuanYiMicroHei-2212"/>
       <use x="55.078125" xlink:href="#WenQuanYiMicroHei-35"/>
      </g>
     </g>
    </g>
    <g id="xtick_18">
     <g id="line2d_87">
      <g>
       <use style="stroke:#000000;stroke-width:0.5;" x="561.845948693" xlink:href="#m93b0483c22" y="237.6"/>
      </g>
     </g>
     <g id="line2d_88">
      <g>
       <use style="stroke:#000000;stroke-width:0.5;" x="561.845948693" xlink:href="#m741efc42ff" y="132.872727273"/>
      </g>
     </g>
     <g id="text_39">
      <!-- 0 -->
      <g transform="translate(559.566392131 249.195398125)scale(0.09996 -0.09996)">
       <use xlink:href="#WenQuanYiMicroHei-30"/>
      </g>
     </g>
    </g>
    <g id="xtick_19">
     <g id="line2d_89">
      <g>
       <use style="stroke:#000000;stroke-width:0.5;" x="637.936857784" xlink:href="#m93b0483c22" y="237.6"/>
      </g>
     </g>
     <g id="line2d_90">
      <g>
       <use style="stroke:#000000;stroke-width:0.5;" x="637.936857784" xlink:href="#m741efc42ff" y="132.872727273"/>
      </g>
     </g>
     <g id="text_40">
      <!-- 5 -->
      <g transform="translate(635.781470284 249.195398125)scale(0.09996 -0.09996)">
       <use xlink:href="#WenQuanYiMicroHei-35"/>
      </g>
     </g>
    </g>
    <g id="xtick_20">
     <g id="line2d_91">
      <g>
       <use style="stroke:#000000;stroke-width:0.5;" x="714.027766875" xlink:href="#m93b0483c22" y="237.6"/>
      </g>
     </g>
     <g id="line2d_92">
      <g>
       <use style="stroke:#000000;stroke-width:0.5;" x="714.027766875" xlink:href="#m741efc42ff" y="132.872727273"/>
      </g>
     </g>
     <g id="text_41">
      <!-- 10 -->
      <g transform="translate(709.19064 249.195398125)scale(0.09996 -0.09996)">
       <use xlink:href="#WenQuanYiMicroHei-31"/>
       <use x="55.078125" xlink:href="#WenQuanYiMicroHei-30"/>
      </g>
     </g>
    </g>
   </g>
   <g id="matplotlib.axis_8">
    <g id="ytick_19">
     <g id="line2d_93">
      <g>
       <use style="stroke:#000000;stroke-width:0.5;" x="409.664130511" xlink:href="#m728421d6d4" y="229.993590684"/>
      </g>
     </g>
     <g id="line2d_94">
      <g>
       <use style="stroke:#000000;stroke-width:0.5;" x="714.027766875" xlink:href="#mcb0005524f" y="229.993590684"/>
      </g>
     </g>
     <g id="text_42">
      <!-- −10 -->
      <g transform="translate(390.114103011 232.590207871)scale(0.09996 -0.09996)">
       <use xlink:href="#WenQuanYiMicroHei-2212"/>
       <use x="55.078125" xlink:href="#WenQuanYiMicroHei-31"/>
       <use x="110.15625" xlink:href="#WenQuanYiMicroHei-30"/>
      </g>
     </g>
    </g>
    <g id="ytick_20">
     <g id="line2d_95">
      <g>
       <use style="stroke:#000000;stroke-width:0.5;" x="409.664130511" xlink:href="#m728421d6d4" y="207.61497716"/>
      </g>
     </g>
     <g id="line2d_96">
      <g>
       <use style="stroke:#000000;stroke-width:0.5;" x="714.027766875" xlink:href="#mcb0005524f" y="207.61497716"/>
      </g>
     </g>
     <g id="text_43">
      <!-- −5 -->
      <g transform="translate(395.707177386 210.211594347)scale(0.09996 -0.09996)">
       <use xlink:href="#WenQuanYiMicroHei-2212"/>
       <use x="55.078125" xlink:href="#WenQuanYiMicroHei-35"/>
      </g>
     </g>
    </g>
    <g id="ytick_21">
     <g id="line2d_97">
      <g>
       <use style="stroke:#000000;stroke-width:0.5;" x="409.664130511" xlink:href="#m728421d6d4" y="185.236363636"/>
      </g>
     </g>
     <g id="line2d_98">
      <g>
       <use style="stroke:#000000;stroke-width:0.5;" x="714.027766875" xlink:href="#mcb0005524f" y="185.236363636"/>
      </g>
     </g>
     <g id="text_44">
      <!-- 0 -->
      <g transform="translate(401.105017386 187.832980824)scale(0.09996 -0.09996)">
       <use xlink:href="#WenQuanYiMicroHei-30"/>
      </g>
     </g>
    </g>
    <g id="ytick_22">
     <g id="line2d_99">
      <g>
       <use style="stroke:#000000;stroke-width:0.5;" x="409.664130511" xlink:href="#m728421d6d4" y="162.857750113"/>
      </g>
     </g>
     <g id="line2d_100">
      <g>
       <use style="stroke:#000000;stroke-width:0.5;" x="714.027766875" xlink:href="#mcb0005524f" y="162.857750113"/>
      </g>
     </g>
     <g id="text_45">
      <!-- 5 -->
      <g transform="translate(401.353355511 165.4543673)scale(0.09996 -0.09996)">
       <use xlink:href="#WenQuanYiMicroHei-35"/>
      </g>
     </g>
    </g>
    <g id="ytick_23">
     <g id="line2d_101">
      <g>
       <use style="stroke:#000000;stroke-width:0.5;" x="409.664130511" xlink:href="#m728421d6d4" y="140.479136589"/>
      </g>
     </g>
     <g id="line2d_102">
      <g>
       <use style="stroke:#000000;stroke-width:0.5;" x="714.027766875" xlink:href="#mcb0005524f" y="140.479136589"/>
      </g>
     </g>
     <g id="text_46">
      <!-- 10 -->
      <g transform="translate(395.989876761 143.075753777)scale(0.09996 -0.09996)">
       <use xlink:href="#WenQuanYiMicroHei-31"/>
       <use x="55.078125" xlink:href="#WenQuanYiMicroHei-30"/>
      </g>
     </g>
    </g>
    <g id="text_47">
     <!-- $\phi$ -->
     <defs>
      <path d="
M19.3906 -19.4844
L23.875 -1.42188
Q18.7969 -1.42188 14.4062 0.953125
Q10.0156 3.32812 7.34375 7.5625
Q4.6875 11.8125 4.6875 16.7969
Q4.6875 22.2188 7.375 27.1406
Q10.0625 32.0781 14.7188 36.1094
Q19.3906 40.1406 24.75 42.3125
Q30.125 44.4844 35.4062 44.4844
L41.4062 68.7969
Q41.6094 69.3906 42.1875 69.3906
L43.4062 69.3906
Q43.7969 69.3906 44.0312 69.0469
Q44.2812 68.7031 44.2812 68.4062
L38.2812 44.4844
Q42.0469 44.4844 45.5625 43.1094
Q49.0781 41.75 51.7812 39.2812
Q54.5 36.8125 56 33.4688
Q57.5156 30.125 57.5156 26.3125
Q57.5156 20.9062 54.8281 15.9688
Q52.1562 11.0312 47.6094 7.07812
Q43.0625 3.125 37.4688 0.84375
Q31.8906 -1.42188 26.8125 -1.42188
L22.2188 -19.9219
Q22.0156 -20.5156 21.3906 -20.5156
L20.2188 -20.5156
Q19.8281 -20.5156 19.6094 -20.1406
Q19.3906 -19.7812 19.3906 -19.4844
M24.5156 1.21875
L34.7188 41.8906
Q32.1719 41.8906 29.3906 40.8594
Q26.6094 39.8438 24.1406 38.2812
Q21.6875 36.7188 19.6719 34.7188
Q17.2344 32.2812 15.375 28.9531
Q13.5312 25.6406 12.5781 21.9531
Q11.625 18.2656 11.625 14.7031
Q11.625 10.9375 13.2344 7.85938
Q14.8438 4.78125 17.7656 3
Q20.7031 1.21875 24.5156 1.21875
M27.4844 1.21875
Q31.25 1.21875 35.5 3.35938
Q39.75 5.51562 42.4844 8.40625
Q46.2344 12.1094 48.4062 17.5
Q50.5938 22.9062 50.5938 28.4219
Q50.5938 32.125 48.9688 35.2188
Q47.3594 38.3281 44.4219 40.1094
Q41.5 41.8906 37.7031 41.8906
z
" id="Cmmi10-c1"/>
     </defs>
     <g transform="translate(382.711939261 188.235163636)rotate(-90.0)scale(0.09996 -0.09996)">
      <use transform="translate(0.0 0.609375)" xlink:href="#Cmmi10-c1"/>
     </g>
    </g>
   </g>
   <g id="legend_1">
    <g id="patch_22">
     <path d="
M414.662 170.861
L612.183 170.861
L612.183 137.871
L414.662 137.871
z
" style="fill:#ffffff;stroke:#000000;stroke-linejoin:miter;"/>
    </g>
    <g id="line2d_103">
     <path d="
M421.659 145.966
L435.654 145.966" style="fill:none;stroke:#348abd;stroke-linecap:square;stroke-width:2.0;"/>
    </g>
    <g id="line2d_104"/>
    <g id="text_48">
     <!-- $m=0.1$ -->
     <defs>
      <path d="
M9.28125 0
L9.28125 3.51562
Q21.7812 3.51562 21.7812 6.6875
L21.7812 59.1875
Q16.6094 56.6875 8.6875 56.6875
L8.6875 60.2031
Q20.9531 60.2031 27.2031 66.6094
L28.6094 66.6094
Q28.9531 66.6094 29.2656 66.3281
Q29.5938 66.0625 29.5938 65.7188
L29.5938 6.6875
Q29.5938 3.51562 42.0938 3.51562
L42.0938 0
z
" id="Cmr10-31"/>
      <path d="
M25 -2.20312
Q12.75 -2.20312 8.32812 7.875
Q3.90625 17.9688 3.90625 31.8906
Q3.90625 40.5781 5.48438 48.2344
Q7.07812 55.9062 11.7812 61.25
Q16.5 66.6094 25 66.6094
Q31.5938 66.6094 35.7812 63.375
Q39.9844 60.1562 42.1875 55.0469
Q44.3906 49.9531 45.1875 44.1094
Q46 38.2812 46 31.8906
Q46 23.2969 44.4062 15.7969
Q42.8281 8.29688 38.1875 3.04688
Q33.5469 -2.20312 25 -2.20312
M25 0.390625
Q30.5625 0.390625 33.2969 6.09375
Q36.0312 11.8125 36.6719 18.75
Q37.3125 25.6875 37.3125 33.5
Q37.3125 41.0156 36.6719 47.3594
Q36.0312 53.7188 33.3125 58.8594
Q30.6094 64.0156 25 64.0156
Q19.3438 64.0156 16.6094 58.8281
Q13.875 53.6562 13.2344 47.3281
Q12.5938 41.0156 12.5938 33.5
Q12.5938 27.9375 12.8594 23
Q13.1406 18.0625 14.3125 12.8125
Q15.4844 7.5625 18.0938 3.96875
Q20.7031 0.390625 25 0.390625" id="Cmr10-30"/>
      <path d="
M7.71875 1.70312
Q7.71875 2.29688 7.8125 2.59375
L15.2812 32.4219
Q16.0156 35.2031 16.0156 37.3125
Q16.0156 41.6094 13.0938 41.6094
Q9.96875 41.6094 8.45312 37.8594
Q6.9375 34.125 5.51562 28.4219
Q5.51562 28.125 5.21875 27.9531
Q4.9375 27.7812 4.6875 27.7812
L3.51562 27.7812
Q3.17188 27.7812 2.92188 28.1406
Q2.6875 28.5156 2.6875 28.8125
Q3.76562 33.1562 4.76562 36.1719
Q5.76562 39.2031 7.89062 41.6875
Q10.0156 44.1875 13.1875 44.1875
Q16.9375 44.1875 19.8125 41.8125
Q22.7031 39.4531 22.7031 35.7969
Q25.6875 39.7031 29.6875 41.9375
Q33.6875 44.1875 38.1875 44.1875
Q42.9219 44.1875 46.3594 41.7656
Q49.8125 39.3594 49.8125 34.9062
Q52.875 39.2656 57 41.7188
Q61.1406 44.1875 66.0156 44.1875
Q71.1875 44.1875 74.3281 41.375
Q77.4844 38.5781 77.4844 33.4062
Q77.4844 29.2969 75.6562 23.4844
Q73.8281 17.6719 71.0938 10.5
Q69.6719 7.03125 69.6719 4.5
Q69.6719 1.51562 72.0156 1.51562
Q75.9219 1.51562 78.5156 5.70312
Q81.1094 9.90625 82.1719 14.7031
Q82.4688 15.2812 83.0156 15.2812
L84.1875 15.2812
Q84.5781 15.2812 84.8438 15.0156
Q85.1094 14.75 85.1094 14.4062
Q85.1094 14.3125 85.0156 14.1094
Q83.6406 8.45312 80.25 3.65625
Q76.8594 -1.125 71.7812 -1.125
Q68.2656 -1.125 65.7656 1.29688
Q63.2812 3.71875 63.2812 7.17188
Q63.2812 8.9375 64.1094 11.0781
Q66.9375 18.6094 68.8125 24.5156
Q70.7031 30.4219 70.7031 34.9062
Q70.7031 37.7031 69.5781 39.6562
Q68.4531 41.6094 65.8281 41.6094
Q60.3594 41.6094 56.3438 38.25
Q52.3438 34.9062 49.4219 29.3906
Q49.2188 28.4219 49.125 27.875
L42.6719 2.20312
Q42.3281 0.828125 41.125 -0.140625
Q39.9375 -1.125 38.4844 -1.125
Q37.3125 -1.125 36.4062 -0.34375
Q35.5 0.4375 35.5 1.70312
Q35.5 2.29688 35.5938 2.59375
L42 28.0781
Q43.0156 32.1719 43.0156 34.9062
Q43.0156 37.7031 41.8594 39.6562
Q40.7188 41.6094 37.9844 41.6094
Q34.3281 41.6094 31.25 39.9844
Q28.1719 38.375 25.875 35.7188
Q23.5781 33.0625 21.6875 29.3906
L14.8906 2.20312
Q14.5469 0.828125 13.3438 -0.140625
Q12.1562 -1.125 10.6875 -1.125
Q9.46875 -1.125 8.59375 -0.34375
Q7.71875 0.4375 7.71875 1.70312" id="Cmmi10-6d"/>
      <path d="
M8.40625 5.51562
Q8.40625 7.76562 10.0625 9.375
Q11.7188 10.9844 13.9219 10.9844
Q15.2812 10.9844 16.5938 10.25
Q17.9219 9.51562 18.6562 8.20312
Q19.3906 6.89062 19.3906 5.51562
Q19.3906 3.32812 17.7656 1.65625
Q16.1562 0 13.9219 0
Q11.7188 0 10.0625 1.65625
Q8.40625 3.32812 8.40625 5.51562" id="Cmmi10-3a"/>
      <path d="
M7.51562 13.2812
Q6.6875 13.2812 6.14062 13.9062
Q5.60938 14.5469 5.60938 15.2812
Q5.60938 16.1094 6.14062 16.6875
Q6.6875 17.2812 7.51562 17.2812
L70.3125 17.2812
Q71.0469 17.2812 71.5781 16.6875
Q72.125 16.1094 72.125 15.2812
Q72.125 14.5469 71.5781 13.9062
Q71.0469 13.2812 70.3125 13.2812
z

M7.51562 32.7188
Q6.6875 32.7188 6.14062 33.2969
Q5.60938 33.8906 5.60938 34.7188
Q5.60938 35.4531 6.14062 36.0781
Q6.6875 36.7188 7.51562 36.7188
L70.3125 36.7188
Q71.0469 36.7188 71.5781 36.0781
Q72.125 35.4531 72.125 34.7188
Q72.125 33.8906 71.5781 33.2969
Q71.0469 32.7188 70.3125 32.7188
z
" id="Cmr10-3d"/>
     </defs>
     <g transform="translate(446.649330511 149.464525398)scale(0.09996 -0.09996)">
      <use transform="translate(0.0 0.390625)" xlink:href="#Cmmi10-6d"/>
      <use transform="translate(105.3515625 0.390625)" xlink:href="#Cmr10-3d"/>
      <use transform="translate(189.41015625 0.390625)" xlink:href="#Cmr10-30"/>
      <use transform="translate(239.41015625 0.390625)" xlink:href="#Cmmi10-3a"/>
      <use transform="translate(267.953125 0.390625)" xlink:href="#Cmr10-31"/>
     </g>
    </g>
    <g id="line2d_105">
     <path d="
M421.659 160.961
L435.654 160.961" style="fill:none;stroke:#a60628;stroke-linecap:square;stroke-width:2.0;"/>
    </g>
    <g id="line2d_106"/>
    <g id="text_49">
     <!-- $m=0.366667$ -->
     <defs>
      <path d="
M9.51562 7.71875
Q11.8594 4.29688 15.8125 2.64062
Q19.7812 0.984375 24.3125 0.984375
Q30.125 0.984375 32.5625 5.9375
Q35.0156 10.8906 35.0156 17.1875
Q35.0156 20.0156 34.5 22.8438
Q33.9844 25.6875 32.7656 28.125
Q31.5469 30.5625 29.4219 32.0312
Q27.2969 33.5 24.2188 33.5
L17.5781 33.5
Q16.7031 33.5 16.7031 34.4219
L16.7031 35.2969
Q16.7031 36.0781 17.5781 36.0781
L23.0938 36.5312
Q26.6094 36.5312 28.9219 39.1562
Q31.25 41.7969 32.3281 45.5781
Q33.4062 49.3594 33.4062 52.7812
Q33.4062 57.5625 31.1562 60.6406
Q28.9062 63.7188 24.3125 63.7188
Q20.5156 63.7188 17.0469 62.2812
Q13.5781 60.8438 11.5312 57.9062
Q11.7188 57.9531 11.8594 57.9844
Q12.0156 58.0156 12.2031 58.0156
Q14.4531 58.0156 15.9688 56.4531
Q17.4844 54.8906 17.4844 52.6875
Q17.4844 50.5312 15.9688 48.9688
Q14.4531 47.4062 12.2031 47.4062
Q10.0156 47.4062 8.45312 48.9688
Q6.89062 50.5312 6.89062 52.6875
Q6.89062 56.9844 9.46875 60.1562
Q12.0625 63.3281 16.1406 64.9688
Q20.2188 66.6094 24.3125 66.6094
Q27.3438 66.6094 30.7031 65.7031
Q34.0781 64.7969 36.8125 63.1094
Q39.5469 61.4219 41.2812 58.7812
Q43.0156 56.1562 43.0156 52.7812
Q43.0156 48.5781 41.1406 45.0156
Q39.2656 41.4531 35.9844 38.8594
Q32.7188 36.2812 28.8125 35.0156
Q33.1562 34.1875 37.0625 31.7344
Q40.9688 29.2969 43.3281 25.4844
Q45.7031 21.6875 45.7031 17.2812
Q45.7031 11.7656 42.6719 7.29688
Q39.6562 2.82812 34.7188 0.3125
Q29.7812 -2.20312 24.3125 -2.20312
Q19.625 -2.20312 14.9062 -0.40625
Q10.2031 1.375 7.20312 4.9375
Q4.20312 8.5 4.20312 13.4844
Q4.20312 15.9688 5.85938 17.625
Q7.51562 19.2812 10.0156 19.2812
Q11.625 19.2812 12.9688 18.5312
Q14.3125 17.7812 15.0625 16.4062
Q15.8281 15.0469 15.8281 13.4844
Q15.8281 11.0312 14.1094 9.375
Q12.4062 7.71875 10.0156 7.71875
z
" id="Cmr10-33"/>
      <path d="
M17.3906 2.59375
Q17.3906 8.15625 18.3594 13.4688
Q19.3438 18.7969 21.2188 24
Q23.0938 29.2031 25.75 34.2031
Q28.4219 39.2031 31.5938 43.6094
L40.7188 56.2969
L29.2969 56.2969
Q11.5312 56.2969 10.9844 55.8125
Q9.67188 54.2031 8.5 46.5781
L5.60938 46.5781
L8.89062 67.5781
L11.8125 67.5781
L11.8125 67.2812
Q11.8125 65.4844 17.9219 64.9375
Q24.0312 64.4062 29.8906 64.4062
L48.4844 64.4062
L48.4844 61.8125
Q48.4844 61.7188 48.4531 61.6719
Q48.4375 61.625 48.3906 61.5312
L34.625 42.1875
Q29.5469 34.6719 28.2656 25.4844
Q27 16.3125 27 2.59375
Q27 0.640625 25.5781 -0.78125
Q24.1719 -2.20312 22.2188 -2.20312
Q20.2188 -2.20312 18.7969 -0.78125
Q17.3906 0.640625 17.3906 2.59375" id="Cmr10-37"/>
      <path d="
M25 -2.20312
Q18.7969 -2.20312 14.6406 1.09375
Q10.5 4.39062 8.21875 9.64062
Q5.95312 14.8906 5.07812 20.6562
Q4.20312 26.4219 4.20312 32.3281
Q4.20312 40.2344 7.28125 48.1875
Q10.3594 56.1562 16.3281 61.375
Q22.3125 66.6094 30.5156 66.6094
Q33.9375 66.6094 36.8906 65.3125
Q39.8438 64.0156 41.5312 61.5
Q43.2188 58.9844 43.2188 55.4219
Q43.2188 53.375 41.8281 51.9844
Q40.4375 50.5938 38.375 50.5938
Q36.4219 50.5938 35 52
Q33.5938 53.4219 33.5938 55.4219
Q33.5938 57.375 35 58.7812
Q36.4219 60.2031 38.375 60.2031
L38.9219 60.2031
Q37.6406 62.0156 35.3281 62.8594
Q33.0156 63.7188 30.5156 63.7188
Q27.4844 63.7188 24.9219 62.3906
Q22.3594 61.0781 20.3125 58.8281
Q18.2656 56.5938 16.8906 53.875
Q15.5312 51.1719 14.7656 47.7031
Q14.0156 44.2344 13.8125 41.2031
Q13.625 38.1875 13.625 33.5938
Q15.375 37.7031 18.5938 40.3125
Q21.8281 42.9219 25.875 42.9219
Q30.3281 42.9219 33.9844 41.1094
Q37.6406 39.3125 40.2812 36.1094
Q42.9219 32.9062 44.3125 28.7969
Q45.7031 24.7031 45.7031 20.5156
Q45.7031 14.6562 43.0938 9.34375
Q40.4844 4.04688 35.7344 0.921875
Q31 -2.20312 25 -2.20312
M25 0.984375
Q28.8594 0.984375 31.2031 2.73438
Q33.5469 4.5 34.6406 7.39062
Q35.75 10.2969 36.0156 13.25
Q36.2812 16.2188 36.2812 20.5156
Q36.2812 26.1719 35.7344 30.1719
Q35.2031 34.1875 32.8125 37.2344
Q30.4219 40.2812 25.4844 40.2812
Q21.4375 40.2812 18.8281 37.5469
Q16.2188 34.8125 15.0156 30.6406
Q13.8125 26.4688 13.8125 22.6094
Q13.8125 21.2969 13.9219 20.6094
Q13.9219 20.4531 13.8906 20.3594
Q13.875 20.2656 13.8125 20.125
Q13.8125 15.8281 14.6875 11.4219
Q15.5781 7.03125 18.0625 4
Q20.5625 0.984375 25 0.984375" id="Cmr10-36"/>
     </defs>
     <g transform="translate(446.649330511 164.460087273)scale(0.09996 -0.09996)">
      <use transform="translate(0.0 0.421875)" xlink:href="#Cmmi10-6d"/>
      <use transform="translate(105.3515625 0.421875)" xlink:href="#Cmr10-3d"/>
      <use transform="translate(189.41015625 0.421875)" xlink:href="#Cmr10-30"/>
      <use transform="translate(239.41015625 0.421875)" xlink:href="#Cmmi10-3a"/>
      <use transform="translate(267.953125 0.421875)" xlink:href="#Cmr10-33"/>
      <use transform="translate(317.953125 0.421875)" xlink:href="#Cmr10-36"/>
      <use transform="translate(367.953125 0.421875)" xlink:href="#Cmr10-36"/>
      <use transform="translate(417.953125 0.421875)" xlink:href="#Cmr10-36"/>
      <use transform="translate(467.953125 0.421875)" xlink:href="#Cmr10-36"/>
      <use transform="translate(517.953125 0.421875)" xlink:href="#Cmr10-37"/>
     </g>
    </g>
    <g id="line2d_107">
     <path d="
M526.417 145.966
L540.412 145.966" style="fill:none;stroke:#7a68a6;stroke-linecap:square;stroke-width:2.0;"/>
    </g>
    <g id="line2d_108"/>
    <g id="text_50">
     <!-- $m=0.633333$ -->
     <g transform="translate(551.407410511 149.464525398)scale(0.09996 -0.09996)">
      <use transform="translate(0.0 0.390625)" xlink:href="#Cmmi10-6d"/>
      <use transform="translate(105.3515625 0.390625)" xlink:href="#Cmr10-3d"/>
      <use transform="translate(189.41015625 0.390625)" xlink:href="#Cmr10-30"/>
      <use transform="translate(239.41015625 0.390625)" xlink:href="#Cmmi10-3a"/>
      <use transform="translate(267.953125 0.390625)" xlink:href="#Cmr10-36"/>
      <use transform="translate(317.953125 0.390625)" xlink:href="#Cmr10-33"/>
      <use transform="translate(367.953125 0.390625)" xlink:href="#Cmr10-33"/>
      <use transform="translate(417.953125 0.390625)" xlink:href="#Cmr10-33"/>
      <use transform="translate(467.953125 0.390625)" xlink:href="#Cmr10-33"/>
      <use transform="translate(517.953125 0.390625)" xlink:href="#Cmr10-33"/>
     </g>
    </g>
    <g id="line2d_109">
     <path d="
M526.417 160.961
L540.412 160.961" style="fill:none;stroke:#467821;stroke-linecap:square;stroke-width:2.0;"/>
    </g>
    <g id="line2d_110"/>
    <g id="text_51">
     <!-- $m=0.9$ -->
     <defs>
      <path d="
M11.2812 4.20312
Q14.0156 0.984375 20.7969 0.984375
Q24.6094 0.984375 27.9062 3.5625
Q31.2031 6.15625 33.0156 9.90625
Q35.1094 14.1562 35.6875 18.9688
Q36.2812 23.7812 36.2812 30.9062
Q34.5781 26.8594 31.375 24.2656
Q28.1719 21.6875 24.0312 21.6875
Q18.2188 21.6875 13.6406 24.8281
Q9.07812 27.9844 6.64062 33.125
Q4.20312 38.2812 4.20312 44.0938
Q4.20312 50.0938 6.9375 55.2969
Q9.67188 60.5 14.5 63.5469
Q19.3438 66.6094 25.4844 66.6094
Q31.5469 66.6094 35.625 63.3125
Q39.7031 60.0156 41.8438 54.8125
Q44 49.6094 44.8438 43.7969
Q45.7031 37.9844 45.7031 32.3281
Q45.7031 24.6094 42.875 16.5781
Q40.0469 8.54688 34.4062 3.17188
Q28.7656 -2.20312 20.7969 -2.20312
Q14.8906 -2.20312 10.7812 0.578125
Q6.6875 3.375 6.6875 8.98438
Q6.6875 11.0312 8.07812 12.4219
Q9.46875 13.8125 11.5312 13.8125
Q13.5312 13.8125 14.9219 12.4219
Q16.3125 11.0312 16.3125 8.98438
Q16.3125 7.03125 14.8906 5.60938
Q13.4844 4.20312 11.5312 4.20312
z

M24.4219 24.3125
Q28.5156 24.3125 31.125 27.0625
Q33.7344 29.8281 34.9062 33.9219
Q36.0781 38.0312 36.0781 42.0938
L36.0781 44
L36.0781 44.3906
Q36.0781 51.9062 33.875 57.8125
Q31.6875 63.7188 25.4844 63.7188
Q21.5312 63.7188 19.0625 61.9844
Q16.6094 60.25 15.4375 57.375
Q14.2656 54.5 13.9375 51.2188
Q13.625 47.9531 13.625 44.0938
Q13.625 38.4219 14.1562 34.4219
Q14.7031 30.4219 17.0938 27.3594
Q19.4844 24.3125 24.4219 24.3125" id="Cmr10-39"/>
     </defs>
     <g transform="translate(551.407410511 164.460087273)scale(0.09996 -0.09996)">
      <use transform="translate(0.0 0.390625)" xlink:href="#Cmmi10-6d"/>
      <use transform="translate(105.3515625 0.390625)" xlink:href="#Cmr10-3d"/>
      <use transform="translate(189.41015625 0.390625)" xlink:href="#Cmr10-30"/>
      <use transform="translate(239.41015625 0.390625)" xlink:href="#Cmmi10-3a"/>
      <use transform="translate(267.953125 0.390625)" xlink:href="#Cmr10-39"/>
     </g>
    </g>
   </g>
  </g>
 </g>
 <defs>
  <clipPath id="p565a3b42e0">
   <rect height="104.727272727" width="304.363636364" x="409.664130511" y="132.872727273"/>
  </clipPath>
  <clipPath id="p1751304774">
   <rect height="104.727272727" width="304.363636364" x="409.664130511" y="7.2"/>
  </clipPath>
  <clipPath id="p9e32510afb">
   <rect height="104.727272727" width="304.363636364" x="44.427766875" y="7.2"/>
  </clipPath>
  <clipPath id="pc031e58f88">
   <rect height="104.727272727" width="304.363636364" x="44.427766875" y="132.872727273"/>
  </clipPath>
 </defs>
</svg>
