<?xml version="1.0" encoding="UTF-8" standalone="no"?>
<!DOCTYPE svg PUBLIC "-//W3C//DTD SVG 1.1//EN"
 "http://www.w3.org/Graphics/SVG/1.1/DTD/svg11.dtd">
<!-- Generated by graphviz version 2.36.0 (20140111.2315)
 -->
<!-- Title: %3 Pages: 1 -->
<svg width="404pt" height="404pt"
 viewBox="0.00 0.00 404.00 404.00" xmlns="http://www.w3.org/2000/svg" xmlns:xlink="http://www.w3.org/1999/xlink">
<g id="graph0" class="graph" transform="scale(1 1) rotate(0) translate(4 400)">
<title>%3</title>
<polygon fill="white" stroke="none" points="-4,4 -4,-400 400,-400 400,4 -4,4"/>
<!-- Mul(Symbol(x), Symbol(y), Pow(Add(Symbol(x), Symbol(y)), NegativeOne()), Pow(Add(Pow(Symbol(x), Integer(2)), Mul(NegativeOne(), Pow(Symbol(y), Integer(2)))), Half()))_() -->
<g id="node1" class="node"><title>Mul(Symbol(x), Symbol(y), Pow(Add(Symbol(x), Symbol(y)), NegativeOne()), Pow(Add(Pow(Symbol(x), Integer(2)), Mul(NegativeOne(), Pow(Symbol(y), Integer(2)))), Half()))_()</title>
<ellipse fill="none" stroke="black" cx="135" cy="-378" rx="27" ry="18"/>
<text text-anchor="middle" x="135" y="-374.3" font-family="Times New Roman,serif" font-size="14.00">Mul</text>
</g>
<!-- Symbol(x)_(0,) -->
<g id="node2" class="node"><title>Symbol(x)_(0,)</title>
<ellipse fill="none" stroke="black" cx="27" cy="-306" rx="27" ry="18"/>
<text text-anchor="middle" x="27" y="-302.3" font-family="Times New Roman,serif" font-size="14.00">x</text>
</g>
<!-- Mul(Symbol(x), Symbol(y), Pow(Add(Symbol(x), Symbol(y)), NegativeOne()), Pow(Add(Pow(Symbol(x), Integer(2)), Mul(NegativeOne(), Pow(Symbol(y), Integer(2)))), Half()))_()&#45;&gt;Symbol(x)_(0,) -->
<g id="edge1" class="edge"><title>Mul(Symbol(x), Symbol(y), Pow(Add(Symbol(x), Symbol(y)), NegativeOne()), Pow(Add(Pow(Symbol(x), Integer(2)), Mul(NegativeOne(), Pow(Symbol(y), Integer(2)))), Half()))_()&#45;&gt;Symbol(x)_(0,)</title>
<path fill="none" stroke="black" d="M116.188,-364.807C98.9979,-353.665 73.3816,-337.062 54.0067,-324.504"/>
<polygon fill="black" stroke="black" points="55.8918,-321.555 45.5966,-319.053 52.0845,-327.429 55.8918,-321.555"/>
</g>
<!-- Symbol(y)_(1,) -->
<g id="node3" class="node"><title>Symbol(y)_(1,)</title>
<ellipse fill="none" stroke="black" cx="99" cy="-306" rx="27" ry="18"/>
<text text-anchor="middle" x="99" y="-302.3" font-family="Times New Roman,serif" font-size="14.00">y</text>
</g>
<!-- Mul(Symbol(x), Symbol(y), Pow(Add(Symbol(x), Symbol(y)), NegativeOne()), Pow(Add(Pow(Symbol(x), Integer(2)), Mul(NegativeOne(), Pow(Symbol(y), Integer(2)))), Half()))_()&#45;&gt;Symbol(y)_(1,) -->
<g id="edge2" class="edge"><title>Mul(Symbol(x), Symbol(y), Pow(Add(Symbol(x), Symbol(y)), NegativeOne()), Pow(Add(Pow(Symbol(x), Integer(2)), Mul(NegativeOne(), Pow(Symbol(y), Integer(2)))), Half()))_()&#45;&gt;Symbol(y)_(1,)</title>
<path fill="none" stroke="black" d="M126.65,-360.765C122.288,-352.283 116.853,-341.714 111.959,-332.197"/>
<polygon fill="black" stroke="black" points="114.99,-330.439 107.304,-323.147 108.765,-333.641 114.99,-330.439"/>
</g>
<!-- Pow(Add(Symbol(x), Symbol(y)), NegativeOne())_(2,) -->
<g id="node4" class="node"><title>Pow(Add(Symbol(x), Symbol(y)), NegativeOne())_(2,)</title>
<ellipse fill="none" stroke="black" cx="171" cy="-306" rx="26.949" ry="18"/>
<text text-anchor="middle" x="171" y="-302.3" font-family="Times New Roman,serif" font-size="14.00">Pow</text>
</g>
<!-- Mul(Symbol(x), Symbol(y), Pow(Add(Symbol(x), Symbol(y)), NegativeOne()), Pow(Add(Pow(Symbol(x), Integer(2)), Mul(NegativeOne(), Pow(Symbol(y), Integer(2)))), Half()))_()&#45;&gt;Pow(Add(Symbol(x), Symbol(y)), NegativeOne())_(2,) -->
<g id="edge3" class="edge"><title>Mul(Symbol(x), Symbol(y), Pow(Add(Symbol(x), Symbol(y)), NegativeOne()), Pow(Add(Pow(Symbol(x), Integer(2)), Mul(NegativeOne(), Pow(Symbol(y), Integer(2)))), Half()))_()&#45;&gt;Pow(Add(Symbol(x), Symbol(y)), NegativeOne())_(2,)</title>
<path fill="none" stroke="black" d="M143.35,-360.765C147.712,-352.283 153.147,-341.714 158.041,-332.197"/>
<polygon fill="black" stroke="black" points="161.235,-333.641 162.696,-323.147 155.01,-330.439 161.235,-333.641"/>
</g>
<!-- Pow(Add(Pow(Symbol(x), Integer(2)), Mul(NegativeOne(), Pow(Symbol(y), Integer(2)))), Half())_(3,) -->
<g id="node9" class="node"><title>Pow(Add(Pow(Symbol(x), Integer(2)), Mul(NegativeOne(), Pow(Symbol(y), Integer(2)))), Half())_(3,)</title>
<ellipse fill="none" stroke="black" cx="244" cy="-306" rx="26.949" ry="18"/>
<text text-anchor="middle" x="244" y="-302.3" font-family="Times New Roman,serif" font-size="14.00">Pow</text>
</g>
<!-- Mul(Symbol(x), Symbol(y), Pow(Add(Symbol(x), Symbol(y)), NegativeOne()), Pow(Add(Pow(Symbol(x), Integer(2)), Mul(NegativeOne(), Pow(Symbol(y), Integer(2)))), Half()))_()&#45;&gt;Pow(Add(Pow(Symbol(x), Integer(2)), Mul(NegativeOne(), Pow(Symbol(y), Integer(2)))), Half())_(3,) -->
<g id="edge4" class="edge"><title>Mul(Symbol(x), Symbol(y), Pow(Add(Symbol(x), Symbol(y)), NegativeOne()), Pow(Add(Pow(Symbol(x), Integer(2)), Mul(NegativeOne(), Pow(Symbol(y), Integer(2)))), Half()))_()&#45;&gt;Pow(Add(Pow(Symbol(x), Integer(2)), Mul(NegativeOne(), Pow(Symbol(y), Integer(2)))), Half())_(3,)</title>
<path fill="none" stroke="black" d="M153.986,-364.807C171.335,-353.665 197.189,-337.062 216.743,-324.504"/>
<polygon fill="black" stroke="black" points="218.708,-327.402 225.231,-319.053 214.926,-321.512 218.708,-327.402"/>
</g>
<!-- Add(Symbol(x), Symbol(y))_(2, 0) -->
<g id="node5" class="node"><title>Add(Symbol(x), Symbol(y))_(2, 0)</title>
<ellipse fill="none" stroke="black" cx="99" cy="-234" rx="27" ry="18"/>
<text text-anchor="middle" x="99" y="-230.3" font-family="Times New Roman,serif" font-size="14.00">Add</text>
</g>
<!-- Pow(Add(Symbol(x), Symbol(y)), NegativeOne())_(2,)&#45;&gt;Add(Symbol(x), Symbol(y))_(2, 0) -->
<g id="edge5" class="edge"><title>Pow(Add(Symbol(x), Symbol(y)), NegativeOne())_(2,)&#45;&gt;Add(Symbol(x), Symbol(y))_(2, 0)</title>
<path fill="none" stroke="black" d="M156.082,-290.496C146.042,-280.735 132.624,-267.69 121.32,-256.7"/>
<polygon fill="black" stroke="black" points="123.509,-253.947 113.899,-249.485 118.63,-258.966 123.509,-253.947"/>
</g>
<!-- NegativeOne()_(2, 1) -->
<g id="node8" class="node"><title>NegativeOne()_(2, 1)</title>
<ellipse fill="none" stroke="black" cx="171" cy="-234" rx="27" ry="18"/>
<text text-anchor="middle" x="171" y="-230.3" font-family="Times New Roman,serif" font-size="14.00">&#45;1</text>
</g>
<!-- Pow(Add(Symbol(x), Symbol(y)), NegativeOne())_(2,)&#45;&gt;NegativeOne()_(2, 1) -->
<g id="edge6" class="edge"><title>Pow(Add(Symbol(x), Symbol(y)), NegativeOne())_(2,)&#45;&gt;NegativeOne()_(2, 1)</title>
<path fill="none" stroke="black" d="M171,-287.697C171,-279.983 171,-270.712 171,-262.112"/>
<polygon fill="black" stroke="black" points="174.5,-262.104 171,-252.104 167.5,-262.104 174.5,-262.104"/>
</g>
<!-- Symbol(y)_(2, 0, 0) -->
<g id="node6" class="node"><title>Symbol(y)_(2, 0, 0)</title>
<ellipse fill="none" stroke="black" cx="45" cy="-162" rx="27" ry="18"/>
<text text-anchor="middle" x="45" y="-158.3" font-family="Times New Roman,serif" font-size="14.00">y</text>
</g>
<!-- Add(Symbol(x), Symbol(y))_(2, 0)&#45;&gt;Symbol(y)_(2, 0, 0) -->
<g id="edge7" class="edge"><title>Add(Symbol(x), Symbol(y))_(2, 0)&#45;&gt;Symbol(y)_(2, 0, 0)</title>
<path fill="none" stroke="black" d="M87.0156,-217.465C80.0245,-208.402 71.0638,-196.786 63.2149,-186.612"/>
<polygon fill="black" stroke="black" points="65.8302,-184.272 56.9508,-178.492 60.2877,-188.548 65.8302,-184.272"/>
</g>
<!-- Symbol(x)_(2, 0, 1) -->
<g id="node7" class="node"><title>Symbol(x)_(2, 0, 1)</title>
<ellipse fill="none" stroke="black" cx="117" cy="-162" rx="27" ry="18"/>
<text text-anchor="middle" x="117" y="-158.3" font-family="Times New Roman,serif" font-size="14.00">x</text>
</g>
<!-- Add(Symbol(x), Symbol(y))_(2, 0)&#45;&gt;Symbol(x)_(2, 0, 1) -->
<g id="edge8" class="edge"><title>Add(Symbol(x), Symbol(y))_(2, 0)&#45;&gt;Symbol(x)_(2, 0, 1)</title>
<path fill="none" stroke="black" d="M103.357,-216.055C105.391,-208.145 107.861,-198.54 110.137,-189.688"/>
<polygon fill="black" stroke="black" points="113.582,-190.346 112.683,-179.789 106.803,-188.602 113.582,-190.346"/>
</g>
<!-- Add(Pow(Symbol(x), Integer(2)), Mul(NegativeOne(), Pow(Symbol(y), Integer(2))))_(3, 0) -->
<g id="node10" class="node"><title>Add(Pow(Symbol(x), Integer(2)), Mul(NegativeOne(), Pow(Symbol(y), Integer(2))))_(3, 0)</title>
<ellipse fill="none" stroke="black" cx="243" cy="-234" rx="27" ry="18"/>
<text text-anchor="middle" x="243" y="-230.3" font-family="Times New Roman,serif" font-size="14.00">Add</text>
</g>
<!-- Pow(Add(Pow(Symbol(x), Integer(2)), Mul(NegativeOne(), Pow(Symbol(y), Integer(2)))), Half())_(3,)&#45;&gt;Add(Pow(Symbol(x), Integer(2)), Mul(NegativeOne(), Pow(Symbol(y), Integer(2))))_(3, 0) -->
<g id="edge9" class="edge"><title>Pow(Add(Pow(Symbol(x), Integer(2)), Mul(NegativeOne(), Pow(Symbol(y), Integer(2)))), Half())_(3,)&#45;&gt;Add(Pow(Symbol(x), Integer(2)), Mul(NegativeOne(), Pow(Symbol(y), Integer(2))))_(3, 0)</title>
<path fill="none" stroke="black" d="M243.753,-287.697C243.643,-279.983 243.51,-270.712 243.387,-262.112"/>
<polygon fill="black" stroke="black" points="246.887,-262.053 243.244,-252.104 239.888,-262.153 246.887,-262.053"/>
</g>
<!-- Half()_(3, 1) -->
<g id="node19" class="node"><title>Half()_(3, 1)</title>
<ellipse fill="none" stroke="black" cx="315" cy="-234" rx="27" ry="18"/>
<text text-anchor="middle" x="315" y="-230.3" font-family="Times New Roman,serif" font-size="14.00">1/2</text>
</g>
<!-- Pow(Add(Pow(Symbol(x), Integer(2)), Mul(NegativeOne(), Pow(Symbol(y), Integer(2)))), Half())_(3,)&#45;&gt;Half()_(3, 1) -->
<g id="edge10" class="edge"><title>Pow(Add(Pow(Symbol(x), Integer(2)), Mul(NegativeOne(), Pow(Symbol(y), Integer(2)))), Half())_(3,)&#45;&gt;Half()_(3, 1)</title>
<path fill="none" stroke="black" d="M258.711,-290.496C268.612,-280.735 281.843,-267.69 292.99,-256.7"/>
<polygon fill="black" stroke="black" points="295.644,-258.999 300.308,-249.485 290.729,-254.014 295.644,-258.999"/>
</g>
<!-- Mul(NegativeOne(), Pow(Symbol(y), Integer(2)))_(3, 0, 0) -->
<g id="node11" class="node"><title>Mul(NegativeOne(), Pow(Symbol(y), Integer(2)))_(3, 0, 0)</title>
<ellipse fill="none" stroke="black" cx="225" cy="-162" rx="27" ry="18"/>
<text text-anchor="middle" x="225" y="-158.3" font-family="Times New Roman,serif" font-size="14.00">Mul</text>
</g>
<!-- Add(Pow(Symbol(x), Integer(2)), Mul(NegativeOne(), Pow(Symbol(y), Integer(2))))_(3, 0)&#45;&gt;Mul(NegativeOne(), Pow(Symbol(y), Integer(2)))_(3, 0, 0) -->
<g id="edge11" class="edge"><title>Add(Pow(Symbol(x), Integer(2)), Mul(NegativeOne(), Pow(Symbol(y), Integer(2))))_(3, 0)&#45;&gt;Mul(NegativeOne(), Pow(Symbol(y), Integer(2)))_(3, 0, 0)</title>
<path fill="none" stroke="black" d="M238.643,-216.055C236.609,-208.145 234.139,-198.54 231.863,-189.688"/>
<polygon fill="black" stroke="black" points="235.197,-188.602 229.317,-179.789 228.418,-190.346 235.197,-188.602"/>
</g>
<!-- Pow(Symbol(x), Integer(2))_(3, 0, 1) -->
<g id="node16" class="node"><title>Pow(Symbol(x), Integer(2))_(3, 0, 1)</title>
<ellipse fill="none" stroke="black" cx="297" cy="-162" rx="26.949" ry="18"/>
<text text-anchor="middle" x="297" y="-158.3" font-family="Times New Roman,serif" font-size="14.00">Pow</text>
</g>
<!-- Add(Pow(Symbol(x), Integer(2)), Mul(NegativeOne(), Pow(Symbol(y), Integer(2))))_(3, 0)&#45;&gt;Pow(Symbol(x), Integer(2))_(3, 0, 1) -->
<g id="edge12" class="edge"><title>Add(Pow(Symbol(x), Integer(2)), Mul(NegativeOne(), Pow(Symbol(y), Integer(2))))_(3, 0)&#45;&gt;Pow(Symbol(x), Integer(2))_(3, 0, 1)</title>
<path fill="none" stroke="black" d="M254.984,-217.465C261.976,-208.402 270.936,-196.786 278.785,-186.612"/>
<polygon fill="black" stroke="black" points="281.712,-188.548 285.049,-178.492 276.17,-184.272 281.712,-188.548"/>
</g>
<!-- NegativeOne()_(3, 0, 0, 0) -->
<g id="node12" class="node"><title>NegativeOne()_(3, 0, 0, 0)</title>
<ellipse fill="none" stroke="black" cx="153" cy="-90" rx="27" ry="18"/>
<text text-anchor="middle" x="153" y="-86.3" font-family="Times New Roman,serif" font-size="14.00">&#45;1</text>
</g>
<!-- Mul(NegativeOne(), Pow(Symbol(y), Integer(2)))_(3, 0, 0)&#45;&gt;NegativeOne()_(3, 0, 0, 0) -->
<g id="edge13" class="edge"><title>Mul(NegativeOne(), Pow(Symbol(y), Integer(2)))_(3, 0, 0)&#45;&gt;NegativeOne()_(3, 0, 0, 0)</title>
<path fill="none" stroke="black" d="M210.43,-146.834C200.25,-136.938 186.476,-123.546 174.969,-112.359"/>
<polygon fill="black" stroke="black" points="177.405,-109.846 167.796,-105.385 172.526,-114.865 177.405,-109.846"/>
</g>
<!-- Pow(Symbol(y), Integer(2))_(3, 0, 0, 1) -->
<g id="node13" class="node"><title>Pow(Symbol(y), Integer(2))_(3, 0, 0, 1)</title>
<ellipse fill="none" stroke="black" cx="225" cy="-90" rx="26.949" ry="18"/>
<text text-anchor="middle" x="225" y="-86.3" font-family="Times New Roman,serif" font-size="14.00">Pow</text>
</g>
<!-- Mul(NegativeOne(), Pow(Symbol(y), Integer(2)))_(3, 0, 0)&#45;&gt;Pow(Symbol(y), Integer(2))_(3, 0, 0, 1) -->
<g id="edge14" class="edge"><title>Mul(NegativeOne(), Pow(Symbol(y), Integer(2)))_(3, 0, 0)&#45;&gt;Pow(Symbol(y), Integer(2))_(3, 0, 0, 1)</title>
<path fill="none" stroke="black" d="M225,-143.697C225,-135.983 225,-126.712 225,-118.112"/>
<polygon fill="black" stroke="black" points="228.5,-118.104 225,-108.104 221.5,-118.104 228.5,-118.104"/>
</g>
<!-- Symbol(y)_(3, 0, 0, 1, 0) -->
<g id="node14" class="node"><title>Symbol(y)_(3, 0, 0, 1, 0)</title>
<ellipse fill="none" stroke="black" cx="189" cy="-18" rx="27" ry="18"/>
<text text-anchor="middle" x="189" y="-14.3" font-family="Times New Roman,serif" font-size="14.00">y</text>
</g>
<!-- Pow(Symbol(y), Integer(2))_(3, 0, 0, 1)&#45;&gt;Symbol(y)_(3, 0, 0, 1, 0) -->
<g id="edge15" class="edge"><title>Pow(Symbol(y), Integer(2))_(3, 0, 0, 1)&#45;&gt;Symbol(y)_(3, 0, 0, 1, 0)</title>
<path fill="none" stroke="black" d="M216.65,-72.7646C212.288,-64.2831 206.853,-53.7144 201.959,-44.1974"/>
<polygon fill="black" stroke="black" points="204.99,-42.4395 197.304,-35.1473 198.765,-45.6409 204.99,-42.4395"/>
</g>
<!-- Integer(2)_(3, 0, 0, 1, 1) -->
<g id="node15" class="node"><title>Integer(2)_(3, 0, 0, 1, 1)</title>
<ellipse fill="none" stroke="black" cx="261" cy="-18" rx="27" ry="18"/>
<text text-anchor="middle" x="261" y="-14.3" font-family="Times New Roman,serif" font-size="14.00">2</text>
</g>
<!-- Pow(Symbol(y), Integer(2))_(3, 0, 0, 1)&#45;&gt;Integer(2)_(3, 0, 0, 1, 1) -->
<g id="edge16" class="edge"><title>Pow(Symbol(y), Integer(2))_(3, 0, 0, 1)&#45;&gt;Integer(2)_(3, 0, 0, 1, 1)</title>
<path fill="none" stroke="black" d="M233.35,-72.7646C237.712,-64.2831 243.147,-53.7144 248.041,-44.1974"/>
<polygon fill="black" stroke="black" points="251.235,-45.6409 252.696,-35.1473 245.01,-42.4395 251.235,-45.6409"/>
</g>
<!-- Symbol(x)_(3, 0, 1, 0) -->
<g id="node17" class="node"><title>Symbol(x)_(3, 0, 1, 0)</title>
<ellipse fill="none" stroke="black" cx="297" cy="-90" rx="27" ry="18"/>
<text text-anchor="middle" x="297" y="-86.3" font-family="Times New Roman,serif" font-size="14.00">x</text>
</g>
<!-- Pow(Symbol(x), Integer(2))_(3, 0, 1)&#45;&gt;Symbol(x)_(3, 0, 1, 0) -->
<g id="edge17" class="edge"><title>Pow(Symbol(x), Integer(2))_(3, 0, 1)&#45;&gt;Symbol(x)_(3, 0, 1, 0)</title>
<path fill="none" stroke="black" d="M297,-143.697C297,-135.983 297,-126.712 297,-118.112"/>
<polygon fill="black" stroke="black" points="300.5,-118.104 297,-108.104 293.5,-118.104 300.5,-118.104"/>
</g>
<!-- Integer(2)_(3, 0, 1, 1) -->
<g id="node18" class="node"><title>Integer(2)_(3, 0, 1, 1)</title>
<ellipse fill="none" stroke="black" cx="369" cy="-90" rx="27" ry="18"/>
<text text-anchor="middle" x="369" y="-86.3" font-family="Times New Roman,serif" font-size="14.00">2</text>
</g>
<!-- Pow(Symbol(x), Integer(2))_(3, 0, 1)&#45;&gt;Integer(2)_(3, 0, 1, 1) -->
<g id="edge18" class="edge"><title>Pow(Symbol(x), Integer(2))_(3, 0, 1)&#45;&gt;Integer(2)_(3, 0, 1, 1)</title>
<path fill="none" stroke="black" d="M311.918,-146.496C321.958,-136.735 335.376,-123.69 346.68,-112.7"/>
<polygon fill="black" stroke="black" points="349.37,-114.966 354.101,-105.485 344.491,-109.947 349.37,-114.966"/>
</g>
</g>
</svg>
