<?xml version="1.0" encoding="UTF-8" standalone="no"?>
<!DOCTYPE svg PUBLIC "-//W3C//DTD SVG 1.1//EN"
 "http://www.w3.org/Graphics/SVG/1.1/DTD/svg11.dtd">
<!-- Generated by graphviz version 2.36.0 (20140111.2315)
 -->
<!-- Title: graph1 Pages: 1 -->
<svg width="290pt" height="108pt"
 viewBox="0.00 0.00 290.00 108.00" xmlns="http://www.w3.org/2000/svg" xmlns:xlink="http://www.w3.org/1999/xlink">
<g id="graph0" class="graph" transform="scale(1 1) rotate(0) translate(4 104)">
<title>graph1</title>
<polygon fill="white" stroke="none" points="-4,4 -4,-104 286,-104 286,4 -4,4"/>
<!-- A -->
<g id="node1" class="node"><title>A</title>
<ellipse fill="none" stroke="black" cx="18" cy="-31" rx="18" ry="18"/>
<text text-anchor="middle" x="18" y="-27.3" font-family="Times New Roman,serif" font-size="14.00">A</text>
</g>
<!-- B -->
<g id="node2" class="node"><title>B</title>
<ellipse fill="none" stroke="black" cx="104" cy="-82" rx="18" ry="18"/>
<text text-anchor="middle" x="104" y="-78.3" font-family="Times New Roman,serif" font-size="14.00">B</text>
</g>
<!-- A&#45;&gt;B -->
<g id="edge1" class="edge"><title>A&#45;&gt;B</title>
<path fill="none" stroke="black" d="M34.0175,-40.1178C46.5598,-47.7327 64.6692,-58.7277 79.1862,-67.5416"/>
<polygon fill="black" stroke="black" points="77.7482,-70.7631 88.1125,-72.9612 81.381,-64.7796 77.7482,-70.7631"/>
<text text-anchor="middle" x="61" y="-62.8" font-family="Times New Roman,serif" font-size="14.00">10</text>
</g>
<!-- C -->
<g id="node3" class="node"><title>C</title>
<ellipse fill="none" stroke="black" cx="184" cy="-43" rx="18" ry="18"/>
<text text-anchor="middle" x="184" y="-39.3" font-family="Times New Roman,serif" font-size="14.00">C</text>
</g>
<!-- A&#45;&gt;C -->
<g id="edge3" class="edge"><title>A&#45;&gt;C</title>
<path fill="none" stroke="black" d="M36.2409,-32.2615C64.7367,-34.3466 121.879,-38.5277 155.843,-41.0129"/>
<polygon fill="black" stroke="black" points="155.761,-44.5162 165.99,-41.7554 156.272,-37.5349 155.761,-44.5162"/>
<text text-anchor="middle" x="104" y="-41.8" font-family="Times New Roman,serif" font-size="14.00">3</text>
</g>
<!-- B&#45;&gt;C -->
<g id="edge2" class="edge"><title>B&#45;&gt;C</title>
<path fill="none" stroke="black" d="M120.41,-74.2949C131.307,-68.8464 146.14,-61.4302 158.63,-55.1848"/>
<polygon fill="black" stroke="black" points="160.243,-58.2918 167.622,-50.6891 157.112,-52.0308 160.243,-58.2918"/>
<text text-anchor="middle" x="144" y="-66.8" font-family="Times New Roman,serif" font-size="14.00">5</text>
</g>
<!-- D -->
<g id="node4" class="node"><title>D</title>
<ellipse fill="none" stroke="black" cx="264" cy="-18" rx="18" ry="18"/>
<text text-anchor="middle" x="264" y="-14.3" font-family="Times New Roman,serif" font-size="14.00">D</text>
</g>
<!-- C&#45;&gt;D -->
<g id="edge4" class="edge"><title>C&#45;&gt;D</title>
<path fill="none" stroke="black" d="M201.973,-40.3476C209.978,-38.8694 219.595,-36.7625 228,-34 231.404,-32.8813 234.917,-31.5292 238.345,-30.0906"/>
<polygon fill="black" stroke="black" points="239.927,-33.217 247.617,-25.929 237.061,-26.8307 239.927,-33.217"/>
<text text-anchor="middle" x="224" y="-39.8" font-family="Times New Roman,serif" font-size="14.00">7</text>
</g>
<!-- D&#45;&gt;A -->
<g id="edge5" class="edge"><title>D&#45;&gt;A</title>
<path fill="none" stroke="black" d="M246.431,-12.8288C240.659,-11.2715 234.1,-9.77173 228,-9 224.473,-8.55373 223.55,-8.80628 220,-9 157.63,-12.4031 84.8568,-21.7039 46.2737,-27.0598"/>
<polygon fill="black" stroke="black" points="45.3048,-23.6616 35.8902,-28.5211 46.2804,-30.5933 45.3048,-23.6616"/>
<text text-anchor="middle" x="144" y="-18.8" font-family="Times New Roman,serif" font-size="14.00">4</text>
</g>
<!-- D&#45;&gt;C -->
<g id="edge6" class="edge"><title>D&#45;&gt;C</title>
<path fill="none" stroke="black" d="M246.25,-13.7765C238.12,-12.4861 228.333,-12.0771 220,-15 214.585,-16.8996 209.385,-20.0285 204.725,-23.5208"/>
<polygon fill="black" stroke="black" points="202.401,-20.9019 196.993,-30.0123 206.902,-26.2631 202.401,-20.9019"/>
<text text-anchor="middle" x="224" y="-18.8" font-family="Times New Roman,serif" font-size="14.00">6</text>
</g>
</g>
</svg>
