<?xml version="1.0" encoding="utf-8" standalone="no"?>
<!DOCTYPE svg PUBLIC "-//W3C//DTD SVG 1.1//EN"
  "http://www.w3.org/Graphics/SVG/1.1/DTD/svg11.dtd">
<!-- Created with matplotlib (http://matplotlib.org/) -->
<svg height="278pt" version="1.1" viewBox="0 0 493 278" width="493pt" xmlns="http://www.w3.org/2000/svg" xmlns:xlink="http://www.w3.org/1999/xlink">
 <defs>
  <style type="text/css">
*{stroke-linecap:butt;stroke-linejoin:round;}
  </style>
 </defs>
 <g id="figure_1">
  <g id="patch_1">
   <path d="
M0 278.794
L493.26 278.794
L493.26 0
L0 0
z
" style="fill:#ffffff;"/>
  </g>
  <g id="axes_1">
   <g id="patch_2">
    <path d="
M39.625 242.599
L486.025 242.599
L486.025 12.1988
L39.625 12.1988
z
" style="fill:#ffffff;"/>
   </g>
   <g id="line2d_1">
    <path clip-path="url(#p50b0abb012)" d="
M39.625 204.486
L40.4986 219.472
L42.2457 227.81
L45.7401 230.222
L52.7287 229.773
L66.706 222.859
L94.6606 211.092
L150.57 175.078
L262.388 97.4442
L486.025 26.6615" style="fill:none;stroke:#348abd;stroke-linecap:square;stroke-width:2.0;"/>
   </g>
   <g id="line2d_2">
    <path clip-path="url(#p50b0abb012)" d="
M39.625 72.7509
L40.4986 148.119
L42.2457 188.436
L45.7401 211.647
L52.7287 219.628
L66.706 223.314
L94.6606 225.088
L150.57 224.663
L262.388 226.698
L486.025 222.907" style="fill:none;stroke:#a60628;stroke-linecap:square;stroke-width:2.0;"/>
   </g>
   <g id="matplotlib.axis_1">
    <g id="xtick_1">
     <g id="line2d_3">
      <defs>
       <path d="
M0 0
L0 -4" id="m93b0483c22" style="stroke:#000000;stroke-width:0.5;"/>
      </defs>
      <g>
       <use style="stroke:#000000;stroke-width:0.5;" x="93.3502458684" xlink:href="#m93b0483c22" y="242.598780937"/>
      </g>
     </g>
     <g id="line2d_4">
      <defs>
       <path d="
M0 0
L0 4" id="m741efc42ff" style="stroke:#000000;stroke-width:0.5;"/>
      </defs>
      <g>
       <use style="stroke:#000000;stroke-width:0.5;" x="93.3502458684" xlink:href="#m741efc42ff" y="12.1987809375"/>
      </g>
     </g>
     <g id="text_1">
      <!-- 1000 -->
      <defs>
       <path d="
M34.7188 0
L26.125 0
L26.125 44.5781
Q26.125 46.6875 26.1406 49.0781
Q26.1719 51.4688 26.2344 53.8281
Q26.3125 56.2031 26.3906 58.375
Q26.4688 60.5469 26.5156 62.2031
Q25.6875 61.3281 25.0469 60.6875
Q24.4219 60.0625 23.75 59.4688
Q23.0938 58.8906 22.3594 58.2188
Q21.625 57.5625 20.6094 56.6875
L13.375 50.7812
L8.6875 56.7812
L27.3906 71.3906
L34.7188 71.3906
z
" id="WenQuanYiMicroHei-31"/>
       <path d="
M50.3906 35.7969
Q50.3906 27.1562 49.1406 20.3125
Q47.9062 13.4844 45.1406 8.73438
Q42.3906 4 38.0312 1.5
Q33.6875 -0.984375 27.4844 -0.984375
Q21.7344 -0.984375 17.4531 1.5
Q13.1875 4 10.375 8.73438
Q7.5625 13.4844 6.17188 20.3125
Q4.78125 27.1562 4.78125 35.7969
Q4.78125 44.4375 6.03125 51.2656
Q7.28125 58.1094 9.98438 62.8125
Q12.7031 67.5312 17.0156 70.0156
Q21.3438 72.5156 27.4844 72.5156
Q33.2969 72.5156 37.5938 70.0469
Q41.8906 67.5781 44.7188 62.8594
Q47.5625 58.1562 48.9688 51.3125
Q50.3906 44.4844 50.3906 35.7969
M13.8125 35.7969
Q13.8125 28.4688 14.5469 23
Q15.2812 17.5312 16.8906 13.8906
Q18.5 10.25 21.1094 8.42188
Q23.7344 6.59375 27.4844 6.59375
Q31.25 6.59375 33.8906 8.39062
Q36.5312 10.2031 38.2031 13.8125
Q39.8906 17.4375 40.6406 22.9219
Q41.4062 28.4219 41.4062 35.7969
Q41.4062 43.1094 40.6406 48.5781
Q39.8906 54.0469 38.2031 57.6562
Q36.5312 61.2812 33.8906 63.0781
Q31.25 64.8906 27.4844 64.8906
Q23.7344 64.8906 21.1094 63.0781
Q18.5 61.2812 16.8906 57.6562
Q15.2812 54.0469 14.5469 48.5781
Q13.8125 43.1094 13.8125 35.7969" id="WenQuanYiMicroHei-30"/>
      </defs>
      <g transform="translate(83.0075096184 254.194179062)scale(0.09996 -0.09996)">
       <use xlink:href="#WenQuanYiMicroHei-31"/>
       <use x="55.078125" xlink:href="#WenQuanYiMicroHei-30"/>
       <use x="110.15625" xlink:href="#WenQuanYiMicroHei-30"/>
       <use x="165.234375" xlink:href="#WenQuanYiMicroHei-30"/>
      </g>
     </g>
    </g>
    <g id="xtick_2">
     <g id="line2d_5">
      <g>
       <use style="stroke:#000000;stroke-width:0.5;" x="147.9490717" xlink:href="#m93b0483c22" y="242.598780937"/>
      </g>
     </g>
     <g id="line2d_6">
      <g>
       <use style="stroke:#000000;stroke-width:0.5;" x="147.9490717" xlink:href="#m741efc42ff" y="12.1987809375"/>
      </g>
     </g>
     <g id="text_2">
      <!-- 2000 -->
      <defs>
       <path d="
M49.2188 0
L4.6875 0
L4.6875 7.625
L21.7812 26.2188
Q25.4375 30.1719 28.3125 33.4375
Q31.2031 36.7188 33.2188 39.8438
Q35.25 42.9688 36.3281 46.1094
Q37.4062 49.2656 37.4062 52.9844
Q37.4062 55.8594 36.5781 58.0469
Q35.75 60.25 34.2031 61.7812
Q32.6719 63.3281 30.5625 64.1094
Q28.4688 64.8906 25.875 64.8906
Q21.2344 64.8906 17.5 63.0156
Q13.7656 61.1406 10.4062 58.2031
L5.42188 64.0156
Q7.375 65.7656 9.60938 67.2969
Q11.8594 68.8438 14.4531 69.9688
Q17.0469 71.0938 19.9219 71.75
Q22.7969 72.4062 25.9844 72.4062
Q30.6719 72.4062 34.4531 71.0938
Q38.2344 69.7812 40.8594 67.3125
Q43.5 64.8438 44.9375 61.2969
Q46.3906 57.7656 46.3906 53.3281
Q46.3906 49.1719 45.0938 45.4062
Q43.7969 41.6562 41.5312 38.0156
Q39.2656 34.375 36.1094 30.7031
Q32.9531 27.0469 29.2969 23.0938
L15.5781 8.5
L15.5781 8.10938
L49.2188 8.10938
z
" id="WenQuanYiMicroHei-32"/>
      </defs>
      <g transform="translate(137.40641545 254.194179062)scale(0.09996 -0.09996)">
       <use xlink:href="#WenQuanYiMicroHei-32"/>
       <use x="55.078125" xlink:href="#WenQuanYiMicroHei-30"/>
       <use x="110.15625" xlink:href="#WenQuanYiMicroHei-30"/>
       <use x="165.234375" xlink:href="#WenQuanYiMicroHei-30"/>
      </g>
     </g>
    </g>
    <g id="xtick_3">
     <g id="line2d_7">
      <g>
       <use style="stroke:#000000;stroke-width:0.5;" x="202.547897532" xlink:href="#m93b0483c22" y="242.598780937"/>
      </g>
     </g>
     <g id="line2d_8">
      <g>
       <use style="stroke:#000000;stroke-width:0.5;" x="202.547897532" xlink:href="#m741efc42ff" y="12.1987809375"/>
      </g>
     </g>
     <g id="text_3">
      <!-- 3000 -->
      <defs>
       <path d="
M46.9219 54.6875
Q46.9219 51.125 45.7969 48.1875
Q44.6719 45.2656 42.6406 43.1094
Q40.625 40.9688 37.7969 39.5781
Q34.9688 38.1875 31.5 37.5938
L31.5 37.3125
Q40.1406 36.2344 44.625 31.8125
Q49.125 27.3906 49.125 20.3125
Q49.125 15.625 47.5312 11.7188
Q45.9531 7.8125 42.7188 4.98438
Q39.5 2.15625 34.5625 0.578125
Q29.6406 -0.984375 22.9062 -0.984375
Q17.5781 -0.984375 12.8594 -0.140625
Q8.15625 0.6875 4 2.875
L4 11.1875
Q8.25 8.9375 13.2031 7.71875
Q18.1719 6.5 22.7031 6.5
Q27.2031 6.5 30.4688 7.46875
Q33.7344 8.45312 35.8594 10.25
Q37.9844 12.0625 38.9844 14.6875
Q39.9844 17.3281 39.9844 20.6094
Q39.9844 23.9219 38.6875 26.2812
Q37.4062 28.6562 35.0156 30.1875
Q32.625 31.7344 29.1719 32.4688
Q25.7344 33.2031 21.3906 33.2031
L14.8906 33.2031
L14.8906 40.5781
L21.3906 40.5781
Q25.3438 40.5781 28.4219 41.5469
Q31.5 42.5312 33.5625 44.3281
Q35.6406 46.1406 36.7188 48.625
Q37.7969 51.125 37.7969 54.1094
Q37.7969 56.6406 36.9062 58.6406
Q36.0312 60.6406 34.4219 62.0312
Q32.8125 63.4219 30.5625 64.1562
Q28.3281 64.8906 25.5938 64.8906
Q20.3594 64.8906 16.375 63.25
Q12.4062 61.625 8.79688 58.9844
L4.29688 65.0938
Q6.15625 66.6094 8.42188 67.9219
Q10.6875 69.2344 13.375 70.2344
Q16.0625 71.2344 19.1094 71.8125
Q22.1719 72.4062 25.5938 72.4062
Q30.8594 72.4062 34.8281 71.0938
Q38.8125 69.7812 41.5 67.4062
Q44.1875 65.0469 45.5469 61.7969
Q46.9219 58.5469 46.9219 54.6875" id="WenQuanYiMicroHei-33"/>
      </defs>
      <g transform="translate(191.970880032 254.194179062)scale(0.09996 -0.09996)">
       <use xlink:href="#WenQuanYiMicroHei-33"/>
       <use x="55.078125" xlink:href="#WenQuanYiMicroHei-30"/>
       <use x="110.15625" xlink:href="#WenQuanYiMicroHei-30"/>
       <use x="165.234375" xlink:href="#WenQuanYiMicroHei-30"/>
      </g>
     </g>
    </g>
    <g id="xtick_4">
     <g id="line2d_9">
      <g>
       <use style="stroke:#000000;stroke-width:0.5;" x="257.146723364" xlink:href="#m93b0483c22" y="242.598780937"/>
      </g>
     </g>
     <g id="line2d_10">
      <g>
       <use style="stroke:#000000;stroke-width:0.5;" x="257.146723364" xlink:href="#m741efc42ff" y="12.1987809375"/>
      </g>
     </g>
     <g id="text_4">
      <!-- 4000 -->
      <defs>
       <path d="
M53.0781 16.0156
L42.6719 16.0156
L42.6719 0
L34.0781 0
L34.0781 16.0156
L1.125 16.0156
L1.125 23.7812
L33.5 71.7812
L42.6719 71.7812
L42.6719 24.125
L53.0781 24.125
z

M34.0781 24.125
L34.0781 41.5
Q34.0781 44.2344 34.1562 47.2344
Q34.2344 50.25 34.3281 53.0938
Q34.4219 55.9531 34.5469 58.4375
Q34.6719 60.9375 34.7188 62.5938
L34.2812 62.5938
Q33.9375 61.625 33.4219 60.4219
Q32.9062 59.2344 32.2969 58.0312
Q31.6875 56.8438 31.0469 55.7188
Q30.4219 54.5938 29.8906 53.8125
L9.8125 24.125
z
" id="WenQuanYiMicroHei-34"/>
      </defs>
      <g transform="translate(246.426013364 254.194179062)scale(0.09996 -0.09996)">
       <use xlink:href="#WenQuanYiMicroHei-34"/>
       <use x="55.078125" xlink:href="#WenQuanYiMicroHei-30"/>
       <use x="110.15625" xlink:href="#WenQuanYiMicroHei-30"/>
       <use x="165.234375" xlink:href="#WenQuanYiMicroHei-30"/>
      </g>
     </g>
    </g>
    <g id="xtick_5">
     <g id="line2d_11">
      <g>
       <use style="stroke:#000000;stroke-width:0.5;" x="311.745549195" xlink:href="#m93b0483c22" y="242.598780937"/>
      </g>
     </g>
     <g id="line2d_12">
      <g>
       <use style="stroke:#000000;stroke-width:0.5;" x="311.745549195" xlink:href="#m741efc42ff" y="12.1987809375"/>
      </g>
     </g>
     <g id="text_5">
      <!-- 5000 -->
      <defs>
       <path d="
M26.6094 43.7969
Q31.4531 43.7969 35.625 42.4531
Q39.7969 41.1094 42.8906 38.4688
Q46 35.8438 47.75 31.9375
Q49.5156 28.0312 49.5156 22.9062
Q49.5156 17.3281 47.8438 12.8906
Q46.1875 8.45312 42.9219 5.375
Q39.6562 2.29688 34.8438 0.65625
Q30.0312 -0.984375 23.7812 -0.984375
Q21.2969 -0.984375 18.875 -0.734375
Q16.4531 -0.484375 14.2344 -0.015625
Q12.0156 0.4375 10.0156 1.17188
Q8.01562 1.90625 6.39062 2.875
L6.39062 11.2812
Q8.01562 10.1562 10.1875 9.28125
Q12.3594 8.40625 14.75 7.8125
Q17.1406 7.23438 19.5469 6.90625
Q21.9688 6.59375 24.0312 6.59375
Q27.875 6.59375 30.9062 7.5
Q33.9375 8.40625 36.0312 10.2969
Q38.1406 12.2031 39.25 15.0781
Q40.375 17.9688 40.375 21.9219
Q40.375 28.9062 36.0781 32.5938
Q31.7812 36.2812 23.5781 36.2812
Q22.2656 36.2812 20.7188 36.1562
Q19.1875 36.0312 17.6406 35.8281
Q16.1094 35.6406 14.7188 35.4219
Q13.3281 35.2031 12.3125 35.0156
L7.90625 37.7969
L10.5938 71.3906
L44.2812 71.3906
L44.2812 63.2812
L18.3125 63.2812
L16.4062 42.8281
Q17.9688 43.1094 20.5312 43.4531
Q23.0938 43.7969 26.6094 43.7969" id="WenQuanYiMicroHei-35"/>
      </defs>
      <g transform="translate(301.288015133 254.194179062)scale(0.09996 -0.09996)">
       <use xlink:href="#WenQuanYiMicroHei-35"/>
       <use x="55.078125" xlink:href="#WenQuanYiMicroHei-30"/>
       <use x="110.15625" xlink:href="#WenQuanYiMicroHei-30"/>
       <use x="165.234375" xlink:href="#WenQuanYiMicroHei-30"/>
      </g>
     </g>
    </g>
    <g id="xtick_6">
     <g id="line2d_13">
      <g>
       <use style="stroke:#000000;stroke-width:0.5;" x="366.344375027" xlink:href="#m93b0483c22" y="242.598780937"/>
      </g>
     </g>
     <g id="line2d_14">
      <g>
       <use style="stroke:#000000;stroke-width:0.5;" x="366.344375027" xlink:href="#m741efc42ff" y="12.1987809375"/>
      </g>
     </g>
     <g id="text_6">
      <!-- 6000 -->
      <defs>
       <path d="
M5.51562 30.5156
Q5.51562 35.6406 6.03125 40.7188
Q6.54688 45.7969 7.82812 50.4531
Q9.125 55.125 11.375 59.125
Q13.625 63.1406 17.0938 66.0938
Q20.5625 69.0469 25.3906 70.7188
Q30.2188 72.4062 36.7188 72.4062
Q37.6406 72.4062 38.7656 72.3594
Q39.8906 72.3125 41.0312 72.1875
Q42.1875 72.0781 43.2344 71.9062
Q44.2812 71.7344 45.125 71.4844
L45.125 63.9219
Q43.4062 64.5 41.25 64.7969
Q39.1094 65.0938 37.0156 65.0938
Q32.625 65.0938 29.2656 64.0312
Q25.9219 62.9844 23.4844 61.0781
Q21.0469 59.1875 19.4062 56.5469
Q17.7812 53.9062 16.75 50.7031
Q15.7188 47.5156 15.2344 43.8906
Q14.75 40.2812 14.5938 36.375
L15.1875 36.375
Q16.1562 38.1406 17.5469 39.6719
Q18.9531 41.2188 20.7969 42.3125
Q22.6562 43.4062 24.9688 44.0312
Q27.2969 44.6719 30.1719 44.6719
Q34.8125 44.6719 38.5625 43.2344
Q42.3281 41.7969 44.9688 39.0156
Q47.6094 36.2344 49.0469 32.2031
Q50.4844 28.1719 50.4844 23
Q50.4844 17.4375 48.9688 12.9844
Q47.4688 8.54688 44.625 5.4375
Q41.7969 2.34375 37.7969 0.671875
Q33.7969 -0.984375 28.8125 -0.984375
Q23.9219 -0.984375 19.6406 0.921875
Q15.375 2.82812 12.25 6.73438
Q9.125 10.6406 7.3125 16.5469
Q5.51562 22.4688 5.51562 30.5156
M28.7188 6.5
Q31.6406 6.5 34.0469 7.5
Q36.4688 8.5 38.2188 10.5156
Q39.9844 12.5469 40.9375 15.6406
Q41.8906 18.75 41.8906 23
Q41.8906 26.4219 41.0781 29.125
Q40.2812 31.8438 38.6719 33.7344
Q37.0625 35.6406 34.6406 36.6719
Q32.2344 37.7031 29 37.7031
Q25.7344 37.7031 23.0156 36.5469
Q20.3125 35.4062 18.4062 33.5625
Q16.5 31.7344 15.4531 29.3906
Q14.4062 27.0469 14.4062 24.7031
Q14.4062 21.4375 15.3125 18.1875
Q16.2188 14.9375 18 12.3438
Q19.7812 9.76562 22.4531 8.125
Q25.1406 6.5 28.7188 6.5" id="WenQuanYiMicroHei-36"/>
      </defs>
      <g transform="translate(355.843108464 254.194179062)scale(0.09996 -0.09996)">
       <use xlink:href="#WenQuanYiMicroHei-36"/>
       <use x="55.078125" xlink:href="#WenQuanYiMicroHei-30"/>
       <use x="110.15625" xlink:href="#WenQuanYiMicroHei-30"/>
       <use x="165.234375" xlink:href="#WenQuanYiMicroHei-30"/>
      </g>
     </g>
    </g>
    <g id="xtick_7">
     <g id="line2d_15">
      <g>
       <use style="stroke:#000000;stroke-width:0.5;" x="420.943200859" xlink:href="#m93b0483c22" y="242.598780937"/>
      </g>
     </g>
     <g id="line2d_16">
      <g>
       <use style="stroke:#000000;stroke-width:0.5;" x="420.943200859" xlink:href="#m741efc42ff" y="12.1987809375"/>
      </g>
     </g>
     <g id="text_7">
      <!-- 7000 -->
      <defs>
       <path d="
M13.7188 0
L41.2188 63.2812
L4.39062 63.2812
L4.39062 71.3906
L50.2969 71.3906
L50.2969 64.3125
L23.1875 0
z
" id="WenQuanYiMicroHei-37"/>
      </defs>
      <g transform="translate(410.385706796 254.194179062)scale(0.09996 -0.09996)">
       <use xlink:href="#WenQuanYiMicroHei-37"/>
       <use x="55.078125" xlink:href="#WenQuanYiMicroHei-30"/>
       <use x="110.15625" xlink:href="#WenQuanYiMicroHei-30"/>
       <use x="165.234375" xlink:href="#WenQuanYiMicroHei-30"/>
      </g>
     </g>
    </g>
    <g id="xtick_8">
     <g id="line2d_17">
      <g>
       <use style="stroke:#000000;stroke-width:0.5;" x="475.54202669" xlink:href="#m93b0483c22" y="242.598780937"/>
      </g>
     </g>
     <g id="line2d_18">
      <g>
       <use style="stroke:#000000;stroke-width:0.5;" x="475.54202669" xlink:href="#m741efc42ff" y="12.1987809375"/>
      </g>
     </g>
     <g id="text_8">
      <!-- 8000 -->
      <defs>
       <path d="
M27.5938 72.5156
Q31.6875 72.5156 35.3281 71.4375
Q38.9688 70.3594 41.7188 68.2031
Q44.4844 66.0625 46.0938 62.8438
Q47.7031 59.625 47.7031 55.3281
Q47.7031 52.0469 46.7188 49.4062
Q45.75 46.7812 44.0312 44.6562
Q42.3281 42.5312 39.9844 40.8438
Q37.6406 39.1562 34.9062 37.7969
Q37.75 36.2812 40.4531 34.4219
Q43.1719 32.5625 45.2812 30.25
Q47.4062 27.9375 48.7031 25.0469
Q50 22.1719 50 18.6094
Q50 14.1094 48.3594 10.4688
Q46.7344 6.84375 43.7812 4.29688
Q40.8281 1.76562 36.6875 0.390625
Q32.5625 -0.984375 27.5938 -0.984375
Q22.2188 -0.984375 18.0469 0.328125
Q13.875 1.65625 11.0156 4.125
Q8.15625 6.59375 6.65625 10.1562
Q5.17188 13.7188 5.17188 18.2188
Q5.17188 21.875 6.26562 24.7969
Q7.375 27.7344 9.21875 30.0781
Q11.0781 32.4219 13.6094 34.2188
Q16.1562 36.0312 19 37.4062
Q16.6094 38.9219 14.5 40.7031
Q12.4062 42.4844 10.8594 44.6719
Q9.32812 46.875 8.42188 49.5312
Q7.51562 52.2031 7.51562 55.4219
Q7.51562 59.6719 9.15625 62.8594
Q10.7969 66.0625 13.5781 68.2031
Q16.3594 70.3594 20 71.4375
Q23.6406 72.5156 27.5938 72.5156
M13.9219 18.1094
Q13.9219 15.5312 14.7031 13.3594
Q15.4844 11.1875 17.1406 9.64062
Q18.7969 8.10938 21.3281 7.25
Q23.875 6.39062 27.3906 6.39062
Q30.8125 6.39062 33.4219 7.25
Q36.0312 8.10938 37.7812 9.6875
Q39.5469 11.2812 40.4219 13.5156
Q41.3125 15.7656 41.3125 18.5
Q41.3125 21.0469 40.3594 23.0938
Q39.4062 25.1406 37.625 26.8906
Q35.8438 28.6562 33.3438 30.2188
Q30.8594 31.7812 27.7812 33.2969
L26.3125 33.9844
Q20.1719 31.0625 17.0469 27.2656
Q13.9219 23.4844 13.9219 18.1094
M27.4844 65.0938
Q22.3125 65.0938 19.2656 62.5
Q16.2188 59.9062 16.2188 54.9844
Q16.2188 52.2031 17.0625 50.1875
Q17.9219 48.1875 19.4375 46.625
Q20.9531 45.0625 23.0781 43.8125
Q25.2031 42.5781 27.6875 41.4062
Q30.0312 42.4844 32.1094 43.75
Q34.1875 45.0156 35.7188 46.625
Q37.25 48.25 38.125 50.2969
Q39.0156 52.3438 39.0156 54.9844
Q39.0156 59.9062 35.9375 62.5
Q32.8594 65.0938 27.4844 65.0938" id="WenQuanYiMicroHei-38"/>
      </defs>
      <g transform="translate(465.023579503 254.194179062)scale(0.09996 -0.09996)">
       <use xlink:href="#WenQuanYiMicroHei-38"/>
       <use x="55.078125" xlink:href="#WenQuanYiMicroHei-30"/>
       <use x="110.15625" xlink:href="#WenQuanYiMicroHei-30"/>
       <use x="165.234375" xlink:href="#WenQuanYiMicroHei-30"/>
      </g>
     </g>
    </g>
    <g id="text_9">
     <!-- 长度 -->
     <defs>
      <path d="
M5.46875 44.9219
L25.7812 44.9219
L25.7812 80.4688
L33.5938 80.4688
L33.5938 44.9219
L92.1875 44.9219
L92.1875 37.5
L55.8594 37.5
Q65.625 12.8906 92.1875 2.73438
L87.5 -5.46875
Q57.4219 7.03125 47.2656 37.5
L33.5938 37.5
L33.5938 1.5625
Q42.1875 6.25 48.4375 11.3281
L50 3.90625
Q41.4062 -2.73438 29.2969 -8.59375
L25.7812 -4.6875
L25.7812 37.5
L5.46875 37.5
z

M73.8281 80.0781
L80.0781 75
Q66.4062 58.2031 46.4844 48.4375
L42.1875 55.4688
Q59.7656 64.0625 73.8281 80.0781" id="WenQuanYiMicroHei-957f"/>
      <path d="
M53.9062 81.25
Q56.25 77.7344 57.8125 73.0469
L92.5781 73.0469
L92.5781 66.0156
L21.4844 66.0156
L21.4844 35.5469
Q21.4844 10.5469 11.3281 -8.98438
L3.90625 -4.29688
Q9.375 7.03125 11.5156 16.2031
Q13.6719 25.3906 13.6719 38.2812
L13.6719 73.0469
L49.2188 73.0469
Q48.0469 76.1719 46.0938 78.9062
z

M23.4375 55.8594
L38.2812 55.8594
L38.2812 63.2812
L45.7031 63.2812
L45.7031 55.8594
L69.5312 55.8594
L69.5312 63.2812
L76.9531 63.2812
L76.9531 55.8594
L91.7969 55.8594
L91.7969 49.2188
L76.9531 49.2188
L76.9531 33.5938
L38.2812 33.5938
L38.2812 49.2188
L23.4375 49.2188
z

M69.5312 40.2344
L69.5312 49.2188
L45.7031 49.2188
L45.7031 40.2344
z

M27.3438 26.9531
L85.5469 26.9531
L85.5469 21.0938
Q78.9062 11.3281 66.4062 4.29688
Q76.9531 0 95.3125 -0.78125
L92.9688 -8.59375
Q70.7031 -7.8125 57.0312 -0.390625
Q42.5781 -6.25 23.8281 -9.375
L19.1406 -2.34375
Q36.7188 0 48.8281 4.29688
Q39.8438 10.1562 32.4219 20.3125
L27.3438 20.3125
z

M42.1875 20.3125
Q49.6094 12.1094 57.8125 8.20312
Q67.9688 13.2812 74.2188 20.3125
z
" id="WenQuanYiMicroHei-5ea6"/>
     </defs>
     <g transform="translate(253.336610625 269.191740937)scale(0.09996 -0.09996)">
      <use xlink:href="#WenQuanYiMicroHei-957f"/>
      <use x="100.0" xlink:href="#WenQuanYiMicroHei-5ea6"/>
     </g>
    </g>
   </g>
   <g id="matplotlib.axis_2">
    <g id="ytick_1">
     <g id="line2d_19">
      <defs>
       <path d="
M0 0
L4 0" id="m728421d6d4" style="stroke:#000000;stroke-width:0.5;"/>
      </defs>
      <g>
       <use style="stroke:#000000;stroke-width:0.5;" x="39.62500125" xlink:href="#m728421d6d4" y="242.598780937"/>
      </g>
     </g>
     <g id="line2d_20">
      <defs>
       <path d="
M0 0
L-4 0" id="mcb0005524f" style="stroke:#000000;stroke-width:0.5;"/>
      </defs>
      <g>
       <use style="stroke:#000000;stroke-width:0.5;" x="486.02500125" xlink:href="#mcb0005524f" y="242.598780937"/>
      </g>
     </g>
     <g id="text_10">
      <!-- 0.0 -->
      <defs>
       <path d="
M7.17188 5.42188
Q7.17188 7.28125 7.65625 8.5625
Q8.15625 9.85938 8.98438 10.6562
Q9.8125 11.4688 10.9375 11.8281
Q12.0625 12.2031 13.375 12.2031
Q14.6562 12.2031 15.7969 11.8281
Q16.9375 11.4688 17.7656 10.6562
Q18.6094 9.85938 19.0938 8.5625
Q19.5781 7.28125 19.5781 5.42188
Q19.5781 3.60938 19.0938 2.3125
Q18.6094 1.03125 17.7656 0.1875
Q16.9375 -0.640625 15.7969 -1.03125
Q14.6562 -1.42188 13.375 -1.42188
Q12.0625 -1.42188 10.9375 -1.03125
Q9.8125 -0.640625 8.98438 0.1875
Q8.15625 1.03125 7.65625 2.3125
Q7.17188 3.60938 7.17188 5.42188" id="WenQuanYiMicroHei-2e"/>
      </defs>
      <g transform="translate(22.88010125 245.195398125)scale(0.09996 -0.09996)">
       <use xlink:href="#WenQuanYiMicroHei-30"/>
       <use x="55.078125" xlink:href="#WenQuanYiMicroHei-2e"/>
       <use x="81.884765625" xlink:href="#WenQuanYiMicroHei-30"/>
      </g>
     </g>
    </g>
    <g id="ytick_2">
     <g id="line2d_21">
      <g>
       <use style="stroke:#000000;stroke-width:0.5;" x="39.62500125" xlink:href="#m728421d6d4" y="209.684495223"/>
      </g>
     </g>
     <g id="line2d_22">
      <g>
       <use style="stroke:#000000;stroke-width:0.5;" x="486.02500125" xlink:href="#mcb0005524f" y="209.684495223"/>
      </g>
     </g>
     <g id="text_11">
      <!-- 0.5 -->
      <g transform="translate(22.96756625 212.281112411)scale(0.09996 -0.09996)">
       <use xlink:href="#WenQuanYiMicroHei-30"/>
       <use x="55.078125" xlink:href="#WenQuanYiMicroHei-2e"/>
       <use x="81.884765625" xlink:href="#WenQuanYiMicroHei-35"/>
      </g>
     </g>
    </g>
    <g id="ytick_3">
     <g id="line2d_23">
      <g>
       <use style="stroke:#000000;stroke-width:0.5;" x="39.62500125" xlink:href="#m728421d6d4" y="176.770209509"/>
      </g>
     </g>
     <g id="line2d_24">
      <g>
       <use style="stroke:#000000;stroke-width:0.5;" x="486.02500125" xlink:href="#mcb0005524f" y="176.770209509"/>
      </g>
     </g>
     <g id="text_12">
      <!-- 1.0 -->
      <g transform="translate(23.27057 179.366826696)scale(0.09996 -0.09996)">
       <use xlink:href="#WenQuanYiMicroHei-31"/>
       <use x="55.078125" xlink:href="#WenQuanYiMicroHei-2e"/>
       <use x="81.884765625" xlink:href="#WenQuanYiMicroHei-30"/>
      </g>
     </g>
    </g>
    <g id="ytick_4">
     <g id="line2d_25">
      <g>
       <use style="stroke:#000000;stroke-width:0.5;" x="39.62500125" xlink:href="#m728421d6d4" y="143.855923795"/>
      </g>
     </g>
     <g id="line2d_26">
      <g>
       <use style="stroke:#000000;stroke-width:0.5;" x="486.02500125" xlink:href="#mcb0005524f" y="143.855923795"/>
      </g>
     </g>
     <g id="text_13">
      <!-- 1.5 -->
      <g transform="translate(23.358035 146.452540982)scale(0.09996 -0.09996)">
       <use xlink:href="#WenQuanYiMicroHei-31"/>
       <use x="55.078125" xlink:href="#WenQuanYiMicroHei-2e"/>
       <use x="81.884765625" xlink:href="#WenQuanYiMicroHei-35"/>
      </g>
     </g>
    </g>
    <g id="ytick_5">
     <g id="line2d_27">
      <g>
       <use style="stroke:#000000;stroke-width:0.5;" x="39.62500125" xlink:href="#m728421d6d4" y="110.94163808"/>
      </g>
     </g>
     <g id="line2d_28">
      <g>
       <use style="stroke:#000000;stroke-width:0.5;" x="486.02500125" xlink:href="#mcb0005524f" y="110.94163808"/>
      </g>
     </g>
     <g id="text_14">
      <!-- 2.0 -->
      <g transform="translate(22.87073 113.538255268)scale(0.09996 -0.09996)">
       <use xlink:href="#WenQuanYiMicroHei-32"/>
       <use x="55.078125" xlink:href="#WenQuanYiMicroHei-2e"/>
       <use x="81.884765625" xlink:href="#WenQuanYiMicroHei-30"/>
      </g>
     </g>
    </g>
    <g id="ytick_6">
     <g id="line2d_29">
      <g>
       <use style="stroke:#000000;stroke-width:0.5;" x="39.62500125" xlink:href="#m728421d6d4" y="78.0273523661"/>
      </g>
     </g>
     <g id="line2d_30">
      <g>
       <use style="stroke:#000000;stroke-width:0.5;" x="486.02500125" xlink:href="#mcb0005524f" y="78.0273523661"/>
      </g>
     </g>
     <g id="text_15">
      <!-- 2.5 -->
      <g transform="translate(22.958195 80.6239695536)scale(0.09996 -0.09996)">
       <use xlink:href="#WenQuanYiMicroHei-32"/>
       <use x="55.078125" xlink:href="#WenQuanYiMicroHei-2e"/>
       <use x="81.884765625" xlink:href="#WenQuanYiMicroHei-35"/>
      </g>
     </g>
    </g>
    <g id="ytick_7">
     <g id="line2d_31">
      <g>
       <use style="stroke:#000000;stroke-width:0.5;" x="39.62500125" xlink:href="#m728421d6d4" y="45.1130666518"/>
      </g>
     </g>
     <g id="line2d_32">
      <g>
       <use style="stroke:#000000;stroke-width:0.5;" x="486.02500125" xlink:href="#mcb0005524f" y="45.1130666518"/>
      </g>
     </g>
     <g id="text_16">
      <!-- 3.0 -->
      <g transform="translate(22.8020075 47.7096838393)scale(0.09996 -0.09996)">
       <use xlink:href="#WenQuanYiMicroHei-33"/>
       <use x="55.078125" xlink:href="#WenQuanYiMicroHei-2e"/>
       <use x="81.884765625" xlink:href="#WenQuanYiMicroHei-30"/>
      </g>
     </g>
    </g>
    <g id="ytick_8">
     <g id="line2d_33">
      <g>
       <use style="stroke:#000000;stroke-width:0.5;" x="39.62500125" xlink:href="#m728421d6d4" y="12.1987809375"/>
      </g>
     </g>
     <g id="line2d_34">
      <g>
       <use style="stroke:#000000;stroke-width:0.5;" x="486.02500125" xlink:href="#mcb0005524f" y="12.1987809375"/>
      </g>
     </g>
     <g id="text_17">
      <!-- 3.5 -->
      <g transform="translate(22.8894725 14.795398125)scale(0.09996 -0.09996)">
       <use xlink:href="#WenQuanYiMicroHei-33"/>
       <use x="55.078125" xlink:href="#WenQuanYiMicroHei-2e"/>
       <use x="81.884765625" xlink:href="#WenQuanYiMicroHei-35"/>
      </g>
     </g>
    </g>
    <g id="text_18">
     <!-- 计算时间(us/point) -->
     <defs>
      <path d="
M42 0
L42 34.5156
Q42 40.875 39.4219 44.0469
Q36.8594 47.2188 31.3906 47.2188
Q27.4375 47.2188 24.75 45.9375
Q22.0781 44.6719 20.4375 42.1875
Q18.7969 39.7031 18.0938 36.0781
Q17.3906 32.4688 17.3906 27.7812
L17.3906 0
L8.5 0
L8.5 53.6094
L15.7188 53.6094
L17 46.3906
L17.4844 46.3906
Q18.7031 48.4844 20.3906 50.0156
Q22.0781 51.5625 24.0781 52.5781
Q26.0781 53.6094 28.3125 54.0938
Q30.5625 54.5938 32.9062 54.5938
Q41.8438 54.5938 46.3594 49.9219
Q50.875 45.2656 50.875 35.0156
L50.875 0
z
" id="WenQuanYiMicroHei-6e"/>
      <path d="
M52.2031 26.9062
Q52.2031 20.2188 50.5625 15.0156
Q48.9219 9.8125 45.875 6.26562
Q42.8281 2.73438 38.4688 0.875
Q34.125 -0.984375 28.7188 -0.984375
Q23.6875 -0.984375 19.4375 0.875
Q15.1875 2.73438 12.0781 6.26562
Q8.98438 9.8125 7.25 15.0156
Q5.51562 20.2188 5.51562 26.9062
Q5.51562 33.5469 7.15625 38.6875
Q8.79688 43.8438 11.8125 47.375
Q14.8438 50.9219 19.2031 52.75
Q23.5781 54.5938 29 54.5938
Q34.0312 54.5938 38.2812 52.75
Q42.5312 50.9219 45.625 47.375
Q48.7344 43.8438 50.4688 38.6875
Q52.2031 33.5469 52.2031 26.9062
M14.7031 26.9062
Q14.7031 16.7031 18.0469 11.5469
Q21.3906 6.39062 28.9062 6.39062
Q36.4219 6.39062 39.7188 11.5469
Q43.0156 16.7031 43.0156 26.9062
Q43.0156 37.1094 39.6719 42.1562
Q36.3281 47.2188 28.8125 47.2188
Q21.2969 47.2188 18 42.1562
Q14.7031 37.1094 14.7031 26.9062" id="WenQuanYiMicroHei-6f"/>
      <path d="
M36.2812 71.3906
L9.71875 0
L0.984375 0
L27.5938 71.3906
z
" id="WenQuanYiMicroHei-2f"/>
      <path d="
M4 27.3906
Q4 33.5 4.875 39.4219
Q5.76562 45.3594 7.5625 50.9531
Q9.375 56.5469 12.125 61.6875
Q14.8906 66.8438 18.7031 71.3906
L27.0938 71.3906
Q20.2656 61.9688 16.7188 50.6875
Q13.1875 39.4062 13.1875 27.4844
Q13.1875 21.6875 14.0781 15.9219
Q14.9844 10.1562 16.7188 4.64062
Q18.4531 -0.875 21.0469 -6.04688
Q23.6406 -11.2344 27 -15.8281
L18.7031 -15.8281
Q14.8906 -11.4219 12.125 -6.39062
Q9.375 -1.375 7.5625 4.125
Q5.76562 9.625 4.875 15.4844
Q4 21.3438 4 27.3906" id="WenQuanYiMicroHei-28"/>
      <path d="
M26.125 27.3906
Q26.125 21.3438 25.2344 15.4844
Q24.3594 9.625 22.5312 4.125
Q20.7031 -1.375 17.9375 -6.39062
Q15.1875 -11.4219 11.375 -15.8281
L3.07812 -15.8281
Q6.45312 -11.2344 9.03125 -6.04688
Q11.625 -0.875 13.375 4.64062
Q15.1406 10.1562 16.0156 15.9219
Q16.8906 21.6875 16.8906 27.4844
Q16.8906 39.4062 13.375 50.6875
Q9.85938 61.9688 2.98438 71.3906
L11.375 71.3906
Q15.1875 66.8438 17.9375 61.6875
Q20.7031 56.5469 22.5312 50.9531
Q24.3594 45.3594 25.2344 39.4219
Q26.125 33.5 26.125 27.3906" id="WenQuanYiMicroHei-29"/>
      <path d="
M43.2188 0
L41.8906 7.17188
L41.4062 7.17188
Q40.1875 5.07812 38.5 3.53125
Q36.8125 2 34.8125 1
Q32.8125 0 30.5625 -0.484375
Q28.3281 -0.984375 25.9844 -0.984375
Q21.5312 -0.984375 18.1562 0.140625
Q14.7969 1.26562 12.5469 3.65625
Q10.2969 6.0625 9.15625 9.76562
Q8.01562 13.4844 8.01562 18.6094
L8.01562 53.6094
L16.8906 53.6094
L16.8906 19.0938
Q16.8906 12.75 19.4844 9.5625
Q22.0781 6.39062 27.4844 6.39062
Q31.4531 6.39062 34.125 7.65625
Q36.8125 8.9375 38.4531 11.4062
Q40.0938 13.875 40.7969 17.4844
Q41.5 21.0938 41.5 25.7812
L41.5 53.6094
L50.3906 53.6094
L50.3906 0
z
" id="WenQuanYiMicroHei-75"/>
      <path d="
M24.7031 6.29688
Q25.5938 6.29688 26.6875 6.39062
Q27.7812 6.5 28.7969 6.64062
Q29.8281 6.78125 30.6875 6.96875
Q31.5469 7.17188 31.9844 7.32812
L31.9844 0.59375
Q31.3438 0.296875 30.3594 0
Q29.3906 -0.296875 28.2188 -0.515625
Q27.0469 -0.734375 25.7812 -0.859375
Q24.5156 -0.984375 23.2969 -0.984375
Q20.2656 -0.984375 17.6719 -0.1875
Q15.0938 0.59375 13.2031 2.48438
Q11.3281 4.39062 10.25 7.64062
Q9.1875 10.8906 9.1875 15.8281
L9.1875 46.9219
L1.60938 46.9219
L1.60938 50.875
L9.1875 54.6875
L12.9844 65.9219
L18.1094 65.9219
L18.1094 53.6094
L31.5938 53.6094
L31.5938 46.9219
L18.1094 46.9219
L18.1094 15.8281
Q18.1094 11.0781 19.6406 8.6875
Q21.1875 6.29688 24.7031 6.29688" id="WenQuanYiMicroHei-74"/>
      <path d="
M40.5781 14.7031
Q40.5781 10.7969 39.1562 7.85938
Q37.75 4.9375 35.0781 2.95312
Q32.4219 0.984375 28.6562 0
Q24.9062 -0.984375 20.2188 -0.984375
Q14.8906 -0.984375 11.0781 -0.125
Q7.28125 0.734375 4.39062 2.39062
L4.39062 10.5
Q5.90625 9.71875 7.76562 8.95312
Q9.625 8.20312 11.6719 7.60938
Q13.7188 7.03125 15.8906 6.65625
Q18.0625 6.29688 20.2188 6.29688
Q23.3906 6.29688 25.6094 6.82812
Q27.8281 7.375 29.2188 8.375
Q30.6094 9.375 31.25 10.8125
Q31.8906 12.25 31.8906 14.0156
Q31.8906 15.5312 31.3906 16.75
Q30.9062 17.9688 29.6094 19.1562
Q28.3281 20.3594 26.0781 21.5781
Q23.8281 22.7969 20.3125 24.3125
Q16.7969 25.8281 13.9844 27.2969
Q11.1875 28.7656 9.23438 30.5625
Q7.28125 32.375 6.21875 34.7344
Q5.17188 37.1094 5.17188 40.375
Q5.17188 43.7969 6.51562 46.4531
Q7.85938 49.125 10.2969 50.9219
Q12.75 52.7344 16.1562 53.6562
Q19.5781 54.5938 23.7812 54.5938
Q28.5156 54.5938 32.4375 53.5625
Q36.375 52.5469 39.8906 50.875
L36.8125 43.7031
Q33.6406 45.125 30.2969 46.1719
Q26.9531 47.2188 23.4844 47.2188
Q18.5 47.2188 16.1094 45.5781
Q13.7188 43.9531 13.7188 40.9219
Q13.7188 39.2031 14.2812 37.9375
Q14.8438 36.6719 16.2031 35.5469
Q17.5781 34.4219 19.875 33.2656
Q22.1719 32.125 25.5938 30.7188
Q29.1094 29.25 31.8594 27.7812
Q34.625 26.3125 36.5781 24.4844
Q38.5312 22.6562 39.5469 20.3125
Q40.5781 17.9688 40.5781 14.7031" id="WenQuanYiMicroHei-73"/>
      <path d="
M32.7188 -0.984375
Q29.8281 -0.984375 27.4844 -0.34375
Q25.1406 0.296875 23.2656 1.34375
Q21.3906 2.39062 19.9375 3.79688
Q18.5 5.21875 17.3906 6.78125
L16.7969 6.78125
Q16.9375 5.125 17.0938 3.60938
Q17.1875 2.34375 17.2812 1
Q17.3906 -0.34375 17.3906 -1.125
L17.3906 -24.0312
L8.5 -24.0312
L8.5 53.6094
L15.7188 53.6094
L17 46.3906
L17.3906 46.3906
Q18.5 48.0938 19.9219 49.5781
Q21.3438 51.0781 23.2188 52.1719
Q25.0938 53.2656 27.4375 53.9219
Q29.7812 54.5938 32.7188 54.5938
Q37.3125 54.5938 41.0625 52.8281
Q44.8281 51.0781 47.4844 47.5781
Q50.1406 44.0938 51.6094 38.9062
Q53.0781 33.7344 53.0781 26.9062
Q53.0781 20.0156 51.6094 14.8125
Q50.1406 9.625 47.4844 6.10938
Q44.8281 2.59375 41.0625 0.796875
Q37.3125 -0.984375 32.7188 -0.984375
M31 47.2188
Q27.2969 47.2188 24.7344 46.0938
Q22.1719 44.9688 20.5781 42.6719
Q19 40.375 18.2344 36.9531
Q17.4844 33.5469 17.3906 28.9062
L17.3906 26.9062
Q17.3906 21.9688 18.0469 18.1406
Q18.7031 14.3125 20.2812 11.6875
Q21.875 9.07812 24.5156 7.73438
Q27.1562 6.39062 31.1094 6.39062
Q37.7031 6.39062 40.7969 11.7188
Q43.8906 17.0469 43.8906 27
Q43.8906 37.1562 40.7969 42.1875
Q37.7031 47.2188 31 47.2188" id="WenQuanYiMicroHei-70"/>
      <path d="
M25 82.0312
Q30.4688 75.7812 33.9844 68.3594
L26.9531 64.0625
Q23.8281 71.4844 18.3594 77.7344
z

M41.7969 77.3438
L89.8438 77.3438
L89.8438 1.5625
Q89.8438 -3.90625 87.5 -6.64062
Q85.1562 -9.375 80.8594 -9.375
Q77.7344 -9.375 73.4375 -8.98438
L71.4844 -0.78125
Q76.1719 -1.5625 79.2969 -1.5625
Q82.0312 -1.5625 82.0312 3.90625
L82.0312 70.3125
L41.7969 70.3125
z

M10.1562 63.2812
L17.9688 63.2812
L17.9688 -8.98438
L10.1562 -8.98438
z

M67.5781 55.0781
L67.5781 8.59375
L32.0312 8.59375
L32.0312 55.0781
z

M60.1562 35.5469
L60.1562 48.0469
L39.4531 48.0469
L39.4531 35.5469
z

M39.4531 28.125
L39.4531 15.2344
L60.1562 15.2344
L60.1562 28.125
z
" id="WenQuanYiMicroHei-95f4"/>
      <path d="
M42.9688 60.5469
L75 60.5469
L75 80.8594
L82.8125 80.8594
L82.8125 60.5469
L94.5312 60.5469
L94.5312 53.125
L82.8125 53.125
L82.8125 1.95312
Q82.8125 -3.90625 80.6562 -6.25
Q78.5156 -8.59375 73.0469 -8.59375
Q66.7969 -8.59375 60.9375 -7.03125
L59.375 1.17188
Q65.625 -0.78125 71.875 -0.78125
Q73.4375 -0.78125 74.2188 0
Q75 0.78125 75 3.90625
L75 53.125
L42.9688 53.125
z

M54.2969 46.4844
Q61.7188 34.375 66.7969 20.3125
L58.9844 16.7969
Q54.2969 31.6406 47.2656 43.3594
z

M39.4531 73.4375
L39.4531 4.29688
L32.0312 4.29688
L32.0312 9.76562
L14.8438 9.76562
L14.8438 1.17188
L7.42188 1.17188
L7.42188 73.4375
z

M14.8438 45.3125
L32.0312 45.3125
L32.0312 66.4062
L14.8438 66.4062
z

M14.8438 16.7969
L32.0312 16.7969
L32.0312 38.2812
L14.8438 38.2812
z
" id="WenQuanYiMicroHei-65f6"/>
      <path d="
M19.9219 80.8594
Q26.5625 73.0469 30.8594 64.4531
L23.4375 60.1562
Q19.5312 68.75 12.8906 76.5625
z

M5.07812 51.9531
L26.1719 51.9531
L26.1719 6.64062
L34.375 15.625
L39.4531 10.9375
Q33.9844 3.51562 24.6094 -3.90625
L18.75 1.17188
L18.75 44.9219
L5.07812 44.9219
z

M32.0312 50.3906
L59.7656 50.3906
L59.7656 80.8594
L67.5781 80.8594
L67.5781 50.3906
L94.9219 50.3906
L94.9219 42.9688
L67.5781 42.9688
L67.5781 -9.76562
L59.7656 -9.76562
L59.7656 42.9688
L32.0312 42.9688
z
" id="WenQuanYiMicroHei-8ba1"/>
      <path d="
M17.3906 0
L8.5 0
L8.5 53.6094
L17.3906 53.6094
z

M7.8125 68.1094
Q7.8125 71.0469 9.29688 72.3594
Q10.7969 73.6875 12.9844 73.6875
Q14.0625 73.6875 15.0156 73.3594
Q15.9688 73.0469 16.6719 72.3594
Q17.3906 71.6875 17.7969 70.625
Q18.2188 69.5781 18.2188 68.1094
Q18.2188 65.2812 16.6719 63.8906
Q15.1406 62.5 12.9844 62.5
Q10.7969 62.5 9.29688 63.8594
Q7.8125 65.2344 7.8125 68.1094" id="WenQuanYiMicroHei-69"/>
      <path d="
M21.4844 81.6406
L29.2969 79.2969
L26.9531 75
L49.6094 75
L49.6094 68.3594
L37.1094 68.3594
Q40.2344 65.2344 42.9688 62.1094
L35.9375 58.2031
Q32.8125 63.2812 28.5156 68.3594
L22.2656 68.3594
Q17.5781 62.1094 11.3281 57.4219
L5.07812 62.1094
Q16.7969 71.0938 21.4844 81.6406
M62.1094 81.6406
L69.5312 79.2969
Q68.75 77.3438 67.5781 75
L94.5312 75
L94.5312 68.3594
L78.9062 68.3594
L82.4219 64.0625
L75.3906 60.1562
Q73.0469 64.0625 69.9219 68.3594
L63.2812 68.3594
Q59.375 62.8906 54.2969 58.5938
L47.6562 63.2812
Q57.4219 71.4844 62.1094 81.6406
M16.0156 57.4219
L84.7656 57.4219
L84.7656 19.5312
L69.5312 19.5312
L69.5312 13.6719
L94.9219 13.6719
L94.9219 6.64062
L69.5312 6.64062
L69.5312 -8.59375
L61.7188 -8.59375
L61.7188 6.64062
L38.2812 6.64062
Q35.9375 -2.73438 17.1875 -8.98438
L11.7188 -1.5625
Q26.9531 1.95312 29.6875 6.64062
L5.07812 6.64062
L5.07812 13.6719
L30.8594 13.6719
L30.8594 19.5312
L16.0156 19.5312
z

M23.4375 46.4844
L77.3438 46.4844
L77.3438 50.7812
L23.4375 50.7812
z

M23.4375 36.3281
L77.3438 36.3281
L77.3438 40.625
L23.4375 40.625
z

M23.4375 26.1719
L77.3438 26.1719
L77.3438 30.4688
L23.4375 30.4688
z

M61.7188 13.6719
L61.7188 19.5312
L38.6719 19.5312
L38.6719 13.6719
z
" id="WenQuanYiMicroHei-7b97"/>
     </defs>
     <g transform="translate(15.39984375 168.75332625)rotate(-90.0)scale(0.09996 -0.09996)">
      <use xlink:href="#WenQuanYiMicroHei-8ba1"/>
      <use x="100.0" xlink:href="#WenQuanYiMicroHei-7b97"/>
      <use x="200.0" xlink:href="#WenQuanYiMicroHei-65f6"/>
      <use x="300.0" xlink:href="#WenQuanYiMicroHei-95f4"/>
      <use x="400.0" xlink:href="#WenQuanYiMicroHei-28"/>
      <use x="430.078125" xlink:href="#WenQuanYiMicroHei-75"/>
      <use x="488.96484375" xlink:href="#WenQuanYiMicroHei-73"/>
      <use x="534.08203125" xlink:href="#WenQuanYiMicroHei-2f"/>
      <use x="571.38671875" xlink:href="#WenQuanYiMicroHei-70"/>
      <use x="629.98046875" xlink:href="#WenQuanYiMicroHei-6f"/>
      <use x="687.6953125" xlink:href="#WenQuanYiMicroHei-69"/>
      <use x="713.57421875" xlink:href="#WenQuanYiMicroHei-6e"/>
      <use x="772.4609375" xlink:href="#WenQuanYiMicroHei-74"/>
      <use x="806.34765625" xlink:href="#WenQuanYiMicroHei-29"/>
     </g>
    </g>
   </g>
   <g id="patch_3">
    <path d="
M39.625 12.1988
L486.025 12.1988" style="fill:none;stroke:#000000;"/>
   </g>
   <g id="patch_4">
    <path d="
M486.025 242.599
L486.025 12.1988" style="fill:none;stroke:#000000;"/>
   </g>
   <g id="patch_5">
    <path d="
M39.625 242.599
L486.025 242.599" style="fill:none;stroke:#000000;"/>
   </g>
   <g id="patch_6">
    <path d="
M39.625 242.599
L39.625 12.1988" style="fill:none;stroke:#000000;"/>
   </g>
   <g id="legend_1">
    <g id="patch_7">
     <path d="
M406.229 50.1867
L481.027 50.1867
L481.027 17.1968
L406.229 17.1968
L406.229 50.1867
z
" style="fill:#ffffff;stroke:#000000;"/>
    </g>
    <g id="line2d_35">
     <path d="
M413.226 25.292
L427.22 25.292" style="fill:none;stroke:#348abd;stroke-linecap:square;stroke-width:2.0;"/>
    </g>
    <g id="line2d_36"/>
    <g id="text_19">
     <!-- 直接卷积 -->
     <defs>
      <path d="
M47.6562 80.8594
L55.8594 80.8594
L54.6875 72.2656
L91.4062 72.2656
L91.4062 64.8438
L53.125 64.8438
L51.5625 55.4688
L78.9062 55.4688
L78.9062 1.17188
L93.3594 1.17188
L93.3594 -6.25
L7.03125 -6.25
L7.03125 1.17188
L20.7031 1.17188
L20.7031 55.4688
L43.3594 55.4688
L44.9219 64.8438
L8.59375 64.8438
L8.59375 72.2656
L46.4844 72.2656
z

M71.0938 41.0156
L71.0938 48.0469
L28.5156 48.0469
L28.5156 41.0156
z

M28.5156 28.125
L71.0938 28.125
L71.0938 34.7656
L28.5156 34.7656
z

M28.5156 14.8438
L71.0938 14.8438
L71.0938 21.875
L28.5156 21.875
z

M28.5156 1.17188
L71.0938 1.17188
L71.0938 8.59375
L28.5156 8.59375
z
" id="WenQuanYiMicroHei-76f4"/>
      <path d="
M74.2188 79.6875
L82.0312 75.3906
Q78.125 67.9688 73.8281 62.8906
L90.625 62.8906
L90.625 55.4688
L47.2656 55.4688
Q44.1406 49.2188 41.7969 46.0938
L93.75 46.0938
L93.75 38.6719
L76.5625 38.6719
Q84.375 30.4688 95.7031 26.5625
L91.7969 19.1406
Q76.5625 25.3906 67.1875 38.6719
L36.3281 38.6719
Q26.1719 26.5625 10.5469 17.9688
L5.85938 23.8281
Q17.1875 30.8594 25.3906 38.6719
L6.25 38.6719
L6.25 46.0938
L32.0312 46.0938
Q36.3281 50.7812 38.6719 55.4688
L9.375 55.4688
L9.375 62.8906
L42.1875 62.8906
Q45.3125 71.0938 47.2656 80.8594
L55.0781 79.6875
Q53.5156 71.0938 50.3906 62.8906
L62.8906 62.8906
Q69.5312 70.3125 74.2188 79.6875
M25 78.9062
Q30.0781 74.2188 33.5938 68.75
L26.5625 64.4531
Q23.8281 69.9219 18.3594 75
z

M65.2344 23.0469
L33.2031 23.0469
L33.2031 2.73438
Q33.2031 0.78125 35.3438 0.1875
Q37.5 -0.390625 54.2969 -0.390625
Q75.7812 -0.390625 78.3125 1.75
Q80.8594 3.90625 81.6406 12.1094
L89.4531 9.375
Q87.5 -1.95312 83.2031 -5.07812
Q80.0781 -7.8125 54.2969 -7.8125
Q32.0312 -7.8125 28.7031 -6.04688
Q25.3906 -4.29688 25.3906 1.17188
L25.3906 30.4688
L73.0469 30.4688
L73.0469 15.625
Q73.0469 10.5469 70.7031 8
Q68.3594 5.46875 63.6719 5.46875
Q59.375 5.46875 52.7344 6.64062
L51.1719 14.0625
Q58.2031 12.8906 62.5 12.8906
Q65.2344 12.8906 65.2344 17.9688
z
" id="WenQuanYiMicroHei-5377"/>
      <path d="
M33.9844 39.4531
L35.1562 32.4219
Q30.4688 29.6875 25 27.3438
L25 1.5625
Q25 -4.29688 23.2344 -6.64062
Q21.4844 -8.98438 16.7969 -8.98438
Q12.5 -8.98438 8.20312 -7.8125
L6.64062 0.390625
Q10.9375 -1.17188 15.625 -1.17188
Q17.1875 -1.17188 17.1875 3.51562
L17.1875 23.8281
Q12.5 22.2656 7.8125 20.3125
L4.6875 28.5156
Q11.3281 30.4688 17.1875 32.8125
L17.1875 57.0312
L6.25 57.0312
L6.25 64.4531
L17.1875 64.4531
L17.1875 80.8594
L25 80.8594
L25 64.4531
L35.5469 64.4531
L35.5469 57.0312
L25 57.0312
L25 35.5469
z

M67.1875 80.8594
Q69.1406 76.5625 70.3125 71.0938
L92.9688 71.0938
L92.9688 64.0625
L39.4531 64.0625
L39.4531 71.0938
L61.7188 71.0938
Q60.9375 75 59.375 78.5156
z

M37.1094 48.8281
L51.5625 48.8281
Q49.6094 54.6875 46.875 59.7656
L53.9062 61.7188
Q57.4219 55.8594 59.375 48.8281
L71.4844 48.8281
Q74.6094 55.4688 76.9531 62.1094
L85.1562 59.7656
Q82.4219 53.5156 79.6875 48.8281
L94.5312 48.8281
L94.5312 41.7969
L37.1094 41.7969
z

M35.5469 31.6406
L53.9062 31.6406
Q55.8594 35.5469 57.4219 39.4531
L65.2344 38.6719
Q63.6719 35.1562 62.5 31.6406
L94.5312 31.6406
L94.5312 24.6094
L85.1562 24.6094
Q81.6406 13.2812 76.1719 6.25
Q85.1562 2.34375 92.9688 -1.5625
L88.2812 -8.20312
Q81.25 -4.29688 70.7031 0.78125
Q61.7188 -6.25 44.5312 -8.59375
L40.625 -1.5625
Q53.5156 -0.78125 62.1094 4.29688
Q53.125 8.20312 42.5781 11.7188
Q46.875 18.3594 50.3906 24.6094
L35.5469 24.6094
z

M58.9844 24.6094
Q55.8594 19.1406 52.7344 15.2344
Q60.9375 12.5 68.75 9.375
Q74.2188 14.8438 76.9531 24.6094
z
" id="WenQuanYiMicroHei-63a5"/>
      <path d="
M28.5156 31.6406
L28.5156 -8.98438
L20.7031 -8.98438
L20.7031 28.5156
Q17.1875 18.3594 10.1562 8.98438
L4.29688 14.8438
Q16.0156 28.5156 20.3125 47.2656
L5.07812 47.2656
L5.07812 54.2969
L20.7031 54.2969
L20.7031 69.1406
Q15.2344 67.9688 8.98438 67.1875
L6.25 74.6094
Q23.0469 76.5625 37.5 80.0781
L41.0156 73.4375
Q34.7656 71.875 28.5156 70.7031
L28.5156 54.2969
L44.1406 54.2969
L44.1406 47.2656
L28.5156 47.2656
L28.5156 41.0156
Q37.1094 32.4219 43.3594 23.8281
L38.2812 16.7969
Q33.5938 25.3906 28.5156 31.6406
M46.875 75.7812
L87.8906 75.7812
L87.8906 28.125
L46.875 28.125
z

M55.0781 35.5469
L79.6875 35.5469
L79.6875 68.3594
L55.0781 68.3594
z

M77.7344 22.2656
Q88.6719 9.76562 95.3125 -5.07812
L87.8906 -9.375
Q81.6406 5.07812 71.0938 18.3594
z

M55.0781 21.875
L62.1094 17.9688
Q53.125 0.390625 43.3594 -9.76562
L37.1094 -3.90625
Q48.0469 8.20312 55.0781 21.875" id="WenQuanYiMicroHei-79ef"/>
     </defs>
     <g transform="translate(438.2160075 28.7905790625)scale(0.09996 -0.09996)">
      <use xlink:href="#WenQuanYiMicroHei-76f4"/>
      <use x="100.0" xlink:href="#WenQuanYiMicroHei-63a5"/>
      <use x="200.0" xlink:href="#WenQuanYiMicroHei-5377"/>
      <use x="300.0" xlink:href="#WenQuanYiMicroHei-79ef"/>
     </g>
    </g>
    <g id="line2d_37">
     <path d="
M413.226 40.2875
L427.22 40.2875" style="fill:none;stroke:#a60628;stroke-linecap:square;stroke-width:2.0;"/>
    </g>
    <g id="line2d_38"/>
    <g id="text_20">
     <!-- FFT卷积 -->
     <defs>
      <path d="
M30.5156 0
L21.3906 0
L21.3906 63.375
L0.984375 63.375
L0.984375 71.3906
L50.875 71.3906
L50.875 63.375
L30.5156 63.375
z
" id="WenQuanYiMicroHei-54"/>
      <path d="
M18.7969 0
L9.71875 0
L9.71875 71.3906
L46.7812 71.3906
L46.7812 63.375
L18.7969 63.375
L18.7969 38.1875
L44.9219 38.1875
L44.9219 30.1719
L18.7969 30.1719
z
" id="WenQuanYiMicroHei-46"/>
     </defs>
     <g transform="translate(438.2160075 43.7861409375)scale(0.09996 -0.09996)">
      <use xlink:href="#WenQuanYiMicroHei-46"/>
      <use x="49.12109375" xlink:href="#WenQuanYiMicroHei-46"/>
      <use x="98.2421875" xlink:href="#WenQuanYiMicroHei-54"/>
      <use x="150.146484375" xlink:href="#WenQuanYiMicroHei-5377"/>
      <use x="250.146484375" xlink:href="#WenQuanYiMicroHei-79ef"/>
     </g>
    </g>
   </g>
  </g>
 </g>
 <defs>
  <clipPath id="p50b0abb012">
   <rect height="230.4" width="446.4" x="39.62500125" y="12.1987809375"/>
  </clipPath>
 </defs>
</svg>
