<?xml version="1.0" encoding="utf-8" standalone="no"?>
<!DOCTYPE svg PUBLIC "-//W3C//DTD SVG 1.1//EN"
  "http://www.w3.org/Graphics/SVG/1.1/DTD/svg11.dtd">
<!-- Created with matplotlib (http://matplotlib.org/) -->
<svg height="148pt" version="1.1" viewBox="0 0 381 148" width="381pt" xmlns="http://www.w3.org/2000/svg" xmlns:xlink="http://www.w3.org/1999/xlink">
 <defs>
  <style type="text/css">
*{stroke-linecap:butt;stroke-linejoin:round;}
  </style>
 </defs>
 <g id="figure_1">
  <g id="patch_1">
   <path d="
M0 148.596
L381.773 148.596
L381.773 0
L0 0
z
" style="fill:#ffffff;"/>
  </g>
  <g id="axes_1">
   <g id="patch_2">
    <path d="
M29.4302 127.399
L364.23 127.399
L364.23 12.1988
L29.4302 12.1988
z
" style="fill:#ffffff;"/>
   </g>
   <g id="line2d_1">
    <path clip-path="url(#pc6f2c69a63)" d="
M29.4302 69.7988
L31.9412 43.6489
L33.406 30.6999
L34.4522 23.1994
L35.2892 18.4768
L36.1262 15.0179
L36.754 13.3055
L37.1725 12.598
L37.591 12.2432
L38.0095 12.2432
L38.428 12.598
L38.8465 13.3055
L39.4742 15.0179
L40.102 17.4897
L40.939 21.9061
L41.776 27.5018
L42.8222 35.9424
L44.287 49.8624
L46.798 76.5689
L48.8905 97.9434
L50.146 108.898
L51.1922 116.398
L52.0292 121.121
L52.8662 124.58
L53.494 126.292
L53.9125 127
L54.331 127.354
L54.7495 127.354
L55.168 127
L55.5865 126.292
L56.2142 124.58
L56.842 122.108
L57.679 117.691
L58.516 112.096
L59.5622 103.655
L61.027 89.7351
L63.538 63.0286
L65.6305 41.6542
L66.886 30.6999
L67.9322 23.1994
L68.7692 18.4768
L69.6062 15.0179
L70.234 13.3055
L70.6525 12.598
L71.071 12.2432
L71.4895 12.2432
L71.908 12.598
L72.3265 13.3055
L72.9542 15.0179
L73.582 17.4897
L74.419 21.9061
L75.256 27.5018
L76.3022 35.9424
L77.767 49.8624
L80.278 76.5689
L82.3705 97.9434
L83.626 108.898
L84.6722 116.398
L85.5092 121.121
L86.3462 124.58
L86.974 126.292
L87.3925 127
L87.811 127.354
L88.2295 127.354
L88.648 127
L89.0665 126.292
L89.6942 124.58
L90.322 122.108
L91.159 117.691
L91.996 112.096
L93.0422 103.655
L94.507 89.7351
L97.018 63.0286
L99.1105 41.6542
L100.366 30.6999
L101.412 23.1994
L102.249 18.4768
L103.086 15.0179
L103.714 13.3055
L104.132 12.598
L104.551 12.2432
L104.969 12.2432
L105.388 12.598
L105.806 13.3055
L106.434 15.0179
L107.062 17.4897
L107.899 21.9061
L108.736 27.5018
L109.782 35.9424
L111.247 49.8624
L113.758 76.5689
L115.85 97.9434
L117.106 108.898
L118.152 116.398
L118.989 121.121
L119.826 124.58
L120.454 126.292
L120.872 127
L121.291 127.354
L121.709 127.354
L122.128 127
L122.546 126.292
L123.174 124.58
L123.802 122.108
L124.639 117.691
L125.476 112.096
L126.522 103.655
L127.987 89.7351
L130.498 63.0286
L132.59 41.6542
L133.846 30.6999
L134.892 23.1994
L135.729 18.4768
L136.357 15.759
L136.566 69.7988
L139.077 43.6489
L140.542 30.6999
L141.588 23.1994
L142.425 18.4768
L143.262 15.0179
L143.89 13.3055
L144.308 12.598
L144.727 12.2432
L145.145 12.2432
L145.564 12.598
L145.982 13.3055
L146.61 15.0179
L147.238 17.4897
L148.075 21.9061
L148.912 27.5018
L149.958 35.9424
L151.423 49.8624
L153.934 76.5689
L156.026 97.9434
L157.282 108.898
L158.328 116.398
L159.165 121.121
L160.002 124.58
L160.63 126.292
L161.048 127
L161.467 127.354
L161.885 127.354
L162.304 127
L162.722 126.292
L163.35 124.58
L163.978 122.108
L164.815 117.691
L165.652 112.096
L166.698 103.655
L168.163 89.7351
L170.674 63.0286
L172.766 41.6542
L174.022 30.6999
L175.068 23.1994
L175.905 18.4768
L176.742 15.0179
L177.37 13.3055
L177.788 12.598
L178.207 12.2432
L178.625 12.2432
L179.044 12.598
L179.462 13.3055
L180.09 15.0179
L180.718 17.4897
L181.555 21.9061
L182.392 27.5018
L183.438 35.9424
L184.903 49.8624
L187.414 76.5689
L189.506 97.9434
L190.762 108.898
L191.808 116.398
L192.645 121.121
L193.482 124.58
L194.11 126.292
L194.528 127
L194.947 127.354
L195.365 127.354
L195.784 127
L196.202 126.292
L196.83 124.58
L197.458 122.108
L198.295 117.691
L199.132 112.096
L200.178 103.655
L201.643 89.7351
L204.154 63.0286
L206.246 41.6542
L207.502 30.6999
L208.548 23.1994
L209.385 18.4768
L210.222 15.0179
L210.85 13.3055
L211.268 12.598
L211.687 12.2432
L212.105 12.2432
L212.524 12.598
L212.942 13.3055
L213.57 15.0179
L214.198 17.4897
L215.035 21.9061
L215.872 27.5018
L216.918 35.9424
L218.383 49.8624
L220.894 76.5689
L222.986 97.9434
L224.242 108.898
L225.288 116.398
L226.125 121.121
L226.962 124.58
L227.59 126.292
L228.008 127
L228.427 127.354
L228.845 127.354
L229.264 127
L229.682 126.292
L230.31 124.58
L230.938 122.108
L231.775 117.691
L232.612 112.096
L233.658 103.655
L235.123 89.7351
L237.634 63.0286
L239.726 41.6542
L240.982 30.6999
L242.028 23.1994
L242.865 18.4768
L243.493 15.759
L243.702 69.7988
L246.213 43.6489
L247.678 30.6999
L248.724 23.1994
L249.561 18.4768
L250.398 15.0179
L251.026 13.3055
L251.444 12.598
L251.863 12.2432
L252.281 12.2432
L252.7 12.598
L253.118 13.3055
L253.746 15.0179
L254.374 17.4897
L255.211 21.9061
L256.048 27.5018
L257.094 35.9424
L258.559 49.8624
L261.07 76.5689
L263.162 97.9434
L264.418 108.898
L265.464 116.398
L266.301 121.121
L267.138 124.58
L267.766 126.292
L268.184 127
L268.603 127.354
L269.021 127.354
L269.44 127
L269.858 126.292
L270.486 124.58
L271.114 122.108
L271.951 117.691
L272.788 112.096
L273.834 103.655
L275.299 89.7351
L277.81 63.0286
L279.902 41.6542
L281.158 30.6999
L282.204 23.1994
L283.041 18.4768
L283.878 15.0179
L284.506 13.3055
L284.924 12.598
L285.343 12.2432
L285.761 12.2432
L286.18 12.598
L286.598 13.3055
L287.226 15.0179
L287.854 17.4897
L288.691 21.9061
L289.528 27.5018
L290.574 35.9424
L292.039 49.8624
L294.55 76.5689
L296.642 97.9434
L297.898 108.898
L298.944 116.398
L299.781 121.121
L300.618 124.58
L301.246 126.292
L301.664 127
L302.083 127.354
L302.501 127.354
L302.92 127
L303.338 126.292
L303.966 124.58
L304.594 122.108
L305.431 117.691
L306.268 112.096
L307.314 103.655
L308.779 89.7351
L311.29 63.0286
L313.382 41.6542
L314.638 30.6999
L315.684 23.1994
L316.521 18.4768
L317.358 15.0179
L317.986 13.3055
L318.404 12.598
L318.823 12.2432
L319.241 12.2432
L319.66 12.598
L320.078 13.3055
L320.706 15.0179
L321.334 17.4897
L322.171 21.9061
L323.008 27.5018
L324.054 35.9424
L325.519 49.8624
L328.03 76.5689
L330.122 97.9434
L331.378 108.898
L332.424 116.398
L333.261 121.121
L334.098 124.58
L334.726 126.292
L335.144 127
L335.563 127.354
L335.981 127.354
L336.4 127
L336.818 126.292
L337.446 124.58
L338.074 122.108
L338.911 117.691
L339.748 112.096
L340.794 103.655
L342.259 89.7351
L344.77 63.0286
L346.862 41.6542
L348.118 30.6999
L349.164 23.1994
L350.001 18.4768
L350.629 15.759
L350.629 15.759" style="fill:none;stroke:#348abd;stroke-linecap:square;stroke-width:2.0;"/>
   </g>
   <g id="matplotlib.axis_1">
    <g id="xtick_1">
     <g id="line2d_2">
      <defs>
       <path d="
M0 0
L0 -4" id="m93b0483c22" style="stroke:#000000;stroke-width:0.5;"/>
      </defs>
      <g>
       <use style="stroke:#000000;stroke-width:0.5;" x="29.430205" xlink:href="#m93b0483c22" y="127.398780937"/>
      </g>
     </g>
     <g id="line2d_3">
      <defs>
       <path d="
M0 0
L0 4" id="m741efc42ff" style="stroke:#000000;stroke-width:0.5;"/>
      </defs>
      <g>
       <use style="stroke:#000000;stroke-width:0.5;" x="29.430205" xlink:href="#m741efc42ff" y="12.1987809375"/>
      </g>
     </g>
     <g id="text_1">
      <!-- 0 -->
      <defs>
       <path d="
M50.3906 35.7969
Q50.3906 27.1562 49.1406 20.3125
Q47.9062 13.4844 45.1406 8.73438
Q42.3906 4 38.0312 1.5
Q33.6875 -0.984375 27.4844 -0.984375
Q21.7344 -0.984375 17.4531 1.5
Q13.1875 4 10.375 8.73438
Q7.5625 13.4844 6.17188 20.3125
Q4.78125 27.1562 4.78125 35.7969
Q4.78125 44.4375 6.03125 51.2656
Q7.28125 58.1094 9.98438 62.8125
Q12.7031 67.5312 17.0156 70.0156
Q21.3438 72.5156 27.4844 72.5156
Q33.2969 72.5156 37.5938 70.0469
Q41.8906 67.5781 44.7188 62.8594
Q47.5625 58.1562 48.9688 51.3125
Q50.3906 44.4844 50.3906 35.7969
M13.8125 35.7969
Q13.8125 28.4688 14.5469 23
Q15.2812 17.5312 16.8906 13.8906
Q18.5 10.25 21.1094 8.42188
Q23.7344 6.59375 27.4844 6.59375
Q31.25 6.59375 33.8906 8.39062
Q36.5312 10.2031 38.2031 13.8125
Q39.8906 17.4375 40.6406 22.9219
Q41.4062 28.4219 41.4062 35.7969
Q41.4062 43.1094 40.6406 48.5781
Q39.8906 54.0469 38.2031 57.6562
Q36.5312 61.2812 33.8906 63.0781
Q31.25 64.8906 27.4844 64.8906
Q23.7344 64.8906 21.1094 63.0781
Q18.5 61.2812 16.8906 57.6562
Q15.2812 54.0469 14.5469 48.5781
Q13.8125 43.1094 13.8125 35.7969" id="WenQuanYiMicroHei-30"/>
      </defs>
      <g transform="translate(27.1506484375 138.994179063)scale(0.09996 -0.09996)">
       <use xlink:href="#WenQuanYiMicroHei-30"/>
      </g>
     </g>
    </g>
    <g id="xtick_2">
     <g id="line2d_4">
      <g>
       <use style="stroke:#000000;stroke-width:0.5;" x="71.280205" xlink:href="#m93b0483c22" y="127.398780937"/>
      </g>
     </g>
     <g id="line2d_5">
      <g>
       <use style="stroke:#000000;stroke-width:0.5;" x="71.280205" xlink:href="#m741efc42ff" y="12.1987809375"/>
      </g>
     </g>
     <g id="text_2">
      <!-- 200 -->
      <defs>
       <path d="
M49.2188 0
L4.6875 0
L4.6875 7.625
L21.7812 26.2188
Q25.4375 30.1719 28.3125 33.4375
Q31.2031 36.7188 33.2188 39.8438
Q35.25 42.9688 36.3281 46.1094
Q37.4062 49.2656 37.4062 52.9844
Q37.4062 55.8594 36.5781 58.0469
Q35.75 60.25 34.2031 61.7812
Q32.6719 63.3281 30.5625 64.1094
Q28.4688 64.8906 25.875 64.8906
Q21.2344 64.8906 17.5 63.0156
Q13.7656 61.1406 10.4062 58.2031
L5.42188 64.0156
Q7.375 65.7656 9.60938 67.2969
Q11.8594 68.8438 14.4531 69.9688
Q17.0469 71.0938 19.9219 71.75
Q22.7969 72.4062 25.9844 72.4062
Q30.6719 72.4062 34.4531 71.0938
Q38.2344 69.7812 40.8594 67.3125
Q43.5 64.8438 44.9375 61.2969
Q46.3906 57.7656 46.3906 53.3281
Q46.3906 49.1719 45.0938 45.4062
Q43.7969 41.6562 41.5312 38.0156
Q39.2656 34.375 36.1094 30.7031
Q32.9531 27.0469 29.2969 23.0938
L15.5781 8.5
L15.5781 8.10938
L49.2188 8.10938
z
" id="WenQuanYiMicroHei-32"/>
      </defs>
      <g transform="translate(63.4903534375 138.994179063)scale(0.09996 -0.09996)">
       <use xlink:href="#WenQuanYiMicroHei-32"/>
       <use x="55.078125" xlink:href="#WenQuanYiMicroHei-30"/>
       <use x="110.15625" xlink:href="#WenQuanYiMicroHei-30"/>
      </g>
     </g>
    </g>
    <g id="xtick_3">
     <g id="line2d_6">
      <g>
       <use style="stroke:#000000;stroke-width:0.5;" x="113.130205" xlink:href="#m93b0483c22" y="127.398780937"/>
      </g>
     </g>
     <g id="line2d_7">
      <g>
       <use style="stroke:#000000;stroke-width:0.5;" x="113.130205" xlink:href="#m741efc42ff" y="12.1987809375"/>
      </g>
     </g>
     <g id="text_3">
      <!-- 400 -->
      <defs>
       <path d="
M53.0781 16.0156
L42.6719 16.0156
L42.6719 0
L34.0781 0
L34.0781 16.0156
L1.125 16.0156
L1.125 23.7812
L33.5 71.7812
L42.6719 71.7812
L42.6719 24.125
L53.0781 24.125
z

M34.0781 24.125
L34.0781 41.5
Q34.0781 44.2344 34.1562 47.2344
Q34.2344 50.25 34.3281 53.0938
Q34.4219 55.9531 34.5469 58.4375
Q34.6719 60.9375 34.7188 62.5938
L34.2812 62.5938
Q33.9375 61.625 33.4219 60.4219
Q32.9062 59.2344 32.2969 58.0312
Q31.6875 56.8438 31.0469 55.7188
Q30.4219 54.5938 29.8906 53.8125
L9.8125 24.125
z
" id="WenQuanYiMicroHei-34"/>
      </defs>
      <g transform="translate(105.162299688 138.994179063)scale(0.09996 -0.09996)">
       <use xlink:href="#WenQuanYiMicroHei-34"/>
       <use x="55.078125" xlink:href="#WenQuanYiMicroHei-30"/>
       <use x="110.15625" xlink:href="#WenQuanYiMicroHei-30"/>
      </g>
     </g>
    </g>
    <g id="xtick_4">
     <g id="line2d_8">
      <g>
       <use style="stroke:#000000;stroke-width:0.5;" x="154.980205" xlink:href="#m93b0483c22" y="127.398780937"/>
      </g>
     </g>
     <g id="line2d_9">
      <g>
       <use style="stroke:#000000;stroke-width:0.5;" x="154.980205" xlink:href="#m741efc42ff" y="12.1987809375"/>
      </g>
     </g>
     <g id="text_4">
      <!-- 600 -->
      <defs>
       <path d="
M5.51562 30.5156
Q5.51562 35.6406 6.03125 40.7188
Q6.54688 45.7969 7.82812 50.4531
Q9.125 55.125 11.375 59.125
Q13.625 63.1406 17.0938 66.0938
Q20.5625 69.0469 25.3906 70.7188
Q30.2188 72.4062 36.7188 72.4062
Q37.6406 72.4062 38.7656 72.3594
Q39.8906 72.3125 41.0312 72.1875
Q42.1875 72.0781 43.2344 71.9062
Q44.2812 71.7344 45.125 71.4844
L45.125 63.9219
Q43.4062 64.5 41.25 64.7969
Q39.1094 65.0938 37.0156 65.0938
Q32.625 65.0938 29.2656 64.0312
Q25.9219 62.9844 23.4844 61.0781
Q21.0469 59.1875 19.4062 56.5469
Q17.7812 53.9062 16.75 50.7031
Q15.7188 47.5156 15.2344 43.8906
Q14.75 40.2812 14.5938 36.375
L15.1875 36.375
Q16.1562 38.1406 17.5469 39.6719
Q18.9531 41.2188 20.7969 42.3125
Q22.6562 43.4062 24.9688 44.0312
Q27.2969 44.6719 30.1719 44.6719
Q34.8125 44.6719 38.5625 43.2344
Q42.3281 41.7969 44.9688 39.0156
Q47.6094 36.2344 49.0469 32.2031
Q50.4844 28.1719 50.4844 23
Q50.4844 17.4375 48.9688 12.9844
Q47.4688 8.54688 44.625 5.4375
Q41.7969 2.34375 37.7969 0.671875
Q33.7969 -0.984375 28.8125 -0.984375
Q23.9219 -0.984375 19.6406 0.921875
Q15.375 2.82812 12.25 6.73438
Q9.125 10.6406 7.3125 16.5469
Q5.51562 22.4688 5.51562 30.5156
M28.7188 6.5
Q31.6406 6.5 34.0469 7.5
Q36.4688 8.5 38.2188 10.5156
Q39.9844 12.5469 40.9375 15.6406
Q41.8906 18.75 41.8906 23
Q41.8906 26.4219 41.0781 29.125
Q40.2812 31.8438 38.6719 33.7344
Q37.0625 35.6406 34.6406 36.6719
Q32.2344 37.7031 29 37.7031
Q25.7344 37.7031 23.0156 36.5469
Q20.3125 35.4062 18.4062 33.5625
Q16.5 31.7344 15.4531 29.3906
Q14.4062 27.0469 14.4062 24.7031
Q14.4062 21.4375 15.3125 18.1875
Q16.2188 14.9375 18 12.3438
Q19.7812 9.76562 22.4531 8.125
Q25.1406 6.5 28.7188 6.5" id="WenQuanYiMicroHei-36"/>
      </defs>
      <g transform="translate(147.231743125 138.994179063)scale(0.09996 -0.09996)">
       <use xlink:href="#WenQuanYiMicroHei-36"/>
       <use x="55.078125" xlink:href="#WenQuanYiMicroHei-30"/>
       <use x="110.15625" xlink:href="#WenQuanYiMicroHei-30"/>
      </g>
     </g>
    </g>
    <g id="xtick_5">
     <g id="line2d_10">
      <g>
       <use style="stroke:#000000;stroke-width:0.5;" x="196.830205" xlink:href="#m93b0483c22" y="127.398780937"/>
      </g>
     </g>
     <g id="line2d_11">
      <g>
       <use style="stroke:#000000;stroke-width:0.5;" x="196.830205" xlink:href="#m741efc42ff" y="12.1987809375"/>
      </g>
     </g>
     <g id="text_5">
      <!-- 800 -->
      <defs>
       <path d="
M27.5938 72.5156
Q31.6875 72.5156 35.3281 71.4375
Q38.9688 70.3594 41.7188 68.2031
Q44.4844 66.0625 46.0938 62.8438
Q47.7031 59.625 47.7031 55.3281
Q47.7031 52.0469 46.7188 49.4062
Q45.75 46.7812 44.0312 44.6562
Q42.3281 42.5312 39.9844 40.8438
Q37.6406 39.1562 34.9062 37.7969
Q37.75 36.2812 40.4531 34.4219
Q43.1719 32.5625 45.2812 30.25
Q47.4062 27.9375 48.7031 25.0469
Q50 22.1719 50 18.6094
Q50 14.1094 48.3594 10.4688
Q46.7344 6.84375 43.7812 4.29688
Q40.8281 1.76562 36.6875 0.390625
Q32.5625 -0.984375 27.5938 -0.984375
Q22.2188 -0.984375 18.0469 0.328125
Q13.875 1.65625 11.0156 4.125
Q8.15625 6.59375 6.65625 10.1562
Q5.17188 13.7188 5.17188 18.2188
Q5.17188 21.875 6.26562 24.7969
Q7.375 27.7344 9.21875 30.0781
Q11.0781 32.4219 13.6094 34.2188
Q16.1562 36.0312 19 37.4062
Q16.6094 38.9219 14.5 40.7031
Q12.4062 42.4844 10.8594 44.6719
Q9.32812 46.875 8.42188 49.5312
Q7.51562 52.2031 7.51562 55.4219
Q7.51562 59.6719 9.15625 62.8594
Q10.7969 66.0625 13.5781 68.2031
Q16.3594 70.3594 20 71.4375
Q23.6406 72.5156 27.5938 72.5156
M13.9219 18.1094
Q13.9219 15.5312 14.7031 13.3594
Q15.4844 11.1875 17.1406 9.64062
Q18.7969 8.10938 21.3281 7.25
Q23.875 6.39062 27.3906 6.39062
Q30.8125 6.39062 33.4219 7.25
Q36.0312 8.10938 37.7812 9.6875
Q39.5469 11.2812 40.4219 13.5156
Q41.3125 15.7656 41.3125 18.5
Q41.3125 21.0469 40.3594 23.0938
Q39.4062 25.1406 37.625 26.8906
Q35.8438 28.6562 33.3438 30.2188
Q30.8594 31.7812 27.7812 33.2969
L26.3125 33.9844
Q20.1719 31.0625 17.0469 27.2656
Q13.9219 23.4844 13.9219 18.1094
M27.4844 65.0938
Q22.3125 65.0938 19.2656 62.5
Q16.2188 59.9062 16.2188 54.9844
Q16.2188 52.2031 17.0625 50.1875
Q17.9219 48.1875 19.4375 46.625
Q20.9531 45.0625 23.0781 43.8125
Q25.2031 42.5781 27.6875 41.4062
Q30.0312 42.4844 32.1094 43.75
Q34.1875 45.0156 35.7188 46.625
Q37.25 48.25 38.125 50.2969
Q39.0156 52.3438 39.0156 54.9844
Q39.0156 59.9062 35.9375 62.5
Q32.8594 65.0938 27.4844 65.0938" id="WenQuanYiMicroHei-38"/>
      </defs>
      <g transform="translate(189.0645625 138.994179063)scale(0.09996 -0.09996)">
       <use xlink:href="#WenQuanYiMicroHei-38"/>
       <use x="55.078125" xlink:href="#WenQuanYiMicroHei-30"/>
       <use x="110.15625" xlink:href="#WenQuanYiMicroHei-30"/>
      </g>
     </g>
    </g>
    <g id="xtick_6">
     <g id="line2d_12">
      <g>
       <use style="stroke:#000000;stroke-width:0.5;" x="238.680205" xlink:href="#m93b0483c22" y="127.398780937"/>
      </g>
     </g>
     <g id="line2d_13">
      <g>
       <use style="stroke:#000000;stroke-width:0.5;" x="238.680205" xlink:href="#m741efc42ff" y="12.1987809375"/>
      </g>
     </g>
     <g id="text_6">
      <!-- 1000 -->
      <defs>
       <path d="
M34.7188 0
L26.125 0
L26.125 44.5781
Q26.125 46.6875 26.1406 49.0781
Q26.1719 51.4688 26.2344 53.8281
Q26.3125 56.2031 26.3906 58.375
Q26.4688 60.5469 26.5156 62.2031
Q25.6875 61.3281 25.0469 60.6875
Q24.4219 60.0625 23.75 59.4688
Q23.0938 58.8906 22.3594 58.2188
Q21.625 57.5625 20.6094 56.6875
L13.375 50.7812
L8.6875 56.7812
L27.3906 71.3906
L34.7188 71.3906
z
" id="WenQuanYiMicroHei-31"/>
      </defs>
      <g transform="translate(228.33746875 138.994179063)scale(0.09996 -0.09996)">
       <use xlink:href="#WenQuanYiMicroHei-31"/>
       <use x="55.078125" xlink:href="#WenQuanYiMicroHei-30"/>
       <use x="110.15625" xlink:href="#WenQuanYiMicroHei-30"/>
       <use x="165.234375" xlink:href="#WenQuanYiMicroHei-30"/>
      </g>
     </g>
    </g>
    <g id="xtick_7">
     <g id="line2d_14">
      <g>
       <use style="stroke:#000000;stroke-width:0.5;" x="280.530205" xlink:href="#m93b0483c22" y="127.398780937"/>
      </g>
     </g>
     <g id="line2d_15">
      <g>
       <use style="stroke:#000000;stroke-width:0.5;" x="280.530205" xlink:href="#m741efc42ff" y="12.1987809375"/>
      </g>
     </g>
     <g id="text_7">
      <!-- 1200 -->
      <g transform="translate(270.18746875 138.994179063)scale(0.09996 -0.09996)">
       <use xlink:href="#WenQuanYiMicroHei-31"/>
       <use x="55.078125" xlink:href="#WenQuanYiMicroHei-32"/>
       <use x="110.15625" xlink:href="#WenQuanYiMicroHei-30"/>
       <use x="165.234375" xlink:href="#WenQuanYiMicroHei-30"/>
      </g>
     </g>
    </g>
    <g id="xtick_8">
     <g id="line2d_16">
      <g>
       <use style="stroke:#000000;stroke-width:0.5;" x="322.380205" xlink:href="#m93b0483c22" y="127.398780937"/>
      </g>
     </g>
     <g id="line2d_17">
      <g>
       <use style="stroke:#000000;stroke-width:0.5;" x="322.380205" xlink:href="#m741efc42ff" y="12.1987809375"/>
      </g>
     </g>
     <g id="text_8">
      <!-- 1400 -->
      <g transform="translate(312.03746875 138.994179063)scale(0.09996 -0.09996)">
       <use xlink:href="#WenQuanYiMicroHei-31"/>
       <use x="55.078125" xlink:href="#WenQuanYiMicroHei-34"/>
       <use x="110.15625" xlink:href="#WenQuanYiMicroHei-30"/>
       <use x="165.234375" xlink:href="#WenQuanYiMicroHei-30"/>
      </g>
     </g>
    </g>
    <g id="xtick_9">
     <g id="line2d_18">
      <g>
       <use style="stroke:#000000;stroke-width:0.5;" x="364.230205" xlink:href="#m93b0483c22" y="127.398780937"/>
      </g>
     </g>
     <g id="line2d_19">
      <g>
       <use style="stroke:#000000;stroke-width:0.5;" x="364.230205" xlink:href="#m741efc42ff" y="12.1987809375"/>
      </g>
     </g>
     <g id="text_9">
      <!-- 1600 -->
      <g transform="translate(353.88746875 138.994179063)scale(0.09996 -0.09996)">
       <use xlink:href="#WenQuanYiMicroHei-31"/>
       <use x="55.078125" xlink:href="#WenQuanYiMicroHei-36"/>
       <use x="110.15625" xlink:href="#WenQuanYiMicroHei-30"/>
       <use x="165.234375" xlink:href="#WenQuanYiMicroHei-30"/>
      </g>
     </g>
    </g>
   </g>
   <g id="matplotlib.axis_2">
    <g id="ytick_1">
     <g id="line2d_20">
      <defs>
       <path d="
M0 0
L4 0" id="m728421d6d4" style="stroke:#000000;stroke-width:0.5;"/>
      </defs>
      <g>
       <use style="stroke:#000000;stroke-width:0.5;" x="29.430205" xlink:href="#m728421d6d4" y="127.398780937"/>
      </g>
     </g>
     <g id="line2d_21">
      <defs>
       <path d="
M0 0
L-4 0" id="mcb0005524f" style="stroke:#000000;stroke-width:0.5;"/>
      </defs>
      <g>
       <use style="stroke:#000000;stroke-width:0.5;" x="364.230205" xlink:href="#mcb0005524f" y="127.398780937"/>
      </g>
     </g>
     <g id="text_10">
      <!-- −1.0 -->
      <defs>
       <path d="
M4.98438 31.5938
L4.98438 38.9219
L50.0938 38.9219
L50.0938 31.5938
z
" id="WenQuanYiMicroHei-2212"/>
       <path d="
M7.17188 5.42188
Q7.17188 7.28125 7.65625 8.5625
Q8.15625 9.85938 8.98438 10.6562
Q9.8125 11.4688 10.9375 11.8281
Q12.0625 12.2031 13.375 12.2031
Q14.6562 12.2031 15.7969 11.8281
Q16.9375 11.4688 17.7656 10.6562
Q18.6094 9.85938 19.0938 8.5625
Q19.5781 7.28125 19.5781 5.42188
Q19.5781 3.60938 19.0938 2.3125
Q18.6094 1.03125 17.7656 0.1875
Q16.9375 -0.640625 15.7969 -1.03125
Q14.6562 -1.42188 13.375 -1.42188
Q12.0625 -1.42188 10.9375 -1.03125
Q9.8125 -0.640625 8.98438 0.1875
Q8.15625 1.03125 7.65625 2.3125
Q7.17188 3.60938 7.17188 5.42188" id="WenQuanYiMicroHei-2e"/>
      </defs>
      <g transform="translate(7.2 129.995398125)scale(0.09996 -0.09996)">
       <use xlink:href="#WenQuanYiMicroHei-2212"/>
       <use x="55.078125" xlink:href="#WenQuanYiMicroHei-31"/>
       <use x="110.15625" xlink:href="#WenQuanYiMicroHei-2e"/>
       <use x="136.962890625" xlink:href="#WenQuanYiMicroHei-30"/>
      </g>
     </g>
    </g>
    <g id="ytick_2">
     <g id="line2d_22">
      <g>
       <use style="stroke:#000000;stroke-width:0.5;" x="29.430205" xlink:href="#m728421d6d4" y="98.5987809375"/>
      </g>
     </g>
     <g id="line2d_23">
      <g>
       <use style="stroke:#000000;stroke-width:0.5;" x="364.230205" xlink:href="#mcb0005524f" y="98.5987809375"/>
      </g>
     </g>
     <g id="text_11">
      <!-- −0.5 -->
      <defs>
       <path d="
M26.6094 43.7969
Q31.4531 43.7969 35.625 42.4531
Q39.7969 41.1094 42.8906 38.4688
Q46 35.8438 47.75 31.9375
Q49.5156 28.0312 49.5156 22.9062
Q49.5156 17.3281 47.8438 12.8906
Q46.1875 8.45312 42.9219 5.375
Q39.6562 2.29688 34.8438 0.65625
Q30.0312 -0.984375 23.7812 -0.984375
Q21.2969 -0.984375 18.875 -0.734375
Q16.4531 -0.484375 14.2344 -0.015625
Q12.0156 0.4375 10.0156 1.17188
Q8.01562 1.90625 6.39062 2.875
L6.39062 11.2812
Q8.01562 10.1562 10.1875 9.28125
Q12.3594 8.40625 14.75 7.8125
Q17.1406 7.23438 19.5469 6.90625
Q21.9688 6.59375 24.0312 6.59375
Q27.875 6.59375 30.9062 7.5
Q33.9375 8.40625 36.0312 10.2969
Q38.1406 12.2031 39.25 15.0781
Q40.375 17.9688 40.375 21.9219
Q40.375 28.9062 36.0781 32.5938
Q31.7812 36.2812 23.5781 36.2812
Q22.2656 36.2812 20.7188 36.1562
Q19.1875 36.0312 17.6406 35.8281
Q16.1094 35.6406 14.7188 35.4219
Q13.3281 35.2031 12.3125 35.0156
L7.90625 37.7969
L10.5938 71.3906
L44.2812 71.3906
L44.2812 63.2812
L18.3125 63.2812
L16.4062 42.8281
Q17.9688 43.1094 20.5312 43.4531
Q23.0938 43.7969 26.6094 43.7969" id="WenQuanYiMicroHei-35"/>
      </defs>
      <g transform="translate(7.287465 101.195398125)scale(0.09996 -0.09996)">
       <use xlink:href="#WenQuanYiMicroHei-2212"/>
       <use x="55.078125" xlink:href="#WenQuanYiMicroHei-30"/>
       <use x="110.15625" xlink:href="#WenQuanYiMicroHei-2e"/>
       <use x="136.962890625" xlink:href="#WenQuanYiMicroHei-35"/>
      </g>
     </g>
    </g>
    <g id="ytick_3">
     <g id="line2d_24">
      <g>
       <use style="stroke:#000000;stroke-width:0.5;" x="29.430205" xlink:href="#m728421d6d4" y="69.7987809375"/>
      </g>
     </g>
     <g id="line2d_25">
      <g>
       <use style="stroke:#000000;stroke-width:0.5;" x="364.230205" xlink:href="#mcb0005524f" y="69.7987809375"/>
      </g>
     </g>
     <g id="text_12">
      <!-- 0.0 -->
      <g transform="translate(12.685305 72.395398125)scale(0.09996 -0.09996)">
       <use xlink:href="#WenQuanYiMicroHei-30"/>
       <use x="55.078125" xlink:href="#WenQuanYiMicroHei-2e"/>
       <use x="81.884765625" xlink:href="#WenQuanYiMicroHei-30"/>
      </g>
     </g>
    </g>
    <g id="ytick_4">
     <g id="line2d_26">
      <g>
       <use style="stroke:#000000;stroke-width:0.5;" x="29.430205" xlink:href="#m728421d6d4" y="40.9987809375"/>
      </g>
     </g>
     <g id="line2d_27">
      <g>
       <use style="stroke:#000000;stroke-width:0.5;" x="364.230205" xlink:href="#mcb0005524f" y="40.9987809375"/>
      </g>
     </g>
     <g id="text_13">
      <!-- 0.5 -->
      <g transform="translate(12.77277 43.595398125)scale(0.09996 -0.09996)">
       <use xlink:href="#WenQuanYiMicroHei-30"/>
       <use x="55.078125" xlink:href="#WenQuanYiMicroHei-2e"/>
       <use x="81.884765625" xlink:href="#WenQuanYiMicroHei-35"/>
      </g>
     </g>
    </g>
    <g id="ytick_5">
     <g id="line2d_28">
      <g>
       <use style="stroke:#000000;stroke-width:0.5;" x="29.430205" xlink:href="#m728421d6d4" y="12.1987809375"/>
      </g>
     </g>
     <g id="line2d_29">
      <g>
       <use style="stroke:#000000;stroke-width:0.5;" x="364.230205" xlink:href="#mcb0005524f" y="12.1987809375"/>
      </g>
     </g>
     <g id="text_14">
      <!-- 1.0 -->
      <g transform="translate(13.07577375 14.795398125)scale(0.09996 -0.09996)">
       <use xlink:href="#WenQuanYiMicroHei-31"/>
       <use x="55.078125" xlink:href="#WenQuanYiMicroHei-2e"/>
       <use x="81.884765625" xlink:href="#WenQuanYiMicroHei-30"/>
      </g>
     </g>
    </g>
   </g>
   <g id="patch_3">
    <path d="
M29.4302 12.1988
L364.23 12.1988" style="fill:none;stroke:#000000;"/>
   </g>
   <g id="patch_4">
    <path d="
M364.23 127.399
L364.23 12.1988" style="fill:none;stroke:#000000;"/>
   </g>
   <g id="patch_5">
    <path d="
M29.4302 127.399
L364.23 127.399" style="fill:none;stroke:#000000;"/>
   </g>
   <g id="patch_6">
    <path d="
M29.4302 127.399
L29.4302 12.1988" style="fill:none;stroke:#000000;"/>
   </g>
  </g>
 </g>
 <defs>
  <clipPath id="pc6f2c69a63">
   <rect height="115.2" width="334.8" x="29.430205" y="12.1987809375"/>
  </clipPath>
 </defs>
</svg>
