<?xml version="1.0" encoding="utf-8" standalone="no"?>
<!DOCTYPE svg PUBLIC "-//W3C//DTD SVG 1.1//EN"
  "http://www.w3.org/Graphics/SVG/1.1/DTD/svg11.dtd">
<!-- Created with matplotlib (http://matplotlib.org/) -->
<svg height="378pt" version="1.1" viewBox="0 0 508 378" width="508pt" xmlns="http://www.w3.org/2000/svg" xmlns:xlink="http://www.w3.org/1999/xlink">
 <defs>
  <style type="text/css">
*{stroke-linecap:butt;stroke-linejoin:round;}
  </style>
 </defs>
 <g id="figure_1">
  <g id="patch_1">
   <path d="
M0 378.996
L508.602 378.996
L508.602 0
L0 0
z
" style="fill:#ffffff;"/>
  </g>
  <g id="axes_1">
   <g id="patch_2">
    <path d="
M47.2532 169.29
L493.653 169.29
L493.653 12.1988
L47.2532 12.1988
z
" style="fill:#ffffff;"/>
   </g>
   <g id="line2d_1">
    <defs>
     <path d="
M0 3
C0.795609 3 1.55874 2.6839 2.12132 2.12132
C2.6839 1.55874 3 0.795609 3 0
C3 -0.795609 2.6839 -1.55874 2.12132 -2.12132
C1.55874 -2.6839 0.795609 -3 0 -3
C-0.795609 -3 -1.55874 -2.6839 -2.12132 -2.12132
C-2.6839 -1.55874 -3 -0.795609 -3 0
C-3 0.795609 -2.6839 1.55874 -2.12132 2.12132
C-1.55874 2.6839 -0.795609 3 0 3
z
" id="m8c6fd4390b" style="stroke:#000000;stroke-width:0.5;"/>
    </defs>
    <g clip-path="url(#pd52b963315)">
     <use style="fill:#348abd;stroke:#000000;stroke-width:0.5;" x="47.25319875" xlink:href="#m8c6fd4390b" y="27.961806165"/>
     <use style="fill:#348abd;stroke:#000000;stroke-width:0.5;" x="69.57319875" xlink:href="#m8c6fd4390b" y="38.2307852883"/>
     <use style="fill:#348abd;stroke:#000000;stroke-width:0.5;" x="91.89319875" xlink:href="#m8c6fd4390b" y="169.289690028"/>
     <use style="fill:#348abd;stroke:#000000;stroke-width:0.5;" x="114.21319875" xlink:href="#m8c6fd4390b" y="63.2100225561"/>
     <use style="fill:#348abd;stroke:#000000;stroke-width:0.5;" x="136.53319875" xlink:href="#m8c6fd4390b" y="169.289690028"/>
     <use style="fill:#348abd;stroke:#000000;stroke-width:0.5;" x="158.85319875" xlink:href="#m8c6fd4390b" y="74.8176954767"/>
     <use style="fill:#348abd;stroke:#000000;stroke-width:0.5;" x="181.17319875" xlink:href="#m8c6fd4390b" y="169.289690028"/>
     <use style="fill:#348abd;stroke:#000000;stroke-width:0.5;" x="203.49319875" xlink:href="#m8c6fd4390b" y="82.4557865485"/>
     <use style="fill:#348abd;stroke:#000000;stroke-width:0.5;" x="225.81319875" xlink:href="#m8c6fd4390b" y="169.289690028"/>
     <use style="fill:#348abd;stroke:#000000;stroke-width:0.5;" x="248.13319875" xlink:href="#m8c6fd4390b" y="88.1527103796"/>
     <use style="fill:#348abd;stroke:#000000;stroke-width:0.5;" x="270.45319875" xlink:href="#m8c6fd4390b" y="169.289690028"/>
     <use style="fill:#348abd;stroke:#000000;stroke-width:0.5;" x="292.77319875" xlink:href="#m8c6fd4390b" y="92.6933553716"/>
     <use style="fill:#348abd;stroke:#000000;stroke-width:0.5;" x="315.09319875" xlink:href="#m8c6fd4390b" y="169.289690028"/>
     <use style="fill:#348abd;stroke:#000000;stroke-width:0.5;" x="337.41319875" xlink:href="#m8c6fd4390b" y="96.4649338356"/>
     <use style="fill:#348abd;stroke:#000000;stroke-width:0.5;" x="359.73319875" xlink:href="#m8c6fd4390b" y="169.289690028"/>
     <use style="fill:#348abd;stroke:#000000;stroke-width:0.5;" x="382.05319875" xlink:href="#m8c6fd4390b" y="99.6871961183"/>
     <use style="fill:#348abd;stroke:#000000;stroke-width:0.5;" x="404.37319875" xlink:href="#m8c6fd4390b" y="169.289690028"/>
     <use style="fill:#348abd;stroke:#000000;stroke-width:0.5;" x="426.69319875" xlink:href="#m8c6fd4390b" y="102.49693528"/>
     <use style="fill:#348abd;stroke:#000000;stroke-width:0.5;" x="449.01319875" xlink:href="#m8c6fd4390b" y="169.289690028"/>
     <use style="fill:#348abd;stroke:#000000;stroke-width:0.5;" x="471.33319875" xlink:href="#m8c6fd4390b" y="104.985111748"/>
    </g>
   </g>
   <g id="matplotlib.axis_1">
    <g id="xtick_1">
     <g id="line2d_2">
      <defs>
       <path d="
M0 0
L0 -4" id="m93b0483c22" style="stroke:#000000;stroke-width:0.5;"/>
      </defs>
      <g>
       <use style="stroke:#000000;stroke-width:0.5;" x="47.25319875" xlink:href="#m93b0483c22" y="169.289690028"/>
      </g>
     </g>
     <g id="line2d_3">
      <defs>
       <path d="
M0 0
L0 4" id="m741efc42ff" style="stroke:#000000;stroke-width:0.5;"/>
      </defs>
      <g>
       <use style="stroke:#000000;stroke-width:0.5;" x="47.25319875" xlink:href="#m741efc42ff" y="12.1987809375"/>
      </g>
     </g>
     <g id="text_1">
      <!-- 0 -->
      <defs>
       <path d="
M50.3906 35.7969
Q50.3906 27.1562 49.1406 20.3125
Q47.9062 13.4844 45.1406 8.73438
Q42.3906 4 38.0312 1.5
Q33.6875 -0.984375 27.4844 -0.984375
Q21.7344 -0.984375 17.4531 1.5
Q13.1875 4 10.375 8.73438
Q7.5625 13.4844 6.17188 20.3125
Q4.78125 27.1562 4.78125 35.7969
Q4.78125 44.4375 6.03125 51.2656
Q7.28125 58.1094 9.98438 62.8125
Q12.7031 67.5312 17.0156 70.0156
Q21.3438 72.5156 27.4844 72.5156
Q33.2969 72.5156 37.5938 70.0469
Q41.8906 67.5781 44.7188 62.8594
Q47.5625 58.1562 48.9688 51.3125
Q50.3906 44.4844 50.3906 35.7969
M13.8125 35.7969
Q13.8125 28.4688 14.5469 23
Q15.2812 17.5312 16.8906 13.8906
Q18.5 10.25 21.1094 8.42188
Q23.7344 6.59375 27.4844 6.59375
Q31.25 6.59375 33.8906 8.39062
Q36.5312 10.2031 38.2031 13.8125
Q39.8906 17.4375 40.6406 22.9219
Q41.4062 28.4219 41.4062 35.7969
Q41.4062 43.1094 40.6406 48.5781
Q39.8906 54.0469 38.2031 57.6562
Q36.5312 61.2812 33.8906 63.0781
Q31.25 64.8906 27.4844 64.8906
Q23.7344 64.8906 21.1094 63.0781
Q18.5 61.2812 16.8906 57.6562
Q15.2812 54.0469 14.5469 48.5781
Q13.8125 43.1094 13.8125 35.7969" id="WenQuanYiMicroHei-30"/>
      </defs>
      <g transform="translate(44.9736421875 180.885088153)scale(0.09996 -0.09996)">
       <use xlink:href="#WenQuanYiMicroHei-30"/>
      </g>
     </g>
    </g>
    <g id="xtick_2">
     <g id="line2d_4">
      <g>
       <use style="stroke:#000000;stroke-width:0.5;" x="158.85319875" xlink:href="#m93b0483c22" y="169.289690028"/>
      </g>
     </g>
     <g id="line2d_5">
      <g>
       <use style="stroke:#000000;stroke-width:0.5;" x="158.85319875" xlink:href="#m741efc42ff" y="12.1987809375"/>
      </g>
     </g>
     <g id="text_2">
      <!-- 5 -->
      <defs>
       <path d="
M26.6094 43.7969
Q31.4531 43.7969 35.625 42.4531
Q39.7969 41.1094 42.8906 38.4688
Q46 35.8438 47.75 31.9375
Q49.5156 28.0312 49.5156 22.9062
Q49.5156 17.3281 47.8438 12.8906
Q46.1875 8.45312 42.9219 5.375
Q39.6562 2.29688 34.8438 0.65625
Q30.0312 -0.984375 23.7812 -0.984375
Q21.2969 -0.984375 18.875 -0.734375
Q16.4531 -0.484375 14.2344 -0.015625
Q12.0156 0.4375 10.0156 1.17188
Q8.01562 1.90625 6.39062 2.875
L6.39062 11.2812
Q8.01562 10.1562 10.1875 9.28125
Q12.3594 8.40625 14.75 7.8125
Q17.1406 7.23438 19.5469 6.90625
Q21.9688 6.59375 24.0312 6.59375
Q27.875 6.59375 30.9062 7.5
Q33.9375 8.40625 36.0312 10.2969
Q38.1406 12.2031 39.25 15.0781
Q40.375 17.9688 40.375 21.9219
Q40.375 28.9062 36.0781 32.5938
Q31.7812 36.2812 23.5781 36.2812
Q22.2656 36.2812 20.7188 36.1562
Q19.1875 36.0312 17.6406 35.8281
Q16.1094 35.6406 14.7188 35.4219
Q13.3281 35.2031 12.3125 35.0156
L7.90625 37.7969
L10.5938 71.3906
L44.2812 71.3906
L44.2812 63.2812
L18.3125 63.2812
L16.4062 42.8281
Q17.9688 43.1094 20.5312 43.4531
Q23.0938 43.7969 26.6094 43.7969" id="WenQuanYiMicroHei-35"/>
      </defs>
      <g transform="translate(156.69781125 180.885088153)scale(0.09996 -0.09996)">
       <use xlink:href="#WenQuanYiMicroHei-35"/>
      </g>
     </g>
    </g>
    <g id="xtick_3">
     <g id="line2d_6">
      <g>
       <use style="stroke:#000000;stroke-width:0.5;" x="270.45319875" xlink:href="#m93b0483c22" y="169.289690028"/>
      </g>
     </g>
     <g id="line2d_7">
      <g>
       <use style="stroke:#000000;stroke-width:0.5;" x="270.45319875" xlink:href="#m741efc42ff" y="12.1987809375"/>
      </g>
     </g>
     <g id="text_3">
      <!-- 10 -->
      <defs>
       <path d="
M34.7188 0
L26.125 0
L26.125 44.5781
Q26.125 46.6875 26.1406 49.0781
Q26.1719 51.4688 26.2344 53.8281
Q26.3125 56.2031 26.3906 58.375
Q26.4688 60.5469 26.5156 62.2031
Q25.6875 61.3281 25.0469 60.6875
Q24.4219 60.0625 23.75 59.4688
Q23.0938 58.8906 22.3594 58.2188
Q21.625 57.5625 20.6094 56.6875
L13.375 50.7812
L8.6875 56.7812
L27.3906 71.3906
L34.7188 71.3906
z
" id="WenQuanYiMicroHei-31"/>
      </defs>
      <g transform="translate(265.616071875 180.885088153)scale(0.09996 -0.09996)">
       <use xlink:href="#WenQuanYiMicroHei-31"/>
       <use x="55.078125" xlink:href="#WenQuanYiMicroHei-30"/>
      </g>
     </g>
    </g>
    <g id="xtick_4">
     <g id="line2d_8">
      <g>
       <use style="stroke:#000000;stroke-width:0.5;" x="382.05319875" xlink:href="#m93b0483c22" y="169.289690028"/>
      </g>
     </g>
     <g id="line2d_9">
      <g>
       <use style="stroke:#000000;stroke-width:0.5;" x="382.05319875" xlink:href="#m741efc42ff" y="12.1987809375"/>
      </g>
     </g>
     <g id="text_4">
      <!-- 15 -->
      <g transform="translate(377.259804375 180.885088153)scale(0.09996 -0.09996)">
       <use xlink:href="#WenQuanYiMicroHei-31"/>
       <use x="55.078125" xlink:href="#WenQuanYiMicroHei-35"/>
      </g>
     </g>
    </g>
    <g id="xtick_5">
     <g id="line2d_10">
      <g>
       <use style="stroke:#000000;stroke-width:0.5;" x="493.65319875" xlink:href="#m93b0483c22" y="169.289690028"/>
      </g>
     </g>
     <g id="line2d_11">
      <g>
       <use style="stroke:#000000;stroke-width:0.5;" x="493.65319875" xlink:href="#m741efc42ff" y="12.1987809375"/>
      </g>
     </g>
     <g id="text_5">
      <!-- 20 -->
      <defs>
       <path d="
M49.2188 0
L4.6875 0
L4.6875 7.625
L21.7812 26.2188
Q25.4375 30.1719 28.3125 33.4375
Q31.2031 36.7188 33.2188 39.8438
Q35.25 42.9688 36.3281 46.1094
Q37.4062 49.2656 37.4062 52.9844
Q37.4062 55.8594 36.5781 58.0469
Q35.75 60.25 34.2031 61.7812
Q32.6719 63.3281 30.5625 64.1094
Q28.4688 64.8906 25.875 64.8906
Q21.2344 64.8906 17.5 63.0156
Q13.7656 61.1406 10.4062 58.2031
L5.42188 64.0156
Q7.375 65.7656 9.60938 67.2969
Q11.8594 68.8438 14.4531 69.9688
Q17.0469 71.0938 19.9219 71.75
Q22.7969 72.4062 25.9844 72.4062
Q30.6719 72.4062 34.4531 71.0938
Q38.2344 69.7812 40.8594 67.3125
Q43.5 64.8438 44.9375 61.2969
Q46.3906 57.7656 46.3906 53.3281
Q46.3906 49.1719 45.0938 45.4062
Q43.7969 41.6562 41.5312 38.0156
Q39.2656 34.375 36.1094 30.7031
Q32.9531 27.0469 29.2969 23.0938
L15.5781 8.5
L15.5781 8.10938
L49.2188 8.10938
z
" id="WenQuanYiMicroHei-32"/>
      </defs>
      <g transform="translate(488.616151875 180.885088153)scale(0.09996 -0.09996)">
       <use xlink:href="#WenQuanYiMicroHei-32"/>
       <use x="55.078125" xlink:href="#WenQuanYiMicroHei-30"/>
      </g>
     </g>
    </g>
    <g id="text_6">
     <!-- 频率窗口(frequency bin) -->
     <defs>
      <path d="
M42 0
L42 34.5156
Q42 40.875 39.4219 44.0469
Q36.8594 47.2188 31.3906 47.2188
Q27.4375 47.2188 24.75 45.9375
Q22.0781 44.6719 20.4375 42.1875
Q18.7969 39.7031 18.0938 36.0781
Q17.3906 32.4688 17.3906 27.7812
L17.3906 0
L8.5 0
L8.5 53.6094
L15.7188 53.6094
L17 46.3906
L17.4844 46.3906
Q18.7031 48.4844 20.3906 50.0156
Q22.0781 51.5625 24.0781 52.5781
Q26.0781 53.6094 28.3125 54.0938
Q30.5625 54.5938 32.9062 54.5938
Q41.8438 54.5938 46.3594 49.9219
Q50.875 45.2656 50.875 35.0156
L50.875 0
z
" id="WenQuanYiMicroHei-6e"/>
      <path d="
M90.2344 62.8906
L90.2344 12.1094
L82.4219 12.1094
L82.4219 55.8594
L58.9844 55.8594
L58.9844 11.7188
L51.1719 11.7188
L51.1719 62.8906
L64.4531 62.8906
L66.0156 70.7031
L47.6562 70.7031
L47.6562 77.7344
L93.3594 77.7344
L93.3594 70.7031
L73.4375 70.7031
L72.6562 62.8906
z

M66.7969 47.6562
L74.6094 47.6562
Q74.6094 22.2656 72.6562 15.2344
Q70.7031 8.20312 64.6406 1.75
Q58.5938 -4.6875 48.0469 -8.98438
L42.9688 -2.34375
Q52.7344 1.5625 58 6.82812
Q63.2812 12.1094 65.0312 18.5469
Q66.7969 25 66.7969 47.6562
M77.7344 12.8906
Q86.3281 6.25 94.9219 -2.73438
L89.0625 -8.98438
Q81.6406 0 71.4844 8.59375
z

M25.7812 81.25
L33.2031 81.25
L33.2031 69.1406
L44.1406 69.1406
L44.1406 62.5
L33.2031 62.5
L33.2031 50
L47.6562 50
L47.6562 43.3594
L6.64062 43.3594
L6.64062 50
L12.8906 50
L12.8906 73.8281
L20.3125 73.8281
L20.3125 50
L25.7812 50
z

M25 38.2812
L32.4219 38.2812
L32.4219 16.7969
Q37.1094 23.4375 39.8438 32.4219
L47.2656 29.6875
Q37.5 1.17188 10.9375 -8.98438
L7.8125 -2.34375
Q17.9688 1.17188 25 7.8125
z

M14.0625 35.9375
L21.0938 33.5938
Q16.7969 19.5312 11.7188 10.5469
L5.07812 14.0625
Q10.9375 25 14.0625 35.9375" id="WenQuanYiMicroHei-9891"/>
      <path d="
M26.125 27.3906
Q26.125 21.3438 25.2344 15.4844
Q24.3594 9.625 22.5312 4.125
Q20.7031 -1.375 17.9375 -6.39062
Q15.1875 -11.4219 11.375 -15.8281
L3.07812 -15.8281
Q6.45312 -11.2344 9.03125 -6.04688
Q11.625 -0.875 13.375 4.64062
Q15.1406 10.1562 16.0156 15.9219
Q16.8906 21.6875 16.8906 27.4844
Q16.8906 39.4062 13.375 50.6875
Q9.85938 61.9688 2.98438 71.3906
L11.375 71.3906
Q15.1875 66.8438 17.9375 61.6875
Q20.7031 56.5469 22.5312 50.9531
Q24.3594 45.3594 25.2344 39.4219
Q26.125 33.5 26.125 27.3906" id="WenQuanYiMicroHei-29"/>
      <path d="
M51.1719 81.25
Q54.2969 76.5625 55.8594 71.0938
L94.5312 71.0938
L94.5312 63.6719
L5.46875 63.6719
L5.46875 71.0938
L46.0938 71.0938
Q44.9219 75.3906 42.9688 78.5156
z

M46.4844 25.3906
L53.9062 25.3906
L53.9062 17.1875
L93.75 17.1875
L93.75 10.1562
L53.9062 10.1562
L53.9062 -8.98438
L46.4844 -8.98438
L46.4844 10.1562
L6.25 10.1562
L6.25 17.1875
L46.4844 17.1875
z

M45.7031 69.5312
L52.7344 67.5781
Q46.875 55.4688 42.1875 50
Q47.6562 50 54.2969 51.1719
Q57.8125 55.0781 60.9375 59.375
L67.9688 57.0312
Q56.6406 41.7969 42.5781 31.6406
Q52.3438 33.2031 60.5469 35.1562
Q58.9844 37.5 57.0312 39.8438
L63.2812 42.9688
Q69.9219 35.1562 74.6094 25.3906
L67.5781 22.2656
Q66.0156 26.1719 64.0625 29.6875
Q49.2188 26.1719 32.0312 23.8281
L30.0781 30.0781
Q39.4531 35.9375 48.0469 44.5312
Q41.4062 43.3594 33.9844 42.5781
L32.8125 49.2188
Q41.0156 58.9844 45.7031 69.5312
M17.1875 62.1094
Q23.4375 56.6406 27.7344 50
L20.7031 46.0938
Q16.7969 52.3438 10.1562 57.8125
z

M83.2031 62.1094
L89.8438 58.2031
Q83.2031 49.6094 76.5625 44.5312
L70.7031 50
Q78.5156 55.8594 83.2031 62.1094
M25.3906 42.5781
L31.25 38.2812
Q24.2188 29.6875 13.6719 22.2656
L7.8125 28.125
Q18.75 35.5469 25.3906 42.5781
M76.9531 41.4062
Q85.1562 36.7188 92.1875 30.0781
L86.3281 23.0469
Q79.6875 30.8594 71.875 35.9375
z
" id="WenQuanYiMicroHei-7387"/>
      <path d="
M51.5625 81.6406
Q53.5156 78.5156 54.6875 74.6094
L92.5781 74.6094
L92.5781 58.9844
L84.7656 58.9844
L84.7656 67.9688
L14.8438 67.9688
L14.8438 59.375
L7.03125 59.375
L7.03125 74.6094
L45.7031 74.6094
Q44.9219 76.9531 43.75 79.2969
z

M32.8125 66.4062
L39.4531 62.8906
Q29.2969 53.5156 9.76562 46.875
L5.07812 53.125
Q23.4375 59.375 32.8125 66.4062
M64.4531 65.2344
Q80.8594 60.1562 94.9219 53.125
L89.4531 47.2656
Q75.7812 54.6875 59.7656 59.375
z

M41.7969 55.8594
L50.3906 53.5156
Q47.2656 49.2188 43.75 45.7031
L86.3281 45.7031
L86.3281 -8.98438
L78.5156 -8.98438
L78.5156 -4.29688
L20.3125 -4.29688
L20.3125 -8.98438
L12.5 -8.98438
L12.5 45.7031
L34.375 45.7031
Q38.6719 50.7812 41.7969 55.8594
M20.3125 2.34375
L78.5156 2.34375
L78.5156 39.0625
L20.3125 39.0625
z

M40.625 37.8906
L48.0469 35.9375
L45.7031 31.6406
L71.0938 31.6406
L71.0938 25.3906
Q67.1875 18.75 60.9375 14.0625
L69.1406 9.375
L63.6719 3.51562
Q58.5938 7.03125 53.125 10.1562
Q43.3594 5.46875 30.0781 3.51562
L26.9531 10.5469
Q37.1094 11.7188 44.9219 14.4531
Q39.8438 16.7969 34.7656 18.75
Q32.8125 16.7969 30.0781 15.2344
L25 20.7031
Q35.1562 27.7344 40.625 37.8906
M53.5156 17.9688
Q59.375 21.0938 62.5 25.3906
L41.4062 25.3906
Q40.2344 24.2188 40.2344 23.8281
Q47.2656 21.0938 53.5156 17.9688" id="WenQuanYiMicroHei-7a97"/>
      <path d="
M43.2188 0
L41.8906 7.17188
L41.4062 7.17188
Q40.1875 5.07812 38.5 3.53125
Q36.8125 2 34.8125 1
Q32.8125 0 30.5625 -0.484375
Q28.3281 -0.984375 25.9844 -0.984375
Q21.5312 -0.984375 18.1562 0.140625
Q14.7969 1.26562 12.5469 3.65625
Q10.2969 6.0625 9.15625 9.76562
Q8.01562 13.4844 8.01562 18.6094
L8.01562 53.6094
L16.8906 53.6094
L16.8906 19.0938
Q16.8906 12.75 19.4844 9.5625
Q22.0781 6.39062 27.4844 6.39062
Q31.4531 6.39062 34.125 7.65625
Q36.8125 8.9375 38.4531 11.4062
Q40.0938 13.875 40.7969 17.4844
Q41.5 21.0938 41.5 25.7812
L41.5 53.6094
L50.3906 53.6094
L50.3906 0
z
" id="WenQuanYiMicroHei-75"/>
      <path d="
M4 27.3906
Q4 33.5 4.875 39.4219
Q5.76562 45.3594 7.5625 50.9531
Q9.375 56.5469 12.125 61.6875
Q14.8906 66.8438 18.7031 71.3906
L27.0938 71.3906
Q20.2656 61.9688 16.7188 50.6875
Q13.1875 39.4062 13.1875 27.4844
Q13.1875 21.6875 14.0781 15.9219
Q14.9844 10.1562 16.7188 4.64062
Q18.4531 -0.875 21.0469 -6.04688
Q23.6406 -11.2344 27 -15.8281
L18.7031 -15.8281
Q14.8906 -11.4219 12.125 -6.39062
Q9.375 -1.375 7.5625 4.125
Q5.76562 9.625 4.875 15.4844
Q4 21.3438 4 27.3906" id="WenQuanYiMicroHei-28"/>
      <path d="
M29.6875 -0.984375
Q24.3125 -0.984375 19.875 0.828125
Q15.4375 2.64062 12.2344 6.10938
Q9.03125 9.57812 7.26562 14.7031
Q5.51562 19.8281 5.51562 26.4219
Q5.51562 33.0625 7.125 38.2812
Q8.73438 43.5 11.6562 47.1406
Q14.5938 50.7812 18.6719 52.6875
Q22.75 54.5938 27.6875 54.5938
Q32.5156 54.5938 36.375 52.8594
Q40.2344 51.125 42.9219 47.9688
Q45.6094 44.8281 47.0469 40.4062
Q48.4844 35.9844 48.4844 30.6094
L48.4844 25.0938
L14.7031 25.0938
Q14.9375 15.6719 18.6719 11.2188
Q22.4062 6.78125 29.7812 6.78125
Q32.2812 6.78125 34.4062 7.03125
Q36.5312 7.28125 38.5 7.73438
Q40.4844 8.20312 42.3281 8.90625
Q44.1875 9.625 46.0938 10.5
L46.0938 2.59375
Q44.1406 1.65625 42.25 0.96875
Q40.375 0.296875 38.3906 -0.140625
Q36.4219 -0.59375 34.2969 -0.78125
Q32.1719 -0.984375 29.6875 -0.984375
M27.4844 47.2188
Q21.9219 47.2188 18.6719 43.4062
Q15.4375 39.5938 14.8906 32.3281
L38.9219 32.3281
Q38.9219 35.6406 38.25 38.3906
Q37.5938 41.1562 36.2031 43.1094
Q34.8125 45.0625 32.6562 46.1406
Q30.5156 47.2188 27.4844 47.2188" id="WenQuanYiMicroHei-65"/>
      <path d="
M31.7812 46.9219
L19.8281 46.9219
L19.8281 0
L10.8906 0
L10.8906 46.9219
L1.42188 46.9219
L1.42188 50.5938
L10.8906 53.9062
L10.8906 58.5938
Q10.8906 63.8125 11.9844 67.25
Q13.0938 70.7031 15.1562 72.75
Q17.2344 74.8125 20.2656 75.6562
Q23.2969 76.5156 27.0938 76.5156
Q29.9844 76.5156 32.3906 75.9531
Q34.8125 75.3906 36.7188 74.7031
L34.4219 67.8281
Q32.9062 68.3594 31.125 68.7656
Q29.3438 69.1875 27.3906 69.1875
Q25.4375 69.1875 24.0156 68.7188
Q22.6094 68.2656 21.6719 67.0938
Q20.75 65.9219 20.2812 63.8906
Q19.8281 61.8594 19.8281 58.6875
L19.8281 53.6094
L31.7812 53.6094
z
" id="WenQuanYiMicroHei-66"/>
      <path d="
M84.375 73.4375
L84.375 -7.8125
L76.5625 -7.8125
L76.5625 0.78125
L23.4375 0.78125
L23.4375 -7.8125
L16.0156 -7.8125
L16.0156 73.4375
z

M23.4375 8.20312
L76.5625 8.20312
L76.5625 66.0156
L23.4375 66.0156
z
" id="WenQuanYiMicroHei-53e3"/>
      <path d="
M31.6875 54.5938
Q33.1094 54.5938 34.8594 54.4688
Q36.625 54.3438 37.8906 54.1094
L36.7188 45.9062
Q35.3594 46.1406 33.9062 46.3125
Q32.4688 46.4844 31.2031 46.4844
Q28.125 46.4844 25.5781 45.2344
Q23.0469 44 21.2188 41.6719
Q19.3906 39.3594 18.3906 36.1094
Q17.3906 32.8594 17.3906 28.9062
L17.3906 0
L8.5 0
L8.5 53.6094
L15.7188 53.6094
L16.7969 43.7969
L17.1875 43.7969
Q18.4062 45.9062 19.7969 47.8594
Q21.1875 49.8125 22.9219 51.2969
Q24.6562 52.7812 26.7969 53.6875
Q28.9531 54.5938 31.6875 54.5938" id="WenQuanYiMicroHei-72"/>
      <path d="
M27.5938 6.39062
Q31.2969 6.39062 33.8594 7.51562
Q36.4219 8.64062 38 10.9375
Q39.5938 13.2344 40.3438 16.6719
Q41.1094 20.125 41.2188 24.7031
L41.2188 26.7031
Q41.2188 31.6406 40.5469 35.4688
Q39.8906 39.3125 38.2969 41.9219
Q36.7188 44.5312 34.0781 45.875
Q31.4531 47.2188 27.4844 47.2188
Q20.9062 47.2188 17.7969 41.8906
Q14.7031 36.5781 14.7031 26.6094
Q14.7031 16.4062 17.7969 11.3906
Q20.9062 6.39062 27.5938 6.39062
M25.875 -0.984375
Q21.3438 -0.984375 17.5781 0.78125
Q13.8125 2.54688 11.125 6.03125
Q8.45312 9.51562 6.98438 14.6875
Q5.51562 19.875 5.51562 26.7031
Q5.51562 33.5938 6.98438 38.7969
Q8.45312 44 11.125 47.5156
Q13.8125 51.0312 17.5781 52.8125
Q21.3438 54.5938 25.875 54.5938
Q28.7656 54.5938 31.1094 53.9219
Q33.4531 53.2656 35.2969 52.1719
Q37.1562 51.0781 38.625 49.5781
Q40.0938 48.0938 41.2188 46.3906
L41.6094 46.3906
L42.9219 53.6094
L50.0938 53.6094
L50.0938 -24.0312
L41.2188 -24.0312
L41.2188 -1.125
Q41.2188 -0.203125 41.3125 1.21875
Q41.4062 2.64062 41.5 3.95312
Q41.6562 5.51562 41.7969 7.17188
L41.2188 7.17188
Q40.1406 5.51562 38.6875 4.03125
Q37.25 2.54688 35.375 1.42188
Q33.5 0.296875 31.1562 -0.34375
Q28.8125 -0.984375 25.875 -0.984375" id="WenQuanYiMicroHei-71"/>
      <path d="
M29 -0.984375
Q24.0781 -0.984375 19.7812 0.546875
Q15.4844 2.09375 12.2969 5.4375
Q9.125 8.79688 7.3125 13.9844
Q5.51562 19.1875 5.51562 26.5156
Q5.51562 34.1875 7.375 39.5312
Q9.23438 44.875 12.4688 48.2188
Q15.7188 51.5625 20.0625 53.0781
Q24.4219 54.5938 29.3906 54.5938
Q33.2031 54.5938 36.8438 53.7656
Q40.4844 52.9375 42.9219 51.7031
L40.2812 44.1875
Q39.1562 44.6719 37.7812 45.1406
Q36.4219 45.6094 34.9531 45.9688
Q33.5 46.3438 32.0781 46.5625
Q30.6719 46.7812 29.3906 46.7812
Q21.7344 46.7812 18.2188 41.875
Q14.7031 36.9688 14.7031 26.6094
Q14.7031 16.3125 18.2344 11.5469
Q21.7812 6.78125 29 6.78125
Q32.9531 6.78125 36.1562 7.6875
Q39.3594 8.59375 42 9.8125
L42 1.90625
Q39.3594 0.484375 36.3438 -0.25
Q33.3438 -0.984375 29 -0.984375" id="WenQuanYiMicroHei-63"/>
      <path id="WenQuanYiMicroHei-20"/>
      <path d="
M32.7188 54.5938
Q37.3125 54.5938 41.0625 52.8281
Q44.8281 51.0781 47.4844 47.5781
Q50.1406 44.0938 51.6094 38.9062
Q53.0781 33.7344 53.0781 26.9062
Q53.0781 20.0156 51.6094 14.8125
Q50.1406 9.625 47.4844 6.10938
Q44.8281 2.59375 41.0625 0.796875
Q37.3125 -0.984375 32.7188 -0.984375
Q29.8281 -0.984375 27.4844 -0.34375
Q25.1406 0.296875 23.2656 1.34375
Q21.3906 2.39062 19.9375 3.79688
Q18.5 5.21875 17.3906 6.78125
L16.7969 6.78125
L14.9844 0
L8.5 0
L8.5 75.9844
L17.3906 75.9844
L17.3906 57.625
Q17.3906 55.9062 17.3281 53.9688
Q17.2812 52.0469 17.1875 50.3906
Q17.0938 48.4375 17 46.5781
L17.3906 46.5781
Q18.5 48.2969 19.9219 49.75
Q21.3438 51.2188 23.2188 52.2969
Q25.0938 53.375 27.4375 53.9844
Q29.7812 54.5938 32.7188 54.5938
M31 47.2188
Q27.0938 47.2188 24.4844 45.9688
Q21.875 44.7344 20.2812 42.1875
Q18.7031 39.6562 18.0469 35.8438
Q17.3906 32.0312 17.3906 26.9062
Q17.3906 21.9688 18.0469 18.1406
Q18.7031 14.3125 20.2812 11.6875
Q21.875 9.07812 24.5156 7.73438
Q27.1562 6.39062 31.1094 6.39062
Q37.7031 6.39062 40.7969 11.7188
Q43.8906 17.0469 43.8906 27
Q43.8906 37.1562 40.7969 42.1875
Q37.7031 47.2188 31 47.2188" id="WenQuanYiMicroHei-62"/>
      <path d="
M17.3906 0
L8.5 0
L8.5 53.6094
L17.3906 53.6094
z

M7.8125 68.1094
Q7.8125 71.0469 9.29688 72.3594
Q10.7969 73.6875 12.9844 73.6875
Q14.0625 73.6875 15.0156 73.3594
Q15.9688 73.0469 16.6719 72.3594
Q17.3906 71.6875 17.7969 70.625
Q18.2188 69.5781 18.2188 68.1094
Q18.2188 65.2812 16.6719 63.8906
Q15.1406 62.5 12.9844 62.5
Q10.7969 62.5 9.29688 63.8594
Q7.8125 65.2344 7.8125 68.1094" id="WenQuanYiMicroHei-69"/>
      <path d="
M0.484375 53.6094
L9.71875 53.6094
L20.2188 23.6875
Q20.9062 21.7344 21.6094 19.5781
Q22.3125 17.4375 22.9219 15.2812
Q23.5312 13.1406 23.9688 11.125
Q24.4219 9.125 24.6094 7.42188
L24.9062 7.42188
Q25.1406 8.64062 25.6719 10.7344
Q26.2188 12.8438 26.875 15.2031
Q27.5469 17.5781 28.25 19.875
Q28.9531 22.1719 29.5 23.7812
L39.2031 53.6094
L48.3906 53.6094
L27.2031 -6.98438
Q25.8281 -10.9375 24.2344 -14.0781
Q22.6562 -17.2344 20.5469 -19.4219
Q18.4531 -21.625 15.625 -22.8281
Q12.7969 -24.0312 8.89062 -24.0312
Q6.34375 -24.0312 4.48438 -23.75
Q2.64062 -23.4844 1.3125 -23.1875
L1.3125 -16.1094
Q2.34375 -16.3594 3.90625 -16.5312
Q5.46875 -16.7031 7.17188 -16.7031
Q9.51562 -16.7031 11.2188 -16.1406
Q12.9375 -15.5781 14.2031 -14.5
Q15.4844 -13.4219 16.375 -11.8594
Q17.2812 -10.2969 18.0156 -8.29688
L20.7969 -0.484375
z
" id="WenQuanYiMicroHei-79"/>
     </defs>
     <g transform="translate(216.628643438 196.448048778)scale(0.09996 -0.09996)">
      <use xlink:href="#WenQuanYiMicroHei-9891"/>
      <use x="100.0" xlink:href="#WenQuanYiMicroHei-7387"/>
      <use x="200.0" xlink:href="#WenQuanYiMicroHei-7a97"/>
      <use x="300.0" xlink:href="#WenQuanYiMicroHei-53e3"/>
      <use x="400.0" xlink:href="#WenQuanYiMicroHei-28"/>
      <use x="430.078125" xlink:href="#WenQuanYiMicroHei-66"/>
      <use x="462.98828125" xlink:href="#WenQuanYiMicroHei-72"/>
      <use x="502.880859375" xlink:href="#WenQuanYiMicroHei-65"/>
      <use x="556.396484375" xlink:href="#WenQuanYiMicroHei-71"/>
      <use x="614.990234375" xlink:href="#WenQuanYiMicroHei-75"/>
      <use x="673.876953125" xlink:href="#WenQuanYiMicroHei-65"/>
      <use x="727.392578125" xlink:href="#WenQuanYiMicroHei-6e"/>
      <use x="786.279296875" xlink:href="#WenQuanYiMicroHei-63"/>
      <use x="832.568359375" xlink:href="#WenQuanYiMicroHei-79"/>
      <use x="881.4453125" xlink:href="#WenQuanYiMicroHei-20"/>
      <use x="907.421875" xlink:href="#WenQuanYiMicroHei-62"/>
      <use x="966.015625" xlink:href="#WenQuanYiMicroHei-69"/>
      <use x="991.89453125" xlink:href="#WenQuanYiMicroHei-6e"/>
      <use x="1050.78125" xlink:href="#WenQuanYiMicroHei-29"/>
     </g>
    </g>
   </g>
   <g id="matplotlib.axis_2">
    <g id="ytick_1">
     <g id="line2d_12">
      <defs>
       <path d="
M0 0
L4 0" id="m728421d6d4" style="stroke:#000000;stroke-width:0.5;"/>
      </defs>
      <g>
       <use style="stroke:#000000;stroke-width:0.5;" x="47.25319875" xlink:href="#m728421d6d4" y="169.289690028"/>
      </g>
     </g>
     <g id="line2d_13">
      <defs>
       <path d="
M0 0
L-4 0" id="mcb0005524f" style="stroke:#000000;stroke-width:0.5;"/>
      </defs>
      <g>
       <use style="stroke:#000000;stroke-width:0.5;" x="493.65319875" xlink:href="#mcb0005524f" y="169.289690028"/>
      </g>
     </g>
     <g id="text_7">
      <!-- −120 -->
      <defs>
       <path d="
M4.98438 31.5938
L4.98438 38.9219
L50.0938 38.9219
L50.0938 31.5938
z
" id="WenQuanYiMicroHei-2212"/>
      </defs>
      <g transform="translate(22.197561875 171.886307216)scale(0.09996 -0.09996)">
       <use xlink:href="#WenQuanYiMicroHei-2212"/>
       <use x="55.078125" xlink:href="#WenQuanYiMicroHei-31"/>
       <use x="110.15625" xlink:href="#WenQuanYiMicroHei-32"/>
       <use x="165.234375" xlink:href="#WenQuanYiMicroHei-30"/>
      </g>
     </g>
    </g>
    <g id="ytick_2">
     <g id="line2d_14">
      <g>
       <use style="stroke:#000000;stroke-width:0.5;" x="47.25319875" xlink:href="#m728421d6d4" y="143.107871847"/>
      </g>
     </g>
     <g id="line2d_15">
      <g>
       <use style="stroke:#000000;stroke-width:0.5;" x="493.65319875" xlink:href="#mcb0005524f" y="143.107871847"/>
      </g>
     </g>
     <g id="text_8">
      <!-- −100 -->
      <g transform="translate(22.197561875 145.704489034)scale(0.09996 -0.09996)">
       <use xlink:href="#WenQuanYiMicroHei-2212"/>
       <use x="55.078125" xlink:href="#WenQuanYiMicroHei-31"/>
       <use x="110.15625" xlink:href="#WenQuanYiMicroHei-30"/>
       <use x="165.234375" xlink:href="#WenQuanYiMicroHei-30"/>
      </g>
     </g>
    </g>
    <g id="ytick_3">
     <g id="line2d_16">
      <g>
       <use style="stroke:#000000;stroke-width:0.5;" x="47.25319875" xlink:href="#m728421d6d4" y="116.926053665"/>
      </g>
     </g>
     <g id="line2d_17">
      <g>
       <use style="stroke:#000000;stroke-width:0.5;" x="493.65319875" xlink:href="#mcb0005524f" y="116.926053665"/>
      </g>
     </g>
     <g id="text_9">
      <!-- −80 -->
      <defs>
       <path d="
M27.5938 72.5156
Q31.6875 72.5156 35.3281 71.4375
Q38.9688 70.3594 41.7188 68.2031
Q44.4844 66.0625 46.0938 62.8438
Q47.7031 59.625 47.7031 55.3281
Q47.7031 52.0469 46.7188 49.4062
Q45.75 46.7812 44.0312 44.6562
Q42.3281 42.5312 39.9844 40.8438
Q37.6406 39.1562 34.9062 37.7969
Q37.75 36.2812 40.4531 34.4219
Q43.1719 32.5625 45.2812 30.25
Q47.4062 27.9375 48.7031 25.0469
Q50 22.1719 50 18.6094
Q50 14.1094 48.3594 10.4688
Q46.7344 6.84375 43.7812 4.29688
Q40.8281 1.76562 36.6875 0.390625
Q32.5625 -0.984375 27.5938 -0.984375
Q22.2188 -0.984375 18.0469 0.328125
Q13.875 1.65625 11.0156 4.125
Q8.15625 6.59375 6.65625 10.1562
Q5.17188 13.7188 5.17188 18.2188
Q5.17188 21.875 6.26562 24.7969
Q7.375 27.7344 9.21875 30.0781
Q11.0781 32.4219 13.6094 34.2188
Q16.1562 36.0312 19 37.4062
Q16.6094 38.9219 14.5 40.7031
Q12.4062 42.4844 10.8594 44.6719
Q9.32812 46.875 8.42188 49.5312
Q7.51562 52.2031 7.51562 55.4219
Q7.51562 59.6719 9.15625 62.8594
Q10.7969 66.0625 13.5781 68.2031
Q16.3594 70.3594 20 71.4375
Q23.6406 72.5156 27.5938 72.5156
M13.9219 18.1094
Q13.9219 15.5312 14.7031 13.3594
Q15.4844 11.1875 17.1406 9.64062
Q18.7969 8.10938 21.3281 7.25
Q23.875 6.39062 27.3906 6.39062
Q30.8125 6.39062 33.4219 7.25
Q36.0312 8.10938 37.7812 9.6875
Q39.5469 11.2812 40.4219 13.5156
Q41.3125 15.7656 41.3125 18.5
Q41.3125 21.0469 40.3594 23.0938
Q39.4062 25.1406 37.625 26.8906
Q35.8438 28.6562 33.3438 30.2188
Q30.8594 31.7812 27.7812 33.2969
L26.3125 33.9844
Q20.1719 31.0625 17.0469 27.2656
Q13.9219 23.4844 13.9219 18.1094
M27.4844 65.0938
Q22.3125 65.0938 19.2656 62.5
Q16.2188 59.9062 16.2188 54.9844
Q16.2188 52.2031 17.0625 50.1875
Q17.9219 48.1875 19.4375 46.625
Q20.9531 45.0625 23.0781 43.8125
Q25.2031 42.5781 27.6875 41.4062
Q30.0312 42.4844 32.1094 43.75
Q34.1875 45.0156 35.7188 46.625
Q37.25 48.25 38.125 50.2969
Q39.0156 52.3438 39.0156 54.9844
Q39.0156 59.9062 35.9375 62.5
Q32.8594 65.0938 27.4844 65.0938" id="WenQuanYiMicroHei-38"/>
      </defs>
      <g transform="translate(27.70317125 119.522670852)scale(0.09996 -0.09996)">
       <use xlink:href="#WenQuanYiMicroHei-2212"/>
       <use x="55.078125" xlink:href="#WenQuanYiMicroHei-38"/>
       <use x="110.15625" xlink:href="#WenQuanYiMicroHei-30"/>
      </g>
     </g>
    </g>
    <g id="ytick_4">
     <g id="line2d_18">
      <g>
       <use style="stroke:#000000;stroke-width:0.5;" x="47.25319875" xlink:href="#m728421d6d4" y="90.744235483"/>
      </g>
     </g>
     <g id="line2d_19">
      <g>
       <use style="stroke:#000000;stroke-width:0.5;" x="493.65319875" xlink:href="#mcb0005524f" y="90.744235483"/>
      </g>
     </g>
     <g id="text_10">
      <!-- −60 -->
      <defs>
       <path d="
M5.51562 30.5156
Q5.51562 35.6406 6.03125 40.7188
Q6.54688 45.7969 7.82812 50.4531
Q9.125 55.125 11.375 59.125
Q13.625 63.1406 17.0938 66.0938
Q20.5625 69.0469 25.3906 70.7188
Q30.2188 72.4062 36.7188 72.4062
Q37.6406 72.4062 38.7656 72.3594
Q39.8906 72.3125 41.0312 72.1875
Q42.1875 72.0781 43.2344 71.9062
Q44.2812 71.7344 45.125 71.4844
L45.125 63.9219
Q43.4062 64.5 41.25 64.7969
Q39.1094 65.0938 37.0156 65.0938
Q32.625 65.0938 29.2656 64.0312
Q25.9219 62.9844 23.4844 61.0781
Q21.0469 59.1875 19.4062 56.5469
Q17.7812 53.9062 16.75 50.7031
Q15.7188 47.5156 15.2344 43.8906
Q14.75 40.2812 14.5938 36.375
L15.1875 36.375
Q16.1562 38.1406 17.5469 39.6719
Q18.9531 41.2188 20.7969 42.3125
Q22.6562 43.4062 24.9688 44.0312
Q27.2969 44.6719 30.1719 44.6719
Q34.8125 44.6719 38.5625 43.2344
Q42.3281 41.7969 44.9688 39.0156
Q47.6094 36.2344 49.0469 32.2031
Q50.4844 28.1719 50.4844 23
Q50.4844 17.4375 48.9688 12.9844
Q47.4688 8.54688 44.625 5.4375
Q41.7969 2.34375 37.7969 0.671875
Q33.7969 -0.984375 28.8125 -0.984375
Q23.9219 -0.984375 19.6406 0.921875
Q15.375 2.82812 12.25 6.73438
Q9.125 10.6406 7.3125 16.5469
Q5.51562 22.4688 5.51562 30.5156
M28.7188 6.5
Q31.6406 6.5 34.0469 7.5
Q36.4688 8.5 38.2188 10.5156
Q39.9844 12.5469 40.9375 15.6406
Q41.8906 18.75 41.8906 23
Q41.8906 26.4219 41.0781 29.125
Q40.2812 31.8438 38.6719 33.7344
Q37.0625 35.6406 34.6406 36.6719
Q32.2344 37.7031 29 37.7031
Q25.7344 37.7031 23.0156 36.5469
Q20.3125 35.4062 18.4062 33.5625
Q16.5 31.7344 15.4531 29.3906
Q14.4062 27.0469 14.4062 24.7031
Q14.4062 21.4375 15.3125 18.1875
Q16.2188 14.9375 18 12.3438
Q19.7812 9.76562 22.4531 8.125
Q25.1406 6.5 28.7188 6.5" id="WenQuanYiMicroHei-36"/>
      </defs>
      <g transform="translate(27.70317125 93.3408526705)scale(0.09996 -0.09996)">
       <use xlink:href="#WenQuanYiMicroHei-2212"/>
       <use x="55.078125" xlink:href="#WenQuanYiMicroHei-36"/>
       <use x="110.15625" xlink:href="#WenQuanYiMicroHei-30"/>
      </g>
     </g>
    </g>
    <g id="ytick_5">
     <g id="line2d_20">
      <g>
       <use style="stroke:#000000;stroke-width:0.5;" x="47.25319875" xlink:href="#m728421d6d4" y="64.5624173011"/>
      </g>
     </g>
     <g id="line2d_21">
      <g>
       <use style="stroke:#000000;stroke-width:0.5;" x="493.65319875" xlink:href="#mcb0005524f" y="64.5624173011"/>
      </g>
     </g>
     <g id="text_11">
      <!-- −40 -->
      <defs>
       <path d="
M53.0781 16.0156
L42.6719 16.0156
L42.6719 0
L34.0781 0
L34.0781 16.0156
L1.125 16.0156
L1.125 23.7812
L33.5 71.7812
L42.6719 71.7812
L42.6719 24.125
L53.0781 24.125
z

M34.0781 24.125
L34.0781 41.5
Q34.0781 44.2344 34.1562 47.2344
Q34.2344 50.25 34.3281 53.0938
Q34.4219 55.9531 34.5469 58.4375
Q34.6719 60.9375 34.7188 62.5938
L34.2812 62.5938
Q33.9375 61.625 33.4219 60.4219
Q32.9062 59.2344 32.2969 58.0312
Q31.6875 56.8438 31.0469 55.7188
Q30.4219 54.5938 29.8906 53.8125
L9.8125 24.125
z
" id="WenQuanYiMicroHei-34"/>
      </defs>
      <g transform="translate(27.70317125 67.1590344886)scale(0.09996 -0.09996)">
       <use xlink:href="#WenQuanYiMicroHei-2212"/>
       <use x="55.078125" xlink:href="#WenQuanYiMicroHei-34"/>
       <use x="110.15625" xlink:href="#WenQuanYiMicroHei-30"/>
      </g>
     </g>
    </g>
    <g id="ytick_6">
     <g id="line2d_22">
      <g>
       <use style="stroke:#000000;stroke-width:0.5;" x="47.25319875" xlink:href="#m728421d6d4" y="38.3805991193"/>
      </g>
     </g>
     <g id="line2d_23">
      <g>
       <use style="stroke:#000000;stroke-width:0.5;" x="493.65319875" xlink:href="#mcb0005524f" y="38.3805991193"/>
      </g>
     </g>
     <g id="text_12">
      <!-- −20 -->
      <g transform="translate(27.70317125 40.9772163068)scale(0.09996 -0.09996)">
       <use xlink:href="#WenQuanYiMicroHei-2212"/>
       <use x="55.078125" xlink:href="#WenQuanYiMicroHei-32"/>
       <use x="110.15625" xlink:href="#WenQuanYiMicroHei-30"/>
      </g>
     </g>
    </g>
    <g id="ytick_7">
     <g id="line2d_24">
      <g>
       <use style="stroke:#000000;stroke-width:0.5;" x="47.25319875" xlink:href="#m728421d6d4" y="12.1987809375"/>
      </g>
     </g>
     <g id="line2d_25">
      <g>
       <use style="stroke:#000000;stroke-width:0.5;" x="493.65319875" xlink:href="#mcb0005524f" y="12.1987809375"/>
      </g>
     </g>
     <g id="text_13">
      <!-- 0 -->
      <g transform="translate(38.694085625 14.795398125)scale(0.09996 -0.09996)">
       <use xlink:href="#WenQuanYiMicroHei-30"/>
      </g>
     </g>
    </g>
    <g id="text_14">
     <!-- 幅值(dB) -->
     <defs>
      <path d="
M41.6094 7.17188
L41.2188 7.17188
Q40.1406 5.51562 38.6875 4.03125
Q37.25 2.54688 35.375 1.42188
Q33.5 0.296875 31.1562 -0.34375
Q28.8125 -0.984375 25.875 -0.984375
Q21.3438 -0.984375 17.5781 0.78125
Q13.8125 2.54688 11.125 6.03125
Q8.45312 9.51562 6.98438 14.6875
Q5.51562 19.875 5.51562 26.7031
Q5.51562 33.5938 6.98438 38.7969
Q8.45312 44 11.125 47.5156
Q13.8125 51.0312 17.5781 52.8125
Q21.3438 54.5938 25.875 54.5938
Q28.7656 54.5938 31.1094 53.9531
Q33.4531 53.3281 35.3281 52.25
Q37.2031 51.1719 38.6719 49.75
Q40.1406 48.3438 41.2188 46.7812
L41.7969 46.7812
Q41.6562 48.4375 41.5 49.9531
Q41.4062 51.2188 41.3125 52.5625
Q41.2188 53.9062 41.2188 54.6875
L41.2188 75.9844
L50.0938 75.9844
L50.0938 0
L42.9219 0
z

M27.5938 6.39062
Q31.2969 6.39062 33.8594 7.51562
Q36.4219 8.64062 38 10.9375
Q39.5938 13.2344 40.3438 16.6719
Q41.1094 20.125 41.2188 24.7031
L41.2188 26.7031
Q41.2188 31.6406 40.5469 35.4688
Q39.8906 39.3125 38.2969 41.9219
Q36.7188 44.5312 34.0781 45.875
Q31.4531 47.2188 27.4844 47.2188
Q20.9062 47.2188 17.7969 41.8906
Q14.7031 36.5781 14.7031 26.6094
Q14.7031 16.4062 17.7969 11.3906
Q20.9062 6.39062 27.5938 6.39062" id="WenQuanYiMicroHei-64"/>
      <path d="
M9.71875 71.3906
L29.2031 71.3906
Q35.4531 71.3906 40.2031 70.4375
Q44.9688 69.4844 48.1719 67.3594
Q51.375 65.2344 52.9844 61.7812
Q54.5938 58.3438 54.5938 53.3281
Q54.5938 50.2969 53.6406 47.6562
Q52.6875 45.0156 50.875 43.0156
Q49.0781 41.0156 46.4062 39.6719
Q43.75 38.3281 40.375 37.8906
L40.375 37.4062
Q43.75 36.8125 46.7031 35.7188
Q49.6562 34.625 51.8438 32.6875
Q54.0469 30.7656 55.3125 27.8281
Q56.5938 24.9062 56.5938 20.7031
Q56.5938 15.8281 55 11.9844
Q53.4219 8.15625 50.4062 5.48438
Q47.4062 2.82812 43.1094 1.40625
Q38.8125 0 33.4062 0
L9.71875 0
z

M18.7969 41.1094
L30.7188 41.1094
Q34.8125 41.1094 37.5938 41.8438
Q40.375 42.5781 42.0781 44.0156
Q43.7969 45.4531 44.5469 47.625
Q45.3125 49.8125 45.3125 52.6875
Q45.3125 58.5469 41.5469 61.0781
Q37.7969 63.625 29.6875 63.625
L18.7969 63.625
z

M18.7969 33.5
L18.7969 7.71875
L31.7812 7.71875
Q36.0781 7.71875 38.9844 8.6875
Q41.8906 9.67188 43.6719 11.4219
Q45.4531 13.1875 46.2344 15.6406
Q47.0156 18.1094 47.0156 21.0938
Q47.0156 23.8281 46.2031 26.125
Q45.4062 28.4219 43.5781 30.0469
Q41.75 31.6875 38.7188 32.5938
Q35.6875 33.5 31.2031 33.5
z
" id="WenQuanYiMicroHei-42"/>
      <path d="
M40.2344 66.0156
L40.2344 20.7031
Q40.2344 16.4062 38.0781 14.25
Q35.9375 12.1094 31.6406 12.1094
Q30.8594 12.1094 29.6875 12.5
L28.125 19.5312
Q30.4688 19.1406 31.25 19.1406
Q33.2031 19.1406 33.2031 22.6562
L33.2031 58.5938
L26.5625 58.5938
L26.5625 -8.98438
L19.9219 -8.98438
L19.9219 58.5938
L13.6719 58.5938
L13.6719 11.3281
L6.64062 11.3281
L6.64062 66.0156
L19.9219 66.0156
L19.9219 80.8594
L26.5625 80.8594
L26.5625 66.0156
z

M44.1406 77.7344
L92.5781 77.7344
L92.5781 70.7031
L44.1406 70.7031
z

M47.2656 63.6719
L89.4531 63.6719
L89.4531 41.4062
L47.2656 41.4062
z

M54.6875 48.0469
L82.0312 48.0469
L82.0312 57.0312
L54.6875 57.0312
z

M92.9688 34.375
L92.9688 -8.98438
L85.5469 -8.98438
L85.5469 -3.90625
L51.5625 -3.90625
L51.5625 -8.98438
L44.1406 -8.98438
L44.1406 34.375
z

M51.5625 17.9688
L64.8438 17.9688
L64.8438 27.3438
L51.5625 27.3438
z

M71.875 27.3438
L71.875 17.9688
L85.5469 17.9688
L85.5469 27.3438
z

M51.5625 2.73438
L64.8438 2.73438
L64.8438 11.7188
L51.5625 11.7188
z

M71.875 2.73438
L85.5469 2.73438
L85.5469 11.7188
L71.875 11.7188
z
" id="WenQuanYiMicroHei-5e45"/>
      <path d="
M24.6094 80.8594
L32.4219 78.5156
Q29.2969 69.5312 25.3906 60.5469
L25.3906 -8.98438
L17.5781 -8.98438
L17.5781 45.7031
Q12.8906 38.2812 7.8125 32.0312
L3.90625 39.8438
Q18.3594 59.375 24.6094 80.8594
M35.1562 71.4844
L59.375 71.4844
L59.375 80.4688
L67.1875 80.4688
L67.1875 71.4844
L91.7969 71.4844
L91.7969 64.4531
L67.1875 64.4531
L67.1875 55.4688
L87.1094 55.4688
L87.1094 1.17188
L94.5312 1.17188
L94.5312 -5.46875
L30.0781 -5.46875
L30.0781 1.17188
L41.0156 1.17188
L41.0156 55.4688
L59.375 55.4688
L59.375 64.4531
L35.1562 64.4531
z

M48.8281 41.4062
L79.2969 41.4062
L79.2969 48.8281
L48.8281 48.8281
z

M48.8281 27.7344
L79.2969 27.7344
L79.2969 35.5469
L48.8281 35.5469
z

M48.8281 14.4531
L79.2969 14.4531
L79.2969 21.875
L48.8281 21.875
z

M48.8281 1.17188
L79.2969 1.17188
L79.2969 8.59375
L48.8281 8.59375
z
" id="WenQuanYiMicroHei-503c"/>
     </defs>
     <g transform="translate(14.795398125 109.25011142)rotate(-90.0)scale(0.09996 -0.09996)">
      <use xlink:href="#WenQuanYiMicroHei-5e45"/>
      <use x="100.0" xlink:href="#WenQuanYiMicroHei-503c"/>
      <use x="200.0" xlink:href="#WenQuanYiMicroHei-28"/>
      <use x="230.078125" xlink:href="#WenQuanYiMicroHei-64"/>
      <use x="288.671875" xlink:href="#WenQuanYiMicroHei-42"/>
      <use x="350.78125" xlink:href="#WenQuanYiMicroHei-29"/>
     </g>
    </g>
   </g>
   <g id="patch_3">
    <path d="
M47.2532 12.1988
L493.653 12.1988" style="fill:none;stroke:#000000;"/>
   </g>
   <g id="patch_4">
    <path d="
M493.653 169.29
L493.653 12.1988" style="fill:none;stroke:#000000;"/>
   </g>
   <g id="patch_5">
    <path d="
M47.2532 169.29
L493.653 169.29" style="fill:none;stroke:#000000;"/>
   </g>
   <g id="patch_6">
    <path d="
M47.2532 169.29
L47.2532 12.1988" style="fill:none;stroke:#000000;"/>
   </g>
  </g>
  <g id="axes_2">
   <g id="patch_7">
    <path d="
M47.2532 357.799
L493.653 357.799
L493.653 200.708
L47.2532 200.708
z
" style="fill:#ffffff;"/>
   </g>
   <g id="line2d_26">
    <path clip-path="url(#p4d69dbdfcc)" d="
M47.2532 357.799
L142.485 200.708
L236.973 356.572
L236.973 356.572" style="fill:none;stroke:#348abd;stroke-linecap:square;stroke-width:2;"/>
   </g>
   <g id="line2d_27">
    <path clip-path="url(#p4d69dbdfcc)" d="
M47.2532 279.253
L427.437 279.253
L427.437 279.253" style="fill:none;opacity:0.6;stroke:#a60628;stroke-linecap:square;stroke-width:2.0;"/>
   </g>
   <g id="line2d_28">
    <path clip-path="url(#p4d69dbdfcc)" d="
M47.2532 342.923
L48.7412 342.846
L50.2292 342.616
L51.7172 342.234
L53.9492 341.376
L56.1812 340.181
L58.4132 338.657
L60.6452 336.81
L62.8772 334.652
L65.1092 332.193
L67.3412 329.447
L70.3172 325.366
L73.2932 320.841
L76.2692 315.915
L79.9892 309.267
L83.7092 302.168
L88.9172 291.675
L98.5892 271.459
L104.541 259.281
L109.005 250.627
L112.725 243.88
L115.701 238.862
L118.677 234.232
L121.653 230.036
L123.885 227.198
L126.117 224.642
L128.349 222.382
L130.581 220.43
L132.813 218.797
L135.045 217.492
L137.277 216.521
L139.509 215.89
L140.997 215.66
L142.485 215.584
L143.973 215.66
L145.461 215.89
L146.949 216.273
L149.181 217.131
L151.413 218.325
L153.645 219.85
L155.877 221.697
L158.109 223.855
L160.341 226.314
L162.573 229.06
L165.549 233.141
L168.525 237.666
L171.501 242.592
L175.221 249.24
L178.941 256.339
L184.149 266.832
L193.821 287.047
L199.773 299.225
L204.237 307.88
L207.957 314.626
L210.933 319.645
L213.909 324.275
L216.885 328.471
L219.117 331.309
L221.349 333.865
L223.581 336.125
L225.813 338.076
L228.045 339.71
L230.277 341.015
L232.509 341.986
L234.741 342.616
L236.229 342.846
L237.717 342.923
L239.205 342.846
L240.693 342.616
L242.181 342.234
L244.413 341.376
L246.645 340.181
L248.877 338.657
L251.109 336.81
L253.341 334.652
L255.573 332.193
L257.805 329.447
L260.781 325.366
L263.757 320.841
L266.733 315.915
L270.453 309.267
L274.173 302.168
L279.381 291.675
L289.053 271.459
L295.005 259.281
L299.469 250.627
L303.189 243.88
L306.165 238.862
L309.141 234.232
L312.117 230.036
L314.349 227.198
L316.581 224.642
L318.813 222.382
L321.045 220.43
L323.277 218.797
L325.509 217.492
L327.741 216.521
L329.973 215.89
L331.461 215.66
L332.949 215.584
L334.437 215.66
L335.925 215.89
L337.413 216.273
L339.645 217.131
L341.877 218.325
L344.109 219.85
L346.341 221.697
L348.573 223.855
L350.805 226.314
L353.037 229.06
L356.013 233.141
L358.989 237.666
L361.965 242.592
L365.685 249.24
L369.405 256.339
L374.613 266.832
L384.285 287.047
L390.237 299.225
L394.701 307.88
L398.421 314.626
L401.397 319.645
L404.373 324.275
L407.349 328.471
L409.581 331.309
L411.813 333.865
L414.045 336.125
L416.277 338.076
L418.509 339.71
L420.741 341.015
L422.973 341.986
L425.205 342.616
L426.693 342.846
L427.437 342.904
L427.437 342.904" style="fill:none;opacity:0.6;stroke:#7a68a6;stroke-linecap:square;stroke-width:2.0;"/>
   </g>
   <g id="line2d_29">
    <path clip-path="url(#p4d69dbdfcc)" d="
M47.2532 350
L48.7412 349.847
L50.2292 349.389
L51.7172 348.632
L53.2052 347.584
L54.6932 346.259
L56.1812 344.671
L58.4132 341.839
L60.6452 338.53
L62.8772 334.825
L65.8532 329.421
L70.3172 320.743
L77.0132 307.685
L80.7332 300.907
L84.4532 294.633
L88.1732 288.849
L92.6372 282.387
L101.565 269.657
L105.285 263.874
L109.005 257.6
L112.725 250.822
L117.189 242.18
L124.629 227.695
L127.605 222.408
L129.837 218.826
L132.069 215.667
L134.301 213.01
L135.789 211.551
L137.277 210.363
L138.765 209.459
L140.253 208.851
L141.741 208.545
L143.229 208.545
L144.717 208.851
L146.205 209.459
L147.693 210.363
L149.181 211.551
L150.669 213.01
L152.157 214.722
L154.389 217.722
L156.621 221.172
L159.597 226.328
L163.317 233.372
L173.733 253.589
L177.453 260.172
L181.173 266.242
L184.893 271.857
L190.101 279.253
L196.053 287.743
L199.773 293.439
L203.493 299.61
L207.213 306.292
L211.677 314.861
L219.861 330.812
L222.837 336.099
L225.069 339.681
L227.301 342.84
L229.533 345.497
L231.021 346.955
L232.509 348.144
L233.997 349.047
L235.485 349.656
L236.973 349.962
L238.461 349.962
L239.949 349.656
L241.437 349.047
L242.925 348.144
L244.413 346.955
L245.901 345.497
L247.389 343.785
L249.621 340.785
L251.853 337.335
L254.829 332.179
L258.549 325.135
L268.965 304.917
L272.685 298.335
L276.405 292.265
L280.125 286.65
L285.333 279.253
L291.285 270.764
L295.005 265.068
L298.725 258.896
L302.445 252.214
L306.909 243.645
L315.093 227.695
L318.069 222.408
L320.301 218.826
L322.533 215.667
L324.765 213.01
L326.253 211.551
L327.741 210.363
L329.229 209.459
L330.717 208.851
L332.205 208.545
L333.693 208.545
L335.181 208.851
L336.669 209.459
L338.157 210.363
L339.645 211.551
L341.133 213.01
L342.621 214.722
L344.853 217.722
L347.085 221.172
L350.061 226.328
L353.781 233.372
L364.197 253.589
L367.917 260.172
L371.637 266.242
L375.357 271.857
L380.565 279.253
L386.517 287.743
L390.237 293.439
L393.957 299.61
L397.677 306.292
L402.141 314.861
L410.325 330.812
L413.301 336.099
L415.533 339.681
L417.765 342.84
L419.997 345.497
L421.485 346.955
L422.973 348.144
L424.461 349.047
L425.949 349.656
L427.437 349.962
L427.437 349.962" style="fill:none;opacity:0.6;stroke:#467821;stroke-linecap:square;stroke-width:2.0;"/>
   </g>
   <g id="line2d_30">
    <path clip-path="url(#p4d69dbdfcc)" d="
M47.2532 352.55
L47.9972 352.493
L49.4852 352.035
L50.9732 351.132
L52.4612 349.809
L53.9492 348.102
L55.4372 346.055
L57.6692 342.465
L59.9012 338.424
L65.1092 328.311
L68.8292 321.347
L71.8052 316.228
L74.7812 311.519
L79.2452 304.925
L84.4532 297.155
L88.1732 291.127
L91.8932 284.642
L102.309 266.135
L106.029 260.203
L110.493 253.582
L115.701 245.843
L118.677 241.039
L121.653 235.812
L125.373 228.749
L131.325 217.348
L133.557 213.585
L135.045 211.389
L136.533 209.506
L138.021 207.986
L139.509 206.869
L140.997 206.186
L141.741 206.014
L142.485 205.956
L143.229 206.014
L144.717 206.472
L146.205 207.375
L147.693 208.698
L149.181 210.405
L150.669 212.451
L152.901 216.041
L155.133 220.083
L160.341 230.195
L164.061 237.159
L167.037 242.278
L170.013 246.988
L174.477 253.582
L179.685 261.352
L183.405 267.38
L187.125 273.865
L197.541 292.372
L201.261 298.304
L205.725 304.925
L210.933 312.663
L213.909 317.467
L216.885 322.694
L220.605 329.757
L226.557 341.159
L228.789 344.921
L230.277 347.118
L231.765 349.001
L233.253 350.521
L234.741 351.638
L236.229 352.32
L236.973 352.493
L237.717 352.55
L238.461 352.493
L239.949 352.035
L241.437 351.132
L242.925 349.809
L244.413 348.102
L245.901 346.055
L248.133 342.465
L250.365 338.424
L255.573 328.311
L259.293 321.347
L262.269 316.228
L265.245 311.519
L269.709 304.925
L274.917 297.155
L278.637 291.127
L282.357 284.642
L292.773 266.135
L296.493 260.203
L300.957 253.582
L306.165 245.843
L309.141 241.039
L312.117 235.812
L315.837 228.749
L321.789 217.348
L324.021 213.585
L325.509 211.389
L326.997 209.506
L328.485 207.986
L329.973 206.869
L331.461 206.186
L332.205 206.014
L332.949 205.956
L333.693 206.014
L335.181 206.472
L336.669 207.375
L338.157 208.698
L339.645 210.405
L341.133 212.451
L343.365 216.041
L345.597 220.083
L350.805 230.195
L354.525 237.159
L357.501 242.278
L360.477 246.988
L364.941 253.582
L370.149 261.352
L373.869 267.38
L377.589 273.865
L388.005 292.372
L391.725 298.304
L396.189 304.925
L401.397 312.663
L404.373 317.467
L407.349 322.694
L411.069 329.757
L417.021 341.159
L419.253 344.921
L420.741 347.118
L422.229 349.001
L423.717 350.521
L425.205 351.638
L426.693 352.32
L427.437 352.493
L427.437 352.493" style="fill:none;opacity:0.6;stroke:#cf4457;stroke-linecap:square;stroke-width:2.0;"/>
   </g>
   <g id="line2d_31">
    <path clip-path="url(#p4d69dbdfcc)" d="
M47.2532 353.853
L47.9972 353.776
L48.7412 353.547
L49.4852 353.168
L50.2292 352.645
L51.7172 351.191
L53.2052 349.255
L54.6932 346.927
L56.9252 342.921
L64.3652 328.859
L67.3412 323.971
L71.0612 318.388
L75.5252 311.656
L78.5012 306.783
L82.9652 298.937
L88.1732 289.825
L91.8932 283.815
L101.565 268.682
L105.285 262.226
L111.981 250.471
L114.957 245.689
L119.421 239.024
L123.141 233.361
L126.117 228.34
L129.093 222.797
L134.301 212.86
L135.789 210.373
L137.277 208.229
L138.765 206.524
L140.253 205.338
L140.997 204.96
L141.741 204.731
L142.485 204.654
L143.229 204.731
L143.973 204.96
L144.717 205.338
L145.461 205.862
L146.949 207.316
L148.437 209.252
L149.925 211.58
L152.157 215.586
L159.597 229.647
L162.573 234.536
L166.293 240.118
L170.757 246.85
L173.733 251.723
L178.197 259.569
L183.405 268.682
L187.125 274.691
L196.797 289.825
L200.517 296.28
L207.213 308.036
L210.189 312.818
L214.653 319.483
L218.373 325.146
L221.349 330.166
L224.325 335.71
L229.533 345.647
L231.021 348.134
L232.509 350.278
L233.997 351.983
L235.485 353.168
L236.229 353.547
L236.973 353.776
L237.717 353.853
L238.461 353.776
L239.205 353.547
L239.949 353.168
L240.693 352.645
L242.181 351.191
L243.669 349.255
L245.157 346.927
L247.389 342.921
L254.829 328.859
L257.805 323.971
L261.525 318.388
L265.989 311.656
L268.965 306.783
L273.429 298.937
L278.637 289.825
L282.357 283.815
L292.029 268.682
L295.749 262.226
L302.445 250.471
L305.421 245.689
L309.885 239.024
L313.605 233.361
L316.581 228.34
L319.557 222.797
L324.765 212.86
L326.253 210.373
L327.741 208.229
L329.229 206.524
L330.717 205.338
L331.461 204.96
L332.205 204.731
L332.949 204.654
L333.693 204.731
L334.437 204.96
L335.181 205.338
L335.925 205.862
L337.413 207.316
L338.901 209.252
L340.389 211.58
L342.621 215.586
L350.061 229.647
L353.037 234.536
L356.757 240.118
L361.221 246.85
L364.197 251.723
L368.661 259.569
L373.869 268.682
L377.589 274.691
L387.261 289.825
L390.981 296.28
L397.677 308.036
L400.653 312.818
L405.117 319.483
L408.837 325.146
L411.813 330.166
L414.789 335.71
L419.997 345.647
L421.485 348.134
L422.973 350.278
L424.461 351.983
L425.949 353.168
L426.693 353.547
L427.437 353.776
L427.437 353.776" style="fill:none;opacity:0.6;stroke:#188487;stroke-linecap:square;stroke-width:2.0;"/>
   </g>
   <g id="line2d_32">
    <path clip-path="url(#p4d69dbdfcc)" d="
M47.2532 354.642
L47.9972 354.546
L48.7412 354.26
L49.4852 353.79
L50.2292 353.145
L51.7172 351.382
L53.2052 349.101
L55.4372 345.049
L60.6452 335.18
L62.8772 331.449
L65.8532 326.922
L70.3172 320.15
L73.2932 315.18
L82.2212 299.814
L92.6372 283.148
L100.821 269.147
L106.029 261.035
L109.749 255.042
L113.469 248.578
L117.933 240.791
L120.909 236.029
L128.349 224.612
L130.581 220.63
L137.277 208.209
L138.765 206.169
L140.253 204.716
L140.997 204.246
L141.741 203.961
L142.485 203.865
L143.229 203.961
L143.973 204.246
L144.717 204.716
L145.461 205.361
L146.949 207.124
L148.437 209.406
L150.669 213.457
L155.877 223.327
L158.109 227.057
L161.085 231.585
L165.549 238.357
L168.525 243.327
L177.453 258.693
L187.869 275.359
L196.053 289.359
L201.261 297.472
L204.981 303.464
L208.701 309.928
L213.165 317.716
L216.141 322.478
L223.581 333.895
L225.813 337.877
L232.509 350.297
L233.997 352.338
L235.485 353.79
L236.229 354.26
L236.973 354.546
L237.717 354.642
L238.461 354.546
L239.205 354.26
L239.949 353.79
L240.693 353.145
L242.181 351.382
L243.669 349.101
L245.901 345.049
L251.109 335.18
L253.341 331.449
L256.317 326.922
L260.781 320.15
L263.757 315.18
L272.685 299.814
L283.101 283.148
L291.285 269.147
L296.493 261.035
L300.213 255.042
L303.933 248.578
L308.397 240.791
L311.373 236.029
L318.813 224.612
L321.045 220.63
L327.741 208.209
L329.229 206.169
L330.717 204.716
L331.461 204.246
L332.205 203.961
L332.949 203.865
L333.693 203.961
L334.437 204.246
L335.181 204.716
L335.925 205.361
L337.413 207.124
L338.901 209.406
L341.133 213.457
L346.341 223.327
L348.573 227.057
L351.549 231.585
L356.013 238.357
L358.989 243.327
L367.917 258.693
L378.333 275.359
L386.517 289.359
L391.725 297.472
L395.445 303.464
L399.165 309.928
L403.629 317.716
L406.605 322.478
L414.045 333.895
L416.277 337.877
L422.973 350.297
L424.461 352.338
L425.949 353.79
L426.693 354.26
L427.437 354.546
L427.437 354.546" style="fill:none;opacity:0.6;stroke:#e24a33;stroke-linecap:square;stroke-width:2.0;"/>
   </g>
   <g id="matplotlib.axis_3">
    <g id="xtick_6">
     <g id="line2d_33">
      <g>
       <use style="stroke:#000000;stroke-width:0.5;" x="47.25319875" xlink:href="#m93b0483c22" y="357.798780937"/>
      </g>
     </g>
     <g id="line2d_34">
      <g>
       <use style="stroke:#000000;stroke-width:0.5;" x="47.25319875" xlink:href="#m741efc42ff" y="200.707871847"/>
      </g>
     </g>
     <g id="text_15">
      <!-- 0 -->
      <g transform="translate(44.9736421875 369.394179062)scale(0.09996 -0.09996)">
       <use xlink:href="#WenQuanYiMicroHei-30"/>
      </g>
     </g>
    </g>
    <g id="xtick_7">
     <g id="line2d_35">
      <g>
       <use style="stroke:#000000;stroke-width:0.5;" x="121.65319875" xlink:href="#m93b0483c22" y="357.798780937"/>
      </g>
     </g>
     <g id="line2d_36">
      <g>
       <use style="stroke:#000000;stroke-width:0.5;" x="121.65319875" xlink:href="#m741efc42ff" y="200.707871847"/>
      </g>
     </g>
     <g id="text_16">
      <!-- 100 -->
      <g transform="translate(114.063267188 369.394179062)scale(0.09996 -0.09996)">
       <use xlink:href="#WenQuanYiMicroHei-31"/>
       <use x="55.078125" xlink:href="#WenQuanYiMicroHei-30"/>
       <use x="110.15625" xlink:href="#WenQuanYiMicroHei-30"/>
      </g>
     </g>
    </g>
    <g id="xtick_8">
     <g id="line2d_37">
      <g>
       <use style="stroke:#000000;stroke-width:0.5;" x="196.05319875" xlink:href="#m93b0483c22" y="357.798780937"/>
      </g>
     </g>
     <g id="line2d_38">
      <g>
       <use style="stroke:#000000;stroke-width:0.5;" x="196.05319875" xlink:href="#m741efc42ff" y="200.707871847"/>
      </g>
     </g>
     <g id="text_17">
      <!-- 200 -->
      <g transform="translate(188.263347188 369.394179062)scale(0.09996 -0.09996)">
       <use xlink:href="#WenQuanYiMicroHei-32"/>
       <use x="55.078125" xlink:href="#WenQuanYiMicroHei-30"/>
       <use x="110.15625" xlink:href="#WenQuanYiMicroHei-30"/>
      </g>
     </g>
    </g>
    <g id="xtick_9">
     <g id="line2d_39">
      <g>
       <use style="stroke:#000000;stroke-width:0.5;" x="270.45319875" xlink:href="#m93b0483c22" y="357.798780937"/>
      </g>
     </g>
     <g id="line2d_40">
      <g>
       <use style="stroke:#000000;stroke-width:0.5;" x="270.45319875" xlink:href="#m741efc42ff" y="200.707871847"/>
      </g>
     </g>
     <g id="text_18">
      <!-- 300 -->
      <defs>
       <path d="
M46.9219 54.6875
Q46.9219 51.125 45.7969 48.1875
Q44.6719 45.2656 42.6406 43.1094
Q40.625 40.9688 37.7969 39.5781
Q34.9688 38.1875 31.5 37.5938
L31.5 37.3125
Q40.1406 36.2344 44.625 31.8125
Q49.125 27.3906 49.125 20.3125
Q49.125 15.625 47.5312 11.7188
Q45.9531 7.8125 42.7188 4.98438
Q39.5 2.15625 34.5625 0.578125
Q29.6406 -0.984375 22.9062 -0.984375
Q17.5781 -0.984375 12.8594 -0.140625
Q8.15625 0.6875 4 2.875
L4 11.1875
Q8.25 8.9375 13.2031 7.71875
Q18.1719 6.5 22.7031 6.5
Q27.2031 6.5 30.4688 7.46875
Q33.7344 8.45312 35.8594 10.25
Q37.9844 12.0625 38.9844 14.6875
Q39.9844 17.3281 39.9844 20.6094
Q39.9844 23.9219 38.6875 26.2812
Q37.4062 28.6562 35.0156 30.1875
Q32.625 31.7344 29.1719 32.4688
Q25.7344 33.2031 21.3906 33.2031
L14.8906 33.2031
L14.8906 40.5781
L21.3906 40.5781
Q25.3438 40.5781 28.4219 41.5469
Q31.5 42.5312 33.5625 44.3281
Q35.6406 46.1406 36.7188 48.625
Q37.7969 51.125 37.7969 54.1094
Q37.7969 56.6406 36.9062 58.6406
Q36.0312 60.6406 34.4219 62.0312
Q32.8125 63.4219 30.5625 64.1562
Q28.3281 64.8906 25.5938 64.8906
Q20.3594 64.8906 16.375 63.25
Q12.4062 61.625 8.79688 58.9844
L4.29688 65.0938
Q6.15625 66.6094 8.42188 67.9219
Q10.6875 69.2344 13.375 70.2344
Q16.0625 71.2344 19.1094 71.8125
Q22.1719 72.4062 25.5938 72.4062
Q30.8594 72.4062 34.8281 71.0938
Q38.8125 69.7812 41.5 67.4062
Q44.1875 65.0469 45.5469 61.7969
Q46.9219 58.5469 46.9219 54.6875" id="WenQuanYiMicroHei-33"/>
      </defs>
      <g transform="translate(262.628985938 369.394179062)scale(0.09996 -0.09996)">
       <use xlink:href="#WenQuanYiMicroHei-33"/>
       <use x="55.078125" xlink:href="#WenQuanYiMicroHei-30"/>
       <use x="110.15625" xlink:href="#WenQuanYiMicroHei-30"/>
      </g>
     </g>
    </g>
    <g id="xtick_10">
     <g id="line2d_41">
      <g>
       <use style="stroke:#000000;stroke-width:0.5;" x="344.85319875" xlink:href="#m93b0483c22" y="357.798780937"/>
      </g>
     </g>
     <g id="line2d_42">
      <g>
       <use style="stroke:#000000;stroke-width:0.5;" x="344.85319875" xlink:href="#m741efc42ff" y="200.707871847"/>
      </g>
     </g>
     <g id="text_19">
      <!-- 400 -->
      <g transform="translate(336.885293438 369.394179062)scale(0.09996 -0.09996)">
       <use xlink:href="#WenQuanYiMicroHei-34"/>
       <use x="55.078125" xlink:href="#WenQuanYiMicroHei-30"/>
       <use x="110.15625" xlink:href="#WenQuanYiMicroHei-30"/>
      </g>
     </g>
    </g>
    <g id="xtick_11">
     <g id="line2d_43">
      <g>
       <use style="stroke:#000000;stroke-width:0.5;" x="419.25319875" xlink:href="#m93b0483c22" y="357.798780937"/>
      </g>
     </g>
     <g id="line2d_44">
      <g>
       <use style="stroke:#000000;stroke-width:0.5;" x="419.25319875" xlink:href="#m741efc42ff" y="200.707871847"/>
      </g>
     </g>
     <g id="text_20">
      <!-- 500 -->
      <g transform="translate(411.548469375 369.394179062)scale(0.09996 -0.09996)">
       <use xlink:href="#WenQuanYiMicroHei-35"/>
       <use x="55.078125" xlink:href="#WenQuanYiMicroHei-30"/>
       <use x="110.15625" xlink:href="#WenQuanYiMicroHei-30"/>
      </g>
     </g>
    </g>
    <g id="xtick_12">
     <g id="line2d_45">
      <g>
       <use style="stroke:#000000;stroke-width:0.5;" x="493.65319875" xlink:href="#m93b0483c22" y="357.798780937"/>
      </g>
     </g>
     <g id="line2d_46">
      <g>
       <use style="stroke:#000000;stroke-width:0.5;" x="493.65319875" xlink:href="#m741efc42ff" y="200.707871847"/>
      </g>
     </g>
     <g id="text_21">
      <!-- 600 -->
      <g transform="translate(485.904736875 369.394179062)scale(0.09996 -0.09996)">
       <use xlink:href="#WenQuanYiMicroHei-36"/>
       <use x="55.078125" xlink:href="#WenQuanYiMicroHei-30"/>
       <use x="110.15625" xlink:href="#WenQuanYiMicroHei-30"/>
      </g>
     </g>
    </g>
   </g>
   <g id="matplotlib.axis_4">
    <g id="ytick_8">
     <g id="line2d_47">
      <g>
       <use style="stroke:#000000;stroke-width:0.5;" x="47.25319875" xlink:href="#m728421d6d4" y="357.798780937"/>
      </g>
     </g>
     <g id="line2d_48">
      <g>
       <use style="stroke:#000000;stroke-width:0.5;" x="493.65319875" xlink:href="#mcb0005524f" y="357.798780937"/>
      </g>
     </g>
     <g id="text_22">
      <!-- 0.0 -->
      <defs>
       <path d="
M7.17188 5.42188
Q7.17188 7.28125 7.65625 8.5625
Q8.15625 9.85938 8.98438 10.6562
Q9.8125 11.4688 10.9375 11.8281
Q12.0625 12.2031 13.375 12.2031
Q14.6562 12.2031 15.7969 11.8281
Q16.9375 11.4688 17.7656 10.6562
Q18.6094 9.85938 19.0938 8.5625
Q19.5781 7.28125 19.5781 5.42188
Q19.5781 3.60938 19.0938 2.3125
Q18.6094 1.03125 17.7656 0.1875
Q16.9375 -0.640625 15.7969 -1.03125
Q14.6562 -1.42188 13.375 -1.42188
Q12.0625 -1.42188 10.9375 -1.03125
Q9.8125 -0.640625 8.98438 0.1875
Q8.15625 1.03125 7.65625 2.3125
Q7.17188 3.60938 7.17188 5.42188" id="WenQuanYiMicroHei-2e"/>
      </defs>
      <g transform="translate(30.50829875 360.395398125)scale(0.09996 -0.09996)">
       <use xlink:href="#WenQuanYiMicroHei-30"/>
       <use x="55.078125" xlink:href="#WenQuanYiMicroHei-2e"/>
       <use x="81.884765625" xlink:href="#WenQuanYiMicroHei-30"/>
      </g>
     </g>
    </g>
    <g id="ytick_9">
     <g id="line2d_49">
      <g>
       <use style="stroke:#000000;stroke-width:0.5;" x="47.25319875" xlink:href="#m728421d6d4" y="326.380599119"/>
      </g>
     </g>
     <g id="line2d_50">
      <g>
       <use style="stroke:#000000;stroke-width:0.5;" x="493.65319875" xlink:href="#mcb0005524f" y="326.380599119"/>
      </g>
     </g>
     <g id="text_23">
      <!-- 0.1 -->
      <g transform="translate(32.074859375 328.977216307)scale(0.09996 -0.09996)">
       <use xlink:href="#WenQuanYiMicroHei-30"/>
       <use x="55.078125" xlink:href="#WenQuanYiMicroHei-2e"/>
       <use x="81.884765625" xlink:href="#WenQuanYiMicroHei-31"/>
      </g>
     </g>
    </g>
    <g id="ytick_10">
     <g id="line2d_51">
      <g>
       <use style="stroke:#000000;stroke-width:0.5;" x="47.25319875" xlink:href="#m728421d6d4" y="294.962417301"/>
      </g>
     </g>
     <g id="line2d_52">
      <g>
       <use style="stroke:#000000;stroke-width:0.5;" x="493.65319875" xlink:href="#mcb0005524f" y="294.962417301"/>
      </g>
     </g>
     <g id="text_24">
      <!-- 0.2 -->
      <g transform="translate(30.625439375 297.559034489)scale(0.09996 -0.09996)">
       <use xlink:href="#WenQuanYiMicroHei-30"/>
       <use x="55.078125" xlink:href="#WenQuanYiMicroHei-2e"/>
       <use x="81.884765625" xlink:href="#WenQuanYiMicroHei-32"/>
      </g>
     </g>
    </g>
    <g id="ytick_11">
     <g id="line2d_53">
      <g>
       <use style="stroke:#000000;stroke-width:0.5;" x="47.25319875" xlink:href="#m728421d6d4" y="263.544235483"/>
      </g>
     </g>
     <g id="line2d_54">
      <g>
       <use style="stroke:#000000;stroke-width:0.5;" x="493.65319875" xlink:href="#mcb0005524f" y="263.544235483"/>
      </g>
     </g>
     <g id="text_25">
      <!-- 0.3 -->
      <g transform="translate(30.634810625 266.14085267)scale(0.09996 -0.09996)">
       <use xlink:href="#WenQuanYiMicroHei-30"/>
       <use x="55.078125" xlink:href="#WenQuanYiMicroHei-2e"/>
       <use x="81.884765625" xlink:href="#WenQuanYiMicroHei-33"/>
      </g>
     </g>
    </g>
    <g id="ytick_12">
     <g id="line2d_55">
      <g>
       <use style="stroke:#000000;stroke-width:0.5;" x="47.25319875" xlink:href="#m728421d6d4" y="232.126053665"/>
      </g>
     </g>
     <g id="line2d_56">
      <g>
       <use style="stroke:#000000;stroke-width:0.5;" x="493.65319875" xlink:href="#mcb0005524f" y="232.126053665"/>
      </g>
     </g>
     <g id="text_26">
      <!-- 0.4 -->
      <g transform="translate(30.23965625 234.722670852)scale(0.09996 -0.09996)">
       <use xlink:href="#WenQuanYiMicroHei-30"/>
       <use x="55.078125" xlink:href="#WenQuanYiMicroHei-2e"/>
       <use x="81.884765625" xlink:href="#WenQuanYiMicroHei-34"/>
      </g>
     </g>
    </g>
    <g id="ytick_13">
     <g id="line2d_57">
      <g>
       <use style="stroke:#000000;stroke-width:0.5;" x="47.25319875" xlink:href="#m728421d6d4" y="200.707871847"/>
      </g>
     </g>
     <g id="line2d_58">
      <g>
       <use style="stroke:#000000;stroke-width:0.5;" x="493.65319875" xlink:href="#mcb0005524f" y="200.707871847"/>
      </g>
     </g>
     <g id="text_27">
      <!-- 0.5 -->
      <g transform="translate(30.59576375 203.304489034)scale(0.09996 -0.09996)">
       <use xlink:href="#WenQuanYiMicroHei-30"/>
       <use x="55.078125" xlink:href="#WenQuanYiMicroHei-2e"/>
       <use x="81.884765625" xlink:href="#WenQuanYiMicroHei-35"/>
      </g>
     </g>
    </g>
   </g>
   <g id="patch_8">
    <path d="
M47.2532 200.708
L493.653 200.708" style="fill:none;stroke:#000000;"/>
   </g>
   <g id="patch_9">
    <path d="
M493.653 357.799
L493.653 200.708" style="fill:none;stroke:#000000;"/>
   </g>
   <g id="patch_10">
    <path d="
M47.2532 357.799
L493.653 357.799" style="fill:none;stroke:#000000;"/>
   </g>
   <g id="patch_11">
    <path d="
M47.2532 357.799
L47.2532 200.708" style="fill:none;stroke:#000000;"/>
   </g>
   <g id="legend_1">
    <g id="patch_12">
     <path d="
M403.549 313.674
L488.655 313.674
L488.655 205.706
L403.549 205.706
L403.549 313.674
z
" style="fill:#ffffff;stroke:#000000;"/>
    </g>
    <g id="line2d_59">
     <path d="
M410.546 213.801
L424.54 213.801" style="fill:none;stroke:#348abd;stroke-linecap:square;stroke-width:2;"/>
    </g>
    <g id="line2d_60"/>
    <g id="text_28">
     <!-- 原始三角波 -->
     <defs>
      <path d="
M16.4062 80.4688
Q26.5625 75.3906 35.1562 68.75
L29.6875 62.1094
Q20.7031 69.5312 10.9375 75
z

M11.7188 57.0312
Q21.0938 52.3438 29.2969 46.0938
L23.8281 39.4531
Q15.625 46.4844 6.25 51.5625
z

M23.8281 31.6406
L30.4688 26.5625
Q24.2188 8.20312 12.5 -8.98438
L5.07812 -3.51562
Q16.7969 13.2812 23.8281 31.6406
M61.3281 68.3594
L61.3281 80.8594
L69.1406 80.8594
L69.1406 68.3594
L92.5781 68.3594
L92.5781 61.3281
Q92.5781 60.9375 90.625 55.6562
Q88.6719 50.3906 86.7188 46.0938
L79.2969 48.4375
Q82.0312 54.6875 83.9844 60.9375
L69.1406 60.9375
L69.1406 41.7969
L89.4531 41.7969
Q87.5 23.0469 74.6094 8.98438
Q82.8125 3.125 95.3125 -1.95312
L89.4531 -9.375
Q77.7344 -3.90625 68.75 3.51562
Q59.375 -3.90625 46.875 -8.59375
L42.9688 -1.17188
Q54.6875 2.73438 62.8906 8.98438
Q55.4688 16.0156 50 26.1719
L55.8594 30.4688
Q61.3281 20.7031 68.75 14.0625
Q77.7344 23.4375 80.0781 34.7656
L48.4375 34.7656
L48.4375 32.4219
Q48.4375 9.375 35.1562 -8.98438
L28.125 -4.6875
Q35.5469 6.25 38.4688 14.8438
Q41.4062 23.4375 41.4062 35.5469
L41.4062 68.3594
z

M48.4375 41.7969
L61.3281 41.7969
L61.3281 60.9375
L48.4375 60.9375
z
" id="WenQuanYiMicroHei-6ce2"/>
      <path d="
M32.8125 82.8125
L41.4062 80.8594
Q39.4531 77.3438 37.1094 74.2188
L71.0938 74.2188
L71.0938 67.9688
Q67.1875 62.8906 62.8906 58.9844
L89.0625 58.9844
L89.0625 1.5625
Q89.0625 -3.90625 87.1094 -6.4375
Q85.1562 -8.98438 81.25 -8.98438
Q75.3906 -8.98438 65.625 -7.8125
L63.6719 1.17188
Q75 0 79.2969 0
Q81.25 0 81.25 2.73438
L81.25 14.0625
L55.8594 14.0625
L55.8594 -8.59375
L48.0469 -8.59375
L48.0469 14.0625
L23.4375 14.0625
Q21.0938 0.78125 10.1562 -9.375
L4.6875 -2.34375
Q16.7969 8.59375 16.7969 33.9844
L16.7969 54.6875
Q12.8906 51.9531 8.59375 49.6094
L3.125 55.8594
Q22.6562 66.7969 32.8125 82.8125
M22.6562 58.9844
L51.9531 58.9844
Q57.0312 63.2812 59.7656 67.5781
L31.6406 67.5781
Q28.5156 63.6719 22.6562 58.9844
M25 39.8438
L48.0469 39.8438
L48.0469 51.5625
L25 51.5625
z

M55.8594 51.5625
L55.8594 39.8438
L81.25 39.8438
L81.25 51.5625
z

M24.6094 21.0938
L48.0469 21.0938
L48.0469 32.8125
L25 32.8125
L25 29.2969
Q25 26.1719 24.6094 21.0938
M55.8594 32.8125
L55.8594 21.0938
L81.25 21.0938
L81.25 32.8125
z
" id="WenQuanYiMicroHei-89d2"/>
      <path d="
M12.5 73.4375
L87.5 73.4375
L87.5 66.0156
L12.5 66.0156
z

M16.7969 39.8438
L83.2031 39.8438
L83.2031 32.4219
L16.7969 32.4219
z

M7.8125 5.46875
L92.1875 5.46875
L92.1875 -1.95312
L7.8125 -1.95312
z
" id="WenQuanYiMicroHei-4e09"/>
      <path d="
M92.9688 77.7344
L92.9688 70.3125
L19.1406 70.3125
L19.1406 37.8906
Q19.1406 11.7188 10.9375 -9.375
L3.90625 -5.07812
Q11.3281 15.625 11.3281 40.2344
L11.3281 77.7344
z

M28.5156 60.5469
L47.6562 60.5469
Q49.6094 64.8438 50.3906 69.1406
L57.8125 67.1875
L55.4688 60.5469
L86.7188 60.5469
L86.7188 22.6562
L62.5 22.6562
L62.5 1.17188
Q62.5 -4.6875 60.5469 -6.82812
Q58.5938 -8.98438 53.5156 -8.98438
Q47.2656 -8.98438 41.7969 -7.42188
L40.2344 0.390625
Q46.0938 -1.5625 52.3438 -1.5625
Q54.6875 -1.5625 54.6875 3.125
L54.6875 22.6562
L28.5156 22.6562
z

M35.5469 45.3125
L79.2969 45.3125
L79.2969 53.5156
L35.5469 53.5156
z

M35.5469 29.6875
L79.2969 29.6875
L79.2969 38.6719
L35.5469 38.6719
z

M37.8906 19.9219
L44.1406 15.625
Q35.9375 1.17188 25 -7.03125
L19.5312 -1.17188
Q31.25 8.59375 37.8906 19.9219
M76.5625 17.9688
Q85.5469 10.9375 94.1406 0.78125
L87.1094 -4.6875
Q79.6875 4.6875 69.9219 13.6719
z
" id="WenQuanYiMicroHei-539f"/>
      <path d="
M21.4844 80.8594
L28.5156 79.2969
L25.3906 63.2812
L41.4062 63.2812
Q39.8438 32.0312 31.6406 15.625
Q37.5 9.375 43.3594 2.73438
L36.7188 -2.34375
Q32.8125 3.51562 28.125 8.98438
Q19.5312 -3.125 9.76562 -9.375
L5.07812 -2.73438
Q14.4531 3.51562 22.2656 15.625
Q16.0156 22.2656 8.59375 28.5156
Q12.5 41.4062 16.0156 55.8594
L5.07812 55.8594
L5.07812 63.2812
L17.5781 63.2812
z

M25.7812 22.2656
Q31.6406 34.7656 33.2031 55.8594
L23.8281 55.8594
Q20.7031 42.1875 17.1875 30.8594
z

M62.5 81.25
L70.3125 78.9062
Q61.7188 57.0312 53.5156 48.8281
Q66.7969 49.6094 80.8594 52.3438
Q77.3438 58.9844 73.4375 64.8438
L80.0781 67.9688
Q88.6719 55.4688 94.5312 40.625
L87.5 37.5
Q85.9375 41.7969 83.9844 46.0938
Q66.0156 42.1875 45.7031 41.0156
L43.3594 48.0469
Q54.6875 58.9844 62.5 81.25
M89.0625 31.6406
L89.0625 -8.98438
L81.6406 -8.98438
L81.6406 -2.73438
L55.0781 -2.73438
L55.0781 -8.98438
L47.6562 -8.98438
L47.6562 31.6406
z

M55.0781 4.29688
L81.6406 4.29688
L81.6406 24.6094
L55.0781 24.6094
z
" id="WenQuanYiMicroHei-59cb"/>
     </defs>
     <g transform="translate(435.53583 217.299669972)scale(0.09996 -0.09996)">
      <use xlink:href="#WenQuanYiMicroHei-539f"/>
      <use x="100.0" xlink:href="#WenQuanYiMicroHei-59cb"/>
      <use x="200.0" xlink:href="#WenQuanYiMicroHei-4e09"/>
      <use x="300.0" xlink:href="#WenQuanYiMicroHei-89d2"/>
      <use x="400.0" xlink:href="#WenQuanYiMicroHei-6ce2"/>
     </g>
    </g>
    <g id="line2d_61">
     <path d="
M410.546 228.797
L424.54 228.797" style="fill:none;opacity:0.6;stroke:#a60628;stroke-linecap:square;stroke-width:2.0;"/>
    </g>
    <g id="line2d_62"/>
    <g id="text_29">
     <!-- N=0 -->
     <defs>
      <path d="
M4.98438 41.6094
L4.98438 48.875
L50.0938 48.875
L50.0938 41.6094
z

M4.98438 21.5781
L4.98438 28.9062
L50.0938 28.9062
L50.0938 21.5781
z
" id="WenQuanYiMicroHei-3d"/>
      <path d="
M63.1875 0
L52.6875 0
L17.5781 59.0781
L17.1875 59.0781
Q17.4844 55.3281 17.6719 51.6094
Q17.875 48.4375 17.9844 44.9688
Q18.1094 41.5 18.1094 38.7188
L18.1094 0
L9.71875 0
L9.71875 71.3906
L20.125 71.3906
L55.0781 12.5938
L55.4219 12.5938
Q55.2812 16.3125 55.0781 19.9219
Q55.0312 21.4844 54.9844 23.1406
L54.7812 26.375
Q54.7344 28.0312 54.7031 29.5469
Q54.6875 31.0625 54.6875 32.3281
L54.6875 71.3906
L63.1875 71.3906
z
" id="WenQuanYiMicroHei-4e"/>
     </defs>
     <g transform="translate(435.53583 232.295231847)scale(0.09996 -0.09996)">
      <use xlink:href="#WenQuanYiMicroHei-4e"/>
      <use x="72.900390625" xlink:href="#WenQuanYiMicroHei-3d"/>
      <use x="127.978515625" xlink:href="#WenQuanYiMicroHei-30"/>
     </g>
    </g>
    <g id="line2d_63">
     <path d="
M410.546 243.792
L424.54 243.792" style="fill:none;opacity:0.6;stroke:#7a68a6;stroke-linecap:square;stroke-width:2.0;"/>
    </g>
    <g id="line2d_64"/>
    <g id="text_30">
     <!-- N=1 -->
     <g transform="translate(435.53583 247.290793722)scale(0.09996 -0.09996)">
      <use xlink:href="#WenQuanYiMicroHei-4e"/>
      <use x="72.900390625" xlink:href="#WenQuanYiMicroHei-3d"/>
      <use x="127.978515625" xlink:href="#WenQuanYiMicroHei-31"/>
     </g>
    </g>
    <g id="line2d_65">
     <path d="
M410.546 258.788
L424.54 258.788" style="fill:none;opacity:0.6;stroke:#467821;stroke-linecap:square;stroke-width:2.0;"/>
    </g>
    <g id="line2d_66"/>
    <g id="text_31">
     <!-- N=3 -->
     <g transform="translate(435.53583 262.286355597)scale(0.09996 -0.09996)">
      <use xlink:href="#WenQuanYiMicroHei-4e"/>
      <use x="72.900390625" xlink:href="#WenQuanYiMicroHei-3d"/>
      <use x="127.978515625" xlink:href="#WenQuanYiMicroHei-33"/>
     </g>
    </g>
    <g id="line2d_67">
     <path d="
M410.546 273.783
L424.54 273.783" style="fill:none;opacity:0.6;stroke:#cf4457;stroke-linecap:square;stroke-width:2.0;"/>
    </g>
    <g id="line2d_68"/>
    <g id="text_32">
     <!-- N=5 -->
     <g transform="translate(435.53583 277.281917472)scale(0.09996 -0.09996)">
      <use xlink:href="#WenQuanYiMicroHei-4e"/>
      <use x="72.900390625" xlink:href="#WenQuanYiMicroHei-3d"/>
      <use x="127.978515625" xlink:href="#WenQuanYiMicroHei-35"/>
     </g>
    </g>
    <g id="line2d_69">
     <path d="
M410.546 288.779
L424.54 288.779" style="fill:none;opacity:0.6;stroke:#188487;stroke-linecap:square;stroke-width:2.0;"/>
    </g>
    <g id="line2d_70"/>
    <g id="text_33">
     <!-- N=7 -->
     <defs>
      <path d="
M13.7188 0
L41.2188 63.2812
L4.39062 63.2812
L4.39062 71.3906
L50.2969 71.3906
L50.2969 64.3125
L23.1875 0
z
" id="WenQuanYiMicroHei-37"/>
     </defs>
     <g transform="translate(435.53583 292.277479347)scale(0.09996 -0.09996)">
      <use xlink:href="#WenQuanYiMicroHei-4e"/>
      <use x="72.900390625" xlink:href="#WenQuanYiMicroHei-3d"/>
      <use x="127.978515625" xlink:href="#WenQuanYiMicroHei-37"/>
     </g>
    </g>
    <g id="line2d_71">
     <path d="
M410.546 303.774
L424.54 303.774" style="fill:none;opacity:0.6;stroke:#e24a33;stroke-linecap:square;stroke-width:2.0;"/>
    </g>
    <g id="line2d_72"/>
    <g id="text_34">
     <!-- N=9 -->
     <defs>
      <path d="
M50.2031 40.9219
Q50.2031 35.7969 49.6875 30.6875
Q49.1719 25.5938 47.875 20.9531
Q46.5781 16.3125 44.3281 12.2812
Q42.0938 8.25 38.625 5.3125
Q35.1562 2.39062 30.3125 0.703125
Q25.4844 -0.984375 19 -0.984375
Q18.0625 -0.984375 16.9375 -0.921875
Q15.8281 -0.875 14.7031 -0.75
Q13.5781 -0.640625 12.5 -0.484375
Q11.4219 -0.34375 10.5938 -0.09375
L10.5938 7.51562
Q12.3125 6.89062 14.4531 6.59375
Q16.6094 6.29688 18.7031 6.29688
Q25.2969 6.29688 29.5469 8.59375
Q33.7969 10.8906 36.2812 14.8125
Q38.7656 18.75 39.8125 23.9688
Q40.875 29.2031 41.1094 35.0156
L40.4844 35.0156
Q39.5 33.25 38.125 31.7344
Q36.7656 30.2188 34.9062 29.0938
Q33.0625 27.9844 30.7188 27.3438
Q28.375 26.7031 25.4844 26.7031
Q20.8438 26.7031 17.0781 28.1406
Q13.3281 29.5938 10.6875 32.375
Q8.0625 35.1562 6.60938 39.1875
Q5.17188 43.2188 5.17188 48.3906
Q5.17188 53.9531 6.70312 58.4219
Q8.25 62.8906 11.0625 65.9844
Q13.875 69.0938 17.8906 70.75
Q21.9219 72.4062 26.9062 72.4062
Q31.8438 72.4062 36.0781 70.5
Q40.3281 68.6094 43.4531 64.7031
Q46.5781 60.7969 48.3906 54.8594
Q50.2031 48.9219 50.2031 40.9219
M27 64.8906
Q24.0781 64.8906 21.6562 63.9062
Q19.2344 62.9375 17.4688 60.8906
Q15.7188 58.8438 14.7656 55.7344
Q13.8125 52.6406 13.8125 48.3906
Q13.8125 44.9688 14.625 42.25
Q15.4375 39.5469 17.0469 37.6406
Q18.6562 35.75 21.0625 34.7188
Q23.4844 33.6875 26.7031 33.6875
Q30.0312 33.6875 32.7188 34.8281
Q35.4062 35.9844 37.2969 37.8125
Q39.2031 39.6562 40.25 42
Q41.3125 44.3438 41.3125 46.6875
Q41.3125 49.9531 40.4062 53.2031
Q39.5 56.4531 37.7188 59.0625
Q35.9375 61.6719 33.25 63.2812
Q30.5625 64.8906 27 64.8906" id="WenQuanYiMicroHei-39"/>
     </defs>
     <g transform="translate(435.53583 307.273041222)scale(0.09996 -0.09996)">
      <use xlink:href="#WenQuanYiMicroHei-4e"/>
      <use x="72.900390625" xlink:href="#WenQuanYiMicroHei-3d"/>
      <use x="127.978515625" xlink:href="#WenQuanYiMicroHei-39"/>
     </g>
    </g>
   </g>
  </g>
 </g>
 <defs>
  <clipPath id="pd52b963315">
   <rect height="157.090909091" width="446.4" x="47.25319875" y="12.1987809375"/>
  </clipPath>
  <clipPath id="p4d69dbdfcc">
   <rect height="157.090909091" width="446.4" x="47.25319875" y="200.707871847"/>
  </clipPath>
 </defs>
</svg>
