<?xml version="1.0" encoding="utf-8" standalone="no"?>
<!DOCTYPE svg PUBLIC "-//W3C//DTD SVG 1.1//EN"
  "http://www.w3.org/Graphics/SVG/1.1/DTD/svg11.dtd">
<!-- Created with matplotlib (http://matplotlib.org/) -->
<svg height="232pt" version="1.1" viewBox="0 0 447 232" width="447pt" xmlns="http://www.w3.org/2000/svg" xmlns:xlink="http://www.w3.org/1999/xlink">
 <defs>
  <style type="text/css">
*{stroke-linecap:butt;stroke-linejoin:round;}
  </style>
 </defs>
 <g id="figure_1">
  <g id="patch_1">
   <path d="
M0 232.961
L447.733 232.961
L447.733 0
L0 0
z
" style="fill:#ffffff;"/>
  </g>
  <g id="axes_1">
   <g id="patch_2">
    <path d="
M49.9334 196.2
L440.533 196.2
L440.533 7.2
L49.9334 7.2
z
" style="fill:#ffffff;"/>
   </g>
   <g id="line2d_1">
    <path clip-path="url(#p0cdb88e135)" d="
M49.9334 88.5169
L51.4532 33.3717
L52.9731 43.5844
L54.4929 126.615
L56.0128 68.6226
L57.5326 94.3869
L59.0524 88.7188
L60.5723 36.5501
L62.0921 60.421
L63.612 137.614
L65.1318 146.393
L66.6517 165.795
L68.1715 112.448
L69.6914 96.3191
L71.2112 152.972
L72.731 87.7155
L74.2509 54.6244
L75.7707 30.7118
L77.2906 40.4018
L78.8104 127.135
L80.3303 112.164
L81.8501 114.542
L83.37 101.726
L84.8898 111.437
L86.4096 83.8468
L87.9295 88.4978
L89.4493 89.146
L90.9692 115.478
L92.489 132.284
L94.0089 82.2289
L95.5287 49.0309
L97.0486 116.189
L98.5684 69.875
L100.088 73.7813
L101.608 110.263
L103.128 117.669
L104.648 151.586
L106.168 148.727
L107.687 120.11
L109.207 104.259
L110.727 107.069
L112.247 75.6167
L113.767 107.242
L115.287 95.7197
L116.807 79.223
L118.326 75.4208
L119.846 106.792
L121.366 109.3
L122.886 90.1038
L124.406 79.4854
L125.926 35.2205
L127.445 14.5241
L128.965 65.3437
L130.485 64.6029
L132.005 118.457
L133.525 132.822
L135.045 127.366
L136.565 108.14
L138.084 117.036
L139.604 102.279
L141.124 47.2394
L142.644 43.9374
L144.164 37.5654
L145.684 49.7116
L147.203 100.233
L148.723 56.6787
L151.763 152.988
L153.283 99.334
L154.803 95.4407
L156.322 64.1068
L157.842 82.3899
L159.362 120.504
L160.882 108.157
L162.402 179.777
L163.922 193.299
L165.442 131.365
L166.961 102.515
L168.481 69.0582
L170.001 112.609
L171.521 125.557
L173.041 76.8522
L174.561 54.3459
L176.08 86.1273
L177.6 105.236
L179.12 53.5252
L180.64 77.3263
L182.16 91.1568
L183.68 123.87
L185.2 120.204
L186.719 123.113
L188.239 142.632
L189.759 72.86
L191.279 91.7551
L192.799 107.491
L194.319 117.84
L195.838 103.23
L197.358 47.6131
L198.878 145.178
L200.398 109.804
L201.918 69.3673
L203.438 85.7743
L204.958 114.89
L206.477 83.0077
L207.997 77.4072
L209.517 115.864
L211.037 144.438
L212.557 53.9652
L214.077 92.8794
L215.596 135.25
L217.116 104.369
L218.636 83.0787
L220.156 116.388
L221.676 122.141
L223.196 59.9762
L224.715 23.8949
L226.235 83.9991
L227.755 114.052
L229.275 112.368
L230.795 61.6115
L232.315 96.5831
L233.835 91.9323
L235.354 81.9522
L236.874 120.321
L238.394 121.557
L239.914 142.472
L241.434 121.69
L242.954 79.4106
L244.473 42.9511
L245.993 61.332
L247.513 37.5122
L249.033 110.451
L250.553 90.5827
L252.073 87.72
L253.593 91.0834
L255.112 107.813
L256.632 131.33
L258.152 115.624
L259.672 109.543
L261.192 116.598
L262.712 91.0557
L264.231 56.6632
L265.751 69.6372
L267.271 91.985
L268.791 66.3169
L270.311 77.4929
L271.831 111.601
L273.35 80.412
L274.87 66.7279
L276.39 109.374
L277.91 65.9397
L279.43 74.0134
L280.95 87.6701
L282.47 87.3154
L283.989 116.847
L285.509 57.9028
L287.029 41.3382
L288.549 57.0645
L290.069 115.841
L291.589 35.977
L293.108 78.2994
L294.628 87.1189
L296.148 59.8295
L297.668 75.8191
L299.188 133.476
L300.708 99.1354
L302.228 133.617
L303.747 107.14
L305.267 72.8564
L306.787 53.4715
L308.307 62.9928
L309.827 115.823
L311.347 69.6649
L312.866 66.1544
L314.386 86.1511
L315.906 84.0713
L317.426 64.2534
L318.946 32.1175
L320.466 107.652
L321.986 131.684
L325.025 130.494
L326.545 105.546
L328.065 155.46
L329.585 99.815
L331.105 107.733
L332.624 119.671
L334.144 41.2322
L335.664 35.2842
L337.184 53.4673
L338.704 49.125
L340.224 128.751
L341.743 168.131
L343.263 139.12
L344.783 140.993
L346.303 95.4539
L347.823 55.8037
L349.343 61.0927
L350.863 103.649
L352.382 102.083
L353.902 58.3123
L355.422 63.6556
L356.942 108.025
L358.462 135.525
L359.982 115.713
L361.501 88.4454
L363.021 88.3521
L364.541 109.971
L366.061 150.453
L367.581 80.4261
L369.101 53.7154
L370.621 121.137
L372.14 118.534
L373.66 34.8212
L375.18 65.6608
L376.7 91.4379
L378.22 96.5452
L379.74 141.597
L381.259 157.914
L382.779 94.5992
L384.299 128.678
L385.819 91.7682
L387.339 86.7849
L388.859 77.0606
L390.379 100.132
L391.898 86.5286
L393.418 63.316
L394.938 25.8028
L396.458 95.6455
L397.978 187.496
L399.498 128.369
L401.017 80.7614
L402.537 17.2017
L404.057 52.3985
L405.577 95.0591
L407.097 58.2042
L408.617 36.3149
L410.136 96.0252
L411.656 108.646
L413.176 107.072
L414.696 117.402
L416.216 89.1446
L417.736 98.6606
L419.256 51.1508
L420.775 104.491
L422.295 75.2901
L423.815 66.3321
L425.335 49.0362
L426.855 84.6877
L428.375 50.697
L429.894 53.819
L431.414 82.9003
L432.934 61.3193
L434.454 31.9209
L435.974 59.0166
L437.494 78.1113
L439.014 183.682
L439.014 183.682" style="fill:none;stroke:#348abd;stroke-linecap:square;stroke-width:2.0;"/>
   </g>
   <g id="matplotlib.axis_1">
    <g id="xtick_1">
     <g id="line2d_2">
      <defs>
       <path d="
M0 0
L0 -4" id="m93b0483c22" style="stroke:#000000;stroke-width:0.5;"/>
      </defs>
      <g>
       <use style="stroke:#000000;stroke-width:0.5;" x="49.93337625" xlink:href="#m93b0483c22" y="196.2"/>
      </g>
     </g>
     <g id="line2d_3">
      <defs>
       <path d="
M0 0
L0 4" id="m741efc42ff" style="stroke:#000000;stroke-width:0.5;"/>
      </defs>
      <g>
       <use style="stroke:#000000;stroke-width:0.5;" x="49.93337625" xlink:href="#m741efc42ff" y="7.2"/>
      </g>
     </g>
     <g id="text_1">
      <!-- 0 -->
      <defs>
       <path d="
M50.3906 35.7969
Q50.3906 27.1562 49.1406 20.3125
Q47.9062 13.4844 45.1406 8.73438
Q42.3906 4 38.0312 1.5
Q33.6875 -0.984375 27.4844 -0.984375
Q21.7344 -0.984375 17.4531 1.5
Q13.1875 4 10.375 8.73438
Q7.5625 13.4844 6.17188 20.3125
Q4.78125 27.1562 4.78125 35.7969
Q4.78125 44.4375 6.03125 51.2656
Q7.28125 58.1094 9.98438 62.8125
Q12.7031 67.5312 17.0156 70.0156
Q21.3438 72.5156 27.4844 72.5156
Q33.2969 72.5156 37.5938 70.0469
Q41.8906 67.5781 44.7188 62.8594
Q47.5625 58.1562 48.9688 51.3125
Q50.3906 44.4844 50.3906 35.7969
M13.8125 35.7969
Q13.8125 28.4688 14.5469 23
Q15.2812 17.5312 16.8906 13.8906
Q18.5 10.25 21.1094 8.42188
Q23.7344 6.59375 27.4844 6.59375
Q31.25 6.59375 33.8906 8.39062
Q36.5312 10.2031 38.2031 13.8125
Q39.8906 17.4375 40.6406 22.9219
Q41.4062 28.4219 41.4062 35.7969
Q41.4062 43.1094 40.6406 48.5781
Q39.8906 54.0469 38.2031 57.6562
Q36.5312 61.2812 33.8906 63.0781
Q31.25 64.8906 27.4844 64.8906
Q23.7344 64.8906 21.1094 63.0781
Q18.5 61.2812 16.8906 57.6562
Q15.2812 54.0469 14.5469 48.5781
Q13.8125 43.1094 13.8125 35.7969" id="WenQuanYiMicroHei-30"/>
      </defs>
      <g transform="translate(47.6538196875 207.795398125)scale(0.09996 -0.09996)">
       <use xlink:href="#WenQuanYiMicroHei-30"/>
      </g>
     </g>
    </g>
    <g id="xtick_2">
     <g id="line2d_4">
      <g>
       <use style="stroke:#000000;stroke-width:0.5;" x="125.925594149" xlink:href="#m93b0483c22" y="196.2"/>
      </g>
     </g>
     <g id="line2d_5">
      <g>
       <use style="stroke:#000000;stroke-width:0.5;" x="125.925594149" xlink:href="#m741efc42ff" y="7.2"/>
      </g>
     </g>
     <g id="text_2">
      <!-- 50 -->
      <defs>
       <path d="
M26.6094 43.7969
Q31.4531 43.7969 35.625 42.4531
Q39.7969 41.1094 42.8906 38.4688
Q46 35.8438 47.75 31.9375
Q49.5156 28.0312 49.5156 22.9062
Q49.5156 17.3281 47.8438 12.8906
Q46.1875 8.45312 42.9219 5.375
Q39.6562 2.29688 34.8438 0.65625
Q30.0312 -0.984375 23.7812 -0.984375
Q21.2969 -0.984375 18.875 -0.734375
Q16.4531 -0.484375 14.2344 -0.015625
Q12.0156 0.4375 10.0156 1.17188
Q8.01562 1.90625 6.39062 2.875
L6.39062 11.2812
Q8.01562 10.1562 10.1875 9.28125
Q12.3594 8.40625 14.75 7.8125
Q17.1406 7.23438 19.5469 6.90625
Q21.9688 6.59375 24.0312 6.59375
Q27.875 6.59375 30.9062 7.5
Q33.9375 8.40625 36.0312 10.2969
Q38.1406 12.2031 39.25 15.0781
Q40.375 17.9688 40.375 21.9219
Q40.375 28.9062 36.0781 32.5938
Q31.7812 36.2812 23.5781 36.2812
Q22.2656 36.2812 20.7188 36.1562
Q19.1875 36.0312 17.6406 35.8281
Q16.1094 35.6406 14.7188 35.4219
Q13.3281 35.2031 12.3125 35.0156
L7.90625 37.7969
L10.5938 71.3906
L44.2812 71.3906
L44.2812 63.2812
L18.3125 63.2812
L16.4062 42.8281
Q17.9688 43.1094 20.5312 43.4531
Q23.0938 43.7969 26.6094 43.7969" id="WenQuanYiMicroHei-35"/>
      </defs>
      <g transform="translate(120.973669461 207.795398125)scale(0.09996 -0.09996)">
       <use xlink:href="#WenQuanYiMicroHei-35"/>
       <use x="55.078125" xlink:href="#WenQuanYiMicroHei-30"/>
      </g>
     </g>
    </g>
    <g id="xtick_3">
     <g id="line2d_6">
      <g>
       <use style="stroke:#000000;stroke-width:0.5;" x="201.917812048" xlink:href="#m93b0483c22" y="196.2"/>
      </g>
     </g>
     <g id="line2d_7">
      <g>
       <use style="stroke:#000000;stroke-width:0.5;" x="201.917812048" xlink:href="#m741efc42ff" y="7.2"/>
      </g>
     </g>
     <g id="text_3">
      <!-- 100 -->
      <defs>
       <path d="
M34.7188 0
L26.125 0
L26.125 44.5781
Q26.125 46.6875 26.1406 49.0781
Q26.1719 51.4688 26.2344 53.8281
Q26.3125 56.2031 26.3906 58.375
Q26.4688 60.5469 26.5156 62.2031
Q25.6875 61.3281 25.0469 60.6875
Q24.4219 60.0625 23.75 59.4688
Q23.0938 58.8906 22.3594 58.2188
Q21.625 57.5625 20.6094 56.6875
L13.375 50.7812
L8.6875 56.7812
L27.3906 71.3906
L34.7188 71.3906
z
" id="WenQuanYiMicroHei-31"/>
      </defs>
      <g transform="translate(194.327880485 207.795398125)scale(0.09996 -0.09996)">
       <use xlink:href="#WenQuanYiMicroHei-31"/>
       <use x="55.078125" xlink:href="#WenQuanYiMicroHei-30"/>
       <use x="110.15625" xlink:href="#WenQuanYiMicroHei-30"/>
      </g>
     </g>
    </g>
    <g id="xtick_4">
     <g id="line2d_8">
      <g>
       <use style="stroke:#000000;stroke-width:0.5;" x="277.910029946" xlink:href="#m93b0483c22" y="196.2"/>
      </g>
     </g>
     <g id="line2d_9">
      <g>
       <use style="stroke:#000000;stroke-width:0.5;" x="277.910029946" xlink:href="#m741efc42ff" y="7.2"/>
      </g>
     </g>
     <g id="text_4">
      <!-- 150 -->
      <g transform="translate(270.320098384 207.795398125)scale(0.09996 -0.09996)">
       <use xlink:href="#WenQuanYiMicroHei-31"/>
       <use x="55.078125" xlink:href="#WenQuanYiMicroHei-35"/>
       <use x="110.15625" xlink:href="#WenQuanYiMicroHei-30"/>
      </g>
     </g>
    </g>
    <g id="xtick_5">
     <g id="line2d_10">
      <g>
       <use style="stroke:#000000;stroke-width:0.5;" x="353.902247845" xlink:href="#m93b0483c22" y="196.2"/>
      </g>
     </g>
     <g id="line2d_11">
      <g>
       <use style="stroke:#000000;stroke-width:0.5;" x="353.902247845" xlink:href="#m741efc42ff" y="7.2"/>
      </g>
     </g>
     <g id="text_5">
      <!-- 200 -->
      <defs>
       <path d="
M49.2188 0
L4.6875 0
L4.6875 7.625
L21.7812 26.2188
Q25.4375 30.1719 28.3125 33.4375
Q31.2031 36.7188 33.2188 39.8438
Q35.25 42.9688 36.3281 46.1094
Q37.4062 49.2656 37.4062 52.9844
Q37.4062 55.8594 36.5781 58.0469
Q35.75 60.25 34.2031 61.7812
Q32.6719 63.3281 30.5625 64.1094
Q28.4688 64.8906 25.875 64.8906
Q21.2344 64.8906 17.5 63.0156
Q13.7656 61.1406 10.4062 58.2031
L5.42188 64.0156
Q7.375 65.7656 9.60938 67.2969
Q11.8594 68.8438 14.4531 69.9688
Q17.0469 71.0938 19.9219 71.75
Q22.7969 72.4062 25.9844 72.4062
Q30.6719 72.4062 34.4531 71.0938
Q38.2344 69.7812 40.8594 67.3125
Q43.5 64.8438 44.9375 61.2969
Q46.3906 57.7656 46.3906 53.3281
Q46.3906 49.1719 45.0938 45.4062
Q43.7969 41.6562 41.5312 38.0156
Q39.2656 34.375 36.1094 30.7031
Q32.9531 27.0469 29.2969 23.0938
L15.5781 8.5
L15.5781 8.10938
L49.2188 8.10938
z
" id="WenQuanYiMicroHei-32"/>
      </defs>
      <g transform="translate(346.112396283 207.795398125)scale(0.09996 -0.09996)">
       <use xlink:href="#WenQuanYiMicroHei-32"/>
       <use x="55.078125" xlink:href="#WenQuanYiMicroHei-30"/>
       <use x="110.15625" xlink:href="#WenQuanYiMicroHei-30"/>
      </g>
     </g>
    </g>
    <g id="xtick_6">
     <g id="line2d_12">
      <g>
       <use style="stroke:#000000;stroke-width:0.5;" x="429.894465744" xlink:href="#m93b0483c22" y="196.2"/>
      </g>
     </g>
     <g id="line2d_13">
      <g>
       <use style="stroke:#000000;stroke-width:0.5;" x="429.894465744" xlink:href="#m741efc42ff" y="7.2"/>
      </g>
     </g>
     <g id="text_6">
      <!-- 250 -->
      <g transform="translate(422.104614182 207.795398125)scale(0.09996 -0.09996)">
       <use xlink:href="#WenQuanYiMicroHei-32"/>
       <use x="55.078125" xlink:href="#WenQuanYiMicroHei-35"/>
       <use x="110.15625" xlink:href="#WenQuanYiMicroHei-30"/>
      </g>
     </g>
    </g>
    <g id="text_7">
     <!-- 频率窗口(Frequency Bin) -->
     <defs>
      <path d="
M42 0
L42 34.5156
Q42 40.875 39.4219 44.0469
Q36.8594 47.2188 31.3906 47.2188
Q27.4375 47.2188 24.75 45.9375
Q22.0781 44.6719 20.4375 42.1875
Q18.7969 39.7031 18.0938 36.0781
Q17.3906 32.4688 17.3906 27.7812
L17.3906 0
L8.5 0
L8.5 53.6094
L15.7188 53.6094
L17 46.3906
L17.4844 46.3906
Q18.7031 48.4844 20.3906 50.0156
Q22.0781 51.5625 24.0781 52.5781
Q26.0781 53.6094 28.3125 54.0938
Q30.5625 54.5938 32.9062 54.5938
Q41.8438 54.5938 46.3594 49.9219
Q50.875 45.2656 50.875 35.0156
L50.875 0
z
" id="WenQuanYiMicroHei-6e"/>
      <path d="
M90.2344 62.8906
L90.2344 12.1094
L82.4219 12.1094
L82.4219 55.8594
L58.9844 55.8594
L58.9844 11.7188
L51.1719 11.7188
L51.1719 62.8906
L64.4531 62.8906
L66.0156 70.7031
L47.6562 70.7031
L47.6562 77.7344
L93.3594 77.7344
L93.3594 70.7031
L73.4375 70.7031
L72.6562 62.8906
z

M66.7969 47.6562
L74.6094 47.6562
Q74.6094 22.2656 72.6562 15.2344
Q70.7031 8.20312 64.6406 1.75
Q58.5938 -4.6875 48.0469 -8.98438
L42.9688 -2.34375
Q52.7344 1.5625 58 6.82812
Q63.2812 12.1094 65.0312 18.5469
Q66.7969 25 66.7969 47.6562
M77.7344 12.8906
Q86.3281 6.25 94.9219 -2.73438
L89.0625 -8.98438
Q81.6406 0 71.4844 8.59375
z

M25.7812 81.25
L33.2031 81.25
L33.2031 69.1406
L44.1406 69.1406
L44.1406 62.5
L33.2031 62.5
L33.2031 50
L47.6562 50
L47.6562 43.3594
L6.64062 43.3594
L6.64062 50
L12.8906 50
L12.8906 73.8281
L20.3125 73.8281
L20.3125 50
L25.7812 50
z

M25 38.2812
L32.4219 38.2812
L32.4219 16.7969
Q37.1094 23.4375 39.8438 32.4219
L47.2656 29.6875
Q37.5 1.17188 10.9375 -8.98438
L7.8125 -2.34375
Q17.9688 1.17188 25 7.8125
z

M14.0625 35.9375
L21.0938 33.5938
Q16.7969 19.5312 11.7188 10.5469
L5.07812 14.0625
Q10.9375 25 14.0625 35.9375" id="WenQuanYiMicroHei-9891"/>
      <path d="
M9.71875 71.3906
L29.2031 71.3906
Q35.4531 71.3906 40.2031 70.4375
Q44.9688 69.4844 48.1719 67.3594
Q51.375 65.2344 52.9844 61.7812
Q54.5938 58.3438 54.5938 53.3281
Q54.5938 50.2969 53.6406 47.6562
Q52.6875 45.0156 50.875 43.0156
Q49.0781 41.0156 46.4062 39.6719
Q43.75 38.3281 40.375 37.8906
L40.375 37.4062
Q43.75 36.8125 46.7031 35.7188
Q49.6562 34.625 51.8438 32.6875
Q54.0469 30.7656 55.3125 27.8281
Q56.5938 24.9062 56.5938 20.7031
Q56.5938 15.8281 55 11.9844
Q53.4219 8.15625 50.4062 5.48438
Q47.4062 2.82812 43.1094 1.40625
Q38.8125 0 33.4062 0
L9.71875 0
z

M18.7969 41.1094
L30.7188 41.1094
Q34.8125 41.1094 37.5938 41.8438
Q40.375 42.5781 42.0781 44.0156
Q43.7969 45.4531 44.5469 47.625
Q45.3125 49.8125 45.3125 52.6875
Q45.3125 58.5469 41.5469 61.0781
Q37.7969 63.625 29.6875 63.625
L18.7969 63.625
z

M18.7969 33.5
L18.7969 7.71875
L31.7812 7.71875
Q36.0781 7.71875 38.9844 8.6875
Q41.8906 9.67188 43.6719 11.4219
Q45.4531 13.1875 46.2344 15.6406
Q47.0156 18.1094 47.0156 21.0938
Q47.0156 23.8281 46.2031 26.125
Q45.4062 28.4219 43.5781 30.0469
Q41.75 31.6875 38.7188 32.5938
Q35.6875 33.5 31.2031 33.5
z
" id="WenQuanYiMicroHei-42"/>
      <path d="
M51.1719 81.25
Q54.2969 76.5625 55.8594 71.0938
L94.5312 71.0938
L94.5312 63.6719
L5.46875 63.6719
L5.46875 71.0938
L46.0938 71.0938
Q44.9219 75.3906 42.9688 78.5156
z

M46.4844 25.3906
L53.9062 25.3906
L53.9062 17.1875
L93.75 17.1875
L93.75 10.1562
L53.9062 10.1562
L53.9062 -8.98438
L46.4844 -8.98438
L46.4844 10.1562
L6.25 10.1562
L6.25 17.1875
L46.4844 17.1875
z

M45.7031 69.5312
L52.7344 67.5781
Q46.875 55.4688 42.1875 50
Q47.6562 50 54.2969 51.1719
Q57.8125 55.0781 60.9375 59.375
L67.9688 57.0312
Q56.6406 41.7969 42.5781 31.6406
Q52.3438 33.2031 60.5469 35.1562
Q58.9844 37.5 57.0312 39.8438
L63.2812 42.9688
Q69.9219 35.1562 74.6094 25.3906
L67.5781 22.2656
Q66.0156 26.1719 64.0625 29.6875
Q49.2188 26.1719 32.0312 23.8281
L30.0781 30.0781
Q39.4531 35.9375 48.0469 44.5312
Q41.4062 43.3594 33.9844 42.5781
L32.8125 49.2188
Q41.0156 58.9844 45.7031 69.5312
M17.1875 62.1094
Q23.4375 56.6406 27.7344 50
L20.7031 46.0938
Q16.7969 52.3438 10.1562 57.8125
z

M83.2031 62.1094
L89.8438 58.2031
Q83.2031 49.6094 76.5625 44.5312
L70.7031 50
Q78.5156 55.8594 83.2031 62.1094
M25.3906 42.5781
L31.25 38.2812
Q24.2188 29.6875 13.6719 22.2656
L7.8125 28.125
Q18.75 35.5469 25.3906 42.5781
M76.9531 41.4062
Q85.1562 36.7188 92.1875 30.0781
L86.3281 23.0469
Q79.6875 30.8594 71.875 35.9375
z
" id="WenQuanYiMicroHei-7387"/>
      <path d="
M51.5625 81.6406
Q53.5156 78.5156 54.6875 74.6094
L92.5781 74.6094
L92.5781 58.9844
L84.7656 58.9844
L84.7656 67.9688
L14.8438 67.9688
L14.8438 59.375
L7.03125 59.375
L7.03125 74.6094
L45.7031 74.6094
Q44.9219 76.9531 43.75 79.2969
z

M32.8125 66.4062
L39.4531 62.8906
Q29.2969 53.5156 9.76562 46.875
L5.07812 53.125
Q23.4375 59.375 32.8125 66.4062
M64.4531 65.2344
Q80.8594 60.1562 94.9219 53.125
L89.4531 47.2656
Q75.7812 54.6875 59.7656 59.375
z

M41.7969 55.8594
L50.3906 53.5156
Q47.2656 49.2188 43.75 45.7031
L86.3281 45.7031
L86.3281 -8.98438
L78.5156 -8.98438
L78.5156 -4.29688
L20.3125 -4.29688
L20.3125 -8.98438
L12.5 -8.98438
L12.5 45.7031
L34.375 45.7031
Q38.6719 50.7812 41.7969 55.8594
M20.3125 2.34375
L78.5156 2.34375
L78.5156 39.0625
L20.3125 39.0625
z

M40.625 37.8906
L48.0469 35.9375
L45.7031 31.6406
L71.0938 31.6406
L71.0938 25.3906
Q67.1875 18.75 60.9375 14.0625
L69.1406 9.375
L63.6719 3.51562
Q58.5938 7.03125 53.125 10.1562
Q43.3594 5.46875 30.0781 3.51562
L26.9531 10.5469
Q37.1094 11.7188 44.9219 14.4531
Q39.8438 16.7969 34.7656 18.75
Q32.8125 16.7969 30.0781 15.2344
L25 20.7031
Q35.1562 27.7344 40.625 37.8906
M53.5156 17.9688
Q59.375 21.0938 62.5 25.3906
L41.4062 25.3906
Q40.2344 24.2188 40.2344 23.8281
Q47.2656 21.0938 53.5156 17.9688" id="WenQuanYiMicroHei-7a97"/>
      <path d="
M26.125 27.3906
Q26.125 21.3438 25.2344 15.4844
Q24.3594 9.625 22.5312 4.125
Q20.7031 -1.375 17.9375 -6.39062
Q15.1875 -11.4219 11.375 -15.8281
L3.07812 -15.8281
Q6.45312 -11.2344 9.03125 -6.04688
Q11.625 -0.875 13.375 4.64062
Q15.1406 10.1562 16.0156 15.9219
Q16.8906 21.6875 16.8906 27.4844
Q16.8906 39.4062 13.375 50.6875
Q9.85938 61.9688 2.98438 71.3906
L11.375 71.3906
Q15.1875 66.8438 17.9375 61.6875
Q20.7031 56.5469 22.5312 50.9531
Q24.3594 45.3594 25.2344 39.4219
Q26.125 33.5 26.125 27.3906" id="WenQuanYiMicroHei-29"/>
      <path d="
M4 27.3906
Q4 33.5 4.875 39.4219
Q5.76562 45.3594 7.5625 50.9531
Q9.375 56.5469 12.125 61.6875
Q14.8906 66.8438 18.7031 71.3906
L27.0938 71.3906
Q20.2656 61.9688 16.7188 50.6875
Q13.1875 39.4062 13.1875 27.4844
Q13.1875 21.6875 14.0781 15.9219
Q14.9844 10.1562 16.7188 4.64062
Q18.4531 -0.875 21.0469 -6.04688
Q23.6406 -11.2344 27 -15.8281
L18.7031 -15.8281
Q14.8906 -11.4219 12.125 -6.39062
Q9.375 -1.375 7.5625 4.125
Q5.76562 9.625 4.875 15.4844
Q4 21.3438 4 27.3906" id="WenQuanYiMicroHei-28"/>
      <path d="
M29.6875 -0.984375
Q24.3125 -0.984375 19.875 0.828125
Q15.4375 2.64062 12.2344 6.10938
Q9.03125 9.57812 7.26562 14.7031
Q5.51562 19.8281 5.51562 26.4219
Q5.51562 33.0625 7.125 38.2812
Q8.73438 43.5 11.6562 47.1406
Q14.5938 50.7812 18.6719 52.6875
Q22.75 54.5938 27.6875 54.5938
Q32.5156 54.5938 36.375 52.8594
Q40.2344 51.125 42.9219 47.9688
Q45.6094 44.8281 47.0469 40.4062
Q48.4844 35.9844 48.4844 30.6094
L48.4844 25.0938
L14.7031 25.0938
Q14.9375 15.6719 18.6719 11.2188
Q22.4062 6.78125 29.7812 6.78125
Q32.2812 6.78125 34.4062 7.03125
Q36.5312 7.28125 38.5 7.73438
Q40.4844 8.20312 42.3281 8.90625
Q44.1875 9.625 46.0938 10.5
L46.0938 2.59375
Q44.1406 1.65625 42.25 0.96875
Q40.375 0.296875 38.3906 -0.140625
Q36.4219 -0.59375 34.2969 -0.78125
Q32.1719 -0.984375 29.6875 -0.984375
M27.4844 47.2188
Q21.9219 47.2188 18.6719 43.4062
Q15.4375 39.5938 14.8906 32.3281
L38.9219 32.3281
Q38.9219 35.6406 38.25 38.3906
Q37.5938 41.1562 36.2031 43.1094
Q34.8125 45.0625 32.6562 46.1406
Q30.5156 47.2188 27.4844 47.2188" id="WenQuanYiMicroHei-65"/>
      <path d="
M43.2188 0
L41.8906 7.17188
L41.4062 7.17188
Q40.1875 5.07812 38.5 3.53125
Q36.8125 2 34.8125 1
Q32.8125 0 30.5625 -0.484375
Q28.3281 -0.984375 25.9844 -0.984375
Q21.5312 -0.984375 18.1562 0.140625
Q14.7969 1.26562 12.5469 3.65625
Q10.2969 6.0625 9.15625 9.76562
Q8.01562 13.4844 8.01562 18.6094
L8.01562 53.6094
L16.8906 53.6094
L16.8906 19.0938
Q16.8906 12.75 19.4844 9.5625
Q22.0781 6.39062 27.4844 6.39062
Q31.4531 6.39062 34.125 7.65625
Q36.8125 8.9375 38.4531 11.4062
Q40.0938 13.875 40.7969 17.4844
Q41.5 21.0938 41.5 25.7812
L41.5 53.6094
L50.3906 53.6094
L50.3906 0
z
" id="WenQuanYiMicroHei-75"/>
      <path d="
M84.375 73.4375
L84.375 -7.8125
L76.5625 -7.8125
L76.5625 0.78125
L23.4375 0.78125
L23.4375 -7.8125
L16.0156 -7.8125
L16.0156 73.4375
z

M23.4375 8.20312
L76.5625 8.20312
L76.5625 66.0156
L23.4375 66.0156
z
" id="WenQuanYiMicroHei-53e3"/>
      <path d="
M31.6875 54.5938
Q33.1094 54.5938 34.8594 54.4688
Q36.625 54.3438 37.8906 54.1094
L36.7188 45.9062
Q35.3594 46.1406 33.9062 46.3125
Q32.4688 46.4844 31.2031 46.4844
Q28.125 46.4844 25.5781 45.2344
Q23.0469 44 21.2188 41.6719
Q19.3906 39.3594 18.3906 36.1094
Q17.3906 32.8594 17.3906 28.9062
L17.3906 0
L8.5 0
L8.5 53.6094
L15.7188 53.6094
L16.7969 43.7969
L17.1875 43.7969
Q18.4062 45.9062 19.7969 47.8594
Q21.1875 49.8125 22.9219 51.2969
Q24.6562 52.7812 26.7969 53.6875
Q28.9531 54.5938 31.6875 54.5938" id="WenQuanYiMicroHei-72"/>
      <path d="
M27.5938 6.39062
Q31.2969 6.39062 33.8594 7.51562
Q36.4219 8.64062 38 10.9375
Q39.5938 13.2344 40.3438 16.6719
Q41.1094 20.125 41.2188 24.7031
L41.2188 26.7031
Q41.2188 31.6406 40.5469 35.4688
Q39.8906 39.3125 38.2969 41.9219
Q36.7188 44.5312 34.0781 45.875
Q31.4531 47.2188 27.4844 47.2188
Q20.9062 47.2188 17.7969 41.8906
Q14.7031 36.5781 14.7031 26.6094
Q14.7031 16.4062 17.7969 11.3906
Q20.9062 6.39062 27.5938 6.39062
M25.875 -0.984375
Q21.3438 -0.984375 17.5781 0.78125
Q13.8125 2.54688 11.125 6.03125
Q8.45312 9.51562 6.98438 14.6875
Q5.51562 19.875 5.51562 26.7031
Q5.51562 33.5938 6.98438 38.7969
Q8.45312 44 11.125 47.5156
Q13.8125 51.0312 17.5781 52.8125
Q21.3438 54.5938 25.875 54.5938
Q28.7656 54.5938 31.1094 53.9219
Q33.4531 53.2656 35.2969 52.1719
Q37.1562 51.0781 38.625 49.5781
Q40.0938 48.0938 41.2188 46.3906
L41.6094 46.3906
L42.9219 53.6094
L50.0938 53.6094
L50.0938 -24.0312
L41.2188 -24.0312
L41.2188 -1.125
Q41.2188 -0.203125 41.3125 1.21875
Q41.4062 2.64062 41.5 3.95312
Q41.6562 5.51562 41.7969 7.17188
L41.2188 7.17188
Q40.1406 5.51562 38.6875 4.03125
Q37.25 2.54688 35.375 1.42188
Q33.5 0.296875 31.1562 -0.34375
Q28.8125 -0.984375 25.875 -0.984375" id="WenQuanYiMicroHei-71"/>
      <path d="
M29 -0.984375
Q24.0781 -0.984375 19.7812 0.546875
Q15.4844 2.09375 12.2969 5.4375
Q9.125 8.79688 7.3125 13.9844
Q5.51562 19.1875 5.51562 26.5156
Q5.51562 34.1875 7.375 39.5312
Q9.23438 44.875 12.4688 48.2188
Q15.7188 51.5625 20.0625 53.0781
Q24.4219 54.5938 29.3906 54.5938
Q33.2031 54.5938 36.8438 53.7656
Q40.4844 52.9375 42.9219 51.7031
L40.2812 44.1875
Q39.1562 44.6719 37.7812 45.1406
Q36.4219 45.6094 34.9531 45.9688
Q33.5 46.3438 32.0781 46.5625
Q30.6719 46.7812 29.3906 46.7812
Q21.7344 46.7812 18.2188 41.875
Q14.7031 36.9688 14.7031 26.6094
Q14.7031 16.3125 18.2344 11.5469
Q21.7812 6.78125 29 6.78125
Q32.9531 6.78125 36.1562 7.6875
Q39.3594 8.59375 42 9.8125
L42 1.90625
Q39.3594 0.484375 36.3438 -0.25
Q33.3438 -0.984375 29 -0.984375" id="WenQuanYiMicroHei-63"/>
      <path id="WenQuanYiMicroHei-20"/>
      <path d="
M18.7969 0
L9.71875 0
L9.71875 71.3906
L46.7812 71.3906
L46.7812 63.375
L18.7969 63.375
L18.7969 38.1875
L44.9219 38.1875
L44.9219 30.1719
L18.7969 30.1719
z
" id="WenQuanYiMicroHei-46"/>
      <path d="
M17.3906 0
L8.5 0
L8.5 53.6094
L17.3906 53.6094
z

M7.8125 68.1094
Q7.8125 71.0469 9.29688 72.3594
Q10.7969 73.6875 12.9844 73.6875
Q14.0625 73.6875 15.0156 73.3594
Q15.9688 73.0469 16.6719 72.3594
Q17.3906 71.6875 17.7969 70.625
Q18.2188 69.5781 18.2188 68.1094
Q18.2188 65.2812 16.6719 63.8906
Q15.1406 62.5 12.9844 62.5
Q10.7969 62.5 9.29688 63.8594
Q7.8125 65.2344 7.8125 68.1094" id="WenQuanYiMicroHei-69"/>
      <path d="
M0.484375 53.6094
L9.71875 53.6094
L20.2188 23.6875
Q20.9062 21.7344 21.6094 19.5781
Q22.3125 17.4375 22.9219 15.2812
Q23.5312 13.1406 23.9688 11.125
Q24.4219 9.125 24.6094 7.42188
L24.9062 7.42188
Q25.1406 8.64062 25.6719 10.7344
Q26.2188 12.8438 26.875 15.2031
Q27.5469 17.5781 28.25 19.875
Q28.9531 22.1719 29.5 23.7812
L39.2031 53.6094
L48.3906 53.6094
L27.2031 -6.98438
Q25.8281 -10.9375 24.2344 -14.0781
Q22.6562 -17.2344 20.5469 -19.4219
Q18.4531 -21.625 15.625 -22.8281
Q12.7969 -24.0312 8.89062 -24.0312
Q6.34375 -24.0312 4.48438 -23.75
Q2.64062 -23.4844 1.3125 -23.1875
L1.3125 -16.1094
Q2.34375 -16.3594 3.90625 -16.5312
Q5.46875 -16.7031 7.17188 -16.7031
Q9.51562 -16.7031 11.2188 -16.1406
Q12.9375 -15.5781 14.2031 -14.5
Q15.4844 -13.4219 16.375 -11.8594
Q17.2812 -10.2969 18.0156 -8.29688
L20.7969 -0.484375
z
" id="WenQuanYiMicroHei-79"/>
     </defs>
     <g transform="translate(190.422496875 223.35835875)scale(0.09996 -0.09996)">
      <use xlink:href="#WenQuanYiMicroHei-9891"/>
      <use x="100.0" xlink:href="#WenQuanYiMicroHei-7387"/>
      <use x="200.0" xlink:href="#WenQuanYiMicroHei-7a97"/>
      <use x="300.0" xlink:href="#WenQuanYiMicroHei-53e3"/>
      <use x="400.0" xlink:href="#WenQuanYiMicroHei-28"/>
      <use x="430.078125" xlink:href="#WenQuanYiMicroHei-46"/>
      <use x="479.19921875" xlink:href="#WenQuanYiMicroHei-72"/>
      <use x="519.091796875" xlink:href="#WenQuanYiMicroHei-65"/>
      <use x="572.607421875" xlink:href="#WenQuanYiMicroHei-71"/>
      <use x="631.201171875" xlink:href="#WenQuanYiMicroHei-75"/>
      <use x="690.087890625" xlink:href="#WenQuanYiMicroHei-65"/>
      <use x="743.603515625" xlink:href="#WenQuanYiMicroHei-6e"/>
      <use x="802.490234375" xlink:href="#WenQuanYiMicroHei-63"/>
      <use x="848.779296875" xlink:href="#WenQuanYiMicroHei-79"/>
      <use x="897.65625" xlink:href="#WenQuanYiMicroHei-20"/>
      <use x="923.6328125" xlink:href="#WenQuanYiMicroHei-42"/>
      <use x="985.7421875" xlink:href="#WenQuanYiMicroHei-69"/>
      <use x="1011.62109375" xlink:href="#WenQuanYiMicroHei-6e"/>
      <use x="1070.5078125" xlink:href="#WenQuanYiMicroHei-29"/>
     </g>
    </g>
   </g>
   <g id="matplotlib.axis_2">
    <g id="ytick_1">
     <g id="line2d_14">
      <defs>
       <path d="
M0 0
L4 0" id="m728421d6d4" style="stroke:#000000;stroke-width:0.5;"/>
      </defs>
      <g>
       <use style="stroke:#000000;stroke-width:0.5;" x="49.93337625" xlink:href="#m728421d6d4" y="154.2"/>
      </g>
     </g>
     <g id="line2d_15">
      <defs>
       <path d="
M0 0
L-4 0" id="mcb0005524f" style="stroke:#000000;stroke-width:0.5;"/>
      </defs>
      <g>
       <use style="stroke:#000000;stroke-width:0.5;" x="440.53337625" xlink:href="#mcb0005524f" y="154.2"/>
      </g>
     </g>
     <g id="text_8">
      <!-- −33.0 -->
      <defs>
       <path d="
M46.9219 54.6875
Q46.9219 51.125 45.7969 48.1875
Q44.6719 45.2656 42.6406 43.1094
Q40.625 40.9688 37.7969 39.5781
Q34.9688 38.1875 31.5 37.5938
L31.5 37.3125
Q40.1406 36.2344 44.625 31.8125
Q49.125 27.3906 49.125 20.3125
Q49.125 15.625 47.5312 11.7188
Q45.9531 7.8125 42.7188 4.98438
Q39.5 2.15625 34.5625 0.578125
Q29.6406 -0.984375 22.9062 -0.984375
Q17.5781 -0.984375 12.8594 -0.140625
Q8.15625 0.6875 4 2.875
L4 11.1875
Q8.25 8.9375 13.2031 7.71875
Q18.1719 6.5 22.7031 6.5
Q27.2031 6.5 30.4688 7.46875
Q33.7344 8.45312 35.8594 10.25
Q37.9844 12.0625 38.9844 14.6875
Q39.9844 17.3281 39.9844 20.6094
Q39.9844 23.9219 38.6875 26.2812
Q37.4062 28.6562 35.0156 30.1875
Q32.625 31.7344 29.1719 32.4688
Q25.7344 33.2031 21.3906 33.2031
L14.8906 33.2031
L14.8906 40.5781
L21.3906 40.5781
Q25.3438 40.5781 28.4219 41.5469
Q31.5 42.5312 33.5625 44.3281
Q35.6406 46.1406 36.7188 48.625
Q37.7969 51.125 37.7969 54.1094
Q37.7969 56.6406 36.9062 58.6406
Q36.0312 60.6406 34.4219 62.0312
Q32.8125 63.4219 30.5625 64.1562
Q28.3281 64.8906 25.5938 64.8906
Q20.3594 64.8906 16.375 63.25
Q12.4062 61.625 8.79688 58.9844
L4.29688 65.0938
Q6.15625 66.6094 8.42188 67.9219
Q10.6875 69.2344 13.375 70.2344
Q16.0625 71.2344 19.1094 71.8125
Q22.1719 72.4062 25.5938 72.4062
Q30.8594 72.4062 34.8281 71.0938
Q38.8125 69.7812 41.5 67.4062
Q44.1875 65.0469 45.5469 61.7969
Q46.9219 58.5469 46.9219 54.6875" id="WenQuanYiMicroHei-33"/>
       <path d="
M4.98438 31.5938
L4.98438 38.9219
L50.0938 38.9219
L50.0938 31.5938
z
" id="WenQuanYiMicroHei-2212"/>
       <path d="
M7.17188 5.42188
Q7.17188 7.28125 7.65625 8.5625
Q8.15625 9.85938 8.98438 10.6562
Q9.8125 11.4688 10.9375 11.8281
Q12.0625 12.2031 13.375 12.2031
Q14.6562 12.2031 15.7969 11.8281
Q16.9375 11.4688 17.7656 10.6562
Q18.6094 9.85938 19.0938 8.5625
Q19.5781 7.28125 19.5781 5.42188
Q19.5781 3.60938 19.0938 2.3125
Q18.6094 1.03125 17.7656 0.1875
Q16.9375 -0.640625 15.7969 -1.03125
Q14.6562 -1.42188 13.375 -1.42188
Q12.0625 -1.42188 10.9375 -1.03125
Q9.8125 -0.640625 8.98438 0.1875
Q8.15625 1.03125 7.65625 2.3125
Q7.17188 3.60938 7.17188 5.42188" id="WenQuanYiMicroHei-2e"/>
      </defs>
      <g transform="translate(22.197561875 156.796617188)scale(0.09996 -0.09996)">
       <use xlink:href="#WenQuanYiMicroHei-2212"/>
       <use x="55.078125" xlink:href="#WenQuanYiMicroHei-33"/>
       <use x="110.15625" xlink:href="#WenQuanYiMicroHei-33"/>
       <use x="165.234375" xlink:href="#WenQuanYiMicroHei-2e"/>
       <use x="192.041015625" xlink:href="#WenQuanYiMicroHei-30"/>
      </g>
     </g>
    </g>
    <g id="ytick_2">
     <g id="line2d_16">
      <g>
       <use style="stroke:#000000;stroke-width:0.5;" x="49.93337625" xlink:href="#m728421d6d4" y="101.7"/>
      </g>
     </g>
     <g id="line2d_17">
      <g>
       <use style="stroke:#000000;stroke-width:0.5;" x="440.53337625" xlink:href="#mcb0005524f" y="101.7"/>
      </g>
     </g>
     <g id="text_9">
      <!-- −32.5 -->
      <g transform="translate(22.285026875 104.296617188)scale(0.09996 -0.09996)">
       <use xlink:href="#WenQuanYiMicroHei-2212"/>
       <use x="55.078125" xlink:href="#WenQuanYiMicroHei-33"/>
       <use x="110.15625" xlink:href="#WenQuanYiMicroHei-32"/>
       <use x="165.234375" xlink:href="#WenQuanYiMicroHei-2e"/>
       <use x="192.041015625" xlink:href="#WenQuanYiMicroHei-35"/>
      </g>
     </g>
    </g>
    <g id="ytick_3">
     <g id="line2d_18">
      <g>
       <use style="stroke:#000000;stroke-width:0.5;" x="49.93337625" xlink:href="#m728421d6d4" y="49.2"/>
      </g>
     </g>
     <g id="line2d_19">
      <g>
       <use style="stroke:#000000;stroke-width:0.5;" x="440.53337625" xlink:href="#mcb0005524f" y="49.2"/>
      </g>
     </g>
     <g id="text_10">
      <!-- −32.0 -->
      <g transform="translate(22.197561875 51.7966171875)scale(0.09996 -0.09996)">
       <use xlink:href="#WenQuanYiMicroHei-2212"/>
       <use x="55.078125" xlink:href="#WenQuanYiMicroHei-33"/>
       <use x="110.15625" xlink:href="#WenQuanYiMicroHei-32"/>
       <use x="165.234375" xlink:href="#WenQuanYiMicroHei-2e"/>
       <use x="192.041015625" xlink:href="#WenQuanYiMicroHei-30"/>
      </g>
     </g>
    </g>
    <g id="text_11">
     <!-- 幅值(dB) -->
     <defs>
      <path d="
M41.6094 7.17188
L41.2188 7.17188
Q40.1406 5.51562 38.6875 4.03125
Q37.25 2.54688 35.375 1.42188
Q33.5 0.296875 31.1562 -0.34375
Q28.8125 -0.984375 25.875 -0.984375
Q21.3438 -0.984375 17.5781 0.78125
Q13.8125 2.54688 11.125 6.03125
Q8.45312 9.51562 6.98438 14.6875
Q5.51562 19.875 5.51562 26.7031
Q5.51562 33.5938 6.98438 38.7969
Q8.45312 44 11.125 47.5156
Q13.8125 51.0312 17.5781 52.8125
Q21.3438 54.5938 25.875 54.5938
Q28.7656 54.5938 31.1094 53.9531
Q33.4531 53.3281 35.3281 52.25
Q37.2031 51.1719 38.6719 49.75
Q40.1406 48.3438 41.2188 46.7812
L41.7969 46.7812
Q41.6562 48.4375 41.5 49.9531
Q41.4062 51.2188 41.3125 52.5625
Q41.2188 53.9062 41.2188 54.6875
L41.2188 75.9844
L50.0938 75.9844
L50.0938 0
L42.9219 0
z

M27.5938 6.39062
Q31.2969 6.39062 33.8594 7.51562
Q36.4219 8.64062 38 10.9375
Q39.5938 13.2344 40.3438 16.6719
Q41.1094 20.125 41.2188 24.7031
L41.2188 26.7031
Q41.2188 31.6406 40.5469 35.4688
Q39.8906 39.3125 38.2969 41.9219
Q36.7188 44.5312 34.0781 45.875
Q31.4531 47.2188 27.4844 47.2188
Q20.9062 47.2188 17.7969 41.8906
Q14.7031 36.5781 14.7031 26.6094
Q14.7031 16.4062 17.7969 11.3906
Q20.9062 6.39062 27.5938 6.39062" id="WenQuanYiMicroHei-64"/>
      <path d="
M40.2344 66.0156
L40.2344 20.7031
Q40.2344 16.4062 38.0781 14.25
Q35.9375 12.1094 31.6406 12.1094
Q30.8594 12.1094 29.6875 12.5
L28.125 19.5312
Q30.4688 19.1406 31.25 19.1406
Q33.2031 19.1406 33.2031 22.6562
L33.2031 58.5938
L26.5625 58.5938
L26.5625 -8.98438
L19.9219 -8.98438
L19.9219 58.5938
L13.6719 58.5938
L13.6719 11.3281
L6.64062 11.3281
L6.64062 66.0156
L19.9219 66.0156
L19.9219 80.8594
L26.5625 80.8594
L26.5625 66.0156
z

M44.1406 77.7344
L92.5781 77.7344
L92.5781 70.7031
L44.1406 70.7031
z

M47.2656 63.6719
L89.4531 63.6719
L89.4531 41.4062
L47.2656 41.4062
z

M54.6875 48.0469
L82.0312 48.0469
L82.0312 57.0312
L54.6875 57.0312
z

M92.9688 34.375
L92.9688 -8.98438
L85.5469 -8.98438
L85.5469 -3.90625
L51.5625 -3.90625
L51.5625 -8.98438
L44.1406 -8.98438
L44.1406 34.375
z

M51.5625 17.9688
L64.8438 17.9688
L64.8438 27.3438
L51.5625 27.3438
z

M71.875 27.3438
L71.875 17.9688
L85.5469 17.9688
L85.5469 27.3438
z

M51.5625 2.73438
L64.8438 2.73438
L64.8438 11.7188
L51.5625 11.7188
z

M71.875 2.73438
L85.5469 2.73438
L85.5469 11.7188
L71.875 11.7188
z
" id="WenQuanYiMicroHei-5e45"/>
      <path d="
M24.6094 80.8594
L32.4219 78.5156
Q29.2969 69.5312 25.3906 60.5469
L25.3906 -8.98438
L17.5781 -8.98438
L17.5781 45.7031
Q12.8906 38.2812 7.8125 32.0312
L3.90625 39.8438
Q18.3594 59.375 24.6094 80.8594
M35.1562 71.4844
L59.375 71.4844
L59.375 80.4688
L67.1875 80.4688
L67.1875 71.4844
L91.7969 71.4844
L91.7969 64.4531
L67.1875 64.4531
L67.1875 55.4688
L87.1094 55.4688
L87.1094 1.17188
L94.5312 1.17188
L94.5312 -5.46875
L30.0781 -5.46875
L30.0781 1.17188
L41.0156 1.17188
L41.0156 55.4688
L59.375 55.4688
L59.375 64.4531
L35.1562 64.4531
z

M48.8281 41.4062
L79.2969 41.4062
L79.2969 48.8281
L48.8281 48.8281
z

M48.8281 27.7344
L79.2969 27.7344
L79.2969 35.5469
L48.8281 35.5469
z

M48.8281 14.4531
L79.2969 14.4531
L79.2969 21.875
L48.8281 21.875
z

M48.8281 1.17188
L79.2969 1.17188
L79.2969 8.59375
L48.8281 8.59375
z
" id="WenQuanYiMicroHei-503c"/>
     </defs>
     <g transform="translate(14.795398125 120.205875937)rotate(-90.0)scale(0.09996 -0.09996)">
      <use xlink:href="#WenQuanYiMicroHei-5e45"/>
      <use x="100.0" xlink:href="#WenQuanYiMicroHei-503c"/>
      <use x="200.0" xlink:href="#WenQuanYiMicroHei-28"/>
      <use x="230.078125" xlink:href="#WenQuanYiMicroHei-64"/>
      <use x="288.671875" xlink:href="#WenQuanYiMicroHei-42"/>
      <use x="350.78125" xlink:href="#WenQuanYiMicroHei-29"/>
     </g>
    </g>
   </g>
   <g id="patch_3">
    <path d="
M49.9334 7.2
L440.533 7.2" style="fill:none;stroke:#000000;"/>
   </g>
   <g id="patch_4">
    <path d="
M440.533 196.2
L440.533 7.2" style="fill:none;stroke:#000000;"/>
   </g>
   <g id="patch_5">
    <path d="
M49.9334 196.2
L440.533 196.2" style="fill:none;stroke:#000000;"/>
   </g>
   <g id="patch_6">
    <path d="
M49.9334 196.2
L49.9334 7.2" style="fill:none;stroke:#000000;"/>
   </g>
  </g>
 </g>
 <defs>
  <clipPath id="p0cdb88e135">
   <rect height="189.0" width="390.6" x="49.93337625" y="7.2"/>
  </clipPath>
 </defs>
</svg>
