<?xml version="1.0" encoding="utf-8" standalone="no"?>
<!DOCTYPE svg PUBLIC "-//W3C//DTD SVG 1.1//EN"
  "http://www.w3.org/Graphics/SVG/1.1/DTD/svg11.dtd">
<!-- Created with matplotlib (http://matplotlib.org/) -->
<svg height="278pt" version="1.1" viewBox="0 0 496 278" width="496pt" xmlns="http://www.w3.org/2000/svg" xmlns:xlink="http://www.w3.org/1999/xlink">
 <defs>
  <style type="text/css">
*{stroke-linecap:butt;stroke-linejoin:round;}
  </style>
 </defs>
 <g id="figure_1">
  <g id="patch_1">
   <path d="
M0 278.794
L496.576 278.794
L496.576 0
L0 0
z
" style="fill:#ffffff;"/>
  </g>
  <g id="axes_1">
   <g id="patch_2">
    <path d="
M32.2556 108.199
L478.656 108.199
L478.656 12.1988
L32.2556 12.1988
z
" style="fill:#ffffff;"/>
   </g>
   <g id="line2d_1">
    <path clip-path="url(#p8c06e6d92c)" d="
M32.2556 60.1988
L34.6471 37.6536
L36.2414 25.5191
L37.0385 20.8707
L37.8356 17.3497
L38.6328 15.0494
L39.4299 14.0252
L40.2271 14.2932
L41.0242 15.83
L41.8214 18.5732
L42.6185 22.4244
L43.4156 27.252
L45.0099 39.1738
L49.7928 78.585
L50.5899 83.5843
L51.3871 87.6994
L52.1842 90.8268
L52.9814 92.8972
L53.7785 93.8774
L54.5756 93.771
L55.3728 92.6173
L56.1699 90.4897
L56.9671 87.4929
L57.7642 83.7584
L59.3585 74.7078
L62.5471 55.278
L63.3442 51.1718
L64.1414 47.6699
L64.9385 44.8854
L65.7356 42.9033
L66.5328 41.7767
L67.3299 41.5259
L68.1271 42.1381
L68.9242 43.5673
L69.7214 45.7371
L70.5185 48.5435
L72.1128 55.5352
L75.3014 70.5813
L76.0985 73.6076
L76.8956 76.046
L77.6928 77.7823
L78.4899 78.7285
L79.2871 78.8263
L80.0842 78.0495
L80.8814 76.405
L81.6785 73.933
L82.4756 70.706
L84.0699 62.4225
L88.8528 34.3181
L89.6499 31.0091
L90.4471 28.5196
L91.2442 26.9658
L92.0414 26.4337
L92.8385 26.9769
L93.6356 28.6131
L94.4328 31.324
L95.2299 35.0545
L96.0271 39.7147
L97.6214 51.3041
L102.404 90.976
L103.201 96.1509
L103.998 100.41
L104.796 103.61
L105.593 105.639
L106.39 106.42
L107.187 105.913
L107.984 104.118
L108.781 101.077
L109.578 96.8657
L110.376 91.6003
L111.97 78.5251
L116.753 33.6705
L117.55 27.6665
L118.347 22.6012
L119.144 18.616
L119.941 15.8186
L120.738 14.2798
L121.536 14.0316
L122.333 15.0662
L123.13 17.3366
L123.927 20.7587
L124.724 25.2134
L126.318 36.5993
L128.71 56.9961
L130.304 70.3622
L131.898 81.6838
L132.696 86.1669
L133.493 89.6996
L134.29 92.1988
L135.087 93.6167
L135.884 93.9422
L136.681 93.2005
L137.478 91.4516
L138.276 88.7881
L139.073 85.3313
L140.667 76.6388
L144.653 52.749
L145.45 48.9903
L146.247 45.907
L147.044 43.5957
L147.841 42.1226
L148.638 41.5212
L149.436 41.7919
L150.233 42.9018
L151.03 44.7864
L151.827 47.3523
L153.421 54.0311
L156.61 69.236
L157.407 72.4605
L158.204 75.149
L159.001 77.1783
L159.798 78.4492
L160.596 78.8914
L161.393 78.4655
L162.19 77.1651
L162.987 75.0171
L163.784 72.0815
L164.581 68.4487
L166.176 59.5909
L169.364 40.0552
L170.161 35.8404
L170.958 32.2417
L171.756 29.409
L172.553 27.4688
L173.35 26.5197
L174.147 26.6286
L174.944 27.8278
L175.741 30.1134
L176.538 33.445
L177.336 37.7462
L178.93 48.7873
L181.321 68.9736
L182.916 82.5205
L184.51 94.1819
L185.307 98.8262
L186.104 102.465
L186.901 104.974
L187.698 106.261
L188.496 106.271
L189.293 104.989
L190.09 102.439
L190.887 98.6838
L191.684 93.8242
L193.278 81.3618
L195.67 58.6283
L198.061 36.2976
L199.656 24.5049
L200.453 20.0728
L201.25 16.7896
L202.047 14.7413
L202.844 13.9756
L203.641 14.5005
L204.438 16.2847
L205.236 19.2585
L206.033 23.3165
L206.83 28.3211
L208.424 40.488
L212.41 74.0384
L214.004 84.4819
L214.801 88.4066
L215.598 91.327
L216.396 93.1808
L217.193 93.9423
L217.99 93.6222
L218.787 92.2667
L219.584 89.956
L220.381 86.8004
L221.178 82.9361
L222.773 73.7275
L225.961 54.4147
L226.758 50.4191
L227.556 47.0524
L228.353 44.4227
L229.15 42.6084
L229.947 41.6564
L230.744 41.5803
L231.541 42.3605
L232.338 43.9449
L233.136 46.2512
L233.933 49.1702
L235.527 56.3001
L237.918 67.8277
L239.513 74.1463
L240.31 76.4526
L241.107 78.037
L241.904 78.8172
L242.701 78.7412
L243.498 77.7892
L244.296 75.9749
L245.093 73.3451
L245.89 69.9785
L247.484 61.4919
L251.47 37.4614
L252.267 33.5972
L253.064 30.4415
L253.861 28.1308
L254.658 26.7754
L255.456 26.4552
L256.253 27.2167
L257.05 29.0706
L257.847 31.9909
L258.644 35.9157
L259.441 40.748
L261.036 52.5921
L265.818 92.0765
L266.616 97.081
L267.413 101.139
L268.21 104.113
L269.007 105.897
L269.804 106.422
L270.601 105.656
L271.398 103.608
L272.196 100.325
L272.993 95.8927
L273.79 90.4332
L275.384 77.0739
L280.167 32.4024
L280.964 26.5733
L281.761 21.7138
L282.558 17.9587
L283.356 15.4085
L284.153 14.1266
L284.95 14.1368
L285.747 15.4236
L286.544 17.9323
L287.341 21.5714
L288.138 26.2157
L289.733 37.877
L294.516 77.4904
L295.313 82.6513
L296.11 86.9526
L296.907 90.2842
L297.704 92.5698
L298.501 93.7689
L299.298 93.8778
L300.096 92.9287
L300.893 90.9885
L301.69 88.1558
L302.487 84.5572
L304.081 75.6787
L307.27 56.1599
L308.864 48.3161
L309.661 45.3804
L310.458 43.2325
L311.256 41.9321
L312.053 41.5062
L312.85 41.9483
L313.647 43.2193
L314.444 45.2485
L315.241 47.9371
L316.836 54.7785
L320.024 69.9171
L320.821 73.0453
L321.618 75.6112
L322.416 77.4958
L323.213 78.6057
L324.01 78.8763
L324.807 78.275
L325.604 76.8018
L326.401 74.4906
L327.198 71.4073
L327.996 67.6485
L329.59 58.6233
L332.778 39.1708
L333.576 35.0663
L334.373 31.6095
L335.17 28.946
L335.967 27.1971
L336.764 26.4553
L337.561 26.7808
L338.358 28.1988
L339.156 30.698
L339.953 34.2307
L340.75 38.7137
L342.344 50.0354
L344.736 70.3657
L346.33 83.7983
L347.924 95.1841
L348.721 99.6389
L349.518 103.061
L350.316 105.331
L351.113 106.366
L351.91 106.118
L352.707 104.579
L353.504 101.782
L354.301 97.7964
L355.098 92.7311
L356.693 79.9549
L359.084 57.0596
L360.678 41.8725
L362.273 28.7972
L363.07 23.5319
L363.867 19.3209
L364.664 16.2791
L365.461 14.4848
L366.258 13.9778
L367.056 14.7583
L367.853 16.7872
L368.65 19.9874
L369.447 24.2466
L370.244 29.4215
L371.838 41.8178
L375.824 75.2158
L376.621 80.6829
L377.418 85.343
L378.216 89.0736
L379.013 91.7844
L379.81 93.4207
L380.607 93.9638
L381.404 93.4318
L382.201 91.8779
L382.998 89.3885
L383.796 86.0794
L385.39 77.5867
L389.376 53.5714
L390.173 49.6916
L390.97 46.4646
L391.767 43.9926
L392.564 42.3481
L393.361 41.5713
L394.158 41.6691
L394.956 42.6153
L395.753 44.3516
L396.55 46.79
L397.347 49.8163
L398.941 57.0717
L401.333 68.5391
L402.13 71.8541
L402.927 74.6604
L403.724 76.8303
L404.521 78.2595
L405.318 78.8716
L406.116 78.6209
L406.913 77.4943
L407.71 75.5121
L408.507 72.7277
L409.304 69.2257
L410.898 60.5476
L414.884 36.6392
L415.681 32.9047
L416.478 29.9078
L417.276 27.7803
L418.073 26.6266
L418.87 26.5201
L419.667 27.5004
L420.464 29.5708
L421.261 32.6981
L422.058 36.8132
L422.856 41.8126
L424.45 53.8978
L428.436 87.5013
L429.233 93.1455
L430.03 97.9732
L430.827 101.824
L431.624 104.568
L432.421 106.104
L433.218 106.372
L434.016 105.348
L434.813 103.048
L435.61 99.5269
L436.407 94.8785
L437.204 89.231
L438.798 75.6031
L439.596 68.0146
L439.596 68.0146" style="fill:none;stroke:#348abd;stroke-linecap:square;stroke-width:2.0;"/>
   </g>
   <g id="matplotlib.axis_1">
    <g id="xtick_1">
     <g id="line2d_2">
      <defs>
       <path d="
M0 0
L0 -4" id="m93b0483c22" style="stroke:#000000;stroke-width:0.5;"/>
      </defs>
      <g>
       <use style="stroke:#000000;stroke-width:0.5;" x="32.255636875" xlink:href="#m93b0483c22" y="108.198780937"/>
      </g>
     </g>
     <g id="line2d_3">
      <defs>
       <path d="
M0 0
L0 4" id="m741efc42ff" style="stroke:#000000;stroke-width:0.5;"/>
      </defs>
      <g>
       <use style="stroke:#000000;stroke-width:0.5;" x="32.255636875" xlink:href="#m741efc42ff" y="12.1987809375"/>
      </g>
     </g>
     <g id="text_1">
      <!-- 0.00 -->
      <defs>
       <path d="
M50.3906 35.7969
Q50.3906 27.1562 49.1406 20.3125
Q47.9062 13.4844 45.1406 8.73438
Q42.3906 4 38.0312 1.5
Q33.6875 -0.984375 27.4844 -0.984375
Q21.7344 -0.984375 17.4531 1.5
Q13.1875 4 10.375 8.73438
Q7.5625 13.4844 6.17188 20.3125
Q4.78125 27.1562 4.78125 35.7969
Q4.78125 44.4375 6.03125 51.2656
Q7.28125 58.1094 9.98438 62.8125
Q12.7031 67.5312 17.0156 70.0156
Q21.3438 72.5156 27.4844 72.5156
Q33.2969 72.5156 37.5938 70.0469
Q41.8906 67.5781 44.7188 62.8594
Q47.5625 58.1562 48.9688 51.3125
Q50.3906 44.4844 50.3906 35.7969
M13.8125 35.7969
Q13.8125 28.4688 14.5469 23
Q15.2812 17.5312 16.8906 13.8906
Q18.5 10.25 21.1094 8.42188
Q23.7344 6.59375 27.4844 6.59375
Q31.25 6.59375 33.8906 8.39062
Q36.5312 10.2031 38.2031 13.8125
Q39.8906 17.4375 40.6406 22.9219
Q41.4062 28.4219 41.4062 35.7969
Q41.4062 43.1094 40.6406 48.5781
Q39.8906 54.0469 38.2031 57.6562
Q36.5312 61.2812 33.8906 63.0781
Q31.25 64.8906 27.4844 64.8906
Q23.7344 64.8906 21.1094 63.0781
Q18.5 61.2812 16.8906 57.6562
Q15.2812 54.0469 14.5469 48.5781
Q13.8125 43.1094 13.8125 35.7969" id="WenQuanYiMicroHei-30"/>
       <path d="
M7.17188 5.42188
Q7.17188 7.28125 7.65625 8.5625
Q8.15625 9.85938 8.98438 10.6562
Q9.8125 11.4688 10.9375 11.8281
Q12.0625 12.2031 13.375 12.2031
Q14.6562 12.2031 15.7969 11.8281
Q16.9375 11.4688 17.7656 10.6562
Q18.6094 9.85938 19.0938 8.5625
Q19.5781 7.28125 19.5781 5.42188
Q19.5781 3.60938 19.0938 2.3125
Q18.6094 1.03125 17.7656 0.1875
Q16.9375 -0.640625 15.7969 -1.03125
Q14.6562 -1.42188 13.375 -1.42188
Q12.0625 -1.42188 10.9375 -1.03125
Q9.8125 -0.640625 8.98438 0.1875
Q8.15625 1.03125 7.65625 2.3125
Q7.17188 3.60938 7.17188 5.42188" id="WenQuanYiMicroHei-2e"/>
      </defs>
      <g transform="translate(23.1303821875 119.794179062)scale(0.09996 -0.09996)">
       <use xlink:href="#WenQuanYiMicroHei-30"/>
       <use x="55.078125" xlink:href="#WenQuanYiMicroHei-2e"/>
       <use x="81.884765625" xlink:href="#WenQuanYiMicroHei-30"/>
       <use x="136.962890625" xlink:href="#WenQuanYiMicroHei-30"/>
      </g>
     </g>
    </g>
    <g id="xtick_2">
     <g id="line2d_4">
      <g>
       <use style="stroke:#000000;stroke-width:0.5;" x="96.0270654464" xlink:href="#m93b0483c22" y="108.198780937"/>
      </g>
     </g>
     <g id="line2d_5">
      <g>
       <use style="stroke:#000000;stroke-width:0.5;" x="96.0270654464" xlink:href="#m741efc42ff" y="12.1987809375"/>
      </g>
     </g>
     <g id="text_2">
      <!-- 0.01 -->
      <defs>
       <path d="
M34.7188 0
L26.125 0
L26.125 44.5781
Q26.125 46.6875 26.1406 49.0781
Q26.1719 51.4688 26.2344 53.8281
Q26.3125 56.2031 26.3906 58.375
Q26.4688 60.5469 26.5156 62.2031
Q25.6875 61.3281 25.0469 60.6875
Q24.4219 60.0625 23.75 59.4688
Q23.0938 58.8906 22.3594 58.2188
Q21.625 57.5625 20.6094 56.6875
L13.375 50.7812
L8.6875 56.7812
L27.3906 71.3906
L34.7188 71.3906
z
" id="WenQuanYiMicroHei-31"/>
      </defs>
      <g transform="translate(87.6850910714 119.794179062)scale(0.09996 -0.09996)">
       <use xlink:href="#WenQuanYiMicroHei-30"/>
       <use x="55.078125" xlink:href="#WenQuanYiMicroHei-2e"/>
       <use x="81.884765625" xlink:href="#WenQuanYiMicroHei-30"/>
       <use x="136.962890625" xlink:href="#WenQuanYiMicroHei-31"/>
      </g>
     </g>
    </g>
    <g id="xtick_3">
     <g id="line2d_6">
      <g>
       <use style="stroke:#000000;stroke-width:0.5;" x="159.798494018" xlink:href="#m93b0483c22" y="108.198780937"/>
      </g>
     </g>
     <g id="line2d_7">
      <g>
       <use style="stroke:#000000;stroke-width:0.5;" x="159.798494018" xlink:href="#m741efc42ff" y="12.1987809375"/>
      </g>
     </g>
     <g id="text_3">
      <!-- 0.02 -->
      <defs>
       <path d="
M49.2188 0
L4.6875 0
L4.6875 7.625
L21.7812 26.2188
Q25.4375 30.1719 28.3125 33.4375
Q31.2031 36.7188 33.2188 39.8438
Q35.25 42.9688 36.3281 46.1094
Q37.4062 49.2656 37.4062 52.9844
Q37.4062 55.8594 36.5781 58.0469
Q35.75 60.25 34.2031 61.7812
Q32.6719 63.3281 30.5625 64.1094
Q28.4688 64.8906 25.875 64.8906
Q21.2344 64.8906 17.5 63.0156
Q13.7656 61.1406 10.4062 58.2031
L5.42188 64.0156
Q7.375 65.7656 9.60938 67.2969
Q11.8594 68.8438 14.4531 69.9688
Q17.0469 71.0938 19.9219 71.75
Q22.7969 72.4062 25.9844 72.4062
Q30.6719 72.4062 34.4531 71.0938
Q38.2344 69.7812 40.8594 67.3125
Q43.5 64.8438 44.9375 61.2969
Q46.3906 57.7656 46.3906 53.3281
Q46.3906 49.1719 45.0938 45.4062
Q43.7969 41.6562 41.5312 38.0156
Q39.2656 34.375 36.1094 30.7031
Q32.9531 27.0469 29.2969 23.0938
L15.5781 8.5
L15.5781 8.10938
L49.2188 8.10938
z
" id="WenQuanYiMicroHei-32"/>
      </defs>
      <g transform="translate(150.731809643 119.794179062)scale(0.09996 -0.09996)">
       <use xlink:href="#WenQuanYiMicroHei-30"/>
       <use x="55.078125" xlink:href="#WenQuanYiMicroHei-2e"/>
       <use x="81.884765625" xlink:href="#WenQuanYiMicroHei-30"/>
       <use x="136.962890625" xlink:href="#WenQuanYiMicroHei-32"/>
      </g>
     </g>
    </g>
    <g id="xtick_4">
     <g id="line2d_8">
      <g>
       <use style="stroke:#000000;stroke-width:0.5;" x="223.569922589" xlink:href="#m93b0483c22" y="108.198780937"/>
      </g>
     </g>
     <g id="line2d_9">
      <g>
       <use style="stroke:#000000;stroke-width:0.5;" x="223.569922589" xlink:href="#m741efc42ff" y="12.1987809375"/>
      </g>
     </g>
     <g id="text_4">
      <!-- 0.03 -->
      <defs>
       <path d="
M46.9219 54.6875
Q46.9219 51.125 45.7969 48.1875
Q44.6719 45.2656 42.6406 43.1094
Q40.625 40.9688 37.7969 39.5781
Q34.9688 38.1875 31.5 37.5938
L31.5 37.3125
Q40.1406 36.2344 44.625 31.8125
Q49.125 27.3906 49.125 20.3125
Q49.125 15.625 47.5312 11.7188
Q45.9531 7.8125 42.7188 4.98438
Q39.5 2.15625 34.5625 0.578125
Q29.6406 -0.984375 22.9062 -0.984375
Q17.5781 -0.984375 12.8594 -0.140625
Q8.15625 0.6875 4 2.875
L4 11.1875
Q8.25 8.9375 13.2031 7.71875
Q18.1719 6.5 22.7031 6.5
Q27.2031 6.5 30.4688 7.46875
Q33.7344 8.45312 35.8594 10.25
Q37.9844 12.0625 38.9844 14.6875
Q39.9844 17.3281 39.9844 20.6094
Q39.9844 23.9219 38.6875 26.2812
Q37.4062 28.6562 35.0156 30.1875
Q32.625 31.7344 29.1719 32.4688
Q25.7344 33.2031 21.3906 33.2031
L14.8906 33.2031
L14.8906 40.5781
L21.3906 40.5781
Q25.3438 40.5781 28.4219 41.5469
Q31.5 42.5312 33.5625 44.3281
Q35.6406 46.1406 36.7188 48.625
Q37.7969 51.125 37.7969 54.1094
Q37.7969 56.6406 36.9062 58.6406
Q36.0312 60.6406 34.4219 62.0312
Q32.8125 63.4219 30.5625 64.1562
Q28.3281 64.8906 25.5938 64.8906
Q20.3594 64.8906 16.375 63.25
Q12.4062 61.625 8.79688 58.9844
L4.29688 65.0938
Q6.15625 66.6094 8.42188 67.9219
Q10.6875 69.2344 13.375 70.2344
Q16.0625 71.2344 19.1094 71.8125
Q22.1719 72.4062 25.5938 72.4062
Q30.8594 72.4062 34.8281 71.0938
Q38.8125 69.7812 41.5 67.4062
Q44.1875 65.0469 45.5469 61.7969
Q46.9219 58.5469 46.9219 54.6875" id="WenQuanYiMicroHei-33"/>
      </defs>
      <g transform="translate(214.507923839 119.794179062)scale(0.09996 -0.09996)">
       <use xlink:href="#WenQuanYiMicroHei-30"/>
       <use x="55.078125" xlink:href="#WenQuanYiMicroHei-2e"/>
       <use x="81.884765625" xlink:href="#WenQuanYiMicroHei-30"/>
       <use x="136.962890625" xlink:href="#WenQuanYiMicroHei-33"/>
      </g>
     </g>
    </g>
    <g id="xtick_5">
     <g id="line2d_10">
      <g>
       <use style="stroke:#000000;stroke-width:0.5;" x="287.341351161" xlink:href="#m93b0483c22" y="108.198780937"/>
      </g>
     </g>
     <g id="line2d_11">
      <g>
       <use style="stroke:#000000;stroke-width:0.5;" x="287.341351161" xlink:href="#m741efc42ff" y="12.1987809375"/>
      </g>
     </g>
     <g id="text_5">
      <!-- 0.04 -->
      <defs>
       <path d="
M53.0781 16.0156
L42.6719 16.0156
L42.6719 0
L34.0781 0
L34.0781 16.0156
L1.125 16.0156
L1.125 23.7812
L33.5 71.7812
L42.6719 71.7812
L42.6719 24.125
L53.0781 24.125
z

M34.0781 24.125
L34.0781 41.5
Q34.0781 44.2344 34.1562 47.2344
Q34.2344 50.25 34.3281 53.0938
Q34.4219 55.9531 34.5469 58.4375
Q34.6719 60.9375 34.7188 62.5938
L34.2812 62.5938
Q33.9375 61.625 33.4219 60.4219
Q32.9062 59.2344 32.2969 58.0312
Q31.6875 56.8438 31.0469 55.7188
Q30.4219 54.5938 29.8906 53.8125
L9.8125 24.125
z
" id="WenQuanYiMicroHei-34"/>
      </defs>
      <g transform="translate(278.081775223 119.794179062)scale(0.09996 -0.09996)">
       <use xlink:href="#WenQuanYiMicroHei-30"/>
       <use x="55.078125" xlink:href="#WenQuanYiMicroHei-2e"/>
       <use x="81.884765625" xlink:href="#WenQuanYiMicroHei-30"/>
       <use x="136.962890625" xlink:href="#WenQuanYiMicroHei-34"/>
      </g>
     </g>
    </g>
    <g id="xtick_6">
     <g id="line2d_12">
      <g>
       <use style="stroke:#000000;stroke-width:0.5;" x="351.112779732" xlink:href="#m93b0483c22" y="108.198780937"/>
      </g>
     </g>
     <g id="line2d_13">
      <g>
       <use style="stroke:#000000;stroke-width:0.5;" x="351.112779732" xlink:href="#m741efc42ff" y="12.1987809375"/>
      </g>
     </g>
     <g id="text_6">
      <!-- 0.05 -->
      <defs>
       <path d="
M26.6094 43.7969
Q31.4531 43.7969 35.625 42.4531
Q39.7969 41.1094 42.8906 38.4688
Q46 35.8438 47.75 31.9375
Q49.5156 28.0312 49.5156 22.9062
Q49.5156 17.3281 47.8438 12.8906
Q46.1875 8.45312 42.9219 5.375
Q39.6562 2.29688 34.8438 0.65625
Q30.0312 -0.984375 23.7812 -0.984375
Q21.2969 -0.984375 18.875 -0.734375
Q16.4531 -0.484375 14.2344 -0.015625
Q12.0156 0.4375 10.0156 1.17188
Q8.01562 1.90625 6.39062 2.875
L6.39062 11.2812
Q8.01562 10.1562 10.1875 9.28125
Q12.3594 8.40625 14.75 7.8125
Q17.1406 7.23438 19.5469 6.90625
Q21.9688 6.59375 24.0312 6.59375
Q27.875 6.59375 30.9062 7.5
Q33.9375 8.40625 36.0312 10.2969
Q38.1406 12.2031 39.25 15.0781
Q40.375 17.9688 40.375 21.9219
Q40.375 28.9062 36.0781 32.5938
Q31.7812 36.2812 23.5781 36.2812
Q22.2656 36.2812 20.7188 36.1562
Q19.1875 36.0312 17.6406 35.8281
Q16.1094 35.6406 14.7188 35.4219
Q13.3281 35.2031 12.3125 35.0156
L7.90625 37.7969
L10.5938 71.3906
L44.2812 71.3906
L44.2812 63.2812
L18.3125 63.2812
L16.4062 42.8281
Q17.9688 43.1094 20.5312 43.4531
Q23.0938 43.7969 26.6094 43.7969" id="WenQuanYiMicroHei-35"/>
      </defs>
      <g transform="translate(342.031257545 119.794179062)scale(0.09996 -0.09996)">
       <use xlink:href="#WenQuanYiMicroHei-30"/>
       <use x="55.078125" xlink:href="#WenQuanYiMicroHei-2e"/>
       <use x="81.884765625" xlink:href="#WenQuanYiMicroHei-30"/>
       <use x="136.962890625" xlink:href="#WenQuanYiMicroHei-35"/>
      </g>
     </g>
    </g>
    <g id="xtick_7">
     <g id="line2d_14">
      <g>
       <use style="stroke:#000000;stroke-width:0.5;" x="414.884208304" xlink:href="#m93b0483c22" y="108.198780937"/>
      </g>
     </g>
     <g id="line2d_15">
      <g>
       <use style="stroke:#000000;stroke-width:0.5;" x="414.884208304" xlink:href="#m741efc42ff" y="12.1987809375"/>
      </g>
     </g>
     <g id="text_7">
      <!-- 0.06 -->
      <defs>
       <path d="
M5.51562 30.5156
Q5.51562 35.6406 6.03125 40.7188
Q6.54688 45.7969 7.82812 50.4531
Q9.125 55.125 11.375 59.125
Q13.625 63.1406 17.0938 66.0938
Q20.5625 69.0469 25.3906 70.7188
Q30.2188 72.4062 36.7188 72.4062
Q37.6406 72.4062 38.7656 72.3594
Q39.8906 72.3125 41.0312 72.1875
Q42.1875 72.0781 43.2344 71.9062
Q44.2812 71.7344 45.125 71.4844
L45.125 63.9219
Q43.4062 64.5 41.25 64.7969
Q39.1094 65.0938 37.0156 65.0938
Q32.625 65.0938 29.2656 64.0312
Q25.9219 62.9844 23.4844 61.0781
Q21.0469 59.1875 19.4062 56.5469
Q17.7812 53.9062 16.75 50.7031
Q15.7188 47.5156 15.2344 43.8906
Q14.75 40.2812 14.5938 36.375
L15.1875 36.375
Q16.1562 38.1406 17.5469 39.6719
Q18.9531 41.2188 20.7969 42.3125
Q22.6562 43.4062 24.9688 44.0312
Q27.2969 44.6719 30.1719 44.6719
Q34.8125 44.6719 38.5625 43.2344
Q42.3281 41.7969 44.9688 39.0156
Q47.6094 36.2344 49.0469 32.2031
Q50.4844 28.1719 50.4844 23
Q50.4844 17.4375 48.9688 12.9844
Q47.4688 8.54688 44.625 5.4375
Q41.7969 2.34375 37.7969 0.671875
Q33.7969 -0.984375 28.8125 -0.984375
Q23.9219 -0.984375 19.6406 0.921875
Q15.375 2.82812 12.25 6.73438
Q9.125 10.6406 7.3125 16.5469
Q5.51562 22.4688 5.51562 30.5156
M28.7188 6.5
Q31.6406 6.5 34.0469 7.5
Q36.4688 8.5 38.2188 10.5156
Q39.9844 12.5469 40.9375 15.6406
Q41.8906 18.75 41.8906 23
Q41.8906 26.4219 41.0781 29.125
Q40.2812 31.8438 38.6719 33.7344
Q37.0625 35.6406 34.6406 36.6719
Q32.2344 37.7031 29 37.7031
Q25.7344 37.7031 23.0156 36.5469
Q20.3125 35.4062 18.4062 33.5625
Q16.5 31.7344 15.4531 29.3906
Q14.4062 27.0469 14.4062 24.7031
Q14.4062 21.4375 15.3125 18.1875
Q16.2188 14.9375 18 12.3438
Q19.7812 9.76562 22.4531 8.125
Q25.1406 6.5 28.7188 6.5" id="WenQuanYiMicroHei-36"/>
      </defs>
      <g transform="translate(405.754267991 119.794179062)scale(0.09996 -0.09996)">
       <use xlink:href="#WenQuanYiMicroHei-30"/>
       <use x="55.078125" xlink:href="#WenQuanYiMicroHei-2e"/>
       <use x="81.884765625" xlink:href="#WenQuanYiMicroHei-30"/>
       <use x="136.962890625" xlink:href="#WenQuanYiMicroHei-36"/>
      </g>
     </g>
    </g>
    <g id="xtick_8">
     <g id="line2d_16">
      <g>
       <use style="stroke:#000000;stroke-width:0.5;" x="478.655636875" xlink:href="#m93b0483c22" y="108.198780937"/>
      </g>
     </g>
     <g id="line2d_17">
      <g>
       <use style="stroke:#000000;stroke-width:0.5;" x="478.655636875" xlink:href="#m741efc42ff" y="12.1987809375"/>
      </g>
     </g>
     <g id="text_8">
      <!-- 0.07 -->
      <defs>
       <path d="
M13.7188 0
L41.2188 63.2812
L4.39062 63.2812
L4.39062 71.3906
L50.2969 71.3906
L50.2969 64.3125
L23.1875 0
z
" id="WenQuanYiMicroHei-37"/>
      </defs>
      <g transform="translate(469.535067812 119.794179062)scale(0.09996 -0.09996)">
       <use xlink:href="#WenQuanYiMicroHei-30"/>
       <use x="55.078125" xlink:href="#WenQuanYiMicroHei-2e"/>
       <use x="81.884765625" xlink:href="#WenQuanYiMicroHei-30"/>
       <use x="136.962890625" xlink:href="#WenQuanYiMicroHei-37"/>
      </g>
     </g>
    </g>
    <g id="text_9">
     <!-- 时间(秒) -->
     <defs>
      <path d="
M25 82.0312
Q30.4688 75.7812 33.9844 68.3594
L26.9531 64.0625
Q23.8281 71.4844 18.3594 77.7344
z

M41.7969 77.3438
L89.8438 77.3438
L89.8438 1.5625
Q89.8438 -3.90625 87.5 -6.64062
Q85.1562 -9.375 80.8594 -9.375
Q77.7344 -9.375 73.4375 -8.98438
L71.4844 -0.78125
Q76.1719 -1.5625 79.2969 -1.5625
Q82.0312 -1.5625 82.0312 3.90625
L82.0312 70.3125
L41.7969 70.3125
z

M10.1562 63.2812
L17.9688 63.2812
L17.9688 -8.98438
L10.1562 -8.98438
z

M67.5781 55.0781
L67.5781 8.59375
L32.0312 8.59375
L32.0312 55.0781
z

M60.1562 35.5469
L60.1562 48.0469
L39.4531 48.0469
L39.4531 35.5469
z

M39.4531 28.125
L39.4531 15.2344
L60.1562 15.2344
L60.1562 28.125
z
" id="WenQuanYiMicroHei-95f4"/>
      <path d="
M4 27.3906
Q4 33.5 4.875 39.4219
Q5.76562 45.3594 7.5625 50.9531
Q9.375 56.5469 12.125 61.6875
Q14.8906 66.8438 18.7031 71.3906
L27.0938 71.3906
Q20.2656 61.9688 16.7188 50.6875
Q13.1875 39.4062 13.1875 27.4844
Q13.1875 21.6875 14.0781 15.9219
Q14.9844 10.1562 16.7188 4.64062
Q18.4531 -0.875 21.0469 -6.04688
Q23.6406 -11.2344 27 -15.8281
L18.7031 -15.8281
Q14.8906 -11.4219 12.125 -6.39062
Q9.375 -1.375 7.5625 4.125
Q5.76562 9.625 4.875 15.4844
Q4 21.3438 4 27.3906" id="WenQuanYiMicroHei-28"/>
      <path d="
M5.07812 54.6875
L20.3125 54.6875
L20.3125 67.5781
Q14.4531 66.0156 8.20312 64.8438
L5.46875 71.875
Q23.0469 75 37.5 81.25
L41.0156 74.6094
L27.7344 69.9219
L27.7344 54.6875
L41.7969 54.6875
L41.7969 47.6562
L27.7344 47.6562
L27.7344 45.7031
Q35.5469 37.5 41.4062 29.2969
L36.3281 22.2656
Q32.0312 29.6875 27.7344 35.5469
L27.7344 -8.98438
L20.3125 -8.98438
L20.3125 30.0781
Q15.625 18.3594 8.20312 8.59375
L2.73438 15.2344
Q13.6719 29.2969 19.1406 47.6562
L5.07812 47.6562
z

M62.5 80.8594
L70.7031 80.8594
L70.7031 21.875
L62.5 21.875
z

M81.6406 70.7031
Q89.8438 57.4219 95.3125 42.1875
L88.2812 38.2812
Q83.5938 53.125 75.3906 66.7969
z

M48.8281 69.9219
L56.25 67.1875
Q52.3438 46.4844 46.0938 32.0312
L38.6719 36.7188
Q45.3125 51.5625 48.8281 69.9219
M82.8125 36.3281
L90.625 33.5938
Q82.8125 16.7969 70.3125 6.64062
Q57.8125 -3.51562 37.1094 -9.375
L33.5938 -1.95312
Q52.7344 3.125 63.8594 12.1094
Q75 21.0938 82.8125 36.3281" id="WenQuanYiMicroHei-79d2"/>
      <path d="
M42.9688 60.5469
L75 60.5469
L75 80.8594
L82.8125 80.8594
L82.8125 60.5469
L94.5312 60.5469
L94.5312 53.125
L82.8125 53.125
L82.8125 1.95312
Q82.8125 -3.90625 80.6562 -6.25
Q78.5156 -8.59375 73.0469 -8.59375
Q66.7969 -8.59375 60.9375 -7.03125
L59.375 1.17188
Q65.625 -0.78125 71.875 -0.78125
Q73.4375 -0.78125 74.2188 0
Q75 0.78125 75 3.90625
L75 53.125
L42.9688 53.125
z

M54.2969 46.4844
Q61.7188 34.375 66.7969 20.3125
L58.9844 16.7969
Q54.2969 31.6406 47.2656 43.3594
z

M39.4531 73.4375
L39.4531 4.29688
L32.0312 4.29688
L32.0312 9.76562
L14.8438 9.76562
L14.8438 1.17188
L7.42188 1.17188
L7.42188 73.4375
z

M14.8438 45.3125
L32.0312 45.3125
L32.0312 66.4062
L14.8438 66.4062
z

M14.8438 16.7969
L32.0312 16.7969
L32.0312 38.2812
L14.8438 38.2812
z
" id="WenQuanYiMicroHei-65f6"/>
      <path d="
M26.125 27.3906
Q26.125 21.3438 25.2344 15.4844
Q24.3594 9.625 22.5312 4.125
Q20.7031 -1.375 17.9375 -6.39062
Q15.1875 -11.4219 11.375 -15.8281
L3.07812 -15.8281
Q6.45312 -11.2344 9.03125 -6.04688
Q11.625 -0.875 13.375 4.64062
Q15.1406 10.1562 16.0156 15.9219
Q16.8906 21.6875 16.8906 27.4844
Q16.8906 39.4062 13.375 50.6875
Q9.85938 61.9688 2.98438 71.3906
L11.375 71.3906
Q15.1875 66.8438 17.9375 61.6875
Q20.7031 56.5469 22.5312 50.9531
Q24.3594 45.3594 25.2344 39.4219
Q26.125 33.5 26.125 27.3906" id="WenQuanYiMicroHei-29"/>
     </defs>
     <g transform="translate(238.02355 134.791740937)scale(0.09996 -0.09996)">
      <use xlink:href="#WenQuanYiMicroHei-65f6"/>
      <use x="100.0" xlink:href="#WenQuanYiMicroHei-95f4"/>
      <use x="200.0" xlink:href="#WenQuanYiMicroHei-28"/>
      <use x="230.078125" xlink:href="#WenQuanYiMicroHei-79d2"/>
      <use x="330.078125" xlink:href="#WenQuanYiMicroHei-29"/>
     </g>
    </g>
   </g>
   <g id="matplotlib.axis_2">
    <g id="ytick_1">
     <g id="line2d_18">
      <defs>
       <path d="
M0 0
L4 0" id="m728421d6d4" style="stroke:#000000;stroke-width:0.5;"/>
      </defs>
      <g>
       <use style="stroke:#000000;stroke-width:0.5;" x="32.255636875" xlink:href="#m728421d6d4" y="108.198780937"/>
      </g>
     </g>
     <g id="line2d_19">
      <defs>
       <path d="
M0 0
L-4 0" id="mcb0005524f" style="stroke:#000000;stroke-width:0.5;"/>
      </defs>
      <g>
       <use style="stroke:#000000;stroke-width:0.5;" x="478.655636875" xlink:href="#mcb0005524f" y="108.198780937"/>
      </g>
     </g>
     <g id="text_10">
      <!-- −3 -->
      <defs>
       <path d="
M4.98438 31.5938
L4.98438 38.9219
L50.0938 38.9219
L50.0938 31.5938
z
" id="WenQuanYiMicroHei-2212"/>
      </defs>
      <g transform="translate(18.337730625 110.795398125)scale(0.09996 -0.09996)">
       <use xlink:href="#WenQuanYiMicroHei-2212"/>
       <use x="55.078125" xlink:href="#WenQuanYiMicroHei-33"/>
      </g>
     </g>
    </g>
    <g id="ytick_2">
     <g id="line2d_20">
      <g>
       <use style="stroke:#000000;stroke-width:0.5;" x="32.255636875" xlink:href="#m728421d6d4" y="92.1987809375"/>
      </g>
     </g>
     <g id="line2d_21">
      <g>
       <use style="stroke:#000000;stroke-width:0.5;" x="478.655636875" xlink:href="#mcb0005524f" y="92.1987809375"/>
      </g>
     </g>
     <g id="text_11">
      <!-- −2 -->
      <g transform="translate(18.328359375 94.795398125)scale(0.09996 -0.09996)">
       <use xlink:href="#WenQuanYiMicroHei-2212"/>
       <use x="55.078125" xlink:href="#WenQuanYiMicroHei-32"/>
      </g>
     </g>
    </g>
    <g id="ytick_3">
     <g id="line2d_22">
      <g>
       <use style="stroke:#000000;stroke-width:0.5;" x="32.255636875" xlink:href="#m728421d6d4" y="76.1987809375"/>
      </g>
     </g>
     <g id="line2d_23">
      <g>
       <use style="stroke:#000000;stroke-width:0.5;" x="478.655636875" xlink:href="#mcb0005524f" y="76.1987809375"/>
      </g>
     </g>
     <g id="text_12">
      <!-- −1 -->
      <g transform="translate(19.777779375 78.795398125)scale(0.09996 -0.09996)">
       <use xlink:href="#WenQuanYiMicroHei-2212"/>
       <use x="55.078125" xlink:href="#WenQuanYiMicroHei-31"/>
      </g>
     </g>
    </g>
    <g id="ytick_4">
     <g id="line2d_24">
      <g>
       <use style="stroke:#000000;stroke-width:0.5;" x="32.255636875" xlink:href="#m728421d6d4" y="60.1987809375"/>
      </g>
     </g>
     <g id="line2d_25">
      <g>
       <use style="stroke:#000000;stroke-width:0.5;" x="478.655636875" xlink:href="#mcb0005524f" y="60.1987809375"/>
      </g>
     </g>
     <g id="text_13">
      <!-- 0 -->
      <g transform="translate(23.69652375 62.795398125)scale(0.09996 -0.09996)">
       <use xlink:href="#WenQuanYiMicroHei-30"/>
      </g>
     </g>
    </g>
    <g id="ytick_5">
     <g id="line2d_26">
      <g>
       <use style="stroke:#000000;stroke-width:0.5;" x="32.255636875" xlink:href="#m728421d6d4" y="44.1987809375"/>
      </g>
     </g>
     <g id="line2d_27">
      <g>
       <use style="stroke:#000000;stroke-width:0.5;" x="478.655636875" xlink:href="#mcb0005524f" y="44.1987809375"/>
      </g>
     </g>
     <g id="text_14">
      <!-- 1 -->
      <g transform="translate(25.653553125 46.795398125)scale(0.09996 -0.09996)">
       <use xlink:href="#WenQuanYiMicroHei-31"/>
      </g>
     </g>
    </g>
    <g id="ytick_6">
     <g id="line2d_28">
      <g>
       <use style="stroke:#000000;stroke-width:0.5;" x="32.255636875" xlink:href="#m728421d6d4" y="28.1987809375"/>
      </g>
     </g>
     <g id="line2d_29">
      <g>
       <use style="stroke:#000000;stroke-width:0.5;" x="478.655636875" xlink:href="#mcb0005524f" y="28.1987809375"/>
      </g>
     </g>
     <g id="text_15">
      <!-- 2 -->
      <g transform="translate(23.804293125 30.795398125)scale(0.09996 -0.09996)">
       <use xlink:href="#WenQuanYiMicroHei-32"/>
      </g>
     </g>
    </g>
    <g id="ytick_7">
     <g id="line2d_30">
      <g>
       <use style="stroke:#000000;stroke-width:0.5;" x="32.255636875" xlink:href="#m728421d6d4" y="12.1987809375"/>
      </g>
     </g>
     <g id="line2d_31">
      <g>
       <use style="stroke:#000000;stroke-width:0.5;" x="478.655636875" xlink:href="#mcb0005524f" y="12.1987809375"/>
      </g>
     </g>
     <g id="text_16">
      <!-- 3 -->
      <g transform="translate(23.744941875 14.795398125)scale(0.09996 -0.09996)">
       <use xlink:href="#WenQuanYiMicroHei-33"/>
      </g>
     </g>
    </g>
   </g>
   <g id="patch_3">
    <path d="
M32.2556 12.1988
L478.656 12.1988" style="fill:none;stroke:#000000;"/>
   </g>
   <g id="patch_4">
    <path d="
M478.656 108.199
L478.656 12.1988" style="fill:none;stroke:#000000;"/>
   </g>
   <g id="patch_5">
    <path d="
M32.2556 108.199
L478.656 108.199" style="fill:none;stroke:#000000;"/>
   </g>
   <g id="patch_6">
    <path d="
M32.2556 108.199
L32.2556 12.1988" style="fill:none;stroke:#000000;"/>
   </g>
  </g>
  <g id="axes_2">
   <g id="patch_7">
    <path d="
M32.2556 242.599
L478.656 242.599
L478.656 146.599
L32.2556 146.599
z
" style="fill:#ffffff;"/>
   </g>
   <g id="line2d_32">
    <path clip-path="url(#pbcea6fd158)" d="
M32.2556 229.732
L33.9994 233.331
L35.7431 230.926
L37.4869 234.277
L39.2306 234.082
L40.9744 234.389
L42.7181 230.617
L44.4619 229.581
L46.2056 229.956
L47.9494 231.105
L49.6931 148.25
L51.4369 237.679
L53.1806 235.527
L54.9244 232.928
L56.6681 234.594
L58.4119 146.599
L60.1556 236.278
L61.8994 231.126
L63.6431 230.754
L65.3869 233.223
L67.1306 233.159
L68.8744 234.764
L70.6181 230.567
L72.3619 229.52
L74.1056 231.311
L75.8494 232.322
L77.5931 231.028
L79.3369 232.036
L81.0806 231.928
L82.8244 232.717
L84.5681 231.236
L86.3119 232.165
L88.0556 232.007
L89.7994 235.728
L91.5431 231.683
L93.2869 233.226
L95.0306 232.331
L96.7744 234.295
L98.5181 232.84
L100.262 233.368
L102.006 232.24
L103.749 235.246
L105.493 232.743
L107.237 235.121
L108.981 233.977
L110.724 234.033
L112.468 234.224
L114.212 232.563
L115.956 231.597
L117.699 233.768
L119.443 234.618
L122.931 233.357
L124.674 233.46
L126.418 235.366
L128.162 230.588
L129.906 231.291
L131.649 233.618
L133.393 233.534
L135.137 234.744
L136.881 233.029
L138.624 232.355
L142.112 230.321
L143.856 229.882
L145.599 230.601
L147.343 231.076
L149.087 236.116
L150.831 235.47
L152.574 232.418
L154.318 233.34
L156.062 232.007
L157.806 232.296
L159.549 233.557
L161.293 233.017
L163.037 236.444
L164.781 234.442
L166.524 233.118
L168.268 232.408
L170.012 231.979
L171.756 232.542
L173.499 234.152
L175.243 233.453
L176.987 235.144
L178.731 234.578
L180.474 232.247
L182.218 231.633
L183.962 233.57
L185.706 231.979
L187.449 232.892
L189.193 233.168
L190.937 232.992
L192.681 230.535
L194.424 229.816
L196.168 229.768
L197.912 231.444
L199.656 232.831
L201.399 232.947
L203.143 234.185
L204.887 236.185
L206.631 233.174
L208.374 234.289
L210.118 233.007
L211.862 239.686
L213.606 234.325
L215.349 235.422
L217.093 234.534
L218.837 235.317
L220.581 235.924
L222.324 242.092
L224.068 232.979
L225.812 234.351
L227.556 232.204
L229.299 232.007
L232.787 238.616
L234.531 233.844
L236.274 234.342
L238.018 233.188
L239.762 232.589
L241.506 234.816
L244.993 234.826
L246.737 236.027
L248.481 235.686
L250.224 232.793
L251.968 232.698
L253.712 231.726
L255.456 234.412
L257.199 234.452
L258.943 235.206
L260.687 233.718
L262.431 233.651
L264.174 231.327
L265.918 232.015
L267.662 233.06
L269.406 231.629
L271.149 232.278
L274.637 232.275
L276.381 236.53
L278.124 231.613
L279.868 232.561
L281.612 232.228
L283.356 232.085
L285.099 233.735
L286.843 234.688
L290.331 234.52
L292.074 232.295
L293.818 233.862
L295.562 234.744
L297.306 233.85
L299.049 235.481
L300.793 234.848
L302.537 236.282
L304.281 234.776
L306.024 231.881
L307.768 234.156
L309.512 232.874
L311.256 239.266
L312.999 234.166
L314.743 236.428
L316.487 231.922
L318.231 233.032
L319.974 232.703
L321.718 231.295
L323.462 232.216
L325.206 233.387
L326.949 232.719
L328.693 234.035
L330.437 231.767
L332.181 231.748
L333.924 232.53
L335.668 232.06
L337.412 232.441
L339.156 233.552
L340.899 235.128
L342.643 234.365
L344.387 232.596
L346.131 233.674
L347.874 242.431
L349.618 238.702
L351.362 234.185
L354.849 233.715
L356.593 236.04
L358.337 233.177
L360.081 234.966
L361.824 238.269
L363.568 232.072
L365.312 234.142
L367.056 232.925
L368.799 234.631
L370.543 231.86
L372.287 232.664
L374.031 233.757
L375.774 233.601
L377.518 234.7
L379.262 233.259
L381.006 235.798
L382.749 236.482
L384.493 236.005
L386.237 234.47
L387.981 234.034
L389.724 232.821
L391.468 232.428
L393.212 233.814
L394.956 234.885
L396.699 232.919
L398.443 234.409
L400.187 234.61
L401.931 231.59
L403.674 231.697
L405.418 232.397
L407.162 232.521
L408.906 233.186
L410.649 236.126
L412.393 233.527
L414.137 232.969
L415.881 232.26
L417.624 232.069
L419.368 234.932
L421.112 234.885
L422.856 235.9
L424.599 234.163
L426.343 234.86
L428.087 233.947
L429.831 234.316
L431.574 234.144
L433.318 236.165
L435.062 237.811
L436.806 238.301
L438.549 234.116
L440.293 233.276
L442.037 233.727
L443.781 232.795
L445.524 238.866
L447.268 233.335
L449.012 234.427
L452.499 233.563
L454.243 232.104
L455.987 233.195
L457.731 232.108
L459.474 234.235
L461.218 234.37
L462.962 233.738
L464.706 233.771
L466.449 236.182
L468.193 235.927
L469.937 233.533
L471.681 235.067
L473.424 234.677
L475.168 235.705
L476.912 235.517
L478.656 235.118
L478.656 235.118" style="fill:none;stroke:#348abd;stroke-linecap:square;stroke-width:2.0;"/>
   </g>
   <g id="matplotlib.axis_3">
    <g id="xtick_9">
     <g id="line2d_33">
      <g>
       <use style="stroke:#000000;stroke-width:0.5;" x="32.255636875" xlink:href="#m93b0483c22" y="242.598780937"/>
      </g>
     </g>
     <g id="line2d_34">
      <g>
       <use style="stroke:#000000;stroke-width:0.5;" x="32.255636875" xlink:href="#m741efc42ff" y="146.598780937"/>
      </g>
     </g>
     <g id="text_17">
      <!-- 0 -->
      <g transform="translate(29.9760803125 254.194179062)scale(0.09996 -0.09996)">
       <use xlink:href="#WenQuanYiMicroHei-30"/>
      </g>
     </g>
    </g>
    <g id="xtick_10">
     <g id="line2d_35">
      <g>
       <use style="stroke:#000000;stroke-width:0.5;" x="88.055636875" xlink:href="#m93b0483c22" y="242.598780937"/>
      </g>
     </g>
     <g id="line2d_36">
      <g>
       <use style="stroke:#000000;stroke-width:0.5;" x="88.055636875" xlink:href="#m741efc42ff" y="146.598780937"/>
      </g>
     </g>
     <g id="text_18">
      <!-- 500 -->
      <g transform="translate(80.3509075 254.194179062)scale(0.09996 -0.09996)">
       <use xlink:href="#WenQuanYiMicroHei-35"/>
       <use x="55.078125" xlink:href="#WenQuanYiMicroHei-30"/>
       <use x="110.15625" xlink:href="#WenQuanYiMicroHei-30"/>
      </g>
     </g>
    </g>
    <g id="xtick_11">
     <g id="line2d_37">
      <g>
       <use style="stroke:#000000;stroke-width:0.5;" x="143.855636875" xlink:href="#m93b0483c22" y="242.598780937"/>
      </g>
     </g>
     <g id="line2d_38">
      <g>
       <use style="stroke:#000000;stroke-width:0.5;" x="143.855636875" xlink:href="#m741efc42ff" y="146.598780937"/>
      </g>
     </g>
     <g id="text_19">
      <!-- 1000 -->
      <g transform="translate(133.512900625 254.194179062)scale(0.09996 -0.09996)">
       <use xlink:href="#WenQuanYiMicroHei-31"/>
       <use x="55.078125" xlink:href="#WenQuanYiMicroHei-30"/>
       <use x="110.15625" xlink:href="#WenQuanYiMicroHei-30"/>
       <use x="165.234375" xlink:href="#WenQuanYiMicroHei-30"/>
      </g>
     </g>
    </g>
    <g id="xtick_12">
     <g id="line2d_39">
      <g>
       <use style="stroke:#000000;stroke-width:0.5;" x="199.655636875" xlink:href="#m93b0483c22" y="242.598780937"/>
      </g>
     </g>
     <g id="line2d_40">
      <g>
       <use style="stroke:#000000;stroke-width:0.5;" x="199.655636875" xlink:href="#m741efc42ff" y="146.598780937"/>
      </g>
     </g>
     <g id="text_20">
      <!-- 1500 -->
      <g transform="translate(189.312900625 254.194179062)scale(0.09996 -0.09996)">
       <use xlink:href="#WenQuanYiMicroHei-31"/>
       <use x="55.078125" xlink:href="#WenQuanYiMicroHei-35"/>
       <use x="110.15625" xlink:href="#WenQuanYiMicroHei-30"/>
       <use x="165.234375" xlink:href="#WenQuanYiMicroHei-30"/>
      </g>
     </g>
    </g>
    <g id="xtick_13">
     <g id="line2d_41">
      <g>
       <use style="stroke:#000000;stroke-width:0.5;" x="255.455636875" xlink:href="#m93b0483c22" y="242.598780937"/>
      </g>
     </g>
     <g id="line2d_42">
      <g>
       <use style="stroke:#000000;stroke-width:0.5;" x="255.455636875" xlink:href="#m741efc42ff" y="146.598780937"/>
      </g>
     </g>
     <g id="text_21">
      <!-- 2000 -->
      <g transform="translate(244.912980625 254.194179062)scale(0.09996 -0.09996)">
       <use xlink:href="#WenQuanYiMicroHei-32"/>
       <use x="55.078125" xlink:href="#WenQuanYiMicroHei-30"/>
       <use x="110.15625" xlink:href="#WenQuanYiMicroHei-30"/>
       <use x="165.234375" xlink:href="#WenQuanYiMicroHei-30"/>
      </g>
     </g>
    </g>
    <g id="xtick_14">
     <g id="line2d_43">
      <g>
       <use style="stroke:#000000;stroke-width:0.5;" x="311.255636875" xlink:href="#m93b0483c22" y="242.598780937"/>
      </g>
     </g>
     <g id="line2d_44">
      <g>
       <use style="stroke:#000000;stroke-width:0.5;" x="311.255636875" xlink:href="#m741efc42ff" y="146.598780937"/>
      </g>
     </g>
     <g id="text_22">
      <!-- 2500 -->
      <g transform="translate(300.712980625 254.194179062)scale(0.09996 -0.09996)">
       <use xlink:href="#WenQuanYiMicroHei-32"/>
       <use x="55.078125" xlink:href="#WenQuanYiMicroHei-35"/>
       <use x="110.15625" xlink:href="#WenQuanYiMicroHei-30"/>
       <use x="165.234375" xlink:href="#WenQuanYiMicroHei-30"/>
      </g>
     </g>
    </g>
    <g id="xtick_15">
     <g id="line2d_45">
      <g>
       <use style="stroke:#000000;stroke-width:0.5;" x="367.055636875" xlink:href="#m93b0483c22" y="242.598780937"/>
      </g>
     </g>
     <g id="line2d_46">
      <g>
       <use style="stroke:#000000;stroke-width:0.5;" x="367.055636875" xlink:href="#m741efc42ff" y="146.598780937"/>
      </g>
     </g>
     <g id="text_23">
      <!-- 3000 -->
      <g transform="translate(356.478619375 254.194179062)scale(0.09996 -0.09996)">
       <use xlink:href="#WenQuanYiMicroHei-33"/>
       <use x="55.078125" xlink:href="#WenQuanYiMicroHei-30"/>
       <use x="110.15625" xlink:href="#WenQuanYiMicroHei-30"/>
       <use x="165.234375" xlink:href="#WenQuanYiMicroHei-30"/>
      </g>
     </g>
    </g>
    <g id="xtick_16">
     <g id="line2d_47">
      <g>
       <use style="stroke:#000000;stroke-width:0.5;" x="422.855636875" xlink:href="#m93b0483c22" y="242.598780937"/>
      </g>
     </g>
     <g id="line2d_48">
      <g>
       <use style="stroke:#000000;stroke-width:0.5;" x="422.855636875" xlink:href="#m741efc42ff" y="146.598780937"/>
      </g>
     </g>
     <g id="text_24">
      <!-- 3500 -->
      <g transform="translate(412.278619375 254.194179062)scale(0.09996 -0.09996)">
       <use xlink:href="#WenQuanYiMicroHei-33"/>
       <use x="55.078125" xlink:href="#WenQuanYiMicroHei-35"/>
       <use x="110.15625" xlink:href="#WenQuanYiMicroHei-30"/>
       <use x="165.234375" xlink:href="#WenQuanYiMicroHei-30"/>
      </g>
     </g>
    </g>
    <g id="xtick_17">
     <g id="line2d_49">
      <g>
       <use style="stroke:#000000;stroke-width:0.5;" x="478.655636875" xlink:href="#m93b0483c22" y="242.598780937"/>
      </g>
     </g>
     <g id="line2d_50">
      <g>
       <use style="stroke:#000000;stroke-width:0.5;" x="478.655636875" xlink:href="#m741efc42ff" y="146.598780937"/>
      </g>
     </g>
     <g id="text_25">
      <!-- 4000 -->
      <g transform="translate(467.934926875 254.194179062)scale(0.09996 -0.09996)">
       <use xlink:href="#WenQuanYiMicroHei-34"/>
       <use x="55.078125" xlink:href="#WenQuanYiMicroHei-30"/>
       <use x="110.15625" xlink:href="#WenQuanYiMicroHei-30"/>
       <use x="165.234375" xlink:href="#WenQuanYiMicroHei-30"/>
      </g>
     </g>
    </g>
    <g id="text_26">
     <!-- 频率(Hz) -->
     <defs>
      <path d="
M51.1719 81.25
Q54.2969 76.5625 55.8594 71.0938
L94.5312 71.0938
L94.5312 63.6719
L5.46875 63.6719
L5.46875 71.0938
L46.0938 71.0938
Q44.9219 75.3906 42.9688 78.5156
z

M46.4844 25.3906
L53.9062 25.3906
L53.9062 17.1875
L93.75 17.1875
L93.75 10.1562
L53.9062 10.1562
L53.9062 -8.98438
L46.4844 -8.98438
L46.4844 10.1562
L6.25 10.1562
L6.25 17.1875
L46.4844 17.1875
z

M45.7031 69.5312
L52.7344 67.5781
Q46.875 55.4688 42.1875 50
Q47.6562 50 54.2969 51.1719
Q57.8125 55.0781 60.9375 59.375
L67.9688 57.0312
Q56.6406 41.7969 42.5781 31.6406
Q52.3438 33.2031 60.5469 35.1562
Q58.9844 37.5 57.0312 39.8438
L63.2812 42.9688
Q69.9219 35.1562 74.6094 25.3906
L67.5781 22.2656
Q66.0156 26.1719 64.0625 29.6875
Q49.2188 26.1719 32.0312 23.8281
L30.0781 30.0781
Q39.4531 35.9375 48.0469 44.5312
Q41.4062 43.3594 33.9844 42.5781
L32.8125 49.2188
Q41.0156 58.9844 45.7031 69.5312
M17.1875 62.1094
Q23.4375 56.6406 27.7344 50
L20.7031 46.0938
Q16.7969 52.3438 10.1562 57.8125
z

M83.2031 62.1094
L89.8438 58.2031
Q83.2031 49.6094 76.5625 44.5312
L70.7031 50
Q78.5156 55.8594 83.2031 62.1094
M25.3906 42.5781
L31.25 38.2812
Q24.2188 29.6875 13.6719 22.2656
L7.8125 28.125
Q18.75 35.5469 25.3906 42.5781
M76.9531 41.4062
Q85.1562 36.7188 92.1875 30.0781
L86.3281 23.0469
Q79.6875 30.8594 71.875 35.9375
z
" id="WenQuanYiMicroHei-7387"/>
      <path d="
M60.4062 0
L51.3125 0
L51.3125 33.2969
L18.7969 33.2969
L18.7969 0
L9.71875 0
L9.71875 71.3906
L18.7969 71.3906
L18.7969 41.3125
L51.3125 41.3125
L51.3125 71.3906
L60.4062 71.3906
z
" id="WenQuanYiMicroHei-48"/>
      <path d="
M90.2344 62.8906
L90.2344 12.1094
L82.4219 12.1094
L82.4219 55.8594
L58.9844 55.8594
L58.9844 11.7188
L51.1719 11.7188
L51.1719 62.8906
L64.4531 62.8906
L66.0156 70.7031
L47.6562 70.7031
L47.6562 77.7344
L93.3594 77.7344
L93.3594 70.7031
L73.4375 70.7031
L72.6562 62.8906
z

M66.7969 47.6562
L74.6094 47.6562
Q74.6094 22.2656 72.6562 15.2344
Q70.7031 8.20312 64.6406 1.75
Q58.5938 -4.6875 48.0469 -8.98438
L42.9688 -2.34375
Q52.7344 1.5625 58 6.82812
Q63.2812 12.1094 65.0312 18.5469
Q66.7969 25 66.7969 47.6562
M77.7344 12.8906
Q86.3281 6.25 94.9219 -2.73438
L89.0625 -8.98438
Q81.6406 0 71.4844 8.59375
z

M25.7812 81.25
L33.2031 81.25
L33.2031 69.1406
L44.1406 69.1406
L44.1406 62.5
L33.2031 62.5
L33.2031 50
L47.6562 50
L47.6562 43.3594
L6.64062 43.3594
L6.64062 50
L12.8906 50
L12.8906 73.8281
L20.3125 73.8281
L20.3125 50
L25.7812 50
z

M25 38.2812
L32.4219 38.2812
L32.4219 16.7969
Q37.1094 23.4375 39.8438 32.4219
L47.2656 29.6875
Q37.5 1.17188 10.9375 -8.98438
L7.8125 -2.34375
Q17.9688 1.17188 25 7.8125
z

M14.0625 35.9375
L21.0938 33.5938
Q16.7969 19.5312 11.7188 10.5469
L5.07812 14.0625
Q10.9375 25 14.0625 35.9375" id="WenQuanYiMicroHei-9891"/>
      <path d="
M40.0938 0
L4 0
L4 6.10938
L30.1719 46.9219
L5.60938 46.9219
L5.60938 53.6094
L39.2031 53.6094
L39.2031 46.4844
L13.625 6.6875
L40.0938 6.6875
z
" id="WenQuanYiMicroHei-7a"/>
     </defs>
     <g transform="translate(237.19575625 269.191740937)scale(0.09996 -0.09996)">
      <use xlink:href="#WenQuanYiMicroHei-9891"/>
      <use x="100.0" xlink:href="#WenQuanYiMicroHei-7387"/>
      <use x="200.0" xlink:href="#WenQuanYiMicroHei-28"/>
      <use x="230.078125" xlink:href="#WenQuanYiMicroHei-48"/>
      <use x="300.1953125" xlink:href="#WenQuanYiMicroHei-7a"/>
      <use x="344.287109375" xlink:href="#WenQuanYiMicroHei-29"/>
     </g>
    </g>
   </g>
   <g id="matplotlib.axis_4">
    <g id="ytick_8">
     <g id="line2d_51">
      <g>
       <use style="stroke:#000000;stroke-width:0.5;" x="32.255636875" xlink:href="#m728421d6d4" y="242.598780937"/>
      </g>
     </g>
     <g id="line2d_52">
      <g>
       <use style="stroke:#000000;stroke-width:0.5;" x="478.655636875" xlink:href="#mcb0005524f" y="242.598780937"/>
      </g>
     </g>
     <g id="text_27">
      <!-- −350 -->
      <g transform="translate(7.2 245.195398125)scale(0.09996 -0.09996)">
       <use xlink:href="#WenQuanYiMicroHei-2212"/>
       <use x="55.078125" xlink:href="#WenQuanYiMicroHei-33"/>
       <use x="110.15625" xlink:href="#WenQuanYiMicroHei-35"/>
       <use x="165.234375" xlink:href="#WenQuanYiMicroHei-30"/>
      </g>
     </g>
    </g>
    <g id="ytick_9">
     <g id="line2d_53">
      <g>
       <use style="stroke:#000000;stroke-width:0.5;" x="32.255636875" xlink:href="#m728421d6d4" y="228.884495223"/>
      </g>
     </g>
     <g id="line2d_54">
      <g>
       <use style="stroke:#000000;stroke-width:0.5;" x="478.655636875" xlink:href="#mcb0005524f" y="228.884495223"/>
      </g>
     </g>
     <g id="text_28">
      <!-- −300 -->
      <g transform="translate(7.2 231.481112411)scale(0.09996 -0.09996)">
       <use xlink:href="#WenQuanYiMicroHei-2212"/>
       <use x="55.078125" xlink:href="#WenQuanYiMicroHei-33"/>
       <use x="110.15625" xlink:href="#WenQuanYiMicroHei-30"/>
       <use x="165.234375" xlink:href="#WenQuanYiMicroHei-30"/>
      </g>
     </g>
    </g>
    <g id="ytick_10">
     <g id="line2d_55">
      <g>
       <use style="stroke:#000000;stroke-width:0.5;" x="32.255636875" xlink:href="#m728421d6d4" y="215.170209509"/>
      </g>
     </g>
     <g id="line2d_56">
      <g>
       <use style="stroke:#000000;stroke-width:0.5;" x="478.655636875" xlink:href="#mcb0005524f" y="215.170209509"/>
      </g>
     </g>
     <g id="text_29">
      <!-- −250 -->
      <g transform="translate(7.2 217.766826696)scale(0.09996 -0.09996)">
       <use xlink:href="#WenQuanYiMicroHei-2212"/>
       <use x="55.078125" xlink:href="#WenQuanYiMicroHei-32"/>
       <use x="110.15625" xlink:href="#WenQuanYiMicroHei-35"/>
       <use x="165.234375" xlink:href="#WenQuanYiMicroHei-30"/>
      </g>
     </g>
    </g>
    <g id="ytick_11">
     <g id="line2d_57">
      <g>
       <use style="stroke:#000000;stroke-width:0.5;" x="32.255636875" xlink:href="#m728421d6d4" y="201.455923795"/>
      </g>
     </g>
     <g id="line2d_58">
      <g>
       <use style="stroke:#000000;stroke-width:0.5;" x="478.655636875" xlink:href="#mcb0005524f" y="201.455923795"/>
      </g>
     </g>
     <g id="text_30">
      <!-- −200 -->
      <g transform="translate(7.2 204.052540982)scale(0.09996 -0.09996)">
       <use xlink:href="#WenQuanYiMicroHei-2212"/>
       <use x="55.078125" xlink:href="#WenQuanYiMicroHei-32"/>
       <use x="110.15625" xlink:href="#WenQuanYiMicroHei-30"/>
       <use x="165.234375" xlink:href="#WenQuanYiMicroHei-30"/>
      </g>
     </g>
    </g>
    <g id="ytick_12">
     <g id="line2d_59">
      <g>
       <use style="stroke:#000000;stroke-width:0.5;" x="32.255636875" xlink:href="#m728421d6d4" y="187.74163808"/>
      </g>
     </g>
     <g id="line2d_60">
      <g>
       <use style="stroke:#000000;stroke-width:0.5;" x="478.655636875" xlink:href="#mcb0005524f" y="187.74163808"/>
      </g>
     </g>
     <g id="text_31">
      <!-- −150 -->
      <g transform="translate(7.2 190.338255268)scale(0.09996 -0.09996)">
       <use xlink:href="#WenQuanYiMicroHei-2212"/>
       <use x="55.078125" xlink:href="#WenQuanYiMicroHei-31"/>
       <use x="110.15625" xlink:href="#WenQuanYiMicroHei-35"/>
       <use x="165.234375" xlink:href="#WenQuanYiMicroHei-30"/>
      </g>
     </g>
    </g>
    <g id="ytick_13">
     <g id="line2d_61">
      <g>
       <use style="stroke:#000000;stroke-width:0.5;" x="32.255636875" xlink:href="#m728421d6d4" y="174.027352366"/>
      </g>
     </g>
     <g id="line2d_62">
      <g>
       <use style="stroke:#000000;stroke-width:0.5;" x="478.655636875" xlink:href="#mcb0005524f" y="174.027352366"/>
      </g>
     </g>
     <g id="text_32">
      <!-- −100 -->
      <g transform="translate(7.2 176.623969554)scale(0.09996 -0.09996)">
       <use xlink:href="#WenQuanYiMicroHei-2212"/>
       <use x="55.078125" xlink:href="#WenQuanYiMicroHei-31"/>
       <use x="110.15625" xlink:href="#WenQuanYiMicroHei-30"/>
       <use x="165.234375" xlink:href="#WenQuanYiMicroHei-30"/>
      </g>
     </g>
    </g>
    <g id="ytick_14">
     <g id="line2d_63">
      <g>
       <use style="stroke:#000000;stroke-width:0.5;" x="32.255636875" xlink:href="#m728421d6d4" y="160.313066652"/>
      </g>
     </g>
     <g id="line2d_64">
      <g>
       <use style="stroke:#000000;stroke-width:0.5;" x="478.655636875" xlink:href="#mcb0005524f" y="160.313066652"/>
      </g>
     </g>
     <g id="text_33">
      <!-- −50 -->
      <g transform="translate(12.705609375 162.909683839)scale(0.09996 -0.09996)">
       <use xlink:href="#WenQuanYiMicroHei-2212"/>
       <use x="55.078125" xlink:href="#WenQuanYiMicroHei-35"/>
       <use x="110.15625" xlink:href="#WenQuanYiMicroHei-30"/>
      </g>
     </g>
    </g>
    <g id="ytick_15">
     <g id="line2d_65">
      <g>
       <use style="stroke:#000000;stroke-width:0.5;" x="32.255636875" xlink:href="#m728421d6d4" y="146.598780937"/>
      </g>
     </g>
     <g id="line2d_66">
      <g>
       <use style="stroke:#000000;stroke-width:0.5;" x="478.655636875" xlink:href="#mcb0005524f" y="146.598780937"/>
      </g>
     </g>
     <g id="text_34">
      <!-- 0 -->
      <g transform="translate(23.69652375 149.195398125)scale(0.09996 -0.09996)">
       <use xlink:href="#WenQuanYiMicroHei-30"/>
      </g>
     </g>
    </g>
   </g>
   <g id="patch_8">
    <path d="
M32.2556 146.599
L478.656 146.599" style="fill:none;stroke:#000000;"/>
   </g>
   <g id="patch_9">
    <path d="
M478.656 242.599
L478.656 146.599" style="fill:none;stroke:#000000;"/>
   </g>
   <g id="patch_10">
    <path d="
M32.2556 242.599
L478.656 242.599" style="fill:none;stroke:#000000;"/>
   </g>
   <g id="patch_11">
    <path d="
M32.2556 242.599
L32.2556 146.599" style="fill:none;stroke:#000000;"/>
   </g>
  </g>
 </g>
 <defs>
  <clipPath id="p8c06e6d92c">
   <rect height="96.0" width="446.4" x="32.255636875" y="12.1987809375"/>
  </clipPath>
  <clipPath id="pbcea6fd158">
   <rect height="96.0" width="446.4" x="32.255636875" y="146.598780937"/>
  </clipPath>
 </defs>
</svg>
