<?xml version="1.0" encoding="UTF-8" standalone="no"?>
<!DOCTYPE svg PUBLIC "-//W3C//DTD SVG 1.1//EN"
 "http://www.w3.org/Graphics/SVG/1.1/DTD/svg11.dtd">
<!-- Generated by graphviz version 2.38.0 (20140413.2041)
 -->
<!-- Title: structs Pages: 1 -->
<svg width="990pt" height="187pt"
 viewBox="0.00 0.00 990.00 187.00" xmlns="http://www.w3.org/2000/svg" xmlns:xlink="http://www.w3.org/1999/xlink">
<g id="graph0" class="graph" transform="scale(1 1) rotate(0) translate(4 183)">
<title>structs</title>
<polygon fill="white" stroke="none" points="-4,4 -4,-183 986,-183 986,4 -4,4"/>
<!-- obj_91001360 -->
<g id="node1" class="node"><title>obj_91001360</title>
<polygon fill="white" stroke="black" points="0,-36.5 0,-72.5 123,-72.5 123,-36.5 0,-36.5"/>
<text text-anchor="middle" x="61.5" y="-50.8" font-family="Times New Roman,serif" font-size="14.00">BboxTransformTo</text>
</g>
<!-- obj_52416048 -->
<g id="node2" class="node"><title>obj_52416048</title>
<polygon fill="white" stroke="black" points="193,-77.5 193,-113.5 313,-113.5 313,-77.5 193,-77.5"/>
<text text-anchor="middle" x="253" y="-91.8" font-family="Times New Roman,serif" font-size="14.00">TransformedBbox</text>
</g>
<!-- obj_91001360&#45;&gt;obj_52416048 -->
<g id="edge12" class="edge"><title>obj_91001360&#45;&gt;obj_52416048</title>
<path fill="none" stroke="black" stroke-width="0.5" d="M123.241,-67.6418C142.319,-71.7695 163.518,-76.3561 183.117,-80.5966"/>
<polygon fill="black" stroke="black" stroke-width="0.5" points="182.382,-84.0185 192.896,-82.7124 183.863,-77.1768 182.382,-84.0185"/>
<text text-anchor="middle" x="158" y="-82.5" font-family="Times New Roman,serif" font-size="10.00">_boxout</text>
</g>
<!-- obj_86691216 -->
<g id="node14" class="node"><title>obj_86691216</title>
<polygon fill="white" stroke="black" points="216,-0.5 216,-58.5 290,-58.5 290,-0.5 216,-0.5"/>
<text text-anchor="start" x="228" y="-43.3" font-family="Times New Roman,serif" font-size="9.00">496</text>
<text text-anchor="start" x="252.5" y="-43.3" font-family="Times New Roman,serif" font-size="9.00">0</text>
<text text-anchor="start" x="268" y="-43.3" font-family="Times New Roman,serif" font-size="9.00">80</text>
<text text-anchor="start" x="232.5" y="-27.3" font-family="Times New Roman,serif" font-size="9.00">0</text>
<text text-anchor="start" x="248" y="-27.3" font-family="Times New Roman,serif" font-size="9.00">256</text>
<text text-anchor="start" x="268" y="-27.3" font-family="Times New Roman,serif" font-size="9.00">32</text>
<text text-anchor="start" x="232.5" y="-11.3" font-family="Times New Roman,serif" font-size="9.00">0</text>
<text text-anchor="start" x="252.5" y="-11.3" font-family="Times New Roman,serif" font-size="9.00">0</text>
<text text-anchor="start" x="270.5" y="-11.3" font-family="Times New Roman,serif" font-size="9.00">1</text>
</g>
<!-- obj_91001360&#45;&gt;obj_86691216 -->
<g id="edge13" class="edge"><title>obj_91001360&#45;&gt;obj_86691216</title>
<path fill="none" stroke="black" stroke-width="0.5" d="M123.241,-46.4867C149.954,-42.9626 180.824,-38.8899 205.641,-35.616"/>
<polygon fill="black" stroke="black" stroke-width="0.5" points="206.42,-39.0436 215.876,-34.2656 205.504,-32.1037 206.42,-39.0436"/>
<text text-anchor="middle" x="158" y="-46.5" font-family="Times New Roman,serif" font-size="10.00">_mtx</text>
</g>
<!-- obj_90247088 -->
<g id="node3" class="node"><title>obj_90247088</title>
<polygon fill="white" stroke="black" points="427.5,-134.5 427.5,-170.5 481.5,-170.5 481.5,-134.5 427.5,-134.5"/>
<text text-anchor="middle" x="454.5" y="-148.8" font-family="Times New Roman,serif" font-size="14.00">Bbox</text>
</g>
<!-- obj_52416048&#45;&gt;obj_90247088 -->
<g id="edge2" class="edge"><title>obj_52416048&#45;&gt;obj_90247088</title>
<path fill="none" stroke="black" stroke-width="0.5" d="M313.047,-112.371C346.964,-122.061 388.46,-133.917 417.52,-142.22"/>
<polygon fill="black" stroke="black" stroke-width="0.5" points="416.671,-145.618 427.248,-144.999 418.595,-138.887 416.671,-145.618"/>
<text text-anchor="middle" x="353" y="-131.5" font-family="Times New Roman,serif" font-size="10.00">_bbox</text>
</g>
<!-- obj_90246224 -->
<g id="node5" class="node"><title>obj_90246224</title>
<polygon fill="white" stroke="black" points="393,-77.5 393,-113.5 516,-113.5 516,-77.5 393,-77.5"/>
<text text-anchor="middle" x="454.5" y="-91.8" font-family="Times New Roman,serif" font-size="14.00">BboxTransformTo</text>
</g>
<!-- obj_52416048&#45;&gt;obj_90246224 -->
<g id="edge10" class="edge"><title>obj_52416048&#45;&gt;obj_90246224</title>
<path fill="none" stroke="black" stroke-width="0.5" d="M313.047,-95.5C334.868,-95.5 359.825,-95.5 382.59,-95.5"/>
<polygon fill="black" stroke="black" stroke-width="0.5" points="382.876,-99.0001 392.876,-95.5 382.876,-92.0001 382.876,-99.0001"/>
<text text-anchor="middle" x="353" y="-98.5" font-family="Times New Roman,serif" font-size="10.00">_transform</text>
</g>
<!-- obj_86690616 -->
<g id="node13" class="node"><title>obj_86690616</title>
<polygon fill="white" stroke="black" points="425.5,-16.5 425.5,-58.5 483.5,-58.5 483.5,-16.5 425.5,-16.5"/>
<text text-anchor="start" x="439.5" y="-43.3" font-family="Times New Roman,serif" font-size="9.00">80</text>
<text text-anchor="start" x="459.5" y="-43.3" font-family="Times New Roman,serif" font-size="9.00">32</text>
<text text-anchor="start" x="437.5" y="-27.3" font-family="Times New Roman,serif" font-size="9.00">576</text>
<text text-anchor="start" x="457.5" y="-27.3" font-family="Times New Roman,serif" font-size="9.00">288</text>
</g>
<!-- obj_52416048&#45;&gt;obj_86690616 -->
<g id="edge11" class="edge"><title>obj_52416048&#45;&gt;obj_86690616</title>
<path fill="none" stroke="black" stroke-width="0.5" d="M313.047,-78.3335C346.245,-68.682 386.703,-56.9198 415.655,-48.5027"/>
<polygon fill="black" stroke="black" stroke-width="0.5" points="416.759,-51.8265 425.385,-45.6739 414.805,-45.1048 416.759,-51.8265"/>
<text text-anchor="middle" x="353" y="-75.5" font-family="Times New Roman,serif" font-size="10.00">_points</text>
</g>
<!-- obj_90205144 -->
<g id="node4" class="node"><title>obj_90205144</title>
<polygon fill="white" stroke="black" points="614.5,-132.5 614.5,-174.5 677.5,-174.5 677.5,-132.5 614.5,-132.5"/>
<text text-anchor="start" x="627" y="-159.3" font-family="Times New Roman,serif" font-size="9.00">0.125</text>
<text text-anchor="start" x="654" y="-159.3" font-family="Times New Roman,serif" font-size="9.00">0.1</text>
<text text-anchor="start" x="631.5" y="-143.3" font-family="Times New Roman,serif" font-size="9.00">0.9</text>
<text text-anchor="start" x="654" y="-143.3" font-family="Times New Roman,serif" font-size="9.00">0.9</text>
</g>
<!-- obj_90247088&#45;&gt;obj_90205144 -->
<g id="edge1" class="edge"><title>obj_90247088&#45;&gt;obj_90205144</title>
<path fill="none" stroke="black" stroke-width="0.5" d="M481.849,-152.639C513.505,-152.806 566.972,-153.088 604.03,-153.284"/>
<polygon fill="black" stroke="black" stroke-width="0.5" points="604.469,-156.786 614.488,-153.339 604.506,-149.786 604.469,-156.786"/>
<text text-anchor="middle" x="551" y="-155.5" font-family="Times New Roman,serif" font-size="10.00">_points</text>
</g>
<!-- obj_90246192 -->
<g id="node6" class="node"><title>obj_90246192</title>
<polygon fill="white" stroke="black" points="586,-77.5 586,-113.5 706,-113.5 706,-77.5 586,-77.5"/>
<text text-anchor="middle" x="646" y="-91.8" font-family="Times New Roman,serif" font-size="14.00">TransformedBbox</text>
</g>
<!-- obj_90246224&#45;&gt;obj_90246192 -->
<g id="edge8" class="edge"><title>obj_90246224&#45;&gt;obj_90246192</title>
<path fill="none" stroke="black" stroke-width="0.5" d="M516.241,-95.5C535.232,-95.5 556.324,-95.5 575.849,-95.5"/>
<polygon fill="black" stroke="black" stroke-width="0.5" points="575.897,-99.0001 585.896,-95.5 575.896,-92.0001 575.897,-99.0001"/>
<text text-anchor="middle" x="551" y="-98.5" font-family="Times New Roman,serif" font-size="10.00">_boxout</text>
</g>
<!-- obj_86690456 -->
<g id="node12" class="node"><title>obj_86690456</title>
<polygon fill="white" stroke="black" points="611.5,-0.5 611.5,-58.5 680.5,-58.5 680.5,-0.5 611.5,-0.5"/>
<text text-anchor="start" x="624" y="-43.3" font-family="Times New Roman,serif" font-size="9.00">640</text>
<text text-anchor="start" x="648.5" y="-43.3" font-family="Times New Roman,serif" font-size="9.00">0</text>
<text text-anchor="start" x="664" y="-43.3" font-family="Times New Roman,serif" font-size="9.00">0</text>
<text text-anchor="start" x="628.5" y="-27.3" font-family="Times New Roman,serif" font-size="9.00">0</text>
<text text-anchor="start" x="644" y="-27.3" font-family="Times New Roman,serif" font-size="9.00">320</text>
<text text-anchor="start" x="664" y="-27.3" font-family="Times New Roman,serif" font-size="9.00">0</text>
<text text-anchor="start" x="628.5" y="-11.3" font-family="Times New Roman,serif" font-size="9.00">0</text>
<text text-anchor="start" x="648.5" y="-11.3" font-family="Times New Roman,serif" font-size="9.00">0</text>
<text text-anchor="start" x="664" y="-11.3" font-family="Times New Roman,serif" font-size="9.00">1</text>
</g>
<!-- obj_90246224&#45;&gt;obj_86690456 -->
<g id="edge9" class="edge"><title>obj_90246224&#45;&gt;obj_86690456</title>
<path fill="none" stroke="black" stroke-width="0.5" d="M507.282,-77.4652C536.984,-67.1204 573.833,-54.2863 601.939,-44.4976"/>
<polygon fill="black" stroke="black" stroke-width="0.5" points="603.197,-47.7656 611.489,-41.1712 600.895,-41.1551 603.197,-47.7656"/>
<text text-anchor="middle" x="551" y="-69.5" font-family="Times New Roman,serif" font-size="10.00">_mtx</text>
</g>
<!-- obj_90246160 -->
<g id="node7" class="node"><title>obj_90246160</title>
<polygon fill="white" stroke="black" points="793,-136.5 793,-172.5 847,-172.5 847,-136.5 793,-136.5"/>
<text text-anchor="middle" x="820" y="-150.8" font-family="Times New Roman,serif" font-size="14.00">Bbox</text>
</g>
<!-- obj_90246192&#45;&gt;obj_90246160 -->
<g id="edge4" class="edge"><title>obj_90246192&#45;&gt;obj_90246160</title>
<path fill="none" stroke="black" stroke-width="0.5" d="M699.54,-113.523C726.631,-122.815 758.97,-133.908 783.165,-142.208"/>
<polygon fill="black" stroke="black" stroke-width="0.5" points="782.072,-145.533 792.666,-145.467 784.343,-138.912 782.072,-145.533"/>
<text text-anchor="middle" x="746" y="-137.5" font-family="Times New Roman,serif" font-size="10.00">_bbox</text>
</g>
<!-- obj_90246128 -->
<g id="node9" class="node"><title>obj_90246128</title>
<polygon fill="white" stroke="black" points="786,-77.5 786,-113.5 854,-113.5 854,-77.5 786,-77.5"/>
<text text-anchor="middle" x="820" y="-91.8" font-family="Times New Roman,serif" font-size="14.00">Affine2D</text>
</g>
<!-- obj_90246192&#45;&gt;obj_90246128 -->
<g id="edge6" class="edge"><title>obj_90246192&#45;&gt;obj_90246128</title>
<path fill="none" stroke="black" stroke-width="0.5" d="M706.193,-95.5C728.97,-95.5 754.535,-95.5 775.562,-95.5"/>
<polygon fill="black" stroke="black" stroke-width="0.5" points="775.795,-99.0001 785.795,-95.5 775.795,-92.0001 775.795,-99.0001"/>
<text text-anchor="middle" x="746" y="-98.5" font-family="Times New Roman,serif" font-size="10.00">_transform</text>
</g>
<!-- obj_86690416 -->
<g id="node11" class="node"><title>obj_86690416</title>
<polygon fill="white" stroke="black" points="791,-16.5 791,-58.5 849,-58.5 849,-16.5 791,-16.5"/>
<text text-anchor="start" x="807.5" y="-43.3" font-family="Times New Roman,serif" font-size="9.00">0</text>
<text text-anchor="start" x="827.5" y="-43.3" font-family="Times New Roman,serif" font-size="9.00">0</text>
<text text-anchor="start" x="803" y="-27.3" font-family="Times New Roman,serif" font-size="9.00">640</text>
<text text-anchor="start" x="823" y="-27.3" font-family="Times New Roman,serif" font-size="9.00">320</text>
</g>
<!-- obj_90246192&#45;&gt;obj_86690416 -->
<g id="edge7" class="edge"><title>obj_90246192&#45;&gt;obj_86690416</title>
<path fill="none" stroke="black" stroke-width="0.5" d="M700.479,-77.4664C726.538,-68.679 757.269,-58.3162 780.908,-50.3449"/>
<polygon fill="black" stroke="black" stroke-width="0.5" points="782.213,-53.5986 790.571,-47.0867 779.976,-46.9655 782.213,-53.5986"/>
<text text-anchor="middle" x="746" y="-71.5" font-family="Times New Roman,serif" font-size="10.00">_points</text>
</g>
<!-- obj_90203904 -->
<g id="node8" class="node"><title>obj_90203904</title>
<polygon fill="white" stroke="black" points="924.5,-136.5 924.5,-178.5 978.5,-178.5 978.5,-136.5 924.5,-136.5"/>
<text text-anchor="start" x="943.5" y="-163.3" font-family="Times New Roman,serif" font-size="9.00">0</text>
<text text-anchor="start" x="954.5" y="-163.3" font-family="Times New Roman,serif" font-size="9.00">0</text>
<text text-anchor="start" x="943.5" y="-147.3" font-family="Times New Roman,serif" font-size="9.00">8</text>
<text text-anchor="start" x="954.5" y="-147.3" font-family="Times New Roman,serif" font-size="9.00">4</text>
</g>
<!-- obj_90246160&#45;&gt;obj_90203904 -->
<g id="edge3" class="edge"><title>obj_90246160&#45;&gt;obj_90203904</title>
<path fill="none" stroke="black" stroke-width="0.5" d="M847.206,-155.107C866.514,-155.554 893.012,-156.168 914.335,-156.662"/>
<polygon fill="black" stroke="black" stroke-width="0.5" points="914.254,-160.161 924.333,-156.894 914.416,-153.163 914.254,-160.161"/>
<text text-anchor="middle" x="887.5" y="-158.5" font-family="Times New Roman,serif" font-size="10.00">_points</text>
</g>
<!-- obj_91696208 -->
<g id="node10" class="node"><title>obj_91696208</title>
<polygon fill="white" stroke="black" points="921,-59.5 921,-117.5 982,-117.5 982,-59.5 921,-59.5"/>
<text text-anchor="start" x="933.5" y="-102.3" font-family="Times New Roman,serif" font-size="9.00">80</text>
<text text-anchor="start" x="952" y="-102.3" font-family="Times New Roman,serif" font-size="9.00">0</text>
<text text-anchor="start" x="965.5" y="-102.3" font-family="Times New Roman,serif" font-size="9.00">0</text>
<text text-anchor="start" x="936" y="-86.3" font-family="Times New Roman,serif" font-size="9.00">0</text>
<text text-anchor="start" x="949.5" y="-86.3" font-family="Times New Roman,serif" font-size="9.00">80</text>
<text text-anchor="start" x="965.5" y="-86.3" font-family="Times New Roman,serif" font-size="9.00">0</text>
<text text-anchor="start" x="936" y="-70.3" font-family="Times New Roman,serif" font-size="9.00">0</text>
<text text-anchor="start" x="952" y="-70.3" font-family="Times New Roman,serif" font-size="9.00">0</text>
<text text-anchor="start" x="965.5" y="-70.3" font-family="Times New Roman,serif" font-size="9.00">1</text>
</g>
<!-- obj_90246128&#45;&gt;obj_91696208 -->
<g id="edge5" class="edge"><title>obj_90246128&#45;&gt;obj_91696208</title>
<path fill="none" stroke="black" stroke-width="0.5" d="M854.013,-93.7155C871.258,-92.7834 892.492,-91.6356 910.646,-90.6543"/>
<polygon fill="black" stroke="black" stroke-width="0.5" points="910.85,-94.1484 920.647,-90.1137 910.472,-87.1586 910.85,-94.1484"/>
<text text-anchor="middle" x="887.5" y="-96.5" font-family="Times New Roman,serif" font-size="10.00">_mtx</text>
</g>
</g>
</svg>
