<?xml version="1.0" encoding="utf-8" standalone="no"?>
<!DOCTYPE svg PUBLIC "-//W3C//DTD SVG 1.1//EN"
  "http://www.w3.org/Graphics/SVG/1.1/DTD/svg11.dtd">
<!-- Created with matplotlib (http://matplotlib.org/) -->
<svg height="263pt" version="1.1" viewBox="0 0 476 263" width="476pt" xmlns="http://www.w3.org/2000/svg" xmlns:xlink="http://www.w3.org/1999/xlink">
 <defs>
  <style type="text/css">
*{stroke-linecap:butt;stroke-linejoin:round;}
  </style>
 </defs>
 <g id="figure_1">
  <g id="patch_1">
   <path d="
M0 263.796
L476.983 263.796
L476.983 -5.68434e-14
L0 -5.68434e-14
z
" style="fill:#ffffff;"/>
  </g>
  <g id="axes_1">
   <g id="patch_2">
    <path d="
M21.1273 242.599
L467.527 242.599
L467.527 12.1988
L21.1273 12.1988
z
" style="fill:#ffffff;"/>
   </g>
   <g id="PolyCollection_1">
    <defs>
     <path d="
M233.055 -93.4125
L233.055 -93.9082
L237.564 -95.1051
L242.073 -96.302
L246.582 -97.4989
L251.091 -98.6957
L255.6 -99.8926
L260.109 -101.09
L264.618 -102.286
L269.127 -103.483
L273.636 -104.68
L278.145 -105.877
L282.655 -107.074
L287.164 -108.271
L291.673 -109.468
L296.182 -110.665
L300.691 -111.861
L305.2 -113.058
L309.709 -114.255
L314.218 -115.452
L318.727 -116.649
L323.236 -117.846
L327.745 -119.043
L332.255 -120.24
L336.764 -121.437
L341.273 -122.633
L345.782 -123.83
L350.291 -125.027
L350.291 -125.003
L350.291 -125.003
L345.782 -122.579
L341.273 -120.252
L336.764 -118.021
L332.255 -115.887
L327.745 -113.85
L323.236 -111.91
L318.727 -110.066
L314.218 -108.319
L309.709 -106.669
L305.2 -105.115
L300.691 -103.659
L296.182 -102.298
L291.673 -101.035
L287.164 -99.8684
L282.655 -98.7985
L278.145 -97.8253
L273.636 -96.9488
L269.127 -96.169
L264.618 -95.4859
L260.109 -94.8996
L255.6 -94.4099
L251.091 -94.017
L246.582 -93.7208
L242.073 -93.5213
L237.564 -93.4186
L233.055 -93.4125
z
" id="m85a554ad68" style="stroke:#000000;stroke-opacity:0.5;"/>
    </defs>
    <g clip-path="url(#pf7696901cd)">
     <use style="fill:#008000;fill-opacity:0.5;stroke:#000000;stroke-opacity:0.5;" x="0.0" xlink:href="#m85a554ad68" y="263.796342812"/>
    </g>
   </g>
   <g id="PolyCollection_2">
    <defs>
     <path d="
M231.319 -251.598
L231.319 -21.1976
L350.373 -21.1976
L350.373 -251.598
L350.373 -251.598
L231.319 -251.598
z
" id="m5a069c9011" style="stroke:#000000;stroke-opacity:0.1;"/>
    </defs>
    <g clip-path="url(#pf7696901cd)">
     <use style="fill:#0000ff;fill-opacity:0.1;stroke:#000000;stroke-opacity:0.1;" x="0.0" xlink:href="#m5a069c9011" y="263.796342812"/>
    </g>
   </g>
   <g id="line2d_1">
    <path clip-path="url(#pf7696901cd)" d="
M21.1273 226.142
L25.6364 224.945
L30.1455 223.748
L34.6546 222.551
L39.1636 221.354
L43.6727 220.157
L48.1818 218.96
L52.6909 217.763
L57.2 216.567
L61.7091 215.37
L66.2182 214.173
L70.7273 212.976
L75.2364 211.779
L79.7455 210.582
L84.2546 209.385
L88.7636 208.188
L93.2727 206.992
L97.7818 205.795
L102.291 204.598
L106.8 203.401
L111.309 202.204
L115.818 201.007
L120.327 199.81
L124.836 198.613
L129.345 197.416
L133.855 196.22
L138.364 195.023
L142.873 193.826
L147.382 192.629
L151.891 191.432
L156.4 190.235
L160.909 189.038
L165.418 187.841
L169.927 186.644
L174.436 185.448
L178.945 184.251
L183.455 183.054
L187.964 181.857
L192.473 180.66
L196.982 179.463
L201.491 178.266
L206 177.069
L210.509 175.873
L215.018 174.676
L219.527 173.479
L224.036 172.282
L228.545 171.085
L233.055 169.888
L237.564 168.691
L242.073 167.494
L246.582 166.297
L251.091 165.101
L255.6 163.904
L260.109 162.707
L264.618 161.51
L269.127 160.313
L273.636 159.116
L278.145 157.919
L282.655 156.722
L287.164 155.526
L291.673 154.329
L296.182 153.132
L300.691 151.935
L305.2 150.738
L309.709 149.541
L314.218 148.344
L318.727 147.147
L323.236 145.95
L327.745 144.754
L332.255 143.557
L336.764 142.36
L341.273 141.163
L345.782 139.966
L350.291 138.769
L354.8 137.572
L359.309 136.375
L363.818 135.179
L368.327 133.982
L372.836 132.785
L377.345 131.588
L381.855 130.391
L386.364 129.194
L390.873 127.997
L395.382 126.8
L399.891 125.603
L404.4 124.407
L408.909 123.21
L413.418 122.013
L417.927 120.816
L422.436 119.619
L426.945 118.422
L431.455 117.225
L435.964 116.028
L440.473 114.832
L444.982 113.635
L449.491 112.438
L454 111.241
L458.509 110.044
L463.018 108.847
L467.527 107.65" style="fill:none;stroke:#348abd;stroke-linecap:square;stroke-width:2.0;"/>
   </g>
   <g id="line2d_2">
    <path clip-path="url(#pf7696901cd)" d="
M21.1273 61.5702
L25.6364 66.1099
L30.1455 70.5529
L34.6546 74.8991
L39.1636 79.1487
L43.6727 83.3015
L48.1818 87.3576
L52.6909 91.317
L57.2 95.1797
L61.7091 98.9456
L66.2182 102.615
L70.7273 106.187
L75.2364 109.663
L79.7455 113.042
L84.2546 116.325
L88.7636 119.51
L93.2727 122.599
L97.7818 125.591
L102.291 128.487
L106.8 131.286
L111.309 133.988
L115.818 136.593
L120.327 139.102
L124.836 141.514
L129.345 143.829
L133.855 146.047
L138.364 148.169
L142.873 150.194
L147.382 152.122
L151.891 153.954
L156.4 155.689
L160.909 157.327
L165.418 158.868
L169.927 160.313
L174.436 161.661
L178.945 162.912
L183.455 164.067
L187.964 165.125
L192.473 166.086
L196.982 166.95
L201.491 167.718
L206 168.389
L210.509 168.963
L215.018 169.441
L219.527 169.822
L224.036 170.106
L228.545 170.293
L233.055 170.384
L237.564 170.378
L242.073 170.275
L246.582 170.076
L251.091 169.779
L255.6 169.386
L260.109 168.897
L264.618 168.31
L269.127 167.627
L273.636 166.848
L278.145 165.971
L282.655 164.998
L287.164 163.928
L291.673 162.761
L296.182 161.498
L300.691 160.138
L305.2 158.681
L309.709 157.127
L314.218 155.477
L318.727 153.73
L323.236 151.887
L327.745 149.946
L332.255 147.909
L336.764 145.775
L341.273 143.545
L345.782 141.217
L350.291 138.793
L354.8 136.273
L359.309 133.655
L363.818 130.941
L368.327 128.13
L372.836 125.223
L377.345 122.218
L381.855 119.117
L386.364 115.92
L390.873 112.625
L395.382 109.234
L399.891 105.746
L404.4 102.161
L408.909 98.4802
L413.418 94.7021
L417.927 90.8274
L422.436 86.8559
L426.945 82.7877
L431.455 78.6228
L435.964 74.3611
L440.473 70.0028
L444.982 65.5477
L449.491 60.9959
L454 56.3474
L458.509 51.6022
L463.018 46.7603
L467.527 41.8216" style="fill:none;stroke:#a60628;stroke-linecap:square;stroke-width:2.0;"/>
   </g>
   <g id="line2d_3">
    <defs>
     <path d="
M0 3
C0.795609 3 1.55874 2.6839 2.12132 2.12132
C2.6839 1.55874 3 0.795609 3 0
C3 -0.795609 2.6839 -1.55874 2.12132 -2.12132
C1.55874 -2.6839 0.795609 -3 0 -3
C-0.795609 -3 -1.55874 -2.6839 -2.12132 -2.12132
C-2.6839 -1.55874 -3 -0.795609 -3 0
C-3 0.795609 -2.6839 1.55874 -2.12132 2.12132
C-1.55874 2.6839 -0.795609 3 0 3
z
" id="me26ab07df5" style="stroke:#000000;stroke-width:0.5;"/>
    </defs>
    <g clip-path="url(#pf7696901cd)">
     <use style="fill:#7a68a6;stroke:#000000;stroke-width:0.5;" x="231.318656074" xlink:href="#me26ab07df5" y="170.348903491"/>
    </g>
   </g>
   <g id="line2d_4">
    <defs>
     <path d="
M0 3
C0.795609 3 1.55874 2.6839 2.12132 2.12132
C2.6839 1.55874 3 0.795609 3 0
C3 -0.795609 2.6839 -1.55874 2.12132 -2.12132
C1.55874 -2.6839 0.795609 -3 0 -3
C-0.795609 -3 -1.55874 -2.6839 -2.12132 -2.12132
C-2.6839 -1.55874 -3 -0.795609 -3 0
C-3 0.795609 -2.6839 1.55874 -2.12132 2.12132
C-1.55874 2.6839 -0.795609 3 0 3
z
" id="m6501654331" style="stroke:#000000;stroke-width:0.5;"/>
    </defs>
    <g clip-path="url(#pf7696901cd)">
     <use style="fill:#467821;stroke:#000000;stroke-width:0.5;" x="350.373271688" xlink:href="#m6501654331" y="138.747309669"/>
    </g>
   </g>
   <g id="patch_3">
    <path d="
M21.1273 12.1988
L467.527 12.1988" style="fill:none;stroke:#000000;stroke-linecap:square;stroke-linejoin:miter;"/>
   </g>
   <g id="patch_4">
    <path d="
M467.527 242.599
L467.527 12.1988" style="fill:none;stroke:#000000;stroke-linecap:square;stroke-linejoin:miter;"/>
   </g>
   <g id="patch_5">
    <path d="
M21.1273 242.599
L467.527 242.599" style="fill:none;stroke:#000000;stroke-linecap:square;stroke-linejoin:miter;"/>
   </g>
   <g id="patch_6">
    <path d="
M21.1273 242.599
L21.1273 12.1988" style="fill:none;stroke:#000000;stroke-linecap:square;stroke-linejoin:miter;"/>
   </g>
   <g id="matplotlib.axis_1">
    <g id="xtick_1">
     <g id="line2d_5">
      <defs>
       <path d="
M0 0
L0 -4" id="m93b0483c22" style="stroke:#000000;stroke-width:0.5;"/>
      </defs>
      <g>
       <use style="stroke:#000000;stroke-width:0.5;" x="21.1272775" xlink:href="#m93b0483c22" y="242.598780937"/>
      </g>
     </g>
     <g id="line2d_6">
      <defs>
       <path d="
M0 0
L0 4" id="m741efc42ff" style="stroke:#000000;stroke-width:0.5;"/>
      </defs>
      <g>
       <use style="stroke:#000000;stroke-width:0.5;" x="21.1272775" xlink:href="#m741efc42ff" y="12.1987809375"/>
      </g>
     </g>
     <g id="text_1">
      <!-- −3 -->
      <defs>
       <path d="
M46.9219 54.6875
Q46.9219 51.125 45.7969 48.1875
Q44.6719 45.2656 42.6406 43.1094
Q40.625 40.9688 37.7969 39.5781
Q34.9688 38.1875 31.5 37.5938
L31.5 37.3125
Q40.1406 36.2344 44.625 31.8125
Q49.125 27.3906 49.125 20.3125
Q49.125 15.625 47.5312 11.7188
Q45.9531 7.8125 42.7188 4.98438
Q39.5 2.15625 34.5625 0.578125
Q29.6406 -0.984375 22.9062 -0.984375
Q17.5781 -0.984375 12.8594 -0.140625
Q8.15625 0.6875 4 2.875
L4 11.1875
Q8.25 8.9375 13.2031 7.71875
Q18.1719 6.5 22.7031 6.5
Q27.2031 6.5 30.4688 7.46875
Q33.7344 8.45312 35.8594 10.25
Q37.9844 12.0625 38.9844 14.6875
Q39.9844 17.3281 39.9844 20.6094
Q39.9844 23.9219 38.6875 26.2812
Q37.4062 28.6562 35.0156 30.1875
Q32.625 31.7344 29.1719 32.4688
Q25.7344 33.2031 21.3906 33.2031
L14.8906 33.2031
L14.8906 40.5781
L21.3906 40.5781
Q25.3438 40.5781 28.4219 41.5469
Q31.5 42.5312 33.5625 44.3281
Q35.6406 46.1406 36.7188 48.625
Q37.7969 51.125 37.7969 54.1094
Q37.7969 56.6406 36.9062 58.6406
Q36.0312 60.6406 34.4219 62.0312
Q32.8125 63.4219 30.5625 64.1562
Q28.3281 64.8906 25.5938 64.8906
Q20.3594 64.8906 16.375 63.25
Q12.4062 61.625 8.79688 58.9844
L4.29688 65.0938
Q6.15625 66.6094 8.42188 67.9219
Q10.6875 69.2344 13.375 70.2344
Q16.0625 71.2344 19.1094 71.8125
Q22.1719 72.4062 25.5938 72.4062
Q30.8594 72.4062 34.8281 71.0938
Q38.8125 69.7812 41.5 67.4062
Q44.1875 65.0469 45.5469 61.7969
Q46.9219 58.5469 46.9219 54.6875" id="WenQuanYiMicroHei-33"/>
       <path d="
M4.98438 31.5938
L4.98438 38.9219
L50.0938 38.9219
L50.0938 31.5938
z
" id="WenQuanYiMicroHei-2212"/>
      </defs>
      <g transform="translate(16.168324375 254.194179062)scale(0.09996 -0.09996)">
       <use xlink:href="#WenQuanYiMicroHei-2212"/>
       <use x="55.078125" xlink:href="#WenQuanYiMicroHei-33"/>
      </g>
     </g>
    </g>
    <g id="xtick_2">
     <g id="line2d_7">
      <g>
       <use style="stroke:#000000;stroke-width:0.5;" x="95.5272775" xlink:href="#m93b0483c22" y="242.598780937"/>
      </g>
     </g>
     <g id="line2d_8">
      <g>
       <use style="stroke:#000000;stroke-width:0.5;" x="95.5272775" xlink:href="#m741efc42ff" y="12.1987809375"/>
      </g>
     </g>
     <g id="text_2">
      <!-- −2 -->
      <defs>
       <path d="
M49.2188 0
L4.6875 0
L4.6875 7.625
L21.7812 26.2188
Q25.4375 30.1719 28.3125 33.4375
Q31.2031 36.7188 33.2188 39.8438
Q35.25 42.9688 36.3281 46.1094
Q37.4062 49.2656 37.4062 52.9844
Q37.4062 55.8594 36.5781 58.0469
Q35.75 60.25 34.2031 61.7812
Q32.6719 63.3281 30.5625 64.1094
Q28.4688 64.8906 25.875 64.8906
Q21.2344 64.8906 17.5 63.0156
Q13.7656 61.1406 10.4062 58.2031
L5.42188 64.0156
Q7.375 65.7656 9.60938 67.2969
Q11.8594 68.8438 14.4531 69.9688
Q17.0469 71.0938 19.9219 71.75
Q22.7969 72.4062 25.9844 72.4062
Q30.6719 72.4062 34.4531 71.0938
Q38.2344 69.7812 40.8594 67.3125
Q43.5 64.8438 44.9375 61.2969
Q46.3906 57.7656 46.3906 53.3281
Q46.3906 49.1719 45.0938 45.4062
Q43.7969 41.6562 41.5312 38.0156
Q39.2656 34.375 36.1094 30.7031
Q32.9531 27.0469 29.2969 23.0938
L15.5781 8.5
L15.5781 8.10938
L49.2188 8.10938
z
" id="WenQuanYiMicroHei-32"/>
      </defs>
      <g transform="translate(90.56363875 254.194179062)scale(0.09996 -0.09996)">
       <use xlink:href="#WenQuanYiMicroHei-2212"/>
       <use x="55.078125" xlink:href="#WenQuanYiMicroHei-32"/>
      </g>
     </g>
    </g>
    <g id="xtick_3">
     <g id="line2d_9">
      <g>
       <use style="stroke:#000000;stroke-width:0.5;" x="169.9272775" xlink:href="#m93b0483c22" y="242.598780937"/>
      </g>
     </g>
     <g id="line2d_10">
      <g>
       <use style="stroke:#000000;stroke-width:0.5;" x="169.9272775" xlink:href="#m741efc42ff" y="12.1987809375"/>
      </g>
     </g>
     <g id="text_3">
      <!-- −1 -->
      <defs>
       <path d="
M34.7188 0
L26.125 0
L26.125 44.5781
Q26.125 46.6875 26.1406 49.0781
Q26.1719 51.4688 26.2344 53.8281
Q26.3125 56.2031 26.3906 58.375
Q26.4688 60.5469 26.5156 62.2031
Q25.6875 61.3281 25.0469 60.6875
Q24.4219 60.0625 23.75 59.4688
Q23.0938 58.8906 22.3594 58.2188
Q21.625 57.5625 20.6094 56.6875
L13.375 50.7812
L8.6875 56.7812
L27.3906 71.3906
L34.7188 71.3906
z
" id="WenQuanYiMicroHei-31"/>
      </defs>
      <g transform="translate(165.68834875 254.194179062)scale(0.09996 -0.09996)">
       <use xlink:href="#WenQuanYiMicroHei-2212"/>
       <use x="55.078125" xlink:href="#WenQuanYiMicroHei-31"/>
      </g>
     </g>
    </g>
    <g id="xtick_4">
     <g id="line2d_11">
      <g>
       <use style="stroke:#000000;stroke-width:0.5;" x="244.3272775" xlink:href="#m93b0483c22" y="242.598780937"/>
      </g>
     </g>
     <g id="line2d_12">
      <g>
       <use style="stroke:#000000;stroke-width:0.5;" x="244.3272775" xlink:href="#m741efc42ff" y="12.1987809375"/>
      </g>
     </g>
     <g id="text_4">
      <!-- 0 -->
      <defs>
       <path d="
M50.3906 35.7969
Q50.3906 27.1562 49.1406 20.3125
Q47.9062 13.4844 45.1406 8.73438
Q42.3906 4 38.0312 1.5
Q33.6875 -0.984375 27.4844 -0.984375
Q21.7344 -0.984375 17.4531 1.5
Q13.1875 4 10.375 8.73438
Q7.5625 13.4844 6.17188 20.3125
Q4.78125 27.1562 4.78125 35.7969
Q4.78125 44.4375 6.03125 51.2656
Q7.28125 58.1094 9.98438 62.8125
Q12.7031 67.5312 17.0156 70.0156
Q21.3438 72.5156 27.4844 72.5156
Q33.2969 72.5156 37.5938 70.0469
Q41.8906 67.5781 44.7188 62.8594
Q47.5625 58.1562 48.9688 51.3125
Q50.3906 44.4844 50.3906 35.7969
M13.8125 35.7969
Q13.8125 28.4688 14.5469 23
Q15.2812 17.5312 16.8906 13.8906
Q18.5 10.25 21.1094 8.42188
Q23.7344 6.59375 27.4844 6.59375
Q31.25 6.59375 33.8906 8.39062
Q36.5312 10.2031 38.2031 13.8125
Q39.8906 17.4375 40.6406 22.9219
Q41.4062 28.4219 41.4062 35.7969
Q41.4062 43.1094 40.6406 48.5781
Q39.8906 54.0469 38.2031 57.6562
Q36.5312 61.2812 33.8906 63.0781
Q31.25 64.8906 27.4844 64.8906
Q23.7344 64.8906 21.1094 63.0781
Q18.5 61.2812 16.8906 57.6562
Q15.2812 54.0469 14.5469 48.5781
Q13.8125 43.1094 13.8125 35.7969" id="WenQuanYiMicroHei-30"/>
      </defs>
      <g transform="translate(242.047720937 254.194179062)scale(0.09996 -0.09996)">
       <use xlink:href="#WenQuanYiMicroHei-30"/>
      </g>
     </g>
    </g>
    <g id="xtick_5">
     <g id="line2d_13">
      <g>
       <use style="stroke:#000000;stroke-width:0.5;" x="318.7272775" xlink:href="#m93b0483c22" y="242.598780937"/>
      </g>
     </g>
     <g id="line2d_14">
      <g>
       <use style="stroke:#000000;stroke-width:0.5;" x="318.7272775" xlink:href="#m741efc42ff" y="12.1987809375"/>
      </g>
     </g>
     <g id="text_5">
      <!-- 1 -->
      <g transform="translate(317.426235625 254.194179062)scale(0.09996 -0.09996)">
       <use xlink:href="#WenQuanYiMicroHei-31"/>
      </g>
     </g>
    </g>
    <g id="xtick_6">
     <g id="line2d_15">
      <g>
       <use style="stroke:#000000;stroke-width:0.5;" x="393.1272775" xlink:href="#m93b0483c22" y="242.598780937"/>
      </g>
     </g>
     <g id="line2d_16">
      <g>
       <use style="stroke:#000000;stroke-width:0.5;" x="393.1272775" xlink:href="#m741efc42ff" y="12.1987809375"/>
      </g>
     </g>
     <g id="text_6">
      <!-- 2 -->
      <g transform="translate(390.901605625 254.194179062)scale(0.09996 -0.09996)">
       <use xlink:href="#WenQuanYiMicroHei-32"/>
      </g>
     </g>
    </g>
    <g id="xtick_7">
     <g id="line2d_17">
      <g>
       <use style="stroke:#000000;stroke-width:0.5;" x="467.5272775" xlink:href="#m93b0483c22" y="242.598780937"/>
      </g>
     </g>
     <g id="line2d_18">
      <g>
       <use style="stroke:#000000;stroke-width:0.5;" x="467.5272775" xlink:href="#m741efc42ff" y="12.1987809375"/>
      </g>
     </g>
     <g id="text_7">
      <!-- 3 -->
      <g transform="translate(465.27193 254.194179062)scale(0.09996 -0.09996)">
       <use xlink:href="#WenQuanYiMicroHei-33"/>
      </g>
     </g>
    </g>
   </g>
   <g id="matplotlib.axis_2">
    <g id="ytick_1">
     <g id="line2d_19">
      <defs>
       <path d="
M0 0
L4 0" id="m728421d6d4" style="stroke:#000000;stroke-width:0.5;"/>
      </defs>
      <g>
       <use style="stroke:#000000;stroke-width:0.5;" x="21.1272775" xlink:href="#m728421d6d4" y="242.598780937"/>
      </g>
     </g>
     <g id="line2d_20">
      <defs>
       <path d="
M0 0
L-4 0" id="mcb0005524f" style="stroke:#000000;stroke-width:0.5;"/>
      </defs>
      <g>
       <use style="stroke:#000000;stroke-width:0.5;" x="467.5272775" xlink:href="#mcb0005524f" y="242.598780937"/>
      </g>
     </g>
     <g id="text_8">
      <!-- −2 -->
      <g transform="translate(7.2 245.195398125)scale(0.09996 -0.09996)">
       <use xlink:href="#WenQuanYiMicroHei-2212"/>
       <use x="55.078125" xlink:href="#WenQuanYiMicroHei-32"/>
      </g>
     </g>
    </g>
    <g id="ytick_2">
     <g id="line2d_21">
      <g>
       <use style="stroke:#000000;stroke-width:0.5;" x="21.1272775" xlink:href="#m728421d6d4" y="209.684495223"/>
      </g>
     </g>
     <g id="line2d_22">
      <g>
       <use style="stroke:#000000;stroke-width:0.5;" x="467.5272775" xlink:href="#mcb0005524f" y="209.684495223"/>
      </g>
     </g>
     <g id="text_9">
      <!-- −1 -->
      <g transform="translate(8.64942 212.281112411)scale(0.09996 -0.09996)">
       <use xlink:href="#WenQuanYiMicroHei-2212"/>
       <use x="55.078125" xlink:href="#WenQuanYiMicroHei-31"/>
      </g>
     </g>
    </g>
    <g id="ytick_3">
     <g id="line2d_23">
      <g>
       <use style="stroke:#000000;stroke-width:0.5;" x="21.1272775" xlink:href="#m728421d6d4" y="176.770209509"/>
      </g>
     </g>
     <g id="line2d_24">
      <g>
       <use style="stroke:#000000;stroke-width:0.5;" x="467.5272775" xlink:href="#mcb0005524f" y="176.770209509"/>
      </g>
     </g>
     <g id="text_10">
      <!-- 0 -->
      <g transform="translate(12.568164375 179.366826696)scale(0.09996 -0.09996)">
       <use xlink:href="#WenQuanYiMicroHei-30"/>
      </g>
     </g>
    </g>
    <g id="ytick_4">
     <g id="line2d_25">
      <g>
       <use style="stroke:#000000;stroke-width:0.5;" x="21.1272775" xlink:href="#m728421d6d4" y="143.855923795"/>
      </g>
     </g>
     <g id="line2d_26">
      <g>
       <use style="stroke:#000000;stroke-width:0.5;" x="467.5272775" xlink:href="#mcb0005524f" y="143.855923795"/>
      </g>
     </g>
     <g id="text_11">
      <!-- 1 -->
      <g transform="translate(14.52519375 146.452540982)scale(0.09996 -0.09996)">
       <use xlink:href="#WenQuanYiMicroHei-31"/>
      </g>
     </g>
    </g>
    <g id="ytick_5">
     <g id="line2d_27">
      <g>
       <use style="stroke:#000000;stroke-width:0.5;" x="21.1272775" xlink:href="#m728421d6d4" y="110.94163808"/>
      </g>
     </g>
     <g id="line2d_28">
      <g>
       <use style="stroke:#000000;stroke-width:0.5;" x="467.5272775" xlink:href="#mcb0005524f" y="110.94163808"/>
      </g>
     </g>
     <g id="text_12">
      <!-- 2 -->
      <g transform="translate(12.67593375 113.538255268)scale(0.09996 -0.09996)">
       <use xlink:href="#WenQuanYiMicroHei-32"/>
      </g>
     </g>
    </g>
    <g id="ytick_6">
     <g id="line2d_29">
      <g>
       <use style="stroke:#000000;stroke-width:0.5;" x="21.1272775" xlink:href="#m728421d6d4" y="78.0273523661"/>
      </g>
     </g>
     <g id="line2d_30">
      <g>
       <use style="stroke:#000000;stroke-width:0.5;" x="467.5272775" xlink:href="#mcb0005524f" y="78.0273523661"/>
      </g>
     </g>
     <g id="text_13">
      <!-- 3 -->
      <g transform="translate(12.6165825 80.6239695536)scale(0.09996 -0.09996)">
       <use xlink:href="#WenQuanYiMicroHei-33"/>
      </g>
     </g>
    </g>
    <g id="ytick_7">
     <g id="line2d_31">
      <g>
       <use style="stroke:#000000;stroke-width:0.5;" x="21.1272775" xlink:href="#m728421d6d4" y="45.1130666518"/>
      </g>
     </g>
     <g id="line2d_32">
      <g>
       <use style="stroke:#000000;stroke-width:0.5;" x="467.5272775" xlink:href="#mcb0005524f" y="45.1130666518"/>
      </g>
     </g>
     <g id="text_14">
      <!-- 4 -->
      <defs>
       <path d="
M53.0781 16.0156
L42.6719 16.0156
L42.6719 0
L34.0781 0
L34.0781 16.0156
L1.125 16.0156
L1.125 23.7812
L33.5 71.7812
L42.6719 71.7812
L42.6719 24.125
L53.0781 24.125
z

M34.0781 24.125
L34.0781 41.5
Q34.0781 44.2344 34.1562 47.2344
Q34.2344 50.25 34.3281 53.0938
Q34.4219 55.9531 34.5469 58.4375
Q34.6719 60.9375 34.7188 62.5938
L34.2812 62.5938
Q33.9375 61.625 33.4219 60.4219
Q32.9062 59.2344 32.2969 58.0312
Q31.6875 56.8438 31.0469 55.7188
Q30.4219 54.5938 29.8906 53.8125
L9.8125 24.125
z
" id="WenQuanYiMicroHei-34"/>
      </defs>
      <g transform="translate(11.934043125 47.7096838393)scale(0.09996 -0.09996)">
       <use xlink:href="#WenQuanYiMicroHei-34"/>
      </g>
     </g>
    </g>
    <g id="ytick_8">
     <g id="line2d_33">
      <g>
       <use style="stroke:#000000;stroke-width:0.5;" x="21.1272775" xlink:href="#m728421d6d4" y="12.1987809375"/>
      </g>
     </g>
     <g id="line2d_34">
      <g>
       <use style="stroke:#000000;stroke-width:0.5;" x="467.5272775" xlink:href="#mcb0005524f" y="12.1987809375"/>
      </g>
     </g>
     <g id="text_15">
      <!-- 5 -->
      <defs>
       <path d="
M26.6094 43.7969
Q31.4531 43.7969 35.625 42.4531
Q39.7969 41.1094 42.8906 38.4688
Q46 35.8438 47.75 31.9375
Q49.5156 28.0312 49.5156 22.9062
Q49.5156 17.3281 47.8438 12.8906
Q46.1875 8.45312 42.9219 5.375
Q39.6562 2.29688 34.8438 0.65625
Q30.0312 -0.984375 23.7812 -0.984375
Q21.2969 -0.984375 18.875 -0.734375
Q16.4531 -0.484375 14.2344 -0.015625
Q12.0156 0.4375 10.0156 1.17188
Q8.01562 1.90625 6.39062 2.875
L6.39062 11.2812
Q8.01562 10.1562 10.1875 9.28125
Q12.3594 8.40625 14.75 7.8125
Q17.1406 7.23438 19.5469 6.90625
Q21.9688 6.59375 24.0312 6.59375
Q27.875 6.59375 30.9062 7.5
Q33.9375 8.40625 36.0312 10.2969
Q38.1406 12.2031 39.25 15.0781
Q40.375 17.9688 40.375 21.9219
Q40.375 28.9062 36.0781 32.5938
Q31.7812 36.2812 23.5781 36.2812
Q22.2656 36.2812 20.7188 36.1562
Q19.1875 36.0312 17.6406 35.8281
Q16.1094 35.6406 14.7188 35.4219
Q13.3281 35.2031 12.3125 35.0156
L7.90625 37.7969
L10.5938 71.3906
L44.2812 71.3906
L44.2812 63.2812
L18.3125 63.2812
L16.4062 42.8281
Q17.9688 43.1094 20.5312 43.4531
Q23.0938 43.7969 26.6094 43.7969" id="WenQuanYiMicroHei-35"/>
      </defs>
      <g transform="translate(12.8165025 14.795398125)scale(0.09996 -0.09996)">
       <use xlink:href="#WenQuanYiMicroHei-35"/>
      </g>
     </g>
    </g>
   </g>
   <g id="text_16">
    <g id="patch_7">
     <path d="
M38.4473 46.7216
L226.197 46.7216
L226.197 18.7188
L38.4473 18.7188
z
" style="fill:#ff0000;opacity:0.4;stroke:#000000;stroke-linejoin:miter;"/>
    </g>
    <!-- 直线和二次曲线的交点 -->
    <defs>
     <path d="
M58.9844 80.4688
L66.7969 78.9062
Q64.8438 71.4844 61.7188 64.4531
L92.1875 64.4531
Q92.1875 12.8906 88.6719 0.78125
Q85.9375 -8.98438 75.7812 -8.98438
Q70.7031 -8.98438 63.6719 -7.42188
L61.7188 0.78125
Q71.4844 -0.78125 75.7812 -0.78125
Q80.4688 -0.78125 81.6406 4.6875
Q83.9844 15.2344 83.9844 57.0312
L57.8125 57.0312
Q53.125 48.8281 47.6562 43.3594
L41.7969 48.8281
Q53.5156 61.7188 58.9844 80.4688
M62.1094 41.7969
Q67.9688 33.2031 71.875 22.6562
L64.4531 19.1406
Q60.5469 30.0781 54.6875 38.6719
z

M40.2344 67.9688
L40.2344 -2.73438
L33.2031 -2.73438
L33.2031 0.390625
L15.2344 0.390625
L15.2344 -5.46875
L8.20312 -5.46875
L8.20312 67.9688
L16.7969 67.9688
Q18.75 74.2188 19.5312 80.8594
L27.7344 79.2969
Q26.1719 73.0469 24.2188 67.9688
z

M33.2031 37.8906
L33.2031 60.5469
L15.2344 60.5469
L15.2344 37.8906
z

M15.2344 30.4688
L15.2344 7.8125
L33.2031 7.8125
L33.2031 30.4688
z
" id="WenQuanYiMicroHei-7684"/>
     <path d="
M45.7031 81.25
L49.2188 74.2188
L32.8125 70.3125
L32.8125 53.9062
L49.6094 53.9062
L49.6094 46.4844
L32.8125 46.4844
L32.8125 43.75
Q42.9688 34.7656 50.3906 26.5625
L45.7031 19.5312
Q39.4531 27.7344 32.8125 34.375
L32.8125 -8.98438
L25 -8.98438
L25 32.0312
Q18.3594 18.3594 8.20312 7.42188
L3.51562 13.6719
Q17.5781 27.7344 24.2188 46.4844
L5.46875 46.4844
L5.46875 53.9062
L25 53.9062
L25 68.75
L7.03125 65.625
L4.29688 73.0469
Q26.9531 75.7812 45.7031 81.25
M91.4062 72.6562
L91.4062 -3.51562
L83.9844 -3.51562
L83.9844 3.125
L63.2812 3.125
L63.2812 -3.90625
L55.8594 -3.90625
L55.8594 72.6562
z

M63.2812 10.1562
L83.9844 10.1562
L83.9844 65.625
L63.2812 65.625
z
" id="WenQuanYiMicroHei-548c"/>
     <path d="
M7.03125 67.9688
L45.3125 67.9688
Q43.3594 73.8281 40.2344 78.5156
L48.4375 81.25
Q51.9531 75 54.2969 67.9688
L92.5781 67.9688
L92.5781 60.5469
L7.03125 60.5469
z

M31.6406 57.8125
L37.8906 52.7344
Q27.7344 40.2344 11.7188 32.4219
L7.03125 39.8438
Q20.7031 46.0938 31.6406 57.8125
M67.9688 57.0312
Q80.8594 49.2188 91.4062 39.0625
L85.5469 32.0312
Q74.6094 43.3594 62.5 51.5625
z

M66.7969 37.8906
L74.2188 34.7656
Q67.9688 22.6562 57.8125 13.6719
Q76.1719 3.125 95.7031 -1.17188
L91.0156 -9.375
Q66.0156 -1.95312 51.1719 8.20312
Q32.4219 -3.90625 8.59375 -9.76562
L4.6875 -1.95312
Q28.9062 3.125 43.75 13.2812
Q32.4219 21.875 23.8281 32.4219
L30.4688 37.5
Q38.6719 26.5625 50.3906 18.3594
Q60.1562 26.5625 66.7969 37.8906" id="WenQuanYiMicroHei-4ea4"/>
     <path d="
M14.0625 76.1719
Q23.4375 69.1406 31.25 59.375
L25.3906 52.3438
Q17.5781 62.8906 8.59375 70.3125
z

M25.3906 37.1094
L32.4219 32.4219
Q25.3906 12.5 13.2812 -6.25
L5.46875 -0.390625
Q17.9688 17.1875 25.3906 37.1094
M48.4375 81.6406
L55.8594 79.6875
Q54.2969 73.0469 51.9531 66.4062
L89.0625 66.4062
L89.0625 59.375
Q84.7656 50.3906 78.9062 41.4062
L72.2656 44.9219
Q76.9531 51.9531 80.0781 58.9844
L49.6094 58.9844
Q44.5312 46.875 37.8906 38.2812
L32.0312 44.5312
Q42.9688 60.1562 48.4375 81.6406
M57.4219 52.7344
L64.8438 51.5625
Q64.8438 43.75 63.6719 37.1094
Q68.75 22.6562 75.7812 13.6719
Q82.8125 4.6875 95.7031 -2.34375
L88.6719 -8.98438
Q69.1406 3.51562 60.9375 24.2188
Q55.0781 3.90625 32.0312 -8.98438
L26.1719 -2.73438
Q42.9688 6.64062 49.7969 18.3594
Q56.6406 30.0781 57.4219 52.7344" id="WenQuanYiMicroHei-6b21"/>
     <path d="
M82.8125 16.0156
Q89.8438 6.64062 94.5312 -4.29688
L87.1094 -8.59375
Q83.2031 2.34375 75.7812 11.7188
z

M16.7969 14.8438
L23.8281 10.9375
Q17.9688 -1.5625 12.1094 -8.59375
L5.46875 -2.73438
Q12.5 5.46875 16.7969 14.8438
M60.5469 13.6719
Q66.0156 5.85938 69.9219 -3.51562
L61.7188 -7.03125
Q58.2031 2.73438 53.125 10.5469
z

M38.6719 12.5
Q44.1406 3.51562 46.0938 -5.46875
L37.5 -8.20312
Q35.5469 1.95312 30.4688 10.5469
z

M44.1406 80.8594
L51.9531 80.8594
L51.9531 70.3125
L90.2344 70.3125
L90.2344 62.8906
L51.9531 62.8906
L51.9531 50
L84.375 50
L84.375 18.75
L15.2344 18.75
L15.2344 50
L44.1406 50
z

M23.0469 26.1719
L76.5625 26.1719
L76.5625 42.5781
L23.0469 42.5781
z
" id="WenQuanYiMicroHei-70b9"/>
     <path d="
M33.2031 65.2344
L40.2344 62.5
Q30.4688 41.7969 17.9688 27.7344
Q27.7344 30.0781 35.9375 32.8125
L37.8906 26.5625
Q24.6094 21.4844 8.20312 18.75
L5.85938 25.3906
Q14.4531 33.5938 22.2656 46.0938
Q15.625 44.5312 8.20312 43.75
L6.64062 51.1719
Q15.625 62.1094 21.4844 80.8594
L28.9062 78.5156
Q23.4375 62.1094 15.2344 51.5625
Q21.4844 51.9531 26.5625 52.7344
z

M37.8906 15.2344
L39.4531 8.20312
Q25.3906 3.125 8.20312 -0.78125
L5.07812 7.42188
Q23.4375 10.9375 37.8906 15.2344
M87.8906 63.6719
L88.6719 56.25
L66.0156 52.3438
L66.7969 39.8438
L92.9688 45.3125
L93.75 37.8906
L67.9688 32.4219
Q69.1406 25 71.875 17.5781
Q78.5156 23.8281 83.9844 32.0312
L91.0156 28.5156
Q83.9844 17.1875 75.3906 9.375
Q81.6406 -0.390625 85.1562 -0.390625
Q87.1094 -0.390625 87.8906 12.8906
L95.7031 9.375
Q93.75 -1.95312 91.2031 -5.65625
Q88.6719 -9.375 85.1562 -9.375
Q78.125 -9.375 69.5312 4.6875
Q58.9844 -2.34375 45.7031 -7.03125
L41.4062 0.78125
Q56.25 5.85938 65.625 12.5
Q62.1094 19.9219 60.1562 30.8594
L40.2344 26.5625
L39.0625 33.9844
L59.375 38.2812
Q58.5938 44.1406 58.2031 51.1719
L43.3594 48.8281
L42.1875 56.25
L57.8125 58.5938
Q57.4219 68.75 57.4219 80.8594
L65.2344 80.8594
Q65.2344 69.1406 65.625 60.1562
z

M76.1719 80.4688
Q80.0781 76.1719 84.375 70.3125
L78.5156 65.625
Q75 71.0938 69.9219 76.1719
z
" id="WenQuanYiMicroHei-7ebf"/>
     <path d="
M14.0625 69.5312
L85.5469 69.5312
L85.5469 62.1094
L14.0625 62.1094
z

M5.46875 7.42188
L94.1406 7.42188
L94.1406 0
L5.46875 0
z
" id="WenQuanYiMicroHei-4e8c"/>
     <path d="
M88.2812 64.4531
L88.2812 -9.375
L80.4688 -9.375
L80.4688 -3.51562
L19.1406 -3.51562
L19.1406 -9.375
L11.3281 -9.375
L11.3281 64.4531
L34.375 64.4531
L34.375 80.8594
L42.1875 80.8594
L42.1875 64.4531
L57.4219 64.4531
L57.4219 80.8594
L65.2344 80.8594
L65.2344 64.4531
z

M19.1406 33.9844
L34.375 33.9844
L34.375 57.0312
L19.1406 57.0312
z

M42.1875 57.0312
L42.1875 33.9844
L57.4219 33.9844
L57.4219 57.0312
z

M65.2344 57.0312
L65.2344 33.9844
L80.4688 33.9844
L80.4688 57.0312
z

M19.1406 3.90625
L34.375 3.90625
L34.375 26.5625
L19.1406 26.5625
z

M42.1875 3.90625
L57.4219 3.90625
L57.4219 26.5625
L42.1875 26.5625
z

M65.2344 3.90625
L80.4688 3.90625
L80.4688 26.5625
L65.2344 26.5625
z
" id="WenQuanYiMicroHei-66f2"/>
     <path d="
M47.6562 80.8594
L55.8594 80.8594
L54.6875 72.2656
L91.4062 72.2656
L91.4062 64.8438
L53.125 64.8438
L51.5625 55.4688
L78.9062 55.4688
L78.9062 1.17188
L93.3594 1.17188
L93.3594 -6.25
L7.03125 -6.25
L7.03125 1.17188
L20.7031 1.17188
L20.7031 55.4688
L43.3594 55.4688
L44.9219 64.8438
L8.59375 64.8438
L8.59375 72.2656
L46.4844 72.2656
z

M71.0938 41.0156
L71.0938 48.0469
L28.5156 48.0469
L28.5156 41.0156
z

M28.5156 28.125
L71.0938 28.125
L71.0938 34.7656
L28.5156 34.7656
z

M28.5156 14.8438
L71.0938 14.8438
L71.0938 21.875
L28.5156 21.875
z

M28.5156 1.17188
L71.0938 1.17188
L71.0938 8.59375
L28.5156 8.59375
z
" id="WenQuanYiMicroHei-76f4"/>
    </defs>
    <g transform="translate(43.4472775 37.3959684375)scale(0.18 -0.18)">
     <use xlink:href="#WenQuanYiMicroHei-76f4"/>
     <use x="100.0" xlink:href="#WenQuanYiMicroHei-7ebf"/>
     <use x="200.0" xlink:href="#WenQuanYiMicroHei-548c"/>
     <use x="300.0" xlink:href="#WenQuanYiMicroHei-4e8c"/>
     <use x="400.0" xlink:href="#WenQuanYiMicroHei-6b21"/>
     <use x="500.0" xlink:href="#WenQuanYiMicroHei-66f2"/>
     <use x="600.0" xlink:href="#WenQuanYiMicroHei-7ebf"/>
     <use x="700.0" xlink:href="#WenQuanYiMicroHei-7684"/>
     <use x="800.0" xlink:href="#WenQuanYiMicroHei-4ea4"/>
     <use x="900.0" xlink:href="#WenQuanYiMicroHei-70b9"/>
    </g>
   </g>
   <g id="patch_8">
    <path d="
M72.2996 119.897
L69.4158 116.831
Q161.006 98.7472 227.931 165.45
L228.155 163.83
Q229.395 166.025 229.912 168.925
Q227.021 168.403 224.825 167.287
L226.426 167
Q158.566 102.749 70.9544 123.865
L72.2996 119.897
z
" style="fill:#808080;stroke:#000000;stroke-linecap:round;"/>
   </g>
   <g id="text_17">
    <!-- 交点 -->
    <g transform="translate(43.4472775 127.398780937)scale(0.12 -0.12)">
     <use xlink:href="#WenQuanYiMicroHei-4ea4"/>
     <use x="100.0" xlink:href="#WenQuanYiMicroHei-70b9"/>
    </g>
   </g>
   <g id="patch_9">
    <path d="
M71.9836 115.653
L68.4769 113.333
Q212.319 46.651 346.079 134.63
L345.98 132.995
Q347.618 134.906 348.706 137.638
Q345.77 137.712 343.383 137.032
L344.906 136.444
Q210.759 51.1163 71.5841 119.828
L71.9836 115.653
z
" style="fill:#808080;stroke:#000000;stroke-linecap:round;"/>
   </g>
   <g id="text_18">
    <!-- 交点 -->
    <g transform="translate(43.4472775 127.398780937)scale(0.12 -0.12)">
     <use xlink:href="#WenQuanYiMicroHei-4ea4"/>
     <use x="100.0" xlink:href="#WenQuanYiMicroHei-70b9"/>
    </g>
   </g>
   <g id="patch_10">
    <path d="
M382.041 184.073
Q337.408 171.687 293.852 159.599" style="fill:none;stroke:#000000;stroke-linecap:round;"/>
    <path d="
M299.163 164.394
L293.852 159.599
L300.875 158.227" style="fill:none;stroke:#000000;stroke-linecap:round;"/>
   </g>
   <g id="text_19">
    <g id="patch_11">
     <path d="
M320.846 197.41
L447.096 197.41
Q451.896 197.41 451.896 192.61
L451.896 176.608
Q451.896 171.808 447.096 171.808
L320.846 171.808
Q316.046 171.808 316.046 176.608
L316.046 192.61
Q316.046 197.41 320.846 197.41
z
" style="fill:#ffb2b2;"/>
    </g>
    <!-- 直线大于曲线区域 -->
    <defs>
     <path d="
M12.8906 75
L86.7188 75
L86.7188 67.5781
L55.0781 67.5781
L55.0781 42.1875
L93.75 42.1875
L93.75 34.7656
L55.0781 34.7656
L55.0781 1.17188
Q55.0781 -4.29688 52.9219 -6.64062
Q50.7812 -8.98438 43.75 -8.98438
Q37.1094 -8.98438 30.8594 -7.8125
L29.2969 -0.390625
Q35.9375 -1.5625 42.5781 -1.5625
Q44.9219 -1.5625 46.0938 -0.78125
Q47.2656 0 47.2656 3.125
L47.2656 34.7656
L6.25 34.7656
L6.25 42.1875
L47.2656 42.1875
L47.2656 67.5781
L12.8906 67.5781
z
" id="WenQuanYiMicroHei-4e8e"/>
     <path d="
M89.8438 77.7344
L89.8438 70.3125
L17.9688 70.3125
L17.9688 1.95312
L92.9688 1.95312
L92.9688 -5.46875
L10.1562 -5.46875
L10.1562 77.7344
z

M70.7031 64.8438
L78.125 60.9375
Q70.7031 48.8281 61.3281 37.1094
Q71.875 26.5625 81.25 15.2344
L75 8.98438
Q66.0156 20.3125 55.8594 30.8594
Q48.0469 21.0938 29.6875 7.42188
L25 14.4531
Q36.7188 22.2656 50 36.7188
Q38.6719 48.0469 25.7812 58.5938
L32.0312 63.2812
Q44.5312 53.125 55.0781 42.9688
Q63.6719 53.125 70.7031 64.8438" id="WenQuanYiMicroHei-533a"/>
     <path d="
M5.46875 57.8125
L15.2344 57.8125
L15.2344 79.2969
L22.6562 79.2969
L22.6562 57.8125
L33.2031 57.8125
L33.2031 50.3906
L22.6562 50.3906
L22.6562 19.5312
Q27.7344 21.4844 31.6406 23.4375
L32.8125 16.4062
Q20.7031 10.1562 5.85938 5.85938
L4.29688 13.6719
Q10.1562 15.2344 15.2344 17.1875
L15.2344 50.3906
L5.46875 50.3906
z

M35.9375 66.0156
L66.7969 66.0156
L66.7969 80.8594
L74.2188 80.8594
Q74.2188 73.0469 74.6094 66.0156
L94.9219 66.0156
L94.9219 58.9844
L74.6094 58.9844
Q75.7812 37.8906 77.7344 26.1719
Q83.5938 37.5 88.2812 51.5625
L94.9219 48.4375
Q87.8906 27.7344 79.6875 14.8438
Q83.5938 -0.78125 86.7188 -0.78125
Q87.8906 -0.78125 88.6719 3.125
Q89.4531 7.03125 89.4531 14.4531
L96.0938 13.2812
Q95.3125 -0.390625 92.9688 -4.875
Q90.625 -9.375 86.7188 -9.375
Q79.2969 -9.375 74.2188 7.8125
Q66.4062 -1.5625 56.25 -8.20312
L52.3438 -1.17188
Q64.4531 7.03125 71.875 17.1875
Q68.3594 34.7656 67.1875 58.9844
L35.9375 58.9844
z

M84.375 80.4688
Q88.2812 76.1719 90.625 71.0938
L83.9844 67.5781
Q81.6406 72.2656 78.125 76.5625
z

M38.6719 50
L63.2812 50
L63.2812 23.8281
L38.6719 23.8281
z

M45.7031 30.4688
L56.25 30.4688
L56.25 43.3594
L45.7031 43.3594
z

M66.4062 20.7031
L67.5781 14.0625
Q53.125 8.20312 35.1562 3.90625
L33.5938 12.1094
Q53.125 15.625 66.4062 20.7031" id="WenQuanYiMicroHei-57df"/>
     <path d="
M8.59375 57.8125
L44.9219 57.8125
L44.9219 80.4688
L53.5156 80.4688
L53.5156 57.8125
L91.7969 57.8125
L91.7969 50
L55.0781 50
Q65.625 12.8906 96.0938 -0.390625
L91.7969 -8.98438
Q64.0625 3.90625 51.1719 37.8906
Q42.5781 9.375 8.59375 -8.98438
L4.29688 -1.5625
Q42.1875 19.9219 44.5312 50
L8.59375 50
z
" id="WenQuanYiMicroHei-5927"/>
    </defs>
    <g transform="translate(320.845963881 188.765249022)scale(0.16 -0.16)">
     <use xlink:href="#WenQuanYiMicroHei-76f4"/>
     <use x="100.0" xlink:href="#WenQuanYiMicroHei-7ebf"/>
     <use x="200.0" xlink:href="#WenQuanYiMicroHei-5927"/>
     <use x="300.0" xlink:href="#WenQuanYiMicroHei-4e8e"/>
     <use x="400.0" xlink:href="#WenQuanYiMicroHei-66f2"/>
     <use x="500.0" xlink:href="#WenQuanYiMicroHei-7ebf"/>
     <use x="600.0" xlink:href="#WenQuanYiMicroHei-533a"/>
     <use x="700.0" xlink:href="#WenQuanYiMicroHei-57df"/>
    </g>
   </g>
  </g>
 </g>
 <defs>
  <clipPath id="pf7696901cd">
   <rect height="230.4" width="446.4" x="21.1272775" y="12.1987809375"/>
  </clipPath>
 </defs>
</svg>
