<?xml version="1.0" encoding="UTF-8" standalone="no"?>
<!DOCTYPE svg PUBLIC "-//W3C//DTD SVG 1.1//EN"
 "http://www.w3.org/Graphics/SVG/1.1/DTD/svg11.dtd">
<!-- Generated by graphviz version 2.38.0 (20140413.2041)
 -->
<!-- Title: structs Pages: 1 -->
<svg width="988pt" height="183pt"
 viewBox="0.00 0.00 988.00 183.00" xmlns="http://www.w3.org/2000/svg" xmlns:xlink="http://www.w3.org/1999/xlink">
<g id="graph0" class="graph" transform="scale(1 1) rotate(0) translate(4 179)">
<title>structs</title>
<polygon fill="white" stroke="none" points="-4,4 -4,-179 984,-179 984,4 -4,4"/>
<!-- obj_91001232 -->
<g id="node1" class="node"><title>obj_91001232</title>
<polygon fill="white" stroke="black" points="0,-102.5 0,-138.5 137,-138.5 137,-102.5 0,-102.5"/>
<text text-anchor="middle" x="68.5" y="-116.8" font-family="Times New Roman,serif" font-size="14.00">BboxTransformFrom</text>
</g>
<!-- obj_90128696 -->
<g id="node2" class="node"><title>obj_90128696</title>
<polygon fill="white" stroke="black" points="203,-116.5 203,-174.5 319,-174.5 319,-116.5 203,-116.5"/>
<text text-anchor="start" x="215" y="-159.3" font-family="Times New Roman,serif" font-size="9.00">0.2</text>
<text text-anchor="start" x="247.5" y="-159.3" font-family="Times New Roman,serif" font-size="9.00">0</text>
<text text-anchor="start" x="284" y="-159.3" font-family="Times New Roman,serif" font-size="9.00">0.6</text>
<text text-anchor="start" x="218.5" y="-143.3" font-family="Times New Roman,serif" font-size="9.00">0</text>
<text text-anchor="start" x="233" y="-143.3" font-family="Times New Roman,serif" font-size="9.00">0.142857</text>
<text text-anchor="start" x="273" y="-143.3" font-family="Times New Roman,serif" font-size="9.00">0.285714</text>
<text text-anchor="start" x="218.5" y="-127.3" font-family="Times New Roman,serif" font-size="9.00">0</text>
<text text-anchor="start" x="247.5" y="-127.3" font-family="Times New Roman,serif" font-size="9.00">0</text>
<text text-anchor="start" x="287.5" y="-127.3" font-family="Times New Roman,serif" font-size="9.00">1</text>
</g>
<!-- obj_91001232&#45;&gt;obj_90128696 -->
<g id="edge1" class="edge"><title>obj_91001232&#45;&gt;obj_90128696</title>
<path fill="none" stroke="black" stroke-width="0.5" d="M137.2,-129.384C155.253,-131.754 174.75,-134.312 192.778,-136.678"/>
<polygon fill="black" stroke="black" stroke-width="0.5" points="192.54,-140.177 202.91,-138.008 193.451,-133.236 192.54,-140.177"/>
<text text-anchor="middle" x="169" y="-138.5" font-family="Times New Roman,serif" font-size="10.00">_mtx</text>
</g>
<!-- obj_91001296 -->
<g id="node3" class="node"><title>obj_91001296</title>
<polygon fill="white" stroke="black" points="201,-61.5 201,-97.5 321,-97.5 321,-61.5 201,-61.5"/>
<text text-anchor="middle" x="261" y="-75.8" font-family="Times New Roman,serif" font-size="14.00">TransformedBbox</text>
</g>
<!-- obj_91001232&#45;&gt;obj_91001296 -->
<g id="edge12" class="edge"><title>obj_91001232&#45;&gt;obj_91001296</title>
<path fill="none" stroke="black" stroke-width="0.5" d="M137.2,-105.929C154.543,-102.197 173.219,-98.1772 190.645,-94.4269"/>
<polygon fill="black" stroke="black" stroke-width="0.5" points="191.701,-97.7798 200.74,-92.254 190.228,-90.9365 191.701,-97.7798"/>
<text text-anchor="middle" x="169" y="-104.5" font-family="Times New Roman,serif" font-size="10.00">_boxin</text>
</g>
<!-- obj_91001040 -->
<g id="node4" class="node"><title>obj_91001040</title>
<polygon fill="white" stroke="black" points="436.5,-117.5 436.5,-153.5 490.5,-153.5 490.5,-117.5 436.5,-117.5"/>
<text text-anchor="middle" x="463.5" y="-131.8" font-family="Times New Roman,serif" font-size="14.00">Bbox</text>
</g>
<!-- obj_91001296&#45;&gt;obj_91001040 -->
<g id="edge3" class="edge"><title>obj_91001296&#45;&gt;obj_91001040</title>
<path fill="none" stroke="black" stroke-width="0.5" d="M321.072,-95.999C355.274,-105.552 397.216,-117.266 426.508,-125.447"/>
<polygon fill="black" stroke="black" stroke-width="0.5" points="425.734,-128.865 436.307,-128.184 427.618,-122.123 425.734,-128.865"/>
<text text-anchor="middle" x="361" y="-116.5" font-family="Times New Roman,serif" font-size="10.00">_bbox</text>
</g>
<!-- obj_91001488 -->
<g id="node6" class="node"><title>obj_91001488</title>
<polygon fill="white" stroke="black" points="401,-61.5 401,-97.5 526,-97.5 526,-61.5 401,-61.5"/>
<text text-anchor="middle" x="463.5" y="-75.8" font-family="Times New Roman,serif" font-size="14.00">TransformWrapper</text>
</g>
<!-- obj_91001296&#45;&gt;obj_91001488 -->
<g id="edge10" class="edge"><title>obj_91001296&#45;&gt;obj_91001488</title>
<path fill="none" stroke="black" stroke-width="0.5" d="M321.072,-79.5C342.809,-79.5 367.673,-79.5 390.428,-79.5"/>
<polygon fill="black" stroke="black" stroke-width="0.5" points="390.716,-83.0001 400.716,-79.5 390.716,-76.0001 390.716,-83.0001"/>
<text text-anchor="middle" x="361" y="-82.5" font-family="Times New Roman,serif" font-size="10.00">_transform</text>
</g>
<!-- obj_90129336 -->
<g id="node11" class="node"><title>obj_90129336</title>
<polygon fill="white" stroke="black" points="436.5,-0.5 436.5,-42.5 490.5,-42.5 490.5,-0.5 436.5,-0.5"/>
<text text-anchor="start" x="452.5" y="-27.3" font-family="Times New Roman,serif" font-size="9.00">&#45;3</text>
<text text-anchor="start" x="466.5" y="-27.3" font-family="Times New Roman,serif" font-size="9.00">&#45;2</text>
<text text-anchor="start" x="454" y="-11.3" font-family="Times New Roman,serif" font-size="9.00">2</text>
<text text-anchor="start" x="468" y="-11.3" font-family="Times New Roman,serif" font-size="9.00">5</text>
</g>
<!-- obj_91001296&#45;&gt;obj_90129336 -->
<g id="edge11" class="edge"><title>obj_91001296&#45;&gt;obj_90129336</title>
<path fill="none" stroke="black" stroke-width="0.5" d="M321.072,-62.4118C355.274,-52.5179 397.216,-40.3851 426.508,-31.9117"/>
<polygon fill="black" stroke="black" stroke-width="0.5" points="427.674,-35.218 436.307,-29.0769 425.729,-28.4937 427.674,-35.218"/>
<text text-anchor="middle" x="361" y="-59.5" font-family="Times New Roman,serif" font-size="10.00">_points</text>
</g>
<!-- obj_90205904 -->
<g id="node5" class="node"><title>obj_90205904</title>
<polygon fill="white" stroke="black" points="622.5,-115.5 622.5,-157.5 676.5,-157.5 676.5,-115.5 622.5,-115.5"/>
<text text-anchor="start" x="638.5" y="-142.3" font-family="Times New Roman,serif" font-size="9.00">&#45;3</text>
<text text-anchor="start" x="652.5" y="-142.3" font-family="Times New Roman,serif" font-size="9.00">&#45;2</text>
<text text-anchor="start" x="640" y="-126.3" font-family="Times New Roman,serif" font-size="9.00">2</text>
<text text-anchor="start" x="654" y="-126.3" font-family="Times New Roman,serif" font-size="9.00">5</text>
</g>
<!-- obj_91001040&#45;&gt;obj_90205904 -->
<g id="edge2" class="edge"><title>obj_91001040&#45;&gt;obj_90205904</title>
<path fill="none" stroke="black" stroke-width="0.5" d="M490.863,-135.643C522.789,-135.817 576.72,-136.11 612.467,-136.304"/>
<polygon fill="black" stroke="black" stroke-width="0.5" points="612.465,-139.804 622.483,-136.359 612.503,-132.804 612.465,-139.804"/>
<text text-anchor="middle" x="559.5" y="-139.5" font-family="Times New Roman,serif" font-size="10.00">_points</text>
</g>
<!-- obj_91199216 -->
<g id="node7" class="node"><title>obj_91199216</title>
<polygon fill="white" stroke="black" points="593,-60.5 593,-96.5 706,-96.5 706,-60.5 593,-60.5"/>
<text text-anchor="middle" x="649.5" y="-74.8" font-family="Times New Roman,serif" font-size="14.00">BlendedAffine2D</text>
</g>
<!-- obj_91001488&#45;&gt;obj_91199216 -->
<g id="edge9" class="edge"><title>obj_91001488&#45;&gt;obj_91199216</title>
<path fill="none" stroke="black" stroke-width="0.5" d="M526.025,-79.1656C544.272,-79.0665 564.322,-78.9575 582.821,-78.8569"/>
<polygon fill="black" stroke="black" stroke-width="0.5" points="582.937,-82.3565 592.918,-78.8021 582.899,-75.3566 582.937,-82.3565"/>
<text text-anchor="middle" x="559.5" y="-82.5" font-family="Times New Roman,serif" font-size="10.00">_child</text>
</g>
<!-- obj_82055720 -->
<g id="node8" class="node"><title>obj_82055720</title>
<polygon fill="white" stroke="black" points="926,-49.5 926,-107.5 980,-107.5 980,-49.5 926,-49.5"/>
<text text-anchor="start" x="940" y="-92.3" font-family="Times New Roman,serif" font-size="9.00">1</text>
<text text-anchor="start" x="951" y="-92.3" font-family="Times New Roman,serif" font-size="9.00">0</text>
<text text-anchor="start" x="962" y="-92.3" font-family="Times New Roman,serif" font-size="9.00">0</text>
<text text-anchor="start" x="940" y="-76.3" font-family="Times New Roman,serif" font-size="9.00">0</text>
<text text-anchor="start" x="951" y="-76.3" font-family="Times New Roman,serif" font-size="9.00">1</text>
<text text-anchor="start" x="962" y="-76.3" font-family="Times New Roman,serif" font-size="9.00">0</text>
<text text-anchor="start" x="940" y="-60.3" font-family="Times New Roman,serif" font-size="9.00">0</text>
<text text-anchor="start" x="951" y="-60.3" font-family="Times New Roman,serif" font-size="9.00">0</text>
<text text-anchor="start" x="962" y="-60.3" font-family="Times New Roman,serif" font-size="9.00">1</text>
</g>
<!-- obj_91199216&#45;&gt;obj_82055720 -->
<g id="edge4" class="edge"><title>obj_91199216&#45;&gt;obj_82055720</title>
<path fill="none" stroke="black" stroke-width="0.5" d="M706.107,-95.9282C721.171,-99.8826 737.579,-103.503 753,-105.5 805.01,-112.235 819.199,-113.69 871,-105.5 886.198,-103.097 902.389,-98.2035 916.269,-93.2342"/>
<polygon fill="black" stroke="black" stroke-width="0.5" points="917.772,-96.4093 925.92,-89.637 915.327,-89.8501 917.772,-96.4093"/>
<text text-anchor="middle" x="812" y="-114.5" font-family="Times New Roman,serif" font-size="10.00">_mtx</text>
</g>
<!-- obj_91085520 -->
<g id="node9" class="node"><title>obj_91085520</title>
<polygon fill="white" stroke="black" points="753,-60.5 753,-96.5 871,-96.5 871,-60.5 753,-60.5"/>
<text text-anchor="middle" x="812" y="-74.8" font-family="Times New Roman,serif" font-size="14.00">IdentityTransform</text>
</g>
<!-- obj_91199216&#45;&gt;obj_91085520 -->
<g id="edge6" class="edge"><title>obj_91199216&#45;&gt;obj_91085520</title>
<path fill="none" stroke="black" stroke-width="0.5" d="M706.185,-78.5C717.997,-78.5 730.596,-78.5 742.813,-78.5"/>
<polygon fill="black" stroke="black" stroke-width="0.5" points="742.959,-82.0001 752.959,-78.5 742.959,-75.0001 742.959,-82.0001"/>
<text text-anchor="middle" x="729.5" y="-81.5" font-family="Times New Roman,serif" font-size="10.00">_x</text>
</g>
<!-- obj_91199152 -->
<g id="node10" class="node"><title>obj_91199152</title>
<polygon fill="white" stroke="black" points="753,-5.5 753,-41.5 871,-41.5 871,-5.5 753,-5.5"/>
<text text-anchor="middle" x="812" y="-19.8" font-family="Times New Roman,serif" font-size="14.00">IdentityTransform</text>
</g>
<!-- obj_91199216&#45;&gt;obj_91199152 -->
<g id="edge8" class="edge"><title>obj_91199216&#45;&gt;obj_91199152</title>
<path fill="none" stroke="black" stroke-width="0.5" d="M703.054,-60.4909C717.603,-55.5053 733.536,-50.0452 748.588,-44.8873"/>
<polygon fill="black" stroke="black" stroke-width="0.5" points="750.003,-48.1023 758.328,-41.5495 747.734,-41.4803 750.003,-48.1023"/>
<text text-anchor="middle" x="729.5" y="-56.5" font-family="Times New Roman,serif" font-size="10.00">_y</text>
</g>
<!-- obj_91085520&#45;&gt;obj_82055720 -->
<g id="edge5" class="edge"><title>obj_91085520&#45;&gt;obj_82055720</title>
<path fill="none" stroke="black" stroke-width="0.5" d="M871.143,-78.5C886.171,-78.5 901.926,-78.5 915.496,-78.5"/>
<polygon fill="black" stroke="black" stroke-width="0.5" points="915.855,-82.0001 925.855,-78.5 915.855,-75.0001 915.855,-82.0001"/>
<text text-anchor="middle" x="898.5" y="-81.5" font-family="Times New Roman,serif" font-size="10.00">_mtx</text>
</g>
<!-- obj_91199152&#45;&gt;obj_82055720 -->
<g id="edge7" class="edge"><title>obj_91199152&#45;&gt;obj_82055720</title>
<path fill="none" stroke="black" stroke-width="0.5" d="M858.514,-41.5091C877.353,-48.9633 898.872,-57.4781 916.511,-64.4578"/>
<polygon fill="black" stroke="black" stroke-width="0.5" points="915.284,-67.7361 925.87,-68.161 917.86,-61.2271 915.284,-67.7361"/>
<text text-anchor="middle" x="898.5" y="-64.5" font-family="Times New Roman,serif" font-size="10.00">_mtx</text>
</g>
</g>
</svg>
