<?xml version="1.0" encoding="UTF-8" standalone="no"?>
<!DOCTYPE svg PUBLIC "-//W3C//DTD SVG 1.1//EN"
 "http://www.w3.org/Graphics/SVG/1.1/DTD/svg11.dtd">
<!-- Generated by graphviz version 2.38.0 (20140413.2041)
 -->
<!-- Title: structs Pages: 1 -->
<svg width="597pt" height="187pt"
 viewBox="0.00 0.00 597.00 187.00" xmlns="http://www.w3.org/2000/svg" xmlns:xlink="http://www.w3.org/1999/xlink">
<g id="graph0" class="graph" transform="scale(1 1) rotate(0) translate(4 183)">
<title>structs</title>
<polygon fill="white" stroke="none" points="-4,4 -4,-183 593,-183 593,4 -4,4"/>
<!-- obj_90246224 -->
<g id="node1" class="node"><title>obj_90246224</title>
<polygon fill="white" stroke="black" points="0,-36.5 0,-72.5 123,-72.5 123,-36.5 0,-36.5"/>
<text text-anchor="middle" x="61.5" y="-50.8" font-family="Times New Roman,serif" font-size="14.00">BboxTransformTo</text>
</g>
<!-- obj_90246192 -->
<g id="node2" class="node"><title>obj_90246192</title>
<polygon fill="white" stroke="black" points="193,-77.5 193,-113.5 313,-113.5 313,-77.5 193,-77.5"/>
<text text-anchor="middle" x="253" y="-91.8" font-family="Times New Roman,serif" font-size="14.00">TransformedBbox</text>
</g>
<!-- obj_90246224&#45;&gt;obj_90246192 -->
<g id="edge6" class="edge"><title>obj_90246224&#45;&gt;obj_90246192</title>
<path fill="none" stroke="black" stroke-width="0.5" d="M123.241,-67.6418C142.319,-71.7695 163.518,-76.3561 183.117,-80.5966"/>
<polygon fill="black" stroke="black" stroke-width="0.5" points="182.382,-84.0185 192.896,-82.7124 183.863,-77.1768 182.382,-84.0185"/>
<text text-anchor="middle" x="158" y="-82.5" font-family="Times New Roman,serif" font-size="10.00">_boxout</text>
</g>
<!-- obj_86690456 -->
<g id="node8" class="node"><title>obj_86690456</title>
<polygon fill="white" stroke="black" points="218.5,-0.5 218.5,-58.5 287.5,-58.5 287.5,-0.5 218.5,-0.5"/>
<text text-anchor="start" x="231" y="-43.3" font-family="Times New Roman,serif" font-size="9.00">640</text>
<text text-anchor="start" x="255.5" y="-43.3" font-family="Times New Roman,serif" font-size="9.00">0</text>
<text text-anchor="start" x="271" y="-43.3" font-family="Times New Roman,serif" font-size="9.00">0</text>
<text text-anchor="start" x="235.5" y="-27.3" font-family="Times New Roman,serif" font-size="9.00">0</text>
<text text-anchor="start" x="251" y="-27.3" font-family="Times New Roman,serif" font-size="9.00">320</text>
<text text-anchor="start" x="271" y="-27.3" font-family="Times New Roman,serif" font-size="9.00">0</text>
<text text-anchor="start" x="235.5" y="-11.3" font-family="Times New Roman,serif" font-size="9.00">0</text>
<text text-anchor="start" x="255.5" y="-11.3" font-family="Times New Roman,serif" font-size="9.00">0</text>
<text text-anchor="start" x="271" y="-11.3" font-family="Times New Roman,serif" font-size="9.00">1</text>
</g>
<!-- obj_90246224&#45;&gt;obj_86690456 -->
<g id="edge7" class="edge"><title>obj_90246224&#45;&gt;obj_86690456</title>
<path fill="none" stroke="black" stroke-width="0.5" d="M123.241,-46.4867C150.929,-42.8339 183.085,-38.5917 208.335,-35.2605"/>
<polygon fill="black" stroke="black" stroke-width="0.5" points="208.893,-38.7173 218.349,-33.9394 207.977,-31.7775 208.893,-38.7173"/>
<text text-anchor="middle" x="158" y="-46.5" font-family="Times New Roman,serif" font-size="10.00">_mtx</text>
</g>
<!-- obj_90246160 -->
<g id="node3" class="node"><title>obj_90246160</title>
<polygon fill="white" stroke="black" points="400,-136.5 400,-172.5 454,-172.5 454,-136.5 400,-136.5"/>
<text text-anchor="middle" x="427" y="-150.8" font-family="Times New Roman,serif" font-size="14.00">Bbox</text>
</g>
<!-- obj_90246192&#45;&gt;obj_90246160 -->
<g id="edge2" class="edge"><title>obj_90246192&#45;&gt;obj_90246160</title>
<path fill="none" stroke="black" stroke-width="0.5" d="M306.54,-113.523C333.631,-122.815 365.97,-133.908 390.165,-142.208"/>
<polygon fill="black" stroke="black" stroke-width="0.5" points="389.072,-145.533 399.666,-145.467 391.343,-138.912 389.072,-145.533"/>
<text text-anchor="middle" x="353" y="-137.5" font-family="Times New Roman,serif" font-size="10.00">_bbox</text>
</g>
<!-- obj_90246128 -->
<g id="node5" class="node"><title>obj_90246128</title>
<polygon fill="white" stroke="black" points="393,-77.5 393,-113.5 461,-113.5 461,-77.5 393,-77.5"/>
<text text-anchor="middle" x="427" y="-91.8" font-family="Times New Roman,serif" font-size="14.00">Affine2D</text>
</g>
<!-- obj_90246192&#45;&gt;obj_90246128 -->
<g id="edge4" class="edge"><title>obj_90246192&#45;&gt;obj_90246128</title>
<path fill="none" stroke="black" stroke-width="0.5" d="M313.193,-95.5C335.97,-95.5 361.535,-95.5 382.562,-95.5"/>
<polygon fill="black" stroke="black" stroke-width="0.5" points="382.795,-99.0001 392.795,-95.5 382.795,-92.0001 382.795,-99.0001"/>
<text text-anchor="middle" x="353" y="-98.5" font-family="Times New Roman,serif" font-size="10.00">_transform</text>
</g>
<!-- obj_86690416 -->
<g id="node7" class="node"><title>obj_86690416</title>
<polygon fill="white" stroke="black" points="398,-16.5 398,-58.5 456,-58.5 456,-16.5 398,-16.5"/>
<text text-anchor="start" x="414.5" y="-43.3" font-family="Times New Roman,serif" font-size="9.00">0</text>
<text text-anchor="start" x="434.5" y="-43.3" font-family="Times New Roman,serif" font-size="9.00">0</text>
<text text-anchor="start" x="410" y="-27.3" font-family="Times New Roman,serif" font-size="9.00">640</text>
<text text-anchor="start" x="430" y="-27.3" font-family="Times New Roman,serif" font-size="9.00">320</text>
</g>
<!-- obj_90246192&#45;&gt;obj_86690416 -->
<g id="edge5" class="edge"><title>obj_90246192&#45;&gt;obj_86690416</title>
<path fill="none" stroke="black" stroke-width="0.5" d="M307.479,-77.4664C333.538,-68.679 364.269,-58.3162 387.908,-50.3449"/>
<polygon fill="black" stroke="black" stroke-width="0.5" points="389.213,-53.5986 397.571,-47.0867 386.976,-46.9655 389.213,-53.5986"/>
<text text-anchor="middle" x="353" y="-71.5" font-family="Times New Roman,serif" font-size="10.00">_points</text>
</g>
<!-- obj_90203904 -->
<g id="node4" class="node"><title>obj_90203904</title>
<polygon fill="white" stroke="black" points="531.5,-136.5 531.5,-178.5 585.5,-178.5 585.5,-136.5 531.5,-136.5"/>
<text text-anchor="start" x="550.5" y="-163.3" font-family="Times New Roman,serif" font-size="9.00">0</text>
<text text-anchor="start" x="561.5" y="-163.3" font-family="Times New Roman,serif" font-size="9.00">0</text>
<text text-anchor="start" x="550.5" y="-147.3" font-family="Times New Roman,serif" font-size="9.00">8</text>
<text text-anchor="start" x="561.5" y="-147.3" font-family="Times New Roman,serif" font-size="9.00">4</text>
</g>
<!-- obj_90246160&#45;&gt;obj_90203904 -->
<g id="edge1" class="edge"><title>obj_90246160&#45;&gt;obj_90203904</title>
<path fill="none" stroke="black" stroke-width="0.5" d="M454.206,-155.107C473.514,-155.554 500.012,-156.168 521.335,-156.662"/>
<polygon fill="black" stroke="black" stroke-width="0.5" points="521.254,-160.161 531.333,-156.894 521.416,-153.163 521.254,-160.161"/>
<text text-anchor="middle" x="494.5" y="-158.5" font-family="Times New Roman,serif" font-size="10.00">_points</text>
</g>
<!-- obj_91696208 -->
<g id="node6" class="node"><title>obj_91696208</title>
<polygon fill="white" stroke="black" points="528,-59.5 528,-117.5 589,-117.5 589,-59.5 528,-59.5"/>
<text text-anchor="start" x="540.5" y="-102.3" font-family="Times New Roman,serif" font-size="9.00">80</text>
<text text-anchor="start" x="559" y="-102.3" font-family="Times New Roman,serif" font-size="9.00">0</text>
<text text-anchor="start" x="572.5" y="-102.3" font-family="Times New Roman,serif" font-size="9.00">0</text>
<text text-anchor="start" x="543" y="-86.3" font-family="Times New Roman,serif" font-size="9.00">0</text>
<text text-anchor="start" x="556.5" y="-86.3" font-family="Times New Roman,serif" font-size="9.00">80</text>
<text text-anchor="start" x="572.5" y="-86.3" font-family="Times New Roman,serif" font-size="9.00">0</text>
<text text-anchor="start" x="543" y="-70.3" font-family="Times New Roman,serif" font-size="9.00">0</text>
<text text-anchor="start" x="559" y="-70.3" font-family="Times New Roman,serif" font-size="9.00">0</text>
<text text-anchor="start" x="572.5" y="-70.3" font-family="Times New Roman,serif" font-size="9.00">1</text>
</g>
<!-- obj_90246128&#45;&gt;obj_91696208 -->
<g id="edge3" class="edge"><title>obj_90246128&#45;&gt;obj_91696208</title>
<path fill="none" stroke="black" stroke-width="0.5" d="M461.013,-93.7155C478.258,-92.7834 499.492,-91.6356 517.646,-90.6543"/>
<polygon fill="black" stroke="black" stroke-width="0.5" points="517.85,-94.1484 527.647,-90.1137 517.472,-87.1586 517.85,-94.1484"/>
<text text-anchor="middle" x="494.5" y="-95.5" font-family="Times New Roman,serif" font-size="10.00">_mtx</text>
</g>
</g>
</svg>
