<?xml version="1.0" encoding="utf-8" standalone="no"?>
<!DOCTYPE svg PUBLIC "-//W3C//DTD SVG 1.1//EN"
  "http://www.w3.org/Graphics/SVG/1.1/DTD/svg11.dtd">
<!-- Created with matplotlib (http://matplotlib.org/) -->
<svg height="273pt" version="1.1" viewBox="0 0 486 273" width="486pt" xmlns="http://www.w3.org/2000/svg" xmlns:xlink="http://www.w3.org/1999/xlink">
 <defs>
  <style type="text/css">
*{stroke-linecap:butt;stroke-linejoin:round;}
  </style>
 </defs>
 <g id="figure_1">
  <g id="patch_1">
   <path d="
M0 273.676
L486.369 273.676
L486.369 0
L0 0
z
" style="fill:#ffffff;"/>
  </g>
  <g id="axes_1">
   <g id="patch_2">
    <path d="
M24.2135 252.478
L470.614 252.478
L470.614 22.0781
L24.2135 22.0781
z
" style="fill:#ffffff;"/>
   </g>
   <g id="line2d_1">
    <path clip-path="url(#p0451c6a66e)" d="
M24.2135 22.0781
L73.8135 113.1
L123.414 181.367
L173.014 226.878
L222.614 249.634
L272.214 249.634
L321.814 226.878
L371.414 181.367
L421.014 113.1
L470.614 22.0781" style="fill:none;stroke:#348abd;stroke-linecap:square;stroke-width:2.0;"/>
   </g>
   <g id="patch_3">
    <path d="
M24.2135 22.0781
L470.614 22.0781" style="fill:none;stroke:#000000;stroke-linecap:square;stroke-linejoin:miter;"/>
   </g>
   <g id="patch_4">
    <path d="
M470.614 252.478
L470.614 22.0781" style="fill:none;stroke:#000000;stroke-linecap:square;stroke-linejoin:miter;"/>
   </g>
   <g id="patch_5">
    <path d="
M24.2135 252.478
L470.614 252.478" style="fill:none;stroke:#000000;stroke-linecap:square;stroke-linejoin:miter;"/>
   </g>
   <g id="patch_6">
    <path d="
M24.2135 252.478
L24.2135 22.0781" style="fill:none;stroke:#000000;stroke-linecap:square;stroke-linejoin:miter;"/>
   </g>
   <g id="matplotlib.axis_1">
    <g id="xtick_1">
     <g id="line2d_2">
      <defs>
       <path d="
M0 0
L0 -4" id="m93b0483c22" style="stroke:#000000;stroke-width:0.5;"/>
      </defs>
      <g>
       <use style="stroke:#000000;stroke-width:0.5;" x="24.2135425" xlink:href="#m93b0483c22" y="252.478125"/>
      </g>
     </g>
     <g id="line2d_3">
      <defs>
       <path d="
M0 0
L0 4" id="m741efc42ff" style="stroke:#000000;stroke-width:0.5;"/>
      </defs>
      <g>
       <use style="stroke:#000000;stroke-width:0.5;" x="24.2135425" xlink:href="#m741efc42ff" y="22.078125"/>
      </g>
     </g>
     <g id="text_1">
      <!-- −1.0 -->
      <defs>
       <path d="
M34.7188 0
L26.125 0
L26.125 44.5781
Q26.125 46.6875 26.1406 49.0781
Q26.1719 51.4688 26.2344 53.8281
Q26.3125 56.2031 26.3906 58.375
Q26.4688 60.5469 26.5156 62.2031
Q25.6875 61.3281 25.0469 60.6875
Q24.4219 60.0625 23.75 59.4688
Q23.0938 58.8906 22.3594 58.2188
Q21.625 57.5625 20.6094 56.6875
L13.375 50.7812
L8.6875 56.7812
L27.3906 71.3906
L34.7188 71.3906
z
" id="WenQuanYiMicroHei-31"/>
       <path d="
M50.3906 35.7969
Q50.3906 27.1562 49.1406 20.3125
Q47.9062 13.4844 45.1406 8.73438
Q42.3906 4 38.0312 1.5
Q33.6875 -0.984375 27.4844 -0.984375
Q21.7344 -0.984375 17.4531 1.5
Q13.1875 4 10.375 8.73438
Q7.5625 13.4844 6.17188 20.3125
Q4.78125 27.1562 4.78125 35.7969
Q4.78125 44.4375 6.03125 51.2656
Q7.28125 58.1094 9.98438 62.8125
Q12.7031 67.5312 17.0156 70.0156
Q21.3438 72.5156 27.4844 72.5156
Q33.2969 72.5156 37.5938 70.0469
Q41.8906 67.5781 44.7188 62.8594
Q47.5625 58.1562 48.9688 51.3125
Q50.3906 44.4844 50.3906 35.7969
M13.8125 35.7969
Q13.8125 28.4688 14.5469 23
Q15.2812 17.5312 16.8906 13.8906
Q18.5 10.25 21.1094 8.42188
Q23.7344 6.59375 27.4844 6.59375
Q31.25 6.59375 33.8906 8.39062
Q36.5312 10.2031 38.2031 13.8125
Q39.8906 17.4375 40.6406 22.9219
Q41.4062 28.4219 41.4062 35.7969
Q41.4062 43.1094 40.6406 48.5781
Q39.8906 54.0469 38.2031 57.6562
Q36.5312 61.2812 33.8906 63.0781
Q31.25 64.8906 27.4844 64.8906
Q23.7344 64.8906 21.1094 63.0781
Q18.5 61.2812 16.8906 57.6562
Q15.2812 54.0469 14.5469 48.5781
Q13.8125 43.1094 13.8125 35.7969" id="WenQuanYiMicroHei-30"/>
       <path d="
M4.98438 31.5938
L4.98438 38.9219
L50.0938 38.9219
L50.0938 31.5938
z
" id="WenQuanYiMicroHei-2212"/>
       <path d="
M7.17188 5.42188
Q7.17188 7.28125 7.65625 8.5625
Q8.15625 9.85938 8.98438 10.6562
Q9.8125 11.4688 10.9375 11.8281
Q12.0625 12.2031 13.375 12.2031
Q14.6562 12.2031 15.7969 11.8281
Q16.9375 11.4688 17.7656 10.6562
Q18.6094 9.85938 19.0938 8.5625
Q19.5781 7.28125 19.5781 5.42188
Q19.5781 3.60938 19.0938 2.3125
Q18.6094 1.03125 17.7656 0.1875
Q16.9375 -0.640625 15.7969 -1.03125
Q14.6562 -1.42188 13.375 -1.42188
Q12.0625 -1.42188 10.9375 -1.03125
Q9.8125 -0.640625 8.98438 0.1875
Q8.15625 1.03125 7.65625 2.3125
Q7.17188 3.60938 7.17188 5.42188" id="WenQuanYiMicroHei-2e"/>
      </defs>
      <g transform="translate(15.09844 264.073523125)scale(0.09996 -0.09996)">
       <use xlink:href="#WenQuanYiMicroHei-2212"/>
       <use x="55.078125" xlink:href="#WenQuanYiMicroHei-31"/>
       <use x="110.15625" xlink:href="#WenQuanYiMicroHei-2e"/>
       <use x="136.962890625" xlink:href="#WenQuanYiMicroHei-30"/>
      </g>
     </g>
    </g>
    <g id="xtick_2">
     <g id="line2d_4">
      <g>
       <use style="stroke:#000000;stroke-width:0.5;" x="135.8135425" xlink:href="#m93b0483c22" y="252.478125"/>
      </g>
     </g>
     <g id="line2d_5">
      <g>
       <use style="stroke:#000000;stroke-width:0.5;" x="135.8135425" xlink:href="#m741efc42ff" y="22.078125"/>
      </g>
     </g>
     <g id="text_2">
      <!-- −0.5 -->
      <defs>
       <path d="
M26.6094 43.7969
Q31.4531 43.7969 35.625 42.4531
Q39.7969 41.1094 42.8906 38.4688
Q46 35.8438 47.75 31.9375
Q49.5156 28.0312 49.5156 22.9062
Q49.5156 17.3281 47.8438 12.8906
Q46.1875 8.45312 42.9219 5.375
Q39.6562 2.29688 34.8438 0.65625
Q30.0312 -0.984375 23.7812 -0.984375
Q21.2969 -0.984375 18.875 -0.734375
Q16.4531 -0.484375 14.2344 -0.015625
Q12.0156 0.4375 10.0156 1.17188
Q8.01562 1.90625 6.39062 2.875
L6.39062 11.2812
Q8.01562 10.1562 10.1875 9.28125
Q12.3594 8.40625 14.75 7.8125
Q17.1406 7.23438 19.5469 6.90625
Q21.9688 6.59375 24.0312 6.59375
Q27.875 6.59375 30.9062 7.5
Q33.9375 8.40625 36.0312 10.2969
Q38.1406 12.2031 39.25 15.0781
Q40.375 17.9688 40.375 21.9219
Q40.375 28.9062 36.0781 32.5938
Q31.7812 36.2812 23.5781 36.2812
Q22.2656 36.2812 20.7188 36.1562
Q19.1875 36.0312 17.6406 35.8281
Q16.1094 35.6406 14.7188 35.4219
Q13.3281 35.2031 12.3125 35.0156
L7.90625 37.7969
L10.5938 71.3906
L44.2812 71.3906
L44.2812 63.2812
L18.3125 63.2812
L16.4062 42.8281
Q17.9688 43.1094 20.5312 43.4531
Q23.0938 43.7969 26.6094 43.7969" id="WenQuanYiMicroHei-35"/>
      </defs>
      <g transform="translate(126.7421725 264.073523125)scale(0.09996 -0.09996)">
       <use xlink:href="#WenQuanYiMicroHei-2212"/>
       <use x="55.078125" xlink:href="#WenQuanYiMicroHei-30"/>
       <use x="110.15625" xlink:href="#WenQuanYiMicroHei-2e"/>
       <use x="136.962890625" xlink:href="#WenQuanYiMicroHei-35"/>
      </g>
     </g>
    </g>
    <g id="xtick_3">
     <g id="line2d_6">
      <g>
       <use style="stroke:#000000;stroke-width:0.5;" x="247.4135425" xlink:href="#m93b0483c22" y="252.478125"/>
      </g>
     </g>
     <g id="line2d_7">
      <g>
       <use style="stroke:#000000;stroke-width:0.5;" x="247.4135425" xlink:href="#m741efc42ff" y="22.078125"/>
      </g>
     </g>
     <g id="text_3">
      <!-- 0.0 -->
      <g transform="translate(241.0410925 264.073523125)scale(0.09996 -0.09996)">
       <use xlink:href="#WenQuanYiMicroHei-30"/>
       <use x="55.078125" xlink:href="#WenQuanYiMicroHei-2e"/>
       <use x="81.884765625" xlink:href="#WenQuanYiMicroHei-30"/>
      </g>
     </g>
    </g>
    <g id="xtick_4">
     <g id="line2d_8">
      <g>
       <use style="stroke:#000000;stroke-width:0.5;" x="359.0135425" xlink:href="#m93b0483c22" y="252.478125"/>
      </g>
     </g>
     <g id="line2d_9">
      <g>
       <use style="stroke:#000000;stroke-width:0.5;" x="359.0135425" xlink:href="#m741efc42ff" y="22.078125"/>
      </g>
     </g>
     <g id="text_4">
      <!-- 0.5 -->
      <g transform="translate(352.684825 264.073523125)scale(0.09996 -0.09996)">
       <use xlink:href="#WenQuanYiMicroHei-30"/>
       <use x="55.078125" xlink:href="#WenQuanYiMicroHei-2e"/>
       <use x="81.884765625" xlink:href="#WenQuanYiMicroHei-35"/>
      </g>
     </g>
    </g>
    <g id="xtick_5">
     <g id="line2d_10">
      <g>
       <use style="stroke:#000000;stroke-width:0.5;" x="470.6135425" xlink:href="#m93b0483c22" y="252.478125"/>
      </g>
     </g>
     <g id="line2d_11">
      <g>
       <use style="stroke:#000000;stroke-width:0.5;" x="470.6135425" xlink:href="#m741efc42ff" y="22.078125"/>
      </g>
     </g>
     <g id="text_5">
      <!-- 1.0 -->
      <g transform="translate(464.436326875 264.073523125)scale(0.09996 -0.09996)">
       <use xlink:href="#WenQuanYiMicroHei-31"/>
       <use x="55.078125" xlink:href="#WenQuanYiMicroHei-2e"/>
       <use x="81.884765625" xlink:href="#WenQuanYiMicroHei-30"/>
      </g>
     </g>
    </g>
   </g>
   <g id="matplotlib.axis_2">
    <g id="ytick_1">
     <g id="line2d_12">
      <defs>
       <path d="
M0 0
L4 0" id="m728421d6d4" style="stroke:#000000;stroke-width:0.5;"/>
      </defs>
      <g>
       <use style="stroke:#000000;stroke-width:0.5;" x="24.2135425" xlink:href="#m728421d6d4" y="252.478125"/>
      </g>
     </g>
     <g id="line2d_13">
      <defs>
       <path d="
M0 0
L-4 0" id="mcb0005524f" style="stroke:#000000;stroke-width:0.5;"/>
      </defs>
      <g>
       <use style="stroke:#000000;stroke-width:0.5;" x="470.6135425" xlink:href="#mcb0005524f" y="252.478125"/>
      </g>
     </g>
     <g id="text_6">
      <!-- 0.0 -->
      <g transform="translate(7.4686425 255.074742188)scale(0.09996 -0.09996)">
       <use xlink:href="#WenQuanYiMicroHei-30"/>
       <use x="55.078125" xlink:href="#WenQuanYiMicroHei-2e"/>
       <use x="81.884765625" xlink:href="#WenQuanYiMicroHei-30"/>
      </g>
     </g>
    </g>
    <g id="ytick_2">
     <g id="line2d_14">
      <g>
       <use style="stroke:#000000;stroke-width:0.5;" x="24.2135425" xlink:href="#m728421d6d4" y="206.398125"/>
      </g>
     </g>
     <g id="line2d_15">
      <g>
       <use style="stroke:#000000;stroke-width:0.5;" x="470.6135425" xlink:href="#mcb0005524f" y="206.398125"/>
      </g>
     </g>
     <g id="text_7">
      <!-- 0.2 -->
      <defs>
       <path d="
M49.2188 0
L4.6875 0
L4.6875 7.625
L21.7812 26.2188
Q25.4375 30.1719 28.3125 33.4375
Q31.2031 36.7188 33.2188 39.8438
Q35.25 42.9688 36.3281 46.1094
Q37.4062 49.2656 37.4062 52.9844
Q37.4062 55.8594 36.5781 58.0469
Q35.75 60.25 34.2031 61.7812
Q32.6719 63.3281 30.5625 64.1094
Q28.4688 64.8906 25.875 64.8906
Q21.2344 64.8906 17.5 63.0156
Q13.7656 61.1406 10.4062 58.2031
L5.42188 64.0156
Q7.375 65.7656 9.60938 67.2969
Q11.8594 68.8438 14.4531 69.9688
Q17.0469 71.0938 19.9219 71.75
Q22.7969 72.4062 25.9844 72.4062
Q30.6719 72.4062 34.4531 71.0938
Q38.2344 69.7812 40.8594 67.3125
Q43.5 64.8438 44.9375 61.2969
Q46.3906 57.7656 46.3906 53.3281
Q46.3906 49.1719 45.0938 45.4062
Q43.7969 41.6562 41.5312 38.0156
Q39.2656 34.375 36.1094 30.7031
Q32.9531 27.0469 29.2969 23.0938
L15.5781 8.5
L15.5781 8.10938
L49.2188 8.10938
z
" id="WenQuanYiMicroHei-32"/>
      </defs>
      <g transform="translate(7.585783125 208.994742188)scale(0.09996 -0.09996)">
       <use xlink:href="#WenQuanYiMicroHei-30"/>
       <use x="55.078125" xlink:href="#WenQuanYiMicroHei-2e"/>
       <use x="81.884765625" xlink:href="#WenQuanYiMicroHei-32"/>
      </g>
     </g>
    </g>
    <g id="ytick_3">
     <g id="line2d_16">
      <g>
       <use style="stroke:#000000;stroke-width:0.5;" x="24.2135425" xlink:href="#m728421d6d4" y="160.318125"/>
      </g>
     </g>
     <g id="line2d_17">
      <g>
       <use style="stroke:#000000;stroke-width:0.5;" x="470.6135425" xlink:href="#mcb0005524f" y="160.318125"/>
      </g>
     </g>
     <g id="text_8">
      <!-- 0.4 -->
      <defs>
       <path d="
M53.0781 16.0156
L42.6719 16.0156
L42.6719 0
L34.0781 0
L34.0781 16.0156
L1.125 16.0156
L1.125 23.7812
L33.5 71.7812
L42.6719 71.7812
L42.6719 24.125
L53.0781 24.125
z

M34.0781 24.125
L34.0781 41.5
Q34.0781 44.2344 34.1562 47.2344
Q34.2344 50.25 34.3281 53.0938
Q34.4219 55.9531 34.5469 58.4375
Q34.6719 60.9375 34.7188 62.5938
L34.2812 62.5938
Q33.9375 61.625 33.4219 60.4219
Q32.9062 59.2344 32.2969 58.0312
Q31.6875 56.8438 31.0469 55.7188
Q30.4219 54.5938 29.8906 53.8125
L9.8125 24.125
z
" id="WenQuanYiMicroHei-34"/>
      </defs>
      <g transform="translate(7.2 162.914742188)scale(0.09996 -0.09996)">
       <use xlink:href="#WenQuanYiMicroHei-30"/>
       <use x="55.078125" xlink:href="#WenQuanYiMicroHei-2e"/>
       <use x="81.884765625" xlink:href="#WenQuanYiMicroHei-34"/>
      </g>
     </g>
    </g>
    <g id="ytick_4">
     <g id="line2d_18">
      <g>
       <use style="stroke:#000000;stroke-width:0.5;" x="24.2135425" xlink:href="#m728421d6d4" y="114.238125"/>
      </g>
     </g>
     <g id="line2d_19">
      <g>
       <use style="stroke:#000000;stroke-width:0.5;" x="470.6135425" xlink:href="#mcb0005524f" y="114.238125"/>
      </g>
     </g>
     <g id="text_9">
      <!-- 0.6 -->
      <defs>
       <path d="
M5.51562 30.5156
Q5.51562 35.6406 6.03125 40.7188
Q6.54688 45.7969 7.82812 50.4531
Q9.125 55.125 11.375 59.125
Q13.625 63.1406 17.0938 66.0938
Q20.5625 69.0469 25.3906 70.7188
Q30.2188 72.4062 36.7188 72.4062
Q37.6406 72.4062 38.7656 72.3594
Q39.8906 72.3125 41.0312 72.1875
Q42.1875 72.0781 43.2344 71.9062
Q44.2812 71.7344 45.125 71.4844
L45.125 63.9219
Q43.4062 64.5 41.25 64.7969
Q39.1094 65.0938 37.0156 65.0938
Q32.625 65.0938 29.2656 64.0312
Q25.9219 62.9844 23.4844 61.0781
Q21.0469 59.1875 19.4062 56.5469
Q17.7812 53.9062 16.75 50.7031
Q15.7188 47.5156 15.2344 43.8906
Q14.75 40.2812 14.5938 36.375
L15.1875 36.375
Q16.1562 38.1406 17.5469 39.6719
Q18.9531 41.2188 20.7969 42.3125
Q22.6562 43.4062 24.9688 44.0312
Q27.2969 44.6719 30.1719 44.6719
Q34.8125 44.6719 38.5625 43.2344
Q42.3281 41.7969 44.9688 39.0156
Q47.6094 36.2344 49.0469 32.2031
Q50.4844 28.1719 50.4844 23
Q50.4844 17.4375 48.9688 12.9844
Q47.4688 8.54688 44.625 5.4375
Q41.7969 2.34375 37.7969 0.671875
Q33.7969 -0.984375 28.8125 -0.984375
Q23.9219 -0.984375 19.6406 0.921875
Q15.375 2.82812 12.25 6.73438
Q9.125 10.6406 7.3125 16.5469
Q5.51562 22.4688 5.51562 30.5156
M28.7188 6.5
Q31.6406 6.5 34.0469 7.5
Q36.4688 8.5 38.2188 10.5156
Q39.9844 12.5469 40.9375 15.6406
Q41.8906 18.75 41.8906 23
Q41.8906 26.4219 41.0781 29.125
Q40.2812 31.8438 38.6719 33.7344
Q37.0625 35.6406 34.6406 36.6719
Q32.2344 37.7031 29 37.7031
Q25.7344 37.7031 23.0156 36.5469
Q20.3125 35.4062 18.4062 33.5625
Q16.5 31.7344 15.4531 29.3906
Q14.4062 27.0469 14.4062 24.7031
Q14.4062 21.4375 15.3125 18.1875
Q16.2188 14.9375 18 12.3438
Q19.7812 9.76562 22.4531 8.125
Q25.1406 6.5 28.7188 6.5" id="WenQuanYiMicroHei-36"/>
      </defs>
      <g transform="translate(7.45927125 116.834742188)scale(0.09996 -0.09996)">
       <use xlink:href="#WenQuanYiMicroHei-30"/>
       <use x="55.078125" xlink:href="#WenQuanYiMicroHei-2e"/>
       <use x="81.884765625" xlink:href="#WenQuanYiMicroHei-36"/>
      </g>
     </g>
    </g>
    <g id="ytick_5">
     <g id="line2d_20">
      <g>
       <use style="stroke:#000000;stroke-width:0.5;" x="24.2135425" xlink:href="#m728421d6d4" y="68.158125"/>
      </g>
     </g>
     <g id="line2d_21">
      <g>
       <use style="stroke:#000000;stroke-width:0.5;" x="470.6135425" xlink:href="#mcb0005524f" y="68.158125"/>
      </g>
     </g>
     <g id="text_10">
      <!-- 0.8 -->
      <defs>
       <path d="
M27.5938 72.5156
Q31.6875 72.5156 35.3281 71.4375
Q38.9688 70.3594 41.7188 68.2031
Q44.4844 66.0625 46.0938 62.8438
Q47.7031 59.625 47.7031 55.3281
Q47.7031 52.0469 46.7188 49.4062
Q45.75 46.7812 44.0312 44.6562
Q42.3281 42.5312 39.9844 40.8438
Q37.6406 39.1562 34.9062 37.7969
Q37.75 36.2812 40.4531 34.4219
Q43.1719 32.5625 45.2812 30.25
Q47.4062 27.9375 48.7031 25.0469
Q50 22.1719 50 18.6094
Q50 14.1094 48.3594 10.4688
Q46.7344 6.84375 43.7812 4.29688
Q40.8281 1.76562 36.6875 0.390625
Q32.5625 -0.984375 27.5938 -0.984375
Q22.2188 -0.984375 18.0469 0.328125
Q13.875 1.65625 11.0156 4.125
Q8.15625 6.59375 6.65625 10.1562
Q5.17188 13.7188 5.17188 18.2188
Q5.17188 21.875 6.26562 24.7969
Q7.375 27.7344 9.21875 30.0781
Q11.0781 32.4219 13.6094 34.2188
Q16.1562 36.0312 19 37.4062
Q16.6094 38.9219 14.5 40.7031
Q12.4062 42.4844 10.8594 44.6719
Q9.32812 46.875 8.42188 49.5312
Q7.51562 52.2031 7.51562 55.4219
Q7.51562 59.6719 9.15625 62.8594
Q10.7969 66.0625 13.5781 68.2031
Q16.3594 70.3594 20 71.4375
Q23.6406 72.5156 27.5938 72.5156
M13.9219 18.1094
Q13.9219 15.5312 14.7031 13.3594
Q15.4844 11.1875 17.1406 9.64062
Q18.7969 8.10938 21.3281 7.25
Q23.875 6.39062 27.3906 6.39062
Q30.8125 6.39062 33.4219 7.25
Q36.0312 8.10938 37.7812 9.6875
Q39.5469 11.2812 40.4219 13.5156
Q41.3125 15.7656 41.3125 18.5
Q41.3125 21.0469 40.3594 23.0938
Q39.4062 25.1406 37.625 26.8906
Q35.8438 28.6562 33.3438 30.2188
Q30.8594 31.7812 27.7812 33.2969
L26.3125 33.9844
Q20.1719 31.0625 17.0469 27.2656
Q13.9219 23.4844 13.9219 18.1094
M27.4844 65.0938
Q22.3125 65.0938 19.2656 62.5
Q16.2188 59.9062 16.2188 54.9844
Q16.2188 52.2031 17.0625 50.1875
Q17.9219 48.1875 19.4375 46.625
Q20.9531 45.0625 23.0781 43.8125
Q25.2031 42.5781 27.6875 41.4062
Q30.0312 42.4844 32.1094 43.75
Q34.1875 45.0156 35.7188 46.625
Q37.25 48.25 38.125 50.2969
Q39.0156 52.3438 39.0156 54.9844
Q39.0156 59.9062 35.9375 62.5
Q32.8594 65.0938 27.4844 65.0938" id="WenQuanYiMicroHei-38"/>
      </defs>
      <g transform="translate(7.507689375 70.7547421875)scale(0.09996 -0.09996)">
       <use xlink:href="#WenQuanYiMicroHei-30"/>
       <use x="55.078125" xlink:href="#WenQuanYiMicroHei-2e"/>
       <use x="81.884765625" xlink:href="#WenQuanYiMicroHei-38"/>
      </g>
     </g>
    </g>
    <g id="ytick_6">
     <g id="line2d_22">
      <g>
       <use style="stroke:#000000;stroke-width:0.5;" x="24.2135425" xlink:href="#m728421d6d4" y="22.078125"/>
      </g>
     </g>
     <g id="line2d_23">
      <g>
       <use style="stroke:#000000;stroke-width:0.5;" x="470.6135425" xlink:href="#mcb0005524f" y="22.078125"/>
      </g>
     </g>
     <g id="text_11">
      <!-- 1.0 -->
      <g transform="translate(7.85911125 24.6747421875)scale(0.09996 -0.09996)">
       <use xlink:href="#WenQuanYiMicroHei-31"/>
       <use x="55.078125" xlink:href="#WenQuanYiMicroHei-2e"/>
       <use x="81.884765625" xlink:href="#WenQuanYiMicroHei-30"/>
      </g>
     </g>
    </g>
   </g>
   <g id="text_12">
    <!-- 0 -->
    <g style="fill:#ff0000;" transform="translate(24.2135425 22.078125)scale(0.1 -0.1)">
     <use xlink:href="#WenQuanYiMicroHei-30"/>
    </g>
   </g>
   <g id="text_13">
    <!-- 1 -->
    <g style="fill:#ff0000;" transform="translate(73.8135425 113.100347222)scale(0.11 -0.11)">
     <use xlink:href="#WenQuanYiMicroHei-31"/>
    </g>
   </g>
   <g id="text_14">
    <!-- 2 -->
    <g style="fill:#ff0000;" transform="translate(123.4135425 181.367013889)scale(0.12 -0.12)">
     <use xlink:href="#WenQuanYiMicroHei-32"/>
    </g>
   </g>
   <g id="text_15">
    <!-- 3 -->
    <defs>
     <path d="
M46.9219 54.6875
Q46.9219 51.125 45.7969 48.1875
Q44.6719 45.2656 42.6406 43.1094
Q40.625 40.9688 37.7969 39.5781
Q34.9688 38.1875 31.5 37.5938
L31.5 37.3125
Q40.1406 36.2344 44.625 31.8125
Q49.125 27.3906 49.125 20.3125
Q49.125 15.625 47.5312 11.7188
Q45.9531 7.8125 42.7188 4.98438
Q39.5 2.15625 34.5625 0.578125
Q29.6406 -0.984375 22.9062 -0.984375
Q17.5781 -0.984375 12.8594 -0.140625
Q8.15625 0.6875 4 2.875
L4 11.1875
Q8.25 8.9375 13.2031 7.71875
Q18.1719 6.5 22.7031 6.5
Q27.2031 6.5 30.4688 7.46875
Q33.7344 8.45312 35.8594 10.25
Q37.9844 12.0625 38.9844 14.6875
Q39.9844 17.3281 39.9844 20.6094
Q39.9844 23.9219 38.6875 26.2812
Q37.4062 28.6562 35.0156 30.1875
Q32.625 31.7344 29.1719 32.4688
Q25.7344 33.2031 21.3906 33.2031
L14.8906 33.2031
L14.8906 40.5781
L21.3906 40.5781
Q25.3438 40.5781 28.4219 41.5469
Q31.5 42.5312 33.5625 44.3281
Q35.6406 46.1406 36.7188 48.625
Q37.7969 51.125 37.7969 54.1094
Q37.7969 56.6406 36.9062 58.6406
Q36.0312 60.6406 34.4219 62.0312
Q32.8125 63.4219 30.5625 64.1562
Q28.3281 64.8906 25.5938 64.8906
Q20.3594 64.8906 16.375 63.25
Q12.4062 61.625 8.79688 58.9844
L4.29688 65.0938
Q6.15625 66.6094 8.42188 67.9219
Q10.6875 69.2344 13.375 70.2344
Q16.0625 71.2344 19.1094 71.8125
Q22.1719 72.4062 25.5938 72.4062
Q30.8594 72.4062 34.8281 71.0938
Q38.8125 69.7812 41.5 67.4062
Q44.1875 65.0469 45.5469 61.7969
Q46.9219 58.5469 46.9219 54.6875" id="WenQuanYiMicroHei-33"/>
    </defs>
    <g style="fill:#ff0000;" transform="translate(173.0135425 226.878125)scale(0.13 -0.13)">
     <use xlink:href="#WenQuanYiMicroHei-33"/>
    </g>
   </g>
   <g id="text_16">
    <!-- 4 -->
    <g style="fill:#ff0000;" transform="translate(222.6135425 249.633680556)scale(0.14 -0.14)">
     <use xlink:href="#WenQuanYiMicroHei-34"/>
    </g>
   </g>
   <g id="text_17">
    <!-- 5 -->
    <g style="fill:#ff0000;" transform="translate(272.2135425 249.633680556)scale(0.15 -0.15)">
     <use xlink:href="#WenQuanYiMicroHei-35"/>
    </g>
   </g>
   <g id="text_18">
    <!-- 6 -->
    <g style="fill:#ff0000;" transform="translate(321.8135425 226.878125)scale(0.16 -0.16)">
     <use xlink:href="#WenQuanYiMicroHei-36"/>
    </g>
   </g>
   <g id="text_19">
    <!-- 7 -->
    <defs>
     <path d="
M13.7188 0
L41.2188 63.2812
L4.39062 63.2812
L4.39062 71.3906
L50.2969 71.3906
L50.2969 64.3125
L23.1875 0
z
" id="WenQuanYiMicroHei-37"/>
    </defs>
    <g style="fill:#ff0000;" transform="translate(371.4135425 181.367013889)scale(0.17 -0.17)">
     <use xlink:href="#WenQuanYiMicroHei-37"/>
    </g>
   </g>
   <g id="text_20">
    <!-- 8 -->
    <g style="fill:#ff0000;" transform="translate(421.0135425 113.100347222)scale(0.18 -0.18)">
     <use xlink:href="#WenQuanYiMicroHei-38"/>
    </g>
   </g>
   <g id="text_21">
    <!-- 9 -->
    <defs>
     <path d="
M50.2031 40.9219
Q50.2031 35.7969 49.6875 30.6875
Q49.1719 25.5938 47.875 20.9531
Q46.5781 16.3125 44.3281 12.2812
Q42.0938 8.25 38.625 5.3125
Q35.1562 2.39062 30.3125 0.703125
Q25.4844 -0.984375 19 -0.984375
Q18.0625 -0.984375 16.9375 -0.921875
Q15.8281 -0.875 14.7031 -0.75
Q13.5781 -0.640625 12.5 -0.484375
Q11.4219 -0.34375 10.5938 -0.09375
L10.5938 7.51562
Q12.3125 6.89062 14.4531 6.59375
Q16.6094 6.29688 18.7031 6.29688
Q25.2969 6.29688 29.5469 8.59375
Q33.7969 10.8906 36.2812 14.8125
Q38.7656 18.75 39.8125 23.9688
Q40.875 29.2031 41.1094 35.0156
L40.4844 35.0156
Q39.5 33.25 38.125 31.7344
Q36.7656 30.2188 34.9062 29.0938
Q33.0625 27.9844 30.7188 27.3438
Q28.375 26.7031 25.4844 26.7031
Q20.8438 26.7031 17.0781 28.1406
Q13.3281 29.5938 10.6875 32.375
Q8.0625 35.1562 6.60938 39.1875
Q5.17188 43.2188 5.17188 48.3906
Q5.17188 53.9531 6.70312 58.4219
Q8.25 62.8906 11.0625 65.9844
Q13.875 69.0938 17.8906 70.75
Q21.9219 72.4062 26.9062 72.4062
Q31.8438 72.4062 36.0781 70.5
Q40.3281 68.6094 43.4531 64.7031
Q46.5781 60.7969 48.3906 54.8594
Q50.2031 48.9219 50.2031 40.9219
M27 64.8906
Q24.0781 64.8906 21.6562 63.9062
Q19.2344 62.9375 17.4688 60.8906
Q15.7188 58.8438 14.7656 55.7344
Q13.8125 52.6406 13.8125 48.3906
Q13.8125 44.9688 14.625 42.25
Q15.4375 39.5469 17.0469 37.6406
Q18.6562 35.75 21.0625 34.7188
Q23.4844 33.6875 26.7031 33.6875
Q30.0312 33.6875 32.7188 34.8281
Q35.4062 35.9844 37.2969 37.8125
Q39.2031 39.6562 40.25 42
Q41.3125 44.3438 41.3125 46.6875
Q41.3125 49.9531 40.4062 53.2031
Q39.5 56.4531 37.7188 59.0625
Q35.9375 61.6719 33.25 63.2812
Q30.5625 64.8906 27 64.8906" id="WenQuanYiMicroHei-39"/>
    </defs>
    <g style="fill:#ff0000;" transform="translate(470.6135425 22.078125)scale(0.19 -0.19)">
     <use xlink:href="#WenQuanYiMicroHei-39"/>
    </g>
   </g>
   <g id="text_22">
    <!-- 子图坐标系中的文字 -->
    <defs>
     <path d="
M6.25 64.4531
L46.4844 64.4531
Q42.9688 70.3125 39.0625 75.7812
L45.7031 80.4688
Q51.5625 73.4375 55.8594 64.4531
L93.75 64.4531
L93.75 57.0312
L78.5156 57.0312
Q75.3906 42.1875 68.5469 31.25
Q61.7188 20.3125 57.0312 17.5781
Q71.0938 7.03125 94.1406 -1.17188
L89.4531 -9.76562
Q67.5781 -2.34375 50 11.7188
Q33.5938 -0.390625 9.375 -9.375
L3.90625 -1.95312
Q27.3438 6.25 43.3594 17.5781
Q27.3438 33.2031 20.7031 57.0312
L6.25 57.0312
z

M29.2969 57.0312
Q35.9375 35.9375 50.3906 23.0469
Q64.8438 35.5469 69.9219 57.0312
z
" id="WenQuanYiMicroHei-6587"/>
     <path d="
M58.9844 80.4688
L66.7969 78.9062
Q64.8438 71.4844 61.7188 64.4531
L92.1875 64.4531
Q92.1875 12.8906 88.6719 0.78125
Q85.9375 -8.98438 75.7812 -8.98438
Q70.7031 -8.98438 63.6719 -7.42188
L61.7188 0.78125
Q71.4844 -0.78125 75.7812 -0.78125
Q80.4688 -0.78125 81.6406 4.6875
Q83.9844 15.2344 83.9844 57.0312
L57.8125 57.0312
Q53.125 48.8281 47.6562 43.3594
L41.7969 48.8281
Q53.5156 61.7188 58.9844 80.4688
M62.1094 41.7969
Q67.9688 33.2031 71.875 22.6562
L64.4531 19.1406
Q60.5469 30.0781 54.6875 38.6719
z

M40.2344 67.9688
L40.2344 -2.73438
L33.2031 -2.73438
L33.2031 0.390625
L15.2344 0.390625
L15.2344 -5.46875
L8.20312 -5.46875
L8.20312 67.9688
L16.7969 67.9688
Q18.75 74.2188 19.5312 80.8594
L27.7344 79.2969
Q26.1719 73.0469 24.2188 67.9688
z

M33.2031 37.8906
L33.2031 60.5469
L15.2344 60.5469
L15.2344 37.8906
z

M15.2344 30.4688
L15.2344 7.8125
L33.2031 7.8125
L33.2031 30.4688
z
" id="WenQuanYiMicroHei-7684"/>
     <path d="
M15.625 77.3438
L85.5469 77.3438
L85.5469 68.75
Q71.4844 57.0312 54.2969 46.875
L54.2969 40.2344
L94.1406 40.2344
L94.1406 32.8125
L54.2969 32.8125
L54.2969 -1.5625
Q54.2969 -5.07812 51.5625 -7.03125
Q48.8281 -8.98438 43.3594 -8.98438
Q36.3281 -8.98438 29.6875 -7.42188
L28.5156 0
Q33.9844 -1.5625 41.4062 -1.5625
Q46.0938 -1.5625 46.0938 0
L46.0938 32.8125
L5.85938 32.8125
L5.85938 40.2344
L46.0938 40.2344
L46.0938 50.7812
Q62.1094 60.5469 75 69.5312
L15.625 69.5312
z
" id="WenQuanYiMicroHei-5b50"/>
     <path d="
M50.7812 81.6406
Q53.5156 77.3438 55.0781 72.2656
L92.5781 72.2656
L92.5781 54.2969
L84.7656 54.2969
L84.7656 65.2344
L15.2344 65.2344
L15.2344 54.2969
L7.42188 54.2969
L7.42188 72.2656
L46.4844 72.2656
Q44.5312 76.1719 42.5781 79.2969
z

M19.5312 55.4688
L79.2969 55.4688
L79.2969 47.2656
Q67.9688 39.0625 54.2969 32.0312
L54.2969 28.5156
L93.3594 28.5156
L93.3594 20.7031
L54.2969 20.7031
L54.2969 -1.95312
Q54.2969 -5.46875 51.5625 -7.42188
Q48.8281 -9.375 43.75 -9.375
Q35.1562 -9.375 26.9531 -7.8125
L25.7812 -0.390625
Q32.8125 -1.95312 41.7969 -1.95312
Q45.3125 -1.95312 45.3125 -0.390625
L45.3125 20.7031
L6.64062 20.7031
L6.64062 28.5156
L45.3125 28.5156
L45.3125 36.3281
Q57.0312 42.1875 66.4062 48.0469
L19.5312 48.0469
z
" id="WenQuanYiMicroHei-5b57"/>
     <path d="
M37.8906 68.3594
L44.9219 66.7969
L43.3594 63.6719
L68.3594 63.6719
L68.3594 57.4219
Q63.6719 49.2188 57.0312 44.1406
Q67.9688 39.0625 79.6875 36.7188
L75.7812 30.0781
Q63.2812 33.2031 50.3906 39.4531
Q39.0625 33.5938 23.4375 30.8594
L19.5312 37.1094
Q33.5938 39.4531 42.9688 44.1406
Q38.2812 47.2656 34.375 51.1719
Q30.8594 47.2656 26.5625 44.5312
L21.4844 49.2188
Q32.4219 56.6406 37.8906 68.3594
M39.0625 56.25
Q43.75 51.5625 50 47.6562
Q55.8594 51.9531 59.375 57.0312
L39.4531 57.0312
z

M44.1406 33.5938
Q55.0781 30.4688 64.8438 26.5625
L61.7188 19.5312
Q51.1719 24.2188 40.625 26.9531
z

M35.9375 23.0469
Q54.2969 18.3594 66.7969 11.7188
L62.5 5.46875
Q50.3906 11.7188 32.8125 16.7969
z

M91.0156 77.7344
L91.0156 -8.98438
L83.2031 -8.98438
L83.2031 -3.51562
L16.7969 -3.51562
L16.7969 -8.98438
L8.98438 -8.98438
L8.98438 77.7344
z

M16.7969 3.90625
L83.2031 3.90625
L83.2031 70.3125
L16.7969 70.3125
z
" id="WenQuanYiMicroHei-56fe"/>
     <path d="
M89.4531 66.0156
L89.4531 17.9688
L81.6406 17.9688
L81.6406 24.2188
L53.5156 24.2188
L53.5156 -9.76562
L45.7031 -9.76562
L45.7031 24.2188
L18.75 24.2188
L18.75 17.1875
L10.9375 17.1875
L10.9375 66.0156
L45.7031 66.0156
L45.7031 81.25
L53.5156 81.25
L53.5156 66.0156
z

M18.75 31.6406
L45.7031 31.6406
L45.7031 58.5938
L18.75 58.5938
z

M53.5156 58.5938
L53.5156 31.6406
L81.6406 31.6406
L81.6406 58.5938
z
" id="WenQuanYiMicroHei-4e2d"/>
     <path d="
M66.0156 65.2344
L73.0469 62.5
Q51.5625 41.4062 28.125 29.6875
Q52.7344 31.6406 72.6562 34.375
Q68.75 38.6719 64.4531 42.9688
L71.4844 47.2656
Q83.5938 35.9375 91.0156 22.6562
L83.5938 18.3594
Q80.8594 23.8281 76.9531 28.9062
L55.0781 25.7812
L55.0781 1.95312
Q55.0781 -4.29688 53.125 -6.64062
Q51.1719 -8.98438 45.7031 -8.98438
Q40.2344 -8.98438 35.5469 -7.8125
L33.9844 0
Q39.0625 -1.17188 44.5312 -1.17188
Q46.4844 -1.17188 46.4844 3.51562
L46.4844 25
Q31.6406 23.4375 15.625 22.2656
L13.6719 28.5156
Q28.125 35.5469 41.4062 44.9219
Q29.2969 42.9688 16.7969 41.7969
L15.2344 48.8281
Q28.5156 57.0312 37.5 69.5312
L14.8438 68.75
L10.5469 75.7812
Q60.1562 77.3438 80.4688 80.0781
L86.3281 73.4375
Q70.3125 71.4844 47.6562 69.9219
Q39.0625 57.4219 27.3438 49.2188
Q41.0156 50.3906 51.1719 52.3438
Q58.5938 58.2031 66.0156 65.2344
M29.6875 19.5312
L34.7656 13.2812
Q23.0469 1.17188 8.98438 -6.25
L5.07812 1.17188
Q17.5781 7.03125 29.6875 19.5312
M69.9219 19.5312
Q82.0312 9.375 89.4531 -1.95312
L82.0312 -6.25
Q75 4.6875 62.8906 14.8438
z
" id="WenQuanYiMicroHei-7cfb"/>
     <path d="
M6.64062 62.8906
L19.1406 62.8906
L19.1406 80.8594
L26.5625 80.8594
L26.5625 62.8906
L38.2812 62.8906
L38.2812 55.4688
L26.5625 55.4688
L26.5625 50.7812
Q33.9844 41.7969 39.4531 33.2031
L34.375 25.7812
Q30.4688 33.9844 26.5625 40.2344
L26.5625 -8.98438
L19.1406 -8.98438
L19.1406 33.5938
Q14.8438 20.7031 8.98438 12.1094
L3.51562 17.5781
Q14.8438 34.375 18.3594 55.4688
L6.64062 55.4688
z

M44.5312 75.7812
L86.7188 75.7812
L86.7188 68.3594
L44.5312 68.3594
z

M38.6719 53.5156
L93.3594 53.5156
L93.3594 46.0938
L69.5312 46.0938
L69.5312 0.78125
Q69.5312 -4.6875 66.9844 -7.03125
Q64.4531 -9.375 55.4688 -9.375
Q52.3438 -9.375 49.6094 -8.20312
L48.0469 0
Q51.9531 -1.5625 55.4688 -1.5625
Q58.5938 -1.5625 59.9531 -0.578125
Q61.3281 0.390625 61.3281 2.34375
L61.3281 46.0938
L38.6719 46.0938
z

M82.0312 36.3281
Q90.2344 21.875 95.3125 5.46875
L87.8906 1.17188
Q83.2031 17.5781 75 32.0312
z

M46.875 35.9375
L53.9062 32.4219
Q47.2656 11.7188 39.4531 0.78125
L33.2031 6.25
Q41.4062 19.5312 46.875 35.9375" id="WenQuanYiMicroHei-6807"/>
     <path d="
M12.1094 26.1719
L45.7031 26.1719
L45.7031 81.25
L53.5156 81.25
L53.5156 26.1719
L87.8906 26.1719
L87.8906 18.75
L53.5156 18.75
L53.5156 1.95312
L94.5312 1.95312
L94.5312 -5.46875
L5.46875 -5.46875
L5.46875 1.95312
L45.7031 1.95312
L45.7031 18.75
L12.1094 18.75
z

M71.875 75.3906
L79.6875 73.4375
Q78.9062 66.7969 76.9531 60.5469
Q85.9375 50.7812 94.9219 38.6719
L88.6719 32.4219
Q82.4219 42.5781 74.2188 52.3438
Q68.75 39.8438 60.5469 30.8594
L54.6875 36.7188
Q69.5312 53.5156 71.875 75.3906
M21.0938 75.3906
L28.9062 73.4375
Q28.125 66.7969 26.1719 60.5469
Q35.1562 50.7812 44.1406 38.6719
L37.8906 32.4219
Q31.6406 42.5781 23.4375 52.3438
Q18.3594 40.625 9.76562 30.8594
L3.90625 36.7188
Q18.3594 53.5156 21.0938 75.3906" id="WenQuanYiMicroHei-5750"/>
    </defs>
    <g style="fill:#0000ff;" transform="translate(194.1635425 68.158125)scale(0.12 -0.12)">
     <use xlink:href="#WenQuanYiMicroHei-5b50"/>
     <use x="100.0" xlink:href="#WenQuanYiMicroHei-56fe"/>
     <use x="200.0" xlink:href="#WenQuanYiMicroHei-5750"/>
     <use x="300.0" xlink:href="#WenQuanYiMicroHei-6807"/>
     <use x="400.0" xlink:href="#WenQuanYiMicroHei-7cfb"/>
     <use x="500.0" xlink:href="#WenQuanYiMicroHei-4e2d"/>
     <use x="600.0" xlink:href="#WenQuanYiMicroHei-7684"/>
     <use x="700.0" xlink:href="#WenQuanYiMicroHei-6587"/>
     <use x="800.0" xlink:href="#WenQuanYiMicroHei-5b57"/>
    </g>
   </g>
  </g>
  <g id="text_23">
   <!-- 图表坐标系中的文字 -->
   <defs>
    <path d="
M26.9531 17.9688
Q16.7969 11.3281 8.98438 8.20312
L3.90625 15.2344
Q24.2188 23.0469 35.9375 34.7656
L5.46875 34.7656
L5.46875 42.1875
L46.0938 42.1875
L46.0938 50.3906
L12.5 50.3906
L12.5 57.8125
L46.0938 57.8125
L46.0938 65.625
L8.98438 65.625
L8.98438 73.0469
L46.0938 73.0469
L46.0938 80.8594
L53.9062 80.8594
L53.9062 73.0469
L91.0156 73.0469
L91.0156 65.625
L53.9062 65.625
L53.9062 57.8125
L87.5 57.8125
L87.5 50.3906
L53.9062 50.3906
L53.9062 42.1875
L94.5312 42.1875
L94.5312 34.7656
L58.2031 34.7656
Q61.3281 26.1719 65.625 20.7031
Q76.5625 25 85.5469 32.4219
L91.0156 26.1719
Q80.8594 19.1406 70.7031 14.8438
Q79.6875 5.85938 96.4844 -0.390625
L92.1875 -7.8125
Q58.9844 5.07812 50.7812 34.7656
L45.7031 34.7656
Q40.625 28.9062 35.1562 24.2188
L35.1562 0.78125
Q46.875 3.51562 55.8594 7.03125
L57.4219 -0.390625
Q46.0938 -4.6875 30.8594 -8.20312
L26.9531 -4.29688
z
" id="WenQuanYiMicroHei-8868"/>
   </defs>
   <g style="fill:#008000;" transform="translate(9.8135425 16.318125)scale(0.12 -0.12)">
    <use xlink:href="#WenQuanYiMicroHei-56fe"/>
    <use x="100.0" xlink:href="#WenQuanYiMicroHei-8868"/>
    <use x="200.0" xlink:href="#WenQuanYiMicroHei-5750"/>
    <use x="300.0" xlink:href="#WenQuanYiMicroHei-6807"/>
    <use x="400.0" xlink:href="#WenQuanYiMicroHei-7cfb"/>
    <use x="500.0" xlink:href="#WenQuanYiMicroHei-4e2d"/>
    <use x="600.0" xlink:href="#WenQuanYiMicroHei-7684"/>
    <use x="700.0" xlink:href="#WenQuanYiMicroHei-6587"/>
    <use x="800.0" xlink:href="#WenQuanYiMicroHei-5b57"/>
   </g>
  </g>
 </g>
 <defs>
  <clipPath id="p0451c6a66e">
   <rect height="230.4" width="446.4" x="24.2135425" y="22.078125"/>
  </clipPath>
 </defs>
</svg>
